<?xml version="1.0" encoding="utf-8" standalone="no"?>
<!DOCTYPE svg PUBLIC "-//W3C//DTD SVG 1.1//EN"
  "http://www.w3.org/Graphics/SVG/1.1/DTD/svg11.dtd">
<svg xmlns:xlink="http://www.w3.org/1999/xlink" width="460.8pt" height="345.6pt" viewBox="0 0 460.8 345.6" xmlns="http://www.w3.org/2000/svg" version="1.1">
 <metadata>
  <rdf:RDF xmlns:dc="http://purl.org/dc/elements/1.1/" xmlns:cc="http://creativecommons.org/ns#" xmlns:rdf="http://www.w3.org/1999/02/22-rdf-syntax-ns#">
   <cc:Work>
    <dc:type rdf:resource="http://purl.org/dc/dcmitype/StillImage"/>
    <dc:date>2026-02-12T00:49:46.195743</dc:date>
    <dc:format>image/svg+xml</dc:format>
    <dc:creator>
     <cc:Agent>
      <dc:title>Matplotlib v3.10.8, https://matplotlib.org/</dc:title>
     </cc:Agent>
    </dc:creator>
   </cc:Work>
  </rdf:RDF>
 </metadata>
 <defs>
  <style type="text/css">*{stroke-linejoin: round; stroke-linecap: butt}</style>
 </defs>
 <g id="figure_1">
  <g id="patch_1">
   <path d="M 0 345.6 
L 460.8 345.6 
L 460.8 0 
L 0 0 
L 0 345.6 
z
" style="fill: none"/>
  </g>
  <g id="axes_1">
   <g id="patch_2">
    <path d="M 47.018 302.2 
L 450 302.2 
L 450 10.8 
L 47.018 10.8 
L 47.018 302.2 
z
" style="fill: none"/>
   </g>
   <g id="FillBetweenPolyCollection_1">
    <path d="M 65.335364 220.580693 
L 65.335364 277.726659 
L 72.811839 271.263688 
L 80.288314 265.07813 
L 87.764788 259.555943 
L 95.241263 255.474404 
L 102.717738 252.456295 
L 110.194213 249.394646 
L 117.670688 247.301187 
L 125.147163 244.991963 
L 132.623638 242.688183 
L 140.100113 240.136378 
L 147.576588 238.37635 
L 155.053063 236.337842 
L 162.529538 233.959767 
L 170.006013 232.328641 
L 177.482488 230.067351 
L 184.958963 228.968543 
L 192.435438 227.790223 
L 199.911913 225.817337 
L 207.388388 223.256244 
L 214.864863 222.656006 
L 222.341338 221.697217 
L 229.817813 219.207443 
L 237.294288 217.795411 
L 244.770763 215.213376 
L 252.247237 214.768563 
L 259.723712 213.489873 
L 267.200187 212.860032 
L 274.676662 210.803891 
L 282.153137 209.99683 
L 289.629612 208.641624 
L 297.106087 207.153028 
L 304.582562 206.006702 
L 312.059037 204.089648 
L 319.535512 203.385175 
L 327.011987 202.299926 
L 334.488462 201.329956 
L 341.964937 201.132554 
L 349.441412 198.114701 
L 356.917887 199.244176 
L 364.394362 197.815093 
L 371.870837 195.104215 
L 379.347312 194.99565 
L 386.823787 192.954463 
L 394.300262 192.025525 
L 401.776737 190.582165 
L 409.253212 189.11963 
L 416.729686 188.080064 
L 424.206161 187.30143 
L 431.682636 185.174252 
L 431.682636 128.541795 
L 431.682636 128.541795 
L 424.206161 130.516331 
L 416.729686 132.332511 
L 409.253212 132.886279 
L 401.776737 134.921775 
L 394.300262 135.820462 
L 386.823787 137.423759 
L 379.347312 140.595062 
L 371.870837 140.268005 
L 364.394362 141.163234 
L 356.917887 142.411064 
L 349.441412 143.622446 
L 341.964937 145.238901 
L 334.488462 145.169944 
L 327.011987 147.829253 
L 319.535512 148.871066 
L 312.059037 149.552892 
L 304.582562 151.542443 
L 297.106087 152.062535 
L 289.629612 153.326727 
L 282.153137 153.890703 
L 274.676662 155.202862 
L 267.200187 156.738398 
L 259.723712 158.72542 
L 252.247237 159.621575 
L 244.770763 160.304926 
L 237.294288 162.99945 
L 229.817813 164.542938 
L 222.341338 165.068998 
L 214.864863 167.058544 
L 207.388388 168.983899 
L 199.911913 169.831138 
L 192.435438 171.831716 
L 184.958963 173.863085 
L 177.482488 175.456363 
L 170.006013 177.389903 
L 162.529538 178.870124 
L 155.053063 181.553873 
L 147.576588 183.002119 
L 140.100113 185.163654 
L 132.623638 187.240709 
L 125.147163 188.117826 
L 117.670688 191.027818 
L 110.194213 194.356725 
L 102.717738 196.930465 
L 95.241263 200.326813 
L 87.764788 204.246205 
L 80.288314 209.206394 
L 72.811839 213.900682 
L 65.335364 220.580693 
z
" clip-path="url(#p2cc4c45efa)" style="fill: #1f77b4; fill-opacity: 0.45"/>
   </g>
   <g id="PathCollection_1">
    <defs>
     <path id="m7a7169fa3a" d="M 0 2.12132 
C 0.562581 2.12132 1.102195 1.897805 1.5 1.5 
C 1.897805 1.102195 2.12132 0.562581 2.12132 0 
C 2.12132 -0.562581 1.897805 -1.102195 1.5 -1.5 
C 1.102195 -1.897805 0.562581 -2.12132 0 -2.12132 
C -0.562581 -2.12132 -1.102195 -1.897805 -1.5 -1.5 
C -1.897805 -1.102195 -2.12132 -0.562581 -2.12132 0 
C -2.12132 0.562581 -1.897805 1.102195 -1.5 1.5 
C -1.102195 1.897805 -0.562581 2.12132 0 2.12132 
z
" style="stroke: #000000; stroke-opacity: 0.7"/>
    </defs>
    <g clip-path="url(#p2cc4c45efa)">
     <use xlink:href="#m7a7169fa3a" x="65.335364" y="187.500927" style="fill-opacity: 0.7; stroke: #000000; stroke-opacity: 0.7"/>
     <use xlink:href="#m7a7169fa3a" x="98.639661" y="152.734157" style="fill-opacity: 0.7; stroke: #000000; stroke-opacity: 0.7"/>
     <use xlink:href="#m7a7169fa3a" x="135.644436" y="127.141808" style="fill-opacity: 0.7; stroke: #000000; stroke-opacity: 0.7"/>
     <use xlink:href="#m7a7169fa3a" x="172.649211" y="109.195466" style="fill-opacity: 0.7; stroke: #000000; stroke-opacity: 0.7"/>
     <use xlink:href="#m7a7169fa3a" x="209.653986" y="90.888513" style="fill-opacity: 0.7; stroke: #000000; stroke-opacity: 0.7"/>
     <use xlink:href="#m7a7169fa3a" x="246.658761" y="77.429082" style="fill-opacity: 0.7; stroke: #000000; stroke-opacity: 0.7"/>
     <use xlink:href="#m7a7169fa3a" x="283.663536" y="65.85363" style="fill-opacity: 0.7; stroke: #000000; stroke-opacity: 0.7"/>
     <use xlink:href="#m7a7169fa3a" x="320.668311" y="53.85717" style="fill-opacity: 0.7; stroke: #000000; stroke-opacity: 0.7"/>
     <use xlink:href="#m7a7169fa3a" x="357.673086" y="43.607609" style="fill-opacity: 0.7; stroke: #000000; stroke-opacity: 0.7"/>
     <use xlink:href="#m7a7169fa3a" x="394.677861" y="34.228241" style="fill-opacity: 0.7; stroke: #000000; stroke-opacity: 0.7"/>
     <use xlink:href="#m7a7169fa3a" x="431.682636" y="24.045455" style="fill-opacity: 0.7; stroke: #000000; stroke-opacity: 0.7"/>
    </g>
   </g>
   <g id="FillBetweenPolyCollection_2">
    <path d="M 65.335364 224.446638 
L 65.335364 278.81178 
L 72.811839 272.393575 
L 80.288314 267.265104 
L 87.764788 262.108668 
L 95.241263 259.640631 
L 102.717738 255.14129 
L 110.194213 252.673903 
L 117.670688 250.373058 
L 125.147163 248.06631 
L 132.623638 245.597926 
L 140.100113 242.776112 
L 147.576588 243.078431 
L 155.053063 241.128172 
L 162.529538 237.779044 
L 170.006013 236.640724 
L 177.482488 234.863821 
L 184.958963 232.382465 
L 192.435438 233.091746 
L 199.911913 229.795653 
L 207.388388 228.779852 
L 214.864863 226.627614 
L 222.341338 225.996174 
L 229.817813 224.490318 
L 237.294288 222.094104 
L 244.770763 222.28815 
L 252.247237 220.866029 
L 259.723712 218.801912 
L 267.200187 216.737957 
L 274.676662 215.665004 
L 282.153137 214.993208 
L 289.629612 213.313263 
L 297.106087 213.582758 
L 304.582562 213.620888 
L 312.059037 211.323119 
L 319.535512 209.638655 
L 327.011987 209.510034 
L 334.488462 208.012042 
L 341.964937 207.071764 
L 349.441412 206.58304 
L 356.917887 206.011029 
L 364.394362 204.059034 
L 371.870837 203.333891 
L 379.347312 203.148456 
L 386.823787 201.107677 
L 394.300262 199.979069 
L 401.776737 198.501774 
L 409.253212 197.662904 
L 416.729686 197.169036 
L 424.206161 196.03777 
L 431.682636 196.094323 
L 431.682636 139.218946 
L 431.682636 139.218946 
L 424.206161 140.413745 
L 416.729686 142.146698 
L 409.253212 143.847704 
L 401.776737 144.641136 
L 394.300262 145.31829 
L 386.823787 146.673104 
L 379.347312 148.513726 
L 371.870837 149.013086 
L 364.394362 150.779845 
L 356.917887 151.66485 
L 349.441412 152.063109 
L 341.964937 152.550361 
L 334.488462 153.922647 
L 327.011987 155.892278 
L 319.535512 156.372171 
L 312.059037 157.732266 
L 304.582562 158.559706 
L 297.106087 158.858192 
L 289.629612 160.526187 
L 282.153137 161.32003 
L 274.676662 163.057888 
L 267.200187 163.213866 
L 259.723712 164.844011 
L 252.247237 166.384064 
L 244.770763 167.961967 
L 237.294288 168.438946 
L 229.817813 170.173187 
L 222.341338 171.834042 
L 214.864863 173.173582 
L 207.388388 175.166416 
L 199.911913 175.675883 
L 192.435438 178.961299 
L 184.958963 179.039394 
L 177.482488 180.021422 
L 170.006013 183.302339 
L 162.529538 185.00398 
L 155.053063 186.933974 
L 147.576588 188.616116 
L 140.100113 189.722575 
L 132.623638 190.861848 
L 125.147163 193.452416 
L 117.670688 196.668936 
L 110.194213 199.546741 
L 102.717738 200.785689 
L 95.241263 204.235212 
L 87.764788 207.946466 
L 80.288314 211.763041 
L 72.811839 216.603095 
L 65.335364 224.446638 
z
" clip-path="url(#p2cc4c45efa)" style="fill: #ff7f0e; fill-opacity: 0.45"/>
   </g>
   <g id="PathCollection_2">
    <g clip-path="url(#p2cc4c45efa)">
     <use xlink:href="#m7a7169fa3a" x="65.335364" y="208.894699" style="fill-opacity: 0.7; stroke: #000000; stroke-opacity: 0.7"/>
     <use xlink:href="#m7a7169fa3a" x="98.639661" y="176.506975" style="fill-opacity: 0.7; stroke: #000000; stroke-opacity: 0.7"/>
     <use xlink:href="#m7a7169fa3a" x="135.644436" y="155.377507" style="fill-opacity: 0.7; stroke: #000000; stroke-opacity: 0.7"/>
     <use xlink:href="#m7a7169fa3a" x="172.649211" y="138.68374" style="fill-opacity: 0.7; stroke: #000000; stroke-opacity: 0.7"/>
     <use xlink:href="#m7a7169fa3a" x="209.653986" y="125.727868" style="fill-opacity: 0.7; stroke: #000000; stroke-opacity: 0.7"/>
     <use xlink:href="#m7a7169fa3a" x="246.658761" y="113.766734" style="fill-opacity: 0.7; stroke: #000000; stroke-opacity: 0.7"/>
     <use xlink:href="#m7a7169fa3a" x="283.663536" y="104.018834" style="fill-opacity: 0.7; stroke: #000000; stroke-opacity: 0.7"/>
     <use xlink:href="#m7a7169fa3a" x="320.668311" y="94.066657" style="fill-opacity: 0.7; stroke: #000000; stroke-opacity: 0.7"/>
     <use xlink:href="#m7a7169fa3a" x="357.673086" y="85.816666" style="fill-opacity: 0.7; stroke: #000000; stroke-opacity: 0.7"/>
     <use xlink:href="#m7a7169fa3a" x="394.677861" y="76.542712" style="fill-opacity: 0.7; stroke: #000000; stroke-opacity: 0.7"/>
     <use xlink:href="#m7a7169fa3a" x="431.682636" y="69.111348" style="fill-opacity: 0.7; stroke: #000000; stroke-opacity: 0.7"/>
    </g>
   </g>
   <g id="FillBetweenPolyCollection_3">
    <path d="M 65.335364 224.153528 
L 65.335364 279.365083 
L 72.811839 273.325931 
L 80.288314 268.512541 
L 87.764788 263.368295 
L 95.241263 261.444183 
L 102.717738 257.31345 
L 110.194213 255.354367 
L 117.670688 252.621792 
L 125.147163 250.494628 
L 132.623638 249.175926 
L 140.100113 246.378595 
L 147.576588 245.909632 
L 155.053063 243.174009 
L 162.529538 242.619674 
L 170.006013 239.81721 
L 177.482488 238.62221 
L 184.958963 237.323705 
L 192.435438 235.800912 
L 199.911913 233.900889 
L 207.388388 231.805295 
L 214.864863 230.830053 
L 222.341338 230.150693 
L 229.817813 228.589814 
L 237.294288 226.723015 
L 244.770763 225.86084 
L 252.247237 223.842102 
L 259.723712 223.523151 
L 267.200187 221.62082 
L 274.676662 220.853691 
L 282.153137 221.065776 
L 289.629612 219.756632 
L 297.106087 218.740324 
L 304.582562 217.838072 
L 312.059037 216.989005 
L 319.535512 216.336199 
L 327.011987 214.392182 
L 334.488462 213.953919 
L 341.964937 214.468744 
L 349.441412 212.592276 
L 356.917887 210.378987 
L 364.394362 210.760435 
L 371.870837 209.6636 
L 379.347312 208.06722 
L 386.823787 208.160649 
L 394.300262 206.719859 
L 401.776737 206.967626 
L 409.253212 204.669172 
L 416.729686 205.199029 
L 424.206161 203.970711 
L 431.682636 201.866933 
L 431.682636 147.248701 
L 431.682636 147.248701 
L 424.206161 149.921384 
L 416.729686 151.189017 
L 409.253212 151.649966 
L 401.776737 153.337353 
L 394.300262 153.429598 
L 386.823787 154.09175 
L 379.347312 156.124688 
L 371.870837 156.679253 
L 364.394362 156.528596 
L 356.917887 159.13658 
L 349.441412 158.727256 
L 341.964937 160.15512 
L 334.488462 160.415644 
L 327.011987 161.922213 
L 319.535512 161.448286 
L 312.059037 163.082068 
L 304.582562 164.351151 
L 297.106087 165.090107 
L 289.629612 166.633438 
L 282.153137 167.161574 
L 274.676662 168.706535 
L 267.200187 169.226911 
L 259.723712 170.480077 
L 252.247237 171.276211 
L 244.770763 172.832218 
L 237.294288 173.73726 
L 229.817813 175.16581 
L 222.341338 176.608829 
L 214.864863 178.216748 
L 207.388388 179.355102 
L 199.911913 180.71308 
L 192.435438 181.468678 
L 184.958963 182.936564 
L 177.482488 183.795419 
L 170.006013 186.306853 
L 162.529538 189.394089 
L 155.053063 189.754187 
L 147.576588 191.351958 
L 140.100113 193.136962 
L 132.623638 195.292788 
L 125.147163 197.152998 
L 117.670688 198.815754 
L 110.194213 201.260414 
L 102.717738 204.198396 
L 95.241263 207.377772 
L 87.764788 210.904475 
L 80.288314 213.773649 
L 72.811839 219.191094 
L 65.335364 224.153528 
z
" clip-path="url(#p2cc4c45efa)" style="fill: #2ca02c; fill-opacity: 0.45"/>
   </g>
   <g id="PathCollection_3">
    <g clip-path="url(#p2cc4c45efa)">
     <use xlink:href="#m7a7169fa3a" x="65.335364" y="223.189335" style="fill-opacity: 0.7; stroke: #000000; stroke-opacity: 0.7"/>
     <use xlink:href="#m7a7169fa3a" x="98.639661" y="194.594506" style="fill-opacity: 0.7; stroke: #000000; stroke-opacity: 0.7"/>
     <use xlink:href="#m7a7169fa3a" x="135.644436" y="177.614813" style="fill-opacity: 0.7; stroke: #000000; stroke-opacity: 0.7"/>
     <use xlink:href="#m7a7169fa3a" x="172.649211" y="163.276448" style="fill-opacity: 0.7; stroke: #000000; stroke-opacity: 0.7"/>
     <use xlink:href="#m7a7169fa3a" x="209.653986" y="151.474431" style="fill-opacity: 0.7; stroke: #000000; stroke-opacity: 0.7"/>
     <use xlink:href="#m7a7169fa3a" x="246.658761" y="143.932464" style="fill-opacity: 0.7; stroke: #000000; stroke-opacity: 0.7"/>
     <use xlink:href="#m7a7169fa3a" x="283.663536" y="135.292803" style="fill-opacity: 0.7; stroke: #000000; stroke-opacity: 0.7"/>
     <use xlink:href="#m7a7169fa3a" x="320.668311" y="127.204813" style="fill-opacity: 0.7; stroke: #000000; stroke-opacity: 0.7"/>
     <use xlink:href="#m7a7169fa3a" x="357.673086" y="118.470509" style="fill-opacity: 0.7; stroke: #000000; stroke-opacity: 0.7"/>
     <use xlink:href="#m7a7169fa3a" x="394.677861" y="111.965793" style="fill-opacity: 0.7; stroke: #000000; stroke-opacity: 0.7"/>
     <use xlink:href="#m7a7169fa3a" x="431.682636" y="104.892749" style="fill-opacity: 0.7; stroke: #000000; stroke-opacity: 0.7"/>
    </g>
   </g>
   <g id="FillBetweenPolyCollection_4">
    <path d="M 65.335364 224.165605 
L 65.335364 279.066149 
L 72.811839 273.866178 
L 80.288314 269.369393 
L 87.764788 266.603557 
L 95.241263 263.879915 
L 102.717738 259.915634 
L 110.194213 257.28103 
L 117.670688 256.677089 
L 125.147163 253.980429 
L 132.623638 252.33496 
L 140.100113 251.864811 
L 147.576588 250.169588 
L 155.053063 248.114128 
L 162.529538 246.226097 
L 170.006013 244.553056 
L 177.482488 243.986021 
L 184.958963 241.334841 
L 192.435438 240.311353 
L 199.911913 238.589686 
L 207.388388 239.164681 
L 214.864863 237.018856 
L 222.341338 235.651539 
L 229.817813 234.222253 
L 237.294288 233.297981 
L 244.770763 231.848362 
L 252.247237 231.108345 
L 259.723712 230.425581 
L 267.200187 229.641978 
L 274.676662 228.562649 
L 282.153137 227.679273 
L 289.629612 226.517605 
L 297.106087 225.815514 
L 304.582562 224.942565 
L 312.059037 223.524176 
L 319.535512 222.993307 
L 327.011987 221.573682 
L 334.488462 221.847783 
L 341.964937 220.525594 
L 349.441412 221.078977 
L 356.917887 219.576429 
L 364.394362 218.515862 
L 371.870837 218.520382 
L 379.347312 217.429449 
L 386.823787 217.12094 
L 394.300262 216.078347 
L 401.776737 215.220734 
L 409.253212 215.720743 
L 416.729686 214.559729 
L 424.206161 214.704787 
L 431.682636 214.013283 
L 431.682636 158.8783 
L 431.682636 158.8783 
L 424.206161 160.275808 
L 416.729686 160.718541 
L 409.253212 161.362213 
L 401.776737 162.569929 
L 394.300262 163.204805 
L 386.823787 164.053104 
L 379.347312 164.590114 
L 371.870837 165.440437 
L 364.394362 166.317975 
L 356.917887 166.22752 
L 349.441412 166.5188 
L 341.964937 168.100532 
L 334.488462 169.046278 
L 327.011987 169.376829 
L 319.535512 170.824774 
L 312.059037 170.139988 
L 304.582562 172.311455 
L 297.106087 172.556037 
L 289.629612 172.655851 
L 282.153137 175.312055 
L 274.676662 175.453564 
L 267.200187 176.772344 
L 259.723712 177.306509 
L 252.247237 178.297446 
L 244.770763 178.318367 
L 237.294288 179.535694 
L 229.817813 181.388502 
L 222.341338 182.043079 
L 214.864863 182.876785 
L 207.388388 184.538088 
L 199.911913 186.646539 
L 192.435438 186.610909 
L 184.958963 189.104101 
L 177.482488 190.335955 
L 170.006013 192.053934 
L 162.529538 193.278774 
L 155.053063 194.482341 
L 147.576588 195.743436 
L 140.100113 198.307628 
L 132.623638 200.061158 
L 125.147163 200.733295 
L 117.670688 201.831756 
L 110.194213 204.909974 
L 102.717738 207.610752 
L 95.241263 210.485849 
L 87.764788 212.85218 
L 80.288314 215.865797 
L 72.811839 219.310734 
L 65.335364 224.165605 
z
" clip-path="url(#p2cc4c45efa)" style="fill: #d62728; fill-opacity: 0.45"/>
   </g>
   <g id="PathCollection_4">
    <g clip-path="url(#p2cc4c45efa)">
     <use xlink:href="#m7a7169fa3a" x="65.335364" y="233.966387" style="fill-opacity: 0.7; stroke: #000000; stroke-opacity: 0.7"/>
     <use xlink:href="#m7a7169fa3a" x="98.639661" y="209.88839" style="fill-opacity: 0.7; stroke: #000000; stroke-opacity: 0.7"/>
     <use xlink:href="#m7a7169fa3a" x="135.644436" y="195.202265" style="fill-opacity: 0.7; stroke: #000000; stroke-opacity: 0.7"/>
     <use xlink:href="#m7a7169fa3a" x="172.649211" y="184.499422" style="fill-opacity: 0.7; stroke: #000000; stroke-opacity: 0.7"/>
     <use xlink:href="#m7a7169fa3a" x="209.653986" y="174.771785" style="fill-opacity: 0.7; stroke: #000000; stroke-opacity: 0.7"/>
     <use xlink:href="#m7a7169fa3a" x="246.658761" y="167.941462" style="fill-opacity: 0.7; stroke: #000000; stroke-opacity: 0.7"/>
     <use xlink:href="#m7a7169fa3a" x="283.663536" y="160.356791" style="fill-opacity: 0.7; stroke: #000000; stroke-opacity: 0.7"/>
     <use xlink:href="#m7a7169fa3a" x="320.668311" y="153.400343" style="fill-opacity: 0.7; stroke: #000000; stroke-opacity: 0.7"/>
     <use xlink:href="#m7a7169fa3a" x="357.673086" y="146.403142" style="fill-opacity: 0.7; stroke: #000000; stroke-opacity: 0.7"/>
     <use xlink:href="#m7a7169fa3a" x="394.677861" y="142.166709" style="fill-opacity: 0.7; stroke: #000000; stroke-opacity: 0.7"/>
     <use xlink:href="#m7a7169fa3a" x="431.682636" y="136.954159" style="fill-opacity: 0.7; stroke: #000000; stroke-opacity: 0.7"/>
    </g>
   </g>
   <g id="FillBetweenPolyCollection_5">
    <path d="M 65.335364 225.243778 
L 65.335364 280.21098 
L 72.811839 276.668352 
L 80.288314 271.846168 
L 87.764788 267.628894 
L 95.241263 265.637502 
L 102.717738 263.387475 
L 110.194213 261.989477 
L 117.670688 259.438173 
L 125.147163 258.355656 
L 132.623638 256.325247 
L 140.100113 254.979679 
L 147.576588 253.335393 
L 155.053063 251.081207 
L 162.529538 250.431066 
L 170.006013 249.192485 
L 177.482488 248.601331 
L 184.958963 245.852542 
L 192.435438 245.222851 
L 199.911913 244.655666 
L 207.388388 243.107089 
L 214.864863 242.028866 
L 222.341338 241.48749 
L 229.817813 240.646597 
L 237.294288 239.250062 
L 244.770763 238.901793 
L 252.247237 236.91149 
L 259.723712 237.569128 
L 267.200187 235.700381 
L 274.676662 235.625002 
L 282.153137 234.357835 
L 289.629612 233.228645 
L 297.106087 231.978243 
L 304.582562 231.460559 
L 312.059037 230.314038 
L 319.535512 230.530146 
L 327.011987 229.213601 
L 334.488462 228.303735 
L 341.964937 228.123015 
L 349.441412 227.61653 
L 356.917887 226.793621 
L 364.394362 226.372287 
L 371.870837 225.273001 
L 379.347312 225.935103 
L 386.823787 224.589706 
L 394.300262 224.332553 
L 401.776737 223.560406 
L 409.253212 223.688363 
L 416.729686 222.830314 
L 424.206161 222.170434 
L 431.682636 222.774884 
L 431.682636 167.585778 
L 431.682636 167.585778 
L 424.206161 167.64323 
L 416.729686 168.554376 
L 409.253212 170.034037 
L 401.776737 169.509674 
L 394.300262 170.472971 
L 386.823787 171.004996 
L 379.347312 171.440923 
L 371.870837 172.569023 
L 364.394362 173.940497 
L 356.917887 174.265353 
L 349.441412 175.109294 
L 341.964937 176.122062 
L 334.488462 175.957593 
L 327.011987 176.472757 
L 319.535512 177.255986 
L 312.059037 177.661926 
L 304.582562 178.681722 
L 297.106087 179.160437 
L 289.629612 180.182239 
L 282.153137 180.580501 
L 274.676662 181.107127 
L 267.200187 182.688079 
L 259.723712 183.229487 
L 252.247237 183.478485 
L 244.770763 185.840059 
L 237.294288 186.070068 
L 229.817813 187.106309 
L 222.341338 188.684735 
L 214.864863 190.739527 
L 207.388388 189.618482 
L 199.911913 190.983738 
L 192.435438 192.585859 
L 184.958963 193.575957 
L 177.482488 195.295228 
L 170.006013 195.336413 
L 162.529538 197.104441 
L 155.053063 198.42901 
L 147.576588 199.521328 
L 140.100113 201.857067 
L 132.623638 203.425097 
L 125.147163 204.798456 
L 117.670688 206.743899 
L 110.194213 207.26475 
L 102.717738 210.959154 
L 95.241263 211.636094 
L 87.764788 214.835803 
L 80.288314 217.669881 
L 72.811839 220.893211 
L 65.335364 225.243778 
z
" clip-path="url(#p2cc4c45efa)" style="fill: #9467bd; fill-opacity: 0.45"/>
   </g>
   <g id="PathCollection_5">
    <g clip-path="url(#p2cc4c45efa)">
     <use xlink:href="#m7a7169fa3a" x="65.335364" y="243.360849" style="fill-opacity: 0.7; stroke: #000000; stroke-opacity: 0.7"/>
     <use xlink:href="#m7a7169fa3a" x="98.639661" y="222.297607" style="fill-opacity: 0.7; stroke: #000000; stroke-opacity: 0.7"/>
     <use xlink:href="#m7a7169fa3a" x="135.644436" y="211.15759" style="fill-opacity: 0.7; stroke: #000000; stroke-opacity: 0.7"/>
     <use xlink:href="#m7a7169fa3a" x="172.649211" y="201.386261" style="fill-opacity: 0.7; stroke: #000000; stroke-opacity: 0.7"/>
     <use xlink:href="#m7a7169fa3a" x="209.653986" y="195.833582" style="fill-opacity: 0.7; stroke: #000000; stroke-opacity: 0.7"/>
     <use xlink:href="#m7a7169fa3a" x="246.658761" y="187.637391" style="fill-opacity: 0.7; stroke: #000000; stroke-opacity: 0.7"/>
     <use xlink:href="#m7a7169fa3a" x="283.663536" y="181.873541" style="fill-opacity: 0.7; stroke: #000000; stroke-opacity: 0.7"/>
     <use xlink:href="#m7a7169fa3a" x="320.668311" y="177.956707" style="fill-opacity: 0.7; stroke: #000000; stroke-opacity: 0.7"/>
     <use xlink:href="#m7a7169fa3a" x="357.673086" y="172.104184" style="fill-opacity: 0.7; stroke: #000000; stroke-opacity: 0.7"/>
     <use xlink:href="#m7a7169fa3a" x="394.677861" y="166.856898" style="fill-opacity: 0.7; stroke: #000000; stroke-opacity: 0.7"/>
     <use xlink:href="#m7a7169fa3a" x="431.682636" y="163.130603" style="fill-opacity: 0.7; stroke: #000000; stroke-opacity: 0.7"/>
    </g>
   </g>
   <g id="FillBetweenPolyCollection_6">
    <path d="M 65.335364 226.482782 
L 65.335364 280.978687 
L 72.811839 279.031498 
L 80.288314 274.036813 
L 87.764788 271.675025 
L 95.241263 269.910118 
L 102.717738 267.021369 
L 110.194213 265.654607 
L 117.670688 264.508959 
L 125.147163 262.512684 
L 132.623638 261.145318 
L 140.100113 260.524742 
L 147.576588 259.662718 
L 155.053063 258.034056 
L 162.529538 256.242251 
L 170.006013 255.054194 
L 177.482488 253.389571 
L 184.958963 254.031451 
L 192.435438 252.534165 
L 199.911913 251.545894 
L 207.388388 251.219532 
L 214.864863 249.10705 
L 222.341338 248.323332 
L 229.817813 247.834113 
L 237.294288 246.869059 
L 244.770763 245.01938 
L 252.247237 245.500304 
L 259.723712 245.789421 
L 267.200187 244.032623 
L 274.676662 243.114584 
L 282.153137 242.45453 
L 289.629612 242.148702 
L 297.106087 240.722954 
L 304.582562 240.061447 
L 312.059037 239.778354 
L 319.535512 239.236459 
L 327.011987 238.497636 
L 334.488462 237.831633 
L 341.964937 237.597696 
L 349.441412 236.827382 
L 356.917887 236.163026 
L 364.394362 236.921618 
L 371.870837 234.911565 
L 379.347312 234.927933 
L 386.823787 234.123668 
L 394.300262 234.007983 
L 401.776737 232.514524 
L 409.253212 233.523031 
L 416.729686 232.133048 
L 424.206161 231.864959 
L 431.682636 233.034513 
L 431.682636 176.820602 
L 431.682636 176.820602 
L 424.206161 178.449963 
L 416.729686 178.520338 
L 409.253212 179.054061 
L 401.776737 178.669908 
L 394.300262 179.908569 
L 386.823787 180.366256 
L 379.347312 181.110569 
L 371.870837 181.551447 
L 364.394362 182.35694 
L 356.917887 182.480874 
L 349.441412 183.232731 
L 341.964937 183.883511 
L 334.488462 184.727227 
L 327.011987 184.418096 
L 319.535512 186.731918 
L 312.059037 186.44972 
L 304.582562 186.994551 
L 297.106087 188.394704 
L 289.629612 188.656302 
L 282.153137 188.256959 
L 274.676662 190.330975 
L 267.200187 190.285024 
L 259.723712 191.030929 
L 252.247237 191.84525 
L 244.770763 192.569806 
L 237.294288 194.08786 
L 229.817813 194.23322 
L 222.341338 194.716416 
L 214.864863 197.133996 
L 207.388388 197.557513 
L 199.911913 198.290815 
L 192.435438 197.962282 
L 184.958963 199.907183 
L 177.482488 200.678222 
L 170.006013 201.903097 
L 162.529538 202.533127 
L 155.053063 203.888077 
L 147.576588 204.834365 
L 140.100113 206.191694 
L 132.623638 207.954199 
L 125.147163 209.228553 
L 117.670688 211.165615 
L 110.194213 213.368456 
L 102.717738 213.387935 
L 95.241263 215.659467 
L 87.764788 217.776437 
L 80.288314 220.615116 
L 72.811839 224.623488 
L 65.335364 226.482782 
z
" clip-path="url(#p2cc4c45efa)" style="fill: #8c564b; fill-opacity: 0.45"/>
   </g>
   <g id="PathCollection_6">
    <g clip-path="url(#p2cc4c45efa)">
     <use xlink:href="#m7a7169fa3a" x="65.335364" y="249.48932" style="fill-opacity: 0.7; stroke: #000000; stroke-opacity: 0.7"/>
     <use xlink:href="#m7a7169fa3a" x="98.639661" y="232.58528" style="fill-opacity: 0.7; stroke: #000000; stroke-opacity: 0.7"/>
     <use xlink:href="#m7a7169fa3a" x="135.644436" y="224.496851" style="fill-opacity: 0.7; stroke: #000000; stroke-opacity: 0.7"/>
     <use xlink:href="#m7a7169fa3a" x="172.649211" y="217.834968" style="fill-opacity: 0.7; stroke: #000000; stroke-opacity: 0.7"/>
     <use xlink:href="#m7a7169fa3a" x="209.653986" y="212.29602" style="fill-opacity: 0.7; stroke: #000000; stroke-opacity: 0.7"/>
     <use xlink:href="#m7a7169fa3a" x="246.658761" y="206.384301" style="fill-opacity: 0.7; stroke: #000000; stroke-opacity: 0.7"/>
     <use xlink:href="#m7a7169fa3a" x="283.663536" y="202.286951" style="fill-opacity: 0.7; stroke: #000000; stroke-opacity: 0.7"/>
     <use xlink:href="#m7a7169fa3a" x="320.668311" y="198.075835" style="fill-opacity: 0.7; stroke: #000000; stroke-opacity: 0.7"/>
     <use xlink:href="#m7a7169fa3a" x="357.673086" y="194.13407" style="fill-opacity: 0.7; stroke: #000000; stroke-opacity: 0.7"/>
     <use xlink:href="#m7a7169fa3a" x="394.677861" y="190.044569" style="fill-opacity: 0.7; stroke: #000000; stroke-opacity: 0.7"/>
     <use xlink:href="#m7a7169fa3a" x="431.682636" y="187.582752" style="fill-opacity: 0.7; stroke: #000000; stroke-opacity: 0.7"/>
    </g>
   </g>
   <g id="FillBetweenPolyCollection_7">
    <path d="M 65.335364 228.649059 
L 65.335364 285.205596 
L 72.811839 282.122327 
L 80.288314 278.787762 
L 87.764788 276.649968 
L 95.241263 274.794639 
L 102.717738 273.156325 
L 110.194213 270.586985 
L 117.670688 270.19809 
L 125.147163 269.133674 
L 132.623638 267.592789 
L 140.100113 267.133309 
L 147.576588 265.506272 
L 155.053063 264.284242 
L 162.529538 263.257066 
L 170.006013 263.098452 
L 177.482488 261.937142 
L 184.958963 260.412416 
L 192.435438 259.864592 
L 199.911913 258.891594 
L 207.388388 259.105359 
L 214.864863 258.049776 
L 222.341338 257.256228 
L 229.817813 256.886254 
L 237.294288 255.611917 
L 244.770763 255.888321 
L 252.247237 255.351794 
L 259.723712 253.274587 
L 267.200187 253.778829 
L 274.676662 253.065025 
L 282.153137 252.866325 
L 289.629612 251.878902 
L 297.106087 250.26 
L 304.582562 250.826687 
L 312.059037 249.149339 
L 319.535512 249.360765 
L 327.011987 250.427836 
L 334.488462 249.853246 
L 341.964937 247.478319 
L 349.441412 247.324744 
L 356.917887 246.765925 
L 364.394362 247.073118 
L 371.870837 246.372044 
L 379.347312 245.098276 
L 386.823787 245.905 
L 394.300262 245.521412 
L 401.776737 243.321753 
L 409.253212 244.006011 
L 416.729686 244.070421 
L 424.206161 244.094609 
L 431.682636 244.25056 
L 431.682636 187.047973 
L 431.682636 187.047973 
L 424.206161 188.684063 
L 416.729686 188.80502 
L 409.253212 189.180004 
L 401.776737 189.710925 
L 394.300262 191.069334 
L 386.823787 191.540331 
L 379.347312 191.697239 
L 371.870837 191.872558 
L 364.394362 193.041476 
L 356.917887 193.750808 
L 349.441412 194.183754 
L 341.964937 194.10506 
L 334.488462 194.868535 
L 327.011987 197.022599 
L 319.535512 195.777355 
L 312.059037 196.174926 
L 304.582562 196.94755 
L 297.106087 196.846283 
L 289.629612 197.4702 
L 282.153137 197.72736 
L 274.676662 199.517069 
L 267.200187 199.525013 
L 259.723712 199.735697 
L 252.247237 200.272143 
L 244.770763 201.37149 
L 237.294288 202.583493 
L 229.817813 202.82388 
L 222.341338 204.337207 
L 214.864863 204.657949 
L 207.388388 204.691476 
L 199.911913 206.105089 
L 192.435438 206.423883 
L 184.958963 206.66493 
L 177.482488 207.787836 
L 170.006013 208.760399 
L 162.529538 209.719285 
L 155.053063 209.592283 
L 147.576588 211.813772 
L 140.100113 213.330815 
L 132.623638 213.229535 
L 125.147163 214.641663 
L 117.670688 215.340872 
L 110.194213 215.596331 
L 102.717738 219.297978 
L 95.241263 219.38172 
L 87.764788 221.388639 
L 80.288314 223.511101 
L 72.811839 225.113257 
L 65.335364 228.649059 
z
" clip-path="url(#p2cc4c45efa)" style="fill: #e377c2; fill-opacity: 0.45"/>
   </g>
   <g id="PathCollection_7">
    <g clip-path="url(#p2cc4c45efa)">
     <use xlink:href="#m7a7169fa3a" x="65.335364" y="256.796039" style="fill-opacity: 0.7; stroke: #000000; stroke-opacity: 0.7"/>
     <use xlink:href="#m7a7169fa3a" x="98.639661" y="245.082324" style="fill-opacity: 0.7; stroke: #000000; stroke-opacity: 0.7"/>
     <use xlink:href="#m7a7169fa3a" x="135.644436" y="235.999762" style="fill-opacity: 0.7; stroke: #000000; stroke-opacity: 0.7"/>
     <use xlink:href="#m7a7169fa3a" x="172.649211" y="231.393742" style="fill-opacity: 0.7; stroke: #000000; stroke-opacity: 0.7"/>
     <use xlink:href="#m7a7169fa3a" x="209.653986" y="226.182429" style="fill-opacity: 0.7; stroke: #000000; stroke-opacity: 0.7"/>
     <use xlink:href="#m7a7169fa3a" x="246.658761" y="223.219714" style="fill-opacity: 0.7; stroke: #000000; stroke-opacity: 0.7"/>
     <use xlink:href="#m7a7169fa3a" x="283.663536" y="220.187761" style="fill-opacity: 0.7; stroke: #000000; stroke-opacity: 0.7"/>
     <use xlink:href="#m7a7169fa3a" x="320.668311" y="216.318764" style="fill-opacity: 0.7; stroke: #000000; stroke-opacity: 0.7"/>
     <use xlink:href="#m7a7169fa3a" x="357.673086" y="213.698606" style="fill-opacity: 0.7; stroke: #000000; stroke-opacity: 0.7"/>
     <use xlink:href="#m7a7169fa3a" x="394.677861" y="211.621607" style="fill-opacity: 0.7; stroke: #000000; stroke-opacity: 0.7"/>
     <use xlink:href="#m7a7169fa3a" x="431.682636" y="208.807253" style="fill-opacity: 0.7; stroke: #000000; stroke-opacity: 0.7"/>
    </g>
   </g>
   <g id="FillBetweenPolyCollection_8">
    <path d="M 65.335364 231.341543 
L 65.335364 288.954545 
L 72.811839 287.782144 
L 80.288314 285.615018 
L 87.764788 283.467518 
L 95.241263 281.804179 
L 102.717738 280.292358 
L 110.194213 279.638869 
L 117.670688 278.938581 
L 125.147163 278.678003 
L 132.623638 276.395401 
L 140.100113 276.498086 
L 147.576588 275.254625 
L 155.053063 275.496169 
L 162.529538 274.277871 
L 170.006013 274.050475 
L 177.482488 272.578631 
L 184.958963 272.809994 
L 192.435438 272.476872 
L 199.911913 271.477718 
L 207.388388 271.541728 
L 214.864863 271.122972 
L 222.341338 270.705188 
L 229.817813 269.501565 
L 237.294288 269.782241 
L 244.770763 268.484668 
L 252.247237 267.696387 
L 259.723712 266.057381 
L 267.200187 267.185231 
L 274.676662 265.080151 
L 282.153137 266.227402 
L 289.629612 265.74878 
L 297.106087 264.965411 
L 304.582562 265.963988 
L 312.059037 265.403203 
L 319.535512 264.079637 
L 327.011987 263.569332 
L 334.488462 264.434415 
L 341.964937 263.702275 
L 349.441412 263.406556 
L 356.917887 262.109059 
L 364.394362 262.521575 
L 371.870837 262.078315 
L 379.347312 262.67399 
L 386.823787 261.757069 
L 394.300262 261.544245 
L 401.776737 262.428831 
L 409.253212 261.051416 
L 416.729686 261.045064 
L 424.206161 260.426595 
L 431.682636 261.153693 
L 431.682636 203.210027 
L 431.682636 203.210027 
L 424.206161 203.196791 
L 416.729686 203.723788 
L 409.253212 203.872812 
L 401.776737 205.591412 
L 394.300262 207.112323 
L 386.823787 204.903046 
L 379.347312 204.839927 
L 371.870837 207.466822 
L 364.394362 206.805907 
L 356.917887 206.901023 
L 349.441412 207.296979 
L 341.964937 206.90913 
L 334.488462 208.030995 
L 327.011987 208.721027 
L 319.535512 209.254022 
L 312.059037 210.170167 
L 304.582562 210.273693 
L 297.106087 211.152688 
L 289.629612 211.028313 
L 282.153137 211.474888 
L 274.676662 211.817487 
L 267.200187 211.378056 
L 259.723712 212.028796 
L 252.247237 212.100652 
L 244.770763 213.154285 
L 237.294288 213.578927 
L 229.817813 213.608202 
L 222.341338 214.670926 
L 214.864863 214.311601 
L 207.388388 216.951262 
L 199.911913 215.097038 
L 192.435438 217.129829 
L 184.958963 216.644452 
L 177.482488 216.447818 
L 170.006013 219.128667 
L 162.529538 218.843317 
L 155.053063 219.779916 
L 147.576588 220.499781 
L 140.100113 221.050422 
L 132.623638 220.628252 
L 125.147163 222.240476 
L 117.670688 222.860498 
L 110.194213 223.562621 
L 102.717738 224.715816 
L 95.241263 225.562461 
L 87.764788 226.311938 
L 80.288314 228.947271 
L 72.811839 230.321813 
L 65.335364 231.341543 
z
" clip-path="url(#p2cc4c45efa)" style="fill: #7f7f7f; fill-opacity: 0.45"/>
   </g>
   <g id="PathCollection_8">
    <g clip-path="url(#p2cc4c45efa)">
     <use xlink:href="#m7a7169fa3a" x="65.335364" y="259.862108" style="fill-opacity: 0.7; stroke: #000000; stroke-opacity: 0.7"/>
     <use xlink:href="#m7a7169fa3a" x="98.639661" y="252.094981" style="fill-opacity: 0.7; stroke: #000000; stroke-opacity: 0.7"/>
     <use xlink:href="#m7a7169fa3a" x="135.644436" y="247.186179" style="fill-opacity: 0.7; stroke: #000000; stroke-opacity: 0.7"/>
     <use xlink:href="#m7a7169fa3a" x="172.649211" y="243.918812" style="fill-opacity: 0.7; stroke: #000000; stroke-opacity: 0.7"/>
     <use xlink:href="#m7a7169fa3a" x="209.653986" y="241.095773" style="fill-opacity: 0.7; stroke: #000000; stroke-opacity: 0.7"/>
     <use xlink:href="#m7a7169fa3a" x="246.658761" y="237.504247" style="fill-opacity: 0.7; stroke: #000000; stroke-opacity: 0.7"/>
     <use xlink:href="#m7a7169fa3a" x="283.663536" y="235.664754" style="fill-opacity: 0.7; stroke: #000000; stroke-opacity: 0.7"/>
     <use xlink:href="#m7a7169fa3a" x="320.668311" y="233.829238" style="fill-opacity: 0.7; stroke: #000000; stroke-opacity: 0.7"/>
     <use xlink:href="#m7a7169fa3a" x="357.673086" y="231.414763" style="fill-opacity: 0.7; stroke: #000000; stroke-opacity: 0.7"/>
     <use xlink:href="#m7a7169fa3a" x="394.677861" y="229.933223" style="fill-opacity: 0.7; stroke: #000000; stroke-opacity: 0.7"/>
     <use xlink:href="#m7a7169fa3a" x="431.682636" y="227.483339" style="fill-opacity: 0.7; stroke: #000000; stroke-opacity: 0.7"/>
    </g>
   </g>
   <g id="matplotlib.axis_1">
    <g id="xtick_1">
     <g id="line2d_1">
      <defs>
       <path id="m5b85136417" d="M 0 0 
L 0 3.5 
" style="stroke: #000000; stroke-width: 0.8"/>
      </defs>
      <g>
       <use xlink:href="#m5b85136417" x="61.634886" y="302.2" style="stroke: #000000; stroke-width: 0.8"/>
      </g>
     </g>
     <g id="text_1">
      <!-- 0 -->
      <g transform="translate(58.453636 316.798437) scale(0.1 -0.1)">
       <defs>
        <path id="DejaVuSans-30" d="M 2034 4250 
Q 1547 4250 1301 3770 
Q 1056 3291 1056 2328 
Q 1056 1369 1301 889 
Q 1547 409 2034 409 
Q 2525 409 2770 889 
Q 3016 1369 3016 2328 
Q 3016 3291 2770 3770 
Q 2525 4250 2034 4250 
z
M 2034 4750 
Q 2819 4750 3233 4129 
Q 3647 3509 3647 2328 
Q 3647 1150 3233 529 
Q 2819 -91 2034 -91 
Q 1250 -91 836 529 
Q 422 1150 422 2328 
Q 422 3509 836 4129 
Q 1250 4750 2034 4750 
z
" transform="scale(0.015625)"/>
       </defs>
       <use xlink:href="#DejaVuSans-30"/>
      </g>
     </g>
    </g>
    <g id="xtick_2">
     <g id="line2d_2">
      <g>
       <use xlink:href="#m5b85136417" x="135.644436" y="302.2" style="stroke: #000000; stroke-width: 0.8"/>
      </g>
     </g>
     <g id="text_2">
      <!-- 1 -->
      <g transform="translate(132.463186 316.798437) scale(0.1 -0.1)">
       <defs>
        <path id="DejaVuSans-31" d="M 794 531 
L 1825 531 
L 1825 4091 
L 703 3866 
L 703 4441 
L 1819 4666 
L 2450 4666 
L 2450 531 
L 3481 531 
L 3481 0 
L 794 0 
L 794 531 
z
" transform="scale(0.015625)"/>
       </defs>
       <use xlink:href="#DejaVuSans-31"/>
      </g>
     </g>
    </g>
    <g id="xtick_3">
     <g id="line2d_3">
      <g>
       <use xlink:href="#m5b85136417" x="209.653986" y="302.2" style="stroke: #000000; stroke-width: 0.8"/>
      </g>
     </g>
     <g id="text_3">
      <!-- 2 -->
      <g transform="translate(206.472736 316.798437) scale(0.1 -0.1)">
       <defs>
        <path id="DejaVuSans-32" d="M 1228 531 
L 3431 531 
L 3431 0 
L 469 0 
L 469 531 
Q 828 903 1448 1529 
Q 2069 2156 2228 2338 
Q 2531 2678 2651 2914 
Q 2772 3150 2772 3378 
Q 2772 3750 2511 3984 
Q 2250 4219 1831 4219 
Q 1534 4219 1204 4116 
Q 875 4013 500 3803 
L 500 4441 
Q 881 4594 1212 4672 
Q 1544 4750 1819 4750 
Q 2544 4750 2975 4387 
Q 3406 4025 3406 3419 
Q 3406 3131 3298 2873 
Q 3191 2616 2906 2266 
Q 2828 2175 2409 1742 
Q 1991 1309 1228 531 
z
" transform="scale(0.015625)"/>
       </defs>
       <use xlink:href="#DejaVuSans-32"/>
      </g>
     </g>
    </g>
    <g id="xtick_4">
     <g id="line2d_4">
      <g>
       <use xlink:href="#m5b85136417" x="283.663536" y="302.2" style="stroke: #000000; stroke-width: 0.8"/>
      </g>
     </g>
     <g id="text_4">
      <!-- 3 -->
      <g transform="translate(280.482286 316.798437) scale(0.1 -0.1)">
       <defs>
        <path id="DejaVuSans-33" d="M 2597 2516 
Q 3050 2419 3304 2112 
Q 3559 1806 3559 1356 
Q 3559 666 3084 287 
Q 2609 -91 1734 -91 
Q 1441 -91 1130 -33 
Q 819 25 488 141 
L 488 750 
Q 750 597 1062 519 
Q 1375 441 1716 441 
Q 2309 441 2620 675 
Q 2931 909 2931 1356 
Q 2931 1769 2642 2001 
Q 2353 2234 1838 2234 
L 1294 2234 
L 1294 2753 
L 1863 2753 
Q 2328 2753 2575 2939 
Q 2822 3125 2822 3475 
Q 2822 3834 2567 4026 
Q 2313 4219 1838 4219 
Q 1578 4219 1281 4162 
Q 984 4106 628 3988 
L 628 4550 
Q 988 4650 1302 4700 
Q 1616 4750 1894 4750 
Q 2613 4750 3031 4423 
Q 3450 4097 3450 3541 
Q 3450 3153 3228 2886 
Q 3006 2619 2597 2516 
z
" transform="scale(0.015625)"/>
       </defs>
       <use xlink:href="#DejaVuSans-33"/>
      </g>
     </g>
    </g>
    <g id="xtick_5">
     <g id="line2d_5">
      <g>
       <use xlink:href="#m5b85136417" x="357.673086" y="302.2" style="stroke: #000000; stroke-width: 0.8"/>
      </g>
     </g>
     <g id="text_5">
      <!-- 4 -->
      <g transform="translate(354.491836 316.798437) scale(0.1 -0.1)">
       <defs>
        <path id="DejaVuSans-34" d="M 2419 4116 
L 825 1625 
L 2419 1625 
L 2419 4116 
z
M 2253 4666 
L 3047 4666 
L 3047 1625 
L 3713 1625 
L 3713 1100 
L 3047 1100 
L 3047 0 
L 2419 0 
L 2419 1100 
L 313 1100 
L 313 1709 
L 2253 4666 
z
" transform="scale(0.015625)"/>
       </defs>
       <use xlink:href="#DejaVuSans-34"/>
      </g>
     </g>
    </g>
    <g id="xtick_6">
     <g id="line2d_6">
      <g>
       <use xlink:href="#m5b85136417" x="431.682636" y="302.2" style="stroke: #000000; stroke-width: 0.8"/>
      </g>
     </g>
     <g id="text_6">
      <!-- 5 -->
      <g transform="translate(428.501386 316.798437) scale(0.1 -0.1)">
       <defs>
        <path id="DejaVuSans-35" d="M 691 4666 
L 3169 4666 
L 3169 4134 
L 1269 4134 
L 1269 2991 
Q 1406 3038 1543 3061 
Q 1681 3084 1819 3084 
Q 2600 3084 3056 2656 
Q 3513 2228 3513 1497 
Q 3513 744 3044 326 
Q 2575 -91 1722 -91 
Q 1428 -91 1123 -41 
Q 819 9 494 109 
L 494 744 
Q 775 591 1075 516 
Q 1375 441 1709 441 
Q 2250 441 2565 725 
Q 2881 1009 2881 1497 
Q 2881 1984 2565 2268 
Q 2250 2553 1709 2553 
Q 1456 2553 1204 2497 
Q 953 2441 691 2322 
L 691 4666 
z
" transform="scale(0.015625)"/>
       </defs>
       <use xlink:href="#DejaVuSans-35"/>
      </g>
     </g>
    </g>
    <g id="text_7">
     <!-- $W$ (m/hour) -->
     <g transform="translate(220.059 330.476562) scale(0.1 -0.1)">
      <defs>
       <path id="DejaVuSans-Oblique-57" d="M 616 4666 
L 1228 4666 
L 1453 697 
L 3213 4666 
L 3916 4666 
L 4147 697 
L 5888 4666 
L 6528 4666 
L 4453 0 
L 3659 0 
L 3444 3891 
L 1697 0 
L 903 0 
L 616 4666 
z
" transform="scale(0.015625)"/>
       <path id="DejaVuSans-20" transform="scale(0.015625)"/>
       <path id="DejaVuSans-28" d="M 1984 4856 
Q 1566 4138 1362 3434 
Q 1159 2731 1159 2009 
Q 1159 1288 1364 580 
Q 1569 -128 1984 -844 
L 1484 -844 
Q 1016 -109 783 600 
Q 550 1309 550 2009 
Q 550 2706 781 3412 
Q 1013 4119 1484 4856 
L 1984 4856 
z
" transform="scale(0.015625)"/>
       <path id="DejaVuSans-6d" d="M 3328 2828 
Q 3544 3216 3844 3400 
Q 4144 3584 4550 3584 
Q 5097 3584 5394 3201 
Q 5691 2819 5691 2113 
L 5691 0 
L 5113 0 
L 5113 2094 
Q 5113 2597 4934 2840 
Q 4756 3084 4391 3084 
Q 3944 3084 3684 2787 
Q 3425 2491 3425 1978 
L 3425 0 
L 2847 0 
L 2847 2094 
Q 2847 2600 2669 2842 
Q 2491 3084 2119 3084 
Q 1678 3084 1418 2786 
Q 1159 2488 1159 1978 
L 1159 0 
L 581 0 
L 581 3500 
L 1159 3500 
L 1159 2956 
Q 1356 3278 1631 3431 
Q 1906 3584 2284 3584 
Q 2666 3584 2933 3390 
Q 3200 3197 3328 2828 
z
" transform="scale(0.015625)"/>
       <path id="DejaVuSans-2f" d="M 1625 4666 
L 2156 4666 
L 531 -594 
L 0 -594 
L 1625 4666 
z
" transform="scale(0.015625)"/>
       <path id="DejaVuSans-68" d="M 3513 2113 
L 3513 0 
L 2938 0 
L 2938 2094 
Q 2938 2591 2744 2837 
Q 2550 3084 2163 3084 
Q 1697 3084 1428 2787 
Q 1159 2491 1159 1978 
L 1159 0 
L 581 0 
L 581 4863 
L 1159 4863 
L 1159 2956 
Q 1366 3272 1645 3428 
Q 1925 3584 2291 3584 
Q 2894 3584 3203 3211 
Q 3513 2838 3513 2113 
z
" transform="scale(0.015625)"/>
       <path id="DejaVuSans-6f" d="M 1959 3097 
Q 1497 3097 1228 2736 
Q 959 2375 959 1747 
Q 959 1119 1226 758 
Q 1494 397 1959 397 
Q 2419 397 2687 759 
Q 2956 1122 2956 1747 
Q 2956 2369 2687 2733 
Q 2419 3097 1959 3097 
z
M 1959 3584 
Q 2709 3584 3137 3096 
Q 3566 2609 3566 1747 
Q 3566 888 3137 398 
Q 2709 -91 1959 -91 
Q 1206 -91 779 398 
Q 353 888 353 1747 
Q 353 2609 779 3096 
Q 1206 3584 1959 3584 
z
" transform="scale(0.015625)"/>
       <path id="DejaVuSans-75" d="M 544 1381 
L 544 3500 
L 1119 3500 
L 1119 1403 
Q 1119 906 1312 657 
Q 1506 409 1894 409 
Q 2359 409 2629 706 
Q 2900 1003 2900 1516 
L 2900 3500 
L 3475 3500 
L 3475 0 
L 2900 0 
L 2900 538 
Q 2691 219 2414 64 
Q 2138 -91 1772 -91 
Q 1169 -91 856 284 
Q 544 659 544 1381 
z
M 1991 3584 
L 1991 3584 
z
" transform="scale(0.015625)"/>
       <path id="DejaVuSans-72" d="M 2631 2963 
Q 2534 3019 2420 3045 
Q 2306 3072 2169 3072 
Q 1681 3072 1420 2755 
Q 1159 2438 1159 1844 
L 1159 0 
L 581 0 
L 581 3500 
L 1159 3500 
L 1159 2956 
Q 1341 3275 1631 3429 
Q 1922 3584 2338 3584 
Q 2397 3584 2469 3576 
Q 2541 3569 2628 3553 
L 2631 2963 
z
" transform="scale(0.015625)"/>
       <path id="DejaVuSans-29" d="M 513 4856 
L 1013 4856 
Q 1481 4119 1714 3412 
Q 1947 2706 1947 2009 
Q 1947 1309 1714 600 
Q 1481 -109 1013 -844 
L 513 -844 
Q 928 -128 1133 580 
Q 1338 1288 1338 2009 
Q 1338 2731 1133 3434 
Q 928 4138 513 4856 
z
" transform="scale(0.015625)"/>
      </defs>
      <use xlink:href="#DejaVuSans-Oblique-57" transform="translate(0 0.015625)"/>
      <use xlink:href="#DejaVuSans-20" transform="translate(98.876953 0.015625)"/>
      <use xlink:href="#DejaVuSans-28" transform="translate(130.664062 0.015625)"/>
      <use xlink:href="#DejaVuSans-6d" transform="translate(169.677734 0.015625)"/>
      <use xlink:href="#DejaVuSans-2f" transform="translate(267.089844 0.015625)"/>
      <use xlink:href="#DejaVuSans-68" transform="translate(300.78125 0.015625)"/>
      <use xlink:href="#DejaVuSans-6f" transform="translate(364.160156 0.015625)"/>
      <use xlink:href="#DejaVuSans-75" transform="translate(425.341797 0.015625)"/>
      <use xlink:href="#DejaVuSans-72" transform="translate(488.720703 0.015625)"/>
      <use xlink:href="#DejaVuSans-29" transform="translate(529.833984 0.015625)"/>
     </g>
    </g>
   </g>
   <g id="matplotlib.axis_2">
    <g id="ytick_1">
     <g id="line2d_7">
      <defs>
       <path id="mf83956eda2" d="M 0 0 
L -3.5 0 
" style="stroke: #000000; stroke-width: 0.8"/>
      </defs>
      <g>
       <use xlink:href="#mf83956eda2" x="47.018" y="271.09133" style="stroke: #000000; stroke-width: 0.8"/>
      </g>
     </g>
     <g id="text_8">
      <!-- 0 -->
      <g transform="translate(33.6555 274.890548) scale(0.1 -0.1)">
       <use xlink:href="#DejaVuSans-30"/>
      </g>
     </g>
    </g>
    <g id="ytick_2">
     <g id="line2d_8">
      <g>
       <use xlink:href="#mf83956eda2" x="47.018" y="213.488394" style="stroke: #000000; stroke-width: 0.8"/>
      </g>
     </g>
     <g id="text_9">
      <!-- 10 -->
      <g transform="translate(27.293 217.287613) scale(0.1 -0.1)">
       <use xlink:href="#DejaVuSans-31"/>
       <use xlink:href="#DejaVuSans-30" transform="translate(63.623047 0)"/>
      </g>
     </g>
    </g>
    <g id="ytick_3">
     <g id="line2d_9">
      <g>
       <use xlink:href="#mf83956eda2" x="47.018" y="155.885459" style="stroke: #000000; stroke-width: 0.8"/>
      </g>
     </g>
     <g id="text_10">
      <!-- 20 -->
      <g transform="translate(27.293 159.684678) scale(0.1 -0.1)">
       <use xlink:href="#DejaVuSans-32"/>
       <use xlink:href="#DejaVuSans-30" transform="translate(63.623047 0)"/>
      </g>
     </g>
    </g>
    <g id="ytick_4">
     <g id="line2d_10">
      <g>
       <use xlink:href="#mf83956eda2" x="47.018" y="98.282524" style="stroke: #000000; stroke-width: 0.8"/>
      </g>
     </g>
     <g id="text_11">
      <!-- 30 -->
      <g transform="translate(27.293 102.081742) scale(0.1 -0.1)">
       <use xlink:href="#DejaVuSans-33"/>
       <use xlink:href="#DejaVuSans-30" transform="translate(63.623047 0)"/>
      </g>
     </g>
    </g>
    <g id="ytick_5">
     <g id="line2d_11">
      <g>
       <use xlink:href="#mf83956eda2" x="47.018" y="40.679588" style="stroke: #000000; stroke-width: 0.8"/>
      </g>
     </g>
     <g id="text_12">
      <!-- 40 -->
      <g transform="translate(27.293 44.478807) scale(0.1 -0.1)">
       <use xlink:href="#DejaVuSans-34"/>
       <use xlink:href="#DejaVuSans-30" transform="translate(63.623047 0)"/>
      </g>
     </g>
    </g>
    <g id="text_13">
     <!-- $Q_{lc}$ (kW) -->
     <g transform="translate(21.213312 176.8) rotate(-90) scale(0.1 -0.1)">
      <defs>
       <path id="DejaVuSans-Oblique-51" d="M 2309 -84 
Q 2275 -88 2237 -89 
Q 2200 -91 2125 -91 
Q 1250 -91 756 411 
Q 263 913 263 1797 
Q 263 2319 452 2844 
Q 641 3369 978 3788 
Q 1369 4269 1858 4509 
Q 2347 4750 2938 4750 
Q 3794 4750 4287 4245 
Q 4781 3741 4781 2869 
Q 4781 1928 4265 1147 
Q 3750 366 2919 44 
L 3553 -825 
L 2847 -825 
L 2309 -84 
z
M 2919 4238 
Q 2400 4238 2003 3986 
Q 1606 3734 1313 3219 
Q 1125 2891 1026 2522 
Q 928 2153 928 1778 
Q 928 1128 1239 775 
Q 1550 422 2119 422 
Q 2631 422 3032 676 
Q 3434 931 3719 1434 
Q 3909 1772 4009 2142 
Q 4109 2513 4109 2881 
Q 4109 3528 3796 3883 
Q 3484 4238 2919 4238 
z
" transform="scale(0.015625)"/>
       <path id="DejaVuSans-Oblique-6c" d="M 1172 4863 
L 1747 4863 
L 800 0 
L 225 0 
L 1172 4863 
z
" transform="scale(0.015625)"/>
       <path id="DejaVuSans-Oblique-63" d="M 3431 3366 
L 3316 2797 
Q 3109 2947 2876 3022 
Q 2644 3097 2394 3097 
Q 2119 3097 1870 3000 
Q 1622 2903 1453 2725 
Q 1184 2453 1037 2087 
Q 891 1722 891 1331 
Q 891 859 1127 628 
Q 1363 397 1844 397 
Q 2081 397 2348 469 
Q 2616 541 2906 684 
L 2797 116 
Q 2547 13 2283 -39 
Q 2019 -91 1741 -91 
Q 1044 -91 669 257 
Q 294 606 294 1253 
Q 294 1797 489 2255 
Q 684 2713 1069 3078 
Q 1331 3328 1684 3456 
Q 2038 3584 2456 3584 
Q 2700 3584 2940 3529 
Q 3181 3475 3431 3366 
z
" transform="scale(0.015625)"/>
       <path id="DejaVuSans-6b" d="M 581 4863 
L 1159 4863 
L 1159 1991 
L 2875 3500 
L 3609 3500 
L 1753 1863 
L 3688 0 
L 2938 0 
L 1159 1709 
L 1159 0 
L 581 0 
L 581 4863 
z
" transform="scale(0.015625)"/>
       <path id="DejaVuSans-57" d="M 213 4666 
L 850 4666 
L 1831 722 
L 2809 4666 
L 3519 4666 
L 4500 722 
L 5478 4666 
L 6119 4666 
L 4947 0 
L 4153 0 
L 3169 4050 
L 2175 0 
L 1381 0 
L 213 4666 
z
" transform="scale(0.015625)"/>
      </defs>
      <use xlink:href="#DejaVuSans-Oblique-51" transform="translate(0 0.015625)"/>
      <use xlink:href="#DejaVuSans-Oblique-6c" transform="translate(78.710938 -16.390625) scale(0.7)"/>
      <use xlink:href="#DejaVuSans-Oblique-63" transform="translate(98.15918 -16.390625) scale(0.7)"/>
      <use xlink:href="#DejaVuSans-20" transform="translate(139.379883 0.015625)"/>
      <use xlink:href="#DejaVuSans-28" transform="translate(171.166992 0.015625)"/>
      <use xlink:href="#DejaVuSans-6b" transform="translate(210.180664 0.015625)"/>
      <use xlink:href="#DejaVuSans-57" transform="translate(268.09082 0.015625)"/>
      <use xlink:href="#DejaVuSans-29" transform="translate(366.967773 0.015625)"/>
     </g>
    </g>
   </g>
   <g id="line2d_12">
    <path d="M 65.335364 250.067394 
L 72.811839 242.588154 
L 80.288314 236.568293 
L 87.764788 232.079028 
L 95.241263 228.12777 
L 102.717738 224.917871 
L 110.194213 221.326123 
L 117.670688 219.570165 
L 125.147163 216.47353 
L 132.623638 214.635958 
L 140.100113 212.164648 
L 147.576588 210.885238 
L 155.053063 208.552993 
L 162.529538 206.578198 
L 170.006013 204.674801 
L 177.482488 202.692652 
L 184.958963 201.399301 
L 192.435438 199.895384 
L 199.911913 197.912052 
L 207.388388 196.449934 
L 214.864863 194.786457 
L 222.341338 192.770903 
L 229.817813 191.45472 
L 237.294288 190.248765 
L 244.770763 188.680655 
L 252.247237 187.384004 
L 259.723712 186.323111 
L 267.200187 184.743077 
L 274.676662 183.04142 
L 282.153137 181.83258 
L 289.629612 180.425735 
L 297.106087 179.863441 
L 304.582562 178.064144 
L 312.059037 177.937085 
L 319.535512 176.058263 
L 327.011987 175.100574 
L 334.488462 173.975272 
L 341.964937 172.012446 
L 349.441412 171.098995 
L 356.917887 170.863057 
L 364.394362 169.320229 
L 371.870837 168.100554 
L 379.347312 166.741793 
L 386.823787 165.355944 
L 394.300262 163.848756 
L 401.776737 163.110679 
L 409.253212 161.429035 
L 416.729686 159.692536 
L 424.206161 158.646973 
L 431.682636 157.857214 
" clip-path="url(#p2cc4c45efa)" style="fill: none; stroke: #1f77b4; stroke-width: 1.5; stroke-linecap: square"/>
   </g>
   <g id="line2d_13">
    <path d="M 65.335364 250.608429 
L 72.811839 244.590164 
L 80.288314 239.376841 
L 87.764788 235.039077 
L 95.241263 231.70733 
L 102.717738 227.692599 
L 110.194213 225.313552 
L 117.670688 223.54574 
L 125.147163 221.025292 
L 132.623638 218.689612 
L 140.100113 216.652482 
L 147.576588 215.221808 
L 155.053063 213.265959 
L 162.529538 211.196902 
L 170.006013 209.307876 
L 177.482488 208.05244 
L 184.958963 206.39844 
L 192.435438 204.609537 
L 199.911913 202.899592 
L 207.388388 201.734743 
L 214.864863 199.63236 
L 222.341338 198.791591 
L 229.817813 197.437064 
L 237.294288 196.013209 
L 244.770763 194.593159 
L 252.247237 193.287964 
L 259.723712 192.460647 
L 267.200187 190.257753 
L 274.676662 190.19006 
L 282.153137 187.994083 
L 289.629612 187.290986 
L 297.106087 186.882933 
L 304.582562 184.990196 
L 312.059037 184.828825 
L 319.535512 183.158483 
L 327.011987 182.389871 
L 334.488462 180.824718 
L 341.964937 180.277333 
L 349.441412 179.261648 
L 356.917887 178.5099 
L 364.394362 177.066565 
L 371.870837 176.206664 
L 379.347312 175.064026 
L 386.823787 174.461147 
L 394.300262 173.201984 
L 401.776737 171.810247 
L 409.253212 170.8118 
L 416.729686 169.29246 
L 424.206161 168.709491 
L 431.682636 167.572914 
" clip-path="url(#p2cc4c45efa)" style="fill: none; stroke: #ff7f0e; stroke-width: 1.5; stroke-linecap: square"/>
   </g>
   <g id="line2d_14">
    <path d="M 65.335364 252.117636 
L 72.811839 246.103723 
L 80.288314 241.157572 
L 87.764788 237.230422 
L 95.241263 233.797802 
L 102.717738 230.467215 
L 110.194213 228.258732 
L 117.670688 225.679853 
L 125.147163 223.865591 
L 132.623638 221.933732 
L 140.100113 219.96793 
L 147.576588 218.600127 
L 155.053063 216.92022 
L 162.529538 215.200179 
L 170.006013 213.167741 
L 177.482488 211.427535 
L 184.958963 209.861159 
L 192.435438 208.644821 
L 199.911913 206.618606 
L 207.388388 206.002304 
L 214.864863 204.340118 
L 222.341338 203.37657 
L 229.817813 201.677581 
L 237.294288 200.557004 
L 244.770763 199.319773 
L 252.247237 198.356243 
L 259.723712 197.299484 
L 267.200187 196.049988 
L 274.676662 195.240589 
L 282.153137 193.486505 
L 289.629612 192.873805 
L 297.106087 191.769566 
L 304.582562 191.153381 
L 312.059037 189.81293 
L 319.535512 189.401565 
L 327.011987 187.978135 
L 334.488462 186.883968 
L 341.964937 186.425433 
L 349.441412 185.731985 
L 356.917887 185.054705 
L 364.394362 183.568849 
L 371.870837 183.062078 
L 379.347312 182.029167 
L 386.823787 180.832526 
L 394.300262 180.458167 
L 401.776737 179.3007 
L 409.253212 178.087412 
L 416.729686 178.068224 
L 424.206161 176.82911 
L 431.682636 175.620278 
" clip-path="url(#p2cc4c45efa)" style="fill: none; stroke: #2ca02c; stroke-width: 1.5; stroke-linecap: square"/>
   </g>
   <g id="line2d_15">
    <path d="M 65.335364 252.272724 
L 72.811839 247.077637 
L 80.288314 242.837835 
L 87.764788 239.78861 
L 95.241263 236.585835 
L 102.717738 233.833441 
L 110.194213 231.698218 
L 117.670688 229.363725 
L 125.147163 227.668493 
L 132.623638 225.937079 
L 140.100113 224.806364 
L 147.576588 223.042743 
L 155.053063 221.463156 
L 162.529538 220.117354 
L 170.006013 218.121883 
L 177.482488 216.869564 
L 184.958963 214.625641 
L 192.435438 213.517652 
L 199.911913 212.74674 
L 207.388388 211.759595 
L 214.864863 210.246309 
L 222.341338 208.328293 
L 229.817813 207.94999 
L 237.294288 206.524837 
L 244.770763 205.485729 
L 252.247237 204.632413 
L 259.723712 204.056008 
L 267.200187 203.12231 
L 274.676662 202.204025 
L 282.153137 201.019002 
L 289.629612 200.052088 
L 297.106087 199.310928 
L 304.582562 198.606061 
L 312.059037 197.680397 
L 319.535512 196.726128 
L 327.011987 195.475935 
L 334.488462 194.80915 
L 341.964937 194.465866 
L 349.441412 193.330714 
L 356.917887 192.890324 
L 364.394362 192.174297 
L 371.870837 191.156683 
L 379.347312 190.405 
L 386.823787 190.755082 
L 394.300262 189.406319 
L 401.776737 188.635868 
L 409.253212 187.916011 
L 416.729686 187.373742 
L 424.206161 186.873075 
L 431.682636 186.545419 
" clip-path="url(#p2cc4c45efa)" style="fill: none; stroke: #d62728; stroke-width: 1.5; stroke-linecap: square"/>
   </g>
   <g id="line2d_16">
    <path d="M 65.335364 252.787116 
L 72.811839 248.542545 
L 80.288314 244.612819 
L 87.764788 242.153223 
L 95.241263 239.181645 
L 102.717738 236.737588 
L 110.194213 234.708863 
L 117.670688 233.347524 
L 125.147163 231.749846 
L 132.623638 229.900892 
L 140.100113 227.935579 
L 147.576588 226.81055 
L 155.053063 225.381694 
L 162.529538 224.020336 
L 170.006013 222.528094 
L 177.482488 221.419505 
L 184.958963 219.249899 
L 192.435438 218.390938 
L 199.911913 217.538316 
L 207.388388 216.679117 
L 214.864863 215.691728 
L 222.341338 214.799648 
L 229.817813 213.46985 
L 237.294288 212.860046 
L 244.770763 212.116529 
L 252.247237 210.529801 
L 259.723712 210.608631 
L 267.200187 209.037848 
L 274.676662 208.397219 
L 282.153137 207.892253 
L 289.629612 206.716063 
L 297.106087 206.017732 
L 304.582562 205.373122 
L 312.059037 204.586606 
L 319.535512 203.97193 
L 327.011987 203.18055 
L 334.488462 203.012929 
L 341.964937 201.467902 
L 349.441412 201.148225 
L 356.917887 200.554033 
L 364.394362 200.076762 
L 371.870837 199.323279 
L 379.347312 198.5368 
L 386.823787 198.102921 
L 394.300262 197.349354 
L 401.776737 196.691465 
L 409.253212 196.132664 
L 416.729686 195.686064 
L 424.206161 195.523244 
L 431.682636 195.092097 
" clip-path="url(#p2cc4c45efa)" style="fill: none; stroke: #9467bd; stroke-width: 1.5; stroke-linecap: square"/>
   </g>
   <g id="line2d_17">
    <path d="M 65.335364 254.322914 
L 72.811839 251.600976 
L 80.288314 247.68346 
L 87.764788 244.885666 
L 95.241263 242.734354 
L 102.717738 241.183001 
L 110.194213 239.081548 
L 117.670688 237.679151 
L 125.147163 235.951337 
L 132.623638 235.038475 
L 140.100113 233.582731 
L 147.576588 231.931994 
L 155.053063 230.671226 
L 162.529538 229.652953 
L 170.006013 228.524154 
L 177.482488 227.271463 
L 184.958963 226.437438 
L 192.435438 225.818925 
L 199.911913 224.949991 
L 207.388388 224.011486 
L 214.864863 223.03762 
L 222.341338 221.792962 
L 229.817813 221.13707 
L 237.294288 220.148097 
L 244.770763 219.271621 
L 252.247237 218.573354 
L 259.723712 217.826073 
L 267.200187 217.173229 
L 274.676662 216.77322 
L 282.153137 215.741112 
L 289.629612 215.191994 
L 297.106087 214.246633 
L 304.582562 213.582785 
L 312.059037 213.286898 
L 319.535512 212.966139 
L 327.011987 212.485486 
L 334.488462 211.305687 
L 341.964937 210.456888 
L 349.441412 210.662296 
L 356.917887 209.399328 
L 364.394362 209.240879 
L 371.870837 207.95668 
L 379.347312 208.069815 
L 386.823787 207.547445 
L 394.300262 207.330501 
L 401.776737 206.24841 
L 409.253212 206.182902 
L 416.729686 205.656568 
L 424.206161 205.01526 
L 431.682636 204.731304 
" clip-path="url(#p2cc4c45efa)" style="fill: none; stroke: #8c564b; stroke-width: 1.5; stroke-linecap: square"/>
   </g>
   <g id="line2d_18">
    <path d="M 65.335364 256.997208 
L 72.811839 253.577791 
L 80.288314 251.499851 
L 87.764788 248.711738 
L 95.241263 246.867233 
L 102.717738 245.614024 
L 110.194213 244.076893 
L 117.670688 243.066041 
L 125.147163 241.794178 
L 132.623638 240.619954 
L 140.100113 239.563936 
L 147.576588 238.433677 
L 155.053063 237.226177 
L 162.529538 236.805335 
L 170.006013 235.652023 
L 177.482488 235.017869 
L 184.958963 233.812981 
L 192.435438 233.721036 
L 199.911913 232.616313 
L 207.388388 231.778226 
L 214.864863 231.388318 
L 222.341338 230.620679 
L 229.817813 229.724847 
L 237.294288 228.709614 
L 244.770763 228.459514 
L 252.247237 228.184598 
L 259.723712 227.481351 
L 267.200187 226.367889 
L 274.676662 225.532232 
L 282.153137 225.092389 
L 289.629612 224.839879 
L 297.106087 224.437712 
L 304.582562 223.960253 
L 312.059037 222.958488 
L 319.535512 221.938459 
L 327.011987 222.49522 
L 334.488462 221.522652 
L 341.964937 221.239634 
L 349.441412 220.475584 
L 356.917887 220.050766 
L 364.394362 219.993563 
L 371.870837 219.362338 
L 379.347312 219.038068 
L 386.823787 218.023953 
L 394.300262 217.792462 
L 401.776737 217.499426 
L 409.253212 216.616524 
L 416.729686 216.620967 
L 424.206161 216.189959 
L 431.682636 215.876654 
" clip-path="url(#p2cc4c45efa)" style="fill: none; stroke: #e377c2; stroke-width: 1.5; stroke-linecap: square"/>
   </g>
   <g id="line2d_19">
    <path d="M 65.335364 261.050643 
L 72.811839 258.134712 
L 80.288314 256.415635 
L 87.764788 255.565024 
L 95.241263 254.174566 
L 102.717738 252.994812 
L 110.194213 251.628661 
L 117.670688 250.749069 
L 125.147163 249.943139 
L 132.623638 249.240896 
L 140.100113 248.773825 
L 147.576588 248.100751 
L 155.053063 247.602713 
L 162.529538 246.385636 
L 170.006013 245.835015 
L 177.482488 244.936917 
L 184.958963 245.007965 
L 192.435438 244.299747 
L 199.911913 243.501951 
L 207.388388 243.651795 
L 214.864863 242.415349 
L 222.341338 242.473151 
L 229.817813 241.712259 
L 237.294288 240.862688 
L 244.770763 241.047991 
L 252.247237 240.342855 
L 259.723712 240.002354 
L 267.200187 239.997047 
L 274.676662 238.361715 
L 282.153137 238.546781 
L 289.629612 238.584721 
L 297.106087 237.957432 
L 304.582562 237.843879 
L 312.059037 237.025004 
L 319.535512 236.830297 
L 327.011987 236.645117 
L 334.488462 236.34573 
L 341.964937 235.774733 
L 349.441412 235.285354 
L 356.917887 235.395064 
L 364.394362 234.976742 
L 371.870837 234.592585 
L 379.347312 234.024744 
L 386.823787 233.87318 
L 394.300262 233.865461 
L 401.776737 233.56549 
L 409.253212 232.809573 
L 416.729686 232.748146 
L 424.206161 232.189981 
L 431.682636 232.091906 
" clip-path="url(#p2cc4c45efa)" style="fill: none; stroke: #7f7f7f; stroke-width: 1.5; stroke-linecap: square"/>
   </g>
   <g id="patch_3">
    <path d="M 47.018 302.2 
L 47.018 10.8 
" style="fill: none; stroke: #000000; stroke-width: 0.8; stroke-linejoin: miter; stroke-linecap: square"/>
   </g>
   <g id="patch_4">
    <path d="M 450 302.2 
L 450 10.8 
" style="fill: none; stroke: #000000; stroke-width: 0.8; stroke-linejoin: miter; stroke-linecap: square"/>
   </g>
   <g id="patch_5">
    <path d="M 47.018 302.2 
L 450 302.2 
" style="fill: none; stroke: #000000; stroke-width: 0.8; stroke-linejoin: miter; stroke-linecap: square"/>
   </g>
   <g id="patch_6">
    <path d="M 47.018 10.8 
L 450 10.8 
" style="fill: none; stroke: #000000; stroke-width: 0.8; stroke-linejoin: miter; stroke-linecap: square"/>
   </g>
   <g id="legend_1">
    <g id="patch_7">
     <path d="M 54.018 150.903125 
L 152.852375 150.903125 
Q 154.852375 150.903125 154.852375 148.903125 
L 154.852375 17.8 
Q 154.852375 15.8 152.852375 15.8 
L 54.018 15.8 
Q 52.018 15.8 52.018 17.8 
L 52.018 148.903125 
Q 52.018 150.903125 54.018 150.903125 
z
" style="fill: #ffffff; opacity: 0.8; stroke: #cccccc; stroke-linejoin: miter"/>
    </g>
    <g id="line2d_20">
     <path d="M 56.018 23.898438 
L 66.018 23.898438 
L 76.018 23.898438 
" style="fill: none; stroke: #1f77b4; stroke-width: 1.5; stroke-linecap: square"/>
    </g>
    <g id="text_14">
     <!-- Ts=80 K -->
     <g transform="translate(84.018 27.398438) scale(0.1 -0.1)">
      <defs>
       <path id="DejaVuSans-54" d="M -19 4666 
L 3928 4666 
L 3928 4134 
L 2272 4134 
L 2272 0 
L 1638 0 
L 1638 4134 
L -19 4134 
L -19 4666 
z
" transform="scale(0.015625)"/>
       <path id="DejaVuSans-73" d="M 2834 3397 
L 2834 2853 
Q 2591 2978 2328 3040 
Q 2066 3103 1784 3103 
Q 1356 3103 1142 2972 
Q 928 2841 928 2578 
Q 928 2378 1081 2264 
Q 1234 2150 1697 2047 
L 1894 2003 
Q 2506 1872 2764 1633 
Q 3022 1394 3022 966 
Q 3022 478 2636 193 
Q 2250 -91 1575 -91 
Q 1294 -91 989 -36 
Q 684 19 347 128 
L 347 722 
Q 666 556 975 473 
Q 1284 391 1588 391 
Q 1994 391 2212 530 
Q 2431 669 2431 922 
Q 2431 1156 2273 1281 
Q 2116 1406 1581 1522 
L 1381 1569 
Q 847 1681 609 1914 
Q 372 2147 372 2553 
Q 372 3047 722 3315 
Q 1072 3584 1716 3584 
Q 2034 3584 2315 3537 
Q 2597 3491 2834 3397 
z
" transform="scale(0.015625)"/>
       <path id="DejaVuSans-3d" d="M 678 2906 
L 4684 2906 
L 4684 2381 
L 678 2381 
L 678 2906 
z
M 678 1631 
L 4684 1631 
L 4684 1100 
L 678 1100 
L 678 1631 
z
" transform="scale(0.015625)"/>
       <path id="DejaVuSans-38" d="M 2034 2216 
Q 1584 2216 1326 1975 
Q 1069 1734 1069 1313 
Q 1069 891 1326 650 
Q 1584 409 2034 409 
Q 2484 409 2743 651 
Q 3003 894 3003 1313 
Q 3003 1734 2745 1975 
Q 2488 2216 2034 2216 
z
M 1403 2484 
Q 997 2584 770 2862 
Q 544 3141 544 3541 
Q 544 4100 942 4425 
Q 1341 4750 2034 4750 
Q 2731 4750 3128 4425 
Q 3525 4100 3525 3541 
Q 3525 3141 3298 2862 
Q 3072 2584 2669 2484 
Q 3125 2378 3379 2068 
Q 3634 1759 3634 1313 
Q 3634 634 3220 271 
Q 2806 -91 2034 -91 
Q 1263 -91 848 271 
Q 434 634 434 1313 
Q 434 1759 690 2068 
Q 947 2378 1403 2484 
z
M 1172 3481 
Q 1172 3119 1398 2916 
Q 1625 2713 2034 2713 
Q 2441 2713 2670 2916 
Q 2900 3119 2900 3481 
Q 2900 3844 2670 4047 
Q 2441 4250 2034 4250 
Q 1625 4250 1398 4047 
Q 1172 3844 1172 3481 
z
" transform="scale(0.015625)"/>
       <path id="DejaVuSans-4b" d="M 628 4666 
L 1259 4666 
L 1259 2694 
L 3353 4666 
L 4166 4666 
L 1850 2491 
L 4331 0 
L 3500 0 
L 1259 2247 
L 1259 0 
L 628 0 
L 628 4666 
z
" transform="scale(0.015625)"/>
      </defs>
      <use xlink:href="#DejaVuSans-54"/>
      <use xlink:href="#DejaVuSans-73" transform="translate(44.583984 0)"/>
      <use xlink:href="#DejaVuSans-3d" transform="translate(96.683594 0)"/>
      <use xlink:href="#DejaVuSans-38" transform="translate(180.472656 0)"/>
      <use xlink:href="#DejaVuSans-30" transform="translate(244.095703 0)"/>
      <use xlink:href="#DejaVuSans-20" transform="translate(307.71875 0)"/>
      <use xlink:href="#DejaVuSans-4b" transform="translate(339.505859 0)"/>
     </g>
    </g>
    <g id="line2d_21">
     <path d="M 56.018 38.576563 
L 66.018 38.576563 
L 76.018 38.576563 
" style="fill: none; stroke: #ff7f0e; stroke-width: 1.5; stroke-linecap: square"/>
    </g>
    <g id="text_15">
     <!-- Ts=100 K -->
     <g transform="translate(84.018 42.076563) scale(0.1 -0.1)">
      <use xlink:href="#DejaVuSans-54"/>
      <use xlink:href="#DejaVuSans-73" transform="translate(44.583984 0)"/>
      <use xlink:href="#DejaVuSans-3d" transform="translate(96.683594 0)"/>
      <use xlink:href="#DejaVuSans-31" transform="translate(180.472656 0)"/>
      <use xlink:href="#DejaVuSans-30" transform="translate(244.095703 0)"/>
      <use xlink:href="#DejaVuSans-30" transform="translate(307.71875 0)"/>
      <use xlink:href="#DejaVuSans-20" transform="translate(371.341797 0)"/>
      <use xlink:href="#DejaVuSans-4b" transform="translate(403.128906 0)"/>
     </g>
    </g>
    <g id="line2d_22">
     <path d="M 56.018 53.254687 
L 66.018 53.254687 
L 76.018 53.254687 
" style="fill: none; stroke: #2ca02c; stroke-width: 1.5; stroke-linecap: square"/>
    </g>
    <g id="text_16">
     <!-- Ts=120 K -->
     <g transform="translate(84.018 56.754687) scale(0.1 -0.1)">
      <use xlink:href="#DejaVuSans-54"/>
      <use xlink:href="#DejaVuSans-73" transform="translate(44.583984 0)"/>
      <use xlink:href="#DejaVuSans-3d" transform="translate(96.683594 0)"/>
      <use xlink:href="#DejaVuSans-31" transform="translate(180.472656 0)"/>
      <use xlink:href="#DejaVuSans-32" transform="translate(244.095703 0)"/>
      <use xlink:href="#DejaVuSans-30" transform="translate(307.71875 0)"/>
      <use xlink:href="#DejaVuSans-20" transform="translate(371.341797 0)"/>
      <use xlink:href="#DejaVuSans-4b" transform="translate(403.128906 0)"/>
     </g>
    </g>
    <g id="line2d_23">
     <path d="M 56.018 67.932813 
L 66.018 67.932813 
L 76.018 67.932813 
" style="fill: none; stroke: #d62728; stroke-width: 1.5; stroke-linecap: square"/>
    </g>
    <g id="text_17">
     <!-- Ts=140 K -->
     <g transform="translate(84.018 71.432813) scale(0.1 -0.1)">
      <use xlink:href="#DejaVuSans-54"/>
      <use xlink:href="#DejaVuSans-73" transform="translate(44.583984 0)"/>
      <use xlink:href="#DejaVuSans-3d" transform="translate(96.683594 0)"/>
      <use xlink:href="#DejaVuSans-31" transform="translate(180.472656 0)"/>
      <use xlink:href="#DejaVuSans-34" transform="translate(244.095703 0)"/>
      <use xlink:href="#DejaVuSans-30" transform="translate(307.71875 0)"/>
      <use xlink:href="#DejaVuSans-20" transform="translate(371.341797 0)"/>
      <use xlink:href="#DejaVuSans-4b" transform="translate(403.128906 0)"/>
     </g>
    </g>
    <g id="line2d_24">
     <path d="M 56.018 82.610938 
L 66.018 82.610938 
L 76.018 82.610938 
" style="fill: none; stroke: #9467bd; stroke-width: 1.5; stroke-linecap: square"/>
    </g>
    <g id="text_18">
     <!-- Ts=160 K -->
     <g transform="translate(84.018 86.110938) scale(0.1 -0.1)">
      <defs>
       <path id="DejaVuSans-36" d="M 2113 2584 
Q 1688 2584 1439 2293 
Q 1191 2003 1191 1497 
Q 1191 994 1439 701 
Q 1688 409 2113 409 
Q 2538 409 2786 701 
Q 3034 994 3034 1497 
Q 3034 2003 2786 2293 
Q 2538 2584 2113 2584 
z
M 3366 4563 
L 3366 3988 
Q 3128 4100 2886 4159 
Q 2644 4219 2406 4219 
Q 1781 4219 1451 3797 
Q 1122 3375 1075 2522 
Q 1259 2794 1537 2939 
Q 1816 3084 2150 3084 
Q 2853 3084 3261 2657 
Q 3669 2231 3669 1497 
Q 3669 778 3244 343 
Q 2819 -91 2113 -91 
Q 1303 -91 875 529 
Q 447 1150 447 2328 
Q 447 3434 972 4092 
Q 1497 4750 2381 4750 
Q 2619 4750 2861 4703 
Q 3103 4656 3366 4563 
z
" transform="scale(0.015625)"/>
      </defs>
      <use xlink:href="#DejaVuSans-54"/>
      <use xlink:href="#DejaVuSans-73" transform="translate(44.583984 0)"/>
      <use xlink:href="#DejaVuSans-3d" transform="translate(96.683594 0)"/>
      <use xlink:href="#DejaVuSans-31" transform="translate(180.472656 0)"/>
      <use xlink:href="#DejaVuSans-36" transform="translate(244.095703 0)"/>
      <use xlink:href="#DejaVuSans-30" transform="translate(307.71875 0)"/>
      <use xlink:href="#DejaVuSans-20" transform="translate(371.341797 0)"/>
      <use xlink:href="#DejaVuSans-4b" transform="translate(403.128906 0)"/>
     </g>
    </g>
    <g id="line2d_25">
     <path d="M 56.018 97.289062 
L 66.018 97.289062 
L 76.018 97.289062 
" style="fill: none; stroke: #8c564b; stroke-width: 1.5; stroke-linecap: square"/>
    </g>
    <g id="text_19">
     <!-- Ts=180 K -->
     <g transform="translate(84.018 100.789062) scale(0.1 -0.1)">
      <use xlink:href="#DejaVuSans-54"/>
      <use xlink:href="#DejaVuSans-73" transform="translate(44.583984 0)"/>
      <use xlink:href="#DejaVuSans-3d" transform="translate(96.683594 0)"/>
      <use xlink:href="#DejaVuSans-31" transform="translate(180.472656 0)"/>
      <use xlink:href="#DejaVuSans-38" transform="translate(244.095703 0)"/>
      <use xlink:href="#DejaVuSans-30" transform="translate(307.71875 0)"/>
      <use xlink:href="#DejaVuSans-20" transform="translate(371.341797 0)"/>
      <use xlink:href="#DejaVuSans-4b" transform="translate(403.128906 0)"/>
     </g>
    </g>
    <g id="line2d_26">
     <path d="M 56.018 111.967187 
L 66.018 111.967187 
L 76.018 111.967187 
" style="fill: none; stroke: #e377c2; stroke-width: 1.5; stroke-linecap: square"/>
    </g>
    <g id="text_20">
     <!-- Ts=200 K -->
     <g transform="translate(84.018 115.467187) scale(0.1 -0.1)">
      <use xlink:href="#DejaVuSans-54"/>
      <use xlink:href="#DejaVuSans-73" transform="translate(44.583984 0)"/>
      <use xlink:href="#DejaVuSans-3d" transform="translate(96.683594 0)"/>
      <use xlink:href="#DejaVuSans-32" transform="translate(180.472656 0)"/>
      <use xlink:href="#DejaVuSans-30" transform="translate(244.095703 0)"/>
      <use xlink:href="#DejaVuSans-30" transform="translate(307.71875 0)"/>
      <use xlink:href="#DejaVuSans-20" transform="translate(371.341797 0)"/>
      <use xlink:href="#DejaVuSans-4b" transform="translate(403.128906 0)"/>
     </g>
    </g>
    <g id="line2d_27">
     <path d="M 56.018 126.645312 
L 66.018 126.645312 
L 76.018 126.645312 
" style="fill: none; stroke: #7f7f7f; stroke-width: 1.5; stroke-linecap: square"/>
    </g>
    <g id="text_21">
     <!-- Ts=220 K -->
     <g transform="translate(84.018 130.145312) scale(0.1 -0.1)">
      <use xlink:href="#DejaVuSans-54"/>
      <use xlink:href="#DejaVuSans-73" transform="translate(44.583984 0)"/>
      <use xlink:href="#DejaVuSans-3d" transform="translate(96.683594 0)"/>
      <use xlink:href="#DejaVuSans-32" transform="translate(180.472656 0)"/>
      <use xlink:href="#DejaVuSans-32" transform="translate(244.095703 0)"/>
      <use xlink:href="#DejaVuSans-30" transform="translate(307.71875 0)"/>
      <use xlink:href="#DejaVuSans-20" transform="translate(371.341797 0)"/>
      <use xlink:href="#DejaVuSans-4b" transform="translate(403.128906 0)"/>
     </g>
    </g>
    <g id="PathCollection_9">
     <g>
      <use xlink:href="#m7a7169fa3a" x="66.018" y="142.198437" style="fill-opacity: 0.7; stroke: #000000; stroke-opacity: 0.7"/>
     </g>
    </g>
    <g id="text_22">
     <!-- Artificial data -->
     <g transform="translate(84.018 144.823437) scale(0.1 -0.1)">
      <defs>
       <path id="DejaVuSans-41" d="M 2188 4044 
L 1331 1722 
L 3047 1722 
L 2188 4044 
z
M 1831 4666 
L 2547 4666 
L 4325 0 
L 3669 0 
L 3244 1197 
L 1141 1197 
L 716 0 
L 50 0 
L 1831 4666 
z
" transform="scale(0.015625)"/>
       <path id="DejaVuSans-74" d="M 1172 4494 
L 1172 3500 
L 2356 3500 
L 2356 3053 
L 1172 3053 
L 1172 1153 
Q 1172 725 1289 603 
Q 1406 481 1766 481 
L 2356 481 
L 2356 0 
L 1766 0 
Q 1100 0 847 248 
Q 594 497 594 1153 
L 594 3053 
L 172 3053 
L 172 3500 
L 594 3500 
L 594 4494 
L 1172 4494 
z
" transform="scale(0.015625)"/>
       <path id="DejaVuSans-69" d="M 603 3500 
L 1178 3500 
L 1178 0 
L 603 0 
L 603 3500 
z
M 603 4863 
L 1178 4863 
L 1178 4134 
L 603 4134 
L 603 4863 
z
" transform="scale(0.015625)"/>
       <path id="DejaVuSans-66" d="M 2375 4863 
L 2375 4384 
L 1825 4384 
Q 1516 4384 1395 4259 
Q 1275 4134 1275 3809 
L 1275 3500 
L 2222 3500 
L 2222 3053 
L 1275 3053 
L 1275 0 
L 697 0 
L 697 3053 
L 147 3053 
L 147 3500 
L 697 3500 
L 697 3744 
Q 697 4328 969 4595 
Q 1241 4863 1831 4863 
L 2375 4863 
z
" transform="scale(0.015625)"/>
       <path id="DejaVuSans-63" d="M 3122 3366 
L 3122 2828 
Q 2878 2963 2633 3030 
Q 2388 3097 2138 3097 
Q 1578 3097 1268 2742 
Q 959 2388 959 1747 
Q 959 1106 1268 751 
Q 1578 397 2138 397 
Q 2388 397 2633 464 
Q 2878 531 3122 666 
L 3122 134 
Q 2881 22 2623 -34 
Q 2366 -91 2075 -91 
Q 1284 -91 818 406 
Q 353 903 353 1747 
Q 353 2603 823 3093 
Q 1294 3584 2113 3584 
Q 2378 3584 2631 3529 
Q 2884 3475 3122 3366 
z
" transform="scale(0.015625)"/>
       <path id="DejaVuSans-61" d="M 2194 1759 
Q 1497 1759 1228 1600 
Q 959 1441 959 1056 
Q 959 750 1161 570 
Q 1363 391 1709 391 
Q 2188 391 2477 730 
Q 2766 1069 2766 1631 
L 2766 1759 
L 2194 1759 
z
M 3341 1997 
L 3341 0 
L 2766 0 
L 2766 531 
Q 2569 213 2275 61 
Q 1981 -91 1556 -91 
Q 1019 -91 701 211 
Q 384 513 384 1019 
Q 384 1609 779 1909 
Q 1175 2209 1959 2209 
L 2766 2209 
L 2766 2266 
Q 2766 2663 2505 2880 
Q 2244 3097 1772 3097 
Q 1472 3097 1187 3025 
Q 903 2953 641 2809 
L 641 3341 
Q 956 3463 1253 3523 
Q 1550 3584 1831 3584 
Q 2591 3584 2966 3190 
Q 3341 2797 3341 1997 
z
" transform="scale(0.015625)"/>
       <path id="DejaVuSans-6c" d="M 603 4863 
L 1178 4863 
L 1178 0 
L 603 0 
L 603 4863 
z
" transform="scale(0.015625)"/>
       <path id="DejaVuSans-64" d="M 2906 2969 
L 2906 4863 
L 3481 4863 
L 3481 0 
L 2906 0 
L 2906 525 
Q 2725 213 2448 61 
Q 2172 -91 1784 -91 
Q 1150 -91 751 415 
Q 353 922 353 1747 
Q 353 2572 751 3078 
Q 1150 3584 1784 3584 
Q 2172 3584 2448 3432 
Q 2725 3281 2906 2969 
z
M 947 1747 
Q 947 1113 1208 752 
Q 1469 391 1925 391 
Q 2381 391 2643 752 
Q 2906 1113 2906 1747 
Q 2906 2381 2643 2742 
Q 2381 3103 1925 3103 
Q 1469 3103 1208 2742 
Q 947 2381 947 1747 
z
" transform="scale(0.015625)"/>
      </defs>
      <use xlink:href="#DejaVuSans-41"/>
      <use xlink:href="#DejaVuSans-72" transform="translate(68.408203 0)"/>
      <use xlink:href="#DejaVuSans-74" transform="translate(109.521484 0)"/>
      <use xlink:href="#DejaVuSans-69" transform="translate(148.730469 0)"/>
      <use xlink:href="#DejaVuSans-66" transform="translate(176.513672 0)"/>
      <use xlink:href="#DejaVuSans-69" transform="translate(211.71875 0)"/>
      <use xlink:href="#DejaVuSans-63" transform="translate(239.501953 0)"/>
      <use xlink:href="#DejaVuSans-69" transform="translate(294.482422 0)"/>
      <use xlink:href="#DejaVuSans-61" transform="translate(322.265625 0)"/>
      <use xlink:href="#DejaVuSans-6c" transform="translate(383.544922 0)"/>
      <use xlink:href="#DejaVuSans-20" transform="translate(411.328125 0)"/>
      <use xlink:href="#DejaVuSans-64" transform="translate(443.115234 0)"/>
      <use xlink:href="#DejaVuSans-61" transform="translate(506.591797 0)"/>
      <use xlink:href="#DejaVuSans-74" transform="translate(567.871094 0)"/>
      <use xlink:href="#DejaVuSans-61" transform="translate(607.080078 0)"/>
     </g>
    </g>
   </g>
  </g>
 </g>
 <defs>
  <clipPath id="p2cc4c45efa">
   <rect x="47.018" y="10.8" width="402.982" height="291.4"/>
  </clipPath>
 </defs>
</svg>
