<?xml version="1.0" encoding="utf-8" standalone="no"?>
<!DOCTYPE svg PUBLIC "-//W3C//DTD SVG 1.1//EN"
  "http://www.w3.org/Graphics/SVG/1.1/DTD/svg11.dtd">
<svg xmlns:xlink="http://www.w3.org/1999/xlink" width="460.8pt" height="345.6pt" viewBox="0 0 460.8 345.6" xmlns="http://www.w3.org/2000/svg" version="1.1">
 <metadata>
  <rdf:RDF xmlns:dc="http://purl.org/dc/elements/1.1/" xmlns:cc="http://creativecommons.org/ns#" xmlns:rdf="http://www.w3.org/1999/02/22-rdf-syntax-ns#">
   <cc:Work>
    <dc:type rdf:resource="http://purl.org/dc/dcmitype/StillImage"/>
    <dc:date>2026-02-12T00:49:46.470365</dc:date>
    <dc:format>image/svg+xml</dc:format>
    <dc:creator>
     <cc:Agent>
      <dc:title>Matplotlib v3.10.8, https://matplotlib.org/</dc:title>
     </cc:Agent>
    </dc:creator>
   </cc:Work>
  </rdf:RDF>
 </metadata>
 <defs>
  <style type="text/css">*{stroke-linejoin: round; stroke-linecap: butt}</style>
 </defs>
 <g id="figure_1">
  <g id="patch_1">
   <path d="M 0 345.6 
L 460.8 345.6 
L 460.8 0 
L 0 0 
L 0 345.6 
z
" style="fill: none"/>
  </g>
  <g id="axes_1">
   <g id="patch_2">
    <path d="M 47.018 302.2 
L 450 302.2 
L 450 10.8 
L 47.018 10.8 
L 47.018 302.2 
z
" style="fill: none"/>
   </g>
   <g id="FillBetweenPolyCollection_1">
    <path d="M 65.335364 220.580693 
L 65.335364 277.726659 
L 72.811839 271.263688 
L 80.288314 265.07813 
L 87.764788 259.555943 
L 95.241263 255.474404 
L 102.717738 252.456295 
L 110.194213 249.394646 
L 117.670688 247.301187 
L 125.147163 244.991963 
L 132.623638 242.688183 
L 140.100113 240.136378 
L 147.576588 238.37635 
L 155.053063 236.337842 
L 162.529538 233.959767 
L 170.006013 232.328641 
L 177.482488 230.067351 
L 184.958963 228.968543 
L 192.435438 227.790223 
L 199.911913 225.817337 
L 207.388388 223.256244 
L 214.864863 222.656006 
L 222.341338 221.697217 
L 229.817813 219.207443 
L 237.294288 217.795411 
L 244.770763 215.213376 
L 252.247237 214.768563 
L 259.723712 213.489873 
L 267.200187 212.860032 
L 274.676662 210.803891 
L 282.153137 209.99683 
L 289.629612 208.641624 
L 297.106087 207.153028 
L 304.582562 206.006702 
L 312.059037 204.089648 
L 319.535512 203.385175 
L 327.011987 202.299926 
L 334.488462 201.329956 
L 341.964937 201.132554 
L 349.441412 198.114701 
L 356.917887 199.244176 
L 364.394362 197.815093 
L 371.870837 195.104215 
L 379.347312 194.99565 
L 386.823787 192.954463 
L 394.300262 192.025525 
L 401.776737 190.582165 
L 409.253212 189.11963 
L 416.729686 188.080064 
L 424.206161 187.30143 
L 431.682636 185.174252 
L 431.682636 128.541795 
L 431.682636 128.541795 
L 424.206161 130.516331 
L 416.729686 132.332511 
L 409.253212 132.886279 
L 401.776737 134.921775 
L 394.300262 135.820462 
L 386.823787 137.423759 
L 379.347312 140.595062 
L 371.870837 140.268005 
L 364.394362 141.163234 
L 356.917887 142.411064 
L 349.441412 143.622446 
L 341.964937 145.238901 
L 334.488462 145.169944 
L 327.011987 147.829253 
L 319.535512 148.871066 
L 312.059037 149.552892 
L 304.582562 151.542443 
L 297.106087 152.062535 
L 289.629612 153.326727 
L 282.153137 153.890703 
L 274.676662 155.202862 
L 267.200187 156.738398 
L 259.723712 158.72542 
L 252.247237 159.621575 
L 244.770763 160.304926 
L 237.294288 162.99945 
L 229.817813 164.542938 
L 222.341338 165.068998 
L 214.864863 167.058544 
L 207.388388 168.983899 
L 199.911913 169.831138 
L 192.435438 171.831716 
L 184.958963 173.863085 
L 177.482488 175.456363 
L 170.006013 177.389903 
L 162.529538 178.870124 
L 155.053063 181.553873 
L 147.576588 183.002119 
L 140.100113 185.163654 
L 132.623638 187.240709 
L 125.147163 188.117826 
L 117.670688 191.027818 
L 110.194213 194.356725 
L 102.717738 196.930465 
L 95.241263 200.326813 
L 87.764788 204.246205 
L 80.288314 209.206394 
L 72.811839 213.900682 
L 65.335364 220.580693 
z
" clip-path="url(#pd093df0499)" style="fill: #1f77b4; fill-opacity: 0.27"/>
   </g>
   <g id="FillBetweenPolyCollection_2">
    <path d="M 65.335364 249.235917 
L 65.335364 249.738712 
L 72.811839 242.869908 
L 80.288314 237.175269 
L 87.764788 232.439798 
L 95.241263 228.468115 
L 102.717738 225.089125 
L 110.194213 222.158254 
L 117.670688 219.557737 
L 125.147163 217.195231 
L 132.623638 215.001211 
L 140.100113 212.925635 
L 147.576588 210.934327 
L 155.053063 209.005329 
L 162.529538 207.125658 
L 170.006013 205.288528 
L 177.482488 203.491175 
L 184.958963 201.733228 
L 192.435438 200.015608 
L 199.911913 198.339796 
L 207.388388 196.707383 
L 214.864863 195.119766 
L 222.341338 193.577968 
L 229.817813 192.082418 
L 237.294288 190.63278 
L 244.770763 189.227812 
L 252.247237 187.865275 
L 259.723712 186.541957 
L 267.200187 185.253802 
L 274.676662 183.996169 
L 282.153137 182.764188 
L 289.629612 181.553164 
L 297.106087 180.358952 
L 304.582562 179.178226 
L 312.059037 178.008567 
L 319.535512 176.848338 
L 327.011987 175.696299 
L 334.488462 174.551051 
L 341.964937 173.410341 
L 349.441412 172.270397 
L 356.917887 171.125429 
L 364.394362 169.96747 
L 371.870837 168.786245 
L 379.347312 167.569743 
L 386.823787 166.309237 
L 394.300262 164.997617 
L 401.776737 163.633459 
L 409.253212 162.224095 
L 416.729686 160.791607 
L 424.206161 159.369087 
L 431.682636 158.005567 
L 431.682636 156.607016 
L 431.682636 156.607016 
L 424.206161 157.94804 
L 416.729686 159.352368 
L 409.253212 160.768851 
L 401.776737 162.163368 
L 394.300262 163.516576 
L 386.823787 164.82104 
L 379.347312 166.078067 
L 371.870837 167.294611 
L 364.394362 168.480498 
L 356.917887 169.646187 
L 349.441412 170.801182 
L 341.964937 171.953103 
L 334.488462 173.107379 
L 327.011987 174.267428 
L 319.535512 175.435188 
L 312.059037 176.611789 
L 304.582562 177.798253 
L 297.106087 178.996066 
L 289.629612 180.207531 
L 282.153137 181.435889 
L 274.676662 182.685221 
L 267.200187 183.960145 
L 259.723712 185.265453 
L 252.247237 186.605689 
L 244.770763 187.984815 
L 237.294288 189.405959 
L 229.817813 190.871307 
L 222.341338 192.382117 
L 214.864863 193.938814 
L 207.388388 195.541158 
L 199.911913 197.188423 
L 192.435438 198.879559 
L 184.958963 200.613394 
L 177.482488 202.388887 
L 170.006013 204.205521 
L 162.529538 206.063998 
L 155.053063 207.967302 
L 147.576588 209.922299 
L 140.100113 211.941935 
L 132.623638 214.048037 
L 125.147163 216.274658 
L 117.670688 218.671783 
L 110.194213 221.309123 
L 102.717738 224.279605 
L 95.241263 227.702131 
L 87.764788 231.723122 
L 80.288314 236.516373 
L 72.811839 242.280817 
L 65.335364 249.235917 
z
" clip-path="url(#pd093df0499)" style="fill: #ff7f0e; fill-opacity: 0.45"/>
   </g>
   <g id="PathCollection_1">
    <defs>
     <path id="md9042aaca0" d="M 0 2.12132 
C 0.562581 2.12132 1.102195 1.897805 1.5 1.5 
C 1.897805 1.102195 2.12132 0.562581 2.12132 0 
C 2.12132 -0.562581 1.897805 -1.102195 1.5 -1.5 
C 1.102195 -1.897805 0.562581 -2.12132 0 -2.12132 
C -0.562581 -2.12132 -1.102195 -1.897805 -1.5 -1.5 
C -1.897805 -1.102195 -2.12132 -0.562581 -2.12132 0 
C -2.12132 0.562581 -1.897805 1.102195 -1.5 1.5 
C -1.102195 1.897805 -0.562581 2.12132 0 2.12132 
z
" style="stroke: #000000; stroke-opacity: 0.7"/>
    </defs>
    <g clip-path="url(#pd093df0499)">
     <use xlink:href="#md9042aaca0" x="65.335364" y="187.500927" style="fill-opacity: 0.7; stroke: #000000; stroke-opacity: 0.7"/>
     <use xlink:href="#md9042aaca0" x="98.639661" y="152.734157" style="fill-opacity: 0.7; stroke: #000000; stroke-opacity: 0.7"/>
     <use xlink:href="#md9042aaca0" x="135.644436" y="127.141808" style="fill-opacity: 0.7; stroke: #000000; stroke-opacity: 0.7"/>
     <use xlink:href="#md9042aaca0" x="172.649211" y="109.195466" style="fill-opacity: 0.7; stroke: #000000; stroke-opacity: 0.7"/>
     <use xlink:href="#md9042aaca0" x="209.653986" y="90.888513" style="fill-opacity: 0.7; stroke: #000000; stroke-opacity: 0.7"/>
     <use xlink:href="#md9042aaca0" x="246.658761" y="77.429082" style="fill-opacity: 0.7; stroke: #000000; stroke-opacity: 0.7"/>
     <use xlink:href="#md9042aaca0" x="283.663536" y="65.85363" style="fill-opacity: 0.7; stroke: #000000; stroke-opacity: 0.7"/>
     <use xlink:href="#md9042aaca0" x="320.668311" y="53.85717" style="fill-opacity: 0.7; stroke: #000000; stroke-opacity: 0.7"/>
     <use xlink:href="#md9042aaca0" x="357.673086" y="43.607609" style="fill-opacity: 0.7; stroke: #000000; stroke-opacity: 0.7"/>
     <use xlink:href="#md9042aaca0" x="394.677861" y="34.228241" style="fill-opacity: 0.7; stroke: #000000; stroke-opacity: 0.7"/>
     <use xlink:href="#md9042aaca0" x="431.682636" y="24.045455" style="fill-opacity: 0.7; stroke: #000000; stroke-opacity: 0.7"/>
    </g>
   </g>
   <g id="FillBetweenPolyCollection_3">
    <path d="M 65.335364 224.446638 
L 65.335364 278.81178 
L 72.811839 272.393575 
L 80.288314 267.265104 
L 87.764788 262.108668 
L 95.241263 259.640631 
L 102.717738 255.14129 
L 110.194213 252.673903 
L 117.670688 250.373058 
L 125.147163 248.06631 
L 132.623638 245.597926 
L 140.100113 242.776112 
L 147.576588 243.078431 
L 155.053063 241.128172 
L 162.529538 237.779044 
L 170.006013 236.640724 
L 177.482488 234.863821 
L 184.958963 232.382465 
L 192.435438 233.091746 
L 199.911913 229.795653 
L 207.388388 228.779852 
L 214.864863 226.627614 
L 222.341338 225.996174 
L 229.817813 224.490318 
L 237.294288 222.094104 
L 244.770763 222.28815 
L 252.247237 220.866029 
L 259.723712 218.801912 
L 267.200187 216.737957 
L 274.676662 215.665004 
L 282.153137 214.993208 
L 289.629612 213.313263 
L 297.106087 213.582758 
L 304.582562 213.620888 
L 312.059037 211.323119 
L 319.535512 209.638655 
L 327.011987 209.510034 
L 334.488462 208.012042 
L 341.964937 207.071764 
L 349.441412 206.58304 
L 356.917887 206.011029 
L 364.394362 204.059034 
L 371.870837 203.333891 
L 379.347312 203.148456 
L 386.823787 201.107677 
L 394.300262 199.979069 
L 401.776737 198.501774 
L 409.253212 197.662904 
L 416.729686 197.169036 
L 424.206161 196.03777 
L 431.682636 196.094323 
L 431.682636 139.218946 
L 431.682636 139.218946 
L 424.206161 140.413745 
L 416.729686 142.146698 
L 409.253212 143.847704 
L 401.776737 144.641136 
L 394.300262 145.31829 
L 386.823787 146.673104 
L 379.347312 148.513726 
L 371.870837 149.013086 
L 364.394362 150.779845 
L 356.917887 151.66485 
L 349.441412 152.063109 
L 341.964937 152.550361 
L 334.488462 153.922647 
L 327.011987 155.892278 
L 319.535512 156.372171 
L 312.059037 157.732266 
L 304.582562 158.559706 
L 297.106087 158.858192 
L 289.629612 160.526187 
L 282.153137 161.32003 
L 274.676662 163.057888 
L 267.200187 163.213866 
L 259.723712 164.844011 
L 252.247237 166.384064 
L 244.770763 167.961967 
L 237.294288 168.438946 
L 229.817813 170.173187 
L 222.341338 171.834042 
L 214.864863 173.173582 
L 207.388388 175.166416 
L 199.911913 175.675883 
L 192.435438 178.961299 
L 184.958963 179.039394 
L 177.482488 180.021422 
L 170.006013 183.302339 
L 162.529538 185.00398 
L 155.053063 186.933974 
L 147.576588 188.616116 
L 140.100113 189.722575 
L 132.623638 190.861848 
L 125.147163 193.452416 
L 117.670688 196.668936 
L 110.194213 199.546741 
L 102.717738 200.785689 
L 95.241263 204.235212 
L 87.764788 207.946466 
L 80.288314 211.763041 
L 72.811839 216.603095 
L 65.335364 224.446638 
z
" clip-path="url(#pd093df0499)" style="fill: #2ca02c; fill-opacity: 0.27"/>
   </g>
   <g id="FillBetweenPolyCollection_4">
    <path d="M 65.335364 250.8796 
L 65.335364 251.239073 
L 72.811839 244.883936 
L 80.288314 239.630525 
L 87.764788 235.273542 
L 95.241263 231.626335 
L 102.717738 228.525176 
L 110.194213 225.831833 
L 117.670688 223.434126 
L 125.147163 221.244792 
L 132.623638 219.199131 
L 140.100113 217.25179 
L 147.576588 215.373164 
L 155.053063 213.545747 
L 162.529538 211.760747 
L 170.006013 210.015152 
L 177.482488 208.309384 
L 184.958963 206.64551 
L 192.435438 205.026049 
L 199.911913 203.45319 
L 207.388388 201.928414 
L 214.864863 200.452324 
L 222.341338 199.024619 
L 229.817813 197.644154 
L 237.294288 196.309019 
L 244.770763 195.016626 
L 252.247237 193.76382 
L 259.723712 192.547026 
L 267.200187 191.362425 
L 274.676662 190.206189 
L 282.153137 189.074739 
L 289.629612 187.964999 
L 297.106087 186.874599 
L 304.582562 185.80198 
L 312.059037 184.746338 
L 319.535512 183.707406 
L 327.011987 182.685041 
L 334.488462 181.678687 
L 341.964937 180.686749 
L 349.441412 179.706011 
L 356.917887 178.731225 
L 364.394362 177.754981 
L 371.870837 176.768008 
L 379.347312 175.759986 
L 386.823787 174.720904 
L 394.300262 173.642949 
L 401.776737 172.522824 
L 409.253212 171.364328 
L 416.729686 170.180983 
L 424.206161 168.998421 
L 431.682636 167.856255 
L 431.682636 166.773685 
L 431.682636 166.773685 
L 424.206161 167.899273 
L 416.729686 169.069381 
L 409.253212 170.243962 
L 401.776737 171.397087 
L 394.300262 172.51502 
L 386.823787 173.594519 
L 379.347312 174.638392 
L 371.870837 175.653441 
L 364.394362 176.649457 
L 356.917887 177.636494 
L 349.441412 178.623522 
L 341.964937 179.61763 
L 334.488462 180.623746 
L 327.011987 181.644786 
L 319.535512 182.682091 
L 312.059037 183.736017 
L 304.582562 184.806562 
L 297.106087 185.893906 
L 289.629612 186.998804 
L 282.153137 188.122797 
L 274.676662 189.26824 
L 267.200187 190.438436 
L 259.723712 191.636609 
L 252.247237 192.866488 
L 244.770763 194.131788 
L 237.294288 195.435976 
L 229.817813 196.782196 
L 222.341338 198.173383 
L 214.864863 199.611206 
L 207.388388 201.096922 
L 199.911913 202.631033 
L 192.435438 204.213216 
L 184.958963 205.842345 
L 177.482488 207.516599 
L 170.006013 209.23385 
L 162.529538 210.992363 
L 155.053063 212.791989 
L 147.576588 214.635904 
L 140.100113 216.532978 
L 132.623638 218.500721 
L 125.147163 220.56872 
L 117.670688 222.782368 
L 110.194213 225.206565 
L 102.717738 227.929051 
L 95.241263 231.062904 
L 87.764788 234.747776 
L 80.288314 239.149441 
L 72.811839 244.457299 
L 65.335364 250.8796 
z
" clip-path="url(#pd093df0499)" style="fill: #d62728; fill-opacity: 0.45"/>
   </g>
   <g id="PathCollection_2">
    <g clip-path="url(#pd093df0499)">
     <use xlink:href="#md9042aaca0" x="65.335364" y="208.894699" style="fill-opacity: 0.7; stroke: #000000; stroke-opacity: 0.7"/>
     <use xlink:href="#md9042aaca0" x="98.639661" y="176.506975" style="fill-opacity: 0.7; stroke: #000000; stroke-opacity: 0.7"/>
     <use xlink:href="#md9042aaca0" x="135.644436" y="155.377507" style="fill-opacity: 0.7; stroke: #000000; stroke-opacity: 0.7"/>
     <use xlink:href="#md9042aaca0" x="172.649211" y="138.68374" style="fill-opacity: 0.7; stroke: #000000; stroke-opacity: 0.7"/>
     <use xlink:href="#md9042aaca0" x="209.653986" y="125.727868" style="fill-opacity: 0.7; stroke: #000000; stroke-opacity: 0.7"/>
     <use xlink:href="#md9042aaca0" x="246.658761" y="113.766734" style="fill-opacity: 0.7; stroke: #000000; stroke-opacity: 0.7"/>
     <use xlink:href="#md9042aaca0" x="283.663536" y="104.018834" style="fill-opacity: 0.7; stroke: #000000; stroke-opacity: 0.7"/>
     <use xlink:href="#md9042aaca0" x="320.668311" y="94.066657" style="fill-opacity: 0.7; stroke: #000000; stroke-opacity: 0.7"/>
     <use xlink:href="#md9042aaca0" x="357.673086" y="85.816666" style="fill-opacity: 0.7; stroke: #000000; stroke-opacity: 0.7"/>
     <use xlink:href="#md9042aaca0" x="394.677861" y="76.542712" style="fill-opacity: 0.7; stroke: #000000; stroke-opacity: 0.7"/>
     <use xlink:href="#md9042aaca0" x="431.682636" y="69.111348" style="fill-opacity: 0.7; stroke: #000000; stroke-opacity: 0.7"/>
    </g>
   </g>
   <g id="FillBetweenPolyCollection_5">
    <path d="M 65.335364 224.153528 
L 65.335364 279.365083 
L 72.811839 273.325931 
L 80.288314 268.512541 
L 87.764788 263.368295 
L 95.241263 261.444183 
L 102.717738 257.31345 
L 110.194213 255.354367 
L 117.670688 252.621792 
L 125.147163 250.494628 
L 132.623638 249.175926 
L 140.100113 246.378595 
L 147.576588 245.909632 
L 155.053063 243.174009 
L 162.529538 242.619674 
L 170.006013 239.81721 
L 177.482488 238.62221 
L 184.958963 237.323705 
L 192.435438 235.800912 
L 199.911913 233.900889 
L 207.388388 231.805295 
L 214.864863 230.830053 
L 222.341338 230.150693 
L 229.817813 228.589814 
L 237.294288 226.723015 
L 244.770763 225.86084 
L 252.247237 223.842102 
L 259.723712 223.523151 
L 267.200187 221.62082 
L 274.676662 220.853691 
L 282.153137 221.065776 
L 289.629612 219.756632 
L 297.106087 218.740324 
L 304.582562 217.838072 
L 312.059037 216.989005 
L 319.535512 216.336199 
L 327.011987 214.392182 
L 334.488462 213.953919 
L 341.964937 214.468744 
L 349.441412 212.592276 
L 356.917887 210.378987 
L 364.394362 210.760435 
L 371.870837 209.6636 
L 379.347312 208.06722 
L 386.823787 208.160649 
L 394.300262 206.719859 
L 401.776737 206.967626 
L 409.253212 204.669172 
L 416.729686 205.199029 
L 424.206161 203.970711 
L 431.682636 201.866933 
L 431.682636 147.248701 
L 431.682636 147.248701 
L 424.206161 149.921384 
L 416.729686 151.189017 
L 409.253212 151.649966 
L 401.776737 153.337353 
L 394.300262 153.429598 
L 386.823787 154.09175 
L 379.347312 156.124688 
L 371.870837 156.679253 
L 364.394362 156.528596 
L 356.917887 159.13658 
L 349.441412 158.727256 
L 341.964937 160.15512 
L 334.488462 160.415644 
L 327.011987 161.922213 
L 319.535512 161.448286 
L 312.059037 163.082068 
L 304.582562 164.351151 
L 297.106087 165.090107 
L 289.629612 166.633438 
L 282.153137 167.161574 
L 274.676662 168.706535 
L 267.200187 169.226911 
L 259.723712 170.480077 
L 252.247237 171.276211 
L 244.770763 172.832218 
L 237.294288 173.73726 
L 229.817813 175.16581 
L 222.341338 176.608829 
L 214.864863 178.216748 
L 207.388388 179.355102 
L 199.911913 180.71308 
L 192.435438 181.468678 
L 184.958963 182.936564 
L 177.482488 183.795419 
L 170.006013 186.306853 
L 162.529538 189.394089 
L 155.053063 189.754187 
L 147.576588 191.351958 
L 140.100113 193.136962 
L 132.623638 195.292788 
L 125.147163 197.152998 
L 117.670688 198.815754 
L 110.194213 201.260414 
L 102.717738 204.198396 
L 95.241263 207.377772 
L 87.764788 210.904475 
L 80.288314 213.773649 
L 72.811839 219.191094 
L 65.335364 224.153528 
z
" clip-path="url(#pd093df0499)" style="fill: #9467bd; fill-opacity: 0.27"/>
   </g>
   <g id="FillBetweenPolyCollection_6">
    <path d="M 65.335364 251.576799 
L 65.335364 251.741071 
L 72.811839 245.913443 
L 80.288314 241.098435 
L 87.764788 237.104001 
L 95.241263 233.754982 
L 102.717738 230.898448 
L 110.194213 228.405871 
L 117.670688 226.173728 
L 125.147163 224.122483 
L 132.623638 222.194292 
L 140.100113 220.349854 
L 147.576588 218.564851 
L 155.053063 216.826302 
L 162.529538 215.129145 
L 170.006013 213.473275 
L 177.482488 211.861149 
L 184.958963 210.296659 
L 192.435438 208.78215 
L 199.911913 207.319236 
L 207.388388 205.908333 
L 214.864863 204.548554 
L 222.341338 203.23794 
L 229.817813 201.973639 
L 237.294288 200.75208 
L 244.770763 199.569668 
L 252.247237 198.422375 
L 259.723712 197.306897 
L 267.200187 196.219685 
L 274.676662 195.157817 
L 282.153137 194.118973 
L 289.629612 193.101542 
L 297.106087 192.104688 
L 304.582562 191.128312 
L 312.059037 190.173561 
L 319.535512 189.240844 
L 327.011987 188.330839 
L 334.488462 187.443816 
L 341.964937 186.57899 
L 349.441412 185.734042 
L 356.917887 184.904783 
L 364.394362 184.085058 
L 371.870837 183.266998 
L 379.347312 182.44168 
L 386.823787 181.600227 
L 394.300262 180.735343 
L 401.776737 179.843192 
L 409.253212 178.925494 
L 416.729686 177.991669 
L 424.206161 177.060794 
L 431.682636 176.163157 
L 431.682636 175.486628 
L 431.682636 175.486628 
L 424.206161 176.378581 
L 416.729686 177.306878 
L 409.253212 178.240861 
L 401.776737 179.161184 
L 394.300262 180.058225 
L 386.823787 180.930084 
L 379.347312 181.780411 
L 371.870837 182.616284 
L 364.394362 183.446319 
L 356.917887 184.279144 
L 349.441412 185.122301 
L 341.964937 185.981612 
L 334.488462 186.86171 
L 327.011987 187.763985 
L 319.535512 188.688848 
L 312.059037 189.635861 
L 304.582562 190.604127 
L 297.106087 191.592762 
L 289.629612 192.601268 
L 282.153137 193.629777 
L 274.676662 194.67916 
L 267.200187 195.75104 
L 259.723712 196.847716 
L 252.247237 197.972048 
L 244.770763 199.12662 
L 237.294288 200.316075 
L 229.817813 201.544159 
L 222.341338 202.814556 
L 214.864863 204.129982 
L 207.388388 205.493193 
L 199.911913 206.906707 
L 192.435438 208.371651 
L 184.958963 209.887925 
L 177.482488 211.454164 
L 170.006013 213.06796 
L 162.529538 214.726494 
L 155.053063 216.427673 
L 147.576588 218.172241 
L 140.100113 219.964919 
L 132.623638 221.818712 
L 125.147163 223.757955 
L 117.670688 225.821977 
L 110.194213 228.068753 
L 102.717738 230.57815 
L 95.241263 233.454381 
L 87.764788 236.827068 
L 80.288314 240.850689 
L 72.811839 245.702304 
L 65.335364 251.576799 
z
" clip-path="url(#pd093df0499)" style="fill: #8c564b; fill-opacity: 0.45"/>
   </g>
   <g id="PathCollection_3">
    <g clip-path="url(#pd093df0499)">
     <use xlink:href="#md9042aaca0" x="65.335364" y="223.189335" style="fill-opacity: 0.7; stroke: #000000; stroke-opacity: 0.7"/>
     <use xlink:href="#md9042aaca0" x="98.639661" y="194.594506" style="fill-opacity: 0.7; stroke: #000000; stroke-opacity: 0.7"/>
     <use xlink:href="#md9042aaca0" x="135.644436" y="177.614813" style="fill-opacity: 0.7; stroke: #000000; stroke-opacity: 0.7"/>
     <use xlink:href="#md9042aaca0" x="172.649211" y="163.276448" style="fill-opacity: 0.7; stroke: #000000; stroke-opacity: 0.7"/>
     <use xlink:href="#md9042aaca0" x="209.653986" y="151.474431" style="fill-opacity: 0.7; stroke: #000000; stroke-opacity: 0.7"/>
     <use xlink:href="#md9042aaca0" x="246.658761" y="143.932464" style="fill-opacity: 0.7; stroke: #000000; stroke-opacity: 0.7"/>
     <use xlink:href="#md9042aaca0" x="283.663536" y="135.292803" style="fill-opacity: 0.7; stroke: #000000; stroke-opacity: 0.7"/>
     <use xlink:href="#md9042aaca0" x="320.668311" y="127.204813" style="fill-opacity: 0.7; stroke: #000000; stroke-opacity: 0.7"/>
     <use xlink:href="#md9042aaca0" x="357.673086" y="118.470509" style="fill-opacity: 0.7; stroke: #000000; stroke-opacity: 0.7"/>
     <use xlink:href="#md9042aaca0" x="394.677861" y="111.965793" style="fill-opacity: 0.7; stroke: #000000; stroke-opacity: 0.7"/>
     <use xlink:href="#md9042aaca0" x="431.682636" y="104.892749" style="fill-opacity: 0.7; stroke: #000000; stroke-opacity: 0.7"/>
    </g>
   </g>
   <g id="FillBetweenPolyCollection_7">
    <path d="M 65.335364 224.165605 
L 65.335364 279.066149 
L 72.811839 273.866178 
L 80.288314 269.369393 
L 87.764788 266.603557 
L 95.241263 263.879915 
L 102.717738 259.915634 
L 110.194213 257.28103 
L 117.670688 256.677089 
L 125.147163 253.980429 
L 132.623638 252.33496 
L 140.100113 251.864811 
L 147.576588 250.169588 
L 155.053063 248.114128 
L 162.529538 246.226097 
L 170.006013 244.553056 
L 177.482488 243.986021 
L 184.958963 241.334841 
L 192.435438 240.311353 
L 199.911913 238.589686 
L 207.388388 239.164681 
L 214.864863 237.018856 
L 222.341338 235.651539 
L 229.817813 234.222253 
L 237.294288 233.297981 
L 244.770763 231.848362 
L 252.247237 231.108345 
L 259.723712 230.425581 
L 267.200187 229.641978 
L 274.676662 228.562649 
L 282.153137 227.679273 
L 289.629612 226.517605 
L 297.106087 225.815514 
L 304.582562 224.942565 
L 312.059037 223.524176 
L 319.535512 222.993307 
L 327.011987 221.573682 
L 334.488462 221.847783 
L 341.964937 220.525594 
L 349.441412 221.078977 
L 356.917887 219.576429 
L 364.394362 218.515862 
L 371.870837 218.520382 
L 379.347312 217.429449 
L 386.823787 217.12094 
L 394.300262 216.078347 
L 401.776737 215.220734 
L 409.253212 215.720743 
L 416.729686 214.559729 
L 424.206161 214.704787 
L 431.682636 214.013283 
L 431.682636 158.8783 
L 431.682636 158.8783 
L 424.206161 160.275808 
L 416.729686 160.718541 
L 409.253212 161.362213 
L 401.776737 162.569929 
L 394.300262 163.204805 
L 386.823787 164.053104 
L 379.347312 164.590114 
L 371.870837 165.440437 
L 364.394362 166.317975 
L 356.917887 166.22752 
L 349.441412 166.5188 
L 341.964937 168.100532 
L 334.488462 169.046278 
L 327.011987 169.376829 
L 319.535512 170.824774 
L 312.059037 170.139988 
L 304.582562 172.311455 
L 297.106087 172.556037 
L 289.629612 172.655851 
L 282.153137 175.312055 
L 274.676662 175.453564 
L 267.200187 176.772344 
L 259.723712 177.306509 
L 252.247237 178.297446 
L 244.770763 178.318367 
L 237.294288 179.535694 
L 229.817813 181.388502 
L 222.341338 182.043079 
L 214.864863 182.876785 
L 207.388388 184.538088 
L 199.911913 186.646539 
L 192.435438 186.610909 
L 184.958963 189.104101 
L 177.482488 190.335955 
L 170.006013 192.053934 
L 162.529538 193.278774 
L 155.053063 194.482341 
L 147.576588 195.743436 
L 140.100113 198.307628 
L 132.623638 200.061158 
L 125.147163 200.733295 
L 117.670688 201.831756 
L 110.194213 204.909974 
L 102.717738 207.610752 
L 95.241263 210.485849 
L 87.764788 212.85218 
L 80.288314 215.865797 
L 72.811839 219.310734 
L 65.335364 224.165605 
z
" clip-path="url(#pd093df0499)" style="fill: #e377c2; fill-opacity: 0.27"/>
   </g>
   <g id="FillBetweenPolyCollection_8">
    <path d="M 65.335364 252.024576 
L 65.335364 252.170744 
L 72.811839 247.075916 
L 80.288314 242.860906 
L 87.764788 239.355128 
L 95.241263 236.400141 
L 102.717738 233.861929 
L 110.194213 231.629954 
L 117.670688 229.614599 
L 125.147163 227.749578 
L 132.623638 225.987754 
L 140.100113 224.298386 
L 147.576588 222.664794 
L 155.053063 221.078322 
L 162.529538 219.537072 
L 170.006013 218.042676 
L 177.482488 216.597883 
L 184.958963 215.205617 
L 192.435438 213.86742 
L 199.911913 212.583337 
L 207.388388 211.351463 
L 214.864863 210.168941 
L 222.341338 209.031749 
L 229.817813 207.935112 
L 237.294288 206.874654 
L 244.770763 205.845849 
L 252.247237 204.844783 
L 259.723712 203.867941 
L 267.200187 202.912975 
L 274.676662 201.97812 
L 282.153137 201.063583 
L 289.629612 200.166966 
L 297.106087 199.287411 
L 304.582562 198.429464 
L 312.059037 197.592749 
L 319.535512 196.781429 
L 327.011987 195.992931 
L 334.488462 195.228313 
L 341.964937 194.48858 
L 349.441412 193.772652 
L 356.917887 193.080551 
L 364.394362 192.406314 
L 371.870837 191.743539 
L 379.347312 191.088479 
L 386.823787 190.43292 
L 394.300262 189.772313 
L 401.776737 189.103868 
L 409.253212 188.432945 
L 416.729686 187.761412 
L 424.206161 187.107717 
L 431.682636 186.491631 
L 431.682636 186.198258 
L 431.682636 186.198258 
L 424.206161 186.816955 
L 416.729686 187.474178 
L 409.253212 188.147597 
L 401.776737 188.823037 
L 394.300262 189.493322 
L 386.823787 190.158921 
L 379.347312 190.816993 
L 371.870837 191.475887 
L 364.394362 192.141129 
L 356.917887 192.817361 
L 349.441412 193.509346 
L 341.964937 194.222249 
L 334.488462 194.960379 
L 327.011987 195.727331 
L 319.535512 196.516987 
L 312.059037 197.32905 
L 304.582562 198.170511 
L 297.106087 199.029623 
L 289.629612 199.904807 
L 282.153137 200.7996 
L 274.676662 201.715664 
L 267.200187 202.651983 
L 259.723712 203.6082 
L 252.247237 204.584446 
L 244.770763 205.585702 
L 237.294288 206.615308 
L 229.817813 207.677295 
L 222.341338 208.776523 
L 214.864863 209.917545 
L 207.388388 211.104321 
L 199.911913 212.340874 
L 192.435438 213.630493 
L 184.958963 214.9754 
L 177.482488 216.374935 
L 170.006013 217.827339 
L 162.529538 219.329666 
L 155.053063 220.877948 
L 147.576588 222.470402 
L 140.100113 224.109787 
L 132.623638 225.804228 
L 125.147163 227.571402 
L 117.670688 229.442033 
L 110.194213 231.463354 
L 102.717738 233.702172 
L 95.241263 236.246531 
L 87.764788 239.205051 
L 80.288314 242.720131 
L 72.811839 246.934837 
L 65.335364 252.024576 
z
" clip-path="url(#pd093df0499)" style="fill: #7f7f7f; fill-opacity: 0.45"/>
   </g>
   <g id="PathCollection_4">
    <g clip-path="url(#pd093df0499)">
     <use xlink:href="#md9042aaca0" x="65.335364" y="233.966387" style="fill-opacity: 0.7; stroke: #000000; stroke-opacity: 0.7"/>
     <use xlink:href="#md9042aaca0" x="98.639661" y="209.88839" style="fill-opacity: 0.7; stroke: #000000; stroke-opacity: 0.7"/>
     <use xlink:href="#md9042aaca0" x="135.644436" y="195.202265" style="fill-opacity: 0.7; stroke: #000000; stroke-opacity: 0.7"/>
     <use xlink:href="#md9042aaca0" x="172.649211" y="184.499422" style="fill-opacity: 0.7; stroke: #000000; stroke-opacity: 0.7"/>
     <use xlink:href="#md9042aaca0" x="209.653986" y="174.771785" style="fill-opacity: 0.7; stroke: #000000; stroke-opacity: 0.7"/>
     <use xlink:href="#md9042aaca0" x="246.658761" y="167.941462" style="fill-opacity: 0.7; stroke: #000000; stroke-opacity: 0.7"/>
     <use xlink:href="#md9042aaca0" x="283.663536" y="160.356791" style="fill-opacity: 0.7; stroke: #000000; stroke-opacity: 0.7"/>
     <use xlink:href="#md9042aaca0" x="320.668311" y="153.400343" style="fill-opacity: 0.7; stroke: #000000; stroke-opacity: 0.7"/>
     <use xlink:href="#md9042aaca0" x="357.673086" y="146.403142" style="fill-opacity: 0.7; stroke: #000000; stroke-opacity: 0.7"/>
     <use xlink:href="#md9042aaca0" x="394.677861" y="142.166709" style="fill-opacity: 0.7; stroke: #000000; stroke-opacity: 0.7"/>
     <use xlink:href="#md9042aaca0" x="431.682636" y="136.954159" style="fill-opacity: 0.7; stroke: #000000; stroke-opacity: 0.7"/>
    </g>
   </g>
   <g id="FillBetweenPolyCollection_9">
    <path d="M 65.335364 225.243778 
L 65.335364 280.21098 
L 72.811839 276.668352 
L 80.288314 271.846168 
L 87.764788 267.628894 
L 95.241263 265.637502 
L 102.717738 263.387475 
L 110.194213 261.989477 
L 117.670688 259.438173 
L 125.147163 258.355656 
L 132.623638 256.325247 
L 140.100113 254.979679 
L 147.576588 253.335393 
L 155.053063 251.081207 
L 162.529538 250.431066 
L 170.006013 249.192485 
L 177.482488 248.601331 
L 184.958963 245.852542 
L 192.435438 245.222851 
L 199.911913 244.655666 
L 207.388388 243.107089 
L 214.864863 242.028866 
L 222.341338 241.48749 
L 229.817813 240.646597 
L 237.294288 239.250062 
L 244.770763 238.901793 
L 252.247237 236.91149 
L 259.723712 237.569128 
L 267.200187 235.700381 
L 274.676662 235.625002 
L 282.153137 234.357835 
L 289.629612 233.228645 
L 297.106087 231.978243 
L 304.582562 231.460559 
L 312.059037 230.314038 
L 319.535512 230.530146 
L 327.011987 229.213601 
L 334.488462 228.303735 
L 341.964937 228.123015 
L 349.441412 227.61653 
L 356.917887 226.793621 
L 364.394362 226.372287 
L 371.870837 225.273001 
L 379.347312 225.935103 
L 386.823787 224.589706 
L 394.300262 224.332553 
L 401.776737 223.560406 
L 409.253212 223.688363 
L 416.729686 222.830314 
L 424.206161 222.170434 
L 431.682636 222.774884 
L 431.682636 167.585778 
L 431.682636 167.585778 
L 424.206161 167.64323 
L 416.729686 168.554376 
L 409.253212 170.034037 
L 401.776737 169.509674 
L 394.300262 170.472971 
L 386.823787 171.004996 
L 379.347312 171.440923 
L 371.870837 172.569023 
L 364.394362 173.940497 
L 356.917887 174.265353 
L 349.441412 175.109294 
L 341.964937 176.122062 
L 334.488462 175.957593 
L 327.011987 176.472757 
L 319.535512 177.255986 
L 312.059037 177.661926 
L 304.582562 178.681722 
L 297.106087 179.160437 
L 289.629612 180.182239 
L 282.153137 180.580501 
L 274.676662 181.107127 
L 267.200187 182.688079 
L 259.723712 183.229487 
L 252.247237 183.478485 
L 244.770763 185.840059 
L 237.294288 186.070068 
L 229.817813 187.106309 
L 222.341338 188.684735 
L 214.864863 190.739527 
L 207.388388 189.618482 
L 199.911913 190.983738 
L 192.435438 192.585859 
L 184.958963 193.575957 
L 177.482488 195.295228 
L 170.006013 195.336413 
L 162.529538 197.104441 
L 155.053063 198.42901 
L 147.576588 199.521328 
L 140.100113 201.857067 
L 132.623638 203.425097 
L 125.147163 204.798456 
L 117.670688 206.743899 
L 110.194213 207.26475 
L 102.717738 210.959154 
L 95.241263 211.636094 
L 87.764788 214.835803 
L 80.288314 217.669881 
L 72.811839 220.893211 
L 65.335364 225.243778 
z
" clip-path="url(#pd093df0499)" style="fill: #bcbd22; fill-opacity: 0.27"/>
   </g>
   <g id="FillBetweenPolyCollection_10">
    <path d="M 65.335364 252.835632 
L 65.335364 253.100602 
L 72.811839 248.627643 
L 80.288314 244.916538 
L 87.764788 241.815933 
L 95.241263 239.191553 
L 102.717738 236.925774 
L 110.194213 234.922817 
L 117.670688 233.107152 
L 125.147163 231.422637 
L 132.623638 229.830289 
L 140.100113 228.305377 
L 147.576588 226.83421 
L 155.053063 225.41095 
L 162.529538 224.034685 
L 170.006013 222.706994 
L 177.482488 221.430055 
L 184.958963 220.205378 
L 192.435438 219.033092 
L 199.911913 217.91171 
L 207.388388 216.838258 
L 214.864863 215.808629 
L 222.341338 214.818058 
L 229.817813 213.861598 
L 237.294288 212.934535 
L 244.770763 212.032698 
L 252.247237 211.152644 
L 259.723712 210.291746 
L 267.200187 209.448174 
L 274.676662 208.620786 
L 282.153137 207.808204 
L 289.629612 207.012043 
L 297.106087 206.234466 
L 304.582562 205.472568 
L 312.059037 204.72902 
L 319.535512 204.004931 
L 327.011987 203.301266 
L 334.488462 202.618637 
L 341.964937 201.957078 
L 349.441412 201.315309 
L 356.917887 200.691951 
L 364.394362 200.086978 
L 371.870837 199.493432 
L 379.347312 198.909019 
L 386.823787 198.330287 
L 394.300262 197.754866 
L 401.776737 197.182523 
L 409.253212 196.616339 
L 416.729686 196.063897 
L 424.206161 195.537186 
L 431.682636 195.056245 
L 431.682636 194.685233 
L 431.682636 194.685233 
L 424.206161 195.158203 
L 416.729686 195.677695 
L 409.253212 196.225122 
L 401.776737 196.785944 
L 394.300262 197.35295 
L 386.823787 197.922976 
L 379.347312 198.496223 
L 371.870837 199.075071 
L 364.394362 199.663025 
L 356.917887 200.263866 
L 349.441412 200.880951 
L 341.964937 201.517095 
L 334.488462 202.174026 
L 327.011987 202.852976 
L 319.535512 203.554363 
L 312.059037 204.276737 
L 304.582562 205.01913 
L 297.106087 205.780405 
L 289.629612 206.559453 
L 282.153137 207.355351 
L 274.676662 208.167271 
L 267.200187 208.994391 
L 259.723712 209.838877 
L 252.247237 210.701255 
L 244.770763 211.582426 
L 237.294288 212.485932 
L 229.817813 213.41558 
L 222.341338 214.375727 
L 214.864863 215.370797 
L 207.388388 216.405817 
L 199.911913 217.485597 
L 192.435438 218.614242 
L 184.958963 219.794673 
L 177.482488 221.028283 
L 170.006013 222.314808 
L 162.529538 223.652575 
L 155.053063 225.039247 
L 147.576588 226.473096 
L 140.100113 227.95491 
L 132.623638 229.490445 
L 125.147163 231.093352 
L 117.670688 232.788361 
L 110.194213 234.614469 
L 102.717738 236.627834 
L 95.241263 238.902574 
L 87.764788 241.53473 
L 80.288314 244.642362 
L 72.811839 248.358323 
L 65.335364 252.835632 
z
" clip-path="url(#pd093df0499)" style="fill: #17becf; fill-opacity: 0.45"/>
   </g>
   <g id="PathCollection_5">
    <g clip-path="url(#pd093df0499)">
     <use xlink:href="#md9042aaca0" x="65.335364" y="243.360849" style="fill-opacity: 0.7; stroke: #000000; stroke-opacity: 0.7"/>
     <use xlink:href="#md9042aaca0" x="98.639661" y="222.297607" style="fill-opacity: 0.7; stroke: #000000; stroke-opacity: 0.7"/>
     <use xlink:href="#md9042aaca0" x="135.644436" y="211.15759" style="fill-opacity: 0.7; stroke: #000000; stroke-opacity: 0.7"/>
     <use xlink:href="#md9042aaca0" x="172.649211" y="201.386261" style="fill-opacity: 0.7; stroke: #000000; stroke-opacity: 0.7"/>
     <use xlink:href="#md9042aaca0" x="209.653986" y="195.833582" style="fill-opacity: 0.7; stroke: #000000; stroke-opacity: 0.7"/>
     <use xlink:href="#md9042aaca0" x="246.658761" y="187.637391" style="fill-opacity: 0.7; stroke: #000000; stroke-opacity: 0.7"/>
     <use xlink:href="#md9042aaca0" x="283.663536" y="181.873541" style="fill-opacity: 0.7; stroke: #000000; stroke-opacity: 0.7"/>
     <use xlink:href="#md9042aaca0" x="320.668311" y="177.956707" style="fill-opacity: 0.7; stroke: #000000; stroke-opacity: 0.7"/>
     <use xlink:href="#md9042aaca0" x="357.673086" y="172.104184" style="fill-opacity: 0.7; stroke: #000000; stroke-opacity: 0.7"/>
     <use xlink:href="#md9042aaca0" x="394.677861" y="166.856898" style="fill-opacity: 0.7; stroke: #000000; stroke-opacity: 0.7"/>
     <use xlink:href="#md9042aaca0" x="431.682636" y="163.130603" style="fill-opacity: 0.7; stroke: #000000; stroke-opacity: 0.7"/>
    </g>
   </g>
   <g id="FillBetweenPolyCollection_11">
    <path d="M 65.335364 226.482782 
L 65.335364 280.978687 
L 72.811839 279.031498 
L 80.288314 274.036813 
L 87.764788 271.675025 
L 95.241263 269.910118 
L 102.717738 267.021369 
L 110.194213 265.654607 
L 117.670688 264.508959 
L 125.147163 262.512684 
L 132.623638 261.145318 
L 140.100113 260.524742 
L 147.576588 259.662718 
L 155.053063 258.034056 
L 162.529538 256.242251 
L 170.006013 255.054194 
L 177.482488 253.389571 
L 184.958963 254.031451 
L 192.435438 252.534165 
L 199.911913 251.545894 
L 207.388388 251.219532 
L 214.864863 249.10705 
L 222.341338 248.323332 
L 229.817813 247.834113 
L 237.294288 246.869059 
L 244.770763 245.01938 
L 252.247237 245.500304 
L 259.723712 245.789421 
L 267.200187 244.032623 
L 274.676662 243.114584 
L 282.153137 242.45453 
L 289.629612 242.148702 
L 297.106087 240.722954 
L 304.582562 240.061447 
L 312.059037 239.778354 
L 319.535512 239.236459 
L 327.011987 238.497636 
L 334.488462 237.831633 
L 341.964937 237.597696 
L 349.441412 236.827382 
L 356.917887 236.163026 
L 364.394362 236.921618 
L 371.870837 234.911565 
L 379.347312 234.927933 
L 386.823787 234.123668 
L 394.300262 234.007983 
L 401.776737 232.514524 
L 409.253212 233.523031 
L 416.729686 232.133048 
L 424.206161 231.864959 
L 431.682636 233.034513 
L 431.682636 176.820602 
L 431.682636 176.820602 
L 424.206161 178.449963 
L 416.729686 178.520338 
L 409.253212 179.054061 
L 401.776737 178.669908 
L 394.300262 179.908569 
L 386.823787 180.366256 
L 379.347312 181.110569 
L 371.870837 181.551447 
L 364.394362 182.35694 
L 356.917887 182.480874 
L 349.441412 183.232731 
L 341.964937 183.883511 
L 334.488462 184.727227 
L 327.011987 184.418096 
L 319.535512 186.731918 
L 312.059037 186.44972 
L 304.582562 186.994551 
L 297.106087 188.394704 
L 289.629612 188.656302 
L 282.153137 188.256959 
L 274.676662 190.330975 
L 267.200187 190.285024 
L 259.723712 191.030929 
L 252.247237 191.84525 
L 244.770763 192.569806 
L 237.294288 194.08786 
L 229.817813 194.23322 
L 222.341338 194.716416 
L 214.864863 197.133996 
L 207.388388 197.557513 
L 199.911913 198.290815 
L 192.435438 197.962282 
L 184.958963 199.907183 
L 177.482488 200.678222 
L 170.006013 201.903097 
L 162.529538 202.533127 
L 155.053063 203.888077 
L 147.576588 204.834365 
L 140.100113 206.191694 
L 132.623638 207.954199 
L 125.147163 209.228553 
L 117.670688 211.165615 
L 110.194213 213.368456 
L 102.717738 213.387935 
L 95.241263 215.659467 
L 87.764788 217.776437 
L 80.288314 220.615116 
L 72.811839 224.623488 
L 65.335364 226.482782 
z
" clip-path="url(#pd093df0499)" style="fill: #1f77b4; fill-opacity: 0.27"/>
   </g>
   <g id="FillBetweenPolyCollection_12">
    <path d="M 65.335364 254.481157 
L 65.335364 254.828912 
L 72.811839 251.015531 
L 80.288314 247.844481 
L 87.764788 245.189873 
L 95.241263 242.934549 
L 102.717738 240.980971 
L 110.194213 239.249232 
L 117.670688 237.677013 
L 125.147163 236.218381 
L 132.623638 234.84173 
L 140.100113 233.527204 
L 147.576588 232.263873 
L 155.053063 231.047005 
L 162.529538 229.875594 
L 170.006013 228.750335 
L 177.482488 227.672114 
L 184.958963 226.641058 
L 192.435438 225.656024 
L 199.911913 224.714541 
L 207.388388 223.813007 
L 214.864863 222.947083 
L 222.341338 222.112141 
L 229.817813 221.303687 
L 237.294288 220.517699 
L 244.770763 219.750846 
L 252.247237 219.000584 
L 259.723712 218.265143 
L 267.200187 217.543436 
L 274.676662 216.834937 
L 282.153137 216.139525 
L 289.629612 215.457362 
L 297.106087 214.788773 
L 304.582562 214.134164 
L 312.059037 213.493932 
L 319.535512 212.86769 
L 327.011987 212.25711 
L 334.488462 211.661285 
L 341.964937 211.079733 
L 349.441412 210.511524 
L 356.917887 209.955242 
L 364.394362 209.409044 
L 371.870837 208.870839 
L 379.347312 208.338646 
L 386.823787 207.810823 
L 394.300262 207.285428 
L 401.776737 206.770152 
L 409.253212 206.267044 
L 416.729686 205.785051 
L 424.206161 205.337506 
L 431.682636 204.944802 
L 431.682636 204.415966 
L 431.682636 204.415966 
L 424.206161 204.803774 
L 416.729686 205.245463 
L 409.253212 205.72343 
L 401.776737 206.223321 
L 394.300262 206.735619 
L 386.823787 207.255497 
L 379.347312 207.780085 
L 371.870837 208.309289 
L 364.394362 208.844955 
L 356.917887 209.388804 
L 349.441412 209.942763 
L 341.964937 210.507235 
L 334.488462 211.084529 
L 327.011987 211.677771 
L 319.535512 212.286731 
L 312.059037 212.911892 
L 304.582562 213.55223 
L 297.106087 214.207415 
L 289.629612 214.877011 
L 282.153137 215.560568 
L 274.676662 216.257706 
L 267.200187 216.96822 
L 259.723712 217.691812 
L 252.247237 218.429237 
L 244.770763 219.181833 
L 237.294288 219.951429 
L 229.817813 220.740654 
L 222.341338 221.55294 
L 214.864863 222.392415 
L 207.388388 223.263673 
L 199.911913 224.17142 
L 192.435438 225.120035 
L 184.958963 226.113128 
L 177.482488 227.153146 
L 170.006013 228.241158 
L 162.529538 229.376961 
L 155.053063 230.559557 
L 147.576588 231.788153 
L 140.100113 233.063663 
L 132.623638 234.390743 
L 125.147163 235.780259 
L 117.670688 237.252017 
L 110.194213 238.837561 
L 102.717738 240.582725 
L 95.241263 242.549674 
L 87.764788 244.818063 
L 80.288314 247.485045 
L 72.811839 250.663913 
L 65.335364 254.481157 
z
" clip-path="url(#pd093df0499)" style="fill: #ff7f0e; fill-opacity: 0.45"/>
   </g>
   <g id="PathCollection_6">
    <g clip-path="url(#pd093df0499)">
     <use xlink:href="#md9042aaca0" x="65.335364" y="249.48932" style="fill-opacity: 0.7; stroke: #000000; stroke-opacity: 0.7"/>
     <use xlink:href="#md9042aaca0" x="98.639661" y="232.58528" style="fill-opacity: 0.7; stroke: #000000; stroke-opacity: 0.7"/>
     <use xlink:href="#md9042aaca0" x="135.644436" y="224.496851" style="fill-opacity: 0.7; stroke: #000000; stroke-opacity: 0.7"/>
     <use xlink:href="#md9042aaca0" x="172.649211" y="217.834968" style="fill-opacity: 0.7; stroke: #000000; stroke-opacity: 0.7"/>
     <use xlink:href="#md9042aaca0" x="209.653986" y="212.29602" style="fill-opacity: 0.7; stroke: #000000; stroke-opacity: 0.7"/>
     <use xlink:href="#md9042aaca0" x="246.658761" y="206.384301" style="fill-opacity: 0.7; stroke: #000000; stroke-opacity: 0.7"/>
     <use xlink:href="#md9042aaca0" x="283.663536" y="202.286951" style="fill-opacity: 0.7; stroke: #000000; stroke-opacity: 0.7"/>
     <use xlink:href="#md9042aaca0" x="320.668311" y="198.075835" style="fill-opacity: 0.7; stroke: #000000; stroke-opacity: 0.7"/>
     <use xlink:href="#md9042aaca0" x="357.673086" y="194.13407" style="fill-opacity: 0.7; stroke: #000000; stroke-opacity: 0.7"/>
     <use xlink:href="#md9042aaca0" x="394.677861" y="190.044569" style="fill-opacity: 0.7; stroke: #000000; stroke-opacity: 0.7"/>
     <use xlink:href="#md9042aaca0" x="431.682636" y="187.582752" style="fill-opacity: 0.7; stroke: #000000; stroke-opacity: 0.7"/>
    </g>
   </g>
   <g id="FillBetweenPolyCollection_13">
    <path d="M 65.335364 228.649059 
L 65.335364 285.205596 
L 72.811839 282.122327 
L 80.288314 278.787762 
L 87.764788 276.649968 
L 95.241263 274.794639 
L 102.717738 273.156325 
L 110.194213 270.586985 
L 117.670688 270.19809 
L 125.147163 269.133674 
L 132.623638 267.592789 
L 140.100113 267.133309 
L 147.576588 265.506272 
L 155.053063 264.284242 
L 162.529538 263.257066 
L 170.006013 263.098452 
L 177.482488 261.937142 
L 184.958963 260.412416 
L 192.435438 259.864592 
L 199.911913 258.891594 
L 207.388388 259.105359 
L 214.864863 258.049776 
L 222.341338 257.256228 
L 229.817813 256.886254 
L 237.294288 255.611917 
L 244.770763 255.888321 
L 252.247237 255.351794 
L 259.723712 253.274587 
L 267.200187 253.778829 
L 274.676662 253.065025 
L 282.153137 252.866325 
L 289.629612 251.878902 
L 297.106087 250.26 
L 304.582562 250.826687 
L 312.059037 249.149339 
L 319.535512 249.360765 
L 327.011987 250.427836 
L 334.488462 249.853246 
L 341.964937 247.478319 
L 349.441412 247.324744 
L 356.917887 246.765925 
L 364.394362 247.073118 
L 371.870837 246.372044 
L 379.347312 245.098276 
L 386.823787 245.905 
L 394.300262 245.521412 
L 401.776737 243.321753 
L 409.253212 244.006011 
L 416.729686 244.070421 
L 424.206161 244.094609 
L 431.682636 244.25056 
L 431.682636 187.047973 
L 431.682636 187.047973 
L 424.206161 188.684063 
L 416.729686 188.80502 
L 409.253212 189.180004 
L 401.776737 189.710925 
L 394.300262 191.069334 
L 386.823787 191.540331 
L 379.347312 191.697239 
L 371.870837 191.872558 
L 364.394362 193.041476 
L 356.917887 193.750808 
L 349.441412 194.183754 
L 341.964937 194.10506 
L 334.488462 194.868535 
L 327.011987 197.022599 
L 319.535512 195.777355 
L 312.059037 196.174926 
L 304.582562 196.94755 
L 297.106087 196.846283 
L 289.629612 197.4702 
L 282.153137 197.72736 
L 274.676662 199.517069 
L 267.200187 199.525013 
L 259.723712 199.735697 
L 252.247237 200.272143 
L 244.770763 201.37149 
L 237.294288 202.583493 
L 229.817813 202.82388 
L 222.341338 204.337207 
L 214.864863 204.657949 
L 207.388388 204.691476 
L 199.911913 206.105089 
L 192.435438 206.423883 
L 184.958963 206.66493 
L 177.482488 207.787836 
L 170.006013 208.760399 
L 162.529538 209.719285 
L 155.053063 209.592283 
L 147.576588 211.813772 
L 140.100113 213.330815 
L 132.623638 213.229535 
L 125.147163 214.641663 
L 117.670688 215.340872 
L 110.194213 215.596331 
L 102.717738 219.297978 
L 95.241263 219.38172 
L 87.764788 221.388639 
L 80.288314 223.511101 
L 72.811839 225.113257 
L 65.335364 228.649059 
z
" clip-path="url(#pd093df0499)" style="fill: #2ca02c; fill-opacity: 0.27"/>
   </g>
   <g id="FillBetweenPolyCollection_14">
    <path d="M 65.335364 256.879574 
L 65.335364 257.252098 
L 72.811839 254.143928 
L 80.288314 251.554807 
L 87.764788 249.381409 
L 95.241263 247.531455 
L 102.717738 245.927115 
L 110.194213 244.505363 
L 117.670688 243.216352 
L 125.147163 242.023346 
L 132.623638 240.900983 
L 140.100113 239.833127 
L 147.576588 238.810576 
L 155.053063 237.828868 
L 162.529538 236.886339 
L 170.006013 235.982565 
L 177.482488 235.117231 
L 184.958963 234.289445 
L 192.435438 233.497427 
L 199.911913 232.738526 
L 207.388388 232.009427 
L 214.864863 231.306487 
L 222.341338 230.62609 
L 229.817813 229.964949 
L 237.294288 229.32033 
L 244.770763 228.69016 
L 252.247237 228.07302 
L 259.723712 227.468073 
L 267.200187 226.874922 
L 274.676662 226.293448 
L 282.153137 225.723664 
L 289.629612 225.165583 
L 297.106087 224.619132 
L 304.582562 224.08409 
L 312.059037 223.560055 
L 319.535512 223.046842 
L 327.011987 222.54395 
L 334.488462 222.049605 
L 341.964937 221.562446 
L 349.441412 221.080854 
L 356.917887 220.603016 
L 364.394362 220.127065 
L 371.870837 219.651318 
L 379.347312 219.174665 
L 386.823787 218.697077 
L 394.300262 218.220253 
L 401.776737 217.748357 
L 409.253212 217.288783 
L 416.729686 216.852876 
L 424.206161 216.456538 
L 431.682636 216.120587 
L 431.682636 215.506262 
L 431.682636 215.506262 
L 424.206161 215.838189 
L 416.729686 216.232358 
L 409.253212 216.66753 
L 401.776737 217.127368 
L 394.300262 217.600113 
L 386.823787 218.078019 
L 379.347312 218.556644 
L 371.870837 219.034102 
L 364.394362 219.510315 
L 356.917887 219.986378 
L 349.441412 220.464016 
L 341.964937 220.945202 
L 334.488462 221.43188 
L 327.011987 221.925809 
L 319.535512 222.428488 
L 312.059037 222.941127 
L 304.582562 223.464651 
L 297.106087 223.999718 
L 289.629612 224.546739 
L 282.153137 225.105906 
L 274.676662 225.677241 
L 267.200187 226.260668 
L 259.723712 226.856115 
L 252.247237 227.463657 
L 244.770763 228.083669 
L 237.294288 228.716998 
L 229.817813 229.365096 
L 222.341338 230.030097 
L 214.864863 230.714803 
L 207.388388 231.422582 
L 199.911913 232.15712 
L 192.435438 232.92212 
L 184.958963 233.72094 
L 177.482488 234.556255 
L 170.006013 235.429846 
L 162.529538 236.342594 
L 155.053063 237.294797 
L 147.576588 238.286863 
L 140.100113 239.320439 
L 132.623638 240.399971 
L 125.147163 241.534647 
L 117.670688 242.740574 
L 110.194213 244.043053 
L 102.717738 245.478696 
L 95.241263 247.097145 
L 87.764788 248.962133 
L 80.288314 251.151599 
L 72.811839 253.756708 
L 65.335364 256.879574 
z
" clip-path="url(#pd093df0499)" style="fill: #d62728; fill-opacity: 0.45"/>
   </g>
   <g id="PathCollection_7">
    <g clip-path="url(#pd093df0499)">
     <use xlink:href="#md9042aaca0" x="65.335364" y="256.796039" style="fill-opacity: 0.7; stroke: #000000; stroke-opacity: 0.7"/>
     <use xlink:href="#md9042aaca0" x="98.639661" y="245.082324" style="fill-opacity: 0.7; stroke: #000000; stroke-opacity: 0.7"/>
     <use xlink:href="#md9042aaca0" x="135.644436" y="235.999762" style="fill-opacity: 0.7; stroke: #000000; stroke-opacity: 0.7"/>
     <use xlink:href="#md9042aaca0" x="172.649211" y="231.393742" style="fill-opacity: 0.7; stroke: #000000; stroke-opacity: 0.7"/>
     <use xlink:href="#md9042aaca0" x="209.653986" y="226.182429" style="fill-opacity: 0.7; stroke: #000000; stroke-opacity: 0.7"/>
     <use xlink:href="#md9042aaca0" x="246.658761" y="223.219714" style="fill-opacity: 0.7; stroke: #000000; stroke-opacity: 0.7"/>
     <use xlink:href="#md9042aaca0" x="283.663536" y="220.187761" style="fill-opacity: 0.7; stroke: #000000; stroke-opacity: 0.7"/>
     <use xlink:href="#md9042aaca0" x="320.668311" y="216.318764" style="fill-opacity: 0.7; stroke: #000000; stroke-opacity: 0.7"/>
     <use xlink:href="#md9042aaca0" x="357.673086" y="213.698606" style="fill-opacity: 0.7; stroke: #000000; stroke-opacity: 0.7"/>
     <use xlink:href="#md9042aaca0" x="394.677861" y="211.621607" style="fill-opacity: 0.7; stroke: #000000; stroke-opacity: 0.7"/>
     <use xlink:href="#md9042aaca0" x="431.682636" y="208.807253" style="fill-opacity: 0.7; stroke: #000000; stroke-opacity: 0.7"/>
    </g>
   </g>
   <g id="FillBetweenPolyCollection_15">
    <path d="M 65.335364 231.341543 
L 65.335364 288.954545 
L 72.811839 287.782144 
L 80.288314 285.615018 
L 87.764788 283.467518 
L 95.241263 281.804179 
L 102.717738 280.292358 
L 110.194213 279.638869 
L 117.670688 278.938581 
L 125.147163 278.678003 
L 132.623638 276.395401 
L 140.100113 276.498086 
L 147.576588 275.254625 
L 155.053063 275.496169 
L 162.529538 274.277871 
L 170.006013 274.050475 
L 177.482488 272.578631 
L 184.958963 272.809994 
L 192.435438 272.476872 
L 199.911913 271.477718 
L 207.388388 271.541728 
L 214.864863 271.122972 
L 222.341338 270.705188 
L 229.817813 269.501565 
L 237.294288 269.782241 
L 244.770763 268.484668 
L 252.247237 267.696387 
L 259.723712 266.057381 
L 267.200187 267.185231 
L 274.676662 265.080151 
L 282.153137 266.227402 
L 289.629612 265.74878 
L 297.106087 264.965411 
L 304.582562 265.963988 
L 312.059037 265.403203 
L 319.535512 264.079637 
L 327.011987 263.569332 
L 334.488462 264.434415 
L 341.964937 263.702275 
L 349.441412 263.406556 
L 356.917887 262.109059 
L 364.394362 262.521575 
L 371.870837 262.078315 
L 379.347312 262.67399 
L 386.823787 261.757069 
L 394.300262 261.544245 
L 401.776737 262.428831 
L 409.253212 261.051416 
L 416.729686 261.045064 
L 424.206161 260.426595 
L 431.682636 261.153693 
L 431.682636 203.210027 
L 431.682636 203.210027 
L 424.206161 203.196791 
L 416.729686 203.723788 
L 409.253212 203.872812 
L 401.776737 205.591412 
L 394.300262 207.112323 
L 386.823787 204.903046 
L 379.347312 204.839927 
L 371.870837 207.466822 
L 364.394362 206.805907 
L 356.917887 206.901023 
L 349.441412 207.296979 
L 341.964937 206.90913 
L 334.488462 208.030995 
L 327.011987 208.721027 
L 319.535512 209.254022 
L 312.059037 210.170167 
L 304.582562 210.273693 
L 297.106087 211.152688 
L 289.629612 211.028313 
L 282.153137 211.474888 
L 274.676662 211.817487 
L 267.200187 211.378056 
L 259.723712 212.028796 
L 252.247237 212.100652 
L 244.770763 213.154285 
L 237.294288 213.578927 
L 229.817813 213.608202 
L 222.341338 214.670926 
L 214.864863 214.311601 
L 207.388388 216.951262 
L 199.911913 215.097038 
L 192.435438 217.129829 
L 184.958963 216.644452 
L 177.482488 216.447818 
L 170.006013 219.128667 
L 162.529538 218.843317 
L 155.053063 219.779916 
L 147.576588 220.499781 
L 140.100113 221.050422 
L 132.623638 220.628252 
L 125.147163 222.240476 
L 117.670688 222.860498 
L 110.194213 223.562621 
L 102.717738 224.715816 
L 95.241263 225.562461 
L 87.764788 226.311938 
L 80.288314 228.947271 
L 72.811839 230.321813 
L 65.335364 231.341543 
z
" clip-path="url(#pd093df0499)" style="fill: #9467bd; fill-opacity: 0.27"/>
   </g>
   <g id="FillBetweenPolyCollection_16">
    <path d="M 65.335364 260.532961 
L 65.335364 260.914988 
L 72.811839 258.757179 
L 80.288314 256.959403 
L 87.764788 255.451527 
L 95.241263 254.170824 
L 102.717738 253.06383 
L 110.194213 252.086676 
L 117.670688 251.203832 
L 125.147163 250.389347 
L 132.623638 249.624841 
L 140.100113 248.898105 
L 147.576588 248.201627 
L 155.053063 247.531179 
L 162.529538 246.884587 
L 170.006013 246.260046 
L 177.482488 245.657552 
L 184.958963 245.076345 
L 192.435438 244.515362 
L 199.911913 243.973272 
L 207.388388 243.448571 
L 214.864863 242.939752 
L 222.341338 242.445476 
L 229.817813 241.964691 
L 237.294288 241.496707 
L 244.770763 241.041201 
L 252.247237 240.598155 
L 259.723712 240.167762 
L 267.200187 239.750303 
L 274.676662 239.346025 
L 282.153137 238.955031 
L 289.629612 238.577187 
L 297.106087 238.212059 
L 304.582562 237.859348 
L 312.059037 237.518064 
L 319.535512 237.186169 
L 327.011987 236.861669 
L 334.488462 236.54216 
L 341.964937 236.224864 
L 349.441412 235.906718 
L 356.917887 235.584548 
L 364.394362 235.255328 
L 371.870837 234.916564 
L 379.347312 234.566793 
L 386.823787 234.206196 
L 394.300262 233.837285 
L 401.776737 233.465629 
L 409.253212 233.100531 
L 416.729686 232.755599 
L 424.206161 232.449099 
L 431.682636 232.204031 
L 431.682636 231.551515 
L 431.682636 231.551515 
L 424.206161 231.795673 
L 416.729686 232.103674 
L 409.253212 232.451864 
L 401.776737 232.821351 
L 394.300262 233.19796 
L 386.823787 233.571911 
L 379.347312 233.937259 
L 371.870837 234.291234 
L 364.394362 234.633506 
L 356.917887 234.965502 
L 349.441412 235.289764 
L 341.964937 235.60944 
L 334.488462 235.927872 
L 327.011987 236.248312 
L 319.535512 236.573728 
L 312.059037 236.9067 
L 304.582562 237.249356 
L 297.106087 237.603369 
L 289.629612 237.969957 
L 282.153137 238.349906 
L 274.676662 238.743614 
L 267.200187 239.151145 
L 259.723712 239.572311 
L 252.247237 240.006778 
L 244.770763 240.454176 
L 237.294288 240.914248 
L 229.817813 241.38696 
L 222.341338 241.872611 
L 214.864863 242.371883 
L 207.388388 242.885834 
L 199.911913 243.415824 
L 192.435438 243.96339 
L 184.958963 244.530063 
L 177.482488 245.117212 
L 170.006013 245.725938 
L 162.529538 246.357081 
L 155.053063 247.011421 
L 147.576588 247.690116 
L 140.100113 248.395399 
L 132.623638 249.131572 
L 125.147163 249.90623 
L 117.670688 250.731665 
L 110.194213 251.626334 
L 102.717738 252.616246 
L 95.241263 253.73609 
L 87.764788 255.029922 
L 80.288314 256.551263 
L 72.811839 258.362421 
L 65.335364 260.532961 
z
" clip-path="url(#pd093df0499)" style="fill: #8c564b; fill-opacity: 0.45"/>
   </g>
   <g id="PathCollection_8">
    <g clip-path="url(#pd093df0499)">
     <use xlink:href="#md9042aaca0" x="65.335364" y="259.862108" style="fill-opacity: 0.7; stroke: #000000; stroke-opacity: 0.7"/>
     <use xlink:href="#md9042aaca0" x="98.639661" y="252.094981" style="fill-opacity: 0.7; stroke: #000000; stroke-opacity: 0.7"/>
     <use xlink:href="#md9042aaca0" x="135.644436" y="247.186179" style="fill-opacity: 0.7; stroke: #000000; stroke-opacity: 0.7"/>
     <use xlink:href="#md9042aaca0" x="172.649211" y="243.918812" style="fill-opacity: 0.7; stroke: #000000; stroke-opacity: 0.7"/>
     <use xlink:href="#md9042aaca0" x="209.653986" y="241.095773" style="fill-opacity: 0.7; stroke: #000000; stroke-opacity: 0.7"/>
     <use xlink:href="#md9042aaca0" x="246.658761" y="237.504247" style="fill-opacity: 0.7; stroke: #000000; stroke-opacity: 0.7"/>
     <use xlink:href="#md9042aaca0" x="283.663536" y="235.664754" style="fill-opacity: 0.7; stroke: #000000; stroke-opacity: 0.7"/>
     <use xlink:href="#md9042aaca0" x="320.668311" y="233.829238" style="fill-opacity: 0.7; stroke: #000000; stroke-opacity: 0.7"/>
     <use xlink:href="#md9042aaca0" x="357.673086" y="231.414763" style="fill-opacity: 0.7; stroke: #000000; stroke-opacity: 0.7"/>
     <use xlink:href="#md9042aaca0" x="394.677861" y="229.933223" style="fill-opacity: 0.7; stroke: #000000; stroke-opacity: 0.7"/>
     <use xlink:href="#md9042aaca0" x="431.682636" y="227.483339" style="fill-opacity: 0.7; stroke: #000000; stroke-opacity: 0.7"/>
    </g>
   </g>
   <g id="matplotlib.axis_1">
    <g id="xtick_1">
     <g id="line2d_1">
      <defs>
       <path id="m0e120b6eef" d="M 0 0 
L 0 3.5 
" style="stroke: #000000; stroke-width: 0.8"/>
      </defs>
      <g>
       <use xlink:href="#m0e120b6eef" x="61.634886" y="302.2" style="stroke: #000000; stroke-width: 0.8"/>
      </g>
     </g>
     <g id="text_1">
      <!-- 0 -->
      <g transform="translate(58.453636 316.798437) scale(0.1 -0.1)">
       <defs>
        <path id="DejaVuSans-30" d="M 2034 4250 
Q 1547 4250 1301 3770 
Q 1056 3291 1056 2328 
Q 1056 1369 1301 889 
Q 1547 409 2034 409 
Q 2525 409 2770 889 
Q 3016 1369 3016 2328 
Q 3016 3291 2770 3770 
Q 2525 4250 2034 4250 
z
M 2034 4750 
Q 2819 4750 3233 4129 
Q 3647 3509 3647 2328 
Q 3647 1150 3233 529 
Q 2819 -91 2034 -91 
Q 1250 -91 836 529 
Q 422 1150 422 2328 
Q 422 3509 836 4129 
Q 1250 4750 2034 4750 
z
" transform="scale(0.015625)"/>
       </defs>
       <use xlink:href="#DejaVuSans-30"/>
      </g>
     </g>
    </g>
    <g id="xtick_2">
     <g id="line2d_2">
      <g>
       <use xlink:href="#m0e120b6eef" x="135.644436" y="302.2" style="stroke: #000000; stroke-width: 0.8"/>
      </g>
     </g>
     <g id="text_2">
      <!-- 1 -->
      <g transform="translate(132.463186 316.798437) scale(0.1 -0.1)">
       <defs>
        <path id="DejaVuSans-31" d="M 794 531 
L 1825 531 
L 1825 4091 
L 703 3866 
L 703 4441 
L 1819 4666 
L 2450 4666 
L 2450 531 
L 3481 531 
L 3481 0 
L 794 0 
L 794 531 
z
" transform="scale(0.015625)"/>
       </defs>
       <use xlink:href="#DejaVuSans-31"/>
      </g>
     </g>
    </g>
    <g id="xtick_3">
     <g id="line2d_3">
      <g>
       <use xlink:href="#m0e120b6eef" x="209.653986" y="302.2" style="stroke: #000000; stroke-width: 0.8"/>
      </g>
     </g>
     <g id="text_3">
      <!-- 2 -->
      <g transform="translate(206.472736 316.798437) scale(0.1 -0.1)">
       <defs>
        <path id="DejaVuSans-32" d="M 1228 531 
L 3431 531 
L 3431 0 
L 469 0 
L 469 531 
Q 828 903 1448 1529 
Q 2069 2156 2228 2338 
Q 2531 2678 2651 2914 
Q 2772 3150 2772 3378 
Q 2772 3750 2511 3984 
Q 2250 4219 1831 4219 
Q 1534 4219 1204 4116 
Q 875 4013 500 3803 
L 500 4441 
Q 881 4594 1212 4672 
Q 1544 4750 1819 4750 
Q 2544 4750 2975 4387 
Q 3406 4025 3406 3419 
Q 3406 3131 3298 2873 
Q 3191 2616 2906 2266 
Q 2828 2175 2409 1742 
Q 1991 1309 1228 531 
z
" transform="scale(0.015625)"/>
       </defs>
       <use xlink:href="#DejaVuSans-32"/>
      </g>
     </g>
    </g>
    <g id="xtick_4">
     <g id="line2d_4">
      <g>
       <use xlink:href="#m0e120b6eef" x="283.663536" y="302.2" style="stroke: #000000; stroke-width: 0.8"/>
      </g>
     </g>
     <g id="text_4">
      <!-- 3 -->
      <g transform="translate(280.482286 316.798437) scale(0.1 -0.1)">
       <defs>
        <path id="DejaVuSans-33" d="M 2597 2516 
Q 3050 2419 3304 2112 
Q 3559 1806 3559 1356 
Q 3559 666 3084 287 
Q 2609 -91 1734 -91 
Q 1441 -91 1130 -33 
Q 819 25 488 141 
L 488 750 
Q 750 597 1062 519 
Q 1375 441 1716 441 
Q 2309 441 2620 675 
Q 2931 909 2931 1356 
Q 2931 1769 2642 2001 
Q 2353 2234 1838 2234 
L 1294 2234 
L 1294 2753 
L 1863 2753 
Q 2328 2753 2575 2939 
Q 2822 3125 2822 3475 
Q 2822 3834 2567 4026 
Q 2313 4219 1838 4219 
Q 1578 4219 1281 4162 
Q 984 4106 628 3988 
L 628 4550 
Q 988 4650 1302 4700 
Q 1616 4750 1894 4750 
Q 2613 4750 3031 4423 
Q 3450 4097 3450 3541 
Q 3450 3153 3228 2886 
Q 3006 2619 2597 2516 
z
" transform="scale(0.015625)"/>
       </defs>
       <use xlink:href="#DejaVuSans-33"/>
      </g>
     </g>
    </g>
    <g id="xtick_5">
     <g id="line2d_5">
      <g>
       <use xlink:href="#m0e120b6eef" x="357.673086" y="302.2" style="stroke: #000000; stroke-width: 0.8"/>
      </g>
     </g>
     <g id="text_5">
      <!-- 4 -->
      <g transform="translate(354.491836 316.798437) scale(0.1 -0.1)">
       <defs>
        <path id="DejaVuSans-34" d="M 2419 4116 
L 825 1625 
L 2419 1625 
L 2419 4116 
z
M 2253 4666 
L 3047 4666 
L 3047 1625 
L 3713 1625 
L 3713 1100 
L 3047 1100 
L 3047 0 
L 2419 0 
L 2419 1100 
L 313 1100 
L 313 1709 
L 2253 4666 
z
" transform="scale(0.015625)"/>
       </defs>
       <use xlink:href="#DejaVuSans-34"/>
      </g>
     </g>
    </g>
    <g id="xtick_6">
     <g id="line2d_6">
      <g>
       <use xlink:href="#m0e120b6eef" x="431.682636" y="302.2" style="stroke: #000000; stroke-width: 0.8"/>
      </g>
     </g>
     <g id="text_6">
      <!-- 5 -->
      <g transform="translate(428.501386 316.798437) scale(0.1 -0.1)">
       <defs>
        <path id="DejaVuSans-35" d="M 691 4666 
L 3169 4666 
L 3169 4134 
L 1269 4134 
L 1269 2991 
Q 1406 3038 1543 3061 
Q 1681 3084 1819 3084 
Q 2600 3084 3056 2656 
Q 3513 2228 3513 1497 
Q 3513 744 3044 326 
Q 2575 -91 1722 -91 
Q 1428 -91 1123 -41 
Q 819 9 494 109 
L 494 744 
Q 775 591 1075 516 
Q 1375 441 1709 441 
Q 2250 441 2565 725 
Q 2881 1009 2881 1497 
Q 2881 1984 2565 2268 
Q 2250 2553 1709 2553 
Q 1456 2553 1204 2497 
Q 953 2441 691 2322 
L 691 4666 
z
" transform="scale(0.015625)"/>
       </defs>
       <use xlink:href="#DejaVuSans-35"/>
      </g>
     </g>
    </g>
    <g id="text_7">
     <!-- $W$ (m/hour) -->
     <g transform="translate(220.059 330.476562) scale(0.1 -0.1)">
      <defs>
       <path id="DejaVuSans-Oblique-57" d="M 616 4666 
L 1228 4666 
L 1453 697 
L 3213 4666 
L 3916 4666 
L 4147 697 
L 5888 4666 
L 6528 4666 
L 4453 0 
L 3659 0 
L 3444 3891 
L 1697 0 
L 903 0 
L 616 4666 
z
" transform="scale(0.015625)"/>
       <path id="DejaVuSans-20" transform="scale(0.015625)"/>
       <path id="DejaVuSans-28" d="M 1984 4856 
Q 1566 4138 1362 3434 
Q 1159 2731 1159 2009 
Q 1159 1288 1364 580 
Q 1569 -128 1984 -844 
L 1484 -844 
Q 1016 -109 783 600 
Q 550 1309 550 2009 
Q 550 2706 781 3412 
Q 1013 4119 1484 4856 
L 1984 4856 
z
" transform="scale(0.015625)"/>
       <path id="DejaVuSans-6d" d="M 3328 2828 
Q 3544 3216 3844 3400 
Q 4144 3584 4550 3584 
Q 5097 3584 5394 3201 
Q 5691 2819 5691 2113 
L 5691 0 
L 5113 0 
L 5113 2094 
Q 5113 2597 4934 2840 
Q 4756 3084 4391 3084 
Q 3944 3084 3684 2787 
Q 3425 2491 3425 1978 
L 3425 0 
L 2847 0 
L 2847 2094 
Q 2847 2600 2669 2842 
Q 2491 3084 2119 3084 
Q 1678 3084 1418 2786 
Q 1159 2488 1159 1978 
L 1159 0 
L 581 0 
L 581 3500 
L 1159 3500 
L 1159 2956 
Q 1356 3278 1631 3431 
Q 1906 3584 2284 3584 
Q 2666 3584 2933 3390 
Q 3200 3197 3328 2828 
z
" transform="scale(0.015625)"/>
       <path id="DejaVuSans-2f" d="M 1625 4666 
L 2156 4666 
L 531 -594 
L 0 -594 
L 1625 4666 
z
" transform="scale(0.015625)"/>
       <path id="DejaVuSans-68" d="M 3513 2113 
L 3513 0 
L 2938 0 
L 2938 2094 
Q 2938 2591 2744 2837 
Q 2550 3084 2163 3084 
Q 1697 3084 1428 2787 
Q 1159 2491 1159 1978 
L 1159 0 
L 581 0 
L 581 4863 
L 1159 4863 
L 1159 2956 
Q 1366 3272 1645 3428 
Q 1925 3584 2291 3584 
Q 2894 3584 3203 3211 
Q 3513 2838 3513 2113 
z
" transform="scale(0.015625)"/>
       <path id="DejaVuSans-6f" d="M 1959 3097 
Q 1497 3097 1228 2736 
Q 959 2375 959 1747 
Q 959 1119 1226 758 
Q 1494 397 1959 397 
Q 2419 397 2687 759 
Q 2956 1122 2956 1747 
Q 2956 2369 2687 2733 
Q 2419 3097 1959 3097 
z
M 1959 3584 
Q 2709 3584 3137 3096 
Q 3566 2609 3566 1747 
Q 3566 888 3137 398 
Q 2709 -91 1959 -91 
Q 1206 -91 779 398 
Q 353 888 353 1747 
Q 353 2609 779 3096 
Q 1206 3584 1959 3584 
z
" transform="scale(0.015625)"/>
       <path id="DejaVuSans-75" d="M 544 1381 
L 544 3500 
L 1119 3500 
L 1119 1403 
Q 1119 906 1312 657 
Q 1506 409 1894 409 
Q 2359 409 2629 706 
Q 2900 1003 2900 1516 
L 2900 3500 
L 3475 3500 
L 3475 0 
L 2900 0 
L 2900 538 
Q 2691 219 2414 64 
Q 2138 -91 1772 -91 
Q 1169 -91 856 284 
Q 544 659 544 1381 
z
M 1991 3584 
L 1991 3584 
z
" transform="scale(0.015625)"/>
       <path id="DejaVuSans-72" d="M 2631 2963 
Q 2534 3019 2420 3045 
Q 2306 3072 2169 3072 
Q 1681 3072 1420 2755 
Q 1159 2438 1159 1844 
L 1159 0 
L 581 0 
L 581 3500 
L 1159 3500 
L 1159 2956 
Q 1341 3275 1631 3429 
Q 1922 3584 2338 3584 
Q 2397 3584 2469 3576 
Q 2541 3569 2628 3553 
L 2631 2963 
z
" transform="scale(0.015625)"/>
       <path id="DejaVuSans-29" d="M 513 4856 
L 1013 4856 
Q 1481 4119 1714 3412 
Q 1947 2706 1947 2009 
Q 1947 1309 1714 600 
Q 1481 -109 1013 -844 
L 513 -844 
Q 928 -128 1133 580 
Q 1338 1288 1338 2009 
Q 1338 2731 1133 3434 
Q 928 4138 513 4856 
z
" transform="scale(0.015625)"/>
      </defs>
      <use xlink:href="#DejaVuSans-Oblique-57" transform="translate(0 0.015625)"/>
      <use xlink:href="#DejaVuSans-20" transform="translate(98.876953 0.015625)"/>
      <use xlink:href="#DejaVuSans-28" transform="translate(130.664062 0.015625)"/>
      <use xlink:href="#DejaVuSans-6d" transform="translate(169.677734 0.015625)"/>
      <use xlink:href="#DejaVuSans-2f" transform="translate(267.089844 0.015625)"/>
      <use xlink:href="#DejaVuSans-68" transform="translate(300.78125 0.015625)"/>
      <use xlink:href="#DejaVuSans-6f" transform="translate(364.160156 0.015625)"/>
      <use xlink:href="#DejaVuSans-75" transform="translate(425.341797 0.015625)"/>
      <use xlink:href="#DejaVuSans-72" transform="translate(488.720703 0.015625)"/>
      <use xlink:href="#DejaVuSans-29" transform="translate(529.833984 0.015625)"/>
     </g>
    </g>
   </g>
   <g id="matplotlib.axis_2">
    <g id="ytick_1">
     <g id="line2d_7">
      <defs>
       <path id="m4f5cc9709a" d="M 0 0 
L -3.5 0 
" style="stroke: #000000; stroke-width: 0.8"/>
      </defs>
      <g>
       <use xlink:href="#m4f5cc9709a" x="47.018" y="271.09133" style="stroke: #000000; stroke-width: 0.8"/>
      </g>
     </g>
     <g id="text_8">
      <!-- 0 -->
      <g transform="translate(33.6555 274.890548) scale(0.1 -0.1)">
       <use xlink:href="#DejaVuSans-30"/>
      </g>
     </g>
    </g>
    <g id="ytick_2">
     <g id="line2d_8">
      <g>
       <use xlink:href="#m4f5cc9709a" x="47.018" y="213.488394" style="stroke: #000000; stroke-width: 0.8"/>
      </g>
     </g>
     <g id="text_9">
      <!-- 10 -->
      <g transform="translate(27.293 217.287613) scale(0.1 -0.1)">
       <use xlink:href="#DejaVuSans-31"/>
       <use xlink:href="#DejaVuSans-30" transform="translate(63.623047 0)"/>
      </g>
     </g>
    </g>
    <g id="ytick_3">
     <g id="line2d_9">
      <g>
       <use xlink:href="#m4f5cc9709a" x="47.018" y="155.885459" style="stroke: #000000; stroke-width: 0.8"/>
      </g>
     </g>
     <g id="text_10">
      <!-- 20 -->
      <g transform="translate(27.293 159.684678) scale(0.1 -0.1)">
       <use xlink:href="#DejaVuSans-32"/>
       <use xlink:href="#DejaVuSans-30" transform="translate(63.623047 0)"/>
      </g>
     </g>
    </g>
    <g id="ytick_4">
     <g id="line2d_10">
      <g>
       <use xlink:href="#m4f5cc9709a" x="47.018" y="98.282524" style="stroke: #000000; stroke-width: 0.8"/>
      </g>
     </g>
     <g id="text_11">
      <!-- 30 -->
      <g transform="translate(27.293 102.081742) scale(0.1 -0.1)">
       <use xlink:href="#DejaVuSans-33"/>
       <use xlink:href="#DejaVuSans-30" transform="translate(63.623047 0)"/>
      </g>
     </g>
    </g>
    <g id="ytick_5">
     <g id="line2d_11">
      <g>
       <use xlink:href="#m4f5cc9709a" x="47.018" y="40.679588" style="stroke: #000000; stroke-width: 0.8"/>
      </g>
     </g>
     <g id="text_12">
      <!-- 40 -->
      <g transform="translate(27.293 44.478807) scale(0.1 -0.1)">
       <use xlink:href="#DejaVuSans-34"/>
       <use xlink:href="#DejaVuSans-30" transform="translate(63.623047 0)"/>
      </g>
     </g>
    </g>
    <g id="text_13">
     <!-- $Q_{lc}$ (kW) -->
     <g transform="translate(21.213312 176.8) rotate(-90) scale(0.1 -0.1)">
      <defs>
       <path id="DejaVuSans-Oblique-51" d="M 2309 -84 
Q 2275 -88 2237 -89 
Q 2200 -91 2125 -91 
Q 1250 -91 756 411 
Q 263 913 263 1797 
Q 263 2319 452 2844 
Q 641 3369 978 3788 
Q 1369 4269 1858 4509 
Q 2347 4750 2938 4750 
Q 3794 4750 4287 4245 
Q 4781 3741 4781 2869 
Q 4781 1928 4265 1147 
Q 3750 366 2919 44 
L 3553 -825 
L 2847 -825 
L 2309 -84 
z
M 2919 4238 
Q 2400 4238 2003 3986 
Q 1606 3734 1313 3219 
Q 1125 2891 1026 2522 
Q 928 2153 928 1778 
Q 928 1128 1239 775 
Q 1550 422 2119 422 
Q 2631 422 3032 676 
Q 3434 931 3719 1434 
Q 3909 1772 4009 2142 
Q 4109 2513 4109 2881 
Q 4109 3528 3796 3883 
Q 3484 4238 2919 4238 
z
" transform="scale(0.015625)"/>
       <path id="DejaVuSans-Oblique-6c" d="M 1172 4863 
L 1747 4863 
L 800 0 
L 225 0 
L 1172 4863 
z
" transform="scale(0.015625)"/>
       <path id="DejaVuSans-Oblique-63" d="M 3431 3366 
L 3316 2797 
Q 3109 2947 2876 3022 
Q 2644 3097 2394 3097 
Q 2119 3097 1870 3000 
Q 1622 2903 1453 2725 
Q 1184 2453 1037 2087 
Q 891 1722 891 1331 
Q 891 859 1127 628 
Q 1363 397 1844 397 
Q 2081 397 2348 469 
Q 2616 541 2906 684 
L 2797 116 
Q 2547 13 2283 -39 
Q 2019 -91 1741 -91 
Q 1044 -91 669 257 
Q 294 606 294 1253 
Q 294 1797 489 2255 
Q 684 2713 1069 3078 
Q 1331 3328 1684 3456 
Q 2038 3584 2456 3584 
Q 2700 3584 2940 3529 
Q 3181 3475 3431 3366 
z
" transform="scale(0.015625)"/>
       <path id="DejaVuSans-6b" d="M 581 4863 
L 1159 4863 
L 1159 1991 
L 2875 3500 
L 3609 3500 
L 1753 1863 
L 3688 0 
L 2938 0 
L 1159 1709 
L 1159 0 
L 581 0 
L 581 4863 
z
" transform="scale(0.015625)"/>
       <path id="DejaVuSans-57" d="M 213 4666 
L 850 4666 
L 1831 722 
L 2809 4666 
L 3519 4666 
L 4500 722 
L 5478 4666 
L 6119 4666 
L 4947 0 
L 4153 0 
L 3169 4050 
L 2175 0 
L 1381 0 
L 213 4666 
z
" transform="scale(0.015625)"/>
      </defs>
      <use xlink:href="#DejaVuSans-Oblique-51" transform="translate(0 0.015625)"/>
      <use xlink:href="#DejaVuSans-Oblique-6c" transform="translate(78.710938 -16.390625) scale(0.7)"/>
      <use xlink:href="#DejaVuSans-Oblique-63" transform="translate(98.15918 -16.390625) scale(0.7)"/>
      <use xlink:href="#DejaVuSans-20" transform="translate(139.379883 0.015625)"/>
      <use xlink:href="#DejaVuSans-28" transform="translate(171.166992 0.015625)"/>
      <use xlink:href="#DejaVuSans-6b" transform="translate(210.180664 0.015625)"/>
      <use xlink:href="#DejaVuSans-57" transform="translate(268.09082 0.015625)"/>
      <use xlink:href="#DejaVuSans-29" transform="translate(366.967773 0.015625)"/>
     </g>
    </g>
   </g>
   <g id="line2d_12">
    <path d="M 65.335364 249.492736 
L 72.811839 242.581959 
L 80.288314 236.854366 
L 87.764788 232.091533 
L 95.241263 228.09608 
L 102.717738 224.696465 
L 110.194213 221.746319 
L 117.670688 219.127419 
L 125.147163 216.747527 
L 132.623638 214.537612 
L 140.100113 212.446781 
L 147.576588 210.441282 
L 155.053063 208.499333 
L 162.529538 206.607994 
L 170.006013 204.760458 
L 177.482488 202.953844 
L 184.958963 201.187609 
L 192.435438 199.46244 
L 199.911913 197.779573 
L 207.388388 196.140161 
L 214.864863 194.545391 
L 222.341338 192.996827 
L 229.817813 191.494512 
L 237.294288 190.037648 
L 244.770763 188.624982 
L 252.247237 187.254476 
L 259.723712 185.922965 
L 267.200187 184.626453 
L 274.676662 183.360361 
L 282.153137 182.119872 
L 289.629612 180.900343 
L 297.106087 179.697675 
L 304.582562 178.508595 
L 312.059037 177.330753 
L 319.535512 176.162603 
L 327.011987 175.003024 
L 334.488462 173.850765 
L 341.964937 172.703752 
L 349.441412 171.558406 
L 356.917887 170.409144 
L 364.394362 169.248193 
L 371.870837 168.065924 
L 379.347312 166.851773 
L 386.823787 165.59508 
L 394.300262 164.28898 
L 401.776737 162.934727 
L 409.253212 161.5355 
L 416.729686 160.11172 
L 424.206161 158.697866 
L 431.682636 157.34737 
" clip-path="url(#pd093df0499)" style="fill: none; stroke: #1f77b4; stroke-width: 1.5; stroke-linecap: square"/>
   </g>
   <g id="line2d_13">
    <path d="M 65.335364 251.069884 
L 72.811839 244.68333 
L 80.288314 239.404185 
L 87.764788 235.026399 
L 95.241263 231.36169 
L 102.717738 228.245215 
L 110.194213 225.538089 
L 117.670688 223.127746 
L 125.147163 220.926752 
L 132.623638 218.87036 
L 140.100113 216.913247 
L 147.576588 215.025847 
L 155.053063 213.190682 
L 162.529538 211.398928 
L 170.006013 209.647498 
L 177.482488 207.936663 
L 184.958963 206.268315 
L 192.435438 204.644755 
L 199.911913 203.067971 
L 207.388388 201.539246 
L 214.864863 200.059023 
L 222.341338 198.626893 
L 229.817813 197.241616 
L 237.294288 195.901208 
L 244.770763 194.603226 
L 252.247237 193.344549 
L 259.723712 192.121641 
L 267.200187 190.930725 
L 274.676662 189.768005 
L 282.153137 188.629855 
L 289.629612 187.513242 
L 297.106087 186.415836 
L 304.582562 185.336091 
L 312.059037 184.273231 
L 319.535512 183.227037 
L 327.011987 182.197443 
L 334.488462 181.183997 
L 341.964937 180.18524 
L 349.441412 179.198117 
L 356.917887 178.217553 
L 364.394362 177.236312 
L 371.870837 176.245291 
L 379.347312 175.234319 
L 386.823787 174.193509 
L 394.300262 173.114945 
L 401.776737 171.995211 
L 409.253212 170.838578 
L 416.729686 169.660489 
L 424.206161 168.484839 
L 431.682636 167.351355 
" clip-path="url(#pd093df0499)" style="fill: none; stroke: #ff7f0e; stroke-width: 1.5; stroke-linecap: square"/>
   </g>
   <g id="line2d_14">
    <path d="M 65.335364 251.664602 
L 72.811839 245.815871 
L 80.288314 240.983931 
L 87.764788 236.975425 
L 95.241263 233.615053 
L 102.717738 230.749228 
L 110.194213 228.248704 
L 117.670688 226.009523 
L 125.147163 223.952115 
L 132.623638 222.01866 
L 140.100113 220.169884 
L 147.576588 218.381485 
L 155.053063 216.640224 
L 162.529538 214.941168 
L 170.006013 213.284613 
L 177.482488 211.671496 
L 184.958963 210.105665 
L 192.435438 208.589174 
L 199.911913 207.124565 
L 207.388388 205.711049 
L 214.864863 204.348547 
L 222.341338 203.035028 
L 229.817813 201.767624 
L 237.294288 200.542919 
L 244.770763 199.357192 
L 252.247237 198.20666 
L 259.723712 197.087657 
L 267.200187 195.996809 
L 274.676662 194.931194 
L 282.153137 193.88813 
L 289.629612 192.865942 
L 297.106087 191.864645 
L 304.582562 190.882749 
L 312.059037 189.922152 
L 319.535512 188.982824 
L 327.011987 188.065033 
L 334.488462 187.170549 
L 341.964937 186.29842 
L 349.441412 185.44633 
L 356.917887 184.611006 
L 364.394362 183.785548 
L 371.870837 182.962148 
L 379.347312 182.131499 
L 386.823787 181.285542 
L 394.300262 180.417289 
L 401.776737 179.523016 
L 409.253212 178.604533 
L 416.729686 177.670417 
L 424.206161 176.740145 
L 431.682636 175.844495 
" clip-path="url(#pd093df0499)" style="fill: none; stroke: #2ca02c; stroke-width: 1.5; stroke-linecap: square"/>
   </g>
   <g id="line2d_15">
    <path d="M 65.335364 252.105032 
L 72.811839 247.013215 
L 80.288314 242.800228 
L 87.764788 239.290733 
L 95.241263 236.333359 
L 102.717738 233.792848 
L 110.194213 231.557601 
L 117.670688 229.539605 
L 125.147163 227.672147 
L 132.623638 225.908114 
L 140.100113 224.217027 
L 147.576588 222.580761 
L 155.053063 220.991208 
L 162.529538 219.446471 
L 170.006013 217.949447 
L 177.482488 216.501742 
L 184.958963 215.106457 
L 192.435438 213.765537 
L 199.911913 212.479185 
L 207.388388 211.245276 
L 214.864863 210.060937 
L 222.341338 208.922142 
L 229.817813 207.824083 
L 237.294288 206.762849 
L 244.770763 205.733541 
L 252.247237 204.731869 
L 259.723712 203.754255 
L 267.200187 202.79967 
L 274.676662 201.864998 
L 282.153137 200.948487 
L 289.629612 200.051982 
L 297.106087 199.173656 
L 304.582562 198.316186 
L 312.059037 197.481477 
L 319.535512 196.667096 
L 327.011987 195.879373 
L 334.488462 195.116712 
L 341.964937 194.377805 
L 349.441412 193.661934 
L 356.917887 192.967991 
L 364.394362 192.291646 
L 371.870837 191.625345 
L 379.347312 190.96727 
L 386.823787 190.311399 
L 394.300262 189.648724 
L 401.776737 188.979344 
L 409.253212 188.305387 
L 416.729686 187.631833 
L 424.206161 186.975219 
L 431.682636 186.357388 
" clip-path="url(#pd093df0499)" style="fill: none; stroke: #d62728; stroke-width: 1.5; stroke-linecap: square"/>
   </g>
   <g id="line2d_16">
    <path d="M 65.335364 252.975765 
L 72.811839 248.502156 
L 80.288314 244.787458 
L 87.764788 241.683327 
L 95.241263 239.054772 
L 102.717738 236.78433 
L 110.194213 234.776985 
L 117.670688 232.956508 
L 125.147163 231.267002 
L 132.623638 229.669539 
L 140.100113 228.139428 
L 147.576588 226.663018 
L 155.053063 225.234438 
L 162.529538 223.852988 
L 170.006013 222.520362 
L 177.482488 221.238858 
L 184.958963 220.009916 
L 192.435438 218.833728 
L 199.911913 217.708924 
L 207.388388 216.63271 
L 214.864863 215.600927 
L 222.341338 214.608553 
L 229.817813 213.650727 
L 237.294288 212.722656 
L 244.770763 211.820145 
L 252.247237 210.939701 
L 259.723712 210.078399 
L 267.200187 209.234662 
L 274.676662 208.407053 
L 282.153137 207.595974 
L 289.629612 206.800511 
L 297.106087 206.021739 
L 304.582562 205.261385 
L 312.059037 204.519089 
L 319.535512 203.796958 
L 327.011987 203.09452 
L 334.488462 202.413981 
L 341.964937 201.755444 
L 349.441412 201.118458 
L 356.917887 200.497774 
L 364.394362 199.894193 
L 371.870837 199.303454 
L 379.347312 198.722672 
L 386.823787 198.146483 
L 394.300262 197.57238 
L 401.776737 197.003377 
L 409.253212 196.439237 
L 416.729686 195.889891 
L 424.206161 195.365638 
L 431.682636 194.889521 
" clip-path="url(#pd093df0499)" style="fill: none; stroke: #9467bd; stroke-width: 1.5; stroke-linecap: square"/>
   </g>
   <g id="line2d_17">
    <path d="M 65.335364 254.661988 
L 72.811839 250.849092 
L 80.288314 247.675538 
L 87.764788 245.014578 
L 95.241263 242.753291 
L 102.717738 240.793234 
L 110.194213 239.054991 
L 117.670688 237.476347 
L 125.147163 236.011391 
L 132.623638 234.628562 
L 140.100113 233.308004 
L 147.576588 232.038813 
L 155.053063 230.816285 
L 162.529538 229.639456 
L 170.006013 228.509069 
L 177.482488 227.426068 
L 184.958963 226.39063 
L 192.435438 225.401689 
L 199.911913 224.4567 
L 207.388388 223.55216 
L 214.864863 222.68369 
L 222.341338 221.846584 
L 229.817813 221.036285 
L 237.294288 220.248578 
L 244.770763 219.480544 
L 252.247237 218.728936 
L 259.723712 217.99229 
L 267.200187 217.269898 
L 274.676662 216.560971 
L 282.153137 215.865436 
L 289.629612 215.182571 
L 297.106087 214.513483 
L 304.582562 213.858798 
L 312.059037 213.219218 
L 319.535512 212.594627 
L 327.011987 211.985163 
L 334.488462 211.390679 
L 341.964937 210.809474 
L 349.441412 210.241517 
L 356.917887 209.686322 
L 364.394362 209.141512 
L 371.870837 208.604667 
L 379.347312 208.073452 
L 386.823787 207.546839 
L 394.300262 207.025406 
L 401.776737 206.51074 
L 409.253212 206.008101 
L 416.729686 205.527453 
L 424.206161 205.082608 
L 431.682636 204.692509 
" clip-path="url(#pd093df0499)" style="fill: none; stroke: #8c564b; stroke-width: 1.5; stroke-linecap: square"/>
   </g>
   <g id="line2d_18">
    <path d="M 65.335364 257.076687 
L 72.811839 253.960582 
L 80.288314 251.362618 
L 87.764788 249.180633 
L 95.241263 247.322389 
L 102.717738 245.711171 
L 110.194213 244.283222 
L 117.670688 242.988332 
L 125.147163 241.789648 
L 132.623638 240.66148 
L 140.100113 239.588105 
L 147.576588 238.560354 
L 155.053063 237.573797 
L 162.529538 236.626947 
L 170.006013 235.719192 
L 177.482488 234.850219 
L 184.958963 234.019074 
L 192.435438 233.223824 
L 199.911913 232.462028 
L 207.388388 231.730349 
L 214.864863 231.025117 
L 222.341338 230.342655 
L 229.817813 229.679628 
L 237.294288 229.033306 
L 244.770763 228.40158 
L 252.247237 227.783018 
L 259.723712 227.176776 
L 267.200187 226.582493 
L 274.676662 226.000098 
L 282.153137 225.429584 
L 289.629612 224.871243 
L 297.106087 224.325297 
L 304.582562 223.790804 
L 312.059037 223.267433 
L 319.535512 222.754839 
L 327.011987 222.251674 
L 334.488462 221.757138 
L 341.964937 221.270069 
L 349.441412 220.788554 
L 356.917887 220.311 
L 364.394362 219.835452 
L 371.870837 219.359249 
L 379.347312 218.881999 
L 386.823787 218.403693 
L 394.300262 217.926028 
L 401.776737 217.453411 
L 409.253212 216.993382 
L 416.729686 216.557583 
L 424.206161 216.162133 
L 431.682636 215.828078 
" clip-path="url(#pd093df0499)" style="fill: none; stroke: #e377c2; stroke-width: 1.5; stroke-linecap: square"/>
   </g>
   <g id="line2d_19">
    <path d="M 65.335364 260.730706 
L 72.811839 258.567438 
L 80.288314 256.763169 
L 87.764788 255.248996 
L 95.241263 253.962284 
L 102.717738 252.84933 
L 110.194213 251.866176 
L 117.670688 250.977673 
L 125.147163 250.158019 
L 132.623638 249.388717 
L 140.100113 248.657527 
L 147.576588 247.956945 
L 155.053063 247.28268 
L 162.529538 246.632296 
L 170.006013 246.00488 
L 177.482488 245.399673 
L 184.958963 244.816037 
L 192.435438 244.252637 
L 199.911913 243.708122 
L 207.388388 243.181042 
L 214.864863 242.669933 
L 222.341338 242.173385 
L 229.817813 241.690354 
L 237.294288 241.220166 
L 244.770763 240.762525 
L 252.247237 240.317452 
L 259.723712 239.885191 
L 267.200187 239.46608 
L 274.676662 239.060429 
L 282.153137 238.668399 
L 289.629612 238.289786 
L 297.106087 237.924084 
L 304.582562 237.570764 
L 312.059037 237.2287 
L 319.535512 236.896162 
L 327.011987 236.571084 
L 334.488462 236.250981 
L 341.964937 235.932577 
L 349.441412 235.613462 
L 356.917887 235.290079 
L 364.394362 234.959572 
L 371.870837 234.619165 
L 379.347312 234.267284 
L 386.823787 233.904223 
L 394.300262 233.532725 
L 401.776737 233.15852 
L 409.253212 232.791123 
L 416.729686 232.444391 
L 424.206161 232.136869 
L 431.682636 231.891703 
" clip-path="url(#pd093df0499)" style="fill: none; stroke: #7f7f7f; stroke-width: 1.5; stroke-linecap: square"/>
   </g>
   <g id="patch_3">
    <path d="M 47.018 302.2 
L 47.018 10.8 
" style="fill: none; stroke: #000000; stroke-width: 0.8; stroke-linejoin: miter; stroke-linecap: square"/>
   </g>
   <g id="patch_4">
    <path d="M 450 302.2 
L 450 10.8 
" style="fill: none; stroke: #000000; stroke-width: 0.8; stroke-linejoin: miter; stroke-linecap: square"/>
   </g>
   <g id="patch_5">
    <path d="M 47.018 302.2 
L 450 302.2 
" style="fill: none; stroke: #000000; stroke-width: 0.8; stroke-linejoin: miter; stroke-linecap: square"/>
   </g>
   <g id="patch_6">
    <path d="M 47.018 10.8 
L 450 10.8 
" style="fill: none; stroke: #000000; stroke-width: 0.8; stroke-linejoin: miter; stroke-linecap: square"/>
   </g>
   <g id="legend_1">
    <g id="patch_7">
     <path d="M 54.018 150.903125 
L 152.852375 150.903125 
Q 154.852375 150.903125 154.852375 148.903125 
L 154.852375 17.8 
Q 154.852375 15.8 152.852375 15.8 
L 54.018 15.8 
Q 52.018 15.8 52.018 17.8 
L 52.018 148.903125 
Q 52.018 150.903125 54.018 150.903125 
z
" style="fill: #ffffff; opacity: 0.8; stroke: #cccccc; stroke-linejoin: miter"/>
    </g>
    <g id="line2d_20">
     <path d="M 56.018 23.898438 
L 66.018 23.898438 
L 76.018 23.898438 
" style="fill: none; stroke: #1f77b4; stroke-width: 1.5; stroke-linecap: square"/>
    </g>
    <g id="text_14">
     <!-- Ts=80 K -->
     <g transform="translate(84.018 27.398438) scale(0.1 -0.1)">
      <defs>
       <path id="DejaVuSans-54" d="M -19 4666 
L 3928 4666 
L 3928 4134 
L 2272 4134 
L 2272 0 
L 1638 0 
L 1638 4134 
L -19 4134 
L -19 4666 
z
" transform="scale(0.015625)"/>
       <path id="DejaVuSans-73" d="M 2834 3397 
L 2834 2853 
Q 2591 2978 2328 3040 
Q 2066 3103 1784 3103 
Q 1356 3103 1142 2972 
Q 928 2841 928 2578 
Q 928 2378 1081 2264 
Q 1234 2150 1697 2047 
L 1894 2003 
Q 2506 1872 2764 1633 
Q 3022 1394 3022 966 
Q 3022 478 2636 193 
Q 2250 -91 1575 -91 
Q 1294 -91 989 -36 
Q 684 19 347 128 
L 347 722 
Q 666 556 975 473 
Q 1284 391 1588 391 
Q 1994 391 2212 530 
Q 2431 669 2431 922 
Q 2431 1156 2273 1281 
Q 2116 1406 1581 1522 
L 1381 1569 
Q 847 1681 609 1914 
Q 372 2147 372 2553 
Q 372 3047 722 3315 
Q 1072 3584 1716 3584 
Q 2034 3584 2315 3537 
Q 2597 3491 2834 3397 
z
" transform="scale(0.015625)"/>
       <path id="DejaVuSans-3d" d="M 678 2906 
L 4684 2906 
L 4684 2381 
L 678 2381 
L 678 2906 
z
M 678 1631 
L 4684 1631 
L 4684 1100 
L 678 1100 
L 678 1631 
z
" transform="scale(0.015625)"/>
       <path id="DejaVuSans-38" d="M 2034 2216 
Q 1584 2216 1326 1975 
Q 1069 1734 1069 1313 
Q 1069 891 1326 650 
Q 1584 409 2034 409 
Q 2484 409 2743 651 
Q 3003 894 3003 1313 
Q 3003 1734 2745 1975 
Q 2488 2216 2034 2216 
z
M 1403 2484 
Q 997 2584 770 2862 
Q 544 3141 544 3541 
Q 544 4100 942 4425 
Q 1341 4750 2034 4750 
Q 2731 4750 3128 4425 
Q 3525 4100 3525 3541 
Q 3525 3141 3298 2862 
Q 3072 2584 2669 2484 
Q 3125 2378 3379 2068 
Q 3634 1759 3634 1313 
Q 3634 634 3220 271 
Q 2806 -91 2034 -91 
Q 1263 -91 848 271 
Q 434 634 434 1313 
Q 434 1759 690 2068 
Q 947 2378 1403 2484 
z
M 1172 3481 
Q 1172 3119 1398 2916 
Q 1625 2713 2034 2713 
Q 2441 2713 2670 2916 
Q 2900 3119 2900 3481 
Q 2900 3844 2670 4047 
Q 2441 4250 2034 4250 
Q 1625 4250 1398 4047 
Q 1172 3844 1172 3481 
z
" transform="scale(0.015625)"/>
       <path id="DejaVuSans-4b" d="M 628 4666 
L 1259 4666 
L 1259 2694 
L 3353 4666 
L 4166 4666 
L 1850 2491 
L 4331 0 
L 3500 0 
L 1259 2247 
L 1259 0 
L 628 0 
L 628 4666 
z
" transform="scale(0.015625)"/>
      </defs>
      <use xlink:href="#DejaVuSans-54"/>
      <use xlink:href="#DejaVuSans-73" transform="translate(44.583984 0)"/>
      <use xlink:href="#DejaVuSans-3d" transform="translate(96.683594 0)"/>
      <use xlink:href="#DejaVuSans-38" transform="translate(180.472656 0)"/>
      <use xlink:href="#DejaVuSans-30" transform="translate(244.095703 0)"/>
      <use xlink:href="#DejaVuSans-20" transform="translate(307.71875 0)"/>
      <use xlink:href="#DejaVuSans-4b" transform="translate(339.505859 0)"/>
     </g>
    </g>
    <g id="line2d_21">
     <path d="M 56.018 38.576563 
L 66.018 38.576563 
L 76.018 38.576563 
" style="fill: none; stroke: #ff7f0e; stroke-width: 1.5; stroke-linecap: square"/>
    </g>
    <g id="text_15">
     <!-- Ts=100 K -->
     <g transform="translate(84.018 42.076563) scale(0.1 -0.1)">
      <use xlink:href="#DejaVuSans-54"/>
      <use xlink:href="#DejaVuSans-73" transform="translate(44.583984 0)"/>
      <use xlink:href="#DejaVuSans-3d" transform="translate(96.683594 0)"/>
      <use xlink:href="#DejaVuSans-31" transform="translate(180.472656 0)"/>
      <use xlink:href="#DejaVuSans-30" transform="translate(244.095703 0)"/>
      <use xlink:href="#DejaVuSans-30" transform="translate(307.71875 0)"/>
      <use xlink:href="#DejaVuSans-20" transform="translate(371.341797 0)"/>
      <use xlink:href="#DejaVuSans-4b" transform="translate(403.128906 0)"/>
     </g>
    </g>
    <g id="line2d_22">
     <path d="M 56.018 53.254687 
L 66.018 53.254687 
L 76.018 53.254687 
" style="fill: none; stroke: #2ca02c; stroke-width: 1.5; stroke-linecap: square"/>
    </g>
    <g id="text_16">
     <!-- Ts=120 K -->
     <g transform="translate(84.018 56.754687) scale(0.1 -0.1)">
      <use xlink:href="#DejaVuSans-54"/>
      <use xlink:href="#DejaVuSans-73" transform="translate(44.583984 0)"/>
      <use xlink:href="#DejaVuSans-3d" transform="translate(96.683594 0)"/>
      <use xlink:href="#DejaVuSans-31" transform="translate(180.472656 0)"/>
      <use xlink:href="#DejaVuSans-32" transform="translate(244.095703 0)"/>
      <use xlink:href="#DejaVuSans-30" transform="translate(307.71875 0)"/>
      <use xlink:href="#DejaVuSans-20" transform="translate(371.341797 0)"/>
      <use xlink:href="#DejaVuSans-4b" transform="translate(403.128906 0)"/>
     </g>
    </g>
    <g id="line2d_23">
     <path d="M 56.018 67.932813 
L 66.018 67.932813 
L 76.018 67.932813 
" style="fill: none; stroke: #d62728; stroke-width: 1.5; stroke-linecap: square"/>
    </g>
    <g id="text_17">
     <!-- Ts=140 K -->
     <g transform="translate(84.018 71.432813) scale(0.1 -0.1)">
      <use xlink:href="#DejaVuSans-54"/>
      <use xlink:href="#DejaVuSans-73" transform="translate(44.583984 0)"/>
      <use xlink:href="#DejaVuSans-3d" transform="translate(96.683594 0)"/>
      <use xlink:href="#DejaVuSans-31" transform="translate(180.472656 0)"/>
      <use xlink:href="#DejaVuSans-34" transform="translate(244.095703 0)"/>
      <use xlink:href="#DejaVuSans-30" transform="translate(307.71875 0)"/>
      <use xlink:href="#DejaVuSans-20" transform="translate(371.341797 0)"/>
      <use xlink:href="#DejaVuSans-4b" transform="translate(403.128906 0)"/>
     </g>
    </g>
    <g id="line2d_24">
     <path d="M 56.018 82.610938 
L 66.018 82.610938 
L 76.018 82.610938 
" style="fill: none; stroke: #9467bd; stroke-width: 1.5; stroke-linecap: square"/>
    </g>
    <g id="text_18">
     <!-- Ts=160 K -->
     <g transform="translate(84.018 86.110938) scale(0.1 -0.1)">
      <defs>
       <path id="DejaVuSans-36" d="M 2113 2584 
Q 1688 2584 1439 2293 
Q 1191 2003 1191 1497 
Q 1191 994 1439 701 
Q 1688 409 2113 409 
Q 2538 409 2786 701 
Q 3034 994 3034 1497 
Q 3034 2003 2786 2293 
Q 2538 2584 2113 2584 
z
M 3366 4563 
L 3366 3988 
Q 3128 4100 2886 4159 
Q 2644 4219 2406 4219 
Q 1781 4219 1451 3797 
Q 1122 3375 1075 2522 
Q 1259 2794 1537 2939 
Q 1816 3084 2150 3084 
Q 2853 3084 3261 2657 
Q 3669 2231 3669 1497 
Q 3669 778 3244 343 
Q 2819 -91 2113 -91 
Q 1303 -91 875 529 
Q 447 1150 447 2328 
Q 447 3434 972 4092 
Q 1497 4750 2381 4750 
Q 2619 4750 2861 4703 
Q 3103 4656 3366 4563 
z
" transform="scale(0.015625)"/>
      </defs>
      <use xlink:href="#DejaVuSans-54"/>
      <use xlink:href="#DejaVuSans-73" transform="translate(44.583984 0)"/>
      <use xlink:href="#DejaVuSans-3d" transform="translate(96.683594 0)"/>
      <use xlink:href="#DejaVuSans-31" transform="translate(180.472656 0)"/>
      <use xlink:href="#DejaVuSans-36" transform="translate(244.095703 0)"/>
      <use xlink:href="#DejaVuSans-30" transform="translate(307.71875 0)"/>
      <use xlink:href="#DejaVuSans-20" transform="translate(371.341797 0)"/>
      <use xlink:href="#DejaVuSans-4b" transform="translate(403.128906 0)"/>
     </g>
    </g>
    <g id="line2d_25">
     <path d="M 56.018 97.289062 
L 66.018 97.289062 
L 76.018 97.289062 
" style="fill: none; stroke: #8c564b; stroke-width: 1.5; stroke-linecap: square"/>
    </g>
    <g id="text_19">
     <!-- Ts=180 K -->
     <g transform="translate(84.018 100.789062) scale(0.1 -0.1)">
      <use xlink:href="#DejaVuSans-54"/>
      <use xlink:href="#DejaVuSans-73" transform="translate(44.583984 0)"/>
      <use xlink:href="#DejaVuSans-3d" transform="translate(96.683594 0)"/>
      <use xlink:href="#DejaVuSans-31" transform="translate(180.472656 0)"/>
      <use xlink:href="#DejaVuSans-38" transform="translate(244.095703 0)"/>
      <use xlink:href="#DejaVuSans-30" transform="translate(307.71875 0)"/>
      <use xlink:href="#DejaVuSans-20" transform="translate(371.341797 0)"/>
      <use xlink:href="#DejaVuSans-4b" transform="translate(403.128906 0)"/>
     </g>
    </g>
    <g id="line2d_26">
     <path d="M 56.018 111.967187 
L 66.018 111.967187 
L 76.018 111.967187 
" style="fill: none; stroke: #e377c2; stroke-width: 1.5; stroke-linecap: square"/>
    </g>
    <g id="text_20">
     <!-- Ts=200 K -->
     <g transform="translate(84.018 115.467187) scale(0.1 -0.1)">
      <use xlink:href="#DejaVuSans-54"/>
      <use xlink:href="#DejaVuSans-73" transform="translate(44.583984 0)"/>
      <use xlink:href="#DejaVuSans-3d" transform="translate(96.683594 0)"/>
      <use xlink:href="#DejaVuSans-32" transform="translate(180.472656 0)"/>
      <use xlink:href="#DejaVuSans-30" transform="translate(244.095703 0)"/>
      <use xlink:href="#DejaVuSans-30" transform="translate(307.71875 0)"/>
      <use xlink:href="#DejaVuSans-20" transform="translate(371.341797 0)"/>
      <use xlink:href="#DejaVuSans-4b" transform="translate(403.128906 0)"/>
     </g>
    </g>
    <g id="line2d_27">
     <path d="M 56.018 126.645312 
L 66.018 126.645312 
L 76.018 126.645312 
" style="fill: none; stroke: #7f7f7f; stroke-width: 1.5; stroke-linecap: square"/>
    </g>
    <g id="text_21">
     <!-- Ts=220 K -->
     <g transform="translate(84.018 130.145312) scale(0.1 -0.1)">
      <use xlink:href="#DejaVuSans-54"/>
      <use xlink:href="#DejaVuSans-73" transform="translate(44.583984 0)"/>
      <use xlink:href="#DejaVuSans-3d" transform="translate(96.683594 0)"/>
      <use xlink:href="#DejaVuSans-32" transform="translate(180.472656 0)"/>
      <use xlink:href="#DejaVuSans-32" transform="translate(244.095703 0)"/>
      <use xlink:href="#DejaVuSans-30" transform="translate(307.71875 0)"/>
      <use xlink:href="#DejaVuSans-20" transform="translate(371.341797 0)"/>
      <use xlink:href="#DejaVuSans-4b" transform="translate(403.128906 0)"/>
     </g>
    </g>
    <g id="PathCollection_9">
     <g>
      <use xlink:href="#md9042aaca0" x="66.018" y="142.198437" style="fill-opacity: 0.7; stroke: #000000; stroke-opacity: 0.7"/>
     </g>
    </g>
    <g id="text_22">
     <!-- Artificial data -->
     <g transform="translate(84.018 144.823437) scale(0.1 -0.1)">
      <defs>
       <path id="DejaVuSans-41" d="M 2188 4044 
L 1331 1722 
L 3047 1722 
L 2188 4044 
z
M 1831 4666 
L 2547 4666 
L 4325 0 
L 3669 0 
L 3244 1197 
L 1141 1197 
L 716 0 
L 50 0 
L 1831 4666 
z
" transform="scale(0.015625)"/>
       <path id="DejaVuSans-74" d="M 1172 4494 
L 1172 3500 
L 2356 3500 
L 2356 3053 
L 1172 3053 
L 1172 1153 
Q 1172 725 1289 603 
Q 1406 481 1766 481 
L 2356 481 
L 2356 0 
L 1766 0 
Q 1100 0 847 248 
Q 594 497 594 1153 
L 594 3053 
L 172 3053 
L 172 3500 
L 594 3500 
L 594 4494 
L 1172 4494 
z
" transform="scale(0.015625)"/>
       <path id="DejaVuSans-69" d="M 603 3500 
L 1178 3500 
L 1178 0 
L 603 0 
L 603 3500 
z
M 603 4863 
L 1178 4863 
L 1178 4134 
L 603 4134 
L 603 4863 
z
" transform="scale(0.015625)"/>
       <path id="DejaVuSans-66" d="M 2375 4863 
L 2375 4384 
L 1825 4384 
Q 1516 4384 1395 4259 
Q 1275 4134 1275 3809 
L 1275 3500 
L 2222 3500 
L 2222 3053 
L 1275 3053 
L 1275 0 
L 697 0 
L 697 3053 
L 147 3053 
L 147 3500 
L 697 3500 
L 697 3744 
Q 697 4328 969 4595 
Q 1241 4863 1831 4863 
L 2375 4863 
z
" transform="scale(0.015625)"/>
       <path id="DejaVuSans-63" d="M 3122 3366 
L 3122 2828 
Q 2878 2963 2633 3030 
Q 2388 3097 2138 3097 
Q 1578 3097 1268 2742 
Q 959 2388 959 1747 
Q 959 1106 1268 751 
Q 1578 397 2138 397 
Q 2388 397 2633 464 
Q 2878 531 3122 666 
L 3122 134 
Q 2881 22 2623 -34 
Q 2366 -91 2075 -91 
Q 1284 -91 818 406 
Q 353 903 353 1747 
Q 353 2603 823 3093 
Q 1294 3584 2113 3584 
Q 2378 3584 2631 3529 
Q 2884 3475 3122 3366 
z
" transform="scale(0.015625)"/>
       <path id="DejaVuSans-61" d="M 2194 1759 
Q 1497 1759 1228 1600 
Q 959 1441 959 1056 
Q 959 750 1161 570 
Q 1363 391 1709 391 
Q 2188 391 2477 730 
Q 2766 1069 2766 1631 
L 2766 1759 
L 2194 1759 
z
M 3341 1997 
L 3341 0 
L 2766 0 
L 2766 531 
Q 2569 213 2275 61 
Q 1981 -91 1556 -91 
Q 1019 -91 701 211 
Q 384 513 384 1019 
Q 384 1609 779 1909 
Q 1175 2209 1959 2209 
L 2766 2209 
L 2766 2266 
Q 2766 2663 2505 2880 
Q 2244 3097 1772 3097 
Q 1472 3097 1187 3025 
Q 903 2953 641 2809 
L 641 3341 
Q 956 3463 1253 3523 
Q 1550 3584 1831 3584 
Q 2591 3584 2966 3190 
Q 3341 2797 3341 1997 
z
" transform="scale(0.015625)"/>
       <path id="DejaVuSans-6c" d="M 603 4863 
L 1178 4863 
L 1178 0 
L 603 0 
L 603 4863 
z
" transform="scale(0.015625)"/>
       <path id="DejaVuSans-64" d="M 2906 2969 
L 2906 4863 
L 3481 4863 
L 3481 0 
L 2906 0 
L 2906 525 
Q 2725 213 2448 61 
Q 2172 -91 1784 -91 
Q 1150 -91 751 415 
Q 353 922 353 1747 
Q 353 2572 751 3078 
Q 1150 3584 1784 3584 
Q 2172 3584 2448 3432 
Q 2725 3281 2906 2969 
z
M 947 1747 
Q 947 1113 1208 752 
Q 1469 391 1925 391 
Q 2381 391 2643 752 
Q 2906 1113 2906 1747 
Q 2906 2381 2643 2742 
Q 2381 3103 1925 3103 
Q 1469 3103 1208 2742 
Q 947 2381 947 1747 
z
" transform="scale(0.015625)"/>
      </defs>
      <use xlink:href="#DejaVuSans-41"/>
      <use xlink:href="#DejaVuSans-72" transform="translate(68.408203 0)"/>
      <use xlink:href="#DejaVuSans-74" transform="translate(109.521484 0)"/>
      <use xlink:href="#DejaVuSans-69" transform="translate(148.730469 0)"/>
      <use xlink:href="#DejaVuSans-66" transform="translate(176.513672 0)"/>
      <use xlink:href="#DejaVuSans-69" transform="translate(211.71875 0)"/>
      <use xlink:href="#DejaVuSans-63" transform="translate(239.501953 0)"/>
      <use xlink:href="#DejaVuSans-69" transform="translate(294.482422 0)"/>
      <use xlink:href="#DejaVuSans-61" transform="translate(322.265625 0)"/>
      <use xlink:href="#DejaVuSans-6c" transform="translate(383.544922 0)"/>
      <use xlink:href="#DejaVuSans-20" transform="translate(411.328125 0)"/>
      <use xlink:href="#DejaVuSans-64" transform="translate(443.115234 0)"/>
      <use xlink:href="#DejaVuSans-61" transform="translate(506.591797 0)"/>
      <use xlink:href="#DejaVuSans-74" transform="translate(567.871094 0)"/>
      <use xlink:href="#DejaVuSans-61" transform="translate(607.080078 0)"/>
     </g>
    </g>
   </g>
  </g>
 </g>
 <defs>
  <clipPath id="pd093df0499">
   <rect x="47.018" y="10.8" width="402.982" height="291.4"/>
  </clipPath>
 </defs>
</svg>
