<?xml version="1.0" encoding="utf-8" standalone="no"?>
<!DOCTYPE svg PUBLIC "-//W3C//DTD SVG 1.1//EN"
  "http://www.w3.org/Graphics/SVG/1.1/DTD/svg11.dtd">
<svg xmlns:xlink="http://www.w3.org/1999/xlink" width="460.8pt" height="345.6pt" viewBox="0 0 460.8 345.6" xmlns="http://www.w3.org/2000/svg" version="1.1">
 <metadata>
  <rdf:RDF xmlns:dc="http://purl.org/dc/elements/1.1/" xmlns:cc="http://creativecommons.org/ns#" xmlns:rdf="http://www.w3.org/1999/02/22-rdf-syntax-ns#">
   <cc:Work>
    <dc:type rdf:resource="http://purl.org/dc/dcmitype/StillImage"/>
    <dc:date>2026-02-12T01:19:52.627166</dc:date>
    <dc:format>image/svg+xml</dc:format>
    <dc:creator>
     <cc:Agent>
      <dc:title>Matplotlib v3.10.8, https://matplotlib.org/</dc:title>
     </cc:Agent>
    </dc:creator>
   </cc:Work>
  </rdf:RDF>
 </metadata>
 <defs>
  <style type="text/css">*{stroke-linejoin: round; stroke-linecap: butt}</style>
 </defs>
 <g id="figure_1">
  <g id="patch_1">
   <path d="M 0 345.6 
L 460.8 345.6 
L 460.8 0 
L 0 0 
L 0 345.6 
z
" style="fill: none"/>
  </g>
  <g id="axes_1">
   <g id="patch_2">
    <path d="M 47.018 302.2 
L 450 302.2 
L 450 10.8 
L 47.018 10.8 
L 47.018 302.2 
z
" style="fill: none"/>
   </g>
   <g id="FillBetweenPolyCollection_1">
    <path d="M 65.335364 213.0158 
L 65.335364 216.1071 
L 72.811839 200.888995 
L 80.288314 188.097449 
L 87.764788 177.367522 
L 95.241263 168.431273 
L 102.717738 161.233065 
L 110.194213 155.11588 
L 117.670688 149.386096 
L 125.147163 144.443906 
L 132.623638 139.414326 
L 140.100113 134.863415 
L 147.576588 130.511782 
L 155.053063 126.189616 
L 162.529538 122.234872 
L 170.006013 118.227655 
L 177.482488 114.428764 
L 184.958963 110.962129 
L 192.435438 107.377802 
L 199.911913 104.115675 
L 207.388388 100.712638 
L 214.864863 97.689536 
L 222.341338 94.565699 
L 229.817813 91.412235 
L 237.294288 88.439656 
L 244.770763 85.619958 
L 252.247237 82.815036 
L 259.723712 79.98224 
L 267.200187 77.213308 
L 274.676662 74.679952 
L 282.153137 72.111948 
L 289.629612 69.375723 
L 297.106087 67.002357 
L 304.582562 64.477717 
L 312.059037 62.08225 
L 319.535512 59.592308 
L 327.011987 57.256264 
L 334.488462 54.942275 
L 341.964937 52.605588 
L 349.441412 50.350703 
L 356.917887 48.126127 
L 364.394362 45.876395 
L 371.870837 43.938178 
L 379.347312 41.871472 
L 386.823787 39.552617 
L 394.300262 37.470204 
L 401.776737 35.385819 
L 409.253212 33.55356 
L 416.729686 31.600273 
L 424.206161 29.660919 
L 431.682636 27.207165 
L 431.682636 24.045455 
L 431.682636 24.045455 
L 424.206161 25.051239 
L 416.729686 27.22596 
L 409.253212 29.458532 
L 401.776737 31.881554 
L 394.300262 34.36444 
L 386.823787 36.291616 
L 379.347312 38.470478 
L 371.870837 40.547809 
L 364.394362 42.839921 
L 356.917887 45.096293 
L 349.441412 47.268633 
L 341.964937 49.477831 
L 334.488462 51.698135 
L 327.011987 54.061758 
L 319.535512 56.557559 
L 312.059037 58.830645 
L 304.582562 61.430031 
L 297.106087 63.901604 
L 289.629612 66.494351 
L 282.153137 68.929741 
L 274.676662 71.511104 
L 267.200187 74.189553 
L 259.723712 76.872732 
L 252.247237 79.666557 
L 244.770763 82.56761 
L 237.294288 85.417811 
L 229.817813 88.343459 
L 222.341338 91.463296 
L 214.864863 94.6669 
L 207.388388 97.775704 
L 199.911913 101.046313 
L 192.435438 104.324674 
L 184.958963 107.843232 
L 177.482488 111.363891 
L 170.006013 115.130948 
L 162.529538 119.055527 
L 155.053063 122.987428 
L 147.576588 127.281648 
L 140.100113 131.658459 
L 132.623638 136.265308 
L 125.147163 141.072044 
L 117.670688 146.056415 
L 110.194213 151.809706 
L 102.717738 158.076562 
L 95.241263 165.339695 
L 87.764788 173.642229 
L 80.288314 183.902947 
L 72.811839 196.571821 
L 65.335364 213.0158 
z
" clip-path="url(#p00d6b1203e)" style="fill: #1f77b4; fill-opacity: 0.27"/>
   </g>
   <g id="FillBetweenPolyCollection_2">
    <path d="M 65.335364 214.427568 
L 65.335364 214.646784 
L 72.811839 198.867948 
L 80.288314 186.108252 
L 87.764788 175.716927 
L 95.241263 167.129015 
L 102.717738 159.874227 
L 110.194213 153.578024 
L 117.670688 147.956162 
L 125.147163 142.804351 
L 132.623638 137.984806 
L 140.100113 133.411109 
L 147.576588 129.034484 
L 155.053063 124.830131 
L 162.529538 120.786332 
L 170.006013 116.896658 
L 177.482488 113.15485 
L 184.958963 109.552276 
L 192.435438 106.077421 
L 199.911913 102.716737 
L 207.388388 99.456211 
L 214.864863 96.283012 
L 222.341338 93.186755 
L 229.817813 90.16014 
L 237.294288 87.198862 
L 244.770763 84.300929 
L 252.247237 81.46557 
L 259.723712 78.692088 
L 267.200187 75.978858 
L 274.676662 73.322791 
L 282.153137 70.71929 
L 289.629612 68.162743 
L 297.106087 65.647398 
L 304.582562 63.168394 
L 312.059037 60.72267 
L 319.535512 58.3095 
L 327.011987 55.930448 
L 334.488462 53.58868 
L 341.964937 51.28768 
L 349.441412 49.029606 
L 356.917887 46.81364 
L 364.394362 44.634768 
L 371.870837 42.48347 
L 379.347312 40.346729 
L 386.823787 38.210684 
L 394.300262 36.06502 
L 401.776737 33.908996 
L 409.253212 31.758733 
L 416.729686 29.655181 
L 424.206161 27.671936 
L 431.682636 25.922028 
L 431.682636 25.427136 
L 431.682636 25.427136 
L 424.206161 27.17928 
L 416.729686 29.164974 
L 409.253212 31.271084 
L 401.776737 33.423952 
L 394.300262 35.582604 
L 386.823787 37.730911 
L 379.347312 39.869622 
L 371.870837 42.009064 
L 364.394362 44.163109 
L 356.917887 46.344779 
L 349.441412 48.5636 
L 341.964937 50.824583 
L 334.488462 53.12854 
L 327.011987 55.47331 
L 319.535512 57.855407 
L 312.059037 60.27167 
L 304.582562 62.720533 
L 297.106087 65.202731 
L 289.629612 67.721335 
L 282.153137 70.281214 
L 274.676662 72.888127 
L 267.200187 75.547688 
L 259.723712 78.264491 
L 252.247237 81.041624 
L 244.770763 83.880704 
L 237.294288 86.782431 
L 229.817813 89.747569 
L 222.341338 92.778127 
L 214.864863 95.878418 
L 207.388388 99.055768 
L 199.911913 102.320594 
L 192.435438 105.685763 
L 184.958963 109.165314 
L 177.482488 112.772819 
L 170.006013 116.519809 
L 162.529538 120.414919 
L 155.053063 124.464395 
L 147.576588 128.674654 
L 140.100113 133.057413 
L 132.623638 137.637668 
L 125.147163 142.464472 
L 117.670688 147.624084 
L 110.194213 153.253751 
L 102.717738 159.559504 
L 95.241263 166.826595 
L 87.764788 175.429507 
L 80.288314 185.838928 
L 72.811839 198.621612 
L 65.335364 214.427568 
z
" clip-path="url(#p00d6b1203e)" style="fill: #ff7f0e; fill-opacity: 0.45"/>
   </g>
   <g id="FillBetweenPolyCollection_3">
    <path d="M 65.335364 251.457807 
L 65.335364 254.39319 
L 72.811839 246.82523 
L 80.288314 239.993808 
L 87.764788 234.276865 
L 95.241263 229.6062 
L 102.717738 225.79345 
L 110.194213 222.448902 
L 117.670688 219.324136 
L 125.147163 216.612661 
L 132.623638 213.986074 
L 140.100113 211.475925 
L 147.576588 209.111352 
L 155.053063 206.868089 
L 162.529538 204.70613 
L 170.006013 202.65807 
L 177.482488 200.492022 
L 184.958963 198.574324 
L 192.435438 196.750575 
L 199.911913 194.981818 
L 207.388388 193.191019 
L 214.864863 191.546228 
L 222.341338 189.919378 
L 229.817813 188.172912 
L 237.294288 186.623425 
L 244.770763 184.914177 
L 252.247237 183.409611 
L 259.723712 181.946505 
L 267.200187 180.493636 
L 274.676662 179.053785 
L 282.153137 177.735653 
L 289.629612 176.290369 
L 297.106087 174.927963 
L 304.582562 173.412059 
L 312.059037 172.228709 
L 319.535512 170.886307 
L 327.011987 169.669662 
L 334.488462 168.418005 
L 341.964937 167.314947 
L 349.441412 165.984266 
L 356.917887 164.63413 
L 364.394362 163.568691 
L 371.870837 162.389879 
L 379.347312 161.196079 
L 386.823787 160.014009 
L 394.300262 158.846792 
L 401.776737 157.950036 
L 409.253212 157.078169 
L 416.729686 156.192232 
L 424.206161 155.090095 
L 431.682636 153.438076 
L 431.682636 150.251868 
L 431.682636 150.251868 
L 424.206161 150.436817 
L 416.729686 151.452614 
L 409.253212 152.896398 
L 401.776737 154.173753 
L 394.300262 155.755627 
L 386.823787 156.814545 
L 379.347312 157.834395 
L 371.870837 159.153098 
L 364.394362 160.272932 
L 356.917887 161.545958 
L 349.441412 162.814619 
L 341.964937 164.044577 
L 334.488462 165.32943 
L 327.011987 166.552488 
L 319.535512 167.767248 
L 312.059037 169.217027 
L 304.582562 170.413912 
L 297.106087 171.752667 
L 289.629612 173.214834 
L 282.153137 174.53591 
L 274.676662 176.023273 
L 267.200187 177.386186 
L 259.723712 178.910099 
L 252.247237 180.286466 
L 244.770763 181.90421 
L 237.294288 183.375492 
L 229.817813 185.137783 
L 222.341338 186.819868 
L 214.864863 188.432024 
L 207.388388 190.209905 
L 199.911913 191.885841 
L 192.435438 193.479601 
L 184.958963 195.557023 
L 177.482488 197.473838 
L 170.006013 199.566634 
L 162.529538 201.585792 
L 155.053063 203.503496 
L 147.576588 206.05374 
L 140.100113 208.445634 
L 132.623638 210.929061 
L 125.147163 213.398086 
L 117.670688 216.120944 
L 110.194213 219.035422 
L 102.717738 222.636543 
L 95.241263 226.347487 
L 87.764788 230.682901 
L 80.288314 235.872609 
L 72.811839 242.518915 
L 65.335364 251.457807 
z
" clip-path="url(#p00d6b1203e)" style="fill: #2ca02c; fill-opacity: 0.27"/>
   </g>
   <g id="FillBetweenPolyCollection_4">
    <path d="M 65.335364 252.825086 
L 65.335364 252.953587 
L 72.811839 244.754935 
L 80.288314 238.085919 
L 87.764788 232.623464 
L 95.241263 228.085182 
L 102.717738 224.234337 
L 110.194213 220.88099 
L 117.670688 217.879828 
L 125.147163 215.125479 
L 132.623638 212.546138 
L 140.100113 210.096398 
L 147.576588 207.750083 
L 155.053063 205.493689 
L 162.529538 203.320905 
L 170.006013 201.228504 
L 177.482488 199.213592 
L 184.958963 197.272171 
L 192.435438 195.398729 
L 199.911913 193.586569 
L 207.388388 191.828547 
L 214.864863 190.11789 
L 222.341338 188.448885 
L 229.817813 186.817285 
L 237.294288 185.220349 
L 244.770763 183.6566 
L 252.247237 182.125334 
L 259.723712 180.626081 
L 267.200187 179.158109 
L 274.676662 177.720095 
L 282.153137 176.310043 
L 289.629612 174.92544 
L 297.106087 173.563608 
L 304.582562 172.222158 
L 312.059037 170.899406 
L 319.535512 169.594661 
L 327.011987 168.308248 
L 334.488462 167.041255 
L 341.964937 165.795011 
L 349.441412 164.570371 
L 356.917887 163.366992 
L 364.394362 162.182764 
L 371.870837 161.013627 
L 379.347312 159.85396 
L 386.823787 158.697695 
L 394.300262 157.540198 
L 401.776737 156.380896 
L 409.253212 155.226473 
L 416.729686 154.094393 
L 424.206161 153.016369 
L 431.682636 152.041391 
L 431.682636 151.59325 
L 431.682636 151.59325 
L 424.206161 152.571163 
L 416.729686 153.652403 
L 409.253212 154.78786 
L 401.776737 155.945735 
L 394.300262 157.10852 
L 386.823787 158.269506 
L 379.347312 159.429268 
L 371.870837 160.592449 
L 364.394362 161.765134 
L 356.917887 162.952961 
L 349.441412 164.160004 
L 341.964937 165.388383 
L 334.488462 166.638451 
L 327.011987 167.90935 
L 319.535512 169.199752 
L 312.059037 170.508566 
L 304.582562 171.835462 
L 297.106087 173.181128 
L 289.629612 174.547244 
L 282.153137 175.936198 
L 274.676662 177.350662 
L 267.200187 178.793154 
L 259.723712 180.26567 
L 252.247237 181.769537 
L 244.770763 183.305496 
L 237.294288 184.874028 
L 229.817813 186.475848 
L 222.341338 188.112456 
L 214.864863 189.786611 
L 207.388388 191.502589 
L 199.911913 193.266122 
L 192.435438 195.084005 
L 184.958963 196.963399 
L 177.482488 198.911009 
L 170.006013 200.932345 
L 162.529538 203.031399 
L 155.053063 205.211061 
L 147.576588 207.474556 
L 140.100113 209.828216 
L 132.623638 212.285599 
L 125.147163 214.872996 
L 117.670688 217.635993 
L 110.194213 220.646681 
L 102.717738 224.01083 
L 95.241263 227.874279 
L 87.764788 232.427491 
L 80.288314 237.907979 
L 72.811839 244.599156 
L 65.335364 252.825086 
z
" clip-path="url(#p00d6b1203e)" style="fill: #d62728; fill-opacity: 0.45"/>
   </g>
   <g id="FillBetweenPolyCollection_5">
    <path d="M 65.335364 273.615526 
L 65.335364 276.765992 
L 72.811839 274.197753 
L 80.288314 271.793349 
L 87.764788 269.258556 
L 95.241263 267.32199 
L 102.717738 265.929087 
L 110.194213 264.797594 
L 117.670688 263.738935 
L 125.147163 262.560497 
L 132.623638 261.347981 
L 140.100113 260.490454 
L 147.576588 259.688087 
L 155.053063 258.8327 
L 162.529538 258.085054 
L 170.006013 257.150602 
L 177.482488 256.235664 
L 184.958963 255.568128 
L 192.435438 254.94428 
L 199.911913 254.235521 
L 207.388388 253.462783 
L 214.864863 252.898043 
L 222.341338 252.354061 
L 229.817813 251.657512 
L 237.294288 250.946813 
L 244.770763 250.46233 
L 252.247237 249.87331 
L 259.723712 249.243043 
L 267.200187 248.73786 
L 274.676662 248.167026 
L 282.153137 247.48044 
L 289.629612 246.960725 
L 297.106087 246.557672 
L 304.582562 245.931034 
L 312.059037 245.537045 
L 319.535512 245.113017 
L 327.011987 244.453635 
L 334.488462 244.136717 
L 341.964937 243.730642 
L 349.441412 242.966606 
L 356.917887 242.521675 
L 364.394362 242.253257 
L 371.870837 241.822188 
L 379.347312 241.450152 
L 386.823787 240.931026 
L 394.300262 240.370819 
L 401.776737 240.116621 
L 409.253212 240.052783 
L 416.729686 239.876697 
L 424.206161 239.428883 
L 431.682636 238.265651 
L 431.682636 235.091955 
L 431.682636 235.091955 
L 424.206161 234.741976 
L 416.729686 235.234712 
L 409.253212 235.832634 
L 401.776737 236.659074 
L 394.300262 237.272501 
L 386.823787 237.636296 
L 379.347312 238.038757 
L 371.870837 238.577533 
L 364.394362 239.016184 
L 356.917887 239.492547 
L 349.441412 239.91629 
L 341.964937 240.441158 
L 334.488462 240.929865 
L 327.011987 241.400519 
L 319.535512 241.934073 
L 312.059037 242.449469 
L 304.582562 242.99477 
L 297.106087 243.471448 
L 289.629612 243.870358 
L 282.153137 244.504488 
L 274.676662 244.894419 
L 267.200187 245.521489 
L 259.723712 246.089885 
L 252.247237 246.650258 
L 244.770763 247.325047 
L 237.294288 247.969638 
L 229.817813 248.608599 
L 222.341338 249.246518 
L 214.864863 249.891735 
L 207.388388 250.470663 
L 199.911913 250.971585 
L 192.435438 251.822124 
L 184.958963 252.490359 
L 177.482488 253.451458 
L 170.006013 254.02703 
L 162.529538 254.812215 
L 155.053063 255.564853 
L 147.576588 256.50188 
L 140.100113 257.457754 
L 132.623638 258.421258 
L 125.147163 259.233481 
L 117.670688 260.295191 
L 110.194213 261.439226 
L 102.717738 262.94401 
L 95.241263 264.276933 
L 87.764788 265.630205 
L 80.288314 267.414417 
L 72.811839 269.937448 
L 65.335364 273.615526 
z
" clip-path="url(#p00d6b1203e)" style="fill: #9467bd; fill-opacity: 0.27"/>
   </g>
   <g id="FillBetweenPolyCollection_6">
    <path d="M 65.335364 275.109796 
L 65.335364 275.196797 
L 72.811839 272.144834 
L 80.288314 269.657101 
L 87.764788 267.613778 
L 95.241263 265.910322 
L 102.717738 264.459352 
L 110.194213 263.19103 
L 117.670688 262.052174 
L 125.147163 261.00443 
L 132.623638 260.021818 
L 140.100113 259.08801 
L 147.576588 258.193619 
L 155.053063 257.333762 
L 162.529538 256.506049 
L 170.006013 255.709092 
L 177.482488 254.941561 
L 184.958963 254.201688 
L 192.435438 253.487191 
L 199.911913 252.795423 
L 207.388388 252.123666 
L 214.864863 251.46944 
L 222.341338 250.830734 
L 229.817813 250.206125 
L 237.294288 249.594747 
L 244.770763 248.996168 
L 252.247237 248.41019 
L 259.723712 247.836618 
L 267.200187 247.275096 
L 274.676662 246.724991 
L 282.153137 246.185407 
L 289.629612 245.655266 
L 297.106087 245.133484 
L 304.582562 244.619152 
L 312.059037 244.111706 
L 319.535512 243.611018 
L 327.011987 243.117374 
L 334.488462 242.631343 
L 341.964937 242.153535 
L 349.441412 241.68429 
L 356.917887 241.223383 
L 364.394362 240.769814 
L 371.870837 240.321769 
L 379.347312 239.876826 
L 386.823787 239.432462 
L 394.300262 238.986862 
L 401.776737 238.540009 
L 409.253212 238.094971 
L 416.729686 237.659266 
L 424.206161 237.24615 
L 431.682636 236.875671 
L 431.682636 236.573341 
L 431.682636 236.573341 
L 424.206161 236.946264 
L 416.729686 237.361711 
L 409.253212 237.799673 
L 401.776737 238.246932 
L 394.300262 238.69601 
L 386.823787 239.143875 
L 379.347312 239.590566 
L 371.870837 240.037909 
L 364.394362 240.488428 
L 356.917887 240.944537 
L 349.441412 241.408034 
L 341.964937 241.879905 
L 334.488462 242.360355 
L 327.011987 242.849035 
L 319.535512 243.345333 
L 312.059037 243.848682 
L 304.582562 244.358805 
L 297.106087 244.875846 
L 289.629612 245.400384 
L 282.153137 245.933346 
L 274.676662 246.475831 
L 267.200187 247.028921 
L 259.723712 247.59352 
L 252.247237 248.170251 
L 244.770763 248.759469 
L 237.294288 249.361355 
L 229.817813 249.976105 
L 222.341338 250.604145 
L 214.864863 251.246339 
L 207.388388 251.904125 
L 199.911913 252.579529 
L 192.435438 253.275056 
L 184.958963 253.993446 
L 177.482488 254.737368 
L 170.006013 255.509127 
L 162.529538 256.3105 
L 155.053063 257.142829 
L 147.576588 258.0075 
L 140.100113 258.906909 
L 132.623638 259.845961 
L 125.147163 260.834094 
L 117.670688 261.887729 
L 110.194213 263.033007 
L 102.717738 264.308527 
L 95.241263 265.767819 
L 87.764788 267.481181 
L 80.288314 269.536575 
L 72.811839 272.039238 
L 65.335364 275.109796 
z
" clip-path="url(#p00d6b1203e)" style="fill: #8c564b; fill-opacity: 0.45"/>
   </g>
   <g id="FillBetweenPolyCollection_7">
    <path d="M 65.335364 279.022523 
L 65.335364 288.954545 
L 72.811839 288.548335 
L 80.288314 287.582771 
L 87.764788 286.66481 
L 95.241263 286.416841 
L 102.717738 286.515474 
L 110.194213 286.052443 
L 117.670688 285.397231 
L 125.147163 285.378293 
L 132.623638 284.674941 
L 140.100113 284.849509 
L 147.576588 284.643756 
L 155.053063 284.464163 
L 162.529538 284.126401 
L 170.006013 284.204486 
L 177.482488 283.823556 
L 184.958963 283.502576 
L 192.435438 283.762842 
L 199.911913 283.130648 
L 207.388388 283.287305 
L 214.864863 283.222369 
L 222.341338 282.80224 
L 229.817813 282.926081 
L 237.294288 282.742028 
L 244.770763 282.643913 
L 252.247237 282.513533 
L 259.723712 282.418096 
L 267.200187 282.4339 
L 274.676662 282.00132 
L 282.153137 282.001714 
L 289.629612 281.626216 
L 297.106087 281.453132 
L 304.582562 281.678491 
L 312.059037 281.198454 
L 319.535512 281.272237 
L 327.011987 281.26627 
L 334.488462 280.728791 
L 341.964937 281.022283 
L 349.441412 280.664509 
L 356.917887 280.848286 
L 364.394362 280.625924 
L 371.870837 280.627821 
L 379.347312 279.877155 
L 386.823787 280.243238 
L 394.300262 280.074458 
L 401.776737 279.962828 
L 409.253212 279.608502 
L 416.729686 279.603242 
L 424.206161 280.002949 
L 431.682636 279.991763 
L 431.682636 269.517854 
L 431.682636 269.517854 
L 424.206161 269.489712 
L 416.729686 270.400905 
L 409.253212 270.187277 
L 401.776737 270.56151 
L 394.300262 270.57111 
L 386.823787 270.578768 
L 379.347312 271.150273 
L 371.870837 271.035568 
L 364.394362 271.456245 
L 356.917887 271.558788 
L 349.441412 271.480024 
L 341.964937 271.402317 
L 334.488462 271.697883 
L 327.011987 271.921105 
L 319.535512 271.90955 
L 312.059037 272.073827 
L 304.582562 272.304044 
L 297.106087 272.47561 
L 289.629612 272.489279 
L 282.153137 272.910655 
L 274.676662 272.689149 
L 267.200187 273.457707 
L 259.723712 273.189169 
L 252.247237 272.718514 
L 244.770763 273.094569 
L 237.294288 273.471972 
L 229.817813 273.733358 
L 222.341338 273.621376 
L 214.864863 273.98891 
L 207.388388 273.989813 
L 199.911913 274.101921 
L 192.435438 273.959723 
L 184.958963 274.474889 
L 177.482488 274.653619 
L 170.006013 274.794167 
L 162.529538 275.305309 
L 155.053063 275.207186 
L 147.576588 274.993524 
L 140.100113 275.53011 
L 132.623638 275.793879 
L 125.147163 276.448968 
L 117.670688 276.958198 
L 110.194213 276.504315 
L 102.717738 276.957779 
L 95.241263 277.254262 
L 87.764788 277.475682 
L 80.288314 278.025241 
L 72.811839 278.668248 
L 65.335364 279.022523 
z
" clip-path="url(#p00d6b1203e)" style="fill: #e377c2; fill-opacity: 0.27"/>
   </g>
   <g id="FillBetweenPolyCollection_8">
    <path d="M 65.335364 284.040318 
L 65.335364 284.07778 
L 72.811839 283.354967 
L 80.288314 282.77571 
L 87.764788 282.306362 
L 95.241263 281.91835 
L 102.717738 281.58854 
L 110.194213 281.299129 
L 117.670688 281.03717 
L 125.147163 280.793866 
L 132.623638 280.563709 
L 140.100113 280.343625 
L 147.576588 280.132165 
L 155.053063 279.928825 
L 162.529538 279.733539 
L 170.006013 279.546323 
L 177.482488 279.367087 
L 184.958963 279.195558 
L 192.435438 279.031292 
L 199.911913 278.873725 
L 207.388388 278.722232 
L 214.864863 278.576172 
L 222.341338 278.434904 
L 229.817813 278.297782 
L 237.294288 278.164129 
L 244.770763 278.033218 
L 252.247237 277.904263 
L 259.723712 277.776444 
L 267.200187 277.648964 
L 274.676662 277.521137 
L 282.153137 277.39248 
L 289.629612 277.262811 
L 297.106087 277.132297 
L 304.582562 277.001461 
L 312.059037 276.871102 
L 319.535512 276.742156 
L 327.011987 276.61548 
L 334.488462 276.491614 
L 341.964937 276.370543 
L 349.441412 276.251521 
L 356.917887 276.133011 
L 364.394362 276.012782 
L 371.870837 275.888209 
L 379.347312 275.756782 
L 386.823787 275.616811 
L 394.300262 275.468287 
L 401.776737 275.313827 
L 409.253212 275.159601 
L 416.729686 275.016136 
L 424.206161 274.89887 
L 431.682636 274.828356 
L 431.682636 274.717799 
L 431.682636 274.717799 
L 424.206161 274.789184 
L 416.729686 274.907133 
L 409.253212 275.051141 
L 401.776737 275.205844 
L 394.300262 275.360804 
L 386.823787 275.509941 
L 379.347312 275.650713 
L 371.870837 275.783185 
L 364.394362 275.909076 
L 356.917887 276.030893 
L 349.441412 276.151233 
L 341.964937 276.272274 
L 334.488462 276.395484 
L 327.011987 276.521531 
L 319.535512 276.650353 
L 312.059037 276.781341 
L 304.582562 276.913578 
L 297.106087 277.046092 
L 289.629612 277.178062 
L 282.153137 277.308968 
L 274.676662 277.438657 
L 267.200187 277.567344 
L 259.723712 277.695547 
L 252.247237 277.823997 
L 244.770763 277.953534 
L 237.294288 278.085015 
L 229.817813 278.21926 
L 222.341338 278.357024 
L 214.864863 278.499002 
L 207.388388 278.645855 
L 199.911913 278.798233 
L 192.435438 278.956783 
L 184.958963 279.122129 
L 177.482488 279.294835 
L 170.006013 279.475341 
L 162.529538 279.66391 
L 155.053063 279.860619 
L 147.576588 280.065435 
L 140.100113 280.278411 
L 132.623638 280.500034 
L 125.147163 280.731752 
L 117.670688 280.976659 
L 110.194213 281.240304 
L 102.717738 281.531578 
L 95.241263 281.86357 
L 87.764788 282.254296 
L 80.288314 282.727177 
L 72.811839 283.311152 
L 65.335364 284.040318 
z
" clip-path="url(#p00d6b1203e)" style="fill: #7f7f7f; fill-opacity: 0.45"/>
   </g>
   <g id="matplotlib.axis_1">
    <g id="xtick_1">
     <g id="line2d_1">
      <defs>
       <path id="m4aba6230ba" d="M 0 0 
L 0 3.5 
" style="stroke: #000000; stroke-width: 0.8"/>
      </defs>
      <g>
       <use xlink:href="#m4aba6230ba" x="61.634886" y="302.2" style="stroke: #000000; stroke-width: 0.8"/>
      </g>
     </g>
     <g id="text_1">
      <!-- 0 -->
      <g transform="translate(58.453636 316.798437) scale(0.1 -0.1)">
       <defs>
        <path id="DejaVuSans-30" d="M 2034 4250 
Q 1547 4250 1301 3770 
Q 1056 3291 1056 2328 
Q 1056 1369 1301 889 
Q 1547 409 2034 409 
Q 2525 409 2770 889 
Q 3016 1369 3016 2328 
Q 3016 3291 2770 3770 
Q 2525 4250 2034 4250 
z
M 2034 4750 
Q 2819 4750 3233 4129 
Q 3647 3509 3647 2328 
Q 3647 1150 3233 529 
Q 2819 -91 2034 -91 
Q 1250 -91 836 529 
Q 422 1150 422 2328 
Q 422 3509 836 4129 
Q 1250 4750 2034 4750 
z
" transform="scale(0.015625)"/>
       </defs>
       <use xlink:href="#DejaVuSans-30"/>
      </g>
     </g>
    </g>
    <g id="xtick_2">
     <g id="line2d_2">
      <g>
       <use xlink:href="#m4aba6230ba" x="135.644436" y="302.2" style="stroke: #000000; stroke-width: 0.8"/>
      </g>
     </g>
     <g id="text_2">
      <!-- 1 -->
      <g transform="translate(132.463186 316.798437) scale(0.1 -0.1)">
       <defs>
        <path id="DejaVuSans-31" d="M 794 531 
L 1825 531 
L 1825 4091 
L 703 3866 
L 703 4441 
L 1819 4666 
L 2450 4666 
L 2450 531 
L 3481 531 
L 3481 0 
L 794 0 
L 794 531 
z
" transform="scale(0.015625)"/>
       </defs>
       <use xlink:href="#DejaVuSans-31"/>
      </g>
     </g>
    </g>
    <g id="xtick_3">
     <g id="line2d_3">
      <g>
       <use xlink:href="#m4aba6230ba" x="209.653986" y="302.2" style="stroke: #000000; stroke-width: 0.8"/>
      </g>
     </g>
     <g id="text_3">
      <!-- 2 -->
      <g transform="translate(206.472736 316.798437) scale(0.1 -0.1)">
       <defs>
        <path id="DejaVuSans-32" d="M 1228 531 
L 3431 531 
L 3431 0 
L 469 0 
L 469 531 
Q 828 903 1448 1529 
Q 2069 2156 2228 2338 
Q 2531 2678 2651 2914 
Q 2772 3150 2772 3378 
Q 2772 3750 2511 3984 
Q 2250 4219 1831 4219 
Q 1534 4219 1204 4116 
Q 875 4013 500 3803 
L 500 4441 
Q 881 4594 1212 4672 
Q 1544 4750 1819 4750 
Q 2544 4750 2975 4387 
Q 3406 4025 3406 3419 
Q 3406 3131 3298 2873 
Q 3191 2616 2906 2266 
Q 2828 2175 2409 1742 
Q 1991 1309 1228 531 
z
" transform="scale(0.015625)"/>
       </defs>
       <use xlink:href="#DejaVuSans-32"/>
      </g>
     </g>
    </g>
    <g id="xtick_4">
     <g id="line2d_4">
      <g>
       <use xlink:href="#m4aba6230ba" x="283.663536" y="302.2" style="stroke: #000000; stroke-width: 0.8"/>
      </g>
     </g>
     <g id="text_4">
      <!-- 3 -->
      <g transform="translate(280.482286 316.798437) scale(0.1 -0.1)">
       <defs>
        <path id="DejaVuSans-33" d="M 2597 2516 
Q 3050 2419 3304 2112 
Q 3559 1806 3559 1356 
Q 3559 666 3084 287 
Q 2609 -91 1734 -91 
Q 1441 -91 1130 -33 
Q 819 25 488 141 
L 488 750 
Q 750 597 1062 519 
Q 1375 441 1716 441 
Q 2309 441 2620 675 
Q 2931 909 2931 1356 
Q 2931 1769 2642 2001 
Q 2353 2234 1838 2234 
L 1294 2234 
L 1294 2753 
L 1863 2753 
Q 2328 2753 2575 2939 
Q 2822 3125 2822 3475 
Q 2822 3834 2567 4026 
Q 2313 4219 1838 4219 
Q 1578 4219 1281 4162 
Q 984 4106 628 3988 
L 628 4550 
Q 988 4650 1302 4700 
Q 1616 4750 1894 4750 
Q 2613 4750 3031 4423 
Q 3450 4097 3450 3541 
Q 3450 3153 3228 2886 
Q 3006 2619 2597 2516 
z
" transform="scale(0.015625)"/>
       </defs>
       <use xlink:href="#DejaVuSans-33"/>
      </g>
     </g>
    </g>
    <g id="xtick_5">
     <g id="line2d_5">
      <g>
       <use xlink:href="#m4aba6230ba" x="357.673086" y="302.2" style="stroke: #000000; stroke-width: 0.8"/>
      </g>
     </g>
     <g id="text_5">
      <!-- 4 -->
      <g transform="translate(354.491836 316.798437) scale(0.1 -0.1)">
       <defs>
        <path id="DejaVuSans-34" d="M 2419 4116 
L 825 1625 
L 2419 1625 
L 2419 4116 
z
M 2253 4666 
L 3047 4666 
L 3047 1625 
L 3713 1625 
L 3713 1100 
L 3047 1100 
L 3047 0 
L 2419 0 
L 2419 1100 
L 313 1100 
L 313 1709 
L 2253 4666 
z
" transform="scale(0.015625)"/>
       </defs>
       <use xlink:href="#DejaVuSans-34"/>
      </g>
     </g>
    </g>
    <g id="xtick_6">
     <g id="line2d_6">
      <g>
       <use xlink:href="#m4aba6230ba" x="431.682636" y="302.2" style="stroke: #000000; stroke-width: 0.8"/>
      </g>
     </g>
     <g id="text_6">
      <!-- 5 -->
      <g transform="translate(428.501386 316.798437) scale(0.1 -0.1)">
       <defs>
        <path id="DejaVuSans-35" d="M 691 4666 
L 3169 4666 
L 3169 4134 
L 1269 4134 
L 1269 2991 
Q 1406 3038 1543 3061 
Q 1681 3084 1819 3084 
Q 2600 3084 3056 2656 
Q 3513 2228 3513 1497 
Q 3513 744 3044 326 
Q 2575 -91 1722 -91 
Q 1428 -91 1123 -41 
Q 819 9 494 109 
L 494 744 
Q 775 591 1075 516 
Q 1375 441 1709 441 
Q 2250 441 2565 725 
Q 2881 1009 2881 1497 
Q 2881 1984 2565 2268 
Q 2250 2553 1709 2553 
Q 1456 2553 1204 2497 
Q 953 2441 691 2322 
L 691 4666 
z
" transform="scale(0.015625)"/>
       </defs>
       <use xlink:href="#DejaVuSans-35"/>
      </g>
     </g>
    </g>
    <g id="text_7">
     <!-- $W$ (m/hour) -->
     <g transform="translate(220.059 330.476562) scale(0.1 -0.1)">
      <defs>
       <path id="DejaVuSans-Oblique-57" d="M 616 4666 
L 1228 4666 
L 1453 697 
L 3213 4666 
L 3916 4666 
L 4147 697 
L 5888 4666 
L 6528 4666 
L 4453 0 
L 3659 0 
L 3444 3891 
L 1697 0 
L 903 0 
L 616 4666 
z
" transform="scale(0.015625)"/>
       <path id="DejaVuSans-20" transform="scale(0.015625)"/>
       <path id="DejaVuSans-28" d="M 1984 4856 
Q 1566 4138 1362 3434 
Q 1159 2731 1159 2009 
Q 1159 1288 1364 580 
Q 1569 -128 1984 -844 
L 1484 -844 
Q 1016 -109 783 600 
Q 550 1309 550 2009 
Q 550 2706 781 3412 
Q 1013 4119 1484 4856 
L 1984 4856 
z
" transform="scale(0.015625)"/>
       <path id="DejaVuSans-6d" d="M 3328 2828 
Q 3544 3216 3844 3400 
Q 4144 3584 4550 3584 
Q 5097 3584 5394 3201 
Q 5691 2819 5691 2113 
L 5691 0 
L 5113 0 
L 5113 2094 
Q 5113 2597 4934 2840 
Q 4756 3084 4391 3084 
Q 3944 3084 3684 2787 
Q 3425 2491 3425 1978 
L 3425 0 
L 2847 0 
L 2847 2094 
Q 2847 2600 2669 2842 
Q 2491 3084 2119 3084 
Q 1678 3084 1418 2786 
Q 1159 2488 1159 1978 
L 1159 0 
L 581 0 
L 581 3500 
L 1159 3500 
L 1159 2956 
Q 1356 3278 1631 3431 
Q 1906 3584 2284 3584 
Q 2666 3584 2933 3390 
Q 3200 3197 3328 2828 
z
" transform="scale(0.015625)"/>
       <path id="DejaVuSans-2f" d="M 1625 4666 
L 2156 4666 
L 531 -594 
L 0 -594 
L 1625 4666 
z
" transform="scale(0.015625)"/>
       <path id="DejaVuSans-68" d="M 3513 2113 
L 3513 0 
L 2938 0 
L 2938 2094 
Q 2938 2591 2744 2837 
Q 2550 3084 2163 3084 
Q 1697 3084 1428 2787 
Q 1159 2491 1159 1978 
L 1159 0 
L 581 0 
L 581 4863 
L 1159 4863 
L 1159 2956 
Q 1366 3272 1645 3428 
Q 1925 3584 2291 3584 
Q 2894 3584 3203 3211 
Q 3513 2838 3513 2113 
z
" transform="scale(0.015625)"/>
       <path id="DejaVuSans-6f" d="M 1959 3097 
Q 1497 3097 1228 2736 
Q 959 2375 959 1747 
Q 959 1119 1226 758 
Q 1494 397 1959 397 
Q 2419 397 2687 759 
Q 2956 1122 2956 1747 
Q 2956 2369 2687 2733 
Q 2419 3097 1959 3097 
z
M 1959 3584 
Q 2709 3584 3137 3096 
Q 3566 2609 3566 1747 
Q 3566 888 3137 398 
Q 2709 -91 1959 -91 
Q 1206 -91 779 398 
Q 353 888 353 1747 
Q 353 2609 779 3096 
Q 1206 3584 1959 3584 
z
" transform="scale(0.015625)"/>
       <path id="DejaVuSans-75" d="M 544 1381 
L 544 3500 
L 1119 3500 
L 1119 1403 
Q 1119 906 1312 657 
Q 1506 409 1894 409 
Q 2359 409 2629 706 
Q 2900 1003 2900 1516 
L 2900 3500 
L 3475 3500 
L 3475 0 
L 2900 0 
L 2900 538 
Q 2691 219 2414 64 
Q 2138 -91 1772 -91 
Q 1169 -91 856 284 
Q 544 659 544 1381 
z
M 1991 3584 
L 1991 3584 
z
" transform="scale(0.015625)"/>
       <path id="DejaVuSans-72" d="M 2631 2963 
Q 2534 3019 2420 3045 
Q 2306 3072 2169 3072 
Q 1681 3072 1420 2755 
Q 1159 2438 1159 1844 
L 1159 0 
L 581 0 
L 581 3500 
L 1159 3500 
L 1159 2956 
Q 1341 3275 1631 3429 
Q 1922 3584 2338 3584 
Q 2397 3584 2469 3576 
Q 2541 3569 2628 3553 
L 2631 2963 
z
" transform="scale(0.015625)"/>
       <path id="DejaVuSans-29" d="M 513 4856 
L 1013 4856 
Q 1481 4119 1714 3412 
Q 1947 2706 1947 2009 
Q 1947 1309 1714 600 
Q 1481 -109 1013 -844 
L 513 -844 
Q 928 -128 1133 580 
Q 1338 1288 1338 2009 
Q 1338 2731 1133 3434 
Q 928 4138 513 4856 
z
" transform="scale(0.015625)"/>
      </defs>
      <use xlink:href="#DejaVuSans-Oblique-57" transform="translate(0 0.015625)"/>
      <use xlink:href="#DejaVuSans-20" transform="translate(98.876953 0.015625)"/>
      <use xlink:href="#DejaVuSans-28" transform="translate(130.664062 0.015625)"/>
      <use xlink:href="#DejaVuSans-6d" transform="translate(169.677734 0.015625)"/>
      <use xlink:href="#DejaVuSans-2f" transform="translate(267.089844 0.015625)"/>
      <use xlink:href="#DejaVuSans-68" transform="translate(300.78125 0.015625)"/>
      <use xlink:href="#DejaVuSans-6f" transform="translate(364.160156 0.015625)"/>
      <use xlink:href="#DejaVuSans-75" transform="translate(425.341797 0.015625)"/>
      <use xlink:href="#DejaVuSans-72" transform="translate(488.720703 0.015625)"/>
      <use xlink:href="#DejaVuSans-29" transform="translate(529.833984 0.015625)"/>
     </g>
    </g>
   </g>
   <g id="matplotlib.axis_2">
    <g id="ytick_1">
     <g id="line2d_7">
      <defs>
       <path id="mfe0aca2721" d="M 0 0 
L -3.5 0 
" style="stroke: #000000; stroke-width: 0.8"/>
      </defs>
      <g>
       <use xlink:href="#mfe0aca2721" x="47.018" y="286.569795" style="stroke: #000000; stroke-width: 0.8"/>
      </g>
     </g>
     <g id="text_8">
      <!-- 0 -->
      <g transform="translate(33.6555 290.369014) scale(0.1 -0.1)">
       <use xlink:href="#DejaVuSans-30"/>
      </g>
     </g>
    </g>
    <g id="ytick_2">
     <g id="line2d_8">
      <g>
       <use xlink:href="#mfe0aca2721" x="47.018" y="250.170513" style="stroke: #000000; stroke-width: 0.8"/>
      </g>
     </g>
     <g id="text_9">
      <!-- 5 -->
      <g transform="translate(33.6555 253.969731) scale(0.1 -0.1)">
       <use xlink:href="#DejaVuSans-35"/>
      </g>
     </g>
    </g>
    <g id="ytick_3">
     <g id="line2d_9">
      <g>
       <use xlink:href="#mfe0aca2721" x="47.018" y="213.77123" style="stroke: #000000; stroke-width: 0.8"/>
      </g>
     </g>
     <g id="text_10">
      <!-- 10 -->
      <g transform="translate(27.293 217.570449) scale(0.1 -0.1)">
       <use xlink:href="#DejaVuSans-31"/>
       <use xlink:href="#DejaVuSans-30" transform="translate(63.623047 0)"/>
      </g>
     </g>
    </g>
    <g id="ytick_4">
     <g id="line2d_10">
      <g>
       <use xlink:href="#mfe0aca2721" x="47.018" y="177.371948" style="stroke: #000000; stroke-width: 0.8"/>
      </g>
     </g>
     <g id="text_11">
      <!-- 15 -->
      <g transform="translate(27.293 181.171167) scale(0.1 -0.1)">
       <use xlink:href="#DejaVuSans-31"/>
       <use xlink:href="#DejaVuSans-35" transform="translate(63.623047 0)"/>
      </g>
     </g>
    </g>
    <g id="ytick_5">
     <g id="line2d_11">
      <g>
       <use xlink:href="#mfe0aca2721" x="47.018" y="140.972666" style="stroke: #000000; stroke-width: 0.8"/>
      </g>
     </g>
     <g id="text_12">
      <!-- 20 -->
      <g transform="translate(27.293 144.771885) scale(0.1 -0.1)">
       <use xlink:href="#DejaVuSans-32"/>
       <use xlink:href="#DejaVuSans-30" transform="translate(63.623047 0)"/>
      </g>
     </g>
    </g>
    <g id="ytick_6">
     <g id="line2d_12">
      <g>
       <use xlink:href="#mfe0aca2721" x="47.018" y="104.573384" style="stroke: #000000; stroke-width: 0.8"/>
      </g>
     </g>
     <g id="text_13">
      <!-- 25 -->
      <g transform="translate(27.293 108.372602) scale(0.1 -0.1)">
       <use xlink:href="#DejaVuSans-32"/>
       <use xlink:href="#DejaVuSans-35" transform="translate(63.623047 0)"/>
      </g>
     </g>
    </g>
    <g id="ytick_7">
     <g id="line2d_13">
      <g>
       <use xlink:href="#mfe0aca2721" x="47.018" y="68.174102" style="stroke: #000000; stroke-width: 0.8"/>
      </g>
     </g>
     <g id="text_14">
      <!-- 30 -->
      <g transform="translate(27.293 71.97332) scale(0.1 -0.1)">
       <use xlink:href="#DejaVuSans-33"/>
       <use xlink:href="#DejaVuSans-30" transform="translate(63.623047 0)"/>
      </g>
     </g>
    </g>
    <g id="ytick_8">
     <g id="line2d_14">
      <g>
       <use xlink:href="#mfe0aca2721" x="47.018" y="31.774819" style="stroke: #000000; stroke-width: 0.8"/>
      </g>
     </g>
     <g id="text_15">
      <!-- 35 -->
      <g transform="translate(27.293 35.574038) scale(0.1 -0.1)">
       <use xlink:href="#DejaVuSans-33"/>
       <use xlink:href="#DejaVuSans-35" transform="translate(63.623047 0)"/>
      </g>
     </g>
    </g>
    <g id="text_16">
     <!-- $Q_{lc}$ (kW) -->
     <g transform="translate(21.213312 176.8) rotate(-90) scale(0.1 -0.1)">
      <defs>
       <path id="DejaVuSans-Oblique-51" d="M 2309 -84 
Q 2275 -88 2237 -89 
Q 2200 -91 2125 -91 
Q 1250 -91 756 411 
Q 263 913 263 1797 
Q 263 2319 452 2844 
Q 641 3369 978 3788 
Q 1369 4269 1858 4509 
Q 2347 4750 2938 4750 
Q 3794 4750 4287 4245 
Q 4781 3741 4781 2869 
Q 4781 1928 4265 1147 
Q 3750 366 2919 44 
L 3553 -825 
L 2847 -825 
L 2309 -84 
z
M 2919 4238 
Q 2400 4238 2003 3986 
Q 1606 3734 1313 3219 
Q 1125 2891 1026 2522 
Q 928 2153 928 1778 
Q 928 1128 1239 775 
Q 1550 422 2119 422 
Q 2631 422 3032 676 
Q 3434 931 3719 1434 
Q 3909 1772 4009 2142 
Q 4109 2513 4109 2881 
Q 4109 3528 3796 3883 
Q 3484 4238 2919 4238 
z
" transform="scale(0.015625)"/>
       <path id="DejaVuSans-Oblique-6c" d="M 1172 4863 
L 1747 4863 
L 800 0 
L 225 0 
L 1172 4863 
z
" transform="scale(0.015625)"/>
       <path id="DejaVuSans-Oblique-63" d="M 3431 3366 
L 3316 2797 
Q 3109 2947 2876 3022 
Q 2644 3097 2394 3097 
Q 2119 3097 1870 3000 
Q 1622 2903 1453 2725 
Q 1184 2453 1037 2087 
Q 891 1722 891 1331 
Q 891 859 1127 628 
Q 1363 397 1844 397 
Q 2081 397 2348 469 
Q 2616 541 2906 684 
L 2797 116 
Q 2547 13 2283 -39 
Q 2019 -91 1741 -91 
Q 1044 -91 669 257 
Q 294 606 294 1253 
Q 294 1797 489 2255 
Q 684 2713 1069 3078 
Q 1331 3328 1684 3456 
Q 2038 3584 2456 3584 
Q 2700 3584 2940 3529 
Q 3181 3475 3431 3366 
z
" transform="scale(0.015625)"/>
       <path id="DejaVuSans-6b" d="M 581 4863 
L 1159 4863 
L 1159 1991 
L 2875 3500 
L 3609 3500 
L 1753 1863 
L 3688 0 
L 2938 0 
L 1159 1709 
L 1159 0 
L 581 0 
L 581 4863 
z
" transform="scale(0.015625)"/>
       <path id="DejaVuSans-57" d="M 213 4666 
L 850 4666 
L 1831 722 
L 2809 4666 
L 3519 4666 
L 4500 722 
L 5478 4666 
L 6119 4666 
L 4947 0 
L 4153 0 
L 3169 4050 
L 2175 0 
L 1381 0 
L 213 4666 
z
" transform="scale(0.015625)"/>
      </defs>
      <use xlink:href="#DejaVuSans-Oblique-51" transform="translate(0 0.015625)"/>
      <use xlink:href="#DejaVuSans-Oblique-6c" transform="translate(78.710938 -16.390625) scale(0.7)"/>
      <use xlink:href="#DejaVuSans-Oblique-63" transform="translate(98.15918 -16.390625) scale(0.7)"/>
      <use xlink:href="#DejaVuSans-20" transform="translate(139.379883 0.015625)"/>
      <use xlink:href="#DejaVuSans-28" transform="translate(171.166992 0.015625)"/>
      <use xlink:href="#DejaVuSans-6b" transform="translate(210.180664 0.015625)"/>
      <use xlink:href="#DejaVuSans-57" transform="translate(268.09082 0.015625)"/>
      <use xlink:href="#DejaVuSans-29" transform="translate(366.967773 0.015625)"/>
     </g>
    </g>
   </g>
   <g id="line2d_15">
    <path d="M 65.335364 214.529149 
L 72.811839 198.736979 
L 80.288314 185.96714 
L 87.764788 175.569198 
L 95.241263 166.974958 
L 102.717738 159.715103 
L 110.194213 153.414706 
L 117.670688 147.789224 
L 125.147163 142.633435 
L 132.623638 137.810076 
L 140.100113 133.233095 
L 147.576588 128.853477 
L 155.053063 124.646238 
L 162.529538 120.599666 
L 170.006013 116.707237 
L 177.482488 112.963535 
L 184.958963 109.359185 
L 192.435438 105.882666 
L 199.911913 102.520423 
L 207.388388 99.25843 
L 214.864863 96.08368 
L 222.341338 92.985446 
L 229.817813 89.956896 
L 237.294288 86.993709 
L 244.770763 84.094218 
L 252.247237 81.25741 
L 259.723712 78.482495 
L 267.200187 75.767857 
L 274.676662 73.110412 
L 282.153137 70.505568 
L 289.629612 67.947799 
L 297.106087 65.431376 
L 304.582562 62.951327 
L 312.059037 60.504589 
L 319.535512 58.090424 
L 327.011987 55.710394 
L 334.488462 53.367656 
L 341.964937 51.06569 
L 349.441412 48.806654 
L 356.917887 46.589705 
L 364.394362 44.409518 
L 371.870837 42.256931 
L 379.347312 40.118922 
L 386.823787 37.981813 
L 394.300262 35.835172 
L 401.776737 33.678199 
L 409.253212 31.527006 
L 416.729686 29.422529 
L 424.206161 27.438356 
L 431.682636 25.687508 
" clip-path="url(#p00d6b1203e)" style="fill: none; stroke: #1f77b4; stroke-width: 1.5; stroke-linecap: square"/>
   </g>
   <g id="line2d_16">
    <path d="M 65.335364 252.874607 
L 72.811839 244.660563 
L 80.288314 237.979098 
L 87.764788 232.506091 
L 95.241263 227.959035 
L 102.717738 224.100855 
L 110.194213 220.741219 
L 117.670688 217.734508 
L 125.147163 214.975262 
L 132.623638 212.391332 
L 140.100113 209.937244 
L 147.576588 207.586764 
L 155.053063 205.326354 
L 162.529538 203.149699 
L 170.006013 201.053561 
L 177.482488 199.03505 
L 184.958963 197.090165 
L 192.435438 195.213388 
L 199.911913 193.398016 
L 207.388388 191.636892 
L 214.864863 189.923231 
L 222.341338 188.25131 
L 229.817813 186.616871 
L 237.294288 185.017165 
L 244.770763 183.450702 
L 252.247237 181.916779 
L 259.723712 180.414921 
L 267.200187 178.944395 
L 274.676662 177.503869 
L 282.153137 176.091347 
L 289.629612 174.704315 
L 297.106087 173.34009 
L 304.582562 171.996282 
L 312.059037 170.67121 
L 319.535512 169.364183 
L 327.011987 168.075527 
L 334.488462 166.806336 
L 341.964937 165.557939 
L 349.441412 164.331192 
L 356.917887 163.12575 
L 364.394362 161.939496 
L 371.870837 160.768359 
L 379.347312 159.606708 
L 386.823787 158.44846 
L 394.300262 157.288972 
L 401.776737 156.127673 
L 409.253212 154.971263 
L 416.729686 153.837243 
L 424.206161 152.757394 
L 431.682636 151.780806 
" clip-path="url(#p00d6b1203e)" style="fill: none; stroke: #ff7f0e; stroke-width: 1.5; stroke-linecap: square"/>
   </g>
   <g id="line2d_17">
    <path d="M 65.335364 275.147783 
L 72.811839 272.085305 
L 80.288314 269.589133 
L 87.764788 267.538988 
L 95.241263 265.829932 
L 102.717738 264.374258 
L 110.194213 263.101864 
L 117.670688 261.959376 
L 125.147163 260.908299 
L 132.623638 259.922563 
L 140.100113 258.985786 
L 147.576588 258.088559 
L 155.053063 257.225984 
L 162.529538 256.395667 
L 170.006013 255.596218 
L 177.482488 254.826301 
L 184.958963 254.084143 
L 192.435438 253.367449 
L 199.911913 252.673561 
L 207.388388 251.999748 
L 214.864863 251.343515 
L 222.341338 250.702843 
L 229.817813 250.076299 
L 237.294288 249.463021 
L 244.770763 248.862578 
L 252.247237 248.274775 
L 259.723712 247.699423 
L 267.200187 247.136166 
L 274.676662 246.584378 
L 282.153137 246.043157 
L 289.629612 245.511424 
L 297.106087 244.988086 
L 304.582562 244.472225 
L 312.059037 243.963267 
L 319.535512 243.461076 
L 327.011987 242.965934 
L 334.488462 242.478411 
L 341.964937 241.999115 
L 349.441412 241.528391 
L 356.917887 241.066026 
L 364.394362 240.611028 
L 371.870837 240.161589 
L 379.347312 239.715294 
L 386.823787 239.269617 
L 394.300262 238.822738 
L 401.776737 238.374627 
L 409.253212 237.928333 
L 416.729686 237.491354 
L 424.206161 237.076928 
L 431.682636 236.705085 
" clip-path="url(#p00d6b1203e)" style="fill: none; stroke: #2ca02c; stroke-width: 1.5; stroke-linecap: square"/>
   </g>
   <g id="line2d_18">
    <path d="M 65.335364 284.057346 
L 72.811839 283.331061 
L 80.288314 282.749221 
L 87.764788 282.277934 
L 95.241263 281.88843 
L 102.717738 281.55742 
L 110.194213 281.266984 
L 117.670688 281.004097 
L 125.147163 280.759913 
L 132.623638 280.528901 
L 140.100113 280.307976 
L 147.576588 280.095689 
L 155.053063 279.891545 
L 162.529538 279.695484 
L 170.006013 279.507532 
L 177.482488 279.327605 
L 184.958963 279.155436 
L 192.435438 278.990583 
L 199.911913 278.83248 
L 207.388388 278.680504 
L 214.864863 278.53401 
L 222.341338 278.392351 
L 229.817813 278.254876 
L 237.294288 278.120896 
L 244.770763 277.989669 
L 252.247237 277.860392 
L 259.723712 277.732221 
L 267.200187 277.604327 
L 274.676662 277.47602 
L 282.153137 277.346798 
L 289.629612 277.216465 
L 297.106087 277.08516 
L 304.582562 276.953407 
L 312.059037 276.822025 
L 319.535512 276.691966 
L 327.011987 276.564122 
L 334.488462 276.439068 
L 341.964937 276.316832 
L 349.441412 276.196711 
L 356.917887 276.077203 
L 364.394362 275.956106 
L 371.870837 275.830811 
L 379.347312 275.698807 
L 386.823787 275.558391 
L 394.300262 275.409522 
L 401.776737 275.254778 
L 409.253212 275.100283 
L 416.729686 274.956515 
L 424.206161 274.838876 
L 431.682636 274.767893 
" clip-path="url(#p00d6b1203e)" style="fill: none; stroke: #d62728; stroke-width: 1.5; stroke-linecap: square"/>
   </g>
   <g id="patch_3">
    <path d="M 47.018 302.2 
L 47.018 10.8 
" style="fill: none; stroke: #000000; stroke-width: 0.8; stroke-linejoin: miter; stroke-linecap: square"/>
   </g>
   <g id="patch_4">
    <path d="M 450 302.2 
L 450 10.8 
" style="fill: none; stroke: #000000; stroke-width: 0.8; stroke-linejoin: miter; stroke-linecap: square"/>
   </g>
   <g id="patch_5">
    <path d="M 47.018 302.2 
L 450 302.2 
" style="fill: none; stroke: #000000; stroke-width: 0.8; stroke-linejoin: miter; stroke-linecap: square"/>
   </g>
   <g id="patch_6">
    <path d="M 47.018 10.8 
L 450 10.8 
" style="fill: none; stroke: #000000; stroke-width: 0.8; stroke-linejoin: miter; stroke-linecap: square"/>
   </g>
   <g id="legend_1">
    <g id="patch_7">
     <path d="M 54.018 77.5125 
L 132.888313 77.5125 
Q 134.888313 77.5125 134.888313 75.5125 
L 134.888313 17.8 
Q 134.888313 15.8 132.888313 15.8 
L 54.018 15.8 
Q 52.018 15.8 52.018 17.8 
L 52.018 75.5125 
Q 52.018 77.5125 54.018 77.5125 
z
" style="fill: #ffffff; opacity: 0.8; stroke: #cccccc; stroke-linejoin: miter"/>
    </g>
    <g id="line2d_19">
     <path d="M 56.018 23.898438 
L 66.018 23.898438 
L 76.018 23.898438 
" style="fill: none; stroke: #1f77b4; stroke-width: 1.5; stroke-linecap: square"/>
    </g>
    <g id="text_17">
     <!-- Ts=100 K -->
     <g transform="translate(84.018 27.398438) scale(0.1 -0.1)">
      <defs>
       <path id="DejaVuSans-54" d="M -19 4666 
L 3928 4666 
L 3928 4134 
L 2272 4134 
L 2272 0 
L 1638 0 
L 1638 4134 
L -19 4134 
L -19 4666 
z
" transform="scale(0.015625)"/>
       <path id="DejaVuSans-73" d="M 2834 3397 
L 2834 2853 
Q 2591 2978 2328 3040 
Q 2066 3103 1784 3103 
Q 1356 3103 1142 2972 
Q 928 2841 928 2578 
Q 928 2378 1081 2264 
Q 1234 2150 1697 2047 
L 1894 2003 
Q 2506 1872 2764 1633 
Q 3022 1394 3022 966 
Q 3022 478 2636 193 
Q 2250 -91 1575 -91 
Q 1294 -91 989 -36 
Q 684 19 347 128 
L 347 722 
Q 666 556 975 473 
Q 1284 391 1588 391 
Q 1994 391 2212 530 
Q 2431 669 2431 922 
Q 2431 1156 2273 1281 
Q 2116 1406 1581 1522 
L 1381 1569 
Q 847 1681 609 1914 
Q 372 2147 372 2553 
Q 372 3047 722 3315 
Q 1072 3584 1716 3584 
Q 2034 3584 2315 3537 
Q 2597 3491 2834 3397 
z
" transform="scale(0.015625)"/>
       <path id="DejaVuSans-3d" d="M 678 2906 
L 4684 2906 
L 4684 2381 
L 678 2381 
L 678 2906 
z
M 678 1631 
L 4684 1631 
L 4684 1100 
L 678 1100 
L 678 1631 
z
" transform="scale(0.015625)"/>
       <path id="DejaVuSans-4b" d="M 628 4666 
L 1259 4666 
L 1259 2694 
L 3353 4666 
L 4166 4666 
L 1850 2491 
L 4331 0 
L 3500 0 
L 1259 2247 
L 1259 0 
L 628 0 
L 628 4666 
z
" transform="scale(0.015625)"/>
      </defs>
      <use xlink:href="#DejaVuSans-54"/>
      <use xlink:href="#DejaVuSans-73" transform="translate(44.583984 0)"/>
      <use xlink:href="#DejaVuSans-3d" transform="translate(96.683594 0)"/>
      <use xlink:href="#DejaVuSans-31" transform="translate(180.472656 0)"/>
      <use xlink:href="#DejaVuSans-30" transform="translate(244.095703 0)"/>
      <use xlink:href="#DejaVuSans-30" transform="translate(307.71875 0)"/>
      <use xlink:href="#DejaVuSans-20" transform="translate(371.341797 0)"/>
      <use xlink:href="#DejaVuSans-4b" transform="translate(403.128906 0)"/>
     </g>
    </g>
    <g id="line2d_20">
     <path d="M 56.018 38.576563 
L 66.018 38.576563 
L 76.018 38.576563 
" style="fill: none; stroke: #ff7f0e; stroke-width: 1.5; stroke-linecap: square"/>
    </g>
    <g id="text_18">
     <!-- Ts=160 K -->
     <g transform="translate(84.018 42.076563) scale(0.1 -0.1)">
      <defs>
       <path id="DejaVuSans-36" d="M 2113 2584 
Q 1688 2584 1439 2293 
Q 1191 2003 1191 1497 
Q 1191 994 1439 701 
Q 1688 409 2113 409 
Q 2538 409 2786 701 
Q 3034 994 3034 1497 
Q 3034 2003 2786 2293 
Q 2538 2584 2113 2584 
z
M 3366 4563 
L 3366 3988 
Q 3128 4100 2886 4159 
Q 2644 4219 2406 4219 
Q 1781 4219 1451 3797 
Q 1122 3375 1075 2522 
Q 1259 2794 1537 2939 
Q 1816 3084 2150 3084 
Q 2853 3084 3261 2657 
Q 3669 2231 3669 1497 
Q 3669 778 3244 343 
Q 2819 -91 2113 -91 
Q 1303 -91 875 529 
Q 447 1150 447 2328 
Q 447 3434 972 4092 
Q 1497 4750 2381 4750 
Q 2619 4750 2861 4703 
Q 3103 4656 3366 4563 
z
" transform="scale(0.015625)"/>
      </defs>
      <use xlink:href="#DejaVuSans-54"/>
      <use xlink:href="#DejaVuSans-73" transform="translate(44.583984 0)"/>
      <use xlink:href="#DejaVuSans-3d" transform="translate(96.683594 0)"/>
      <use xlink:href="#DejaVuSans-31" transform="translate(180.472656 0)"/>
      <use xlink:href="#DejaVuSans-36" transform="translate(244.095703 0)"/>
      <use xlink:href="#DejaVuSans-30" transform="translate(307.71875 0)"/>
      <use xlink:href="#DejaVuSans-20" transform="translate(371.341797 0)"/>
      <use xlink:href="#DejaVuSans-4b" transform="translate(403.128906 0)"/>
     </g>
    </g>
    <g id="line2d_21">
     <path d="M 56.018 53.254687 
L 66.018 53.254687 
L 76.018 53.254687 
" style="fill: none; stroke: #2ca02c; stroke-width: 1.5; stroke-linecap: square"/>
    </g>
    <g id="text_19">
     <!-- Ts=220 K -->
     <g transform="translate(84.018 56.754687) scale(0.1 -0.1)">
      <use xlink:href="#DejaVuSans-54"/>
      <use xlink:href="#DejaVuSans-73" transform="translate(44.583984 0)"/>
      <use xlink:href="#DejaVuSans-3d" transform="translate(96.683594 0)"/>
      <use xlink:href="#DejaVuSans-32" transform="translate(180.472656 0)"/>
      <use xlink:href="#DejaVuSans-32" transform="translate(244.095703 0)"/>
      <use xlink:href="#DejaVuSans-30" transform="translate(307.71875 0)"/>
      <use xlink:href="#DejaVuSans-20" transform="translate(371.341797 0)"/>
      <use xlink:href="#DejaVuSans-4b" transform="translate(403.128906 0)"/>
     </g>
    </g>
    <g id="line2d_22">
     <path d="M 56.018 67.932813 
L 66.018 67.932813 
L 76.018 67.932813 
" style="fill: none; stroke: #d62728; stroke-width: 1.5; stroke-linecap: square"/>
    </g>
    <g id="text_20">
     <!-- Ts=260 K -->
     <g transform="translate(84.018 71.432813) scale(0.1 -0.1)">
      <use xlink:href="#DejaVuSans-54"/>
      <use xlink:href="#DejaVuSans-73" transform="translate(44.583984 0)"/>
      <use xlink:href="#DejaVuSans-3d" transform="translate(96.683594 0)"/>
      <use xlink:href="#DejaVuSans-32" transform="translate(180.472656 0)"/>
      <use xlink:href="#DejaVuSans-36" transform="translate(244.095703 0)"/>
      <use xlink:href="#DejaVuSans-30" transform="translate(307.71875 0)"/>
      <use xlink:href="#DejaVuSans-20" transform="translate(371.341797 0)"/>
      <use xlink:href="#DejaVuSans-4b" transform="translate(403.128906 0)"/>
     </g>
    </g>
   </g>
  </g>
 </g>
 <defs>
  <clipPath id="p00d6b1203e">
   <rect x="47.018" y="10.8" width="402.982" height="291.4"/>
  </clipPath>
 </defs>
</svg>
