<?xml version="1.0" encoding="utf-8" standalone="no"?>
<!DOCTYPE svg PUBLIC "-//W3C//DTD SVG 1.1//EN"
  "http://www.w3.org/Graphics/SVG/1.1/DTD/svg11.dtd">
<svg xmlns:xlink="http://www.w3.org/1999/xlink" width="460.8pt" height="345.6pt" viewBox="0 0 460.8 345.6" xmlns="http://www.w3.org/2000/svg" version="1.1">
 <metadata>
  <rdf:RDF xmlns:dc="http://purl.org/dc/elements/1.1/" xmlns:cc="http://creativecommons.org/ns#" xmlns:rdf="http://www.w3.org/1999/02/22-rdf-syntax-ns#">
   <cc:Work>
    <dc:type rdf:resource="http://purl.org/dc/dcmitype/StillImage"/>
    <dc:date>2026-02-12T00:49:45.996561</dc:date>
    <dc:format>image/svg+xml</dc:format>
    <dc:creator>
     <cc:Agent>
      <dc:title>Matplotlib v3.10.8, https://matplotlib.org/</dc:title>
     </cc:Agent>
    </dc:creator>
   </cc:Work>
  </rdf:RDF>
 </metadata>
 <defs>
  <style type="text/css">*{stroke-linejoin: round; stroke-linecap: butt}</style>
 </defs>
 <g id="figure_1">
  <g id="patch_1">
   <path d="M 0 345.6 
L 460.8 345.6 
L 460.8 0 
L 0 0 
L 0 345.6 
z
" style="fill: none"/>
  </g>
  <g id="axes_1">
   <g id="patch_2">
    <path d="M 47.018 302.2 
L 450 302.2 
L 450 10.8 
L 47.018 10.8 
L 47.018 302.2 
z
" style="fill: none"/>
   </g>
   <g id="FillBetweenPolyCollection_1">
    <path d="M 65.335364 275.892958 
L 65.335364 276.455272 
L 72.811839 268.77337 
L 80.288314 262.404625 
L 87.764788 257.10859 
L 95.241263 252.666756 
L 102.717738 248.887777 
L 110.194213 245.609962 
L 117.670688 242.701608 
L 125.147163 240.059439 
L 132.623638 237.605701 
L 140.100113 235.284428 
L 147.576588 233.057398 
L 155.053063 230.900053 
L 162.529538 228.797875 
L 170.006013 226.743274 
L 177.482488 224.733158 
L 184.958963 222.767113 
L 192.435438 220.846169 
L 199.911913 218.971982 
L 207.388388 217.146331 
L 214.864863 215.37078 
L 222.341338 213.64647 
L 229.817813 211.973883 
L 237.294288 210.352644 
L 244.770763 208.781362 
L 252.247237 207.257534 
L 259.723712 205.777567 
L 267.200187 204.336927 
L 274.676662 202.930421 
L 282.153137 201.552603 
L 289.629612 200.198224 
L 297.106087 198.862646 
L 304.582562 197.542151 
L 312.059037 196.234033 
L 319.535512 194.936461 
L 327.011987 193.648049 
L 334.488462 192.367232 
L 341.964937 191.091489 
L 349.441412 189.816604 
L 356.917887 188.536099 
L 364.394362 187.241066 
L 371.870837 185.920014 
L 379.347312 184.559507 
L 386.823787 183.149789 
L 394.300262 181.682905 
L 401.776737 180.157264 
L 409.253212 178.581065 
L 416.729686 176.979006 
L 424.206161 175.388094 
L 431.682636 173.863167 
L 431.682636 172.299062 
L 431.682636 172.299062 
L 424.206161 173.79883 
L 416.729686 175.369396 
L 409.253212 176.953557 
L 401.776737 178.51315 
L 394.300262 180.026545 
L 386.823787 181.485426 
L 379.347312 182.891254 
L 371.870837 184.251807 
L 364.394362 185.578073 
L 356.917887 186.881751 
L 349.441412 188.17347 
L 341.964937 189.46175 
L 334.488462 190.752664 
L 327.011987 192.050035 
L 319.535512 193.356029 
L 312.059037 194.67191 
L 304.582562 195.998823 
L 297.106087 197.338428 
L 289.629612 198.6933 
L 282.153137 200.067066 
L 274.676662 201.464288 
L 267.200187 202.890132 
L 259.723712 204.349956 
L 252.247237 205.848844 
L 244.770763 207.391224 
L 237.294288 208.980598 
L 229.817813 210.619407 
L 222.341338 212.30906 
L 214.864863 214.050032 
L 207.388388 215.842054 
L 199.911913 217.684315 
L 192.435438 219.57564 
L 184.958963 221.514719 
L 177.482488 223.500386 
L 170.006013 225.532066 
L 162.529538 227.61054 
L 155.053063 229.739149 
L 147.576588 231.92557 
L 140.100113 234.184282 
L 132.623638 236.539694 
L 125.147163 239.029893 
L 117.670688 241.710779 
L 110.194213 244.660316 
L 102.717738 247.982429 
L 95.241263 251.810099 
L 87.764788 256.307077 
L 80.288314 261.667732 
L 72.811839 268.114545 
L 65.335364 275.892958 
z
" clip-path="url(#pbafd50479d)" style="fill: #1f77b4; fill-opacity: 0.45"/>
   </g>
   <g id="PathCollection_1">
    <defs>
     <path id="m4854a793d1" d="M 0 2.12132 
C 0.562581 2.12132 1.102195 1.897805 1.5 1.5 
C 1.897805 1.102195 2.12132 0.562581 2.12132 0 
C 2.12132 -0.562581 1.897805 -1.102195 1.5 -1.5 
C 1.102195 -1.897805 0.562581 -2.12132 0 -2.12132 
C -0.562581 -2.12132 -1.102195 -1.897805 -1.5 -1.5 
C -1.897805 -1.102195 -2.12132 -0.562581 -2.12132 0 
C -2.12132 0.562581 -1.897805 1.102195 -1.5 1.5 
C -1.102195 1.897805 -0.562581 2.12132 0 2.12132 
z
" style="stroke: #000000; stroke-opacity: 0.7"/>
    </defs>
    <g clip-path="url(#pbafd50479d)">
     <use xlink:href="#m4854a793d1" x="65.335364" y="206.850056" style="fill-opacity: 0.7; stroke: #000000; stroke-opacity: 0.7"/>
     <use xlink:href="#m4854a793d1" x="98.639661" y="167.967751" style="fill-opacity: 0.7; stroke: #000000; stroke-opacity: 0.7"/>
     <use xlink:href="#m4854a793d1" x="135.644436" y="139.345894" style="fill-opacity: 0.7; stroke: #000000; stroke-opacity: 0.7"/>
     <use xlink:href="#m4854a793d1" x="172.649211" y="119.275145" style="fill-opacity: 0.7; stroke: #000000; stroke-opacity: 0.7"/>
     <use xlink:href="#m4854a793d1" x="209.653986" y="98.801096" style="fill-opacity: 0.7; stroke: #000000; stroke-opacity: 0.7"/>
     <use xlink:href="#m4854a793d1" x="246.658761" y="83.748398" style="fill-opacity: 0.7; stroke: #000000; stroke-opacity: 0.7"/>
     <use xlink:href="#m4854a793d1" x="283.663536" y="70.802696" style="fill-opacity: 0.7; stroke: #000000; stroke-opacity: 0.7"/>
     <use xlink:href="#m4854a793d1" x="320.668311" y="57.386148" style="fill-opacity: 0.7; stroke: #000000; stroke-opacity: 0.7"/>
     <use xlink:href="#m4854a793d1" x="357.673086" y="45.923289" style="fill-opacity: 0.7; stroke: #000000; stroke-opacity: 0.7"/>
     <use xlink:href="#m4854a793d1" x="394.677861" y="35.433634" style="fill-opacity: 0.7; stroke: #000000; stroke-opacity: 0.7"/>
     <use xlink:href="#m4854a793d1" x="431.682636" y="24.045455" style="fill-opacity: 0.7; stroke: #000000; stroke-opacity: 0.7"/>
    </g>
   </g>
   <g id="FillBetweenPolyCollection_2">
    <path d="M 65.335364 277.731213 
L 65.335364 278.133239 
L 72.811839 271.02581 
L 80.288314 265.150523 
L 87.764788 260.27778 
L 95.241263 256.198833 
L 102.717738 252.730573 
L 110.194213 249.718404 
L 117.670688 247.036867 
L 125.147163 244.588369 
L 132.623638 242.300552 
L 140.100113 240.122694 
L 147.576588 238.021684 
L 155.053063 235.977945 
L 162.529538 233.981645 
L 170.006013 232.029415 
L 177.482488 230.121725 
L 184.958963 228.260889 
L 192.435438 226.449723 
L 199.911913 224.690677 
L 207.388388 222.985404 
L 214.864863 221.334582 
L 222.341338 219.737871 
L 229.817813 218.193993 
L 237.294288 216.70081 
L 244.770763 215.25543 
L 252.247237 213.854322 
L 259.723712 212.493489 
L 267.200187 211.168661 
L 274.676662 209.875555 
L 282.153137 208.610169 
L 289.629612 207.369063 
L 297.106087 206.149587 
L 304.582562 204.949996 
L 312.059037 203.769391 
L 319.535512 202.607475 
L 327.011987 201.464087 
L 334.488462 200.338605 
L 341.964937 199.229246 
L 349.441412 198.132413 
L 356.917887 197.042236 
L 364.394362 195.950428 
L 371.870837 194.846622 
L 379.347312 193.719275 
L 386.823787 192.557191 
L 394.300262 191.351633 
L 401.776737 190.098912 
L 409.253212 188.803279 
L 416.729686 187.479855 
L 424.206161 186.157306 
L 431.682636 184.879935 
L 431.682636 183.669216 
L 431.682636 183.669216 
L 424.206161 184.928046 
L 416.729686 186.236666 
L 409.253212 187.550289 
L 401.776737 188.839916 
L 394.300262 190.090185 
L 386.823787 191.29747 
L 379.347312 192.464911 
L 371.870837 193.600118 
L 364.394362 194.714037 
L 356.917887 195.817916 
L 349.441412 196.921784 
L 341.964937 198.033569 
L 334.488462 199.158785 
L 327.011987 200.300691 
L 319.535512 201.460788 
L 312.059037 202.639473 
L 304.582562 203.836745 
L 297.106087 205.052804 
L 289.629612 206.288494 
L 282.153137 207.545541 
L 274.676662 208.826575 
L 267.200187 210.135295 
L 259.723712 211.475302 
L 252.247237 212.850768 
L 244.770763 214.265849 
L 237.294288 215.72442 
L 229.817813 217.23 
L 222.341338 218.78587 
L 214.864863 220.393895 
L 207.388388 222.055484 
L 199.911913 223.771196 
L 192.435438 225.540672 
L 184.958963 227.362649 
L 177.482488 229.235094 
L 170.006013 231.155626 
L 162.529538 233.122304 
L 155.053063 235.134961 
L 147.576588 237.19715 
L 140.100113 239.318792 
L 132.623638 241.519467 
L 125.147163 243.832267 
L 117.670688 246.307956 
L 110.194213 249.019119 
L 102.717738 252.063881 
L 95.241263 255.568705 
L 87.764788 259.689776 
L 80.288314 264.61249 
L 72.811839 270.548669 
L 65.335364 277.731213 
z
" clip-path="url(#pbafd50479d)" style="fill: #ff7f0e; fill-opacity: 0.45"/>
   </g>
   <g id="PathCollection_2">
    <g clip-path="url(#pbafd50479d)">
     <use xlink:href="#m4854a793d1" x="65.335364" y="230.776328" style="fill-opacity: 0.7; stroke: #000000; stroke-opacity: 0.7"/>
     <use xlink:href="#m4854a793d1" x="98.639661" y="194.554689" style="fill-opacity: 0.7; stroke: #000000; stroke-opacity: 0.7"/>
     <use xlink:href="#m4854a793d1" x="135.644436" y="170.924009" style="fill-opacity: 0.7; stroke: #000000; stroke-opacity: 0.7"/>
     <use xlink:href="#m4854a793d1" x="172.649211" y="152.254108" style="fill-opacity: 0.7; stroke: #000000; stroke-opacity: 0.7"/>
     <use xlink:href="#m4854a793d1" x="209.653986" y="137.764579" style="fill-opacity: 0.7; stroke: #000000; stroke-opacity: 0.7"/>
     <use xlink:href="#m4854a793d1" x="246.658761" y="124.387538" style="fill-opacity: 0.7; stroke: #000000; stroke-opacity: 0.7"/>
     <use xlink:href="#m4854a793d1" x="283.663536" y="113.485726" style="fill-opacity: 0.7; stroke: #000000; stroke-opacity: 0.7"/>
     <use xlink:href="#m4854a793d1" x="320.668311" y="102.355454" style="fill-opacity: 0.7; stroke: #000000; stroke-opacity: 0.7"/>
     <use xlink:href="#m4854a793d1" x="357.673086" y="93.128867" style="fill-opacity: 0.7; stroke: #000000; stroke-opacity: 0.7"/>
     <use xlink:href="#m4854a793d1" x="394.677861" y="82.757103" style="fill-opacity: 0.7; stroke: #000000; stroke-opacity: 0.7"/>
     <use xlink:href="#m4854a793d1" x="431.682636" y="74.446047" style="fill-opacity: 0.7; stroke: #000000; stroke-opacity: 0.7"/>
    </g>
   </g>
   <g id="FillBetweenPolyCollection_3">
    <path d="M 65.335364 278.510943 
L 65.335364 278.694662 
L 72.811839 272.177185 
L 80.288314 266.792198 
L 87.764788 262.324921 
L 95.241263 258.579459 
L 102.717738 255.384782 
L 110.194213 252.597144 
L 117.670688 250.100771 
L 125.147163 247.806709 
L 132.623638 245.650266 
L 140.100113 243.587492 
L 147.576588 241.591189 
L 155.053063 239.646838 
L 162.529538 237.748779 
L 170.006013 235.896894 
L 177.482488 234.093933 
L 184.958963 232.344245 
L 192.435438 230.650455 
L 199.911913 229.014368 
L 207.388388 227.436449 
L 214.864863 225.915705 
L 222.341338 224.449947 
L 229.817813 223.035983 
L 237.294288 221.669821 
L 244.770763 220.347441 
L 252.247237 219.064337 
L 259.723712 217.816813 
L 267.200187 216.600902 
L 274.676662 215.413335 
L 282.153137 214.251517 
L 289.629612 213.113647 
L 297.106087 211.99879 
L 304.582562 210.906835 
L 312.059037 209.839064 
L 319.535512 208.795937 
L 327.011987 207.77821 
L 334.488462 206.786185 
L 341.964937 205.818985 
L 349.441412 204.874016 
L 356.917887 203.946592 
L 364.394362 203.029832 
L 371.870837 202.114934 
L 379.347312 201.191918 
L 386.823787 200.250858 
L 394.300262 199.283593 
L 401.776737 198.285833 
L 409.253212 197.259502 
L 416.729686 196.215135 
L 424.206161 195.174067 
L 431.682636 194.170171 
L 431.682636 193.413559 
L 431.682636 193.413559 
L 424.206161 194.411096 
L 416.729686 195.449282 
L 409.253212 196.493825 
L 401.776737 197.523091 
L 394.300262 198.52632 
L 386.823787 199.501386 
L 379.347312 200.452371 
L 371.870837 201.387191 
L 364.394362 202.315482 
L 356.917887 203.246893 
L 349.441412 204.189859 
L 341.964937 205.150892 
L 334.488462 206.135171 
L 327.011987 207.144254 
L 319.535512 208.178598 
L 312.059037 209.237714 
L 304.582562 210.320599 
L 297.106087 211.426265 
L 289.629612 212.554153 
L 282.153137 213.704412 
L 274.676662 214.878017 
L 267.200187 216.076781 
L 259.723712 217.303277 
L 252.247237 218.560701 
L 244.770763 219.851947 
L 237.294288 221.182204 
L 229.817813 222.555663 
L 222.341338 223.976444 
L 214.864863 225.447584 
L 207.388388 226.972166 
L 199.911913 228.553006 
L 192.435438 230.191363 
L 184.958963 231.887127 
L 177.482488 233.638771 
L 170.006013 235.4436 
L 162.529538 237.298464 
L 155.053063 239.201021 
L 147.576588 241.152103 
L 140.100113 243.156991 
L 132.623638 245.230227 
L 125.147163 247.39903 
L 117.670688 249.707381 
L 110.194213 252.22012 
L 102.717738 255.026569 
L 95.241263 258.243275 
L 87.764788 262.015205 
L 80.288314 266.515125 
L 72.811839 271.941053 
L 65.335364 278.510943 
z
" clip-path="url(#pbafd50479d)" style="fill: #2ca02c; fill-opacity: 0.45"/>
   </g>
   <g id="PathCollection_3">
    <g clip-path="url(#pbafd50479d)">
     <use xlink:href="#m4854a793d1" x="65.335364" y="246.763099" style="fill-opacity: 0.7; stroke: #000000; stroke-opacity: 0.7"/>
     <use xlink:href="#m4854a793d1" x="98.639661" y="214.783342" style="fill-opacity: 0.7; stroke: #000000; stroke-opacity: 0.7"/>
     <use xlink:href="#m4854a793d1" x="135.644436" y="195.793668" style="fill-opacity: 0.7; stroke: #000000; stroke-opacity: 0.7"/>
     <use xlink:href="#m4854a793d1" x="172.649211" y="179.757991" style="fill-opacity: 0.7; stroke: #000000; stroke-opacity: 0.7"/>
     <use xlink:href="#m4854a793d1" x="209.653986" y="166.558904" style="fill-opacity: 0.7; stroke: #000000; stroke-opacity: 0.7"/>
     <use xlink:href="#m4854a793d1" x="246.658761" y="158.124153" style="fill-opacity: 0.7; stroke: #000000; stroke-opacity: 0.7"/>
     <use xlink:href="#m4854a793d1" x="283.663536" y="148.461768" style="fill-opacity: 0.7; stroke: #000000; stroke-opacity: 0.7"/>
     <use xlink:href="#m4854a793d1" x="320.668311" y="139.416358" style="fill-opacity: 0.7; stroke: #000000; stroke-opacity: 0.7"/>
     <use xlink:href="#m4854a793d1" x="357.673086" y="129.648125" style="fill-opacity: 0.7; stroke: #000000; stroke-opacity: 0.7"/>
     <use xlink:href="#m4854a793d1" x="394.677861" y="122.37341" style="fill-opacity: 0.7; stroke: #000000; stroke-opacity: 0.7"/>
     <use xlink:href="#m4854a793d1" x="431.682636" y="114.463091" style="fill-opacity: 0.7; stroke: #000000; stroke-opacity: 0.7"/>
    </g>
   </g>
   <g id="FillBetweenPolyCollection_4">
    <path d="M 65.335364 279.011727 
L 65.335364 279.175198 
L 72.811839 273.477266 
L 80.288314 268.763302 
L 87.764788 264.842526 
L 95.241263 261.537741 
L 102.717738 258.699067 
L 110.194213 256.202881 
L 117.670688 253.948956 
L 125.147163 251.863163 
L 132.623638 249.892782 
L 140.100113 248.003434 
L 147.576588 246.176465 
L 155.053063 244.402193 
L 162.529538 242.678497 
L 170.006013 241.007201 
L 177.482488 239.39138 
L 184.958963 237.834304 
L 192.435438 236.337697 
L 199.911913 234.90161 
L 207.388388 233.523912 
L 214.864863 232.201408 
L 222.341338 230.929601 
L 229.817813 229.703148 
L 237.294288 228.517159 
L 244.770763 227.366568 
L 252.247237 226.247 
L 259.723712 225.154524 
L 267.200187 224.086513 
L 274.676662 223.040995 
L 282.153137 222.018199 
L 289.629612 221.015444 
L 297.106087 220.031772 
L 304.582562 219.072264 
L 312.059037 218.136503 
L 319.535512 217.229143 
L 327.011987 216.347306 
L 334.488462 215.492176 
L 341.964937 214.664876 
L 349.441412 213.8642 
L 356.917887 213.090171 
L 364.394362 212.336121 
L 371.870837 211.59489 
L 379.347312 210.862286 
L 386.823787 210.129125 
L 394.300262 209.390319 
L 401.776737 208.642747 
L 409.253212 207.892402 
L 416.729686 207.141377 
L 424.206161 206.4103 
L 431.682636 205.721284 
L 431.682636 205.393183 
L 431.682636 205.393183 
L 424.206161 206.085118 
L 416.729686 206.820141 
L 409.253212 207.573276 
L 401.776737 208.328672 
L 394.300262 209.078302 
L 386.823787 209.822692 
L 379.347312 210.558663 
L 371.870837 211.295554 
L 364.394362 212.039545 
L 356.917887 212.795826 
L 349.441412 213.569724 
L 341.964937 214.367018 
L 334.488462 215.192525 
L 327.011987 216.050265 
L 319.535512 216.933398 
L 312.059037 217.841588 
L 304.582562 218.782658 
L 297.106087 219.743468 
L 289.629612 220.722252 
L 282.153137 221.722967 
L 274.676662 222.74747 
L 267.200187 223.794626 
L 259.723712 224.864036 
L 252.247237 225.955845 
L 244.770763 227.075626 
L 237.294288 228.227113 
L 229.817813 229.414812 
L 222.341338 230.644162 
L 214.864863 231.920253 
L 207.388388 233.247515 
L 199.911913 234.630445 
L 192.435438 236.072723 
L 184.958963 237.576834 
L 177.482488 239.142041 
L 170.006013 240.766374 
L 162.529538 242.44654 
L 155.053063 244.178099 
L 147.576588 245.959061 
L 140.100113 247.792509 
L 132.623638 249.687531 
L 125.147163 251.663895 
L 117.670688 253.755962 
L 110.194213 256.016559 
L 102.717738 258.520398 
L 95.241263 261.365947 
L 87.764788 264.674683 
L 80.288314 268.605863 
L 72.811839 273.319487 
L 65.335364 279.011727 
z
" clip-path="url(#pbafd50479d)" style="fill: #d62728; fill-opacity: 0.45"/>
   </g>
   <g id="PathCollection_4">
    <g clip-path="url(#pbafd50479d)">
     <use xlink:href="#m4854a793d1" x="65.335364" y="258.81589" style="fill-opacity: 0.7; stroke: #000000; stroke-opacity: 0.7"/>
     <use xlink:href="#m4854a793d1" x="98.639661" y="231.887647" style="fill-opacity: 0.7; stroke: #000000; stroke-opacity: 0.7"/>
     <use xlink:href="#m4854a793d1" x="135.644436" y="215.463044" style="fill-opacity: 0.7; stroke: #000000; stroke-opacity: 0.7"/>
     <use xlink:href="#m4854a793d1" x="172.649211" y="203.493247" style="fill-opacity: 0.7; stroke: #000000; stroke-opacity: 0.7"/>
     <use xlink:href="#m4854a793d1" x="209.653986" y="192.614096" style="fill-opacity: 0.7; stroke: #000000; stroke-opacity: 0.7"/>
     <use xlink:href="#m4854a793d1" x="246.658761" y="184.975229" style="fill-opacity: 0.7; stroke: #000000; stroke-opacity: 0.7"/>
     <use xlink:href="#m4854a793d1" x="283.663536" y="176.492718" style="fill-opacity: 0.7; stroke: #000000; stroke-opacity: 0.7"/>
     <use xlink:href="#m4854a793d1" x="320.668311" y="168.712797" style="fill-opacity: 0.7; stroke: #000000; stroke-opacity: 0.7"/>
     <use xlink:href="#m4854a793d1" x="357.673086" y="160.887299" style="fill-opacity: 0.7; stroke: #000000; stroke-opacity: 0.7"/>
     <use xlink:href="#m4854a793d1" x="394.677861" y="156.149376" style="fill-opacity: 0.7; stroke: #000000; stroke-opacity: 0.7"/>
     <use xlink:href="#m4854a793d1" x="431.682636" y="150.319788" style="fill-opacity: 0.7; stroke: #000000; stroke-opacity: 0.7"/>
    </g>
   </g>
   <g id="FillBetweenPolyCollection_5">
    <path d="M 65.335364 279.918791 
L 65.335364 280.215128 
L 72.811839 275.21268 
L 80.288314 271.062271 
L 87.764788 267.59463 
L 95.241263 264.659587 
L 102.717738 262.125596 
L 110.194213 259.885537 
L 117.670688 257.854942 
L 125.147163 255.971022 
L 132.623638 254.190179 
L 140.100113 252.484754 
L 147.576588 250.839438 
L 155.053063 249.247698 
L 162.529538 247.708518 
L 170.006013 246.22366 
L 177.482488 244.795562 
L 184.958963 243.425914 
L 192.435438 242.114858 
L 199.911913 240.860732 
L 207.388388 239.66021 
L 214.864863 238.508698 
L 222.341338 237.400868 
L 229.817813 236.331186 
L 237.294288 235.294381 
L 244.770763 234.285789 
L 252.247237 233.301558 
L 259.723712 232.338751 
L 267.200187 231.39532 
L 274.676662 230.469989 
L 282.153137 229.561218 
L 289.629612 228.670811 
L 297.106087 227.801187 
L 304.582562 226.949099 
L 312.059037 226.117534 
L 319.535512 225.307731 
L 327.011987 224.520769 
L 334.488462 223.757333 
L 341.964937 223.017462 
L 349.441412 222.299723 
L 356.917887 221.602574 
L 364.394362 220.925988 
L 371.870837 220.26218 
L 379.347312 219.608587 
L 386.823787 218.961347 
L 394.300262 218.31781 
L 401.776737 217.677716 
L 409.253212 217.04451 
L 416.729686 216.426672 
L 424.206161 215.837611 
L 431.682636 215.299739 
L 431.682636 214.884808 
L 431.682636 214.884808 
L 424.206161 215.413766 
L 416.729686 215.994754 
L 409.253212 216.606983 
L 401.776737 217.234192 
L 394.300262 217.868317 
L 386.823787 218.50582 
L 379.347312 219.146926 
L 371.870837 219.794296 
L 364.394362 220.451849 
L 356.917887 221.123815 
L 349.441412 221.813947 
L 341.964937 222.525395 
L 334.488462 223.260091 
L 327.011987 224.019412 
L 319.535512 224.803827 
L 312.059037 225.611712 
L 304.582562 226.441985 
L 297.106087 227.293377 
L 289.629612 228.164645 
L 282.153137 229.054758 
L 274.676662 229.96279 
L 267.200187 230.88782 
L 259.723712 231.832273 
L 252.247237 232.796735 
L 244.770763 233.782215 
L 237.294288 234.792674 
L 229.817813 235.83237 
L 222.341338 236.906175 
L 214.864863 238.019037 
L 207.388388 239.176578 
L 199.911913 240.384177 
L 192.435438 241.646426 
L 184.958963 242.966591 
L 177.482488 244.34623 
L 170.006013 245.785049 
L 162.529538 247.281175 
L 155.053063 248.831995 
L 147.576588 250.435577 
L 140.100113 252.0928 
L 132.623638 253.810106 
L 125.147163 255.602758 
L 117.670688 257.498414 
L 110.194213 259.540689 
L 102.717738 261.792387 
L 95.241263 264.336401 
L 87.764788 267.280139 
L 80.288314 270.755639 
L 72.811839 274.911479 
L 65.335364 279.918791 
z
" clip-path="url(#pbafd50479d)" style="fill: #9467bd; fill-opacity: 0.45"/>
   </g>
   <g id="PathCollection_5">
    <g clip-path="url(#pbafd50479d)">
     <use xlink:href="#m4854a793d1" x="65.335364" y="269.322426" style="fill-opacity: 0.7; stroke: #000000; stroke-opacity: 0.7"/>
     <use xlink:href="#m4854a793d1" x="98.639661" y="245.765811" style="fill-opacity: 0.7; stroke: #000000; stroke-opacity: 0.7"/>
     <use xlink:href="#m4854a793d1" x="135.644436" y="233.307089" style="fill-opacity: 0.7; stroke: #000000; stroke-opacity: 0.7"/>
     <use xlink:href="#m4854a793d1" x="172.649211" y="222.379075" style="fill-opacity: 0.7; stroke: #000000; stroke-opacity: 0.7"/>
     <use xlink:href="#m4854a793d1" x="209.653986" y="216.169094" style="fill-opacity: 0.7; stroke: #000000; stroke-opacity: 0.7"/>
     <use xlink:href="#m4854a793d1" x="246.658761" y="207.002674" style="fill-opacity: 0.7; stroke: #000000; stroke-opacity: 0.7"/>
     <use xlink:href="#m4854a793d1" x="283.663536" y="200.556525" style="fill-opacity: 0.7; stroke: #000000; stroke-opacity: 0.7"/>
     <use xlink:href="#m4854a793d1" x="320.668311" y="196.176034" style="fill-opacity: 0.7; stroke: #000000; stroke-opacity: 0.7"/>
     <use xlink:href="#m4854a793d1" x="357.673086" y="189.630716" style="fill-opacity: 0.7; stroke: #000000; stroke-opacity: 0.7"/>
     <use xlink:href="#m4854a793d1" x="394.677861" y="183.762279" style="fill-opacity: 0.7; stroke: #000000; stroke-opacity: 0.7"/>
     <use xlink:href="#m4854a793d1" x="431.682636" y="179.594882" style="fill-opacity: 0.7; stroke: #000000; stroke-opacity: 0.7"/>
    </g>
   </g>
   <g id="FillBetweenPolyCollection_6">
    <path d="M 65.335364 281.759107 
L 65.335364 282.148027 
L 72.811839 277.883236 
L 80.288314 274.33681 
L 87.764788 271.367962 
L 95.241263 268.845663 
L 102.717738 266.660829 
L 110.194213 264.724094 
L 117.670688 262.965763 
L 125.147163 261.334464 
L 132.623638 259.794852 
L 140.100113 258.324718 
L 147.576588 256.91184 
L 155.053063 255.550924 
L 162.529538 254.240847 
L 170.006013 252.982385 
L 177.482488 251.776529 
L 184.958963 250.623421 
L 192.435438 249.521784 
L 199.911913 248.468851 
L 207.388388 247.460598 
L 214.864863 246.49217 
L 222.341338 245.558391 
L 229.817813 244.654236 
L 237.294288 243.775206 
L 244.770763 242.917577 
L 252.247237 242.078502 
L 259.723712 241.256002 
L 267.200187 240.448863 
L 274.676662 239.656495 
L 282.153137 238.878763 
L 289.629612 238.115849 
L 297.106087 237.368116 
L 304.582562 236.636016 
L 312.059037 235.919997 
L 319.535512 235.219623 
L 327.011987 234.536766 
L 334.488462 233.870409 
L 341.964937 233.220015 
L 349.441412 232.584545 
L 356.917887 231.962412 
L 364.394362 231.351558 
L 371.870837 230.749643 
L 379.347312 230.154451 
L 386.823787 229.564146 
L 394.300262 228.976558 
L 401.776737 228.400286 
L 409.253212 227.837623 
L 416.729686 227.298573 
L 424.206161 226.79805 
L 431.682636 226.35886 
L 431.682636 225.767422 
L 431.682636 225.767422 
L 424.206161 226.201137 
L 416.729686 226.695112 
L 409.253212 227.229658 
L 401.776737 227.788724 
L 394.300262 228.361665 
L 386.823787 228.943083 
L 379.347312 229.52977 
L 371.870837 230.121619 
L 364.394362 230.720695 
L 356.917887 231.328922 
L 349.441412 231.948457 
L 341.964937 232.579748 
L 334.488462 233.22538 
L 327.011987 233.888847 
L 319.535512 234.569893 
L 312.059037 235.269058 
L 304.582562 235.985196 
L 297.106087 236.717939 
L 289.629612 237.466799 
L 282.153137 238.231272 
L 274.676662 239.010934 
L 267.200187 239.805556 
L 259.723712 240.614803 
L 252.247237 241.439521 
L 244.770763 242.281206 
L 237.294288 243.141904 
L 229.817813 244.024554 
L 222.341338 244.932994 
L 214.864863 245.871843 
L 207.388388 246.846237 
L 199.911913 247.861438 
L 192.435438 248.922346 
L 184.958963 250.032998 
L 177.482488 251.196128 
L 170.006013 252.412934 
L 162.529538 253.683188 
L 155.053063 255.005775 
L 147.576588 256.379807 
L 140.100113 257.806305 
L 132.623638 259.290479 
L 125.147163 260.84448 
L 117.670688 262.490459 
L 110.194213 264.263692 
L 102.717738 266.21544 
L 95.241263 268.415228 
L 87.764788 270.952138 
L 80.288314 273.934826 
L 72.811839 277.489995 
L 65.335364 281.759107 
z
" clip-path="url(#pbafd50479d)" style="fill: #8c564b; fill-opacity: 0.45"/>
   </g>
   <g id="PathCollection_6">
    <g clip-path="url(#pbafd50479d)">
     <use xlink:href="#m4854a793d1" x="65.335364" y="276.176358" style="fill-opacity: 0.7; stroke: #000000; stroke-opacity: 0.7"/>
     <use xlink:href="#m4854a793d1" x="98.639661" y="257.271293" style="fill-opacity: 0.7; stroke: #000000; stroke-opacity: 0.7"/>
     <use xlink:href="#m4854a793d1" x="135.644436" y="248.225392" style="fill-opacity: 0.7; stroke: #000000; stroke-opacity: 0.7"/>
     <use xlink:href="#m4854a793d1" x="172.649211" y="240.774905" style="fill-opacity: 0.7; stroke: #000000; stroke-opacity: 0.7"/>
     <use xlink:href="#m4854a793d1" x="209.653986" y="234.580281" style="fill-opacity: 0.7; stroke: #000000; stroke-opacity: 0.7"/>
     <use xlink:href="#m4854a793d1" x="246.658761" y="227.96876" style="fill-opacity: 0.7; stroke: #000000; stroke-opacity: 0.7"/>
     <use xlink:href="#m4854a793d1" x="283.663536" y="223.386383" style="fill-opacity: 0.7; stroke: #000000; stroke-opacity: 0.7"/>
     <use xlink:href="#m4854a793d1" x="320.668311" y="218.676775" style="fill-opacity: 0.7; stroke: #000000; stroke-opacity: 0.7"/>
     <use xlink:href="#m4854a793d1" x="357.673086" y="214.2684" style="fill-opacity: 0.7; stroke: #000000; stroke-opacity: 0.7"/>
     <use xlink:href="#m4854a793d1" x="394.677861" y="209.694803" style="fill-opacity: 0.7; stroke: #000000; stroke-opacity: 0.7"/>
     <use xlink:href="#m4854a793d1" x="431.682636" y="206.941567" style="fill-opacity: 0.7; stroke: #000000; stroke-opacity: 0.7"/>
    </g>
   </g>
   <g id="FillBetweenPolyCollection_7">
    <path d="M 65.335364 284.441438 
L 65.335364 284.858059 
L 72.811839 281.381958 
L 80.288314 278.486348 
L 87.764788 276.055674 
L 95.241263 273.98673 
L 102.717738 272.192475 
L 110.194213 270.602423 
L 117.670688 269.160824 
L 125.147163 267.826596 
L 132.623638 266.571373 
L 140.100113 265.377108 
L 147.576588 264.233512 
L 155.053063 263.135594 
L 162.529538 262.081492 
L 170.006013 261.070734 
L 177.482488 260.102965 
L 184.958963 259.17719 
L 192.435438 258.291417 
L 199.911913 257.442681 
L 207.388388 256.627274 
L 214.864863 255.841123 
L 222.341338 255.080183 
L 229.817813 254.340779 
L 237.294288 253.619853 
L 244.770763 252.915086 
L 252.247237 252.224893 
L 259.723712 251.548335 
L 267.200187 250.884969 
L 274.676662 250.234663 
L 282.153137 249.59743 
L 289.629612 248.973286 
L 297.106087 248.362149 
L 304.582562 247.763771 
L 312.059037 247.177703 
L 319.535512 246.603738 
L 327.011987 246.041315 
L 334.488462 245.488452 
L 341.964937 244.943626 
L 349.441412 244.405025 
L 356.917887 243.870623 
L 364.394362 243.338331 
L 371.870837 242.806267 
L 379.347312 242.27319 
L 386.823787 241.739067 
L 394.300262 241.205799 
L 401.776737 240.678041 
L 409.253212 240.164066 
L 416.729686 239.676558 
L 424.206161 239.233303 
L 431.682636 238.857584 
L 431.682636 238.170538 
L 431.682636 238.170538 
L 424.206161 238.541757 
L 416.729686 238.982585 
L 409.253212 239.469271 
L 401.776737 239.983543 
L 394.300262 240.512249 
L 386.823787 241.046727 
L 379.347312 241.58201 
L 371.870837 242.115987 
L 364.394362 242.648572 
L 356.917887 243.180989 
L 349.441412 243.715169 
L 341.964937 244.253315 
L 334.488462 244.797603 
L 327.011987 245.350002 
L 319.535512 245.912186 
L 312.059037 246.485509 
L 304.582562 247.071005 
L 297.106087 247.669411 
L 289.629612 248.281186 
L 282.153137 248.906544 
L 274.676662 249.545511 
L 267.200187 250.198002 
L 259.723712 250.863936 
L 252.247237 251.543396 
L 244.770763 252.236802 
L 237.294288 252.945102 
L 229.817813 253.669919 
L 222.341338 254.413639 
L 214.864863 255.179398 
L 207.388388 255.970961 
L 199.911913 256.79245 
L 192.435438 257.648008 
L 184.958963 258.541388 
L 177.482488 259.475584 
L 170.006013 260.452587 
L 162.529538 261.473382 
L 155.053063 262.538303 
L 147.576588 263.647805 
L 140.100113 264.803731 
L 132.623638 266.011053 
L 125.147163 267.280047 
L 117.670688 268.628726 
L 110.194213 270.085387 
L 102.717738 271.690975 
L 95.241263 273.501009 
L 87.764788 275.586765 
L 80.288314 278.035411 
L 72.811839 280.948901 
L 65.335364 284.441438 
z
" clip-path="url(#pbafd50479d)" style="fill: #e377c2; fill-opacity: 0.45"/>
   </g>
   <g id="PathCollection_7">
    <g clip-path="url(#pbafd50479d)">
     <use xlink:href="#m4854a793d1" x="65.335364" y="284.348014" style="fill-opacity: 0.7; stroke: #000000; stroke-opacity: 0.7"/>
     <use xlink:href="#m4854a793d1" x="98.639661" y="271.247682" style="fill-opacity: 0.7; stroke: #000000; stroke-opacity: 0.7"/>
     <use xlink:href="#m4854a793d1" x="135.644436" y="261.089966" style="fill-opacity: 0.7; stroke: #000000; stroke-opacity: 0.7"/>
     <use xlink:href="#m4854a793d1" x="172.649211" y="255.938706" style="fill-opacity: 0.7; stroke: #000000; stroke-opacity: 0.7"/>
     <use xlink:href="#m4854a793d1" x="209.653986" y="250.110502" style="fill-opacity: 0.7; stroke: #000000; stroke-opacity: 0.7"/>
     <use xlink:href="#m4854a793d1" x="246.658761" y="246.797073" style="fill-opacity: 0.7; stroke: #000000; stroke-opacity: 0.7"/>
     <use xlink:href="#m4854a793d1" x="283.663536" y="243.406212" style="fill-opacity: 0.7; stroke: #000000; stroke-opacity: 0.7"/>
     <use xlink:href="#m4854a793d1" x="320.668311" y="239.07922" style="fill-opacity: 0.7; stroke: #000000; stroke-opacity: 0.7"/>
     <use xlink:href="#m4854a793d1" x="357.673086" y="236.148899" style="fill-opacity: 0.7; stroke: #000000; stroke-opacity: 0.7"/>
     <use xlink:href="#m4854a793d1" x="394.677861" y="233.826035" style="fill-opacity: 0.7; stroke: #000000; stroke-opacity: 0.7"/>
     <use xlink:href="#m4854a793d1" x="431.682636" y="230.67853" style="fill-opacity: 0.7; stroke: #000000; stroke-opacity: 0.7"/>
    </g>
   </g>
   <g id="FillBetweenPolyCollection_8">
    <path d="M 65.335364 288.527296 
L 65.335364 288.954545 
L 72.811839 286.541306 
L 80.288314 284.530717 
L 87.764788 282.844345 
L 95.241263 281.412038 
L 102.717738 280.174003 
L 110.194213 279.081178 
L 117.670688 278.093827 
L 125.147163 277.182927 
L 132.623638 276.327922 
L 140.100113 275.515158 
L 147.576588 274.736234 
L 155.053063 273.986422 
L 162.529538 273.263289 
L 170.006013 272.564818 
L 177.482488 271.891003 
L 184.958963 271.240995 
L 192.435438 270.613606 
L 199.911913 270.007346 
L 207.388388 269.420533 
L 214.864863 268.851482 
L 222.341338 268.298695 
L 229.817813 267.760997 
L 237.294288 267.237616 
L 244.770763 266.728188 
L 252.247237 266.232697 
L 259.723712 265.751356 
L 267.200187 265.28448 
L 274.676662 264.832346 
L 282.153137 264.395067 
L 289.629612 263.972495 
L 297.106087 263.564146 
L 304.582562 263.169682 
L 312.059037 262.787999 
L 319.535512 262.416815 
L 327.011987 262.053902 
L 334.488462 261.696571 
L 341.964937 261.341715 
L 349.441412 260.985909 
L 356.917887 260.625602 
L 364.394362 260.25741 
L 371.870837 259.878545 
L 379.347312 259.487369 
L 386.823787 259.084086 
L 394.300262 258.671505 
L 401.776737 258.255854 
L 409.253212 257.847538 
L 416.729686 257.461774 
L 424.206161 257.118992 
L 431.682636 256.844914 
L 431.682636 256.115156 
L 431.682636 256.115156 
L 424.206161 256.388216 
L 416.729686 256.732678 
L 409.253212 257.122084 
L 401.776737 257.535309 
L 394.300262 257.9565 
L 386.823787 258.374718 
L 379.347312 258.783314 
L 371.870837 259.179191 
L 364.394362 259.56198 
L 356.917887 259.933276 
L 349.441412 260.295922 
L 341.964937 260.65344 
L 334.488462 261.009567 
L 327.011987 261.367938 
L 319.535512 261.731876 
L 312.059037 262.104263 
L 304.582562 262.487482 
L 297.106087 262.883401 
L 289.629612 263.293384 
L 282.153137 263.718311 
L 274.676662 264.158624 
L 267.200187 264.614397 
L 259.723712 265.085418 
L 252.247237 265.571315 
L 244.770763 266.071674 
L 237.294288 266.586208 
L 229.817813 267.114878 
L 222.341338 267.658018 
L 214.864863 268.216391 
L 207.388388 268.791181 
L 199.911913 269.383909 
L 192.435438 269.996293 
L 184.958963 270.630046 
L 177.482488 271.2867 
L 170.006013 271.967484 
L 162.529538 272.673339 
L 155.053063 273.405136 
L 147.576588 274.164172 
L 140.100113 274.952944 
L 132.623638 275.776261 
L 125.147163 276.64262 
L 117.670688 277.565766 
L 110.194213 278.566342 
L 102.717738 279.673436 
L 95.241263 280.925842 
L 87.764788 282.372832 
L 80.288314 284.074263 
L 72.811839 286.099817 
L 65.335364 288.527296 
z
" clip-path="url(#pbafd50479d)" style="fill: #7f7f7f; fill-opacity: 0.45"/>
   </g>
   <g id="PathCollection_8">
    <g clip-path="url(#pbafd50479d)">
     <use xlink:href="#m4854a793d1" x="65.335364" y="287.777031" style="fill-opacity: 0.7; stroke: #000000; stroke-opacity: 0.7"/>
     <use xlink:href="#m4854a793d1" x="98.639661" y="279.090465" style="fill-opacity: 0.7; stroke: #000000; stroke-opacity: 0.7"/>
     <use xlink:href="#m4854a793d1" x="135.644436" y="273.600582" style="fill-opacity: 0.7; stroke: #000000; stroke-opacity: 0.7"/>
     <use xlink:href="#m4854a793d1" x="172.649211" y="269.946438" style="fill-opacity: 0.7; stroke: #000000; stroke-opacity: 0.7"/>
     <use xlink:href="#m4854a793d1" x="209.653986" y="266.789221" style="fill-opacity: 0.7; stroke: #000000; stroke-opacity: 0.7"/>
     <use xlink:href="#m4854a793d1" x="246.658761" y="262.772546" style="fill-opacity: 0.7; stroke: #000000; stroke-opacity: 0.7"/>
     <use xlink:href="#m4854a793d1" x="283.663536" y="260.715302" style="fill-opacity: 0.7; stroke: #000000; stroke-opacity: 0.7"/>
     <use xlink:href="#m4854a793d1" x="320.668311" y="258.662506" style="fill-opacity: 0.7; stroke: #000000; stroke-opacity: 0.7"/>
     <use xlink:href="#m4854a793d1" x="357.673086" y="255.962216" style="fill-opacity: 0.7; stroke: #000000; stroke-opacity: 0.7"/>
     <use xlink:href="#m4854a793d1" x="394.677861" y="254.305298" style="fill-opacity: 0.7; stroke: #000000; stroke-opacity: 0.7"/>
     <use xlink:href="#m4854a793d1" x="431.682636" y="251.565408" style="fill-opacity: 0.7; stroke: #000000; stroke-opacity: 0.7"/>
    </g>
   </g>
   <g id="matplotlib.axis_1">
    <g id="xtick_1">
     <g id="line2d_1">
      <defs>
       <path id="m83c8a1d5d8" d="M 0 0 
L 0 3.5 
" style="stroke: #000000; stroke-width: 0.8"/>
      </defs>
      <g>
       <use xlink:href="#m83c8a1d5d8" x="61.634886" y="302.2" style="stroke: #000000; stroke-width: 0.8"/>
      </g>
     </g>
     <g id="text_1">
      <!-- 0 -->
      <g transform="translate(58.453636 316.798437) scale(0.1 -0.1)">
       <defs>
        <path id="DejaVuSans-30" d="M 2034 4250 
Q 1547 4250 1301 3770 
Q 1056 3291 1056 2328 
Q 1056 1369 1301 889 
Q 1547 409 2034 409 
Q 2525 409 2770 889 
Q 3016 1369 3016 2328 
Q 3016 3291 2770 3770 
Q 2525 4250 2034 4250 
z
M 2034 4750 
Q 2819 4750 3233 4129 
Q 3647 3509 3647 2328 
Q 3647 1150 3233 529 
Q 2819 -91 2034 -91 
Q 1250 -91 836 529 
Q 422 1150 422 2328 
Q 422 3509 836 4129 
Q 1250 4750 2034 4750 
z
" transform="scale(0.015625)"/>
       </defs>
       <use xlink:href="#DejaVuSans-30"/>
      </g>
     </g>
    </g>
    <g id="xtick_2">
     <g id="line2d_2">
      <g>
       <use xlink:href="#m83c8a1d5d8" x="135.644436" y="302.2" style="stroke: #000000; stroke-width: 0.8"/>
      </g>
     </g>
     <g id="text_2">
      <!-- 1 -->
      <g transform="translate(132.463186 316.798437) scale(0.1 -0.1)">
       <defs>
        <path id="DejaVuSans-31" d="M 794 531 
L 1825 531 
L 1825 4091 
L 703 3866 
L 703 4441 
L 1819 4666 
L 2450 4666 
L 2450 531 
L 3481 531 
L 3481 0 
L 794 0 
L 794 531 
z
" transform="scale(0.015625)"/>
       </defs>
       <use xlink:href="#DejaVuSans-31"/>
      </g>
     </g>
    </g>
    <g id="xtick_3">
     <g id="line2d_3">
      <g>
       <use xlink:href="#m83c8a1d5d8" x="209.653986" y="302.2" style="stroke: #000000; stroke-width: 0.8"/>
      </g>
     </g>
     <g id="text_3">
      <!-- 2 -->
      <g transform="translate(206.472736 316.798437) scale(0.1 -0.1)">
       <defs>
        <path id="DejaVuSans-32" d="M 1228 531 
L 3431 531 
L 3431 0 
L 469 0 
L 469 531 
Q 828 903 1448 1529 
Q 2069 2156 2228 2338 
Q 2531 2678 2651 2914 
Q 2772 3150 2772 3378 
Q 2772 3750 2511 3984 
Q 2250 4219 1831 4219 
Q 1534 4219 1204 4116 
Q 875 4013 500 3803 
L 500 4441 
Q 881 4594 1212 4672 
Q 1544 4750 1819 4750 
Q 2544 4750 2975 4387 
Q 3406 4025 3406 3419 
Q 3406 3131 3298 2873 
Q 3191 2616 2906 2266 
Q 2828 2175 2409 1742 
Q 1991 1309 1228 531 
z
" transform="scale(0.015625)"/>
       </defs>
       <use xlink:href="#DejaVuSans-32"/>
      </g>
     </g>
    </g>
    <g id="xtick_4">
     <g id="line2d_4">
      <g>
       <use xlink:href="#m83c8a1d5d8" x="283.663536" y="302.2" style="stroke: #000000; stroke-width: 0.8"/>
      </g>
     </g>
     <g id="text_4">
      <!-- 3 -->
      <g transform="translate(280.482286 316.798437) scale(0.1 -0.1)">
       <defs>
        <path id="DejaVuSans-33" d="M 2597 2516 
Q 3050 2419 3304 2112 
Q 3559 1806 3559 1356 
Q 3559 666 3084 287 
Q 2609 -91 1734 -91 
Q 1441 -91 1130 -33 
Q 819 25 488 141 
L 488 750 
Q 750 597 1062 519 
Q 1375 441 1716 441 
Q 2309 441 2620 675 
Q 2931 909 2931 1356 
Q 2931 1769 2642 2001 
Q 2353 2234 1838 2234 
L 1294 2234 
L 1294 2753 
L 1863 2753 
Q 2328 2753 2575 2939 
Q 2822 3125 2822 3475 
Q 2822 3834 2567 4026 
Q 2313 4219 1838 4219 
Q 1578 4219 1281 4162 
Q 984 4106 628 3988 
L 628 4550 
Q 988 4650 1302 4700 
Q 1616 4750 1894 4750 
Q 2613 4750 3031 4423 
Q 3450 4097 3450 3541 
Q 3450 3153 3228 2886 
Q 3006 2619 2597 2516 
z
" transform="scale(0.015625)"/>
       </defs>
       <use xlink:href="#DejaVuSans-33"/>
      </g>
     </g>
    </g>
    <g id="xtick_5">
     <g id="line2d_5">
      <g>
       <use xlink:href="#m83c8a1d5d8" x="357.673086" y="302.2" style="stroke: #000000; stroke-width: 0.8"/>
      </g>
     </g>
     <g id="text_5">
      <!-- 4 -->
      <g transform="translate(354.491836 316.798437) scale(0.1 -0.1)">
       <defs>
        <path id="DejaVuSans-34" d="M 2419 4116 
L 825 1625 
L 2419 1625 
L 2419 4116 
z
M 2253 4666 
L 3047 4666 
L 3047 1625 
L 3713 1625 
L 3713 1100 
L 3047 1100 
L 3047 0 
L 2419 0 
L 2419 1100 
L 313 1100 
L 313 1709 
L 2253 4666 
z
" transform="scale(0.015625)"/>
       </defs>
       <use xlink:href="#DejaVuSans-34"/>
      </g>
     </g>
    </g>
    <g id="xtick_6">
     <g id="line2d_6">
      <g>
       <use xlink:href="#m83c8a1d5d8" x="431.682636" y="302.2" style="stroke: #000000; stroke-width: 0.8"/>
      </g>
     </g>
     <g id="text_6">
      <!-- 5 -->
      <g transform="translate(428.501386 316.798437) scale(0.1 -0.1)">
       <defs>
        <path id="DejaVuSans-35" d="M 691 4666 
L 3169 4666 
L 3169 4134 
L 1269 4134 
L 1269 2991 
Q 1406 3038 1543 3061 
Q 1681 3084 1819 3084 
Q 2600 3084 3056 2656 
Q 3513 2228 3513 1497 
Q 3513 744 3044 326 
Q 2575 -91 1722 -91 
Q 1428 -91 1123 -41 
Q 819 9 494 109 
L 494 744 
Q 775 591 1075 516 
Q 1375 441 1709 441 
Q 2250 441 2565 725 
Q 2881 1009 2881 1497 
Q 2881 1984 2565 2268 
Q 2250 2553 1709 2553 
Q 1456 2553 1204 2497 
Q 953 2441 691 2322 
L 691 4666 
z
" transform="scale(0.015625)"/>
       </defs>
       <use xlink:href="#DejaVuSans-35"/>
      </g>
     </g>
    </g>
    <g id="text_7">
     <!-- $W$ (m/hour) -->
     <g transform="translate(220.059 330.476562) scale(0.1 -0.1)">
      <defs>
       <path id="DejaVuSans-Oblique-57" d="M 616 4666 
L 1228 4666 
L 1453 697 
L 3213 4666 
L 3916 4666 
L 4147 697 
L 5888 4666 
L 6528 4666 
L 4453 0 
L 3659 0 
L 3444 3891 
L 1697 0 
L 903 0 
L 616 4666 
z
" transform="scale(0.015625)"/>
       <path id="DejaVuSans-20" transform="scale(0.015625)"/>
       <path id="DejaVuSans-28" d="M 1984 4856 
Q 1566 4138 1362 3434 
Q 1159 2731 1159 2009 
Q 1159 1288 1364 580 
Q 1569 -128 1984 -844 
L 1484 -844 
Q 1016 -109 783 600 
Q 550 1309 550 2009 
Q 550 2706 781 3412 
Q 1013 4119 1484 4856 
L 1984 4856 
z
" transform="scale(0.015625)"/>
       <path id="DejaVuSans-6d" d="M 3328 2828 
Q 3544 3216 3844 3400 
Q 4144 3584 4550 3584 
Q 5097 3584 5394 3201 
Q 5691 2819 5691 2113 
L 5691 0 
L 5113 0 
L 5113 2094 
Q 5113 2597 4934 2840 
Q 4756 3084 4391 3084 
Q 3944 3084 3684 2787 
Q 3425 2491 3425 1978 
L 3425 0 
L 2847 0 
L 2847 2094 
Q 2847 2600 2669 2842 
Q 2491 3084 2119 3084 
Q 1678 3084 1418 2786 
Q 1159 2488 1159 1978 
L 1159 0 
L 581 0 
L 581 3500 
L 1159 3500 
L 1159 2956 
Q 1356 3278 1631 3431 
Q 1906 3584 2284 3584 
Q 2666 3584 2933 3390 
Q 3200 3197 3328 2828 
z
" transform="scale(0.015625)"/>
       <path id="DejaVuSans-2f" d="M 1625 4666 
L 2156 4666 
L 531 -594 
L 0 -594 
L 1625 4666 
z
" transform="scale(0.015625)"/>
       <path id="DejaVuSans-68" d="M 3513 2113 
L 3513 0 
L 2938 0 
L 2938 2094 
Q 2938 2591 2744 2837 
Q 2550 3084 2163 3084 
Q 1697 3084 1428 2787 
Q 1159 2491 1159 1978 
L 1159 0 
L 581 0 
L 581 4863 
L 1159 4863 
L 1159 2956 
Q 1366 3272 1645 3428 
Q 1925 3584 2291 3584 
Q 2894 3584 3203 3211 
Q 3513 2838 3513 2113 
z
" transform="scale(0.015625)"/>
       <path id="DejaVuSans-6f" d="M 1959 3097 
Q 1497 3097 1228 2736 
Q 959 2375 959 1747 
Q 959 1119 1226 758 
Q 1494 397 1959 397 
Q 2419 397 2687 759 
Q 2956 1122 2956 1747 
Q 2956 2369 2687 2733 
Q 2419 3097 1959 3097 
z
M 1959 3584 
Q 2709 3584 3137 3096 
Q 3566 2609 3566 1747 
Q 3566 888 3137 398 
Q 2709 -91 1959 -91 
Q 1206 -91 779 398 
Q 353 888 353 1747 
Q 353 2609 779 3096 
Q 1206 3584 1959 3584 
z
" transform="scale(0.015625)"/>
       <path id="DejaVuSans-75" d="M 544 1381 
L 544 3500 
L 1119 3500 
L 1119 1403 
Q 1119 906 1312 657 
Q 1506 409 1894 409 
Q 2359 409 2629 706 
Q 2900 1003 2900 1516 
L 2900 3500 
L 3475 3500 
L 3475 0 
L 2900 0 
L 2900 538 
Q 2691 219 2414 64 
Q 2138 -91 1772 -91 
Q 1169 -91 856 284 
Q 544 659 544 1381 
z
M 1991 3584 
L 1991 3584 
z
" transform="scale(0.015625)"/>
       <path id="DejaVuSans-72" d="M 2631 2963 
Q 2534 3019 2420 3045 
Q 2306 3072 2169 3072 
Q 1681 3072 1420 2755 
Q 1159 2438 1159 1844 
L 1159 0 
L 581 0 
L 581 3500 
L 1159 3500 
L 1159 2956 
Q 1341 3275 1631 3429 
Q 1922 3584 2338 3584 
Q 2397 3584 2469 3576 
Q 2541 3569 2628 3553 
L 2631 2963 
z
" transform="scale(0.015625)"/>
       <path id="DejaVuSans-29" d="M 513 4856 
L 1013 4856 
Q 1481 4119 1714 3412 
Q 1947 2706 1947 2009 
Q 1947 1309 1714 600 
Q 1481 -109 1013 -844 
L 513 -844 
Q 928 -128 1133 580 
Q 1338 1288 1338 2009 
Q 1338 2731 1133 3434 
Q 928 4138 513 4856 
z
" transform="scale(0.015625)"/>
      </defs>
      <use xlink:href="#DejaVuSans-Oblique-57" transform="translate(0 0.015625)"/>
      <use xlink:href="#DejaVuSans-20" transform="translate(98.876953 0.015625)"/>
      <use xlink:href="#DejaVuSans-28" transform="translate(130.664062 0.015625)"/>
      <use xlink:href="#DejaVuSans-6d" transform="translate(169.677734 0.015625)"/>
      <use xlink:href="#DejaVuSans-2f" transform="translate(267.089844 0.015625)"/>
      <use xlink:href="#DejaVuSans-68" transform="translate(300.78125 0.015625)"/>
      <use xlink:href="#DejaVuSans-6f" transform="translate(364.160156 0.015625)"/>
      <use xlink:href="#DejaVuSans-75" transform="translate(425.341797 0.015625)"/>
      <use xlink:href="#DejaVuSans-72" transform="translate(488.720703 0.015625)"/>
      <use xlink:href="#DejaVuSans-29" transform="translate(529.833984 0.015625)"/>
     </g>
    </g>
   </g>
   <g id="matplotlib.axis_2">
    <g id="ytick_1">
     <g id="line2d_7">
      <defs>
       <path id="m1cbe4122cc" d="M 0 0 
L -3.5 0 
" style="stroke: #000000; stroke-width: 0.8"/>
      </defs>
      <g>
       <use xlink:href="#m1cbe4122cc" x="47.018" y="300.335517" style="stroke: #000000; stroke-width: 0.8"/>
      </g>
     </g>
     <g id="text_8">
      <!-- 0 -->
      <g transform="translate(33.6555 304.134736) scale(0.1 -0.1)">
       <use xlink:href="#DejaVuSans-30"/>
      </g>
     </g>
    </g>
    <g id="ytick_2">
     <g id="line2d_8">
      <g>
       <use xlink:href="#m1cbe4122cc" x="47.018" y="235.913804" style="stroke: #000000; stroke-width: 0.8"/>
      </g>
     </g>
     <g id="text_9">
      <!-- 10 -->
      <g transform="translate(27.293 239.713023) scale(0.1 -0.1)">
       <use xlink:href="#DejaVuSans-31"/>
       <use xlink:href="#DejaVuSans-30" transform="translate(63.623047 0)"/>
      </g>
     </g>
    </g>
    <g id="ytick_3">
     <g id="line2d_9">
      <g>
       <use xlink:href="#m1cbe4122cc" x="47.018" y="171.49209" style="stroke: #000000; stroke-width: 0.8"/>
      </g>
     </g>
     <g id="text_10">
      <!-- 20 -->
      <g transform="translate(27.293 175.291309) scale(0.1 -0.1)">
       <use xlink:href="#DejaVuSans-32"/>
       <use xlink:href="#DejaVuSans-30" transform="translate(63.623047 0)"/>
      </g>
     </g>
    </g>
    <g id="ytick_4">
     <g id="line2d_10">
      <g>
       <use xlink:href="#m1cbe4122cc" x="47.018" y="107.070376" style="stroke: #000000; stroke-width: 0.8"/>
      </g>
     </g>
     <g id="text_11">
      <!-- 30 -->
      <g transform="translate(27.293 110.869595) scale(0.1 -0.1)">
       <use xlink:href="#DejaVuSans-33"/>
       <use xlink:href="#DejaVuSans-30" transform="translate(63.623047 0)"/>
      </g>
     </g>
    </g>
    <g id="ytick_5">
     <g id="line2d_11">
      <g>
       <use xlink:href="#m1cbe4122cc" x="47.018" y="42.648663" style="stroke: #000000; stroke-width: 0.8"/>
      </g>
     </g>
     <g id="text_12">
      <!-- 40 -->
      <g transform="translate(27.293 46.447882) scale(0.1 -0.1)">
       <use xlink:href="#DejaVuSans-34"/>
       <use xlink:href="#DejaVuSans-30" transform="translate(63.623047 0)"/>
      </g>
     </g>
    </g>
    <g id="text_13">
     <!-- $Q_{lc}$ (kW) -->
     <g transform="translate(21.213312 176.8) rotate(-90) scale(0.1 -0.1)">
      <defs>
       <path id="DejaVuSans-Oblique-51" d="M 2309 -84 
Q 2275 -88 2237 -89 
Q 2200 -91 2125 -91 
Q 1250 -91 756 411 
Q 263 913 263 1797 
Q 263 2319 452 2844 
Q 641 3369 978 3788 
Q 1369 4269 1858 4509 
Q 2347 4750 2938 4750 
Q 3794 4750 4287 4245 
Q 4781 3741 4781 2869 
Q 4781 1928 4265 1147 
Q 3750 366 2919 44 
L 3553 -825 
L 2847 -825 
L 2309 -84 
z
M 2919 4238 
Q 2400 4238 2003 3986 
Q 1606 3734 1313 3219 
Q 1125 2891 1026 2522 
Q 928 2153 928 1778 
Q 928 1128 1239 775 
Q 1550 422 2119 422 
Q 2631 422 3032 676 
Q 3434 931 3719 1434 
Q 3909 1772 4009 2142 
Q 4109 2513 4109 2881 
Q 4109 3528 3796 3883 
Q 3484 4238 2919 4238 
z
" transform="scale(0.015625)"/>
       <path id="DejaVuSans-Oblique-6c" d="M 1172 4863 
L 1747 4863 
L 800 0 
L 225 0 
L 1172 4863 
z
" transform="scale(0.015625)"/>
       <path id="DejaVuSans-Oblique-63" d="M 3431 3366 
L 3316 2797 
Q 3109 2947 2876 3022 
Q 2644 3097 2394 3097 
Q 2119 3097 1870 3000 
Q 1622 2903 1453 2725 
Q 1184 2453 1037 2087 
Q 891 1722 891 1331 
Q 891 859 1127 628 
Q 1363 397 1844 397 
Q 2081 397 2348 469 
Q 2616 541 2906 684 
L 2797 116 
Q 2547 13 2283 -39 
Q 2019 -91 1741 -91 
Q 1044 -91 669 257 
Q 294 606 294 1253 
Q 294 1797 489 2255 
Q 684 2713 1069 3078 
Q 1331 3328 1684 3456 
Q 2038 3584 2456 3584 
Q 2700 3584 2940 3529 
Q 3181 3475 3431 3366 
z
" transform="scale(0.015625)"/>
       <path id="DejaVuSans-6b" d="M 581 4863 
L 1159 4863 
L 1159 1991 
L 2875 3500 
L 3609 3500 
L 1753 1863 
L 3688 0 
L 2938 0 
L 1159 1709 
L 1159 0 
L 581 0 
L 581 4863 
z
" transform="scale(0.015625)"/>
       <path id="DejaVuSans-57" d="M 213 4666 
L 850 4666 
L 1831 722 
L 2809 4666 
L 3519 4666 
L 4500 722 
L 5478 4666 
L 6119 4666 
L 4947 0 
L 4153 0 
L 3169 4050 
L 2175 0 
L 1381 0 
L 213 4666 
z
" transform="scale(0.015625)"/>
      </defs>
      <use xlink:href="#DejaVuSans-Oblique-51" transform="translate(0 0.015625)"/>
      <use xlink:href="#DejaVuSans-Oblique-6c" transform="translate(78.710938 -16.390625) scale(0.7)"/>
      <use xlink:href="#DejaVuSans-Oblique-63" transform="translate(98.15918 -16.390625) scale(0.7)"/>
      <use xlink:href="#DejaVuSans-20" transform="translate(139.379883 0.015625)"/>
      <use xlink:href="#DejaVuSans-28" transform="translate(171.166992 0.015625)"/>
      <use xlink:href="#DejaVuSans-6b" transform="translate(210.180664 0.015625)"/>
      <use xlink:href="#DejaVuSans-57" transform="translate(268.09082 0.015625)"/>
      <use xlink:href="#DejaVuSans-29" transform="translate(366.967773 0.015625)"/>
     </g>
    </g>
   </g>
   <g id="line2d_12">
    <path d="M 65.335364 276.180179 
L 72.811839 268.451335 
L 80.288314 262.045735 
L 87.764788 256.719099 
L 95.241263 252.250682 
L 102.717738 248.448636 
L 110.194213 245.149264 
L 117.670688 242.220351 
L 125.147163 239.558738 
L 132.623638 237.087223 
L 140.100113 234.748888 
L 147.576588 232.505988 
L 155.053063 230.33416 
L 162.529538 228.218933 
L 170.006013 226.152693 
L 177.482488 224.132221 
L 184.958963 222.156906 
L 192.435438 220.227519 
L 199.911913 218.345443 
L 207.388388 216.511964 
L 214.864863 214.728412 
L 222.341338 212.996536 
L 229.817813 211.316384 
L 237.294288 209.687062 
L 244.770763 208.107172 
L 252.247237 206.574432 
L 259.723712 205.085302 
L 267.200187 203.635315 
L 274.676662 202.219349 
L 282.153137 200.832015 
L 289.629612 199.468124 
L 297.106087 198.123089 
L 304.582562 196.793252 
L 312.059037 195.475983 
L 319.535512 194.169552 
L 327.011987 192.872707 
L 334.488462 191.584049 
L 341.964937 190.301257 
L 349.441412 189.020331 
L 356.917887 187.735024 
L 364.394362 186.436645 
L 371.870837 185.114424 
L 379.347312 183.756548 
L 386.823787 182.351093 
L 394.300262 180.890383 
L 401.776737 179.375819 
L 409.253212 177.810958 
L 416.729686 176.218637 
L 424.206161 174.637417 
L 431.682636 173.127055 
" clip-path="url(#pbafd50479d)" style="fill: none; stroke: #1f77b4; stroke-width: 1.5; stroke-linecap: square"/>
   </g>
   <g id="line2d_13">
    <path d="M 65.335364 277.944023 
L 72.811839 270.801456 
L 80.288314 264.89739 
L 87.764788 260.001381 
L 95.241263 255.90286 
L 102.717738 252.417471 
L 110.194213 249.389887 
L 117.670688 246.694219 
L 125.147163 244.232681 
L 132.623638 241.932863 
L 140.100113 239.744075 
L 147.576588 237.633254 
L 155.053063 235.580849 
L 162.529538 233.576996 
L 170.006013 231.618239 
L 177.482488 229.704883 
L 184.958963 227.839044 
L 192.435438 226.023294 
L 199.911913 224.259857 
L 207.388388 222.550168 
L 214.864863 220.894724 
L 222.341338 219.293065 
L 229.817813 217.743804 
L 237.294288 216.244725 
L 244.770763 214.793093 
L 252.247237 213.38542 
L 259.723712 212.017749 
L 267.200187 210.685858 
L 274.676662 209.385501 
L 282.153137 208.112622 
L 289.629612 206.863829 
L 297.106087 205.636517 
L 304.582562 204.428957 
L 312.059037 203.24028 
L 319.535512 202.070242 
L 327.011987 200.918769 
L 334.488462 199.785356 
L 341.964937 198.66837 
L 349.441412 197.564397 
L 356.917887 196.467758 
L 364.394362 195.370362 
L 371.870837 194.262029 
L 379.347312 193.131382 
L 386.823787 191.967365 
L 394.300262 190.761125 
L 401.776737 189.508842 
L 409.253212 188.215292 
L 416.729686 186.897747 
L 424.206161 185.582928 
L 431.682636 184.315267 
" clip-path="url(#pbafd50479d)" style="fill: none; stroke: #ff7f0e; stroke-width: 1.5; stroke-linecap: square"/>
   </g>
   <g id="line2d_14">
    <path d="M 65.335364 278.609141 
L 72.811839 272.068063 
L 80.288314 266.66414 
L 87.764788 262.181124 
L 95.241263 258.422967 
L 102.717738 255.217898 
L 110.194213 252.421373 
L 117.670688 249.917128 
L 125.147163 247.616173 
L 132.623638 245.453844 
L 140.100113 243.386219 
L 147.576588 241.386117 
L 155.053063 239.438733 
L 162.529538 237.53855 
L 170.006013 235.6859 
L 177.482488 233.881829 
L 184.958963 232.130643 
L 192.435438 230.434636 
L 199.911913 228.796653 
L 207.388388 227.215811 
L 214.864863 225.692023 
L 222.341338 224.223015 
L 229.817813 222.805581 
L 237.294288 221.435901 
L 244.770763 220.109813 
L 252.247237 218.823086 
L 259.723712 217.57162 
L 267.200187 216.351642 
L 274.676662 215.159885 
L 282.153137 213.993348 
L 289.629612 212.850157 
L 297.106087 211.730332 
L 304.582562 210.632203 
L 312.059037 209.557895 
L 319.535512 208.507373 
L 327.011987 207.480938 
L 334.488462 206.48057 
L 341.964937 205.505201 
L 349.441412 204.552246 
L 356.917887 203.618039 
L 364.394362 202.694867 
L 371.870837 201.773997 
L 379.347312 200.845019 
L 386.823787 199.898922 
L 394.300262 198.927888 
L 401.776737 197.927756 
L 409.253212 196.900547 
L 416.729686 195.855854 
L 424.206161 194.81546 
L 431.682636 193.813788 
" clip-path="url(#pbafd50479d)" style="fill: none; stroke: #2ca02c; stroke-width: 1.5; stroke-linecap: square"/>
   </g>
   <g id="line2d_15">
    <path d="M 65.335364 279.101706 
L 72.811839 273.407143 
L 80.288314 268.695442 
L 87.764788 264.770508 
L 95.241263 261.463053 
L 102.717738 258.621809 
L 110.194213 256.121963 
L 117.670688 253.865085 
L 125.147163 251.776566 
L 132.623638 249.803715 
L 140.100113 247.912444 
L 147.576588 246.082484 
L 155.053063 244.304767 
L 162.529538 242.577171 
L 170.006013 240.902936 
L 177.482488 239.283858 
L 184.958963 237.723405 
L 192.435438 236.223753 
L 199.911913 234.785128 
L 207.388388 233.405156 
L 214.864863 232.080619 
L 222.341338 230.807019 
L 229.817813 229.578976 
L 237.294288 228.392118 
L 244.770763 227.240965 
L 252.247237 226.12072 
L 259.723712 225.027381 
L 267.200187 223.959797 
L 274.676662 222.914482 
L 282.153137 221.889478 
L 289.629612 220.886848 
L 297.106087 219.90455 
L 304.582562 218.945577 
L 312.059037 218.012059 
L 319.535512 217.101275 
L 327.011987 216.220305 
L 334.488462 215.367364 
L 341.964937 214.540988 
L 349.441412 213.740376 
L 356.917887 212.964286 
L 364.394362 212.207879 
L 371.870837 211.462704 
L 379.347312 210.72673 
L 386.823787 209.993219 
L 394.300262 209.2521 
L 401.776737 208.503482 
L 409.253212 207.749745 
L 416.729686 206.996458 
L 424.206161 206.262118 
L 431.682636 205.57115 
" clip-path="url(#pbafd50479d)" style="fill: none; stroke: #d62728; stroke-width: 1.5; stroke-linecap: square"/>
   </g>
   <g id="line2d_16">
    <path d="M 65.335364 280.075513 
L 72.811839 275.072338 
L 80.288314 270.917911 
L 87.764788 267.446327 
L 95.241263 264.506615 
L 102.717738 261.967408 
L 110.194213 259.722443 
L 117.670688 257.686466 
L 125.147163 255.796964 
L 132.623638 254.0104 
L 140.100113 252.299162 
L 147.576588 250.647981 
L 155.053063 249.050292 
L 162.529538 247.505312 
L 170.006013 246.014935 
L 177.482488 244.581733 
L 184.958963 243.207314 
L 192.435438 241.891894 
L 199.911913 240.633941 
L 207.388388 239.430329 
L 214.864863 238.276409 
L 222.341338 237.166561 
L 229.817813 236.095353 
L 237.294288 235.057421 
L 244.770763 234.048075 
L 252.247237 233.063408 
L 259.723712 232.100148 
L 267.200187 231.156534 
L 274.676662 230.230956 
L 282.153137 229.323865 
L 289.629612 228.434239 
L 297.106087 227.563279 
L 304.582562 226.712918 
L 312.059037 225.882752 
L 319.535512 225.075139 
L 327.011987 224.289549 
L 334.488462 223.528451 
L 341.964937 222.79196 
L 349.441412 222.07957 
L 356.917887 221.385412 
L 364.394362 220.710382 
L 371.870837 220.049713 
L 379.347312 219.400181 
L 386.823787 218.755786 
L 394.300262 218.113722 
L 401.776737 217.477364 
L 409.253212 216.846444 
L 416.729686 216.232068 
L 424.206161 215.645756 
L 431.682636 215.113279 
" clip-path="url(#pbafd50479d)" style="fill: none; stroke: #9467bd; stroke-width: 1.5; stroke-linecap: square"/>
   </g>
   <g id="line2d_17">
    <path d="M 65.335364 281.961344 
L 72.811839 277.697094 
L 80.288314 274.147869 
L 87.764788 271.171917 
L 95.241263 268.642949 
L 102.717738 266.450869 
L 110.194213 264.50686 
L 117.670688 262.741343 
L 125.147163 261.102972 
L 132.623638 259.55645 
L 140.100113 258.079571 
L 147.576588 256.660138 
L 155.053063 255.292893 
L 162.529538 253.976756 
L 170.006013 252.712559 
L 177.482488 251.501357 
L 184.958963 250.343348 
L 192.435438 249.237341 
L 199.911913 248.180489 
L 207.388388 247.168873 
L 214.864863 246.197597 
L 222.341338 245.261399 
L 229.817813 244.35518 
L 237.294288 243.474228 
L 244.770763 242.615277 
L 252.247237 241.774697 
L 259.723712 240.950851 
L 267.200187 240.142945 
L 274.676662 239.350099 
L 282.153137 238.572229 
L 289.629612 237.80853 
L 297.106087 237.060237 
L 304.582562 236.328054 
L 312.059037 235.612764 
L 319.535512 234.914237 
L 327.011987 234.232627 
L 334.488462 233.567771 
L 341.964937 232.917765 
L 349.441412 232.282576 
L 356.917887 231.66166 
L 364.394362 231.052356 
L 371.870837 230.451962 
L 379.347312 229.857865 
L 386.823787 229.268914 
L 394.300262 228.685756 
L 401.776737 228.110166 
L 409.253212 227.548027 
L 416.729686 227.010482 
L 424.206161 226.512978 
L 431.682636 226.076701 
" clip-path="url(#pbafd50479d)" style="fill: none; stroke: #8c564b; stroke-width: 1.5; stroke-linecap: square"/>
   </g>
   <g id="line2d_18">
    <path d="M 65.335364 284.661884 
L 72.811839 281.176909 
L 80.288314 278.271409 
L 87.764788 275.831131 
L 95.241263 273.752915 
L 102.717738 271.950969 
L 110.194213 270.353985 
L 117.670688 268.905812 
L 125.147163 267.565233 
L 132.623638 266.303518 
L 140.100113 265.103081 
L 147.576588 263.95367 
L 155.053063 262.850329 
L 162.529538 261.791395 
L 170.006013 260.776184 
L 177.482488 259.804346 
L 184.958963 258.874813 
L 192.435438 257.985426 
L 199.911913 257.133451 
L 207.388388 256.31516 
L 214.864863 255.526446 
L 222.341338 254.763196 
L 229.817813 254.021684 
L 237.294288 253.298852 
L 244.770763 252.592346 
L 252.247237 251.900561 
L 259.723712 251.222555 
L 267.200187 250.557924 
L 274.676662 249.906587 
L 282.153137 249.268538 
L 289.629612 248.644104 
L 297.106087 248.033531 
L 304.582562 247.435766 
L 312.059037 246.850441 
L 319.535512 246.277168 
L 327.011987 245.714441 
L 334.488462 245.161364 
L 341.964937 244.616639 
L 349.441412 244.078123 
L 356.917887 243.544039 
L 364.394362 243.012197 
L 371.870837 242.479624 
L 379.347312 241.945879 
L 386.823787 241.410954 
L 394.300262 240.876745 
L 401.776737 240.348181 
L 409.253212 239.833697 
L 416.729686 239.346309 
L 424.206161 238.904047 
L 431.682636 238.530448 
" clip-path="url(#pbafd50479d)" style="fill: none; stroke: #e377c2; stroke-width: 1.5; stroke-linecap: square"/>
   </g>
   <g id="line2d_19">
    <path d="M 65.335364 288.74845 
L 72.811839 286.329103 
L 80.288314 284.311253 
L 87.764788 282.61784 
L 95.241263 281.178812 
L 102.717738 279.934112 
L 110.194213 278.834576 
L 117.670688 277.840896 
L 125.147163 276.924215 
L 132.623638 276.063846 
L 140.100113 275.246102 
L 147.576588 274.462588 
L 155.053063 273.708506 
L 162.529538 272.981133 
L 170.006013 272.279446 
L 177.482488 271.602597 
L 184.958963 270.949872 
L 192.435438 270.319781 
L 199.911913 269.710808 
L 207.388388 269.121334 
L 214.864863 268.549722 
L 222.341338 267.994395 
L 229.817813 267.454185 
L 237.294288 266.928339 
L 244.770763 266.416525 
L 252.247237 265.918766 
L 259.723712 265.435335 
L 267.200187 264.966612 
L 274.676662 264.512942 
L 282.153137 264.074505 
L 289.629612 263.651074 
L 297.106087 263.242081 
L 304.582562 262.846937 
L 312.059037 262.464381 
L 319.535512 262.092479 
L 327.011987 261.728919 
L 334.488462 261.370924 
L 341.964937 261.014829 
L 349.441412 260.657938 
L 356.917887 260.296275 
L 364.394362 259.926644 
L 371.870837 259.545941 
L 379.347312 259.152405 
L 386.823787 258.746367 
L 394.300262 258.330893 
L 401.776737 257.912391 
L 409.253212 257.501503 
L 416.729686 257.113727 
L 424.206161 256.769801 
L 431.682636 256.495614 
" clip-path="url(#pbafd50479d)" style="fill: none; stroke: #7f7f7f; stroke-width: 1.5; stroke-linecap: square"/>
   </g>
   <g id="patch_3">
    <path d="M 47.018 302.2 
L 47.018 10.8 
" style="fill: none; stroke: #000000; stroke-width: 0.8; stroke-linejoin: miter; stroke-linecap: square"/>
   </g>
   <g id="patch_4">
    <path d="M 450 302.2 
L 450 10.8 
" style="fill: none; stroke: #000000; stroke-width: 0.8; stroke-linejoin: miter; stroke-linecap: square"/>
   </g>
   <g id="patch_5">
    <path d="M 47.018 302.2 
L 450 302.2 
" style="fill: none; stroke: #000000; stroke-width: 0.8; stroke-linejoin: miter; stroke-linecap: square"/>
   </g>
   <g id="patch_6">
    <path d="M 47.018 10.8 
L 450 10.8 
" style="fill: none; stroke: #000000; stroke-width: 0.8; stroke-linejoin: miter; stroke-linecap: square"/>
   </g>
   <g id="legend_1">
    <g id="patch_7">
     <path d="M 54.018 150.903125 
L 152.852375 150.903125 
Q 154.852375 150.903125 154.852375 148.903125 
L 154.852375 17.8 
Q 154.852375 15.8 152.852375 15.8 
L 54.018 15.8 
Q 52.018 15.8 52.018 17.8 
L 52.018 148.903125 
Q 52.018 150.903125 54.018 150.903125 
z
" style="fill: #ffffff; opacity: 0.8; stroke: #cccccc; stroke-linejoin: miter"/>
    </g>
    <g id="line2d_20">
     <path d="M 56.018 23.898438 
L 66.018 23.898438 
L 76.018 23.898438 
" style="fill: none; stroke: #1f77b4; stroke-width: 1.5; stroke-linecap: square"/>
    </g>
    <g id="text_14">
     <!-- Ts=80 K -->
     <g transform="translate(84.018 27.398438) scale(0.1 -0.1)">
      <defs>
       <path id="DejaVuSans-54" d="M -19 4666 
L 3928 4666 
L 3928 4134 
L 2272 4134 
L 2272 0 
L 1638 0 
L 1638 4134 
L -19 4134 
L -19 4666 
z
" transform="scale(0.015625)"/>
       <path id="DejaVuSans-73" d="M 2834 3397 
L 2834 2853 
Q 2591 2978 2328 3040 
Q 2066 3103 1784 3103 
Q 1356 3103 1142 2972 
Q 928 2841 928 2578 
Q 928 2378 1081 2264 
Q 1234 2150 1697 2047 
L 1894 2003 
Q 2506 1872 2764 1633 
Q 3022 1394 3022 966 
Q 3022 478 2636 193 
Q 2250 -91 1575 -91 
Q 1294 -91 989 -36 
Q 684 19 347 128 
L 347 722 
Q 666 556 975 473 
Q 1284 391 1588 391 
Q 1994 391 2212 530 
Q 2431 669 2431 922 
Q 2431 1156 2273 1281 
Q 2116 1406 1581 1522 
L 1381 1569 
Q 847 1681 609 1914 
Q 372 2147 372 2553 
Q 372 3047 722 3315 
Q 1072 3584 1716 3584 
Q 2034 3584 2315 3537 
Q 2597 3491 2834 3397 
z
" transform="scale(0.015625)"/>
       <path id="DejaVuSans-3d" d="M 678 2906 
L 4684 2906 
L 4684 2381 
L 678 2381 
L 678 2906 
z
M 678 1631 
L 4684 1631 
L 4684 1100 
L 678 1100 
L 678 1631 
z
" transform="scale(0.015625)"/>
       <path id="DejaVuSans-38" d="M 2034 2216 
Q 1584 2216 1326 1975 
Q 1069 1734 1069 1313 
Q 1069 891 1326 650 
Q 1584 409 2034 409 
Q 2484 409 2743 651 
Q 3003 894 3003 1313 
Q 3003 1734 2745 1975 
Q 2488 2216 2034 2216 
z
M 1403 2484 
Q 997 2584 770 2862 
Q 544 3141 544 3541 
Q 544 4100 942 4425 
Q 1341 4750 2034 4750 
Q 2731 4750 3128 4425 
Q 3525 4100 3525 3541 
Q 3525 3141 3298 2862 
Q 3072 2584 2669 2484 
Q 3125 2378 3379 2068 
Q 3634 1759 3634 1313 
Q 3634 634 3220 271 
Q 2806 -91 2034 -91 
Q 1263 -91 848 271 
Q 434 634 434 1313 
Q 434 1759 690 2068 
Q 947 2378 1403 2484 
z
M 1172 3481 
Q 1172 3119 1398 2916 
Q 1625 2713 2034 2713 
Q 2441 2713 2670 2916 
Q 2900 3119 2900 3481 
Q 2900 3844 2670 4047 
Q 2441 4250 2034 4250 
Q 1625 4250 1398 4047 
Q 1172 3844 1172 3481 
z
" transform="scale(0.015625)"/>
       <path id="DejaVuSans-4b" d="M 628 4666 
L 1259 4666 
L 1259 2694 
L 3353 4666 
L 4166 4666 
L 1850 2491 
L 4331 0 
L 3500 0 
L 1259 2247 
L 1259 0 
L 628 0 
L 628 4666 
z
" transform="scale(0.015625)"/>
      </defs>
      <use xlink:href="#DejaVuSans-54"/>
      <use xlink:href="#DejaVuSans-73" transform="translate(44.583984 0)"/>
      <use xlink:href="#DejaVuSans-3d" transform="translate(96.683594 0)"/>
      <use xlink:href="#DejaVuSans-38" transform="translate(180.472656 0)"/>
      <use xlink:href="#DejaVuSans-30" transform="translate(244.095703 0)"/>
      <use xlink:href="#DejaVuSans-20" transform="translate(307.71875 0)"/>
      <use xlink:href="#DejaVuSans-4b" transform="translate(339.505859 0)"/>
     </g>
    </g>
    <g id="line2d_21">
     <path d="M 56.018 38.576563 
L 66.018 38.576563 
L 76.018 38.576563 
" style="fill: none; stroke: #ff7f0e; stroke-width: 1.5; stroke-linecap: square"/>
    </g>
    <g id="text_15">
     <!-- Ts=100 K -->
     <g transform="translate(84.018 42.076563) scale(0.1 -0.1)">
      <use xlink:href="#DejaVuSans-54"/>
      <use xlink:href="#DejaVuSans-73" transform="translate(44.583984 0)"/>
      <use xlink:href="#DejaVuSans-3d" transform="translate(96.683594 0)"/>
      <use xlink:href="#DejaVuSans-31" transform="translate(180.472656 0)"/>
      <use xlink:href="#DejaVuSans-30" transform="translate(244.095703 0)"/>
      <use xlink:href="#DejaVuSans-30" transform="translate(307.71875 0)"/>
      <use xlink:href="#DejaVuSans-20" transform="translate(371.341797 0)"/>
      <use xlink:href="#DejaVuSans-4b" transform="translate(403.128906 0)"/>
     </g>
    </g>
    <g id="line2d_22">
     <path d="M 56.018 53.254687 
L 66.018 53.254687 
L 76.018 53.254687 
" style="fill: none; stroke: #2ca02c; stroke-width: 1.5; stroke-linecap: square"/>
    </g>
    <g id="text_16">
     <!-- Ts=120 K -->
     <g transform="translate(84.018 56.754687) scale(0.1 -0.1)">
      <use xlink:href="#DejaVuSans-54"/>
      <use xlink:href="#DejaVuSans-73" transform="translate(44.583984 0)"/>
      <use xlink:href="#DejaVuSans-3d" transform="translate(96.683594 0)"/>
      <use xlink:href="#DejaVuSans-31" transform="translate(180.472656 0)"/>
      <use xlink:href="#DejaVuSans-32" transform="translate(244.095703 0)"/>
      <use xlink:href="#DejaVuSans-30" transform="translate(307.71875 0)"/>
      <use xlink:href="#DejaVuSans-20" transform="translate(371.341797 0)"/>
      <use xlink:href="#DejaVuSans-4b" transform="translate(403.128906 0)"/>
     </g>
    </g>
    <g id="line2d_23">
     <path d="M 56.018 67.932813 
L 66.018 67.932813 
L 76.018 67.932813 
" style="fill: none; stroke: #d62728; stroke-width: 1.5; stroke-linecap: square"/>
    </g>
    <g id="text_17">
     <!-- Ts=140 K -->
     <g transform="translate(84.018 71.432813) scale(0.1 -0.1)">
      <use xlink:href="#DejaVuSans-54"/>
      <use xlink:href="#DejaVuSans-73" transform="translate(44.583984 0)"/>
      <use xlink:href="#DejaVuSans-3d" transform="translate(96.683594 0)"/>
      <use xlink:href="#DejaVuSans-31" transform="translate(180.472656 0)"/>
      <use xlink:href="#DejaVuSans-34" transform="translate(244.095703 0)"/>
      <use xlink:href="#DejaVuSans-30" transform="translate(307.71875 0)"/>
      <use xlink:href="#DejaVuSans-20" transform="translate(371.341797 0)"/>
      <use xlink:href="#DejaVuSans-4b" transform="translate(403.128906 0)"/>
     </g>
    </g>
    <g id="line2d_24">
     <path d="M 56.018 82.610938 
L 66.018 82.610938 
L 76.018 82.610938 
" style="fill: none; stroke: #9467bd; stroke-width: 1.5; stroke-linecap: square"/>
    </g>
    <g id="text_18">
     <!-- Ts=160 K -->
     <g transform="translate(84.018 86.110938) scale(0.1 -0.1)">
      <defs>
       <path id="DejaVuSans-36" d="M 2113 2584 
Q 1688 2584 1439 2293 
Q 1191 2003 1191 1497 
Q 1191 994 1439 701 
Q 1688 409 2113 409 
Q 2538 409 2786 701 
Q 3034 994 3034 1497 
Q 3034 2003 2786 2293 
Q 2538 2584 2113 2584 
z
M 3366 4563 
L 3366 3988 
Q 3128 4100 2886 4159 
Q 2644 4219 2406 4219 
Q 1781 4219 1451 3797 
Q 1122 3375 1075 2522 
Q 1259 2794 1537 2939 
Q 1816 3084 2150 3084 
Q 2853 3084 3261 2657 
Q 3669 2231 3669 1497 
Q 3669 778 3244 343 
Q 2819 -91 2113 -91 
Q 1303 -91 875 529 
Q 447 1150 447 2328 
Q 447 3434 972 4092 
Q 1497 4750 2381 4750 
Q 2619 4750 2861 4703 
Q 3103 4656 3366 4563 
z
" transform="scale(0.015625)"/>
      </defs>
      <use xlink:href="#DejaVuSans-54"/>
      <use xlink:href="#DejaVuSans-73" transform="translate(44.583984 0)"/>
      <use xlink:href="#DejaVuSans-3d" transform="translate(96.683594 0)"/>
      <use xlink:href="#DejaVuSans-31" transform="translate(180.472656 0)"/>
      <use xlink:href="#DejaVuSans-36" transform="translate(244.095703 0)"/>
      <use xlink:href="#DejaVuSans-30" transform="translate(307.71875 0)"/>
      <use xlink:href="#DejaVuSans-20" transform="translate(371.341797 0)"/>
      <use xlink:href="#DejaVuSans-4b" transform="translate(403.128906 0)"/>
     </g>
    </g>
    <g id="line2d_25">
     <path d="M 56.018 97.289062 
L 66.018 97.289062 
L 76.018 97.289062 
" style="fill: none; stroke: #8c564b; stroke-width: 1.5; stroke-linecap: square"/>
    </g>
    <g id="text_19">
     <!-- Ts=180 K -->
     <g transform="translate(84.018 100.789062) scale(0.1 -0.1)">
      <use xlink:href="#DejaVuSans-54"/>
      <use xlink:href="#DejaVuSans-73" transform="translate(44.583984 0)"/>
      <use xlink:href="#DejaVuSans-3d" transform="translate(96.683594 0)"/>
      <use xlink:href="#DejaVuSans-31" transform="translate(180.472656 0)"/>
      <use xlink:href="#DejaVuSans-38" transform="translate(244.095703 0)"/>
      <use xlink:href="#DejaVuSans-30" transform="translate(307.71875 0)"/>
      <use xlink:href="#DejaVuSans-20" transform="translate(371.341797 0)"/>
      <use xlink:href="#DejaVuSans-4b" transform="translate(403.128906 0)"/>
     </g>
    </g>
    <g id="line2d_26">
     <path d="M 56.018 111.967187 
L 66.018 111.967187 
L 76.018 111.967187 
" style="fill: none; stroke: #e377c2; stroke-width: 1.5; stroke-linecap: square"/>
    </g>
    <g id="text_20">
     <!-- Ts=200 K -->
     <g transform="translate(84.018 115.467187) scale(0.1 -0.1)">
      <use xlink:href="#DejaVuSans-54"/>
      <use xlink:href="#DejaVuSans-73" transform="translate(44.583984 0)"/>
      <use xlink:href="#DejaVuSans-3d" transform="translate(96.683594 0)"/>
      <use xlink:href="#DejaVuSans-32" transform="translate(180.472656 0)"/>
      <use xlink:href="#DejaVuSans-30" transform="translate(244.095703 0)"/>
      <use xlink:href="#DejaVuSans-30" transform="translate(307.71875 0)"/>
      <use xlink:href="#DejaVuSans-20" transform="translate(371.341797 0)"/>
      <use xlink:href="#DejaVuSans-4b" transform="translate(403.128906 0)"/>
     </g>
    </g>
    <g id="line2d_27">
     <path d="M 56.018 126.645312 
L 66.018 126.645312 
L 76.018 126.645312 
" style="fill: none; stroke: #7f7f7f; stroke-width: 1.5; stroke-linecap: square"/>
    </g>
    <g id="text_21">
     <!-- Ts=220 K -->
     <g transform="translate(84.018 130.145312) scale(0.1 -0.1)">
      <use xlink:href="#DejaVuSans-54"/>
      <use xlink:href="#DejaVuSans-73" transform="translate(44.583984 0)"/>
      <use xlink:href="#DejaVuSans-3d" transform="translate(96.683594 0)"/>
      <use xlink:href="#DejaVuSans-32" transform="translate(180.472656 0)"/>
      <use xlink:href="#DejaVuSans-32" transform="translate(244.095703 0)"/>
      <use xlink:href="#DejaVuSans-30" transform="translate(307.71875 0)"/>
      <use xlink:href="#DejaVuSans-20" transform="translate(371.341797 0)"/>
      <use xlink:href="#DejaVuSans-4b" transform="translate(403.128906 0)"/>
     </g>
    </g>
    <g id="PathCollection_9">
     <g>
      <use xlink:href="#m4854a793d1" x="66.018" y="142.198437" style="fill-opacity: 0.7; stroke: #000000; stroke-opacity: 0.7"/>
     </g>
    </g>
    <g id="text_22">
     <!-- Artificial data -->
     <g transform="translate(84.018 144.823437) scale(0.1 -0.1)">
      <defs>
       <path id="DejaVuSans-41" d="M 2188 4044 
L 1331 1722 
L 3047 1722 
L 2188 4044 
z
M 1831 4666 
L 2547 4666 
L 4325 0 
L 3669 0 
L 3244 1197 
L 1141 1197 
L 716 0 
L 50 0 
L 1831 4666 
z
" transform="scale(0.015625)"/>
       <path id="DejaVuSans-74" d="M 1172 4494 
L 1172 3500 
L 2356 3500 
L 2356 3053 
L 1172 3053 
L 1172 1153 
Q 1172 725 1289 603 
Q 1406 481 1766 481 
L 2356 481 
L 2356 0 
L 1766 0 
Q 1100 0 847 248 
Q 594 497 594 1153 
L 594 3053 
L 172 3053 
L 172 3500 
L 594 3500 
L 594 4494 
L 1172 4494 
z
" transform="scale(0.015625)"/>
       <path id="DejaVuSans-69" d="M 603 3500 
L 1178 3500 
L 1178 0 
L 603 0 
L 603 3500 
z
M 603 4863 
L 1178 4863 
L 1178 4134 
L 603 4134 
L 603 4863 
z
" transform="scale(0.015625)"/>
       <path id="DejaVuSans-66" d="M 2375 4863 
L 2375 4384 
L 1825 4384 
Q 1516 4384 1395 4259 
Q 1275 4134 1275 3809 
L 1275 3500 
L 2222 3500 
L 2222 3053 
L 1275 3053 
L 1275 0 
L 697 0 
L 697 3053 
L 147 3053 
L 147 3500 
L 697 3500 
L 697 3744 
Q 697 4328 969 4595 
Q 1241 4863 1831 4863 
L 2375 4863 
z
" transform="scale(0.015625)"/>
       <path id="DejaVuSans-63" d="M 3122 3366 
L 3122 2828 
Q 2878 2963 2633 3030 
Q 2388 3097 2138 3097 
Q 1578 3097 1268 2742 
Q 959 2388 959 1747 
Q 959 1106 1268 751 
Q 1578 397 2138 397 
Q 2388 397 2633 464 
Q 2878 531 3122 666 
L 3122 134 
Q 2881 22 2623 -34 
Q 2366 -91 2075 -91 
Q 1284 -91 818 406 
Q 353 903 353 1747 
Q 353 2603 823 3093 
Q 1294 3584 2113 3584 
Q 2378 3584 2631 3529 
Q 2884 3475 3122 3366 
z
" transform="scale(0.015625)"/>
       <path id="DejaVuSans-61" d="M 2194 1759 
Q 1497 1759 1228 1600 
Q 959 1441 959 1056 
Q 959 750 1161 570 
Q 1363 391 1709 391 
Q 2188 391 2477 730 
Q 2766 1069 2766 1631 
L 2766 1759 
L 2194 1759 
z
M 3341 1997 
L 3341 0 
L 2766 0 
L 2766 531 
Q 2569 213 2275 61 
Q 1981 -91 1556 -91 
Q 1019 -91 701 211 
Q 384 513 384 1019 
Q 384 1609 779 1909 
Q 1175 2209 1959 2209 
L 2766 2209 
L 2766 2266 
Q 2766 2663 2505 2880 
Q 2244 3097 1772 3097 
Q 1472 3097 1187 3025 
Q 903 2953 641 2809 
L 641 3341 
Q 956 3463 1253 3523 
Q 1550 3584 1831 3584 
Q 2591 3584 2966 3190 
Q 3341 2797 3341 1997 
z
" transform="scale(0.015625)"/>
       <path id="DejaVuSans-6c" d="M 603 4863 
L 1178 4863 
L 1178 0 
L 603 0 
L 603 4863 
z
" transform="scale(0.015625)"/>
       <path id="DejaVuSans-64" d="M 2906 2969 
L 2906 4863 
L 3481 4863 
L 3481 0 
L 2906 0 
L 2906 525 
Q 2725 213 2448 61 
Q 2172 -91 1784 -91 
Q 1150 -91 751 415 
Q 353 922 353 1747 
Q 353 2572 751 3078 
Q 1150 3584 1784 3584 
Q 2172 3584 2448 3432 
Q 2725 3281 2906 2969 
z
M 947 1747 
Q 947 1113 1208 752 
Q 1469 391 1925 391 
Q 2381 391 2643 752 
Q 2906 1113 2906 1747 
Q 2906 2381 2643 2742 
Q 2381 3103 1925 3103 
Q 1469 3103 1208 2742 
Q 947 2381 947 1747 
z
" transform="scale(0.015625)"/>
      </defs>
      <use xlink:href="#DejaVuSans-41"/>
      <use xlink:href="#DejaVuSans-72" transform="translate(68.408203 0)"/>
      <use xlink:href="#DejaVuSans-74" transform="translate(109.521484 0)"/>
      <use xlink:href="#DejaVuSans-69" transform="translate(148.730469 0)"/>
      <use xlink:href="#DejaVuSans-66" transform="translate(176.513672 0)"/>
      <use xlink:href="#DejaVuSans-69" transform="translate(211.71875 0)"/>
      <use xlink:href="#DejaVuSans-63" transform="translate(239.501953 0)"/>
      <use xlink:href="#DejaVuSans-69" transform="translate(294.482422 0)"/>
      <use xlink:href="#DejaVuSans-61" transform="translate(322.265625 0)"/>
      <use xlink:href="#DejaVuSans-6c" transform="translate(383.544922 0)"/>
      <use xlink:href="#DejaVuSans-20" transform="translate(411.328125 0)"/>
      <use xlink:href="#DejaVuSans-64" transform="translate(443.115234 0)"/>
      <use xlink:href="#DejaVuSans-61" transform="translate(506.591797 0)"/>
      <use xlink:href="#DejaVuSans-74" transform="translate(567.871094 0)"/>
      <use xlink:href="#DejaVuSans-61" transform="translate(607.080078 0)"/>
     </g>
    </g>
   </g>
  </g>
 </g>
 <defs>
  <clipPath id="pbafd50479d">
   <rect x="47.018" y="10.8" width="402.982" height="291.4"/>
  </clipPath>
 </defs>
</svg>
