<?xml version="1.0" encoding="utf-8" standalone="no"?>
<!DOCTYPE svg PUBLIC "-//W3C//DTD SVG 1.1//EN"
  "http://www.w3.org/Graphics/SVG/1.1/DTD/svg11.dtd">
<svg xmlns:xlink="http://www.w3.org/1999/xlink" width="460.8pt" height="345.6pt" viewBox="0 0 460.8 345.6" xmlns="http://www.w3.org/2000/svg" version="1.1">
 <metadata>
  <rdf:RDF xmlns:dc="http://purl.org/dc/elements/1.1/" xmlns:cc="http://creativecommons.org/ns#" xmlns:rdf="http://www.w3.org/1999/02/22-rdf-syntax-ns#">
   <cc:Work>
    <dc:type rdf:resource="http://purl.org/dc/dcmitype/StillImage"/>
    <dc:date>2026-02-12T01:19:50.485591</dc:date>
    <dc:format>image/svg+xml</dc:format>
    <dc:creator>
     <cc:Agent>
      <dc:title>Matplotlib v3.10.8, https://matplotlib.org/</dc:title>
     </cc:Agent>
    </dc:creator>
   </cc:Work>
  </rdf:RDF>
 </metadata>
 <defs>
  <style type="text/css">*{stroke-linejoin: round; stroke-linecap: butt}</style>
 </defs>
 <g id="figure_1">
  <g id="patch_1">
   <path d="M 0 345.6 
L 460.8 345.6 
L 460.8 0 
L 0 0 
L 0 345.6 
z
" style="fill: none"/>
  </g>
  <g id="axes_1">
   <g id="patch_2">
    <path d="M 47.018 302.2 
L 450 302.2 
L 450 10.8 
L 47.018 10.8 
L 47.018 302.2 
z
" style="fill: none"/>
   </g>
   <g id="FillBetweenPolyCollection_1">
    <path d="M 65.335364 202.321268 
L 65.335364 249.946439 
L 72.811839 245.999953 
L 80.288314 242.565771 
L 87.764788 239.599284 
L 95.241263 237.049677 
L 102.717738 234.891689 
L 110.194213 233.106884 
L 117.670688 231.552882 
L 125.147163 230.182454 
L 132.623638 228.953082 
L 140.100113 227.827457 
L 147.576588 226.77613 
L 155.053063 225.776829 
L 162.529538 224.814428 
L 170.006013 223.879769 
L 177.482488 222.968522 
L 184.958963 222.080874 
L 192.435438 221.219895 
L 199.911913 220.390303 
L 207.388388 219.597334 
L 214.864863 218.84578 
L 222.341338 218.139247 
L 229.817813 217.479673 
L 237.294288 216.867094 
L 244.770763 216.299655 
L 252.247237 215.773832 
L 259.723712 215.284811 
L 267.200187 214.826965 
L 274.676662 214.394386 
L 282.153137 213.981391 
L 289.629612 213.58298 
L 297.106087 213.37637 
L 304.582562 213.47647 
L 312.059037 213.570621 
L 319.535512 213.658549 
L 327.011987 213.739951 
L 334.488462 213.814281 
L 341.964937 213.880606 
L 349.441412 213.937583 
L 356.917887 213.983526 
L 364.394362 214.016594 
L 371.870837 214.035058 
L 379.347312 214.037628 
L 386.823787 214.023825 
L 394.300262 213.994339 
L 401.776737 213.951361 
L 409.253212 213.898829 
L 416.729686 213.843162 
L 424.206161 213.792252 
L 431.682636 213.754456 
L 431.682636 24.045455 
L 431.682636 24.045455 
L 424.206161 25.437615 
L 416.729686 26.991837 
L 409.253212 28.682539 
L 401.776737 30.487426 
L 394.300262 32.387225 
L 386.823787 34.365339 
L 379.347312 36.407485 
L 371.870837 38.501356 
L 364.394362 40.636345 
L 356.917887 42.803377 
L 349.441412 44.994849 
L 341.964937 47.204676 
L 334.488462 49.428424 
L 327.011987 51.663496 
L 319.535512 53.909321 
L 312.059037 56.16749 
L 304.582562 58.441805 
L 297.106087 60.738172 
L 289.629612 63.064325 
L 282.153137 65.429374 
L 274.676662 67.843163 
L 267.200187 70.31551 
L 259.723712 72.855353 
L 252.247237 75.469912 
L 244.770763 78.163946 
L 237.294288 80.939211 
L 229.817813 83.794222 
L 222.341338 86.724403 
L 214.864863 89.722699 
L 207.388388 92.780667 
L 199.911913 95.890063 
L 192.435438 99.044853 
L 184.958963 102.243573 
L 177.482488 105.491894 
L 170.006013 108.805212 
L 162.529538 112.211088 
L 155.053063 115.751299 
L 147.576588 119.483305 
L 140.100113 123.480933 
L 132.623638 127.834115 
L 125.147163 132.647575 
L 117.670688 138.038383 
L 110.194213 144.132425 
L 102.717738 151.059838 
L 95.241263 158.94958 
L 87.764788 167.923351 
L 80.288314 178.089136 
L 72.811839 189.534686 
L 65.335364 202.321268 
z
" clip-path="url(#pc9826b93ee)" style="fill: #1f77b4; fill-opacity: 0.45"/>
   </g>
   <g id="FillBetweenPolyCollection_2">
    <path d="M 65.335364 228.509851 
L 65.335364 264.970619 
L 72.811839 262.643135 
L 80.288314 260.575953 
L 87.764788 258.753592 
L 95.241263 257.156444 
L 102.717738 255.762088 
L 110.194213 254.546552 
L 117.670688 253.485477 
L 125.147163 252.55512 
L 132.623638 251.733176 
L 140.100113 250.999383 
L 147.576588 250.335928 
L 155.053063 249.727638 
L 162.529538 249.162001 
L 170.006013 248.629032 
L 177.482488 248.121031 
L 184.958963 247.632269 
L 192.435438 247.158632 
L 199.911913 246.697277 
L 207.388388 246.246303 
L 214.864863 245.804482 
L 222.341338 245.37104 
L 229.817813 244.945505 
L 237.294288 244.527608 
L 244.770763 244.117235 
L 252.247237 243.714412 
L 259.723712 243.319297 
L 267.200187 242.932187 
L 274.676662 242.553499 
L 282.153137 242.183741 
L 289.629612 241.823453 
L 297.106087 241.473126 
L 304.582562 241.133108 
L 312.059037 240.803504 
L 319.535512 240.484084 
L 327.011987 240.174215 
L 334.488462 239.87283 
L 341.964937 239.578446 
L 349.441412 239.289232 
L 356.917887 239.003136 
L 364.394362 238.718065 
L 371.870837 238.432103 
L 379.347312 238.143756 
L 386.823787 237.852208 
L 394.300262 237.557562 
L 401.776737 237.261044 
L 409.253212 236.965158 
L 416.729686 236.67376 
L 424.206161 236.393447 
L 431.682636 236.130205 
L 431.682636 164.011103 
L 431.682636 164.011103 
L 424.206161 164.760404 
L 416.729686 165.565723 
L 409.253212 166.418206 
L 401.776737 167.310665 
L 394.300262 168.237342 
L 386.823787 169.19361 
L 379.347312 170.175673 
L 371.870837 171.180286 
L 364.394362 172.204525 
L 356.917887 173.245632 
L 349.441412 174.300951 
L 341.964937 175.367951 
L 334.488462 176.444341 
L 327.011987 177.528239 
L 319.535512 178.61839 
L 312.059037 179.714384 
L 304.582562 180.816841 
L 297.106087 181.92754 
L 289.629612 183.049439 
L 282.153137 184.186597 
L 274.676662 185.343961 
L 267.200187 186.527043 
L 259.723712 187.7415 
L 252.247237 188.99266 
L 244.770763 190.285031 
L 237.294288 191.621866 
L 229.817813 193.004826 
L 222.341338 194.433816 
L 214.864863 195.907037 
L 207.388388 197.421293 
L 199.911913 198.972571 
L 192.435438 200.556889 
L 184.958963 202.171386 
L 177.482488 203.815591 
L 170.006013 205.492804 
L 162.529538 207.211479 
L 155.053063 208.986505 
L 147.576588 210.837273 
L 140.100113 211.195637 
L 132.623638 211.630806 
L 125.147163 212.017221 
L 117.670688 212.623526 
L 110.194213 213.510202 
L 102.717738 214.743234 
L 95.241263 216.39196 
L 87.764788 218.526414 
L 80.288314 221.214263 
L 72.811839 224.517485 
L 65.335364 228.509851 
z
" clip-path="url(#pc9826b93ee)" style="fill: #ff7f0e; fill-opacity: 0.45"/>
   </g>
   <g id="FillBetweenPolyCollection_3">
    <path d="M 65.335364 265.092524 
L 65.335364 278.83419 
L 72.811839 277.008375 
L 80.288314 275.425011 
L 87.764788 274.061774 
L 95.241263 272.892929 
L 102.717738 271.947717 
L 110.194213 271.381557 
L 117.670688 270.883163 
L 125.147163 270.438764 
L 132.623638 270.047027 
L 140.100113 269.845128 
L 147.576588 269.657996 
L 155.053063 269.483616 
L 162.529538 269.320381 
L 170.006013 269.167023 
L 177.482488 269.022511 
L 184.958963 268.885959 
L 192.435438 268.75652 
L 199.911913 268.633309 
L 207.388388 268.515342 
L 214.864863 268.401509 
L 222.341338 268.290571 
L 229.817813 268.181197 
L 237.294288 268.072019 
L 244.770763 267.96171 
L 252.247237 267.849073 
L 259.723712 267.733128 
L 267.200187 267.613196 
L 274.676662 267.488965 
L 282.153137 267.360527 
L 289.629612 267.228395 
L 297.106087 267.093481 
L 304.582562 266.957043 
L 312.059037 266.820609 
L 319.535512 266.685868 
L 327.011987 266.55455 
L 334.488462 266.428291 
L 341.964937 266.308506 
L 349.441412 266.196257 
L 356.917887 266.092145 
L 364.394362 265.996225 
L 371.870837 265.907942 
L 379.347312 265.826101 
L 386.823787 265.748873 
L 394.300262 265.673821 
L 401.776737 265.597967 
L 409.253212 265.517874 
L 416.729686 265.429751 
L 424.206161 265.329574 
L 431.682636 265.213209 
L 431.682636 245.627521 
L 431.682636 245.627521 
L 424.206161 245.78016 
L 416.729686 245.937803 
L 409.253212 246.09936 
L 401.776737 246.26429 
L 394.300262 246.432555 
L 386.823787 246.604527 
L 379.347312 246.780881 
L 371.870837 246.965535 
L 364.394362 247.160608 
L 356.917887 247.353524 
L 349.441412 247.553811 
L 341.964937 247.761867 
L 334.488462 247.977828 
L 327.011987 248.201588 
L 319.535512 248.429734 
L 312.059037 248.663144 
L 304.582562 248.903327 
L 297.106087 249.150057 
L 289.629612 249.403293 
L 282.153137 249.663263 
L 274.676662 249.930497 
L 267.200187 250.205822 
L 259.723712 250.49032 
L 252.247237 250.785231 
L 244.770763 251.09183 
L 237.294288 251.411275 
L 229.817813 251.744454 
L 222.341338 252.091848 
L 214.864863 252.453431 
L 207.388388 252.828628 
L 199.911913 253.21635 
L 192.435438 253.615118 
L 184.958963 254.023274 
L 177.482488 254.43929 
L 170.006013 254.862143 
L 162.529538 255.291749 
L 155.053063 255.729418 
L 147.576588 256.178296 
L 140.100113 256.643755 
L 132.623638 257.133686 
L 125.147163 257.658662 
L 117.670688 258.231935 
L 110.194213 258.86924 
L 102.717738 259.588407 
L 95.241263 260.408753 
L 87.764788 261.350309 
L 80.288314 262.432866 
L 72.811839 263.674916 
L 65.335364 265.092524 
z
" clip-path="url(#pc9826b93ee)" style="fill: #2ca02c; fill-opacity: 0.45"/>
   </g>
   <g id="FillBetweenPolyCollection_4">
    <path d="M 65.335364 272.906288 
L 65.335364 288.954545 
L 72.811839 287.919057 
L 80.288314 286.791622 
L 87.764788 285.572026 
L 95.241263 284.25948 
L 102.717738 282.852781 
L 110.194213 281.350505 
L 117.670688 280.170815 
L 125.147163 279.839464 
L 132.623638 279.870573 
L 140.100113 279.914767 
L 147.576588 279.968978 
L 155.053063 280.030958 
L 162.529538 280.099168 
L 170.006013 280.172627 
L 177.482488 280.250728 
L 184.958963 280.333038 
L 192.435438 280.419109 
L 199.911913 280.508315 
L 207.388388 280.599718 
L 214.864863 280.691987 
L 222.341338 280.783366 
L 229.817813 280.871686 
L 237.294288 280.954432 
L 244.770763 281.028844 
L 252.247237 281.092042 
L 259.723712 281.141517 
L 267.200187 281.174833 
L 274.676662 281.188451 
L 282.153137 281.180536 
L 289.629612 281.150171 
L 297.106087 281.096788 
L 304.582562 281.019562 
L 312.059037 280.918682 
L 319.535512 280.794793 
L 327.011987 280.648955 
L 334.488462 280.482451 
L 341.964937 280.296745 
L 349.441412 280.093305 
L 356.917887 279.874116 
L 364.394362 279.639818 
L 371.870837 279.39009 
L 379.347312 279.126616 
L 386.823787 278.850177 
L 394.300262 278.559511 
L 401.776737 278.253788 
L 409.253212 277.931786 
L 416.729686 277.591937 
L 424.206161 277.232387 
L 431.682636 276.851074 
L 431.682636 229.942851 
L 431.682636 229.942851 
L 424.206161 228.50636 
L 416.729686 227.122078 
L 409.253212 225.808506 
L 401.776737 224.584568 
L 394.300262 223.469318 
L 386.823787 222.481615 
L 379.347312 221.639764 
L 371.870837 220.961128 
L 364.394362 220.461734 
L 356.917887 220.155879 
L 349.441412 220.055762 
L 341.964937 220.171135 
L 334.488462 220.509021 
L 327.011987 221.073483 
L 319.535512 221.86547 
L 312.059037 222.882748 
L 304.582562 224.119915 
L 297.106087 225.568502 
L 289.629612 227.21716 
L 282.153137 229.051929 
L 274.676662 231.056562 
L 267.200187 233.212912 
L 259.723712 235.501358 
L 252.247237 237.901243 
L 244.770763 240.391332 
L 237.294288 242.950248 
L 229.817813 245.506211 
L 222.341338 248.073516 
L 214.864863 250.615589 
L 207.388388 253.131249 
L 199.911913 255.623427 
L 192.435438 258.077351 
L 184.958963 260.479851 
L 177.482488 262.819432 
L 170.006013 265.086315 
L 162.529538 267.272417 
L 155.053063 269.371309 
L 147.576588 271.378124 
L 140.100113 273.289447 
L 132.623638 274.667238 
L 125.147163 274.449102 
L 117.670688 274.235241 
L 110.194213 274.027933 
L 102.717738 273.823978 
L 95.241263 273.628487 
L 87.764788 273.439598 
L 80.288314 273.257824 
L 72.811839 273.080892 
L 65.335364 272.906288 
z
" clip-path="url(#pc9826b93ee)" style="fill: #d62728; fill-opacity: 0.45"/>
   </g>
   <g id="matplotlib.axis_1">
    <g id="xtick_1">
     <g id="line2d_1">
      <defs>
       <path id="m14a10bee98" d="M 0 0 
L 0 3.5 
" style="stroke: #000000; stroke-width: 0.8"/>
      </defs>
      <g>
       <use xlink:href="#m14a10bee98" x="61.634886" y="302.2" style="stroke: #000000; stroke-width: 0.8"/>
      </g>
     </g>
     <g id="text_1">
      <!-- 0 -->
      <g transform="translate(58.453636 316.798437) scale(0.1 -0.1)">
       <defs>
        <path id="DejaVuSans-30" d="M 2034 4250 
Q 1547 4250 1301 3770 
Q 1056 3291 1056 2328 
Q 1056 1369 1301 889 
Q 1547 409 2034 409 
Q 2525 409 2770 889 
Q 3016 1369 3016 2328 
Q 3016 3291 2770 3770 
Q 2525 4250 2034 4250 
z
M 2034 4750 
Q 2819 4750 3233 4129 
Q 3647 3509 3647 2328 
Q 3647 1150 3233 529 
Q 2819 -91 2034 -91 
Q 1250 -91 836 529 
Q 422 1150 422 2328 
Q 422 3509 836 4129 
Q 1250 4750 2034 4750 
z
" transform="scale(0.015625)"/>
       </defs>
       <use xlink:href="#DejaVuSans-30"/>
      </g>
     </g>
    </g>
    <g id="xtick_2">
     <g id="line2d_2">
      <g>
       <use xlink:href="#m14a10bee98" x="135.644436" y="302.2" style="stroke: #000000; stroke-width: 0.8"/>
      </g>
     </g>
     <g id="text_2">
      <!-- 1 -->
      <g transform="translate(132.463186 316.798437) scale(0.1 -0.1)">
       <defs>
        <path id="DejaVuSans-31" d="M 794 531 
L 1825 531 
L 1825 4091 
L 703 3866 
L 703 4441 
L 1819 4666 
L 2450 4666 
L 2450 531 
L 3481 531 
L 3481 0 
L 794 0 
L 794 531 
z
" transform="scale(0.015625)"/>
       </defs>
       <use xlink:href="#DejaVuSans-31"/>
      </g>
     </g>
    </g>
    <g id="xtick_3">
     <g id="line2d_3">
      <g>
       <use xlink:href="#m14a10bee98" x="209.653986" y="302.2" style="stroke: #000000; stroke-width: 0.8"/>
      </g>
     </g>
     <g id="text_3">
      <!-- 2 -->
      <g transform="translate(206.472736 316.798437) scale(0.1 -0.1)">
       <defs>
        <path id="DejaVuSans-32" d="M 1228 531 
L 3431 531 
L 3431 0 
L 469 0 
L 469 531 
Q 828 903 1448 1529 
Q 2069 2156 2228 2338 
Q 2531 2678 2651 2914 
Q 2772 3150 2772 3378 
Q 2772 3750 2511 3984 
Q 2250 4219 1831 4219 
Q 1534 4219 1204 4116 
Q 875 4013 500 3803 
L 500 4441 
Q 881 4594 1212 4672 
Q 1544 4750 1819 4750 
Q 2544 4750 2975 4387 
Q 3406 4025 3406 3419 
Q 3406 3131 3298 2873 
Q 3191 2616 2906 2266 
Q 2828 2175 2409 1742 
Q 1991 1309 1228 531 
z
" transform="scale(0.015625)"/>
       </defs>
       <use xlink:href="#DejaVuSans-32"/>
      </g>
     </g>
    </g>
    <g id="xtick_4">
     <g id="line2d_4">
      <g>
       <use xlink:href="#m14a10bee98" x="283.663536" y="302.2" style="stroke: #000000; stroke-width: 0.8"/>
      </g>
     </g>
     <g id="text_4">
      <!-- 3 -->
      <g transform="translate(280.482286 316.798437) scale(0.1 -0.1)">
       <defs>
        <path id="DejaVuSans-33" d="M 2597 2516 
Q 3050 2419 3304 2112 
Q 3559 1806 3559 1356 
Q 3559 666 3084 287 
Q 2609 -91 1734 -91 
Q 1441 -91 1130 -33 
Q 819 25 488 141 
L 488 750 
Q 750 597 1062 519 
Q 1375 441 1716 441 
Q 2309 441 2620 675 
Q 2931 909 2931 1356 
Q 2931 1769 2642 2001 
Q 2353 2234 1838 2234 
L 1294 2234 
L 1294 2753 
L 1863 2753 
Q 2328 2753 2575 2939 
Q 2822 3125 2822 3475 
Q 2822 3834 2567 4026 
Q 2313 4219 1838 4219 
Q 1578 4219 1281 4162 
Q 984 4106 628 3988 
L 628 4550 
Q 988 4650 1302 4700 
Q 1616 4750 1894 4750 
Q 2613 4750 3031 4423 
Q 3450 4097 3450 3541 
Q 3450 3153 3228 2886 
Q 3006 2619 2597 2516 
z
" transform="scale(0.015625)"/>
       </defs>
       <use xlink:href="#DejaVuSans-33"/>
      </g>
     </g>
    </g>
    <g id="xtick_5">
     <g id="line2d_5">
      <g>
       <use xlink:href="#m14a10bee98" x="357.673086" y="302.2" style="stroke: #000000; stroke-width: 0.8"/>
      </g>
     </g>
     <g id="text_5">
      <!-- 4 -->
      <g transform="translate(354.491836 316.798437) scale(0.1 -0.1)">
       <defs>
        <path id="DejaVuSans-34" d="M 2419 4116 
L 825 1625 
L 2419 1625 
L 2419 4116 
z
M 2253 4666 
L 3047 4666 
L 3047 1625 
L 3713 1625 
L 3713 1100 
L 3047 1100 
L 3047 0 
L 2419 0 
L 2419 1100 
L 313 1100 
L 313 1709 
L 2253 4666 
z
" transform="scale(0.015625)"/>
       </defs>
       <use xlink:href="#DejaVuSans-34"/>
      </g>
     </g>
    </g>
    <g id="xtick_6">
     <g id="line2d_6">
      <g>
       <use xlink:href="#m14a10bee98" x="431.682636" y="302.2" style="stroke: #000000; stroke-width: 0.8"/>
      </g>
     </g>
     <g id="text_6">
      <!-- 5 -->
      <g transform="translate(428.501386 316.798437) scale(0.1 -0.1)">
       <defs>
        <path id="DejaVuSans-35" d="M 691 4666 
L 3169 4666 
L 3169 4134 
L 1269 4134 
L 1269 2991 
Q 1406 3038 1543 3061 
Q 1681 3084 1819 3084 
Q 2600 3084 3056 2656 
Q 3513 2228 3513 1497 
Q 3513 744 3044 326 
Q 2575 -91 1722 -91 
Q 1428 -91 1123 -41 
Q 819 9 494 109 
L 494 744 
Q 775 591 1075 516 
Q 1375 441 1709 441 
Q 2250 441 2565 725 
Q 2881 1009 2881 1497 
Q 2881 1984 2565 2268 
Q 2250 2553 1709 2553 
Q 1456 2553 1204 2497 
Q 953 2441 691 2322 
L 691 4666 
z
" transform="scale(0.015625)"/>
       </defs>
       <use xlink:href="#DejaVuSans-35"/>
      </g>
     </g>
    </g>
    <g id="text_7">
     <!-- $W$ (m/hour) -->
     <g transform="translate(220.059 330.476562) scale(0.1 -0.1)">
      <defs>
       <path id="DejaVuSans-Oblique-57" d="M 616 4666 
L 1228 4666 
L 1453 697 
L 3213 4666 
L 3916 4666 
L 4147 697 
L 5888 4666 
L 6528 4666 
L 4453 0 
L 3659 0 
L 3444 3891 
L 1697 0 
L 903 0 
L 616 4666 
z
" transform="scale(0.015625)"/>
       <path id="DejaVuSans-20" transform="scale(0.015625)"/>
       <path id="DejaVuSans-28" d="M 1984 4856 
Q 1566 4138 1362 3434 
Q 1159 2731 1159 2009 
Q 1159 1288 1364 580 
Q 1569 -128 1984 -844 
L 1484 -844 
Q 1016 -109 783 600 
Q 550 1309 550 2009 
Q 550 2706 781 3412 
Q 1013 4119 1484 4856 
L 1984 4856 
z
" transform="scale(0.015625)"/>
       <path id="DejaVuSans-6d" d="M 3328 2828 
Q 3544 3216 3844 3400 
Q 4144 3584 4550 3584 
Q 5097 3584 5394 3201 
Q 5691 2819 5691 2113 
L 5691 0 
L 5113 0 
L 5113 2094 
Q 5113 2597 4934 2840 
Q 4756 3084 4391 3084 
Q 3944 3084 3684 2787 
Q 3425 2491 3425 1978 
L 3425 0 
L 2847 0 
L 2847 2094 
Q 2847 2600 2669 2842 
Q 2491 3084 2119 3084 
Q 1678 3084 1418 2786 
Q 1159 2488 1159 1978 
L 1159 0 
L 581 0 
L 581 3500 
L 1159 3500 
L 1159 2956 
Q 1356 3278 1631 3431 
Q 1906 3584 2284 3584 
Q 2666 3584 2933 3390 
Q 3200 3197 3328 2828 
z
" transform="scale(0.015625)"/>
       <path id="DejaVuSans-2f" d="M 1625 4666 
L 2156 4666 
L 531 -594 
L 0 -594 
L 1625 4666 
z
" transform="scale(0.015625)"/>
       <path id="DejaVuSans-68" d="M 3513 2113 
L 3513 0 
L 2938 0 
L 2938 2094 
Q 2938 2591 2744 2837 
Q 2550 3084 2163 3084 
Q 1697 3084 1428 2787 
Q 1159 2491 1159 1978 
L 1159 0 
L 581 0 
L 581 4863 
L 1159 4863 
L 1159 2956 
Q 1366 3272 1645 3428 
Q 1925 3584 2291 3584 
Q 2894 3584 3203 3211 
Q 3513 2838 3513 2113 
z
" transform="scale(0.015625)"/>
       <path id="DejaVuSans-6f" d="M 1959 3097 
Q 1497 3097 1228 2736 
Q 959 2375 959 1747 
Q 959 1119 1226 758 
Q 1494 397 1959 397 
Q 2419 397 2687 759 
Q 2956 1122 2956 1747 
Q 2956 2369 2687 2733 
Q 2419 3097 1959 3097 
z
M 1959 3584 
Q 2709 3584 3137 3096 
Q 3566 2609 3566 1747 
Q 3566 888 3137 398 
Q 2709 -91 1959 -91 
Q 1206 -91 779 398 
Q 353 888 353 1747 
Q 353 2609 779 3096 
Q 1206 3584 1959 3584 
z
" transform="scale(0.015625)"/>
       <path id="DejaVuSans-75" d="M 544 1381 
L 544 3500 
L 1119 3500 
L 1119 1403 
Q 1119 906 1312 657 
Q 1506 409 1894 409 
Q 2359 409 2629 706 
Q 2900 1003 2900 1516 
L 2900 3500 
L 3475 3500 
L 3475 0 
L 2900 0 
L 2900 538 
Q 2691 219 2414 64 
Q 2138 -91 1772 -91 
Q 1169 -91 856 284 
Q 544 659 544 1381 
z
M 1991 3584 
L 1991 3584 
z
" transform="scale(0.015625)"/>
       <path id="DejaVuSans-72" d="M 2631 2963 
Q 2534 3019 2420 3045 
Q 2306 3072 2169 3072 
Q 1681 3072 1420 2755 
Q 1159 2438 1159 1844 
L 1159 0 
L 581 0 
L 581 3500 
L 1159 3500 
L 1159 2956 
Q 1341 3275 1631 3429 
Q 1922 3584 2338 3584 
Q 2397 3584 2469 3576 
Q 2541 3569 2628 3553 
L 2631 2963 
z
" transform="scale(0.015625)"/>
       <path id="DejaVuSans-29" d="M 513 4856 
L 1013 4856 
Q 1481 4119 1714 3412 
Q 1947 2706 1947 2009 
Q 1947 1309 1714 600 
Q 1481 -109 1013 -844 
L 513 -844 
Q 928 -128 1133 580 
Q 1338 1288 1338 2009 
Q 1338 2731 1133 3434 
Q 928 4138 513 4856 
z
" transform="scale(0.015625)"/>
      </defs>
      <use xlink:href="#DejaVuSans-Oblique-57" transform="translate(0 0.015625)"/>
      <use xlink:href="#DejaVuSans-20" transform="translate(98.876953 0.015625)"/>
      <use xlink:href="#DejaVuSans-28" transform="translate(130.664062 0.015625)"/>
      <use xlink:href="#DejaVuSans-6d" transform="translate(169.677734 0.015625)"/>
      <use xlink:href="#DejaVuSans-2f" transform="translate(267.089844 0.015625)"/>
      <use xlink:href="#DejaVuSans-68" transform="translate(300.78125 0.015625)"/>
      <use xlink:href="#DejaVuSans-6f" transform="translate(364.160156 0.015625)"/>
      <use xlink:href="#DejaVuSans-75" transform="translate(425.341797 0.015625)"/>
      <use xlink:href="#DejaVuSans-72" transform="translate(488.720703 0.015625)"/>
      <use xlink:href="#DejaVuSans-29" transform="translate(529.833984 0.015625)"/>
     </g>
    </g>
   </g>
   <g id="matplotlib.axis_2">
    <g id="ytick_1">
     <g id="line2d_7">
      <defs>
       <path id="m0bb38be1dc" d="M 0 0 
L -3.5 0 
" style="stroke: #000000; stroke-width: 0.8"/>
      </defs>
      <g>
       <use xlink:href="#m0bb38be1dc" x="47.018" y="286.036437" style="stroke: #000000; stroke-width: 0.8"/>
      </g>
     </g>
     <g id="text_8">
      <!-- 0 -->
      <g transform="translate(33.6555 289.835655) scale(0.1 -0.1)">
       <use xlink:href="#DejaVuSans-30"/>
      </g>
     </g>
    </g>
    <g id="ytick_2">
     <g id="line2d_8">
      <g>
       <use xlink:href="#m0bb38be1dc" x="47.018" y="251.153819" style="stroke: #000000; stroke-width: 0.8"/>
      </g>
     </g>
     <g id="text_9">
      <!-- 5 -->
      <g transform="translate(33.6555 254.953038) scale(0.1 -0.1)">
       <use xlink:href="#DejaVuSans-35"/>
      </g>
     </g>
    </g>
    <g id="ytick_3">
     <g id="line2d_9">
      <g>
       <use xlink:href="#m0bb38be1dc" x="47.018" y="216.271201" style="stroke: #000000; stroke-width: 0.8"/>
      </g>
     </g>
     <g id="text_10">
      <!-- 10 -->
      <g transform="translate(27.293 220.07042) scale(0.1 -0.1)">
       <use xlink:href="#DejaVuSans-31"/>
       <use xlink:href="#DejaVuSans-30" transform="translate(63.623047 0)"/>
      </g>
     </g>
    </g>
    <g id="ytick_4">
     <g id="line2d_10">
      <g>
       <use xlink:href="#m0bb38be1dc" x="47.018" y="181.388583" style="stroke: #000000; stroke-width: 0.8"/>
      </g>
     </g>
     <g id="text_11">
      <!-- 15 -->
      <g transform="translate(27.293 185.187802) scale(0.1 -0.1)">
       <use xlink:href="#DejaVuSans-31"/>
       <use xlink:href="#DejaVuSans-35" transform="translate(63.623047 0)"/>
      </g>
     </g>
    </g>
    <g id="ytick_5">
     <g id="line2d_11">
      <g>
       <use xlink:href="#m0bb38be1dc" x="47.018" y="146.505966" style="stroke: #000000; stroke-width: 0.8"/>
      </g>
     </g>
     <g id="text_12">
      <!-- 20 -->
      <g transform="translate(27.293 150.305184) scale(0.1 -0.1)">
       <use xlink:href="#DejaVuSans-32"/>
       <use xlink:href="#DejaVuSans-30" transform="translate(63.623047 0)"/>
      </g>
     </g>
    </g>
    <g id="ytick_6">
     <g id="line2d_12">
      <g>
       <use xlink:href="#m0bb38be1dc" x="47.018" y="111.623348" style="stroke: #000000; stroke-width: 0.8"/>
      </g>
     </g>
     <g id="text_13">
      <!-- 25 -->
      <g transform="translate(27.293 115.422567) scale(0.1 -0.1)">
       <use xlink:href="#DejaVuSans-32"/>
       <use xlink:href="#DejaVuSans-35" transform="translate(63.623047 0)"/>
      </g>
     </g>
    </g>
    <g id="ytick_7">
     <g id="line2d_13">
      <g>
       <use xlink:href="#m0bb38be1dc" x="47.018" y="76.74073" style="stroke: #000000; stroke-width: 0.8"/>
      </g>
     </g>
     <g id="text_14">
      <!-- 30 -->
      <g transform="translate(27.293 80.539949) scale(0.1 -0.1)">
       <use xlink:href="#DejaVuSans-33"/>
       <use xlink:href="#DejaVuSans-30" transform="translate(63.623047 0)"/>
      </g>
     </g>
    </g>
    <g id="ytick_8">
     <g id="line2d_14">
      <g>
       <use xlink:href="#m0bb38be1dc" x="47.018" y="41.858112" style="stroke: #000000; stroke-width: 0.8"/>
      </g>
     </g>
     <g id="text_15">
      <!-- 35 -->
      <g transform="translate(27.293 45.657331) scale(0.1 -0.1)">
       <use xlink:href="#DejaVuSans-33"/>
       <use xlink:href="#DejaVuSans-35" transform="translate(63.623047 0)"/>
      </g>
     </g>
    </g>
    <g id="text_16">
     <!-- $Q_{lc}$ (kW) -->
     <g transform="translate(21.213312 176.8) rotate(-90) scale(0.1 -0.1)">
      <defs>
       <path id="DejaVuSans-Oblique-51" d="M 2309 -84 
Q 2275 -88 2237 -89 
Q 2200 -91 2125 -91 
Q 1250 -91 756 411 
Q 263 913 263 1797 
Q 263 2319 452 2844 
Q 641 3369 978 3788 
Q 1369 4269 1858 4509 
Q 2347 4750 2938 4750 
Q 3794 4750 4287 4245 
Q 4781 3741 4781 2869 
Q 4781 1928 4265 1147 
Q 3750 366 2919 44 
L 3553 -825 
L 2847 -825 
L 2309 -84 
z
M 2919 4238 
Q 2400 4238 2003 3986 
Q 1606 3734 1313 3219 
Q 1125 2891 1026 2522 
Q 928 2153 928 1778 
Q 928 1128 1239 775 
Q 1550 422 2119 422 
Q 2631 422 3032 676 
Q 3434 931 3719 1434 
Q 3909 1772 4009 2142 
Q 4109 2513 4109 2881 
Q 4109 3528 3796 3883 
Q 3484 4238 2919 4238 
z
" transform="scale(0.015625)"/>
       <path id="DejaVuSans-Oblique-6c" d="M 1172 4863 
L 1747 4863 
L 800 0 
L 225 0 
L 1172 4863 
z
" transform="scale(0.015625)"/>
       <path id="DejaVuSans-Oblique-63" d="M 3431 3366 
L 3316 2797 
Q 3109 2947 2876 3022 
Q 2644 3097 2394 3097 
Q 2119 3097 1870 3000 
Q 1622 2903 1453 2725 
Q 1184 2453 1037 2087 
Q 891 1722 891 1331 
Q 891 859 1127 628 
Q 1363 397 1844 397 
Q 2081 397 2348 469 
Q 2616 541 2906 684 
L 2797 116 
Q 2547 13 2283 -39 
Q 2019 -91 1741 -91 
Q 1044 -91 669 257 
Q 294 606 294 1253 
Q 294 1797 489 2255 
Q 684 2713 1069 3078 
Q 1331 3328 1684 3456 
Q 2038 3584 2456 3584 
Q 2700 3584 2940 3529 
Q 3181 3475 3431 3366 
z
" transform="scale(0.015625)"/>
       <path id="DejaVuSans-6b" d="M 581 4863 
L 1159 4863 
L 1159 1991 
L 2875 3500 
L 3609 3500 
L 1753 1863 
L 3688 0 
L 2938 0 
L 1159 1709 
L 1159 0 
L 581 0 
L 581 4863 
z
" transform="scale(0.015625)"/>
       <path id="DejaVuSans-57" d="M 213 4666 
L 850 4666 
L 1831 722 
L 2809 4666 
L 3519 4666 
L 4500 722 
L 5478 4666 
L 6119 4666 
L 4947 0 
L 4153 0 
L 3169 4050 
L 2175 0 
L 1381 0 
L 213 4666 
z
" transform="scale(0.015625)"/>
      </defs>
      <use xlink:href="#DejaVuSans-Oblique-51" transform="translate(0 0.015625)"/>
      <use xlink:href="#DejaVuSans-Oblique-6c" transform="translate(78.710938 -16.390625) scale(0.7)"/>
      <use xlink:href="#DejaVuSans-Oblique-63" transform="translate(98.15918 -16.390625) scale(0.7)"/>
      <use xlink:href="#DejaVuSans-20" transform="translate(139.379883 0.015625)"/>
      <use xlink:href="#DejaVuSans-28" transform="translate(171.166992 0.015625)"/>
      <use xlink:href="#DejaVuSans-6b" transform="translate(210.180664 0.015625)"/>
      <use xlink:href="#DejaVuSans-57" transform="translate(268.09082 0.015625)"/>
      <use xlink:href="#DejaVuSans-29" transform="translate(366.967773 0.015625)"/>
     </g>
    </g>
   </g>
   <g id="line2d_15">
    <path d="M 65.335364 214.714683 
L 72.811839 215.352743 
L 80.288314 215.891419 
L 87.764788 216.314088 
L 95.241263 216.610464 
L 102.717738 216.776702 
L 110.194213 216.815186 
L 117.670688 216.734007 
L 125.147163 216.546174 
L 132.623638 216.268614 
L 140.100113 215.921022 
L 147.576588 215.524642 
L 155.053063 215.101036 
L 162.529538 214.670941 
L 170.006013 214.253252 
L 177.482488 213.864202 
L 184.958963 213.516765 
L 192.435438 213.220308 
L 199.911913 212.980504 
L 207.388388 212.799468 
L 214.864863 212.676107 
L 222.341338 212.606639 
L 229.817813 212.585211 
L 237.294288 212.604588 
L 244.770763 212.656831 
L 252.247237 212.734296 
L 259.723712 212.82836 
L 267.200187 212.932983 
L 274.676662 213.042444 
L 282.153137 213.152951 
L 289.629612 213.260685 
L 297.106087 213.049129 
L 304.582562 212.686185 
L 312.059037 212.316221 
L 319.535512 211.954482 
L 327.011987 211.600086 
L 334.488462 211.254858 
L 341.964937 210.921178 
L 349.441412 210.601644 
L 356.917887 210.298764 
L 364.394362 210.014696 
L 371.870837 209.752372 
L 379.347312 209.511137 
L 386.823787 209.289535 
L 394.300262 209.089857 
L 401.776737 208.911784 
L 409.253212 208.754863 
L 416.729686 208.618978 
L 424.206161 208.504587 
L 431.682636 208.413001 
" clip-path="url(#pc9826b93ee)" style="fill: none; stroke: #1f77b4; stroke-width: 1.5; stroke-linecap: square"/>
   </g>
   <g id="line2d_16">
    <path d="M 65.335364 255.552949 
L 72.811839 248.942154 
L 80.288314 243.211602 
L 87.764788 238.280003 
L 95.241263 234.051966 
L 102.717738 230.427025 
L 110.194213 227.304053 
L 117.670688 224.585903 
L 125.147163 222.183102 
L 132.623638 220.01666 
L 140.100113 218.019915 
L 147.576588 216.149017 
L 155.053063 214.369783 
L 162.529538 212.614643 
L 170.006013 211.646693 
L 177.482488 211.726593 
L 184.958963 211.823344 
L 192.435438 211.932816 
L 199.911913 212.05377 
L 207.388388 212.186644 
L 214.864863 212.332505 
L 222.341338 212.492222 
L 229.817813 212.665882 
L 237.294288 212.852466 
L 244.770763 213.049766 
L 252.247237 213.254506 
L 259.723712 213.462621 
L 267.200187 213.669634 
L 274.676662 213.871072 
L 282.153137 214.062866 
L 289.629612 214.241685 
L 297.106087 214.405168 
L 304.582562 214.552036 
L 312.059037 214.682076 
L 319.535512 214.796005 
L 327.011987 214.895238 
L 334.488462 214.981595 
L 341.964937 215.056973 
L 349.441412 215.123038 
L 356.917887 215.180964 
L 364.394362 215.231247 
L 371.870837 215.273633 
L 379.347312 215.307145 
L 386.823787 215.330237 
L 394.300262 215.341041 
L 401.776737 215.337697 
L 409.253212 215.318734 
L 416.729686 215.283465 
L 424.206161 215.232367 
L 431.682636 215.167399 
" clip-path="url(#pc9826b93ee)" style="fill: none; stroke: #ff7f0e; stroke-width: 1.5; stroke-linecap: square"/>
   </g>
   <g id="line2d_17">
    <path d="M 65.335364 271.350233 
L 72.811839 270.903637 
L 80.288314 270.495507 
L 87.764788 270.124534 
L 95.241263 269.788472 
L 102.717738 269.484426 
L 110.194213 269.155236 
L 117.670688 268.905765 
L 125.147163 268.652538 
L 132.623638 268.426115 
L 140.100113 268.212064 
L 147.576588 267.802701 
L 155.053063 267.301375 
L 162.529538 266.812856 
L 170.006013 266.332601 
L 177.482488 265.858618 
L 184.958963 265.390831 
L 192.435438 264.930436 
L 199.911913 264.479273 
L 207.388388 264.039297 
L 214.864863 263.612145 
L 222.341338 263.198832 
L 229.817813 262.799599 
L 237.294288 262.41387 
L 244.770763 262.04034 
L 252.247237 261.677141 
L 259.723712 261.322068 
L 267.200187 260.972832 
L 274.676662 260.627306 
L 282.153137 260.283729 
L 289.629612 259.940866 
L 297.106087 259.598091 
L 304.582562 259.255398 
L 312.059037 258.913337 
L 319.535512 258.572897 
L 327.011987 258.235335 
L 334.488462 257.901985 
L 341.964937 257.574068 
L 349.441412 257.252512 
L 356.917887 256.937819 
L 364.394362 256.629972 
L 371.870837 256.328414 
L 379.347312 256.032078 
L 386.823787 255.739482 
L 394.300262 255.448868 
L 401.776737 255.158382 
L 409.253212 254.866266 
L 416.729686 254.57105 
L 424.206161 254.271731 
L 431.682636 253.967913 
" clip-path="url(#pc9826b93ee)" style="fill: none; stroke: #2ca02c; stroke-width: 1.5; stroke-linecap: square"/>
   </g>
   <g id="line2d_18">
    <path d="M 65.335364 280.628486 
L 72.811839 280.359284 
L 80.288314 280.14685 
L 87.764788 279.986661 
L 95.241263 279.873172 
L 102.717738 279.800266 
L 110.194213 279.761661 
L 117.670688 278.435122 
L 125.147163 276.887665 
L 132.623638 275.325671 
L 140.100113 274.984992 
L 147.576588 275.156957 
L 155.053063 275.365938 
L 162.529538 275.549913 
L 170.006013 275.715195 
L 177.482488 275.866799 
L 184.958963 275.986587 
L 192.435438 276.068604 
L 199.911913 276.107364 
L 207.388388 276.098103 
L 214.864863 276.037015 
L 222.341338 275.921471 
L 229.817813 275.750195 
L 237.294288 275.523405 
L 244.770763 275.242894 
L 252.247237 274.912023 
L 259.723712 274.536293 
L 267.200187 274.121467 
L 274.676662 273.672351 
L 282.153137 273.202491 
L 289.629612 272.719673 
L 297.106087 272.231837 
L 304.582562 271.747096 
L 312.059037 271.272902 
L 319.535512 270.826585 
L 327.011987 270.41175 
L 334.488462 270.032631 
L 341.964937 269.693948 
L 349.441412 269.402068 
L 356.917887 269.155235 
L 364.394362 268.951869 
L 371.870837 268.788366 
L 379.347312 268.659214 
L 386.823787 268.557192 
L 394.300262 268.473634 
L 401.776737 268.398742 
L 409.253212 268.32195 
L 416.729686 268.232308 
L 424.206161 268.11887 
L 431.682636 267.971084 
" clip-path="url(#pc9826b93ee)" style="fill: none; stroke: #d62728; stroke-width: 1.5; stroke-linecap: square"/>
   </g>
   <g id="patch_3">
    <path d="M 47.018 302.2 
L 47.018 10.8 
" style="fill: none; stroke: #000000; stroke-width: 0.8; stroke-linejoin: miter; stroke-linecap: square"/>
   </g>
   <g id="patch_4">
    <path d="M 450 302.2 
L 450 10.8 
" style="fill: none; stroke: #000000; stroke-width: 0.8; stroke-linejoin: miter; stroke-linecap: square"/>
   </g>
   <g id="patch_5">
    <path d="M 47.018 302.2 
L 450 302.2 
" style="fill: none; stroke: #000000; stroke-width: 0.8; stroke-linejoin: miter; stroke-linecap: square"/>
   </g>
   <g id="patch_6">
    <path d="M 47.018 10.8 
L 450 10.8 
" style="fill: none; stroke: #000000; stroke-width: 0.8; stroke-linejoin: miter; stroke-linecap: square"/>
   </g>
   <g id="legend_1">
    <g id="patch_7">
     <path d="M 54.018 77.5125 
L 132.888313 77.5125 
Q 134.888313 77.5125 134.888313 75.5125 
L 134.888313 17.8 
Q 134.888313 15.8 132.888313 15.8 
L 54.018 15.8 
Q 52.018 15.8 52.018 17.8 
L 52.018 75.5125 
Q 52.018 77.5125 54.018 77.5125 
z
" style="fill: #ffffff; opacity: 0.8; stroke: #cccccc; stroke-linejoin: miter"/>
    </g>
    <g id="line2d_19">
     <path d="M 56.018 23.898438 
L 66.018 23.898438 
L 76.018 23.898438 
" style="fill: none; stroke: #1f77b4; stroke-width: 1.5; stroke-linecap: square"/>
    </g>
    <g id="text_17">
     <!-- Ts=100 K -->
     <g transform="translate(84.018 27.398438) scale(0.1 -0.1)">
      <defs>
       <path id="DejaVuSans-54" d="M -19 4666 
L 3928 4666 
L 3928 4134 
L 2272 4134 
L 2272 0 
L 1638 0 
L 1638 4134 
L -19 4134 
L -19 4666 
z
" transform="scale(0.015625)"/>
       <path id="DejaVuSans-73" d="M 2834 3397 
L 2834 2853 
Q 2591 2978 2328 3040 
Q 2066 3103 1784 3103 
Q 1356 3103 1142 2972 
Q 928 2841 928 2578 
Q 928 2378 1081 2264 
Q 1234 2150 1697 2047 
L 1894 2003 
Q 2506 1872 2764 1633 
Q 3022 1394 3022 966 
Q 3022 478 2636 193 
Q 2250 -91 1575 -91 
Q 1294 -91 989 -36 
Q 684 19 347 128 
L 347 722 
Q 666 556 975 473 
Q 1284 391 1588 391 
Q 1994 391 2212 530 
Q 2431 669 2431 922 
Q 2431 1156 2273 1281 
Q 2116 1406 1581 1522 
L 1381 1569 
Q 847 1681 609 1914 
Q 372 2147 372 2553 
Q 372 3047 722 3315 
Q 1072 3584 1716 3584 
Q 2034 3584 2315 3537 
Q 2597 3491 2834 3397 
z
" transform="scale(0.015625)"/>
       <path id="DejaVuSans-3d" d="M 678 2906 
L 4684 2906 
L 4684 2381 
L 678 2381 
L 678 2906 
z
M 678 1631 
L 4684 1631 
L 4684 1100 
L 678 1100 
L 678 1631 
z
" transform="scale(0.015625)"/>
       <path id="DejaVuSans-4b" d="M 628 4666 
L 1259 4666 
L 1259 2694 
L 3353 4666 
L 4166 4666 
L 1850 2491 
L 4331 0 
L 3500 0 
L 1259 2247 
L 1259 0 
L 628 0 
L 628 4666 
z
" transform="scale(0.015625)"/>
      </defs>
      <use xlink:href="#DejaVuSans-54"/>
      <use xlink:href="#DejaVuSans-73" transform="translate(44.583984 0)"/>
      <use xlink:href="#DejaVuSans-3d" transform="translate(96.683594 0)"/>
      <use xlink:href="#DejaVuSans-31" transform="translate(180.472656 0)"/>
      <use xlink:href="#DejaVuSans-30" transform="translate(244.095703 0)"/>
      <use xlink:href="#DejaVuSans-30" transform="translate(307.71875 0)"/>
      <use xlink:href="#DejaVuSans-20" transform="translate(371.341797 0)"/>
      <use xlink:href="#DejaVuSans-4b" transform="translate(403.128906 0)"/>
     </g>
    </g>
    <g id="line2d_20">
     <path d="M 56.018 38.576563 
L 66.018 38.576563 
L 76.018 38.576563 
" style="fill: none; stroke: #ff7f0e; stroke-width: 1.5; stroke-linecap: square"/>
    </g>
    <g id="text_18">
     <!-- Ts=160 K -->
     <g transform="translate(84.018 42.076563) scale(0.1 -0.1)">
      <defs>
       <path id="DejaVuSans-36" d="M 2113 2584 
Q 1688 2584 1439 2293 
Q 1191 2003 1191 1497 
Q 1191 994 1439 701 
Q 1688 409 2113 409 
Q 2538 409 2786 701 
Q 3034 994 3034 1497 
Q 3034 2003 2786 2293 
Q 2538 2584 2113 2584 
z
M 3366 4563 
L 3366 3988 
Q 3128 4100 2886 4159 
Q 2644 4219 2406 4219 
Q 1781 4219 1451 3797 
Q 1122 3375 1075 2522 
Q 1259 2794 1537 2939 
Q 1816 3084 2150 3084 
Q 2853 3084 3261 2657 
Q 3669 2231 3669 1497 
Q 3669 778 3244 343 
Q 2819 -91 2113 -91 
Q 1303 -91 875 529 
Q 447 1150 447 2328 
Q 447 3434 972 4092 
Q 1497 4750 2381 4750 
Q 2619 4750 2861 4703 
Q 3103 4656 3366 4563 
z
" transform="scale(0.015625)"/>
      </defs>
      <use xlink:href="#DejaVuSans-54"/>
      <use xlink:href="#DejaVuSans-73" transform="translate(44.583984 0)"/>
      <use xlink:href="#DejaVuSans-3d" transform="translate(96.683594 0)"/>
      <use xlink:href="#DejaVuSans-31" transform="translate(180.472656 0)"/>
      <use xlink:href="#DejaVuSans-36" transform="translate(244.095703 0)"/>
      <use xlink:href="#DejaVuSans-30" transform="translate(307.71875 0)"/>
      <use xlink:href="#DejaVuSans-20" transform="translate(371.341797 0)"/>
      <use xlink:href="#DejaVuSans-4b" transform="translate(403.128906 0)"/>
     </g>
    </g>
    <g id="line2d_21">
     <path d="M 56.018 53.254687 
L 66.018 53.254687 
L 76.018 53.254687 
" style="fill: none; stroke: #2ca02c; stroke-width: 1.5; stroke-linecap: square"/>
    </g>
    <g id="text_19">
     <!-- Ts=220 K -->
     <g transform="translate(84.018 56.754687) scale(0.1 -0.1)">
      <use xlink:href="#DejaVuSans-54"/>
      <use xlink:href="#DejaVuSans-73" transform="translate(44.583984 0)"/>
      <use xlink:href="#DejaVuSans-3d" transform="translate(96.683594 0)"/>
      <use xlink:href="#DejaVuSans-32" transform="translate(180.472656 0)"/>
      <use xlink:href="#DejaVuSans-32" transform="translate(244.095703 0)"/>
      <use xlink:href="#DejaVuSans-30" transform="translate(307.71875 0)"/>
      <use xlink:href="#DejaVuSans-20" transform="translate(371.341797 0)"/>
      <use xlink:href="#DejaVuSans-4b" transform="translate(403.128906 0)"/>
     </g>
    </g>
    <g id="line2d_22">
     <path d="M 56.018 67.932813 
L 66.018 67.932813 
L 76.018 67.932813 
" style="fill: none; stroke: #d62728; stroke-width: 1.5; stroke-linecap: square"/>
    </g>
    <g id="text_20">
     <!-- Ts=260 K -->
     <g transform="translate(84.018 71.432813) scale(0.1 -0.1)">
      <use xlink:href="#DejaVuSans-54"/>
      <use xlink:href="#DejaVuSans-73" transform="translate(44.583984 0)"/>
      <use xlink:href="#DejaVuSans-3d" transform="translate(96.683594 0)"/>
      <use xlink:href="#DejaVuSans-32" transform="translate(180.472656 0)"/>
      <use xlink:href="#DejaVuSans-36" transform="translate(244.095703 0)"/>
      <use xlink:href="#DejaVuSans-30" transform="translate(307.71875 0)"/>
      <use xlink:href="#DejaVuSans-20" transform="translate(371.341797 0)"/>
      <use xlink:href="#DejaVuSans-4b" transform="translate(403.128906 0)"/>
     </g>
    </g>
   </g>
  </g>
 </g>
 <defs>
  <clipPath id="pc9826b93ee">
   <rect x="47.018" y="10.8" width="402.982" height="291.4"/>
  </clipPath>
 </defs>
</svg>
