<?xml version="1.0" encoding="utf-8" standalone="no"?>
<!DOCTYPE svg PUBLIC "-//W3C//DTD SVG 1.1//EN"
  "http://www.w3.org/Graphics/SVG/1.1/DTD/svg11.dtd">
<svg xmlns:xlink="http://www.w3.org/1999/xlink" width="460.8pt" height="345.6pt" viewBox="0 0 460.8 345.6" xmlns="http://www.w3.org/2000/svg" version="1.1">
 <metadata>
  <rdf:RDF xmlns:dc="http://purl.org/dc/elements/1.1/" xmlns:cc="http://creativecommons.org/ns#" xmlns:rdf="http://www.w3.org/1999/02/22-rdf-syntax-ns#">
   <cc:Work>
    <dc:type rdf:resource="http://purl.org/dc/dcmitype/StillImage"/>
    <dc:date>2026-02-12T00:50:34.122971</dc:date>
    <dc:format>image/svg+xml</dc:format>
    <dc:creator>
     <cc:Agent>
      <dc:title>Matplotlib v3.10.8, https://matplotlib.org/</dc:title>
     </cc:Agent>
    </dc:creator>
   </cc:Work>
  </rdf:RDF>
 </metadata>
 <defs>
  <style type="text/css">*{stroke-linejoin: round; stroke-linecap: butt}</style>
 </defs>
 <g id="figure_1">
  <g id="patch_1">
   <path d="M 0 345.6 
L 460.8 345.6 
L 460.8 0 
L 0 0 
L 0 345.6 
z
" style="fill: none"/>
  </g>
  <g id="axes_1">
   <g id="patch_2">
    <path d="M 59.984054 302.2 
L 450 302.2 
L 450 10.8 
L 59.984054 10.8 
L 59.984054 302.2 
z
" style="fill: none"/>
   </g>
   <g id="FillBetweenPolyCollection_1">
    <path d="M 77.712051 264.869978 
L 77.712051 288.954545 
L 79.49376 285.264894 
L 81.275468 281.82841 
L 83.057176 278.61462 
L 84.838885 275.59819 
L 86.620593 272.757837 
L 88.402301 270.075511 
L 90.18401 267.53577 
L 91.965718 265.125302 
L 93.747426 262.832554 
L 95.529134 260.647434 
L 97.310843 258.561075 
L 99.092551 256.565646 
L 100.874259 254.654197 
L 102.655968 252.820533 
L 104.437676 251.059107 
L 106.219384 249.364933 
L 108.001092 247.733517 
L 109.782801 246.160788 
L 111.564509 244.643055 
L 113.346217 243.176954 
L 115.127926 241.759414 
L 116.909634 240.387568 
L 118.691342 239.058735 
L 120.473051 237.770714 
L 122.254759 236.521316 
L 124.036467 235.30852 
L 125.818175 234.130457 
L 127.599884 232.985392 
L 129.381592 231.871714 
L 131.1633 230.787924 
L 132.945009 229.732625 
L 134.726717 228.704512 
L 136.508425 227.702367 
L 138.290134 226.725047 
L 140.071842 225.771482 
L 141.85355 224.840669 
L 143.635258 223.931663 
L 145.416967 223.043575 
L 147.198675 222.175569 
L 148.980383 221.326856 
L 150.762092 220.496689 
L 152.5438 219.684366 
L 154.325508 218.88922 
L 156.107216 218.110386 
L 157.888925 217.34382 
L 159.670633 216.592763 
L 161.452341 215.856668 
L 163.23405 215.135018 
L 165.015758 214.427322 
L 166.797466 213.733111 
L 168.579175 213.056772 
L 170.360883 212.393135 
L 172.142591 211.741564 
L 173.924299 211.101679 
L 175.706008 210.473117 
L 177.487716 209.855529 
L 179.269424 209.248584 
L 181.051133 208.651963 
L 182.832841 208.065363 
L 184.614549 207.48849 
L 186.396258 206.921065 
L 188.177966 206.362821 
L 189.959674 205.813499 
L 191.741382 205.272852 
L 193.523091 204.740643 
L 195.304799 204.216517 
L 197.086507 203.699397 
L 198.868216 203.190081 
L 200.649924 202.688365 
L 202.431632 202.194054 
L 204.213341 201.706956 
L 205.995049 201.226861 
L 207.776757 200.753537 
L 209.558465 200.285573 
L 211.340174 199.822254 
L 213.121882 199.36537 
L 214.90359 198.914766 
L 216.685299 198.470292 
L 218.467007 198.033394 
L 220.248715 197.609497 
L 222.030423 197.191135 
L 223.812132 196.776777 
L 225.59384 196.363809 
L 227.375548 195.956114 
L 229.157257 195.553576 
L 230.938965 195.155984 
L 232.720673 194.765392 
L 234.502382 194.385574 
L 236.28409 194.010336 
L 238.065798 193.635635 
L 239.847506 193.262549 
L 241.629215 192.893541 
L 243.410923 192.523834 
L 245.192631 192.156107 
L 246.97434 191.803189 
L 248.756048 191.454293 
L 250.537756 191.109338 
L 252.319465 190.768247 
L 254.101173 190.428184 
L 255.882881 190.091747 
L 257.664589 189.759002 
L 259.446298 189.429878 
L 261.228006 189.104479 
L 263.009714 188.783958 
L 264.791423 188.466829 
L 266.573131 188.152888 
L 268.354839 187.849005 
L 270.136547 187.537278 
L 271.918256 187.23108 
L 273.699964 186.939905 
L 275.481672 186.653254 
L 277.263381 186.361271 
L 279.045089 186.070481 
L 280.826797 185.782202 
L 282.608506 185.499321 
L 284.390214 185.217787 
L 286.171922 184.934086 
L 287.95363 184.656928 
L 289.735339 184.38673 
L 291.517047 184.118319 
L 293.298755 183.857497 
L 295.080464 183.596028 
L 296.862172 183.342087 
L 298.64388 183.089907 
L 300.425589 182.84678 
L 302.207297 182.598318 
L 303.989005 182.362098 
L 305.770713 182.127795 
L 307.552422 181.871458 
L 309.33413 181.625272 
L 311.115838 181.388813 
L 312.897547 181.154376 
L 314.679255 180.921933 
L 316.460963 180.691453 
L 318.242671 180.462497 
L 320.02438 180.232886 
L 321.806088 180.011507 
L 323.587796 179.788511 
L 325.369505 179.567322 
L 327.151213 179.348007 
L 328.932921 179.137138 
L 330.71463 178.925342 
L 332.496338 178.711869 
L 334.278046 178.50009 
L 336.059754 178.299128 
L 337.841463 178.101715 
L 339.623171 177.900553 
L 341.404879 177.700014 
L 343.186588 177.498458 
L 344.968296 177.299645 
L 346.750004 177.105526 
L 348.531713 176.912857 
L 350.313421 176.721724 
L 352.095129 176.530932 
L 353.876837 176.343559 
L 355.658546 176.15715 
L 357.440254 175.97753 
L 359.221962 175.79919 
L 361.003671 175.622113 
L 362.785379 175.4451 
L 364.567087 175.268789 
L 366.348795 175.093683 
L 368.130504 174.916301 
L 369.912212 174.736722 
L 371.69392 174.561502 
L 373.475629 174.391505 
L 375.257337 174.222667 
L 377.039045 174.054973 
L 378.820754 173.88841 
L 380.602462 173.722846 
L 382.38417 173.558365 
L 384.165878 173.391309 
L 385.947587 173.224461 
L 387.729295 173.063686 
L 389.511003 172.903962 
L 391.292712 172.74522 
L 393.07442 172.587431 
L 394.856128 172.42554 
L 396.637837 172.264701 
L 398.419545 172.104902 
L 400.201253 171.94613 
L 401.982961 171.788375 
L 403.76467 171.631625 
L 405.546378 171.475869 
L 407.328086 171.321095 
L 409.109795 171.167294 
L 410.891503 171.014453 
L 412.673211 170.862563 
L 414.454919 170.711614 
L 416.236628 170.561595 
L 418.018336 170.412483 
L 419.800044 170.264197 
L 421.581753 170.116812 
L 423.363461 169.970319 
L 425.145169 169.824708 
L 426.926878 169.67997 
L 428.708586 169.536096 
L 430.490294 169.393076 
L 432.272002 169.250903 
L 432.272002 168.066058 
L 432.272002 168.066058 
L 430.490294 168.216957 
L 428.708586 168.368775 
L 426.926878 168.521523 
L 425.145169 168.675212 
L 423.363461 168.82985 
L 421.581753 168.985448 
L 419.800044 169.142018 
L 418.018336 169.299569 
L 416.236628 169.458112 
L 414.454919 169.617659 
L 412.673211 169.778221 
L 410.891503 169.939476 
L 409.109795 170.10238 
L 407.328086 170.265975 
L 405.546378 170.43063 
L 403.76467 170.596358 
L 401.982961 170.763171 
L 400.201253 170.931082 
L 398.419545 171.100104 
L 396.637837 171.270249 
L 394.856128 171.44153 
L 393.07442 171.613961 
L 391.292712 171.787556 
L 389.511003 171.962328 
L 387.729295 172.138292 
L 385.947587 172.315461 
L 384.165878 172.493851 
L 382.38417 172.673476 
L 380.602462 172.854406 
L 378.820754 173.036661 
L 377.039045 173.220198 
L 375.257337 173.405033 
L 373.475629 173.591183 
L 371.69392 173.778663 
L 369.912212 173.966762 
L 368.130504 174.153454 
L 366.348795 174.347359 
L 364.567087 174.541928 
L 362.785379 174.736087 
L 361.003671 174.930272 
L 359.221962 175.125894 
L 357.440254 175.325568 
L 355.658546 175.527854 
L 353.876837 175.729804 
L 352.095129 175.929414 
L 350.313421 176.128849 
L 348.531713 176.330312 
L 346.750004 176.53533 
L 344.968296 176.740054 
L 343.186588 176.946394 
L 341.404879 177.155934 
L 339.623171 177.36851 
L 337.841463 177.585463 
L 336.059754 177.804199 
L 334.278046 178.024266 
L 332.496338 178.241037 
L 330.71463 178.459589 
L 328.932921 178.680025 
L 327.151213 178.901218 
L 325.369505 179.119846 
L 323.587796 179.350801 
L 321.806088 179.580957 
L 320.02438 179.809547 
L 318.242671 180.041051 
L 316.460963 180.274496 
L 314.679255 180.51195 
L 312.897547 180.743655 
L 311.115838 180.977724 
L 309.33413 181.214712 
L 307.552422 181.45236 
L 305.770713 181.691017 
L 303.989005 181.934018 
L 302.207297 182.17296 
L 300.425589 182.421234 
L 298.64388 182.667128 
L 296.862172 182.914279 
L 295.080464 183.159149 
L 293.298755 183.409521 
L 291.517047 183.658149 
L 289.735339 183.906965 
L 287.95363 184.156551 
L 286.171922 184.411547 
L 284.390214 184.667416 
L 282.608506 184.925761 
L 280.826797 185.186595 
L 279.045089 185.449547 
L 277.263381 185.71515 
L 275.481672 185.984591 
L 273.699964 186.263895 
L 271.918256 186.539818 
L 270.136547 186.810696 
L 268.354839 187.084232 
L 266.573131 187.36439 
L 264.791423 187.648939 
L 263.009714 187.937505 
L 261.228006 188.230772 
L 259.446298 188.527072 
L 257.664589 188.826458 
L 255.882881 189.128987 
L 254.101173 189.434718 
L 252.319465 189.738707 
L 250.537756 190.044797 
L 248.756048 190.354173 
L 246.97434 190.665375 
L 245.192631 190.980587 
L 243.410923 191.302453 
L 241.629215 191.623497 
L 239.847506 191.944894 
L 238.065798 192.269887 
L 236.28409 192.598548 
L 234.502382 192.933064 
L 232.720673 193.271795 
L 230.938965 193.614462 
L 229.157257 193.961147 
L 227.375548 194.311933 
L 225.59384 194.666905 
L 223.812132 195.026152 
L 222.030423 195.389764 
L 220.248715 195.757836 
L 218.467007 196.130463 
L 216.685299 196.507745 
L 214.90359 196.889786 
L 213.121882 197.276691 
L 211.340174 197.668569 
L 209.558465 198.065534 
L 207.776757 198.467803 
L 205.995049 198.87549 
L 204.213341 199.288629 
L 202.431632 199.707349 
L 200.649924 200.131783 
L 198.868216 200.56207 
L 197.086507 200.998352 
L 195.304799 201.440777 
L 193.523091 201.889498 
L 191.741382 202.344673 
L 189.959674 202.810161 
L 188.177966 203.283786 
L 186.396258 203.764492 
L 184.614549 204.252466 
L 182.832841 204.747905 
L 181.051133 205.25101 
L 179.269424 205.761991 
L 177.487716 206.281066 
L 175.706008 206.808464 
L 173.924299 207.34442 
L 172.142591 207.889182 
L 170.360883 208.443006 
L 168.579175 209.006159 
L 166.797466 209.578921 
L 165.015758 210.161583 
L 163.23405 210.754448 
L 161.452341 211.357835 
L 159.670633 211.972252 
L 157.888925 212.597876 
L 156.107216 213.23507 
L 154.325508 213.884214 
L 152.5438 214.545708 
L 150.762092 215.215552 
L 148.980383 215.896673 
L 147.198675 216.591263 
L 145.416967 217.299796 
L 143.635258 218.022773 
L 141.85355 218.760718 
L 140.071842 219.514185 
L 138.290134 220.283759 
L 136.508425 221.070054 
L 134.726717 221.873723 
L 132.945009 222.695451 
L 131.1633 223.535967 
L 129.381592 224.396041 
L 127.599884 225.276489 
L 125.818175 226.17818 
L 124.036467 227.102035 
L 122.254759 228.057223 
L 120.473051 229.037731 
L 118.691342 230.043943 
L 116.909634 231.077076 
L 115.127926 232.138432 
L 113.346217 233.229406 
L 111.564509 234.351496 
L 109.782801 235.506312 
L 108.001092 236.695587 
L 106.219384 237.921191 
L 104.437676 239.185147 
L 102.655968 240.489644 
L 100.874259 241.837058 
L 99.092551 243.229972 
L 97.310843 244.671206 
L 95.529134 246.163837 
L 93.747426 247.71124 
L 91.965718 249.317122 
L 90.18401 250.985569 
L 88.402301 252.721098 
L 86.620593 254.52872 
L 84.838885 256.414062 
L 83.057176 258.383503 
L 81.275468 260.443867 
L 79.49376 262.603046 
L 77.712051 264.869978 
z
" clip-path="url(#pf7021a4c6a)" style="fill: #1f77b4; fill-opacity: 0.3"/>
   </g>
   <g id="matplotlib.axis_1">
    <g id="xtick_1">
     <g id="line2d_1">
      <defs>
       <path id="m92d08e0189" d="M 0 0 
L 0 3.5 
" style="stroke: #000000; stroke-width: 0.8"/>
      </defs>
      <g>
       <use xlink:href="#m92d08e0189" x="68.533694" y="302.2" style="stroke: #000000; stroke-width: 0.8"/>
      </g>
     </g>
     <g id="text_1">
      <!-- 75 -->
      <g transform="translate(62.171194 316.798437) scale(0.1 -0.1)">
       <defs>
        <path id="DejaVuSans-37" d="M 525 4666 
L 3525 4666 
L 3525 4397 
L 1831 0 
L 1172 0 
L 2766 4134 
L 525 4134 
L 525 4666 
z
" transform="scale(0.015625)"/>
        <path id="DejaVuSans-35" d="M 691 4666 
L 3169 4666 
L 3169 4134 
L 1269 4134 
L 1269 2991 
Q 1406 3038 1543 3061 
Q 1681 3084 1819 3084 
Q 2600 3084 3056 2656 
Q 3513 2228 3513 1497 
Q 3513 744 3044 326 
Q 2575 -91 1722 -91 
Q 1428 -91 1123 -41 
Q 819 9 494 109 
L 494 744 
Q 775 591 1075 516 
Q 1375 441 1709 441 
Q 2250 441 2565 725 
Q 2881 1009 2881 1497 
Q 2881 1984 2565 2268 
Q 2250 2553 1709 2553 
Q 1456 2553 1204 2497 
Q 953 2441 691 2322 
L 691 4666 
z
" transform="scale(0.015625)"/>
       </defs>
       <use xlink:href="#DejaVuSans-37"/>
       <use xlink:href="#DejaVuSans-35" transform="translate(63.623047 0)"/>
      </g>
     </g>
    </g>
    <g id="xtick_2">
     <g id="line2d_2">
      <g>
       <use xlink:href="#m92d08e0189" x="114.425482" y="302.2" style="stroke: #000000; stroke-width: 0.8"/>
      </g>
     </g>
     <g id="text_2">
      <!-- 100 -->
      <g transform="translate(104.881732 316.798437) scale(0.1 -0.1)">
       <defs>
        <path id="DejaVuSans-31" d="M 794 531 
L 1825 531 
L 1825 4091 
L 703 3866 
L 703 4441 
L 1819 4666 
L 2450 4666 
L 2450 531 
L 3481 531 
L 3481 0 
L 794 0 
L 794 531 
z
" transform="scale(0.015625)"/>
        <path id="DejaVuSans-30" d="M 2034 4250 
Q 1547 4250 1301 3770 
Q 1056 3291 1056 2328 
Q 1056 1369 1301 889 
Q 1547 409 2034 409 
Q 2525 409 2770 889 
Q 3016 1369 3016 2328 
Q 3016 3291 2770 3770 
Q 2525 4250 2034 4250 
z
M 2034 4750 
Q 2819 4750 3233 4129 
Q 3647 3509 3647 2328 
Q 3647 1150 3233 529 
Q 2819 -91 2034 -91 
Q 1250 -91 836 529 
Q 422 1150 422 2328 
Q 422 3509 836 4129 
Q 1250 4750 2034 4750 
z
" transform="scale(0.015625)"/>
       </defs>
       <use xlink:href="#DejaVuSans-31"/>
       <use xlink:href="#DejaVuSans-30" transform="translate(63.623047 0)"/>
       <use xlink:href="#DejaVuSans-30" transform="translate(127.246094 0)"/>
      </g>
     </g>
    </g>
    <g id="xtick_3">
     <g id="line2d_3">
      <g>
       <use xlink:href="#m92d08e0189" x="160.317269" y="302.2" style="stroke: #000000; stroke-width: 0.8"/>
      </g>
     </g>
     <g id="text_3">
      <!-- 125 -->
      <g transform="translate(150.773519 316.798437) scale(0.1 -0.1)">
       <defs>
        <path id="DejaVuSans-32" d="M 1228 531 
L 3431 531 
L 3431 0 
L 469 0 
L 469 531 
Q 828 903 1448 1529 
Q 2069 2156 2228 2338 
Q 2531 2678 2651 2914 
Q 2772 3150 2772 3378 
Q 2772 3750 2511 3984 
Q 2250 4219 1831 4219 
Q 1534 4219 1204 4116 
Q 875 4013 500 3803 
L 500 4441 
Q 881 4594 1212 4672 
Q 1544 4750 1819 4750 
Q 2544 4750 2975 4387 
Q 3406 4025 3406 3419 
Q 3406 3131 3298 2873 
Q 3191 2616 2906 2266 
Q 2828 2175 2409 1742 
Q 1991 1309 1228 531 
z
" transform="scale(0.015625)"/>
       </defs>
       <use xlink:href="#DejaVuSans-31"/>
       <use xlink:href="#DejaVuSans-32" transform="translate(63.623047 0)"/>
       <use xlink:href="#DejaVuSans-35" transform="translate(127.246094 0)"/>
      </g>
     </g>
    </g>
    <g id="xtick_4">
     <g id="line2d_4">
      <g>
       <use xlink:href="#m92d08e0189" x="206.209057" y="302.2" style="stroke: #000000; stroke-width: 0.8"/>
      </g>
     </g>
     <g id="text_4">
      <!-- 150 -->
      <g transform="translate(196.665307 316.798437) scale(0.1 -0.1)">
       <use xlink:href="#DejaVuSans-31"/>
       <use xlink:href="#DejaVuSans-35" transform="translate(63.623047 0)"/>
       <use xlink:href="#DejaVuSans-30" transform="translate(127.246094 0)"/>
      </g>
     </g>
    </g>
    <g id="xtick_5">
     <g id="line2d_5">
      <g>
       <use xlink:href="#m92d08e0189" x="252.100844" y="302.2" style="stroke: #000000; stroke-width: 0.8"/>
      </g>
     </g>
     <g id="text_5">
      <!-- 175 -->
      <g transform="translate(242.557094 316.798437) scale(0.1 -0.1)">
       <use xlink:href="#DejaVuSans-31"/>
       <use xlink:href="#DejaVuSans-37" transform="translate(63.623047 0)"/>
       <use xlink:href="#DejaVuSans-35" transform="translate(127.246094 0)"/>
      </g>
     </g>
    </g>
    <g id="xtick_6">
     <g id="line2d_6">
      <g>
       <use xlink:href="#m92d08e0189" x="297.992632" y="302.2" style="stroke: #000000; stroke-width: 0.8"/>
      </g>
     </g>
     <g id="text_6">
      <!-- 200 -->
      <g transform="translate(288.448882 316.798437) scale(0.1 -0.1)">
       <use xlink:href="#DejaVuSans-32"/>
       <use xlink:href="#DejaVuSans-30" transform="translate(63.623047 0)"/>
       <use xlink:href="#DejaVuSans-30" transform="translate(127.246094 0)"/>
      </g>
     </g>
    </g>
    <g id="xtick_7">
     <g id="line2d_7">
      <g>
       <use xlink:href="#m92d08e0189" x="343.88442" y="302.2" style="stroke: #000000; stroke-width: 0.8"/>
      </g>
     </g>
     <g id="text_7">
      <!-- 225 -->
      <g transform="translate(334.34067 316.798437) scale(0.1 -0.1)">
       <use xlink:href="#DejaVuSans-32"/>
       <use xlink:href="#DejaVuSans-32" transform="translate(63.623047 0)"/>
       <use xlink:href="#DejaVuSans-35" transform="translate(127.246094 0)"/>
      </g>
     </g>
    </g>
    <g id="xtick_8">
     <g id="line2d_8">
      <g>
       <use xlink:href="#m92d08e0189" x="389.776207" y="302.2" style="stroke: #000000; stroke-width: 0.8"/>
      </g>
     </g>
     <g id="text_8">
      <!-- 250 -->
      <g transform="translate(380.232457 316.798437) scale(0.1 -0.1)">
       <use xlink:href="#DejaVuSans-32"/>
       <use xlink:href="#DejaVuSans-35" transform="translate(63.623047 0)"/>
       <use xlink:href="#DejaVuSans-30" transform="translate(127.246094 0)"/>
      </g>
     </g>
    </g>
    <g id="xtick_9">
     <g id="line2d_9">
      <g>
       <use xlink:href="#m92d08e0189" x="435.667995" y="302.2" style="stroke: #000000; stroke-width: 0.8"/>
      </g>
     </g>
     <g id="text_9">
      <!-- 275 -->
      <g transform="translate(426.124245 316.798437) scale(0.1 -0.1)">
       <use xlink:href="#DejaVuSans-32"/>
       <use xlink:href="#DejaVuSans-37" transform="translate(63.623047 0)"/>
       <use xlink:href="#DejaVuSans-35" transform="translate(127.246094 0)"/>
      </g>
     </g>
    </g>
    <g id="text_10">
     <!-- $T$ (K) -->
     <g transform="translate(243.142027 330.476562) scale(0.1 -0.1)">
      <defs>
       <path id="DejaVuSans-Oblique-54" d="M 378 4666 
L 4325 4666 
L 4225 4134 
L 2559 4134 
L 1759 0 
L 1125 0 
L 1925 4134 
L 275 4134 
L 378 4666 
z
" transform="scale(0.015625)"/>
       <path id="DejaVuSans-20" transform="scale(0.015625)"/>
       <path id="DejaVuSans-28" d="M 1984 4856 
Q 1566 4138 1362 3434 
Q 1159 2731 1159 2009 
Q 1159 1288 1364 580 
Q 1569 -128 1984 -844 
L 1484 -844 
Q 1016 -109 783 600 
Q 550 1309 550 2009 
Q 550 2706 781 3412 
Q 1013 4119 1484 4856 
L 1984 4856 
z
" transform="scale(0.015625)"/>
       <path id="DejaVuSans-4b" d="M 628 4666 
L 1259 4666 
L 1259 2694 
L 3353 4666 
L 4166 4666 
L 1850 2491 
L 4331 0 
L 3500 0 
L 1259 2247 
L 1259 0 
L 628 0 
L 628 4666 
z
" transform="scale(0.015625)"/>
       <path id="DejaVuSans-29" d="M 513 4856 
L 1013 4856 
Q 1481 4119 1714 3412 
Q 1947 2706 1947 2009 
Q 1947 1309 1714 600 
Q 1481 -109 1013 -844 
L 513 -844 
Q 928 -128 1133 580 
Q 1338 1288 1338 2009 
Q 1338 2731 1133 3434 
Q 928 4138 513 4856 
z
" transform="scale(0.015625)"/>
      </defs>
      <use xlink:href="#DejaVuSans-Oblique-54" transform="translate(0 0.125)"/>
      <use xlink:href="#DejaVuSans-20" transform="translate(61.083984 0.125)"/>
      <use xlink:href="#DejaVuSans-28" transform="translate(92.871094 0.125)"/>
      <use xlink:href="#DejaVuSans-4b" transform="translate(131.884766 0.125)"/>
      <use xlink:href="#DejaVuSans-29" transform="translate(197.460938 0.125)"/>
     </g>
    </g>
   </g>
   <g id="matplotlib.axis_2">
    <g id="ytick_1">
     <g id="line2d_10">
      <defs>
       <path id="m8609844b88" d="M 0 0 
L -3.5 0 
" style="stroke: #000000; stroke-width: 0.8"/>
      </defs>
      <g>
       <use xlink:href="#m8609844b88" x="59.984054" y="174.361484" style="stroke: #000000; stroke-width: 0.8"/>
      </g>
     </g>
     <g id="text_11">
      <!-- $\mathdefault{10^{-6}}$ -->
      <g transform="translate(29.484054 178.160703) scale(0.1 -0.1)">
       <defs>
        <path id="DejaVuSans-2212" d="M 678 2272 
L 4684 2272 
L 4684 1741 
L 678 1741 
L 678 2272 
z
" transform="scale(0.015625)"/>
        <path id="DejaVuSans-36" d="M 2113 2584 
Q 1688 2584 1439 2293 
Q 1191 2003 1191 1497 
Q 1191 994 1439 701 
Q 1688 409 2113 409 
Q 2538 409 2786 701 
Q 3034 994 3034 1497 
Q 3034 2003 2786 2293 
Q 2538 2584 2113 2584 
z
M 3366 4563 
L 3366 3988 
Q 3128 4100 2886 4159 
Q 2644 4219 2406 4219 
Q 1781 4219 1451 3797 
Q 1122 3375 1075 2522 
Q 1259 2794 1537 2939 
Q 1816 3084 2150 3084 
Q 2853 3084 3261 2657 
Q 3669 2231 3669 1497 
Q 3669 778 3244 343 
Q 2819 -91 2113 -91 
Q 1303 -91 875 529 
Q 447 1150 447 2328 
Q 447 3434 972 4092 
Q 1497 4750 2381 4750 
Q 2619 4750 2861 4703 
Q 3103 4656 3366 4563 
z
" transform="scale(0.015625)"/>
       </defs>
       <use xlink:href="#DejaVuSans-31" transform="translate(0 0.765625)"/>
       <use xlink:href="#DejaVuSans-30" transform="translate(63.623047 0.765625)"/>
       <use xlink:href="#DejaVuSans-2212" transform="translate(128.203125 39.046875) scale(0.7)"/>
       <use xlink:href="#DejaVuSans-36" transform="translate(186.855469 39.046875) scale(0.7)"/>
      </g>
     </g>
    </g>
    <g id="ytick_2">
     <g id="line2d_11">
      <g>
       <use xlink:href="#m8609844b88" x="59.984054" y="35.580387" style="stroke: #000000; stroke-width: 0.8"/>
      </g>
     </g>
     <g id="text_12">
      <!-- $\mathdefault{10^{-5}}$ -->
      <g transform="translate(29.484054 39.379606) scale(0.1 -0.1)">
       <use xlink:href="#DejaVuSans-31" transform="translate(0 0.684375)"/>
       <use xlink:href="#DejaVuSans-30" transform="translate(63.623047 0.684375)"/>
       <use xlink:href="#DejaVuSans-2212" transform="translate(128.203125 38.965625) scale(0.7)"/>
       <use xlink:href="#DejaVuSans-35" transform="translate(186.855469 38.965625) scale(0.7)"/>
      </g>
     </g>
    </g>
    <g id="ytick_3">
     <g id="line2d_12">
      <defs>
       <path id="m312784eba3" d="M 0 0 
L -2 0 
" style="stroke: #000000; stroke-width: 0.6"/>
      </defs>
      <g>
       <use xlink:href="#m312784eba3" x="59.984054" y="271.365308" style="stroke: #000000; stroke-width: 0.6"/>
      </g>
     </g>
    </g>
    <g id="ytick_4">
     <g id="line2d_13">
      <g>
       <use xlink:href="#m312784eba3" x="59.984054" y="246.92717" style="stroke: #000000; stroke-width: 0.6"/>
      </g>
     </g>
    </g>
    <g id="ytick_5">
     <g id="line2d_14">
      <g>
       <use xlink:href="#m312784eba3" x="59.984054" y="229.588035" style="stroke: #000000; stroke-width: 0.6"/>
      </g>
     </g>
    </g>
    <g id="ytick_6">
     <g id="line2d_15">
      <g>
       <use xlink:href="#m312784eba3" x="59.984054" y="216.138757" style="stroke: #000000; stroke-width: 0.6"/>
      </g>
     </g>
    </g>
    <g id="ytick_7">
     <g id="line2d_16">
      <g>
       <use xlink:href="#m312784eba3" x="59.984054" y="205.149897" style="stroke: #000000; stroke-width: 0.6"/>
      </g>
     </g>
    </g>
    <g id="ytick_8">
     <g id="line2d_17">
      <g>
       <use xlink:href="#m312784eba3" x="59.984054" y="195.858948" style="stroke: #000000; stroke-width: 0.6"/>
      </g>
     </g>
    </g>
    <g id="ytick_9">
     <g id="line2d_18">
      <g>
       <use xlink:href="#m312784eba3" x="59.984054" y="187.810762" style="stroke: #000000; stroke-width: 0.6"/>
      </g>
     </g>
    </g>
    <g id="ytick_10">
     <g id="line2d_19">
      <g>
       <use xlink:href="#m312784eba3" x="59.984054" y="180.711759" style="stroke: #000000; stroke-width: 0.6"/>
      </g>
     </g>
    </g>
    <g id="ytick_11">
     <g id="line2d_20">
      <g>
       <use xlink:href="#m312784eba3" x="59.984054" y="132.584211" style="stroke: #000000; stroke-width: 0.6"/>
      </g>
     </g>
    </g>
    <g id="ytick_12">
     <g id="line2d_21">
      <g>
       <use xlink:href="#m312784eba3" x="59.984054" y="108.146073" style="stroke: #000000; stroke-width: 0.6"/>
      </g>
     </g>
    </g>
    <g id="ytick_13">
     <g id="line2d_22">
      <g>
       <use xlink:href="#m312784eba3" x="59.984054" y="90.806938" style="stroke: #000000; stroke-width: 0.6"/>
      </g>
     </g>
    </g>
    <g id="ytick_14">
     <g id="line2d_23">
      <g>
       <use xlink:href="#m312784eba3" x="59.984054" y="77.35766" style="stroke: #000000; stroke-width: 0.6"/>
      </g>
     </g>
    </g>
    <g id="ytick_15">
     <g id="line2d_24">
      <g>
       <use xlink:href="#m312784eba3" x="59.984054" y="66.3688" style="stroke: #000000; stroke-width: 0.6"/>
      </g>
     </g>
    </g>
    <g id="ytick_16">
     <g id="line2d_25">
      <g>
       <use xlink:href="#m312784eba3" x="59.984054" y="57.077851" style="stroke: #000000; stroke-width: 0.6"/>
      </g>
     </g>
    </g>
    <g id="ytick_17">
     <g id="line2d_26">
      <g>
       <use xlink:href="#m312784eba3" x="59.984054" y="49.029665" style="stroke: #000000; stroke-width: 0.6"/>
      </g>
     </g>
    </g>
    <g id="ytick_18">
     <g id="line2d_27">
      <g>
       <use xlink:href="#m312784eba3" x="59.984054" y="41.930662" style="stroke: #000000; stroke-width: 0.6"/>
      </g>
     </g>
    </g>
    <g id="text_13">
     <!-- $\alpha(T)$ (m$^2$/s) -->
     <g transform="translate(23.404366 183.85) rotate(-90) scale(0.1 -0.1)">
      <defs>
       <path id="DejaVuSans-Oblique-3b1" d="M 2619 1628 
L 2622 2350 
Q 2625 3088 2069 3091 
Q 1653 3094 1394 2747 
Q 1069 2319 959 1747 
Q 825 1059 994 731 
Q 1169 397 1547 397 
Q 1966 397 2319 1063 
L 2619 1628 
z
M 2166 3578 
Q 3141 3594 3128 2584 
Q 3128 2584 3616 3500 
L 4128 3500 
L 3119 1603 
L 3109 919 
Q 3109 766 3194 638 
Q 3291 488 3391 488 
L 3669 488 
L 3575 0 
L 3228 0 
Q 2934 0 2722 263 
Q 2622 394 2619 669 
Q 2416 334 2066 50 
Q 1900 -81 1453 -78 
Q 722 -72 456 397 
Q 184 884 353 1747 
Q 534 2675 1009 3097 
Q 1544 3569 2166 3578 
z
" transform="scale(0.015625)"/>
       <path id="DejaVuSans-6d" d="M 3328 2828 
Q 3544 3216 3844 3400 
Q 4144 3584 4550 3584 
Q 5097 3584 5394 3201 
Q 5691 2819 5691 2113 
L 5691 0 
L 5113 0 
L 5113 2094 
Q 5113 2597 4934 2840 
Q 4756 3084 4391 3084 
Q 3944 3084 3684 2787 
Q 3425 2491 3425 1978 
L 3425 0 
L 2847 0 
L 2847 2094 
Q 2847 2600 2669 2842 
Q 2491 3084 2119 3084 
Q 1678 3084 1418 2786 
Q 1159 2488 1159 1978 
L 1159 0 
L 581 0 
L 581 3500 
L 1159 3500 
L 1159 2956 
Q 1356 3278 1631 3431 
Q 1906 3584 2284 3584 
Q 2666 3584 2933 3390 
Q 3200 3197 3328 2828 
z
" transform="scale(0.015625)"/>
       <path id="DejaVuSans-2f" d="M 1625 4666 
L 2156 4666 
L 531 -594 
L 0 -594 
L 1625 4666 
z
" transform="scale(0.015625)"/>
       <path id="DejaVuSans-73" d="M 2834 3397 
L 2834 2853 
Q 2591 2978 2328 3040 
Q 2066 3103 1784 3103 
Q 1356 3103 1142 2972 
Q 928 2841 928 2578 
Q 928 2378 1081 2264 
Q 1234 2150 1697 2047 
L 1894 2003 
Q 2506 1872 2764 1633 
Q 3022 1394 3022 966 
Q 3022 478 2636 193 
Q 2250 -91 1575 -91 
Q 1294 -91 989 -36 
Q 684 19 347 128 
L 347 722 
Q 666 556 975 473 
Q 1284 391 1588 391 
Q 1994 391 2212 530 
Q 2431 669 2431 922 
Q 2431 1156 2273 1281 
Q 2116 1406 1581 1522 
L 1381 1569 
Q 847 1681 609 1914 
Q 372 2147 372 2553 
Q 372 3047 722 3315 
Q 1072 3584 1716 3584 
Q 2034 3584 2315 3537 
Q 2597 3491 2834 3397 
z
" transform="scale(0.015625)"/>
      </defs>
      <use xlink:href="#DejaVuSans-Oblique-3b1" transform="translate(0 0.765625)"/>
      <use xlink:href="#DejaVuSans-28" transform="translate(65.917969 0.765625)"/>
      <use xlink:href="#DejaVuSans-Oblique-54" transform="translate(104.931641 0.765625)"/>
      <use xlink:href="#DejaVuSans-29" transform="translate(166.015625 0.765625)"/>
      <use xlink:href="#DejaVuSans-20" transform="translate(205.029297 0.765625)"/>
      <use xlink:href="#DejaVuSans-28" transform="translate(236.816406 0.765625)"/>
      <use xlink:href="#DejaVuSans-6d" transform="translate(275.830078 0.765625)"/>
      <use xlink:href="#DejaVuSans-32" transform="translate(374.199219 39.046875) scale(0.7)"/>
      <use xlink:href="#DejaVuSans-2f" transform="translate(421.469727 0.765625)"/>
      <use xlink:href="#DejaVuSans-73" transform="translate(455.161133 0.765625)"/>
      <use xlink:href="#DejaVuSans-29" transform="translate(507.260742 0.765625)"/>
     </g>
    </g>
   </g>
   <g id="line2d_28">
    <path d="M 77.712051 276.621879 
L 81.275468 271.010614 
L 84.838885 265.995418 
L 88.402301 261.467713 
L 91.965718 257.347918 
L 95.529134 253.578498 
L 99.092551 250.103982 
L 102.655968 246.885646 
L 106.219384 243.891676 
L 111.564509 239.758953 
L 116.909634 235.999424 
L 122.254759 232.550978 
L 127.599884 229.378143 
L 132.945009 226.443142 
L 138.290134 223.720874 
L 145.416967 220.377515 
L 152.5438 217.306126 
L 159.670633 214.481235 
L 168.579175 211.227324 
L 177.487716 208.248201 
L 186.396258 205.508125 
L 195.304799 202.987689 
L 205.995049 200.191219 
L 218.467007 197.193953 
L 230.938965 194.466084 
L 243.410923 191.952921 
L 257.664589 189.323726 
L 273.699964 186.624545 
L 291.517047 183.888637 
L 309.33413 181.408692 
L 328.932921 178.915609 
L 352.095129 176.233245 
L 373.475629 173.975196 
L 394.856128 171.899199 
L 419.800044 169.676647 
L 432.272002 168.638817 
L 432.272002 168.638817 
" clip-path="url(#pf7021a4c6a)" style="fill: none; stroke: #1f77b4; stroke-width: 1.5; stroke-linecap: square"/>
   </g>
   <g id="line2d_29">
    <path d="M 77.712051 24.045455 
L 84.838885 29.568215 
L 91.965718 34.783541 
L 99.092551 39.721289 
L 106.219384 44.408129 
L 113.346217 48.868089 
L 122.254759 54.156941 
L 131.1633 59.163282 
L 140.071842 63.920864 
L 150.762092 69.343216 
L 161.452341 74.494413 
L 172.142591 79.411946 
L 184.614549 84.895265 
L 197.086507 90.143767 
L 211.340174 95.896212 
L 227.375548 102.100045 
L 243.410923 108.061975 
L 261.228006 114.444419 
L 280.826797 121.215455 
L 302.207297 128.353275 
L 325.369505 135.848969 
L 352.095129 144.265161 
L 387.729295 155.238643 
L 432.272002 168.837553 
L 432.272002 168.837553 
" clip-path="url(#pf7021a4c6a)" style="fill: none; stroke-dasharray: 7.4,3.2; stroke-dashoffset: 0; stroke: #000000; stroke-width: 2"/>
   </g>
   <g id="patch_3">
    <path d="M 59.984054 302.2 
L 59.984054 10.8 
" style="fill: none; stroke: #000000; stroke-width: 0.8; stroke-linejoin: miter; stroke-linecap: square"/>
   </g>
   <g id="patch_4">
    <path d="M 450 302.2 
L 450 10.8 
" style="fill: none; stroke: #000000; stroke-width: 0.8; stroke-linejoin: miter; stroke-linecap: square"/>
   </g>
   <g id="patch_5">
    <path d="M 59.984054 302.2 
L 450 302.2 
" style="fill: none; stroke: #000000; stroke-width: 0.8; stroke-linejoin: miter; stroke-linecap: square"/>
   </g>
   <g id="patch_6">
    <path d="M 59.984054 10.8 
L 450 10.8 
" style="fill: none; stroke: #000000; stroke-width: 0.8; stroke-linejoin: miter; stroke-linecap: square"/>
   </g>
   <g id="legend_1">
    <g id="patch_7">
     <path d="M 214.60625 62.834375 
L 443 62.834375 
Q 445 62.834375 445 60.834375 
L 445 17.8 
Q 445 15.8 443 15.8 
L 214.60625 15.8 
Q 212.60625 15.8 212.60625 17.8 
L 212.60625 60.834375 
Q 212.60625 62.834375 214.60625 62.834375 
z
" style="fill: #ffffff; opacity: 0.8; stroke: #cccccc; stroke-linejoin: miter"/>
    </g>
    <g id="patch_8">
     <path d="M 216.60625 27.398438 
L 236.60625 27.398438 
L 236.60625 20.398438 
L 216.60625 20.398438 
z
" style="fill: #1f77b4; fill-opacity: 0.3"/>
    </g>
    <g id="text_14">
     <!-- 95% Credible Interval (parameter-only) -->
     <g transform="translate(244.60625 27.398438) scale(0.1 -0.1)">
      <defs>
       <path id="DejaVuSans-39" d="M 703 97 
L 703 672 
Q 941 559 1184 500 
Q 1428 441 1663 441 
Q 2288 441 2617 861 
Q 2947 1281 2994 2138 
Q 2813 1869 2534 1725 
Q 2256 1581 1919 1581 
Q 1219 1581 811 2004 
Q 403 2428 403 3163 
Q 403 3881 828 4315 
Q 1253 4750 1959 4750 
Q 2769 4750 3195 4129 
Q 3622 3509 3622 2328 
Q 3622 1225 3098 567 
Q 2575 -91 1691 -91 
Q 1453 -91 1209 -44 
Q 966 3 703 97 
z
M 1959 2075 
Q 2384 2075 2632 2365 
Q 2881 2656 2881 3163 
Q 2881 3666 2632 3958 
Q 2384 4250 1959 4250 
Q 1534 4250 1286 3958 
Q 1038 3666 1038 3163 
Q 1038 2656 1286 2365 
Q 1534 2075 1959 2075 
z
" transform="scale(0.015625)"/>
       <path id="DejaVuSans-25" d="M 4653 2053 
Q 4381 2053 4226 1822 
Q 4072 1591 4072 1178 
Q 4072 772 4226 539 
Q 4381 306 4653 306 
Q 4919 306 5073 539 
Q 5228 772 5228 1178 
Q 5228 1588 5073 1820 
Q 4919 2053 4653 2053 
z
M 4653 2450 
Q 5147 2450 5437 2106 
Q 5728 1763 5728 1178 
Q 5728 594 5436 251 
Q 5144 -91 4653 -91 
Q 4153 -91 3862 251 
Q 3572 594 3572 1178 
Q 3572 1766 3864 2108 
Q 4156 2450 4653 2450 
z
M 1428 4353 
Q 1159 4353 1004 4120 
Q 850 3888 850 3481 
Q 850 3069 1003 2837 
Q 1156 2606 1428 2606 
Q 1700 2606 1854 2837 
Q 2009 3069 2009 3481 
Q 2009 3884 1853 4118 
Q 1697 4353 1428 4353 
z
M 4250 4750 
L 4750 4750 
L 1831 -91 
L 1331 -91 
L 4250 4750 
z
M 1428 4750 
Q 1922 4750 2215 4408 
Q 2509 4066 2509 3481 
Q 2509 2891 2217 2550 
Q 1925 2209 1428 2209 
Q 931 2209 642 2551 
Q 353 2894 353 3481 
Q 353 4063 643 4406 
Q 934 4750 1428 4750 
z
" transform="scale(0.015625)"/>
       <path id="DejaVuSans-43" d="M 4122 4306 
L 4122 3641 
Q 3803 3938 3442 4084 
Q 3081 4231 2675 4231 
Q 1875 4231 1450 3742 
Q 1025 3253 1025 2328 
Q 1025 1406 1450 917 
Q 1875 428 2675 428 
Q 3081 428 3442 575 
Q 3803 722 4122 1019 
L 4122 359 
Q 3791 134 3420 21 
Q 3050 -91 2638 -91 
Q 1578 -91 968 557 
Q 359 1206 359 2328 
Q 359 3453 968 4101 
Q 1578 4750 2638 4750 
Q 3056 4750 3426 4639 
Q 3797 4528 4122 4306 
z
" transform="scale(0.015625)"/>
       <path id="DejaVuSans-72" d="M 2631 2963 
Q 2534 3019 2420 3045 
Q 2306 3072 2169 3072 
Q 1681 3072 1420 2755 
Q 1159 2438 1159 1844 
L 1159 0 
L 581 0 
L 581 3500 
L 1159 3500 
L 1159 2956 
Q 1341 3275 1631 3429 
Q 1922 3584 2338 3584 
Q 2397 3584 2469 3576 
Q 2541 3569 2628 3553 
L 2631 2963 
z
" transform="scale(0.015625)"/>
       <path id="DejaVuSans-65" d="M 3597 1894 
L 3597 1613 
L 953 1613 
Q 991 1019 1311 708 
Q 1631 397 2203 397 
Q 2534 397 2845 478 
Q 3156 559 3463 722 
L 3463 178 
Q 3153 47 2828 -22 
Q 2503 -91 2169 -91 
Q 1331 -91 842 396 
Q 353 884 353 1716 
Q 353 2575 817 3079 
Q 1281 3584 2069 3584 
Q 2775 3584 3186 3129 
Q 3597 2675 3597 1894 
z
M 3022 2063 
Q 3016 2534 2758 2815 
Q 2500 3097 2075 3097 
Q 1594 3097 1305 2825 
Q 1016 2553 972 2059 
L 3022 2063 
z
" transform="scale(0.015625)"/>
       <path id="DejaVuSans-64" d="M 2906 2969 
L 2906 4863 
L 3481 4863 
L 3481 0 
L 2906 0 
L 2906 525 
Q 2725 213 2448 61 
Q 2172 -91 1784 -91 
Q 1150 -91 751 415 
Q 353 922 353 1747 
Q 353 2572 751 3078 
Q 1150 3584 1784 3584 
Q 2172 3584 2448 3432 
Q 2725 3281 2906 2969 
z
M 947 1747 
Q 947 1113 1208 752 
Q 1469 391 1925 391 
Q 2381 391 2643 752 
Q 2906 1113 2906 1747 
Q 2906 2381 2643 2742 
Q 2381 3103 1925 3103 
Q 1469 3103 1208 2742 
Q 947 2381 947 1747 
z
" transform="scale(0.015625)"/>
       <path id="DejaVuSans-69" d="M 603 3500 
L 1178 3500 
L 1178 0 
L 603 0 
L 603 3500 
z
M 603 4863 
L 1178 4863 
L 1178 4134 
L 603 4134 
L 603 4863 
z
" transform="scale(0.015625)"/>
       <path id="DejaVuSans-62" d="M 3116 1747 
Q 3116 2381 2855 2742 
Q 2594 3103 2138 3103 
Q 1681 3103 1420 2742 
Q 1159 2381 1159 1747 
Q 1159 1113 1420 752 
Q 1681 391 2138 391 
Q 2594 391 2855 752 
Q 3116 1113 3116 1747 
z
M 1159 2969 
Q 1341 3281 1617 3432 
Q 1894 3584 2278 3584 
Q 2916 3584 3314 3078 
Q 3713 2572 3713 1747 
Q 3713 922 3314 415 
Q 2916 -91 2278 -91 
Q 1894 -91 1617 61 
Q 1341 213 1159 525 
L 1159 0 
L 581 0 
L 581 4863 
L 1159 4863 
L 1159 2969 
z
" transform="scale(0.015625)"/>
       <path id="DejaVuSans-6c" d="M 603 4863 
L 1178 4863 
L 1178 0 
L 603 0 
L 603 4863 
z
" transform="scale(0.015625)"/>
       <path id="DejaVuSans-49" d="M 628 4666 
L 1259 4666 
L 1259 0 
L 628 0 
L 628 4666 
z
" transform="scale(0.015625)"/>
       <path id="DejaVuSans-6e" d="M 3513 2113 
L 3513 0 
L 2938 0 
L 2938 2094 
Q 2938 2591 2744 2837 
Q 2550 3084 2163 3084 
Q 1697 3084 1428 2787 
Q 1159 2491 1159 1978 
L 1159 0 
L 581 0 
L 581 3500 
L 1159 3500 
L 1159 2956 
Q 1366 3272 1645 3428 
Q 1925 3584 2291 3584 
Q 2894 3584 3203 3211 
Q 3513 2838 3513 2113 
z
" transform="scale(0.015625)"/>
       <path id="DejaVuSans-74" d="M 1172 4494 
L 1172 3500 
L 2356 3500 
L 2356 3053 
L 1172 3053 
L 1172 1153 
Q 1172 725 1289 603 
Q 1406 481 1766 481 
L 2356 481 
L 2356 0 
L 1766 0 
Q 1100 0 847 248 
Q 594 497 594 1153 
L 594 3053 
L 172 3053 
L 172 3500 
L 594 3500 
L 594 4494 
L 1172 4494 
z
" transform="scale(0.015625)"/>
       <path id="DejaVuSans-76" d="M 191 3500 
L 800 3500 
L 1894 563 
L 2988 3500 
L 3597 3500 
L 2284 0 
L 1503 0 
L 191 3500 
z
" transform="scale(0.015625)"/>
       <path id="DejaVuSans-61" d="M 2194 1759 
Q 1497 1759 1228 1600 
Q 959 1441 959 1056 
Q 959 750 1161 570 
Q 1363 391 1709 391 
Q 2188 391 2477 730 
Q 2766 1069 2766 1631 
L 2766 1759 
L 2194 1759 
z
M 3341 1997 
L 3341 0 
L 2766 0 
L 2766 531 
Q 2569 213 2275 61 
Q 1981 -91 1556 -91 
Q 1019 -91 701 211 
Q 384 513 384 1019 
Q 384 1609 779 1909 
Q 1175 2209 1959 2209 
L 2766 2209 
L 2766 2266 
Q 2766 2663 2505 2880 
Q 2244 3097 1772 3097 
Q 1472 3097 1187 3025 
Q 903 2953 641 2809 
L 641 3341 
Q 956 3463 1253 3523 
Q 1550 3584 1831 3584 
Q 2591 3584 2966 3190 
Q 3341 2797 3341 1997 
z
" transform="scale(0.015625)"/>
       <path id="DejaVuSans-70" d="M 1159 525 
L 1159 -1331 
L 581 -1331 
L 581 3500 
L 1159 3500 
L 1159 2969 
Q 1341 3281 1617 3432 
Q 1894 3584 2278 3584 
Q 2916 3584 3314 3078 
Q 3713 2572 3713 1747 
Q 3713 922 3314 415 
Q 2916 -91 2278 -91 
Q 1894 -91 1617 61 
Q 1341 213 1159 525 
z
M 3116 1747 
Q 3116 2381 2855 2742 
Q 2594 3103 2138 3103 
Q 1681 3103 1420 2742 
Q 1159 2381 1159 1747 
Q 1159 1113 1420 752 
Q 1681 391 2138 391 
Q 2594 391 2855 752 
Q 3116 1113 3116 1747 
z
" transform="scale(0.015625)"/>
       <path id="DejaVuSans-2d" d="M 313 2009 
L 1997 2009 
L 1997 1497 
L 313 1497 
L 313 2009 
z
" transform="scale(0.015625)"/>
       <path id="DejaVuSans-6f" d="M 1959 3097 
Q 1497 3097 1228 2736 
Q 959 2375 959 1747 
Q 959 1119 1226 758 
Q 1494 397 1959 397 
Q 2419 397 2687 759 
Q 2956 1122 2956 1747 
Q 2956 2369 2687 2733 
Q 2419 3097 1959 3097 
z
M 1959 3584 
Q 2709 3584 3137 3096 
Q 3566 2609 3566 1747 
Q 3566 888 3137 398 
Q 2709 -91 1959 -91 
Q 1206 -91 779 398 
Q 353 888 353 1747 
Q 353 2609 779 3096 
Q 1206 3584 1959 3584 
z
" transform="scale(0.015625)"/>
       <path id="DejaVuSans-79" d="M 2059 -325 
Q 1816 -950 1584 -1140 
Q 1353 -1331 966 -1331 
L 506 -1331 
L 506 -850 
L 844 -850 
Q 1081 -850 1212 -737 
Q 1344 -625 1503 -206 
L 1606 56 
L 191 3500 
L 800 3500 
L 1894 763 
L 2988 3500 
L 3597 3500 
L 2059 -325 
z
" transform="scale(0.015625)"/>
      </defs>
      <use xlink:href="#DejaVuSans-39"/>
      <use xlink:href="#DejaVuSans-35" transform="translate(63.623047 0)"/>
      <use xlink:href="#DejaVuSans-25" transform="translate(127.246094 0)"/>
      <use xlink:href="#DejaVuSans-20" transform="translate(222.265625 0)"/>
      <use xlink:href="#DejaVuSans-43" transform="translate(254.052734 0)"/>
      <use xlink:href="#DejaVuSans-72" transform="translate(323.876953 0)"/>
      <use xlink:href="#DejaVuSans-65" transform="translate(362.740234 0)"/>
      <use xlink:href="#DejaVuSans-64" transform="translate(424.263672 0)"/>
      <use xlink:href="#DejaVuSans-69" transform="translate(487.740234 0)"/>
      <use xlink:href="#DejaVuSans-62" transform="translate(515.523438 0)"/>
      <use xlink:href="#DejaVuSans-6c" transform="translate(579 0)"/>
      <use xlink:href="#DejaVuSans-65" transform="translate(606.783203 0)"/>
      <use xlink:href="#DejaVuSans-20" transform="translate(668.306641 0)"/>
      <use xlink:href="#DejaVuSans-49" transform="translate(700.09375 0)"/>
      <use xlink:href="#DejaVuSans-6e" transform="translate(729.585938 0)"/>
      <use xlink:href="#DejaVuSans-74" transform="translate(792.964844 0)"/>
      <use xlink:href="#DejaVuSans-65" transform="translate(832.173828 0)"/>
      <use xlink:href="#DejaVuSans-72" transform="translate(893.697266 0)"/>
      <use xlink:href="#DejaVuSans-76" transform="translate(934.810547 0)"/>
      <use xlink:href="#DejaVuSans-61" transform="translate(993.990234 0)"/>
      <use xlink:href="#DejaVuSans-6c" transform="translate(1055.269531 0)"/>
      <use xlink:href="#DejaVuSans-20" transform="translate(1083.052734 0)"/>
      <use xlink:href="#DejaVuSans-28" transform="translate(1114.839844 0)"/>
      <use xlink:href="#DejaVuSans-70" transform="translate(1153.853516 0)"/>
      <use xlink:href="#DejaVuSans-61" transform="translate(1217.330078 0)"/>
      <use xlink:href="#DejaVuSans-72" transform="translate(1278.609375 0)"/>
      <use xlink:href="#DejaVuSans-61" transform="translate(1319.722656 0)"/>
      <use xlink:href="#DejaVuSans-6d" transform="translate(1381.001953 0)"/>
      <use xlink:href="#DejaVuSans-65" transform="translate(1478.414062 0)"/>
      <use xlink:href="#DejaVuSans-74" transform="translate(1539.9375 0)"/>
      <use xlink:href="#DejaVuSans-65" transform="translate(1579.146484 0)"/>
      <use xlink:href="#DejaVuSans-72" transform="translate(1640.669922 0)"/>
      <use xlink:href="#DejaVuSans-2d" transform="translate(1675.408203 0)"/>
      <use xlink:href="#DejaVuSans-6f" transform="translate(1713.367188 0)"/>
      <use xlink:href="#DejaVuSans-6e" transform="translate(1774.548828 0)"/>
      <use xlink:href="#DejaVuSans-6c" transform="translate(1837.927734 0)"/>
      <use xlink:href="#DejaVuSans-79" transform="translate(1865.710938 0)"/>
      <use xlink:href="#DejaVuSans-29" transform="translate(1924.890625 0)"/>
     </g>
    </g>
    <g id="line2d_30">
     <path d="M 216.60625 38.576563 
L 226.60625 38.576563 
L 236.60625 38.576563 
" style="fill: none; stroke: #1f77b4; stroke-width: 1.5; stroke-linecap: square"/>
    </g>
    <g id="text_15">
     <!-- Logarithmic (median) -->
     <g transform="translate(244.60625 42.076563) scale(0.1 -0.1)">
      <defs>
       <path id="DejaVuSans-4c" d="M 628 4666 
L 1259 4666 
L 1259 531 
L 3531 531 
L 3531 0 
L 628 0 
L 628 4666 
z
" transform="scale(0.015625)"/>
       <path id="DejaVuSans-67" d="M 2906 1791 
Q 2906 2416 2648 2759 
Q 2391 3103 1925 3103 
Q 1463 3103 1205 2759 
Q 947 2416 947 1791 
Q 947 1169 1205 825 
Q 1463 481 1925 481 
Q 2391 481 2648 825 
Q 2906 1169 2906 1791 
z
M 3481 434 
Q 3481 -459 3084 -895 
Q 2688 -1331 1869 -1331 
Q 1566 -1331 1297 -1286 
Q 1028 -1241 775 -1147 
L 775 -588 
Q 1028 -725 1275 -790 
Q 1522 -856 1778 -856 
Q 2344 -856 2625 -561 
Q 2906 -266 2906 331 
L 2906 616 
Q 2728 306 2450 153 
Q 2172 0 1784 0 
Q 1141 0 747 490 
Q 353 981 353 1791 
Q 353 2603 747 3093 
Q 1141 3584 1784 3584 
Q 2172 3584 2450 3431 
Q 2728 3278 2906 2969 
L 2906 3500 
L 3481 3500 
L 3481 434 
z
" transform="scale(0.015625)"/>
       <path id="DejaVuSans-68" d="M 3513 2113 
L 3513 0 
L 2938 0 
L 2938 2094 
Q 2938 2591 2744 2837 
Q 2550 3084 2163 3084 
Q 1697 3084 1428 2787 
Q 1159 2491 1159 1978 
L 1159 0 
L 581 0 
L 581 4863 
L 1159 4863 
L 1159 2956 
Q 1366 3272 1645 3428 
Q 1925 3584 2291 3584 
Q 2894 3584 3203 3211 
Q 3513 2838 3513 2113 
z
" transform="scale(0.015625)"/>
       <path id="DejaVuSans-63" d="M 3122 3366 
L 3122 2828 
Q 2878 2963 2633 3030 
Q 2388 3097 2138 3097 
Q 1578 3097 1268 2742 
Q 959 2388 959 1747 
Q 959 1106 1268 751 
Q 1578 397 2138 397 
Q 2388 397 2633 464 
Q 2878 531 3122 666 
L 3122 134 
Q 2881 22 2623 -34 
Q 2366 -91 2075 -91 
Q 1284 -91 818 406 
Q 353 903 353 1747 
Q 353 2603 823 3093 
Q 1294 3584 2113 3584 
Q 2378 3584 2631 3529 
Q 2884 3475 3122 3366 
z
" transform="scale(0.015625)"/>
      </defs>
      <use xlink:href="#DejaVuSans-4c"/>
      <use xlink:href="#DejaVuSans-6f" transform="translate(53.962891 0)"/>
      <use xlink:href="#DejaVuSans-67" transform="translate(115.144531 0)"/>
      <use xlink:href="#DejaVuSans-61" transform="translate(178.621094 0)"/>
      <use xlink:href="#DejaVuSans-72" transform="translate(239.900391 0)"/>
      <use xlink:href="#DejaVuSans-69" transform="translate(281.013672 0)"/>
      <use xlink:href="#DejaVuSans-74" transform="translate(308.796875 0)"/>
      <use xlink:href="#DejaVuSans-68" transform="translate(348.005859 0)"/>
      <use xlink:href="#DejaVuSans-6d" transform="translate(411.384766 0)"/>
      <use xlink:href="#DejaVuSans-69" transform="translate(508.796875 0)"/>
      <use xlink:href="#DejaVuSans-63" transform="translate(536.580078 0)"/>
      <use xlink:href="#DejaVuSans-20" transform="translate(591.560547 0)"/>
      <use xlink:href="#DejaVuSans-28" transform="translate(623.347656 0)"/>
      <use xlink:href="#DejaVuSans-6d" transform="translate(662.361328 0)"/>
      <use xlink:href="#DejaVuSans-65" transform="translate(759.773438 0)"/>
      <use xlink:href="#DejaVuSans-64" transform="translate(821.296875 0)"/>
      <use xlink:href="#DejaVuSans-69" transform="translate(884.773438 0)"/>
      <use xlink:href="#DejaVuSans-61" transform="translate(912.556641 0)"/>
      <use xlink:href="#DejaVuSans-6e" transform="translate(973.835938 0)"/>
      <use xlink:href="#DejaVuSans-29" transform="translate(1037.214844 0)"/>
     </g>
    </g>
    <g id="line2d_31">
     <path d="M 216.60625 53.254687 
L 226.60625 53.254687 
L 236.60625 53.254687 
" style="fill: none; stroke-dasharray: 7.4,3.2; stroke-dashoffset: 0; stroke: #000000; stroke-width: 2"/>
    </g>
    <g id="text_16">
     <!-- Ulamec (2007) - Truth -->
     <g transform="translate(244.60625 56.754687) scale(0.1 -0.1)">
      <defs>
       <path id="DejaVuSans-55" d="M 556 4666 
L 1191 4666 
L 1191 1831 
Q 1191 1081 1462 751 
Q 1734 422 2344 422 
Q 2950 422 3222 751 
Q 3494 1081 3494 1831 
L 3494 4666 
L 4128 4666 
L 4128 1753 
Q 4128 841 3676 375 
Q 3225 -91 2344 -91 
Q 1459 -91 1007 375 
Q 556 841 556 1753 
L 556 4666 
z
" transform="scale(0.015625)"/>
       <path id="DejaVuSans-54" d="M -19 4666 
L 3928 4666 
L 3928 4134 
L 2272 4134 
L 2272 0 
L 1638 0 
L 1638 4134 
L -19 4134 
L -19 4666 
z
" transform="scale(0.015625)"/>
       <path id="DejaVuSans-75" d="M 544 1381 
L 544 3500 
L 1119 3500 
L 1119 1403 
Q 1119 906 1312 657 
Q 1506 409 1894 409 
Q 2359 409 2629 706 
Q 2900 1003 2900 1516 
L 2900 3500 
L 3475 3500 
L 3475 0 
L 2900 0 
L 2900 538 
Q 2691 219 2414 64 
Q 2138 -91 1772 -91 
Q 1169 -91 856 284 
Q 544 659 544 1381 
z
M 1991 3584 
L 1991 3584 
z
" transform="scale(0.015625)"/>
      </defs>
      <use xlink:href="#DejaVuSans-55"/>
      <use xlink:href="#DejaVuSans-6c" transform="translate(73.193359 0)"/>
      <use xlink:href="#DejaVuSans-61" transform="translate(100.976562 0)"/>
      <use xlink:href="#DejaVuSans-6d" transform="translate(162.255859 0)"/>
      <use xlink:href="#DejaVuSans-65" transform="translate(259.667969 0)"/>
      <use xlink:href="#DejaVuSans-63" transform="translate(321.191406 0)"/>
      <use xlink:href="#DejaVuSans-20" transform="translate(376.171875 0)"/>
      <use xlink:href="#DejaVuSans-28" transform="translate(407.958984 0)"/>
      <use xlink:href="#DejaVuSans-32" transform="translate(446.972656 0)"/>
      <use xlink:href="#DejaVuSans-30" transform="translate(510.595703 0)"/>
      <use xlink:href="#DejaVuSans-30" transform="translate(574.21875 0)"/>
      <use xlink:href="#DejaVuSans-37" transform="translate(637.841797 0)"/>
      <use xlink:href="#DejaVuSans-29" transform="translate(701.464844 0)"/>
      <use xlink:href="#DejaVuSans-20" transform="translate(740.478516 0)"/>
      <use xlink:href="#DejaVuSans-2d" transform="translate(772.265625 0)"/>
      <use xlink:href="#DejaVuSans-20" transform="translate(808.349609 0)"/>
      <use xlink:href="#DejaVuSans-54" transform="translate(840.136719 0)"/>
      <use xlink:href="#DejaVuSans-72" transform="translate(886.470703 0)"/>
      <use xlink:href="#DejaVuSans-75" transform="translate(927.583984 0)"/>
      <use xlink:href="#DejaVuSans-74" transform="translate(990.962891 0)"/>
      <use xlink:href="#DejaVuSans-68" transform="translate(1030.171875 0)"/>
     </g>
    </g>
   </g>
  </g>
 </g>
 <defs>
  <clipPath id="pf7021a4c6a">
   <rect x="59.984054" y="10.8" width="390.015946" height="291.4"/>
  </clipPath>
 </defs>
</svg>
