<?xml version="1.0" encoding="utf-8" standalone="no"?>
<!DOCTYPE svg PUBLIC "-//W3C//DTD SVG 1.1//EN"
  "http://www.w3.org/Graphics/SVG/1.1/DTD/svg11.dtd">
<svg xmlns:xlink="http://www.w3.org/1999/xlink" width="460.8pt" height="345.6pt" viewBox="0 0 460.8 345.6" xmlns="http://www.w3.org/2000/svg" version="1.1">
 <metadata>
  <rdf:RDF xmlns:dc="http://purl.org/dc/elements/1.1/" xmlns:cc="http://creativecommons.org/ns#" xmlns:rdf="http://www.w3.org/1999/02/22-rdf-syntax-ns#">
   <cc:Work>
    <dc:type rdf:resource="http://purl.org/dc/dcmitype/StillImage"/>
    <dc:date>2026-02-12T00:50:33.668501</dc:date>
    <dc:format>image/svg+xml</dc:format>
    <dc:creator>
     <cc:Agent>
      <dc:title>Matplotlib v3.10.8, https://matplotlib.org/</dc:title>
     </cc:Agent>
    </dc:creator>
   </cc:Work>
  </rdf:RDF>
 </metadata>
 <defs>
  <style type="text/css">*{stroke-linejoin: round; stroke-linecap: butt}</style>
 </defs>
 <g id="figure_1">
  <g id="patch_1">
   <path d="M 0 345.6 
L 460.8 345.6 
L 460.8 0 
L 0 0 
L 0 345.6 
z
" style="fill: none"/>
  </g>
  <g id="axes_1">
   <g id="patch_2">
    <path d="M 47.018 302.2 
L 450 302.2 
L 450 10.8 
L 47.018 10.8 
L 47.018 302.2 
z
" style="fill: none"/>
   </g>
   <g id="FillBetweenPolyCollection_1">
    <path d="M 65.335364 219.678265 
L 65.335364 286.252194 
L 72.811839 287.031885 
L 80.288314 287.112094 
L 87.764788 285.929949 
L 95.241263 285.954366 
L 102.717738 286.701399 
L 110.194213 286.741934 
L 117.670688 287.489592 
L 125.147163 287.490768 
L 132.623638 287.110007 
L 140.100113 287.178622 
L 147.576588 287.065704 
L 155.053063 287.254795 
L 162.529538 286.634282 
L 170.006013 286.576151 
L 177.482488 286.242004 
L 184.958963 287.212938 
L 192.435438 287.468377 
L 199.911913 287.395018 
L 207.388388 286.40411 
L 214.864863 287.292576 
L 222.341338 288.15519 
L 229.817813 286.753197 
L 237.294288 287.010719 
L 244.770763 285.623467 
L 252.247237 286.806112 
L 259.723712 287.128502 
L 267.200187 287.582683 
L 274.676662 286.613264 
L 282.153137 286.869973 
L 289.629612 286.577826 
L 297.106087 286.779789 
L 304.582562 287.088594 
L 312.059037 285.512854 
L 319.535512 286.763078 
L 327.011987 286.150876 
L 334.488462 286.626983 
L 341.964937 287.976846 
L 349.441412 285.231928 
L 356.917887 287.886775 
L 364.394362 288.07117 
L 371.870837 285.754789 
L 379.347312 287.363533 
L 386.823787 286.273552 
L 394.300262 286.481416 
L 401.776737 286.103675 
L 409.253212 286.194298 
L 416.729686 286.26807 
L 424.206161 287.012979 
L 431.682636 285.568046 
L 431.682636 219.946398 
L 431.682636 219.946398 
L 424.206161 220.389714 
L 416.729686 220.595423 
L 409.253212 219.351335 
L 401.776737 219.936952 
L 394.300262 219.201149 
L 386.823787 219.588202 
L 379.347312 221.709145 
L 371.870837 219.80175 
L 364.394362 219.462949 
L 356.917887 219.518335 
L 349.441412 219.557741 
L 341.964937 220.200882 
L 334.488462 218.784221 
L 327.011987 220.480393 
L 319.535512 220.362503 
L 312.059037 219.700946 
L 304.582562 220.706212 
L 297.106087 219.982311 
L 289.629612 220.026593 
L 282.153137 219.234986 
L 274.676662 219.145951 
L 267.200187 219.583385 
L 259.723712 220.413354 
L 252.247237 219.963831 
L 244.770763 219.102914 
L 237.294288 220.531913 
L 229.817813 220.561349 
L 222.341338 219.490941 
L 214.864863 220.293823 
L 207.388388 220.56168 
L 199.911913 219.464413 
L 192.435438 220.019483 
L 184.958963 220.207584 
L 177.482488 219.990854 
L 170.006013 220.092898 
L 162.529538 219.869478 
L 155.053063 220.772358 
L 147.576588 220.031677 
L 140.100113 220.41297 
L 132.623638 220.42312 
L 125.147163 219.005408 
L 117.670688 219.675299 
L 110.194213 220.585085 
L 102.717738 219.935479 
L 95.241263 220.348392 
L 87.764788 220.21139 
L 80.288314 220.579452 
L 72.811839 219.981731 
L 65.335364 219.678265 
z
" clip-path="url(#pc5c74f0291)" style="fill: #1f77b4; fill-opacity: 0.45"/>
   </g>
   <g id="PathCollection_1">
    <defs>
     <path id="m749c2cef61" d="M 0 2.12132 
C 0.562581 2.12132 1.102195 1.897805 1.5 1.5 
C 1.897805 1.102195 2.12132 0.562581 2.12132 0 
C 2.12132 -0.562581 1.897805 -1.102195 1.5 -1.5 
C 1.102195 -1.897805 0.562581 -2.12132 0 -2.12132 
C -0.562581 -2.12132 -1.102195 -1.897805 -1.5 -1.5 
C -1.897805 -1.102195 -2.12132 -0.562581 -2.12132 0 
C -2.12132 0.562581 -1.897805 1.102195 -1.5 1.5 
C -1.102195 1.897805 -0.562581 2.12132 0 2.12132 
z
" style="stroke: #000000; stroke-opacity: 0.7"/>
    </defs>
    <g clip-path="url(#pc5c74f0291)">
     <use xlink:href="#m749c2cef61" x="65.335364" y="201.923365" style="fill-opacity: 0.7; stroke: #000000; stroke-opacity: 0.7"/>
     <use xlink:href="#m749c2cef61" x="98.639661" y="164.08896" style="fill-opacity: 0.7; stroke: #000000; stroke-opacity: 0.7"/>
     <use xlink:href="#m749c2cef61" x="135.644436" y="136.238479" style="fill-opacity: 0.7; stroke: #000000; stroke-opacity: 0.7"/>
     <use xlink:href="#m749c2cef61" x="172.649211" y="116.708649" style="fill-opacity: 0.7; stroke: #000000; stroke-opacity: 0.7"/>
     <use xlink:href="#m749c2cef61" x="209.653986" y="96.786387" style="fill-opacity: 0.7; stroke: #000000; stroke-opacity: 0.7"/>
     <use xlink:href="#m749c2cef61" x="246.658761" y="82.139368" style="fill-opacity: 0.7; stroke: #000000; stroke-opacity: 0.7"/>
     <use xlink:href="#m749c2cef61" x="283.663536" y="69.542561" style="fill-opacity: 0.7; stroke: #000000; stroke-opacity: 0.7"/>
     <use xlink:href="#m749c2cef61" x="320.668311" y="56.487596" style="fill-opacity: 0.7; stroke: #000000; stroke-opacity: 0.7"/>
     <use xlink:href="#m749c2cef61" x="357.673086" y="45.333669" style="fill-opacity: 0.7; stroke: #000000; stroke-opacity: 0.7"/>
     <use xlink:href="#m749c2cef61" x="394.677861" y="35.126716" style="fill-opacity: 0.7; stroke: #000000; stroke-opacity: 0.7"/>
     <use xlink:href="#m749c2cef61" x="431.682636" y="24.045455" style="fill-opacity: 0.7; stroke: #000000; stroke-opacity: 0.7"/>
    </g>
   </g>
   <g id="FillBetweenPolyCollection_2">
    <path d="M 65.335364 221.625984 
L 65.335364 286.659438 
L 72.811839 286.866955 
L 80.288314 287.221673 
L 87.764788 286.090782 
L 95.241263 287.800047 
L 102.717738 286.432696 
L 110.194213 286.859896 
L 117.670688 286.825423 
L 125.147163 286.732245 
L 132.623638 286.492778 
L 140.100113 285.628357 
L 147.576588 288.039916 
L 155.053063 287.949414 
L 162.529538 286.064561 
L 170.006013 287.023467 
L 177.482488 286.680006 
L 184.958963 285.598972 
L 192.435438 288.249587 
L 199.911913 286.297354 
L 207.388388 287.02857 
L 214.864863 286.443994 
L 222.341338 287.197979 
L 229.817813 287.053466 
L 237.294288 285.813712 
L 244.770763 287.526329 
L 252.247237 287.33642 
L 259.723712 286.584733 
L 267.200187 285.193308 
L 274.676662 285.779557 
L 282.153137 286.022907 
L 289.629612 285.095652 
L 297.106087 286.857557 
L 304.582562 288.507627 
L 312.059037 286.927573 
L 319.535512 285.92061 
L 327.011987 287.267955 
L 334.488462 286.746232 
L 341.964937 286.825336 
L 349.441412 286.90072 
L 356.917887 287.848733 
L 364.394362 286.351514 
L 371.870837 287.028979 
L 379.347312 287.749614 
L 386.823787 286.000716 
L 394.300262 286.22267 
L 401.776737 285.635642 
L 409.253212 286.117716 
L 416.729686 286.415853 
L 424.206161 286.479103 
L 431.682636 287.441353 
L 431.682636 220.009886 
L 431.682636 220.009886 
L 424.206161 219.656403 
L 416.729686 220.096061 
L 409.253212 220.739243 
L 401.776737 220.174487 
L 394.300262 219.313406 
L 386.823787 219.744361 
L 379.347312 220.566125 
L 371.870837 219.833667 
L 364.394362 220.81174 
L 356.917887 220.455243 
L 349.441412 219.838645 
L 341.964937 219.147636 
L 334.488462 219.951894 
L 327.011987 220.780916 
L 319.535512 220.221951 
L 312.059037 220.701749 
L 304.582562 220.250066 
L 297.106087 219.083307 
L 289.629612 219.791327 
L 282.153137 219.623508 
L 274.676662 220.234271 
L 267.200187 219.062717 
L 259.723712 219.635927 
L 252.247237 220.011614 
L 244.770763 220.498675 
L 237.294288 219.406723 
L 229.817813 219.916078 
L 222.341338 220.119514 
L 214.864863 220.12562 
L 207.388388 220.843518 
L 199.911913 219.489571 
L 192.435438 221.77096 
L 184.958963 219.619086 
L 177.482488 218.756833 
L 170.006013 220.648623 
L 162.529538 220.694885 
L 155.053063 220.865083 
L 147.576588 220.660399 
L 140.100113 219.793818 
L 132.623638 219.085549 
L 125.147163 219.580982 
L 117.670688 220.663324 
L 110.194213 221.468163 
L 102.717738 219.90822 
L 95.241263 220.433265 
L 87.764788 220.451615 
L 80.288314 219.973676 
L 72.811839 219.503653 
L 65.335364 221.625984 
z
" clip-path="url(#pc5c74f0291)" style="fill: #ff7f0e; fill-opacity: 0.45"/>
   </g>
   <g id="PathCollection_2">
    <g clip-path="url(#pc5c74f0291)">
     <use xlink:href="#m749c2cef61" x="65.335364" y="225.204809" style="fill-opacity: 0.7; stroke: #000000; stroke-opacity: 0.7"/>
     <use xlink:href="#m749c2cef61" x="98.639661" y="189.959365" style="fill-opacity: 0.7; stroke: #000000; stroke-opacity: 0.7"/>
     <use xlink:href="#m749c2cef61" x="135.644436" y="166.965546" style="fill-opacity: 0.7; stroke: #000000; stroke-opacity: 0.7"/>
     <use xlink:href="#m749c2cef61" x="172.649211" y="148.79881" style="fill-opacity: 0.7; stroke: #000000; stroke-opacity: 0.7"/>
     <use xlink:href="#m749c2cef61" x="209.653986" y="134.699781" style="fill-opacity: 0.7; stroke: #000000; stroke-opacity: 0.7"/>
     <use xlink:href="#m749c2cef61" x="246.658761" y="121.68326" style="fill-opacity: 0.7; stroke: #000000; stroke-opacity: 0.7"/>
     <use xlink:href="#m749c2cef61" x="283.663536" y="111.075258" style="fill-opacity: 0.7; stroke: #000000; stroke-opacity: 0.7"/>
     <use xlink:href="#m749c2cef61" x="320.668311" y="100.244954" style="fill-opacity: 0.7; stroke: #000000; stroke-opacity: 0.7"/>
     <use xlink:href="#m749c2cef61" x="357.673086" y="91.267028" style="fill-opacity: 0.7; stroke: #000000; stroke-opacity: 0.7"/>
     <use xlink:href="#m749c2cef61" x="394.677861" y="81.17479" style="fill-opacity: 0.7; stroke: #000000; stroke-opacity: 0.7"/>
     <use xlink:href="#m749c2cef61" x="431.682636" y="73.087722" style="fill-opacity: 0.7; stroke: #000000; stroke-opacity: 0.7"/>
    </g>
   </g>
   <g id="FillBetweenPolyCollection_3">
    <path d="M 65.335364 220.379313 
L 65.335364 287.04909 
L 72.811839 286.650614 
L 80.288314 287.396347 
L 87.764788 285.956485 
L 95.241263 288.030006 
L 102.717738 286.473143 
L 110.194213 287.210418 
L 117.670688 286.99308 
L 125.147163 286.331567 
L 132.623638 287.494748 
L 140.100113 286.301892 
L 147.576588 287.913869 
L 155.053063 286.65472 
L 162.529538 287.928789 
L 170.006013 286.593323 
L 177.482488 287.196767 
L 184.958963 287.342033 
L 192.435438 287.450225 
L 199.911913 286.96628 
L 207.388388 286.403072 
L 214.864863 286.494892 
L 222.341338 287.435306 
L 229.817813 286.920086 
L 237.294288 286.014389 
L 244.770763 286.728635 
L 252.247237 285.466088 
L 259.723712 286.087397 
L 267.200187 285.662308 
L 274.676662 285.644158 
L 282.153137 287.555886 
L 289.629612 287.614768 
L 297.106087 286.923346 
L 304.582562 287.469797 
L 312.059037 287.046871 
L 319.535512 287.479253 
L 327.011987 286.599631 
L 334.488462 286.689108 
L 341.964937 288.954545 
L 349.441412 286.889296 
L 356.917887 285.858964 
L 364.394362 286.968308 
L 371.870837 286.636125 
L 379.347312 285.404589 
L 386.823787 286.849867 
L 394.300262 286.478373 
L 401.776737 287.239841 
L 409.253212 285.715704 
L 416.729686 287.228812 
L 424.206161 286.853755 
L 431.682636 284.86497 
L 431.682636 219.132193 
L 431.682636 219.132193 
L 424.206161 221.062766 
L 416.729686 220.839211 
L 409.253212 220.07982 
L 401.776737 220.876941 
L 394.300262 220.062336 
L 386.823787 219.555639 
L 379.347312 221.271142 
L 371.870837 220.598157 
L 364.394362 219.113105 
L 356.917887 221.462957 
L 349.441412 220.207778 
L 341.964937 220.602913 
L 334.488462 219.846198 
L 327.011987 220.57223 
L 319.535512 218.912945 
L 312.059037 219.885118 
L 304.582562 220.334034 
L 297.106087 219.966965 
L 289.629612 220.383522 
L 282.153137 220.022639 
L 274.676662 220.504606 
L 267.200187 219.863425 
L 259.723712 220.010392 
L 252.247237 219.538599 
L 244.770763 220.23187 
L 237.294288 219.890118 
L 229.817813 219.964137 
L 222.341338 220.352619 
L 214.864863 220.573312 
L 207.388388 220.285172 
L 199.911913 220.441612 
L 192.435438 219.46927 
L 184.958963 219.226763 
L 177.482488 218.597258 
L 170.006013 219.51358 
L 162.529538 221.614705 
L 155.053063 219.748878 
L 147.576588 219.578101 
L 140.100113 219.167666 
L 132.623638 219.990831 
L 125.147163 220.035373 
L 117.670688 219.491076 
L 110.194213 219.737877 
L 102.717738 220.572892 
L 95.241263 221.156142 
L 87.764788 221.366081 
L 80.288314 219.911583 
L 72.811839 221.018094 
L 65.335364 220.379313 
z
" clip-path="url(#pc5c74f0291)" style="fill: #2ca02c; fill-opacity: 0.45"/>
   </g>
   <g id="PathCollection_3">
    <g clip-path="url(#pc5c74f0291)">
     <use xlink:href="#m749c2cef61" x="65.335364" y="240.760727" style="fill-opacity: 0.7; stroke: #000000; stroke-opacity: 0.7"/>
     <use xlink:href="#m749c2cef61" x="98.639661" y="209.642844" style="fill-opacity: 0.7; stroke: #000000; stroke-opacity: 0.7"/>
     <use xlink:href="#m749c2cef61" x="135.644436" y="191.164953" style="fill-opacity: 0.7; stroke: #000000; stroke-opacity: 0.7"/>
     <use xlink:href="#m749c2cef61" x="172.649211" y="175.561447" style="fill-opacity: 0.7; stroke: #000000; stroke-opacity: 0.7"/>
     <use xlink:href="#m749c2cef61" x="209.653986" y="162.718083" style="fill-opacity: 0.7; stroke: #000000; stroke-opacity: 0.7"/>
     <use xlink:href="#m749c2cef61" x="246.658761" y="154.510653" style="fill-opacity: 0.7; stroke: #000000; stroke-opacity: 0.7"/>
     <use xlink:href="#m749c2cef61" x="283.663536" y="145.108675" style="fill-opacity: 0.7; stroke: #000000; stroke-opacity: 0.7"/>
     <use xlink:href="#m749c2cef61" x="320.668311" y="136.307044" style="fill-opacity: 0.7; stroke: #000000; stroke-opacity: 0.7"/>
     <use xlink:href="#m749c2cef61" x="357.673086" y="126.802071" style="fill-opacity: 0.7; stroke: #000000; stroke-opacity: 0.7"/>
     <use xlink:href="#m749c2cef61" x="394.677861" y="119.723414" style="fill-opacity: 0.7; stroke: #000000; stroke-opacity: 0.7"/>
     <use xlink:href="#m749c2cef61" x="431.682636" y="112.026283" style="fill-opacity: 0.7; stroke: #000000; stroke-opacity: 0.7"/>
    </g>
   </g>
   <g id="FillBetweenPolyCollection_4">
    <path d="M 65.335364 220.021378 
L 65.335364 286.390046 
L 72.811839 286.240667 
L 80.288314 286.049247 
L 87.764788 287.363517 
L 95.241263 287.717206 
L 102.717738 286.059723 
L 110.194213 285.674854 
L 117.670688 287.565389 
L 125.147163 286.256445 
L 132.623638 286.852572 
L 140.100113 287.652058 
L 147.576588 288.553149 
L 155.053063 287.459082 
L 162.529538 287.176439 
L 170.006013 286.86672 
L 177.482488 287.92885 
L 184.958963 286.474685 
L 192.435438 286.59848 
L 199.911913 286.175512 
L 207.388388 288.248978 
L 214.864863 287.523008 
L 222.341338 287.079854 
L 229.817813 286.738091 
L 237.294288 286.944747 
L 244.770763 286.456698 
L 252.247237 286.49717 
L 259.723712 287.140238 
L 267.200187 287.392645 
L 274.676662 286.991584 
L 282.153137 286.96556 
L 289.629612 286.815368 
L 297.106087 287.20849 
L 304.582562 287.219642 
L 312.059037 286.013394 
L 319.535512 286.5038 
L 327.011987 285.721011 
L 334.488462 286.6192 
L 341.964937 286.162638 
L 349.441412 287.558437 
L 356.917887 286.883505 
L 364.394362 286.388869 
L 371.870837 287.265661 
L 379.347312 286.473795 
L 386.823787 286.943419 
L 394.300262 286.526443 
L 401.776737 285.998311 
L 409.253212 287.695089 
L 416.729686 286.636333 
L 424.206161 287.351685 
L 431.682636 286.793449 
L 431.682636 220.309619 
L 431.682636 220.309619 
L 424.206161 220.777481 
L 416.729686 220.108304 
L 409.253212 220.148768 
L 401.776737 220.545977 
L 394.300262 220.814105 
L 386.823787 220.571419 
L 379.347312 220.276391 
L 371.870837 220.528807 
L 364.394362 220.993735 
L 356.917887 219.732115 
L 349.441412 219.480893 
L 341.964937 220.322791 
L 334.488462 220.605061 
L 327.011987 219.990271 
L 319.535512 220.961094 
L 312.059037 218.758347 
L 304.582562 220.609026 
L 297.106087 220.101276 
L 289.629612 218.805156 
L 282.153137 221.010102 
L 274.676662 219.941744 
L 267.200187 220.669318 
L 259.723712 220.120931 
L 252.247237 220.127118 
L 244.770763 218.752353 
L 237.294288 219.102046 
L 229.817813 219.795028 
L 222.341338 219.416187 
L 214.864863 218.775557 
L 207.388388 219.566918 
L 199.911913 220.894909 
L 192.435438 219.295925 
L 184.958963 220.57921 
L 177.482488 220.438217 
L 170.006013 220.849935 
L 162.529538 220.312995 
L 155.053063 219.914398 
L 147.576588 219.430499 
L 140.100113 220.934217 
L 132.623638 220.929544 
L 125.147163 219.863248 
L 117.670688 218.704283 
L 110.194213 220.287596 
L 102.717738 220.58427 
L 95.241263 221.447191 
L 87.764788 220.263347 
L 80.288314 219.988443 
L 72.811839 219.107523 
L 65.335364 220.021378 
z
" clip-path="url(#pc5c74f0291)" style="fill: #d62728; fill-opacity: 0.45"/>
   </g>
   <g id="PathCollection_4">
    <g clip-path="url(#pc5c74f0291)">
     <use xlink:href="#m749c2cef61" x="65.335364" y="252.488689" style="fill-opacity: 0.7; stroke: #000000; stroke-opacity: 0.7"/>
     <use xlink:href="#m749c2cef61" x="98.639661" y="226.286178" style="fill-opacity: 0.7; stroke: #000000; stroke-opacity: 0.7"/>
     <use xlink:href="#m749c2cef61" x="135.644436" y="210.304227" style="fill-opacity: 0.7; stroke: #000000; stroke-opacity: 0.7"/>
     <use xlink:href="#m749c2cef61" x="172.649211" y="198.657023" style="fill-opacity: 0.7; stroke: #000000; stroke-opacity: 0.7"/>
     <use xlink:href="#m749c2cef61" x="209.653986" y="188.071072" style="fill-opacity: 0.7; stroke: #000000; stroke-opacity: 0.7"/>
     <use xlink:href="#m749c2cef61" x="246.658761" y="180.638077" style="fill-opacity: 0.7; stroke: #000000; stroke-opacity: 0.7"/>
     <use xlink:href="#m749c2cef61" x="283.663536" y="172.384175" style="fill-opacity: 0.7; stroke: #000000; stroke-opacity: 0.7"/>
     <use xlink:href="#m749c2cef61" x="320.668311" y="164.813927" style="fill-opacity: 0.7; stroke: #000000; stroke-opacity: 0.7"/>
     <use xlink:href="#m749c2cef61" x="357.673086" y="157.19933" style="fill-opacity: 0.7; stroke: #000000; stroke-opacity: 0.7"/>
     <use xlink:href="#m749c2cef61" x="394.677861" y="152.589098" style="fill-opacity: 0.7; stroke: #000000; stroke-opacity: 0.7"/>
     <use xlink:href="#m749c2cef61" x="431.682636" y="146.91662" style="fill-opacity: 0.7; stroke: #000000; stroke-opacity: 0.7"/>
    </g>
   </g>
   <g id="FillBetweenPolyCollection_5">
    <path d="M 65.335364 219.754339 
L 65.335364 286.337478 
L 72.811839 287.8035 
L 80.288314 286.449921 
L 87.764788 285.611349 
L 95.241263 286.419023 
L 102.717738 286.679833 
L 110.194213 287.207715 
L 117.670688 286.601108 
L 125.147163 287.469709 
L 132.623638 286.954258 
L 140.100113 287.23153 
L 147.576588 287.21494 
L 155.053063 285.846327 
L 162.529538 286.971026 
L 170.006013 287.023351 
L 177.482488 288.008218 
L 184.958963 285.808111 
L 192.435438 286.519024 
L 199.911913 287.357527 
L 207.388388 286.751413 
L 214.864863 286.578335 
L 222.341338 287.376655 
L 229.817813 287.473768 
L 237.294288 287.005907 
L 244.770763 287.650135 
L 252.247237 286.038218 
L 259.723712 287.971237 
L 267.200187 287.084297 
L 274.676662 287.400249 
L 282.153137 287.350496 
L 289.629612 286.637615 
L 297.106087 286.105169 
L 304.582562 286.33193 
L 312.059037 286.164491 
L 319.535512 287.038501 
L 327.011987 286.166183 
L 334.488462 285.991406 
L 341.964937 286.30099 
L 349.441412 286.645523 
L 356.917887 286.32661 
L 364.394362 286.574086 
L 371.870837 286.063211 
L 379.347312 287.474994 
L 386.823787 286.518026 
L 394.300262 286.689055 
L 401.776737 286.609946 
L 409.253212 287.132696 
L 416.729686 286.444934 
L 424.206161 286.353242 
L 431.682636 287.101921 
L 431.682636 220.256962 
L 431.682636 220.256962 
L 424.206161 219.520565 
L 416.729686 220.046641 
L 409.253212 220.752991 
L 401.776737 219.363529 
L 394.300262 219.562791 
L 386.823787 219.697296 
L 379.347312 219.076102 
L 371.870837 219.810028 
L 364.394362 220.605462 
L 356.917887 220.423148 
L 349.441412 220.213856 
L 341.964937 221.16043 
L 334.488462 219.970373 
L 327.011987 220.053239 
L 319.535512 219.80517 
L 312.059037 219.645466 
L 304.582562 219.755057 
L 297.106087 219.3167 
L 289.629612 219.72447 
L 282.153137 219.109857 
L 274.676662 219.04747 
L 267.200187 220.073542 
L 259.723712 219.926086 
L 252.247237 218.545983 
L 244.770763 220.608133 
L 237.294288 220.086352 
L 229.817813 219.989583 
L 222.341338 220.679923 
L 214.864863 221.980974 
L 207.388388 219.607085 
L 199.911913 219.957649 
L 192.435438 220.51028 
L 184.958963 220.115437 
L 177.482488 220.575931 
L 170.006013 219.30671 
L 162.529538 219.784553 
L 155.053063 219.49546 
L 147.576588 219.229537 
L 140.100113 219.902155 
L 132.623638 220.458308 
L 125.147163 219.904797 
L 117.670688 220.396781 
L 110.194213 219.300137 
L 102.717738 220.820064 
L 95.241263 219.238552 
L 87.764788 219.835294 
L 80.288314 220.091819 
L 72.811839 219.686392 
L 65.335364 219.754339 
z
" clip-path="url(#pc5c74f0291)" style="fill: #9467bd; fill-opacity: 0.45"/>
   </g>
   <g id="PathCollection_5">
    <g clip-path="url(#pc5c74f0291)">
     <use xlink:href="#m749c2cef61" x="65.335364" y="262.712068" style="fill-opacity: 0.7; stroke: #000000; stroke-opacity: 0.7"/>
     <use xlink:href="#m749c2cef61" x="98.639661" y="239.790318" style="fill-opacity: 0.7; stroke: #000000; stroke-opacity: 0.7"/>
     <use xlink:href="#m749c2cef61" x="135.644436" y="227.667365" style="fill-opacity: 0.7; stroke: #000000; stroke-opacity: 0.7"/>
     <use xlink:href="#m749c2cef61" x="172.649211" y="217.033867" style="fill-opacity: 0.7; stroke: #000000; stroke-opacity: 0.7"/>
     <use xlink:href="#m749c2cef61" x="209.653986" y="210.991249" style="fill-opacity: 0.7; stroke: #000000; stroke-opacity: 0.7"/>
     <use xlink:href="#m749c2cef61" x="246.658761" y="202.071869" style="fill-opacity: 0.7; stroke: #000000; stroke-opacity: 0.7"/>
     <use xlink:href="#m749c2cef61" x="283.663536" y="195.799448" style="fill-opacity: 0.7; stroke: #000000; stroke-opacity: 0.7"/>
     <use xlink:href="#m749c2cef61" x="320.668311" y="191.537014" style="fill-opacity: 0.7; stroke: #000000; stroke-opacity: 0.7"/>
     <use xlink:href="#m749c2cef61" x="357.673086" y="185.168096" style="fill-opacity: 0.7; stroke: #000000; stroke-opacity: 0.7"/>
     <use xlink:href="#m749c2cef61" x="394.677861" y="179.457817" style="fill-opacity: 0.7; stroke: #000000; stroke-opacity: 0.7"/>
     <use xlink:href="#m749c2cef61" x="431.682636" y="175.402734" style="fill-opacity: 0.7; stroke: #000000; stroke-opacity: 0.7"/>
    </g>
   </g>
   <g id="FillBetweenPolyCollection_6">
    <path d="M 65.335364 219.310316 
L 65.335364 285.107977 
L 72.811839 287.501294 
L 80.288314 285.982246 
L 87.764788 286.112874 
L 95.241263 287.171758 
L 102.717738 286.017732 
L 110.194213 286.78628 
L 117.670688 286.918511 
L 125.147163 286.702169 
L 132.623638 286.407556 
L 140.100113 287.449565 
L 147.576588 287.786236 
L 155.053063 287.535368 
L 162.529538 286.616956 
L 170.006013 286.5834 
L 177.482488 286.090195 
L 184.958963 287.969652 
L 192.435438 287.336978 
L 199.911913 287.338104 
L 207.388388 288.144856 
L 214.864863 286.562741 
L 222.341338 286.58276 
L 229.817813 287.057155 
L 237.294288 286.946804 
L 244.770763 285.359819 
L 252.247237 287.226527 
L 259.723712 288.115672 
L 267.200187 286.934789 
L 274.676662 286.784471 
L 282.153137 287.070033 
L 289.629612 287.115732 
L 297.106087 286.348687 
L 304.582562 286.330775 
L 312.059037 286.864059 
L 319.535512 286.881552 
L 327.011987 286.669085 
L 334.488462 286.641853 
L 341.964937 287.065416 
L 349.441412 286.695785 
L 356.917887 286.677524 
L 364.394362 288.193972 
L 371.870837 286.14293 
L 379.347312 287.163932 
L 386.823787 286.402332 
L 394.300262 286.927447 
L 401.776737 285.656201 
L 409.253212 287.409621 
L 416.729686 286.131439 
L 424.206161 285.965568 
L 431.682636 287.644791 
L 431.682636 219.817113 
L 431.682636 219.817113 
L 424.206161 220.822031 
L 416.729686 220.689441 
L 409.253212 220.377662 
L 401.776737 219.269264 
L 394.300262 219.55569 
L 386.823787 219.1757 
L 379.347312 219.820784 
L 371.870837 219.525158 
L 364.394362 220.167731 
L 356.917887 219.65321 
L 349.441412 219.200306 
L 341.964937 219.711633 
L 334.488462 219.927785 
L 327.011987 218.702495 
L 319.535512 220.958507 
L 312.059037 219.626597 
L 304.582562 219.734633 
L 297.106087 220.844931 
L 289.629612 220.25811 
L 282.153137 218.836487 
L 274.676662 220.653596 
L 267.200187 219.703049 
L 259.723712 219.808315 
L 252.247237 219.631268 
L 244.770763 219.287621 
L 237.294288 220.531214 
L 229.817813 219.863453 
L 222.341338 219.705994 
L 214.864863 221.028406 
L 207.388388 221.244353 
L 199.911913 220.41026 
L 192.435438 218.537392 
L 184.958963 219.72236 
L 177.482488 219.780631 
L 170.006013 220.211234 
L 162.529538 219.229696 
L 155.053063 219.519458 
L 147.576588 219.014685 
L 140.100113 219.752196 
L 132.623638 219.951637 
L 125.147163 219.911973 
L 117.670688 220.48202 
L 110.194213 221.714794 
L 102.717738 219.639731 
L 95.241263 219.607342 
L 87.764788 219.789242 
L 80.288314 219.806969 
L 72.811839 221.530644 
L 65.335364 219.310316 
z
" clip-path="url(#pc5c74f0291)" style="fill: #8c564b; fill-opacity: 0.45"/>
   </g>
   <g id="PathCollection_6">
    <g clip-path="url(#pc5c74f0291)">
     <use xlink:href="#m749c2cef61" x="65.335364" y="269.381282" style="fill-opacity: 0.7; stroke: #000000; stroke-opacity: 0.7"/>
     <use xlink:href="#m749c2cef61" x="98.639661" y="250.98572" style="fill-opacity: 0.7; stroke: #000000; stroke-opacity: 0.7"/>
     <use xlink:href="#m749c2cef61" x="135.644436" y="242.183611" style="fill-opacity: 0.7; stroke: #000000; stroke-opacity: 0.7"/>
     <use xlink:href="#m749c2cef61" x="172.649211" y="234.933919" style="fill-opacity: 0.7; stroke: #000000; stroke-opacity: 0.7"/>
     <use xlink:href="#m749c2cef61" x="209.653986" y="228.906244" style="fill-opacity: 0.7; stroke: #000000; stroke-opacity: 0.7"/>
     <use xlink:href="#m749c2cef61" x="246.658761" y="222.472907" style="fill-opacity: 0.7; stroke: #000000; stroke-opacity: 0.7"/>
     <use xlink:href="#m749c2cef61" x="283.663536" y="218.014028" style="fill-opacity: 0.7; stroke: #000000; stroke-opacity: 0.7"/>
     <use xlink:href="#m749c2cef61" x="320.668311" y="213.431347" style="fill-opacity: 0.7; stroke: #000000; stroke-opacity: 0.7"/>
     <use xlink:href="#m749c2cef61" x="357.673086" y="209.14178" style="fill-opacity: 0.7; stroke: #000000; stroke-opacity: 0.7"/>
     <use xlink:href="#m749c2cef61" x="394.677861" y="204.691444" style="fill-opacity: 0.7; stroke: #000000; stroke-opacity: 0.7"/>
     <use xlink:href="#m749c2cef61" x="431.682636" y="202.012409" style="fill-opacity: 0.7; stroke: #000000; stroke-opacity: 0.7"/>
    </g>
   </g>
   <g id="FillBetweenPolyCollection_7">
    <path d="M 65.335364 219.121026 
L 65.335364 287.00546 
L 72.811839 287.378005 
L 80.288314 286.829363 
L 87.764788 286.994893 
L 95.241263 286.886078 
L 102.717738 287.286316 
L 110.194213 286.206077 
L 117.670688 287.007866 
L 125.147163 287.252136 
L 132.623638 286.650663 
L 140.100113 287.606228 
L 147.576588 286.854778 
L 155.053063 286.712858 
L 162.529538 286.293489 
L 170.006013 287.347513 
L 177.482488 286.939124 
L 184.958963 286.047049 
L 192.435438 286.474062 
L 199.911913 286.31068 
L 207.388388 287.254753 
L 214.864863 287.109041 
L 222.341338 286.929633 
L 229.817813 287.30159 
L 237.294288 286.317668 
L 244.770763 287.350451 
L 252.247237 287.632627 
L 259.723712 285.611679 
L 267.200187 287.10059 
L 274.676662 287.227941 
L 282.153137 287.420983 
L 289.629612 286.84607 
L 297.106087 285.423639 
L 304.582562 286.879495 
L 312.059037 285.362238 
L 319.535512 286.466076 
L 327.011987 288.447358 
L 334.488462 288.378029 
L 341.964937 285.853692 
L 349.441412 286.320843 
L 356.917887 286.37111 
L 364.394362 287.20634 
L 371.870837 286.868296 
L 379.347312 285.664661 
L 386.823787 287.258932 
L 394.300262 287.45515 
L 401.776737 285.191377 
L 409.253212 286.436617 
L 416.729686 286.687807 
L 424.206161 286.868767 
L 431.682636 287.175374 
L 431.682636 218.997772 
L 431.682636 218.997772 
L 424.206161 220.233586 
L 416.729686 220.152482 
L 409.253212 219.272977 
L 401.776737 219.344319 
L 394.300262 220.445008 
L 386.823787 220.336008 
L 379.347312 219.869341 
L 371.870837 219.27545 
L 364.394362 220.125769 
L 356.917887 220.32228 
L 349.441412 220.353433 
L 341.964937 219.616819 
L 334.488462 219.960231 
L 327.011987 222.014121 
L 319.535512 220.127793 
L 312.059037 220.047197 
L 304.582562 219.804977 
L 297.106087 219.057223 
L 289.629612 219.148479 
L 282.153137 219.012968 
L 274.676662 221.059106 
L 267.200187 219.628972 
L 259.723712 219.362495 
L 252.247237 219.202914 
L 244.770763 219.90915 
L 237.294288 220.275528 
L 229.817813 220.357896 
L 222.341338 221.09396 
L 214.864863 220.198328 
L 207.388388 220.308436 
L 199.911913 220.53089 
L 192.435438 219.782532 
L 184.958963 219.605519 
L 177.482488 220.118998 
L 170.006013 219.791089 
L 162.529538 220.130678 
L 155.053063 218.773895 
L 147.576588 220.356668 
L 140.100113 220.78139 
L 132.623638 219.802266 
L 125.147163 219.804489 
L 117.670688 218.988031 
L 110.194213 218.071399 
L 102.717738 220.626387 
L 95.241263 219.199493 
L 87.764788 219.733989 
L 80.288314 219.508679 
L 72.811839 218.587537 
L 65.335364 219.121026 
z
" clip-path="url(#pc5c74f0291)" style="fill: #e377c2; fill-opacity: 0.45"/>
   </g>
   <g id="PathCollection_7">
    <g clip-path="url(#pc5c74f0291)">
     <use xlink:href="#m749c2cef61" x="65.335364" y="277.332707" style="fill-opacity: 0.7; stroke: #000000; stroke-opacity: 0.7"/>
     <use xlink:href="#m749c2cef61" x="98.639661" y="264.585437" style="fill-opacity: 0.7; stroke: #000000; stroke-opacity: 0.7"/>
     <use xlink:href="#m749c2cef61" x="135.644436" y="254.701477" style="fill-opacity: 0.7; stroke: #000000; stroke-opacity: 0.7"/>
     <use xlink:href="#m749c2cef61" x="172.649211" y="249.689047" style="fill-opacity: 0.7; stroke: #000000; stroke-opacity: 0.7"/>
     <use xlink:href="#m749c2cef61" x="209.653986" y="244.017916" style="fill-opacity: 0.7; stroke: #000000; stroke-opacity: 0.7"/>
     <use xlink:href="#m749c2cef61" x="246.658761" y="240.793786" style="fill-opacity: 0.7; stroke: #000000; stroke-opacity: 0.7"/>
     <use xlink:href="#m749c2cef61" x="283.663536" y="237.494311" style="fill-opacity: 0.7; stroke: #000000; stroke-opacity: 0.7"/>
     <use xlink:href="#m749c2cef61" x="320.668311" y="233.283934" style="fill-opacity: 0.7; stroke: #000000; stroke-opacity: 0.7"/>
     <use xlink:href="#m749c2cef61" x="357.673086" y="230.432587" style="fill-opacity: 0.7; stroke: #000000; stroke-opacity: 0.7"/>
     <use xlink:href="#m749c2cef61" x="394.677861" y="228.172325" style="fill-opacity: 0.7; stroke: #000000; stroke-opacity: 0.7"/>
     <use xlink:href="#m749c2cef61" x="431.682636" y="225.109647" style="fill-opacity: 0.7; stroke: #000000; stroke-opacity: 0.7"/>
    </g>
   </g>
   <g id="FillBetweenPolyCollection_8">
    <path d="M 65.335364 219.370561 
L 65.335364 286.104206 
L 72.811839 287.580324 
L 80.288314 287.662145 
L 87.764788 286.857366 
L 95.241263 286.671553 
L 102.717738 286.157079 
L 110.194213 286.60724 
L 117.670688 286.797384 
L 125.147163 287.665874 
L 132.623638 285.872929 
L 140.100113 286.924964 
L 147.576588 286.172364 
L 155.053063 287.341587 
L 162.529538 286.789587 
L 170.006013 287.412424 
L 177.482488 286.130074 
L 184.958963 287.037594 
L 192.435438 287.050008 
L 199.911913 286.860596 
L 207.388388 287.582585 
L 214.864863 287.701454 
L 222.341338 287.736713 
L 229.817813 287.007794 
L 237.294288 287.8709 
L 244.770763 286.83228 
L 252.247237 286.634515 
L 259.723712 285.12999 
L 267.200187 287.024857 
L 274.676662 285.180306 
L 282.153137 286.687422 
L 289.629612 286.38064 
L 297.106087 286.152167 
L 304.582562 287.585185 
L 312.059037 287.452899 
L 319.535512 286.26791 
L 327.011987 286.165602 
L 334.488462 287.257 
L 341.964937 286.843596 
L 349.441412 286.858114 
L 356.917887 285.964918 
L 364.394362 286.544797 
L 371.870837 286.417669 
L 379.347312 287.427212 
L 386.823787 286.792304 
L 394.300262 286.732793 
L 401.776737 288.326721 
L 409.253212 286.801495 
L 416.729686 287.023621 
L 424.206161 286.531009 
L 431.682636 287.122267 
L 431.682636 220.329395 
L 431.682636 220.329395 
L 424.206161 219.353728 
L 416.729686 220.265931 
L 409.253212 219.421272 
L 401.776737 220.384823 
L 394.300262 222.017112 
L 386.823787 218.753156 
L 379.347312 218.180982 
L 371.870837 220.735127 
L 364.394362 219.54361 
L 356.917887 219.36465 
L 349.441412 219.344329 
L 341.964937 218.359962 
L 334.488462 219.652114 
L 327.011987 219.993699 
L 319.535512 220.068992 
L 312.059037 220.708259 
L 304.582562 220.448761 
L 297.106087 221.063665 
L 289.629612 220.594087 
L 282.153137 220.531189 
L 274.676662 220.578016 
L 267.200187 219.250296 
L 259.723712 219.842465 
L 252.247237 219.287811 
L 244.770763 220.491629 
L 237.294288 220.279191 
L 229.817813 219.649611 
L 222.341338 220.406346 
L 214.864863 219.30462 
L 207.388388 221.571242 
L 199.911913 219.247016 
L 192.435438 220.533482 
L 184.958963 219.114963 
L 177.482488 218.724242 
L 170.006013 220.986294 
L 162.529538 219.754217 
L 155.053063 220.110598 
L 147.576588 220.443856 
L 140.100113 220.254922 
L 132.623638 219.20989 
L 125.147163 220.138288 
L 117.670688 219.718645 
L 110.194213 219.378687 
L 102.717738 219.784731 
L 95.241263 219.431128 
L 87.764788 219.078942 
L 80.288314 220.589784 
L 72.811839 220.583413 
L 65.335364 219.370561 
z
" clip-path="url(#pc5c74f0291)" style="fill: #7f7f7f; fill-opacity: 0.45"/>
   </g>
   <g id="PathCollection_8">
    <g clip-path="url(#pc5c74f0291)">
     <use xlink:href="#m749c2cef61" x="65.335364" y="280.66931" style="fill-opacity: 0.7; stroke: #000000; stroke-opacity: 0.7"/>
     <use xlink:href="#m749c2cef61" x="98.639661" y="272.216853" style="fill-opacity: 0.7; stroke: #000000; stroke-opacity: 0.7"/>
     <use xlink:href="#m749c2cef61" x="135.644436" y="266.874924" style="fill-opacity: 0.7; stroke: #000000; stroke-opacity: 0.7"/>
     <use xlink:href="#m749c2cef61" x="172.649211" y="263.319262" style="fill-opacity: 0.7; stroke: #000000; stroke-opacity: 0.7"/>
     <use xlink:href="#m749c2cef61" x="209.653986" y="260.247134" style="fill-opacity: 0.7; stroke: #000000; stroke-opacity: 0.7"/>
     <use xlink:href="#m749c2cef61" x="246.658761" y="256.338711" style="fill-opacity: 0.7; stroke: #000000; stroke-opacity: 0.7"/>
     <use xlink:href="#m749c2cef61" x="283.663536" y="254.336911" style="fill-opacity: 0.7; stroke: #000000; stroke-opacity: 0.7"/>
     <use xlink:href="#m749c2cef61" x="320.668311" y="252.339439" style="fill-opacity: 0.7; stroke: #000000; stroke-opacity: 0.7"/>
     <use xlink:href="#m749c2cef61" x="357.673086" y="249.711923" style="fill-opacity: 0.7; stroke: #000000; stroke-opacity: 0.7"/>
     <use xlink:href="#m749c2cef61" x="394.677861" y="248.09966" style="fill-opacity: 0.7; stroke: #000000; stroke-opacity: 0.7"/>
     <use xlink:href="#m749c2cef61" x="431.682636" y="245.433611" style="fill-opacity: 0.7; stroke: #000000; stroke-opacity: 0.7"/>
    </g>
   </g>
   <g id="matplotlib.axis_1">
    <g id="xtick_1">
     <g id="line2d_1">
      <defs>
       <path id="mbac974cd2b" d="M 0 0 
L 0 3.5 
" style="stroke: #000000; stroke-width: 0.8"/>
      </defs>
      <g>
       <use xlink:href="#mbac974cd2b" x="61.634886" y="302.2" style="stroke: #000000; stroke-width: 0.8"/>
      </g>
     </g>
     <g id="text_1">
      <!-- 0 -->
      <g transform="translate(58.453636 316.798437) scale(0.1 -0.1)">
       <defs>
        <path id="DejaVuSans-30" d="M 2034 4250 
Q 1547 4250 1301 3770 
Q 1056 3291 1056 2328 
Q 1056 1369 1301 889 
Q 1547 409 2034 409 
Q 2525 409 2770 889 
Q 3016 1369 3016 2328 
Q 3016 3291 2770 3770 
Q 2525 4250 2034 4250 
z
M 2034 4750 
Q 2819 4750 3233 4129 
Q 3647 3509 3647 2328 
Q 3647 1150 3233 529 
Q 2819 -91 2034 -91 
Q 1250 -91 836 529 
Q 422 1150 422 2328 
Q 422 3509 836 4129 
Q 1250 4750 2034 4750 
z
" transform="scale(0.015625)"/>
       </defs>
       <use xlink:href="#DejaVuSans-30"/>
      </g>
     </g>
    </g>
    <g id="xtick_2">
     <g id="line2d_2">
      <g>
       <use xlink:href="#mbac974cd2b" x="135.644436" y="302.2" style="stroke: #000000; stroke-width: 0.8"/>
      </g>
     </g>
     <g id="text_2">
      <!-- 1 -->
      <g transform="translate(132.463186 316.798437) scale(0.1 -0.1)">
       <defs>
        <path id="DejaVuSans-31" d="M 794 531 
L 1825 531 
L 1825 4091 
L 703 3866 
L 703 4441 
L 1819 4666 
L 2450 4666 
L 2450 531 
L 3481 531 
L 3481 0 
L 794 0 
L 794 531 
z
" transform="scale(0.015625)"/>
       </defs>
       <use xlink:href="#DejaVuSans-31"/>
      </g>
     </g>
    </g>
    <g id="xtick_3">
     <g id="line2d_3">
      <g>
       <use xlink:href="#mbac974cd2b" x="209.653986" y="302.2" style="stroke: #000000; stroke-width: 0.8"/>
      </g>
     </g>
     <g id="text_3">
      <!-- 2 -->
      <g transform="translate(206.472736 316.798437) scale(0.1 -0.1)">
       <defs>
        <path id="DejaVuSans-32" d="M 1228 531 
L 3431 531 
L 3431 0 
L 469 0 
L 469 531 
Q 828 903 1448 1529 
Q 2069 2156 2228 2338 
Q 2531 2678 2651 2914 
Q 2772 3150 2772 3378 
Q 2772 3750 2511 3984 
Q 2250 4219 1831 4219 
Q 1534 4219 1204 4116 
Q 875 4013 500 3803 
L 500 4441 
Q 881 4594 1212 4672 
Q 1544 4750 1819 4750 
Q 2544 4750 2975 4387 
Q 3406 4025 3406 3419 
Q 3406 3131 3298 2873 
Q 3191 2616 2906 2266 
Q 2828 2175 2409 1742 
Q 1991 1309 1228 531 
z
" transform="scale(0.015625)"/>
       </defs>
       <use xlink:href="#DejaVuSans-32"/>
      </g>
     </g>
    </g>
    <g id="xtick_4">
     <g id="line2d_4">
      <g>
       <use xlink:href="#mbac974cd2b" x="283.663536" y="302.2" style="stroke: #000000; stroke-width: 0.8"/>
      </g>
     </g>
     <g id="text_4">
      <!-- 3 -->
      <g transform="translate(280.482286 316.798437) scale(0.1 -0.1)">
       <defs>
        <path id="DejaVuSans-33" d="M 2597 2516 
Q 3050 2419 3304 2112 
Q 3559 1806 3559 1356 
Q 3559 666 3084 287 
Q 2609 -91 1734 -91 
Q 1441 -91 1130 -33 
Q 819 25 488 141 
L 488 750 
Q 750 597 1062 519 
Q 1375 441 1716 441 
Q 2309 441 2620 675 
Q 2931 909 2931 1356 
Q 2931 1769 2642 2001 
Q 2353 2234 1838 2234 
L 1294 2234 
L 1294 2753 
L 1863 2753 
Q 2328 2753 2575 2939 
Q 2822 3125 2822 3475 
Q 2822 3834 2567 4026 
Q 2313 4219 1838 4219 
Q 1578 4219 1281 4162 
Q 984 4106 628 3988 
L 628 4550 
Q 988 4650 1302 4700 
Q 1616 4750 1894 4750 
Q 2613 4750 3031 4423 
Q 3450 4097 3450 3541 
Q 3450 3153 3228 2886 
Q 3006 2619 2597 2516 
z
" transform="scale(0.015625)"/>
       </defs>
       <use xlink:href="#DejaVuSans-33"/>
      </g>
     </g>
    </g>
    <g id="xtick_5">
     <g id="line2d_5">
      <g>
       <use xlink:href="#mbac974cd2b" x="357.673086" y="302.2" style="stroke: #000000; stroke-width: 0.8"/>
      </g>
     </g>
     <g id="text_5">
      <!-- 4 -->
      <g transform="translate(354.491836 316.798437) scale(0.1 -0.1)">
       <defs>
        <path id="DejaVuSans-34" d="M 2419 4116 
L 825 1625 
L 2419 1625 
L 2419 4116 
z
M 2253 4666 
L 3047 4666 
L 3047 1625 
L 3713 1625 
L 3713 1100 
L 3047 1100 
L 3047 0 
L 2419 0 
L 2419 1100 
L 313 1100 
L 313 1709 
L 2253 4666 
z
" transform="scale(0.015625)"/>
       </defs>
       <use xlink:href="#DejaVuSans-34"/>
      </g>
     </g>
    </g>
    <g id="xtick_6">
     <g id="line2d_6">
      <g>
       <use xlink:href="#mbac974cd2b" x="431.682636" y="302.2" style="stroke: #000000; stroke-width: 0.8"/>
      </g>
     </g>
     <g id="text_6">
      <!-- 5 -->
      <g transform="translate(428.501386 316.798437) scale(0.1 -0.1)">
       <defs>
        <path id="DejaVuSans-35" d="M 691 4666 
L 3169 4666 
L 3169 4134 
L 1269 4134 
L 1269 2991 
Q 1406 3038 1543 3061 
Q 1681 3084 1819 3084 
Q 2600 3084 3056 2656 
Q 3513 2228 3513 1497 
Q 3513 744 3044 326 
Q 2575 -91 1722 -91 
Q 1428 -91 1123 -41 
Q 819 9 494 109 
L 494 744 
Q 775 591 1075 516 
Q 1375 441 1709 441 
Q 2250 441 2565 725 
Q 2881 1009 2881 1497 
Q 2881 1984 2565 2268 
Q 2250 2553 1709 2553 
Q 1456 2553 1204 2497 
Q 953 2441 691 2322 
L 691 4666 
z
" transform="scale(0.015625)"/>
       </defs>
       <use xlink:href="#DejaVuSans-35"/>
      </g>
     </g>
    </g>
    <g id="text_7">
     <!-- $W$ (m/hour) -->
     <g transform="translate(220.059 330.476562) scale(0.1 -0.1)">
      <defs>
       <path id="DejaVuSans-Oblique-57" d="M 616 4666 
L 1228 4666 
L 1453 697 
L 3213 4666 
L 3916 4666 
L 4147 697 
L 5888 4666 
L 6528 4666 
L 4453 0 
L 3659 0 
L 3444 3891 
L 1697 0 
L 903 0 
L 616 4666 
z
" transform="scale(0.015625)"/>
       <path id="DejaVuSans-20" transform="scale(0.015625)"/>
       <path id="DejaVuSans-28" d="M 1984 4856 
Q 1566 4138 1362 3434 
Q 1159 2731 1159 2009 
Q 1159 1288 1364 580 
Q 1569 -128 1984 -844 
L 1484 -844 
Q 1016 -109 783 600 
Q 550 1309 550 2009 
Q 550 2706 781 3412 
Q 1013 4119 1484 4856 
L 1984 4856 
z
" transform="scale(0.015625)"/>
       <path id="DejaVuSans-6d" d="M 3328 2828 
Q 3544 3216 3844 3400 
Q 4144 3584 4550 3584 
Q 5097 3584 5394 3201 
Q 5691 2819 5691 2113 
L 5691 0 
L 5113 0 
L 5113 2094 
Q 5113 2597 4934 2840 
Q 4756 3084 4391 3084 
Q 3944 3084 3684 2787 
Q 3425 2491 3425 1978 
L 3425 0 
L 2847 0 
L 2847 2094 
Q 2847 2600 2669 2842 
Q 2491 3084 2119 3084 
Q 1678 3084 1418 2786 
Q 1159 2488 1159 1978 
L 1159 0 
L 581 0 
L 581 3500 
L 1159 3500 
L 1159 2956 
Q 1356 3278 1631 3431 
Q 1906 3584 2284 3584 
Q 2666 3584 2933 3390 
Q 3200 3197 3328 2828 
z
" transform="scale(0.015625)"/>
       <path id="DejaVuSans-2f" d="M 1625 4666 
L 2156 4666 
L 531 -594 
L 0 -594 
L 1625 4666 
z
" transform="scale(0.015625)"/>
       <path id="DejaVuSans-68" d="M 3513 2113 
L 3513 0 
L 2938 0 
L 2938 2094 
Q 2938 2591 2744 2837 
Q 2550 3084 2163 3084 
Q 1697 3084 1428 2787 
Q 1159 2491 1159 1978 
L 1159 0 
L 581 0 
L 581 4863 
L 1159 4863 
L 1159 2956 
Q 1366 3272 1645 3428 
Q 1925 3584 2291 3584 
Q 2894 3584 3203 3211 
Q 3513 2838 3513 2113 
z
" transform="scale(0.015625)"/>
       <path id="DejaVuSans-6f" d="M 1959 3097 
Q 1497 3097 1228 2736 
Q 959 2375 959 1747 
Q 959 1119 1226 758 
Q 1494 397 1959 397 
Q 2419 397 2687 759 
Q 2956 1122 2956 1747 
Q 2956 2369 2687 2733 
Q 2419 3097 1959 3097 
z
M 1959 3584 
Q 2709 3584 3137 3096 
Q 3566 2609 3566 1747 
Q 3566 888 3137 398 
Q 2709 -91 1959 -91 
Q 1206 -91 779 398 
Q 353 888 353 1747 
Q 353 2609 779 3096 
Q 1206 3584 1959 3584 
z
" transform="scale(0.015625)"/>
       <path id="DejaVuSans-75" d="M 544 1381 
L 544 3500 
L 1119 3500 
L 1119 1403 
Q 1119 906 1312 657 
Q 1506 409 1894 409 
Q 2359 409 2629 706 
Q 2900 1003 2900 1516 
L 2900 3500 
L 3475 3500 
L 3475 0 
L 2900 0 
L 2900 538 
Q 2691 219 2414 64 
Q 2138 -91 1772 -91 
Q 1169 -91 856 284 
Q 544 659 544 1381 
z
M 1991 3584 
L 1991 3584 
z
" transform="scale(0.015625)"/>
       <path id="DejaVuSans-72" d="M 2631 2963 
Q 2534 3019 2420 3045 
Q 2306 3072 2169 3072 
Q 1681 3072 1420 2755 
Q 1159 2438 1159 1844 
L 1159 0 
L 581 0 
L 581 3500 
L 1159 3500 
L 1159 2956 
Q 1341 3275 1631 3429 
Q 1922 3584 2338 3584 
Q 2397 3584 2469 3576 
Q 2541 3569 2628 3553 
L 2631 2963 
z
" transform="scale(0.015625)"/>
       <path id="DejaVuSans-29" d="M 513 4856 
L 1013 4856 
Q 1481 4119 1714 3412 
Q 1947 2706 1947 2009 
Q 1947 1309 1714 600 
Q 1481 -109 1013 -844 
L 513 -844 
Q 928 -128 1133 580 
Q 1338 1288 1338 2009 
Q 1338 2731 1133 3434 
Q 928 4138 513 4856 
z
" transform="scale(0.015625)"/>
      </defs>
      <use xlink:href="#DejaVuSans-Oblique-57" transform="translate(0 0.015625)"/>
      <use xlink:href="#DejaVuSans-20" transform="translate(98.876953 0.015625)"/>
      <use xlink:href="#DejaVuSans-28" transform="translate(130.664062 0.015625)"/>
      <use xlink:href="#DejaVuSans-6d" transform="translate(169.677734 0.015625)"/>
      <use xlink:href="#DejaVuSans-2f" transform="translate(267.089844 0.015625)"/>
      <use xlink:href="#DejaVuSans-68" transform="translate(300.78125 0.015625)"/>
      <use xlink:href="#DejaVuSans-6f" transform="translate(364.160156 0.015625)"/>
      <use xlink:href="#DejaVuSans-75" transform="translate(425.341797 0.015625)"/>
      <use xlink:href="#DejaVuSans-72" transform="translate(488.720703 0.015625)"/>
      <use xlink:href="#DejaVuSans-29" transform="translate(529.833984 0.015625)"/>
     </g>
    </g>
   </g>
   <g id="matplotlib.axis_2">
    <g id="ytick_1">
     <g id="line2d_7">
      <defs>
       <path id="m35b5fd3506" d="M 0 0 
L -3.5 0 
" style="stroke: #000000; stroke-width: 0.8"/>
      </defs>
      <g>
       <use xlink:href="#m35b5fd3506" x="47.018" y="292.889338" style="stroke: #000000; stroke-width: 0.8"/>
      </g>
     </g>
     <g id="text_8">
      <!-- 0 -->
      <g transform="translate(33.6555 296.688557) scale(0.1 -0.1)">
       <use xlink:href="#DejaVuSans-30"/>
      </g>
     </g>
    </g>
    <g id="ytick_2">
     <g id="line2d_8">
      <g>
       <use xlink:href="#m35b5fd3506" x="47.018" y="230.203827" style="stroke: #000000; stroke-width: 0.8"/>
      </g>
     </g>
     <g id="text_9">
      <!-- 10 -->
      <g transform="translate(27.293 234.003046) scale(0.1 -0.1)">
       <use xlink:href="#DejaVuSans-31"/>
       <use xlink:href="#DejaVuSans-30" transform="translate(63.623047 0)"/>
      </g>
     </g>
    </g>
    <g id="ytick_3">
     <g id="line2d_9">
      <g>
       <use xlink:href="#m35b5fd3506" x="47.018" y="167.518317" style="stroke: #000000; stroke-width: 0.8"/>
      </g>
     </g>
     <g id="text_10">
      <!-- 20 -->
      <g transform="translate(27.293 171.317535) scale(0.1 -0.1)">
       <use xlink:href="#DejaVuSans-32"/>
       <use xlink:href="#DejaVuSans-30" transform="translate(63.623047 0)"/>
      </g>
     </g>
    </g>
    <g id="ytick_4">
     <g id="line2d_10">
      <g>
       <use xlink:href="#m35b5fd3506" x="47.018" y="104.832806" style="stroke: #000000; stroke-width: 0.8"/>
      </g>
     </g>
     <g id="text_11">
      <!-- 30 -->
      <g transform="translate(27.293 108.632025) scale(0.1 -0.1)">
       <use xlink:href="#DejaVuSans-33"/>
       <use xlink:href="#DejaVuSans-30" transform="translate(63.623047 0)"/>
      </g>
     </g>
    </g>
    <g id="ytick_5">
     <g id="line2d_11">
      <g>
       <use xlink:href="#m35b5fd3506" x="47.018" y="42.147295" style="stroke: #000000; stroke-width: 0.8"/>
      </g>
     </g>
     <g id="text_12">
      <!-- 40 -->
      <g transform="translate(27.293 45.946514) scale(0.1 -0.1)">
       <use xlink:href="#DejaVuSans-34"/>
       <use xlink:href="#DejaVuSans-30" transform="translate(63.623047 0)"/>
      </g>
     </g>
    </g>
    <g id="text_13">
     <!-- $Q_{lc}$ (kW) -->
     <g transform="translate(21.213312 176.8) rotate(-90) scale(0.1 -0.1)">
      <defs>
       <path id="DejaVuSans-Oblique-51" d="M 2309 -84 
Q 2275 -88 2237 -89 
Q 2200 -91 2125 -91 
Q 1250 -91 756 411 
Q 263 913 263 1797 
Q 263 2319 452 2844 
Q 641 3369 978 3788 
Q 1369 4269 1858 4509 
Q 2347 4750 2938 4750 
Q 3794 4750 4287 4245 
Q 4781 3741 4781 2869 
Q 4781 1928 4265 1147 
Q 3750 366 2919 44 
L 3553 -825 
L 2847 -825 
L 2309 -84 
z
M 2919 4238 
Q 2400 4238 2003 3986 
Q 1606 3734 1313 3219 
Q 1125 2891 1026 2522 
Q 928 2153 928 1778 
Q 928 1128 1239 775 
Q 1550 422 2119 422 
Q 2631 422 3032 676 
Q 3434 931 3719 1434 
Q 3909 1772 4009 2142 
Q 4109 2513 4109 2881 
Q 4109 3528 3796 3883 
Q 3484 4238 2919 4238 
z
" transform="scale(0.015625)"/>
       <path id="DejaVuSans-Oblique-6c" d="M 1172 4863 
L 1747 4863 
L 800 0 
L 225 0 
L 1172 4863 
z
" transform="scale(0.015625)"/>
       <path id="DejaVuSans-Oblique-63" d="M 3431 3366 
L 3316 2797 
Q 3109 2947 2876 3022 
Q 2644 3097 2394 3097 
Q 2119 3097 1870 3000 
Q 1622 2903 1453 2725 
Q 1184 2453 1037 2087 
Q 891 1722 891 1331 
Q 891 859 1127 628 
Q 1363 397 1844 397 
Q 2081 397 2348 469 
Q 2616 541 2906 684 
L 2797 116 
Q 2547 13 2283 -39 
Q 2019 -91 1741 -91 
Q 1044 -91 669 257 
Q 294 606 294 1253 
Q 294 1797 489 2255 
Q 684 2713 1069 3078 
Q 1331 3328 1684 3456 
Q 2038 3584 2456 3584 
Q 2700 3584 2940 3529 
Q 3181 3475 3431 3366 
z
" transform="scale(0.015625)"/>
       <path id="DejaVuSans-6b" d="M 581 4863 
L 1159 4863 
L 1159 1991 
L 2875 3500 
L 3609 3500 
L 1753 1863 
L 3688 0 
L 2938 0 
L 1159 1709 
L 1159 0 
L 581 0 
L 581 4863 
z
" transform="scale(0.015625)"/>
       <path id="DejaVuSans-57" d="M 213 4666 
L 850 4666 
L 1831 722 
L 2809 4666 
L 3519 4666 
L 4500 722 
L 5478 4666 
L 6119 4666 
L 4947 0 
L 4153 0 
L 3169 4050 
L 2175 0 
L 1381 0 
L 213 4666 
z
" transform="scale(0.015625)"/>
      </defs>
      <use xlink:href="#DejaVuSans-Oblique-51" transform="translate(0 0.015625)"/>
      <use xlink:href="#DejaVuSans-Oblique-6c" transform="translate(78.710938 -16.390625) scale(0.7)"/>
      <use xlink:href="#DejaVuSans-Oblique-63" transform="translate(98.15918 -16.390625) scale(0.7)"/>
      <use xlink:href="#DejaVuSans-20" transform="translate(139.379883 0.015625)"/>
      <use xlink:href="#DejaVuSans-28" transform="translate(171.166992 0.015625)"/>
      <use xlink:href="#DejaVuSans-6b" transform="translate(210.180664 0.015625)"/>
      <use xlink:href="#DejaVuSans-57" transform="translate(268.09082 0.015625)"/>
      <use xlink:href="#DejaVuSans-29" transform="translate(366.967773 0.015625)"/>
     </g>
    </g>
   </g>
   <g id="line2d_12">
    <path d="M 65.335364 254.031067 
L 72.811839 253.417185 
L 80.288314 253.046407 
L 87.764788 253.392943 
L 95.241263 253.472335 
L 102.717738 253.632303 
L 110.194213 252.869264 
L 117.670688 253.907818 
L 125.147163 253.108621 
L 132.623638 253.472921 
L 140.100113 253.106583 
L 147.576588 253.928353 
L 155.053063 253.475501 
L 162.529538 253.360342 
L 170.006013 253.224918 
L 177.482488 253.015721 
L 184.958963 253.689144 
L 192.435438 253.873133 
L 199.911913 253.543195 
L 207.388388 253.758315 
L 214.864863 253.678081 
L 222.341338 253.124638 
L 229.817813 253.389636 
L 237.294288 253.700167 
L 244.770763 253.513154 
L 252.247237 253.500642 
L 259.723712 253.829643 
L 267.200187 253.488983 
L 274.676662 253.000177 
L 282.153137 253.253166 
L 289.629612 252.86764 
L 297.106087 253.560257 
L 304.582562 252.894562 
L 312.059037 254.111494 
L 319.535512 253.276481 
L 327.011987 253.515865 
L 334.488462 253.490823 
L 341.964937 252.673271 
L 349.441412 252.872601 
L 356.917887 253.845069 
L 364.394362 253.487825 
L 371.870837 253.417747 
L 379.347312 253.319583 
L 386.823787 253.23386 
L 394.300262 252.860276 
L 401.776737 253.583192 
L 409.253212 253.309027 
L 416.729686 253.027813 
L 424.206161 253.311008 
L 431.682636 253.916134 
" clip-path="url(#pc5c74f0291)" style="fill: none; stroke: #1f77b4; stroke-width: 1.5; stroke-linecap: square"/>
   </g>
   <g id="line2d_13">
    <path d="M 65.335364 252.840749 
L 72.811839 253.287147 
L 80.288314 253.406005 
L 87.764788 253.45306 
L 95.241263 253.871509 
L 102.717738 252.771769 
L 110.194213 253.169766 
L 117.670688 253.960231 
L 125.147163 253.577154 
L 132.623638 253.170777 
L 140.100113 253.05351 
L 147.576588 253.607632 
L 155.053063 253.461862 
L 162.529538 253.14271 
L 170.006013 253.009682 
L 177.482488 253.497781 
L 184.958963 253.538874 
L 192.435438 253.374355 
L 199.911913 253.221114 
L 207.388388 253.626576 
L 214.864863 252.911061 
L 222.341338 253.613671 
L 229.817813 253.642397 
L 237.294288 253.585548 
L 244.770763 253.419896 
L 252.247237 253.29536 
L 259.723712 253.810697 
L 267.200187 252.543576 
L 274.676662 253.823214 
L 282.153137 252.549755 
L 289.629612 253.0857 
L 297.106087 253.932868 
L 304.582562 252.963571 
L 312.059037 254.143828 
L 319.535512 253.269806 
L 327.011987 253.630998 
L 334.488462 252.936559 
L 341.964937 253.556741 
L 349.441412 253.519605 
L 356.917887 253.835907 
L 364.394362 253.140594 
L 371.870837 253.379661 
L 379.347312 253.107302 
L 386.823787 253.722255 
L 394.300262 253.549978 
L 401.776737 253.109328 
L 409.253212 253.324324 
L 416.729686 253.012613 
L 424.206161 253.619734 
L 431.682636 253.628497 
" clip-path="url(#pc5c74f0291)" style="fill: none; stroke: #ff7f0e; stroke-width: 1.5; stroke-linecap: square"/>
   </g>
   <g id="line2d_14">
    <path d="M 65.335364 253.976061 
L 72.811839 253.746481 
L 80.288314 253.659702 
L 87.764788 253.73078 
L 95.241263 253.652474 
L 102.717738 253.034499 
L 110.194213 253.413313 
L 117.670688 252.932537 
L 125.147163 253.310777 
L 132.623638 253.313152 
L 140.100113 253.162591 
L 147.576588 253.711313 
L 155.053063 253.7889 
L 162.529538 253.746091 
L 170.006013 253.265323 
L 177.482488 253.091602 
L 184.958963 253.148122 
L 192.435438 253.539435 
L 199.911913 252.782942 
L 207.388388 253.767727 
L 214.864863 253.352977 
L 222.341338 253.792623 
L 229.817813 253.289841 
L 237.294288 253.461337 
L 244.770763 253.369331 
L 252.247237 253.610969 
L 259.723712 253.647637 
L 267.200187 253.475407 
L 274.676662 253.744273 
L 282.153137 252.950711 
L 289.629612 253.415177 
L 297.106087 253.313463 
L 304.582562 253.81858 
L 312.059037 253.295337 
L 319.535512 253.909143 
L 327.011987 253.339886 
L 334.488462 253.028425 
L 341.964937 253.543607 
L 349.441412 253.734772 
L 356.917887 253.98023 
L 364.394362 253.167592 
L 371.870837 253.465513 
L 379.347312 253.326006 
L 386.823787 252.840198 
L 394.300262 253.419881 
L 401.776737 253.182129 
L 409.253212 252.737618 
L 416.729686 253.878803 
L 424.206161 253.585861 
L 431.682636 253.109245 
" clip-path="url(#pc5c74f0291)" style="fill: none; stroke: #2ca02c; stroke-width: 1.5; stroke-linecap: square"/>
   </g>
   <g id="line2d_15">
    <path d="M 65.335364 253.593704 
L 72.811839 253.490578 
L 80.288314 253.479722 
L 87.764788 254.026258 
L 95.241263 253.704924 
L 102.717738 253.452866 
L 110.194213 253.620639 
L 117.670688 253.215502 
L 125.147163 253.407949 
L 132.623638 253.386793 
L 140.100113 254.158767 
L 147.576588 253.998482 
L 155.053063 253.988237 
L 162.529538 254.230137 
L 170.006013 253.6186 
L 177.482488 253.914003 
L 184.958963 252.794716 
L 192.435438 253.071874 
L 199.911913 253.741169 
L 207.388388 254.03605 
L 214.864863 253.632745 
L 222.341338 252.645623 
L 229.817813 253.555858 
L 237.294288 253.096603 
L 244.770763 253.138138 
L 252.247237 253.279184 
L 259.723712 253.749658 
L 267.200187 253.847589 
L 274.676662 253.862573 
L 282.153137 253.518421 
L 289.629612 253.392825 
L 297.106087 253.532292 
L 304.582562 253.787723 
L 312.059037 253.657831 
L 319.535512 253.505339 
L 327.011987 252.899703 
L 334.488462 253.028107 
L 341.964937 253.53656 
L 349.441412 252.968549 
L 356.917887 253.319187 
L 364.394362 253.275562 
L 371.870837 252.820708 
L 379.347312 252.702206 
L 386.823787 253.999496 
L 394.300262 253.087109 
L 401.776737 252.954754 
L 409.253212 252.965786 
L 416.729686 253.116252 
L 424.206161 253.288894 
L 431.682636 253.587551 
" clip-path="url(#pc5c74f0291)" style="fill: none; stroke: #d62728; stroke-width: 1.5; stroke-linecap: square"/>
   </g>
   <g id="line2d_16">
    <path d="M 65.335364 253.211741 
L 72.811839 253.475267 
L 80.288314 253.170773 
L 87.764788 253.974776 
L 95.241263 253.596605 
L 102.717738 253.338835 
L 110.194213 253.357278 
L 117.670688 253.909588 
L 125.147163 253.944925 
L 132.623638 253.685554 
L 140.100113 253.190958 
L 147.576588 253.578576 
L 155.053063 253.602977 
L 162.529538 253.63741 
L 170.006013 253.386119 
L 177.482488 253.642248 
L 184.958963 252.503456 
L 192.435438 252.86339 
L 199.911913 253.196914 
L 207.388388 253.531396 
L 214.864863 253.541888 
L 222.341338 253.662704 
L 229.817813 253.17539 
L 237.294288 253.548785 
L 244.770763 253.738255 
L 252.247237 252.910926 
L 259.723712 254.070499 
L 267.200187 253.160304 
L 274.676662 253.378667 
L 282.153137 253.875504 
L 289.629612 253.263214 
L 297.106087 253.455979 
L 304.582562 253.510274 
L 312.059037 253.56725 
L 319.535512 253.607591 
L 327.011987 253.585212 
L 334.488462 254.122002 
L 341.964937 253.027878 
L 349.441412 253.410486 
L 356.917887 253.517903 
L 364.394362 253.636098 
L 371.870837 253.387231 
L 379.347312 253.238292 
L 386.823787 253.414493 
L 394.300262 253.140049 
L 401.776737 252.993739 
L 409.253212 253.041723 
L 416.729686 253.16858 
L 424.206161 253.589871 
L 431.682636 253.619545 
" clip-path="url(#pc5c74f0291)" style="fill: none; stroke: #9467bd; stroke-width: 1.5; stroke-linecap: square"/>
   </g>
   <g id="line2d_17">
    <path d="M 65.335364 253.002062 
L 72.811839 254.294679 
L 80.288314 253.488006 
L 87.764788 253.282372 
L 95.241263 253.361247 
L 102.717738 253.845263 
L 110.194213 253.422885 
L 117.670688 253.665752 
L 125.147163 253.332852 
L 132.623638 253.894504 
L 140.100113 253.767685 
L 147.576588 253.322282 
L 155.053063 253.22954 
L 162.529538 253.403023 
L 170.006013 253.367409 
L 177.482488 253.242734 
L 184.958963 253.475535 
L 192.435438 253.917781 
L 199.911913 254.002252 
L 207.388388 254.049998 
L 214.864863 253.840628 
L 222.341338 253.322451 
L 229.817813 253.557677 
L 237.294288 253.266457 
L 244.770763 253.15893 
L 252.247237 253.146084 
L 259.723712 253.161193 
L 267.200187 253.314789 
L 274.676662 253.651117 
L 282.153137 253.287781 
L 289.629612 253.421975 
L 297.106087 253.012038 
L 304.582562 253.066481 
L 312.059037 253.48916 
L 319.535512 253.906064 
L 327.011987 254.072548 
L 334.488462 253.303634 
L 341.964937 253.010258 
L 349.441412 253.966033 
L 356.917887 253.021603 
L 364.394362 253.523431 
L 371.870837 252.655661 
L 379.347312 253.463939 
L 386.823787 253.427176 
L 394.300262 253.793425 
L 401.776737 253.061765 
L 409.253212 253.583475 
L 416.729686 253.498414 
L 424.206161 253.3213 
L 431.682636 253.43708 
" clip-path="url(#pc5c74f0291)" style="fill: none; stroke: #8c564b; stroke-width: 1.5; stroke-linecap: square"/>
   </g>
   <g id="line2d_18">
    <path d="M 65.335364 253.286238 
L 72.811839 252.929364 
L 80.288314 253.607074 
L 87.764788 252.822303 
L 95.241263 252.876859 
L 102.717738 253.332623 
L 110.194213 253.146983 
L 117.670688 253.498216 
L 125.147163 253.419836 
L 132.623638 253.358645 
L 140.100113 253.378874 
L 147.576588 253.197662 
L 155.053063 252.950324 
L 162.529538 253.558504 
L 170.006013 253.279919 
L 177.482488 253.545796 
L 184.958963 253.163703 
L 192.435438 254.027735 
L 199.911913 253.68215 
L 207.388388 253.388193 
L 214.864863 253.853638 
L 222.341338 253.780866 
L 229.817813 253.502723 
L 237.294288 252.963013 
L 244.770763 253.484775 
L 252.247237 253.903298 
L 259.723712 253.751635 
L 267.200187 253.14297 
L 274.676662 252.853446 
L 282.153137 252.889464 
L 289.629612 253.345927 
L 297.106087 253.639025 
L 304.582562 253.693536 
L 312.059037 253.068761 
L 319.535512 252.350305 
L 327.011987 253.720056 
L 334.488462 253.174771 
L 341.964937 253.377714 
L 349.441412 253.080413 
L 356.917887 253.173981 
L 364.394362 253.614686 
L 371.870837 253.429262 
L 379.347312 253.611151 
L 386.823787 252.90997 
L 394.300262 253.267838 
L 401.776737 253.477099 
L 409.253212 252.952792 
L 416.729686 253.441204 
L 424.206161 253.421058 
L 431.682636 253.495279 
" clip-path="url(#pc5c74f0291)" style="fill: none; stroke: #e377c2; stroke-width: 1.5; stroke-linecap: square"/>
   </g>
   <g id="line2d_19">
    <path d="M 65.335364 253.786889 
L 72.811839 252.902303 
L 80.288314 252.949699 
L 87.764788 253.818737 
L 95.241263 253.632908 
L 102.717738 253.558202 
L 110.194213 253.058593 
L 117.670688 253.093388 
L 125.147163 253.129732 
L 132.623638 253.205252 
L 140.100113 253.524234 
L 147.576588 253.546422 
L 155.053063 253.814436 
L 162.529538 253.150337 
L 170.006013 253.216665 
L 177.482488 252.86801 
L 184.958963 253.623993 
L 192.435438 253.473789 
L 199.911913 253.211365 
L 207.388388 253.985435 
L 214.864863 253.133818 
L 222.341338 253.82326 
L 229.817813 253.471139 
L 237.294288 252.905985 
L 244.770763 253.749903 
L 252.247237 253.45027 
L 259.723712 253.568416 
L 267.200187 254.073145 
L 274.676662 252.550772 
L 282.153137 253.396146 
L 289.629612 253.743421 
L 297.106087 253.460361 
L 304.582562 253.729262 
L 312.059037 253.173999 
L 319.535512 253.325656 
L 327.011987 253.430652 
L 334.488462 253.509737 
L 341.964937 253.201842 
L 349.441412 252.963609 
L 356.917887 253.50828 
L 364.394362 253.466077 
L 371.870837 253.440431 
L 379.347312 253.098852 
L 386.823787 253.363444 
L 394.300262 253.843927 
L 401.776737 253.804666 
L 409.253212 253.4255 
L 416.729686 253.801351 
L 424.206161 253.423885 
L 431.682636 253.631467 
" clip-path="url(#pc5c74f0291)" style="fill: none; stroke: #7f7f7f; stroke-width: 1.5; stroke-linecap: square"/>
   </g>
   <g id="patch_3">
    <path d="M 47.018 302.2 
L 47.018 10.8 
" style="fill: none; stroke: #000000; stroke-width: 0.8; stroke-linejoin: miter; stroke-linecap: square"/>
   </g>
   <g id="patch_4">
    <path d="M 450 302.2 
L 450 10.8 
" style="fill: none; stroke: #000000; stroke-width: 0.8; stroke-linejoin: miter; stroke-linecap: square"/>
   </g>
   <g id="patch_5">
    <path d="M 47.018 302.2 
L 450 302.2 
" style="fill: none; stroke: #000000; stroke-width: 0.8; stroke-linejoin: miter; stroke-linecap: square"/>
   </g>
   <g id="patch_6">
    <path d="M 47.018 10.8 
L 450 10.8 
" style="fill: none; stroke: #000000; stroke-width: 0.8; stroke-linejoin: miter; stroke-linecap: square"/>
   </g>
   <g id="legend_1">
    <g id="patch_7">
     <path d="M 54.018 150.903125 
L 152.852375 150.903125 
Q 154.852375 150.903125 154.852375 148.903125 
L 154.852375 17.8 
Q 154.852375 15.8 152.852375 15.8 
L 54.018 15.8 
Q 52.018 15.8 52.018 17.8 
L 52.018 148.903125 
Q 52.018 150.903125 54.018 150.903125 
z
" style="fill: #ffffff; opacity: 0.8; stroke: #cccccc; stroke-linejoin: miter"/>
    </g>
    <g id="line2d_20">
     <path d="M 56.018 23.898438 
L 66.018 23.898438 
L 76.018 23.898438 
" style="fill: none; stroke: #1f77b4; stroke-width: 1.5; stroke-linecap: square"/>
    </g>
    <g id="text_14">
     <!-- Ts=80 K -->
     <g transform="translate(84.018 27.398438) scale(0.1 -0.1)">
      <defs>
       <path id="DejaVuSans-54" d="M -19 4666 
L 3928 4666 
L 3928 4134 
L 2272 4134 
L 2272 0 
L 1638 0 
L 1638 4134 
L -19 4134 
L -19 4666 
z
" transform="scale(0.015625)"/>
       <path id="DejaVuSans-73" d="M 2834 3397 
L 2834 2853 
Q 2591 2978 2328 3040 
Q 2066 3103 1784 3103 
Q 1356 3103 1142 2972 
Q 928 2841 928 2578 
Q 928 2378 1081 2264 
Q 1234 2150 1697 2047 
L 1894 2003 
Q 2506 1872 2764 1633 
Q 3022 1394 3022 966 
Q 3022 478 2636 193 
Q 2250 -91 1575 -91 
Q 1294 -91 989 -36 
Q 684 19 347 128 
L 347 722 
Q 666 556 975 473 
Q 1284 391 1588 391 
Q 1994 391 2212 530 
Q 2431 669 2431 922 
Q 2431 1156 2273 1281 
Q 2116 1406 1581 1522 
L 1381 1569 
Q 847 1681 609 1914 
Q 372 2147 372 2553 
Q 372 3047 722 3315 
Q 1072 3584 1716 3584 
Q 2034 3584 2315 3537 
Q 2597 3491 2834 3397 
z
" transform="scale(0.015625)"/>
       <path id="DejaVuSans-3d" d="M 678 2906 
L 4684 2906 
L 4684 2381 
L 678 2381 
L 678 2906 
z
M 678 1631 
L 4684 1631 
L 4684 1100 
L 678 1100 
L 678 1631 
z
" transform="scale(0.015625)"/>
       <path id="DejaVuSans-38" d="M 2034 2216 
Q 1584 2216 1326 1975 
Q 1069 1734 1069 1313 
Q 1069 891 1326 650 
Q 1584 409 2034 409 
Q 2484 409 2743 651 
Q 3003 894 3003 1313 
Q 3003 1734 2745 1975 
Q 2488 2216 2034 2216 
z
M 1403 2484 
Q 997 2584 770 2862 
Q 544 3141 544 3541 
Q 544 4100 942 4425 
Q 1341 4750 2034 4750 
Q 2731 4750 3128 4425 
Q 3525 4100 3525 3541 
Q 3525 3141 3298 2862 
Q 3072 2584 2669 2484 
Q 3125 2378 3379 2068 
Q 3634 1759 3634 1313 
Q 3634 634 3220 271 
Q 2806 -91 2034 -91 
Q 1263 -91 848 271 
Q 434 634 434 1313 
Q 434 1759 690 2068 
Q 947 2378 1403 2484 
z
M 1172 3481 
Q 1172 3119 1398 2916 
Q 1625 2713 2034 2713 
Q 2441 2713 2670 2916 
Q 2900 3119 2900 3481 
Q 2900 3844 2670 4047 
Q 2441 4250 2034 4250 
Q 1625 4250 1398 4047 
Q 1172 3844 1172 3481 
z
" transform="scale(0.015625)"/>
       <path id="DejaVuSans-4b" d="M 628 4666 
L 1259 4666 
L 1259 2694 
L 3353 4666 
L 4166 4666 
L 1850 2491 
L 4331 0 
L 3500 0 
L 1259 2247 
L 1259 0 
L 628 0 
L 628 4666 
z
" transform="scale(0.015625)"/>
      </defs>
      <use xlink:href="#DejaVuSans-54"/>
      <use xlink:href="#DejaVuSans-73" transform="translate(44.583984 0)"/>
      <use xlink:href="#DejaVuSans-3d" transform="translate(96.683594 0)"/>
      <use xlink:href="#DejaVuSans-38" transform="translate(180.472656 0)"/>
      <use xlink:href="#DejaVuSans-30" transform="translate(244.095703 0)"/>
      <use xlink:href="#DejaVuSans-20" transform="translate(307.71875 0)"/>
      <use xlink:href="#DejaVuSans-4b" transform="translate(339.505859 0)"/>
     </g>
    </g>
    <g id="line2d_21">
     <path d="M 56.018 38.576563 
L 66.018 38.576563 
L 76.018 38.576563 
" style="fill: none; stroke: #ff7f0e; stroke-width: 1.5; stroke-linecap: square"/>
    </g>
    <g id="text_15">
     <!-- Ts=100 K -->
     <g transform="translate(84.018 42.076563) scale(0.1 -0.1)">
      <use xlink:href="#DejaVuSans-54"/>
      <use xlink:href="#DejaVuSans-73" transform="translate(44.583984 0)"/>
      <use xlink:href="#DejaVuSans-3d" transform="translate(96.683594 0)"/>
      <use xlink:href="#DejaVuSans-31" transform="translate(180.472656 0)"/>
      <use xlink:href="#DejaVuSans-30" transform="translate(244.095703 0)"/>
      <use xlink:href="#DejaVuSans-30" transform="translate(307.71875 0)"/>
      <use xlink:href="#DejaVuSans-20" transform="translate(371.341797 0)"/>
      <use xlink:href="#DejaVuSans-4b" transform="translate(403.128906 0)"/>
     </g>
    </g>
    <g id="line2d_22">
     <path d="M 56.018 53.254687 
L 66.018 53.254687 
L 76.018 53.254687 
" style="fill: none; stroke: #2ca02c; stroke-width: 1.5; stroke-linecap: square"/>
    </g>
    <g id="text_16">
     <!-- Ts=120 K -->
     <g transform="translate(84.018 56.754687) scale(0.1 -0.1)">
      <use xlink:href="#DejaVuSans-54"/>
      <use xlink:href="#DejaVuSans-73" transform="translate(44.583984 0)"/>
      <use xlink:href="#DejaVuSans-3d" transform="translate(96.683594 0)"/>
      <use xlink:href="#DejaVuSans-31" transform="translate(180.472656 0)"/>
      <use xlink:href="#DejaVuSans-32" transform="translate(244.095703 0)"/>
      <use xlink:href="#DejaVuSans-30" transform="translate(307.71875 0)"/>
      <use xlink:href="#DejaVuSans-20" transform="translate(371.341797 0)"/>
      <use xlink:href="#DejaVuSans-4b" transform="translate(403.128906 0)"/>
     </g>
    </g>
    <g id="line2d_23">
     <path d="M 56.018 67.932813 
L 66.018 67.932813 
L 76.018 67.932813 
" style="fill: none; stroke: #d62728; stroke-width: 1.5; stroke-linecap: square"/>
    </g>
    <g id="text_17">
     <!-- Ts=140 K -->
     <g transform="translate(84.018 71.432813) scale(0.1 -0.1)">
      <use xlink:href="#DejaVuSans-54"/>
      <use xlink:href="#DejaVuSans-73" transform="translate(44.583984 0)"/>
      <use xlink:href="#DejaVuSans-3d" transform="translate(96.683594 0)"/>
      <use xlink:href="#DejaVuSans-31" transform="translate(180.472656 0)"/>
      <use xlink:href="#DejaVuSans-34" transform="translate(244.095703 0)"/>
      <use xlink:href="#DejaVuSans-30" transform="translate(307.71875 0)"/>
      <use xlink:href="#DejaVuSans-20" transform="translate(371.341797 0)"/>
      <use xlink:href="#DejaVuSans-4b" transform="translate(403.128906 0)"/>
     </g>
    </g>
    <g id="line2d_24">
     <path d="M 56.018 82.610938 
L 66.018 82.610938 
L 76.018 82.610938 
" style="fill: none; stroke: #9467bd; stroke-width: 1.5; stroke-linecap: square"/>
    </g>
    <g id="text_18">
     <!-- Ts=160 K -->
     <g transform="translate(84.018 86.110938) scale(0.1 -0.1)">
      <defs>
       <path id="DejaVuSans-36" d="M 2113 2584 
Q 1688 2584 1439 2293 
Q 1191 2003 1191 1497 
Q 1191 994 1439 701 
Q 1688 409 2113 409 
Q 2538 409 2786 701 
Q 3034 994 3034 1497 
Q 3034 2003 2786 2293 
Q 2538 2584 2113 2584 
z
M 3366 4563 
L 3366 3988 
Q 3128 4100 2886 4159 
Q 2644 4219 2406 4219 
Q 1781 4219 1451 3797 
Q 1122 3375 1075 2522 
Q 1259 2794 1537 2939 
Q 1816 3084 2150 3084 
Q 2853 3084 3261 2657 
Q 3669 2231 3669 1497 
Q 3669 778 3244 343 
Q 2819 -91 2113 -91 
Q 1303 -91 875 529 
Q 447 1150 447 2328 
Q 447 3434 972 4092 
Q 1497 4750 2381 4750 
Q 2619 4750 2861 4703 
Q 3103 4656 3366 4563 
z
" transform="scale(0.015625)"/>
      </defs>
      <use xlink:href="#DejaVuSans-54"/>
      <use xlink:href="#DejaVuSans-73" transform="translate(44.583984 0)"/>
      <use xlink:href="#DejaVuSans-3d" transform="translate(96.683594 0)"/>
      <use xlink:href="#DejaVuSans-31" transform="translate(180.472656 0)"/>
      <use xlink:href="#DejaVuSans-36" transform="translate(244.095703 0)"/>
      <use xlink:href="#DejaVuSans-30" transform="translate(307.71875 0)"/>
      <use xlink:href="#DejaVuSans-20" transform="translate(371.341797 0)"/>
      <use xlink:href="#DejaVuSans-4b" transform="translate(403.128906 0)"/>
     </g>
    </g>
    <g id="line2d_25">
     <path d="M 56.018 97.289062 
L 66.018 97.289062 
L 76.018 97.289062 
" style="fill: none; stroke: #8c564b; stroke-width: 1.5; stroke-linecap: square"/>
    </g>
    <g id="text_19">
     <!-- Ts=180 K -->
     <g transform="translate(84.018 100.789062) scale(0.1 -0.1)">
      <use xlink:href="#DejaVuSans-54"/>
      <use xlink:href="#DejaVuSans-73" transform="translate(44.583984 0)"/>
      <use xlink:href="#DejaVuSans-3d" transform="translate(96.683594 0)"/>
      <use xlink:href="#DejaVuSans-31" transform="translate(180.472656 0)"/>
      <use xlink:href="#DejaVuSans-38" transform="translate(244.095703 0)"/>
      <use xlink:href="#DejaVuSans-30" transform="translate(307.71875 0)"/>
      <use xlink:href="#DejaVuSans-20" transform="translate(371.341797 0)"/>
      <use xlink:href="#DejaVuSans-4b" transform="translate(403.128906 0)"/>
     </g>
    </g>
    <g id="line2d_26">
     <path d="M 56.018 111.967187 
L 66.018 111.967187 
L 76.018 111.967187 
" style="fill: none; stroke: #e377c2; stroke-width: 1.5; stroke-linecap: square"/>
    </g>
    <g id="text_20">
     <!-- Ts=200 K -->
     <g transform="translate(84.018 115.467187) scale(0.1 -0.1)">
      <use xlink:href="#DejaVuSans-54"/>
      <use xlink:href="#DejaVuSans-73" transform="translate(44.583984 0)"/>
      <use xlink:href="#DejaVuSans-3d" transform="translate(96.683594 0)"/>
      <use xlink:href="#DejaVuSans-32" transform="translate(180.472656 0)"/>
      <use xlink:href="#DejaVuSans-30" transform="translate(244.095703 0)"/>
      <use xlink:href="#DejaVuSans-30" transform="translate(307.71875 0)"/>
      <use xlink:href="#DejaVuSans-20" transform="translate(371.341797 0)"/>
      <use xlink:href="#DejaVuSans-4b" transform="translate(403.128906 0)"/>
     </g>
    </g>
    <g id="line2d_27">
     <path d="M 56.018 126.645312 
L 66.018 126.645312 
L 76.018 126.645312 
" style="fill: none; stroke: #7f7f7f; stroke-width: 1.5; stroke-linecap: square"/>
    </g>
    <g id="text_21">
     <!-- Ts=220 K -->
     <g transform="translate(84.018 130.145312) scale(0.1 -0.1)">
      <use xlink:href="#DejaVuSans-54"/>
      <use xlink:href="#DejaVuSans-73" transform="translate(44.583984 0)"/>
      <use xlink:href="#DejaVuSans-3d" transform="translate(96.683594 0)"/>
      <use xlink:href="#DejaVuSans-32" transform="translate(180.472656 0)"/>
      <use xlink:href="#DejaVuSans-32" transform="translate(244.095703 0)"/>
      <use xlink:href="#DejaVuSans-30" transform="translate(307.71875 0)"/>
      <use xlink:href="#DejaVuSans-20" transform="translate(371.341797 0)"/>
      <use xlink:href="#DejaVuSans-4b" transform="translate(403.128906 0)"/>
     </g>
    </g>
    <g id="PathCollection_9">
     <g>
      <use xlink:href="#m749c2cef61" x="66.018" y="142.198437" style="fill-opacity: 0.7; stroke: #000000; stroke-opacity: 0.7"/>
     </g>
    </g>
    <g id="text_22">
     <!-- Artificial data -->
     <g transform="translate(84.018 144.823437) scale(0.1 -0.1)">
      <defs>
       <path id="DejaVuSans-41" d="M 2188 4044 
L 1331 1722 
L 3047 1722 
L 2188 4044 
z
M 1831 4666 
L 2547 4666 
L 4325 0 
L 3669 0 
L 3244 1197 
L 1141 1197 
L 716 0 
L 50 0 
L 1831 4666 
z
" transform="scale(0.015625)"/>
       <path id="DejaVuSans-74" d="M 1172 4494 
L 1172 3500 
L 2356 3500 
L 2356 3053 
L 1172 3053 
L 1172 1153 
Q 1172 725 1289 603 
Q 1406 481 1766 481 
L 2356 481 
L 2356 0 
L 1766 0 
Q 1100 0 847 248 
Q 594 497 594 1153 
L 594 3053 
L 172 3053 
L 172 3500 
L 594 3500 
L 594 4494 
L 1172 4494 
z
" transform="scale(0.015625)"/>
       <path id="DejaVuSans-69" d="M 603 3500 
L 1178 3500 
L 1178 0 
L 603 0 
L 603 3500 
z
M 603 4863 
L 1178 4863 
L 1178 4134 
L 603 4134 
L 603 4863 
z
" transform="scale(0.015625)"/>
       <path id="DejaVuSans-66" d="M 2375 4863 
L 2375 4384 
L 1825 4384 
Q 1516 4384 1395 4259 
Q 1275 4134 1275 3809 
L 1275 3500 
L 2222 3500 
L 2222 3053 
L 1275 3053 
L 1275 0 
L 697 0 
L 697 3053 
L 147 3053 
L 147 3500 
L 697 3500 
L 697 3744 
Q 697 4328 969 4595 
Q 1241 4863 1831 4863 
L 2375 4863 
z
" transform="scale(0.015625)"/>
       <path id="DejaVuSans-63" d="M 3122 3366 
L 3122 2828 
Q 2878 2963 2633 3030 
Q 2388 3097 2138 3097 
Q 1578 3097 1268 2742 
Q 959 2388 959 1747 
Q 959 1106 1268 751 
Q 1578 397 2138 397 
Q 2388 397 2633 464 
Q 2878 531 3122 666 
L 3122 134 
Q 2881 22 2623 -34 
Q 2366 -91 2075 -91 
Q 1284 -91 818 406 
Q 353 903 353 1747 
Q 353 2603 823 3093 
Q 1294 3584 2113 3584 
Q 2378 3584 2631 3529 
Q 2884 3475 3122 3366 
z
" transform="scale(0.015625)"/>
       <path id="DejaVuSans-61" d="M 2194 1759 
Q 1497 1759 1228 1600 
Q 959 1441 959 1056 
Q 959 750 1161 570 
Q 1363 391 1709 391 
Q 2188 391 2477 730 
Q 2766 1069 2766 1631 
L 2766 1759 
L 2194 1759 
z
M 3341 1997 
L 3341 0 
L 2766 0 
L 2766 531 
Q 2569 213 2275 61 
Q 1981 -91 1556 -91 
Q 1019 -91 701 211 
Q 384 513 384 1019 
Q 384 1609 779 1909 
Q 1175 2209 1959 2209 
L 2766 2209 
L 2766 2266 
Q 2766 2663 2505 2880 
Q 2244 3097 1772 3097 
Q 1472 3097 1187 3025 
Q 903 2953 641 2809 
L 641 3341 
Q 956 3463 1253 3523 
Q 1550 3584 1831 3584 
Q 2591 3584 2966 3190 
Q 3341 2797 3341 1997 
z
" transform="scale(0.015625)"/>
       <path id="DejaVuSans-6c" d="M 603 4863 
L 1178 4863 
L 1178 0 
L 603 0 
L 603 4863 
z
" transform="scale(0.015625)"/>
       <path id="DejaVuSans-64" d="M 2906 2969 
L 2906 4863 
L 3481 4863 
L 3481 0 
L 2906 0 
L 2906 525 
Q 2725 213 2448 61 
Q 2172 -91 1784 -91 
Q 1150 -91 751 415 
Q 353 922 353 1747 
Q 353 2572 751 3078 
Q 1150 3584 1784 3584 
Q 2172 3584 2448 3432 
Q 2725 3281 2906 2969 
z
M 947 1747 
Q 947 1113 1208 752 
Q 1469 391 1925 391 
Q 2381 391 2643 752 
Q 2906 1113 2906 1747 
Q 2906 2381 2643 2742 
Q 2381 3103 1925 3103 
Q 1469 3103 1208 2742 
Q 947 2381 947 1747 
z
" transform="scale(0.015625)"/>
      </defs>
      <use xlink:href="#DejaVuSans-41"/>
      <use xlink:href="#DejaVuSans-72" transform="translate(68.408203 0)"/>
      <use xlink:href="#DejaVuSans-74" transform="translate(109.521484 0)"/>
      <use xlink:href="#DejaVuSans-69" transform="translate(148.730469 0)"/>
      <use xlink:href="#DejaVuSans-66" transform="translate(176.513672 0)"/>
      <use xlink:href="#DejaVuSans-69" transform="translate(211.71875 0)"/>
      <use xlink:href="#DejaVuSans-63" transform="translate(239.501953 0)"/>
      <use xlink:href="#DejaVuSans-69" transform="translate(294.482422 0)"/>
      <use xlink:href="#DejaVuSans-61" transform="translate(322.265625 0)"/>
      <use xlink:href="#DejaVuSans-6c" transform="translate(383.544922 0)"/>
      <use xlink:href="#DejaVuSans-20" transform="translate(411.328125 0)"/>
      <use xlink:href="#DejaVuSans-64" transform="translate(443.115234 0)"/>
      <use xlink:href="#DejaVuSans-61" transform="translate(506.591797 0)"/>
      <use xlink:href="#DejaVuSans-74" transform="translate(567.871094 0)"/>
      <use xlink:href="#DejaVuSans-61" transform="translate(607.080078 0)"/>
     </g>
    </g>
   </g>
  </g>
 </g>
 <defs>
  <clipPath id="pc5c74f0291">
   <rect x="47.018" y="10.8" width="402.982" height="291.4"/>
  </clipPath>
 </defs>
</svg>
