<?xml version="1.0" encoding="utf-8" standalone="no"?>
<!DOCTYPE svg PUBLIC "-//W3C//DTD SVG 1.1//EN"
  "http://www.w3.org/Graphics/SVG/1.1/DTD/svg11.dtd">
<svg xmlns:xlink="http://www.w3.org/1999/xlink" width="460.8pt" height="345.6pt" viewBox="0 0 460.8 345.6" xmlns="http://www.w3.org/2000/svg" version="1.1">
 <metadata>
  <rdf:RDF xmlns:dc="http://purl.org/dc/elements/1.1/" xmlns:cc="http://creativecommons.org/ns#" xmlns:rdf="http://www.w3.org/1999/02/22-rdf-syntax-ns#">
   <cc:Work>
    <dc:type rdf:resource="http://purl.org/dc/dcmitype/StillImage"/>
    <dc:date>2026-02-12T01:21:45.228944</dc:date>
    <dc:format>image/svg+xml</dc:format>
    <dc:creator>
     <cc:Agent>
      <dc:title>Matplotlib v3.10.8, https://matplotlib.org/</dc:title>
     </cc:Agent>
    </dc:creator>
   </cc:Work>
  </rdf:RDF>
 </metadata>
 <defs>
  <style type="text/css">*{stroke-linejoin: round; stroke-linecap: butt}</style>
 </defs>
 <g id="figure_1">
  <g id="patch_1">
   <path d="M 0 345.6 
L 460.8 345.6 
L 460.8 0 
L 0 0 
L 0 345.6 
z
" style="fill: none"/>
  </g>
  <g id="axes_1">
   <g id="patch_2">
    <path d="M 47.018 302.2 
L 450 302.2 
L 450 10.8 
L 47.018 10.8 
L 47.018 302.2 
z
" style="fill: none"/>
   </g>
   <g id="FillBetweenPolyCollection_1">
    <path d="M 65.335364 205.89596 
L 65.335364 208.97603 
L 72.811839 194.125247 
L 80.288314 181.83173 
L 87.764788 171.615449 
L 95.241263 163.232302 
L 102.717738 156.232964 
L 110.194213 150.355021 
L 117.670688 144.85923 
L 125.147163 140.094038 
L 132.623638 135.253316 
L 140.100113 130.814715 
L 147.576588 126.648248 
L 155.053063 122.55345 
L 162.529538 118.70333 
L 170.006013 114.896963 
L 177.482488 111.196915 
L 184.958963 107.821229 
L 192.435438 104.359775 
L 199.911913 101.251322 
L 207.388388 98.036112 
L 214.864863 95.093219 
L 222.341338 92.07317 
L 229.817813 89.059039 
L 237.294288 86.192544 
L 244.770763 83.417204 
L 252.247237 80.70981 
L 259.723712 78.031798 
L 267.200187 75.320408 
L 274.676662 72.855352 
L 282.153137 70.457808 
L 289.629612 67.809576 
L 297.106087 65.485137 
L 304.582562 63.053701 
L 312.059037 60.677905 
L 319.535512 58.328149 
L 327.011987 56.082578 
L 334.488462 53.819933 
L 341.964937 51.577185 
L 349.441412 49.422174 
L 356.917887 47.298335 
L 364.394362 45.136845 
L 371.870837 43.236235 
L 379.347312 41.236828 
L 386.823787 38.985467 
L 394.300262 37.036689 
L 401.776737 34.899069 
L 409.253212 33.064398 
L 416.729686 31.094547 
L 424.206161 29.352037 
L 431.682636 27.194631 
L 431.682636 24.045455 
L 431.682636 24.045455 
L 424.206161 25.306103 
L 416.729686 27.306729 
L 409.253212 29.425014 
L 401.776737 31.656087 
L 394.300262 33.920414 
L 386.823787 35.896047 
L 379.347312 38.015201 
L 371.870837 40.019329 
L 364.394362 42.168071 
L 356.917887 44.326846 
L 349.441412 46.451521 
L 341.964937 48.571913 
L 334.488462 50.708012 
L 327.011987 53.028357 
L 319.535512 55.417367 
L 312.059037 57.597332 
L 304.582562 60.055009 
L 297.106087 62.416193 
L 289.629612 64.892855 
L 282.153137 67.347719 
L 274.676662 69.78029 
L 267.200187 72.340836 
L 259.723712 74.957887 
L 252.247237 77.629174 
L 244.770763 80.436608 
L 237.294288 83.256226 
L 229.817813 86.124722 
L 222.341338 89.078159 
L 214.864863 92.095115 
L 207.388388 95.11899 
L 199.911913 98.252433 
L 192.435438 101.454899 
L 184.958963 104.82568 
L 177.482488 108.269802 
L 170.006013 111.868419 
L 162.529538 115.694333 
L 155.053063 119.397142 
L 147.576588 123.575266 
L 140.100113 127.768136 
L 132.623638 132.216061 
L 125.147163 136.905111 
L 117.670688 141.637678 
L 110.194213 147.246011 
L 102.717738 153.20063 
L 95.241263 160.182315 
L 87.764788 168.286906 
L 80.288314 178.094672 
L 72.811839 190.361444 
L 65.335364 205.89596 
z
" clip-path="url(#p6ea4a0e714)" style="fill: #1f77b4; fill-opacity: 0.27"/>
   </g>
   <g id="FillBetweenPolyCollection_2">
    <path d="M 65.335364 207.347214 
L 65.335364 207.566355 
L 72.811839 192.361064 
L 80.288314 180.112225 
L 87.764788 170.15661 
L 95.241263 161.930671 
L 102.717738 154.973906 
L 110.194213 148.92539 
L 117.670688 143.514962 
L 125.147163 138.550619 
L 132.623638 133.90392 
L 140.100113 129.494912 
L 147.576588 125.277887 
L 155.053063 121.228968 
L 162.529538 117.336122 
L 170.006013 113.592065 
L 177.482488 109.990001 
L 184.958963 106.520999 
L 192.435438 103.173782 
L 199.911913 99.935508 
L 207.388388 96.793128 
L 214.864863 93.734784 
L 222.341338 90.750877 
L 229.817813 87.834571 
L 237.294288 84.981679 
L 244.770763 82.19004 
L 252.247237 79.458585 
L 259.723712 76.78632 
L 267.200187 74.171491 
L 274.676662 71.611105 
L 282.153137 69.100898 
L 289.629612 66.635758 
L 297.106087 64.210478 
L 304.582562 61.820631 
L 312.059037 59.463377 
L 319.535512 57.137926 
L 327.011987 54.845521 
L 334.488462 52.588847 
L 341.964937 50.370915 
L 349.441412 48.193611 
L 356.917887 46.056201 
L 364.394362 43.954192 
L 371.870837 41.878966 
L 379.347312 39.818603 
L 386.823787 37.760204 
L 394.300262 35.693886 
L 401.776737 33.618411 
L 409.253212 31.548222 
L 416.729686 29.521375 
L 424.206161 27.607741 
L 431.682636 25.916601 
L 431.682636 25.357519 
L 431.682636 25.357519 
L 424.206161 27.05151 
L 416.729686 28.968368 
L 409.253212 30.998624 
L 401.776737 33.072291 
L 394.300262 35.151247 
L 386.823787 37.221037 
L 379.347312 39.282901 
L 371.870837 41.346742 
L 364.394362 43.425479 
L 356.917887 45.531053 
L 349.441412 47.672093 
L 341.964937 49.853095 
L 334.488462 52.074793 
L 327.011987 54.335297 
L 319.535512 56.63159 
L 312.059037 58.960983 
L 304.582562 61.322235 
L 297.106087 63.716141 
L 289.629612 66.14555 
L 282.153137 68.614896 
L 274.676662 71.129399 
L 267.200187 73.694182 
L 259.723712 76.313508 
L 252.247237 78.99038 
L 244.770763 81.726548 
L 237.294288 84.523004 
L 229.817813 87.380824 
L 222.341338 90.302168 
L 214.864863 93.291237 
L 207.388388 96.354887 
L 199.911913 99.502741 
L 192.435438 102.746681 
L 184.958963 106.099788 
L 177.482488 109.574932 
L 170.006013 113.183407 
L 162.529538 116.934155 
L 155.053063 120.834152 
L 147.576588 124.890608 
L 140.100113 129.115533 
L 132.623638 133.533169 
L 125.147163 138.188987 
L 117.670688 143.163116 
L 110.194213 148.584292 
L 102.717738 154.644973 
L 95.241263 161.615993 
L 87.764788 169.859169 
L 80.288314 179.836132 
L 72.811839 192.110595 
L 65.335364 207.347214 
z
" clip-path="url(#p6ea4a0e714)" style="fill: #ff7f0e; fill-opacity: 0.45"/>
   </g>
   <g id="FillBetweenPolyCollection_3">
    <path d="M 65.335364 242.563631 
L 65.335364 245.431292 
L 72.811839 237.819706 
L 80.288314 231.209248 
L 87.764788 225.652558 
L 95.241263 221.231844 
L 102.717738 217.492607 
L 110.194213 214.23503 
L 117.670688 211.157238 
L 125.147163 208.563031 
L 132.623638 206.033511 
L 140.100113 203.569459 
L 147.576588 201.288226 
L 155.053063 199.071872 
L 162.529538 196.966528 
L 170.006013 194.967464 
L 177.482488 192.898904 
L 184.958963 190.946569 
L 192.435438 189.265203 
L 199.911913 187.571901 
L 207.388388 185.750339 
L 214.864863 184.146571 
L 222.341338 182.55228 
L 229.817813 180.818494 
L 237.294288 179.296538 
L 244.770763 177.661899 
L 252.247237 176.181988 
L 259.723712 174.75303 
L 267.200187 173.303327 
L 274.676662 171.9498 
L 282.153137 170.644696 
L 289.629612 169.206287 
L 297.106087 167.889729 
L 304.582562 166.479148 
L 312.059037 165.270414 
L 319.535512 163.91264 
L 327.011987 162.77003 
L 334.488462 161.540397 
L 341.964937 160.423663 
L 349.441412 159.128248 
L 356.917887 157.888541 
L 364.394362 156.799077 
L 371.870837 155.581176 
L 379.347312 154.470434 
L 386.823787 153.232966 
L 394.300262 152.135845 
L 401.776737 151.281606 
L 409.253212 150.296086 
L 416.729686 149.317499 
L 424.206161 148.35045 
L 431.682636 146.905661 
L 431.682636 143.830491 
L 431.682636 143.830491 
L 424.206161 144.242937 
L 416.729686 145.233429 
L 409.253212 146.57324 
L 401.776737 147.878527 
L 394.300262 149.171123 
L 386.823787 150.311059 
L 379.347312 151.29587 
L 371.870837 152.592669 
L 364.394362 153.614881 
L 356.917887 154.866273 
L 349.441412 156.045332 
L 341.964937 157.305328 
L 334.488462 158.574328 
L 327.011987 159.733242 
L 319.535512 160.951008 
L 312.059037 162.325928 
L 304.582562 163.5247 
L 297.106087 164.804474 
L 289.629612 166.233892 
L 282.153137 167.546116 
L 274.676662 168.970263 
L 267.200187 170.364698 
L 259.723712 171.784372 
L 252.247237 173.149715 
L 244.770763 174.709589 
L 237.294288 176.167254 
L 229.817813 177.902102 
L 222.341338 179.490836 
L 214.864863 181.103833 
L 207.388388 182.848222 
L 199.911913 184.487714 
L 192.435438 186.008491 
L 184.958963 188.023674 
L 177.482488 189.945075 
L 170.006013 191.988341 
L 162.529538 193.964039 
L 155.053063 195.906992 
L 147.576588 198.30331 
L 140.100113 200.607785 
L 132.623638 203.079724 
L 125.147163 205.478132 
L 117.670688 208.196763 
L 110.194213 211.078628 
L 102.717738 214.581059 
L 95.241263 218.13108 
L 87.764788 222.428242 
L 80.288314 227.567265 
L 72.811839 234.02449 
L 65.335364 242.563631 
z
" clip-path="url(#p6ea4a0e714)" style="fill: #2ca02c; fill-opacity: 0.27"/>
   </g>
   <g id="FillBetweenPolyCollection_4">
    <path d="M 65.335364 243.890313 
L 65.335364 244.018746 
L 72.811839 236.000622 
L 80.288314 229.504624 
L 87.764788 224.195168 
L 95.241263 219.78548 
L 102.717738 216.039829 
L 110.194213 212.772295 
L 117.670688 209.842725 
L 125.147163 207.15073 
L 132.623638 204.628541 
L 140.100113 202.23351 
L 147.576588 199.940942 
L 155.053063 197.737789 
L 162.529538 195.617518 
L 170.006013 193.576349 
L 177.482488 191.610821 
L 184.958963 189.716542 
L 192.435438 187.887881 
L 199.911913 186.118292 
L 207.388388 184.400967 
L 214.864863 182.729564 
L 222.341338 181.098785 
L 229.817813 179.504695 
L 237.294288 177.944734 
L 244.770763 176.417463 
L 252.247237 174.922131 
L 259.723712 173.45818 
L 267.200187 172.024799 
L 274.676662 170.620643 
L 282.153137 169.243763 
L 289.629612 167.891744 
L 297.106087 166.562026 
L 304.582562 165.252309 
L 312.059037 163.960942 
L 319.535512 162.687175 
L 327.011987 161.431208 
L 334.488462 160.193969 
L 341.964937 158.976645 
L 349.441412 157.780043 
L 356.917887 156.603907 
L 364.394362 155.446366 
L 371.870837 154.303717 
L 379.347312 153.170731 
L 386.823787 152.041635 
L 394.300262 150.911854 
L 401.776737 149.780513 
L 409.253212 148.653599 
L 416.729686 147.547558 
L 424.206161 146.493038 
L 431.682636 145.538386 
L 431.682636 145.111955 
L 431.682636 145.111955 
L 424.206161 146.069361 
L 416.729686 147.126947 
L 409.253212 148.236223 
L 401.776737 149.366449 
L 394.300262 150.501128 
L 386.823787 151.634252 
L 379.347312 152.766691 
L 371.870837 153.903031 
L 364.394362 155.049056 
L 356.917887 156.210009 
L 349.441412 157.389601 
L 341.964937 158.589709 
L 334.488462 159.810595 
L 327.011987 161.051452 
L 319.535512 162.311091 
L 312.059037 163.588588 
L 304.582562 164.883745 
L 297.106087 166.197316 
L 289.629612 167.530959 
L 282.153137 168.886979 
L 274.676662 170.267932 
L 267.200187 171.676199 
L 259.723712 173.113779 
L 252.247237 174.582018 
L 244.770763 176.081727 
L 237.294288 177.613466 
L 229.817813 179.177992 
L 222.341338 180.776744 
L 214.864863 182.412295 
L 207.388388 184.088596 
L 199.911913 185.810967 
L 192.435438 187.585774 
L 184.958963 189.419844 
L 177.482488 191.319746 
L 170.006013 193.291125 
L 162.529538 195.338385 
L 155.053063 197.464992 
L 147.576588 199.67473 
L 140.100113 201.974149 
L 132.623638 204.37634 
L 125.147163 206.906073 
L 117.670688 209.606146 
L 110.194213 212.544564 
L 102.717738 215.822064 
L 95.241263 219.579288 
L 87.764788 224.00281 
L 80.288314 229.329181 
L 72.811839 235.846128 
L 65.335364 243.890313 
z
" clip-path="url(#p6ea4a0e714)" style="fill: #d62728; fill-opacity: 0.45"/>
   </g>
   <g id="FillBetweenPolyCollection_5">
    <path d="M 65.335364 262.92964 
L 65.335364 266.287982 
L 72.811839 263.323429 
L 80.288314 260.851573 
L 87.764788 258.397913 
L 95.241263 256.606557 
L 102.717738 255.192292 
L 110.194213 254.011892 
L 117.670688 252.931143 
L 125.147163 251.703024 
L 132.623638 250.511992 
L 140.100113 249.628049 
L 147.576588 248.800661 
L 155.053063 247.911434 
L 162.529538 247.204404 
L 170.006013 246.250768 
L 177.482488 245.335946 
L 184.958963 244.63176 
L 192.435438 244.010891 
L 199.911913 243.265922 
L 207.388388 242.533486 
L 214.864863 241.971953 
L 222.341338 241.367846 
L 229.817813 240.649755 
L 237.294288 239.943412 
L 244.770763 239.42771 
L 252.247237 238.940651 
L 259.723712 238.19448 
L 267.200187 237.678414 
L 274.676662 237.06937 
L 282.153137 236.414556 
L 289.629612 235.817072 
L 297.106087 235.496857 
L 304.582562 234.863685 
L 312.059037 234.398188 
L 319.535512 233.953428 
L 327.011987 233.320984 
L 334.488462 233.047167 
L 341.964937 232.51379 
L 349.441412 231.820283 
L 356.917887 231.356242 
L 364.394362 231.090267 
L 371.870837 230.556723 
L 379.347312 230.117282 
L 386.823787 229.6367 
L 394.300262 229.205704 
L 401.776737 228.783065 
L 409.253212 228.508903 
L 416.729686 228.25479 
L 424.206161 227.834583 
L 431.682636 227.093031 
L 431.682636 223.666832 
L 431.682636 223.666832 
L 424.206161 223.778367 
L 416.729686 224.226005 
L 409.253212 224.748953 
L 401.776737 225.500484 
L 394.300262 225.963627 
L 386.823787 226.324403 
L 379.347312 226.829366 
L 371.870837 227.269344 
L 364.394362 227.70657 
L 356.917887 228.18768 
L 349.441412 228.671111 
L 341.964937 229.119199 
L 334.488462 229.608712 
L 327.011987 230.135225 
L 319.535512 230.709014 
L 312.059037 231.18804 
L 304.582562 231.752639 
L 297.106087 232.239107 
L 289.629612 232.620246 
L 282.153137 233.28482 
L 274.676662 233.677113 
L 267.200187 234.328255 
L 259.723712 234.888401 
L 252.247237 235.479016 
L 244.770763 236.136841 
L 237.294288 236.813237 
L 229.817813 237.400771 
L 222.341338 238.08048 
L 214.864863 238.796818 
L 207.388388 239.315192 
L 199.911913 239.88851 
L 192.435438 240.685921 
L 184.958963 241.377029 
L 177.482488 242.38491 
L 170.006013 242.976127 
L 162.529538 243.801427 
L 155.053063 244.539071 
L 147.576588 245.539369 
L 140.100113 246.44637 
L 132.623638 247.425383 
L 125.147163 248.353116 
L 117.670688 249.420103 
L 110.194213 250.590603 
L 102.717738 252.055362 
L 95.241263 253.443192 
L 87.764788 254.995549 
L 80.288314 256.921987 
L 72.811839 259.505893 
L 65.335364 262.92964 
z
" clip-path="url(#p6ea4a0e714)" style="fill: #9467bd; fill-opacity: 0.27"/>
   </g>
   <g id="FillBetweenPolyCollection_6">
    <path d="M 65.335364 264.538252 
L 65.335364 264.608526 
L 72.811839 261.475357 
L 80.288314 258.931166 
L 87.764788 256.846304 
L 95.241263 255.109952 
L 102.717738 253.631027 
L 110.194213 252.337718 
L 117.670688 251.175925 
L 125.147163 250.106922 
L 132.623638 249.104567 
L 140.100113 248.152401 
L 147.576588 247.240859 
L 155.053063 246.364826 
L 162.529538 245.521675 
L 170.006013 244.709811 
L 177.482488 243.927763 
L 184.958963 243.17371 
L 192.435438 242.445378 
L 199.911913 241.740177 
L 207.388388 241.055457 
L 214.864863 240.388779 
L 222.341338 239.738134 
L 229.817813 239.102044 
L 237.294288 238.479558 
L 244.770763 237.870141 
L 252.247237 237.273496 
L 259.723712 236.68937 
L 267.200187 236.117395 
L 274.676662 235.556979 
L 282.153137 235.007306 
L 289.629612 234.467392 
L 297.106087 233.936229 
L 304.582562 233.412943 
L 312.059037 232.896944 
L 319.535512 232.388012 
L 327.011987 231.8863 
L 334.488462 231.392225 
L 341.964937 230.906263 
L 349.441412 230.428689 
L 356.917887 229.959301 
L 364.394362 229.497217 
L 371.870837 229.040811 
L 379.347312 228.587873 
L 386.823787 228.136039 
L 394.300262 227.683531 
L 401.776737 227.230176 
L 409.253212 226.778684 
L 416.729686 226.336059 
L 424.206161 225.91503 
L 431.682636 225.535353 
L 431.682636 225.296886 
L 431.682636 225.296886 
L 424.206161 225.678155 
L 416.729686 226.100941 
L 409.253212 226.545409 
L 401.776737 226.998773 
L 394.300262 227.454004 
L 386.823787 227.908382 
L 379.347312 228.362078 
L 371.870837 228.81688 
L 364.394362 229.27516 
L 356.917887 229.739137 
L 349.441412 230.21044 
L 341.964937 230.689958 
L 334.488462 231.177891 
L 327.011987 231.673967 
L 319.535512 232.177706 
L 312.059037 232.688696 
L 304.582562 233.206785 
L 297.106087 233.732197 
L 289.629612 234.265529 
L 282.153137 234.807658 
L 274.676662 235.3596 
L 267.200187 235.922339 
L 259.723712 236.496699 
L 252.247237 237.083268 
L 244.770763 237.682415 
L 237.294288 238.29439 
L 229.817813 238.919491 
L 222.341338 239.558253 
L 214.864863 240.211632 
L 207.388388 240.881112 
L 199.911913 241.568713 
L 192.435438 242.276886 
L 184.958963 243.008297 
L 177.482488 243.765548 
L 170.006013 244.550921 
L 162.529538 245.366248 
L 155.053063 246.213004 
L 147.576588 247.092788 
L 140.100113 248.008237 
L 132.623638 248.964484 
L 125.147163 249.971139 
L 117.670688 251.044741 
L 110.194213 252.211555 
L 102.717738 253.510501 
L 95.241263 254.995952 
L 87.764788 256.740079 
L 80.288314 258.834427 
L 72.811839 261.390383 
L 65.335364 264.538252 
z
" clip-path="url(#p6ea4a0e714)" style="fill: #8c564b; fill-opacity: 0.45"/>
   </g>
   <g id="FillBetweenPolyCollection_7">
    <path d="M 65.335364 262.05565 
L 65.335364 288.621552 
L 72.811839 288.954545 
L 80.288314 287.465672 
L 87.764788 285.991201 
L 95.241263 286.116661 
L 102.717738 287.127174 
L 110.194213 286.43838 
L 117.670688 285.164066 
L 125.147163 285.605369 
L 132.623638 284.120713 
L 140.100113 285.08171 
L 147.576588 285.024906 
L 155.053063 284.830808 
L 162.529538 284.320471 
L 170.006013 284.90791 
L 177.482488 284.203573 
L 184.958963 283.533059 
L 192.435438 284.773606 
L 199.911913 283.221754 
L 207.388388 283.935856 
L 214.864863 284.008474 
L 222.341338 283.10804 
L 229.817813 283.780337 
L 237.294288 283.451623 
L 244.770763 283.349408 
L 252.247237 283.261587 
L 259.723712 283.246549 
L 267.200187 283.435882 
L 274.676662 282.326938 
L 282.153137 282.730614 
L 289.629612 281.936789 
L 297.106087 281.595151 
L 304.582562 282.553103 
L 312.059037 281.494624 
L 319.535512 282.000687 
L 327.011987 282.215568 
L 334.488462 280.956893 
L 341.964937 282.02814 
L 349.441412 281.323046 
L 356.917887 282.127392 
L 364.394362 281.760539 
L 371.870837 281.808043 
L 379.347312 280.050842 
L 386.823787 281.206025 
L 394.300262 281.132063 
L 401.776737 281.00373 
L 409.253212 280.396454 
L 416.729686 280.473768 
L 424.206161 281.58809 
L 431.682636 281.566109 
L 431.682636 253.586009 
L 431.682636 253.586009 
L 424.206161 253.300328 
L 416.729686 255.359109 
L 409.253212 254.244077 
L 401.776737 254.784024 
L 394.300262 254.259816 
L 386.823787 253.830498 
L 379.347312 255.036281 
L 371.870837 254.36171 
L 364.394362 255.133163 
L 356.917887 255.091907 
L 349.441412 254.668433 
L 341.964937 254.194776 
L 334.488462 254.8302 
L 327.011987 255.265451 
L 319.535512 254.946775 
L 312.059037 255.090805 
L 304.582562 255.438308 
L 297.106087 255.688334 
L 289.629612 255.488385 
L 282.153137 256.403859 
L 274.676662 255.457367 
L 267.200187 257.433701 
L 259.723712 256.513415 
L 252.247237 254.772563 
L 244.770763 255.74211 
L 237.294288 256.644171 
L 229.817813 256.97117 
L 222.341338 256.50255 
L 214.864863 257.251996 
L 207.388388 257.039766 
L 199.911913 257.194727 
L 192.435438 256.297012 
L 184.958963 257.507841 
L 177.482488 257.656894 
L 170.006013 257.654446 
L 162.529538 258.770758 
L 155.053063 258.134838 
L 147.576588 257.010262 
L 140.100113 258.189127 
L 132.623638 258.585256 
L 125.147163 259.964397 
L 117.670688 260.93273 
L 110.194213 259.228507 
L 102.717738 259.973239 
L 95.241263 260.323055 
L 87.764788 260.381942 
L 80.288314 261.233832 
L 72.811839 262.167132 
L 65.335364 262.05565 
z
" clip-path="url(#p6ea4a0e714)" style="fill: #e377c2; fill-opacity: 0.27"/>
   </g>
   <g id="FillBetweenPolyCollection_8">
    <path d="M 65.335364 275.517155 
L 65.335364 275.526282 
L 72.811839 274.795142 
L 80.288314 274.213868 
L 87.764788 273.752217 
L 95.241263 273.379153 
L 102.717738 273.07097 
L 110.194213 272.809116 
L 117.670688 272.579555 
L 125.147163 272.372225 
L 132.623638 272.180328 
L 140.100113 271.999561 
L 147.576588 271.827355 
L 155.053063 271.662206 
L 162.529538 271.503138 
L 170.006013 271.34933 
L 177.482488 271.199895 
L 184.958963 271.053818 
L 192.435438 270.909994 
L 199.911913 270.767353 
L 207.388388 270.625005 
L 214.864863 270.482381 
L 222.341338 270.339329 
L 229.817813 270.196147 
L 237.294288 270.053545 
L 244.770763 269.912547 
L 252.247237 269.774333 
L 259.723712 269.640071 
L 267.200187 269.51074 
L 274.676662 269.386991 
L 282.153137 269.269064 
L 289.629612 269.156764 
L 297.106087 269.04952 
L 304.582562 268.946499 
L 312.059037 268.846774 
L 319.535512 268.749575 
L 327.011987 268.654393 
L 334.488462 268.560971 
L 341.964937 268.469636 
L 349.441412 268.381177 
L 356.917887 268.296737 
L 364.394362 268.217577 
L 371.870837 268.144746 
L 379.347312 268.078742 
L 386.823787 268.019079 
L 394.300262 267.963877 
L 401.776737 267.909687 
L 409.253212 267.85048 
L 416.729686 267.778374 
L 424.206161 267.683093 
L 431.682636 267.552148 
L 431.682636 267.536229 
L 431.682636 267.536229 
L 424.206161 267.666977 
L 416.729686 267.762276 
L 409.253212 267.834332 
L 401.776737 267.893093 
L 394.300262 267.946343 
L 386.823787 267.999816 
L 379.347312 268.057792 
L 371.870837 268.121646 
L 364.394362 268.191424 
L 356.917887 268.267137 
L 349.441412 268.347888 
L 341.964937 268.432538 
L 334.488462 268.520076 
L 327.011987 268.609829 
L 319.535512 268.701578 
L 312.059037 268.795575 
L 304.582562 268.892463 
L 297.106087 268.993139 
L 289.629612 269.098572 
L 282.153137 269.209619 
L 274.676662 269.326855 
L 267.200187 269.450461 
L 259.723712 269.580171 
L 252.247237 269.715294 
L 244.770763 269.854799 
L 237.294288 269.997468 
L 229.817813 270.142059 
L 222.341338 270.287494 
L 214.864863 270.433006 
L 207.388388 270.578249 
L 199.911913 270.723329 
L 192.435438 270.86878 
L 184.958963 271.015459 
L 177.482488 271.164412 
L 170.006013 271.316719 
L 162.529538 271.473381 
L 155.053063 271.635266 
L 147.576588 271.803182 
L 140.100113 271.978094 
L 132.623638 272.161497 
L 125.147163 272.355961 
L 117.670688 272.565803 
L 110.194213 272.79785 
L 102.717738 273.062219 
L 95.241263 273.373033 
L 87.764788 273.748943 
L 80.288314 274.213239 
L 72.811839 274.790918 
L 65.335364 275.517155 
z
" clip-path="url(#p6ea4a0e714)" style="fill: #7f7f7f; fill-opacity: 0.45"/>
   </g>
   <g id="matplotlib.axis_1">
    <g id="xtick_1">
     <g id="line2d_1">
      <defs>
       <path id="mb4b1fe5af7" d="M 0 0 
L 0 3.5 
" style="stroke: #000000; stroke-width: 0.8"/>
      </defs>
      <g>
       <use xlink:href="#mb4b1fe5af7" x="61.634886" y="302.2" style="stroke: #000000; stroke-width: 0.8"/>
      </g>
     </g>
     <g id="text_1">
      <!-- 0 -->
      <g transform="translate(58.453636 316.798437) scale(0.1 -0.1)">
       <defs>
        <path id="DejaVuSans-30" d="M 2034 4250 
Q 1547 4250 1301 3770 
Q 1056 3291 1056 2328 
Q 1056 1369 1301 889 
Q 1547 409 2034 409 
Q 2525 409 2770 889 
Q 3016 1369 3016 2328 
Q 3016 3291 2770 3770 
Q 2525 4250 2034 4250 
z
M 2034 4750 
Q 2819 4750 3233 4129 
Q 3647 3509 3647 2328 
Q 3647 1150 3233 529 
Q 2819 -91 2034 -91 
Q 1250 -91 836 529 
Q 422 1150 422 2328 
Q 422 3509 836 4129 
Q 1250 4750 2034 4750 
z
" transform="scale(0.015625)"/>
       </defs>
       <use xlink:href="#DejaVuSans-30"/>
      </g>
     </g>
    </g>
    <g id="xtick_2">
     <g id="line2d_2">
      <g>
       <use xlink:href="#mb4b1fe5af7" x="135.644436" y="302.2" style="stroke: #000000; stroke-width: 0.8"/>
      </g>
     </g>
     <g id="text_2">
      <!-- 1 -->
      <g transform="translate(132.463186 316.798437) scale(0.1 -0.1)">
       <defs>
        <path id="DejaVuSans-31" d="M 794 531 
L 1825 531 
L 1825 4091 
L 703 3866 
L 703 4441 
L 1819 4666 
L 2450 4666 
L 2450 531 
L 3481 531 
L 3481 0 
L 794 0 
L 794 531 
z
" transform="scale(0.015625)"/>
       </defs>
       <use xlink:href="#DejaVuSans-31"/>
      </g>
     </g>
    </g>
    <g id="xtick_3">
     <g id="line2d_3">
      <g>
       <use xlink:href="#mb4b1fe5af7" x="209.653986" y="302.2" style="stroke: #000000; stroke-width: 0.8"/>
      </g>
     </g>
     <g id="text_3">
      <!-- 2 -->
      <g transform="translate(206.472736 316.798437) scale(0.1 -0.1)">
       <defs>
        <path id="DejaVuSans-32" d="M 1228 531 
L 3431 531 
L 3431 0 
L 469 0 
L 469 531 
Q 828 903 1448 1529 
Q 2069 2156 2228 2338 
Q 2531 2678 2651 2914 
Q 2772 3150 2772 3378 
Q 2772 3750 2511 3984 
Q 2250 4219 1831 4219 
Q 1534 4219 1204 4116 
Q 875 4013 500 3803 
L 500 4441 
Q 881 4594 1212 4672 
Q 1544 4750 1819 4750 
Q 2544 4750 2975 4387 
Q 3406 4025 3406 3419 
Q 3406 3131 3298 2873 
Q 3191 2616 2906 2266 
Q 2828 2175 2409 1742 
Q 1991 1309 1228 531 
z
" transform="scale(0.015625)"/>
       </defs>
       <use xlink:href="#DejaVuSans-32"/>
      </g>
     </g>
    </g>
    <g id="xtick_4">
     <g id="line2d_4">
      <g>
       <use xlink:href="#mb4b1fe5af7" x="283.663536" y="302.2" style="stroke: #000000; stroke-width: 0.8"/>
      </g>
     </g>
     <g id="text_4">
      <!-- 3 -->
      <g transform="translate(280.482286 316.798437) scale(0.1 -0.1)">
       <defs>
        <path id="DejaVuSans-33" d="M 2597 2516 
Q 3050 2419 3304 2112 
Q 3559 1806 3559 1356 
Q 3559 666 3084 287 
Q 2609 -91 1734 -91 
Q 1441 -91 1130 -33 
Q 819 25 488 141 
L 488 750 
Q 750 597 1062 519 
Q 1375 441 1716 441 
Q 2309 441 2620 675 
Q 2931 909 2931 1356 
Q 2931 1769 2642 2001 
Q 2353 2234 1838 2234 
L 1294 2234 
L 1294 2753 
L 1863 2753 
Q 2328 2753 2575 2939 
Q 2822 3125 2822 3475 
Q 2822 3834 2567 4026 
Q 2313 4219 1838 4219 
Q 1578 4219 1281 4162 
Q 984 4106 628 3988 
L 628 4550 
Q 988 4650 1302 4700 
Q 1616 4750 1894 4750 
Q 2613 4750 3031 4423 
Q 3450 4097 3450 3541 
Q 3450 3153 3228 2886 
Q 3006 2619 2597 2516 
z
" transform="scale(0.015625)"/>
       </defs>
       <use xlink:href="#DejaVuSans-33"/>
      </g>
     </g>
    </g>
    <g id="xtick_5">
     <g id="line2d_5">
      <g>
       <use xlink:href="#mb4b1fe5af7" x="357.673086" y="302.2" style="stroke: #000000; stroke-width: 0.8"/>
      </g>
     </g>
     <g id="text_5">
      <!-- 4 -->
      <g transform="translate(354.491836 316.798437) scale(0.1 -0.1)">
       <defs>
        <path id="DejaVuSans-34" d="M 2419 4116 
L 825 1625 
L 2419 1625 
L 2419 4116 
z
M 2253 4666 
L 3047 4666 
L 3047 1625 
L 3713 1625 
L 3713 1100 
L 3047 1100 
L 3047 0 
L 2419 0 
L 2419 1100 
L 313 1100 
L 313 1709 
L 2253 4666 
z
" transform="scale(0.015625)"/>
       </defs>
       <use xlink:href="#DejaVuSans-34"/>
      </g>
     </g>
    </g>
    <g id="xtick_6">
     <g id="line2d_6">
      <g>
       <use xlink:href="#mb4b1fe5af7" x="431.682636" y="302.2" style="stroke: #000000; stroke-width: 0.8"/>
      </g>
     </g>
     <g id="text_6">
      <!-- 5 -->
      <g transform="translate(428.501386 316.798437) scale(0.1 -0.1)">
       <defs>
        <path id="DejaVuSans-35" d="M 691 4666 
L 3169 4666 
L 3169 4134 
L 1269 4134 
L 1269 2991 
Q 1406 3038 1543 3061 
Q 1681 3084 1819 3084 
Q 2600 3084 3056 2656 
Q 3513 2228 3513 1497 
Q 3513 744 3044 326 
Q 2575 -91 1722 -91 
Q 1428 -91 1123 -41 
Q 819 9 494 109 
L 494 744 
Q 775 591 1075 516 
Q 1375 441 1709 441 
Q 2250 441 2565 725 
Q 2881 1009 2881 1497 
Q 2881 1984 2565 2268 
Q 2250 2553 1709 2553 
Q 1456 2553 1204 2497 
Q 953 2441 691 2322 
L 691 4666 
z
" transform="scale(0.015625)"/>
       </defs>
       <use xlink:href="#DejaVuSans-35"/>
      </g>
     </g>
    </g>
    <g id="text_7">
     <!-- $W$ (m/hour) -->
     <g transform="translate(220.059 330.476562) scale(0.1 -0.1)">
      <defs>
       <path id="DejaVuSans-Oblique-57" d="M 616 4666 
L 1228 4666 
L 1453 697 
L 3213 4666 
L 3916 4666 
L 4147 697 
L 5888 4666 
L 6528 4666 
L 4453 0 
L 3659 0 
L 3444 3891 
L 1697 0 
L 903 0 
L 616 4666 
z
" transform="scale(0.015625)"/>
       <path id="DejaVuSans-20" transform="scale(0.015625)"/>
       <path id="DejaVuSans-28" d="M 1984 4856 
Q 1566 4138 1362 3434 
Q 1159 2731 1159 2009 
Q 1159 1288 1364 580 
Q 1569 -128 1984 -844 
L 1484 -844 
Q 1016 -109 783 600 
Q 550 1309 550 2009 
Q 550 2706 781 3412 
Q 1013 4119 1484 4856 
L 1984 4856 
z
" transform="scale(0.015625)"/>
       <path id="DejaVuSans-6d" d="M 3328 2828 
Q 3544 3216 3844 3400 
Q 4144 3584 4550 3584 
Q 5097 3584 5394 3201 
Q 5691 2819 5691 2113 
L 5691 0 
L 5113 0 
L 5113 2094 
Q 5113 2597 4934 2840 
Q 4756 3084 4391 3084 
Q 3944 3084 3684 2787 
Q 3425 2491 3425 1978 
L 3425 0 
L 2847 0 
L 2847 2094 
Q 2847 2600 2669 2842 
Q 2491 3084 2119 3084 
Q 1678 3084 1418 2786 
Q 1159 2488 1159 1978 
L 1159 0 
L 581 0 
L 581 3500 
L 1159 3500 
L 1159 2956 
Q 1356 3278 1631 3431 
Q 1906 3584 2284 3584 
Q 2666 3584 2933 3390 
Q 3200 3197 3328 2828 
z
" transform="scale(0.015625)"/>
       <path id="DejaVuSans-2f" d="M 1625 4666 
L 2156 4666 
L 531 -594 
L 0 -594 
L 1625 4666 
z
" transform="scale(0.015625)"/>
       <path id="DejaVuSans-68" d="M 3513 2113 
L 3513 0 
L 2938 0 
L 2938 2094 
Q 2938 2591 2744 2837 
Q 2550 3084 2163 3084 
Q 1697 3084 1428 2787 
Q 1159 2491 1159 1978 
L 1159 0 
L 581 0 
L 581 4863 
L 1159 4863 
L 1159 2956 
Q 1366 3272 1645 3428 
Q 1925 3584 2291 3584 
Q 2894 3584 3203 3211 
Q 3513 2838 3513 2113 
z
" transform="scale(0.015625)"/>
       <path id="DejaVuSans-6f" d="M 1959 3097 
Q 1497 3097 1228 2736 
Q 959 2375 959 1747 
Q 959 1119 1226 758 
Q 1494 397 1959 397 
Q 2419 397 2687 759 
Q 2956 1122 2956 1747 
Q 2956 2369 2687 2733 
Q 2419 3097 1959 3097 
z
M 1959 3584 
Q 2709 3584 3137 3096 
Q 3566 2609 3566 1747 
Q 3566 888 3137 398 
Q 2709 -91 1959 -91 
Q 1206 -91 779 398 
Q 353 888 353 1747 
Q 353 2609 779 3096 
Q 1206 3584 1959 3584 
z
" transform="scale(0.015625)"/>
       <path id="DejaVuSans-75" d="M 544 1381 
L 544 3500 
L 1119 3500 
L 1119 1403 
Q 1119 906 1312 657 
Q 1506 409 1894 409 
Q 2359 409 2629 706 
Q 2900 1003 2900 1516 
L 2900 3500 
L 3475 3500 
L 3475 0 
L 2900 0 
L 2900 538 
Q 2691 219 2414 64 
Q 2138 -91 1772 -91 
Q 1169 -91 856 284 
Q 544 659 544 1381 
z
M 1991 3584 
L 1991 3584 
z
" transform="scale(0.015625)"/>
       <path id="DejaVuSans-72" d="M 2631 2963 
Q 2534 3019 2420 3045 
Q 2306 3072 2169 3072 
Q 1681 3072 1420 2755 
Q 1159 2438 1159 1844 
L 1159 0 
L 581 0 
L 581 3500 
L 1159 3500 
L 1159 2956 
Q 1341 3275 1631 3429 
Q 1922 3584 2338 3584 
Q 2397 3584 2469 3576 
Q 2541 3569 2628 3553 
L 2631 2963 
z
" transform="scale(0.015625)"/>
       <path id="DejaVuSans-29" d="M 513 4856 
L 1013 4856 
Q 1481 4119 1714 3412 
Q 1947 2706 1947 2009 
Q 1947 1309 1714 600 
Q 1481 -109 1013 -844 
L 513 -844 
Q 928 -128 1133 580 
Q 1338 1288 1338 2009 
Q 1338 2731 1133 3434 
Q 928 4138 513 4856 
z
" transform="scale(0.015625)"/>
      </defs>
      <use xlink:href="#DejaVuSans-Oblique-57" transform="translate(0 0.015625)"/>
      <use xlink:href="#DejaVuSans-20" transform="translate(98.876953 0.015625)"/>
      <use xlink:href="#DejaVuSans-28" transform="translate(130.664062 0.015625)"/>
      <use xlink:href="#DejaVuSans-6d" transform="translate(169.677734 0.015625)"/>
      <use xlink:href="#DejaVuSans-2f" transform="translate(267.089844 0.015625)"/>
      <use xlink:href="#DejaVuSans-68" transform="translate(300.78125 0.015625)"/>
      <use xlink:href="#DejaVuSans-6f" transform="translate(364.160156 0.015625)"/>
      <use xlink:href="#DejaVuSans-75" transform="translate(425.341797 0.015625)"/>
      <use xlink:href="#DejaVuSans-72" transform="translate(488.720703 0.015625)"/>
      <use xlink:href="#DejaVuSans-29" transform="translate(529.833984 0.015625)"/>
     </g>
    </g>
   </g>
   <g id="matplotlib.axis_2">
    <g id="ytick_1">
     <g id="line2d_7">
      <defs>
       <path id="m931ba0b629" d="M 0 0 
L -3.5 0 
" style="stroke: #000000; stroke-width: 0.8"/>
      </defs>
      <g>
       <use xlink:href="#m931ba0b629" x="47.018" y="276.344833" style="stroke: #000000; stroke-width: 0.8"/>
      </g>
     </g>
     <g id="text_8">
      <!-- 0 -->
      <g transform="translate(33.6555 280.144052) scale(0.1 -0.1)">
       <use xlink:href="#DejaVuSans-30"/>
      </g>
     </g>
    </g>
    <g id="ytick_2">
     <g id="line2d_8">
      <g>
       <use xlink:href="#m931ba0b629" x="47.018" y="241.081783" style="stroke: #000000; stroke-width: 0.8"/>
      </g>
     </g>
     <g id="text_9">
      <!-- 5 -->
      <g transform="translate(33.6555 244.881001) scale(0.1 -0.1)">
       <use xlink:href="#DejaVuSans-35"/>
      </g>
     </g>
    </g>
    <g id="ytick_3">
     <g id="line2d_9">
      <g>
       <use xlink:href="#m931ba0b629" x="47.018" y="205.818732" style="stroke: #000000; stroke-width: 0.8"/>
      </g>
     </g>
     <g id="text_10">
      <!-- 10 -->
      <g transform="translate(27.293 209.617951) scale(0.1 -0.1)">
       <use xlink:href="#DejaVuSans-31"/>
       <use xlink:href="#DejaVuSans-30" transform="translate(63.623047 0)"/>
      </g>
     </g>
    </g>
    <g id="ytick_4">
     <g id="line2d_10">
      <g>
       <use xlink:href="#m931ba0b629" x="47.018" y="170.555681" style="stroke: #000000; stroke-width: 0.8"/>
      </g>
     </g>
     <g id="text_11">
      <!-- 15 -->
      <g transform="translate(27.293 174.3549) scale(0.1 -0.1)">
       <use xlink:href="#DejaVuSans-31"/>
       <use xlink:href="#DejaVuSans-35" transform="translate(63.623047 0)"/>
      </g>
     </g>
    </g>
    <g id="ytick_5">
     <g id="line2d_11">
      <g>
       <use xlink:href="#m931ba0b629" x="47.018" y="135.292631" style="stroke: #000000; stroke-width: 0.8"/>
      </g>
     </g>
     <g id="text_12">
      <!-- 20 -->
      <g transform="translate(27.293 139.091849) scale(0.1 -0.1)">
       <use xlink:href="#DejaVuSans-32"/>
       <use xlink:href="#DejaVuSans-30" transform="translate(63.623047 0)"/>
      </g>
     </g>
    </g>
    <g id="ytick_6">
     <g id="line2d_12">
      <g>
       <use xlink:href="#m931ba0b629" x="47.018" y="100.02958" style="stroke: #000000; stroke-width: 0.8"/>
      </g>
     </g>
     <g id="text_13">
      <!-- 25 -->
      <g transform="translate(27.293 103.828799) scale(0.1 -0.1)">
       <use xlink:href="#DejaVuSans-32"/>
       <use xlink:href="#DejaVuSans-35" transform="translate(63.623047 0)"/>
      </g>
     </g>
    </g>
    <g id="ytick_7">
     <g id="line2d_13">
      <g>
       <use xlink:href="#m931ba0b629" x="47.018" y="64.766529" style="stroke: #000000; stroke-width: 0.8"/>
      </g>
     </g>
     <g id="text_14">
      <!-- 30 -->
      <g transform="translate(27.293 68.565748) scale(0.1 -0.1)">
       <use xlink:href="#DejaVuSans-33"/>
       <use xlink:href="#DejaVuSans-30" transform="translate(63.623047 0)"/>
      </g>
     </g>
    </g>
    <g id="ytick_8">
     <g id="line2d_14">
      <g>
       <use xlink:href="#m931ba0b629" x="47.018" y="29.503478" style="stroke: #000000; stroke-width: 0.8"/>
      </g>
     </g>
     <g id="text_15">
      <!-- 35 -->
      <g transform="translate(27.293 33.302697) scale(0.1 -0.1)">
       <use xlink:href="#DejaVuSans-33"/>
       <use xlink:href="#DejaVuSans-35" transform="translate(63.623047 0)"/>
      </g>
     </g>
    </g>
    <g id="text_16">
     <!-- $Q_{lc}$ (kW) -->
     <g transform="translate(21.213312 176.8) rotate(-90) scale(0.1 -0.1)">
      <defs>
       <path id="DejaVuSans-Oblique-51" d="M 2309 -84 
Q 2275 -88 2237 -89 
Q 2200 -91 2125 -91 
Q 1250 -91 756 411 
Q 263 913 263 1797 
Q 263 2319 452 2844 
Q 641 3369 978 3788 
Q 1369 4269 1858 4509 
Q 2347 4750 2938 4750 
Q 3794 4750 4287 4245 
Q 4781 3741 4781 2869 
Q 4781 1928 4265 1147 
Q 3750 366 2919 44 
L 3553 -825 
L 2847 -825 
L 2309 -84 
z
M 2919 4238 
Q 2400 4238 2003 3986 
Q 1606 3734 1313 3219 
Q 1125 2891 1026 2522 
Q 928 2153 928 1778 
Q 928 1128 1239 775 
Q 1550 422 2119 422 
Q 2631 422 3032 676 
Q 3434 931 3719 1434 
Q 3909 1772 4009 2142 
Q 4109 2513 4109 2881 
Q 4109 3528 3796 3883 
Q 3484 4238 2919 4238 
z
" transform="scale(0.015625)"/>
       <path id="DejaVuSans-Oblique-6c" d="M 1172 4863 
L 1747 4863 
L 800 0 
L 225 0 
L 1172 4863 
z
" transform="scale(0.015625)"/>
       <path id="DejaVuSans-Oblique-63" d="M 3431 3366 
L 3316 2797 
Q 3109 2947 2876 3022 
Q 2644 3097 2394 3097 
Q 2119 3097 1870 3000 
Q 1622 2903 1453 2725 
Q 1184 2453 1037 2087 
Q 891 1722 891 1331 
Q 891 859 1127 628 
Q 1363 397 1844 397 
Q 2081 397 2348 469 
Q 2616 541 2906 684 
L 2797 116 
Q 2547 13 2283 -39 
Q 2019 -91 1741 -91 
Q 1044 -91 669 257 
Q 294 606 294 1253 
Q 294 1797 489 2255 
Q 684 2713 1069 3078 
Q 1331 3328 1684 3456 
Q 2038 3584 2456 3584 
Q 2700 3584 2940 3529 
Q 3181 3475 3431 3366 
z
" transform="scale(0.015625)"/>
       <path id="DejaVuSans-6b" d="M 581 4863 
L 1159 4863 
L 1159 1991 
L 2875 3500 
L 3609 3500 
L 1753 1863 
L 3688 0 
L 2938 0 
L 1159 1709 
L 1159 0 
L 581 0 
L 581 4863 
z
" transform="scale(0.015625)"/>
       <path id="DejaVuSans-57" d="M 213 4666 
L 850 4666 
L 1831 722 
L 2809 4666 
L 3519 4666 
L 4500 722 
L 5478 4666 
L 6119 4666 
L 4947 0 
L 4153 0 
L 3169 4050 
L 2175 0 
L 1381 0 
L 213 4666 
z
" transform="scale(0.015625)"/>
      </defs>
      <use xlink:href="#DejaVuSans-Oblique-51" transform="translate(0 0.015625)"/>
      <use xlink:href="#DejaVuSans-Oblique-6c" transform="translate(78.710938 -16.390625) scale(0.7)"/>
      <use xlink:href="#DejaVuSans-Oblique-63" transform="translate(98.15918 -16.390625) scale(0.7)"/>
      <use xlink:href="#DejaVuSans-20" transform="translate(139.379883 0.015625)"/>
      <use xlink:href="#DejaVuSans-28" transform="translate(171.166992 0.015625)"/>
      <use xlink:href="#DejaVuSans-6b" transform="translate(210.180664 0.015625)"/>
      <use xlink:href="#DejaVuSans-57" transform="translate(268.09082 0.015625)"/>
      <use xlink:href="#DejaVuSans-29" transform="translate(366.967773 0.015625)"/>
     </g>
    </g>
   </g>
   <g id="line2d_15">
    <path d="M 65.335364 207.437912 
L 72.811839 192.213265 
L 80.288314 179.952266 
L 87.764788 169.987738 
L 95.241263 161.754263 
L 102.717738 154.791082 
L 110.194213 148.736318 
L 117.670688 143.320263 
L 125.147163 138.350979 
L 132.623638 133.700068 
L 140.100113 129.287565 
L 147.576588 125.067179 
L 155.053063 121.015017 
L 162.529538 117.119128 
L 170.006013 113.371867 
L 177.482488 109.766558 
L 184.958963 106.294449 
L 192.435438 102.94426 
L 199.911913 99.703133 
L 207.388388 96.558 
L 214.864863 93.496993 
L 222.341338 90.510499 
L 229.817813 87.591558 
L 237.294288 84.735992 
L 244.770763 81.941736 
L 252.247237 79.207723 
L 259.723712 76.532959 
L 267.200187 73.915688 
L 274.676662 71.352915 
L 282.153137 68.840376 
L 289.629612 66.372953 
L 297.106087 63.94543 
L 304.582562 61.553379 
L 312.059037 59.193953 
L 319.535512 56.866358 
L 327.011987 54.571786 
L 334.488462 52.312941 
L 341.964937 50.092878 
L 349.441412 47.913485 
L 356.917887 45.774028 
L 364.394362 43.670241 
L 371.870837 41.593299 
L 379.347312 39.531246 
L 386.823787 37.47118 
L 394.300262 35.403206 
L 401.776737 33.32609 
L 409.253212 31.254256 
L 416.729686 29.225672 
L 424.206161 27.310374 
L 431.682636 25.617724 
" clip-path="url(#p6ea4a0e714)" style="fill: none; stroke: #1f77b4; stroke-width: 1.5; stroke-linecap: square"/>
   </g>
   <g id="line2d_16">
    <path d="M 65.335364 243.946092 
L 72.811839 235.912064 
L 80.288314 229.403877 
L 87.764788 224.084899 
L 95.241263 219.667128 
L 102.717738 215.914626 
L 110.194213 212.64119 
L 117.670688 209.70638 
L 125.147163 207.009596 
L 132.623638 204.482932 
L 140.100113 202.083648 
L 147.576588 199.787053 
L 155.053063 197.580093 
L 162.529538 195.456157 
L 170.006013 193.411468 
L 177.482488 191.442556 
L 184.958963 189.545027 
L 192.435438 187.713239 
L 199.911913 185.940631 
L 207.388388 184.220391 
L 214.864863 182.546155 
L 222.341338 180.912617 
L 229.817813 179.315832 
L 237.294288 177.753234 
L 244.770763 176.223381 
L 252.247237 174.725522 
L 259.723712 173.259093 
L 267.200187 171.823286 
L 274.676662 170.416755 
L 282.153137 169.037549 
L 289.629612 167.683248 
L 297.106087 166.351291 
L 304.582562 165.039373 
L 312.059037 163.74584 
L 319.535512 162.469941 
L 327.011987 161.211875 
L 334.488462 159.972567 
L 341.964937 158.753209 
L 349.441412 157.554607 
L 356.917887 156.376502 
L 364.394362 155.21702 
L 371.870837 154.072449 
L 379.347312 152.937554 
L 386.823787 151.806552 
L 394.300262 150.67486 
L 401.776737 149.541607 
L 409.253212 148.412792 
L 416.729686 147.304896 
L 424.206161 146.248627 
L 431.682636 145.292428 
" clip-path="url(#p6ea4a0e714)" style="fill: none; stroke: #ff7f0e; stroke-width: 1.5; stroke-linecap: square"/>
   </g>
   <g id="line2d_17">
    <path d="M 65.335364 264.568568 
L 72.811839 261.427042 
L 80.288314 258.876163 
L 87.764788 256.785908 
L 95.241263 255.045136 
L 102.717738 253.562502 
L 110.194213 252.265988 
L 117.670688 251.101341 
L 125.147163 250.029722 
L 132.623638 249.024923 
L 140.100113 248.070436 
L 147.576588 247.156672 
L 155.053063 246.278508 
L 162.529538 245.433307 
L 170.006013 244.619475 
L 177.482488 243.835537 
L 184.958963 243.079666 
L 192.435438 242.349584 
L 199.911913 241.642693 
L 207.388388 240.956336 
L 214.864863 240.288065 
L 222.341338 239.635866 
L 229.817813 238.998256 
L 237.294288 238.374284 
L 244.770763 237.763413 
L 252.247237 237.165345 
L 259.723712 236.57983 
L 267.200187 236.006499 
L 274.676662 235.444763 
L 282.153137 234.8938 
L 289.629612 234.352626 
L 297.106087 233.82023 
L 304.582562 233.295735 
L 312.059037 232.778547 
L 319.535512 232.268445 
L 327.011987 231.76558 
L 334.488462 231.270366 
L 341.964937 230.783283 
L 349.441412 230.304604 
L 356.917887 229.834127 
L 364.394362 229.370967 
L 371.870837 228.913496 
L 379.347312 228.459498 
L 386.823787 228.006605 
L 394.300262 227.553033 
L 401.776737 227.098611 
L 409.253212 226.646053 
L 416.729686 226.20238 
L 424.206161 225.780352 
L 431.682636 225.399771 
" clip-path="url(#p6ea4a0e714)" style="fill: none; stroke: #2ca02c; stroke-width: 1.5; stroke-linecap: square"/>
   </g>
   <g id="line2d_18">
    <path d="M 65.335364 275.52238 
L 72.811839 274.793371 
L 80.288314 274.213539 
L 87.764788 273.750537 
L 95.241263 273.375884 
L 102.717738 273.066264 
L 110.194213 272.803036 
L 117.670688 272.572131 
L 125.147163 272.363441 
L 132.623638 272.170155 
L 140.100113 271.987962 
L 147.576588 271.814291 
L 155.053063 271.647652 
L 162.529538 271.487073 
L 170.006013 271.331736 
L 177.482488 271.180765 
L 184.958963 271.033147 
L 192.435438 270.887792 
L 199.911913 270.743644 
L 207.388388 270.599831 
L 214.864863 270.455802 
L 222.341338 270.311428 
L 229.817813 270.167035 
L 237.294288 270.023361 
L 244.770763 269.88146 
L 252.247237 269.742544 
L 259.723712 269.607808 
L 267.200187 269.478256 
L 274.676662 269.354563 
L 282.153137 269.236965 
L 289.629612 269.125283 
L 297.106087 269.019014 
L 304.582562 268.917263 
L 312.059037 268.819 
L 319.535512 268.723603 
L 327.011987 268.630426 
L 334.488462 268.538987 
L 341.964937 268.449622 
L 349.441412 268.362915 
L 356.917887 268.280138 
L 364.394362 268.202529 
L 371.870837 268.131174 
L 379.347312 268.066803 
L 386.823787 268.008374 
L 394.300262 267.953967 
L 401.776737 267.900166 
L 409.253212 267.841147 
L 416.729686 267.769135 
L 424.206161 267.674124 
L 431.682636 267.543628 
" clip-path="url(#p6ea4a0e714)" style="fill: none; stroke: #d62728; stroke-width: 1.5; stroke-linecap: square"/>
   </g>
   <g id="patch_3">
    <path d="M 47.018 302.2 
L 47.018 10.8 
" style="fill: none; stroke: #000000; stroke-width: 0.8; stroke-linejoin: miter; stroke-linecap: square"/>
   </g>
   <g id="patch_4">
    <path d="M 450 302.2 
L 450 10.8 
" style="fill: none; stroke: #000000; stroke-width: 0.8; stroke-linejoin: miter; stroke-linecap: square"/>
   </g>
   <g id="patch_5">
    <path d="M 47.018 302.2 
L 450 302.2 
" style="fill: none; stroke: #000000; stroke-width: 0.8; stroke-linejoin: miter; stroke-linecap: square"/>
   </g>
   <g id="patch_6">
    <path d="M 47.018 10.8 
L 450 10.8 
" style="fill: none; stroke: #000000; stroke-width: 0.8; stroke-linejoin: miter; stroke-linecap: square"/>
   </g>
   <g id="legend_1">
    <g id="patch_7">
     <path d="M 54.018 77.5125 
L 132.888313 77.5125 
Q 134.888313 77.5125 134.888313 75.5125 
L 134.888313 17.8 
Q 134.888313 15.8 132.888313 15.8 
L 54.018 15.8 
Q 52.018 15.8 52.018 17.8 
L 52.018 75.5125 
Q 52.018 77.5125 54.018 77.5125 
z
" style="fill: #ffffff; opacity: 0.8; stroke: #cccccc; stroke-linejoin: miter"/>
    </g>
    <g id="line2d_19">
     <path d="M 56.018 23.898438 
L 66.018 23.898438 
L 76.018 23.898438 
" style="fill: none; stroke: #1f77b4; stroke-width: 1.5; stroke-linecap: square"/>
    </g>
    <g id="text_17">
     <!-- Ts=100 K -->
     <g transform="translate(84.018 27.398438) scale(0.1 -0.1)">
      <defs>
       <path id="DejaVuSans-54" d="M -19 4666 
L 3928 4666 
L 3928 4134 
L 2272 4134 
L 2272 0 
L 1638 0 
L 1638 4134 
L -19 4134 
L -19 4666 
z
" transform="scale(0.015625)"/>
       <path id="DejaVuSans-73" d="M 2834 3397 
L 2834 2853 
Q 2591 2978 2328 3040 
Q 2066 3103 1784 3103 
Q 1356 3103 1142 2972 
Q 928 2841 928 2578 
Q 928 2378 1081 2264 
Q 1234 2150 1697 2047 
L 1894 2003 
Q 2506 1872 2764 1633 
Q 3022 1394 3022 966 
Q 3022 478 2636 193 
Q 2250 -91 1575 -91 
Q 1294 -91 989 -36 
Q 684 19 347 128 
L 347 722 
Q 666 556 975 473 
Q 1284 391 1588 391 
Q 1994 391 2212 530 
Q 2431 669 2431 922 
Q 2431 1156 2273 1281 
Q 2116 1406 1581 1522 
L 1381 1569 
Q 847 1681 609 1914 
Q 372 2147 372 2553 
Q 372 3047 722 3315 
Q 1072 3584 1716 3584 
Q 2034 3584 2315 3537 
Q 2597 3491 2834 3397 
z
" transform="scale(0.015625)"/>
       <path id="DejaVuSans-3d" d="M 678 2906 
L 4684 2906 
L 4684 2381 
L 678 2381 
L 678 2906 
z
M 678 1631 
L 4684 1631 
L 4684 1100 
L 678 1100 
L 678 1631 
z
" transform="scale(0.015625)"/>
       <path id="DejaVuSans-4b" d="M 628 4666 
L 1259 4666 
L 1259 2694 
L 3353 4666 
L 4166 4666 
L 1850 2491 
L 4331 0 
L 3500 0 
L 1259 2247 
L 1259 0 
L 628 0 
L 628 4666 
z
" transform="scale(0.015625)"/>
      </defs>
      <use xlink:href="#DejaVuSans-54"/>
      <use xlink:href="#DejaVuSans-73" transform="translate(44.583984 0)"/>
      <use xlink:href="#DejaVuSans-3d" transform="translate(96.683594 0)"/>
      <use xlink:href="#DejaVuSans-31" transform="translate(180.472656 0)"/>
      <use xlink:href="#DejaVuSans-30" transform="translate(244.095703 0)"/>
      <use xlink:href="#DejaVuSans-30" transform="translate(307.71875 0)"/>
      <use xlink:href="#DejaVuSans-20" transform="translate(371.341797 0)"/>
      <use xlink:href="#DejaVuSans-4b" transform="translate(403.128906 0)"/>
     </g>
    </g>
    <g id="line2d_20">
     <path d="M 56.018 38.576563 
L 66.018 38.576563 
L 76.018 38.576563 
" style="fill: none; stroke: #ff7f0e; stroke-width: 1.5; stroke-linecap: square"/>
    </g>
    <g id="text_18">
     <!-- Ts=160 K -->
     <g transform="translate(84.018 42.076563) scale(0.1 -0.1)">
      <defs>
       <path id="DejaVuSans-36" d="M 2113 2584 
Q 1688 2584 1439 2293 
Q 1191 2003 1191 1497 
Q 1191 994 1439 701 
Q 1688 409 2113 409 
Q 2538 409 2786 701 
Q 3034 994 3034 1497 
Q 3034 2003 2786 2293 
Q 2538 2584 2113 2584 
z
M 3366 4563 
L 3366 3988 
Q 3128 4100 2886 4159 
Q 2644 4219 2406 4219 
Q 1781 4219 1451 3797 
Q 1122 3375 1075 2522 
Q 1259 2794 1537 2939 
Q 1816 3084 2150 3084 
Q 2853 3084 3261 2657 
Q 3669 2231 3669 1497 
Q 3669 778 3244 343 
Q 2819 -91 2113 -91 
Q 1303 -91 875 529 
Q 447 1150 447 2328 
Q 447 3434 972 4092 
Q 1497 4750 2381 4750 
Q 2619 4750 2861 4703 
Q 3103 4656 3366 4563 
z
" transform="scale(0.015625)"/>
      </defs>
      <use xlink:href="#DejaVuSans-54"/>
      <use xlink:href="#DejaVuSans-73" transform="translate(44.583984 0)"/>
      <use xlink:href="#DejaVuSans-3d" transform="translate(96.683594 0)"/>
      <use xlink:href="#DejaVuSans-31" transform="translate(180.472656 0)"/>
      <use xlink:href="#DejaVuSans-36" transform="translate(244.095703 0)"/>
      <use xlink:href="#DejaVuSans-30" transform="translate(307.71875 0)"/>
      <use xlink:href="#DejaVuSans-20" transform="translate(371.341797 0)"/>
      <use xlink:href="#DejaVuSans-4b" transform="translate(403.128906 0)"/>
     </g>
    </g>
    <g id="line2d_21">
     <path d="M 56.018 53.254687 
L 66.018 53.254687 
L 76.018 53.254687 
" style="fill: none; stroke: #2ca02c; stroke-width: 1.5; stroke-linecap: square"/>
    </g>
    <g id="text_19">
     <!-- Ts=220 K -->
     <g transform="translate(84.018 56.754687) scale(0.1 -0.1)">
      <use xlink:href="#DejaVuSans-54"/>
      <use xlink:href="#DejaVuSans-73" transform="translate(44.583984 0)"/>
      <use xlink:href="#DejaVuSans-3d" transform="translate(96.683594 0)"/>
      <use xlink:href="#DejaVuSans-32" transform="translate(180.472656 0)"/>
      <use xlink:href="#DejaVuSans-32" transform="translate(244.095703 0)"/>
      <use xlink:href="#DejaVuSans-30" transform="translate(307.71875 0)"/>
      <use xlink:href="#DejaVuSans-20" transform="translate(371.341797 0)"/>
      <use xlink:href="#DejaVuSans-4b" transform="translate(403.128906 0)"/>
     </g>
    </g>
    <g id="line2d_22">
     <path d="M 56.018 67.932813 
L 66.018 67.932813 
L 76.018 67.932813 
" style="fill: none; stroke: #d62728; stroke-width: 1.5; stroke-linecap: square"/>
    </g>
    <g id="text_20">
     <!-- Ts=260 K -->
     <g transform="translate(84.018 71.432813) scale(0.1 -0.1)">
      <use xlink:href="#DejaVuSans-54"/>
      <use xlink:href="#DejaVuSans-73" transform="translate(44.583984 0)"/>
      <use xlink:href="#DejaVuSans-3d" transform="translate(96.683594 0)"/>
      <use xlink:href="#DejaVuSans-32" transform="translate(180.472656 0)"/>
      <use xlink:href="#DejaVuSans-36" transform="translate(244.095703 0)"/>
      <use xlink:href="#DejaVuSans-30" transform="translate(307.71875 0)"/>
      <use xlink:href="#DejaVuSans-20" transform="translate(371.341797 0)"/>
      <use xlink:href="#DejaVuSans-4b" transform="translate(403.128906 0)"/>
     </g>
    </g>
   </g>
  </g>
 </g>
 <defs>
  <clipPath id="p6ea4a0e714">
   <rect x="47.018" y="10.8" width="402.982" height="291.4"/>
  </clipPath>
 </defs>
</svg>
