<?xml version="1.0" encoding="utf-8" standalone="no"?>
<!DOCTYPE svg PUBLIC "-//W3C//DTD SVG 1.1//EN"
  "http://www.w3.org/Graphics/SVG/1.1/DTD/svg11.dtd">
<svg xmlns:xlink="http://www.w3.org/1999/xlink" width="460.8pt" height="345.6pt" viewBox="0 0 460.8 345.6" xmlns="http://www.w3.org/2000/svg" version="1.1">
 <metadata>
  <rdf:RDF xmlns:dc="http://purl.org/dc/elements/1.1/" xmlns:cc="http://creativecommons.org/ns#" xmlns:rdf="http://www.w3.org/1999/02/22-rdf-syntax-ns#">
   <cc:Work>
    <dc:type rdf:resource="http://purl.org/dc/dcmitype/StillImage"/>
    <dc:date>2026-02-12T00:45:45.259306</dc:date>
    <dc:format>image/svg+xml</dc:format>
    <dc:creator>
     <cc:Agent>
      <dc:title>Matplotlib v3.10.8, https://matplotlib.org/</dc:title>
     </cc:Agent>
    </dc:creator>
   </cc:Work>
  </rdf:RDF>
 </metadata>
 <defs>
  <style type="text/css">*{stroke-linejoin: round; stroke-linecap: butt}</style>
 </defs>
 <g id="figure_1">
  <g id="patch_1">
   <path d="M 0 345.6 
L 460.8 345.6 
L 460.8 0 
L 0 0 
L 0 345.6 
z
" style="fill: none"/>
  </g>
  <g id="axes_1">
   <g id="patch_2">
    <path d="M 47.018 302.2 
L 450 302.2 
L 450 10.8 
L 47.018 10.8 
L 47.018 302.2 
z
" style="fill: none"/>
   </g>
   <g id="FillBetweenPolyCollection_1">
    <path d="M 65.335364 277.535292 
L 65.335364 277.845922 
L 72.811839 270.24289 
L 80.288314 263.991854 
L 87.764788 258.835118 
L 95.241263 254.542181 
L 102.717738 250.914376 
L 110.194213 247.785649 
L 117.670688 245.021531 
L 125.147163 242.516633 
L 132.623638 240.1912 
L 140.100113 237.987166 
L 147.576588 235.864123 
L 155.053063 233.79554 
L 162.529538 231.765388 
L 170.006013 229.765335 
L 177.482488 227.792512 
L 184.958963 225.847792 
L 192.435438 223.934495 
L 199.911913 222.057416 
L 207.388388 220.222044 
L 214.864863 218.433907 
L 222.341338 216.697993 
L 229.817813 215.018211 
L 237.294288 213.396949 
L 244.770763 211.834734 
L 252.247237 210.330071 
L 259.723712 208.879476 
L 267.200187 207.477737 
L 274.676662 206.118384 
L 282.153137 204.794303 
L 289.629612 203.498407 
L 297.106087 202.224293 
L 304.582562 200.966719 
L 312.059037 199.721843 
L 319.535512 198.487133 
L 327.011987 197.260938 
L 334.488462 196.041762 
L 341.964937 194.827329 
L 349.441412 193.613604 
L 356.917887 192.393972 
L 364.394362 191.158773 
L 371.870837 189.895424 
L 379.347312 188.589276 
L 386.823787 187.225326 
L 394.300262 185.790784 
L 401.776737 184.278423 
L 409.253212 182.6905 
L 416.729686 181.046603 
L 424.206161 179.377714 
L 431.682636 177.738589 
L 431.682636 176.928936 
L 431.682636 176.928936 
L 424.206161 178.564765 
L 416.729686 180.231097 
L 409.253212 181.872941 
L 401.776737 183.457346 
L 394.300262 184.968147 
L 386.823787 186.402903 
L 379.347312 187.768682 
L 371.870837 189.078112 
L 364.394362 190.346038 
L 356.917887 191.58612 
L 349.441412 192.811494 
L 341.964937 194.031964 
L 334.488462 195.253946 
L 327.011987 196.481291 
L 319.535512 197.716114 
L 312.059037 198.959772 
L 304.582562 200.213798 
L 297.106087 201.480621 
L 289.629612 202.763993 
L 282.153137 204.069071 
L 274.676662 205.402173 
L 267.200187 206.770294 
L 259.723712 208.180463 
L 252.247237 209.639071 
L 244.770763 211.151263 
L 237.294288 212.720487 
L 229.817813 214.348242 
L 222.341338 216.03406 
L 214.864863 217.775677 
L 207.388388 219.569365 
L 199.911913 221.410386 
L 192.435438 223.293504 
L 184.958963 225.213551 
L 177.482488 227.166057 
L 170.006013 229.147989 
L 162.529538 231.158703 
L 155.053063 233.201217 
L 147.576588 235.283909 
L 140.100113 237.422748 
L 132.623638 239.644128 
L 125.147163 241.988255 
L 117.670688 244.513006 
L 110.194213 247.298016 
L 102.717738 250.448705 
L 95.241263 254.099832 
L 87.764788 258.418072 
L 80.288314 263.605826 
L 72.811839 269.892503 
L 65.335364 277.535292 
z
" clip-path="url(#p837fce8bc5)" style="fill: #1f77b4; fill-opacity: 0.45"/>
   </g>
   <g id="PathCollection_1">
    <defs>
     <path id="m5bb44eb919" d="M 0 2.12132 
C 0.562581 2.12132 1.102195 1.897805 1.5 1.5 
C 1.897805 1.102195 2.12132 0.562581 2.12132 0 
C 2.12132 -0.562581 1.897805 -1.102195 1.5 -1.5 
C 1.102195 -1.897805 0.562581 -2.12132 0 -2.12132 
C -0.562581 -2.12132 -1.102195 -1.897805 -1.5 -1.5 
C -1.897805 -1.102195 -2.12132 -0.562581 -2.12132 0 
C -2.12132 0.562581 -1.897805 1.102195 -1.5 1.5 
C -1.102195 1.897805 -0.562581 2.12132 0 2.12132 
z
" style="stroke: #000000; stroke-opacity: 0.7"/>
    </defs>
    <g clip-path="url(#p837fce8bc5)">
     <use xlink:href="#m5bb44eb919" x="65.335364" y="205.778804" style="fill-opacity: 0.7; stroke: #000000; stroke-opacity: 0.7"/>
     <use xlink:href="#m5bb44eb919" x="98.639661" y="167.124353" style="fill-opacity: 0.7; stroke: #000000; stroke-opacity: 0.7"/>
     <use xlink:href="#m5bb44eb919" x="135.644436" y="138.670222" style="fill-opacity: 0.7; stroke: #000000; stroke-opacity: 0.7"/>
     <use xlink:href="#m5bb44eb919" x="172.649211" y="118.71709" style="fill-opacity: 0.7; stroke: #000000; stroke-opacity: 0.7"/>
     <use xlink:href="#m5bb44eb919" x="209.653986" y="98.363021" style="fill-opacity: 0.7; stroke: #000000; stroke-opacity: 0.7"/>
     <use xlink:href="#m5bb44eb919" x="246.658761" y="83.398533" style="fill-opacity: 0.7; stroke: #000000; stroke-opacity: 0.7"/>
     <use xlink:href="#m5bb44eb919" x="283.663536" y="70.528694" style="fill-opacity: 0.7; stroke: #000000; stroke-opacity: 0.7"/>
     <use xlink:href="#m5bb44eb919" x="320.668311" y="57.190768" style="fill-opacity: 0.7; stroke: #000000; stroke-opacity: 0.7"/>
     <use xlink:href="#m5bb44eb919" x="357.673086" y="45.795083" style="fill-opacity: 0.7; stroke: #000000; stroke-opacity: 0.7"/>
     <use xlink:href="#m5bb44eb919" x="394.677861" y="35.366898" style="fill-opacity: 0.7; stroke: #000000; stroke-opacity: 0.7"/>
     <use xlink:href="#m5bb44eb919" x="431.682636" y="24.045455" style="fill-opacity: 0.7; stroke: #000000; stroke-opacity: 0.7"/>
    </g>
   </g>
   <g id="FillBetweenPolyCollection_2">
    <path d="M 65.335364 277.731047 
L 65.335364 277.914039 
L 72.811839 270.829586 
L 80.288314 265.014207 
L 87.764788 260.21703 
L 95.241263 256.216599 
L 102.717738 252.821974 
L 110.194213 249.874119 
L 117.670688 247.245287 
L 125.147163 244.836882 
L 132.623638 242.576202 
L 140.100113 240.412539 
L 147.576588 238.313036 
L 155.053063 236.258632 
L 162.529538 234.240385 
L 170.006013 232.256277 
L 177.482488 230.308635 
L 184.958963 228.402027 
L 192.435438 226.541268 
L 199.911913 224.732553 
L 207.388388 222.980578 
L 214.864863 221.288818 
L 222.341338 219.659301 
L 229.817813 218.092514 
L 237.294288 216.58738 
L 244.770763 215.141348 
L 252.247237 213.750577 
L 259.723712 212.410215 
L 267.200187 211.114784 
L 274.676662 209.858639 
L 282.153137 208.636464 
L 289.629612 207.443745 
L 297.106087 206.277145 
L 304.582562 205.13471 
L 312.059037 204.015854 
L 319.535512 202.921063 
L 327.011987 201.851346 
L 334.488462 200.807454 
L 341.964937 199.788976 
L 349.441412 198.793426 
L 356.917887 197.815497 
L 364.394362 196.84665 
L 371.870837 195.875191 
L 379.347312 194.886994 
L 386.823787 193.866923 
L 394.300262 192.800985 
L 401.776737 191.679112 
L 409.253212 190.498436 
L 416.729686 189.266814 
L 424.206161 188.006269 
L 431.682636 186.756045 
L 431.682636 186.131041 
L 431.682636 186.131041 
L 424.206161 187.379917 
L 416.729686 188.641178 
L 409.253212 189.875225 
L 401.776737 191.05975 
L 394.300262 192.186672 
L 386.823787 193.258669 
L 379.347312 194.285646 
L 371.870837 195.28145 
L 364.394362 196.261074 
L 356.917887 197.238507 
L 349.441412 198.225307 
L 341.964937 199.229891 
L 334.488462 200.257453 
L 327.011987 201.310385 
L 319.535512 202.389022 
L 312.059037 203.492561 
L 304.582562 204.619962 
L 297.106087 205.770721 
L 289.629612 206.945423 
L 282.153137 208.146015 
L 274.676662 209.375832 
L 267.200187 210.639374 
L 259.723712 211.941933 
L 252.247237 213.289122 
L 244.770763 214.686378 
L 237.294288 216.138514 
L 229.817813 217.64934 
L 222.341338 219.221398 
L 214.864863 220.855787 
L 207.388388 222.552077 
L 199.911913 224.308338 
L 192.435438 226.121231 
L 184.958963 227.986248 
L 177.482488 229.89811 
L 170.006013 231.851422 
L 162.529538 233.841674 
L 155.053063 235.866691 
L 147.576588 237.928636 
L 140.100113 240.036588 
L 132.623638 242.20974 
L 125.147163 244.481102 
L 117.670688 246.901576 
L 110.194213 249.544133 
L 102.717738 252.507757 
L 95.241263 255.920732 
L 87.764788 259.942842 
L 80.288314 264.765994 
L 72.811839 270.612279 
L 65.335364 277.731047 
z
" clip-path="url(#p837fce8bc5)" style="fill: #ff7f0e; fill-opacity: 0.45"/>
   </g>
   <g id="PathCollection_2">
    <g clip-path="url(#p837fce8bc5)">
     <use xlink:href="#m5bb44eb919" x="65.335364" y="229.564866" style="fill-opacity: 0.7; stroke: #000000; stroke-opacity: 0.7"/>
     <use xlink:href="#m5bb44eb919" x="98.639661" y="193.555489" style="fill-opacity: 0.7; stroke: #000000; stroke-opacity: 0.7"/>
     <use xlink:href="#m5bb44eb919" x="135.644436" y="170.063288" style="fill-opacity: 0.7; stroke: #000000; stroke-opacity: 0.7"/>
     <use xlink:href="#m5bb44eb919" x="172.649211" y="151.502794" style="fill-opacity: 0.7; stroke: #000000; stroke-opacity: 0.7"/>
     <use xlink:href="#m5bb44eb919" x="209.653986" y="137.098174" style="fill-opacity: 0.7; stroke: #000000; stroke-opacity: 0.7"/>
     <use xlink:href="#m5bb44eb919" x="246.658761" y="123.799525" style="fill-opacity: 0.7; stroke: #000000; stroke-opacity: 0.7"/>
     <use xlink:href="#m5bb44eb919" x="283.663536" y="112.961598" style="fill-opacity: 0.7; stroke: #000000; stroke-opacity: 0.7"/>
     <use xlink:href="#m5bb44eb919" x="320.668311" y="101.89655" style="fill-opacity: 0.7; stroke: #000000; stroke-opacity: 0.7"/>
     <use xlink:href="#m5bb44eb919" x="357.673086" y="92.724031" style="fill-opacity: 0.7; stroke: #000000; stroke-opacity: 0.7"/>
     <use xlink:href="#m5bb44eb919" x="394.677861" y="82.413048" style="fill-opacity: 0.7; stroke: #000000; stroke-opacity: 0.7"/>
     <use xlink:href="#m5bb44eb919" x="431.682636" y="74.150695" style="fill-opacity: 0.7; stroke: #000000; stroke-opacity: 0.7"/>
    </g>
   </g>
   <g id="FillBetweenPolyCollection_3">
    <path d="M 65.335364 275.793591 
L 65.335364 275.893067 
L 72.811839 269.318536 
L 80.288314 263.904442 
L 87.764788 259.417722 
L 95.241263 255.650454 
L 102.717738 252.425356 
L 110.194213 249.596098 
L 117.670688 247.046744 
L 125.147163 244.689558 
L 132.623638 242.461733 
L 140.100113 240.321392 
L 147.576588 238.243341 
L 155.053063 236.214887 
L 162.529538 234.232007 
L 170.006013 232.296113 
L 177.482488 230.411402 
L 184.958963 228.582907 
L 192.435438 226.815167 
L 199.911913 225.111426 
L 207.388388 223.47327 
L 214.864863 221.900877 
L 222.341338 220.392208 
L 229.817813 218.94401 
L 237.294288 217.55221 
L 244.770763 216.212062 
L 252.247237 214.91848 
L 259.723712 213.66667 
L 267.200187 212.451919 
L 274.676662 211.269891 
L 282.153137 210.117406 
L 289.629612 208.992466 
L 297.106087 207.894393 
L 304.582562 206.82384 
L 312.059037 205.78263 
L 319.535512 204.773388 
L 327.011987 203.799032 
L 334.488462 202.862097 
L 341.964937 201.963929 
L 349.441412 201.103947 
L 356.917887 200.278195 
L 364.394362 199.482342 
L 371.870837 198.707243 
L 379.347312 197.940118 
L 386.823787 197.169025 
L 394.300262 196.381619 
L 401.776737 195.568061 
L 409.253212 194.72298 
L 416.729686 193.850045 
L 424.206161 192.962768 
L 431.682636 192.087676 
L 431.682636 191.678265 
L 431.682636 191.678265 
L 424.206161 192.556847 
L 416.729686 193.448142 
L 409.253212 194.325469 
L 401.776737 195.174899 
L 394.300262 195.994226 
L 386.823787 196.787389 
L 379.347312 197.565561 
L 371.870837 198.338743 
L 364.394362 199.119797 
L 356.917887 199.922762 
L 349.441412 200.755044 
L 341.964937 201.619686 
L 334.488462 202.523667 
L 327.011987 203.466587 
L 319.535512 204.446161 
L 312.059037 205.459507 
L 304.582562 206.506102 
L 297.106087 207.582025 
L 289.629612 208.68436 
L 282.153137 209.813518 
L 274.676662 210.970198 
L 267.200187 212.156422 
L 259.723712 213.375401 
L 252.247237 214.631284 
L 244.770763 215.928863 
L 237.294288 217.273264 
L 229.817813 218.669587 
L 222.341338 220.12259 
L 214.864863 221.636335 
L 207.388388 223.213868 
L 199.911913 224.856892 
L 192.435438 226.565527 
L 184.958963 228.338165 
L 177.482488 230.171542 
L 170.006013 232.060272 
L 162.529538 234.000338 
L 155.053063 235.988258 
L 147.576588 238.021786 
L 140.100113 240.104527 
L 132.623638 242.249971 
L 125.147163 244.483511 
L 117.670688 246.84725 
L 110.194213 249.404266 
L 102.717738 252.242174 
L 95.241263 255.477855 
L 87.764788 259.259497 
L 80.288314 263.762663 
L 72.811839 269.19615 
L 65.335364 275.793591 
z
" clip-path="url(#p837fce8bc5)" style="fill: #2ca02c; fill-opacity: 0.45"/>
   </g>
   <g id="PathCollection_3">
    <g clip-path="url(#p837fce8bc5)">
     <use xlink:href="#m5bb44eb919" x="65.335364" y="245.457953" style="fill-opacity: 0.7; stroke: #000000; stroke-opacity: 0.7"/>
     <use xlink:href="#m5bb44eb919" x="98.639661" y="213.6656" style="fill-opacity: 0.7; stroke: #000000; stroke-opacity: 0.7"/>
     <use xlink:href="#m5bb44eb919" x="135.644436" y="194.787207" style="fill-opacity: 0.7; stroke: #000000; stroke-opacity: 0.7"/>
     <use xlink:href="#m5bb44eb919" x="172.649211" y="178.845501" style="fill-opacity: 0.7; stroke: #000000; stroke-opacity: 0.7"/>
     <use xlink:href="#m5bb44eb919" x="209.653986" y="165.723762" style="fill-opacity: 0.7; stroke: #000000; stroke-opacity: 0.7"/>
     <use xlink:href="#m5bb44eb919" x="246.658761" y="157.338439" style="fill-opacity: 0.7; stroke: #000000; stroke-opacity: 0.7"/>
     <use xlink:href="#m5bb44eb919" x="283.663536" y="147.732677" style="fill-opacity: 0.7; stroke: #000000; stroke-opacity: 0.7"/>
     <use xlink:href="#m5bb44eb919" x="320.668311" y="138.740273" style="fill-opacity: 0.7; stroke: #000000; stroke-opacity: 0.7"/>
     <use xlink:href="#m5bb44eb919" x="357.673086" y="129.029284" style="fill-opacity: 0.7; stroke: #000000; stroke-opacity: 0.7"/>
     <use xlink:href="#m5bb44eb919" x="394.677861" y="121.797199" style="fill-opacity: 0.7; stroke: #000000; stroke-opacity: 0.7"/>
     <use xlink:href="#m5bb44eb919" x="431.682636" y="113.933236" style="fill-opacity: 0.7; stroke: #000000; stroke-opacity: 0.7"/>
    </g>
   </g>
   <g id="FillBetweenPolyCollection_4">
    <path d="M 65.335364 274.450852 
L 65.335364 274.650185 
L 72.811839 268.859437 
L 80.288314 264.071193 
L 87.764788 260.076279 
L 95.241263 256.693672 
L 102.717738 253.769764 
L 110.194213 251.183297 
L 117.670688 248.837414 
L 125.147163 246.660439 
L 132.623638 244.602523 
L 140.100113 242.631674 
L 147.576588 240.729625 
L 155.053063 238.887868 
L 162.529538 237.104134 
L 170.006013 235.379485 
L 177.482488 233.716095 
L 184.958963 232.115747 
L 192.435438 230.578947 
L 199.911913 229.104588 
L 207.388388 227.689978 
L 214.864863 226.331155 
L 222.341338 225.023304 
L 229.817813 223.761209 
L 237.294288 222.539667 
L 244.770763 221.353807 
L 252.247237 220.199975 
L 259.723712 219.074907 
L 267.200187 217.975035 
L 274.676662 216.898461 
L 282.153137 215.843657 
L 289.629612 214.809775 
L 297.106087 213.798658 
L 304.582562 212.813522 
L 312.059037 211.855101 
L 319.535512 210.924799 
L 327.011987 210.029057 
L 334.488462 209.171048 
L 341.964937 208.350275 
L 349.441412 207.567346 
L 356.917887 206.819587 
L 364.394362 206.10405 
L 371.870837 205.415759 
L 379.347312 204.749468 
L 386.823787 204.102679 
L 394.300262 203.460848 
L 401.776737 202.818403 
L 409.253212 202.173735 
L 416.729686 201.527507 
L 424.206161 200.884306 
L 431.682636 200.265965 
L 431.682636 199.885783 
L 431.682636 199.885783 
L 424.206161 200.504407 
L 416.729686 201.14681 
L 409.253212 201.79562 
L 401.776737 202.442295 
L 394.300262 203.085295 
L 386.823787 203.7281 
L 379.347312 204.377276 
L 371.870837 205.041404 
L 364.394362 205.727146 
L 356.917887 206.441088 
L 349.441412 207.18914 
L 341.964937 207.973459 
L 334.488462 208.79584 
L 327.011987 209.655742 
L 319.535512 210.551259 
L 312.059037 211.479733 
L 304.582562 212.438302 
L 297.106087 213.424359 
L 289.629612 214.435239 
L 282.153137 215.469199 
L 274.676662 216.52541 
L 267.200187 217.604097 
L 259.723712 218.70628 
L 252.247237 219.833896 
L 244.770763 220.98977 
L 237.294288 222.177556 
L 229.817813 223.401636 
L 222.341338 224.666957 
L 214.864863 225.978782 
L 207.388388 227.342357 
L 199.911913 228.762486 
L 192.435438 230.243083 
L 184.958963 231.786746 
L 177.482488 233.394456 
L 170.006013 235.065559 
L 162.529538 236.798115 
L 155.053063 238.589797 
L 147.576588 240.439419 
L 140.100113 242.349153 
L 132.623638 244.327449 
L 125.147163 246.392552 
L 117.670688 248.576459 
L 110.194213 250.929025 
L 102.717738 253.521909 
L 95.241263 256.451927 
L 87.764788 259.8434 
L 80.288314 263.849072 
L 72.811839 268.650224 
L 65.335364 274.450852 
z
" clip-path="url(#p837fce8bc5)" style="fill: #d62728; fill-opacity: 0.45"/>
   </g>
   <g id="PathCollection_4">
    <g clip-path="url(#p837fce8bc5)">
     <use xlink:href="#m5bb44eb919" x="65.335364" y="257.440114" style="fill-opacity: 0.7; stroke: #000000; stroke-opacity: 0.7"/>
     <use xlink:href="#m5bb44eb919" x="98.639661" y="230.669673" style="fill-opacity: 0.7; stroke: #000000; stroke-opacity: 0.7"/>
     <use xlink:href="#m5bb44eb919" x="135.644436" y="214.341319" style="fill-opacity: 0.7; stroke: #000000; stroke-opacity: 0.7"/>
     <use xlink:href="#m5bb44eb919" x="172.649211" y="202.441666" style="fill-opacity: 0.7; stroke: #000000; stroke-opacity: 0.7"/>
     <use xlink:href="#m5bb44eb919" x="209.653986" y="191.626268" style="fill-opacity: 0.7; stroke: #000000; stroke-opacity: 0.7"/>
     <use xlink:href="#m5bb44eb919" x="246.658761" y="184.032165" style="fill-opacity: 0.7; stroke: #000000; stroke-opacity: 0.7"/>
     <use xlink:href="#m5bb44eb919" x="283.663536" y="175.599363" style="fill-opacity: 0.7; stroke: #000000; stroke-opacity: 0.7"/>
     <use xlink:href="#m5bb44eb919" x="320.668311" y="167.865033" style="fill-opacity: 0.7; stroke: #000000; stroke-opacity: 0.7"/>
     <use xlink:href="#m5bb44eb919" x="357.673086" y="160.085393" style="fill-opacity: 0.7; stroke: #000000; stroke-opacity: 0.7"/>
     <use xlink:href="#m5bb44eb919" x="394.677861" y="155.375235" style="fill-opacity: 0.7; stroke: #000000; stroke-opacity: 0.7"/>
     <use xlink:href="#m5bb44eb919" x="431.682636" y="149.579808" style="fill-opacity: 0.7; stroke: #000000; stroke-opacity: 0.7"/>
    </g>
   </g>
   <g id="FillBetweenPolyCollection_5">
    <path d="M 65.335364 276.10699 
L 65.335364 276.343975 
L 72.811839 271.271431 
L 80.288314 267.06616 
L 87.764788 263.551852 
L 95.241263 260.571877 
L 102.717738 257.99461 
L 110.194213 255.714429 
L 117.670688 253.647493 
L 125.147163 251.733335 
L 132.623638 249.930027 
L 140.100113 248.210564 
L 147.576588 246.55918 
L 155.053063 244.967885 
L 162.529538 243.433462 
L 170.006013 241.955079 
L 177.482488 240.532531 
L 184.958963 239.165132 
L 192.435438 237.851166 
L 199.911913 236.587772 
L 207.388388 235.371134 
L 214.864863 234.196854 
L 222.341338 233.060359 
L 229.817813 231.957283 
L 237.294288 230.883745 
L 244.770763 229.836515 
L 252.247237 228.813073 
L 259.723712 227.811562 
L 267.200187 226.830719 
L 274.676662 225.869771 
L 282.153137 224.928359 
L 289.629612 224.006488 
L 297.106087 223.104505 
L 304.582562 222.223093 
L 312.059037 221.363245 
L 319.535512 220.526195 
L 327.011987 219.713291 
L 334.488462 218.925781 
L 341.964937 218.164543 
L 349.441412 217.429772 
L 356.917887 216.720656 
L 364.394362 216.035212 
L 371.870837 215.36762 
L 379.347312 214.715555 
L 386.823787 214.074678 
L 394.300262 213.440241 
L 401.776737 212.808662 
L 409.253212 212.182017 
L 416.729686 211.560174 
L 424.206161 210.951021 
L 431.682636 210.369755 
L 431.682636 209.95965 
L 431.682636 209.95965 
L 424.206161 210.537938 
L 416.729686 211.145204 
L 409.253212 211.765929 
L 401.776737 212.391494 
L 394.300262 213.018917 
L 386.823787 213.64929 
L 379.347312 214.286254 
L 371.870837 214.934652 
L 364.394362 215.59946 
L 356.917887 216.285016 
L 349.441412 216.994566 
L 341.964937 217.730099 
L 334.488462 218.492398 
L 327.011987 219.281259 
L 319.535512 220.095789 
L 312.059037 220.93472 
L 304.582562 221.796668 
L 297.106087 222.680354 
L 289.629612 223.584753 
L 282.153137 224.509155 
L 274.676662 225.453195 
L 267.200187 226.417033 
L 259.723712 227.400971 
L 252.247237 228.405682 
L 244.770763 229.432477 
L 237.294288 230.483266 
L 229.817813 231.560633 
L 222.341338 232.667868 
L 214.864863 233.808905 
L 207.388388 234.988154 
L 199.911913 236.210211 
L 192.435438 237.479476 
L 184.958963 238.799743 
L 177.482488 240.173832 
L 170.006013 241.603404 
L 162.529538 243.089078 
L 155.053063 244.630998 
L 147.576588 246.229946 
L 140.100113 247.88911 
L 132.623638 249.616489 
L 125.147163 251.427903 
L 117.670688 253.350454 
L 110.194213 255.426219 
L 102.717738 257.715867 
L 95.241263 260.301336 
L 87.764788 263.289101 
L 80.288314 266.811279 
L 72.811839 271.024865 
L 65.335364 276.10699 
z
" clip-path="url(#p837fce8bc5)" style="fill: #9467bd; fill-opacity: 0.45"/>
   </g>
   <g id="PathCollection_5">
    <g clip-path="url(#p837fce8bc5)">
     <use xlink:href="#m5bb44eb919" x="65.335364" y="267.885081" style="fill-opacity: 0.7; stroke: #000000; stroke-opacity: 0.7"/>
     <use xlink:href="#m5bb44eb919" x="98.639661" y="244.46651" style="fill-opacity: 0.7; stroke: #000000; stroke-opacity: 0.7"/>
     <use xlink:href="#m5bb44eb919" x="135.644436" y="232.080797" style="fill-opacity: 0.7; stroke: #000000; stroke-opacity: 0.7"/>
     <use xlink:href="#m5bb44eb919" x="172.649211" y="221.216821" style="fill-opacity: 0.7; stroke: #000000; stroke-opacity: 0.7"/>
     <use xlink:href="#m5bb44eb919" x="209.653986" y="215.043232" style="fill-opacity: 0.7; stroke: #000000; stroke-opacity: 0.7"/>
     <use xlink:href="#m5bb44eb919" x="246.658761" y="205.930528" style="fill-opacity: 0.7; stroke: #000000; stroke-opacity: 0.7"/>
     <use xlink:href="#m5bb44eb919" x="283.663536" y="199.522154" style="fill-opacity: 0.7; stroke: #000000; stroke-opacity: 0.7"/>
     <use xlink:href="#m5bb44eb919" x="320.668311" y="195.167333" style="fill-opacity: 0.7; stroke: #000000; stroke-opacity: 0.7"/>
     <use xlink:href="#m5bb44eb919" x="357.673086" y="188.660371" style="fill-opacity: 0.7; stroke: #000000; stroke-opacity: 0.7"/>
     <use xlink:href="#m5bb44eb919" x="394.677861" y="182.826324" style="fill-opacity: 0.7; stroke: #000000; stroke-opacity: 0.7"/>
     <use xlink:href="#m5bb44eb919" x="431.682636" y="178.683348" style="fill-opacity: 0.7; stroke: #000000; stroke-opacity: 0.7"/>
    </g>
   </g>
   <g id="FillBetweenPolyCollection_6">
    <path d="M 65.335364 279.439723 
L 65.335364 279.658124 
L 72.811839 275.385372 
L 80.288314 271.846266 
L 87.764788 268.8886 
L 95.241263 266.383518 
L 102.717738 264.220877 
L 110.194213 262.311574 
L 117.670688 260.586618 
L 125.147163 258.995041 
L 132.623638 257.501128 
L 140.100113 256.081364 
L 147.576588 254.721351 
L 155.053063 253.412987 
L 162.529538 252.152051 
L 170.006013 250.936321 
L 177.482488 249.764245 
L 184.958963 248.634129 
L 192.435438 247.543785 
L 199.911913 246.490489 
L 207.388388 245.471173 
L 214.864863 244.482697 
L 222.341338 243.522133 
L 229.817813 242.586976 
L 237.294288 241.675715 
L 244.770763 240.786504 
L 252.247237 239.918328 
L 259.723712 239.070495 
L 267.200187 238.242451 
L 274.676662 237.433644 
L 282.153137 236.643443 
L 289.629612 235.871122 
L 297.106087 235.115897 
L 304.582562 234.376997 
L 312.059037 233.653758 
L 319.535512 232.945662 
L 327.011987 232.252348 
L 334.488462 231.573528 
L 341.964937 230.90884 
L 349.441412 230.257657 
L 356.917887 229.618885 
L 364.394362 228.990809 
L 371.870837 228.371067 
L 379.347312 227.756794 
L 386.823787 227.145012 
L 394.300262 226.533272 
L 401.776737 225.92056 
L 409.253212 225.308431 
L 416.729686 224.702281 
L 424.206161 224.11267 
L 431.682636 223.556535 
L 431.682636 223.147365 
L 431.682636 223.147365 
L 424.206161 223.704459 
L 416.729686 224.295174 
L 409.253212 224.902583 
L 401.776737 225.516125 
L 394.300262 226.130386 
L 386.823787 226.74379 
L 379.347312 227.357336 
L 371.870837 227.973452 
L 364.394362 228.595098 
L 356.917887 229.225126 
L 349.441412 229.865897 
L 341.964937 230.519237 
L 334.488462 231.186486 
L 327.011987 231.867905 
L 319.535512 232.563847 
L 312.059037 233.274596 
L 304.582562 234.000508 
L 297.106087 234.742091 
L 289.629612 235.500005 
L 282.153137 236.275014 
L 274.676662 237.067905 
L 267.200187 237.879413 
L 259.723712 238.710184 
L 252.247237 239.560794 
L 244.770763 240.43183 
L 237.294288 241.324025 
L 229.817813 242.238417 
L 222.341338 243.176482 
L 214.864863 244.140174 
L 207.388388 245.131938 
L 199.911913 246.154852 
L 192.435438 247.212058 
L 184.958963 248.306615 
L 177.482488 249.441225 
L 170.006013 250.618052 
L 162.529538 251.838762 
L 155.053063 253.104883 
L 147.576588 254.418629 
L 140.100113 255.78422 
L 132.623638 257.209781 
L 125.147163 258.709736 
L 117.670688 260.307761 
L 110.194213 262.039821 
L 102.717738 263.95647 
L 95.241263 266.126471 
L 87.764788 268.639723 
L 80.288314 271.605475 
L 72.811839 275.155623 
L 65.335364 279.439723 
z
" clip-path="url(#p837fce8bc5)" style="fill: #8c564b; fill-opacity: 0.45"/>
   </g>
   <g id="PathCollection_6">
    <g clip-path="url(#p837fce8bc5)">
     <use xlink:href="#m5bb44eb919" x="65.335364" y="274.698847" style="fill-opacity: 0.7; stroke: #000000; stroke-opacity: 0.7"/>
     <use xlink:href="#m5bb44eb919" x="98.639661" y="255.904568" style="fill-opacity: 0.7; stroke: #000000; stroke-opacity: 0.7"/>
     <use xlink:href="#m5bb44eb919" x="135.644436" y="246.911677" style="fill-opacity: 0.7; stroke: #000000; stroke-opacity: 0.7"/>
     <use xlink:href="#m5bb44eb919" x="172.649211" y="239.504851" style="fill-opacity: 0.7; stroke: #000000; stroke-opacity: 0.7"/>
     <use xlink:href="#m5bb44eb919" x="209.653986" y="233.346527" style="fill-opacity: 0.7; stroke: #000000; stroke-opacity: 0.7"/>
     <use xlink:href="#m5bb44eb919" x="246.658761" y="226.773751" style="fill-opacity: 0.7; stroke: #000000; stroke-opacity: 0.7"/>
     <use xlink:href="#m5bb44eb919" x="283.663536" y="222.218227" style="fill-opacity: 0.7; stroke: #000000; stroke-opacity: 0.7"/>
     <use xlink:href="#m5bb44eb919" x="320.668311" y="217.536218" style="fill-opacity: 0.7; stroke: #000000; stroke-opacity: 0.7"/>
     <use xlink:href="#m5bb44eb919" x="357.673086" y="213.153676" style="fill-opacity: 0.7; stroke: #000000; stroke-opacity: 0.7"/>
     <use xlink:href="#m5bb44eb919" x="394.677861" y="208.60688" style="fill-opacity: 0.7; stroke: #000000; stroke-opacity: 0.7"/>
     <use xlink:href="#m5bb44eb919" x="431.682636" y="205.869779" style="fill-opacity: 0.7; stroke: #000000; stroke-opacity: 0.7"/>
    </g>
   </g>
   <g id="FillBetweenPolyCollection_7">
    <path d="M 65.335364 283.340991 
L 65.335364 283.521044 
L 72.811839 280.088585 
L 80.288314 277.247642 
L 87.764788 274.878036 
L 95.241263 272.873942 
L 102.717738 271.147591 
L 110.194213 269.627735 
L 117.670688 268.258551 
L 125.147163 266.998483 
L 132.623638 265.818094 
L 140.100113 264.697667 
L 147.576588 263.624823 
L 155.053063 262.592326 
L 162.529538 261.596217 
L 170.006013 260.634354 
L 177.482488 259.70538 
L 184.958963 258.808082 
L 192.435438 257.941078 
L 199.911913 257.102756 
L 207.388388 256.291349 
L 214.864863 255.50509 
L 222.341338 254.742405 
L 229.817813 254.00235 
L 237.294288 253.283271 
L 244.770763 252.584216 
L 252.247237 251.904321 
L 259.723712 251.242688 
L 267.200187 250.598265 
L 274.676662 249.969782 
L 282.153137 249.35573 
L 289.629612 248.754403 
L 297.106087 248.163996 
L 304.582562 247.582724 
L 312.059037 247.008939 
L 319.535512 246.441214 
L 327.011987 245.878377 
L 334.488462 245.319473 
L 341.964937 244.76367 
L 349.441412 244.21012 
L 356.917887 243.657835 
L 364.394362 243.105598 
L 371.870837 242.551999 
L 379.347312 241.995621 
L 386.823787 241.43543 
L 394.300262 240.871378 
L 401.776737 240.305217 
L 409.253212 239.74147 
L 416.729686 239.188498 
L 424.206161 238.659552 
L 431.682636 238.173701 
L 431.682636 237.827743 
L 431.682636 237.827743 
L 424.206161 238.316052 
L 416.729686 238.84776 
L 409.253212 239.403742 
L 401.776737 239.970682 
L 394.300262 240.540149 
L 386.823787 241.107552 
L 379.347312 241.671077 
L 371.870837 242.23072 
L 364.394362 242.78747 
L 356.917887 243.342717 
L 349.441412 243.897853 
L 341.964937 244.454151 
L 334.488462 245.012698 
L 327.011987 245.574202 
L 319.535512 246.139505 
L 312.059037 246.709573 
L 304.582562 247.28559 
L 297.106087 247.868994 
L 289.629612 248.461449 
L 282.153137 249.064754 
L 274.676662 249.680733 
L 267.200187 250.311108 
L 259.723712 250.957412 
L 252.247237 251.620946 
L 244.770763 252.302787 
L 237.294288 253.003871 
L 229.817813 253.725097 
L 222.341338 254.467454 
L 214.864863 255.232124 
L 207.388388 256.020387 
L 199.911913 256.833923 
L 192.435438 257.674598 
L 184.958963 258.544169 
L 177.482488 259.444241 
L 170.006013 260.376182 
L 162.529538 261.341194 
L 155.053063 262.340632 
L 147.576588 263.376642 
L 140.100113 264.453231 
L 132.623638 265.578019 
L 125.147163 266.763056 
L 117.670688 268.027515 
L 110.194213 269.402082 
L 102.717738 270.927482 
L 95.241263 272.659688 
L 87.764788 274.670554 
L 80.288314 277.048611 
L 72.811839 279.899344 
L 65.335364 283.340991 
z
" clip-path="url(#p837fce8bc5)" style="fill: #e377c2; fill-opacity: 0.45"/>
   </g>
   <g id="PathCollection_7">
    <g clip-path="url(#p837fce8bc5)">
     <use xlink:href="#m5bb44eb919" x="65.335364" y="282.822617" style="fill-opacity: 0.7; stroke: #000000; stroke-opacity: 0.7"/>
     <use xlink:href="#m5bb44eb919" x="98.639661" y="269.799054" style="fill-opacity: 0.7; stroke: #000000; stroke-opacity: 0.7"/>
     <use xlink:href="#m5bb44eb919" x="135.644436" y="259.700864" style="fill-opacity: 0.7; stroke: #000000; stroke-opacity: 0.7"/>
     <use xlink:href="#m5bb44eb919" x="172.649211" y="254.57979" style="fill-opacity: 0.7; stroke: #000000; stroke-opacity: 0.7"/>
     <use xlink:href="#m5bb44eb919" x="209.653986" y="248.78574" style="fill-opacity: 0.7; stroke: #000000; stroke-opacity: 0.7"/>
     <use xlink:href="#m5bb44eb919" x="246.658761" y="245.491728" style="fill-opacity: 0.7; stroke: #000000; stroke-opacity: 0.7"/>
     <use xlink:href="#m5bb44eb919" x="283.663536" y="242.120738" style="fill-opacity: 0.7; stroke: #000000; stroke-opacity: 0.7"/>
     <use xlink:href="#m5bb44eb919" x="320.668311" y="237.819102" style="fill-opacity: 0.7; stroke: #000000; stroke-opacity: 0.7"/>
     <use xlink:href="#m5bb44eb919" x="357.673086" y="234.905953" style="fill-opacity: 0.7; stroke: #000000; stroke-opacity: 0.7"/>
     <use xlink:href="#m5bb44eb919" x="394.677861" y="232.596701" style="fill-opacity: 0.7; stroke: #000000; stroke-opacity: 0.7"/>
     <use xlink:href="#m5bb44eb919" x="431.682636" y="229.467641" style="fill-opacity: 0.7; stroke: #000000; stroke-opacity: 0.7"/>
    </g>
   </g>
   <g id="FillBetweenPolyCollection_8">
    <path d="M 65.335364 288.83105 
L 65.335364 288.954545 
L 72.811839 286.677819 
L 80.288314 284.79181 
L 87.764788 283.22072 
L 95.241263 281.896535 
L 102.717738 280.76148 
L 110.194213 279.768531 
L 117.670688 278.882085 
L 125.147163 278.073889 
L 132.623638 277.324499 
L 140.100113 276.621131 
L 147.576588 275.955935 
L 155.053063 275.324513 
L 162.529538 274.724644 
L 170.006013 274.155225 
L 177.482488 273.615508 
L 184.958963 273.104567 
L 192.435438 272.620753 
L 199.911913 272.160537 
L 207.388388 271.723223 
L 214.864863 271.30658 
L 222.341338 270.908402 
L 229.817813 270.522048 
L 237.294288 270.146818 
L 244.770763 269.777184 
L 252.247237 269.412497 
L 259.723712 269.048669 
L 267.200187 268.68191 
L 274.676662 268.309479 
L 282.153137 267.928912 
L 289.629612 267.538077 
L 297.106087 267.135231 
L 304.582562 266.719059 
L 312.059037 266.288684 
L 319.535512 265.843681 
L 327.011987 265.384037 
L 334.488462 264.91009 
L 341.964937 264.422454 
L 349.441412 263.924109 
L 356.917887 263.414019 
L 364.394362 262.894655 
L 371.870837 262.365171 
L 379.347312 261.829985 
L 386.823787 261.293145 
L 394.300262 260.757724 
L 401.776737 260.228155 
L 409.253212 259.716135 
L 416.729686 259.235059 
L 424.206161 258.801826 
L 431.682636 258.437569 
L 431.682636 258.196277 
L 431.682636 258.196277 
L 424.206161 258.563801 
L 416.729686 259.001032 
L 409.253212 259.486671 
L 401.776737 260.003663 
L 394.300262 260.538856 
L 386.823787 261.082483 
L 379.347312 261.627546 
L 371.870837 262.169176 
L 364.394362 262.703983 
L 356.917887 263.229499 
L 349.441412 263.744616 
L 341.964937 264.247751 
L 334.488462 264.737827 
L 327.011987 265.21401 
L 319.535512 265.675668 
L 312.059037 266.122434 
L 304.582562 266.55437 
L 297.106087 266.971908 
L 289.629612 267.375931 
L 282.153137 267.767775 
L 274.676662 268.149211 
L 267.200187 268.522364 
L 259.723712 268.889734 
L 252.247237 269.254113 
L 244.770763 269.618508 
L 237.294288 269.986117 
L 229.817813 270.360498 
L 222.341338 270.744948 
L 214.864863 271.14276 
L 207.388388 271.557541 
L 199.911913 271.99256 
L 192.435438 272.450776 
L 184.958963 272.934697 
L 177.482488 273.446285 
L 170.006013 273.986926 
L 162.529538 274.557549 
L 155.053063 275.158911 
L 147.576588 275.792102 
L 140.100113 276.459755 
L 132.623638 277.165876 
L 125.147163 277.918332 
L 117.670688 278.729948 
L 110.194213 279.620068 
L 102.717738 280.615561 
L 95.241263 281.753572 
L 87.764788 283.08136 
L 80.288314 284.656714 
L 72.811839 286.547093 
L 65.335364 288.83105 
z
" clip-path="url(#p837fce8bc5)" style="fill: #7f7f7f; fill-opacity: 0.45"/>
   </g>
   <g id="PathCollection_8">
    <g clip-path="url(#p837fce8bc5)">
     <use xlink:href="#m5bb44eb919" x="65.335364" y="286.23154" style="fill-opacity: 0.7; stroke: #000000; stroke-opacity: 0.7"/>
     <use xlink:href="#m5bb44eb919" x="98.639661" y="277.595878" style="fill-opacity: 0.7; stroke: #000000; stroke-opacity: 0.7"/>
     <use xlink:href="#m5bb44eb919" x="135.644436" y="272.138165" style="fill-opacity: 0.7; stroke: #000000; stroke-opacity: 0.7"/>
     <use xlink:href="#m5bb44eb919" x="172.649211" y="268.505436" style="fill-opacity: 0.7; stroke: #000000; stroke-opacity: 0.7"/>
     <use xlink:href="#m5bb44eb919" x="209.653986" y="265.36672" style="fill-opacity: 0.7; stroke: #000000; stroke-opacity: 0.7"/>
     <use xlink:href="#m5bb44eb919" x="246.658761" y="261.373583" style="fill-opacity: 0.7; stroke: #000000; stroke-opacity: 0.7"/>
     <use xlink:href="#m5bb44eb919" x="283.663536" y="259.328395" style="fill-opacity: 0.7; stroke: #000000; stroke-opacity: 0.7"/>
     <use xlink:href="#m5bb44eb919" x="320.668311" y="257.287628" style="fill-opacity: 0.7; stroke: #000000; stroke-opacity: 0.7"/>
     <use xlink:href="#m5bb44eb919" x="357.673086" y="254.603163" style="fill-opacity: 0.7; stroke: #000000; stroke-opacity: 0.7"/>
     <use xlink:href="#m5bb44eb919" x="394.677861" y="252.955954" style="fill-opacity: 0.7; stroke: #000000; stroke-opacity: 0.7"/>
     <use xlink:href="#m5bb44eb919" x="431.682636" y="250.23212" style="fill-opacity: 0.7; stroke: #000000; stroke-opacity: 0.7"/>
    </g>
   </g>
   <g id="matplotlib.axis_1">
    <g id="xtick_1">
     <g id="line2d_1">
      <defs>
       <path id="m5fa44117d4" d="M 0 0 
L 0 3.5 
" style="stroke: #000000; stroke-width: 0.8"/>
      </defs>
      <g>
       <use xlink:href="#m5fa44117d4" x="61.634886" y="302.2" style="stroke: #000000; stroke-width: 0.8"/>
      </g>
     </g>
     <g id="text_1">
      <!-- 0 -->
      <g transform="translate(58.453636 316.798437) scale(0.1 -0.1)">
       <defs>
        <path id="DejaVuSans-30" d="M 2034 4250 
Q 1547 4250 1301 3770 
Q 1056 3291 1056 2328 
Q 1056 1369 1301 889 
Q 1547 409 2034 409 
Q 2525 409 2770 889 
Q 3016 1369 3016 2328 
Q 3016 3291 2770 3770 
Q 2525 4250 2034 4250 
z
M 2034 4750 
Q 2819 4750 3233 4129 
Q 3647 3509 3647 2328 
Q 3647 1150 3233 529 
Q 2819 -91 2034 -91 
Q 1250 -91 836 529 
Q 422 1150 422 2328 
Q 422 3509 836 4129 
Q 1250 4750 2034 4750 
z
" transform="scale(0.015625)"/>
       </defs>
       <use xlink:href="#DejaVuSans-30"/>
      </g>
     </g>
    </g>
    <g id="xtick_2">
     <g id="line2d_2">
      <g>
       <use xlink:href="#m5fa44117d4" x="135.644436" y="302.2" style="stroke: #000000; stroke-width: 0.8"/>
      </g>
     </g>
     <g id="text_2">
      <!-- 1 -->
      <g transform="translate(132.463186 316.798437) scale(0.1 -0.1)">
       <defs>
        <path id="DejaVuSans-31" d="M 794 531 
L 1825 531 
L 1825 4091 
L 703 3866 
L 703 4441 
L 1819 4666 
L 2450 4666 
L 2450 531 
L 3481 531 
L 3481 0 
L 794 0 
L 794 531 
z
" transform="scale(0.015625)"/>
       </defs>
       <use xlink:href="#DejaVuSans-31"/>
      </g>
     </g>
    </g>
    <g id="xtick_3">
     <g id="line2d_3">
      <g>
       <use xlink:href="#m5fa44117d4" x="209.653986" y="302.2" style="stroke: #000000; stroke-width: 0.8"/>
      </g>
     </g>
     <g id="text_3">
      <!-- 2 -->
      <g transform="translate(206.472736 316.798437) scale(0.1 -0.1)">
       <defs>
        <path id="DejaVuSans-32" d="M 1228 531 
L 3431 531 
L 3431 0 
L 469 0 
L 469 531 
Q 828 903 1448 1529 
Q 2069 2156 2228 2338 
Q 2531 2678 2651 2914 
Q 2772 3150 2772 3378 
Q 2772 3750 2511 3984 
Q 2250 4219 1831 4219 
Q 1534 4219 1204 4116 
Q 875 4013 500 3803 
L 500 4441 
Q 881 4594 1212 4672 
Q 1544 4750 1819 4750 
Q 2544 4750 2975 4387 
Q 3406 4025 3406 3419 
Q 3406 3131 3298 2873 
Q 3191 2616 2906 2266 
Q 2828 2175 2409 1742 
Q 1991 1309 1228 531 
z
" transform="scale(0.015625)"/>
       </defs>
       <use xlink:href="#DejaVuSans-32"/>
      </g>
     </g>
    </g>
    <g id="xtick_4">
     <g id="line2d_4">
      <g>
       <use xlink:href="#m5fa44117d4" x="283.663536" y="302.2" style="stroke: #000000; stroke-width: 0.8"/>
      </g>
     </g>
     <g id="text_4">
      <!-- 3 -->
      <g transform="translate(280.482286 316.798437) scale(0.1 -0.1)">
       <defs>
        <path id="DejaVuSans-33" d="M 2597 2516 
Q 3050 2419 3304 2112 
Q 3559 1806 3559 1356 
Q 3559 666 3084 287 
Q 2609 -91 1734 -91 
Q 1441 -91 1130 -33 
Q 819 25 488 141 
L 488 750 
Q 750 597 1062 519 
Q 1375 441 1716 441 
Q 2309 441 2620 675 
Q 2931 909 2931 1356 
Q 2931 1769 2642 2001 
Q 2353 2234 1838 2234 
L 1294 2234 
L 1294 2753 
L 1863 2753 
Q 2328 2753 2575 2939 
Q 2822 3125 2822 3475 
Q 2822 3834 2567 4026 
Q 2313 4219 1838 4219 
Q 1578 4219 1281 4162 
Q 984 4106 628 3988 
L 628 4550 
Q 988 4650 1302 4700 
Q 1616 4750 1894 4750 
Q 2613 4750 3031 4423 
Q 3450 4097 3450 3541 
Q 3450 3153 3228 2886 
Q 3006 2619 2597 2516 
z
" transform="scale(0.015625)"/>
       </defs>
       <use xlink:href="#DejaVuSans-33"/>
      </g>
     </g>
    </g>
    <g id="xtick_5">
     <g id="line2d_5">
      <g>
       <use xlink:href="#m5fa44117d4" x="357.673086" y="302.2" style="stroke: #000000; stroke-width: 0.8"/>
      </g>
     </g>
     <g id="text_5">
      <!-- 4 -->
      <g transform="translate(354.491836 316.798437) scale(0.1 -0.1)">
       <defs>
        <path id="DejaVuSans-34" d="M 2419 4116 
L 825 1625 
L 2419 1625 
L 2419 4116 
z
M 2253 4666 
L 3047 4666 
L 3047 1625 
L 3713 1625 
L 3713 1100 
L 3047 1100 
L 3047 0 
L 2419 0 
L 2419 1100 
L 313 1100 
L 313 1709 
L 2253 4666 
z
" transform="scale(0.015625)"/>
       </defs>
       <use xlink:href="#DejaVuSans-34"/>
      </g>
     </g>
    </g>
    <g id="xtick_6">
     <g id="line2d_6">
      <g>
       <use xlink:href="#m5fa44117d4" x="431.682636" y="302.2" style="stroke: #000000; stroke-width: 0.8"/>
      </g>
     </g>
     <g id="text_6">
      <!-- 5 -->
      <g transform="translate(428.501386 316.798437) scale(0.1 -0.1)">
       <defs>
        <path id="DejaVuSans-35" d="M 691 4666 
L 3169 4666 
L 3169 4134 
L 1269 4134 
L 1269 2991 
Q 1406 3038 1543 3061 
Q 1681 3084 1819 3084 
Q 2600 3084 3056 2656 
Q 3513 2228 3513 1497 
Q 3513 744 3044 326 
Q 2575 -91 1722 -91 
Q 1428 -91 1123 -41 
Q 819 9 494 109 
L 494 744 
Q 775 591 1075 516 
Q 1375 441 1709 441 
Q 2250 441 2565 725 
Q 2881 1009 2881 1497 
Q 2881 1984 2565 2268 
Q 2250 2553 1709 2553 
Q 1456 2553 1204 2497 
Q 953 2441 691 2322 
L 691 4666 
z
" transform="scale(0.015625)"/>
       </defs>
       <use xlink:href="#DejaVuSans-35"/>
      </g>
     </g>
    </g>
    <g id="text_7">
     <!-- $W$ (m/hour) -->
     <g transform="translate(220.059 330.476562) scale(0.1 -0.1)">
      <defs>
       <path id="DejaVuSans-Oblique-57" d="M 616 4666 
L 1228 4666 
L 1453 697 
L 3213 4666 
L 3916 4666 
L 4147 697 
L 5888 4666 
L 6528 4666 
L 4453 0 
L 3659 0 
L 3444 3891 
L 1697 0 
L 903 0 
L 616 4666 
z
" transform="scale(0.015625)"/>
       <path id="DejaVuSans-20" transform="scale(0.015625)"/>
       <path id="DejaVuSans-28" d="M 1984 4856 
Q 1566 4138 1362 3434 
Q 1159 2731 1159 2009 
Q 1159 1288 1364 580 
Q 1569 -128 1984 -844 
L 1484 -844 
Q 1016 -109 783 600 
Q 550 1309 550 2009 
Q 550 2706 781 3412 
Q 1013 4119 1484 4856 
L 1984 4856 
z
" transform="scale(0.015625)"/>
       <path id="DejaVuSans-6d" d="M 3328 2828 
Q 3544 3216 3844 3400 
Q 4144 3584 4550 3584 
Q 5097 3584 5394 3201 
Q 5691 2819 5691 2113 
L 5691 0 
L 5113 0 
L 5113 2094 
Q 5113 2597 4934 2840 
Q 4756 3084 4391 3084 
Q 3944 3084 3684 2787 
Q 3425 2491 3425 1978 
L 3425 0 
L 2847 0 
L 2847 2094 
Q 2847 2600 2669 2842 
Q 2491 3084 2119 3084 
Q 1678 3084 1418 2786 
Q 1159 2488 1159 1978 
L 1159 0 
L 581 0 
L 581 3500 
L 1159 3500 
L 1159 2956 
Q 1356 3278 1631 3431 
Q 1906 3584 2284 3584 
Q 2666 3584 2933 3390 
Q 3200 3197 3328 2828 
z
" transform="scale(0.015625)"/>
       <path id="DejaVuSans-2f" d="M 1625 4666 
L 2156 4666 
L 531 -594 
L 0 -594 
L 1625 4666 
z
" transform="scale(0.015625)"/>
       <path id="DejaVuSans-68" d="M 3513 2113 
L 3513 0 
L 2938 0 
L 2938 2094 
Q 2938 2591 2744 2837 
Q 2550 3084 2163 3084 
Q 1697 3084 1428 2787 
Q 1159 2491 1159 1978 
L 1159 0 
L 581 0 
L 581 4863 
L 1159 4863 
L 1159 2956 
Q 1366 3272 1645 3428 
Q 1925 3584 2291 3584 
Q 2894 3584 3203 3211 
Q 3513 2838 3513 2113 
z
" transform="scale(0.015625)"/>
       <path id="DejaVuSans-6f" d="M 1959 3097 
Q 1497 3097 1228 2736 
Q 959 2375 959 1747 
Q 959 1119 1226 758 
Q 1494 397 1959 397 
Q 2419 397 2687 759 
Q 2956 1122 2956 1747 
Q 2956 2369 2687 2733 
Q 2419 3097 1959 3097 
z
M 1959 3584 
Q 2709 3584 3137 3096 
Q 3566 2609 3566 1747 
Q 3566 888 3137 398 
Q 2709 -91 1959 -91 
Q 1206 -91 779 398 
Q 353 888 353 1747 
Q 353 2609 779 3096 
Q 1206 3584 1959 3584 
z
" transform="scale(0.015625)"/>
       <path id="DejaVuSans-75" d="M 544 1381 
L 544 3500 
L 1119 3500 
L 1119 1403 
Q 1119 906 1312 657 
Q 1506 409 1894 409 
Q 2359 409 2629 706 
Q 2900 1003 2900 1516 
L 2900 3500 
L 3475 3500 
L 3475 0 
L 2900 0 
L 2900 538 
Q 2691 219 2414 64 
Q 2138 -91 1772 -91 
Q 1169 -91 856 284 
Q 544 659 544 1381 
z
M 1991 3584 
L 1991 3584 
z
" transform="scale(0.015625)"/>
       <path id="DejaVuSans-72" d="M 2631 2963 
Q 2534 3019 2420 3045 
Q 2306 3072 2169 3072 
Q 1681 3072 1420 2755 
Q 1159 2438 1159 1844 
L 1159 0 
L 581 0 
L 581 3500 
L 1159 3500 
L 1159 2956 
Q 1341 3275 1631 3429 
Q 1922 3584 2338 3584 
Q 2397 3584 2469 3576 
Q 2541 3569 2628 3553 
L 2631 2963 
z
" transform="scale(0.015625)"/>
       <path id="DejaVuSans-29" d="M 513 4856 
L 1013 4856 
Q 1481 4119 1714 3412 
Q 1947 2706 1947 2009 
Q 1947 1309 1714 600 
Q 1481 -109 1013 -844 
L 513 -844 
Q 928 -128 1133 580 
Q 1338 1288 1338 2009 
Q 1338 2731 1133 3434 
Q 928 4138 513 4856 
z
" transform="scale(0.015625)"/>
      </defs>
      <use xlink:href="#DejaVuSans-Oblique-57" transform="translate(0 0.015625)"/>
      <use xlink:href="#DejaVuSans-20" transform="translate(98.876953 0.015625)"/>
      <use xlink:href="#DejaVuSans-28" transform="translate(130.664062 0.015625)"/>
      <use xlink:href="#DejaVuSans-6d" transform="translate(169.677734 0.015625)"/>
      <use xlink:href="#DejaVuSans-2f" transform="translate(267.089844 0.015625)"/>
      <use xlink:href="#DejaVuSans-68" transform="translate(300.78125 0.015625)"/>
      <use xlink:href="#DejaVuSans-6f" transform="translate(364.160156 0.015625)"/>
      <use xlink:href="#DejaVuSans-75" transform="translate(425.341797 0.015625)"/>
      <use xlink:href="#DejaVuSans-72" transform="translate(488.720703 0.015625)"/>
      <use xlink:href="#DejaVuSans-29" transform="translate(529.833984 0.015625)"/>
     </g>
    </g>
   </g>
   <g id="matplotlib.axis_2">
    <g id="ytick_1">
     <g id="line2d_7">
      <defs>
       <path id="mf4b1c2e995" d="M 0 0 
L -3.5 0 
" style="stroke: #000000; stroke-width: 0.8"/>
      </defs>
      <g>
       <use xlink:href="#mf4b1c2e995" x="47.018" y="298.716432" style="stroke: #000000; stroke-width: 0.8"/>
      </g>
     </g>
     <g id="text_8">
      <!-- 0 -->
      <g transform="translate(33.6555 302.515651) scale(0.1 -0.1)">
       <use xlink:href="#DejaVuSans-30"/>
      </g>
     </g>
    </g>
    <g id="ytick_2">
     <g id="line2d_8">
      <g>
       <use xlink:href="#mf4b1c2e995" x="47.018" y="234.672236" style="stroke: #000000; stroke-width: 0.8"/>
      </g>
     </g>
     <g id="text_9">
      <!-- 10 -->
      <g transform="translate(27.293 238.471454) scale(0.1 -0.1)">
       <use xlink:href="#DejaVuSans-31"/>
       <use xlink:href="#DejaVuSans-30" transform="translate(63.623047 0)"/>
      </g>
     </g>
    </g>
    <g id="ytick_3">
     <g id="line2d_9">
      <g>
       <use xlink:href="#mf4b1c2e995" x="47.018" y="170.628039" style="stroke: #000000; stroke-width: 0.8"/>
      </g>
     </g>
     <g id="text_10">
      <!-- 20 -->
      <g transform="translate(27.293 174.427258) scale(0.1 -0.1)">
       <use xlink:href="#DejaVuSans-32"/>
       <use xlink:href="#DejaVuSans-30" transform="translate(63.623047 0)"/>
      </g>
     </g>
    </g>
    <g id="ytick_4">
     <g id="line2d_10">
      <g>
       <use xlink:href="#mf4b1c2e995" x="47.018" y="106.583843" style="stroke: #000000; stroke-width: 0.8"/>
      </g>
     </g>
     <g id="text_11">
      <!-- 30 -->
      <g transform="translate(27.293 110.383061) scale(0.1 -0.1)">
       <use xlink:href="#DejaVuSans-33"/>
       <use xlink:href="#DejaVuSans-30" transform="translate(63.623047 0)"/>
      </g>
     </g>
    </g>
    <g id="ytick_5">
     <g id="line2d_11">
      <g>
       <use xlink:href="#mf4b1c2e995" x="47.018" y="42.539646" style="stroke: #000000; stroke-width: 0.8"/>
      </g>
     </g>
     <g id="text_12">
      <!-- 40 -->
      <g transform="translate(27.293 46.338865) scale(0.1 -0.1)">
       <use xlink:href="#DejaVuSans-34"/>
       <use xlink:href="#DejaVuSans-30" transform="translate(63.623047 0)"/>
      </g>
     </g>
    </g>
    <g id="text_13">
     <!-- $Q_{lc}$ (kW) -->
     <g transform="translate(21.213312 176.8) rotate(-90) scale(0.1 -0.1)">
      <defs>
       <path id="DejaVuSans-Oblique-51" d="M 2309 -84 
Q 2275 -88 2237 -89 
Q 2200 -91 2125 -91 
Q 1250 -91 756 411 
Q 263 913 263 1797 
Q 263 2319 452 2844 
Q 641 3369 978 3788 
Q 1369 4269 1858 4509 
Q 2347 4750 2938 4750 
Q 3794 4750 4287 4245 
Q 4781 3741 4781 2869 
Q 4781 1928 4265 1147 
Q 3750 366 2919 44 
L 3553 -825 
L 2847 -825 
L 2309 -84 
z
M 2919 4238 
Q 2400 4238 2003 3986 
Q 1606 3734 1313 3219 
Q 1125 2891 1026 2522 
Q 928 2153 928 1778 
Q 928 1128 1239 775 
Q 1550 422 2119 422 
Q 2631 422 3032 676 
Q 3434 931 3719 1434 
Q 3909 1772 4009 2142 
Q 4109 2513 4109 2881 
Q 4109 3528 3796 3883 
Q 3484 4238 2919 4238 
z
" transform="scale(0.015625)"/>
       <path id="DejaVuSans-Oblique-6c" d="M 1172 4863 
L 1747 4863 
L 800 0 
L 225 0 
L 1172 4863 
z
" transform="scale(0.015625)"/>
       <path id="DejaVuSans-Oblique-63" d="M 3431 3366 
L 3316 2797 
Q 3109 2947 2876 3022 
Q 2644 3097 2394 3097 
Q 2119 3097 1870 3000 
Q 1622 2903 1453 2725 
Q 1184 2453 1037 2087 
Q 891 1722 891 1331 
Q 891 859 1127 628 
Q 1363 397 1844 397 
Q 2081 397 2348 469 
Q 2616 541 2906 684 
L 2797 116 
Q 2547 13 2283 -39 
Q 2019 -91 1741 -91 
Q 1044 -91 669 257 
Q 294 606 294 1253 
Q 294 1797 489 2255 
Q 684 2713 1069 3078 
Q 1331 3328 1684 3456 
Q 2038 3584 2456 3584 
Q 2700 3584 2940 3529 
Q 3181 3475 3431 3366 
z
" transform="scale(0.015625)"/>
       <path id="DejaVuSans-6b" d="M 581 4863 
L 1159 4863 
L 1159 1991 
L 2875 3500 
L 3609 3500 
L 1753 1863 
L 3688 0 
L 2938 0 
L 1159 1709 
L 1159 0 
L 581 0 
L 581 4863 
z
" transform="scale(0.015625)"/>
       <path id="DejaVuSans-57" d="M 213 4666 
L 850 4666 
L 1831 722 
L 2809 4666 
L 3519 4666 
L 4500 722 
L 5478 4666 
L 6119 4666 
L 4947 0 
L 4153 0 
L 3169 4050 
L 2175 0 
L 1381 0 
L 213 4666 
z
" transform="scale(0.015625)"/>
      </defs>
      <use xlink:href="#DejaVuSans-Oblique-51" transform="translate(0 0.015625)"/>
      <use xlink:href="#DejaVuSans-Oblique-6c" transform="translate(78.710938 -16.390625) scale(0.7)"/>
      <use xlink:href="#DejaVuSans-Oblique-63" transform="translate(98.15918 -16.390625) scale(0.7)"/>
      <use xlink:href="#DejaVuSans-20" transform="translate(139.379883 0.015625)"/>
      <use xlink:href="#DejaVuSans-28" transform="translate(171.166992 0.015625)"/>
      <use xlink:href="#DejaVuSans-6b" transform="translate(210.180664 0.015625)"/>
      <use xlink:href="#DejaVuSans-57" transform="translate(268.09082 0.015625)"/>
      <use xlink:href="#DejaVuSans-29" transform="translate(366.967773 0.015625)"/>
     </g>
    </g>
   </g>
   <g id="line2d_12">
    <path d="M 65.335364 277.757562 
L 72.811839 270.137309 
L 80.288314 263.872834 
L 87.764788 258.704827 
L 95.241263 254.402302 
L 102.717738 250.766613 
L 110.194213 247.630627 
L 117.670688 244.859886 
L 125.147163 242.34891 
L 132.623638 240.01789 
L 140.100113 237.808497 
L 147.576588 235.68095 
L 155.053063 233.608225 
L 162.529538 231.574322 
L 170.006013 229.570876 
L 177.482488 227.594959 
L 184.958963 225.647328 
L 192.435438 223.731529 
L 199.911913 221.852108 
L 207.388388 220.014345 
L 214.864863 218.223821 
L 222.341338 216.485479 
L 229.817813 214.803197 
L 237.294288 213.179678 
L 244.770763 211.615088 
L 252.247237 210.107905 
L 259.723712 208.654656 
L 267.200187 207.250149 
L 274.676662 205.88792 
L 282.153137 204.560832 
L 289.629612 203.261906 
L 297.106087 201.984744 
L 304.582562 200.724111 
L 312.059037 199.47617 
L 319.535512 198.238408 
L 327.011987 197.009188 
L 334.488462 195.787042 
L 341.964937 194.569723 
L 349.441412 193.353185 
L 356.917887 192.131237 
L 364.394362 190.894077 
L 371.870837 189.628651 
L 379.347312 188.320578 
L 386.823787 186.954484 
L 394.300262 185.516993 
L 401.776737 184.00292 
L 409.253212 182.4137 
L 416.729686 180.765057 
L 424.206161 179.092384 
L 431.682636 177.449639 
" clip-path="url(#p837fce8bc5)" style="fill: none; stroke: #1f77b4; stroke-width: 1.5; stroke-linecap: square"/>
   </g>
   <g id="line2d_13">
    <path d="M 65.335364 277.854393 
L 72.811839 270.755106 
L 80.288314 264.925957 
L 87.764788 260.119204 
L 95.241263 256.110432 
L 102.717738 252.708915 
L 110.194213 249.755302 
L 117.670688 247.121573 
L 125.147163 244.708949 
L 132.623638 242.444557 
L 140.100113 240.277569 
L 147.576588 238.175021 
L 155.053063 236.117785 
L 162.529538 234.096847 
L 170.006013 232.110462 
L 177.482488 230.159914 
L 184.958963 228.25058 
L 192.435438 226.38758 
L 199.911913 224.576945 
L 207.388388 222.823123 
L 214.864863 221.129195 
L 222.341338 219.497152 
L 229.817813 217.927946 
L 237.294288 216.420387 
L 244.770763 214.971676 
L 252.247237 213.578253 
L 259.723712 212.235267 
L 267.200187 210.937238 
L 274.676662 209.678514 
L 282.153137 208.453768 
L 289.629612 207.258445 
L 297.106087 206.08901 
L 304.582562 204.943814 
L 312.059037 203.822008 
L 319.535512 202.724337 
L 327.011987 201.651804 
L 334.488462 200.605035 
L 341.964937 199.583334 
L 349.441412 198.584573 
L 356.917887 197.603478 
L 364.394362 196.631545 
L 371.870837 195.65712 
L 379.347312 194.666113 
L 386.823787 193.643431 
L 394.300262 192.575119 
L 401.776737 191.451158 
L 409.253212 190.268153 
L 416.729686 189.034466 
L 424.206161 187.771916 
L 431.682636 186.520692 
" clip-path="url(#p837fce8bc5)" style="fill: none; stroke: #ff7f0e; stroke-width: 1.5; stroke-linecap: square"/>
   </g>
   <g id="line2d_14">
    <path d="M 65.335364 275.844655 
L 72.811839 269.260481 
L 80.288314 263.837232 
L 87.764788 259.342071 
L 95.241263 255.567817 
L 102.717738 252.337382 
L 110.194213 249.503953 
L 117.670688 246.951198 
L 125.147163 244.591032 
L 132.623638 242.360481 
L 140.100113 240.217541 
L 147.576588 238.136929 
L 155.053063 236.106052 
L 162.529538 234.12106 
L 170.006013 232.182948 
L 177.482488 230.296784 
L 184.958963 228.466499 
L 192.435438 226.696845 
L 199.911913 224.990941 
L 207.388388 223.350558 
L 214.864863 221.775687 
L 222.341338 220.264451 
L 229.817813 218.813906 
L 237.294288 217.419985 
L 244.770763 216.07793 
L 252.247237 214.782639 
L 259.723712 213.52887 
L 267.200187 212.312047 
L 274.676662 211.12789 
L 282.153137 209.973238 
L 289.629612 208.845797 
L 297.106087 207.745097 
L 304.582562 206.671373 
L 312.059037 205.627853 
L 319.535512 204.616177 
L 327.011987 203.640202 
L 334.488462 202.701642 
L 341.964937 201.801342 
L 349.441412 200.938288 
L 356.917887 200.111411 
L 364.394362 199.313765 
L 371.870837 198.535957 
L 379.347312 197.767778 
L 386.823787 196.994876 
L 394.300262 196.205678 
L 401.776737 195.389263 
L 409.253212 194.542715 
L 416.729686 193.66862 
L 424.206161 192.779844 
L 431.682636 191.903106 
" clip-path="url(#p837fce8bc5)" style="fill: none; stroke: #2ca02c; stroke-width: 1.5; stroke-linecap: square"/>
   </g>
   <g id="line2d_15">
    <path d="M 65.335364 274.518044 
L 72.811839 268.729596 
L 80.288314 263.937776 
L 87.764788 259.938411 
L 95.241263 256.552125 
L 102.717738 253.627097 
L 110.194213 251.038173 
L 117.670688 248.689236 
L 125.147163 246.508714 
L 132.623638 244.446785 
L 140.100113 242.471682 
L 147.576588 240.565178 
L 155.053063 238.718698 
L 162.529538 236.930155 
L 170.006013 235.20072 
L 177.482488 233.532694 
L 184.958963 231.92799 
L 192.435438 230.387236 
L 199.911913 228.909387 
L 207.388388 227.491872 
L 214.864863 226.130752 
L 222.341338 224.821221 
L 229.817813 223.557684 
L 237.294288 222.3355 
L 244.770763 221.149385 
L 252.247237 219.994838 
L 259.723712 218.868648 
L 267.200187 217.767755 
L 274.676662 216.689772 
L 282.153137 215.635494 
L 289.629612 214.603004 
L 297.106087 213.592983 
L 304.582562 212.607778 
L 312.059037 211.650229 
L 319.535512 210.722682 
L 327.011987 209.828193 
L 334.488462 208.969331 
L 341.964937 208.148619 
L 349.441412 207.364903 
L 356.917887 206.618671 
L 364.394362 205.906077 
L 371.870837 205.222082 
L 379.347312 204.559317 
L 386.823787 203.90999 
L 394.300262 203.268062 
L 401.776737 202.62697 
L 409.253212 201.981998 
L 416.729686 201.335002 
L 424.206161 200.694652 
L 431.682636 200.077478 
" clip-path="url(#p837fce8bc5)" style="fill: none; stroke: #d62728; stroke-width: 1.5; stroke-linecap: square"/>
   </g>
   <g id="line2d_16">
    <path d="M 65.335364 276.173249 
L 72.811839 271.100548 
L 80.288314 266.895613 
L 87.764788 263.379278 
L 95.241263 260.396816 
L 102.717738 257.816215 
L 110.194213 255.531145 
L 117.670688 253.459193 
L 125.147163 251.540216 
L 132.623638 249.732228 
L 140.100113 248.008205 
L 147.576588 246.352373 
L 155.053063 244.756704 
L 162.529538 243.217949 
L 170.006013 241.735317 
L 177.482488 240.308699 
L 184.958963 238.937284 
L 192.435438 237.619656 
L 199.911913 236.353001 
L 207.388388 235.133275 
L 214.864863 233.956059 
L 222.341338 232.817121 
L 229.817813 231.71189 
L 237.294288 230.636326 
L 244.770763 229.587268 
L 252.247237 228.562065 
L 259.723712 227.55908 
L 267.200187 226.576876 
L 274.676662 225.614667 
L 282.153137 224.672108 
L 289.629612 223.749518 
L 297.106087 222.846969 
L 304.582562 221.965122 
L 312.059037 221.105113 
L 319.535512 220.268004 
L 327.011987 219.454929 
L 334.488462 218.666692 
L 341.964937 217.906269 
L 349.441412 217.172154 
L 356.917887 216.463759 
L 364.394362 215.77891 
L 371.870837 215.11596 
L 379.347312 214.468497 
L 386.823787 213.832266 
L 394.300262 213.202313 
L 401.776737 212.575007 
L 409.253212 211.949418 
L 416.729686 211.328239 
L 424.206161 210.721987 
L 431.682636 210.143596 
" clip-path="url(#p837fce8bc5)" style="fill: none; stroke: #9467bd; stroke-width: 1.5; stroke-linecap: square"/>
   </g>
   <g id="line2d_17">
    <path d="M 65.335364 279.496865 
L 72.811839 275.219341 
L 80.288314 271.676347 
L 87.764788 268.715767 
L 95.241263 266.207518 
L 102.717738 264.041381 
L 110.194213 262.128672 
L 117.670688 260.400395 
L 125.147163 258.805285 
L 132.623638 257.307636 
L 140.100113 255.884608 
L 147.576588 254.52164 
L 155.053063 253.210442 
L 162.529538 251.946784 
L 170.006013 250.728445 
L 177.482488 249.553887 
L 184.958963 248.421339 
L 192.435438 247.328855 
L 199.911913 246.273522 
L 207.388388 245.252348 
L 214.864863 244.262204 
L 222.341338 243.300222 
L 229.817813 242.363831 
L 237.294288 241.45098 
L 244.770763 240.560299 
L 252.247237 239.690862 
L 259.723712 238.841886 
L 267.200187 238.012292 
L 274.676662 237.20237 
L 282.153137 236.411169 
L 289.629612 235.638061 
L 297.106087 234.882076 
L 304.582562 234.142181 
L 312.059037 233.418176 
L 319.535512 232.708999 
L 327.011987 232.014895 
L 334.488462 231.335177 
L 341.964937 230.669834 
L 349.441412 230.018043 
L 356.917887 229.379071 
L 364.394362 228.750825 
L 371.870837 228.130875 
L 379.347312 227.516528 
L 386.823787 226.904377 
L 394.300262 226.292126 
L 401.776737 225.678716 
L 409.253212 225.065743 
L 416.729686 224.459421 
L 424.206161 223.869955 
L 431.682636 223.313855 
" clip-path="url(#p837fce8bc5)" style="fill: none; stroke: #8c564b; stroke-width: 1.5; stroke-linecap: square"/>
   </g>
   <g id="line2d_18">
    <path d="M 65.335364 283.386199 
L 72.811839 279.949992 
L 80.288314 277.104443 
L 87.764788 274.731092 
L 95.241263 272.724224 
L 102.717738 270.995084 
L 110.194213 269.472706 
L 117.670688 268.100987 
L 125.147163 266.838927 
L 132.623638 265.65667 
L 140.100113 264.534628 
L 147.576588 263.459838 
L 155.053063 262.425444 
L 162.529538 261.427947 
L 170.006013 260.464781 
L 177.482488 259.534586 
L 184.958963 258.636198 
L 192.435438 257.768104 
L 199.911913 256.928864 
L 207.388388 256.116649 
L 214.864863 255.329753 
L 222.341338 254.566535 
L 229.817813 253.825464 
L 237.294288 253.105593 
L 244.770763 252.405722 
L 252.247237 251.724896 
L 259.723712 251.062573 
L 267.200187 250.417575 
L 274.676662 249.788596 
L 282.153137 249.173892 
L 289.629612 248.571728 
L 297.106087 247.980627 
L 304.582562 247.398308 
L 312.059037 246.823697 
L 319.535512 246.254939 
L 327.011987 245.690924 
L 334.488462 245.13088 
L 341.964937 244.573827 
L 349.441412 244.018904 
L 356.917887 243.465114 
L 364.394362 242.911345 
L 371.870837 242.356086 
L 379.347312 241.797912 
L 386.823787 241.235821 
L 394.300262 240.669812 
L 401.776737 240.101692 
L 409.253212 239.536052 
L 416.729686 238.98132 
L 424.206161 238.450818 
L 431.682636 237.963658 
" clip-path="url(#p837fce8bc5)" style="fill: none; stroke: #e377c2; stroke-width: 1.5; stroke-linecap: square"/>
   </g>
   <g id="line2d_19">
    <path d="M 65.335364 288.864347 
L 72.811839 286.585374 
L 80.288314 284.698823 
L 87.764788 283.127246 
L 95.241263 281.802129 
L 102.717738 280.666582 
L 110.194213 279.673285 
L 117.670688 278.785686 
L 125.147163 277.976397 
L 132.623638 277.226033 
L 140.100113 276.521638 
L 147.576588 275.855681 
L 155.053063 275.22403 
L 162.529538 274.62425 
L 170.006013 274.05473 
L 177.482488 273.515043 
L 184.958963 273.00444 
L 192.435438 272.521308 
L 199.911913 272.064014 
L 207.388388 271.629531 
L 214.864863 271.215004 
L 222.341338 270.817468 
L 229.817813 270.433318 
L 237.294288 270.058978 
L 244.770763 269.691523 
L 252.247237 269.327362 
L 259.723712 268.963519 
L 267.200187 268.596654 
L 274.676662 268.223844 
L 282.153137 267.842741 
L 289.629612 267.45141 
L 297.106087 267.047964 
L 304.582562 266.631014 
L 312.059037 266.199769 
L 319.535512 265.753907 
L 327.011987 265.293136 
L 334.488462 264.817631 
L 341.964937 264.328546 
L 349.441412 263.82657 
L 356.917887 263.31295 
L 364.394362 262.789171 
L 371.870837 262.255708 
L 379.347312 261.715837 
L 386.823787 261.172267 
L 394.300262 260.629794 
L 401.776737 260.095792 
L 409.253212 259.580054 
L 416.729686 259.095169 
L 424.206161 258.659387 
L 431.682636 258.292836 
" clip-path="url(#p837fce8bc5)" style="fill: none; stroke: #7f7f7f; stroke-width: 1.5; stroke-linecap: square"/>
   </g>
   <g id="patch_3">
    <path d="M 47.018 302.2 
L 47.018 10.8 
" style="fill: none; stroke: #000000; stroke-width: 0.8; stroke-linejoin: miter; stroke-linecap: square"/>
   </g>
   <g id="patch_4">
    <path d="M 450 302.2 
L 450 10.8 
" style="fill: none; stroke: #000000; stroke-width: 0.8; stroke-linejoin: miter; stroke-linecap: square"/>
   </g>
   <g id="patch_5">
    <path d="M 47.018 302.2 
L 450 302.2 
" style="fill: none; stroke: #000000; stroke-width: 0.8; stroke-linejoin: miter; stroke-linecap: square"/>
   </g>
   <g id="patch_6">
    <path d="M 47.018 10.8 
L 450 10.8 
" style="fill: none; stroke: #000000; stroke-width: 0.8; stroke-linejoin: miter; stroke-linecap: square"/>
   </g>
   <g id="legend_1">
    <g id="patch_7">
     <path d="M 54.018 150.903125 
L 152.852375 150.903125 
Q 154.852375 150.903125 154.852375 148.903125 
L 154.852375 17.8 
Q 154.852375 15.8 152.852375 15.8 
L 54.018 15.8 
Q 52.018 15.8 52.018 17.8 
L 52.018 148.903125 
Q 52.018 150.903125 54.018 150.903125 
z
" style="fill: #ffffff; opacity: 0.8; stroke: #cccccc; stroke-linejoin: miter"/>
    </g>
    <g id="line2d_20">
     <path d="M 56.018 23.898438 
L 66.018 23.898438 
L 76.018 23.898438 
" style="fill: none; stroke: #1f77b4; stroke-width: 1.5; stroke-linecap: square"/>
    </g>
    <g id="text_14">
     <!-- Ts=80 K -->
     <g transform="translate(84.018 27.398438) scale(0.1 -0.1)">
      <defs>
       <path id="DejaVuSans-54" d="M -19 4666 
L 3928 4666 
L 3928 4134 
L 2272 4134 
L 2272 0 
L 1638 0 
L 1638 4134 
L -19 4134 
L -19 4666 
z
" transform="scale(0.015625)"/>
       <path id="DejaVuSans-73" d="M 2834 3397 
L 2834 2853 
Q 2591 2978 2328 3040 
Q 2066 3103 1784 3103 
Q 1356 3103 1142 2972 
Q 928 2841 928 2578 
Q 928 2378 1081 2264 
Q 1234 2150 1697 2047 
L 1894 2003 
Q 2506 1872 2764 1633 
Q 3022 1394 3022 966 
Q 3022 478 2636 193 
Q 2250 -91 1575 -91 
Q 1294 -91 989 -36 
Q 684 19 347 128 
L 347 722 
Q 666 556 975 473 
Q 1284 391 1588 391 
Q 1994 391 2212 530 
Q 2431 669 2431 922 
Q 2431 1156 2273 1281 
Q 2116 1406 1581 1522 
L 1381 1569 
Q 847 1681 609 1914 
Q 372 2147 372 2553 
Q 372 3047 722 3315 
Q 1072 3584 1716 3584 
Q 2034 3584 2315 3537 
Q 2597 3491 2834 3397 
z
" transform="scale(0.015625)"/>
       <path id="DejaVuSans-3d" d="M 678 2906 
L 4684 2906 
L 4684 2381 
L 678 2381 
L 678 2906 
z
M 678 1631 
L 4684 1631 
L 4684 1100 
L 678 1100 
L 678 1631 
z
" transform="scale(0.015625)"/>
       <path id="DejaVuSans-38" d="M 2034 2216 
Q 1584 2216 1326 1975 
Q 1069 1734 1069 1313 
Q 1069 891 1326 650 
Q 1584 409 2034 409 
Q 2484 409 2743 651 
Q 3003 894 3003 1313 
Q 3003 1734 2745 1975 
Q 2488 2216 2034 2216 
z
M 1403 2484 
Q 997 2584 770 2862 
Q 544 3141 544 3541 
Q 544 4100 942 4425 
Q 1341 4750 2034 4750 
Q 2731 4750 3128 4425 
Q 3525 4100 3525 3541 
Q 3525 3141 3298 2862 
Q 3072 2584 2669 2484 
Q 3125 2378 3379 2068 
Q 3634 1759 3634 1313 
Q 3634 634 3220 271 
Q 2806 -91 2034 -91 
Q 1263 -91 848 271 
Q 434 634 434 1313 
Q 434 1759 690 2068 
Q 947 2378 1403 2484 
z
M 1172 3481 
Q 1172 3119 1398 2916 
Q 1625 2713 2034 2713 
Q 2441 2713 2670 2916 
Q 2900 3119 2900 3481 
Q 2900 3844 2670 4047 
Q 2441 4250 2034 4250 
Q 1625 4250 1398 4047 
Q 1172 3844 1172 3481 
z
" transform="scale(0.015625)"/>
       <path id="DejaVuSans-4b" d="M 628 4666 
L 1259 4666 
L 1259 2694 
L 3353 4666 
L 4166 4666 
L 1850 2491 
L 4331 0 
L 3500 0 
L 1259 2247 
L 1259 0 
L 628 0 
L 628 4666 
z
" transform="scale(0.015625)"/>
      </defs>
      <use xlink:href="#DejaVuSans-54"/>
      <use xlink:href="#DejaVuSans-73" transform="translate(44.583984 0)"/>
      <use xlink:href="#DejaVuSans-3d" transform="translate(96.683594 0)"/>
      <use xlink:href="#DejaVuSans-38" transform="translate(180.472656 0)"/>
      <use xlink:href="#DejaVuSans-30" transform="translate(244.095703 0)"/>
      <use xlink:href="#DejaVuSans-20" transform="translate(307.71875 0)"/>
      <use xlink:href="#DejaVuSans-4b" transform="translate(339.505859 0)"/>
     </g>
    </g>
    <g id="line2d_21">
     <path d="M 56.018 38.576563 
L 66.018 38.576563 
L 76.018 38.576563 
" style="fill: none; stroke: #ff7f0e; stroke-width: 1.5; stroke-linecap: square"/>
    </g>
    <g id="text_15">
     <!-- Ts=100 K -->
     <g transform="translate(84.018 42.076563) scale(0.1 -0.1)">
      <use xlink:href="#DejaVuSans-54"/>
      <use xlink:href="#DejaVuSans-73" transform="translate(44.583984 0)"/>
      <use xlink:href="#DejaVuSans-3d" transform="translate(96.683594 0)"/>
      <use xlink:href="#DejaVuSans-31" transform="translate(180.472656 0)"/>
      <use xlink:href="#DejaVuSans-30" transform="translate(244.095703 0)"/>
      <use xlink:href="#DejaVuSans-30" transform="translate(307.71875 0)"/>
      <use xlink:href="#DejaVuSans-20" transform="translate(371.341797 0)"/>
      <use xlink:href="#DejaVuSans-4b" transform="translate(403.128906 0)"/>
     </g>
    </g>
    <g id="line2d_22">
     <path d="M 56.018 53.254687 
L 66.018 53.254687 
L 76.018 53.254687 
" style="fill: none; stroke: #2ca02c; stroke-width: 1.5; stroke-linecap: square"/>
    </g>
    <g id="text_16">
     <!-- Ts=120 K -->
     <g transform="translate(84.018 56.754687) scale(0.1 -0.1)">
      <use xlink:href="#DejaVuSans-54"/>
      <use xlink:href="#DejaVuSans-73" transform="translate(44.583984 0)"/>
      <use xlink:href="#DejaVuSans-3d" transform="translate(96.683594 0)"/>
      <use xlink:href="#DejaVuSans-31" transform="translate(180.472656 0)"/>
      <use xlink:href="#DejaVuSans-32" transform="translate(244.095703 0)"/>
      <use xlink:href="#DejaVuSans-30" transform="translate(307.71875 0)"/>
      <use xlink:href="#DejaVuSans-20" transform="translate(371.341797 0)"/>
      <use xlink:href="#DejaVuSans-4b" transform="translate(403.128906 0)"/>
     </g>
    </g>
    <g id="line2d_23">
     <path d="M 56.018 67.932813 
L 66.018 67.932813 
L 76.018 67.932813 
" style="fill: none; stroke: #d62728; stroke-width: 1.5; stroke-linecap: square"/>
    </g>
    <g id="text_17">
     <!-- Ts=140 K -->
     <g transform="translate(84.018 71.432813) scale(0.1 -0.1)">
      <use xlink:href="#DejaVuSans-54"/>
      <use xlink:href="#DejaVuSans-73" transform="translate(44.583984 0)"/>
      <use xlink:href="#DejaVuSans-3d" transform="translate(96.683594 0)"/>
      <use xlink:href="#DejaVuSans-31" transform="translate(180.472656 0)"/>
      <use xlink:href="#DejaVuSans-34" transform="translate(244.095703 0)"/>
      <use xlink:href="#DejaVuSans-30" transform="translate(307.71875 0)"/>
      <use xlink:href="#DejaVuSans-20" transform="translate(371.341797 0)"/>
      <use xlink:href="#DejaVuSans-4b" transform="translate(403.128906 0)"/>
     </g>
    </g>
    <g id="line2d_24">
     <path d="M 56.018 82.610938 
L 66.018 82.610938 
L 76.018 82.610938 
" style="fill: none; stroke: #9467bd; stroke-width: 1.5; stroke-linecap: square"/>
    </g>
    <g id="text_18">
     <!-- Ts=160 K -->
     <g transform="translate(84.018 86.110938) scale(0.1 -0.1)">
      <defs>
       <path id="DejaVuSans-36" d="M 2113 2584 
Q 1688 2584 1439 2293 
Q 1191 2003 1191 1497 
Q 1191 994 1439 701 
Q 1688 409 2113 409 
Q 2538 409 2786 701 
Q 3034 994 3034 1497 
Q 3034 2003 2786 2293 
Q 2538 2584 2113 2584 
z
M 3366 4563 
L 3366 3988 
Q 3128 4100 2886 4159 
Q 2644 4219 2406 4219 
Q 1781 4219 1451 3797 
Q 1122 3375 1075 2522 
Q 1259 2794 1537 2939 
Q 1816 3084 2150 3084 
Q 2853 3084 3261 2657 
Q 3669 2231 3669 1497 
Q 3669 778 3244 343 
Q 2819 -91 2113 -91 
Q 1303 -91 875 529 
Q 447 1150 447 2328 
Q 447 3434 972 4092 
Q 1497 4750 2381 4750 
Q 2619 4750 2861 4703 
Q 3103 4656 3366 4563 
z
" transform="scale(0.015625)"/>
      </defs>
      <use xlink:href="#DejaVuSans-54"/>
      <use xlink:href="#DejaVuSans-73" transform="translate(44.583984 0)"/>
      <use xlink:href="#DejaVuSans-3d" transform="translate(96.683594 0)"/>
      <use xlink:href="#DejaVuSans-31" transform="translate(180.472656 0)"/>
      <use xlink:href="#DejaVuSans-36" transform="translate(244.095703 0)"/>
      <use xlink:href="#DejaVuSans-30" transform="translate(307.71875 0)"/>
      <use xlink:href="#DejaVuSans-20" transform="translate(371.341797 0)"/>
      <use xlink:href="#DejaVuSans-4b" transform="translate(403.128906 0)"/>
     </g>
    </g>
    <g id="line2d_25">
     <path d="M 56.018 97.289062 
L 66.018 97.289062 
L 76.018 97.289062 
" style="fill: none; stroke: #8c564b; stroke-width: 1.5; stroke-linecap: square"/>
    </g>
    <g id="text_19">
     <!-- Ts=180 K -->
     <g transform="translate(84.018 100.789062) scale(0.1 -0.1)">
      <use xlink:href="#DejaVuSans-54"/>
      <use xlink:href="#DejaVuSans-73" transform="translate(44.583984 0)"/>
      <use xlink:href="#DejaVuSans-3d" transform="translate(96.683594 0)"/>
      <use xlink:href="#DejaVuSans-31" transform="translate(180.472656 0)"/>
      <use xlink:href="#DejaVuSans-38" transform="translate(244.095703 0)"/>
      <use xlink:href="#DejaVuSans-30" transform="translate(307.71875 0)"/>
      <use xlink:href="#DejaVuSans-20" transform="translate(371.341797 0)"/>
      <use xlink:href="#DejaVuSans-4b" transform="translate(403.128906 0)"/>
     </g>
    </g>
    <g id="line2d_26">
     <path d="M 56.018 111.967187 
L 66.018 111.967187 
L 76.018 111.967187 
" style="fill: none; stroke: #e377c2; stroke-width: 1.5; stroke-linecap: square"/>
    </g>
    <g id="text_20">
     <!-- Ts=200 K -->
     <g transform="translate(84.018 115.467187) scale(0.1 -0.1)">
      <use xlink:href="#DejaVuSans-54"/>
      <use xlink:href="#DejaVuSans-73" transform="translate(44.583984 0)"/>
      <use xlink:href="#DejaVuSans-3d" transform="translate(96.683594 0)"/>
      <use xlink:href="#DejaVuSans-32" transform="translate(180.472656 0)"/>
      <use xlink:href="#DejaVuSans-30" transform="translate(244.095703 0)"/>
      <use xlink:href="#DejaVuSans-30" transform="translate(307.71875 0)"/>
      <use xlink:href="#DejaVuSans-20" transform="translate(371.341797 0)"/>
      <use xlink:href="#DejaVuSans-4b" transform="translate(403.128906 0)"/>
     </g>
    </g>
    <g id="line2d_27">
     <path d="M 56.018 126.645312 
L 66.018 126.645312 
L 76.018 126.645312 
" style="fill: none; stroke: #7f7f7f; stroke-width: 1.5; stroke-linecap: square"/>
    </g>
    <g id="text_21">
     <!-- Ts=220 K -->
     <g transform="translate(84.018 130.145312) scale(0.1 -0.1)">
      <use xlink:href="#DejaVuSans-54"/>
      <use xlink:href="#DejaVuSans-73" transform="translate(44.583984 0)"/>
      <use xlink:href="#DejaVuSans-3d" transform="translate(96.683594 0)"/>
      <use xlink:href="#DejaVuSans-32" transform="translate(180.472656 0)"/>
      <use xlink:href="#DejaVuSans-32" transform="translate(244.095703 0)"/>
      <use xlink:href="#DejaVuSans-30" transform="translate(307.71875 0)"/>
      <use xlink:href="#DejaVuSans-20" transform="translate(371.341797 0)"/>
      <use xlink:href="#DejaVuSans-4b" transform="translate(403.128906 0)"/>
     </g>
    </g>
    <g id="PathCollection_9">
     <g>
      <use xlink:href="#m5bb44eb919" x="66.018" y="142.198437" style="fill-opacity: 0.7; stroke: #000000; stroke-opacity: 0.7"/>
     </g>
    </g>
    <g id="text_22">
     <!-- Artificial data -->
     <g transform="translate(84.018 144.823437) scale(0.1 -0.1)">
      <defs>
       <path id="DejaVuSans-41" d="M 2188 4044 
L 1331 1722 
L 3047 1722 
L 2188 4044 
z
M 1831 4666 
L 2547 4666 
L 4325 0 
L 3669 0 
L 3244 1197 
L 1141 1197 
L 716 0 
L 50 0 
L 1831 4666 
z
" transform="scale(0.015625)"/>
       <path id="DejaVuSans-74" d="M 1172 4494 
L 1172 3500 
L 2356 3500 
L 2356 3053 
L 1172 3053 
L 1172 1153 
Q 1172 725 1289 603 
Q 1406 481 1766 481 
L 2356 481 
L 2356 0 
L 1766 0 
Q 1100 0 847 248 
Q 594 497 594 1153 
L 594 3053 
L 172 3053 
L 172 3500 
L 594 3500 
L 594 4494 
L 1172 4494 
z
" transform="scale(0.015625)"/>
       <path id="DejaVuSans-69" d="M 603 3500 
L 1178 3500 
L 1178 0 
L 603 0 
L 603 3500 
z
M 603 4863 
L 1178 4863 
L 1178 4134 
L 603 4134 
L 603 4863 
z
" transform="scale(0.015625)"/>
       <path id="DejaVuSans-66" d="M 2375 4863 
L 2375 4384 
L 1825 4384 
Q 1516 4384 1395 4259 
Q 1275 4134 1275 3809 
L 1275 3500 
L 2222 3500 
L 2222 3053 
L 1275 3053 
L 1275 0 
L 697 0 
L 697 3053 
L 147 3053 
L 147 3500 
L 697 3500 
L 697 3744 
Q 697 4328 969 4595 
Q 1241 4863 1831 4863 
L 2375 4863 
z
" transform="scale(0.015625)"/>
       <path id="DejaVuSans-63" d="M 3122 3366 
L 3122 2828 
Q 2878 2963 2633 3030 
Q 2388 3097 2138 3097 
Q 1578 3097 1268 2742 
Q 959 2388 959 1747 
Q 959 1106 1268 751 
Q 1578 397 2138 397 
Q 2388 397 2633 464 
Q 2878 531 3122 666 
L 3122 134 
Q 2881 22 2623 -34 
Q 2366 -91 2075 -91 
Q 1284 -91 818 406 
Q 353 903 353 1747 
Q 353 2603 823 3093 
Q 1294 3584 2113 3584 
Q 2378 3584 2631 3529 
Q 2884 3475 3122 3366 
z
" transform="scale(0.015625)"/>
       <path id="DejaVuSans-61" d="M 2194 1759 
Q 1497 1759 1228 1600 
Q 959 1441 959 1056 
Q 959 750 1161 570 
Q 1363 391 1709 391 
Q 2188 391 2477 730 
Q 2766 1069 2766 1631 
L 2766 1759 
L 2194 1759 
z
M 3341 1997 
L 3341 0 
L 2766 0 
L 2766 531 
Q 2569 213 2275 61 
Q 1981 -91 1556 -91 
Q 1019 -91 701 211 
Q 384 513 384 1019 
Q 384 1609 779 1909 
Q 1175 2209 1959 2209 
L 2766 2209 
L 2766 2266 
Q 2766 2663 2505 2880 
Q 2244 3097 1772 3097 
Q 1472 3097 1187 3025 
Q 903 2953 641 2809 
L 641 3341 
Q 956 3463 1253 3523 
Q 1550 3584 1831 3584 
Q 2591 3584 2966 3190 
Q 3341 2797 3341 1997 
z
" transform="scale(0.015625)"/>
       <path id="DejaVuSans-6c" d="M 603 4863 
L 1178 4863 
L 1178 0 
L 603 0 
L 603 4863 
z
" transform="scale(0.015625)"/>
       <path id="DejaVuSans-64" d="M 2906 2969 
L 2906 4863 
L 3481 4863 
L 3481 0 
L 2906 0 
L 2906 525 
Q 2725 213 2448 61 
Q 2172 -91 1784 -91 
Q 1150 -91 751 415 
Q 353 922 353 1747 
Q 353 2572 751 3078 
Q 1150 3584 1784 3584 
Q 2172 3584 2448 3432 
Q 2725 3281 2906 2969 
z
M 947 1747 
Q 947 1113 1208 752 
Q 1469 391 1925 391 
Q 2381 391 2643 752 
Q 2906 1113 2906 1747 
Q 2906 2381 2643 2742 
Q 2381 3103 1925 3103 
Q 1469 3103 1208 2742 
Q 947 2381 947 1747 
z
" transform="scale(0.015625)"/>
      </defs>
      <use xlink:href="#DejaVuSans-41"/>
      <use xlink:href="#DejaVuSans-72" transform="translate(68.408203 0)"/>
      <use xlink:href="#DejaVuSans-74" transform="translate(109.521484 0)"/>
      <use xlink:href="#DejaVuSans-69" transform="translate(148.730469 0)"/>
      <use xlink:href="#DejaVuSans-66" transform="translate(176.513672 0)"/>
      <use xlink:href="#DejaVuSans-69" transform="translate(211.71875 0)"/>
      <use xlink:href="#DejaVuSans-63" transform="translate(239.501953 0)"/>
      <use xlink:href="#DejaVuSans-69" transform="translate(294.482422 0)"/>
      <use xlink:href="#DejaVuSans-61" transform="translate(322.265625 0)"/>
      <use xlink:href="#DejaVuSans-6c" transform="translate(383.544922 0)"/>
      <use xlink:href="#DejaVuSans-20" transform="translate(411.328125 0)"/>
      <use xlink:href="#DejaVuSans-64" transform="translate(443.115234 0)"/>
      <use xlink:href="#DejaVuSans-61" transform="translate(506.591797 0)"/>
      <use xlink:href="#DejaVuSans-74" transform="translate(567.871094 0)"/>
      <use xlink:href="#DejaVuSans-61" transform="translate(607.080078 0)"/>
     </g>
    </g>
   </g>
  </g>
 </g>
 <defs>
  <clipPath id="p837fce8bc5">
   <rect x="47.018" y="10.8" width="402.982" height="291.4"/>
  </clipPath>
 </defs>
</svg>
