<?xml version="1.0" encoding="utf-8" standalone="no"?>
<!DOCTYPE svg PUBLIC "-//W3C//DTD SVG 1.1//EN"
  "http://www.w3.org/Graphics/SVG/1.1/DTD/svg11.dtd">
<svg xmlns:xlink="http://www.w3.org/1999/xlink" width="541.644375pt" height="280.81pt" viewBox="0 0 541.644375 280.81" xmlns="http://www.w3.org/2000/svg" version="1.1">
 <metadata>
  <rdf:RDF xmlns:dc="http://purl.org/dc/elements/1.1/" xmlns:cc="http://creativecommons.org/ns#" xmlns:rdf="http://www.w3.org/1999/02/22-rdf-syntax-ns#">
   <cc:Work>
    <dc:type rdf:resource="http://purl.org/dc/dcmitype/StillImage"/>
    <dc:date>2026-02-10T17:15:27.278972</dc:date>
    <dc:format>image/svg+xml</dc:format>
    <dc:creator>
     <cc:Agent>
      <dc:title>Matplotlib v3.10.8, https://matplotlib.org/</dc:title>
     </cc:Agent>
    </dc:creator>
   </cc:Work>
  </rdf:RDF>
 </metadata>
 <defs>
  <style type="text/css">*{stroke-linejoin: round; stroke-linecap: butt}</style>
 </defs>
 <g id="figure_1">
  <g id="patch_1">
   <path d="M 0 280.81 
L 541.644375 280.81 
L 541.644375 0 
L 0 0 
L 0 280.81 
z
" style="fill: none"/>
  </g>
  <g id="axes_1">
   <g id="patch_2">
    <path d="M 197.004375 231.64 
L 534.444375 231.64 
L 534.444375 7.2 
L 197.004375 7.2 
L 197.004375 231.64 
z
" style="fill: none"/>
   </g>
   <g id="matplotlib.axis_1">
    <g id="xtick_1">
     <g id="line2d_1">
      <path d="M 209.243934 231.64 
L 209.243934 7.2 
" clip-path="url(#pd2e188211a)" style="fill: none; stroke: #b0b0b0; stroke-opacity: 0.3; stroke-width: 0.8; stroke-linecap: square"/>
     </g>
     <g id="line2d_2">
      <defs>
       <path id="m7e2bab2291" d="M 0 0 
L 0 3.5 
" style="stroke: #000000; stroke-width: 0.8"/>
      </defs>
      <g>
       <use xlink:href="#m7e2bab2291" x="209.243934" y="231.64" style="stroke: #000000; stroke-width: 0.8"/>
      </g>
     </g>
     <g id="text_1">
      <!-- 0 -->
      <g transform="translate(204.153934 250.7975) scale(0.16 -0.16)">
       <defs>
        <path id="DejaVuSans-30" d="M 2034 4250 
Q 1547 4250 1301 3770 
Q 1056 3291 1056 2328 
Q 1056 1369 1301 889 
Q 1547 409 2034 409 
Q 2525 409 2770 889 
Q 3016 1369 3016 2328 
Q 3016 3291 2770 3770 
Q 2525 4250 2034 4250 
z
M 2034 4750 
Q 2819 4750 3233 4129 
Q 3647 3509 3647 2328 
Q 3647 1150 3233 529 
Q 2819 -91 2034 -91 
Q 1250 -91 836 529 
Q 422 1150 422 2328 
Q 422 3509 836 4129 
Q 1250 4750 2034 4750 
z
" transform="scale(0.015625)"/>
       </defs>
       <use xlink:href="#DejaVuSans-30"/>
      </g>
     </g>
    </g>
    <g id="xtick_2">
     <g id="line2d_3">
      <path d="M 271.216386 231.64 
L 271.216386 7.2 
" clip-path="url(#pd2e188211a)" style="fill: none; stroke: #b0b0b0; stroke-opacity: 0.3; stroke-width: 0.8; stroke-linecap: square"/>
     </g>
     <g id="line2d_4">
      <g>
       <use xlink:href="#m7e2bab2291" x="271.216386" y="231.64" style="stroke: #000000; stroke-width: 0.8"/>
      </g>
     </g>
     <g id="text_2">
      <!-- 1 -->
      <g transform="translate(266.126386 250.7975) scale(0.16 -0.16)">
       <defs>
        <path id="DejaVuSans-31" d="M 794 531 
L 1825 531 
L 1825 4091 
L 703 3866 
L 703 4441 
L 1819 4666 
L 2450 4666 
L 2450 531 
L 3481 531 
L 3481 0 
L 794 0 
L 794 531 
z
" transform="scale(0.015625)"/>
       </defs>
       <use xlink:href="#DejaVuSans-31"/>
      </g>
     </g>
    </g>
    <g id="xtick_3">
     <g id="line2d_5">
      <path d="M 333.188838 231.64 
L 333.188838 7.2 
" clip-path="url(#pd2e188211a)" style="fill: none; stroke: #b0b0b0; stroke-opacity: 0.3; stroke-width: 0.8; stroke-linecap: square"/>
     </g>
     <g id="line2d_6">
      <g>
       <use xlink:href="#m7e2bab2291" x="333.188838" y="231.64" style="stroke: #000000; stroke-width: 0.8"/>
      </g>
     </g>
     <g id="text_3">
      <!-- 2 -->
      <g transform="translate(328.098838 250.7975) scale(0.16 -0.16)">
       <defs>
        <path id="DejaVuSans-32" d="M 1228 531 
L 3431 531 
L 3431 0 
L 469 0 
L 469 531 
Q 828 903 1448 1529 
Q 2069 2156 2228 2338 
Q 2531 2678 2651 2914 
Q 2772 3150 2772 3378 
Q 2772 3750 2511 3984 
Q 2250 4219 1831 4219 
Q 1534 4219 1204 4116 
Q 875 4013 500 3803 
L 500 4441 
Q 881 4594 1212 4672 
Q 1544 4750 1819 4750 
Q 2544 4750 2975 4387 
Q 3406 4025 3406 3419 
Q 3406 3131 3298 2873 
Q 3191 2616 2906 2266 
Q 2828 2175 2409 1742 
Q 1991 1309 1228 531 
z
" transform="scale(0.015625)"/>
       </defs>
       <use xlink:href="#DejaVuSans-32"/>
      </g>
     </g>
    </g>
    <g id="xtick_4">
     <g id="line2d_7">
      <path d="M 395.16129 231.64 
L 395.16129 7.2 
" clip-path="url(#pd2e188211a)" style="fill: none; stroke: #b0b0b0; stroke-opacity: 0.3; stroke-width: 0.8; stroke-linecap: square"/>
     </g>
     <g id="line2d_8">
      <g>
       <use xlink:href="#m7e2bab2291" x="395.16129" y="231.64" style="stroke: #000000; stroke-width: 0.8"/>
      </g>
     </g>
     <g id="text_4">
      <!-- 3 -->
      <g transform="translate(390.07129 250.7975) scale(0.16 -0.16)">
       <defs>
        <path id="DejaVuSans-33" d="M 2597 2516 
Q 3050 2419 3304 2112 
Q 3559 1806 3559 1356 
Q 3559 666 3084 287 
Q 2609 -91 1734 -91 
Q 1441 -91 1130 -33 
Q 819 25 488 141 
L 488 750 
Q 750 597 1062 519 
Q 1375 441 1716 441 
Q 2309 441 2620 675 
Q 2931 909 2931 1356 
Q 2931 1769 2642 2001 
Q 2353 2234 1838 2234 
L 1294 2234 
L 1294 2753 
L 1863 2753 
Q 2328 2753 2575 2939 
Q 2822 3125 2822 3475 
Q 2822 3834 2567 4026 
Q 2313 4219 1838 4219 
Q 1578 4219 1281 4162 
Q 984 4106 628 3988 
L 628 4550 
Q 988 4650 1302 4700 
Q 1616 4750 1894 4750 
Q 2613 4750 3031 4423 
Q 3450 4097 3450 3541 
Q 3450 3153 3228 2886 
Q 3006 2619 2597 2516 
z
" transform="scale(0.015625)"/>
       </defs>
       <use xlink:href="#DejaVuSans-33"/>
      </g>
     </g>
    </g>
    <g id="xtick_5">
     <g id="line2d_9">
      <path d="M 457.133741 231.64 
L 457.133741 7.2 
" clip-path="url(#pd2e188211a)" style="fill: none; stroke: #b0b0b0; stroke-opacity: 0.3; stroke-width: 0.8; stroke-linecap: square"/>
     </g>
     <g id="line2d_10">
      <g>
       <use xlink:href="#m7e2bab2291" x="457.133741" y="231.64" style="stroke: #000000; stroke-width: 0.8"/>
      </g>
     </g>
     <g id="text_5">
      <!-- 4 -->
      <g transform="translate(452.043741 250.7975) scale(0.16 -0.16)">
       <defs>
        <path id="DejaVuSans-34" d="M 2419 4116 
L 825 1625 
L 2419 1625 
L 2419 4116 
z
M 2253 4666 
L 3047 4666 
L 3047 1625 
L 3713 1625 
L 3713 1100 
L 3047 1100 
L 3047 0 
L 2419 0 
L 2419 1100 
L 313 1100 
L 313 1709 
L 2253 4666 
z
" transform="scale(0.015625)"/>
       </defs>
       <use xlink:href="#DejaVuSans-34"/>
      </g>
     </g>
    </g>
    <g id="xtick_6">
     <g id="line2d_11">
      <path d="M 519.106193 231.64 
L 519.106193 7.2 
" clip-path="url(#pd2e188211a)" style="fill: none; stroke: #b0b0b0; stroke-opacity: 0.3; stroke-width: 0.8; stroke-linecap: square"/>
     </g>
     <g id="line2d_12">
      <g>
       <use xlink:href="#m7e2bab2291" x="519.106193" y="231.64" style="stroke: #000000; stroke-width: 0.8"/>
      </g>
     </g>
     <g id="text_6">
      <!-- 5 -->
      <g transform="translate(514.016193 250.7975) scale(0.16 -0.16)">
       <defs>
        <path id="DejaVuSans-35" d="M 691 4666 
L 3169 4666 
L 3169 4134 
L 1269 4134 
L 1269 2991 
Q 1406 3038 1543 3061 
Q 1681 3084 1819 3084 
Q 2600 3084 3056 2656 
Q 3513 2228 3513 1497 
Q 3513 744 3044 326 
Q 2575 -91 1722 -91 
Q 1428 -91 1123 -41 
Q 819 9 494 109 
L 494 744 
Q 775 591 1075 516 
Q 1375 441 1709 441 
Q 2250 441 2565 725 
Q 2881 1009 2881 1497 
Q 2881 1984 2565 2268 
Q 2250 2553 1709 2553 
Q 1456 2553 1204 2497 
Q 953 2441 691 2322 
L 691 4666 
z
" transform="scale(0.015625)"/>
       </defs>
       <use xlink:href="#DejaVuSans-35"/>
      </g>
     </g>
    </g>
    <g id="text_7">
     <!-- $W$ (m/hour) -->
     <g transform="translate(320.204375 270.2825) scale(0.16 -0.16)">
      <defs>
       <path id="DejaVuSans-Oblique-57" d="M 616 4666 
L 1228 4666 
L 1453 697 
L 3213 4666 
L 3916 4666 
L 4147 697 
L 5888 4666 
L 6528 4666 
L 4453 0 
L 3659 0 
L 3444 3891 
L 1697 0 
L 903 0 
L 616 4666 
z
" transform="scale(0.015625)"/>
       <path id="DejaVuSans-20" transform="scale(0.015625)"/>
       <path id="DejaVuSans-28" d="M 1984 4856 
Q 1566 4138 1362 3434 
Q 1159 2731 1159 2009 
Q 1159 1288 1364 580 
Q 1569 -128 1984 -844 
L 1484 -844 
Q 1016 -109 783 600 
Q 550 1309 550 2009 
Q 550 2706 781 3412 
Q 1013 4119 1484 4856 
L 1984 4856 
z
" transform="scale(0.015625)"/>
       <path id="DejaVuSans-6d" d="M 3328 2828 
Q 3544 3216 3844 3400 
Q 4144 3584 4550 3584 
Q 5097 3584 5394 3201 
Q 5691 2819 5691 2113 
L 5691 0 
L 5113 0 
L 5113 2094 
Q 5113 2597 4934 2840 
Q 4756 3084 4391 3084 
Q 3944 3084 3684 2787 
Q 3425 2491 3425 1978 
L 3425 0 
L 2847 0 
L 2847 2094 
Q 2847 2600 2669 2842 
Q 2491 3084 2119 3084 
Q 1678 3084 1418 2786 
Q 1159 2488 1159 1978 
L 1159 0 
L 581 0 
L 581 3500 
L 1159 3500 
L 1159 2956 
Q 1356 3278 1631 3431 
Q 1906 3584 2284 3584 
Q 2666 3584 2933 3390 
Q 3200 3197 3328 2828 
z
" transform="scale(0.015625)"/>
       <path id="DejaVuSans-2f" d="M 1625 4666 
L 2156 4666 
L 531 -594 
L 0 -594 
L 1625 4666 
z
" transform="scale(0.015625)"/>
       <path id="DejaVuSans-68" d="M 3513 2113 
L 3513 0 
L 2938 0 
L 2938 2094 
Q 2938 2591 2744 2837 
Q 2550 3084 2163 3084 
Q 1697 3084 1428 2787 
Q 1159 2491 1159 1978 
L 1159 0 
L 581 0 
L 581 4863 
L 1159 4863 
L 1159 2956 
Q 1366 3272 1645 3428 
Q 1925 3584 2291 3584 
Q 2894 3584 3203 3211 
Q 3513 2838 3513 2113 
z
" transform="scale(0.015625)"/>
       <path id="DejaVuSans-6f" d="M 1959 3097 
Q 1497 3097 1228 2736 
Q 959 2375 959 1747 
Q 959 1119 1226 758 
Q 1494 397 1959 397 
Q 2419 397 2687 759 
Q 2956 1122 2956 1747 
Q 2956 2369 2687 2733 
Q 2419 3097 1959 3097 
z
M 1959 3584 
Q 2709 3584 3137 3096 
Q 3566 2609 3566 1747 
Q 3566 888 3137 398 
Q 2709 -91 1959 -91 
Q 1206 -91 779 398 
Q 353 888 353 1747 
Q 353 2609 779 3096 
Q 1206 3584 1959 3584 
z
" transform="scale(0.015625)"/>
       <path id="DejaVuSans-75" d="M 544 1381 
L 544 3500 
L 1119 3500 
L 1119 1403 
Q 1119 906 1312 657 
Q 1506 409 1894 409 
Q 2359 409 2629 706 
Q 2900 1003 2900 1516 
L 2900 3500 
L 3475 3500 
L 3475 0 
L 2900 0 
L 2900 538 
Q 2691 219 2414 64 
Q 2138 -91 1772 -91 
Q 1169 -91 856 284 
Q 544 659 544 1381 
z
M 1991 3584 
L 1991 3584 
z
" transform="scale(0.015625)"/>
       <path id="DejaVuSans-72" d="M 2631 2963 
Q 2534 3019 2420 3045 
Q 2306 3072 2169 3072 
Q 1681 3072 1420 2755 
Q 1159 2438 1159 1844 
L 1159 0 
L 581 0 
L 581 3500 
L 1159 3500 
L 1159 2956 
Q 1341 3275 1631 3429 
Q 1922 3584 2338 3584 
Q 2397 3584 2469 3576 
Q 2541 3569 2628 3553 
L 2631 2963 
z
" transform="scale(0.015625)"/>
       <path id="DejaVuSans-29" d="M 513 4856 
L 1013 4856 
Q 1481 4119 1714 3412 
Q 1947 2706 1947 2009 
Q 1947 1309 1714 600 
Q 1481 -109 1013 -844 
L 513 -844 
Q 928 -128 1133 580 
Q 1338 1288 1338 2009 
Q 1338 2731 1133 3434 
Q 928 4138 513 4856 
z
" transform="scale(0.015625)"/>
      </defs>
      <use xlink:href="#DejaVuSans-Oblique-57" transform="translate(0 0.015625)"/>
      <use xlink:href="#DejaVuSans-20" transform="translate(98.876953 0.015625)"/>
      <use xlink:href="#DejaVuSans-28" transform="translate(130.664062 0.015625)"/>
      <use xlink:href="#DejaVuSans-6d" transform="translate(169.677734 0.015625)"/>
      <use xlink:href="#DejaVuSans-2f" transform="translate(267.089844 0.015625)"/>
      <use xlink:href="#DejaVuSans-68" transform="translate(300.78125 0.015625)"/>
      <use xlink:href="#DejaVuSans-6f" transform="translate(364.160156 0.015625)"/>
      <use xlink:href="#DejaVuSans-75" transform="translate(425.341797 0.015625)"/>
      <use xlink:href="#DejaVuSans-72" transform="translate(488.720703 0.015625)"/>
      <use xlink:href="#DejaVuSans-29" transform="translate(529.833984 0.015625)"/>
     </g>
    </g>
   </g>
   <g id="matplotlib.axis_2">
    <g id="ytick_1">
     <g id="line2d_13">
      <path d="M 197.004375 185.478937 
L 534.444375 185.478937 
" clip-path="url(#pd2e188211a)" style="fill: none; stroke: #b0b0b0; stroke-opacity: 0.3; stroke-width: 0.8; stroke-linecap: square"/>
     </g>
     <g id="line2d_14">
      <defs>
       <path id="mbafabd0d6e" d="M 0 0 
L -3.5 0 
" style="stroke: #000000; stroke-width: 0.8"/>
      </defs>
      <g>
       <use xlink:href="#mbafabd0d6e" x="197.004375" y="185.478937" style="stroke: #000000; stroke-width: 0.8"/>
      </g>
     </g>
     <g id="text_8">
      <!-- 5 -->
      <g transform="translate(179.824375 191.557687) scale(0.16 -0.16)">
       <use xlink:href="#DejaVuSans-35"/>
      </g>
     </g>
    </g>
    <g id="ytick_2">
     <g id="line2d_15">
      <path d="M 197.004375 132.61344 
L 534.444375 132.61344 
" clip-path="url(#pd2e188211a)" style="fill: none; stroke: #b0b0b0; stroke-opacity: 0.3; stroke-width: 0.8; stroke-linecap: square"/>
     </g>
     <g id="line2d_16">
      <g>
       <use xlink:href="#mbafabd0d6e" x="197.004375" y="132.61344" style="stroke: #000000; stroke-width: 0.8"/>
      </g>
     </g>
     <g id="text_9">
      <!-- 10 -->
      <g transform="translate(169.644375 138.69219) scale(0.16 -0.16)">
       <use xlink:href="#DejaVuSans-31"/>
       <use xlink:href="#DejaVuSans-30" transform="translate(63.623047 0)"/>
      </g>
     </g>
    </g>
    <g id="ytick_3">
     <g id="line2d_17">
      <path d="M 197.004375 79.747944 
L 534.444375 79.747944 
" clip-path="url(#pd2e188211a)" style="fill: none; stroke: #b0b0b0; stroke-opacity: 0.3; stroke-width: 0.8; stroke-linecap: square"/>
     </g>
     <g id="line2d_18">
      <g>
       <use xlink:href="#mbafabd0d6e" x="197.004375" y="79.747944" style="stroke: #000000; stroke-width: 0.8"/>
      </g>
     </g>
     <g id="text_10">
      <!-- 15 -->
      <g transform="translate(169.644375 85.826694) scale(0.16 -0.16)">
       <use xlink:href="#DejaVuSans-31"/>
       <use xlink:href="#DejaVuSans-35" transform="translate(63.623047 0)"/>
      </g>
     </g>
    </g>
    <g id="ytick_4">
     <g id="line2d_19">
      <path d="M 197.004375 26.882447 
L 534.444375 26.882447 
" clip-path="url(#pd2e188211a)" style="fill: none; stroke: #b0b0b0; stroke-opacity: 0.3; stroke-width: 0.8; stroke-linecap: square"/>
     </g>
     <g id="line2d_20">
      <g>
       <use xlink:href="#mbafabd0d6e" x="197.004375" y="26.882447" style="stroke: #000000; stroke-width: 0.8"/>
      </g>
     </g>
     <g id="text_11">
      <!-- 20 -->
      <g transform="translate(169.644375 32.961197) scale(0.16 -0.16)">
       <use xlink:href="#DejaVuSans-32"/>
       <use xlink:href="#DejaVuSans-30" transform="translate(63.623047 0)"/>
      </g>
     </g>
    </g>
    <g id="text_12">
     <!-- $Q_{lc}$ (kW) -->
     <g transform="translate(162.316875 151.9) rotate(-90) scale(0.16 -0.16)">
      <defs>
       <path id="DejaVuSans-Oblique-51" d="M 2309 -84 
Q 2275 -88 2237 -89 
Q 2200 -91 2125 -91 
Q 1250 -91 756 411 
Q 263 913 263 1797 
Q 263 2319 452 2844 
Q 641 3369 978 3788 
Q 1369 4269 1858 4509 
Q 2347 4750 2938 4750 
Q 3794 4750 4287 4245 
Q 4781 3741 4781 2869 
Q 4781 1928 4265 1147 
Q 3750 366 2919 44 
L 3553 -825 
L 2847 -825 
L 2309 -84 
z
M 2919 4238 
Q 2400 4238 2003 3986 
Q 1606 3734 1313 3219 
Q 1125 2891 1026 2522 
Q 928 2153 928 1778 
Q 928 1128 1239 775 
Q 1550 422 2119 422 
Q 2631 422 3032 676 
Q 3434 931 3719 1434 
Q 3909 1772 4009 2142 
Q 4109 2513 4109 2881 
Q 4109 3528 3796 3883 
Q 3484 4238 2919 4238 
z
" transform="scale(0.015625)"/>
       <path id="DejaVuSans-Oblique-6c" d="M 1172 4863 
L 1747 4863 
L 800 0 
L 225 0 
L 1172 4863 
z
" transform="scale(0.015625)"/>
       <path id="DejaVuSans-Oblique-63" d="M 3431 3366 
L 3316 2797 
Q 3109 2947 2876 3022 
Q 2644 3097 2394 3097 
Q 2119 3097 1870 3000 
Q 1622 2903 1453 2725 
Q 1184 2453 1037 2087 
Q 891 1722 891 1331 
Q 891 859 1127 628 
Q 1363 397 1844 397 
Q 2081 397 2348 469 
Q 2616 541 2906 684 
L 2797 116 
Q 2547 13 2283 -39 
Q 2019 -91 1741 -91 
Q 1044 -91 669 257 
Q 294 606 294 1253 
Q 294 1797 489 2255 
Q 684 2713 1069 3078 
Q 1331 3328 1684 3456 
Q 2038 3584 2456 3584 
Q 2700 3584 2940 3529 
Q 3181 3475 3431 3366 
z
" transform="scale(0.015625)"/>
       <path id="DejaVuSans-6b" d="M 581 4863 
L 1159 4863 
L 1159 1991 
L 2875 3500 
L 3609 3500 
L 1753 1863 
L 3688 0 
L 2938 0 
L 1159 1709 
L 1159 0 
L 581 0 
L 581 4863 
z
" transform="scale(0.015625)"/>
       <path id="DejaVuSans-57" d="M 213 4666 
L 850 4666 
L 1831 722 
L 2809 4666 
L 3519 4666 
L 4500 722 
L 5478 4666 
L 6119 4666 
L 4947 0 
L 4153 0 
L 3169 4050 
L 2175 0 
L 1381 0 
L 213 4666 
z
" transform="scale(0.015625)"/>
      </defs>
      <use xlink:href="#DejaVuSans-Oblique-51" transform="translate(0 0.015625)"/>
      <use xlink:href="#DejaVuSans-Oblique-6c" transform="translate(78.710938 -16.390625) scale(0.7)"/>
      <use xlink:href="#DejaVuSans-Oblique-63" transform="translate(98.15918 -16.390625) scale(0.7)"/>
      <use xlink:href="#DejaVuSans-20" transform="translate(139.379883 0.015625)"/>
      <use xlink:href="#DejaVuSans-28" transform="translate(171.166992 0.015625)"/>
      <use xlink:href="#DejaVuSans-6b" transform="translate(210.180664 0.015625)"/>
      <use xlink:href="#DejaVuSans-57" transform="translate(268.09082 0.015625)"/>
      <use xlink:href="#DejaVuSans-29" transform="translate(366.967773 0.015625)"/>
     </g>
    </g>
   </g>
   <g id="line2d_21">
    <path d="M 212.342557 193.174525 
L 240.23016 149.16644 
L 271.216386 123.580436 
L 302.202612 106.460978 
L 333.188838 85.849648 
L 364.175064 72.395045 
L 395.16129 61.195592 
L 426.147515 48.330541 
L 457.133741 37.976478 
L 488.119967 28.658734 
L 519.106193 17.401818 
" clip-path="url(#pd2e188211a)" style="fill: none; stroke: #1f77b4; stroke-width: 1.5; stroke-linecap: square"/>
    <defs>
     <path id="m723b0f8ba3" d="M 0 3 
C 0.795609 3 1.55874 2.683901 2.12132 2.12132 
C 2.683901 1.55874 3 0.795609 3 0 
C 3 -0.795609 2.683901 -1.55874 2.12132 -2.12132 
C 1.55874 -2.683901 0.795609 -3 0 -3 
C -0.795609 -3 -1.55874 -2.683901 -2.12132 -2.12132 
C -2.683901 -1.55874 -3 -0.795609 -3 0 
C -3 0.795609 -2.683901 1.55874 -2.12132 2.12132 
C -1.55874 2.683901 -0.795609 3 0 3 
z
" style="stroke: #1f77b4"/>
    </defs>
    <g clip-path="url(#pd2e188211a)">
     <use xlink:href="#m723b0f8ba3" x="212.342557" y="193.174525" style="fill: #1f77b4; stroke: #1f77b4"/>
     <use xlink:href="#m723b0f8ba3" x="240.23016" y="149.16644" style="fill: #1f77b4; stroke: #1f77b4"/>
     <use xlink:href="#m723b0f8ba3" x="271.216386" y="123.580436" style="fill: #1f77b4; stroke: #1f77b4"/>
     <use xlink:href="#m723b0f8ba3" x="302.202612" y="106.460978" style="fill: #1f77b4; stroke: #1f77b4"/>
     <use xlink:href="#m723b0f8ba3" x="333.188838" y="85.849648" style="fill: #1f77b4; stroke: #1f77b4"/>
     <use xlink:href="#m723b0f8ba3" x="364.175064" y="72.395045" style="fill: #1f77b4; stroke: #1f77b4"/>
     <use xlink:href="#m723b0f8ba3" x="395.16129" y="61.195592" style="fill: #1f77b4; stroke: #1f77b4"/>
     <use xlink:href="#m723b0f8ba3" x="426.147515" y="48.330541" style="fill: #1f77b4; stroke: #1f77b4"/>
     <use xlink:href="#m723b0f8ba3" x="457.133741" y="37.976478" style="fill: #1f77b4; stroke: #1f77b4"/>
     <use xlink:href="#m723b0f8ba3" x="488.119967" y="28.658734" style="fill: #1f77b4; stroke: #1f77b4"/>
     <use xlink:href="#m723b0f8ba3" x="519.106193" y="17.401818" style="fill: #1f77b4; stroke: #1f77b4"/>
    </g>
   </g>
   <g id="line2d_22">
    <path d="M 212.342557 196.974204 
L 240.23016 155.95859 
L 271.216386 133.130784 
L 302.202612 114.182971 
L 333.188838 100.013472 
L 364.175064 86.389357 
L 395.16129 75.941944 
L 426.147515 64.461551 
L 457.133741 55.592577 
L 488.119967 44.4301 
L 519.106193 36.306717 
" clip-path="url(#pd2e188211a)" style="fill: none; stroke: #ff7f0e; stroke-width: 1.5; stroke-linecap: square"/>
    <defs>
     <path id="me2126d1a64" d="M 0 3 
C 0.795609 3 1.55874 2.683901 2.12132 2.12132 
C 2.683901 1.55874 3 0.795609 3 0 
C 3 -0.795609 2.683901 -1.55874 2.12132 -2.12132 
C 1.55874 -2.683901 0.795609 -3 0 -3 
C -0.795609 -3 -1.55874 -2.683901 -2.12132 -2.12132 
C -2.683901 -1.55874 -3 -0.795609 -3 0 
C -3 0.795609 -2.683901 1.55874 -2.12132 2.12132 
C -1.55874 2.683901 -0.795609 3 0 3 
z
" style="stroke: #ff7f0e"/>
    </defs>
    <g clip-path="url(#pd2e188211a)">
     <use xlink:href="#me2126d1a64" x="212.342557" y="196.974204" style="fill: #ff7f0e; stroke: #ff7f0e"/>
     <use xlink:href="#me2126d1a64" x="240.23016" y="155.95859" style="fill: #ff7f0e; stroke: #ff7f0e"/>
     <use xlink:href="#me2126d1a64" x="271.216386" y="133.130784" style="fill: #ff7f0e; stroke: #ff7f0e"/>
     <use xlink:href="#me2126d1a64" x="302.202612" y="114.182971" style="fill: #ff7f0e; stroke: #ff7f0e"/>
     <use xlink:href="#me2126d1a64" x="333.188838" y="100.013472" style="fill: #ff7f0e; stroke: #ff7f0e"/>
     <use xlink:href="#me2126d1a64" x="364.175064" y="86.389357" style="fill: #ff7f0e; stroke: #ff7f0e"/>
     <use xlink:href="#me2126d1a64" x="395.16129" y="75.941944" style="fill: #ff7f0e; stroke: #ff7f0e"/>
     <use xlink:href="#me2126d1a64" x="426.147515" y="64.461551" style="fill: #ff7f0e; stroke: #ff7f0e"/>
     <use xlink:href="#me2126d1a64" x="457.133741" y="55.592577" style="fill: #ff7f0e; stroke: #ff7f0e"/>
     <use xlink:href="#me2126d1a64" x="488.119967" y="44.4301" style="fill: #ff7f0e; stroke: #ff7f0e"/>
     <use xlink:href="#me2126d1a64" x="519.106193" y="36.306717" style="fill: #ff7f0e; stroke: #ff7f0e"/>
    </g>
   </g>
   <g id="line2d_23">
    <path d="M 212.342557 199.906001 
L 240.23016 162.753762 
L 271.216386 143.219843 
L 302.202612 125.424511 
L 333.188838 110.773775 
L 364.175064 103.012387 
L 395.16129 92.592255 
L 426.147515 82.705999 
L 457.133741 71.260019 
L 488.119967 63.604969 
L 519.106193 54.656837 
" clip-path="url(#pd2e188211a)" style="fill: none; stroke: #2ca02c; stroke-width: 1.5; stroke-linecap: square"/>
    <defs>
     <path id="m3b0a8f8eef" d="M 0 3 
C 0.795609 3 1.55874 2.683901 2.12132 2.12132 
C 2.683901 1.55874 3 0.795609 3 0 
C 3 -0.795609 2.683901 -1.55874 2.12132 -2.12132 
C 1.55874 -2.683901 0.795609 -3 0 -3 
C -0.795609 -3 -1.55874 -2.683901 -2.12132 -2.12132 
C -2.683901 -1.55874 -3 -0.795609 -3 0 
C -3 0.795609 -2.683901 1.55874 -2.12132 2.12132 
C -1.55874 2.683901 -0.795609 3 0 3 
z
" style="stroke: #2ca02c"/>
    </defs>
    <g clip-path="url(#pd2e188211a)">
     <use xlink:href="#m3b0a8f8eef" x="212.342557" y="199.906001" style="fill: #2ca02c; stroke: #2ca02c"/>
     <use xlink:href="#m3b0a8f8eef" x="240.23016" y="162.753762" style="fill: #2ca02c; stroke: #2ca02c"/>
     <use xlink:href="#m3b0a8f8eef" x="271.216386" y="143.219843" style="fill: #2ca02c; stroke: #2ca02c"/>
     <use xlink:href="#m3b0a8f8eef" x="302.202612" y="125.424511" style="fill: #2ca02c; stroke: #2ca02c"/>
     <use xlink:href="#m3b0a8f8eef" x="333.188838" y="110.773775" style="fill: #2ca02c; stroke: #2ca02c"/>
     <use xlink:href="#m3b0a8f8eef" x="364.175064" y="103.012387" style="fill: #2ca02c; stroke: #2ca02c"/>
     <use xlink:href="#m3b0a8f8eef" x="395.16129" y="92.592255" style="fill: #2ca02c; stroke: #2ca02c"/>
     <use xlink:href="#m3b0a8f8eef" x="426.147515" y="82.705999" style="fill: #2ca02c; stroke: #2ca02c"/>
     <use xlink:href="#m3b0a8f8eef" x="457.133741" y="71.260019" style="fill: #2ca02c; stroke: #2ca02c"/>
     <use xlink:href="#m3b0a8f8eef" x="488.119967" y="63.604969" style="fill: #2ca02c; stroke: #2ca02c"/>
     <use xlink:href="#m3b0a8f8eef" x="519.106193" y="54.656837" style="fill: #2ca02c; stroke: #2ca02c"/>
    </g>
   </g>
   <g id="line2d_24">
    <path d="M 212.342557 203.446643 
L 240.23016 171.125825 
L 271.216386 152.418842 
L 302.202612 138.824551 
L 333.188838 125.95161 
L 364.175064 117.738254 
L 395.16129 107.684053 
L 426.147515 98.443581 
L 457.133741 88.863464 
L 488.119967 84.136845 
L 519.106193 77.441173 
" clip-path="url(#pd2e188211a)" style="fill: none; stroke: #d62728; stroke-width: 1.5; stroke-linecap: square"/>
    <defs>
     <path id="m05013d54b7" d="M 0 3 
C 0.795609 3 1.55874 2.683901 2.12132 2.12132 
C 2.683901 1.55874 3 0.795609 3 0 
C 3 -0.795609 2.683901 -1.55874 2.12132 -2.12132 
C 1.55874 -2.683901 0.795609 -3 0 -3 
C -0.795609 -3 -1.55874 -2.683901 -2.12132 -2.12132 
C -2.683901 -1.55874 -3 -0.795609 -3 0 
C -3 0.795609 -2.683901 1.55874 -2.12132 2.12132 
C -1.55874 2.683901 -0.795609 3 0 3 
z
" style="stroke: #d62728"/>
    </defs>
    <g clip-path="url(#pd2e188211a)">
     <use xlink:href="#m05013d54b7" x="212.342557" y="203.446643" style="fill: #d62728; stroke: #d62728"/>
     <use xlink:href="#m05013d54b7" x="240.23016" y="171.125825" style="fill: #d62728; stroke: #d62728"/>
     <use xlink:href="#m05013d54b7" x="271.216386" y="152.418842" style="fill: #d62728; stroke: #d62728"/>
     <use xlink:href="#m05013d54b7" x="302.202612" y="138.824551" style="fill: #d62728; stroke: #d62728"/>
     <use xlink:href="#m05013d54b7" x="333.188838" y="125.95161" style="fill: #d62728; stroke: #d62728"/>
     <use xlink:href="#m05013d54b7" x="364.175064" y="117.738254" style="fill: #d62728; stroke: #d62728"/>
     <use xlink:href="#m05013d54b7" x="395.16129" y="107.684053" style="fill: #d62728; stroke: #d62728"/>
     <use xlink:href="#m05013d54b7" x="426.147515" y="98.443581" style="fill: #d62728; stroke: #d62728"/>
     <use xlink:href="#m05013d54b7" x="457.133741" y="88.863464" style="fill: #d62728; stroke: #d62728"/>
     <use xlink:href="#m05013d54b7" x="488.119967" y="84.136845" style="fill: #d62728; stroke: #d62728"/>
     <use xlink:href="#m05013d54b7" x="519.106193" y="77.441173" style="fill: #d62728; stroke: #d62728"/>
    </g>
   </g>
   <g id="line2d_25">
    <path d="M 212.342557 209.103215 
L 240.23016 179.054406 
L 271.216386 164.226189 
L 302.202612 150.417248 
L 333.188838 143.625206 
L 364.175064 131.532937 
L 395.16129 123.594657 
L 426.147515 118.815436 
L 457.133741 110.302768 
L 488.119967 102.755201 
L 519.106193 97.8785 
" clip-path="url(#pd2e188211a)" style="fill: none; stroke: #9467bd; stroke-width: 1.5; stroke-linecap: square"/>
    <defs>
     <path id="m5acd7b5643" d="M 0 3 
C 0.795609 3 1.55874 2.683901 2.12132 2.12132 
C 2.683901 1.55874 3 0.795609 3 0 
C 3 -0.795609 2.683901 -1.55874 2.12132 -2.12132 
C 1.55874 -2.683901 0.795609 -3 0 -3 
C -0.795609 -3 -1.55874 -2.683901 -2.12132 -2.12132 
C -2.683901 -1.55874 -3 -0.795609 -3 0 
C -3 0.795609 -2.683901 1.55874 -2.12132 2.12132 
C -1.55874 2.683901 -0.795609 3 0 3 
z
" style="stroke: #9467bd"/>
    </defs>
    <g clip-path="url(#pd2e188211a)">
     <use xlink:href="#m5acd7b5643" x="212.342557" y="209.103215" style="fill: #9467bd; stroke: #9467bd"/>
     <use xlink:href="#m5acd7b5643" x="240.23016" y="179.054406" style="fill: #9467bd; stroke: #9467bd"/>
     <use xlink:href="#m5acd7b5643" x="271.216386" y="164.226189" style="fill: #9467bd; stroke: #9467bd"/>
     <use xlink:href="#m5acd7b5643" x="302.202612" y="150.417248" style="fill: #9467bd; stroke: #9467bd"/>
     <use xlink:href="#m5acd7b5643" x="333.188838" y="143.625206" style="fill: #9467bd; stroke: #9467bd"/>
     <use xlink:href="#m5acd7b5643" x="364.175064" y="131.532937" style="fill: #9467bd; stroke: #9467bd"/>
     <use xlink:href="#m5acd7b5643" x="395.16129" y="123.594657" style="fill: #9467bd; stroke: #9467bd"/>
     <use xlink:href="#m5acd7b5643" x="426.147515" y="118.815436" style="fill: #9467bd; stroke: #9467bd"/>
     <use xlink:href="#m5acd7b5643" x="457.133741" y="110.302768" style="fill: #9467bd; stroke: #9467bd"/>
     <use xlink:href="#m5acd7b5643" x="488.119967" y="102.755201" style="fill: #9467bd; stroke: #9467bd"/>
     <use xlink:href="#m5acd7b5643" x="519.106193" y="97.8785" style="fill: #9467bd; stroke: #9467bd"/>
    </g>
   </g>
   <g id="line2d_26">
    <path d="M 212.342557 212.078641 
L 240.23016 186.841352 
L 271.216386 175.601289 
L 302.202612 166.024241 
L 333.188838 158.042904 
L 364.175064 149.090091 
L 395.16129 143.268323 
L 426.147515 137.089386 
L 457.133741 131.288993 
L 488.119967 125.123793 
L 519.106193 121.868556 
" clip-path="url(#pd2e188211a)" style="fill: none; stroke: #8c564b; stroke-width: 1.5; stroke-linecap: square"/>
    <defs>
     <path id="mb3e284ddbd" d="M 0 3 
C 0.795609 3 1.55874 2.683901 2.12132 2.12132 
C 2.683901 1.55874 3 0.795609 3 0 
C 3 -0.795609 2.683901 -1.55874 2.12132 -2.12132 
C 1.55874 -2.683901 0.795609 -3 0 -3 
C -0.795609 -3 -1.55874 -2.683901 -2.12132 -2.12132 
C -2.683901 -1.55874 -3 -0.795609 -3 0 
C -3 0.795609 -2.683901 1.55874 -2.12132 2.12132 
C -1.55874 2.683901 -0.795609 3 0 3 
z
" style="stroke: #8c564b"/>
    </defs>
    <g clip-path="url(#pd2e188211a)">
     <use xlink:href="#mb3e284ddbd" x="212.342557" y="212.078641" style="fill: #8c564b; stroke: #8c564b"/>
     <use xlink:href="#mb3e284ddbd" x="240.23016" y="186.841352" style="fill: #8c564b; stroke: #8c564b"/>
     <use xlink:href="#mb3e284ddbd" x="271.216386" y="175.601289" style="fill: #8c564b; stroke: #8c564b"/>
     <use xlink:href="#mb3e284ddbd" x="302.202612" y="166.024241" style="fill: #8c564b; stroke: #8c564b"/>
     <use xlink:href="#mb3e284ddbd" x="333.188838" y="158.042904" style="fill: #8c564b; stroke: #8c564b"/>
     <use xlink:href="#mb3e284ddbd" x="364.175064" y="149.090091" style="fill: #8c564b; stroke: #8c564b"/>
     <use xlink:href="#mb3e284ddbd" x="395.16129" y="143.268323" style="fill: #8c564b; stroke: #8c564b"/>
     <use xlink:href="#mb3e284ddbd" x="426.147515" y="137.089386" style="fill: #8c564b; stroke: #8c564b"/>
     <use xlink:href="#mb3e284ddbd" x="457.133741" y="131.288993" style="fill: #8c564b; stroke: #8c564b"/>
     <use xlink:href="#mb3e284ddbd" x="488.119967" y="125.123793" style="fill: #8c564b; stroke: #8c564b"/>
     <use xlink:href="#mb3e284ddbd" x="519.106193" y="121.868556" style="fill: #8c564b; stroke: #8c564b"/>
    </g>
   </g>
   <g id="line2d_27">
    <path d="M 212.342557 219.694088 
L 240.23016 201.703435 
L 271.216386 187.144034 
L 302.202612 180.243332 
L 333.188838 171.959462 
L 364.175064 167.634858 
L 395.16129 163.066537 
L 426.147515 156.874939 
L 457.133741 152.907743 
L 488.119967 149.882667 
L 519.106193 145.458645 
" clip-path="url(#pd2e188211a)" style="fill: none; stroke: #e377c2; stroke-width: 1.5; stroke-linecap: square"/>
    <defs>
     <path id="m837c94488a" d="M 0 3 
C 0.795609 3 1.55874 2.683901 2.12132 2.12132 
C 2.683901 1.55874 3 0.795609 3 0 
C 3 -0.795609 2.683901 -1.55874 2.12132 -2.12132 
C 1.55874 -2.683901 0.795609 -3 0 -3 
C -0.795609 -3 -1.55874 -2.683901 -2.12132 -2.12132 
C -2.683901 -1.55874 -3 -0.795609 -3 0 
C -3 0.795609 -2.683901 1.55874 -2.12132 2.12132 
C -1.55874 2.683901 -0.795609 3 0 3 
z
" style="stroke: #e377c2"/>
    </defs>
    <g clip-path="url(#pd2e188211a)">
     <use xlink:href="#m837c94488a" x="212.342557" y="219.694088" style="fill: #e377c2; stroke: #e377c2"/>
     <use xlink:href="#m837c94488a" x="240.23016" y="201.703435" style="fill: #e377c2; stroke: #e377c2"/>
     <use xlink:href="#m837c94488a" x="271.216386" y="187.144034" style="fill: #e377c2; stroke: #e377c2"/>
     <use xlink:href="#m837c94488a" x="302.202612" y="180.243332" style="fill: #e377c2; stroke: #e377c2"/>
     <use xlink:href="#m837c94488a" x="333.188838" y="171.959462" style="fill: #e377c2; stroke: #e377c2"/>
     <use xlink:href="#m837c94488a" x="364.175064" y="167.634858" style="fill: #e377c2; stroke: #e377c2"/>
     <use xlink:href="#m837c94488a" x="395.16129" y="163.066537" style="fill: #e377c2; stroke: #e377c2"/>
     <use xlink:href="#m837c94488a" x="426.147515" y="156.874939" style="fill: #e377c2; stroke: #e377c2"/>
     <use xlink:href="#m837c94488a" x="457.133741" y="152.907743" style="fill: #e377c2; stroke: #e377c2"/>
     <use xlink:href="#m837c94488a" x="488.119967" y="149.882667" style="fill: #e377c2; stroke: #e377c2"/>
     <use xlink:href="#m837c94488a" x="519.106193" y="145.458645" style="fill: #e377c2; stroke: #e377c2"/>
    </g>
   </g>
   <g id="line2d_28">
    <path d="M 212.342557 221.438182 
L 240.23016 208.991481 
L 271.216386 201.041865 
L 302.202612 195.825508 
L 333.188838 191.288232 
L 364.175064 185.256046 
L 395.16129 182.381187 
L 426.147515 179.470001 
L 457.133741 175.46204 
L 488.119967 173.138928 
L 519.106193 169.015534 
" clip-path="url(#pd2e188211a)" style="fill: none; stroke: #7f7f7f; stroke-width: 1.5; stroke-linecap: square"/>
    <defs>
     <path id="m338fa602da" d="M 0 3 
C 0.795609 3 1.55874 2.683901 2.12132 2.12132 
C 2.683901 1.55874 3 0.795609 3 0 
C 3 -0.795609 2.683901 -1.55874 2.12132 -2.12132 
C 1.55874 -2.683901 0.795609 -3 0 -3 
C -0.795609 -3 -1.55874 -2.683901 -2.12132 -2.12132 
C -2.683901 -1.55874 -3 -0.795609 -3 0 
C -3 0.795609 -2.683901 1.55874 -2.12132 2.12132 
C -1.55874 2.683901 -0.795609 3 0 3 
z
" style="stroke: #7f7f7f"/>
    </defs>
    <g clip-path="url(#pd2e188211a)">
     <use xlink:href="#m338fa602da" x="212.342557" y="221.438182" style="fill: #7f7f7f; stroke: #7f7f7f"/>
     <use xlink:href="#m338fa602da" x="240.23016" y="208.991481" style="fill: #7f7f7f; stroke: #7f7f7f"/>
     <use xlink:href="#m338fa602da" x="271.216386" y="201.041865" style="fill: #7f7f7f; stroke: #7f7f7f"/>
     <use xlink:href="#m338fa602da" x="302.202612" y="195.825508" style="fill: #7f7f7f; stroke: #7f7f7f"/>
     <use xlink:href="#m338fa602da" x="333.188838" y="191.288232" style="fill: #7f7f7f; stroke: #7f7f7f"/>
     <use xlink:href="#m338fa602da" x="364.175064" y="185.256046" style="fill: #7f7f7f; stroke: #7f7f7f"/>
     <use xlink:href="#m338fa602da" x="395.16129" y="182.381187" style="fill: #7f7f7f; stroke: #7f7f7f"/>
     <use xlink:href="#m338fa602da" x="426.147515" y="179.470001" style="fill: #7f7f7f; stroke: #7f7f7f"/>
     <use xlink:href="#m338fa602da" x="457.133741" y="175.46204" style="fill: #7f7f7f; stroke: #7f7f7f"/>
     <use xlink:href="#m338fa602da" x="488.119967" y="173.138928" style="fill: #7f7f7f; stroke: #7f7f7f"/>
     <use xlink:href="#m338fa602da" x="519.106193" y="169.015534" style="fill: #7f7f7f; stroke: #7f7f7f"/>
    </g>
   </g>
   <g id="patch_3">
    <path d="M 197.004375 231.64 
L 197.004375 7.2 
" style="fill: none; stroke: #000000; stroke-width: 0.8; stroke-linejoin: miter; stroke-linecap: square"/>
   </g>
   <g id="patch_4">
    <path d="M 534.444375 231.64 
L 534.444375 7.2 
" style="fill: none; stroke: #000000; stroke-width: 0.8; stroke-linejoin: miter; stroke-linecap: square"/>
   </g>
   <g id="patch_5">
    <path d="M 197.004375 231.64 
L 534.444375 231.64 
" style="fill: none; stroke: #000000; stroke-width: 0.8; stroke-linejoin: miter; stroke-linecap: square"/>
   </g>
   <g id="patch_6">
    <path d="M 197.004375 7.2 
L 534.444375 7.2 
" style="fill: none; stroke: #000000; stroke-width: 0.8; stroke-linejoin: miter; stroke-linecap: square"/>
   </g>
   <g id="legend_1">
    <g id="line2d_29">
     <path d="M 12 56.883125 
L 24 56.883125 
L 36 56.883125 
" style="fill: none; stroke: #1f77b4; stroke-width: 1.5; stroke-linecap: square"/>
     <g>
      <use xlink:href="#m723b0f8ba3" x="24" y="56.883125" style="fill: #1f77b4; stroke: #1f77b4"/>
     </g>
    </g>
    <g id="text_13">
     <!-- Ts=80 K -->
     <g transform="translate(45.6 61.083125) scale(0.12 -0.12)">
      <defs>
       <path id="DejaVuSans-54" d="M -19 4666 
L 3928 4666 
L 3928 4134 
L 2272 4134 
L 2272 0 
L 1638 0 
L 1638 4134 
L -19 4134 
L -19 4666 
z
" transform="scale(0.015625)"/>
       <path id="DejaVuSans-73" d="M 2834 3397 
L 2834 2853 
Q 2591 2978 2328 3040 
Q 2066 3103 1784 3103 
Q 1356 3103 1142 2972 
Q 928 2841 928 2578 
Q 928 2378 1081 2264 
Q 1234 2150 1697 2047 
L 1894 2003 
Q 2506 1872 2764 1633 
Q 3022 1394 3022 966 
Q 3022 478 2636 193 
Q 2250 -91 1575 -91 
Q 1294 -91 989 -36 
Q 684 19 347 128 
L 347 722 
Q 666 556 975 473 
Q 1284 391 1588 391 
Q 1994 391 2212 530 
Q 2431 669 2431 922 
Q 2431 1156 2273 1281 
Q 2116 1406 1581 1522 
L 1381 1569 
Q 847 1681 609 1914 
Q 372 2147 372 2553 
Q 372 3047 722 3315 
Q 1072 3584 1716 3584 
Q 2034 3584 2315 3537 
Q 2597 3491 2834 3397 
z
" transform="scale(0.015625)"/>
       <path id="DejaVuSans-3d" d="M 678 2906 
L 4684 2906 
L 4684 2381 
L 678 2381 
L 678 2906 
z
M 678 1631 
L 4684 1631 
L 4684 1100 
L 678 1100 
L 678 1631 
z
" transform="scale(0.015625)"/>
       <path id="DejaVuSans-38" d="M 2034 2216 
Q 1584 2216 1326 1975 
Q 1069 1734 1069 1313 
Q 1069 891 1326 650 
Q 1584 409 2034 409 
Q 2484 409 2743 651 
Q 3003 894 3003 1313 
Q 3003 1734 2745 1975 
Q 2488 2216 2034 2216 
z
M 1403 2484 
Q 997 2584 770 2862 
Q 544 3141 544 3541 
Q 544 4100 942 4425 
Q 1341 4750 2034 4750 
Q 2731 4750 3128 4425 
Q 3525 4100 3525 3541 
Q 3525 3141 3298 2862 
Q 3072 2584 2669 2484 
Q 3125 2378 3379 2068 
Q 3634 1759 3634 1313 
Q 3634 634 3220 271 
Q 2806 -91 2034 -91 
Q 1263 -91 848 271 
Q 434 634 434 1313 
Q 434 1759 690 2068 
Q 947 2378 1403 2484 
z
M 1172 3481 
Q 1172 3119 1398 2916 
Q 1625 2713 2034 2713 
Q 2441 2713 2670 2916 
Q 2900 3119 2900 3481 
Q 2900 3844 2670 4047 
Q 2441 4250 2034 4250 
Q 1625 4250 1398 4047 
Q 1172 3844 1172 3481 
z
" transform="scale(0.015625)"/>
       <path id="DejaVuSans-4b" d="M 628 4666 
L 1259 4666 
L 1259 2694 
L 3353 4666 
L 4166 4666 
L 1850 2491 
L 4331 0 
L 3500 0 
L 1259 2247 
L 1259 0 
L 628 0 
L 628 4666 
z
" transform="scale(0.015625)"/>
      </defs>
      <use xlink:href="#DejaVuSans-54"/>
      <use xlink:href="#DejaVuSans-73" transform="translate(44.583984 0)"/>
      <use xlink:href="#DejaVuSans-3d" transform="translate(96.683594 0)"/>
      <use xlink:href="#DejaVuSans-38" transform="translate(180.472656 0)"/>
      <use xlink:href="#DejaVuSans-30" transform="translate(244.095703 0)"/>
      <use xlink:href="#DejaVuSans-20" transform="translate(307.71875 0)"/>
      <use xlink:href="#DejaVuSans-4b" transform="translate(339.505859 0)"/>
     </g>
    </g>
    <g id="line2d_30">
     <path d="M 12 74.496875 
L 24 74.496875 
L 36 74.496875 
" style="fill: none; stroke: #ff7f0e; stroke-width: 1.5; stroke-linecap: square"/>
     <g>
      <use xlink:href="#me2126d1a64" x="24" y="74.496875" style="fill: #ff7f0e; stroke: #ff7f0e"/>
     </g>
    </g>
    <g id="text_14">
     <!-- Ts=100 K -->
     <g transform="translate(45.6 78.696875) scale(0.12 -0.12)">
      <use xlink:href="#DejaVuSans-54"/>
      <use xlink:href="#DejaVuSans-73" transform="translate(44.583984 0)"/>
      <use xlink:href="#DejaVuSans-3d" transform="translate(96.683594 0)"/>
      <use xlink:href="#DejaVuSans-31" transform="translate(180.472656 0)"/>
      <use xlink:href="#DejaVuSans-30" transform="translate(244.095703 0)"/>
      <use xlink:href="#DejaVuSans-30" transform="translate(307.71875 0)"/>
      <use xlink:href="#DejaVuSans-20" transform="translate(371.341797 0)"/>
      <use xlink:href="#DejaVuSans-4b" transform="translate(403.128906 0)"/>
     </g>
    </g>
    <g id="line2d_31">
     <path d="M 12 92.110625 
L 24 92.110625 
L 36 92.110625 
" style="fill: none; stroke: #2ca02c; stroke-width: 1.5; stroke-linecap: square"/>
     <g>
      <use xlink:href="#m3b0a8f8eef" x="24" y="92.110625" style="fill: #2ca02c; stroke: #2ca02c"/>
     </g>
    </g>
    <g id="text_15">
     <!-- Ts=120 K -->
     <g transform="translate(45.6 96.310625) scale(0.12 -0.12)">
      <use xlink:href="#DejaVuSans-54"/>
      <use xlink:href="#DejaVuSans-73" transform="translate(44.583984 0)"/>
      <use xlink:href="#DejaVuSans-3d" transform="translate(96.683594 0)"/>
      <use xlink:href="#DejaVuSans-31" transform="translate(180.472656 0)"/>
      <use xlink:href="#DejaVuSans-32" transform="translate(244.095703 0)"/>
      <use xlink:href="#DejaVuSans-30" transform="translate(307.71875 0)"/>
      <use xlink:href="#DejaVuSans-20" transform="translate(371.341797 0)"/>
      <use xlink:href="#DejaVuSans-4b" transform="translate(403.128906 0)"/>
     </g>
    </g>
    <g id="line2d_32">
     <path d="M 12 109.724375 
L 24 109.724375 
L 36 109.724375 
" style="fill: none; stroke: #d62728; stroke-width: 1.5; stroke-linecap: square"/>
     <g>
      <use xlink:href="#m05013d54b7" x="24" y="109.724375" style="fill: #d62728; stroke: #d62728"/>
     </g>
    </g>
    <g id="text_16">
     <!-- Ts=140 K -->
     <g transform="translate(45.6 113.924375) scale(0.12 -0.12)">
      <use xlink:href="#DejaVuSans-54"/>
      <use xlink:href="#DejaVuSans-73" transform="translate(44.583984 0)"/>
      <use xlink:href="#DejaVuSans-3d" transform="translate(96.683594 0)"/>
      <use xlink:href="#DejaVuSans-31" transform="translate(180.472656 0)"/>
      <use xlink:href="#DejaVuSans-34" transform="translate(244.095703 0)"/>
      <use xlink:href="#DejaVuSans-30" transform="translate(307.71875 0)"/>
      <use xlink:href="#DejaVuSans-20" transform="translate(371.341797 0)"/>
      <use xlink:href="#DejaVuSans-4b" transform="translate(403.128906 0)"/>
     </g>
    </g>
    <g id="line2d_33">
     <path d="M 12 127.338125 
L 24 127.338125 
L 36 127.338125 
" style="fill: none; stroke: #9467bd; stroke-width: 1.5; stroke-linecap: square"/>
     <g>
      <use xlink:href="#m5acd7b5643" x="24" y="127.338125" style="fill: #9467bd; stroke: #9467bd"/>
     </g>
    </g>
    <g id="text_17">
     <!-- Ts=160 K -->
     <g transform="translate(45.6 131.538125) scale(0.12 -0.12)">
      <defs>
       <path id="DejaVuSans-36" d="M 2113 2584 
Q 1688 2584 1439 2293 
Q 1191 2003 1191 1497 
Q 1191 994 1439 701 
Q 1688 409 2113 409 
Q 2538 409 2786 701 
Q 3034 994 3034 1497 
Q 3034 2003 2786 2293 
Q 2538 2584 2113 2584 
z
M 3366 4563 
L 3366 3988 
Q 3128 4100 2886 4159 
Q 2644 4219 2406 4219 
Q 1781 4219 1451 3797 
Q 1122 3375 1075 2522 
Q 1259 2794 1537 2939 
Q 1816 3084 2150 3084 
Q 2853 3084 3261 2657 
Q 3669 2231 3669 1497 
Q 3669 778 3244 343 
Q 2819 -91 2113 -91 
Q 1303 -91 875 529 
Q 447 1150 447 2328 
Q 447 3434 972 4092 
Q 1497 4750 2381 4750 
Q 2619 4750 2861 4703 
Q 3103 4656 3366 4563 
z
" transform="scale(0.015625)"/>
      </defs>
      <use xlink:href="#DejaVuSans-54"/>
      <use xlink:href="#DejaVuSans-73" transform="translate(44.583984 0)"/>
      <use xlink:href="#DejaVuSans-3d" transform="translate(96.683594 0)"/>
      <use xlink:href="#DejaVuSans-31" transform="translate(180.472656 0)"/>
      <use xlink:href="#DejaVuSans-36" transform="translate(244.095703 0)"/>
      <use xlink:href="#DejaVuSans-30" transform="translate(307.71875 0)"/>
      <use xlink:href="#DejaVuSans-20" transform="translate(371.341797 0)"/>
      <use xlink:href="#DejaVuSans-4b" transform="translate(403.128906 0)"/>
     </g>
    </g>
    <g id="line2d_34">
     <path d="M 12 144.951875 
L 24 144.951875 
L 36 144.951875 
" style="fill: none; stroke: #8c564b; stroke-width: 1.5; stroke-linecap: square"/>
     <g>
      <use xlink:href="#mb3e284ddbd" x="24" y="144.951875" style="fill: #8c564b; stroke: #8c564b"/>
     </g>
    </g>
    <g id="text_18">
     <!-- Ts=180 K -->
     <g transform="translate(45.6 149.151875) scale(0.12 -0.12)">
      <use xlink:href="#DejaVuSans-54"/>
      <use xlink:href="#DejaVuSans-73" transform="translate(44.583984 0)"/>
      <use xlink:href="#DejaVuSans-3d" transform="translate(96.683594 0)"/>
      <use xlink:href="#DejaVuSans-31" transform="translate(180.472656 0)"/>
      <use xlink:href="#DejaVuSans-38" transform="translate(244.095703 0)"/>
      <use xlink:href="#DejaVuSans-30" transform="translate(307.71875 0)"/>
      <use xlink:href="#DejaVuSans-20" transform="translate(371.341797 0)"/>
      <use xlink:href="#DejaVuSans-4b" transform="translate(403.128906 0)"/>
     </g>
    </g>
    <g id="line2d_35">
     <path d="M 12 162.565625 
L 24 162.565625 
L 36 162.565625 
" style="fill: none; stroke: #e377c2; stroke-width: 1.5; stroke-linecap: square"/>
     <g>
      <use xlink:href="#m837c94488a" x="24" y="162.565625" style="fill: #e377c2; stroke: #e377c2"/>
     </g>
    </g>
    <g id="text_19">
     <!-- Ts=200 K -->
     <g transform="translate(45.6 166.765625) scale(0.12 -0.12)">
      <use xlink:href="#DejaVuSans-54"/>
      <use xlink:href="#DejaVuSans-73" transform="translate(44.583984 0)"/>
      <use xlink:href="#DejaVuSans-3d" transform="translate(96.683594 0)"/>
      <use xlink:href="#DejaVuSans-32" transform="translate(180.472656 0)"/>
      <use xlink:href="#DejaVuSans-30" transform="translate(244.095703 0)"/>
      <use xlink:href="#DejaVuSans-30" transform="translate(307.71875 0)"/>
      <use xlink:href="#DejaVuSans-20" transform="translate(371.341797 0)"/>
      <use xlink:href="#DejaVuSans-4b" transform="translate(403.128906 0)"/>
     </g>
    </g>
    <g id="line2d_36">
     <path d="M 12 180.179375 
L 24 180.179375 
L 36 180.179375 
" style="fill: none; stroke: #7f7f7f; stroke-width: 1.5; stroke-linecap: square"/>
     <g>
      <use xlink:href="#m338fa602da" x="24" y="180.179375" style="fill: #7f7f7f; stroke: #7f7f7f"/>
     </g>
    </g>
    <g id="text_20">
     <!-- Ts=220 K -->
     <g transform="translate(45.6 184.379375) scale(0.12 -0.12)">
      <use xlink:href="#DejaVuSans-54"/>
      <use xlink:href="#DejaVuSans-73" transform="translate(44.583984 0)"/>
      <use xlink:href="#DejaVuSans-3d" transform="translate(96.683594 0)"/>
      <use xlink:href="#DejaVuSans-32" transform="translate(180.472656 0)"/>
      <use xlink:href="#DejaVuSans-32" transform="translate(244.095703 0)"/>
      <use xlink:href="#DejaVuSans-30" transform="translate(307.71875 0)"/>
      <use xlink:href="#DejaVuSans-20" transform="translate(371.341797 0)"/>
      <use xlink:href="#DejaVuSans-4b" transform="translate(403.128906 0)"/>
     </g>
    </g>
   </g>
  </g>
 </g>
 <defs>
  <clipPath id="pd2e188211a">
   <rect x="197.004375" y="7.2" width="337.44" height="224.44"/>
  </clipPath>
 </defs>
</svg>
