<?xml version="1.0" encoding="utf-8" standalone="no"?>
<!DOCTYPE svg PUBLIC "-//W3C//DTD SVG 1.1//EN"
  "http://www.w3.org/Graphics/SVG/1.1/DTD/svg11.dtd">
<svg xmlns:xlink="http://www.w3.org/1999/xlink" width="349.1605pt" height="495.034375pt" viewBox="0 0 349.1605 495.034375" xmlns="http://www.w3.org/2000/svg" version="1.1">
 <metadata>
  <rdf:RDF xmlns:dc="http://purl.org/dc/elements/1.1/" xmlns:cc="http://creativecommons.org/ns#" xmlns:rdf="http://www.w3.org/1999/02/22-rdf-syntax-ns#">
   <cc:Work>
    <dc:type rdf:resource="http://purl.org/dc/dcmitype/StillImage"/>
    <dc:date>2026-02-11T23:19:06.472866</dc:date>
    <dc:format>image/svg+xml</dc:format>
    <dc:creator>
     <cc:Agent>
      <dc:title>Matplotlib v3.10.8, https://matplotlib.org/</dc:title>
     </cc:Agent>
    </dc:creator>
   </cc:Work>
  </rdf:RDF>
 </metadata>
 <defs>
  <style type="text/css">*{stroke-linejoin: round; stroke-linecap: butt}</style>
 </defs>
 <g id="figure_1">
  <g id="patch_1">
   <path d="M 0 495.034375 
L 349.1605 495.034375 
L 349.1605 0 
L 0 0 
L 0 495.034375 
z
" style="fill: none"/>
  </g>
  <g id="axes_1">
   <g id="patch_2">
    <path d="M 35.0625 147.118125 
L 341.9605 147.118125 
L 341.9605 22.318125 
L 35.0625 22.318125 
L 35.0625 147.118125 
z
" style="fill: none"/>
   </g>
   <g id="FillBetweenPolyCollection_1">
    <defs>
     <path id="m9051f0fde2" d="M 49.012409 -467.043523 
L 49.012409 -358.804414 
L 50.41441 -358.691351 
L 51.816411 -358.581666 
L 53.218412 -358.475222 
L 54.620413 -358.37189 
L 56.022414 -358.271545 
L 57.424415 -358.174073 
L 58.826415 -358.07936 
L 60.228416 -357.987302 
L 61.630417 -357.897797 
L 63.032418 -357.810749 
L 64.434419 -357.726068 
L 65.83642 -357.643665 
L 67.238421 -357.563458 
L 68.640422 -357.485368 
L 70.042423 -357.409319 
L 71.444424 -357.335238 
L 72.846425 -357.263057 
L 74.248426 -357.192709 
L 75.650426 -357.124131 
L 77.052427 -357.057264 
L 78.454428 -356.992048 
L 79.856429 -356.928429 
L 81.25843 -356.866353 
L 82.660431 -356.805771 
L 84.062432 -356.746632 
L 85.464433 -356.688891 
L 86.866434 -356.632503 
L 88.268435 -356.577424 
L 89.670436 -356.523614 
L 91.072437 -356.471033 
L 92.474437 -356.419642 
L 93.876438 -356.369405 
L 95.278439 -356.320287 
L 96.68044 -356.272254 
L 98.082441 -356.225273 
L 99.484442 -356.179314 
L 100.886443 -356.134346 
L 102.288444 -356.09034 
L 103.690445 -356.047268 
L 105.092446 -356.005103 
L 106.494447 -355.96382 
L 107.896447 -355.923392 
L 109.298448 -355.883797 
L 110.700449 -355.84501 
L 112.10245 -355.80701 
L 113.504451 -355.769775 
L 114.906452 -355.733283 
L 116.308453 -355.697515 
L 117.710454 -355.662452 
L 119.112455 -355.628073 
L 120.514456 -355.594362 
L 121.916457 -355.5613 
L 123.318458 -355.52887 
L 124.720458 -355.497057 
L 126.122459 -355.465844 
L 127.52446 -355.435215 
L 128.926461 -355.405157 
L 130.328462 -355.375654 
L 131.730463 -355.346692 
L 133.132464 -355.318259 
L 134.534465 -355.29034 
L 135.936466 -355.262924 
L 137.338467 -355.235997 
L 138.740468 -355.209549 
L 140.142468 -355.183567 
L 141.544469 -355.15804 
L 142.94647 -355.132958 
L 144.348471 -355.10831 
L 145.750472 -355.084085 
L 147.152473 -355.060275 
L 148.554474 -355.036868 
L 149.956475 -355.013856 
L 151.358476 -354.991231 
L 152.760477 -354.968982 
L 154.162478 -354.947102 
L 155.564479 -354.925582 
L 156.966479 -354.904414 
L 158.36848 -354.88359 
L 159.770481 -354.863103 
L 161.172482 -354.842945 
L 162.574483 -354.823109 
L 163.976484 -354.803588 
L 165.378485 -354.784376 
L 166.780486 -354.765465 
L 168.182487 -354.746849 
L 169.584488 -354.728523 
L 170.986489 -354.710479 
L 172.388489 -354.692711 
L 173.79049 -354.675215 
L 175.192491 -354.657985 
L 176.594492 -354.641014 
L 177.996493 -354.624298 
L 179.398494 -354.607831 
L 180.800495 -354.591609 
L 182.202496 -354.575626 
L 183.604497 -354.559878 
L 185.006498 -354.54436 
L 186.408499 -354.529067 
L 187.8105 -354.513995 
L 189.2125 -354.49914 
L 190.614501 -354.484497 
L 192.016502 -354.470062 
L 193.418503 -354.455831 
L 194.820504 -354.441801 
L 196.222505 -354.427967 
L 197.624506 -354.414325 
L 199.026507 -354.400873 
L 200.428508 -354.387606 
L 201.830509 -354.374521 
L 203.23251 -354.361614 
L 204.634511 -354.348883 
L 206.036511 -354.336324 
L 207.438512 -354.323933 
L 208.840513 -354.311708 
L 210.242514 -354.299646 
L 211.644515 -354.287744 
L 213.046516 -354.275999 
L 214.448517 -354.264408 
L 215.850518 -354.252968 
L 217.252519 -354.241677 
L 218.65452 -354.230531 
L 220.056521 -354.219529 
L 221.458521 -354.208668 
L 222.860522 -354.197946 
L 224.262523 -354.18736 
L 225.664524 -354.176907 
L 227.066525 -354.166585 
L 228.468526 -354.156393 
L 229.870527 -354.146328 
L 231.272528 -354.136388 
L 232.674529 -354.12657 
L 234.07653 -354.116873 
L 235.478531 -354.106589 
L 236.880532 -354.095041 
L 238.282532 -354.083652 
L 239.684533 -354.07242 
L 241.086534 -354.061342 
L 242.488535 -354.050415 
L 243.890536 -354.039636 
L 245.292537 -354.029002 
L 246.694538 -354.018512 
L 248.096539 -354.008162 
L 249.49854 -353.99795 
L 250.900541 -353.987874 
L 252.302542 -353.977931 
L 253.704542 -353.968119 
L 255.106543 -353.958435 
L 256.508544 -353.948878 
L 257.910545 -353.939445 
L 259.312546 -353.930134 
L 260.714547 -353.920943 
L 262.116548 -353.91187 
L 263.518549 -353.902914 
L 264.92055 -353.894071 
L 266.322551 -353.88534 
L 267.724552 -353.876719 
L 269.126553 -353.868207 
L 270.528553 -353.859802 
L 271.930554 -353.851501 
L 273.332555 -353.843304 
L 274.734556 -353.835208 
L 276.136557 -353.827211 
L 277.538558 -353.819313 
L 278.940559 -353.811512 
L 280.34256 -353.803805 
L 281.744561 -353.796192 
L 283.146562 -353.788671 
L 284.548563 -353.78124 
L 285.950563 -353.773899 
L 287.352564 -353.766645 
L 288.754565 -353.759478 
L 290.156566 -353.752395 
L 291.558567 -353.745397 
L 292.960568 -353.73848 
L 294.362569 -353.731645 
L 295.76457 -353.724889 
L 297.166571 -353.718212 
L 298.568572 -353.711612 
L 299.970573 -353.705088 
L 301.372574 -353.69864 
L 302.774574 -353.692265 
L 304.176575 -353.685963 
L 305.578576 -353.679733 
L 306.980577 -353.673573 
L 308.382578 -353.667483 
L 309.784579 -353.661462 
L 311.18658 -353.655508 
L 312.588581 -353.64962 
L 313.990582 -353.643798 
L 315.392583 -353.63804 
L 316.794584 -353.632346 
L 318.196585 -353.626715 
L 319.598585 -353.621146 
L 321.000586 -353.615637 
L 322.402587 -353.610189 
L 323.804588 -353.604799 
L 325.206589 -353.599468 
L 326.60859 -353.594194 
L 328.010591 -353.588977 
L 328.010591 -363.574933 
L 328.010591 -363.574933 
L 326.60859 -363.638984 
L 325.206589 -363.703645 
L 323.804588 -363.768923 
L 322.402587 -363.834827 
L 321.000586 -363.901364 
L 319.598585 -363.968544 
L 318.196585 -364.036374 
L 316.794584 -364.104864 
L 315.392583 -364.174022 
L 313.990582 -364.243857 
L 312.588581 -364.314378 
L 311.18658 -364.385594 
L 309.784579 -364.457515 
L 308.382578 -364.530151 
L 306.980577 -364.603511 
L 305.578576 -364.677605 
L 304.176575 -364.752444 
L 302.774574 -364.828036 
L 301.372574 -364.904394 
L 299.970573 -364.981527 
L 298.568572 -365.059447 
L 297.166571 -365.138164 
L 295.76457 -365.21769 
L 294.362569 -365.298036 
L 292.960568 -365.379213 
L 291.558567 -365.461234 
L 290.156566 -365.54411 
L 288.754565 -365.627854 
L 287.352564 -365.712478 
L 285.950563 -365.797996 
L 284.548563 -365.884419 
L 283.146562 -365.971761 
L 281.744561 -366.060036 
L 280.34256 -366.149257 
L 278.940559 -366.239438 
L 277.538558 -366.330593 
L 276.136557 -366.422737 
L 274.734556 -366.515885 
L 273.332555 -366.610051 
L 271.930554 -366.705252 
L 270.528553 -366.801501 
L 269.126553 -366.898816 
L 267.724552 -366.997213 
L 266.322551 -367.096707 
L 264.92055 -367.197317 
L 263.518549 -367.299058 
L 262.116548 -367.401949 
L 260.714547 -367.506008 
L 259.312546 -367.611252 
L 257.910545 -367.717701 
L 256.508544 -367.825373 
L 255.106543 -367.934287 
L 253.704542 -368.044463 
L 252.302542 -368.155922 
L 250.900541 -368.268683 
L 249.49854 -368.382768 
L 248.096539 -368.498198 
L 246.694538 -368.614995 
L 245.292537 -368.733182 
L 243.890536 -368.85278 
L 242.488535 -368.973813 
L 241.086534 -369.096305 
L 239.684533 -369.22028 
L 238.282532 -369.345762 
L 236.880532 -369.472777 
L 235.478531 -369.60135 
L 234.07653 -369.750892 
L 232.674529 -369.912269 
L 231.272528 -370.075937 
L 229.870527 -370.24194 
L 228.468526 -370.410321 
L 227.066525 -370.581125 
L 225.664524 -370.7544 
L 224.262523 -370.930193 
L 222.860522 -371.108552 
L 221.458521 -371.289527 
L 220.056521 -371.473169 
L 218.65452 -371.65953 
L 217.252519 -371.848665 
L 215.850518 -372.040627 
L 214.448517 -372.235474 
L 213.046516 -372.433262 
L 211.644515 -372.63405 
L 210.242514 -372.8379 
L 208.840513 -373.044874 
L 207.438512 -373.255034 
L 206.036511 -373.468446 
L 204.634511 -373.685178 
L 203.23251 -373.905297 
L 201.830509 -374.128875 
L 200.428508 -374.355983 
L 199.026507 -374.586695 
L 197.624506 -374.821089 
L 196.222505 -375.059241 
L 194.820504 -375.301232 
L 193.418503 -375.547145 
L 192.016502 -375.797064 
L 190.614501 -376.051075 
L 189.2125 -376.309268 
L 187.8105 -376.571734 
L 186.408499 -376.838568 
L 185.006498 -377.109866 
L 183.604497 -377.385728 
L 182.202496 -377.666255 
L 180.800495 -377.951553 
L 179.398494 -378.24173 
L 177.996493 -378.536897 
L 176.594492 -378.837167 
L 175.192491 -379.142659 
L 173.79049 -379.453492 
L 172.388489 -379.769792 
L 170.986489 -380.091687 
L 169.584488 -380.419307 
L 168.182487 -380.752789 
L 166.780486 -381.092272 
L 165.378485 -381.437901 
L 163.976484 -381.789822 
L 162.574483 -382.148188 
L 161.172482 -382.513158 
L 159.770481 -382.884891 
L 158.36848 -383.263557 
L 156.966479 -383.649325 
L 155.564479 -384.042375 
L 154.162478 -384.442889 
L 152.760477 -384.851055 
L 151.358476 -385.267069 
L 149.956475 -385.69113 
L 148.554474 -386.123448 
L 147.152473 -386.564234 
L 145.750472 -387.013712 
L 144.348471 -387.472108 
L 142.94647 -387.939658 
L 141.544469 -388.416606 
L 140.142468 -388.903204 
L 138.740468 -389.399711 
L 137.338467 -389.906397 
L 135.936466 -390.423539 
L 134.534465 -390.951424 
L 133.132464 -391.49035 
L 131.730463 -392.040626 
L 130.328462 -392.602568 
L 128.926461 -393.176507 
L 127.52446 -393.762784 
L 126.122459 -394.361753 
L 124.720458 -394.973778 
L 123.318458 -395.599241 
L 121.916457 -396.238534 
L 120.514456 -396.892064 
L 119.112455 -397.560255 
L 117.710454 -398.243544 
L 116.308453 -398.942386 
L 114.906452 -399.657254 
L 113.504451 -400.388637 
L 112.10245 -401.137043 
L 110.700449 -401.903002 
L 109.298448 -402.687062 
L 107.896447 -403.489794 
L 106.494447 -404.311789 
L 105.092446 -405.153666 
L 103.690445 -406.016065 
L 102.288444 -406.899653 
L 100.886443 -407.805125 
L 99.484442 -408.733204 
L 98.082441 -409.684643 
L 96.68044 -410.660227 
L 95.278439 -411.660772 
L 93.876438 -412.68713 
L 92.474437 -413.740192 
L 91.072437 -414.820883 
L 89.670436 -415.930172 
L 88.268435 -417.069067 
L 86.866434 -418.238625 
L 85.464433 -419.439946 
L 84.062432 -420.674183 
L 82.660431 -421.94254 
L 81.25843 -423.246276 
L 79.856429 -424.586708 
L 78.454428 -425.965217 
L 77.052427 -427.383246 
L 75.650426 -428.842308 
L 74.248426 -430.343991 
L 72.846425 -431.889957 
L 71.444424 -433.48195 
L 70.042423 -435.121802 
L 68.640422 -436.811436 
L 67.238421 -438.552869 
L 65.83642 -440.348226 
L 64.434419 -442.199738 
L 63.032418 -444.109752 
L 61.630417 -446.080741 
L 60.228416 -448.115307 
L 58.826415 -450.216191 
L 57.424415 -452.386285 
L 56.022414 -454.628639 
L 54.620413 -456.946471 
L 53.218412 -459.343179 
L 51.816411 -461.822356 
L 50.41441 -464.387798 
L 49.012409 -467.043523 
z
" style="stroke: #1f77b4; stroke-opacity: 0.2"/>
    </defs>
    <g clip-path="url(#p24014f4776)">
     <use xlink:href="#m9051f0fde2" x="0" y="495.034375" style="fill: #1f77b4; fill-opacity: 0.2; stroke: #1f77b4; stroke-opacity: 0.2"/>
    </g>
   </g>
   <g id="matplotlib.axis_1">
    <g id="xtick_1">
     <g id="line2d_1">
      <path d="M 41.26246 147.118125 
L 41.26246 22.318125 
" clip-path="url(#p24014f4776)" style="fill: none; stroke: #b0b0b0; stroke-opacity: 0.3; stroke-width: 0.8; stroke-linecap: square"/>
     </g>
     <g id="line2d_2">
      <defs>
       <path id="m1600844508" d="M 0 0 
L 0 3.5 
" style="stroke: #000000; stroke-width: 0.8"/>
      </defs>
      <g>
       <use xlink:href="#m1600844508" x="41.26246" y="147.118125" style="stroke: #000000; stroke-width: 0.8"/>
      </g>
     </g>
    </g>
    <g id="xtick_2">
     <g id="line2d_3">
      <path d="M 80.012207 147.118125 
L 80.012207 22.318125 
" clip-path="url(#p24014f4776)" style="fill: none; stroke: #b0b0b0; stroke-opacity: 0.3; stroke-width: 0.8; stroke-linecap: square"/>
     </g>
     <g id="line2d_4">
      <g>
       <use xlink:href="#m1600844508" x="80.012207" y="147.118125" style="stroke: #000000; stroke-width: 0.8"/>
      </g>
     </g>
    </g>
    <g id="xtick_3">
     <g id="line2d_5">
      <path d="M 118.761955 147.118125 
L 118.761955 22.318125 
" clip-path="url(#p24014f4776)" style="fill: none; stroke: #b0b0b0; stroke-opacity: 0.3; stroke-width: 0.8; stroke-linecap: square"/>
     </g>
     <g id="line2d_6">
      <g>
       <use xlink:href="#m1600844508" x="118.761955" y="147.118125" style="stroke: #000000; stroke-width: 0.8"/>
      </g>
     </g>
    </g>
    <g id="xtick_4">
     <g id="line2d_7">
      <path d="M 157.511702 147.118125 
L 157.511702 22.318125 
" clip-path="url(#p24014f4776)" style="fill: none; stroke: #b0b0b0; stroke-opacity: 0.3; stroke-width: 0.8; stroke-linecap: square"/>
     </g>
     <g id="line2d_8">
      <g>
       <use xlink:href="#m1600844508" x="157.511702" y="147.118125" style="stroke: #000000; stroke-width: 0.8"/>
      </g>
     </g>
    </g>
    <g id="xtick_5">
     <g id="line2d_9">
      <path d="M 196.261449 147.118125 
L 196.261449 22.318125 
" clip-path="url(#p24014f4776)" style="fill: none; stroke: #b0b0b0; stroke-opacity: 0.3; stroke-width: 0.8; stroke-linecap: square"/>
     </g>
     <g id="line2d_10">
      <g>
       <use xlink:href="#m1600844508" x="196.261449" y="147.118125" style="stroke: #000000; stroke-width: 0.8"/>
      </g>
     </g>
    </g>
    <g id="xtick_6">
     <g id="line2d_11">
      <path d="M 235.011197 147.118125 
L 235.011197 22.318125 
" clip-path="url(#p24014f4776)" style="fill: none; stroke: #b0b0b0; stroke-opacity: 0.3; stroke-width: 0.8; stroke-linecap: square"/>
     </g>
     <g id="line2d_12">
      <g>
       <use xlink:href="#m1600844508" x="235.011197" y="147.118125" style="stroke: #000000; stroke-width: 0.8"/>
      </g>
     </g>
    </g>
    <g id="xtick_7">
     <g id="line2d_13">
      <path d="M 273.760944 147.118125 
L 273.760944 22.318125 
" clip-path="url(#p24014f4776)" style="fill: none; stroke: #b0b0b0; stroke-opacity: 0.3; stroke-width: 0.8; stroke-linecap: square"/>
     </g>
     <g id="line2d_14">
      <g>
       <use xlink:href="#m1600844508" x="273.760944" y="147.118125" style="stroke: #000000; stroke-width: 0.8"/>
      </g>
     </g>
    </g>
    <g id="xtick_8">
     <g id="line2d_15">
      <path d="M 312.510692 147.118125 
L 312.510692 22.318125 
" clip-path="url(#p24014f4776)" style="fill: none; stroke: #b0b0b0; stroke-opacity: 0.3; stroke-width: 0.8; stroke-linecap: square"/>
     </g>
     <g id="line2d_16">
      <g>
       <use xlink:href="#m1600844508" x="312.510692" y="147.118125" style="stroke: #000000; stroke-width: 0.8"/>
      </g>
     </g>
    </g>
   </g>
   <g id="matplotlib.axis_2">
    <g id="ytick_1">
     <g id="line2d_17">
      <path d="M 35.0625 142.157887 
L 341.9605 142.157887 
" clip-path="url(#p24014f4776)" style="fill: none; stroke: #b0b0b0; stroke-opacity: 0.3; stroke-width: 0.8; stroke-linecap: square"/>
     </g>
     <g id="line2d_18">
      <defs>
       <path id="m90a90175f5" d="M 0 0 
L -3.5 0 
" style="stroke: #000000; stroke-width: 0.8"/>
      </defs>
      <g>
       <use xlink:href="#m90a90175f5" x="35.0625" y="142.157887" style="stroke: #000000; stroke-width: 0.8"/>
      </g>
     </g>
     <g id="text_1">
      <!-- 0 -->
      <g transform="translate(21.7 145.957106) scale(0.1 -0.1)">
       <defs>
        <path id="DejaVuSans-30" d="M 2034 4250 
Q 1547 4250 1301 3770 
Q 1056 3291 1056 2328 
Q 1056 1369 1301 889 
Q 1547 409 2034 409 
Q 2525 409 2770 889 
Q 3016 1369 3016 2328 
Q 3016 3291 2770 3770 
Q 2525 4250 2034 4250 
z
M 2034 4750 
Q 2819 4750 3233 4129 
Q 3647 3509 3647 2328 
Q 3647 1150 3233 529 
Q 2819 -91 2034 -91 
Q 1250 -91 836 529 
Q 422 1150 422 2328 
Q 422 3509 836 4129 
Q 1250 4750 2034 4750 
z
" transform="scale(0.015625)"/>
       </defs>
       <use xlink:href="#DejaVuSans-30"/>
      </g>
     </g>
    </g>
    <g id="ytick_2">
     <g id="line2d_19">
      <path d="M 35.0625 121.083201 
L 341.9605 121.083201 
" clip-path="url(#p24014f4776)" style="fill: none; stroke: #b0b0b0; stroke-opacity: 0.3; stroke-width: 0.8; stroke-linecap: square"/>
     </g>
     <g id="line2d_20">
      <g>
       <use xlink:href="#m90a90175f5" x="35.0625" y="121.083201" style="stroke: #000000; stroke-width: 0.8"/>
      </g>
     </g>
     <g id="text_2">
      <!-- 1 -->
      <g transform="translate(21.7 124.882419) scale(0.1 -0.1)">
       <defs>
        <path id="DejaVuSans-31" d="M 794 531 
L 1825 531 
L 1825 4091 
L 703 3866 
L 703 4441 
L 1819 4666 
L 2450 4666 
L 2450 531 
L 3481 531 
L 3481 0 
L 794 0 
L 794 531 
z
" transform="scale(0.015625)"/>
       </defs>
       <use xlink:href="#DejaVuSans-31"/>
      </g>
     </g>
    </g>
    <g id="ytick_3">
     <g id="line2d_21">
      <path d="M 35.0625 100.008514 
L 341.9605 100.008514 
" clip-path="url(#p24014f4776)" style="fill: none; stroke: #b0b0b0; stroke-opacity: 0.3; stroke-width: 0.8; stroke-linecap: square"/>
     </g>
     <g id="line2d_22">
      <g>
       <use xlink:href="#m90a90175f5" x="35.0625" y="100.008514" style="stroke: #000000; stroke-width: 0.8"/>
      </g>
     </g>
     <g id="text_3">
      <!-- 2 -->
      <g transform="translate(21.7 103.807733) scale(0.1 -0.1)">
       <defs>
        <path id="DejaVuSans-32" d="M 1228 531 
L 3431 531 
L 3431 0 
L 469 0 
L 469 531 
Q 828 903 1448 1529 
Q 2069 2156 2228 2338 
Q 2531 2678 2651 2914 
Q 2772 3150 2772 3378 
Q 2772 3750 2511 3984 
Q 2250 4219 1831 4219 
Q 1534 4219 1204 4116 
Q 875 4013 500 3803 
L 500 4441 
Q 881 4594 1212 4672 
Q 1544 4750 1819 4750 
Q 2544 4750 2975 4387 
Q 3406 4025 3406 3419 
Q 3406 3131 3298 2873 
Q 3191 2616 2906 2266 
Q 2828 2175 2409 1742 
Q 1991 1309 1228 531 
z
" transform="scale(0.015625)"/>
       </defs>
       <use xlink:href="#DejaVuSans-32"/>
      </g>
     </g>
    </g>
    <g id="ytick_4">
     <g id="line2d_23">
      <path d="M 35.0625 78.933828 
L 341.9605 78.933828 
" clip-path="url(#p24014f4776)" style="fill: none; stroke: #b0b0b0; stroke-opacity: 0.3; stroke-width: 0.8; stroke-linecap: square"/>
     </g>
     <g id="line2d_24">
      <g>
       <use xlink:href="#m90a90175f5" x="35.0625" y="78.933828" style="stroke: #000000; stroke-width: 0.8"/>
      </g>
     </g>
     <g id="text_4">
      <!-- 3 -->
      <g transform="translate(21.7 82.733046) scale(0.1 -0.1)">
       <defs>
        <path id="DejaVuSans-33" d="M 2597 2516 
Q 3050 2419 3304 2112 
Q 3559 1806 3559 1356 
Q 3559 666 3084 287 
Q 2609 -91 1734 -91 
Q 1441 -91 1130 -33 
Q 819 25 488 141 
L 488 750 
Q 750 597 1062 519 
Q 1375 441 1716 441 
Q 2309 441 2620 675 
Q 2931 909 2931 1356 
Q 2931 1769 2642 2001 
Q 2353 2234 1838 2234 
L 1294 2234 
L 1294 2753 
L 1863 2753 
Q 2328 2753 2575 2939 
Q 2822 3125 2822 3475 
Q 2822 3834 2567 4026 
Q 2313 4219 1838 4219 
Q 1578 4219 1281 4162 
Q 984 4106 628 3988 
L 628 4550 
Q 988 4650 1302 4700 
Q 1616 4750 1894 4750 
Q 2613 4750 3031 4423 
Q 3450 4097 3450 3541 
Q 3450 3153 3228 2886 
Q 3006 2619 2597 2516 
z
" transform="scale(0.015625)"/>
       </defs>
       <use xlink:href="#DejaVuSans-33"/>
      </g>
     </g>
    </g>
    <g id="ytick_5">
     <g id="line2d_25">
      <path d="M 35.0625 57.859141 
L 341.9605 57.859141 
" clip-path="url(#p24014f4776)" style="fill: none; stroke: #b0b0b0; stroke-opacity: 0.3; stroke-width: 0.8; stroke-linecap: square"/>
     </g>
     <g id="line2d_26">
      <g>
       <use xlink:href="#m90a90175f5" x="35.0625" y="57.859141" style="stroke: #000000; stroke-width: 0.8"/>
      </g>
     </g>
     <g id="text_5">
      <!-- 4 -->
      <g transform="translate(21.7 61.65836) scale(0.1 -0.1)">
       <defs>
        <path id="DejaVuSans-34" d="M 2419 4116 
L 825 1625 
L 2419 1625 
L 2419 4116 
z
M 2253 4666 
L 3047 4666 
L 3047 1625 
L 3713 1625 
L 3713 1100 
L 3047 1100 
L 3047 0 
L 2419 0 
L 2419 1100 
L 313 1100 
L 313 1709 
L 2253 4666 
z
" transform="scale(0.015625)"/>
       </defs>
       <use xlink:href="#DejaVuSans-34"/>
      </g>
     </g>
    </g>
    <g id="ytick_6">
     <g id="line2d_27">
      <path d="M 35.0625 36.784455 
L 341.9605 36.784455 
" clip-path="url(#p24014f4776)" style="fill: none; stroke: #b0b0b0; stroke-opacity: 0.3; stroke-width: 0.8; stroke-linecap: square"/>
     </g>
     <g id="line2d_28">
      <g>
       <use xlink:href="#m90a90175f5" x="35.0625" y="36.784455" style="stroke: #000000; stroke-width: 0.8"/>
      </g>
     </g>
     <g id="text_6">
      <!-- 5 -->
      <g transform="translate(21.7 40.583674) scale(0.1 -0.1)">
       <defs>
        <path id="DejaVuSans-35" d="M 691 4666 
L 3169 4666 
L 3169 4134 
L 1269 4134 
L 1269 2991 
Q 1406 3038 1543 3061 
Q 1681 3084 1819 3084 
Q 2600 3084 3056 2656 
Q 3513 2228 3513 1497 
Q 3513 744 3044 326 
Q 2575 -91 1722 -91 
Q 1428 -91 1123 -41 
Q 819 9 494 109 
L 494 744 
Q 775 591 1075 516 
Q 1375 441 1709 441 
Q 2250 441 2565 725 
Q 2881 1009 2881 1497 
Q 2881 1984 2565 2268 
Q 2250 2553 1709 2553 
Q 1456 2553 1204 2497 
Q 953 2441 691 2322 
L 691 4666 
z
" transform="scale(0.015625)"/>
       </defs>
       <use xlink:href="#DejaVuSans-35"/>
      </g>
     </g>
    </g>
    <g id="text_7">
     <!-- $\alpha$ (m$^2$/s) -->
     <g transform="translate(15.620313 105.118125) rotate(-90) scale(0.1 -0.1)">
      <defs>
       <path id="DejaVuSans-Oblique-3b1" d="M 2619 1628 
L 2622 2350 
Q 2625 3088 2069 3091 
Q 1653 3094 1394 2747 
Q 1069 2319 959 1747 
Q 825 1059 994 731 
Q 1169 397 1547 397 
Q 1966 397 2319 1063 
L 2619 1628 
z
M 2166 3578 
Q 3141 3594 3128 2584 
Q 3128 2584 3616 3500 
L 4128 3500 
L 3119 1603 
L 3109 919 
Q 3109 766 3194 638 
Q 3291 488 3391 488 
L 3669 488 
L 3575 0 
L 3228 0 
Q 2934 0 2722 263 
Q 2622 394 2619 669 
Q 2416 334 2066 50 
Q 1900 -81 1453 -78 
Q 722 -72 456 397 
Q 184 884 353 1747 
Q 534 2675 1009 3097 
Q 1544 3569 2166 3578 
z
" transform="scale(0.015625)"/>
       <path id="DejaVuSans-20" transform="scale(0.015625)"/>
       <path id="DejaVuSans-28" d="M 1984 4856 
Q 1566 4138 1362 3434 
Q 1159 2731 1159 2009 
Q 1159 1288 1364 580 
Q 1569 -128 1984 -844 
L 1484 -844 
Q 1016 -109 783 600 
Q 550 1309 550 2009 
Q 550 2706 781 3412 
Q 1013 4119 1484 4856 
L 1984 4856 
z
" transform="scale(0.015625)"/>
       <path id="DejaVuSans-6d" d="M 3328 2828 
Q 3544 3216 3844 3400 
Q 4144 3584 4550 3584 
Q 5097 3584 5394 3201 
Q 5691 2819 5691 2113 
L 5691 0 
L 5113 0 
L 5113 2094 
Q 5113 2597 4934 2840 
Q 4756 3084 4391 3084 
Q 3944 3084 3684 2787 
Q 3425 2491 3425 1978 
L 3425 0 
L 2847 0 
L 2847 2094 
Q 2847 2600 2669 2842 
Q 2491 3084 2119 3084 
Q 1678 3084 1418 2786 
Q 1159 2488 1159 1978 
L 1159 0 
L 581 0 
L 581 3500 
L 1159 3500 
L 1159 2956 
Q 1356 3278 1631 3431 
Q 1906 3584 2284 3584 
Q 2666 3584 2933 3390 
Q 3200 3197 3328 2828 
z
" transform="scale(0.015625)"/>
       <path id="DejaVuSans-2f" d="M 1625 4666 
L 2156 4666 
L 531 -594 
L 0 -594 
L 1625 4666 
z
" transform="scale(0.015625)"/>
       <path id="DejaVuSans-73" d="M 2834 3397 
L 2834 2853 
Q 2591 2978 2328 3040 
Q 2066 3103 1784 3103 
Q 1356 3103 1142 2972 
Q 928 2841 928 2578 
Q 928 2378 1081 2264 
Q 1234 2150 1697 2047 
L 1894 2003 
Q 2506 1872 2764 1633 
Q 3022 1394 3022 966 
Q 3022 478 2636 193 
Q 2250 -91 1575 -91 
Q 1294 -91 989 -36 
Q 684 19 347 128 
L 347 722 
Q 666 556 975 473 
Q 1284 391 1588 391 
Q 1994 391 2212 530 
Q 2431 669 2431 922 
Q 2431 1156 2273 1281 
Q 2116 1406 1581 1522 
L 1381 1569 
Q 847 1681 609 1914 
Q 372 2147 372 2553 
Q 372 3047 722 3315 
Q 1072 3584 1716 3584 
Q 2034 3584 2315 3537 
Q 2597 3491 2834 3397 
z
" transform="scale(0.015625)"/>
       <path id="DejaVuSans-29" d="M 513 4856 
L 1013 4856 
Q 1481 4119 1714 3412 
Q 1947 2706 1947 2009 
Q 1947 1309 1714 600 
Q 1481 -109 1013 -844 
L 513 -844 
Q 928 -128 1133 580 
Q 1338 1288 1338 2009 
Q 1338 2731 1133 3434 
Q 928 4138 513 4856 
z
" transform="scale(0.015625)"/>
      </defs>
      <use xlink:href="#DejaVuSans-Oblique-3b1" transform="translate(0 0.765625)"/>
      <use xlink:href="#DejaVuSans-20" transform="translate(65.917969 0.765625)"/>
      <use xlink:href="#DejaVuSans-28" transform="translate(97.705078 0.765625)"/>
      <use xlink:href="#DejaVuSans-6d" transform="translate(136.71875 0.765625)"/>
      <use xlink:href="#DejaVuSans-32" transform="translate(235.087891 39.046875) scale(0.7)"/>
      <use xlink:href="#DejaVuSans-2f" transform="translate(282.358398 0.765625)"/>
      <use xlink:href="#DejaVuSans-73" transform="translate(316.049805 0.765625)"/>
      <use xlink:href="#DejaVuSans-29" transform="translate(368.149414 0.765625)"/>
     </g>
    </g>
    <g id="text_8">
     <!-- 1e−5 -->
     <g transform="translate(35.0625 19.318125) scale(0.1 -0.1)">
      <defs>
       <path id="DejaVuSans-65" d="M 3597 1894 
L 3597 1613 
L 953 1613 
Q 991 1019 1311 708 
Q 1631 397 2203 397 
Q 2534 397 2845 478 
Q 3156 559 3463 722 
L 3463 178 
Q 3153 47 2828 -22 
Q 2503 -91 2169 -91 
Q 1331 -91 842 396 
Q 353 884 353 1716 
Q 353 2575 817 3079 
Q 1281 3584 2069 3584 
Q 2775 3584 3186 3129 
Q 3597 2675 3597 1894 
z
M 3022 2063 
Q 3016 2534 2758 2815 
Q 2500 3097 2075 3097 
Q 1594 3097 1305 2825 
Q 1016 2553 972 2059 
L 3022 2063 
z
" transform="scale(0.015625)"/>
       <path id="DejaVuSans-2212" d="M 678 2272 
L 4684 2272 
L 4684 1741 
L 678 1741 
L 678 2272 
z
" transform="scale(0.015625)"/>
      </defs>
      <use xlink:href="#DejaVuSans-31"/>
      <use xlink:href="#DejaVuSans-65" transform="translate(63.623047 0)"/>
      <use xlink:href="#DejaVuSans-2212" transform="translate(125.146484 0)"/>
      <use xlink:href="#DejaVuSans-35" transform="translate(208.935547 0)"/>
     </g>
    </g>
   </g>
   <g id="line2d_29">
    <path d="M 49.012409 116.638094 
L 54.620413 118.730771 
L 60.228416 120.555702 
L 65.83642 122.157541 
L 72.846425 123.900069 
L 79.856429 125.40506 
L 88.268435 126.957656 
L 96.68044 128.287483 
L 106.494447 129.615054 
L 117.710454 130.899585 
L 130.328462 132.11459 
L 144.348471 133.245101 
L 161.172482 134.370021 
L 180.800495 135.442542 
L 203.23251 136.433758 
L 229.870527 137.373235 
L 260.714547 138.229328 
L 298.568572 139.042731 
L 328.010591 139.547529 
L 328.010591 139.547529 
" clip-path="url(#p24014f4776)" style="fill: none; stroke: #000000; stroke-width: 1.5; stroke-linecap: square"/>
   </g>
   <g id="line2d_30">
    <path d="M 49.012409 116.143011 
L 54.620413 118.243324 
L 60.228416 120.095524 
L 65.83642 121.737474 
L 72.846425 123.540744 
L 79.856429 125.111903 
L 88.268435 126.744495 
L 96.68044 128.15003 
L 106.494447 129.556386 
L 117.710454 130.915513 
L 130.328462 132.193849 
L 144.348471 133.370894 
L 159.770481 134.436803 
L 177.996493 135.460909 
L 199.026507 136.405087 
L 222.860522 137.249435 
L 252.302542 138.055519 
L 287.352564 138.777643 
L 328.010591 139.396995 
L 328.010591 139.396995 
" clip-path="url(#p24014f4776)" style="fill: none; stroke: #1f77b4; stroke-width: 1.5; stroke-linecap: square"/>
   </g>
   <g id="patch_3">
    <path d="M 35.0625 147.118125 
L 35.0625 22.318125 
" style="fill: none; stroke: #000000; stroke-width: 0.8; stroke-linejoin: miter; stroke-linecap: square"/>
   </g>
   <g id="patch_4">
    <path d="M 341.9605 147.118125 
L 341.9605 22.318125 
" style="fill: none; stroke: #000000; stroke-width: 0.8; stroke-linejoin: miter; stroke-linecap: square"/>
   </g>
   <g id="patch_5">
    <path d="M 35.0625 147.118125 
L 341.9605 147.118125 
" style="fill: none; stroke: #000000; stroke-width: 0.8; stroke-linejoin: miter; stroke-linecap: square"/>
   </g>
   <g id="patch_6">
    <path d="M 35.0625 22.318125 
L 341.9605 22.318125 
" style="fill: none; stroke: #000000; stroke-width: 0.8; stroke-linejoin: miter; stroke-linecap: square"/>
   </g>
   <g id="text_9">
    <!-- powerlaw -->
    <g transform="translate(159.71525 16.318125) scale(0.12 -0.12)">
     <defs>
      <path id="DejaVuSans-70" d="M 1159 525 
L 1159 -1331 
L 581 -1331 
L 581 3500 
L 1159 3500 
L 1159 2969 
Q 1341 3281 1617 3432 
Q 1894 3584 2278 3584 
Q 2916 3584 3314 3078 
Q 3713 2572 3713 1747 
Q 3713 922 3314 415 
Q 2916 -91 2278 -91 
Q 1894 -91 1617 61 
Q 1341 213 1159 525 
z
M 3116 1747 
Q 3116 2381 2855 2742 
Q 2594 3103 2138 3103 
Q 1681 3103 1420 2742 
Q 1159 2381 1159 1747 
Q 1159 1113 1420 752 
Q 1681 391 2138 391 
Q 2594 391 2855 752 
Q 3116 1113 3116 1747 
z
" transform="scale(0.015625)"/>
      <path id="DejaVuSans-6f" d="M 1959 3097 
Q 1497 3097 1228 2736 
Q 959 2375 959 1747 
Q 959 1119 1226 758 
Q 1494 397 1959 397 
Q 2419 397 2687 759 
Q 2956 1122 2956 1747 
Q 2956 2369 2687 2733 
Q 2419 3097 1959 3097 
z
M 1959 3584 
Q 2709 3584 3137 3096 
Q 3566 2609 3566 1747 
Q 3566 888 3137 398 
Q 2709 -91 1959 -91 
Q 1206 -91 779 398 
Q 353 888 353 1747 
Q 353 2609 779 3096 
Q 1206 3584 1959 3584 
z
" transform="scale(0.015625)"/>
      <path id="DejaVuSans-77" d="M 269 3500 
L 844 3500 
L 1563 769 
L 2278 3500 
L 2956 3500 
L 3675 769 
L 4391 3500 
L 4966 3500 
L 4050 0 
L 3372 0 
L 2619 2869 
L 1863 0 
L 1184 0 
L 269 3500 
z
" transform="scale(0.015625)"/>
      <path id="DejaVuSans-72" d="M 2631 2963 
Q 2534 3019 2420 3045 
Q 2306 3072 2169 3072 
Q 1681 3072 1420 2755 
Q 1159 2438 1159 1844 
L 1159 0 
L 581 0 
L 581 3500 
L 1159 3500 
L 1159 2956 
Q 1341 3275 1631 3429 
Q 1922 3584 2338 3584 
Q 2397 3584 2469 3576 
Q 2541 3569 2628 3553 
L 2631 2963 
z
" transform="scale(0.015625)"/>
      <path id="DejaVuSans-6c" d="M 603 4863 
L 1178 4863 
L 1178 0 
L 603 0 
L 603 4863 
z
" transform="scale(0.015625)"/>
      <path id="DejaVuSans-61" d="M 2194 1759 
Q 1497 1759 1228 1600 
Q 959 1441 959 1056 
Q 959 750 1161 570 
Q 1363 391 1709 391 
Q 2188 391 2477 730 
Q 2766 1069 2766 1631 
L 2766 1759 
L 2194 1759 
z
M 3341 1997 
L 3341 0 
L 2766 0 
L 2766 531 
Q 2569 213 2275 61 
Q 1981 -91 1556 -91 
Q 1019 -91 701 211 
Q 384 513 384 1019 
Q 384 1609 779 1909 
Q 1175 2209 1959 2209 
L 2766 2209 
L 2766 2266 
Q 2766 2663 2505 2880 
Q 2244 3097 1772 3097 
Q 1472 3097 1187 3025 
Q 903 2953 641 2809 
L 641 3341 
Q 956 3463 1253 3523 
Q 1550 3584 1831 3584 
Q 2591 3584 2966 3190 
Q 3341 2797 3341 1997 
z
" transform="scale(0.015625)"/>
     </defs>
     <use xlink:href="#DejaVuSans-70"/>
     <use xlink:href="#DejaVuSans-6f" transform="translate(63.476562 0)"/>
     <use xlink:href="#DejaVuSans-77" transform="translate(124.658203 0)"/>
     <use xlink:href="#DejaVuSans-65" transform="translate(206.445312 0)"/>
     <use xlink:href="#DejaVuSans-72" transform="translate(267.96875 0)"/>
     <use xlink:href="#DejaVuSans-6c" transform="translate(309.082031 0)"/>
     <use xlink:href="#DejaVuSans-61" transform="translate(336.865234 0)"/>
     <use xlink:href="#DejaVuSans-77" transform="translate(398.144531 0)"/>
    </g>
   </g>
   <g id="legend_1">
    <g id="patch_7">
     <path d="M 245.196438 69.149063 
L 335.6605 69.149063 
Q 337.4605 69.149063 337.4605 67.349063 
L 337.4605 28.618125 
Q 337.4605 26.818125 335.6605 26.818125 
L 245.196438 26.818125 
Q 243.396437 26.818125 243.396437 28.618125 
L 243.396437 67.349063 
Q 243.396437 69.149063 245.196438 69.149063 
z
" style="fill: #ffffff; opacity: 0.8; stroke: #cccccc; stroke-linejoin: miter"/>
    </g>
    <g id="line2d_31">
     <path d="M 246.996437 34.106719 
L 255.996437 34.106719 
L 264.996437 34.106719 
" style="fill: none; stroke: #000000; stroke-width: 1.5; stroke-linecap: square"/>
    </g>
    <g id="text_10">
     <!-- Ulamec alpha -->
     <g transform="translate(272.196438 37.256719) scale(0.09 -0.09)">
      <defs>
       <path id="DejaVuSans-55" d="M 556 4666 
L 1191 4666 
L 1191 1831 
Q 1191 1081 1462 751 
Q 1734 422 2344 422 
Q 2950 422 3222 751 
Q 3494 1081 3494 1831 
L 3494 4666 
L 4128 4666 
L 4128 1753 
Q 4128 841 3676 375 
Q 3225 -91 2344 -91 
Q 1459 -91 1007 375 
Q 556 841 556 1753 
L 556 4666 
z
" transform="scale(0.015625)"/>
       <path id="DejaVuSans-63" d="M 3122 3366 
L 3122 2828 
Q 2878 2963 2633 3030 
Q 2388 3097 2138 3097 
Q 1578 3097 1268 2742 
Q 959 2388 959 1747 
Q 959 1106 1268 751 
Q 1578 397 2138 397 
Q 2388 397 2633 464 
Q 2878 531 3122 666 
L 3122 134 
Q 2881 22 2623 -34 
Q 2366 -91 2075 -91 
Q 1284 -91 818 406 
Q 353 903 353 1747 
Q 353 2603 823 3093 
Q 1294 3584 2113 3584 
Q 2378 3584 2631 3529 
Q 2884 3475 3122 3366 
z
" transform="scale(0.015625)"/>
       <path id="DejaVuSans-68" d="M 3513 2113 
L 3513 0 
L 2938 0 
L 2938 2094 
Q 2938 2591 2744 2837 
Q 2550 3084 2163 3084 
Q 1697 3084 1428 2787 
Q 1159 2491 1159 1978 
L 1159 0 
L 581 0 
L 581 4863 
L 1159 4863 
L 1159 2956 
Q 1366 3272 1645 3428 
Q 1925 3584 2291 3584 
Q 2894 3584 3203 3211 
Q 3513 2838 3513 2113 
z
" transform="scale(0.015625)"/>
      </defs>
      <use xlink:href="#DejaVuSans-55"/>
      <use xlink:href="#DejaVuSans-6c" transform="translate(73.193359 0)"/>
      <use xlink:href="#DejaVuSans-61" transform="translate(100.976562 0)"/>
      <use xlink:href="#DejaVuSans-6d" transform="translate(162.255859 0)"/>
      <use xlink:href="#DejaVuSans-65" transform="translate(259.667969 0)"/>
      <use xlink:href="#DejaVuSans-63" transform="translate(321.191406 0)"/>
      <use xlink:href="#DejaVuSans-20" transform="translate(376.171875 0)"/>
      <use xlink:href="#DejaVuSans-61" transform="translate(407.958984 0)"/>
      <use xlink:href="#DejaVuSans-6c" transform="translate(469.238281 0)"/>
      <use xlink:href="#DejaVuSans-70" transform="translate(497.021484 0)"/>
      <use xlink:href="#DejaVuSans-68" transform="translate(560.498047 0)"/>
      <use xlink:href="#DejaVuSans-61" transform="translate(623.876953 0)"/>
     </g>
    </g>
    <g id="line2d_32">
     <path d="M 246.996437 47.317031 
L 255.996437 47.317031 
L 264.996437 47.317031 
" style="fill: none; stroke: #1f77b4; stroke-width: 1.5; stroke-linecap: square"/>
    </g>
    <g id="text_11">
     <!-- Fit -->
     <g transform="translate(272.196438 50.467031) scale(0.09 -0.09)">
      <defs>
       <path id="DejaVuSans-46" d="M 628 4666 
L 3309 4666 
L 3309 4134 
L 1259 4134 
L 1259 2759 
L 3109 2759 
L 3109 2228 
L 1259 2228 
L 1259 0 
L 628 0 
L 628 4666 
z
" transform="scale(0.015625)"/>
       <path id="DejaVuSans-69" d="M 603 3500 
L 1178 3500 
L 1178 0 
L 603 0 
L 603 3500 
z
M 603 4863 
L 1178 4863 
L 1178 4134 
L 603 4134 
L 603 4863 
z
" transform="scale(0.015625)"/>
       <path id="DejaVuSans-74" d="M 1172 4494 
L 1172 3500 
L 2356 3500 
L 2356 3053 
L 1172 3053 
L 1172 1153 
Q 1172 725 1289 603 
Q 1406 481 1766 481 
L 2356 481 
L 2356 0 
L 1766 0 
Q 1100 0 847 248 
Q 594 497 594 1153 
L 594 3053 
L 172 3053 
L 172 3500 
L 594 3500 
L 594 4494 
L 1172 4494 
z
" transform="scale(0.015625)"/>
      </defs>
      <use xlink:href="#DejaVuSans-46"/>
      <use xlink:href="#DejaVuSans-69" transform="translate(50.269531 0)"/>
      <use xlink:href="#DejaVuSans-74" transform="translate(78.052734 0)"/>
     </g>
    </g>
    <g id="patch_8">
     <path d="M 246.996437 63.677344 
L 264.996437 63.677344 
L 264.996437 57.377344 
L 246.996437 57.377344 
z
" style="fill: #1f77b4; fill-opacity: 0.2; stroke: #1f77b4; stroke-opacity: 0.2; stroke-linejoin: miter"/>
    </g>
    <g id="text_12">
     <!-- Bounds -->
     <g transform="translate(272.196438 63.677344) scale(0.09 -0.09)">
      <defs>
       <path id="DejaVuSans-42" d="M 1259 2228 
L 1259 519 
L 2272 519 
Q 2781 519 3026 730 
Q 3272 941 3272 1375 
Q 3272 1813 3026 2020 
Q 2781 2228 2272 2228 
L 1259 2228 
z
M 1259 4147 
L 1259 2741 
L 2194 2741 
Q 2656 2741 2882 2914 
Q 3109 3088 3109 3444 
Q 3109 3797 2882 3972 
Q 2656 4147 2194 4147 
L 1259 4147 
z
M 628 4666 
L 2241 4666 
Q 2963 4666 3353 4366 
Q 3744 4066 3744 3513 
Q 3744 3084 3544 2831 
Q 3344 2578 2956 2516 
Q 3422 2416 3680 2098 
Q 3938 1781 3938 1306 
Q 3938 681 3513 340 
Q 3088 0 2303 0 
L 628 0 
L 628 4666 
z
" transform="scale(0.015625)"/>
       <path id="DejaVuSans-75" d="M 544 1381 
L 544 3500 
L 1119 3500 
L 1119 1403 
Q 1119 906 1312 657 
Q 1506 409 1894 409 
Q 2359 409 2629 706 
Q 2900 1003 2900 1516 
L 2900 3500 
L 3475 3500 
L 3475 0 
L 2900 0 
L 2900 538 
Q 2691 219 2414 64 
Q 2138 -91 1772 -91 
Q 1169 -91 856 284 
Q 544 659 544 1381 
z
M 1991 3584 
L 1991 3584 
z
" transform="scale(0.015625)"/>
       <path id="DejaVuSans-6e" d="M 3513 2113 
L 3513 0 
L 2938 0 
L 2938 2094 
Q 2938 2591 2744 2837 
Q 2550 3084 2163 3084 
Q 1697 3084 1428 2787 
Q 1159 2491 1159 1978 
L 1159 0 
L 581 0 
L 581 3500 
L 1159 3500 
L 1159 2956 
Q 1366 3272 1645 3428 
Q 1925 3584 2291 3584 
Q 2894 3584 3203 3211 
Q 3513 2838 3513 2113 
z
" transform="scale(0.015625)"/>
       <path id="DejaVuSans-64" d="M 2906 2969 
L 2906 4863 
L 3481 4863 
L 3481 0 
L 2906 0 
L 2906 525 
Q 2725 213 2448 61 
Q 2172 -91 1784 -91 
Q 1150 -91 751 415 
Q 353 922 353 1747 
Q 353 2572 751 3078 
Q 1150 3584 1784 3584 
Q 2172 3584 2448 3432 
Q 2725 3281 2906 2969 
z
M 947 1747 
Q 947 1113 1208 752 
Q 1469 391 1925 391 
Q 2381 391 2643 752 
Q 2906 1113 2906 1747 
Q 2906 2381 2643 2742 
Q 2381 3103 1925 3103 
Q 1469 3103 1208 2742 
Q 947 2381 947 1747 
z
" transform="scale(0.015625)"/>
      </defs>
      <use xlink:href="#DejaVuSans-42"/>
      <use xlink:href="#DejaVuSans-6f" transform="translate(68.603516 0)"/>
      <use xlink:href="#DejaVuSans-75" transform="translate(129.785156 0)"/>
      <use xlink:href="#DejaVuSans-6e" transform="translate(193.164062 0)"/>
      <use xlink:href="#DejaVuSans-64" transform="translate(256.542969 0)"/>
      <use xlink:href="#DejaVuSans-73" transform="translate(320.019531 0)"/>
     </g>
    </g>
   </g>
  </g>
  <g id="axes_2">
   <g id="patch_9">
    <path d="M 35.0625 302.298125 
L 341.9605 302.298125 
L 341.9605 177.498125 
L 35.0625 177.498125 
L 35.0625 302.298125 
z
" style="fill: none"/>
   </g>
   <g id="FillBetweenPolyCollection_2">
    <defs>
     <path id="m7b2070d239" d="M 49.012409 -311.863523 
L 49.012409 -203.985435 
L 50.41441 -203.92365 
L 51.816411 -203.862464 
L 53.218412 -203.801871 
L 54.620413 -203.741866 
L 56.022414 -203.682444 
L 57.424415 -203.623597 
L 58.826415 -203.565322 
L 60.228416 -203.507612 
L 61.630417 -203.450461 
L 63.032418 -203.393865 
L 64.434419 -203.337818 
L 65.83642 -203.282315 
L 67.238421 -203.22735 
L 68.640422 -203.172918 
L 70.042423 -203.119014 
L 71.444424 -203.065633 
L 72.846425 -203.01277 
L 74.248426 -202.96042 
L 75.650426 -202.908578 
L 77.052427 -202.857238 
L 78.454428 -202.806396 
L 79.856429 -202.756048 
L 81.25843 -202.706188 
L 82.660431 -202.656812 
L 84.062432 -202.607914 
L 85.464433 -202.559491 
L 86.866434 -202.511538 
L 88.268435 -202.46405 
L 89.670436 -202.417022 
L 91.072437 -202.370451 
L 92.474437 -202.324331 
L 93.876438 -202.278659 
L 95.278439 -202.23343 
L 96.68044 -202.188639 
L 98.082441 -202.144283 
L 99.484442 -202.100358 
L 100.886443 -202.056858 
L 102.288444 -202.01378 
L 103.690445 -201.971121 
L 105.092446 -201.928875 
L 106.494447 -201.887039 
L 107.896447 -201.845608 
L 109.298448 -201.80458 
L 110.700449 -201.763949 
L 112.10245 -201.723713 
L 113.504451 -201.683867 
L 114.906452 -201.644407 
L 116.308453 -201.605331 
L 117.710454 -201.566633 
L 119.112455 -201.528311 
L 120.514456 -201.49036 
L 121.916457 -201.452778 
L 123.318458 -201.41556 
L 124.720458 -201.378703 
L 126.122459 -201.342203 
L 127.52446 -201.306058 
L 128.926461 -201.270263 
L 130.328462 -201.234816 
L 131.730463 -201.199712 
L 133.132464 -201.164949 
L 134.534465 -201.130523 
L 135.936466 -201.096432 
L 137.338467 -201.06267 
L 138.740468 -201.029237 
L 140.142468 -200.996127 
L 141.544469 -200.963339 
L 142.94647 -200.930869 
L 144.348471 -200.898713 
L 145.750472 -200.86687 
L 147.152473 -200.835336 
L 148.554474 -200.804107 
L 149.956475 -200.773182 
L 151.358476 -200.742556 
L 152.760477 -200.712228 
L 154.162478 -200.682193 
L 155.564479 -200.65245 
L 156.966479 -200.622996 
L 158.36848 -200.593827 
L 159.770481 -200.564941 
L 161.172482 -200.536336 
L 162.574483 -200.508007 
L 163.976484 -200.479954 
L 165.378485 -200.452173 
L 166.780486 -200.424661 
L 168.182487 -200.397416 
L 169.584488 -200.370436 
L 170.986489 -200.343717 
L 172.388489 -200.317257 
L 173.79049 -200.291054 
L 175.192491 -200.265105 
L 176.594492 -200.239408 
L 177.996493 -200.21396 
L 179.398494 -200.188759 
L 180.800495 -200.163803 
L 182.202496 -200.139088 
L 183.604497 -200.114614 
L 185.006498 -200.090376 
L 186.408499 -200.066374 
L 187.8105 -200.042605 
L 189.2125 -200.019066 
L 190.614501 -199.995755 
L 192.016502 -199.972671 
L 193.418503 -199.949811 
L 194.820504 -199.927172 
L 196.222505 -199.904753 
L 197.624506 -199.882551 
L 199.026507 -199.860565 
L 200.428508 -199.838792 
L 201.830509 -199.81723 
L 203.23251 -199.795878 
L 204.634511 -199.774732 
L 206.036511 -199.753792 
L 207.438512 -199.733055 
L 208.840513 -199.712519 
L 210.242514 -199.692182 
L 211.644515 -199.672042 
L 213.046516 -199.652098 
L 214.448517 -199.632347 
L 215.850518 -199.612788 
L 217.252519 -199.593419 
L 218.65452 -199.574237 
L 220.056521 -199.555242 
L 221.458521 -199.53643 
L 222.860522 -199.517802 
L 224.262523 -199.499354 
L 225.664524 -199.481084 
L 227.066525 -199.462993 
L 228.468526 -199.445076 
L 229.870527 -199.427334 
L 231.272528 -199.409763 
L 232.674529 -199.392363 
L 234.07653 -199.375132 
L 235.478531 -199.35681 
L 236.880532 -199.336194 
L 238.282532 -199.315821 
L 239.684533 -199.29569 
L 241.086534 -199.275797 
L 242.488535 -199.25614 
L 243.890536 -199.236716 
L 245.292537 -199.217521 
L 246.694538 -199.198554 
L 248.096539 -199.179812 
L 249.49854 -199.161292 
L 250.900541 -199.142991 
L 252.302542 -199.124906 
L 253.704542 -199.107036 
L 255.106543 -199.089378 
L 256.508544 -199.071928 
L 257.910545 -199.054685 
L 259.312546 -199.037647 
L 260.714547 -199.02081 
L 262.116548 -199.004173 
L 263.518549 -198.987733 
L 264.92055 -198.971487 
L 266.322551 -198.955434 
L 267.724552 -198.939571 
L 269.126553 -198.923895 
L 270.528553 -198.908406 
L 271.930554 -198.8931 
L 273.332555 -198.877975 
L 274.734556 -198.863029 
L 276.136557 -198.848261 
L 277.538558 -198.833667 
L 278.940559 -198.819246 
L 280.34256 -198.804996 
L 281.744561 -198.790914 
L 283.146562 -198.776999 
L 284.548563 -198.76325 
L 285.950563 -198.749663 
L 287.352564 -198.736237 
L 288.754565 -198.722969 
L 290.156566 -198.709859 
L 291.558567 -198.696905 
L 292.960568 -198.684103 
L 294.362569 -198.671454 
L 295.76457 -198.658954 
L 297.166571 -198.646602 
L 298.568572 -198.634397 
L 299.970573 -198.622336 
L 301.372574 -198.610417 
L 302.774574 -198.59864 
L 304.176575 -198.587003 
L 305.578576 -198.575503 
L 306.980577 -198.56414 
L 308.382578 -198.552911 
L 309.784579 -198.541815 
L 311.18658 -198.53085 
L 312.588581 -198.520016 
L 313.990582 -198.509309 
L 315.392583 -198.49873 
L 316.794584 -198.488275 
L 318.196585 -198.477945 
L 319.598585 -198.467737 
L 321.000586 -198.457649 
L 322.402587 -198.447682 
L 323.804588 -198.437832 
L 325.206589 -198.428099 
L 326.60859 -198.418481 
L 328.010591 -198.408977 
L 328.010591 -209.935824 
L 328.010591 -209.935824 
L 326.60859 -210.056501 
L 325.206589 -210.17836 
L 323.804588 -210.301412 
L 322.402587 -210.425669 
L 321.000586 -210.551144 
L 319.598585 -210.677848 
L 318.196585 -210.805793 
L 316.794584 -210.934991 
L 315.392583 -211.065455 
L 313.990582 -211.197196 
L 312.588581 -211.330228 
L 311.18658 -211.464564 
L 309.784579 -211.600215 
L 308.382578 -211.737194 
L 306.980577 -211.875516 
L 305.578576 -212.015192 
L 304.176575 -212.156237 
L 302.774574 -212.298663 
L 301.372574 -212.442485 
L 299.970573 -212.587715 
L 298.568572 -212.734367 
L 297.166571 -212.882456 
L 295.76457 -213.031996 
L 294.362569 -213.183001 
L 292.960568 -213.335484 
L 291.558567 -213.489462 
L 290.156566 -213.644947 
L 288.754565 -213.801956 
L 287.352564 -213.960502 
L 285.950563 -214.120602 
L 284.548563 -214.28227 
L 283.146562 -214.445521 
L 281.744561 -214.610371 
L 280.34256 -214.776837 
L 278.940559 -214.944932 
L 277.538558 -215.114675 
L 276.136557 -215.28608 
L 274.734556 -215.459164 
L 273.332555 -215.633943 
L 271.930554 -215.810434 
L 270.528553 -215.988655 
L 269.126553 -216.168621 
L 267.724552 -216.350349 
L 266.322551 -216.533858 
L 264.92055 -216.719164 
L 263.518549 -216.906286 
L 262.116548 -217.09524 
L 260.714547 -217.286046 
L 259.312546 -217.47872 
L 257.910545 -217.673282 
L 256.508544 -217.869749 
L 255.106543 -218.068141 
L 253.704542 -218.268476 
L 252.302542 -218.470773 
L 250.900541 -218.675052 
L 249.49854 -218.881332 
L 248.096539 -219.089633 
L 246.694538 -219.299974 
L 245.292537 -219.512375 
L 243.890536 -219.726857 
L 242.488535 -219.94344 
L 241.086534 -220.162144 
L 239.684533 -220.382991 
L 238.282532 -220.606001 
L 236.880532 -220.831195 
L 235.478531 -221.058595 
L 234.07653 -221.322432 
L 232.674529 -221.606555 
L 231.272528 -221.894083 
L 229.870527 -222.185057 
L 228.468526 -222.479518 
L 227.066525 -222.777509 
L 225.664524 -223.07907 
L 224.262523 -223.384247 
L 222.860522 -223.69308 
L 221.458521 -224.005615 
L 220.056521 -224.321896 
L 218.65452 -224.641967 
L 217.252519 -224.965875 
L 215.850518 -225.293665 
L 214.448517 -225.625383 
L 213.046516 -225.961076 
L 211.644515 -226.300793 
L 210.242514 -226.644582 
L 208.840513 -226.992491 
L 207.438512 -227.34457 
L 206.036511 -227.700868 
L 204.634511 -228.061436 
L 203.23251 -228.426326 
L 201.830509 -228.79559 
L 200.428508 -229.169279 
L 199.026507 -229.547446 
L 197.624506 -229.930146 
L 196.222505 -230.317433 
L 194.820504 -230.709361 
L 193.418503 -231.105986 
L 192.016502 -231.507365 
L 190.614501 -231.913555 
L 189.2125 -232.324613 
L 187.8105 -232.740597 
L 186.408499 -233.161567 
L 185.006498 -233.587582 
L 183.604497 -234.018703 
L 182.202496 -234.454991 
L 180.800495 -234.896509 
L 179.398494 -235.343317 
L 177.996493 -235.795481 
L 176.594492 -236.253064 
L 175.192491 -236.716131 
L 173.79049 -237.184748 
L 172.388489 -237.658981 
L 170.986489 -238.138898 
L 169.584488 -238.624567 
L 168.182487 -239.116056 
L 166.780486 -239.613436 
L 165.378485 -240.116778 
L 163.976484 -240.626152 
L 162.574483 -241.14163 
L 161.172482 -241.663287 
L 159.770481 -242.191196 
L 158.36848 -242.725432 
L 156.966479 -243.26607 
L 155.564479 -243.813188 
L 154.162478 -244.366864 
L 152.760477 -244.927175 
L 151.358476 -245.494202 
L 149.956475 -246.068024 
L 148.554474 -246.648724 
L 147.152473 -247.236384 
L 145.750472 -247.831086 
L 144.348471 -248.432916 
L 142.94647 -249.04196 
L 141.544469 -249.658302 
L 140.142468 -250.282031 
L 138.740468 -250.913236 
L 137.338467 -251.552006 
L 135.936466 -252.198432 
L 134.534465 -252.852605 
L 133.132464 -253.514618 
L 131.730463 -254.184566 
L 130.328462 -254.862543 
L 128.926461 -255.548645 
L 127.52446 -256.24297 
L 126.122459 -256.945617 
L 124.720458 -257.656686 
L 123.318458 -258.376276 
L 121.916457 -259.104491 
L 120.514456 -259.841433 
L 119.112455 -260.587208 
L 117.710454 -261.341921 
L 116.308453 -262.105679 
L 114.906452 -262.878591 
L 113.504451 -263.660766 
L 112.10245 -264.452316 
L 110.700449 -265.253352 
L 109.298448 -266.063989 
L 107.896447 -266.884341 
L 106.494447 -267.714526 
L 105.092446 -268.55466 
L 103.690445 -269.404863 
L 102.288444 -270.265256 
L 100.886443 -271.13596 
L 99.484442 -272.017101 
L 98.082441 -272.908801 
L 96.68044 -273.811189 
L 95.278439 -274.724392 
L 93.876438 -275.64854 
L 92.474437 -276.583763 
L 91.072437 -277.530196 
L 89.670436 -278.487971 
L 88.268435 -279.457225 
L 86.866434 -280.438096 
L 85.464433 -281.430723 
L 84.062432 -282.435246 
L 82.660431 -283.451809 
L 81.25843 -284.480555 
L 79.856429 -285.521631 
L 78.454428 -286.575184 
L 77.052427 -287.641364 
L 75.650426 -288.720322 
L 74.248426 -289.812212 
L 72.846425 -290.917188 
L 71.444424 -292.035407 
L 70.042423 -293.167028 
L 68.640422 -294.312211 
L 67.238421 -295.47112 
L 65.83642 -296.643918 
L 64.434419 -297.830772 
L 63.032418 -299.031851 
L 61.630417 -300.247325 
L 60.228416 -301.477366 
L 58.826415 -302.722149 
L 57.424415 -303.981851 
L 56.022414 -305.256651 
L 54.620413 -306.546729 
L 53.218412 -307.852269 
L 51.816411 -309.173456 
L 50.41441 -310.510477 
L 49.012409 -311.863523 
z
" style="stroke: #1f77b4; stroke-opacity: 0.2"/>
    </defs>
    <g clip-path="url(#p5e1ebad001)">
     <use xlink:href="#m7b2070d239" x="0" y="495.034375" style="fill: #1f77b4; fill-opacity: 0.2; stroke: #1f77b4; stroke-opacity: 0.2"/>
    </g>
   </g>
   <g id="matplotlib.axis_3">
    <g id="xtick_9">
     <g id="line2d_33">
      <path d="M 41.26246 302.298125 
L 41.26246 177.498125 
" clip-path="url(#p5e1ebad001)" style="fill: none; stroke: #b0b0b0; stroke-opacity: 0.3; stroke-width: 0.8; stroke-linecap: square"/>
     </g>
     <g id="line2d_34">
      <g>
       <use xlink:href="#m1600844508" x="41.26246" y="302.298125" style="stroke: #000000; stroke-width: 0.8"/>
      </g>
     </g>
    </g>
    <g id="xtick_10">
     <g id="line2d_35">
      <path d="M 80.012207 302.298125 
L 80.012207 177.498125 
" clip-path="url(#p5e1ebad001)" style="fill: none; stroke: #b0b0b0; stroke-opacity: 0.3; stroke-width: 0.8; stroke-linecap: square"/>
     </g>
     <g id="line2d_36">
      <g>
       <use xlink:href="#m1600844508" x="80.012207" y="302.298125" style="stroke: #000000; stroke-width: 0.8"/>
      </g>
     </g>
    </g>
    <g id="xtick_11">
     <g id="line2d_37">
      <path d="M 118.761955 302.298125 
L 118.761955 177.498125 
" clip-path="url(#p5e1ebad001)" style="fill: none; stroke: #b0b0b0; stroke-opacity: 0.3; stroke-width: 0.8; stroke-linecap: square"/>
     </g>
     <g id="line2d_38">
      <g>
       <use xlink:href="#m1600844508" x="118.761955" y="302.298125" style="stroke: #000000; stroke-width: 0.8"/>
      </g>
     </g>
    </g>
    <g id="xtick_12">
     <g id="line2d_39">
      <path d="M 157.511702 302.298125 
L 157.511702 177.498125 
" clip-path="url(#p5e1ebad001)" style="fill: none; stroke: #b0b0b0; stroke-opacity: 0.3; stroke-width: 0.8; stroke-linecap: square"/>
     </g>
     <g id="line2d_40">
      <g>
       <use xlink:href="#m1600844508" x="157.511702" y="302.298125" style="stroke: #000000; stroke-width: 0.8"/>
      </g>
     </g>
    </g>
    <g id="xtick_13">
     <g id="line2d_41">
      <path d="M 196.261449 302.298125 
L 196.261449 177.498125 
" clip-path="url(#p5e1ebad001)" style="fill: none; stroke: #b0b0b0; stroke-opacity: 0.3; stroke-width: 0.8; stroke-linecap: square"/>
     </g>
     <g id="line2d_42">
      <g>
       <use xlink:href="#m1600844508" x="196.261449" y="302.298125" style="stroke: #000000; stroke-width: 0.8"/>
      </g>
     </g>
    </g>
    <g id="xtick_14">
     <g id="line2d_43">
      <path d="M 235.011197 302.298125 
L 235.011197 177.498125 
" clip-path="url(#p5e1ebad001)" style="fill: none; stroke: #b0b0b0; stroke-opacity: 0.3; stroke-width: 0.8; stroke-linecap: square"/>
     </g>
     <g id="line2d_44">
      <g>
       <use xlink:href="#m1600844508" x="235.011197" y="302.298125" style="stroke: #000000; stroke-width: 0.8"/>
      </g>
     </g>
    </g>
    <g id="xtick_15">
     <g id="line2d_45">
      <path d="M 273.760944 302.298125 
L 273.760944 177.498125 
" clip-path="url(#p5e1ebad001)" style="fill: none; stroke: #b0b0b0; stroke-opacity: 0.3; stroke-width: 0.8; stroke-linecap: square"/>
     </g>
     <g id="line2d_46">
      <g>
       <use xlink:href="#m1600844508" x="273.760944" y="302.298125" style="stroke: #000000; stroke-width: 0.8"/>
      </g>
     </g>
    </g>
    <g id="xtick_16">
     <g id="line2d_47">
      <path d="M 312.510692 302.298125 
L 312.510692 177.498125 
" clip-path="url(#p5e1ebad001)" style="fill: none; stroke: #b0b0b0; stroke-opacity: 0.3; stroke-width: 0.8; stroke-linecap: square"/>
     </g>
     <g id="line2d_48">
      <g>
       <use xlink:href="#m1600844508" x="312.510692" y="302.298125" style="stroke: #000000; stroke-width: 0.8"/>
      </g>
     </g>
    </g>
   </g>
   <g id="matplotlib.axis_4">
    <g id="ytick_7">
     <g id="line2d_49">
      <path d="M 35.0625 297.418376 
L 341.9605 297.418376 
" clip-path="url(#p5e1ebad001)" style="fill: none; stroke: #b0b0b0; stroke-opacity: 0.3; stroke-width: 0.8; stroke-linecap: square"/>
     </g>
     <g id="line2d_50">
      <g>
       <use xlink:href="#m90a90175f5" x="35.0625" y="297.418376" style="stroke: #000000; stroke-width: 0.8"/>
      </g>
     </g>
     <g id="text_13">
      <!-- 0 -->
      <g transform="translate(21.7 301.217595) scale(0.1 -0.1)">
       <use xlink:href="#DejaVuSans-30"/>
      </g>
     </g>
    </g>
    <g id="ytick_8">
     <g id="line2d_51">
      <path d="M 35.0625 269.127373 
L 341.9605 269.127373 
" clip-path="url(#p5e1ebad001)" style="fill: none; stroke: #b0b0b0; stroke-opacity: 0.3; stroke-width: 0.8; stroke-linecap: square"/>
     </g>
     <g id="line2d_52">
      <g>
       <use xlink:href="#m90a90175f5" x="35.0625" y="269.127373" style="stroke: #000000; stroke-width: 0.8"/>
      </g>
     </g>
     <g id="text_14">
      <!-- 1 -->
      <g transform="translate(21.7 272.926592) scale(0.1 -0.1)">
       <use xlink:href="#DejaVuSans-31"/>
      </g>
     </g>
    </g>
    <g id="ytick_9">
     <g id="line2d_53">
      <path d="M 35.0625 240.83637 
L 341.9605 240.83637 
" clip-path="url(#p5e1ebad001)" style="fill: none; stroke: #b0b0b0; stroke-opacity: 0.3; stroke-width: 0.8; stroke-linecap: square"/>
     </g>
     <g id="line2d_54">
      <g>
       <use xlink:href="#m90a90175f5" x="35.0625" y="240.83637" style="stroke: #000000; stroke-width: 0.8"/>
      </g>
     </g>
     <g id="text_15">
      <!-- 2 -->
      <g transform="translate(21.7 244.635589) scale(0.1 -0.1)">
       <use xlink:href="#DejaVuSans-32"/>
      </g>
     </g>
    </g>
    <g id="ytick_10">
     <g id="line2d_55">
      <path d="M 35.0625 212.545367 
L 341.9605 212.545367 
" clip-path="url(#p5e1ebad001)" style="fill: none; stroke: #b0b0b0; stroke-opacity: 0.3; stroke-width: 0.8; stroke-linecap: square"/>
     </g>
     <g id="line2d_56">
      <g>
       <use xlink:href="#m90a90175f5" x="35.0625" y="212.545367" style="stroke: #000000; stroke-width: 0.8"/>
      </g>
     </g>
     <g id="text_16">
      <!-- 3 -->
      <g transform="translate(21.7 216.344586) scale(0.1 -0.1)">
       <use xlink:href="#DejaVuSans-33"/>
      </g>
     </g>
    </g>
    <g id="ytick_11">
     <g id="line2d_57">
      <path d="M 35.0625 184.254364 
L 341.9605 184.254364 
" clip-path="url(#p5e1ebad001)" style="fill: none; stroke: #b0b0b0; stroke-opacity: 0.3; stroke-width: 0.8; stroke-linecap: square"/>
     </g>
     <g id="line2d_58">
      <g>
       <use xlink:href="#m90a90175f5" x="35.0625" y="184.254364" style="stroke: #000000; stroke-width: 0.8"/>
      </g>
     </g>
     <g id="text_17">
      <!-- 4 -->
      <g transform="translate(21.7 188.053583) scale(0.1 -0.1)">
       <use xlink:href="#DejaVuSans-34"/>
      </g>
     </g>
    </g>
    <g id="text_18">
     <!-- $\alpha$ (m$^2$/s) -->
     <g transform="translate(15.620313 260.298125) rotate(-90) scale(0.1 -0.1)">
      <use xlink:href="#DejaVuSans-Oblique-3b1" transform="translate(0 0.765625)"/>
      <use xlink:href="#DejaVuSans-20" transform="translate(65.917969 0.765625)"/>
      <use xlink:href="#DejaVuSans-28" transform="translate(97.705078 0.765625)"/>
      <use xlink:href="#DejaVuSans-6d" transform="translate(136.71875 0.765625)"/>
      <use xlink:href="#DejaVuSans-32" transform="translate(235.087891 39.046875) scale(0.7)"/>
      <use xlink:href="#DejaVuSans-2f" transform="translate(282.358398 0.765625)"/>
      <use xlink:href="#DejaVuSans-73" transform="translate(316.049805 0.765625)"/>
      <use xlink:href="#DejaVuSans-29" transform="translate(368.149414 0.765625)"/>
     </g>
    </g>
    <g id="text_19">
     <!-- 1e−5 -->
     <g transform="translate(35.0625 174.498125) scale(0.1 -0.1)">
      <use xlink:href="#DejaVuSans-31"/>
      <use xlink:href="#DejaVuSans-65" transform="translate(63.623047 0)"/>
      <use xlink:href="#DejaVuSans-2212" transform="translate(125.146484 0)"/>
      <use xlink:href="#DejaVuSans-35" transform="translate(208.935547 0)"/>
     </g>
    </g>
   </g>
   <g id="line2d_59">
    <path d="M 49.012409 263.16019 
L 53.218412 265.303467 
L 57.424415 267.23521 
L 63.032418 269.528604 
L 68.640422 271.54787 
L 74.248426 273.336295 
L 81.25843 275.300252 
L 88.268435 277.013338 
L 95.278439 278.519077 
L 103.690445 280.100459 
L 113.504451 281.692533 
L 123.318458 283.065557 
L 134.534465 284.420376 
L 147.152473 285.726593 
L 161.172482 286.963819 
L 177.996493 288.215599 
L 196.222505 289.348771 
L 217.252519 290.434661 
L 242.488535 291.499849 
L 270.528553 292.456552 
L 304.176575 293.375539 
L 328.010591 293.914189 
L 328.010591 293.914189 
" clip-path="url(#p5e1ebad001)" style="fill: none; stroke: #000000; stroke-width: 1.5; stroke-linecap: square"/>
   </g>
   <g id="line2d_60">
    <path d="M 49.012409 270.442603 
L 61.630417 272.948014 
L 74.248426 275.220732 
L 88.268435 277.499279 
L 102.288444 279.543937 
L 117.710454 281.551499 
L 133.132464 283.333582 
L 149.956475 285.050195 
L 168.182487 286.674588 
L 187.8105 288.186174 
L 208.840513 289.570548 
L 231.272528 290.819197 
L 256.508544 291.988088 
L 283.146562 292.998072 
L 313.990582 293.935242 
L 328.010591 294.292779 
L 328.010591 294.292779 
" clip-path="url(#p5e1ebad001)" style="fill: none; stroke: #1f77b4; stroke-width: 1.5; stroke-linecap: square"/>
   </g>
   <g id="patch_10">
    <path d="M 35.0625 302.298125 
L 35.0625 177.498125 
" style="fill: none; stroke: #000000; stroke-width: 0.8; stroke-linejoin: miter; stroke-linecap: square"/>
   </g>
   <g id="patch_11">
    <path d="M 341.9605 302.298125 
L 341.9605 177.498125 
" style="fill: none; stroke: #000000; stroke-width: 0.8; stroke-linejoin: miter; stroke-linecap: square"/>
   </g>
   <g id="patch_12">
    <path d="M 35.0625 302.298125 
L 341.9605 302.298125 
" style="fill: none; stroke: #000000; stroke-width: 0.8; stroke-linejoin: miter; stroke-linecap: square"/>
   </g>
   <g id="patch_13">
    <path d="M 35.0625 177.498125 
L 341.9605 177.498125 
" style="fill: none; stroke: #000000; stroke-width: 0.8; stroke-linejoin: miter; stroke-linecap: square"/>
   </g>
   <g id="text_20">
    <!-- exponential -->
    <g transform="translate(153.233375 171.498125) scale(0.12 -0.12)">
     <defs>
      <path id="DejaVuSans-78" d="M 3513 3500 
L 2247 1797 
L 3578 0 
L 2900 0 
L 1881 1375 
L 863 0 
L 184 0 
L 1544 1831 
L 300 3500 
L 978 3500 
L 1906 2253 
L 2834 3500 
L 3513 3500 
z
" transform="scale(0.015625)"/>
     </defs>
     <use xlink:href="#DejaVuSans-65"/>
     <use xlink:href="#DejaVuSans-78" transform="translate(59.773438 0)"/>
     <use xlink:href="#DejaVuSans-70" transform="translate(118.953125 0)"/>
     <use xlink:href="#DejaVuSans-6f" transform="translate(182.429688 0)"/>
     <use xlink:href="#DejaVuSans-6e" transform="translate(243.611328 0)"/>
     <use xlink:href="#DejaVuSans-65" transform="translate(306.990234 0)"/>
     <use xlink:href="#DejaVuSans-6e" transform="translate(368.513672 0)"/>
     <use xlink:href="#DejaVuSans-74" transform="translate(431.892578 0)"/>
     <use xlink:href="#DejaVuSans-69" transform="translate(471.101562 0)"/>
     <use xlink:href="#DejaVuSans-61" transform="translate(498.884766 0)"/>
     <use xlink:href="#DejaVuSans-6c" transform="translate(560.164062 0)"/>
    </g>
   </g>
  </g>
  <g id="axes_3">
   <g id="patch_14">
    <path d="M 35.0625 457.478125 
L 341.9605 457.478125 
L 341.9605 332.678125 
L 35.0625 332.678125 
L 35.0625 457.478125 
z
" style="fill: none"/>
   </g>
   <g id="FillBetweenPolyCollection_3">
    <defs>
     <path id="md6b837112e" d="M 49.012409 -156.683523 
L 49.012409 -50.465848 
L 50.41441 -50.40007 
L 51.816411 -50.335023 
L 53.218412 -50.270692 
L 54.620413 -50.20706 
L 56.022414 -50.144112 
L 57.424415 -50.081835 
L 58.826415 -50.020214 
L 60.228416 -49.959235 
L 61.630417 -49.898885 
L 63.032418 -49.839151 
L 64.434419 -49.780021 
L 65.83642 -49.721483 
L 67.238421 -49.663525 
L 68.640422 -49.606135 
L 70.042423 -49.549302 
L 71.444424 -49.493017 
L 72.846425 -49.437267 
L 74.248426 -49.382044 
L 75.650426 -49.327337 
L 77.052427 -49.273137 
L 78.454428 -49.219435 
L 79.856429 -49.166221 
L 81.25843 -49.113487 
L 82.660431 -49.061224 
L 84.062432 -49.009423 
L 85.464433 -48.958077 
L 86.866434 -48.907178 
L 88.268435 -48.856718 
L 89.670436 -48.806689 
L 91.072437 -48.757085 
L 92.474437 -48.707897 
L 93.876438 -48.65912 
L 95.278439 -48.610746 
L 96.68044 -48.562769 
L 98.082441 -48.515182 
L 99.484442 -48.467978 
L 100.886443 -48.421153 
L 102.288444 -48.374699 
L 103.690445 -48.328612 
L 105.092446 -48.282884 
L 106.494447 -48.237512 
L 107.896447 -48.192488 
L 109.298448 -48.147808 
L 110.700449 -48.103467 
L 112.10245 -48.05946 
L 113.504451 -48.01578 
L 114.906452 -47.972425 
L 116.308453 -47.929389 
L 117.710454 -47.886666 
L 119.112455 -47.844254 
L 120.514456 -47.802147 
L 121.916457 -47.76034 
L 123.318458 -47.718831 
L 124.720458 -47.677614 
L 126.122459 -47.636685 
L 127.52446 -47.59604 
L 128.926461 -47.555676 
L 130.328462 -47.515588 
L 131.730463 -47.475773 
L 133.132464 -47.436228 
L 134.534465 -47.396948 
L 135.936466 -47.35793 
L 137.338467 -47.31917 
L 138.740468 -47.280665 
L 140.142468 -47.242412 
L 141.544469 -47.204408 
L 142.94647 -47.166649 
L 144.348471 -47.129132 
L 145.750472 -47.091854 
L 147.152473 -47.054812 
L 148.554474 -47.018003 
L 149.956475 -46.981425 
L 151.358476 -46.945073 
L 152.760477 -46.908946 
L 154.162478 -46.873041 
L 155.564479 -46.837355 
L 156.966479 -46.801885 
L 158.36848 -46.766629 
L 159.770481 -46.731584 
L 161.172482 -46.696748 
L 162.574483 -46.662118 
L 163.976484 -46.627692 
L 165.378485 -46.593467 
L 166.780486 -46.559441 
L 168.182487 -46.525612 
L 169.584488 -46.491977 
L 170.986489 -46.458535 
L 172.388489 -46.425282 
L 173.79049 -46.392218 
L 175.192491 -46.35934 
L 176.594492 -46.326645 
L 177.996493 -46.294132 
L 179.398494 -46.261798 
L 180.800495 -46.229643 
L 182.202496 -46.197663 
L 183.604497 -46.165856 
L 185.006498 -46.134222 
L 186.408499 -46.102758 
L 187.8105 -46.071463 
L 189.2125 -46.040334 
L 190.614501 -46.009369 
L 192.016502 -45.978568 
L 193.418503 -45.947928 
L 194.820504 -45.917447 
L 196.222505 -45.887125 
L 197.624506 -45.856959 
L 199.026507 -45.826947 
L 200.428508 -45.797089 
L 201.830509 -45.767383 
L 203.23251 -45.737826 
L 204.634511 -45.708418 
L 206.036511 -45.679157 
L 207.438512 -45.650042 
L 208.840513 -45.621071 
L 210.242514 -45.592242 
L 211.644515 -45.563555 
L 213.046516 -45.535008 
L 214.448517 -45.5066 
L 215.850518 -45.478329 
L 217.252519 -45.450194 
L 218.65452 -45.422193 
L 220.056521 -45.394326 
L 221.458521 -45.366591 
L 222.860522 -45.338987 
L 224.262523 -45.311512 
L 225.664524 -45.284166 
L 227.066525 -45.256947 
L 228.468526 -45.229855 
L 229.870527 -45.202887 
L 231.272528 -45.176042 
L 232.674529 -45.149321 
L 234.07653 -45.122721 
L 235.478531 -45.094283 
L 236.880532 -45.062064 
L 238.282532 -45.02999 
L 239.684533 -44.99806 
L 241.086534 -44.966271 
L 242.488535 -44.934623 
L 243.890536 -44.903115 
L 245.292537 -44.871745 
L 246.694538 -44.840511 
L 248.096539 -44.809414 
L 249.49854 -44.778451 
L 250.900541 -44.747622 
L 252.302542 -44.716925 
L 253.704542 -44.68636 
L 255.106543 -44.655924 
L 256.508544 -44.625617 
L 257.910545 -44.595439 
L 259.312546 -44.565387 
L 260.714547 -44.535461 
L 262.116548 -44.50566 
L 263.518549 -44.475982 
L 264.92055 -44.446427 
L 266.322551 -44.416994 
L 267.724552 -44.387681 
L 269.126553 -44.358488 
L 270.528553 -44.329414 
L 271.930554 -44.300457 
L 273.332555 -44.271617 
L 274.734556 -44.242893 
L 276.136557 -44.214284 
L 277.538558 -44.185789 
L 278.940559 -44.157407 
L 280.34256 -44.129138 
L 281.744561 -44.100979 
L 283.146562 -44.072931 
L 284.548563 -44.044993 
L 285.950563 -44.017163 
L 287.352564 -43.989441 
L 288.754565 -43.961827 
L 290.156566 -43.934318 
L 291.558567 -43.906915 
L 292.960568 -43.879617 
L 294.362569 -43.852422 
L 295.76457 -43.825331 
L 297.166571 -43.798341 
L 298.568572 -43.771454 
L 299.970573 -43.744667 
L 301.372574 -43.717979 
L 302.774574 -43.691392 
L 304.176575 -43.664902 
L 305.578576 -43.638511 
L 306.980577 -43.612216 
L 308.382578 -43.586018 
L 309.784579 -43.559915 
L 311.18658 -43.533907 
L 312.588581 -43.507994 
L 313.990582 -43.482174 
L 315.392583 -43.456447 
L 316.794584 -43.430812 
L 318.196585 -43.405269 
L 319.598585 -43.379817 
L 321.000586 -43.354455 
L 322.402587 -43.329183 
L 323.804588 -43.303999 
L 325.206589 -43.278904 
L 326.60859 -43.253897 
L 328.010591 -43.228977 
L 328.010591 -48.188639 
L 328.010591 -48.188639 
L 326.60859 -48.462176 
L 325.206589 -48.736671 
L 323.804588 -49.012129 
L 322.402587 -49.288556 
L 321.000586 -49.565961 
L 319.598585 -49.84435 
L 318.196585 -50.12373 
L 316.794584 -50.404107 
L 315.392583 -50.68549 
L 313.990582 -50.967885 
L 312.588581 -51.2513 
L 311.18658 -51.535742 
L 309.784579 -51.821218 
L 308.382578 -52.107737 
L 306.980577 -52.395305 
L 305.578576 -52.683931 
L 304.176575 -52.973622 
L 302.774574 -53.264386 
L 301.372574 -53.556231 
L 299.970573 -53.849166 
L 298.568572 -54.143198 
L 297.166571 -54.438335 
L 295.76457 -54.734587 
L 294.362569 -55.03196 
L 292.960568 -55.330465 
L 291.558567 -55.63011 
L 290.156566 -55.930902 
L 288.754565 -56.232852 
L 287.352564 -56.535968 
L 285.950563 -56.840259 
L 284.548563 -57.145734 
L 283.146562 -57.452403 
L 281.744561 -57.760275 
L 280.34256 -58.069359 
L 278.940559 -58.379665 
L 277.538558 -58.691202 
L 276.136557 -59.003982 
L 274.734556 -59.318012 
L 273.332555 -59.633304 
L 271.930554 -59.949868 
L 270.528553 -60.267713 
L 269.126553 -60.586851 
L 267.724552 -60.907292 
L 266.322551 -61.229046 
L 264.92055 -61.552125 
L 263.518549 -61.876539 
L 262.116548 -62.2023 
L 260.714547 -62.529418 
L 259.312546 -62.857905 
L 257.910545 -63.187773 
L 256.508544 -63.519033 
L 255.106543 -63.851696 
L 253.704542 -64.185776 
L 252.302542 -64.521284 
L 250.900541 -64.858232 
L 249.49854 -65.196633 
L 248.096539 -65.536499 
L 246.694538 -65.877843 
L 245.292537 -66.220679 
L 243.890536 -66.565018 
L 242.488535 -66.910874 
L 241.086534 -67.258261 
L 239.684533 -67.607193 
L 238.282532 -67.957683 
L 236.880532 -68.309744 
L 235.478531 -68.663392 
L 234.07653 -69.07131 
L 232.674529 -69.507477 
L 231.272528 -69.945636 
L 229.870527 -70.385805 
L 228.468526 -70.828004 
L 227.066525 -71.27225 
L 225.664524 -71.718563 
L 224.262523 -72.166962 
L 222.860522 -72.617467 
L 221.458521 -73.070097 
L 220.056521 -73.524873 
L 218.65452 -73.981816 
L 217.252519 -74.440945 
L 215.850518 -74.902282 
L 214.448517 -75.365848 
L 213.046516 -75.831666 
L 211.644515 -76.299756 
L 210.242514 -76.770142 
L 208.840513 -77.242845 
L 207.438512 -77.717889 
L 206.036511 -78.195297 
L 204.634511 -78.675093 
L 203.23251 -79.157301 
L 201.830509 -79.641944 
L 200.428508 -80.129049 
L 199.026507 -80.618639 
L 197.624506 -81.110741 
L 196.222505 -81.60538 
L 194.820504 -82.102583 
L 193.418503 -82.602376 
L 192.016502 -83.104787 
L 190.614501 -83.609843 
L 189.2125 -84.117572 
L 187.8105 -84.628002 
L 186.408499 -85.141163 
L 185.006498 -85.657083 
L 183.604497 -86.175793 
L 182.202496 -86.697323 
L 180.800495 -87.221704 
L 179.398494 -87.748967 
L 177.996493 -88.279144 
L 176.594492 -88.812267 
L 175.192491 -89.34837 
L 173.79049 -89.887485 
L 172.388489 -90.429647 
L 170.986489 -90.974891 
L 169.584488 -91.523251 
L 168.182487 -92.074764 
L 166.780486 -92.629465 
L 165.378485 -93.187393 
L 163.976484 -93.748585 
L 162.574483 -94.313079 
L 161.172482 -94.880914 
L 159.770481 -95.45213 
L 158.36848 -96.026768 
L 156.966479 -96.604869 
L 155.564479 -97.186474 
L 154.162478 -97.771628 
L 152.760477 -98.360372 
L 151.358476 -98.952752 
L 149.956475 -99.548812 
L 148.554474 -100.148599 
L 147.152473 -100.75216 
L 145.750472 -101.359542 
L 144.348471 -101.970795 
L 142.94647 -102.585966 
L 141.544469 -103.205109 
L 140.142468 -103.828273 
L 138.740468 -104.455511 
L 137.338467 -105.086878 
L 135.936466 -105.722428 
L 134.534465 -106.362216 
L 133.132464 -107.006299 
L 131.730463 -107.654737 
L 130.328462 -108.307587 
L 128.926461 -108.96491 
L 127.52446 -109.626768 
L 126.122459 -110.293225 
L 124.720458 -110.964344 
L 123.318458 -111.640191 
L 121.916457 -112.320833 
L 120.514456 -113.006338 
L 119.112455 -113.696778 
L 117.710454 -114.392223 
L 116.308453 -115.092746 
L 114.906452 -115.798422 
L 113.504451 -116.509327 
L 112.10245 -117.22554 
L 110.700449 -117.947141 
L 109.298448 -118.67421 
L 107.896447 -119.406832 
L 106.494447 -120.145092 
L 105.092446 -120.889078 
L 103.690445 -121.638878 
L 102.288444 -122.394585 
L 100.886443 -123.156293 
L 99.484442 -123.924097 
L 98.082441 -124.698095 
L 96.68044 -125.47839 
L 95.278439 -126.265083 
L 93.876438 -127.058281 
L 92.474437 -127.858092 
L 91.072437 -128.664627 
L 89.670436 -129.478 
L 88.268435 -130.298329 
L 86.866434 -131.125733 
L 85.464433 -131.960336 
L 84.062432 -132.802263 
L 82.660431 -133.651645 
L 81.25843 -134.508614 
L 79.856429 -135.373308 
L 78.454428 -136.245866 
L 77.052427 -137.126434 
L 75.650426 -138.01516 
L 74.248426 -138.912196 
L 72.846425 -139.817699 
L 71.444424 -140.731831 
L 70.042423 -141.654757 
L 68.640422 -142.586649 
L 67.238421 -143.527682 
L 65.83642 -144.478037 
L 64.434419 -145.437902 
L 63.032418 -146.407467 
L 61.630417 -147.386932 
L 60.228416 -148.376501 
L 58.826415 -149.376383 
L 57.424415 -150.386798 
L 56.022414 -151.407967 
L 54.620413 -152.440124 
L 53.218412 -153.483507 
L 51.816411 -154.538363 
L 50.41441 -155.604947 
L 49.012409 -156.683523 
z
" style="stroke: #1f77b4; stroke-opacity: 0.2"/>
    </defs>
    <g clip-path="url(#p064ef97d58)">
     <use xlink:href="#md6b837112e" x="0" y="495.034375" style="fill: #1f77b4; fill-opacity: 0.2; stroke: #1f77b4; stroke-opacity: 0.2"/>
    </g>
   </g>
   <g id="matplotlib.axis_5">
    <g id="xtick_17">
     <g id="line2d_61">
      <path d="M 41.26246 457.478125 
L 41.26246 332.678125 
" clip-path="url(#p064ef97d58)" style="fill: none; stroke: #b0b0b0; stroke-opacity: 0.3; stroke-width: 0.8; stroke-linecap: square"/>
     </g>
     <g id="line2d_62">
      <g>
       <use xlink:href="#m1600844508" x="41.26246" y="457.478125" style="stroke: #000000; stroke-width: 0.8"/>
      </g>
     </g>
     <g id="text_21">
      <!-- 75 -->
      <g transform="translate(34.89996 472.076563) scale(0.1 -0.1)">
       <defs>
        <path id="DejaVuSans-37" d="M 525 4666 
L 3525 4666 
L 3525 4397 
L 1831 0 
L 1172 0 
L 2766 4134 
L 525 4134 
L 525 4666 
z
" transform="scale(0.015625)"/>
       </defs>
       <use xlink:href="#DejaVuSans-37"/>
       <use xlink:href="#DejaVuSans-35" transform="translate(63.623047 0)"/>
      </g>
     </g>
    </g>
    <g id="xtick_18">
     <g id="line2d_63">
      <path d="M 80.012207 457.478125 
L 80.012207 332.678125 
" clip-path="url(#p064ef97d58)" style="fill: none; stroke: #b0b0b0; stroke-opacity: 0.3; stroke-width: 0.8; stroke-linecap: square"/>
     </g>
     <g id="line2d_64">
      <g>
       <use xlink:href="#m1600844508" x="80.012207" y="457.478125" style="stroke: #000000; stroke-width: 0.8"/>
      </g>
     </g>
     <g id="text_22">
      <!-- 100 -->
      <g transform="translate(70.468457 472.076563) scale(0.1 -0.1)">
       <use xlink:href="#DejaVuSans-31"/>
       <use xlink:href="#DejaVuSans-30" transform="translate(63.623047 0)"/>
       <use xlink:href="#DejaVuSans-30" transform="translate(127.246094 0)"/>
      </g>
     </g>
    </g>
    <g id="xtick_19">
     <g id="line2d_65">
      <path d="M 118.761955 457.478125 
L 118.761955 332.678125 
" clip-path="url(#p064ef97d58)" style="fill: none; stroke: #b0b0b0; stroke-opacity: 0.3; stroke-width: 0.8; stroke-linecap: square"/>
     </g>
     <g id="line2d_66">
      <g>
       <use xlink:href="#m1600844508" x="118.761955" y="457.478125" style="stroke: #000000; stroke-width: 0.8"/>
      </g>
     </g>
     <g id="text_23">
      <!-- 125 -->
      <g transform="translate(109.218205 472.076563) scale(0.1 -0.1)">
       <use xlink:href="#DejaVuSans-31"/>
       <use xlink:href="#DejaVuSans-32" transform="translate(63.623047 0)"/>
       <use xlink:href="#DejaVuSans-35" transform="translate(127.246094 0)"/>
      </g>
     </g>
    </g>
    <g id="xtick_20">
     <g id="line2d_67">
      <path d="M 157.511702 457.478125 
L 157.511702 332.678125 
" clip-path="url(#p064ef97d58)" style="fill: none; stroke: #b0b0b0; stroke-opacity: 0.3; stroke-width: 0.8; stroke-linecap: square"/>
     </g>
     <g id="line2d_68">
      <g>
       <use xlink:href="#m1600844508" x="157.511702" y="457.478125" style="stroke: #000000; stroke-width: 0.8"/>
      </g>
     </g>
     <g id="text_24">
      <!-- 150 -->
      <g transform="translate(147.967952 472.076563) scale(0.1 -0.1)">
       <use xlink:href="#DejaVuSans-31"/>
       <use xlink:href="#DejaVuSans-35" transform="translate(63.623047 0)"/>
       <use xlink:href="#DejaVuSans-30" transform="translate(127.246094 0)"/>
      </g>
     </g>
    </g>
    <g id="xtick_21">
     <g id="line2d_69">
      <path d="M 196.261449 457.478125 
L 196.261449 332.678125 
" clip-path="url(#p064ef97d58)" style="fill: none; stroke: #b0b0b0; stroke-opacity: 0.3; stroke-width: 0.8; stroke-linecap: square"/>
     </g>
     <g id="line2d_70">
      <g>
       <use xlink:href="#m1600844508" x="196.261449" y="457.478125" style="stroke: #000000; stroke-width: 0.8"/>
      </g>
     </g>
     <g id="text_25">
      <!-- 175 -->
      <g transform="translate(186.717699 472.076563) scale(0.1 -0.1)">
       <use xlink:href="#DejaVuSans-31"/>
       <use xlink:href="#DejaVuSans-37" transform="translate(63.623047 0)"/>
       <use xlink:href="#DejaVuSans-35" transform="translate(127.246094 0)"/>
      </g>
     </g>
    </g>
    <g id="xtick_22">
     <g id="line2d_71">
      <path d="M 235.011197 457.478125 
L 235.011197 332.678125 
" clip-path="url(#p064ef97d58)" style="fill: none; stroke: #b0b0b0; stroke-opacity: 0.3; stroke-width: 0.8; stroke-linecap: square"/>
     </g>
     <g id="line2d_72">
      <g>
       <use xlink:href="#m1600844508" x="235.011197" y="457.478125" style="stroke: #000000; stroke-width: 0.8"/>
      </g>
     </g>
     <g id="text_26">
      <!-- 200 -->
      <g transform="translate(225.467447 472.076563) scale(0.1 -0.1)">
       <use xlink:href="#DejaVuSans-32"/>
       <use xlink:href="#DejaVuSans-30" transform="translate(63.623047 0)"/>
       <use xlink:href="#DejaVuSans-30" transform="translate(127.246094 0)"/>
      </g>
     </g>
    </g>
    <g id="xtick_23">
     <g id="line2d_73">
      <path d="M 273.760944 457.478125 
L 273.760944 332.678125 
" clip-path="url(#p064ef97d58)" style="fill: none; stroke: #b0b0b0; stroke-opacity: 0.3; stroke-width: 0.8; stroke-linecap: square"/>
     </g>
     <g id="line2d_74">
      <g>
       <use xlink:href="#m1600844508" x="273.760944" y="457.478125" style="stroke: #000000; stroke-width: 0.8"/>
      </g>
     </g>
     <g id="text_27">
      <!-- 225 -->
      <g transform="translate(264.217194 472.076563) scale(0.1 -0.1)">
       <use xlink:href="#DejaVuSans-32"/>
       <use xlink:href="#DejaVuSans-32" transform="translate(63.623047 0)"/>
       <use xlink:href="#DejaVuSans-35" transform="translate(127.246094 0)"/>
      </g>
     </g>
    </g>
    <g id="xtick_24">
     <g id="line2d_75">
      <path d="M 312.510692 457.478125 
L 312.510692 332.678125 
" clip-path="url(#p064ef97d58)" style="fill: none; stroke: #b0b0b0; stroke-opacity: 0.3; stroke-width: 0.8; stroke-linecap: square"/>
     </g>
     <g id="line2d_76">
      <g>
       <use xlink:href="#m1600844508" x="312.510692" y="457.478125" style="stroke: #000000; stroke-width: 0.8"/>
      </g>
     </g>
     <g id="text_28">
      <!-- 250 -->
      <g transform="translate(302.966942 472.076563) scale(0.1 -0.1)">
       <use xlink:href="#DejaVuSans-32"/>
       <use xlink:href="#DejaVuSans-35" transform="translate(63.623047 0)"/>
       <use xlink:href="#DejaVuSans-30" transform="translate(127.246094 0)"/>
      </g>
     </g>
    </g>
    <g id="text_29">
     <!-- T (K) -->
     <g transform="translate(176.688062 485.754688) scale(0.1 -0.1)">
      <defs>
       <path id="DejaVuSans-54" d="M -19 4666 
L 3928 4666 
L 3928 4134 
L 2272 4134 
L 2272 0 
L 1638 0 
L 1638 4134 
L -19 4134 
L -19 4666 
z
" transform="scale(0.015625)"/>
       <path id="DejaVuSans-4b" d="M 628 4666 
L 1259 4666 
L 1259 2694 
L 3353 4666 
L 4166 4666 
L 1850 2491 
L 4331 0 
L 3500 0 
L 1259 2247 
L 1259 0 
L 628 0 
L 628 4666 
z
" transform="scale(0.015625)"/>
      </defs>
      <use xlink:href="#DejaVuSans-54"/>
      <use xlink:href="#DejaVuSans-20" transform="translate(61.083984 0)"/>
      <use xlink:href="#DejaVuSans-28" transform="translate(92.871094 0)"/>
      <use xlink:href="#DejaVuSans-4b" transform="translate(131.884766 0)"/>
      <use xlink:href="#DejaVuSans-29" transform="translate(197.460938 0)"/>
     </g>
    </g>
   </g>
   <g id="matplotlib.axis_6">
    <g id="ytick_12">
     <g id="line2d_77">
      <path d="M 35.0625 451.836281 
L 341.9605 451.836281 
" clip-path="url(#p064ef97d58)" style="fill: none; stroke: #b0b0b0; stroke-opacity: 0.3; stroke-width: 0.8; stroke-linecap: square"/>
     </g>
     <g id="line2d_78">
      <g>
       <use xlink:href="#m90a90175f5" x="35.0625" y="451.836281" style="stroke: #000000; stroke-width: 0.8"/>
      </g>
     </g>
     <g id="text_30">
      <!-- 0 -->
      <g transform="translate(21.7 455.6355) scale(0.1 -0.1)">
       <use xlink:href="#DejaVuSans-30"/>
      </g>
     </g>
    </g>
    <g id="ytick_13">
     <g id="line2d_79">
      <path d="M 35.0625 421.480189 
L 341.9605 421.480189 
" clip-path="url(#p064ef97d58)" style="fill: none; stroke: #b0b0b0; stroke-opacity: 0.3; stroke-width: 0.8; stroke-linecap: square"/>
     </g>
     <g id="line2d_80">
      <g>
       <use xlink:href="#m90a90175f5" x="35.0625" y="421.480189" style="stroke: #000000; stroke-width: 0.8"/>
      </g>
     </g>
     <g id="text_31">
      <!-- 1 -->
      <g transform="translate(21.7 425.279408) scale(0.1 -0.1)">
       <use xlink:href="#DejaVuSans-31"/>
      </g>
     </g>
    </g>
    <g id="ytick_14">
     <g id="line2d_81">
      <path d="M 35.0625 391.124097 
L 341.9605 391.124097 
" clip-path="url(#p064ef97d58)" style="fill: none; stroke: #b0b0b0; stroke-opacity: 0.3; stroke-width: 0.8; stroke-linecap: square"/>
     </g>
     <g id="line2d_82">
      <g>
       <use xlink:href="#m90a90175f5" x="35.0625" y="391.124097" style="stroke: #000000; stroke-width: 0.8"/>
      </g>
     </g>
     <g id="text_32">
      <!-- 2 -->
      <g transform="translate(21.7 394.923316) scale(0.1 -0.1)">
       <use xlink:href="#DejaVuSans-32"/>
      </g>
     </g>
    </g>
    <g id="ytick_15">
     <g id="line2d_83">
      <path d="M 35.0625 360.768005 
L 341.9605 360.768005 
" clip-path="url(#p064ef97d58)" style="fill: none; stroke: #b0b0b0; stroke-opacity: 0.3; stroke-width: 0.8; stroke-linecap: square"/>
     </g>
     <g id="line2d_84">
      <g>
       <use xlink:href="#m90a90175f5" x="35.0625" y="360.768005" style="stroke: #000000; stroke-width: 0.8"/>
      </g>
     </g>
     <g id="text_33">
      <!-- 3 -->
      <g transform="translate(21.7 364.567224) scale(0.1 -0.1)">
       <use xlink:href="#DejaVuSans-33"/>
      </g>
     </g>
    </g>
    <g id="text_34">
     <!-- $\alpha$ (m$^2$/s) -->
     <g transform="translate(15.620313 415.478125) rotate(-90) scale(0.1 -0.1)">
      <use xlink:href="#DejaVuSans-Oblique-3b1" transform="translate(0 0.765625)"/>
      <use xlink:href="#DejaVuSans-20" transform="translate(65.917969 0.765625)"/>
      <use xlink:href="#DejaVuSans-28" transform="translate(97.705078 0.765625)"/>
      <use xlink:href="#DejaVuSans-6d" transform="translate(136.71875 0.765625)"/>
      <use xlink:href="#DejaVuSans-32" transform="translate(235.087891 39.046875) scale(0.7)"/>
      <use xlink:href="#DejaVuSans-2f" transform="translate(282.358398 0.765625)"/>
      <use xlink:href="#DejaVuSans-73" transform="translate(316.049805 0.765625)"/>
      <use xlink:href="#DejaVuSans-29" transform="translate(368.149414 0.765625)"/>
     </g>
    </g>
    <g id="text_35">
     <!-- 1e−5 -->
     <g transform="translate(35.0625 329.678125) scale(0.1 -0.1)">
      <use xlink:href="#DejaVuSans-31"/>
      <use xlink:href="#DejaVuSans-65" transform="translate(63.623047 0)"/>
      <use xlink:href="#DejaVuSans-2212" transform="translate(125.146484 0)"/>
      <use xlink:href="#DejaVuSans-35" transform="translate(208.935547 0)"/>
     </g>
    </g>
   </g>
   <g id="line2d_85">
    <path d="M 49.012409 415.077434 
L 53.218412 417.377159 
L 57.424415 419.449908 
L 63.032418 421.910707 
L 68.640422 424.077369 
L 74.248426 425.996339 
L 79.856429 427.705419 
L 86.866434 429.593298 
L 93.876438 431.250204 
L 102.288444 432.987714 
L 110.700449 434.500765 
L 120.514456 436.035952 
L 131.730463 437.546284 
L 144.348471 438.998257 
L 158.36848 440.369873 
L 173.79049 441.648073 
L 192.016502 442.916 
L 211.644515 444.053466 
L 234.07653 445.131137 
L 260.714547 446.177563 
L 291.558567 447.154825 
L 328.010591 448.076307 
L 328.010591 448.076307 
" clip-path="url(#p064ef97d58)" style="fill: none; stroke: #000000; stroke-width: 1.5; stroke-linecap: square"/>
   </g>
   <g id="line2d_86">
    <path d="M 49.012409 423.034475 
L 61.630417 425.341868 
L 75.650426 427.667921 
L 91.072437 429.988702 
L 107.896447 432.286466 
L 126.122459 434.548443 
L 145.750472 436.765763 
L 168.182487 439.070224 
L 192.016502 441.296552 
L 218.65452 443.560853 
L 248.096539 445.835947 
L 280.34256 448.101125 
L 315.392583 450.341042 
L 328.010591 451.098469 
L 328.010591 451.098469 
" clip-path="url(#p064ef97d58)" style="fill: none; stroke: #1f77b4; stroke-width: 1.5; stroke-linecap: square"/>
   </g>
   <g id="patch_15">
    <path d="M 35.0625 457.478125 
L 35.0625 332.678125 
" style="fill: none; stroke: #000000; stroke-width: 0.8; stroke-linejoin: miter; stroke-linecap: square"/>
   </g>
   <g id="patch_16">
    <path d="M 341.9605 457.478125 
L 341.9605 332.678125 
" style="fill: none; stroke: #000000; stroke-width: 0.8; stroke-linejoin: miter; stroke-linecap: square"/>
   </g>
   <g id="patch_17">
    <path d="M 35.0625 457.478125 
L 341.9605 457.478125 
" style="fill: none; stroke: #000000; stroke-width: 0.8; stroke-linejoin: miter; stroke-linecap: square"/>
   </g>
   <g id="patch_18">
    <path d="M 35.0625 332.678125 
L 341.9605 332.678125 
" style="fill: none; stroke: #000000; stroke-width: 0.8; stroke-linejoin: miter; stroke-linecap: square"/>
   </g>
   <g id="text_36">
    <!-- logarithmic -->
    <g transform="translate(154.589 326.678125) scale(0.12 -0.12)">
     <defs>
      <path id="DejaVuSans-67" d="M 2906 1791 
Q 2906 2416 2648 2759 
Q 2391 3103 1925 3103 
Q 1463 3103 1205 2759 
Q 947 2416 947 1791 
Q 947 1169 1205 825 
Q 1463 481 1925 481 
Q 2391 481 2648 825 
Q 2906 1169 2906 1791 
z
M 3481 434 
Q 3481 -459 3084 -895 
Q 2688 -1331 1869 -1331 
Q 1566 -1331 1297 -1286 
Q 1028 -1241 775 -1147 
L 775 -588 
Q 1028 -725 1275 -790 
Q 1522 -856 1778 -856 
Q 2344 -856 2625 -561 
Q 2906 -266 2906 331 
L 2906 616 
Q 2728 306 2450 153 
Q 2172 0 1784 0 
Q 1141 0 747 490 
Q 353 981 353 1791 
Q 353 2603 747 3093 
Q 1141 3584 1784 3584 
Q 2172 3584 2450 3431 
Q 2728 3278 2906 2969 
L 2906 3500 
L 3481 3500 
L 3481 434 
z
" transform="scale(0.015625)"/>
     </defs>
     <use xlink:href="#DejaVuSans-6c"/>
     <use xlink:href="#DejaVuSans-6f" transform="translate(27.783203 0)"/>
     <use xlink:href="#DejaVuSans-67" transform="translate(88.964844 0)"/>
     <use xlink:href="#DejaVuSans-61" transform="translate(152.441406 0)"/>
     <use xlink:href="#DejaVuSans-72" transform="translate(213.720703 0)"/>
     <use xlink:href="#DejaVuSans-69" transform="translate(254.833984 0)"/>
     <use xlink:href="#DejaVuSans-74" transform="translate(282.617188 0)"/>
     <use xlink:href="#DejaVuSans-68" transform="translate(321.826172 0)"/>
     <use xlink:href="#DejaVuSans-6d" transform="translate(385.205078 0)"/>
     <use xlink:href="#DejaVuSans-69" transform="translate(482.617188 0)"/>
     <use xlink:href="#DejaVuSans-63" transform="translate(510.400391 0)"/>
    </g>
   </g>
  </g>
 </g>
 <defs>
  <clipPath id="p24014f4776">
   <rect x="35.0625" y="22.318125" width="306.898" height="124.8"/>
  </clipPath>
  <clipPath id="p5e1ebad001">
   <rect x="35.0625" y="177.498125" width="306.898" height="124.8"/>
  </clipPath>
  <clipPath id="p064ef97d58">
   <rect x="35.0625" y="332.678125" width="306.898" height="124.8"/>
  </clipPath>
 </defs>
</svg>
