<?xml version="1.0" encoding="utf-8" standalone="no"?>
<!DOCTYPE svg PUBLIC "-//W3C//DTD SVG 1.1//EN"
  "http://www.w3.org/Graphics/SVG/1.1/DTD/svg11.dtd">
<svg xmlns:xlink="http://www.w3.org/1999/xlink" width="460.8pt" height="345.6pt" viewBox="0 0 460.8 345.6" xmlns="http://www.w3.org/2000/svg" version="1.1">
 <metadata>
  <rdf:RDF xmlns:dc="http://purl.org/dc/elements/1.1/" xmlns:cc="http://creativecommons.org/ns#" xmlns:rdf="http://www.w3.org/1999/02/22-rdf-syntax-ns#">
   <cc:Work>
    <dc:type rdf:resource="http://purl.org/dc/dcmitype/StillImage"/>
    <dc:date>2026-02-12T04:29:02.342380</dc:date>
    <dc:format>image/svg+xml</dc:format>
    <dc:creator>
     <cc:Agent>
      <dc:title>Matplotlib v3.10.8, https://matplotlib.org/</dc:title>
     </cc:Agent>
    </dc:creator>
   </cc:Work>
  </rdf:RDF>
 </metadata>
 <defs>
  <style type="text/css">*{stroke-linejoin: round; stroke-linecap: butt}</style>
 </defs>
 <g id="figure_1">
  <g id="patch_1">
   <path d="M 0 345.6 
L 460.8 345.6 
L 460.8 0 
L 0 0 
L 0 345.6 
z
" style="fill: none"/>
  </g>
  <g id="axes_1">
   <g id="patch_2">
    <path d="M 47.018 302.2 
L 450 302.2 
L 450 10.8 
L 47.018 10.8 
L 47.018 302.2 
z
" style="fill: none"/>
   </g>
   <g id="FillBetweenPolyCollection_1">
    <path d="M 65.335364 218.199812 
L 65.335364 218.434902 
L 72.811839 203.039738 
L 80.288314 189.96425 
L 87.764788 178.96907 
L 95.241263 169.761647 
L 102.717738 162.019755 
L 110.194213 155.417651 
L 117.670688 149.651923 
L 125.147163 144.46327 
L 132.623638 139.649347 
L 140.100113 135.068797 
L 147.576588 130.637957 
L 155.053063 126.321724 
L 162.529538 122.119999 
L 170.006013 118.052323 
L 177.482488 114.139875 
L 184.958963 110.397226 
L 192.435438 106.823391 
L 199.911913 103.399416 
L 207.388388 100.094223 
L 214.864863 96.8751 
L 222.341338 93.71743 
L 229.817813 90.609546 
L 237.294288 87.551666 
L 244.770763 84.551287 
L 252.247237 81.617663 
L 259.723712 78.757311 
L 267.200187 75.970694 
L 274.676662 73.251349 
L 282.153137 70.588256 
L 289.629612 67.970109 
L 297.106087 65.389029 
L 304.582562 62.841563 
L 312.059037 60.327461 
L 319.535512 57.848117 
L 327.011987 55.405795 
L 334.488462 53.003206 
L 341.964937 50.642138 
L 349.441412 48.322046 
L 356.917887 46.039764 
L 364.394362 43.79013 
L 371.870837 41.566884 
L 379.347312 39.363494 
L 386.823787 37.174571 
L 394.300262 34.998417 
L 401.776737 32.839533 
L 409.253212 30.710072 
L 416.729686 28.623624 
L 424.206161 26.587651 
L 431.682636 24.596572 
L 431.682636 24.045455 
L 431.682636 24.045455 
L 424.206161 26.040687 
L 416.729686 28.079998 
L 409.253212 30.169174 
L 401.776737 32.30106 
L 394.300262 34.46242 
L 386.823787 36.64177 
L 379.347312 38.834157 
L 371.870837 41.041173 
L 364.394362 43.268157 
L 356.917887 45.521597 
L 349.441412 47.807717 
L 341.964937 50.131632 
L 334.488462 52.496502 
L 327.011987 54.90291 
L 319.535512 57.349134 
L 312.059037 59.832502 
L 304.582562 62.350727 
L 297.106087 64.902378 
L 289.629612 67.487686 
L 282.153137 70.110116 
L 274.676662 72.777573 
L 267.200187 75.501371 
L 259.723712 78.292556 
L 252.247237 81.157632 
L 244.770763 84.096159 
L 237.294288 87.101601 
L 229.817813 90.164628 
L 222.341338 93.277666 
L 214.864863 96.440449 
L 207.388388 99.664744 
L 199.911913 102.975271 
L 192.435438 106.404839 
L 184.958963 109.984627 
L 177.482488 113.733651 
L 170.006013 117.652886 
L 162.529538 121.727663 
L 155.053063 125.935673 
L 147.576588 130.258107 
L 140.100113 134.69507 
L 132.623638 139.281874 
L 125.147163 144.102489 
L 117.670688 149.29861 
L 110.194213 155.073082 
L 102.717738 161.685798 
L 95.241263 169.440788 
L 87.764788 178.664377 
L 80.288314 189.679121 
L 72.811839 202.777748 
L 65.335364 218.199812 
z
" clip-path="url(#pbe9ca90c9d)" style="fill: #1f77b4; fill-opacity: 0.45"/>
   </g>
   <g id="FillBetweenPolyCollection_2">
    <path d="M 65.335364 257.65286 
L 65.335364 257.801764 
L 72.811839 249.678179 
L 80.288314 242.841085 
L 87.764788 237.114394 
L 95.241263 232.312684 
L 102.717738 228.251541 
L 110.194213 224.757238 
L 117.670688 221.675934 
L 125.147163 218.881099 
L 132.623638 216.277045 
L 140.100113 213.798844 
L 147.576588 211.408923 
L 155.053063 209.091259 
L 162.529538 206.844167 
L 170.006013 204.672849 
L 177.482488 202.583254 
L 184.958963 200.577937 
L 192.435438 198.653786 
L 199.911913 196.801853 
L 207.388388 195.009536 
L 214.864863 193.264033 
L 222.341338 191.555324 
L 229.817813 189.877875 
L 237.294288 188.230559 
L 244.770763 186.615176 
L 252.247237 185.034541 
L 259.723712 183.49064 
L 267.200187 181.98344 
L 274.676662 180.510531 
L 282.153137 179.067692 
L 289.629612 177.65015 
L 297.106087 176.253728 
L 304.582562 174.875647 
L 312.059037 173.514751 
L 319.535512 172.171379 
L 327.011987 170.847104 
L 334.488462 169.544052 
L 341.964937 168.264022 
L 349.441412 167.007474 
L 356.917887 165.772871 
L 364.394362 164.556731 
L 371.870837 163.354227 
L 379.347312 162.160364 
L 386.823787 160.971476 
L 394.300262 159.786838 
L 401.776737 158.609715 
L 409.253212 157.447034 
L 416.729686 156.308104 
L 424.206161 155.20229 
L 431.682636 154.136737 
L 431.682636 153.616714 
L 431.682636 153.616714 
L 424.206161 154.686499 
L 416.729686 155.796293 
L 409.253212 156.939019 
L 401.776737 158.105421 
L 394.300262 159.286306 
L 386.823787 160.474821 
L 379.347312 161.667754 
L 371.870837 162.86582 
L 364.394362 164.072635 
L 356.917887 165.293135 
L 349.441412 166.532109 
L 341.964937 167.793041 
L 334.488462 169.077488 
L 327.011987 170.385018 
L 319.535512 171.713848 
L 312.059037 173.061858 
L 304.582562 174.427484 
L 297.106087 175.810379 
L 289.629612 177.21169 
L 282.153137 178.634186 
L 274.676662 180.082051 
L 267.200187 181.560089 
L 259.723712 183.072546 
L 252.247237 184.621856 
L 244.770763 186.208055 
L 237.294288 187.829141 
L 229.817813 189.482271 
L 222.341338 191.165613 
L 214.864863 192.880275 
L 207.388388 194.631802 
L 199.911913 196.430276 
L 192.435438 198.288621 
L 184.958963 200.219558 
L 177.482488 202.23212 
L 170.006013 204.329429 
L 162.529538 206.508828 
L 155.053063 208.76418 
L 147.576588 211.090088 
L 140.100113 213.488152 
L 132.623638 215.974495 
L 125.147163 218.587055 
L 117.670688 221.391365 
L 110.194213 224.483824 
L 102.717738 227.991641 
L 95.241263 232.069074 
L 87.764788 236.889889 
L 80.288314 242.638867 
L 72.811839 249.501274 
L 65.335364 257.65286 
z
" clip-path="url(#pbe9ca90c9d)" style="fill: #ff7f0e; fill-opacity: 0.45"/>
   </g>
   <g id="FillBetweenPolyCollection_3">
    <path d="M 65.335364 280.54692 
L 65.335364 280.638982 
L 72.811839 277.518053 
L 80.288314 274.952101 
L 87.764788 272.83801 
L 95.241263 271.078388 
L 102.717738 269.586229 
L 110.194213 268.287867 
L 117.670688 267.125049 
L 125.147163 266.055673 
L 132.623638 265.051994 
L 140.100113 264.097288 
L 147.576588 263.182238 
L 155.053063 262.301929 
L 162.529538 261.45378 
L 170.006013 260.636252 
L 177.482488 259.848082 
L 184.958963 259.08787 
L 192.435438 258.353795 
L 199.911913 257.643496 
L 207.388388 256.954238 
L 214.864863 256.283242 
L 222.341338 255.628017 
L 229.817813 254.986707 
L 237.294288 254.358304 
L 244.770763 253.742542 
L 252.247237 253.139575 
L 259.723712 252.549538 
L 267.200187 251.972301 
L 274.676662 251.407373 
L 282.153137 250.853864 
L 289.629612 250.310508 
L 297.106087 249.775767 
L 304.582562 249.248196 
L 312.059037 248.726875 
L 319.535512 248.211688 
L 327.011987 247.703313 
L 334.488462 247.20292 
L 341.964937 246.71177 
L 349.441412 246.230673 
L 356.917887 245.759378 
L 364.394362 245.296175 
L 371.870837 244.83804 
L 379.347312 244.381488 
L 386.823787 243.923888 
L 394.300262 243.464756 
L 401.776737 243.006423 
L 409.253212 242.553945 
L 416.729686 242.114748 
L 424.206161 241.697684 
L 431.682636 241.311625 
L 431.682636 240.992579 
L 431.682636 240.992579 
L 424.206161 241.381682 
L 416.729686 241.801351 
L 409.253212 242.242831 
L 401.776737 242.697442 
L 394.300262 243.15793 
L 386.823787 243.619362 
L 379.347312 244.079433 
L 371.870837 244.538594 
L 364.394362 244.999419 
L 356.917887 245.465348 
L 349.441412 245.939374 
L 341.964937 246.423178 
L 334.488462 246.917016 
L 327.011987 247.420105 
L 319.535512 247.931225 
L 312.059037 248.449236 
L 304.582562 248.973447 
L 297.106087 249.503959 
L 289.629612 250.041681 
L 282.153137 250.588066 
L 274.676662 251.14466 
L 267.200187 251.712727 
L 259.723712 252.293159 
L 252.247237 252.886467 
L 244.770763 253.492803 
L 237.294288 254.112033 
L 229.817813 254.743976 
L 222.341338 255.388867 
L 214.864863 256.047708 
L 207.388388 256.722377 
L 199.911913 257.415407 
L 192.435438 258.129618 
L 184.958963 258.867801 
L 177.482488 259.63237 
L 170.006013 260.425172 
L 162.529538 261.247562 
L 155.053063 262.100689 
L 147.576588 262.985983 
L 140.100113 263.905989 
L 132.623638 264.865706 
L 125.147163 265.874654 
L 117.670688 266.949864 
L 110.194213 268.119466 
L 102.717738 269.425937 
L 95.241263 270.927825 
L 87.764788 272.699033 
L 80.288314 274.826736 
L 72.811839 277.408356 
L 65.335364 280.54692 
z
" clip-path="url(#pbe9ca90c9d)" style="fill: #2ca02c; fill-opacity: 0.45"/>
   </g>
   <g id="FillBetweenPolyCollection_4">
    <path d="M 65.335364 288.945347 
L 65.335364 288.954545 
L 72.811839 287.65371 
L 80.288314 286.705893 
L 87.764788 286.045968 
L 95.241263 285.612743 
L 102.717738 285.350836 
L 110.194213 285.212065 
L 117.670688 285.15625 
L 125.147163 285.151373 
L 132.623638 285.173166 
L 140.100113 285.20425 
L 147.576588 285.233004 
L 155.053063 285.252338 
L 162.529538 285.258512 
L 170.006013 285.25011 
L 177.482488 285.227202 
L 184.958963 285.190721 
L 192.435438 285.142019 
L 199.911913 285.082593 
L 207.388388 285.013927 
L 214.864863 284.93742 
L 222.341338 284.85437 
L 229.817813 284.765979 
L 237.294288 284.673361 
L 244.770763 284.577546 
L 252.247237 284.479465 
L 259.723712 284.379939 
L 267.200187 284.279662 
L 274.676662 284.179196 
L 282.153137 284.078981 
L 289.629612 283.979363 
L 297.106087 283.880635 
L 304.582562 283.783076 
L 312.059037 283.686996 
L 319.535512 283.592749 
L 327.011987 283.500732 
L 334.488462 283.411361 
L 341.964937 283.32503 
L 349.441412 283.242091 
L 356.917887 283.162862 
L 364.394362 283.087696 
L 371.870837 283.017099 
L 379.347312 282.951909 
L 386.823787 282.893459 
L 394.300262 282.843709 
L 401.776737 282.805271 
L 409.253212 282.781294 
L 416.729686 282.775207 
L 424.206161 282.790343 
L 431.682636 282.829496 
L 431.682636 282.69572 
L 431.682636 282.69572 
L 424.206161 282.661039 
L 416.729686 282.649918 
L 409.253212 282.659606 
L 401.776737 282.686821 
L 394.300262 282.728184 
L 386.823787 282.780594 
L 379.347312 282.841487 
L 371.870837 282.908936 
L 364.394362 282.981636 
L 356.917887 283.058773 
L 349.441412 283.139854 
L 341.964937 283.22454 
L 334.488462 283.312527 
L 327.011987 283.403474 
L 319.535512 283.496996 
L 312.059037 283.592687 
L 304.582562 283.690158 
L 297.106087 283.789059 
L 289.629612 283.889089 
L 282.153137 283.989971 
L 274.676662 284.091417 
L 267.200187 284.193087 
L 259.723712 284.294543 
L 252.247237 284.395225 
L 244.770763 284.494444 
L 237.294288 284.591382 
L 229.817813 284.685109 
L 222.341338 284.774601 
L 214.864863 284.858749 
L 207.388388 284.936359 
L 199.911913 285.006142 
L 192.435438 285.06671 
L 184.958963 285.116593 
L 177.482488 285.154308 
L 170.006013 285.178519 
L 162.529538 285.18832 
L 155.053063 285.183672 
L 147.576588 285.16604 
L 140.100113 285.139229 
L 132.623638 285.110415 
L 125.147163 285.091325 
L 117.670688 285.09946 
L 110.194213 285.159219 
L 102.717738 285.30275 
L 95.241263 285.570352 
L 87.764788 286.010302 
L 80.288314 286.678051 
L 72.811839 287.634824 
L 65.335364 288.945347 
z
" clip-path="url(#pbe9ca90c9d)" style="fill: #d62728; fill-opacity: 0.45"/>
   </g>
   <g id="matplotlib.axis_1">
    <g id="xtick_1">
     <g id="line2d_1">
      <defs>
       <path id="m706ea35ac8" d="M 0 0 
L 0 3.5 
" style="stroke: #000000; stroke-width: 0.8"/>
      </defs>
      <g>
       <use xlink:href="#m706ea35ac8" x="61.634886" y="302.2" style="stroke: #000000; stroke-width: 0.8"/>
      </g>
     </g>
     <g id="text_1">
      <!-- 0 -->
      <g transform="translate(58.453636 316.798437) scale(0.1 -0.1)">
       <defs>
        <path id="DejaVuSans-30" d="M 2034 4250 
Q 1547 4250 1301 3770 
Q 1056 3291 1056 2328 
Q 1056 1369 1301 889 
Q 1547 409 2034 409 
Q 2525 409 2770 889 
Q 3016 1369 3016 2328 
Q 3016 3291 2770 3770 
Q 2525 4250 2034 4250 
z
M 2034 4750 
Q 2819 4750 3233 4129 
Q 3647 3509 3647 2328 
Q 3647 1150 3233 529 
Q 2819 -91 2034 -91 
Q 1250 -91 836 529 
Q 422 1150 422 2328 
Q 422 3509 836 4129 
Q 1250 4750 2034 4750 
z
" transform="scale(0.015625)"/>
       </defs>
       <use xlink:href="#DejaVuSans-30"/>
      </g>
     </g>
    </g>
    <g id="xtick_2">
     <g id="line2d_2">
      <g>
       <use xlink:href="#m706ea35ac8" x="135.644436" y="302.2" style="stroke: #000000; stroke-width: 0.8"/>
      </g>
     </g>
     <g id="text_2">
      <!-- 1 -->
      <g transform="translate(132.463186 316.798437) scale(0.1 -0.1)">
       <defs>
        <path id="DejaVuSans-31" d="M 794 531 
L 1825 531 
L 1825 4091 
L 703 3866 
L 703 4441 
L 1819 4666 
L 2450 4666 
L 2450 531 
L 3481 531 
L 3481 0 
L 794 0 
L 794 531 
z
" transform="scale(0.015625)"/>
       </defs>
       <use xlink:href="#DejaVuSans-31"/>
      </g>
     </g>
    </g>
    <g id="xtick_3">
     <g id="line2d_3">
      <g>
       <use xlink:href="#m706ea35ac8" x="209.653986" y="302.2" style="stroke: #000000; stroke-width: 0.8"/>
      </g>
     </g>
     <g id="text_3">
      <!-- 2 -->
      <g transform="translate(206.472736 316.798437) scale(0.1 -0.1)">
       <defs>
        <path id="DejaVuSans-32" d="M 1228 531 
L 3431 531 
L 3431 0 
L 469 0 
L 469 531 
Q 828 903 1448 1529 
Q 2069 2156 2228 2338 
Q 2531 2678 2651 2914 
Q 2772 3150 2772 3378 
Q 2772 3750 2511 3984 
Q 2250 4219 1831 4219 
Q 1534 4219 1204 4116 
Q 875 4013 500 3803 
L 500 4441 
Q 881 4594 1212 4672 
Q 1544 4750 1819 4750 
Q 2544 4750 2975 4387 
Q 3406 4025 3406 3419 
Q 3406 3131 3298 2873 
Q 3191 2616 2906 2266 
Q 2828 2175 2409 1742 
Q 1991 1309 1228 531 
z
" transform="scale(0.015625)"/>
       </defs>
       <use xlink:href="#DejaVuSans-32"/>
      </g>
     </g>
    </g>
    <g id="xtick_4">
     <g id="line2d_4">
      <g>
       <use xlink:href="#m706ea35ac8" x="283.663536" y="302.2" style="stroke: #000000; stroke-width: 0.8"/>
      </g>
     </g>
     <g id="text_4">
      <!-- 3 -->
      <g transform="translate(280.482286 316.798437) scale(0.1 -0.1)">
       <defs>
        <path id="DejaVuSans-33" d="M 2597 2516 
Q 3050 2419 3304 2112 
Q 3559 1806 3559 1356 
Q 3559 666 3084 287 
Q 2609 -91 1734 -91 
Q 1441 -91 1130 -33 
Q 819 25 488 141 
L 488 750 
Q 750 597 1062 519 
Q 1375 441 1716 441 
Q 2309 441 2620 675 
Q 2931 909 2931 1356 
Q 2931 1769 2642 2001 
Q 2353 2234 1838 2234 
L 1294 2234 
L 1294 2753 
L 1863 2753 
Q 2328 2753 2575 2939 
Q 2822 3125 2822 3475 
Q 2822 3834 2567 4026 
Q 2313 4219 1838 4219 
Q 1578 4219 1281 4162 
Q 984 4106 628 3988 
L 628 4550 
Q 988 4650 1302 4700 
Q 1616 4750 1894 4750 
Q 2613 4750 3031 4423 
Q 3450 4097 3450 3541 
Q 3450 3153 3228 2886 
Q 3006 2619 2597 2516 
z
" transform="scale(0.015625)"/>
       </defs>
       <use xlink:href="#DejaVuSans-33"/>
      </g>
     </g>
    </g>
    <g id="xtick_5">
     <g id="line2d_5">
      <g>
       <use xlink:href="#m706ea35ac8" x="357.673086" y="302.2" style="stroke: #000000; stroke-width: 0.8"/>
      </g>
     </g>
     <g id="text_5">
      <!-- 4 -->
      <g transform="translate(354.491836 316.798437) scale(0.1 -0.1)">
       <defs>
        <path id="DejaVuSans-34" d="M 2419 4116 
L 825 1625 
L 2419 1625 
L 2419 4116 
z
M 2253 4666 
L 3047 4666 
L 3047 1625 
L 3713 1625 
L 3713 1100 
L 3047 1100 
L 3047 0 
L 2419 0 
L 2419 1100 
L 313 1100 
L 313 1709 
L 2253 4666 
z
" transform="scale(0.015625)"/>
       </defs>
       <use xlink:href="#DejaVuSans-34"/>
      </g>
     </g>
    </g>
    <g id="xtick_6">
     <g id="line2d_6">
      <g>
       <use xlink:href="#m706ea35ac8" x="431.682636" y="302.2" style="stroke: #000000; stroke-width: 0.8"/>
      </g>
     </g>
     <g id="text_6">
      <!-- 5 -->
      <g transform="translate(428.501386 316.798437) scale(0.1 -0.1)">
       <defs>
        <path id="DejaVuSans-35" d="M 691 4666 
L 3169 4666 
L 3169 4134 
L 1269 4134 
L 1269 2991 
Q 1406 3038 1543 3061 
Q 1681 3084 1819 3084 
Q 2600 3084 3056 2656 
Q 3513 2228 3513 1497 
Q 3513 744 3044 326 
Q 2575 -91 1722 -91 
Q 1428 -91 1123 -41 
Q 819 9 494 109 
L 494 744 
Q 775 591 1075 516 
Q 1375 441 1709 441 
Q 2250 441 2565 725 
Q 2881 1009 2881 1497 
Q 2881 1984 2565 2268 
Q 2250 2553 1709 2553 
Q 1456 2553 1204 2497 
Q 953 2441 691 2322 
L 691 4666 
z
" transform="scale(0.015625)"/>
       </defs>
       <use xlink:href="#DejaVuSans-35"/>
      </g>
     </g>
    </g>
    <g id="text_7">
     <!-- $W$ (m/hour) -->
     <g transform="translate(220.059 330.476562) scale(0.1 -0.1)">
      <defs>
       <path id="DejaVuSans-Oblique-57" d="M 616 4666 
L 1228 4666 
L 1453 697 
L 3213 4666 
L 3916 4666 
L 4147 697 
L 5888 4666 
L 6528 4666 
L 4453 0 
L 3659 0 
L 3444 3891 
L 1697 0 
L 903 0 
L 616 4666 
z
" transform="scale(0.015625)"/>
       <path id="DejaVuSans-20" transform="scale(0.015625)"/>
       <path id="DejaVuSans-28" d="M 1984 4856 
Q 1566 4138 1362 3434 
Q 1159 2731 1159 2009 
Q 1159 1288 1364 580 
Q 1569 -128 1984 -844 
L 1484 -844 
Q 1016 -109 783 600 
Q 550 1309 550 2009 
Q 550 2706 781 3412 
Q 1013 4119 1484 4856 
L 1984 4856 
z
" transform="scale(0.015625)"/>
       <path id="DejaVuSans-6d" d="M 3328 2828 
Q 3544 3216 3844 3400 
Q 4144 3584 4550 3584 
Q 5097 3584 5394 3201 
Q 5691 2819 5691 2113 
L 5691 0 
L 5113 0 
L 5113 2094 
Q 5113 2597 4934 2840 
Q 4756 3084 4391 3084 
Q 3944 3084 3684 2787 
Q 3425 2491 3425 1978 
L 3425 0 
L 2847 0 
L 2847 2094 
Q 2847 2600 2669 2842 
Q 2491 3084 2119 3084 
Q 1678 3084 1418 2786 
Q 1159 2488 1159 1978 
L 1159 0 
L 581 0 
L 581 3500 
L 1159 3500 
L 1159 2956 
Q 1356 3278 1631 3431 
Q 1906 3584 2284 3584 
Q 2666 3584 2933 3390 
Q 3200 3197 3328 2828 
z
" transform="scale(0.015625)"/>
       <path id="DejaVuSans-2f" d="M 1625 4666 
L 2156 4666 
L 531 -594 
L 0 -594 
L 1625 4666 
z
" transform="scale(0.015625)"/>
       <path id="DejaVuSans-68" d="M 3513 2113 
L 3513 0 
L 2938 0 
L 2938 2094 
Q 2938 2591 2744 2837 
Q 2550 3084 2163 3084 
Q 1697 3084 1428 2787 
Q 1159 2491 1159 1978 
L 1159 0 
L 581 0 
L 581 4863 
L 1159 4863 
L 1159 2956 
Q 1366 3272 1645 3428 
Q 1925 3584 2291 3584 
Q 2894 3584 3203 3211 
Q 3513 2838 3513 2113 
z
" transform="scale(0.015625)"/>
       <path id="DejaVuSans-6f" d="M 1959 3097 
Q 1497 3097 1228 2736 
Q 959 2375 959 1747 
Q 959 1119 1226 758 
Q 1494 397 1959 397 
Q 2419 397 2687 759 
Q 2956 1122 2956 1747 
Q 2956 2369 2687 2733 
Q 2419 3097 1959 3097 
z
M 1959 3584 
Q 2709 3584 3137 3096 
Q 3566 2609 3566 1747 
Q 3566 888 3137 398 
Q 2709 -91 1959 -91 
Q 1206 -91 779 398 
Q 353 888 353 1747 
Q 353 2609 779 3096 
Q 1206 3584 1959 3584 
z
" transform="scale(0.015625)"/>
       <path id="DejaVuSans-75" d="M 544 1381 
L 544 3500 
L 1119 3500 
L 1119 1403 
Q 1119 906 1312 657 
Q 1506 409 1894 409 
Q 2359 409 2629 706 
Q 2900 1003 2900 1516 
L 2900 3500 
L 3475 3500 
L 3475 0 
L 2900 0 
L 2900 538 
Q 2691 219 2414 64 
Q 2138 -91 1772 -91 
Q 1169 -91 856 284 
Q 544 659 544 1381 
z
M 1991 3584 
L 1991 3584 
z
" transform="scale(0.015625)"/>
       <path id="DejaVuSans-72" d="M 2631 2963 
Q 2534 3019 2420 3045 
Q 2306 3072 2169 3072 
Q 1681 3072 1420 2755 
Q 1159 2438 1159 1844 
L 1159 0 
L 581 0 
L 581 3500 
L 1159 3500 
L 1159 2956 
Q 1341 3275 1631 3429 
Q 1922 3584 2338 3584 
Q 2397 3584 2469 3576 
Q 2541 3569 2628 3553 
L 2631 2963 
z
" transform="scale(0.015625)"/>
       <path id="DejaVuSans-29" d="M 513 4856 
L 1013 4856 
Q 1481 4119 1714 3412 
Q 1947 2706 1947 2009 
Q 1947 1309 1714 600 
Q 1481 -109 1013 -844 
L 513 -844 
Q 928 -128 1133 580 
Q 1338 1288 1338 2009 
Q 1338 2731 1133 3434 
Q 928 4138 513 4856 
z
" transform="scale(0.015625)"/>
      </defs>
      <use xlink:href="#DejaVuSans-Oblique-57" transform="translate(0 0.015625)"/>
      <use xlink:href="#DejaVuSans-20" transform="translate(98.876953 0.015625)"/>
      <use xlink:href="#DejaVuSans-28" transform="translate(130.664062 0.015625)"/>
      <use xlink:href="#DejaVuSans-6d" transform="translate(169.677734 0.015625)"/>
      <use xlink:href="#DejaVuSans-2f" transform="translate(267.089844 0.015625)"/>
      <use xlink:href="#DejaVuSans-68" transform="translate(300.78125 0.015625)"/>
      <use xlink:href="#DejaVuSans-6f" transform="translate(364.160156 0.015625)"/>
      <use xlink:href="#DejaVuSans-75" transform="translate(425.341797 0.015625)"/>
      <use xlink:href="#DejaVuSans-72" transform="translate(488.720703 0.015625)"/>
      <use xlink:href="#DejaVuSans-29" transform="translate(529.833984 0.015625)"/>
     </g>
    </g>
   </g>
   <g id="matplotlib.axis_2">
    <g id="ytick_1">
     <g id="line2d_7">
      <defs>
       <path id="m5c0976d1b8" d="M 0 0 
L -3.5 0 
" style="stroke: #000000; stroke-width: 0.8"/>
      </defs>
      <g>
       <use xlink:href="#m5c0976d1b8" x="47.018" y="292.339099" style="stroke: #000000; stroke-width: 0.8"/>
      </g>
     </g>
     <g id="text_8">
      <!-- 0 -->
      <g transform="translate(33.6555 296.138318) scale(0.1 -0.1)">
       <use xlink:href="#DejaVuSans-30"/>
      </g>
     </g>
    </g>
    <g id="ytick_2">
     <g id="line2d_8">
      <g>
       <use xlink:href="#m5c0976d1b8" x="47.018" y="254.940183" style="stroke: #000000; stroke-width: 0.8"/>
      </g>
     </g>
     <g id="text_9">
      <!-- 5 -->
      <g transform="translate(33.6555 258.739402) scale(0.1 -0.1)">
       <use xlink:href="#DejaVuSans-35"/>
      </g>
     </g>
    </g>
    <g id="ytick_3">
     <g id="line2d_9">
      <g>
       <use xlink:href="#m5c0976d1b8" x="47.018" y="217.541268" style="stroke: #000000; stroke-width: 0.8"/>
      </g>
     </g>
     <g id="text_10">
      <!-- 10 -->
      <g transform="translate(27.293 221.340487) scale(0.1 -0.1)">
       <use xlink:href="#DejaVuSans-31"/>
       <use xlink:href="#DejaVuSans-30" transform="translate(63.623047 0)"/>
      </g>
     </g>
    </g>
    <g id="ytick_4">
     <g id="line2d_10">
      <g>
       <use xlink:href="#m5c0976d1b8" x="47.018" y="180.142352" style="stroke: #000000; stroke-width: 0.8"/>
      </g>
     </g>
     <g id="text_11">
      <!-- 15 -->
      <g transform="translate(27.293 183.941571) scale(0.1 -0.1)">
       <use xlink:href="#DejaVuSans-31"/>
       <use xlink:href="#DejaVuSans-35" transform="translate(63.623047 0)"/>
      </g>
     </g>
    </g>
    <g id="ytick_5">
     <g id="line2d_11">
      <g>
       <use xlink:href="#m5c0976d1b8" x="47.018" y="142.743437" style="stroke: #000000; stroke-width: 0.8"/>
      </g>
     </g>
     <g id="text_12">
      <!-- 20 -->
      <g transform="translate(27.293 146.542655) scale(0.1 -0.1)">
       <use xlink:href="#DejaVuSans-32"/>
       <use xlink:href="#DejaVuSans-30" transform="translate(63.623047 0)"/>
      </g>
     </g>
    </g>
    <g id="ytick_6">
     <g id="line2d_12">
      <g>
       <use xlink:href="#m5c0976d1b8" x="47.018" y="105.344521" style="stroke: #000000; stroke-width: 0.8"/>
      </g>
     </g>
     <g id="text_13">
      <!-- 25 -->
      <g transform="translate(27.293 109.14374) scale(0.1 -0.1)">
       <use xlink:href="#DejaVuSans-32"/>
       <use xlink:href="#DejaVuSans-35" transform="translate(63.623047 0)"/>
      </g>
     </g>
    </g>
    <g id="ytick_7">
     <g id="line2d_13">
      <g>
       <use xlink:href="#m5c0976d1b8" x="47.018" y="67.945605" style="stroke: #000000; stroke-width: 0.8"/>
      </g>
     </g>
     <g id="text_14">
      <!-- 30 -->
      <g transform="translate(27.293 71.744824) scale(0.1 -0.1)">
       <use xlink:href="#DejaVuSans-33"/>
       <use xlink:href="#DejaVuSans-30" transform="translate(63.623047 0)"/>
      </g>
     </g>
    </g>
    <g id="ytick_8">
     <g id="line2d_14">
      <g>
       <use xlink:href="#m5c0976d1b8" x="47.018" y="30.54669" style="stroke: #000000; stroke-width: 0.8"/>
      </g>
     </g>
     <g id="text_15">
      <!-- 35 -->
      <g transform="translate(27.293 34.345908) scale(0.1 -0.1)">
       <use xlink:href="#DejaVuSans-33"/>
       <use xlink:href="#DejaVuSans-35" transform="translate(63.623047 0)"/>
      </g>
     </g>
    </g>
    <g id="text_16">
     <!-- $Q_{lc}$ (kW) -->
     <g transform="translate(21.213312 176.8) rotate(-90) scale(0.1 -0.1)">
      <defs>
       <path id="DejaVuSans-Oblique-51" d="M 2309 -84 
Q 2275 -88 2237 -89 
Q 2200 -91 2125 -91 
Q 1250 -91 756 411 
Q 263 913 263 1797 
Q 263 2319 452 2844 
Q 641 3369 978 3788 
Q 1369 4269 1858 4509 
Q 2347 4750 2938 4750 
Q 3794 4750 4287 4245 
Q 4781 3741 4781 2869 
Q 4781 1928 4265 1147 
Q 3750 366 2919 44 
L 3553 -825 
L 2847 -825 
L 2309 -84 
z
M 2919 4238 
Q 2400 4238 2003 3986 
Q 1606 3734 1313 3219 
Q 1125 2891 1026 2522 
Q 928 2153 928 1778 
Q 928 1128 1239 775 
Q 1550 422 2119 422 
Q 2631 422 3032 676 
Q 3434 931 3719 1434 
Q 3909 1772 4009 2142 
Q 4109 2513 4109 2881 
Q 4109 3528 3796 3883 
Q 3484 4238 2919 4238 
z
" transform="scale(0.015625)"/>
       <path id="DejaVuSans-Oblique-6c" d="M 1172 4863 
L 1747 4863 
L 800 0 
L 225 0 
L 1172 4863 
z
" transform="scale(0.015625)"/>
       <path id="DejaVuSans-Oblique-63" d="M 3431 3366 
L 3316 2797 
Q 3109 2947 2876 3022 
Q 2644 3097 2394 3097 
Q 2119 3097 1870 3000 
Q 1622 2903 1453 2725 
Q 1184 2453 1037 2087 
Q 891 1722 891 1331 
Q 891 859 1127 628 
Q 1363 397 1844 397 
Q 2081 397 2348 469 
Q 2616 541 2906 684 
L 2797 116 
Q 2547 13 2283 -39 
Q 2019 -91 1741 -91 
Q 1044 -91 669 257 
Q 294 606 294 1253 
Q 294 1797 489 2255 
Q 684 2713 1069 3078 
Q 1331 3328 1684 3456 
Q 2038 3584 2456 3584 
Q 2700 3584 2940 3529 
Q 3181 3475 3431 3366 
z
" transform="scale(0.015625)"/>
       <path id="DejaVuSans-6b" d="M 581 4863 
L 1159 4863 
L 1159 1991 
L 2875 3500 
L 3609 3500 
L 1753 1863 
L 3688 0 
L 2938 0 
L 1159 1709 
L 1159 0 
L 581 0 
L 581 4863 
z
" transform="scale(0.015625)"/>
       <path id="DejaVuSans-57" d="M 213 4666 
L 850 4666 
L 1831 722 
L 2809 4666 
L 3519 4666 
L 4500 722 
L 5478 4666 
L 6119 4666 
L 4947 0 
L 4153 0 
L 3169 4050 
L 2175 0 
L 1381 0 
L 213 4666 
z
" transform="scale(0.015625)"/>
      </defs>
      <use xlink:href="#DejaVuSans-Oblique-51" transform="translate(0 0.015625)"/>
      <use xlink:href="#DejaVuSans-Oblique-6c" transform="translate(78.710938 -16.390625) scale(0.7)"/>
      <use xlink:href="#DejaVuSans-Oblique-63" transform="translate(98.15918 -16.390625) scale(0.7)"/>
      <use xlink:href="#DejaVuSans-20" transform="translate(139.379883 0.015625)"/>
      <use xlink:href="#DejaVuSans-28" transform="translate(171.166992 0.015625)"/>
      <use xlink:href="#DejaVuSans-6b" transform="translate(210.180664 0.015625)"/>
      <use xlink:href="#DejaVuSans-57" transform="translate(268.09082 0.015625)"/>
      <use xlink:href="#DejaVuSans-29" transform="translate(366.967773 0.015625)"/>
     </g>
    </g>
   </g>
   <g id="line2d_15">
    <path d="M 65.335364 218.314245 
L 72.811839 202.905153 
L 80.288314 189.819276 
L 87.764788 178.814412 
L 95.241263 169.598862 
L 102.717738 161.85047 
L 110.194213 155.243039 
L 117.670688 149.473308 
L 125.147163 144.281071 
L 132.623638 139.464235 
L 140.100113 134.88156 
L 147.576588 130.448688 
L 155.053063 126.130302 
L 162.529538 121.925433 
L 170.006013 117.853722 
L 177.482488 113.937388 
L 184.958963 110.191962 
L 192.435438 106.615877 
L 199.911913 103.190089 
L 207.388388 99.883497 
L 214.864863 96.662805 
L 222.341338 93.50327 
L 229.817813 90.393429 
L 237.294288 87.333535 
L 244.770763 84.331169 
L 252.247237 81.395642 
L 259.723712 78.533136 
L 267.200187 75.744435 
L 274.676662 73.023051 
L 282.153137 70.357958 
L 289.629612 67.737857 
L 297.106087 65.154851 
L 304.582562 62.605472 
L 312.059037 60.08948 
L 319.535512 57.608297 
L 327.011987 55.164209 
L 334.488462 52.759896 
L 341.964937 50.396847 
L 349.441412 48.07456 
L 356.917887 45.790127 
L 364.394362 43.538345 
L 371.870837 41.312969 
L 379.347312 39.107484 
L 386.823787 36.916479 
L 394.300262 34.738274 
L 401.776737 32.577818 
L 409.253212 30.446808 
L 416.729686 28.358767 
L 424.206161 26.321087 
L 431.682636 24.328116 
" clip-path="url(#pbe9ca90c9d)" style="fill: none; stroke: #1f77b4; stroke-width: 1.5; stroke-linecap: square"/>
   </g>
   <g id="line2d_16">
    <path d="M 65.335364 257.723185 
L 72.811839 249.584375 
L 80.288314 242.733085 
L 87.764788 236.994119 
L 95.241263 232.182377 
L 102.717738 228.113207 
L 110.194213 224.612228 
L 117.670688 221.525064 
L 125.147163 218.725208 
L 132.623638 216.116645 
L 140.100113 213.634127 
L 147.576588 211.23989 
L 155.053063 208.917858 
L 162.529538 206.666333 
L 170.006013 204.490674 
L 177.482488 202.396935 
L 184.958963 200.387732 
L 192.435438 198.459945 
L 199.911913 196.604578 
L 207.388388 194.808964 
L 214.864863 193.060234 
L 222.341338 191.348335 
L 229.817813 189.667727 
L 237.294288 188.017293 
L 244.770763 186.398852 
L 252.247237 184.815233 
L 259.723712 183.268432 
L 267.200187 181.758414 
L 274.676662 180.282754 
L 282.153137 178.83722 
L 289.629612 177.417021 
L 297.106087 176.017977 
L 304.582562 174.637314 
L 312.059037 173.273882 
L 319.535512 171.928023 
L 327.011987 170.601307 
L 334.488462 169.295856 
L 341.964937 168.013458 
L 349.441412 166.754558 
L 356.917887 165.517608 
L 364.394362 164.299125 
L 371.870837 163.094304 
L 379.347312 161.898185 
L 386.823787 160.707129 
L 394.300262 159.520419 
L 401.776737 158.34129 
L 409.253212 157.176624 
L 416.729686 156.035662 
L 424.206161 154.927706 
L 431.682636 153.859867 
" clip-path="url(#pbe9ca90c9d)" style="fill: none; stroke: #ff7f0e; stroke-width: 1.5; stroke-linecap: square"/>
   </g>
   <g id="line2d_17">
    <path d="M 65.335364 280.589089 
L 72.811839 277.458592 
L 80.288314 274.884158 
L 87.764788 272.762708 
L 95.241263 270.99683 
L 102.717738 269.49942 
L 110.194213 268.196678 
L 117.670688 267.03019 
L 125.147163 265.957652 
L 132.623638 264.951112 
L 140.100113 263.993686 
L 147.576588 263.075948 
L 155.053063 262.192941 
L 162.529538 261.3421 
L 170.006013 260.521945 
L 177.482488 259.731271 
L 184.958963 258.968702 
L 192.435438 258.232403 
L 199.911913 257.519986 
L 207.388388 256.828685 
L 214.864863 256.1557 
L 222.341338 255.498518 
L 229.817813 254.85527 
L 237.294288 254.224951 
L 244.770763 253.607312 
L 252.247237 253.002521 
L 259.723712 252.410714 
L 267.200187 251.831747 
L 274.676662 251.265121 
L 282.153137 250.709942 
L 289.629612 250.164948 
L 297.106087 249.628594 
L 304.582562 249.099432 
L 312.059037 248.576547 
L 319.535512 248.05983 
L 327.011987 247.549968 
L 334.488462 247.048115 
L 341.964937 246.555509 
L 349.441412 246.072948 
L 356.917887 245.600178 
L 364.394362 245.135503 
L 371.870837 244.675916 
L 379.347312 244.217954 
L 386.823787 243.759015 
L 394.300262 243.298634 
L 401.776737 242.839128 
L 409.253212 242.38549 
L 416.729686 241.945055 
L 424.206161 241.526587 
L 431.682636 241.138898 
" clip-path="url(#pbe9ca90c9d)" style="fill: none; stroke: #2ca02c; stroke-width: 1.5; stroke-linecap: square"/>
   </g>
   <g id="line2d_18">
    <path d="M 65.335364 288.950474 
L 72.811839 287.644097 
L 80.288314 286.691382 
L 87.764788 286.02732 
L 95.241263 285.590561 
L 102.717738 285.325677 
L 110.194213 285.184432 
L 117.670688 285.126577 
L 125.147163 285.120022 
L 132.623638 285.140429 
L 140.100113 285.170351 
L 147.576588 285.198113 
L 155.053063 285.216578 
L 162.529538 285.22202 
L 170.006013 285.212946 
L 177.482488 285.189408 
L 184.958963 285.152326 
L 192.435438 285.103047 
L 199.911913 285.043058 
L 207.388388 284.973838 
L 214.864863 284.896782 
L 222.341338 284.813182 
L 229.817813 284.724238 
L 237.294288 284.631061 
L 244.770763 284.534679 
L 252.247237 284.436022 
L 259.723712 284.335911 
L 267.200187 284.235038 
L 274.676662 284.133964 
L 282.153137 284.033127 
L 289.629612 283.932872 
L 297.106087 283.833489 
L 304.582562 283.735257 
L 312.059037 283.63848 
L 319.535512 283.543512 
L 327.011987 283.450746 
L 334.488462 283.360592 
L 341.964937 283.273442 
L 349.441412 283.189642 
L 356.917887 283.109505 
L 364.394362 283.033376 
L 371.870837 282.961755 
L 379.347312 282.895467 
L 386.823787 282.835834 
L 394.300262 282.784799 
L 401.776737 282.744952 
L 409.253212 282.719418 
L 416.729686 282.711602 
L 424.206161 282.724812 
L 431.682636 282.761816 
" clip-path="url(#pbe9ca90c9d)" style="fill: none; stroke: #d62728; stroke-width: 1.5; stroke-linecap: square"/>
   </g>
   <g id="patch_3">
    <path d="M 47.018 302.2 
L 47.018 10.8 
" style="fill: none; stroke: #000000; stroke-width: 0.8; stroke-linejoin: miter; stroke-linecap: square"/>
   </g>
   <g id="patch_4">
    <path d="M 450 302.2 
L 450 10.8 
" style="fill: none; stroke: #000000; stroke-width: 0.8; stroke-linejoin: miter; stroke-linecap: square"/>
   </g>
   <g id="patch_5">
    <path d="M 47.018 302.2 
L 450 302.2 
" style="fill: none; stroke: #000000; stroke-width: 0.8; stroke-linejoin: miter; stroke-linecap: square"/>
   </g>
   <g id="patch_6">
    <path d="M 47.018 10.8 
L 450 10.8 
" style="fill: none; stroke: #000000; stroke-width: 0.8; stroke-linejoin: miter; stroke-linecap: square"/>
   </g>
   <g id="legend_1">
    <g id="patch_7">
     <path d="M 54.018 77.5125 
L 132.888313 77.5125 
Q 134.888313 77.5125 134.888313 75.5125 
L 134.888313 17.8 
Q 134.888313 15.8 132.888313 15.8 
L 54.018 15.8 
Q 52.018 15.8 52.018 17.8 
L 52.018 75.5125 
Q 52.018 77.5125 54.018 77.5125 
z
" style="fill: #ffffff; opacity: 0.8; stroke: #cccccc; stroke-linejoin: miter"/>
    </g>
    <g id="line2d_19">
     <path d="M 56.018 23.898438 
L 66.018 23.898438 
L 76.018 23.898438 
" style="fill: none; stroke: #1f77b4; stroke-width: 1.5; stroke-linecap: square"/>
    </g>
    <g id="text_17">
     <!-- Ts=100 K -->
     <g transform="translate(84.018 27.398438) scale(0.1 -0.1)">
      <defs>
       <path id="DejaVuSans-54" d="M -19 4666 
L 3928 4666 
L 3928 4134 
L 2272 4134 
L 2272 0 
L 1638 0 
L 1638 4134 
L -19 4134 
L -19 4666 
z
" transform="scale(0.015625)"/>
       <path id="DejaVuSans-73" d="M 2834 3397 
L 2834 2853 
Q 2591 2978 2328 3040 
Q 2066 3103 1784 3103 
Q 1356 3103 1142 2972 
Q 928 2841 928 2578 
Q 928 2378 1081 2264 
Q 1234 2150 1697 2047 
L 1894 2003 
Q 2506 1872 2764 1633 
Q 3022 1394 3022 966 
Q 3022 478 2636 193 
Q 2250 -91 1575 -91 
Q 1294 -91 989 -36 
Q 684 19 347 128 
L 347 722 
Q 666 556 975 473 
Q 1284 391 1588 391 
Q 1994 391 2212 530 
Q 2431 669 2431 922 
Q 2431 1156 2273 1281 
Q 2116 1406 1581 1522 
L 1381 1569 
Q 847 1681 609 1914 
Q 372 2147 372 2553 
Q 372 3047 722 3315 
Q 1072 3584 1716 3584 
Q 2034 3584 2315 3537 
Q 2597 3491 2834 3397 
z
" transform="scale(0.015625)"/>
       <path id="DejaVuSans-3d" d="M 678 2906 
L 4684 2906 
L 4684 2381 
L 678 2381 
L 678 2906 
z
M 678 1631 
L 4684 1631 
L 4684 1100 
L 678 1100 
L 678 1631 
z
" transform="scale(0.015625)"/>
       <path id="DejaVuSans-4b" d="M 628 4666 
L 1259 4666 
L 1259 2694 
L 3353 4666 
L 4166 4666 
L 1850 2491 
L 4331 0 
L 3500 0 
L 1259 2247 
L 1259 0 
L 628 0 
L 628 4666 
z
" transform="scale(0.015625)"/>
      </defs>
      <use xlink:href="#DejaVuSans-54"/>
      <use xlink:href="#DejaVuSans-73" transform="translate(44.583984 0)"/>
      <use xlink:href="#DejaVuSans-3d" transform="translate(96.683594 0)"/>
      <use xlink:href="#DejaVuSans-31" transform="translate(180.472656 0)"/>
      <use xlink:href="#DejaVuSans-30" transform="translate(244.095703 0)"/>
      <use xlink:href="#DejaVuSans-30" transform="translate(307.71875 0)"/>
      <use xlink:href="#DejaVuSans-20" transform="translate(371.341797 0)"/>
      <use xlink:href="#DejaVuSans-4b" transform="translate(403.128906 0)"/>
     </g>
    </g>
    <g id="line2d_20">
     <path d="M 56.018 38.576563 
L 66.018 38.576563 
L 76.018 38.576563 
" style="fill: none; stroke: #ff7f0e; stroke-width: 1.5; stroke-linecap: square"/>
    </g>
    <g id="text_18">
     <!-- Ts=160 K -->
     <g transform="translate(84.018 42.076563) scale(0.1 -0.1)">
      <defs>
       <path id="DejaVuSans-36" d="M 2113 2584 
Q 1688 2584 1439 2293 
Q 1191 2003 1191 1497 
Q 1191 994 1439 701 
Q 1688 409 2113 409 
Q 2538 409 2786 701 
Q 3034 994 3034 1497 
Q 3034 2003 2786 2293 
Q 2538 2584 2113 2584 
z
M 3366 4563 
L 3366 3988 
Q 3128 4100 2886 4159 
Q 2644 4219 2406 4219 
Q 1781 4219 1451 3797 
Q 1122 3375 1075 2522 
Q 1259 2794 1537 2939 
Q 1816 3084 2150 3084 
Q 2853 3084 3261 2657 
Q 3669 2231 3669 1497 
Q 3669 778 3244 343 
Q 2819 -91 2113 -91 
Q 1303 -91 875 529 
Q 447 1150 447 2328 
Q 447 3434 972 4092 
Q 1497 4750 2381 4750 
Q 2619 4750 2861 4703 
Q 3103 4656 3366 4563 
z
" transform="scale(0.015625)"/>
      </defs>
      <use xlink:href="#DejaVuSans-54"/>
      <use xlink:href="#DejaVuSans-73" transform="translate(44.583984 0)"/>
      <use xlink:href="#DejaVuSans-3d" transform="translate(96.683594 0)"/>
      <use xlink:href="#DejaVuSans-31" transform="translate(180.472656 0)"/>
      <use xlink:href="#DejaVuSans-36" transform="translate(244.095703 0)"/>
      <use xlink:href="#DejaVuSans-30" transform="translate(307.71875 0)"/>
      <use xlink:href="#DejaVuSans-20" transform="translate(371.341797 0)"/>
      <use xlink:href="#DejaVuSans-4b" transform="translate(403.128906 0)"/>
     </g>
    </g>
    <g id="line2d_21">
     <path d="M 56.018 53.254687 
L 66.018 53.254687 
L 76.018 53.254687 
" style="fill: none; stroke: #2ca02c; stroke-width: 1.5; stroke-linecap: square"/>
    </g>
    <g id="text_19">
     <!-- Ts=220 K -->
     <g transform="translate(84.018 56.754687) scale(0.1 -0.1)">
      <use xlink:href="#DejaVuSans-54"/>
      <use xlink:href="#DejaVuSans-73" transform="translate(44.583984 0)"/>
      <use xlink:href="#DejaVuSans-3d" transform="translate(96.683594 0)"/>
      <use xlink:href="#DejaVuSans-32" transform="translate(180.472656 0)"/>
      <use xlink:href="#DejaVuSans-32" transform="translate(244.095703 0)"/>
      <use xlink:href="#DejaVuSans-30" transform="translate(307.71875 0)"/>
      <use xlink:href="#DejaVuSans-20" transform="translate(371.341797 0)"/>
      <use xlink:href="#DejaVuSans-4b" transform="translate(403.128906 0)"/>
     </g>
    </g>
    <g id="line2d_22">
     <path d="M 56.018 67.932813 
L 66.018 67.932813 
L 76.018 67.932813 
" style="fill: none; stroke: #d62728; stroke-width: 1.5; stroke-linecap: square"/>
    </g>
    <g id="text_20">
     <!-- Ts=260 K -->
     <g transform="translate(84.018 71.432813) scale(0.1 -0.1)">
      <use xlink:href="#DejaVuSans-54"/>
      <use xlink:href="#DejaVuSans-73" transform="translate(44.583984 0)"/>
      <use xlink:href="#DejaVuSans-3d" transform="translate(96.683594 0)"/>
      <use xlink:href="#DejaVuSans-32" transform="translate(180.472656 0)"/>
      <use xlink:href="#DejaVuSans-36" transform="translate(244.095703 0)"/>
      <use xlink:href="#DejaVuSans-30" transform="translate(307.71875 0)"/>
      <use xlink:href="#DejaVuSans-20" transform="translate(371.341797 0)"/>
      <use xlink:href="#DejaVuSans-4b" transform="translate(403.128906 0)"/>
     </g>
    </g>
   </g>
  </g>
 </g>
 <defs>
  <clipPath id="pbe9ca90c9d">
   <rect x="47.018" y="10.8" width="402.982" height="291.4"/>
  </clipPath>
 </defs>
</svg>
