<?xml version="1.0" encoding="utf-8" standalone="no"?>
<!DOCTYPE svg PUBLIC "-//W3C//DTD SVG 1.1//EN"
  "http://www.w3.org/Graphics/SVG/1.1/DTD/svg11.dtd">
<svg xmlns:xlink="http://www.w3.org/1999/xlink" width="460.8pt" height="345.6pt" viewBox="0 0 460.8 345.6" xmlns="http://www.w3.org/2000/svg" version="1.1">
 <metadata>
  <rdf:RDF xmlns:dc="http://purl.org/dc/elements/1.1/" xmlns:cc="http://creativecommons.org/ns#" xmlns:rdf="http://www.w3.org/1999/02/22-rdf-syntax-ns#">
   <cc:Work>
    <dc:type rdf:resource="http://purl.org/dc/dcmitype/StillImage"/>
    <dc:date>2026-02-12T05:52:06.647640</dc:date>
    <dc:format>image/svg+xml</dc:format>
    <dc:creator>
     <cc:Agent>
      <dc:title>Matplotlib v3.10.8, https://matplotlib.org/</dc:title>
     </cc:Agent>
    </dc:creator>
   </cc:Work>
  </rdf:RDF>
 </metadata>
 <defs>
  <style type="text/css">*{stroke-linejoin: round; stroke-linecap: butt}</style>
 </defs>
 <g id="figure_1">
  <g id="patch_1">
   <path d="M 0 345.6 
L 460.8 345.6 
L 460.8 0 
L 0 0 
L 0 345.6 
z
" style="fill: none"/>
  </g>
  <g id="axes_1">
   <g id="patch_2">
    <path d="M 47.018 302.2 
L 450 302.2 
L 450 10.8 
L 47.018 10.8 
L 47.018 302.2 
z
" style="fill: none"/>
   </g>
   <g id="FillBetweenPolyCollection_1">
    <path d="M 65.335364 218.179798 
L 65.335364 218.421387 
L 72.811839 203.024333 
L 80.288314 189.951344 
L 87.764788 178.958305 
L 95.241263 169.751668 
L 102.717738 162.010282 
L 110.194213 155.408609 
L 117.670688 149.643279 
L 125.147163 144.455005 
L 132.623638 139.641449 
L 140.100113 135.061271 
L 147.576588 130.630796 
L 155.053063 126.314892 
L 162.529538 122.113445 
L 170.006013 118.045109 
L 177.482488 114.132001 
L 184.958963 110.388687 
L 192.435438 106.814201 
L 199.911913 103.389603 
L 207.388388 100.083804 
L 214.864863 96.864599 
L 222.341338 93.707247 
L 229.817813 90.599607 
L 237.294288 87.541927 
L 244.770763 84.541741 
L 252.247237 81.608336 
L 259.723712 78.748219 
L 267.200187 75.961825 
L 274.676662 73.242678 
L 282.153137 70.579774 
L 289.629612 67.961836 
L 297.106087 65.380971 
L 304.582562 62.8337 
L 312.059037 60.319697 
L 319.535512 57.840083 
L 327.011987 55.397463 
L 334.488462 52.99457 
L 341.964937 50.633228 
L 349.441412 48.312902 
L 356.917887 46.030412 
L 364.394362 43.780564 
L 371.870837 41.557099 
L 379.347312 39.353482 
L 386.823787 37.164302 
L 394.300262 34.987901 
L 401.776737 32.829245 
L 409.253212 30.700014 
L 416.729686 28.613713 
L 424.206161 26.57774 
L 431.682636 24.586491 
L 431.682636 24.045455 
L 431.682636 24.045455 
L 424.206161 26.040361 
L 416.729686 28.079867 
L 409.253212 30.169689 
L 401.776737 32.302478 
L 394.300262 34.464736 
L 386.823787 36.644782 
L 379.347312 38.83752 
L 371.870837 41.044435 
L 364.394362 43.27132 
L 356.917887 45.524664 
L 349.441412 47.810692 
L 341.964937 50.134504 
L 334.488462 52.49925 
L 327.011987 54.905521 
L 319.535512 57.35161 
L 312.059037 59.834857 
L 304.582562 62.352964 
L 297.106087 64.904489 
L 289.629612 67.489662 
L 282.153137 70.11196 
L 274.676662 72.779291 
L 267.200187 75.50296 
L 259.723712 78.29281 
L 252.247237 81.157197 
L 244.770763 84.095866 
L 237.294288 87.101439 
L 229.817813 90.164603 
L 222.341338 93.277792 
L 214.864863 96.440677 
L 207.388388 99.664737 
L 199.911913 102.975037 
L 192.435438 106.404372 
L 184.958963 109.983912 
L 177.482488 113.732682 
L 170.006013 117.651669 
L 162.529538 121.726203 
L 155.053063 125.933949 
L 147.576588 130.254718 
L 140.100113 134.689927 
L 132.623638 139.274924 
L 125.147163 144.093724 
L 117.670688 149.287964 
L 110.194213 155.060451 
L 102.717738 161.671062 
L 95.241263 169.423811 
L 87.764788 178.644936 
L 80.288314 189.65684 
L 72.811839 202.755438 
L 65.335364 218.179798 
z
" clip-path="url(#pb80be22b8d)" style="fill: #1f77b4; fill-opacity: 0.45"/>
   </g>
   <g id="FillBetweenPolyCollection_2">
    <path d="M 65.335364 257.648491 
L 65.335364 257.804358 
L 72.811839 249.681598 
L 80.288314 242.845313 
L 87.764788 237.119379 
L 95.241263 232.318338 
L 102.717738 228.257761 
L 110.194213 224.763915 
L 117.670688 221.682973 
L 125.147163 218.888428 
L 132.623638 216.284627 
L 140.100113 213.806649 
L 147.576588 211.416847 
L 155.053063 209.099264 
L 162.529538 206.852224 
L 170.006013 204.680949 
L 177.482488 202.5914 
L 184.958963 200.586142 
L 192.435438 198.662056 
L 199.911913 196.810208 
L 207.388388 195.01806 
L 214.864863 193.272724 
L 222.341338 191.564181 
L 229.817813 189.886897 
L 237.294288 188.239746 
L 244.770763 186.624522 
L 252.247237 185.044043 
L 259.723712 183.500294 
L 267.200187 181.993242 
L 274.676662 180.520475 
L 282.153137 179.077778 
L 289.629612 177.660375 
L 297.106087 176.26409 
L 304.582562 174.886144 
L 312.059037 173.525381 
L 319.535512 172.182138 
L 327.011987 170.857989 
L 334.488462 169.555061 
L 341.964937 168.275154 
L 349.441412 167.01873 
L 356.917887 165.784251 
L 364.394362 164.568237 
L 371.870837 163.365857 
L 379.347312 162.172113 
L 386.823787 160.983337 
L 394.300262 159.798802 
L 401.776737 158.621776 
L 409.253212 157.459191 
L 416.729686 156.320364 
L 424.206161 155.214666 
L 431.682636 154.149244 
L 431.682636 153.59776 
L 431.682636 153.59776 
L 424.206161 154.66771 
L 416.729686 155.777656 
L 409.253212 156.920521 
L 401.776737 158.087056 
L 394.300262 159.268074 
L 386.823787 160.456729 
L 379.347312 161.649812 
L 371.870837 162.848035 
L 364.394362 164.055012 
L 356.917887 165.275677 
L 349.441412 166.514814 
L 341.964937 167.775909 
L 334.488462 169.06052 
L 327.011987 170.368214 
L 319.535512 171.697211 
L 312.059037 173.045393 
L 304.582562 174.411194 
L 297.106087 175.794267 
L 289.629612 177.195759 
L 282.153137 178.61844 
L 274.676662 180.066491 
L 267.200187 181.544719 
L 259.723712 183.05737 
L 252.247237 184.606879 
L 244.770763 186.193282 
L 237.294288 187.814577 
L 229.817813 189.467922 
L 222.341338 191.151481 
L 214.864863 192.866362 
L 207.388388 194.61811 
L 199.911913 196.41681 
L 192.435438 198.275389 
L 184.958963 200.206574 
L 177.482488 202.219403 
L 170.006013 204.316999 
L 162.529538 206.496698 
L 155.053063 208.752356 
L 147.576588 211.078565 
L 140.100113 213.476919 
L 132.623638 215.963547 
L 125.147163 218.576402 
L 117.670688 221.381045 
L 110.194213 224.473908 
L 102.717738 227.982223 
L 95.241263 232.060316 
L 87.764788 236.882193 
L 80.288314 242.632315 
L 72.811839 249.495863 
L 65.335364 257.648491 
z
" clip-path="url(#pb80be22b8d)" style="fill: #ff7f0e; fill-opacity: 0.45"/>
   </g>
   <g id="FillBetweenPolyCollection_3">
    <path d="M 65.335364 280.546357 
L 65.335364 280.640538 
L 72.811839 277.520169 
L 80.288314 274.954746 
L 87.764788 272.841134 
L 95.241263 271.081929 
L 102.717738 269.590121 
L 110.194213 268.292046 
L 117.670688 267.129458 
L 125.147163 266.060273 
L 132.623638 265.05676 
L 140.100113 264.102213 
L 147.576588 263.187324 
L 155.053063 262.307183 
L 162.529538 261.459206 
L 170.006013 260.641848 
L 177.482488 259.853838 
L 184.958963 259.093774 
L 192.435438 258.359837 
L 199.911913 257.649669 
L 207.388388 256.960535 
L 214.864863 256.289661 
L 222.341338 255.634557 
L 229.817813 254.993368 
L 237.294288 254.365084 
L 244.770763 253.74944 
L 252.247237 253.146586 
L 259.723712 252.556658 
L 267.200187 251.979529 
L 274.676662 251.414706 
L 282.153137 250.861301 
L 289.629612 250.318048 
L 297.106087 249.783408 
L 304.582562 249.255936 
L 312.059037 248.734713 
L 319.535512 248.219619 
L 327.011987 247.711335 
L 334.488462 247.211031 
L 341.964937 246.71997 
L 349.441412 246.238966 
L 356.917887 245.767766 
L 364.394362 245.304659 
L 371.870837 244.84662 
L 379.347312 244.390158 
L 386.823787 243.93264 
L 394.300262 243.473578 
L 401.776737 243.015307 
L 409.253212 242.562889 
L 416.729686 242.123765 
L 424.206161 241.706798 
L 431.682636 241.320869 
L 431.682636 240.993936 
L 431.682636 240.993936 
L 424.206161 241.383027 
L 416.729686 241.802681 
L 409.253212 242.24414 
L 401.776737 242.698728 
L 394.300262 243.159193 
L 386.823787 243.620602 
L 379.347312 244.080652 
L 371.870837 244.539794 
L 364.394362 245.0006 
L 356.917887 245.466509 
L 349.441412 245.940515 
L 341.964937 246.424298 
L 334.488462 246.918114 
L 327.011987 247.421179 
L 319.535512 247.932276 
L 312.059037 248.450263 
L 304.582562 248.97445 
L 297.106087 249.504938 
L 289.629612 250.042636 
L 282.153137 250.588997 
L 274.676662 251.145566 
L 267.200187 251.713607 
L 259.723712 252.294013 
L 252.247237 252.887293 
L 244.770763 253.493602 
L 237.294288 254.112803 
L 229.817813 254.744717 
L 222.341338 255.389578 
L 214.864863 256.048389 
L 207.388388 256.723028 
L 199.911913 257.416026 
L 192.435438 258.130203 
L 184.958963 258.868352 
L 177.482488 259.632886 
L 170.006013 260.42565 
L 162.529538 261.248002 
L 155.053063 262.101089 
L 147.576588 262.986341 
L 140.100113 263.906303 
L 132.623638 264.865973 
L 125.147163 265.874871 
L 117.670688 266.950029 
L 110.194213 268.119574 
L 102.717738 269.425981 
L 95.241263 270.927793 
L 87.764788 272.698908 
L 80.288314 274.826496 
L 72.811839 277.407972 
L 65.335364 280.546357 
z
" clip-path="url(#pb80be22b8d)" style="fill: #2ca02c; fill-opacity: 0.45"/>
   </g>
   <g id="FillBetweenPolyCollection_4">
    <path d="M 65.335364 288.943757 
L 65.335364 288.954545 
L 72.811839 287.654406 
L 80.288314 286.706388 
L 87.764788 286.046555 
L 95.241263 285.613639 
L 102.717738 285.352185 
L 110.194213 285.213949 
L 117.670688 285.158702 
L 125.147163 285.154386 
L 132.623638 285.176713 
L 140.100113 285.208293 
L 147.576588 285.237499 
L 155.053063 285.257241 
L 162.529538 285.263783 
L 170.006013 285.255711 
L 177.482488 285.233102 
L 184.958963 285.196891 
L 192.435438 285.148435 
L 199.911913 285.089236 
L 207.388388 285.02078 
L 214.864863 284.94447 
L 222.341338 284.861607 
L 229.817813 284.773396 
L 237.294288 284.680953 
L 244.770763 284.58531 
L 252.247237 284.487401 
L 259.723712 284.388049 
L 267.200187 284.287949 
L 274.676662 284.187664 
L 282.153137 284.087637 
L 289.629612 283.988216 
L 297.106087 283.889692 
L 304.582562 283.792349 
L 312.059037 283.696497 
L 319.535512 283.602493 
L 327.011987 283.510737 
L 334.488462 283.421647 
L 341.964937 283.335621 
L 349.441412 283.253013 
L 356.917887 283.174145 
L 364.394362 283.099372 
L 371.870837 283.029206 
L 379.347312 282.964488 
L 386.823787 282.906559 
L 394.300262 282.857389 
L 401.776737 282.819599 
L 409.253212 282.796349 
L 416.729686 282.791079 
L 424.206161 282.807129 
L 431.682636 282.847282 
L 431.682636 282.694067 
L 431.682636 282.694067 
L 424.206161 282.659381 
L 416.729686 282.648257 
L 409.253212 282.657943 
L 401.776737 282.685156 
L 394.300262 282.726518 
L 386.823787 282.778928 
L 379.347312 282.83982 
L 371.870837 282.90727 
L 364.394362 282.97997 
L 356.917887 283.057108 
L 349.441412 283.13819 
L 341.964937 283.222879 
L 334.488462 283.31087 
L 327.011987 283.40182 
L 319.535512 283.495344 
L 312.059037 283.591038 
L 304.582562 283.68851 
L 297.106087 283.787414 
L 289.629612 283.887445 
L 282.153137 283.988329 
L 274.676662 284.089778 
L 267.200187 284.19145 
L 259.723712 284.292907 
L 252.247237 284.393592 
L 244.770763 284.492813 
L 237.294288 284.589752 
L 229.817813 284.683481 
L 222.341338 284.772975 
L 214.864863 284.857126 
L 207.388388 284.934738 
L 199.911913 285.004524 
L 192.435438 285.065094 
L 184.958963 285.114979 
L 177.482488 285.152697 
L 170.006013 285.176927 
L 162.529538 285.1868 
L 155.053063 285.182233 
L 147.576588 285.164691 
L 140.100113 285.137978 
L 132.623638 285.109265 
L 125.147163 285.090273 
L 117.670688 285.098494 
L 110.194213 285.15831 
L 102.717738 285.301851 
L 95.241263 285.56939 
L 87.764788 286.009175 
L 80.288314 286.676624 
L 72.811839 287.633102 
L 65.335364 288.943757 
z
" clip-path="url(#pb80be22b8d)" style="fill: #d62728; fill-opacity: 0.45"/>
   </g>
   <g id="matplotlib.axis_1">
    <g id="xtick_1">
     <g id="line2d_1">
      <defs>
       <path id="m568b5cf71f" d="M 0 0 
L 0 3.5 
" style="stroke: #000000; stroke-width: 0.8"/>
      </defs>
      <g>
       <use xlink:href="#m568b5cf71f" x="61.634886" y="302.2" style="stroke: #000000; stroke-width: 0.8"/>
      </g>
     </g>
     <g id="text_1">
      <!-- 0 -->
      <g transform="translate(58.453636 316.798437) scale(0.1 -0.1)">
       <defs>
        <path id="DejaVuSans-30" d="M 2034 4250 
Q 1547 4250 1301 3770 
Q 1056 3291 1056 2328 
Q 1056 1369 1301 889 
Q 1547 409 2034 409 
Q 2525 409 2770 889 
Q 3016 1369 3016 2328 
Q 3016 3291 2770 3770 
Q 2525 4250 2034 4250 
z
M 2034 4750 
Q 2819 4750 3233 4129 
Q 3647 3509 3647 2328 
Q 3647 1150 3233 529 
Q 2819 -91 2034 -91 
Q 1250 -91 836 529 
Q 422 1150 422 2328 
Q 422 3509 836 4129 
Q 1250 4750 2034 4750 
z
" transform="scale(0.015625)"/>
       </defs>
       <use xlink:href="#DejaVuSans-30"/>
      </g>
     </g>
    </g>
    <g id="xtick_2">
     <g id="line2d_2">
      <g>
       <use xlink:href="#m568b5cf71f" x="135.644436" y="302.2" style="stroke: #000000; stroke-width: 0.8"/>
      </g>
     </g>
     <g id="text_2">
      <!-- 1 -->
      <g transform="translate(132.463186 316.798437) scale(0.1 -0.1)">
       <defs>
        <path id="DejaVuSans-31" d="M 794 531 
L 1825 531 
L 1825 4091 
L 703 3866 
L 703 4441 
L 1819 4666 
L 2450 4666 
L 2450 531 
L 3481 531 
L 3481 0 
L 794 0 
L 794 531 
z
" transform="scale(0.015625)"/>
       </defs>
       <use xlink:href="#DejaVuSans-31"/>
      </g>
     </g>
    </g>
    <g id="xtick_3">
     <g id="line2d_3">
      <g>
       <use xlink:href="#m568b5cf71f" x="209.653986" y="302.2" style="stroke: #000000; stroke-width: 0.8"/>
      </g>
     </g>
     <g id="text_3">
      <!-- 2 -->
      <g transform="translate(206.472736 316.798437) scale(0.1 -0.1)">
       <defs>
        <path id="DejaVuSans-32" d="M 1228 531 
L 3431 531 
L 3431 0 
L 469 0 
L 469 531 
Q 828 903 1448 1529 
Q 2069 2156 2228 2338 
Q 2531 2678 2651 2914 
Q 2772 3150 2772 3378 
Q 2772 3750 2511 3984 
Q 2250 4219 1831 4219 
Q 1534 4219 1204 4116 
Q 875 4013 500 3803 
L 500 4441 
Q 881 4594 1212 4672 
Q 1544 4750 1819 4750 
Q 2544 4750 2975 4387 
Q 3406 4025 3406 3419 
Q 3406 3131 3298 2873 
Q 3191 2616 2906 2266 
Q 2828 2175 2409 1742 
Q 1991 1309 1228 531 
z
" transform="scale(0.015625)"/>
       </defs>
       <use xlink:href="#DejaVuSans-32"/>
      </g>
     </g>
    </g>
    <g id="xtick_4">
     <g id="line2d_4">
      <g>
       <use xlink:href="#m568b5cf71f" x="283.663536" y="302.2" style="stroke: #000000; stroke-width: 0.8"/>
      </g>
     </g>
     <g id="text_4">
      <!-- 3 -->
      <g transform="translate(280.482286 316.798437) scale(0.1 -0.1)">
       <defs>
        <path id="DejaVuSans-33" d="M 2597 2516 
Q 3050 2419 3304 2112 
Q 3559 1806 3559 1356 
Q 3559 666 3084 287 
Q 2609 -91 1734 -91 
Q 1441 -91 1130 -33 
Q 819 25 488 141 
L 488 750 
Q 750 597 1062 519 
Q 1375 441 1716 441 
Q 2309 441 2620 675 
Q 2931 909 2931 1356 
Q 2931 1769 2642 2001 
Q 2353 2234 1838 2234 
L 1294 2234 
L 1294 2753 
L 1863 2753 
Q 2328 2753 2575 2939 
Q 2822 3125 2822 3475 
Q 2822 3834 2567 4026 
Q 2313 4219 1838 4219 
Q 1578 4219 1281 4162 
Q 984 4106 628 3988 
L 628 4550 
Q 988 4650 1302 4700 
Q 1616 4750 1894 4750 
Q 2613 4750 3031 4423 
Q 3450 4097 3450 3541 
Q 3450 3153 3228 2886 
Q 3006 2619 2597 2516 
z
" transform="scale(0.015625)"/>
       </defs>
       <use xlink:href="#DejaVuSans-33"/>
      </g>
     </g>
    </g>
    <g id="xtick_5">
     <g id="line2d_5">
      <g>
       <use xlink:href="#m568b5cf71f" x="357.673086" y="302.2" style="stroke: #000000; stroke-width: 0.8"/>
      </g>
     </g>
     <g id="text_5">
      <!-- 4 -->
      <g transform="translate(354.491836 316.798437) scale(0.1 -0.1)">
       <defs>
        <path id="DejaVuSans-34" d="M 2419 4116 
L 825 1625 
L 2419 1625 
L 2419 4116 
z
M 2253 4666 
L 3047 4666 
L 3047 1625 
L 3713 1625 
L 3713 1100 
L 3047 1100 
L 3047 0 
L 2419 0 
L 2419 1100 
L 313 1100 
L 313 1709 
L 2253 4666 
z
" transform="scale(0.015625)"/>
       </defs>
       <use xlink:href="#DejaVuSans-34"/>
      </g>
     </g>
    </g>
    <g id="xtick_6">
     <g id="line2d_6">
      <g>
       <use xlink:href="#m568b5cf71f" x="431.682636" y="302.2" style="stroke: #000000; stroke-width: 0.8"/>
      </g>
     </g>
     <g id="text_6">
      <!-- 5 -->
      <g transform="translate(428.501386 316.798437) scale(0.1 -0.1)">
       <defs>
        <path id="DejaVuSans-35" d="M 691 4666 
L 3169 4666 
L 3169 4134 
L 1269 4134 
L 1269 2991 
Q 1406 3038 1543 3061 
Q 1681 3084 1819 3084 
Q 2600 3084 3056 2656 
Q 3513 2228 3513 1497 
Q 3513 744 3044 326 
Q 2575 -91 1722 -91 
Q 1428 -91 1123 -41 
Q 819 9 494 109 
L 494 744 
Q 775 591 1075 516 
Q 1375 441 1709 441 
Q 2250 441 2565 725 
Q 2881 1009 2881 1497 
Q 2881 1984 2565 2268 
Q 2250 2553 1709 2553 
Q 1456 2553 1204 2497 
Q 953 2441 691 2322 
L 691 4666 
z
" transform="scale(0.015625)"/>
       </defs>
       <use xlink:href="#DejaVuSans-35"/>
      </g>
     </g>
    </g>
    <g id="text_7">
     <!-- $W$ (m/hour) -->
     <g transform="translate(220.059 330.476562) scale(0.1 -0.1)">
      <defs>
       <path id="DejaVuSans-Oblique-57" d="M 616 4666 
L 1228 4666 
L 1453 697 
L 3213 4666 
L 3916 4666 
L 4147 697 
L 5888 4666 
L 6528 4666 
L 4453 0 
L 3659 0 
L 3444 3891 
L 1697 0 
L 903 0 
L 616 4666 
z
" transform="scale(0.015625)"/>
       <path id="DejaVuSans-20" transform="scale(0.015625)"/>
       <path id="DejaVuSans-28" d="M 1984 4856 
Q 1566 4138 1362 3434 
Q 1159 2731 1159 2009 
Q 1159 1288 1364 580 
Q 1569 -128 1984 -844 
L 1484 -844 
Q 1016 -109 783 600 
Q 550 1309 550 2009 
Q 550 2706 781 3412 
Q 1013 4119 1484 4856 
L 1984 4856 
z
" transform="scale(0.015625)"/>
       <path id="DejaVuSans-6d" d="M 3328 2828 
Q 3544 3216 3844 3400 
Q 4144 3584 4550 3584 
Q 5097 3584 5394 3201 
Q 5691 2819 5691 2113 
L 5691 0 
L 5113 0 
L 5113 2094 
Q 5113 2597 4934 2840 
Q 4756 3084 4391 3084 
Q 3944 3084 3684 2787 
Q 3425 2491 3425 1978 
L 3425 0 
L 2847 0 
L 2847 2094 
Q 2847 2600 2669 2842 
Q 2491 3084 2119 3084 
Q 1678 3084 1418 2786 
Q 1159 2488 1159 1978 
L 1159 0 
L 581 0 
L 581 3500 
L 1159 3500 
L 1159 2956 
Q 1356 3278 1631 3431 
Q 1906 3584 2284 3584 
Q 2666 3584 2933 3390 
Q 3200 3197 3328 2828 
z
" transform="scale(0.015625)"/>
       <path id="DejaVuSans-2f" d="M 1625 4666 
L 2156 4666 
L 531 -594 
L 0 -594 
L 1625 4666 
z
" transform="scale(0.015625)"/>
       <path id="DejaVuSans-68" d="M 3513 2113 
L 3513 0 
L 2938 0 
L 2938 2094 
Q 2938 2591 2744 2837 
Q 2550 3084 2163 3084 
Q 1697 3084 1428 2787 
Q 1159 2491 1159 1978 
L 1159 0 
L 581 0 
L 581 4863 
L 1159 4863 
L 1159 2956 
Q 1366 3272 1645 3428 
Q 1925 3584 2291 3584 
Q 2894 3584 3203 3211 
Q 3513 2838 3513 2113 
z
" transform="scale(0.015625)"/>
       <path id="DejaVuSans-6f" d="M 1959 3097 
Q 1497 3097 1228 2736 
Q 959 2375 959 1747 
Q 959 1119 1226 758 
Q 1494 397 1959 397 
Q 2419 397 2687 759 
Q 2956 1122 2956 1747 
Q 2956 2369 2687 2733 
Q 2419 3097 1959 3097 
z
M 1959 3584 
Q 2709 3584 3137 3096 
Q 3566 2609 3566 1747 
Q 3566 888 3137 398 
Q 2709 -91 1959 -91 
Q 1206 -91 779 398 
Q 353 888 353 1747 
Q 353 2609 779 3096 
Q 1206 3584 1959 3584 
z
" transform="scale(0.015625)"/>
       <path id="DejaVuSans-75" d="M 544 1381 
L 544 3500 
L 1119 3500 
L 1119 1403 
Q 1119 906 1312 657 
Q 1506 409 1894 409 
Q 2359 409 2629 706 
Q 2900 1003 2900 1516 
L 2900 3500 
L 3475 3500 
L 3475 0 
L 2900 0 
L 2900 538 
Q 2691 219 2414 64 
Q 2138 -91 1772 -91 
Q 1169 -91 856 284 
Q 544 659 544 1381 
z
M 1991 3584 
L 1991 3584 
z
" transform="scale(0.015625)"/>
       <path id="DejaVuSans-72" d="M 2631 2963 
Q 2534 3019 2420 3045 
Q 2306 3072 2169 3072 
Q 1681 3072 1420 2755 
Q 1159 2438 1159 1844 
L 1159 0 
L 581 0 
L 581 3500 
L 1159 3500 
L 1159 2956 
Q 1341 3275 1631 3429 
Q 1922 3584 2338 3584 
Q 2397 3584 2469 3576 
Q 2541 3569 2628 3553 
L 2631 2963 
z
" transform="scale(0.015625)"/>
       <path id="DejaVuSans-29" d="M 513 4856 
L 1013 4856 
Q 1481 4119 1714 3412 
Q 1947 2706 1947 2009 
Q 1947 1309 1714 600 
Q 1481 -109 1013 -844 
L 513 -844 
Q 928 -128 1133 580 
Q 1338 1288 1338 2009 
Q 1338 2731 1133 3434 
Q 928 4138 513 4856 
z
" transform="scale(0.015625)"/>
      </defs>
      <use xlink:href="#DejaVuSans-Oblique-57" transform="translate(0 0.015625)"/>
      <use xlink:href="#DejaVuSans-20" transform="translate(98.876953 0.015625)"/>
      <use xlink:href="#DejaVuSans-28" transform="translate(130.664062 0.015625)"/>
      <use xlink:href="#DejaVuSans-6d" transform="translate(169.677734 0.015625)"/>
      <use xlink:href="#DejaVuSans-2f" transform="translate(267.089844 0.015625)"/>
      <use xlink:href="#DejaVuSans-68" transform="translate(300.78125 0.015625)"/>
      <use xlink:href="#DejaVuSans-6f" transform="translate(364.160156 0.015625)"/>
      <use xlink:href="#DejaVuSans-75" transform="translate(425.341797 0.015625)"/>
      <use xlink:href="#DejaVuSans-72" transform="translate(488.720703 0.015625)"/>
      <use xlink:href="#DejaVuSans-29" transform="translate(529.833984 0.015625)"/>
     </g>
    </g>
   </g>
   <g id="matplotlib.axis_2">
    <g id="ytick_1">
     <g id="line2d_7">
      <defs>
       <path id="mc8e3bbe173" d="M 0 0 
L -3.5 0 
" style="stroke: #000000; stroke-width: 0.8"/>
      </defs>
      <g>
       <use xlink:href="#mc8e3bbe173" x="47.018" y="292.337499" style="stroke: #000000; stroke-width: 0.8"/>
      </g>
     </g>
     <g id="text_8">
      <!-- 0 -->
      <g transform="translate(33.6555 296.136717) scale(0.1 -0.1)">
       <use xlink:href="#DejaVuSans-30"/>
      </g>
     </g>
    </g>
    <g id="ytick_2">
     <g id="line2d_8">
      <g>
       <use xlink:href="#mc8e3bbe173" x="47.018" y="254.937235" style="stroke: #000000; stroke-width: 0.8"/>
      </g>
     </g>
     <g id="text_9">
      <!-- 5 -->
      <g transform="translate(33.6555 258.736454) scale(0.1 -0.1)">
       <use xlink:href="#DejaVuSans-35"/>
      </g>
     </g>
    </g>
    <g id="ytick_3">
     <g id="line2d_9">
      <g>
       <use xlink:href="#mc8e3bbe173" x="47.018" y="217.536972" style="stroke: #000000; stroke-width: 0.8"/>
      </g>
     </g>
     <g id="text_10">
      <!-- 10 -->
      <g transform="translate(27.293 221.336191) scale(0.1 -0.1)">
       <use xlink:href="#DejaVuSans-31"/>
       <use xlink:href="#DejaVuSans-30" transform="translate(63.623047 0)"/>
      </g>
     </g>
    </g>
    <g id="ytick_4">
     <g id="line2d_10">
      <g>
       <use xlink:href="#mc8e3bbe173" x="47.018" y="180.136709" style="stroke: #000000; stroke-width: 0.8"/>
      </g>
     </g>
     <g id="text_11">
      <!-- 15 -->
      <g transform="translate(27.293 183.935928) scale(0.1 -0.1)">
       <use xlink:href="#DejaVuSans-31"/>
       <use xlink:href="#DejaVuSans-35" transform="translate(63.623047 0)"/>
      </g>
     </g>
    </g>
    <g id="ytick_5">
     <g id="line2d_11">
      <g>
       <use xlink:href="#mc8e3bbe173" x="47.018" y="142.736446" style="stroke: #000000; stroke-width: 0.8"/>
      </g>
     </g>
     <g id="text_12">
      <!-- 20 -->
      <g transform="translate(27.293 146.535664) scale(0.1 -0.1)">
       <use xlink:href="#DejaVuSans-32"/>
       <use xlink:href="#DejaVuSans-30" transform="translate(63.623047 0)"/>
      </g>
     </g>
    </g>
    <g id="ytick_6">
     <g id="line2d_12">
      <g>
       <use xlink:href="#mc8e3bbe173" x="47.018" y="105.336182" style="stroke: #000000; stroke-width: 0.8"/>
      </g>
     </g>
     <g id="text_13">
      <!-- 25 -->
      <g transform="translate(27.293 109.135401) scale(0.1 -0.1)">
       <use xlink:href="#DejaVuSans-32"/>
       <use xlink:href="#DejaVuSans-35" transform="translate(63.623047 0)"/>
      </g>
     </g>
    </g>
    <g id="ytick_7">
     <g id="line2d_13">
      <g>
       <use xlink:href="#mc8e3bbe173" x="47.018" y="67.935919" style="stroke: #000000; stroke-width: 0.8"/>
      </g>
     </g>
     <g id="text_14">
      <!-- 30 -->
      <g transform="translate(27.293 71.735138) scale(0.1 -0.1)">
       <use xlink:href="#DejaVuSans-33"/>
       <use xlink:href="#DejaVuSans-30" transform="translate(63.623047 0)"/>
      </g>
     </g>
    </g>
    <g id="ytick_8">
     <g id="line2d_14">
      <g>
       <use xlink:href="#mc8e3bbe173" x="47.018" y="30.535656" style="stroke: #000000; stroke-width: 0.8"/>
      </g>
     </g>
     <g id="text_15">
      <!-- 35 -->
      <g transform="translate(27.293 34.334874) scale(0.1 -0.1)">
       <use xlink:href="#DejaVuSans-33"/>
       <use xlink:href="#DejaVuSans-35" transform="translate(63.623047 0)"/>
      </g>
     </g>
    </g>
    <g id="text_16">
     <!-- $Q_{lc}$ (kW) -->
     <g transform="translate(21.213312 176.8) rotate(-90) scale(0.1 -0.1)">
      <defs>
       <path id="DejaVuSans-Oblique-51" d="M 2309 -84 
Q 2275 -88 2237 -89 
Q 2200 -91 2125 -91 
Q 1250 -91 756 411 
Q 263 913 263 1797 
Q 263 2319 452 2844 
Q 641 3369 978 3788 
Q 1369 4269 1858 4509 
Q 2347 4750 2938 4750 
Q 3794 4750 4287 4245 
Q 4781 3741 4781 2869 
Q 4781 1928 4265 1147 
Q 3750 366 2919 44 
L 3553 -825 
L 2847 -825 
L 2309 -84 
z
M 2919 4238 
Q 2400 4238 2003 3986 
Q 1606 3734 1313 3219 
Q 1125 2891 1026 2522 
Q 928 2153 928 1778 
Q 928 1128 1239 775 
Q 1550 422 2119 422 
Q 2631 422 3032 676 
Q 3434 931 3719 1434 
Q 3909 1772 4009 2142 
Q 4109 2513 4109 2881 
Q 4109 3528 3796 3883 
Q 3484 4238 2919 4238 
z
" transform="scale(0.015625)"/>
       <path id="DejaVuSans-Oblique-6c" d="M 1172 4863 
L 1747 4863 
L 800 0 
L 225 0 
L 1172 4863 
z
" transform="scale(0.015625)"/>
       <path id="DejaVuSans-Oblique-63" d="M 3431 3366 
L 3316 2797 
Q 3109 2947 2876 3022 
Q 2644 3097 2394 3097 
Q 2119 3097 1870 3000 
Q 1622 2903 1453 2725 
Q 1184 2453 1037 2087 
Q 891 1722 891 1331 
Q 891 859 1127 628 
Q 1363 397 1844 397 
Q 2081 397 2348 469 
Q 2616 541 2906 684 
L 2797 116 
Q 2547 13 2283 -39 
Q 2019 -91 1741 -91 
Q 1044 -91 669 257 
Q 294 606 294 1253 
Q 294 1797 489 2255 
Q 684 2713 1069 3078 
Q 1331 3328 1684 3456 
Q 2038 3584 2456 3584 
Q 2700 3584 2940 3529 
Q 3181 3475 3431 3366 
z
" transform="scale(0.015625)"/>
       <path id="DejaVuSans-6b" d="M 581 4863 
L 1159 4863 
L 1159 1991 
L 2875 3500 
L 3609 3500 
L 1753 1863 
L 3688 0 
L 2938 0 
L 1159 1709 
L 1159 0 
L 581 0 
L 581 4863 
z
" transform="scale(0.015625)"/>
       <path id="DejaVuSans-57" d="M 213 4666 
L 850 4666 
L 1831 722 
L 2809 4666 
L 3519 4666 
L 4500 722 
L 5478 4666 
L 6119 4666 
L 4947 0 
L 4153 0 
L 3169 4050 
L 2175 0 
L 1381 0 
L 213 4666 
z
" transform="scale(0.015625)"/>
      </defs>
      <use xlink:href="#DejaVuSans-Oblique-51" transform="translate(0 0.015625)"/>
      <use xlink:href="#DejaVuSans-Oblique-6c" transform="translate(78.710938 -16.390625) scale(0.7)"/>
      <use xlink:href="#DejaVuSans-Oblique-63" transform="translate(98.15918 -16.390625) scale(0.7)"/>
      <use xlink:href="#DejaVuSans-20" transform="translate(139.379883 0.015625)"/>
      <use xlink:href="#DejaVuSans-28" transform="translate(171.166992 0.015625)"/>
      <use xlink:href="#DejaVuSans-6b" transform="translate(210.180664 0.015625)"/>
      <use xlink:href="#DejaVuSans-57" transform="translate(268.09082 0.015625)"/>
      <use xlink:href="#DejaVuSans-29" transform="translate(366.967773 0.015625)"/>
     </g>
    </g>
   </g>
   <g id="line2d_15">
    <path d="M 65.335364 218.302374 
L 72.811839 202.89631 
L 80.288314 189.811478 
L 87.764788 178.809044 
L 95.241263 169.594232 
L 102.717738 161.846164 
L 110.194213 155.24019 
L 117.670688 149.471413 
L 125.147163 144.279709 
L 132.623638 139.462814 
L 140.100113 134.879621 
L 147.576588 130.446566 
L 155.053063 126.126977 
L 162.529538 121.92241 
L 170.006013 117.850659 
L 177.482488 113.934196 
L 184.958963 110.188474 
L 192.435438 106.611826 
L 199.911913 103.185308 
L 207.388388 99.878202 
L 214.864863 96.657424 
L 222.341338 93.498118 
L 229.817813 90.388124 
L 237.294288 87.327999 
L 244.770763 84.325408 
L 252.247237 81.389676 
L 259.723712 78.527176 
L 267.200187 75.738327 
L 274.676662 73.016803 
L 282.153137 70.351575 
L 289.629612 67.730764 
L 297.106087 65.147009 
L 304.582562 62.596928 
L 312.059037 60.080277 
L 319.535512 57.598764 
L 327.011987 55.154819 
L 334.488462 52.750657 
L 341.964937 50.387982 
L 349.441412 48.066185 
L 356.917887 45.782161 
L 364.394362 43.530811 
L 371.870837 41.305891 
L 379.347312 39.100891 
L 386.823787 36.910474 
L 394.300262 34.733069 
L 401.776737 32.573651 
L 409.253212 30.443805 
L 416.729686 28.356794 
L 424.206161 26.319417 
L 431.682636 24.325909 
" clip-path="url(#pb80be22b8d)" style="fill: none; stroke: #1f77b4; stroke-width: 1.5; stroke-linecap: square"/>
   </g>
   <g id="line2d_16">
    <path d="M 65.335364 257.73349 
L 72.811839 249.596946 
L 80.288314 242.747975 
L 87.764788 237.010343 
L 95.241263 232.19885 
L 102.717738 228.12945 
L 110.194213 224.628413 
L 117.670688 221.541792 
L 125.147163 218.742465 
L 132.623638 216.134392 
L 140.100113 213.652337 
L 147.576588 211.258546 
L 155.053063 208.936945 
L 162.529538 206.685897 
L 170.006013 204.510705 
L 177.482488 202.417414 
L 184.958963 200.408632 
L 192.435438 198.481241 
L 199.911913 196.626248 
L 207.388388 194.830993 
L 214.864863 193.082614 
L 222.341338 191.371061 
L 229.817813 189.690794 
L 237.294288 188.040698 
L 244.770763 186.422589 
L 252.247237 184.839294 
L 259.723712 183.292808 
L 267.200187 181.783095 
L 274.676662 180.307736 
L 282.153137 178.862562 
L 289.629612 177.44272 
L 297.106087 176.044026 
L 304.582562 174.663708 
L 312.059037 173.300613 
L 319.535512 171.955082 
L 327.011987 170.628686 
L 334.488462 169.323549 
L 341.964937 168.041464 
L 349.441412 166.782881 
L 356.917887 165.546263 
L 364.394362 164.328153 
L 371.870837 163.123701 
L 379.347312 161.927931 
L 386.823787 160.737189 
L 394.300262 159.550752 
L 401.776737 158.37187 
L 409.253212 157.207452 
L 416.729686 156.066775 
L 424.206161 154.959171 
L 431.682636 153.891752 
" clip-path="url(#pb80be22b8d)" style="fill: none; stroke: #ff7f0e; stroke-width: 1.5; stroke-linecap: square"/>
   </g>
   <g id="line2d_17">
    <path d="M 65.335364 280.595451 
L 72.811839 277.466432 
L 80.288314 274.893347 
L 87.764788 272.773093 
L 95.241263 271.008243 
L 102.717738 269.511697 
L 110.194213 268.209671 
L 117.670688 267.043769 
L 125.147163 265.971725 
L 132.623638 264.965626 
L 140.100113 264.008619 
L 147.576588 263.091301 
L 155.053063 262.208723 
L 162.529538 261.358317 
L 170.006013 260.538587 
L 177.482488 259.748317 
L 184.958963 258.986125 
L 192.435438 258.250179 
L 199.911913 257.538097 
L 207.388388 256.847118 
L 214.864863 256.174448 
L 222.341338 255.517576 
L 229.817813 254.874636 
L 237.294288 254.244623 
L 244.770763 253.627283 
L 252.247237 253.022782 
L 259.723712 252.431255 
L 267.200187 251.852563 
L 274.676662 251.286207 
L 282.153137 250.731295 
L 289.629612 250.186562 
L 297.106087 249.650466 
L 304.582562 249.121557 
L 312.059037 248.598921 
L 319.535512 248.082446 
L 327.011987 247.572818 
L 334.488462 247.071194 
L 341.964937 246.578819 
L 349.441412 246.096492 
L 356.917887 245.623962 
L 364.394362 245.159528 
L 371.870837 244.700179 
L 379.347312 244.242444 
L 386.823787 243.783716 
L 394.300262 243.323524 
L 401.776737 242.86419 
L 409.253212 242.410723 
L 416.729686 241.970481 
L 424.206161 241.552248 
L 431.682636 241.164852 
" clip-path="url(#pb80be22b8d)" style="fill: none; stroke: #2ca02c; stroke-width: 1.5; stroke-linecap: square"/>
   </g>
   <g id="line2d_18">
    <path d="M 65.335364 288.94938 
L 72.811839 287.643914 
L 80.288314 286.691929 
L 87.764788 286.028501 
L 95.241263 285.592329 
L 102.717738 285.327891 
L 110.194213 285.187009 
L 117.670688 285.129496 
L 125.147163 285.123231 
L 132.623638 285.14392 
L 140.100113 285.174139 
L 147.576588 285.202164 
L 155.053063 285.220862 
L 162.529538 285.226466 
L 170.006013 285.217538 
L 177.482488 285.194135 
L 184.958963 285.157143 
L 192.435438 285.10795 
L 199.911913 285.048047 
L 207.388388 284.978912 
L 214.864863 284.901941 
L 222.341338 284.818425 
L 229.817813 284.729558 
L 237.294288 284.636461 
L 244.770763 284.540161 
L 252.247237 284.441588 
L 259.723712 284.341563 
L 267.200187 284.240777 
L 274.676662 284.139791 
L 282.153137 284.039045 
L 289.629612 283.938882 
L 297.106087 283.839592 
L 304.582562 283.741455 
L 312.059037 283.644776 
L 319.535512 283.549907 
L 327.011987 283.457242 
L 334.488462 283.367192 
L 341.964937 283.280148 
L 349.441412 283.196458 
L 356.917887 283.116434 
L 364.394362 283.040421 
L 371.870837 282.968923 
L 379.347312 282.902764 
L 386.823787 282.843267 
L 394.300262 282.792377 
L 401.776737 282.752687 
L 409.253212 282.727324 
L 416.729686 282.719696 
L 424.206161 282.733116 
L 431.682636 282.770414 
" clip-path="url(#pb80be22b8d)" style="fill: none; stroke: #d62728; stroke-width: 1.5; stroke-linecap: square"/>
   </g>
   <g id="patch_3">
    <path d="M 47.018 302.2 
L 47.018 10.8 
" style="fill: none; stroke: #000000; stroke-width: 0.8; stroke-linejoin: miter; stroke-linecap: square"/>
   </g>
   <g id="patch_4">
    <path d="M 450 302.2 
L 450 10.8 
" style="fill: none; stroke: #000000; stroke-width: 0.8; stroke-linejoin: miter; stroke-linecap: square"/>
   </g>
   <g id="patch_5">
    <path d="M 47.018 302.2 
L 450 302.2 
" style="fill: none; stroke: #000000; stroke-width: 0.8; stroke-linejoin: miter; stroke-linecap: square"/>
   </g>
   <g id="patch_6">
    <path d="M 47.018 10.8 
L 450 10.8 
" style="fill: none; stroke: #000000; stroke-width: 0.8; stroke-linejoin: miter; stroke-linecap: square"/>
   </g>
   <g id="legend_1">
    <g id="patch_7">
     <path d="M 54.018 77.5125 
L 132.888313 77.5125 
Q 134.888313 77.5125 134.888313 75.5125 
L 134.888313 17.8 
Q 134.888313 15.8 132.888313 15.8 
L 54.018 15.8 
Q 52.018 15.8 52.018 17.8 
L 52.018 75.5125 
Q 52.018 77.5125 54.018 77.5125 
z
" style="fill: #ffffff; opacity: 0.8; stroke: #cccccc; stroke-linejoin: miter"/>
    </g>
    <g id="line2d_19">
     <path d="M 56.018 23.898438 
L 66.018 23.898438 
L 76.018 23.898438 
" style="fill: none; stroke: #1f77b4; stroke-width: 1.5; stroke-linecap: square"/>
    </g>
    <g id="text_17">
     <!-- Ts=100 K -->
     <g transform="translate(84.018 27.398438) scale(0.1 -0.1)">
      <defs>
       <path id="DejaVuSans-54" d="M -19 4666 
L 3928 4666 
L 3928 4134 
L 2272 4134 
L 2272 0 
L 1638 0 
L 1638 4134 
L -19 4134 
L -19 4666 
z
" transform="scale(0.015625)"/>
       <path id="DejaVuSans-73" d="M 2834 3397 
L 2834 2853 
Q 2591 2978 2328 3040 
Q 2066 3103 1784 3103 
Q 1356 3103 1142 2972 
Q 928 2841 928 2578 
Q 928 2378 1081 2264 
Q 1234 2150 1697 2047 
L 1894 2003 
Q 2506 1872 2764 1633 
Q 3022 1394 3022 966 
Q 3022 478 2636 193 
Q 2250 -91 1575 -91 
Q 1294 -91 989 -36 
Q 684 19 347 128 
L 347 722 
Q 666 556 975 473 
Q 1284 391 1588 391 
Q 1994 391 2212 530 
Q 2431 669 2431 922 
Q 2431 1156 2273 1281 
Q 2116 1406 1581 1522 
L 1381 1569 
Q 847 1681 609 1914 
Q 372 2147 372 2553 
Q 372 3047 722 3315 
Q 1072 3584 1716 3584 
Q 2034 3584 2315 3537 
Q 2597 3491 2834 3397 
z
" transform="scale(0.015625)"/>
       <path id="DejaVuSans-3d" d="M 678 2906 
L 4684 2906 
L 4684 2381 
L 678 2381 
L 678 2906 
z
M 678 1631 
L 4684 1631 
L 4684 1100 
L 678 1100 
L 678 1631 
z
" transform="scale(0.015625)"/>
       <path id="DejaVuSans-4b" d="M 628 4666 
L 1259 4666 
L 1259 2694 
L 3353 4666 
L 4166 4666 
L 1850 2491 
L 4331 0 
L 3500 0 
L 1259 2247 
L 1259 0 
L 628 0 
L 628 4666 
z
" transform="scale(0.015625)"/>
      </defs>
      <use xlink:href="#DejaVuSans-54"/>
      <use xlink:href="#DejaVuSans-73" transform="translate(44.583984 0)"/>
      <use xlink:href="#DejaVuSans-3d" transform="translate(96.683594 0)"/>
      <use xlink:href="#DejaVuSans-31" transform="translate(180.472656 0)"/>
      <use xlink:href="#DejaVuSans-30" transform="translate(244.095703 0)"/>
      <use xlink:href="#DejaVuSans-30" transform="translate(307.71875 0)"/>
      <use xlink:href="#DejaVuSans-20" transform="translate(371.341797 0)"/>
      <use xlink:href="#DejaVuSans-4b" transform="translate(403.128906 0)"/>
     </g>
    </g>
    <g id="line2d_20">
     <path d="M 56.018 38.576563 
L 66.018 38.576563 
L 76.018 38.576563 
" style="fill: none; stroke: #ff7f0e; stroke-width: 1.5; stroke-linecap: square"/>
    </g>
    <g id="text_18">
     <!-- Ts=160 K -->
     <g transform="translate(84.018 42.076563) scale(0.1 -0.1)">
      <defs>
       <path id="DejaVuSans-36" d="M 2113 2584 
Q 1688 2584 1439 2293 
Q 1191 2003 1191 1497 
Q 1191 994 1439 701 
Q 1688 409 2113 409 
Q 2538 409 2786 701 
Q 3034 994 3034 1497 
Q 3034 2003 2786 2293 
Q 2538 2584 2113 2584 
z
M 3366 4563 
L 3366 3988 
Q 3128 4100 2886 4159 
Q 2644 4219 2406 4219 
Q 1781 4219 1451 3797 
Q 1122 3375 1075 2522 
Q 1259 2794 1537 2939 
Q 1816 3084 2150 3084 
Q 2853 3084 3261 2657 
Q 3669 2231 3669 1497 
Q 3669 778 3244 343 
Q 2819 -91 2113 -91 
Q 1303 -91 875 529 
Q 447 1150 447 2328 
Q 447 3434 972 4092 
Q 1497 4750 2381 4750 
Q 2619 4750 2861 4703 
Q 3103 4656 3366 4563 
z
" transform="scale(0.015625)"/>
      </defs>
      <use xlink:href="#DejaVuSans-54"/>
      <use xlink:href="#DejaVuSans-73" transform="translate(44.583984 0)"/>
      <use xlink:href="#DejaVuSans-3d" transform="translate(96.683594 0)"/>
      <use xlink:href="#DejaVuSans-31" transform="translate(180.472656 0)"/>
      <use xlink:href="#DejaVuSans-36" transform="translate(244.095703 0)"/>
      <use xlink:href="#DejaVuSans-30" transform="translate(307.71875 0)"/>
      <use xlink:href="#DejaVuSans-20" transform="translate(371.341797 0)"/>
      <use xlink:href="#DejaVuSans-4b" transform="translate(403.128906 0)"/>
     </g>
    </g>
    <g id="line2d_21">
     <path d="M 56.018 53.254687 
L 66.018 53.254687 
L 76.018 53.254687 
" style="fill: none; stroke: #2ca02c; stroke-width: 1.5; stroke-linecap: square"/>
    </g>
    <g id="text_19">
     <!-- Ts=220 K -->
     <g transform="translate(84.018 56.754687) scale(0.1 -0.1)">
      <use xlink:href="#DejaVuSans-54"/>
      <use xlink:href="#DejaVuSans-73" transform="translate(44.583984 0)"/>
      <use xlink:href="#DejaVuSans-3d" transform="translate(96.683594 0)"/>
      <use xlink:href="#DejaVuSans-32" transform="translate(180.472656 0)"/>
      <use xlink:href="#DejaVuSans-32" transform="translate(244.095703 0)"/>
      <use xlink:href="#DejaVuSans-30" transform="translate(307.71875 0)"/>
      <use xlink:href="#DejaVuSans-20" transform="translate(371.341797 0)"/>
      <use xlink:href="#DejaVuSans-4b" transform="translate(403.128906 0)"/>
     </g>
    </g>
    <g id="line2d_22">
     <path d="M 56.018 67.932813 
L 66.018 67.932813 
L 76.018 67.932813 
" style="fill: none; stroke: #d62728; stroke-width: 1.5; stroke-linecap: square"/>
    </g>
    <g id="text_20">
     <!-- Ts=260 K -->
     <g transform="translate(84.018 71.432813) scale(0.1 -0.1)">
      <use xlink:href="#DejaVuSans-54"/>
      <use xlink:href="#DejaVuSans-73" transform="translate(44.583984 0)"/>
      <use xlink:href="#DejaVuSans-3d" transform="translate(96.683594 0)"/>
      <use xlink:href="#DejaVuSans-32" transform="translate(180.472656 0)"/>
      <use xlink:href="#DejaVuSans-36" transform="translate(244.095703 0)"/>
      <use xlink:href="#DejaVuSans-30" transform="translate(307.71875 0)"/>
      <use xlink:href="#DejaVuSans-20" transform="translate(371.341797 0)"/>
      <use xlink:href="#DejaVuSans-4b" transform="translate(403.128906 0)"/>
     </g>
    </g>
   </g>
  </g>
 </g>
 <defs>
  <clipPath id="pb80be22b8d">
   <rect x="47.018" y="10.8" width="402.982" height="291.4"/>
  </clipPath>
 </defs>
</svg>
