<?xml version="1.0" encoding="utf-8" standalone="no"?>
<!DOCTYPE svg PUBLIC "-//W3C//DTD SVG 1.1//EN"
  "http://www.w3.org/Graphics/SVG/1.1/DTD/svg11.dtd">
<svg xmlns:xlink="http://www.w3.org/1999/xlink" width="460.8pt" height="345.6pt" viewBox="0 0 460.8 345.6" xmlns="http://www.w3.org/2000/svg" version="1.1">
 <metadata>
  <rdf:RDF xmlns:dc="http://purl.org/dc/elements/1.1/" xmlns:cc="http://creativecommons.org/ns#" xmlns:rdf="http://www.w3.org/1999/02/22-rdf-syntax-ns#">
   <cc:Work>
    <dc:type rdf:resource="http://purl.org/dc/dcmitype/StillImage"/>
    <dc:date>2026-02-12T01:19:52.343472</dc:date>
    <dc:format>image/svg+xml</dc:format>
    <dc:creator>
     <cc:Agent>
      <dc:title>Matplotlib v3.10.8, https://matplotlib.org/</dc:title>
     </cc:Agent>
    </dc:creator>
   </cc:Work>
  </rdf:RDF>
 </metadata>
 <defs>
  <style type="text/css">*{stroke-linejoin: round; stroke-linecap: butt}</style>
 </defs>
 <g id="figure_1">
  <g id="patch_1">
   <path d="M 0 345.6 
L 460.8 345.6 
L 460.8 0 
L 0 0 
L 0 345.6 
z
" style="fill: none"/>
  </g>
  <g id="axes_1">
   <g id="patch_2">
    <path d="M 47.018 302.2 
L 450 302.2 
L 450 10.8 
L 47.018 10.8 
L 47.018 302.2 
z
" style="fill: none"/>
   </g>
   <g id="FillBetweenPolyCollection_1">
    <path d="M 65.335364 217.619041 
L 65.335364 217.843561 
L 72.811839 201.682932 
L 80.288314 188.614496 
L 87.764788 177.971737 
L 95.241263 169.176026 
L 102.717738 161.745698 
L 110.194213 155.297149 
L 117.670688 149.539257 
L 125.147163 144.26279 
L 132.623638 139.326629 
L 140.100113 134.642265 
L 147.576588 130.15974 
L 155.053063 125.853657 
L 162.529538 121.712012 
L 170.006013 117.728221 
L 177.482488 113.895874 
L 184.958963 110.206131 
L 192.435438 106.647196 
L 199.911913 103.205195 
L 207.388388 99.865776 
L 214.864863 96.615797 
L 222.341338 93.444621 
L 229.817813 90.344772 
L 237.294288 87.311842 
L 244.770763 84.343789 
L 252.247237 81.439824 
L 259.723712 78.599233 
L 267.200187 75.820352 
L 274.676662 73.100018 
L 282.153137 70.433521 
L 289.629612 67.815114 
L 297.106087 65.238907 
L 304.582562 62.69992 
L 312.059037 60.195018 
L 319.535512 57.723457 
L 327.011987 55.28684 
L 334.488462 52.888409 
L 341.964937 50.531734 
L 349.441412 48.219022 
L 356.917887 45.949438 
L 364.394362 43.717845 
L 371.870837 41.514492 
L 379.347312 39.326049 
L 386.823787 37.13832 
L 394.300262 34.940738 
L 401.776737 32.732546 
L 409.253212 30.530254 
L 416.729686 28.375804 
L 424.206161 26.344571 
L 431.682636 24.552321 
L 431.682636 24.045455 
L 431.682636 24.045455 
L 424.206161 25.839994 
L 416.729686 27.873735 
L 409.253212 30.030806 
L 401.776737 32.235766 
L 394.300262 34.446649 
L 386.823787 36.646938 
L 379.347312 38.837399 
L 371.870837 41.028607 
L 364.394362 43.234772 
L 356.917887 45.469232 
L 349.441412 47.741741 
L 341.964937 50.057431 
L 334.488462 52.417136 
L 327.011987 54.818642 
L 319.535512 57.258377 
L 312.059037 59.733105 
L 304.582562 62.241222 
L 297.106087 64.783481 
L 289.629612 67.363026 
L 282.153137 69.984845 
L 274.676662 72.654836 
L 267.200187 75.37875 
L 259.723712 78.16129 
L 252.247237 81.00562 
L 244.770763 83.913396 
L 237.294288 86.885334 
L 229.817813 89.922218 
L 222.341338 93.026105 
L 214.864863 96.201412 
L 207.388388 99.455644 
L 199.911913 102.799467 
L 192.435438 106.246061 
L 184.958963 109.809806 
L 177.482488 113.5046 
L 170.006013 117.342254 
L 162.529538 121.331612 
L 155.053063 125.479071 
L 147.576588 129.791204 
L 140.100113 134.280011 
L 132.623638 138.971091 
L 125.147163 143.914688 
L 117.670688 149.199144 
L 110.194213 154.965029 
L 102.717738 161.42336 
L 95.241263 168.86629 
L 87.764788 177.677362 
L 80.288314 188.338655 
L 72.811839 201.430636 
L 65.335364 217.619041 
z
" clip-path="url(#pc5ad6f0cf7)" style="fill: #1f77b4; fill-opacity: 0.45"/>
   </g>
   <g id="FillBetweenPolyCollection_2">
    <path d="M 65.335364 256.945645 
L 65.335364 257.077256 
L 72.811839 248.680224 
L 80.288314 241.849841 
L 87.764788 236.255214 
L 95.241263 231.607121 
L 102.717738 227.663099 
L 110.194213 224.228613 
L 117.670688 221.154834 
L 125.147163 218.333839 
L 132.623638 215.692086 
L 140.100113 213.183071 
L 147.576588 210.779984 
L 155.053063 208.468993 
L 162.529538 206.243635 
L 170.006013 204.100605 
L 177.482488 202.036939 
L 184.958963 200.048543 
L 192.435438 198.12977 
L 199.911913 196.273762 
L 207.388388 194.473202 
L 214.864863 192.721152 
L 222.341338 191.011764 
L 229.817813 189.340685 
L 237.294288 187.705108 
L 244.770763 186.103522 
L 252.247237 184.535204 
L 259.723712 182.999675 
L 267.200187 181.496183 
L 274.676662 180.023375 
L 282.153137 178.579203 
L 289.629612 177.161099 
L 297.106087 175.766315 
L 304.582562 174.392406 
L 312.059037 173.037649 
L 319.535512 171.701333 
L 327.011987 170.383793 
L 334.488462 169.086143 
L 341.964937 167.809744 
L 349.441412 166.555472 
L 356.917887 165.322976 
L 364.394362 164.110093 
L 371.870837 162.912668 
L 379.347312 161.724941 
L 386.823787 160.540698 
L 394.300262 159.355194 
L 401.776737 158.167841 
L 409.253212 156.985485 
L 416.729686 155.826013 
L 424.206161 154.721904 
L 431.682636 153.723334 
L 431.682636 153.264351 
L 431.682636 153.264351 
L 424.206161 154.265925 
L 416.729686 155.373328 
L 409.253212 156.536259 
L 401.776737 157.72215 
L 394.300262 158.913071 
L 386.823787 160.102149 
L 379.347312 161.289972 
L 371.870837 162.481298 
L 364.394362 163.682358 
L 356.917887 164.898926 
L 349.441412 166.135176 
L 341.964937 167.393278 
L 334.488462 168.673593 
L 327.011987 169.975244 
L 319.535512 171.296869 
L 312.059037 172.637351 
L 304.582562 173.996353 
L 297.106087 175.37458 
L 289.629612 176.773752 
L 282.153137 178.196313 
L 274.676662 179.645003 
L 267.200187 181.122398 
L 259.723712 182.630543 
L 252.247237 184.170799 
L 244.770763 185.743923 
L 237.294288 187.350408 
L 229.817813 188.990986 
L 222.341338 190.667195 
L 214.864863 192.381858 
L 207.388388 194.139356 
L 199.911913 195.945561 
L 192.435438 197.80743 
L 184.958963 199.7323 
L 177.482488 201.727034 
L 170.006013 203.79728 
L 162.529538 205.947124 
L 155.053063 208.179526 
L 147.576588 210.49779 
L 140.100113 212.9084 
L 132.623638 215.425243 
L 125.147163 218.075246 
L 117.670688 220.905098 
L 110.194213 223.988634 
L 102.717738 227.434184 
L 95.241263 231.391115 
L 87.764788 236.054499 
L 80.288314 241.667597 
L 72.811839 248.520676 
L 65.335364 256.945645 
z
" clip-path="url(#pc5ad6f0cf7)" style="fill: #ff7f0e; fill-opacity: 0.45"/>
   </g>
   <g id="FillBetweenPolyCollection_3">
    <path d="M 65.335364 279.769568 
L 65.335364 279.858674 
L 72.811839 276.732864 
L 80.288314 274.184937 
L 87.764788 272.092172 
L 95.241263 270.347498 
L 102.717738 268.86142 
L 110.194213 267.562409 
L 117.670688 266.395997 
L 125.147163 265.3229 
L 132.623638 264.316514 
L 140.100113 263.36011 
L 147.576588 262.444078 
L 155.053063 261.563416 
L 162.529538 260.715674 
L 170.006013 259.899434 
L 177.482488 259.113331 
L 184.958963 258.355556 
L 192.435438 257.623771 
L 199.911913 256.915264 
L 207.388388 256.227253 
L 214.864863 255.557197 
L 222.341338 254.903037 
L 229.817813 254.263314 
L 237.294288 253.637143 
L 244.770763 253.02408 
L 252.247237 252.423924 
L 259.723712 251.836474 
L 267.200187 251.261365 
L 274.676662 250.697949 
L 282.153137 250.145309 
L 289.629612 249.602341 
L 297.106087 249.067933 
L 304.582562 248.541156 
L 312.059037 248.021432 
L 319.535512 247.508629 
L 327.011987 247.00304 
L 334.488462 246.505249 
L 341.964937 246.01588 
L 349.441412 245.53528 
L 356.917887 245.063221 
L 364.394362 244.598677 
L 371.870837 244.139791 
L 379.347312 243.684083 
L 386.823787 243.228966 
L 394.300262 242.772584 
L 401.776737 242.314919 
L 409.253212 241.859113 
L 416.729686 241.412865 
L 424.206161 240.989754 
L 431.682636 240.61031 
L 431.682636 240.300664 
L 431.682636 240.300664 
L 424.206161 240.682611 
L 416.729686 241.10811 
L 409.253212 241.556669 
L 401.776737 242.014751 
L 394.300262 242.474695 
L 386.823787 242.933397 
L 379.347312 243.390896 
L 371.870837 243.849063 
L 364.394362 244.310483 
L 356.917887 244.777628 
L 349.441412 245.25234 
L 341.964937 245.735628 
L 334.488462 246.227704 
L 327.011987 246.728209 
L 319.535512 247.236515 
L 312.059037 247.752043 
L 304.582562 248.27451 
L 297.106087 248.804061 
L 289.629612 249.341291 
L 282.153137 249.887149 
L 274.676662 250.44276 
L 267.200187 251.009233 
L 259.723712 251.587494 
L 252.247237 252.17818 
L 244.770763 252.781655 
L 237.294288 253.398104 
L 229.817813 254.027729 
L 222.341338 254.670966 
L 214.864863 255.328698 
L 207.388388 256.0024 
L 199.911913 256.694147 
L 192.435438 257.406503 
L 184.958963 258.142275 
L 177.482488 258.904197 
L 170.006013 259.694631 
L 162.529538 260.515394 
L 155.053063 261.367862 
L 147.576588 262.253456 
L 140.100113 263.174627 
L 132.623638 264.136401 
L 125.147163 265.148443 
L 117.670688 266.227573 
L 110.194213 267.400562 
L 102.717738 268.706946 
L 95.241263 270.201548 
L 87.764788 271.956367 
L 80.288314 274.061494 
L 72.811839 276.624713 
L 65.335364 279.769568 
z
" clip-path="url(#pc5ad6f0cf7)" style="fill: #2ca02c; fill-opacity: 0.45"/>
   </g>
   <g id="FillBetweenPolyCollection_4">
    <path d="M 65.335364 288.916177 
L 65.335364 288.954545 
L 72.811839 288.214243 
L 80.288314 287.62097 
L 87.764788 287.140265 
L 95.241263 286.742865 
L 102.717738 286.405075 
L 110.194213 286.108661 
L 117.670688 285.840364 
L 125.147163 285.591172 
L 132.623638 285.355447 
L 140.100113 285.130037 
L 147.576588 284.913461 
L 155.053063 284.705201 
L 162.529538 284.50519 
L 170.006013 284.313443 
L 177.482488 284.129871 
L 184.958963 283.954191 
L 192.435438 283.785951 
L 199.911913 283.624571 
L 207.388388 283.469413 
L 214.864863 283.319818 
L 222.341338 283.175132 
L 229.817813 283.034692 
L 237.294288 282.897805 
L 244.770763 282.763727 
L 252.247237 282.631651 
L 259.723712 282.50074 
L 267.200187 282.370175 
L 274.676662 282.239255 
L 282.153137 282.107485 
L 289.629612 281.974678 
L 297.106087 281.841006 
L 304.582562 281.707004 
L 312.059037 281.573491 
L 319.535512 281.441425 
L 327.011987 281.311684 
L 334.488462 281.184821 
L 341.964937 281.06082 
L 349.441412 280.938919 
L 356.917887 280.817541 
L 364.394362 280.694402 
L 371.870837 280.566816 
L 379.347312 280.432209 
L 386.823787 280.288851 
L 394.300262 280.136733 
L 401.776737 279.978536 
L 409.253212 279.820578 
L 416.729686 279.673641 
L 424.206161 279.553539 
L 431.682636 279.481318 
L 431.682636 279.368086 
L 431.682636 279.368086 
L 424.206161 279.441198 
L 416.729686 279.562001 
L 409.253212 279.709493 
L 401.776737 279.86794 
L 394.300262 280.026649 
L 386.823787 280.179395 
L 379.347312 280.323573 
L 371.870837 280.459251 
L 364.394362 280.588188 
L 356.917887 280.712952 
L 349.441412 280.836204 
L 341.964937 280.960173 
L 334.488462 281.086365 
L 327.011987 281.215462 
L 319.535512 281.347401 
L 312.059037 281.481558 
L 304.582562 281.616996 
L 297.106087 281.752716 
L 289.629612 281.887879 
L 282.153137 282.021952 
L 274.676662 282.154779 
L 267.200187 282.28658 
L 259.723712 282.417885 
L 252.247237 282.549443 
L 244.770763 282.682114 
L 237.294288 282.816776 
L 229.817813 282.95427 
L 222.341338 283.095367 
L 214.864863 283.240781 
L 207.388388 283.391187 
L 199.911913 283.547252 
L 192.435438 283.709639 
L 184.958963 283.878985 
L 177.482488 284.05587 
L 170.006013 284.240744 
L 162.529538 284.433876 
L 155.053063 284.635345 
L 147.576588 284.845116 
L 140.100113 285.063245 
L 132.623638 285.290231 
L 125.147163 285.527556 
L 117.670688 285.778388 
L 110.194213 286.048413 
L 102.717738 286.346735 
L 95.241263 286.68676 
L 87.764788 287.08694 
L 80.288314 287.571263 
L 72.811839 288.169368 
L 65.335364 288.916177 
z
" clip-path="url(#pc5ad6f0cf7)" style="fill: #d62728; fill-opacity: 0.45"/>
   </g>
   <g id="matplotlib.axis_1">
    <g id="xtick_1">
     <g id="line2d_1">
      <defs>
       <path id="m17fd927372" d="M 0 0 
L 0 3.5 
" style="stroke: #000000; stroke-width: 0.8"/>
      </defs>
      <g>
       <use xlink:href="#m17fd927372" x="61.634886" y="302.2" style="stroke: #000000; stroke-width: 0.8"/>
      </g>
     </g>
     <g id="text_1">
      <!-- 0 -->
      <g transform="translate(58.453636 316.798437) scale(0.1 -0.1)">
       <defs>
        <path id="DejaVuSans-30" d="M 2034 4250 
Q 1547 4250 1301 3770 
Q 1056 3291 1056 2328 
Q 1056 1369 1301 889 
Q 1547 409 2034 409 
Q 2525 409 2770 889 
Q 3016 1369 3016 2328 
Q 3016 3291 2770 3770 
Q 2525 4250 2034 4250 
z
M 2034 4750 
Q 2819 4750 3233 4129 
Q 3647 3509 3647 2328 
Q 3647 1150 3233 529 
Q 2819 -91 2034 -91 
Q 1250 -91 836 529 
Q 422 1150 422 2328 
Q 422 3509 836 4129 
Q 1250 4750 2034 4750 
z
" transform="scale(0.015625)"/>
       </defs>
       <use xlink:href="#DejaVuSans-30"/>
      </g>
     </g>
    </g>
    <g id="xtick_2">
     <g id="line2d_2">
      <g>
       <use xlink:href="#m17fd927372" x="135.644436" y="302.2" style="stroke: #000000; stroke-width: 0.8"/>
      </g>
     </g>
     <g id="text_2">
      <!-- 1 -->
      <g transform="translate(132.463186 316.798437) scale(0.1 -0.1)">
       <defs>
        <path id="DejaVuSans-31" d="M 794 531 
L 1825 531 
L 1825 4091 
L 703 3866 
L 703 4441 
L 1819 4666 
L 2450 4666 
L 2450 531 
L 3481 531 
L 3481 0 
L 794 0 
L 794 531 
z
" transform="scale(0.015625)"/>
       </defs>
       <use xlink:href="#DejaVuSans-31"/>
      </g>
     </g>
    </g>
    <g id="xtick_3">
     <g id="line2d_3">
      <g>
       <use xlink:href="#m17fd927372" x="209.653986" y="302.2" style="stroke: #000000; stroke-width: 0.8"/>
      </g>
     </g>
     <g id="text_3">
      <!-- 2 -->
      <g transform="translate(206.472736 316.798437) scale(0.1 -0.1)">
       <defs>
        <path id="DejaVuSans-32" d="M 1228 531 
L 3431 531 
L 3431 0 
L 469 0 
L 469 531 
Q 828 903 1448 1529 
Q 2069 2156 2228 2338 
Q 2531 2678 2651 2914 
Q 2772 3150 2772 3378 
Q 2772 3750 2511 3984 
Q 2250 4219 1831 4219 
Q 1534 4219 1204 4116 
Q 875 4013 500 3803 
L 500 4441 
Q 881 4594 1212 4672 
Q 1544 4750 1819 4750 
Q 2544 4750 2975 4387 
Q 3406 4025 3406 3419 
Q 3406 3131 3298 2873 
Q 3191 2616 2906 2266 
Q 2828 2175 2409 1742 
Q 1991 1309 1228 531 
z
" transform="scale(0.015625)"/>
       </defs>
       <use xlink:href="#DejaVuSans-32"/>
      </g>
     </g>
    </g>
    <g id="xtick_4">
     <g id="line2d_4">
      <g>
       <use xlink:href="#m17fd927372" x="283.663536" y="302.2" style="stroke: #000000; stroke-width: 0.8"/>
      </g>
     </g>
     <g id="text_4">
      <!-- 3 -->
      <g transform="translate(280.482286 316.798437) scale(0.1 -0.1)">
       <defs>
        <path id="DejaVuSans-33" d="M 2597 2516 
Q 3050 2419 3304 2112 
Q 3559 1806 3559 1356 
Q 3559 666 3084 287 
Q 2609 -91 1734 -91 
Q 1441 -91 1130 -33 
Q 819 25 488 141 
L 488 750 
Q 750 597 1062 519 
Q 1375 441 1716 441 
Q 2309 441 2620 675 
Q 2931 909 2931 1356 
Q 2931 1769 2642 2001 
Q 2353 2234 1838 2234 
L 1294 2234 
L 1294 2753 
L 1863 2753 
Q 2328 2753 2575 2939 
Q 2822 3125 2822 3475 
Q 2822 3834 2567 4026 
Q 2313 4219 1838 4219 
Q 1578 4219 1281 4162 
Q 984 4106 628 3988 
L 628 4550 
Q 988 4650 1302 4700 
Q 1616 4750 1894 4750 
Q 2613 4750 3031 4423 
Q 3450 4097 3450 3541 
Q 3450 3153 3228 2886 
Q 3006 2619 2597 2516 
z
" transform="scale(0.015625)"/>
       </defs>
       <use xlink:href="#DejaVuSans-33"/>
      </g>
     </g>
    </g>
    <g id="xtick_5">
     <g id="line2d_5">
      <g>
       <use xlink:href="#m17fd927372" x="357.673086" y="302.2" style="stroke: #000000; stroke-width: 0.8"/>
      </g>
     </g>
     <g id="text_5">
      <!-- 4 -->
      <g transform="translate(354.491836 316.798437) scale(0.1 -0.1)">
       <defs>
        <path id="DejaVuSans-34" d="M 2419 4116 
L 825 1625 
L 2419 1625 
L 2419 4116 
z
M 2253 4666 
L 3047 4666 
L 3047 1625 
L 3713 1625 
L 3713 1100 
L 3047 1100 
L 3047 0 
L 2419 0 
L 2419 1100 
L 313 1100 
L 313 1709 
L 2253 4666 
z
" transform="scale(0.015625)"/>
       </defs>
       <use xlink:href="#DejaVuSans-34"/>
      </g>
     </g>
    </g>
    <g id="xtick_6">
     <g id="line2d_6">
      <g>
       <use xlink:href="#m17fd927372" x="431.682636" y="302.2" style="stroke: #000000; stroke-width: 0.8"/>
      </g>
     </g>
     <g id="text_6">
      <!-- 5 -->
      <g transform="translate(428.501386 316.798437) scale(0.1 -0.1)">
       <defs>
        <path id="DejaVuSans-35" d="M 691 4666 
L 3169 4666 
L 3169 4134 
L 1269 4134 
L 1269 2991 
Q 1406 3038 1543 3061 
Q 1681 3084 1819 3084 
Q 2600 3084 3056 2656 
Q 3513 2228 3513 1497 
Q 3513 744 3044 326 
Q 2575 -91 1722 -91 
Q 1428 -91 1123 -41 
Q 819 9 494 109 
L 494 744 
Q 775 591 1075 516 
Q 1375 441 1709 441 
Q 2250 441 2565 725 
Q 2881 1009 2881 1497 
Q 2881 1984 2565 2268 
Q 2250 2553 1709 2553 
Q 1456 2553 1204 2497 
Q 953 2441 691 2322 
L 691 4666 
z
" transform="scale(0.015625)"/>
       </defs>
       <use xlink:href="#DejaVuSans-35"/>
      </g>
     </g>
    </g>
    <g id="text_7">
     <!-- $W$ (m/hour) -->
     <g transform="translate(220.059 330.476562) scale(0.1 -0.1)">
      <defs>
       <path id="DejaVuSans-Oblique-57" d="M 616 4666 
L 1228 4666 
L 1453 697 
L 3213 4666 
L 3916 4666 
L 4147 697 
L 5888 4666 
L 6528 4666 
L 4453 0 
L 3659 0 
L 3444 3891 
L 1697 0 
L 903 0 
L 616 4666 
z
" transform="scale(0.015625)"/>
       <path id="DejaVuSans-20" transform="scale(0.015625)"/>
       <path id="DejaVuSans-28" d="M 1984 4856 
Q 1566 4138 1362 3434 
Q 1159 2731 1159 2009 
Q 1159 1288 1364 580 
Q 1569 -128 1984 -844 
L 1484 -844 
Q 1016 -109 783 600 
Q 550 1309 550 2009 
Q 550 2706 781 3412 
Q 1013 4119 1484 4856 
L 1984 4856 
z
" transform="scale(0.015625)"/>
       <path id="DejaVuSans-6d" d="M 3328 2828 
Q 3544 3216 3844 3400 
Q 4144 3584 4550 3584 
Q 5097 3584 5394 3201 
Q 5691 2819 5691 2113 
L 5691 0 
L 5113 0 
L 5113 2094 
Q 5113 2597 4934 2840 
Q 4756 3084 4391 3084 
Q 3944 3084 3684 2787 
Q 3425 2491 3425 1978 
L 3425 0 
L 2847 0 
L 2847 2094 
Q 2847 2600 2669 2842 
Q 2491 3084 2119 3084 
Q 1678 3084 1418 2786 
Q 1159 2488 1159 1978 
L 1159 0 
L 581 0 
L 581 3500 
L 1159 3500 
L 1159 2956 
Q 1356 3278 1631 3431 
Q 1906 3584 2284 3584 
Q 2666 3584 2933 3390 
Q 3200 3197 3328 2828 
z
" transform="scale(0.015625)"/>
       <path id="DejaVuSans-2f" d="M 1625 4666 
L 2156 4666 
L 531 -594 
L 0 -594 
L 1625 4666 
z
" transform="scale(0.015625)"/>
       <path id="DejaVuSans-68" d="M 3513 2113 
L 3513 0 
L 2938 0 
L 2938 2094 
Q 2938 2591 2744 2837 
Q 2550 3084 2163 3084 
Q 1697 3084 1428 2787 
Q 1159 2491 1159 1978 
L 1159 0 
L 581 0 
L 581 4863 
L 1159 4863 
L 1159 2956 
Q 1366 3272 1645 3428 
Q 1925 3584 2291 3584 
Q 2894 3584 3203 3211 
Q 3513 2838 3513 2113 
z
" transform="scale(0.015625)"/>
       <path id="DejaVuSans-6f" d="M 1959 3097 
Q 1497 3097 1228 2736 
Q 959 2375 959 1747 
Q 959 1119 1226 758 
Q 1494 397 1959 397 
Q 2419 397 2687 759 
Q 2956 1122 2956 1747 
Q 2956 2369 2687 2733 
Q 2419 3097 1959 3097 
z
M 1959 3584 
Q 2709 3584 3137 3096 
Q 3566 2609 3566 1747 
Q 3566 888 3137 398 
Q 2709 -91 1959 -91 
Q 1206 -91 779 398 
Q 353 888 353 1747 
Q 353 2609 779 3096 
Q 1206 3584 1959 3584 
z
" transform="scale(0.015625)"/>
       <path id="DejaVuSans-75" d="M 544 1381 
L 544 3500 
L 1119 3500 
L 1119 1403 
Q 1119 906 1312 657 
Q 1506 409 1894 409 
Q 2359 409 2629 706 
Q 2900 1003 2900 1516 
L 2900 3500 
L 3475 3500 
L 3475 0 
L 2900 0 
L 2900 538 
Q 2691 219 2414 64 
Q 2138 -91 1772 -91 
Q 1169 -91 856 284 
Q 544 659 544 1381 
z
M 1991 3584 
L 1991 3584 
z
" transform="scale(0.015625)"/>
       <path id="DejaVuSans-72" d="M 2631 2963 
Q 2534 3019 2420 3045 
Q 2306 3072 2169 3072 
Q 1681 3072 1420 2755 
Q 1159 2438 1159 1844 
L 1159 0 
L 581 0 
L 581 3500 
L 1159 3500 
L 1159 2956 
Q 1341 3275 1631 3429 
Q 1922 3584 2338 3584 
Q 2397 3584 2469 3576 
Q 2541 3569 2628 3553 
L 2631 2963 
z
" transform="scale(0.015625)"/>
       <path id="DejaVuSans-29" d="M 513 4856 
L 1013 4856 
Q 1481 4119 1714 3412 
Q 1947 2706 1947 2009 
Q 1947 1309 1714 600 
Q 1481 -109 1013 -844 
L 513 -844 
Q 928 -128 1133 580 
Q 1338 1288 1338 2009 
Q 1338 2731 1133 3434 
Q 928 4138 513 4856 
z
" transform="scale(0.015625)"/>
      </defs>
      <use xlink:href="#DejaVuSans-Oblique-57" transform="translate(0 0.015625)"/>
      <use xlink:href="#DejaVuSans-20" transform="translate(98.876953 0.015625)"/>
      <use xlink:href="#DejaVuSans-28" transform="translate(130.664062 0.015625)"/>
      <use xlink:href="#DejaVuSans-6d" transform="translate(169.677734 0.015625)"/>
      <use xlink:href="#DejaVuSans-2f" transform="translate(267.089844 0.015625)"/>
      <use xlink:href="#DejaVuSans-68" transform="translate(300.78125 0.015625)"/>
      <use xlink:href="#DejaVuSans-6f" transform="translate(364.160156 0.015625)"/>
      <use xlink:href="#DejaVuSans-75" transform="translate(425.341797 0.015625)"/>
      <use xlink:href="#DejaVuSans-72" transform="translate(488.720703 0.015625)"/>
      <use xlink:href="#DejaVuSans-29" transform="translate(529.833984 0.015625)"/>
     </g>
    </g>
   </g>
   <g id="matplotlib.axis_2">
    <g id="ytick_1">
     <g id="line2d_7">
      <defs>
       <path id="m8fa7b5a095" d="M 0 0 
L -3.5 0 
" style="stroke: #000000; stroke-width: 0.8"/>
      </defs>
      <g>
       <use xlink:href="#m8fa7b5a095" x="47.018" y="291.506859" style="stroke: #000000; stroke-width: 0.8"/>
      </g>
     </g>
     <g id="text_8">
      <!-- 0 -->
      <g transform="translate(33.6555 295.306078) scale(0.1 -0.1)">
       <use xlink:href="#DejaVuSans-30"/>
      </g>
     </g>
    </g>
    <g id="ytick_2">
     <g id="line2d_8">
      <g>
       <use xlink:href="#m8fa7b5a095" x="47.018" y="254.22684" style="stroke: #000000; stroke-width: 0.8"/>
      </g>
     </g>
     <g id="text_9">
      <!-- 5 -->
      <g transform="translate(33.6555 258.026059) scale(0.1 -0.1)">
       <use xlink:href="#DejaVuSans-35"/>
      </g>
     </g>
    </g>
    <g id="ytick_3">
     <g id="line2d_9">
      <g>
       <use xlink:href="#m8fa7b5a095" x="47.018" y="216.946822" style="stroke: #000000; stroke-width: 0.8"/>
      </g>
     </g>
     <g id="text_10">
      <!-- 10 -->
      <g transform="translate(27.293 220.746041) scale(0.1 -0.1)">
       <use xlink:href="#DejaVuSans-31"/>
       <use xlink:href="#DejaVuSans-30" transform="translate(63.623047 0)"/>
      </g>
     </g>
    </g>
    <g id="ytick_4">
     <g id="line2d_10">
      <g>
       <use xlink:href="#m8fa7b5a095" x="47.018" y="179.666803" style="stroke: #000000; stroke-width: 0.8"/>
      </g>
     </g>
     <g id="text_11">
      <!-- 15 -->
      <g transform="translate(27.293 183.466022) scale(0.1 -0.1)">
       <use xlink:href="#DejaVuSans-31"/>
       <use xlink:href="#DejaVuSans-35" transform="translate(63.623047 0)"/>
      </g>
     </g>
    </g>
    <g id="ytick_5">
     <g id="line2d_11">
      <g>
       <use xlink:href="#m8fa7b5a095" x="47.018" y="142.386785" style="stroke: #000000; stroke-width: 0.8"/>
      </g>
     </g>
     <g id="text_12">
      <!-- 20 -->
      <g transform="translate(27.293 146.186004) scale(0.1 -0.1)">
       <use xlink:href="#DejaVuSans-32"/>
       <use xlink:href="#DejaVuSans-30" transform="translate(63.623047 0)"/>
      </g>
     </g>
    </g>
    <g id="ytick_6">
     <g id="line2d_12">
      <g>
       <use xlink:href="#m8fa7b5a095" x="47.018" y="105.106766" style="stroke: #000000; stroke-width: 0.8"/>
      </g>
     </g>
     <g id="text_13">
      <!-- 25 -->
      <g transform="translate(27.293 108.905985) scale(0.1 -0.1)">
       <use xlink:href="#DejaVuSans-32"/>
       <use xlink:href="#DejaVuSans-35" transform="translate(63.623047 0)"/>
      </g>
     </g>
    </g>
    <g id="ytick_7">
     <g id="line2d_13">
      <g>
       <use xlink:href="#m8fa7b5a095" x="47.018" y="67.826748" style="stroke: #000000; stroke-width: 0.8"/>
      </g>
     </g>
     <g id="text_14">
      <!-- 30 -->
      <g transform="translate(27.293 71.625967) scale(0.1 -0.1)">
       <use xlink:href="#DejaVuSans-33"/>
       <use xlink:href="#DejaVuSans-30" transform="translate(63.623047 0)"/>
      </g>
     </g>
    </g>
    <g id="ytick_8">
     <g id="line2d_14">
      <g>
       <use xlink:href="#m8fa7b5a095" x="47.018" y="30.546729" style="stroke: #000000; stroke-width: 0.8"/>
      </g>
     </g>
     <g id="text_15">
      <!-- 35 -->
      <g transform="translate(27.293 34.345948) scale(0.1 -0.1)">
       <use xlink:href="#DejaVuSans-33"/>
       <use xlink:href="#DejaVuSans-35" transform="translate(63.623047 0)"/>
      </g>
     </g>
    </g>
    <g id="text_16">
     <!-- $Q_{lc}$ (kW) -->
     <g transform="translate(21.213312 176.8) rotate(-90) scale(0.1 -0.1)">
      <defs>
       <path id="DejaVuSans-Oblique-51" d="M 2309 -84 
Q 2275 -88 2237 -89 
Q 2200 -91 2125 -91 
Q 1250 -91 756 411 
Q 263 913 263 1797 
Q 263 2319 452 2844 
Q 641 3369 978 3788 
Q 1369 4269 1858 4509 
Q 2347 4750 2938 4750 
Q 3794 4750 4287 4245 
Q 4781 3741 4781 2869 
Q 4781 1928 4265 1147 
Q 3750 366 2919 44 
L 3553 -825 
L 2847 -825 
L 2309 -84 
z
M 2919 4238 
Q 2400 4238 2003 3986 
Q 1606 3734 1313 3219 
Q 1125 2891 1026 2522 
Q 928 2153 928 1778 
Q 928 1128 1239 775 
Q 1550 422 2119 422 
Q 2631 422 3032 676 
Q 3434 931 3719 1434 
Q 3909 1772 4009 2142 
Q 4109 2513 4109 2881 
Q 4109 3528 3796 3883 
Q 3484 4238 2919 4238 
z
" transform="scale(0.015625)"/>
       <path id="DejaVuSans-Oblique-6c" d="M 1172 4863 
L 1747 4863 
L 800 0 
L 225 0 
L 1172 4863 
z
" transform="scale(0.015625)"/>
       <path id="DejaVuSans-Oblique-63" d="M 3431 3366 
L 3316 2797 
Q 3109 2947 2876 3022 
Q 2644 3097 2394 3097 
Q 2119 3097 1870 3000 
Q 1622 2903 1453 2725 
Q 1184 2453 1037 2087 
Q 891 1722 891 1331 
Q 891 859 1127 628 
Q 1363 397 1844 397 
Q 2081 397 2348 469 
Q 2616 541 2906 684 
L 2797 116 
Q 2547 13 2283 -39 
Q 2019 -91 1741 -91 
Q 1044 -91 669 257 
Q 294 606 294 1253 
Q 294 1797 489 2255 
Q 684 2713 1069 3078 
Q 1331 3328 1684 3456 
Q 2038 3584 2456 3584 
Q 2700 3584 2940 3529 
Q 3181 3475 3431 3366 
z
" transform="scale(0.015625)"/>
       <path id="DejaVuSans-6b" d="M 581 4863 
L 1159 4863 
L 1159 1991 
L 2875 3500 
L 3609 3500 
L 1753 1863 
L 3688 0 
L 2938 0 
L 1159 1709 
L 1159 0 
L 581 0 
L 581 4863 
z
" transform="scale(0.015625)"/>
       <path id="DejaVuSans-57" d="M 213 4666 
L 850 4666 
L 1831 722 
L 2809 4666 
L 3519 4666 
L 4500 722 
L 5478 4666 
L 6119 4666 
L 4947 0 
L 4153 0 
L 3169 4050 
L 2175 0 
L 1381 0 
L 213 4666 
z
" transform="scale(0.015625)"/>
      </defs>
      <use xlink:href="#DejaVuSans-Oblique-51" transform="translate(0 0.015625)"/>
      <use xlink:href="#DejaVuSans-Oblique-6c" transform="translate(78.710938 -16.390625) scale(0.7)"/>
      <use xlink:href="#DejaVuSans-Oblique-63" transform="translate(98.15918 -16.390625) scale(0.7)"/>
      <use xlink:href="#DejaVuSans-20" transform="translate(139.379883 0.015625)"/>
      <use xlink:href="#DejaVuSans-28" transform="translate(171.166992 0.015625)"/>
      <use xlink:href="#DejaVuSans-6b" transform="translate(210.180664 0.015625)"/>
      <use xlink:href="#DejaVuSans-57" transform="translate(268.09082 0.015625)"/>
      <use xlink:href="#DejaVuSans-29" transform="translate(366.967773 0.015625)"/>
     </g>
    </g>
   </g>
   <g id="line2d_15">
    <path d="M 65.335364 217.723079 
L 72.811839 201.548793 
L 80.288314 188.46997 
L 87.764788 177.820433 
L 95.241263 169.018242 
L 102.717738 161.582724 
L 110.194213 155.12988 
L 117.670688 149.36828 
L 125.147163 144.087739 
L 132.623638 139.147671 
L 140.100113 134.459944 
L 147.576588 129.974354 
L 155.053063 125.665314 
L 162.529538 121.520829 
L 170.006013 117.534217 
L 177.482488 113.69993 
L 184.958963 110.008367 
L 192.435438 106.447729 
L 199.911913 103.004131 
L 207.388388 99.663209 
L 214.864863 96.411642 
L 222.341338 93.23844 
L 229.817813 90.136611 
L 237.294288 87.101725 
L 244.770763 84.132076 
L 252.247237 81.226627 
L 259.723712 78.384569 
L 267.200187 75.604246 
L 274.676662 72.8825 
L 282.153137 70.214628 
L 289.629612 67.594969 
L 297.106087 65.017658 
L 304.582562 62.4776 
L 312.059037 59.971659 
L 319.535512 57.49908 
L 327.011987 55.061462 
L 334.488462 52.662038 
L 341.964937 50.304372 
L 349.441412 47.990675 
L 356.917887 45.720084 
L 364.394362 43.487144 
L 371.870837 41.282472 
L 379.347312 39.092731 
L 386.823787 36.903911 
L 394.300262 34.705329 
L 401.776737 32.496164 
L 409.253212 30.29292 
L 416.729686 28.137522 
L 424.206161 26.105339 
L 431.682636 24.312126 
" clip-path="url(#pc5ad6f0cf7)" style="fill: none; stroke: #1f77b4; stroke-width: 1.5; stroke-linecap: square"/>
   </g>
   <g id="line2d_16">
    <path d="M 65.335364 256.996364 
L 72.811839 248.583569 
L 80.288314 241.740436 
L 87.764788 236.135001 
L 95.241263 231.477922 
L 102.717738 227.526388 
L 110.194213 224.08546 
L 117.670688 221.005997 
L 125.147163 218.179987 
L 132.623638 215.533534 
L 140.100113 213.020066 
L 147.576588 210.612712 
L 155.053063 208.297609 
L 162.529538 206.068286 
L 170.006013 203.921429 
L 177.482488 201.854077 
L 184.958963 199.862132 
L 192.435438 197.939944 
L 199.911913 196.080647 
L 207.388388 194.27691 
L 214.864863 192.521784 
L 222.341338 190.809408 
L 229.817813 189.135421 
L 237.294288 187.497008 
L 244.770763 185.892642 
L 252.247237 184.321604 
L 259.723712 182.783406 
L 267.200187 181.277298 
L 274.676662 179.801916 
L 282.153137 178.355217 
L 289.629612 176.934623 
L 297.106087 175.537389 
L 304.582562 174.161065 
L 312.059037 172.803931 
L 319.535512 171.465278 
L 327.011987 170.145442 
L 334.488462 168.84554 
L 341.964937 167.566936 
L 349.441412 166.310506 
L 356.917887 165.075896 
L 364.394362 163.860939 
L 371.870837 162.661465 
L 379.347312 161.471706 
L 386.823787 160.285433 
L 394.300262 159.097889 
L 401.776737 157.90849 
L 409.253212 156.724099 
L 416.729686 155.56264 
L 424.206161 154.456663 
L 431.682636 153.456445 
" clip-path="url(#pc5ad6f0cf7)" style="fill: none; stroke: #ff7f0e; stroke-width: 1.5; stroke-linecap: square"/>
   </g>
   <g id="line2d_17">
    <path d="M 65.335364 279.808474 
L 72.811839 276.671895 
L 80.288314 274.115324 
L 87.764788 272.015572 
L 95.241263 270.265163 
L 102.717738 268.774267 
L 110.194213 267.471086 
L 117.670688 266.300953 
L 125.147163 265.224444 
L 132.623638 264.214857 
L 140.100113 263.255413 
L 147.576588 262.336476 
L 155.053063 261.45303 
L 162.529538 260.602622 
L 170.006013 259.783829 
L 177.482488 258.995283 
L 184.958963 258.235167 
L 192.435438 257.501132 
L 199.911913 256.790454 
L 207.388388 256.100337 
L 214.864863 255.428225 
L 222.341338 254.772051 
L 229.817813 254.130347 
L 237.294288 253.50223 
L 244.770763 252.887259 
L 252.247237 252.285232 
L 259.723712 251.695959 
L 267.200187 251.119074 
L 274.676662 250.553933 
L 282.153137 249.999618 
L 289.629612 249.455018 
L 297.106087 248.919017 
L 304.582562 248.390674 
L 312.059037 247.869401 
L 319.535512 247.355058 
L 327.011987 246.847936 
L 334.488462 246.348617 
L 341.964937 245.857723 
L 349.441412 245.37561 
L 356.917887 244.902057 
L 364.394362 244.436049 
L 371.870837 243.975736 
L 379.347312 243.518642 
L 386.823787 243.062181 
L 394.300262 242.604489 
L 401.776737 242.145535 
L 409.253212 241.688443 
L 416.729686 241.24089 
L 424.206161 240.816437 
L 431.682636 240.435596 
" clip-path="url(#pc5ad6f0cf7)" style="fill: none; stroke: #2ca02c; stroke-width: 1.5; stroke-linecap: square"/>
   </g>
   <g id="line2d_18">
    <path d="M 65.335364 288.933618 
L 72.811839 288.189758 
L 80.288314 287.59384 
L 87.764788 287.11115 
L 95.241263 286.712222 
L 102.717738 286.373202 
L 110.194213 286.075738 
L 117.670688 285.806491 
L 125.147163 285.556398 
L 132.623638 285.319796 
L 140.100113 285.093526 
L 147.576588 284.876102 
L 155.053063 284.667018 
L 162.529538 284.466213 
L 170.006013 284.273714 
L 177.482488 284.089433 
L 184.958963 283.913098 
L 192.435438 283.744256 
L 199.911913 283.582328 
L 207.388388 283.426674 
L 214.864863 283.276636 
L 222.341338 283.131549 
L 229.817813 282.990748 
L 237.294288 282.853526 
L 244.770763 282.719124 
L 252.247237 282.586719 
L 259.723712 282.455447 
L 267.200187 282.324458 
L 274.676662 282.193046 
L 282.153137 282.060698 
L 289.629612 281.927211 
L 297.106087 281.792728 
L 304.582562 281.657788 
L 312.059037 281.523227 
L 319.535512 281.390021 
L 327.011987 281.259083 
L 334.488462 281.131004 
L 341.964937 281.00581 
L 349.441412 280.882782 
L 356.917887 280.760382 
L 364.394362 280.636355 
L 371.870837 280.508028 
L 379.347312 280.372831 
L 386.823787 280.229017 
L 394.300262 280.076546 
L 401.776737 279.918058 
L 409.253212 279.759825 
L 416.729686 279.612578 
L 424.206161 279.492092 
L 431.682636 279.419392 
" clip-path="url(#pc5ad6f0cf7)" style="fill: none; stroke: #d62728; stroke-width: 1.5; stroke-linecap: square"/>
   </g>
   <g id="patch_3">
    <path d="M 47.018 302.2 
L 47.018 10.8 
" style="fill: none; stroke: #000000; stroke-width: 0.8; stroke-linejoin: miter; stroke-linecap: square"/>
   </g>
   <g id="patch_4">
    <path d="M 450 302.2 
L 450 10.8 
" style="fill: none; stroke: #000000; stroke-width: 0.8; stroke-linejoin: miter; stroke-linecap: square"/>
   </g>
   <g id="patch_5">
    <path d="M 47.018 302.2 
L 450 302.2 
" style="fill: none; stroke: #000000; stroke-width: 0.8; stroke-linejoin: miter; stroke-linecap: square"/>
   </g>
   <g id="patch_6">
    <path d="M 47.018 10.8 
L 450 10.8 
" style="fill: none; stroke: #000000; stroke-width: 0.8; stroke-linejoin: miter; stroke-linecap: square"/>
   </g>
   <g id="legend_1">
    <g id="patch_7">
     <path d="M 54.018 77.5125 
L 132.888313 77.5125 
Q 134.888313 77.5125 134.888313 75.5125 
L 134.888313 17.8 
Q 134.888313 15.8 132.888313 15.8 
L 54.018 15.8 
Q 52.018 15.8 52.018 17.8 
L 52.018 75.5125 
Q 52.018 77.5125 54.018 77.5125 
z
" style="fill: #ffffff; opacity: 0.8; stroke: #cccccc; stroke-linejoin: miter"/>
    </g>
    <g id="line2d_19">
     <path d="M 56.018 23.898438 
L 66.018 23.898438 
L 76.018 23.898438 
" style="fill: none; stroke: #1f77b4; stroke-width: 1.5; stroke-linecap: square"/>
    </g>
    <g id="text_17">
     <!-- Ts=100 K -->
     <g transform="translate(84.018 27.398438) scale(0.1 -0.1)">
      <defs>
       <path id="DejaVuSans-54" d="M -19 4666 
L 3928 4666 
L 3928 4134 
L 2272 4134 
L 2272 0 
L 1638 0 
L 1638 4134 
L -19 4134 
L -19 4666 
z
" transform="scale(0.015625)"/>
       <path id="DejaVuSans-73" d="M 2834 3397 
L 2834 2853 
Q 2591 2978 2328 3040 
Q 2066 3103 1784 3103 
Q 1356 3103 1142 2972 
Q 928 2841 928 2578 
Q 928 2378 1081 2264 
Q 1234 2150 1697 2047 
L 1894 2003 
Q 2506 1872 2764 1633 
Q 3022 1394 3022 966 
Q 3022 478 2636 193 
Q 2250 -91 1575 -91 
Q 1294 -91 989 -36 
Q 684 19 347 128 
L 347 722 
Q 666 556 975 473 
Q 1284 391 1588 391 
Q 1994 391 2212 530 
Q 2431 669 2431 922 
Q 2431 1156 2273 1281 
Q 2116 1406 1581 1522 
L 1381 1569 
Q 847 1681 609 1914 
Q 372 2147 372 2553 
Q 372 3047 722 3315 
Q 1072 3584 1716 3584 
Q 2034 3584 2315 3537 
Q 2597 3491 2834 3397 
z
" transform="scale(0.015625)"/>
       <path id="DejaVuSans-3d" d="M 678 2906 
L 4684 2906 
L 4684 2381 
L 678 2381 
L 678 2906 
z
M 678 1631 
L 4684 1631 
L 4684 1100 
L 678 1100 
L 678 1631 
z
" transform="scale(0.015625)"/>
       <path id="DejaVuSans-4b" d="M 628 4666 
L 1259 4666 
L 1259 2694 
L 3353 4666 
L 4166 4666 
L 1850 2491 
L 4331 0 
L 3500 0 
L 1259 2247 
L 1259 0 
L 628 0 
L 628 4666 
z
" transform="scale(0.015625)"/>
      </defs>
      <use xlink:href="#DejaVuSans-54"/>
      <use xlink:href="#DejaVuSans-73" transform="translate(44.583984 0)"/>
      <use xlink:href="#DejaVuSans-3d" transform="translate(96.683594 0)"/>
      <use xlink:href="#DejaVuSans-31" transform="translate(180.472656 0)"/>
      <use xlink:href="#DejaVuSans-30" transform="translate(244.095703 0)"/>
      <use xlink:href="#DejaVuSans-30" transform="translate(307.71875 0)"/>
      <use xlink:href="#DejaVuSans-20" transform="translate(371.341797 0)"/>
      <use xlink:href="#DejaVuSans-4b" transform="translate(403.128906 0)"/>
     </g>
    </g>
    <g id="line2d_20">
     <path d="M 56.018 38.576563 
L 66.018 38.576563 
L 76.018 38.576563 
" style="fill: none; stroke: #ff7f0e; stroke-width: 1.5; stroke-linecap: square"/>
    </g>
    <g id="text_18">
     <!-- Ts=160 K -->
     <g transform="translate(84.018 42.076563) scale(0.1 -0.1)">
      <defs>
       <path id="DejaVuSans-36" d="M 2113 2584 
Q 1688 2584 1439 2293 
Q 1191 2003 1191 1497 
Q 1191 994 1439 701 
Q 1688 409 2113 409 
Q 2538 409 2786 701 
Q 3034 994 3034 1497 
Q 3034 2003 2786 2293 
Q 2538 2584 2113 2584 
z
M 3366 4563 
L 3366 3988 
Q 3128 4100 2886 4159 
Q 2644 4219 2406 4219 
Q 1781 4219 1451 3797 
Q 1122 3375 1075 2522 
Q 1259 2794 1537 2939 
Q 1816 3084 2150 3084 
Q 2853 3084 3261 2657 
Q 3669 2231 3669 1497 
Q 3669 778 3244 343 
Q 2819 -91 2113 -91 
Q 1303 -91 875 529 
Q 447 1150 447 2328 
Q 447 3434 972 4092 
Q 1497 4750 2381 4750 
Q 2619 4750 2861 4703 
Q 3103 4656 3366 4563 
z
" transform="scale(0.015625)"/>
      </defs>
      <use xlink:href="#DejaVuSans-54"/>
      <use xlink:href="#DejaVuSans-73" transform="translate(44.583984 0)"/>
      <use xlink:href="#DejaVuSans-3d" transform="translate(96.683594 0)"/>
      <use xlink:href="#DejaVuSans-31" transform="translate(180.472656 0)"/>
      <use xlink:href="#DejaVuSans-36" transform="translate(244.095703 0)"/>
      <use xlink:href="#DejaVuSans-30" transform="translate(307.71875 0)"/>
      <use xlink:href="#DejaVuSans-20" transform="translate(371.341797 0)"/>
      <use xlink:href="#DejaVuSans-4b" transform="translate(403.128906 0)"/>
     </g>
    </g>
    <g id="line2d_21">
     <path d="M 56.018 53.254687 
L 66.018 53.254687 
L 76.018 53.254687 
" style="fill: none; stroke: #2ca02c; stroke-width: 1.5; stroke-linecap: square"/>
    </g>
    <g id="text_19">
     <!-- Ts=220 K -->
     <g transform="translate(84.018 56.754687) scale(0.1 -0.1)">
      <use xlink:href="#DejaVuSans-54"/>
      <use xlink:href="#DejaVuSans-73" transform="translate(44.583984 0)"/>
      <use xlink:href="#DejaVuSans-3d" transform="translate(96.683594 0)"/>
      <use xlink:href="#DejaVuSans-32" transform="translate(180.472656 0)"/>
      <use xlink:href="#DejaVuSans-32" transform="translate(244.095703 0)"/>
      <use xlink:href="#DejaVuSans-30" transform="translate(307.71875 0)"/>
      <use xlink:href="#DejaVuSans-20" transform="translate(371.341797 0)"/>
      <use xlink:href="#DejaVuSans-4b" transform="translate(403.128906 0)"/>
     </g>
    </g>
    <g id="line2d_22">
     <path d="M 56.018 67.932813 
L 66.018 67.932813 
L 76.018 67.932813 
" style="fill: none; stroke: #d62728; stroke-width: 1.5; stroke-linecap: square"/>
    </g>
    <g id="text_20">
     <!-- Ts=260 K -->
     <g transform="translate(84.018 71.432813) scale(0.1 -0.1)">
      <use xlink:href="#DejaVuSans-54"/>
      <use xlink:href="#DejaVuSans-73" transform="translate(44.583984 0)"/>
      <use xlink:href="#DejaVuSans-3d" transform="translate(96.683594 0)"/>
      <use xlink:href="#DejaVuSans-32" transform="translate(180.472656 0)"/>
      <use xlink:href="#DejaVuSans-36" transform="translate(244.095703 0)"/>
      <use xlink:href="#DejaVuSans-30" transform="translate(307.71875 0)"/>
      <use xlink:href="#DejaVuSans-20" transform="translate(371.341797 0)"/>
      <use xlink:href="#DejaVuSans-4b" transform="translate(403.128906 0)"/>
     </g>
    </g>
   </g>
  </g>
 </g>
 <defs>
  <clipPath id="pc5ad6f0cf7">
   <rect x="47.018" y="10.8" width="402.982" height="291.4"/>
  </clipPath>
 </defs>
</svg>
