<?xml version="1.0" encoding="utf-8" standalone="no"?>
<!DOCTYPE svg PUBLIC "-//W3C//DTD SVG 1.1//EN"
  "http://www.w3.org/Graphics/SVG/1.1/DTD/svg11.dtd">
<svg xmlns:xlink="http://www.w3.org/1999/xlink" width="460.8pt" height="345.6pt" viewBox="0 0 460.8 345.6" xmlns="http://www.w3.org/2000/svg" version="1.1">
 <metadata>
  <rdf:RDF xmlns:dc="http://purl.org/dc/elements/1.1/" xmlns:cc="http://creativecommons.org/ns#" xmlns:rdf="http://www.w3.org/1999/02/22-rdf-syntax-ns#">
   <cc:Work>
    <dc:type rdf:resource="http://purl.org/dc/dcmitype/StillImage"/>
    <dc:date>2026-02-12T05:53:01.746460</dc:date>
    <dc:format>image/svg+xml</dc:format>
    <dc:creator>
     <cc:Agent>
      <dc:title>Matplotlib v3.10.8, https://matplotlib.org/</dc:title>
     </cc:Agent>
    </dc:creator>
   </cc:Work>
  </rdf:RDF>
 </metadata>
 <defs>
  <style type="text/css">*{stroke-linejoin: round; stroke-linecap: butt}</style>
 </defs>
 <g id="figure_1">
  <g id="patch_1">
   <path d="M 0 345.6 
L 460.8 345.6 
L 460.8 0 
L 0 0 
L 0 345.6 
z
" style="fill: none"/>
  </g>
  <g id="axes_1">
   <g id="patch_2">
    <path d="M 47.018 302.2 
L 450 302.2 
L 450 10.8 
L 47.018 10.8 
L 47.018 302.2 
z
" style="fill: none"/>
   </g>
   <g id="FillBetweenPolyCollection_1">
    <path d="M 65.335364 217.611973 
L 65.335364 217.83737 
L 72.811839 201.683428 
L 80.288314 188.612431 
L 87.764788 177.974324 
L 95.241263 169.182299 
L 102.717738 161.752679 
L 110.194213 155.304748 
L 117.670688 149.547412 
L 125.147163 144.271455 
L 132.623638 139.335767 
L 140.100113 134.652164 
L 147.576588 130.1705 
L 155.053063 125.864195 
L 162.529538 121.722239 
L 170.006013 117.739498 
L 177.482488 113.908173 
L 184.958963 110.21943 
L 192.435438 106.66148 
L 199.911913 103.220717 
L 207.388388 99.882534 
L 214.864863 96.633271 
L 222.341338 93.462788 
L 229.817813 90.363874 
L 237.294288 87.332561 
L 244.770763 84.36649 
L 252.247237 81.463634 
L 259.723712 78.624081 
L 267.200187 75.846197 
L 274.676662 73.126827 
L 282.153137 70.461281 
L 289.629612 67.843817 
L 297.106087 65.26855 
L 304.582562 62.730505 
L 312.059037 60.226543 
L 319.535512 57.755797 
L 327.011987 55.319849 
L 334.488462 52.922071 
L 341.964937 50.566029 
L 349.441412 48.253933 
L 356.917887 45.984944 
L 364.394362 43.753935 
L 371.870837 41.551165 
L 379.347312 39.363318 
L 386.823787 37.176209 
L 394.300262 34.97928 
L 401.776737 32.771769 
L 409.253212 30.570172 
L 416.729686 28.416383 
L 424.206161 26.385717 
L 431.682636 24.593844 
L 431.682636 24.045455 
L 431.682636 24.045455 
L 424.206161 25.840255 
L 416.729686 27.874504 
L 409.253212 30.032051 
L 401.776737 32.236347 
L 394.300262 34.446584 
L 386.823787 36.646264 
L 379.347312 38.836165 
L 371.870837 41.02685 
L 364.394362 43.232738 
L 356.917887 45.467478 
L 349.441412 47.740273 
L 341.964937 50.05626 
L 334.488462 52.416277 
L 327.011987 54.818104 
L 319.535512 57.258172 
L 312.059037 59.733234 
L 304.582562 62.241688 
L 297.106087 64.784281 
L 289.629612 67.364157 
L 282.153137 69.986305 
L 274.676662 72.656627 
L 267.200187 75.380874 
L 259.723712 78.163758 
L 252.247237 81.008447 
L 244.770763 83.916596 
L 237.294288 86.888924 
L 229.817813 89.926218 
L 222.341338 93.030535 
L 214.864863 96.206313 
L 207.388388 99.461018 
L 199.911913 102.805318 
L 192.435438 106.252379 
L 184.958963 109.81659 
L 177.482488 113.511465 
L 170.006013 117.348093 
L 162.529538 121.33639 
L 155.053063 125.482743 
L 147.576588 129.793709 
L 140.100113 134.281281 
L 132.623638 138.97104 
L 125.147163 143.913226 
L 117.670688 149.198024 
L 110.194213 154.966044 
L 102.717738 161.426105 
L 95.241263 168.869964 
L 87.764788 177.68035 
L 80.288314 188.338563 
L 72.811839 201.425393 
L 65.335364 217.611973 
z
" clip-path="url(#pfd12c62b00)" style="fill: #1f77b4; fill-opacity: 0.45"/>
   </g>
   <g id="FillBetweenPolyCollection_2">
    <path d="M 65.335364 256.932828 
L 65.335364 257.084513 
L 72.811839 248.691456 
L 80.288314 241.864328 
L 87.764788 236.272401 
L 95.241263 231.626557 
L 102.717738 227.684419 
L 110.194213 224.251599 
L 117.670688 221.179438 
L 125.147163 218.359898 
L 132.623638 215.719499 
L 140.100113 213.211786 
L 147.576588 210.809974 
L 155.053063 208.500239 
L 162.529538 206.276128 
L 170.006013 204.134326 
L 177.482488 202.071859 
L 184.958963 200.084623 
L 192.435438 198.166963 
L 199.911913 196.31201 
L 207.388388 194.512449 
L 214.864863 192.761346 
L 222.341338 191.05286 
L 229.817813 189.382645 
L 237.294288 187.747913 
L 244.770763 186.147153 
L 252.247237 184.579659 
L 259.723712 183.044955 
L 267.200187 181.542293 
L 274.676662 180.070316 
L 282.153137 178.626977 
L 289.629612 177.209697 
L 297.106087 175.815725 
L 304.582562 174.442612 
L 312.059037 173.088628 
L 319.535512 171.753062 
L 327.011987 170.436252 
L 334.488462 169.13931 
L 341.964937 167.8636 
L 349.441412 166.610006 
L 356.917887 165.378176 
L 364.394362 164.16595 
L 371.870837 162.969168 
L 379.347312 161.782071 
L 386.823787 160.598439 
L 394.300262 159.41352 
L 401.776737 158.22673 
L 409.253212 157.044917 
L 416.729686 155.885982 
L 424.206161 154.782433 
L 431.682636 153.784483 
L 431.682636 153.249329 
L 431.682636 153.249329 
L 424.206161 154.250966 
L 416.729686 155.358451 
L 409.253212 156.521469 
L 401.776737 157.707452 
L 394.300262 158.898462 
L 386.823787 160.087628 
L 379.347312 161.27554 
L 371.870837 162.466951 
L 364.394362 163.668098 
L 356.917887 164.884752 
L 349.441412 166.121091 
L 341.964937 167.379284 
L 334.488462 168.659692 
L 327.011987 169.961435 
L 319.535512 171.283156 
L 312.059037 172.623736 
L 304.582562 173.982835 
L 297.106087 175.36116 
L 289.629612 176.760429 
L 282.153137 178.183092 
L 274.676662 179.631885 
L 267.200187 181.109227 
L 259.723712 182.617315 
L 252.247237 184.157528 
L 244.770763 185.73062 
L 237.294288 187.337084 
L 229.817813 188.977643 
L 222.341338 190.653829 
L 214.864863 192.36846 
L 207.388388 194.125911 
L 199.911913 195.932048 
L 192.435438 197.79383 
L 184.958963 199.7186 
L 177.482488 201.713225 
L 170.006013 203.783364 
L 162.529538 205.933112 
L 155.053063 208.165431 
L 147.576588 210.483641 
L 140.100113 212.894217 
L 132.623638 215.411046 
L 125.147163 218.061048 
L 117.670688 220.890897 
L 110.194213 223.974416 
L 102.717738 227.419931 
L 95.241263 231.376806 
L 87.764788 236.040277 
L 80.288314 241.653664 
L 72.811839 248.507199 
L 65.335364 256.932828 
z
" clip-path="url(#pfd12c62b00)" style="fill: #ff7f0e; fill-opacity: 0.45"/>
   </g>
   <g id="FillBetweenPolyCollection_3">
    <path d="M 65.335364 279.766563 
L 65.335364 279.866289 
L 72.811839 276.742732 
L 80.288314 274.196616 
L 87.764788 272.105316 
L 95.241263 270.361844 
L 102.717738 268.876774 
L 110.194213 267.578632 
L 117.670688 266.412997 
L 125.147163 265.340609 
L 132.623638 264.334886 
L 140.100113 263.379113 
L 147.576588 262.463683 
L 155.053063 261.583598 
L 162.529538 260.736411 
L 170.006013 259.920704 
L 177.482488 259.13511 
L 184.958963 258.377826 
L 192.435438 257.646511 
L 199.911913 256.938457 
L 207.388388 256.250887 
L 214.864863 255.581261 
L 222.341338 254.927522 
L 229.817813 254.288211 
L 237.294288 253.662443 
L 244.770763 253.049778 
L 252.247237 252.450009 
L 259.723712 251.862938 
L 267.200187 251.288197 
L 274.676662 250.725143 
L 282.153137 250.172852 
L 289.629612 249.630226 
L 297.106087 249.096152 
L 304.582562 248.569705 
L 312.059037 248.050305 
L 319.535512 247.537823 
L 327.011987 247.032554 
L 334.488462 246.535083 
L 341.964937 246.04603 
L 349.441412 245.565742 
L 356.917887 245.09399 
L 364.394362 244.629748 
L 371.870837 244.171157 
L 379.347312 243.715735 
L 386.823787 243.260902 
L 394.300262 242.804798 
L 401.776737 242.347408 
L 409.253212 241.891875 
L 416.729686 241.445901 
L 424.206161 241.023067 
L 431.682636 240.643897 
L 431.682636 240.297662 
L 431.682636 240.297662 
L 424.206161 240.679588 
L 416.729686 241.105079 
L 409.253212 241.55364 
L 401.776737 242.011726 
L 394.300262 242.471676 
L 386.823787 242.930381 
L 379.347312 243.387879 
L 371.870837 243.846044 
L 364.394362 244.30746 
L 356.917887 244.7746 
L 349.441412 245.249305 
L 341.964937 245.732587 
L 334.488462 246.224658 
L 327.011987 246.725158 
L 319.535512 247.233462 
L 312.059037 247.748989 
L 304.582562 248.271455 
L 297.106087 248.801007 
L 289.629612 249.338238 
L 282.153137 249.884097 
L 274.676662 250.439705 
L 267.200187 251.006175 
L 259.723712 251.584432 
L 252.247237 252.175113 
L 244.770763 252.778584 
L 237.294288 253.395028 
L 229.817813 254.024648 
L 222.341338 254.667879 
L 214.864863 255.32561 
L 207.388388 255.999309 
L 199.911913 256.691053 
L 192.435438 257.403407 
L 184.958963 258.139177 
L 177.482488 258.901097 
L 170.006013 259.691528 
L 162.529538 260.512286 
L 155.053063 261.364747 
L 147.576588 262.250334 
L 140.100113 263.171499 
L 132.623638 264.133267 
L 125.147163 265.1453 
L 117.670688 266.224423 
L 110.194213 267.397405 
L 102.717738 268.70379 
L 95.241263 270.198412 
L 87.764788 271.953256 
L 80.288314 274.058409 
L 72.811839 276.621663 
L 65.335364 279.766563 
z
" clip-path="url(#pfd12c62b00)" style="fill: #2ca02c; fill-opacity: 0.45"/>
   </g>
   <g id="FillBetweenPolyCollection_4">
    <path d="M 65.335364 288.913128 
L 65.335364 288.954545 
L 72.811839 288.214863 
L 80.288314 287.62208 
L 87.764788 287.141764 
L 95.241263 286.744681 
L 102.717738 286.407157 
L 110.194213 286.110973 
L 117.670688 285.842882 
L 125.147163 285.593878 
L 132.623638 285.358327 
L 140.100113 285.133084 
L 147.576588 284.916665 
L 155.053063 284.708556 
L 162.529538 284.508688 
L 170.006013 284.317081 
L 177.482488 284.133641 
L 184.958963 283.958089 
L 192.435438 283.789972 
L 199.911913 283.628714 
L 207.388388 283.473671 
L 214.864863 283.324189 
L 222.341338 283.179611 
L 229.817813 283.039277 
L 237.294288 282.902493 
L 244.770763 282.768513 
L 252.247237 282.636534 
L 259.723712 282.505719 
L 267.200187 282.37525 
L 274.676662 282.244428 
L 282.153137 282.112756 
L 289.629612 281.980054 
L 297.106087 281.84649 
L 304.582562 281.712598 
L 312.059037 281.5792 
L 319.535512 281.447248 
L 327.011987 281.317622 
L 334.488462 281.190871 
L 341.964937 281.066978 
L 349.441412 280.945176 
L 356.917887 280.823892 
L 364.394362 280.700839 
L 371.870837 280.573328 
L 379.347312 280.438793 
L 386.823787 280.295502 
L 394.300262 280.14345 
L 401.776737 279.985318 
L 409.253212 279.827425 
L 416.729686 279.680547 
L 424.206161 279.560491 
L 431.682636 279.488293 
L 431.682636 279.365639 
L 431.682636 279.365639 
L 424.206161 279.438774 
L 416.729686 279.559582 
L 409.253212 279.707068 
L 401.776737 279.865503 
L 394.300262 280.024201 
L 386.823787 280.176939 
L 379.347312 280.321115 
L 371.870837 280.456798 
L 364.394362 280.585747 
L 356.917887 280.710529 
L 349.441412 280.833805 
L 341.964937 280.957801 
L 334.488462 281.084019 
L 327.011987 281.213144 
L 319.535512 281.345108 
L 312.059037 281.479285 
L 304.582562 281.614737 
L 297.106087 281.750465 
L 289.629612 281.885631 
L 282.153137 282.0197 
L 274.676662 282.152518 
L 267.200187 282.284304 
L 259.723712 282.415591 
L 252.247237 282.547127 
L 244.770763 282.679773 
L 237.294288 282.814409 
L 229.817813 282.951875 
L 222.341338 283.092946 
L 214.864863 283.238335 
L 207.388388 283.388718 
L 199.911913 283.544762 
L 192.435438 283.707127 
L 184.958963 283.876457 
L 177.482488 284.053326 
L 170.006013 284.238184 
L 162.529538 284.431301 
L 155.053063 284.632755 
L 147.576588 284.842511 
L 140.100113 285.06062 
L 132.623638 285.287584 
L 125.147163 285.524884 
L 117.670688 285.775686 
L 110.194213 286.045675 
L 102.717738 286.343957 
L 95.241263 286.683935 
L 87.764788 287.084064 
L 80.288314 287.568332 
L 72.811839 288.166379 
L 65.335364 288.913128 
z
" clip-path="url(#pfd12c62b00)" style="fill: #d62728; fill-opacity: 0.45"/>
   </g>
   <g id="matplotlib.axis_1">
    <g id="xtick_1">
     <g id="line2d_1">
      <defs>
       <path id="m8df14282a2" d="M 0 0 
L 0 3.5 
" style="stroke: #000000; stroke-width: 0.8"/>
      </defs>
      <g>
       <use xlink:href="#m8df14282a2" x="61.634886" y="302.2" style="stroke: #000000; stroke-width: 0.8"/>
      </g>
     </g>
     <g id="text_1">
      <!-- 0 -->
      <g transform="translate(58.453636 316.798437) scale(0.1 -0.1)">
       <defs>
        <path id="DejaVuSans-30" d="M 2034 4250 
Q 1547 4250 1301 3770 
Q 1056 3291 1056 2328 
Q 1056 1369 1301 889 
Q 1547 409 2034 409 
Q 2525 409 2770 889 
Q 3016 1369 3016 2328 
Q 3016 3291 2770 3770 
Q 2525 4250 2034 4250 
z
M 2034 4750 
Q 2819 4750 3233 4129 
Q 3647 3509 3647 2328 
Q 3647 1150 3233 529 
Q 2819 -91 2034 -91 
Q 1250 -91 836 529 
Q 422 1150 422 2328 
Q 422 3509 836 4129 
Q 1250 4750 2034 4750 
z
" transform="scale(0.015625)"/>
       </defs>
       <use xlink:href="#DejaVuSans-30"/>
      </g>
     </g>
    </g>
    <g id="xtick_2">
     <g id="line2d_2">
      <g>
       <use xlink:href="#m8df14282a2" x="135.644436" y="302.2" style="stroke: #000000; stroke-width: 0.8"/>
      </g>
     </g>
     <g id="text_2">
      <!-- 1 -->
      <g transform="translate(132.463186 316.798437) scale(0.1 -0.1)">
       <defs>
        <path id="DejaVuSans-31" d="M 794 531 
L 1825 531 
L 1825 4091 
L 703 3866 
L 703 4441 
L 1819 4666 
L 2450 4666 
L 2450 531 
L 3481 531 
L 3481 0 
L 794 0 
L 794 531 
z
" transform="scale(0.015625)"/>
       </defs>
       <use xlink:href="#DejaVuSans-31"/>
      </g>
     </g>
    </g>
    <g id="xtick_3">
     <g id="line2d_3">
      <g>
       <use xlink:href="#m8df14282a2" x="209.653986" y="302.2" style="stroke: #000000; stroke-width: 0.8"/>
      </g>
     </g>
     <g id="text_3">
      <!-- 2 -->
      <g transform="translate(206.472736 316.798437) scale(0.1 -0.1)">
       <defs>
        <path id="DejaVuSans-32" d="M 1228 531 
L 3431 531 
L 3431 0 
L 469 0 
L 469 531 
Q 828 903 1448 1529 
Q 2069 2156 2228 2338 
Q 2531 2678 2651 2914 
Q 2772 3150 2772 3378 
Q 2772 3750 2511 3984 
Q 2250 4219 1831 4219 
Q 1534 4219 1204 4116 
Q 875 4013 500 3803 
L 500 4441 
Q 881 4594 1212 4672 
Q 1544 4750 1819 4750 
Q 2544 4750 2975 4387 
Q 3406 4025 3406 3419 
Q 3406 3131 3298 2873 
Q 3191 2616 2906 2266 
Q 2828 2175 2409 1742 
Q 1991 1309 1228 531 
z
" transform="scale(0.015625)"/>
       </defs>
       <use xlink:href="#DejaVuSans-32"/>
      </g>
     </g>
    </g>
    <g id="xtick_4">
     <g id="line2d_4">
      <g>
       <use xlink:href="#m8df14282a2" x="283.663536" y="302.2" style="stroke: #000000; stroke-width: 0.8"/>
      </g>
     </g>
     <g id="text_4">
      <!-- 3 -->
      <g transform="translate(280.482286 316.798437) scale(0.1 -0.1)">
       <defs>
        <path id="DejaVuSans-33" d="M 2597 2516 
Q 3050 2419 3304 2112 
Q 3559 1806 3559 1356 
Q 3559 666 3084 287 
Q 2609 -91 1734 -91 
Q 1441 -91 1130 -33 
Q 819 25 488 141 
L 488 750 
Q 750 597 1062 519 
Q 1375 441 1716 441 
Q 2309 441 2620 675 
Q 2931 909 2931 1356 
Q 2931 1769 2642 2001 
Q 2353 2234 1838 2234 
L 1294 2234 
L 1294 2753 
L 1863 2753 
Q 2328 2753 2575 2939 
Q 2822 3125 2822 3475 
Q 2822 3834 2567 4026 
Q 2313 4219 1838 4219 
Q 1578 4219 1281 4162 
Q 984 4106 628 3988 
L 628 4550 
Q 988 4650 1302 4700 
Q 1616 4750 1894 4750 
Q 2613 4750 3031 4423 
Q 3450 4097 3450 3541 
Q 3450 3153 3228 2886 
Q 3006 2619 2597 2516 
z
" transform="scale(0.015625)"/>
       </defs>
       <use xlink:href="#DejaVuSans-33"/>
      </g>
     </g>
    </g>
    <g id="xtick_5">
     <g id="line2d_5">
      <g>
       <use xlink:href="#m8df14282a2" x="357.673086" y="302.2" style="stroke: #000000; stroke-width: 0.8"/>
      </g>
     </g>
     <g id="text_5">
      <!-- 4 -->
      <g transform="translate(354.491836 316.798437) scale(0.1 -0.1)">
       <defs>
        <path id="DejaVuSans-34" d="M 2419 4116 
L 825 1625 
L 2419 1625 
L 2419 4116 
z
M 2253 4666 
L 3047 4666 
L 3047 1625 
L 3713 1625 
L 3713 1100 
L 3047 1100 
L 3047 0 
L 2419 0 
L 2419 1100 
L 313 1100 
L 313 1709 
L 2253 4666 
z
" transform="scale(0.015625)"/>
       </defs>
       <use xlink:href="#DejaVuSans-34"/>
      </g>
     </g>
    </g>
    <g id="xtick_6">
     <g id="line2d_6">
      <g>
       <use xlink:href="#m8df14282a2" x="431.682636" y="302.2" style="stroke: #000000; stroke-width: 0.8"/>
      </g>
     </g>
     <g id="text_6">
      <!-- 5 -->
      <g transform="translate(428.501386 316.798437) scale(0.1 -0.1)">
       <defs>
        <path id="DejaVuSans-35" d="M 691 4666 
L 3169 4666 
L 3169 4134 
L 1269 4134 
L 1269 2991 
Q 1406 3038 1543 3061 
Q 1681 3084 1819 3084 
Q 2600 3084 3056 2656 
Q 3513 2228 3513 1497 
Q 3513 744 3044 326 
Q 2575 -91 1722 -91 
Q 1428 -91 1123 -41 
Q 819 9 494 109 
L 494 744 
Q 775 591 1075 516 
Q 1375 441 1709 441 
Q 2250 441 2565 725 
Q 2881 1009 2881 1497 
Q 2881 1984 2565 2268 
Q 2250 2553 1709 2553 
Q 1456 2553 1204 2497 
Q 953 2441 691 2322 
L 691 4666 
z
" transform="scale(0.015625)"/>
       </defs>
       <use xlink:href="#DejaVuSans-35"/>
      </g>
     </g>
    </g>
    <g id="text_7">
     <!-- $W$ (m/hour) -->
     <g transform="translate(220.059 330.476562) scale(0.1 -0.1)">
      <defs>
       <path id="DejaVuSans-Oblique-57" d="M 616 4666 
L 1228 4666 
L 1453 697 
L 3213 4666 
L 3916 4666 
L 4147 697 
L 5888 4666 
L 6528 4666 
L 4453 0 
L 3659 0 
L 3444 3891 
L 1697 0 
L 903 0 
L 616 4666 
z
" transform="scale(0.015625)"/>
       <path id="DejaVuSans-20" transform="scale(0.015625)"/>
       <path id="DejaVuSans-28" d="M 1984 4856 
Q 1566 4138 1362 3434 
Q 1159 2731 1159 2009 
Q 1159 1288 1364 580 
Q 1569 -128 1984 -844 
L 1484 -844 
Q 1016 -109 783 600 
Q 550 1309 550 2009 
Q 550 2706 781 3412 
Q 1013 4119 1484 4856 
L 1984 4856 
z
" transform="scale(0.015625)"/>
       <path id="DejaVuSans-6d" d="M 3328 2828 
Q 3544 3216 3844 3400 
Q 4144 3584 4550 3584 
Q 5097 3584 5394 3201 
Q 5691 2819 5691 2113 
L 5691 0 
L 5113 0 
L 5113 2094 
Q 5113 2597 4934 2840 
Q 4756 3084 4391 3084 
Q 3944 3084 3684 2787 
Q 3425 2491 3425 1978 
L 3425 0 
L 2847 0 
L 2847 2094 
Q 2847 2600 2669 2842 
Q 2491 3084 2119 3084 
Q 1678 3084 1418 2786 
Q 1159 2488 1159 1978 
L 1159 0 
L 581 0 
L 581 3500 
L 1159 3500 
L 1159 2956 
Q 1356 3278 1631 3431 
Q 1906 3584 2284 3584 
Q 2666 3584 2933 3390 
Q 3200 3197 3328 2828 
z
" transform="scale(0.015625)"/>
       <path id="DejaVuSans-2f" d="M 1625 4666 
L 2156 4666 
L 531 -594 
L 0 -594 
L 1625 4666 
z
" transform="scale(0.015625)"/>
       <path id="DejaVuSans-68" d="M 3513 2113 
L 3513 0 
L 2938 0 
L 2938 2094 
Q 2938 2591 2744 2837 
Q 2550 3084 2163 3084 
Q 1697 3084 1428 2787 
Q 1159 2491 1159 1978 
L 1159 0 
L 581 0 
L 581 4863 
L 1159 4863 
L 1159 2956 
Q 1366 3272 1645 3428 
Q 1925 3584 2291 3584 
Q 2894 3584 3203 3211 
Q 3513 2838 3513 2113 
z
" transform="scale(0.015625)"/>
       <path id="DejaVuSans-6f" d="M 1959 3097 
Q 1497 3097 1228 2736 
Q 959 2375 959 1747 
Q 959 1119 1226 758 
Q 1494 397 1959 397 
Q 2419 397 2687 759 
Q 2956 1122 2956 1747 
Q 2956 2369 2687 2733 
Q 2419 3097 1959 3097 
z
M 1959 3584 
Q 2709 3584 3137 3096 
Q 3566 2609 3566 1747 
Q 3566 888 3137 398 
Q 2709 -91 1959 -91 
Q 1206 -91 779 398 
Q 353 888 353 1747 
Q 353 2609 779 3096 
Q 1206 3584 1959 3584 
z
" transform="scale(0.015625)"/>
       <path id="DejaVuSans-75" d="M 544 1381 
L 544 3500 
L 1119 3500 
L 1119 1403 
Q 1119 906 1312 657 
Q 1506 409 1894 409 
Q 2359 409 2629 706 
Q 2900 1003 2900 1516 
L 2900 3500 
L 3475 3500 
L 3475 0 
L 2900 0 
L 2900 538 
Q 2691 219 2414 64 
Q 2138 -91 1772 -91 
Q 1169 -91 856 284 
Q 544 659 544 1381 
z
M 1991 3584 
L 1991 3584 
z
" transform="scale(0.015625)"/>
       <path id="DejaVuSans-72" d="M 2631 2963 
Q 2534 3019 2420 3045 
Q 2306 3072 2169 3072 
Q 1681 3072 1420 2755 
Q 1159 2438 1159 1844 
L 1159 0 
L 581 0 
L 581 3500 
L 1159 3500 
L 1159 2956 
Q 1341 3275 1631 3429 
Q 1922 3584 2338 3584 
Q 2397 3584 2469 3576 
Q 2541 3569 2628 3553 
L 2631 2963 
z
" transform="scale(0.015625)"/>
       <path id="DejaVuSans-29" d="M 513 4856 
L 1013 4856 
Q 1481 4119 1714 3412 
Q 1947 2706 1947 2009 
Q 1947 1309 1714 600 
Q 1481 -109 1013 -844 
L 513 -844 
Q 928 -128 1133 580 
Q 1338 1288 1338 2009 
Q 1338 2731 1133 3434 
Q 928 4138 513 4856 
z
" transform="scale(0.015625)"/>
      </defs>
      <use xlink:href="#DejaVuSans-Oblique-57" transform="translate(0 0.015625)"/>
      <use xlink:href="#DejaVuSans-20" transform="translate(98.876953 0.015625)"/>
      <use xlink:href="#DejaVuSans-28" transform="translate(130.664062 0.015625)"/>
      <use xlink:href="#DejaVuSans-6d" transform="translate(169.677734 0.015625)"/>
      <use xlink:href="#DejaVuSans-2f" transform="translate(267.089844 0.015625)"/>
      <use xlink:href="#DejaVuSans-68" transform="translate(300.78125 0.015625)"/>
      <use xlink:href="#DejaVuSans-6f" transform="translate(364.160156 0.015625)"/>
      <use xlink:href="#DejaVuSans-75" transform="translate(425.341797 0.015625)"/>
      <use xlink:href="#DejaVuSans-72" transform="translate(488.720703 0.015625)"/>
      <use xlink:href="#DejaVuSans-29" transform="translate(529.833984 0.015625)"/>
     </g>
    </g>
   </g>
   <g id="matplotlib.axis_2">
    <g id="ytick_1">
     <g id="line2d_7">
      <defs>
       <path id="m85690fec66" d="M 0 0 
L -3.5 0 
" style="stroke: #000000; stroke-width: 0.8"/>
      </defs>
      <g>
       <use xlink:href="#m85690fec66" x="47.018" y="291.503638" style="stroke: #000000; stroke-width: 0.8"/>
      </g>
     </g>
     <g id="text_8">
      <!-- 0 -->
      <g transform="translate(33.6555 295.302857) scale(0.1 -0.1)">
       <use xlink:href="#DejaVuSans-30"/>
      </g>
     </g>
    </g>
    <g id="ytick_2">
     <g id="line2d_8">
      <g>
       <use xlink:href="#m85690fec66" x="47.018" y="254.222686" style="stroke: #000000; stroke-width: 0.8"/>
      </g>
     </g>
     <g id="text_9">
      <!-- 5 -->
      <g transform="translate(33.6555 258.021905) scale(0.1 -0.1)">
       <use xlink:href="#DejaVuSans-35"/>
      </g>
     </g>
    </g>
    <g id="ytick_3">
     <g id="line2d_9">
      <g>
       <use xlink:href="#m85690fec66" x="47.018" y="216.941734" style="stroke: #000000; stroke-width: 0.8"/>
      </g>
     </g>
     <g id="text_10">
      <!-- 10 -->
      <g transform="translate(27.293 220.740953) scale(0.1 -0.1)">
       <use xlink:href="#DejaVuSans-31"/>
       <use xlink:href="#DejaVuSans-30" transform="translate(63.623047 0)"/>
      </g>
     </g>
    </g>
    <g id="ytick_4">
     <g id="line2d_10">
      <g>
       <use xlink:href="#m85690fec66" x="47.018" y="179.660782" style="stroke: #000000; stroke-width: 0.8"/>
      </g>
     </g>
     <g id="text_11">
      <!-- 15 -->
      <g transform="translate(27.293 183.460001) scale(0.1 -0.1)">
       <use xlink:href="#DejaVuSans-31"/>
       <use xlink:href="#DejaVuSans-35" transform="translate(63.623047 0)"/>
      </g>
     </g>
    </g>
    <g id="ytick_5">
     <g id="line2d_11">
      <g>
       <use xlink:href="#m85690fec66" x="47.018" y="142.37983" style="stroke: #000000; stroke-width: 0.8"/>
      </g>
     </g>
     <g id="text_12">
      <!-- 20 -->
      <g transform="translate(27.293 146.179049) scale(0.1 -0.1)">
       <use xlink:href="#DejaVuSans-32"/>
       <use xlink:href="#DejaVuSans-30" transform="translate(63.623047 0)"/>
      </g>
     </g>
    </g>
    <g id="ytick_6">
     <g id="line2d_12">
      <g>
       <use xlink:href="#m85690fec66" x="47.018" y="105.098878" style="stroke: #000000; stroke-width: 0.8"/>
      </g>
     </g>
     <g id="text_13">
      <!-- 25 -->
      <g transform="translate(27.293 108.898097) scale(0.1 -0.1)">
       <use xlink:href="#DejaVuSans-32"/>
       <use xlink:href="#DejaVuSans-35" transform="translate(63.623047 0)"/>
      </g>
     </g>
    </g>
    <g id="ytick_7">
     <g id="line2d_13">
      <g>
       <use xlink:href="#m85690fec66" x="47.018" y="67.817927" style="stroke: #000000; stroke-width: 0.8"/>
      </g>
     </g>
     <g id="text_14">
      <!-- 30 -->
      <g transform="translate(27.293 71.617145) scale(0.1 -0.1)">
       <use xlink:href="#DejaVuSans-33"/>
       <use xlink:href="#DejaVuSans-30" transform="translate(63.623047 0)"/>
      </g>
     </g>
    </g>
    <g id="ytick_8">
     <g id="line2d_14">
      <g>
       <use xlink:href="#m85690fec66" x="47.018" y="30.536975" style="stroke: #000000; stroke-width: 0.8"/>
      </g>
     </g>
     <g id="text_15">
      <!-- 35 -->
      <g transform="translate(27.293 34.336193) scale(0.1 -0.1)">
       <use xlink:href="#DejaVuSans-33"/>
       <use xlink:href="#DejaVuSans-35" transform="translate(63.623047 0)"/>
      </g>
     </g>
    </g>
    <g id="text_16">
     <!-- $Q_{lc}$ (kW) -->
     <g transform="translate(21.213312 176.8) rotate(-90) scale(0.1 -0.1)">
      <defs>
       <path id="DejaVuSans-Oblique-51" d="M 2309 -84 
Q 2275 -88 2237 -89 
Q 2200 -91 2125 -91 
Q 1250 -91 756 411 
Q 263 913 263 1797 
Q 263 2319 452 2844 
Q 641 3369 978 3788 
Q 1369 4269 1858 4509 
Q 2347 4750 2938 4750 
Q 3794 4750 4287 4245 
Q 4781 3741 4781 2869 
Q 4781 1928 4265 1147 
Q 3750 366 2919 44 
L 3553 -825 
L 2847 -825 
L 2309 -84 
z
M 2919 4238 
Q 2400 4238 2003 3986 
Q 1606 3734 1313 3219 
Q 1125 2891 1026 2522 
Q 928 2153 928 1778 
Q 928 1128 1239 775 
Q 1550 422 2119 422 
Q 2631 422 3032 676 
Q 3434 931 3719 1434 
Q 3909 1772 4009 2142 
Q 4109 2513 4109 2881 
Q 4109 3528 3796 3883 
Q 3484 4238 2919 4238 
z
" transform="scale(0.015625)"/>
       <path id="DejaVuSans-Oblique-6c" d="M 1172 4863 
L 1747 4863 
L 800 0 
L 225 0 
L 1172 4863 
z
" transform="scale(0.015625)"/>
       <path id="DejaVuSans-Oblique-63" d="M 3431 3366 
L 3316 2797 
Q 3109 2947 2876 3022 
Q 2644 3097 2394 3097 
Q 2119 3097 1870 3000 
Q 1622 2903 1453 2725 
Q 1184 2453 1037 2087 
Q 891 1722 891 1331 
Q 891 859 1127 628 
Q 1363 397 1844 397 
Q 2081 397 2348 469 
Q 2616 541 2906 684 
L 2797 116 
Q 2547 13 2283 -39 
Q 2019 -91 1741 -91 
Q 1044 -91 669 257 
Q 294 606 294 1253 
Q 294 1797 489 2255 
Q 684 2713 1069 3078 
Q 1331 3328 1684 3456 
Q 2038 3584 2456 3584 
Q 2700 3584 2940 3529 
Q 3181 3475 3431 3366 
z
" transform="scale(0.015625)"/>
       <path id="DejaVuSans-6b" d="M 581 4863 
L 1159 4863 
L 1159 1991 
L 2875 3500 
L 3609 3500 
L 1753 1863 
L 3688 0 
L 2938 0 
L 1159 1709 
L 1159 0 
L 581 0 
L 581 4863 
z
" transform="scale(0.015625)"/>
       <path id="DejaVuSans-57" d="M 213 4666 
L 850 4666 
L 1831 722 
L 2809 4666 
L 3519 4666 
L 4500 722 
L 5478 4666 
L 6119 4666 
L 4947 0 
L 4153 0 
L 3169 4050 
L 2175 0 
L 1381 0 
L 213 4666 
z
" transform="scale(0.015625)"/>
      </defs>
      <use xlink:href="#DejaVuSans-Oblique-51" transform="translate(0 0.015625)"/>
      <use xlink:href="#DejaVuSans-Oblique-6c" transform="translate(78.710938 -16.390625) scale(0.7)"/>
      <use xlink:href="#DejaVuSans-Oblique-63" transform="translate(98.15918 -16.390625) scale(0.7)"/>
      <use xlink:href="#DejaVuSans-20" transform="translate(139.379883 0.015625)"/>
      <use xlink:href="#DejaVuSans-28" transform="translate(171.166992 0.015625)"/>
      <use xlink:href="#DejaVuSans-6b" transform="translate(210.180664 0.015625)"/>
      <use xlink:href="#DejaVuSans-57" transform="translate(268.09082 0.015625)"/>
      <use xlink:href="#DejaVuSans-29" transform="translate(366.967773 0.015625)"/>
     </g>
    </g>
   </g>
   <g id="line2d_15">
    <path d="M 65.335364 217.723309 
L 72.811839 201.549181 
L 80.288314 188.469944 
L 87.764788 177.819313 
L 95.241263 169.017498 
L 102.717738 161.581217 
L 110.194213 155.128316 
L 117.670688 149.367209 
L 125.147163 144.087625 
L 132.623638 139.148468 
L 140.100113 134.461589 
L 147.576588 129.976522 
L 155.053063 125.667744 
L 162.529538 121.523919 
L 170.006013 117.538241 
L 177.482488 113.704095 
L 184.958963 110.012269 
L 192.435438 106.451419 
L 199.911913 103.00831 
L 207.388388 99.667872 
L 214.864863 96.416501 
L 222.341338 93.24392 
L 229.817813 90.142597 
L 237.294288 87.108195 
L 244.770763 84.13863 
L 252.247237 81.233684 
L 259.723712 78.391948 
L 267.200187 75.611793 
L 274.676662 72.890211 
L 282.153137 70.222499 
L 289.629612 67.602914 
L 297.106087 65.02566 
L 304.582562 62.485777 
L 312.059037 59.980009 
L 319.535512 57.507602 
L 327.011987 55.070152 
L 334.488462 52.670597 
L 341.964937 50.312728 
L 349.441412 47.998621 
L 356.917887 45.727645 
L 364.394362 43.494689 
L 371.870837 41.289996 
L 379.347312 39.100271 
L 386.823787 36.911195 
L 394.300262 34.712313 
L 401.776737 32.502951 
L 409.253212 30.300148 
L 416.729686 28.144357 
L 424.206161 26.112166 
L 431.682636 24.318963 
" clip-path="url(#pfd12c62b00)" style="fill: none; stroke: #1f77b4; stroke-width: 1.5; stroke-linecap: square"/>
   </g>
   <g id="line2d_16">
    <path d="M 65.335364 257.000422 
L 72.811839 248.588332 
L 80.288314 241.746463 
L 87.764788 236.142439 
L 95.241263 231.486654 
L 102.717738 227.536174 
L 110.194213 224.096122 
L 117.670688 221.017444 
L 125.147163 218.192015 
L 132.623638 215.54613 
L 140.100113 213.033203 
L 147.576588 210.626377 
L 155.053063 208.311788 
L 162.529538 206.082967 
L 170.006013 203.936602 
L 177.482488 201.86973 
L 184.958963 199.878249 
L 192.435438 197.956503 
L 199.911913 196.09763 
L 207.388388 194.294297 
L 214.864863 192.539556 
L 222.341338 190.82755 
L 229.817813 189.15392 
L 237.294288 187.515854 
L 244.770763 185.91183 
L 252.247237 184.341127 
L 259.723712 182.803267 
L 267.200187 181.29749 
L 274.676662 179.82244 
L 282.153137 178.376071 
L 289.629612 176.955802 
L 297.106087 175.55889 
L 304.582562 174.182882 
L 312.059037 172.826056 
L 319.535512 171.487703 
L 327.011987 170.168161 
L 334.488462 168.868545 
L 341.964937 167.59022 
L 349.441412 166.334063 
L 356.917887 165.099721 
L 364.394362 163.885027 
L 371.870837 162.685812 
L 379.347312 161.496306 
L 386.823787 160.310281 
L 394.300262 159.122983 
L 401.776737 157.933823 
L 409.253212 156.749666 
L 416.729686 155.588437 
L 424.206161 154.482688 
L 431.682636 153.482703 
" clip-path="url(#pfd12c62b00)" style="fill: none; stroke: #ff7f0e; stroke-width: 1.5; stroke-linecap: square"/>
   </g>
   <g id="line2d_17">
    <path d="M 65.335364 279.809154 
L 72.811839 276.673489 
L 80.288314 274.117652 
L 87.764788 272.018489 
L 95.241263 270.268564 
L 102.717738 268.778075 
L 110.194213 267.475248 
L 117.670688 266.305435 
L 125.147163 265.229221 
L 132.623638 264.219914 
L 140.100113 263.260737 
L 147.576588 262.342052 
L 155.053063 261.458844 
L 162.529538 260.60866 
L 170.006013 259.790083 
L 177.482488 259.00174 
L 184.958963 258.241819 
L 192.435438 257.50797 
L 199.911913 256.79747 
L 207.388388 256.107525 
L 214.864863 255.435583 
L 222.341338 254.779576 
L 229.817813 254.138038 
L 237.294288 253.510083 
L 244.770763 252.895273 
L 252.247237 252.293403 
L 259.723712 251.704282 
L 267.200187 251.127546 
L 274.676662 250.562548 
L 282.153137 250.00837 
L 289.629612 249.463903 
L 297.106087 248.928031 
L 304.582562 248.399814 
L 312.059037 247.878666 
L 319.535512 247.36445 
L 327.011987 246.857455 
L 334.488462 246.358263 
L 341.964937 245.867497 
L 349.441412 245.385514 
L 356.917887 244.912089 
L 364.394362 244.446207 
L 371.870837 243.986015 
L 379.347312 243.529036 
L 386.823787 243.072684 
L 394.300262 242.615095 
L 401.776737 242.156239 
L 409.253212 241.699244 
L 416.729686 241.251797 
L 424.206161 240.827459 
L 431.682636 240.446755 
" clip-path="url(#pfd12c62b00)" style="fill: none; stroke: #2ca02c; stroke-width: 1.5; stroke-linecap: square"/>
   </g>
   <g id="line2d_18">
    <path d="M 65.335364 288.932058 
L 72.811839 288.188447 
L 80.288314 287.592702 
L 87.764788 287.110132 
L 95.241263 286.71129 
L 102.717738 286.372335 
L 110.194213 286.074945 
L 117.670688 285.805765 
L 125.147163 285.555736 
L 132.623638 285.319196 
L 140.100113 285.092987 
L 147.576588 284.875625 
L 155.053063 284.6666 
L 162.529538 284.465852 
L 170.006013 284.273407 
L 177.482488 284.089177 
L 184.958963 283.912889 
L 192.435438 283.744089 
L 199.911913 283.5822 
L 207.388388 283.426581 
L 214.864863 283.276573 
L 222.341338 283.131515 
L 229.817813 282.990738 
L 237.294288 282.853539 
L 244.770763 282.719159 
L 252.247237 282.586775 
L 259.723712 282.455529 
L 267.200187 282.324583 
L 274.676662 282.193211 
L 282.153137 282.060902 
L 289.629612 281.927452 
L 297.106087 281.793025 
L 304.582562 281.658154 
L 312.059037 281.52367 
L 319.535512 281.39055 
L 327.011987 281.259702 
L 334.488462 281.131714 
L 341.964937 281.00661 
L 349.441412 280.883667 
L 356.917887 280.761343 
L 364.394362 280.637383 
L 371.870837 280.509109 
L 379.347312 280.373955 
L 386.823787 280.230176 
L 394.300262 280.077724 
L 401.776737 279.919253 
L 409.253212 279.761037 
L 416.729686 279.613809 
L 424.206161 279.49335 
L 431.682636 279.420699 
" clip-path="url(#pfd12c62b00)" style="fill: none; stroke: #d62728; stroke-width: 1.5; stroke-linecap: square"/>
   </g>
   <g id="patch_3">
    <path d="M 47.018 302.2 
L 47.018 10.8 
" style="fill: none; stroke: #000000; stroke-width: 0.8; stroke-linejoin: miter; stroke-linecap: square"/>
   </g>
   <g id="patch_4">
    <path d="M 450 302.2 
L 450 10.8 
" style="fill: none; stroke: #000000; stroke-width: 0.8; stroke-linejoin: miter; stroke-linecap: square"/>
   </g>
   <g id="patch_5">
    <path d="M 47.018 302.2 
L 450 302.2 
" style="fill: none; stroke: #000000; stroke-width: 0.8; stroke-linejoin: miter; stroke-linecap: square"/>
   </g>
   <g id="patch_6">
    <path d="M 47.018 10.8 
L 450 10.8 
" style="fill: none; stroke: #000000; stroke-width: 0.8; stroke-linejoin: miter; stroke-linecap: square"/>
   </g>
   <g id="legend_1">
    <g id="patch_7">
     <path d="M 54.018 77.5125 
L 132.888313 77.5125 
Q 134.888313 77.5125 134.888313 75.5125 
L 134.888313 17.8 
Q 134.888313 15.8 132.888313 15.8 
L 54.018 15.8 
Q 52.018 15.8 52.018 17.8 
L 52.018 75.5125 
Q 52.018 77.5125 54.018 77.5125 
z
" style="fill: #ffffff; opacity: 0.8; stroke: #cccccc; stroke-linejoin: miter"/>
    </g>
    <g id="line2d_19">
     <path d="M 56.018 23.898438 
L 66.018 23.898438 
L 76.018 23.898438 
" style="fill: none; stroke: #1f77b4; stroke-width: 1.5; stroke-linecap: square"/>
    </g>
    <g id="text_17">
     <!-- Ts=100 K -->
     <g transform="translate(84.018 27.398438) scale(0.1 -0.1)">
      <defs>
       <path id="DejaVuSans-54" d="M -19 4666 
L 3928 4666 
L 3928 4134 
L 2272 4134 
L 2272 0 
L 1638 0 
L 1638 4134 
L -19 4134 
L -19 4666 
z
" transform="scale(0.015625)"/>
       <path id="DejaVuSans-73" d="M 2834 3397 
L 2834 2853 
Q 2591 2978 2328 3040 
Q 2066 3103 1784 3103 
Q 1356 3103 1142 2972 
Q 928 2841 928 2578 
Q 928 2378 1081 2264 
Q 1234 2150 1697 2047 
L 1894 2003 
Q 2506 1872 2764 1633 
Q 3022 1394 3022 966 
Q 3022 478 2636 193 
Q 2250 -91 1575 -91 
Q 1294 -91 989 -36 
Q 684 19 347 128 
L 347 722 
Q 666 556 975 473 
Q 1284 391 1588 391 
Q 1994 391 2212 530 
Q 2431 669 2431 922 
Q 2431 1156 2273 1281 
Q 2116 1406 1581 1522 
L 1381 1569 
Q 847 1681 609 1914 
Q 372 2147 372 2553 
Q 372 3047 722 3315 
Q 1072 3584 1716 3584 
Q 2034 3584 2315 3537 
Q 2597 3491 2834 3397 
z
" transform="scale(0.015625)"/>
       <path id="DejaVuSans-3d" d="M 678 2906 
L 4684 2906 
L 4684 2381 
L 678 2381 
L 678 2906 
z
M 678 1631 
L 4684 1631 
L 4684 1100 
L 678 1100 
L 678 1631 
z
" transform="scale(0.015625)"/>
       <path id="DejaVuSans-4b" d="M 628 4666 
L 1259 4666 
L 1259 2694 
L 3353 4666 
L 4166 4666 
L 1850 2491 
L 4331 0 
L 3500 0 
L 1259 2247 
L 1259 0 
L 628 0 
L 628 4666 
z
" transform="scale(0.015625)"/>
      </defs>
      <use xlink:href="#DejaVuSans-54"/>
      <use xlink:href="#DejaVuSans-73" transform="translate(44.583984 0)"/>
      <use xlink:href="#DejaVuSans-3d" transform="translate(96.683594 0)"/>
      <use xlink:href="#DejaVuSans-31" transform="translate(180.472656 0)"/>
      <use xlink:href="#DejaVuSans-30" transform="translate(244.095703 0)"/>
      <use xlink:href="#DejaVuSans-30" transform="translate(307.71875 0)"/>
      <use xlink:href="#DejaVuSans-20" transform="translate(371.341797 0)"/>
      <use xlink:href="#DejaVuSans-4b" transform="translate(403.128906 0)"/>
     </g>
    </g>
    <g id="line2d_20">
     <path d="M 56.018 38.576563 
L 66.018 38.576563 
L 76.018 38.576563 
" style="fill: none; stroke: #ff7f0e; stroke-width: 1.5; stroke-linecap: square"/>
    </g>
    <g id="text_18">
     <!-- Ts=160 K -->
     <g transform="translate(84.018 42.076563) scale(0.1 -0.1)">
      <defs>
       <path id="DejaVuSans-36" d="M 2113 2584 
Q 1688 2584 1439 2293 
Q 1191 2003 1191 1497 
Q 1191 994 1439 701 
Q 1688 409 2113 409 
Q 2538 409 2786 701 
Q 3034 994 3034 1497 
Q 3034 2003 2786 2293 
Q 2538 2584 2113 2584 
z
M 3366 4563 
L 3366 3988 
Q 3128 4100 2886 4159 
Q 2644 4219 2406 4219 
Q 1781 4219 1451 3797 
Q 1122 3375 1075 2522 
Q 1259 2794 1537 2939 
Q 1816 3084 2150 3084 
Q 2853 3084 3261 2657 
Q 3669 2231 3669 1497 
Q 3669 778 3244 343 
Q 2819 -91 2113 -91 
Q 1303 -91 875 529 
Q 447 1150 447 2328 
Q 447 3434 972 4092 
Q 1497 4750 2381 4750 
Q 2619 4750 2861 4703 
Q 3103 4656 3366 4563 
z
" transform="scale(0.015625)"/>
      </defs>
      <use xlink:href="#DejaVuSans-54"/>
      <use xlink:href="#DejaVuSans-73" transform="translate(44.583984 0)"/>
      <use xlink:href="#DejaVuSans-3d" transform="translate(96.683594 0)"/>
      <use xlink:href="#DejaVuSans-31" transform="translate(180.472656 0)"/>
      <use xlink:href="#DejaVuSans-36" transform="translate(244.095703 0)"/>
      <use xlink:href="#DejaVuSans-30" transform="translate(307.71875 0)"/>
      <use xlink:href="#DejaVuSans-20" transform="translate(371.341797 0)"/>
      <use xlink:href="#DejaVuSans-4b" transform="translate(403.128906 0)"/>
     </g>
    </g>
    <g id="line2d_21">
     <path d="M 56.018 53.254687 
L 66.018 53.254687 
L 76.018 53.254687 
" style="fill: none; stroke: #2ca02c; stroke-width: 1.5; stroke-linecap: square"/>
    </g>
    <g id="text_19">
     <!-- Ts=220 K -->
     <g transform="translate(84.018 56.754687) scale(0.1 -0.1)">
      <use xlink:href="#DejaVuSans-54"/>
      <use xlink:href="#DejaVuSans-73" transform="translate(44.583984 0)"/>
      <use xlink:href="#DejaVuSans-3d" transform="translate(96.683594 0)"/>
      <use xlink:href="#DejaVuSans-32" transform="translate(180.472656 0)"/>
      <use xlink:href="#DejaVuSans-32" transform="translate(244.095703 0)"/>
      <use xlink:href="#DejaVuSans-30" transform="translate(307.71875 0)"/>
      <use xlink:href="#DejaVuSans-20" transform="translate(371.341797 0)"/>
      <use xlink:href="#DejaVuSans-4b" transform="translate(403.128906 0)"/>
     </g>
    </g>
    <g id="line2d_22">
     <path d="M 56.018 67.932813 
L 66.018 67.932813 
L 76.018 67.932813 
" style="fill: none; stroke: #d62728; stroke-width: 1.5; stroke-linecap: square"/>
    </g>
    <g id="text_20">
     <!-- Ts=260 K -->
     <g transform="translate(84.018 71.432813) scale(0.1 -0.1)">
      <use xlink:href="#DejaVuSans-54"/>
      <use xlink:href="#DejaVuSans-73" transform="translate(44.583984 0)"/>
      <use xlink:href="#DejaVuSans-3d" transform="translate(96.683594 0)"/>
      <use xlink:href="#DejaVuSans-32" transform="translate(180.472656 0)"/>
      <use xlink:href="#DejaVuSans-36" transform="translate(244.095703 0)"/>
      <use xlink:href="#DejaVuSans-30" transform="translate(307.71875 0)"/>
      <use xlink:href="#DejaVuSans-20" transform="translate(371.341797 0)"/>
      <use xlink:href="#DejaVuSans-4b" transform="translate(403.128906 0)"/>
     </g>
    </g>
   </g>
  </g>
 </g>
 <defs>
  <clipPath id="pfd12c62b00">
   <rect x="47.018" y="10.8" width="402.982" height="291.4"/>
  </clipPath>
 </defs>
</svg>
