<?xml version="1.0" encoding="utf-8" standalone="no"?>
<!DOCTYPE svg PUBLIC "-//W3C//DTD SVG 1.1//EN"
  "http://www.w3.org/Graphics/SVG/1.1/DTD/svg11.dtd">
<svg xmlns:xlink="http://www.w3.org/1999/xlink" width="460.8pt" height="345.6pt" viewBox="0 0 460.8 345.6" xmlns="http://www.w3.org/2000/svg" version="1.1">
 <metadata>
  <rdf:RDF xmlns:dc="http://purl.org/dc/elements/1.1/" xmlns:cc="http://creativecommons.org/ns#" xmlns:rdf="http://www.w3.org/1999/02/22-rdf-syntax-ns#">
   <cc:Work>
    <dc:type rdf:resource="http://purl.org/dc/dcmitype/StillImage"/>
    <dc:date>2026-02-11T13:30:21.452046</dc:date>
    <dc:format>image/svg+xml</dc:format>
    <dc:creator>
     <cc:Agent>
      <dc:title>Matplotlib v3.10.8, https://matplotlib.org/</dc:title>
     </cc:Agent>
    </dc:creator>
   </cc:Work>
  </rdf:RDF>
 </metadata>
 <defs>
  <style type="text/css">*{stroke-linejoin: round; stroke-linecap: butt}</style>
 </defs>
 <g id="figure_1">
  <g id="patch_1">
   <path d="M 0 345.6 
L 460.8 345.6 
L 460.8 0 
L 0 0 
L 0 345.6 
z
" style="fill: none"/>
  </g>
  <g id="axes_1">
   <g id="patch_2">
    <path d="M 56.468 302.2 
L 450 302.2 
L 450 10.8 
L 56.468 10.8 
L 56.468 302.2 
z
" style="fill: none"/>
   </g>
   <g id="FillBetweenPolyCollection_1">
    <path d="M 74.355818 249.241724 
L 74.355818 249.737359 
L 81.656968 232.314711 
L 88.958119 218.027409 
L 96.259269 206.230182 
L 103.560419 196.350952 
L 110.86157 187.907716 
L 118.16272 180.508075 
L 125.46387 173.851234 
L 132.76502 167.718906 
L 140.066171 161.962122 
L 147.367321 156.486659 
L 154.668471 151.238177 
L 161.969622 146.188523 
L 169.270772 141.32423 
L 176.571922 136.637863 
L 183.873072 132.122327 
L 191.174223 127.767961 
L 198.475373 123.561856 
L 205.776523 119.488747 
L 213.077673 115.532724 
L 220.378824 111.679069 
L 227.679974 107.915741 
L 234.981124 104.234145 
L 242.282275 100.62911 
L 249.583425 97.098154 
L 256.884575 93.640314 
L 264.185725 90.254831 
L 271.486876 86.940018 
L 278.788026 83.692589 
L 286.089176 80.507565 
L 293.390327 77.378761 
L 300.691477 74.29972 
L 307.992627 71.264843 
L 315.293777 68.2704 
L 322.594928 65.315158 
L 329.896078 62.40038 
L 337.197228 59.52913 
L 344.498378 56.704925 
L 351.799529 53.930009 
L 359.100679 51.203578 
L 366.401829 48.520508 
L 373.70298 45.870993 
L 381.00413 43.241584 
L 388.30528 40.617933 
L 395.60643 37.989315 
L 402.907581 35.354788 
L 410.208731 32.730555 
L 417.509881 30.157886 
L 424.811032 27.710715 
L 432.112182 25.501982 
L 432.112182 24.045455 
L 432.112182 24.045455 
L 424.811032 26.263699 
L 417.509881 28.721263 
L 410.208731 31.304792 
L 402.907581 33.940085 
L 395.60643 36.585727 
L 388.30528 39.225453 
L 381.00413 41.860211 
L 373.70298 44.500762 
L 366.401829 47.161504 
L 359.100679 49.855937 
L 351.799529 52.593923 
L 344.498378 55.380599 
L 337.197228 58.216767 
L 329.896078 61.100184 
L 322.594928 64.027324 
L 315.293777 66.995122 
L 307.992627 70.002315 
L 300.691477 73.050143 
L 293.390327 76.142348 
L 286.089176 79.284548 
L 278.788026 82.483217 
L 271.486876 85.744554 
L 264.185725 89.073553 
L 256.884575 92.47351 
L 249.583425 95.946116 
L 242.282275 99.492147 
L 234.981124 103.112584 
L 227.679974 106.809931 
L 220.378824 110.589409 
L 213.077673 114.45901 
L 205.776523 118.431269 
L 198.475373 122.521184 
L 191.174223 126.744721 
L 183.873072 131.117177 
L 176.571922 135.651472 
L 169.270772 140.357273 
L 161.969622 145.241667 
L 154.668471 150.312116 
L 147.367321 155.582164 
L 140.066171 161.080153 
L 132.76502 166.860765 
L 125.46387 173.01879 
L 118.16272 179.704039 
L 110.86157 187.135981 
L 103.560419 195.617823 
L 96.259269 205.541922 
L 88.958119 217.393688 
L 81.656968 231.742215 
L 74.355818 249.241724 
z
" clip-path="url(#p446fe140fc)" style="fill: #1f77b4; fill-opacity: 0.45"/>
   </g>
   <g id="PathCollection_1">
    <defs>
     <path id="m5fd02f2dae" d="M 0 2.12132 
C 0.562581 2.12132 1.102195 1.897805 1.5 1.5 
C 1.897805 1.102195 2.12132 0.562581 2.12132 0 
C 2.12132 -0.562581 1.897805 -1.102195 1.5 -1.5 
C 1.102195 -1.897805 0.562581 -2.12132 0 -2.12132 
C -0.562581 -2.12132 -1.102195 -1.897805 -1.5 -1.5 
C -1.897805 -1.102195 -2.12132 -0.562581 -2.12132 0 
C -2.12132 0.562581 -1.897805 1.102195 -1.5 1.5 
C -1.102195 1.897805 -0.562581 2.12132 0 2.12132 
z
" style="stroke: #000000; stroke-opacity: 0.7"/>
    </defs>
    <g clip-path="url(#p446fe140fc)">
     <use xlink:href="#m5fd02f2dae" x="74.355818" y="249.572319" style="fill-opacity: 0.7; stroke: #000000; stroke-opacity: 0.7"/>
     <use xlink:href="#m5fd02f2dae" x="106.879124" y="193.279794" style="fill-opacity: 0.7; stroke: #000000; stroke-opacity: 0.7"/>
     <use xlink:href="#m5fd02f2dae" x="143.01613" y="160.551699" style="fill-opacity: 0.7; stroke: #000000; stroke-opacity: 0.7"/>
     <use xlink:href="#m5fd02f2dae" x="179.153137" y="138.653507" style="fill-opacity: 0.7; stroke: #000000; stroke-opacity: 0.7"/>
     <use xlink:href="#m5fd02f2dae" x="215.290143" y="112.28872" style="fill-opacity: 0.7; stroke: #000000; stroke-opacity: 0.7"/>
     <use xlink:href="#m5fd02f2dae" x="251.42715" y="95.078391" style="fill-opacity: 0.7; stroke: #000000; stroke-opacity: 0.7"/>
     <use xlink:href="#m5fd02f2dae" x="287.564156" y="80.752717" style="fill-opacity: 0.7; stroke: #000000; stroke-opacity: 0.7"/>
     <use xlink:href="#m5fd02f2dae" x="323.701163" y="64.296509" style="fill-opacity: 0.7; stroke: #000000; stroke-opacity: 0.7"/>
     <use xlink:href="#m5fd02f2dae" x="359.838169" y="51.052207" style="fill-opacity: 0.7; stroke: #000000; stroke-opacity: 0.7"/>
     <use xlink:href="#m5fd02f2dae" x="395.975175" y="39.133503" style="fill-opacity: 0.7; stroke: #000000; stroke-opacity: 0.7"/>
     <use xlink:href="#m5fd02f2dae" x="432.112182" y="24.734326" style="fill-opacity: 0.7; stroke: #000000; stroke-opacity: 0.7"/>
    </g>
   </g>
   <g id="FillBetweenPolyCollection_2">
    <path d="M 74.355818 253.580827 
L 74.355818 253.930264 
L 81.656968 237.901443 
L 88.958119 224.766025 
L 96.259269 213.922027 
L 103.560419 204.845531 
L 110.86157 197.09033 
L 118.16272 190.293041 
L 125.46387 184.176697 
L 132.76502 178.542535 
L 140.066171 173.25362 
L 147.367321 168.223441 
L 154.668471 163.402144 
L 161.969622 158.763914 
L 169.270772 154.297864 
L 176.571922 149.995722 
L 183.873072 145.850679 
L 191.174223 141.853736 
L 198.475373 137.992922 
L 205.776523 134.25413 
L 213.077673 130.622698 
L 220.378824 127.085116 
L 227.679974 123.630376 
L 234.981124 120.250663 
L 242.282275 116.941312 
L 249.583425 113.700128 
L 256.884575 110.526278 
L 264.185725 107.418933 
L 271.486876 104.376179 
L 278.788026 101.395413 
L 286.089176 98.471964 
L 293.390327 95.600059 
L 300.691477 92.773688 
L 307.992627 89.987653 
L 315.293777 87.23856 
L 322.594928 84.525342 
L 329.896078 81.849253 
L 337.197228 79.213221 
L 344.498378 76.620576 
L 351.799529 74.073385 
L 359.100679 71.5706 
L 366.401829 69.107785 
L 373.70298 66.675763 
L 381.00413 64.26198 
L 388.30528 61.853062 
L 395.60643 59.439054 
L 402.907581 57.019158 
L 410.208731 54.608593 
L 417.509881 52.245959 
L 424.811032 50.000277 
L 432.112182 47.976862 
L 432.112182 46.914768 
L 432.112182 46.914768 
L 424.811032 48.944589 
L 417.509881 51.197277 
L 410.208731 53.56723 
L 402.907581 55.985239 
L 395.60643 58.412603 
L 388.30528 60.834064 
L 381.00413 63.250426 
L 373.70298 65.671672 
L 366.401829 68.111214 
L 359.100679 70.581644 
L 351.799529 73.092163 
L 344.498378 75.647588 
L 337.197228 78.248665 
L 329.896078 80.893277 
L 322.594928 83.578086 
L 315.293777 86.300165 
L 307.992627 89.05825 
L 300.691477 91.85342 
L 293.390327 94.689095 
L 286.089176 97.570472 
L 278.788026 100.503567 
L 271.486876 103.494171 
L 264.185725 106.546966 
L 256.884575 109.665042 
L 249.583425 112.849993 
L 242.282275 116.102512 
L 234.981124 119.423444 
L 227.679974 122.814996 
L 220.378824 126.281862 
L 213.077673 129.831909 
L 205.776523 133.476192 
L 198.475373 137.228257 
L 191.174223 141.102821 
L 183.873072 145.114037 
L 176.571922 149.273912 
L 169.270772 153.591463 
L 161.969622 158.073316 
L 154.668471 162.726373 
L 147.367321 167.563053 
L 140.066171 172.609293 
L 132.76502 177.91517 
L 125.46387 183.567599 
L 118.16272 189.704129 
L 110.86157 196.526454 
L 103.560419 204.312271 
L 96.259269 213.424502 
L 88.958119 224.309681 
L 81.656968 237.496645 
L 74.355818 253.580827 
z
" clip-path="url(#p446fe140fc)" style="fill: #ff7f0e; fill-opacity: 0.45"/>
   </g>
   <g id="PathCollection_2">
    <g clip-path="url(#p446fe140fc)">
     <use xlink:href="#m5fd02f2dae" x="74.355818" y="254.432642" style="fill-opacity: 0.7; stroke: #000000; stroke-opacity: 0.7"/>
     <use xlink:href="#m5fd02f2dae" x="106.879124" y="201.967908" style="fill-opacity: 0.7; stroke: #000000; stroke-opacity: 0.7"/>
     <use xlink:href="#m5fd02f2dae" x="143.01613" y="172.767936" style="fill-opacity: 0.7; stroke: #000000; stroke-opacity: 0.7"/>
     <use xlink:href="#m5fd02f2dae" x="179.153137" y="148.531021" style="fill-opacity: 0.7; stroke: #000000; stroke-opacity: 0.7"/>
     <use xlink:href="#m5fd02f2dae" x="215.290143" y="130.406241" style="fill-opacity: 0.7; stroke: #000000; stroke-opacity: 0.7"/>
     <use xlink:href="#m5fd02f2dae" x="251.42715" y="112.979083" style="fill-opacity: 0.7; stroke: #000000; stroke-opacity: 0.7"/>
     <use xlink:href="#m5fd02f2dae" x="287.564156" y="99.615374" style="fill-opacity: 0.7; stroke: #000000; stroke-opacity: 0.7"/>
     <use xlink:href="#m5fd02f2dae" x="323.701163" y="84.930337" style="fill-opacity: 0.7; stroke: #000000; stroke-opacity: 0.7"/>
     <use xlink:href="#m5fd02f2dae" x="359.838169" y="73.585673" style="fill-opacity: 0.7; stroke: #000000; stroke-opacity: 0.7"/>
     <use xlink:href="#m5fd02f2dae" x="395.975175" y="59.307297" style="fill-opacity: 0.7; stroke: #000000; stroke-opacity: 0.7"/>
     <use xlink:href="#m5fd02f2dae" x="432.112182" y="48.916348" style="fill-opacity: 0.7; stroke: #000000; stroke-opacity: 0.7"/>
    </g>
   </g>
   <g id="FillBetweenPolyCollection_3">
    <path d="M 74.355818 258.117873 
L 74.355818 258.365257 
L 81.656968 243.788783 
L 88.958119 231.847037 
L 96.259269 221.992942 
L 103.560419 213.745413 
L 110.86157 206.698259 
L 118.16272 200.523863 
L 125.46387 194.970679 
L 132.76502 189.855957 
L 140.066171 185.055111 
L 147.367321 180.48944 
L 154.668471 176.113252 
L 161.969622 171.903011 
L 169.270772 167.847924 
L 176.571922 163.941693 
L 183.873072 160.178271 
L 191.174223 156.549435 
L 198.475373 153.044259 
L 205.776523 149.649883 
L 213.077673 146.352964 
L 220.378824 143.141228 
L 227.679974 140.00469 
L 234.981124 136.936284 
L 242.282275 133.932311 
L 249.583425 130.990318 
L 256.884575 128.109763 
L 264.185725 125.290323 
L 271.486876 122.529385 
L 278.788026 119.82409 
L 286.089176 117.171095 
L 293.390327 114.565213 
L 300.691477 112.000608 
L 307.992627 109.472566 
L 315.293777 106.977996 
L 322.594928 104.515954 
L 329.896078 102.087623 
L 337.197228 99.695703 
L 344.498378 97.343042 
L 351.799529 95.031746 
L 359.100679 92.761168 
L 366.401829 90.526902 
L 373.70298 88.320545 
L 381.00413 86.130612 
L 388.30528 83.944892 
L 395.60643 81.754318 
L 402.907581 79.558221 
L 410.208731 77.370582 
L 417.509881 75.22675 
L 424.811032 73.189845 
L 432.112182 71.356086 
L 432.112182 70.537177 
L 432.112182 70.537177 
L 424.811032 72.376181 
L 417.509881 74.41901 
L 410.208731 76.569114 
L 402.907581 78.76316 
L 395.60643 80.965679 
L 388.30528 83.162643 
L 381.00413 85.354729 
L 373.70298 87.551031 
L 366.401829 89.763804 
L 359.100679 92.004573 
L 351.799529 94.281766 
L 344.498378 96.599805 
L 337.197228 98.959381 
L 329.896078 101.358554 
L 322.594928 103.794251 
L 315.293777 106.263765 
L 307.992627 108.765908 
L 300.691477 111.301629 
L 293.390327 113.874029 
L 286.089176 116.487839 
L 278.788026 119.14856 
L 271.486876 121.861487 
L 264.185725 124.630909 
L 256.884575 127.459673 
L 249.583425 130.34923 
L 242.282275 133.300204 
L 234.981124 136.313331 
L 227.679974 139.390583 
L 220.378824 142.535933 
L 213.077673 145.756314 
L 205.776523 149.062136 
L 198.475373 152.465714 
L 191.174223 155.98043 
L 183.873072 159.619177 
L 176.571922 163.39291 
L 169.270772 167.30987 
L 161.969622 171.376114 
L 154.668471 175.597943 
L 147.367321 179.986638 
L 140.066171 184.565759 
L 132.76502 189.381572 
L 125.46387 194.51322 
L 118.16272 200.084939 
L 110.86157 206.281824 
L 103.560419 213.355992 
L 96.259269 221.631276 
L 88.958119 231.516089 
L 81.656968 243.49872 
L 74.355818 258.117873 
z
" clip-path="url(#p446fe140fc)" style="fill: #2ca02c; fill-opacity: 0.45"/>
   </g>
   <g id="PathCollection_3">
    <g clip-path="url(#p446fe140fc)">
     <use xlink:href="#m5fd02f2dae" x="74.355818" y="258.182822" style="fill-opacity: 0.7; stroke: #000000; stroke-opacity: 0.7"/>
     <use xlink:href="#m5fd02f2dae" x="106.879124" y="210.659888" style="fill-opacity: 0.7; stroke: #000000; stroke-opacity: 0.7"/>
     <use xlink:href="#m5fd02f2dae" x="143.01613" y="185.673261" style="fill-opacity: 0.7; stroke: #000000; stroke-opacity: 0.7"/>
     <use xlink:href="#m5fd02f2dae" x="179.153137" y="162.91053" style="fill-opacity: 0.7; stroke: #000000; stroke-opacity: 0.7"/>
     <use xlink:href="#m5fd02f2dae" x="215.290143" y="144.17018" style="fill-opacity: 0.7; stroke: #000000; stroke-opacity: 0.7"/>
     <use xlink:href="#m5fd02f2dae" x="251.42715" y="134.242274" style="fill-opacity: 0.7; stroke: #000000; stroke-opacity: 0.7"/>
     <use xlink:href="#m5fd02f2dae" x="287.564156" y="120.913461" style="fill-opacity: 0.7; stroke: #000000; stroke-opacity: 0.7"/>
     <use xlink:href="#m5fd02f2dae" x="323.701163" y="108.26755" style="fill-opacity: 0.7; stroke: #000000; stroke-opacity: 0.7"/>
     <use xlink:href="#m5fd02f2dae" x="359.838169" y="93.626533" style="fill-opacity: 0.7; stroke: #000000; stroke-opacity: 0.7"/>
     <use xlink:href="#m5fd02f2dae" x="395.975175" y="83.834648" style="fill-opacity: 0.7; stroke: #000000; stroke-opacity: 0.7"/>
     <use xlink:href="#m5fd02f2dae" x="432.112182" y="72.38873" style="fill-opacity: 0.7; stroke: #000000; stroke-opacity: 0.7"/>
    </g>
   </g>
   <g id="FillBetweenPolyCollection_4">
    <path d="M 74.355818 264.502164 
L 74.355818 264.694441 
L 81.656968 252.147565 
L 88.958119 241.869329 
L 96.259269 233.39024 
L 103.560419 226.292949 
L 110.86157 220.231789 
L 118.16272 214.924652 
L 125.46387 210.152965 
L 132.76502 205.759074 
L 140.066171 201.635473 
L 147.367321 197.714219 
L 154.668471 193.956172 
L 161.969622 190.34106 
L 169.270772 186.859178 
L 176.571922 183.505136 
L 183.873072 180.273766 
L 191.174223 177.158038 
L 198.475373 174.148601 
L 205.776523 171.234429 
L 213.077673 168.404071 
L 220.378824 165.647507 
L 227.679974 162.955981 
L 234.981124 160.323021 
L 242.282275 157.745 
L 249.583425 155.21995 
L 256.884575 152.746913 
L 264.185725 150.325928 
L 271.486876 147.95574 
L 278.788026 145.633891 
L 286.089176 143.35672 
L 293.390327 141.119709 
L 300.691477 138.918159 
L 307.992627 136.748033 
L 315.293777 134.60669 
L 322.594928 132.493326 
L 329.896078 130.408963 
L 337.197228 128.355916 
L 344.498378 126.336803 
L 351.799529 124.353264 
L 359.100679 122.404495 
L 366.401829 120.48682 
L 373.70298 118.593063 
L 381.00413 116.713353 
L 388.30528 114.837213 
L 395.60643 112.956887 
L 402.907581 111.071839 
L 410.208731 109.19412 
L 417.509881 107.35411 
L 424.811032 105.605986 
L 432.112182 104.032247 
L 432.112182 103.239596 
L 432.112182 103.239596 
L 424.811032 104.818636 
L 417.509881 106.572786 
L 410.208731 108.419196 
L 402.907581 110.30346 
L 395.60643 112.19507 
L 388.30528 114.081928 
L 381.00413 115.964565 
L 373.70298 117.850776 
L 366.401829 119.751078 
L 359.100679 121.675403 
L 351.799529 123.631491 
L 344.498378 125.622672 
L 337.197228 127.649564 
L 329.896078 129.71052 
L 322.594928 131.802916 
L 315.293777 133.924429 
L 307.992627 136.074035 
L 300.691477 138.25254 
L 293.390327 140.462599 
L 286.089176 142.708265 
L 278.788026 144.994252 
L 271.486876 147.325103 
L 264.185725 149.704503 
L 256.884575 152.1349 
L 249.583425 154.617551 
L 242.282275 157.15301 
L 234.981124 159.741931 
L 227.679974 162.38603 
L 220.378824 165.08895 
L 213.077673 167.85681 
L 205.776523 170.698236 
L 198.475373 173.623817 
L 191.174223 176.645049 
L 183.873072 179.772998 
L 176.571922 183.017052 
L 169.270772 186.384259 
L 161.969622 189.87982 
L 154.668471 193.507123 
L 147.367321 197.27701 
L 140.066171 201.210625 
L 132.76502 205.347246 
L 125.46387 209.755047 
L 118.16272 214.541958 
L 110.86157 219.869918 
L 103.560419 225.953403 
L 96.259269 233.076083 
L 88.958119 241.587066 
L 81.656968 251.90279 
L 74.355818 264.502164 
z
" clip-path="url(#p446fe140fc)" style="fill: #d62728; fill-opacity: 0.45"/>
   </g>
   <g id="PathCollection_4">
    <g clip-path="url(#p446fe140fc)">
     <use xlink:href="#m5fd02f2dae" x="74.355818" y="262.711801" style="fill-opacity: 0.7; stroke: #000000; stroke-opacity: 0.7"/>
     <use xlink:href="#m5fd02f2dae" x="106.879124" y="221.368933" style="fill-opacity: 0.7; stroke: #000000; stroke-opacity: 0.7"/>
     <use xlink:href="#m5fd02f2dae" x="143.01613" y="197.440073" style="fill-opacity: 0.7; stroke: #000000; stroke-opacity: 0.7"/>
     <use xlink:href="#m5fd02f2dae" x="179.153137" y="180.051064" style="fill-opacity: 0.7; stroke: #000000; stroke-opacity: 0.7"/>
     <use xlink:href="#m5fd02f2dae" x="215.290143" y="163.584764" style="fill-opacity: 0.7; stroke: #000000; stroke-opacity: 0.7"/>
     <use xlink:href="#m5fd02f2dae" x="251.42715" y="153.078727" style="fill-opacity: 0.7; stroke: #000000; stroke-opacity: 0.7"/>
     <use xlink:href="#m5fd02f2dae" x="287.564156" y="140.217991" style="fill-opacity: 0.7; stroke: #000000; stroke-opacity: 0.7"/>
     <use xlink:href="#m5fd02f2dae" x="323.701163" y="128.398129" style="fill-opacity: 0.7; stroke: #000000; stroke-opacity: 0.7"/>
     <use xlink:href="#m5fd02f2dae" x="359.838169" y="116.143814" style="fill-opacity: 0.7; stroke: #000000; stroke-opacity: 0.7"/>
     <use xlink:href="#m5fd02f2dae" x="395.975175" y="110.097803" style="fill-opacity: 0.7; stroke: #000000; stroke-opacity: 0.7"/>
     <use xlink:href="#m5fd02f2dae" x="432.112182" y="101.533099" style="fill-opacity: 0.7; stroke: #000000; stroke-opacity: 0.7"/>
    </g>
   </g>
   <g id="FillBetweenPolyCollection_5">
    <path d="M 74.355818 269.575293 
L 74.355818 269.784146 
L 81.656968 258.828217 
L 88.958119 249.854729 
L 96.259269 242.453234 
L 103.560419 236.262185 
L 110.86157 230.975692 
L 118.16272 226.346803 
L 125.46387 222.185722 
L 132.76502 218.354361 
L 140.066171 214.759736 
L 147.367321 211.34173 
L 154.668471 208.066006 
L 161.969622 204.914776 
L 169.270772 201.879547 
L 176.571922 198.955641 
L 183.873072 196.13861 
L 191.174223 193.422403 
L 198.475373 190.798934 
L 205.776523 188.258645 
L 213.077673 185.791576 
L 220.378824 183.38854 
L 227.679974 181.042108 
L 234.981124 178.747361 
L 242.282275 176.500562 
L 249.583425 174.300183 
L 256.884575 172.145619 
L 264.185725 170.03637 
L 271.486876 167.971335 
L 278.788026 165.948397 
L 286.089176 163.964377 
L 293.390327 162.015356 
L 300.691477 160.097269 
L 307.992627 158.206623 
L 315.293777 156.34113 
L 322.594928 154.500094 
L 329.896078 152.684391 
L 337.197228 150.896018 
L 344.498378 149.137224 
L 351.799529 147.409411 
L 359.100679 145.712019 
L 366.401829 144.04172 
L 373.70298 142.39222 
L 381.00413 140.754948 
L 388.30528 139.120819 
L 395.60643 137.483119 
L 402.907581 135.841407 
L 410.208731 134.20616 
L 417.509881 132.603732 
L 424.811032 131.081077 
L 432.112182 129.709635 
L 432.112182 128.798863 
L 432.112182 128.798863 
L 424.811032 130.177208 
L 417.509881 131.707489 
L 410.208731 133.317917 
L 402.907581 134.961311 
L 395.60643 136.611274 
L 388.30528 138.257432 
L 381.00413 139.900006 
L 373.70298 141.545741 
L 366.401829 143.203767 
L 359.100679 144.882693 
L 351.799529 146.588842 
L 344.498378 148.325558 
L 337.197228 150.093407 
L 329.896078 151.890984 
L 322.594928 153.716035 
L 315.293777 155.566559 
L 307.992627 157.441676 
L 300.691477 159.341919 
L 293.390327 161.269639 
L 286.089176 163.228454 
L 278.788026 165.222451 
L 271.486876 167.255564 
L 264.185725 169.330989 
L 256.884575 171.450851 
L 249.583425 173.61626 
L 242.282275 175.827722 
L 234.981124 178.085847 
L 227.679974 180.392177 
L 220.378824 182.74994 
L 213.077673 185.164511 
L 205.776523 187.643438 
L 198.475373 190.195956 
L 191.174223 192.832073 
L 183.873072 195.561385 
L 176.571922 198.392013 
L 169.270772 201.330037 
L 161.969622 204.379915 
L 154.668471 207.546351 
L 147.367321 210.837879 
L 140.066171 214.27239 
L 132.76502 217.884411 
L 125.46387 221.733825 
L 118.16272 225.915301 
L 110.86157 230.567544 
L 103.560419 235.881255 
L 96.259269 242.104551 
L 88.958119 249.544747 
L 81.656968 258.565452 
L 74.355818 269.575293 
z
" clip-path="url(#p446fe140fc)" style="fill: #9467bd; fill-opacity: 0.45"/>
   </g>
   <g id="PathCollection_5">
    <g clip-path="url(#p446fe140fc)">
     <use xlink:href="#m5fd02f2dae" x="74.355818" y="269.947352" style="fill-opacity: 0.7; stroke: #000000; stroke-opacity: 0.7"/>
     <use xlink:href="#m5fd02f2dae" x="106.879124" y="231.510702" style="fill-opacity: 0.7; stroke: #000000; stroke-opacity: 0.7"/>
     <use xlink:href="#m5fd02f2dae" x="143.01613" y="212.543329" style="fill-opacity: 0.7; stroke: #000000; stroke-opacity: 0.7"/>
     <use xlink:href="#m5fd02f2dae" x="179.153137" y="194.879753" style="fill-opacity: 0.7; stroke: #000000; stroke-opacity: 0.7"/>
     <use xlink:href="#m5fd02f2dae" x="215.290143" y="186.191777" style="fill-opacity: 0.7; stroke: #000000; stroke-opacity: 0.7"/>
     <use xlink:href="#m5fd02f2dae" x="251.42715" y="170.724066" style="fill-opacity: 0.7; stroke: #000000; stroke-opacity: 0.7"/>
     <use xlink:href="#m5fd02f2dae" x="287.564156" y="160.56989" style="fill-opacity: 0.7; stroke: #000000; stroke-opacity: 0.7"/>
     <use xlink:href="#m5fd02f2dae" x="323.701163" y="154.456594" style="fill-opacity: 0.7; stroke: #000000; stroke-opacity: 0.7"/>
     <use xlink:href="#m5fd02f2dae" x="359.838169" y="143.567696" style="fill-opacity: 0.7; stroke: #000000; stroke-opacity: 0.7"/>
     <use xlink:href="#m5fd02f2dae" x="395.975175" y="133.913297" style="fill-opacity: 0.7; stroke: #000000; stroke-opacity: 0.7"/>
     <use xlink:href="#m5fd02f2dae" x="432.112182" y="127.675311" style="fill-opacity: 0.7; stroke: #000000; stroke-opacity: 0.7"/>
    </g>
   </g>
   <g id="FillBetweenPolyCollection_6">
    <path d="M 74.355818 274.928094 
L 74.355818 275.17688 
L 81.656968 265.873092 
L 88.958119 258.25085 
L 96.259269 251.966147 
L 103.560419 246.710343 
L 110.86157 242.223895 
L 118.16272 238.297074 
L 125.46387 234.768392 
L 132.76502 231.520659 
L 140.066171 228.473654 
L 147.367321 225.576581 
L 154.668471 222.800116 
L 161.969622 220.129057 
L 169.270772 217.556168 
L 176.571922 215.077503 
L 183.873072 212.689352 
L 191.174223 210.386657 
L 198.475373 208.16264 
L 205.776523 206.009256 
L 213.077673 203.918103 
L 220.378824 201.881394 
L 227.679974 199.892751 
L 234.981124 197.947604 
L 242.282275 196.043187 
L 249.583425 194.178151 
L 256.884575 192.351938 
L 264.185725 190.564092 
L 271.486876 188.813663 
L 278.788026 187.098858 
L 286.089176 185.417003 
L 293.390327 183.764804 
L 300.691477 182.138852 
L 307.992627 180.536217 
L 315.293777 178.954983 
L 322.594928 177.394568 
L 329.896078 175.855707 
L 337.197228 174.340067 
L 344.498378 172.849521 
L 351.799529 171.385216 
L 359.100679 169.946649 
L 366.401829 168.53098 
L 373.70298 167.132881 
L 381.00413 165.74512 
L 388.30528 164.360046 
L 395.60643 162.972021 
L 402.907581 161.580709 
L 410.208731 160.194965 
L 417.509881 158.836992 
L 424.811032 157.546288 
L 432.112182 156.382867 
L 432.112182 155.363019 
L 432.112182 155.363019 
L 424.811032 156.533771 
L 417.509881 157.832655 
L 410.208731 159.199243 
L 402.907581 160.59377 
L 395.60643 161.993882 
L 388.30528 163.390666 
L 381.00413 164.784466 
L 373.70298 166.180958 
L 366.401829 167.587847 
L 359.100679 169.012418 
L 351.799529 170.460035 
L 344.498378 171.933557 
L 337.197228 173.433492 
L 329.896078 174.958685 
L 322.594928 176.507251 
L 315.293777 178.077513 
L 307.992627 179.668728 
L 300.691477 181.281486 
L 293.390327 182.91771 
L 286.089176 184.580353 
L 278.788026 186.272844 
L 271.486876 187.998501 
L 264.185725 189.760014 
L 256.884575 191.559188 
L 249.583425 193.39698 
L 242.282275 195.273852 
L 234.981124 197.190367 
L 227.679974 199.147884 
L 220.378824 201.149191 
L 213.077673 203.198887 
L 205.776523 205.303395 
L 198.475373 207.470548 
L 191.174223 209.708803 
L 183.873072 212.026249 
L 176.571922 214.429707 
L 169.270772 216.924262 
L 161.969622 219.51364 
L 154.668471 222.201816 
L 147.367321 224.996082 
L 140.066171 227.911751 
L 132.76502 230.978366 
L 125.46387 234.247097 
L 118.16272 237.798751 
L 110.86157 241.751622 
L 103.560419 246.268176 
L 96.259269 251.559485 
L 88.958119 257.887312 
L 81.656968 265.560287 
L 74.355818 274.928094 
z
" clip-path="url(#p446fe140fc)" style="fill: #8c564b; fill-opacity: 0.45"/>
   </g>
   <g id="PathCollection_6">
    <g clip-path="url(#p446fe140fc)">
     <use xlink:href="#m5fd02f2dae" x="74.355818" y="273.75334" style="fill-opacity: 0.7; stroke: #000000; stroke-opacity: 0.7"/>
     <use xlink:href="#m5fd02f2dae" x="106.879124" y="241.471301" style="fill-opacity: 0.7; stroke: #000000; stroke-opacity: 0.7"/>
     <use xlink:href="#m5fd02f2dae" x="143.01613" y="227.09368" style="fill-opacity: 0.7; stroke: #000000; stroke-opacity: 0.7"/>
     <use xlink:href="#m5fd02f2dae" x="179.153137" y="214.84329" style="fill-opacity: 0.7; stroke: #000000; stroke-opacity: 0.7"/>
     <use xlink:href="#m5fd02f2dae" x="215.290143" y="204.634038" style="fill-opacity: 0.7; stroke: #000000; stroke-opacity: 0.7"/>
     <use xlink:href="#m5fd02f2dae" x="251.42715" y="193.182133" style="fill-opacity: 0.7; stroke: #000000; stroke-opacity: 0.7"/>
     <use xlink:href="#m5fd02f2dae" x="287.564156" y="185.735273" style="fill-opacity: 0.7; stroke: #000000; stroke-opacity: 0.7"/>
     <use xlink:href="#m5fd02f2dae" x="323.701163" y="177.831545" style="fill-opacity: 0.7; stroke: #000000; stroke-opacity: 0.7"/>
     <use xlink:href="#m5fd02f2dae" x="359.838169" y="170.412027" style="fill-opacity: 0.7; stroke: #000000; stroke-opacity: 0.7"/>
     <use xlink:href="#m5fd02f2dae" x="395.975175" y="162.52587" style="fill-opacity: 0.7; stroke: #000000; stroke-opacity: 0.7"/>
     <use xlink:href="#m5fd02f2dae" x="432.112182" y="158.361964" style="fill-opacity: 0.7; stroke: #000000; stroke-opacity: 0.7"/>
    </g>
   </g>
   <g id="FillBetweenPolyCollection_7">
    <path d="M 74.355818 280.602918 
L 74.355818 280.867225 
L 81.656968 273.274947 
L 88.958119 267.056009 
L 96.259269 261.927709 
L 103.560419 257.639887 
L 110.86157 253.98079 
L 118.16272 250.779188 
L 125.46387 247.903279 
L 132.76502 245.257027 
L 140.066171 242.77477 
L 147.367321 240.414884 
L 154.668471 238.153306 
L 161.969622 235.977549 
L 169.270772 233.88167 
L 176.571922 231.862454 
L 183.873072 229.916905 
L 191.174223 228.040944 
L 198.475373 226.229104 
L 205.776523 224.474872 
L 213.077673 222.771435 
L 220.378824 221.112473 
L 227.679974 219.49279 
L 234.981124 217.908649 
L 242.282275 216.357773 
L 249.583425 214.839025 
L 256.884575 213.351919 
L 264.185725 211.896044 
L 271.486876 210.470602 
L 278.788026 209.074117 
L 286.089176 207.704408 
L 293.390327 206.358806 
L 300.691477 205.034558 
L 307.992627 203.729306 
L 315.293777 202.441525 
L 322.594928 201.170764 
L 329.896078 199.91764 
L 337.197228 198.683508 
L 344.498378 197.469881 
L 351.799529 196.277657 
L 359.100679 195.106387 
L 366.401829 193.953715 
L 373.70298 192.815269 
L 381.00413 191.685148 
L 388.30528 190.557135 
L 395.60643 189.426684 
L 402.907581 188.293578 
L 410.208731 187.165091 
L 417.509881 186.059321 
L 424.811032 185.008356 
L 432.112182 184.060837 
L 432.112182 183.034134 
L 432.112182 183.034134 
L 424.811032 183.988795 
L 417.509881 185.047822 
L 410.208731 186.162124 
L 402.907581 187.299318 
L 395.60643 188.441142 
L 388.30528 189.580264 
L 381.00413 190.716905 
L 373.70298 191.855661 
L 366.401829 193.002804 
L 359.100679 194.164293 
L 351.799529 195.34454 
L 344.498378 196.545919 
L 337.197228 197.768885 
L 329.896078 199.012523 
L 322.594928 200.275269 
L 315.293777 201.555707 
L 307.992627 202.853293 
L 300.691477 204.168478 
L 293.390327 205.502801 
L 286.089176 206.858641 
L 278.788026 208.238774 
L 271.486876 209.645897 
L 264.185725 211.082209 
L 256.884575 212.549199 
L 249.583425 214.047673 
L 242.282275 215.578043 
L 234.981124 217.140799 
L 227.679974 218.737081 
L 220.378824 220.369186 
L 213.077673 222.040881 
L 205.776523 223.7574 
L 198.475373 225.525122 
L 191.174223 227.350916 
L 183.873072 229.241346 
L 176.571922 231.201929 
L 169.270772 233.236777 
L 161.969622 235.348908 
L 154.668471 237.541559 
L 147.367321 239.820721 
L 140.066171 242.198981 
L 132.76502 244.700601 
L 125.46387 247.367558 
L 118.16272 250.266105 
L 110.86157 253.493381 
L 103.560419 257.182118 
L 96.259269 261.505077 
L 88.958119 266.675935 
L 81.656968 272.946467 
L 74.355818 280.602918 
z
" clip-path="url(#p446fe140fc)" style="fill: #e377c2; fill-opacity: 0.45"/>
   </g>
   <g id="PathCollection_7">
    <g clip-path="url(#p446fe140fc)">
     <use xlink:href="#m5fd02f2dae" x="74.355818" y="283.494567" style="fill-opacity: 0.7; stroke: #000000; stroke-opacity: 0.7"/>
     <use xlink:href="#m5fd02f2dae" x="106.879124" y="260.481993" style="fill-opacity: 0.7; stroke: #000000; stroke-opacity: 0.7"/>
     <use xlink:href="#m5fd02f2dae" x="143.01613" y="241.858473" style="fill-opacity: 0.7; stroke: #000000; stroke-opacity: 0.7"/>
     <use xlink:href="#m5fd02f2dae" x="179.153137" y="233.031506" style="fill-opacity: 0.7; stroke: #000000; stroke-opacity: 0.7"/>
     <use xlink:href="#m5fd02f2dae" x="215.290143" y="222.435272" style="fill-opacity: 0.7; stroke: #000000; stroke-opacity: 0.7"/>
     <use xlink:href="#m5fd02f2dae" x="251.42715" y="216.903495" style="fill-opacity: 0.7; stroke: #000000; stroke-opacity: 0.7"/>
     <use xlink:href="#m5fd02f2dae" x="287.564156" y="211.05997" style="fill-opacity: 0.7; stroke: #000000; stroke-opacity: 0.7"/>
     <use xlink:href="#m5fd02f2dae" x="323.701163" y="203.140047" style="fill-opacity: 0.7; stroke: #000000; stroke-opacity: 0.7"/>
     <use xlink:href="#m5fd02f2dae" x="359.838169" y="198.065447" style="fill-opacity: 0.7; stroke: #000000; stroke-opacity: 0.7"/>
     <use xlink:href="#m5fd02f2dae" x="395.975175" y="194.195948" style="fill-opacity: 0.7; stroke: #000000; stroke-opacity: 0.7"/>
     <use xlink:href="#m5fd02f2dae" x="432.112182" y="188.537003" style="fill-opacity: 0.7; stroke: #000000; stroke-opacity: 0.7"/>
    </g>
   </g>
   <g id="FillBetweenPolyCollection_8">
    <path d="M 74.355818 288.70433 
L 74.355818 288.954545 
L 81.656968 283.742707 
L 88.958119 279.474662 
L 96.259269 275.956245 
L 103.560419 273.015446 
L 110.86157 270.506646 
L 118.16272 268.312114 
L 125.46387 266.341257 
L 132.76502 264.528102 
L 140.066171 262.827563 
L 147.367321 261.211079 
L 154.668471 259.662141 
L 161.969622 258.172171 
L 169.270772 256.737056 
L 176.571922 255.354551 
L 183.873072 254.022542 
L 191.174223 252.738187 
L 198.475373 251.497699 
L 205.776523 250.296605 
L 213.077673 249.130249 
L 220.378824 247.994336 
L 227.679974 246.885355 
L 234.981124 245.800801 
L 242.282275 244.739156 
L 249.583425 243.69966 
L 256.884575 242.681969 
L 264.185725 241.685763 
L 271.486876 240.710434 
L 278.788026 239.754899 
L 286.089176 238.817591 
L 293.390327 237.896635 
L 300.691477 236.990132 
L 307.992627 236.096487 
L 315.293777 235.214718 
L 322.594928 234.344607 
L 329.896078 233.48667 
L 337.197228 232.641925 
L 344.498378 231.81145 
L 351.799529 230.995854 
L 359.100679 230.19476 
L 366.401829 229.406425 
L 373.70298 228.627696 
L 381.00413 227.854367 
L 388.30528 227.082072 
L 395.60643 226.307688 
L 402.907581 225.531206 
L 410.208731 224.757925 
L 417.509881 224.000741 
L 424.811032 223.282281 
L 432.112182 222.636574 
L 432.112182 221.713528 
L 432.112182 221.713528 
L 424.811032 222.36505 
L 417.509881 223.090429 
L 410.208731 223.855085 
L 402.907581 224.636033 
L 395.60643 225.420173 
L 388.30528 226.202135 
L 381.00413 226.981932 
L 373.70298 227.762741 
L 366.401829 228.549004 
L 359.100679 229.344989 
L 351.799529 230.153901 
L 344.498378 230.977497 
L 337.197228 231.816158 
L 329.896078 232.669253 
L 322.594928 233.535677 
L 315.293777 234.414391 
L 307.992627 235.304859 
L 300.691477 236.207297 
L 293.390327 237.122704 
L 286.089176 238.052689 
L 278.788026 238.999185 
L 271.486876 239.964098 
L 264.185725 240.949014 
L 256.884575 241.955031 
L 249.583425 242.982764 
L 242.282275 244.032531 
L 234.981124 245.104668 
L 227.679974 246.199933 
L 220.378824 247.31986 
L 213.077673 248.466976 
L 205.776523 249.644833 
L 198.475373 250.857788 
L 191.174223 252.110561 
L 183.873072 253.407693 
L 176.571922 254.753024 
L 169.270772 256.149441 
L 161.969622 257.599069 
L 154.668471 259.104169 
L 147.367321 260.668864 
L 140.066171 262.301781 
L 132.76502 264.019566 
L 125.46387 265.851054 
L 118.16272 267.841812 
L 110.86157 270.058563 
L 103.560419 272.592984 
L 96.259269 275.564274 
L 88.958119 279.119924 
L 81.656968 283.434222 
L 74.355818 288.70433 
z
" clip-path="url(#p446fe140fc)" style="fill: #7f7f7f; fill-opacity: 0.45"/>
   </g>
   <g id="PathCollection_8">
    <g clip-path="url(#p446fe140fc)">
     <use xlink:href="#m5fd02f2dae" x="74.355818" y="285.725508" style="fill-opacity: 0.7; stroke: #000000; stroke-opacity: 0.7"/>
     <use xlink:href="#m5fd02f2dae" x="106.879124" y="269.804428" style="fill-opacity: 0.7; stroke: #000000; stroke-opacity: 0.7"/>
     <use xlink:href="#m5fd02f2dae" x="143.01613" y="259.635752" style="fill-opacity: 0.7; stroke: #000000; stroke-opacity: 0.7"/>
     <use xlink:href="#m5fd02f2dae" x="179.153137" y="252.963298" style="fill-opacity: 0.7; stroke: #000000; stroke-opacity: 0.7"/>
     <use xlink:href="#m5fd02f2dae" x="215.290143" y="247.159484" style="fill-opacity: 0.7; stroke: #000000; stroke-opacity: 0.7"/>
     <use xlink:href="#m5fd02f2dae" x="251.42715" y="239.443471" style="fill-opacity: 0.7; stroke: #000000; stroke-opacity: 0.7"/>
     <use xlink:href="#m5fd02f2dae" x="287.564156" y="235.766122" style="fill-opacity: 0.7; stroke: #000000; stroke-opacity: 0.7"/>
     <use xlink:href="#m5fd02f2dae" x="323.701163" y="232.042307" style="fill-opacity: 0.7; stroke: #000000; stroke-opacity: 0.7"/>
     <use xlink:href="#m5fd02f2dae" x="359.838169" y="226.915561" style="fill-opacity: 0.7; stroke: #000000; stroke-opacity: 0.7"/>
     <use xlink:href="#m5fd02f2dae" x="395.975175" y="223.943975" style="fill-opacity: 0.7; stroke: #000000; stroke-opacity: 0.7"/>
     <use xlink:href="#m5fd02f2dae" x="432.112182" y="218.669575" style="fill-opacity: 0.7; stroke: #000000; stroke-opacity: 0.7"/>
    </g>
   </g>
   <g id="matplotlib.axis_1">
    <g id="xtick_1">
     <g id="line2d_1">
      <defs>
       <path id="m9169219c52" d="M 0 0 
L 0 3.5 
" style="stroke: #000000; stroke-width: 0.8"/>
      </defs>
      <g>
       <use xlink:href="#m9169219c52" x="70.742118" y="302.2" style="stroke: #000000; stroke-width: 0.8"/>
      </g>
     </g>
     <g id="text_1">
      <!-- 0 -->
      <g transform="translate(67.560868 316.798437) scale(0.1 -0.1)">
       <defs>
        <path id="DejaVuSans-30" d="M 2034 4250 
Q 1547 4250 1301 3770 
Q 1056 3291 1056 2328 
Q 1056 1369 1301 889 
Q 1547 409 2034 409 
Q 2525 409 2770 889 
Q 3016 1369 3016 2328 
Q 3016 3291 2770 3770 
Q 2525 4250 2034 4250 
z
M 2034 4750 
Q 2819 4750 3233 4129 
Q 3647 3509 3647 2328 
Q 3647 1150 3233 529 
Q 2819 -91 2034 -91 
Q 1250 -91 836 529 
Q 422 1150 422 2328 
Q 422 3509 836 4129 
Q 1250 4750 2034 4750 
z
" transform="scale(0.015625)"/>
       </defs>
       <use xlink:href="#DejaVuSans-30"/>
      </g>
     </g>
    </g>
    <g id="xtick_2">
     <g id="line2d_2">
      <g>
       <use xlink:href="#m9169219c52" x="143.01613" y="302.2" style="stroke: #000000; stroke-width: 0.8"/>
      </g>
     </g>
     <g id="text_2">
      <!-- 1 -->
      <g transform="translate(139.83488 316.798437) scale(0.1 -0.1)">
       <defs>
        <path id="DejaVuSans-31" d="M 794 531 
L 1825 531 
L 1825 4091 
L 703 3866 
L 703 4441 
L 1819 4666 
L 2450 4666 
L 2450 531 
L 3481 531 
L 3481 0 
L 794 0 
L 794 531 
z
" transform="scale(0.015625)"/>
       </defs>
       <use xlink:href="#DejaVuSans-31"/>
      </g>
     </g>
    </g>
    <g id="xtick_3">
     <g id="line2d_3">
      <g>
       <use xlink:href="#m9169219c52" x="215.290143" y="302.2" style="stroke: #000000; stroke-width: 0.8"/>
      </g>
     </g>
     <g id="text_3">
      <!-- 2 -->
      <g transform="translate(212.108893 316.798437) scale(0.1 -0.1)">
       <defs>
        <path id="DejaVuSans-32" d="M 1228 531 
L 3431 531 
L 3431 0 
L 469 0 
L 469 531 
Q 828 903 1448 1529 
Q 2069 2156 2228 2338 
Q 2531 2678 2651 2914 
Q 2772 3150 2772 3378 
Q 2772 3750 2511 3984 
Q 2250 4219 1831 4219 
Q 1534 4219 1204 4116 
Q 875 4013 500 3803 
L 500 4441 
Q 881 4594 1212 4672 
Q 1544 4750 1819 4750 
Q 2544 4750 2975 4387 
Q 3406 4025 3406 3419 
Q 3406 3131 3298 2873 
Q 3191 2616 2906 2266 
Q 2828 2175 2409 1742 
Q 1991 1309 1228 531 
z
" transform="scale(0.015625)"/>
       </defs>
       <use xlink:href="#DejaVuSans-32"/>
      </g>
     </g>
    </g>
    <g id="xtick_4">
     <g id="line2d_4">
      <g>
       <use xlink:href="#m9169219c52" x="287.564156" y="302.2" style="stroke: #000000; stroke-width: 0.8"/>
      </g>
     </g>
     <g id="text_4">
      <!-- 3 -->
      <g transform="translate(284.382906 316.798437) scale(0.1 -0.1)">
       <defs>
        <path id="DejaVuSans-33" d="M 2597 2516 
Q 3050 2419 3304 2112 
Q 3559 1806 3559 1356 
Q 3559 666 3084 287 
Q 2609 -91 1734 -91 
Q 1441 -91 1130 -33 
Q 819 25 488 141 
L 488 750 
Q 750 597 1062 519 
Q 1375 441 1716 441 
Q 2309 441 2620 675 
Q 2931 909 2931 1356 
Q 2931 1769 2642 2001 
Q 2353 2234 1838 2234 
L 1294 2234 
L 1294 2753 
L 1863 2753 
Q 2328 2753 2575 2939 
Q 2822 3125 2822 3475 
Q 2822 3834 2567 4026 
Q 2313 4219 1838 4219 
Q 1578 4219 1281 4162 
Q 984 4106 628 3988 
L 628 4550 
Q 988 4650 1302 4700 
Q 1616 4750 1894 4750 
Q 2613 4750 3031 4423 
Q 3450 4097 3450 3541 
Q 3450 3153 3228 2886 
Q 3006 2619 2597 2516 
z
" transform="scale(0.015625)"/>
       </defs>
       <use xlink:href="#DejaVuSans-33"/>
      </g>
     </g>
    </g>
    <g id="xtick_5">
     <g id="line2d_5">
      <g>
       <use xlink:href="#m9169219c52" x="359.838169" y="302.2" style="stroke: #000000; stroke-width: 0.8"/>
      </g>
     </g>
     <g id="text_5">
      <!-- 4 -->
      <g transform="translate(356.656919 316.798437) scale(0.1 -0.1)">
       <defs>
        <path id="DejaVuSans-34" d="M 2419 4116 
L 825 1625 
L 2419 1625 
L 2419 4116 
z
M 2253 4666 
L 3047 4666 
L 3047 1625 
L 3713 1625 
L 3713 1100 
L 3047 1100 
L 3047 0 
L 2419 0 
L 2419 1100 
L 313 1100 
L 313 1709 
L 2253 4666 
z
" transform="scale(0.015625)"/>
       </defs>
       <use xlink:href="#DejaVuSans-34"/>
      </g>
     </g>
    </g>
    <g id="xtick_6">
     <g id="line2d_6">
      <g>
       <use xlink:href="#m9169219c52" x="432.112182" y="302.2" style="stroke: #000000; stroke-width: 0.8"/>
      </g>
     </g>
     <g id="text_6">
      <!-- 5 -->
      <g transform="translate(428.930932 316.798437) scale(0.1 -0.1)">
       <defs>
        <path id="DejaVuSans-35" d="M 691 4666 
L 3169 4666 
L 3169 4134 
L 1269 4134 
L 1269 2991 
Q 1406 3038 1543 3061 
Q 1681 3084 1819 3084 
Q 2600 3084 3056 2656 
Q 3513 2228 3513 1497 
Q 3513 744 3044 326 
Q 2575 -91 1722 -91 
Q 1428 -91 1123 -41 
Q 819 9 494 109 
L 494 744 
Q 775 591 1075 516 
Q 1375 441 1709 441 
Q 2250 441 2565 725 
Q 2881 1009 2881 1497 
Q 2881 1984 2565 2268 
Q 2250 2553 1709 2553 
Q 1456 2553 1204 2497 
Q 953 2441 691 2322 
L 691 4666 
z
" transform="scale(0.015625)"/>
       </defs>
       <use xlink:href="#DejaVuSans-35"/>
      </g>
     </g>
    </g>
    <g id="text_7">
     <!-- $W$ (m/hour) -->
     <g transform="translate(224.784 330.476562) scale(0.1 -0.1)">
      <defs>
       <path id="DejaVuSans-Oblique-57" d="M 616 4666 
L 1228 4666 
L 1453 697 
L 3213 4666 
L 3916 4666 
L 4147 697 
L 5888 4666 
L 6528 4666 
L 4453 0 
L 3659 0 
L 3444 3891 
L 1697 0 
L 903 0 
L 616 4666 
z
" transform="scale(0.015625)"/>
       <path id="DejaVuSans-20" transform="scale(0.015625)"/>
       <path id="DejaVuSans-28" d="M 1984 4856 
Q 1566 4138 1362 3434 
Q 1159 2731 1159 2009 
Q 1159 1288 1364 580 
Q 1569 -128 1984 -844 
L 1484 -844 
Q 1016 -109 783 600 
Q 550 1309 550 2009 
Q 550 2706 781 3412 
Q 1013 4119 1484 4856 
L 1984 4856 
z
" transform="scale(0.015625)"/>
       <path id="DejaVuSans-6d" d="M 3328 2828 
Q 3544 3216 3844 3400 
Q 4144 3584 4550 3584 
Q 5097 3584 5394 3201 
Q 5691 2819 5691 2113 
L 5691 0 
L 5113 0 
L 5113 2094 
Q 5113 2597 4934 2840 
Q 4756 3084 4391 3084 
Q 3944 3084 3684 2787 
Q 3425 2491 3425 1978 
L 3425 0 
L 2847 0 
L 2847 2094 
Q 2847 2600 2669 2842 
Q 2491 3084 2119 3084 
Q 1678 3084 1418 2786 
Q 1159 2488 1159 1978 
L 1159 0 
L 581 0 
L 581 3500 
L 1159 3500 
L 1159 2956 
Q 1356 3278 1631 3431 
Q 1906 3584 2284 3584 
Q 2666 3584 2933 3390 
Q 3200 3197 3328 2828 
z
" transform="scale(0.015625)"/>
       <path id="DejaVuSans-2f" d="M 1625 4666 
L 2156 4666 
L 531 -594 
L 0 -594 
L 1625 4666 
z
" transform="scale(0.015625)"/>
       <path id="DejaVuSans-68" d="M 3513 2113 
L 3513 0 
L 2938 0 
L 2938 2094 
Q 2938 2591 2744 2837 
Q 2550 3084 2163 3084 
Q 1697 3084 1428 2787 
Q 1159 2491 1159 1978 
L 1159 0 
L 581 0 
L 581 4863 
L 1159 4863 
L 1159 2956 
Q 1366 3272 1645 3428 
Q 1925 3584 2291 3584 
Q 2894 3584 3203 3211 
Q 3513 2838 3513 2113 
z
" transform="scale(0.015625)"/>
       <path id="DejaVuSans-6f" d="M 1959 3097 
Q 1497 3097 1228 2736 
Q 959 2375 959 1747 
Q 959 1119 1226 758 
Q 1494 397 1959 397 
Q 2419 397 2687 759 
Q 2956 1122 2956 1747 
Q 2956 2369 2687 2733 
Q 2419 3097 1959 3097 
z
M 1959 3584 
Q 2709 3584 3137 3096 
Q 3566 2609 3566 1747 
Q 3566 888 3137 398 
Q 2709 -91 1959 -91 
Q 1206 -91 779 398 
Q 353 888 353 1747 
Q 353 2609 779 3096 
Q 1206 3584 1959 3584 
z
" transform="scale(0.015625)"/>
       <path id="DejaVuSans-75" d="M 544 1381 
L 544 3500 
L 1119 3500 
L 1119 1403 
Q 1119 906 1312 657 
Q 1506 409 1894 409 
Q 2359 409 2629 706 
Q 2900 1003 2900 1516 
L 2900 3500 
L 3475 3500 
L 3475 0 
L 2900 0 
L 2900 538 
Q 2691 219 2414 64 
Q 2138 -91 1772 -91 
Q 1169 -91 856 284 
Q 544 659 544 1381 
z
M 1991 3584 
L 1991 3584 
z
" transform="scale(0.015625)"/>
       <path id="DejaVuSans-72" d="M 2631 2963 
Q 2534 3019 2420 3045 
Q 2306 3072 2169 3072 
Q 1681 3072 1420 2755 
Q 1159 2438 1159 1844 
L 1159 0 
L 581 0 
L 581 3500 
L 1159 3500 
L 1159 2956 
Q 1341 3275 1631 3429 
Q 1922 3584 2338 3584 
Q 2397 3584 2469 3576 
Q 2541 3569 2628 3553 
L 2631 2963 
z
" transform="scale(0.015625)"/>
       <path id="DejaVuSans-29" d="M 513 4856 
L 1013 4856 
Q 1481 4119 1714 3412 
Q 1947 2706 1947 2009 
Q 1947 1309 1714 600 
Q 1481 -109 1013 -844 
L 513 -844 
Q 928 -128 1133 580 
Q 1338 1288 1338 2009 
Q 1338 2731 1133 3434 
Q 928 4138 513 4856 
z
" transform="scale(0.015625)"/>
      </defs>
      <use xlink:href="#DejaVuSans-Oblique-57" transform="translate(0 0.015625)"/>
      <use xlink:href="#DejaVuSans-20" transform="translate(98.876953 0.015625)"/>
      <use xlink:href="#DejaVuSans-28" transform="translate(130.664062 0.015625)"/>
      <use xlink:href="#DejaVuSans-6d" transform="translate(169.677734 0.015625)"/>
      <use xlink:href="#DejaVuSans-2f" transform="translate(267.089844 0.015625)"/>
      <use xlink:href="#DejaVuSans-68" transform="translate(300.78125 0.015625)"/>
      <use xlink:href="#DejaVuSans-6f" transform="translate(364.160156 0.015625)"/>
      <use xlink:href="#DejaVuSans-75" transform="translate(425.341797 0.015625)"/>
      <use xlink:href="#DejaVuSans-72" transform="translate(488.720703 0.015625)"/>
      <use xlink:href="#DejaVuSans-29" transform="translate(529.833984 0.015625)"/>
     </g>
    </g>
   </g>
   <g id="matplotlib.axis_2">
    <g id="ytick_1">
     <g id="line2d_7">
      <defs>
       <path id="m8849a1670a" d="M 0 0 
L -3.5 0 
" style="stroke: #000000; stroke-width: 0.8"/>
      </defs>
      <g>
       <use xlink:href="#m8849a1670a" x="56.468" y="273.539779" style="stroke: #000000; stroke-width: 0.8"/>
      </g>
     </g>
     <g id="text_8">
      <!-- 2.5 -->
      <g transform="translate(33.564875 277.338998) scale(0.1 -0.1)">
       <defs>
        <path id="DejaVuSans-2e" d="M 684 794 
L 1344 794 
L 1344 0 
L 684 0 
L 684 794 
z
" transform="scale(0.015625)"/>
       </defs>
       <use xlink:href="#DejaVuSans-32"/>
       <use xlink:href="#DejaVuSans-2e" transform="translate(63.623047 0)"/>
       <use xlink:href="#DejaVuSans-35" transform="translate(95.410156 0)"/>
      </g>
     </g>
    </g>
    <g id="ytick_2">
     <g id="line2d_8">
      <g>
       <use xlink:href="#m8849a1670a" x="56.468" y="239.72858" style="stroke: #000000; stroke-width: 0.8"/>
      </g>
     </g>
     <g id="text_9">
      <!-- 5.0 -->
      <g transform="translate(33.564875 243.527799) scale(0.1 -0.1)">
       <use xlink:href="#DejaVuSans-35"/>
       <use xlink:href="#DejaVuSans-2e" transform="translate(63.623047 0)"/>
       <use xlink:href="#DejaVuSans-30" transform="translate(95.410156 0)"/>
      </g>
     </g>
    </g>
    <g id="ytick_3">
     <g id="line2d_9">
      <g>
       <use xlink:href="#m8849a1670a" x="56.468" y="205.91738" style="stroke: #000000; stroke-width: 0.8"/>
      </g>
     </g>
     <g id="text_10">
      <!-- 7.5 -->
      <g transform="translate(33.564875 209.716599) scale(0.1 -0.1)">
       <defs>
        <path id="DejaVuSans-37" d="M 525 4666 
L 3525 4666 
L 3525 4397 
L 1831 0 
L 1172 0 
L 2766 4134 
L 525 4134 
L 525 4666 
z
" transform="scale(0.015625)"/>
       </defs>
       <use xlink:href="#DejaVuSans-37"/>
       <use xlink:href="#DejaVuSans-2e" transform="translate(63.623047 0)"/>
       <use xlink:href="#DejaVuSans-35" transform="translate(95.410156 0)"/>
      </g>
     </g>
    </g>
    <g id="ytick_4">
     <g id="line2d_10">
      <g>
       <use xlink:href="#m8849a1670a" x="56.468" y="172.106181" style="stroke: #000000; stroke-width: 0.8"/>
      </g>
     </g>
     <g id="text_11">
      <!-- 10.0 -->
      <g transform="translate(27.202375 175.9054) scale(0.1 -0.1)">
       <use xlink:href="#DejaVuSans-31"/>
       <use xlink:href="#DejaVuSans-30" transform="translate(63.623047 0)"/>
       <use xlink:href="#DejaVuSans-2e" transform="translate(127.246094 0)"/>
       <use xlink:href="#DejaVuSans-30" transform="translate(159.033203 0)"/>
      </g>
     </g>
    </g>
    <g id="ytick_5">
     <g id="line2d_11">
      <g>
       <use xlink:href="#m8849a1670a" x="56.468" y="138.294981" style="stroke: #000000; stroke-width: 0.8"/>
      </g>
     </g>
     <g id="text_12">
      <!-- 12.5 -->
      <g transform="translate(27.202375 142.0942) scale(0.1 -0.1)">
       <use xlink:href="#DejaVuSans-31"/>
       <use xlink:href="#DejaVuSans-32" transform="translate(63.623047 0)"/>
       <use xlink:href="#DejaVuSans-2e" transform="translate(127.246094 0)"/>
       <use xlink:href="#DejaVuSans-35" transform="translate(159.033203 0)"/>
      </g>
     </g>
    </g>
    <g id="ytick_6">
     <g id="line2d_12">
      <g>
       <use xlink:href="#m8849a1670a" x="56.468" y="104.483782" style="stroke: #000000; stroke-width: 0.8"/>
      </g>
     </g>
     <g id="text_13">
      <!-- 15.0 -->
      <g transform="translate(27.202375 108.283) scale(0.1 -0.1)">
       <use xlink:href="#DejaVuSans-31"/>
       <use xlink:href="#DejaVuSans-35" transform="translate(63.623047 0)"/>
       <use xlink:href="#DejaVuSans-2e" transform="translate(127.246094 0)"/>
       <use xlink:href="#DejaVuSans-30" transform="translate(159.033203 0)"/>
      </g>
     </g>
    </g>
    <g id="ytick_7">
     <g id="line2d_13">
      <g>
       <use xlink:href="#m8849a1670a" x="56.468" y="70.672582" style="stroke: #000000; stroke-width: 0.8"/>
      </g>
     </g>
     <g id="text_14">
      <!-- 17.5 -->
      <g transform="translate(27.202375 74.471801) scale(0.1 -0.1)">
       <use xlink:href="#DejaVuSans-31"/>
       <use xlink:href="#DejaVuSans-37" transform="translate(63.623047 0)"/>
       <use xlink:href="#DejaVuSans-2e" transform="translate(127.246094 0)"/>
       <use xlink:href="#DejaVuSans-35" transform="translate(159.033203 0)"/>
      </g>
     </g>
    </g>
    <g id="ytick_8">
     <g id="line2d_14">
      <g>
       <use xlink:href="#m8849a1670a" x="56.468" y="36.861383" style="stroke: #000000; stroke-width: 0.8"/>
      </g>
     </g>
     <g id="text_15">
      <!-- 20.0 -->
      <g transform="translate(27.202375 40.660601) scale(0.1 -0.1)">
       <use xlink:href="#DejaVuSans-32"/>
       <use xlink:href="#DejaVuSans-30" transform="translate(63.623047 0)"/>
       <use xlink:href="#DejaVuSans-2e" transform="translate(127.246094 0)"/>
       <use xlink:href="#DejaVuSans-30" transform="translate(159.033203 0)"/>
      </g>
     </g>
    </g>
    <g id="text_16">
     <!-- $Q_{lc}$ (kW) -->
     <g transform="translate(21.122688 176.8) rotate(-90) scale(0.1 -0.1)">
      <defs>
       <path id="DejaVuSans-Oblique-51" d="M 2309 -84 
Q 2275 -88 2237 -89 
Q 2200 -91 2125 -91 
Q 1250 -91 756 411 
Q 263 913 263 1797 
Q 263 2319 452 2844 
Q 641 3369 978 3788 
Q 1369 4269 1858 4509 
Q 2347 4750 2938 4750 
Q 3794 4750 4287 4245 
Q 4781 3741 4781 2869 
Q 4781 1928 4265 1147 
Q 3750 366 2919 44 
L 3553 -825 
L 2847 -825 
L 2309 -84 
z
M 2919 4238 
Q 2400 4238 2003 3986 
Q 1606 3734 1313 3219 
Q 1125 2891 1026 2522 
Q 928 2153 928 1778 
Q 928 1128 1239 775 
Q 1550 422 2119 422 
Q 2631 422 3032 676 
Q 3434 931 3719 1434 
Q 3909 1772 4009 2142 
Q 4109 2513 4109 2881 
Q 4109 3528 3796 3883 
Q 3484 4238 2919 4238 
z
" transform="scale(0.015625)"/>
       <path id="DejaVuSans-Oblique-6c" d="M 1172 4863 
L 1747 4863 
L 800 0 
L 225 0 
L 1172 4863 
z
" transform="scale(0.015625)"/>
       <path id="DejaVuSans-Oblique-63" d="M 3431 3366 
L 3316 2797 
Q 3109 2947 2876 3022 
Q 2644 3097 2394 3097 
Q 2119 3097 1870 3000 
Q 1622 2903 1453 2725 
Q 1184 2453 1037 2087 
Q 891 1722 891 1331 
Q 891 859 1127 628 
Q 1363 397 1844 397 
Q 2081 397 2348 469 
Q 2616 541 2906 684 
L 2797 116 
Q 2547 13 2283 -39 
Q 2019 -91 1741 -91 
Q 1044 -91 669 257 
Q 294 606 294 1253 
Q 294 1797 489 2255 
Q 684 2713 1069 3078 
Q 1331 3328 1684 3456 
Q 2038 3584 2456 3584 
Q 2700 3584 2940 3529 
Q 3181 3475 3431 3366 
z
" transform="scale(0.015625)"/>
       <path id="DejaVuSans-6b" d="M 581 4863 
L 1159 4863 
L 1159 1991 
L 2875 3500 
L 3609 3500 
L 1753 1863 
L 3688 0 
L 2938 0 
L 1159 1709 
L 1159 0 
L 581 0 
L 581 4863 
z
" transform="scale(0.015625)"/>
       <path id="DejaVuSans-57" d="M 213 4666 
L 850 4666 
L 1831 722 
L 2809 4666 
L 3519 4666 
L 4500 722 
L 5478 4666 
L 6119 4666 
L 4947 0 
L 4153 0 
L 3169 4050 
L 2175 0 
L 1381 0 
L 213 4666 
z
" transform="scale(0.015625)"/>
      </defs>
      <use xlink:href="#DejaVuSans-Oblique-51" transform="translate(0 0.015625)"/>
      <use xlink:href="#DejaVuSans-Oblique-6c" transform="translate(78.710938 -16.390625) scale(0.7)"/>
      <use xlink:href="#DejaVuSans-Oblique-63" transform="translate(98.15918 -16.390625) scale(0.7)"/>
      <use xlink:href="#DejaVuSans-20" transform="translate(139.379883 0.015625)"/>
      <use xlink:href="#DejaVuSans-28" transform="translate(171.166992 0.015625)"/>
      <use xlink:href="#DejaVuSans-6b" transform="translate(210.180664 0.015625)"/>
      <use xlink:href="#DejaVuSans-57" transform="translate(268.09082 0.015625)"/>
      <use xlink:href="#DejaVuSans-29" transform="translate(366.967773 0.015625)"/>
     </g>
    </g>
   </g>
   <g id="line2d_15">
    <path d="M 74.355818 249.510147 
L 81.656968 232.044993 
L 88.958119 217.724788 
L 96.259269 205.903479 
L 103.560419 196.002033 
L 110.86157 187.540242 
L 118.16272 180.124077 
L 125.46387 173.452332 
L 132.76502 167.306097 
L 140.066171 161.537293 
L 147.367321 156.050069 
L 154.668471 150.79005 
L 161.969622 145.729285 
L 169.270772 140.854595 
L 176.571922 136.157925 
L 183.873072 131.632432 
L 191.174223 127.268271 
L 198.475373 123.053229 
L 205.776523 118.971413 
L 213.077673 115.007383 
L 220.378824 111.145972 
L 227.679974 107.375112 
L 234.981124 103.686176 
L 242.282275 100.074243 
L 249.583425 96.536546 
L 256.884575 93.071879 
L 264.185725 89.679699 
L 271.486876 86.358296 
L 278.788026 83.104369 
L 286.089176 79.912966 
L 293.390327 76.777899 
L 300.691477 73.692683 
L 307.992627 70.651489 
L 315.293777 67.65079 
L 322.594928 64.689384 
L 329.896078 61.768538 
L 337.197228 58.891314 
L 344.498378 56.061236 
L 351.799529 53.280623 
L 359.100679 50.548738 
L 366.401829 47.860297 
L 373.70298 45.205473 
L 381.00413 42.570797 
L 388.30528 39.941896 
L 395.60643 37.308032 
L 402.907581 34.66826 
L 410.208731 32.038812 
L 417.509881 29.46102 
L 424.811032 27.00893 
L 432.112182 24.795661 
" clip-path="url(#p446fe140fc)" style="fill: none; stroke: #1f77b4; stroke-width: 1.5; stroke-linecap: square"/>
   </g>
   <g id="line2d_16">
    <path d="M 74.355818 253.763386 
L 81.656968 237.705235 
L 88.958119 224.548135 
L 96.259269 213.687133 
L 103.560419 204.593141 
L 110.86157 196.821677 
L 118.16272 190.013203 
L 125.46387 183.888685 
L 132.76502 178.246536 
L 140.066171 172.949352 
L 147.367321 167.911976 
L 154.668471 163.082633 
L 161.969622 158.436656 
L 169.270772 153.962225 
L 176.571922 149.651522 
L 183.873072 145.498099 
L 191.174223 141.493487 
L 198.475373 137.625496 
L 205.776523 133.879769 
L 213.077673 130.241615 
L 220.378824 126.697494 
L 227.679974 123.236663 
L 234.981124 119.851395 
L 242.282275 116.535863 
L 249.583425 113.288473 
L 256.884575 110.108688 
L 264.185725 106.996314 
L 271.486876 103.949106 
L 278.788026 100.963968 
L 286.089176 98.036233 
L 293.390327 95.160118 
L 300.691477 92.329188 
L 307.992627 89.538619 
L 315.293777 86.785062 
L 322.594928 84.067443 
L 329.896078 81.387021 
L 337.197228 78.746725 
L 344.498378 76.149889 
L 351.799529 73.598629 
L 359.100679 71.092203 
L 366.401829 68.625803 
L 373.70298 66.190241 
L 381.00413 63.772944 
L 388.30528 61.360523 
L 395.60643 58.943007 
L 402.907581 56.519596 
L 410.208731 54.105685 
L 417.509881 51.739994 
L 424.811032 49.491353 
L 432.112182 47.46516 
" clip-path="url(#p446fe140fc)" style="fill: none; stroke: #ff7f0e; stroke-width: 1.5; stroke-linecap: square"/>
   </g>
   <g id="line2d_17">
    <path d="M 74.355818 258.245678 
L 81.656968 243.648245 
L 88.958119 231.688064 
L 96.259269 221.818885 
L 103.560419 213.557236 
L 110.86157 206.500146 
L 118.16272 200.317555 
L 125.46387 194.756052 
L 132.76502 189.634256 
L 140.066171 184.826221 
L 147.367321 180.252969 
L 154.668471 175.872045 
L 161.969622 171.65572 
L 169.270772 167.595671 
L 176.571922 163.685006 
L 183.873072 159.916604 
L 191.174223 156.283449 
L 198.475373 152.773881 
L 205.776523 149.375266 
L 213.077673 146.074248 
L 220.378824 142.85899 
L 227.679974 139.719086 
L 234.981124 136.6474 
L 242.282275 133.639723 
L 249.583425 130.694089 
L 256.884575 127.809281 
L 264.185725 124.98486 
L 271.486876 122.219685 
L 278.788026 119.510916 
L 286.089176 116.854959 
L 293.390327 114.246244 
L 300.691477 111.678456 
L 307.992627 109.14727 
L 315.293777 106.649601 
L 322.594928 104.184503 
L 329.896078 101.753161 
L 337.197228 99.358279 
L 344.498378 97.002921 
L 351.799529 94.689023 
L 359.100679 92.415805 
L 366.401829 90.178589 
L 373.70298 87.969321 
L 381.00413 85.776464 
L 388.30528 83.587534 
L 395.60643 81.394097 
L 402.907581 79.195187 
L 410.208731 77.004742 
L 417.509881 74.858499 
L 424.811032 72.819419 
L 432.112182 70.98372 
" clip-path="url(#p446fe140fc)" style="fill: none; stroke: #2ca02c; stroke-width: 1.5; stroke-linecap: square"/>
   </g>
   <g id="line2d_18">
    <path d="M 74.355818 264.613923 
L 81.656968 252.045871 
L 88.958119 241.749137 
L 96.259269 233.254781 
L 103.560419 226.14694 
L 110.86157 220.077927 
L 118.16272 214.763539 
L 125.46387 209.983771 
L 132.76502 205.581626 
L 140.066171 201.450612 
L 147.367321 197.522428 
L 154.668471 193.758027 
L 161.969622 190.137151 
L 169.270772 186.649318 
L 176.571922 183.289781 
L 183.873072 180.053475 
L 191.174223 176.932871 
L 198.475373 173.918865 
L 205.776523 171.000199 
L 213.077673 168.165452 
L 220.378824 165.404047 
L 227.679974 162.707013 
L 234.981124 160.069028 
L 242.282275 157.486106 
L 249.583425 154.956521 
L 256.884575 152.479258 
L 264.185725 150.054146 
L 271.486876 147.679948 
L 278.788026 145.354192 
L 286.089176 143.073213 
L 293.390327 140.832486 
L 300.691477 138.627495 
L 307.992627 136.453979 
L 315.293777 134.309292 
L 322.594928 132.192628 
L 329.896078 130.105013 
L 337.197228 128.048764 
L 344.498378 126.026503 
L 351.799529 124.039875 
L 359.100679 122.088264 
L 366.401829 120.167876 
L 373.70298 118.271635 
L 381.00413 116.389459 
L 388.30528 114.51085 
L 395.60643 112.627846 
L 402.907581 110.740102 
L 410.208731 108.859696 
L 417.509881 107.01706 
L 424.811032 105.266477 
L 432.112182 103.690708 
" clip-path="url(#p446fe140fc)" style="fill: none; stroke: #d62728; stroke-width: 1.5; stroke-linecap: square"/>
   </g>
   <g id="line2d_19">
    <path d="M 74.355818 269.694158 
L 81.656968 258.71377 
L 88.958119 249.719166 
L 96.259269 242.300303 
L 103.560419 236.09488 
L 110.86157 230.795025 
L 118.16272 226.154531 
L 125.46387 221.983964 
L 132.76502 218.144531 
L 140.066171 214.542046 
L 147.367321 211.116902 
L 154.668471 207.834624 
L 161.969622 204.676692 
L 169.270772 201.634818 
L 176.571922 198.705067 
L 183.873072 195.881842 
L 191.174223 193.159625 
L 198.475373 190.530353 
L 205.776523 187.984449 
L 213.077673 185.511937 
L 220.378824 183.103606 
L 227.679974 180.751954 
L 234.981124 178.451793 
L 242.282275 176.199702 
L 249.583425 173.994145 
L 256.884575 171.834516 
L 264.185725 169.720309 
L 271.486876 167.650421 
L 278.788026 165.622728 
L 286.089176 163.634047 
L 293.390327 161.680449 
L 300.691477 159.757861 
L 307.992627 157.862782 
L 315.293777 155.992921 
L 322.594928 154.147577 
L 329.896078 152.32763 
L 337.197228 150.535076 
L 344.498378 148.772171 
L 351.799529 147.040316 
L 359.100679 145.338955 
L 366.401829 143.66492 
L 373.70298 142.011728 
L 381.00413 140.370789 
L 388.30528 138.732999 
L 395.60643 137.091626 
L 402.907581 135.446226 
L 410.208731 133.807302 
L 417.509881 132.201263 
L 424.811032 130.675168 
L 432.112182 129.300617 
" clip-path="url(#p446fe140fc)" style="fill: none; stroke: #9467bd; stroke-width: 1.5; stroke-linecap: square"/>
   </g>
   <g id="line2d_20">
    <path d="M 74.355818 275.064015 
L 81.656968 265.73071 
L 88.958119 258.08609 
L 96.259269 251.781557 
L 103.560419 246.509955 
L 110.86157 242.009377 
L 118.16272 238.06975 
L 125.46387 234.530123 
L 132.76502 231.272674 
L 140.066171 228.216566 
L 147.367321 225.310861 
L 154.668471 222.525875 
L 161.969622 219.846583 
L 169.270772 217.265873 
L 176.571922 214.779664 
L 183.873072 212.384238 
L 191.174223 210.074527 
L 198.475373 207.84378 
L 205.776523 205.684093 
L 213.077673 203.586825 
L 220.378824 201.544171 
L 227.679974 199.549726 
L 234.981124 197.598913 
L 242.282275 195.688955 
L 249.583425 193.818496 
L 256.884575 191.986939 
L 264.185725 190.193795 
L 271.486876 188.43818 
L 278.788026 186.7183 
L 286.089176 185.031468 
L 293.390327 183.374404 
L 300.691477 181.743693 
L 307.992627 180.136375 
L 315.293777 178.550549 
L 322.594928 176.985603 
L 329.896078 175.44228 
L 337.197228 173.922274 
L 344.498378 172.427438 
L 351.799529 170.958881 
L 359.100679 169.516117 
L 366.401829 168.096321 
L 373.70298 166.694146 
L 381.00413 165.302335 
L 388.30528 163.913214 
L 395.60643 162.521127 
L 402.907581 161.125734 
L 410.208731 159.735916 
L 417.509881 158.373945 
L 424.811032 157.079444 
L 432.112182 155.912616 
" clip-path="url(#p446fe140fc)" style="fill: none; stroke: #8c564b; stroke-width: 1.5; stroke-linecap: square"/>
   </g>
   <g id="line2d_21">
    <path d="M 74.355818 280.742519 
L 81.656968 273.119766 
L 88.958119 266.875955 
L 96.259269 261.727372 
L 103.560419 257.422798 
L 110.86157 253.749567 
L 118.16272 250.535689 
L 125.46387 247.648831 
L 132.76502 244.992558 
L 140.066171 242.500928 
L 147.367321 240.132147 
L 154.668471 237.862048 
L 161.969622 235.678021 
L 169.270772 233.574241 
L 176.571922 231.54742 
L 183.873072 229.594637 
L 191.174223 227.711799 
L 198.475373 225.893326 
L 205.776523 224.132683 
L 213.077673 222.423011 
L 220.378824 220.757926 
L 227.679974 219.132269 
L 234.981124 217.54229 
L 242.282275 215.985703 
L 249.583425 214.461369 
L 256.884575 212.968798 
L 264.185725 211.507579 
L 271.486876 210.076911 
L 278.788026 208.675313 
L 286.089176 207.300591 
L 293.390327 205.950066 
L 300.691477 204.620965 
L 307.992627 203.310909 
L 315.293777 202.018386 
L 322.594928 200.742945 
L 329.896078 199.485205 
L 337.197228 198.246533 
L 344.498378 197.028444 
L 351.799529 195.831848 
L 359.100679 194.65629 
L 366.401829 193.499407 
L 373.70298 192.356809 
L 381.00413 191.222563 
L 388.30528 190.090425 
L 395.60643 188.955827 
L 402.907581 187.818552 
L 410.208731 186.685899 
L 417.509881 185.576047 
L 424.811032 184.521232 
L 432.112182 183.570311 
" clip-path="url(#p446fe140fc)" style="fill: none; stroke: #e377c2; stroke-width: 1.5; stroke-linecap: square"/>
   </g>
   <g id="line2d_22">
    <path d="M 74.355818 288.836756 
L 81.656968 283.597134 
L 88.958119 279.307054 
L 96.259269 275.770917 
L 103.560419 272.815616 
L 110.86157 270.29463 
L 118.16272 268.089526 
L 125.46387 266.109193 
L 132.76502 264.2873 
L 140.066171 262.578532 
L 147.367321 260.9542 
L 154.668471 259.397733 
L 161.969622 257.900559 
L 169.270772 256.458547 
L 176.571922 255.069429 
L 183.873072 253.731088 
L 191.174223 252.440662 
L 198.475373 251.194337 
L 205.776523 249.987608 
L 213.077673 248.815788 
L 220.378824 247.674553 
L 227.679974 246.560375 
L 234.981124 245.470733 
L 242.282275 244.404105 
L 249.583425 243.359732 
L 256.884575 242.337271 
L 264.185725 241.336406 
L 271.486876 240.356523 
L 278.788026 239.396533 
L 286.089176 238.454861 
L 293.390327 237.529615 
L 300.691477 236.61888 
L 307.992627 235.721055 
L 315.293777 234.835149 
L 322.594928 233.960947 
L 329.896078 233.098975 
L 337.197228 232.250259 
L 344.498378 231.415892 
L 351.799529 230.596494 
L 359.100679 229.791684 
L 366.401829 228.999716 
L 373.70298 228.217409 
L 381.00413 227.440527 
L 388.30528 226.664669 
L 395.60643 225.886685 
L 402.907581 225.106563 
L 410.208731 224.329638 
L 417.509881 223.568902 
L 424.811032 222.847156 
L 432.112182 222.198694 
" clip-path="url(#p446fe140fc)" style="fill: none; stroke: #7f7f7f; stroke-width: 1.5; stroke-linecap: square"/>
   </g>
   <g id="patch_3">
    <path d="M 56.468 302.2 
L 56.468 10.8 
" style="fill: none; stroke: #000000; stroke-width: 0.8; stroke-linejoin: miter; stroke-linecap: square"/>
   </g>
   <g id="patch_4">
    <path d="M 450 302.2 
L 450 10.8 
" style="fill: none; stroke: #000000; stroke-width: 0.8; stroke-linejoin: miter; stroke-linecap: square"/>
   </g>
   <g id="patch_5">
    <path d="M 56.468 302.2 
L 450 302.2 
" style="fill: none; stroke: #000000; stroke-width: 0.8; stroke-linejoin: miter; stroke-linecap: square"/>
   </g>
   <g id="patch_6">
    <path d="M 56.468 10.8 
L 450 10.8 
" style="fill: none; stroke: #000000; stroke-width: 0.8; stroke-linejoin: miter; stroke-linecap: square"/>
   </g>
   <g id="legend_1">
    <g id="patch_7">
     <path d="M 63.468 150.903125 
L 162.302375 150.903125 
Q 164.302375 150.903125 164.302375 148.903125 
L 164.302375 17.8 
Q 164.302375 15.8 162.302375 15.8 
L 63.468 15.8 
Q 61.468 15.8 61.468 17.8 
L 61.468 148.903125 
Q 61.468 150.903125 63.468 150.903125 
z
" style="fill: #ffffff; opacity: 0.8; stroke: #cccccc; stroke-linejoin: miter"/>
    </g>
    <g id="line2d_23">
     <path d="M 65.468 23.898438 
L 75.468 23.898438 
L 85.468 23.898438 
" style="fill: none; stroke: #1f77b4; stroke-width: 1.5; stroke-linecap: square"/>
    </g>
    <g id="text_17">
     <!-- Ts=80 K -->
     <g transform="translate(93.468 27.398438) scale(0.1 -0.1)">
      <defs>
       <path id="DejaVuSans-54" d="M -19 4666 
L 3928 4666 
L 3928 4134 
L 2272 4134 
L 2272 0 
L 1638 0 
L 1638 4134 
L -19 4134 
L -19 4666 
z
" transform="scale(0.015625)"/>
       <path id="DejaVuSans-73" d="M 2834 3397 
L 2834 2853 
Q 2591 2978 2328 3040 
Q 2066 3103 1784 3103 
Q 1356 3103 1142 2972 
Q 928 2841 928 2578 
Q 928 2378 1081 2264 
Q 1234 2150 1697 2047 
L 1894 2003 
Q 2506 1872 2764 1633 
Q 3022 1394 3022 966 
Q 3022 478 2636 193 
Q 2250 -91 1575 -91 
Q 1294 -91 989 -36 
Q 684 19 347 128 
L 347 722 
Q 666 556 975 473 
Q 1284 391 1588 391 
Q 1994 391 2212 530 
Q 2431 669 2431 922 
Q 2431 1156 2273 1281 
Q 2116 1406 1581 1522 
L 1381 1569 
Q 847 1681 609 1914 
Q 372 2147 372 2553 
Q 372 3047 722 3315 
Q 1072 3584 1716 3584 
Q 2034 3584 2315 3537 
Q 2597 3491 2834 3397 
z
" transform="scale(0.015625)"/>
       <path id="DejaVuSans-3d" d="M 678 2906 
L 4684 2906 
L 4684 2381 
L 678 2381 
L 678 2906 
z
M 678 1631 
L 4684 1631 
L 4684 1100 
L 678 1100 
L 678 1631 
z
" transform="scale(0.015625)"/>
       <path id="DejaVuSans-38" d="M 2034 2216 
Q 1584 2216 1326 1975 
Q 1069 1734 1069 1313 
Q 1069 891 1326 650 
Q 1584 409 2034 409 
Q 2484 409 2743 651 
Q 3003 894 3003 1313 
Q 3003 1734 2745 1975 
Q 2488 2216 2034 2216 
z
M 1403 2484 
Q 997 2584 770 2862 
Q 544 3141 544 3541 
Q 544 4100 942 4425 
Q 1341 4750 2034 4750 
Q 2731 4750 3128 4425 
Q 3525 4100 3525 3541 
Q 3525 3141 3298 2862 
Q 3072 2584 2669 2484 
Q 3125 2378 3379 2068 
Q 3634 1759 3634 1313 
Q 3634 634 3220 271 
Q 2806 -91 2034 -91 
Q 1263 -91 848 271 
Q 434 634 434 1313 
Q 434 1759 690 2068 
Q 947 2378 1403 2484 
z
M 1172 3481 
Q 1172 3119 1398 2916 
Q 1625 2713 2034 2713 
Q 2441 2713 2670 2916 
Q 2900 3119 2900 3481 
Q 2900 3844 2670 4047 
Q 2441 4250 2034 4250 
Q 1625 4250 1398 4047 
Q 1172 3844 1172 3481 
z
" transform="scale(0.015625)"/>
       <path id="DejaVuSans-4b" d="M 628 4666 
L 1259 4666 
L 1259 2694 
L 3353 4666 
L 4166 4666 
L 1850 2491 
L 4331 0 
L 3500 0 
L 1259 2247 
L 1259 0 
L 628 0 
L 628 4666 
z
" transform="scale(0.015625)"/>
      </defs>
      <use xlink:href="#DejaVuSans-54"/>
      <use xlink:href="#DejaVuSans-73" transform="translate(44.583984 0)"/>
      <use xlink:href="#DejaVuSans-3d" transform="translate(96.683594 0)"/>
      <use xlink:href="#DejaVuSans-38" transform="translate(180.472656 0)"/>
      <use xlink:href="#DejaVuSans-30" transform="translate(244.095703 0)"/>
      <use xlink:href="#DejaVuSans-20" transform="translate(307.71875 0)"/>
      <use xlink:href="#DejaVuSans-4b" transform="translate(339.505859 0)"/>
     </g>
    </g>
    <g id="line2d_24">
     <path d="M 65.468 38.576563 
L 75.468 38.576563 
L 85.468 38.576563 
" style="fill: none; stroke: #ff7f0e; stroke-width: 1.5; stroke-linecap: square"/>
    </g>
    <g id="text_18">
     <!-- Ts=100 K -->
     <g transform="translate(93.468 42.076563) scale(0.1 -0.1)">
      <use xlink:href="#DejaVuSans-54"/>
      <use xlink:href="#DejaVuSans-73" transform="translate(44.583984 0)"/>
      <use xlink:href="#DejaVuSans-3d" transform="translate(96.683594 0)"/>
      <use xlink:href="#DejaVuSans-31" transform="translate(180.472656 0)"/>
      <use xlink:href="#DejaVuSans-30" transform="translate(244.095703 0)"/>
      <use xlink:href="#DejaVuSans-30" transform="translate(307.71875 0)"/>
      <use xlink:href="#DejaVuSans-20" transform="translate(371.341797 0)"/>
      <use xlink:href="#DejaVuSans-4b" transform="translate(403.128906 0)"/>
     </g>
    </g>
    <g id="line2d_25">
     <path d="M 65.468 53.254687 
L 75.468 53.254687 
L 85.468 53.254687 
" style="fill: none; stroke: #2ca02c; stroke-width: 1.5; stroke-linecap: square"/>
    </g>
    <g id="text_19">
     <!-- Ts=120 K -->
     <g transform="translate(93.468 56.754687) scale(0.1 -0.1)">
      <use xlink:href="#DejaVuSans-54"/>
      <use xlink:href="#DejaVuSans-73" transform="translate(44.583984 0)"/>
      <use xlink:href="#DejaVuSans-3d" transform="translate(96.683594 0)"/>
      <use xlink:href="#DejaVuSans-31" transform="translate(180.472656 0)"/>
      <use xlink:href="#DejaVuSans-32" transform="translate(244.095703 0)"/>
      <use xlink:href="#DejaVuSans-30" transform="translate(307.71875 0)"/>
      <use xlink:href="#DejaVuSans-20" transform="translate(371.341797 0)"/>
      <use xlink:href="#DejaVuSans-4b" transform="translate(403.128906 0)"/>
     </g>
    </g>
    <g id="line2d_26">
     <path d="M 65.468 67.932813 
L 75.468 67.932813 
L 85.468 67.932813 
" style="fill: none; stroke: #d62728; stroke-width: 1.5; stroke-linecap: square"/>
    </g>
    <g id="text_20">
     <!-- Ts=140 K -->
     <g transform="translate(93.468 71.432813) scale(0.1 -0.1)">
      <use xlink:href="#DejaVuSans-54"/>
      <use xlink:href="#DejaVuSans-73" transform="translate(44.583984 0)"/>
      <use xlink:href="#DejaVuSans-3d" transform="translate(96.683594 0)"/>
      <use xlink:href="#DejaVuSans-31" transform="translate(180.472656 0)"/>
      <use xlink:href="#DejaVuSans-34" transform="translate(244.095703 0)"/>
      <use xlink:href="#DejaVuSans-30" transform="translate(307.71875 0)"/>
      <use xlink:href="#DejaVuSans-20" transform="translate(371.341797 0)"/>
      <use xlink:href="#DejaVuSans-4b" transform="translate(403.128906 0)"/>
     </g>
    </g>
    <g id="line2d_27">
     <path d="M 65.468 82.610938 
L 75.468 82.610938 
L 85.468 82.610938 
" style="fill: none; stroke: #9467bd; stroke-width: 1.5; stroke-linecap: square"/>
    </g>
    <g id="text_21">
     <!-- Ts=160 K -->
     <g transform="translate(93.468 86.110938) scale(0.1 -0.1)">
      <defs>
       <path id="DejaVuSans-36" d="M 2113 2584 
Q 1688 2584 1439 2293 
Q 1191 2003 1191 1497 
Q 1191 994 1439 701 
Q 1688 409 2113 409 
Q 2538 409 2786 701 
Q 3034 994 3034 1497 
Q 3034 2003 2786 2293 
Q 2538 2584 2113 2584 
z
M 3366 4563 
L 3366 3988 
Q 3128 4100 2886 4159 
Q 2644 4219 2406 4219 
Q 1781 4219 1451 3797 
Q 1122 3375 1075 2522 
Q 1259 2794 1537 2939 
Q 1816 3084 2150 3084 
Q 2853 3084 3261 2657 
Q 3669 2231 3669 1497 
Q 3669 778 3244 343 
Q 2819 -91 2113 -91 
Q 1303 -91 875 529 
Q 447 1150 447 2328 
Q 447 3434 972 4092 
Q 1497 4750 2381 4750 
Q 2619 4750 2861 4703 
Q 3103 4656 3366 4563 
z
" transform="scale(0.015625)"/>
      </defs>
      <use xlink:href="#DejaVuSans-54"/>
      <use xlink:href="#DejaVuSans-73" transform="translate(44.583984 0)"/>
      <use xlink:href="#DejaVuSans-3d" transform="translate(96.683594 0)"/>
      <use xlink:href="#DejaVuSans-31" transform="translate(180.472656 0)"/>
      <use xlink:href="#DejaVuSans-36" transform="translate(244.095703 0)"/>
      <use xlink:href="#DejaVuSans-30" transform="translate(307.71875 0)"/>
      <use xlink:href="#DejaVuSans-20" transform="translate(371.341797 0)"/>
      <use xlink:href="#DejaVuSans-4b" transform="translate(403.128906 0)"/>
     </g>
    </g>
    <g id="line2d_28">
     <path d="M 65.468 97.289062 
L 75.468 97.289062 
L 85.468 97.289062 
" style="fill: none; stroke: #8c564b; stroke-width: 1.5; stroke-linecap: square"/>
    </g>
    <g id="text_22">
     <!-- Ts=180 K -->
     <g transform="translate(93.468 100.789062) scale(0.1 -0.1)">
      <use xlink:href="#DejaVuSans-54"/>
      <use xlink:href="#DejaVuSans-73" transform="translate(44.583984 0)"/>
      <use xlink:href="#DejaVuSans-3d" transform="translate(96.683594 0)"/>
      <use xlink:href="#DejaVuSans-31" transform="translate(180.472656 0)"/>
      <use xlink:href="#DejaVuSans-38" transform="translate(244.095703 0)"/>
      <use xlink:href="#DejaVuSans-30" transform="translate(307.71875 0)"/>
      <use xlink:href="#DejaVuSans-20" transform="translate(371.341797 0)"/>
      <use xlink:href="#DejaVuSans-4b" transform="translate(403.128906 0)"/>
     </g>
    </g>
    <g id="line2d_29">
     <path d="M 65.468 111.967187 
L 75.468 111.967187 
L 85.468 111.967187 
" style="fill: none; stroke: #e377c2; stroke-width: 1.5; stroke-linecap: square"/>
    </g>
    <g id="text_23">
     <!-- Ts=200 K -->
     <g transform="translate(93.468 115.467187) scale(0.1 -0.1)">
      <use xlink:href="#DejaVuSans-54"/>
      <use xlink:href="#DejaVuSans-73" transform="translate(44.583984 0)"/>
      <use xlink:href="#DejaVuSans-3d" transform="translate(96.683594 0)"/>
      <use xlink:href="#DejaVuSans-32" transform="translate(180.472656 0)"/>
      <use xlink:href="#DejaVuSans-30" transform="translate(244.095703 0)"/>
      <use xlink:href="#DejaVuSans-30" transform="translate(307.71875 0)"/>
      <use xlink:href="#DejaVuSans-20" transform="translate(371.341797 0)"/>
      <use xlink:href="#DejaVuSans-4b" transform="translate(403.128906 0)"/>
     </g>
    </g>
    <g id="line2d_30">
     <path d="M 65.468 126.645312 
L 75.468 126.645312 
L 85.468 126.645312 
" style="fill: none; stroke: #7f7f7f; stroke-width: 1.5; stroke-linecap: square"/>
    </g>
    <g id="text_24">
     <!-- Ts=220 K -->
     <g transform="translate(93.468 130.145312) scale(0.1 -0.1)">
      <use xlink:href="#DejaVuSans-54"/>
      <use xlink:href="#DejaVuSans-73" transform="translate(44.583984 0)"/>
      <use xlink:href="#DejaVuSans-3d" transform="translate(96.683594 0)"/>
      <use xlink:href="#DejaVuSans-32" transform="translate(180.472656 0)"/>
      <use xlink:href="#DejaVuSans-32" transform="translate(244.095703 0)"/>
      <use xlink:href="#DejaVuSans-30" transform="translate(307.71875 0)"/>
      <use xlink:href="#DejaVuSans-20" transform="translate(371.341797 0)"/>
      <use xlink:href="#DejaVuSans-4b" transform="translate(403.128906 0)"/>
     </g>
    </g>
    <g id="PathCollection_9">
     <g>
      <use xlink:href="#m5fd02f2dae" x="75.468" y="142.198437" style="fill-opacity: 0.7; stroke: #000000; stroke-opacity: 0.7"/>
     </g>
    </g>
    <g id="text_25">
     <!-- Artificial data -->
     <g transform="translate(93.468 144.823437) scale(0.1 -0.1)">
      <defs>
       <path id="DejaVuSans-41" d="M 2188 4044 
L 1331 1722 
L 3047 1722 
L 2188 4044 
z
M 1831 4666 
L 2547 4666 
L 4325 0 
L 3669 0 
L 3244 1197 
L 1141 1197 
L 716 0 
L 50 0 
L 1831 4666 
z
" transform="scale(0.015625)"/>
       <path id="DejaVuSans-74" d="M 1172 4494 
L 1172 3500 
L 2356 3500 
L 2356 3053 
L 1172 3053 
L 1172 1153 
Q 1172 725 1289 603 
Q 1406 481 1766 481 
L 2356 481 
L 2356 0 
L 1766 0 
Q 1100 0 847 248 
Q 594 497 594 1153 
L 594 3053 
L 172 3053 
L 172 3500 
L 594 3500 
L 594 4494 
L 1172 4494 
z
" transform="scale(0.015625)"/>
       <path id="DejaVuSans-69" d="M 603 3500 
L 1178 3500 
L 1178 0 
L 603 0 
L 603 3500 
z
M 603 4863 
L 1178 4863 
L 1178 4134 
L 603 4134 
L 603 4863 
z
" transform="scale(0.015625)"/>
       <path id="DejaVuSans-66" d="M 2375 4863 
L 2375 4384 
L 1825 4384 
Q 1516 4384 1395 4259 
Q 1275 4134 1275 3809 
L 1275 3500 
L 2222 3500 
L 2222 3053 
L 1275 3053 
L 1275 0 
L 697 0 
L 697 3053 
L 147 3053 
L 147 3500 
L 697 3500 
L 697 3744 
Q 697 4328 969 4595 
Q 1241 4863 1831 4863 
L 2375 4863 
z
" transform="scale(0.015625)"/>
       <path id="DejaVuSans-63" d="M 3122 3366 
L 3122 2828 
Q 2878 2963 2633 3030 
Q 2388 3097 2138 3097 
Q 1578 3097 1268 2742 
Q 959 2388 959 1747 
Q 959 1106 1268 751 
Q 1578 397 2138 397 
Q 2388 397 2633 464 
Q 2878 531 3122 666 
L 3122 134 
Q 2881 22 2623 -34 
Q 2366 -91 2075 -91 
Q 1284 -91 818 406 
Q 353 903 353 1747 
Q 353 2603 823 3093 
Q 1294 3584 2113 3584 
Q 2378 3584 2631 3529 
Q 2884 3475 3122 3366 
z
" transform="scale(0.015625)"/>
       <path id="DejaVuSans-61" d="M 2194 1759 
Q 1497 1759 1228 1600 
Q 959 1441 959 1056 
Q 959 750 1161 570 
Q 1363 391 1709 391 
Q 2188 391 2477 730 
Q 2766 1069 2766 1631 
L 2766 1759 
L 2194 1759 
z
M 3341 1997 
L 3341 0 
L 2766 0 
L 2766 531 
Q 2569 213 2275 61 
Q 1981 -91 1556 -91 
Q 1019 -91 701 211 
Q 384 513 384 1019 
Q 384 1609 779 1909 
Q 1175 2209 1959 2209 
L 2766 2209 
L 2766 2266 
Q 2766 2663 2505 2880 
Q 2244 3097 1772 3097 
Q 1472 3097 1187 3025 
Q 903 2953 641 2809 
L 641 3341 
Q 956 3463 1253 3523 
Q 1550 3584 1831 3584 
Q 2591 3584 2966 3190 
Q 3341 2797 3341 1997 
z
" transform="scale(0.015625)"/>
       <path id="DejaVuSans-6c" d="M 603 4863 
L 1178 4863 
L 1178 0 
L 603 0 
L 603 4863 
z
" transform="scale(0.015625)"/>
       <path id="DejaVuSans-64" d="M 2906 2969 
L 2906 4863 
L 3481 4863 
L 3481 0 
L 2906 0 
L 2906 525 
Q 2725 213 2448 61 
Q 2172 -91 1784 -91 
Q 1150 -91 751 415 
Q 353 922 353 1747 
Q 353 2572 751 3078 
Q 1150 3584 1784 3584 
Q 2172 3584 2448 3432 
Q 2725 3281 2906 2969 
z
M 947 1747 
Q 947 1113 1208 752 
Q 1469 391 1925 391 
Q 2381 391 2643 752 
Q 2906 1113 2906 1747 
Q 2906 2381 2643 2742 
Q 2381 3103 1925 3103 
Q 1469 3103 1208 2742 
Q 947 2381 947 1747 
z
" transform="scale(0.015625)"/>
      </defs>
      <use xlink:href="#DejaVuSans-41"/>
      <use xlink:href="#DejaVuSans-72" transform="translate(68.408203 0)"/>
      <use xlink:href="#DejaVuSans-74" transform="translate(109.521484 0)"/>
      <use xlink:href="#DejaVuSans-69" transform="translate(148.730469 0)"/>
      <use xlink:href="#DejaVuSans-66" transform="translate(176.513672 0)"/>
      <use xlink:href="#DejaVuSans-69" transform="translate(211.71875 0)"/>
      <use xlink:href="#DejaVuSans-63" transform="translate(239.501953 0)"/>
      <use xlink:href="#DejaVuSans-69" transform="translate(294.482422 0)"/>
      <use xlink:href="#DejaVuSans-61" transform="translate(322.265625 0)"/>
      <use xlink:href="#DejaVuSans-6c" transform="translate(383.544922 0)"/>
      <use xlink:href="#DejaVuSans-20" transform="translate(411.328125 0)"/>
      <use xlink:href="#DejaVuSans-64" transform="translate(443.115234 0)"/>
      <use xlink:href="#DejaVuSans-61" transform="translate(506.591797 0)"/>
      <use xlink:href="#DejaVuSans-74" transform="translate(567.871094 0)"/>
      <use xlink:href="#DejaVuSans-61" transform="translate(607.080078 0)"/>
     </g>
    </g>
   </g>
  </g>
 </g>
 <defs>
  <clipPath id="p446fe140fc">
   <rect x="56.468" y="10.8" width="393.532" height="291.4"/>
  </clipPath>
 </defs>
</svg>
