<?xml version="1.0" encoding="utf-8" standalone="no"?>
<!DOCTYPE svg PUBLIC "-//W3C//DTD SVG 1.1//EN"
  "http://www.w3.org/Graphics/SVG/1.1/DTD/svg11.dtd">
<svg xmlns:xlink="http://www.w3.org/1999/xlink" width="460.8pt" height="345.6pt" viewBox="0 0 460.8 345.6" xmlns="http://www.w3.org/2000/svg" version="1.1">
 <metadata>
  <rdf:RDF xmlns:dc="http://purl.org/dc/elements/1.1/" xmlns:cc="http://creativecommons.org/ns#" xmlns:rdf="http://www.w3.org/1999/02/22-rdf-syntax-ns#">
   <cc:Work>
    <dc:type rdf:resource="http://purl.org/dc/dcmitype/StillImage"/>
    <dc:date>2026-02-12T05:53:01.940917</dc:date>
    <dc:format>image/svg+xml</dc:format>
    <dc:creator>
     <cc:Agent>
      <dc:title>Matplotlib v3.10.8, https://matplotlib.org/</dc:title>
     </cc:Agent>
    </dc:creator>
   </cc:Work>
  </rdf:RDF>
 </metadata>
 <defs>
  <style type="text/css">*{stroke-linejoin: round; stroke-linecap: butt}</style>
 </defs>
 <g id="figure_1">
  <g id="patch_1">
   <path d="M 0 345.6 
L 460.8 345.6 
L 460.8 0 
L 0 0 
L 0 345.6 
z
" style="fill: none"/>
  </g>
  <g id="axes_1">
   <g id="patch_2">
    <path d="M 47.018 302.2 
L 450 302.2 
L 450 10.8 
L 47.018 10.8 
L 47.018 302.2 
z
" style="fill: none"/>
   </g>
   <g id="FillBetweenPolyCollection_1">
    <path d="M 65.335364 212.895325 
L 65.335364 215.975157 
L 72.811839 200.794712 
L 80.288314 187.87788 
L 87.764788 177.447497 
L 95.241263 168.519192 
L 102.717738 161.252028 
L 110.194213 155.020801 
L 117.670688 149.368503 
L 125.147163 144.170624 
L 132.623638 139.2351 
L 140.100113 134.750038 
L 147.576588 130.283772 
L 155.053063 126.038496 
L 162.529538 122.05456 
L 170.006013 118.15539 
L 177.482488 114.315555 
L 184.958963 110.814488 
L 192.435438 107.417263 
L 199.911913 104.008283 
L 207.388388 100.780807 
L 214.864863 97.588552 
L 222.341338 94.472919 
L 229.817813 91.330201 
L 237.294288 88.381415 
L 244.770763 85.634947 
L 252.247237 82.721356 
L 259.723712 79.970053 
L 267.200187 77.207014 
L 274.676662 74.566713 
L 282.153137 71.982162 
L 289.629612 69.468776 
L 297.106087 66.89924 
L 304.582562 64.450335 
L 312.059037 61.980659 
L 319.535512 59.562509 
L 327.011987 57.236915 
L 334.488462 54.901286 
L 341.964937 52.563098 
L 349.441412 50.28825 
L 356.917887 48.058006 
L 364.394362 45.892006 
L 371.870837 43.792074 
L 379.347312 41.739784 
L 386.823787 39.55569 
L 394.300262 37.303962 
L 401.776737 35.404126 
L 409.253212 33.647937 
L 416.729686 31.791721 
L 424.206161 29.640928 
L 431.682636 27.145805 
L 431.682636 24.045455 
L 431.682636 24.045455 
L 424.206161 25.009086 
L 416.729686 26.941985 
L 409.253212 29.364283 
L 401.776737 31.858194 
L 394.300262 34.188964 
L 386.823787 36.29415 
L 379.347312 38.359004 
L 371.870837 40.451485 
L 364.394362 42.72314 
L 356.917887 44.93191 
L 349.441412 47.117778 
L 341.964937 49.438397 
L 334.488462 51.637847 
L 327.011987 53.969433 
L 319.535512 56.489316 
L 312.059037 58.731431 
L 304.582562 61.32982 
L 297.106087 63.790601 
L 289.629612 66.341466 
L 282.153137 68.854719 
L 274.676662 71.405586 
L 267.200187 74.063112 
L 259.723712 76.860208 
L 252.247237 79.654027 
L 244.770763 82.443797 
L 237.294288 85.370971 
L 229.817813 88.277263 
L 222.341338 91.394878 
L 214.864863 94.447885 
L 207.388388 97.721643 
L 199.911913 100.940439 
L 192.435438 104.20092 
L 184.958963 107.693613 
L 177.482488 111.344625 
L 170.006013 115.119095 
L 162.529538 118.909748 
L 155.053063 123.043101 
L 147.576588 127.130918 
L 140.100113 131.522956 
L 132.623638 136.168501 
L 125.147163 140.874053 
L 117.670688 146.034588 
L 110.194213 151.55622 
L 102.717738 158.068557 
L 95.241263 165.254626 
L 87.764788 173.549338 
L 80.288314 183.801682 
L 72.811839 196.333956 
L 65.335364 212.895325 
z
" clip-path="url(#pedd4a5036a)" style="fill: #1f77b4; fill-opacity: 0.45"/>
   </g>
   <g id="FillBetweenPolyCollection_2">
    <path d="M 65.335364 251.179906 
L 65.335364 254.274506 
L 72.811839 246.688038 
L 80.288314 239.928104 
L 87.764788 234.401435 
L 95.241263 229.398842 
L 102.717738 225.638408 
L 110.194213 222.319582 
L 117.670688 219.278044 
L 125.147163 216.557506 
L 132.623638 213.922666 
L 140.100113 211.428194 
L 147.576588 209.198405 
L 155.053063 206.829485 
L 162.529538 204.666873 
L 170.006013 202.529138 
L 177.482488 200.59496 
L 184.958963 198.596213 
L 192.435438 196.740272 
L 199.911913 194.935321 
L 207.388388 193.161131 
L 214.864863 191.447451 
L 222.341338 189.726158 
L 229.817813 188.152514 
L 237.294288 186.482877 
L 244.770763 185.029102 
L 252.247237 183.465206 
L 259.723712 181.926915 
L 267.200187 180.452545 
L 274.676662 178.950628 
L 282.153137 177.537843 
L 289.629612 176.227403 
L 297.106087 174.877559 
L 304.582562 173.518503 
L 312.059037 172.164769 
L 319.535512 170.825501 
L 327.011987 169.546679 
L 334.488462 168.321427 
L 341.964937 167.107289 
L 349.441412 165.916817 
L 356.917887 164.527279 
L 364.394362 163.542855 
L 371.870837 162.333238 
L 379.347312 161.188033 
L 386.823787 160.035073 
L 394.300262 158.748869 
L 401.776737 157.92399 
L 409.253212 157.001404 
L 416.729686 156.186029 
L 424.206161 154.875168 
L 431.682636 153.207177 
L 431.682636 150.13743 
L 431.682636 150.13743 
L 424.206161 150.285766 
L 416.729686 151.43382 
L 409.253212 152.847807 
L 401.776737 154.30732 
L 394.300262 155.763242 
L 386.823787 156.699301 
L 379.347312 157.829258 
L 371.870837 159.106154 
L 364.394362 160.319014 
L 356.917887 161.470903 
L 349.441412 162.756679 
L 341.964937 163.902527 
L 334.488462 165.143206 
L 327.011987 166.52808 
L 319.535512 167.822947 
L 312.059037 169.05621 
L 304.582562 170.412552 
L 297.106087 171.715658 
L 289.629612 173.058392 
L 282.153137 174.499095 
L 274.676662 175.986431 
L 267.200187 177.370891 
L 259.723712 178.779545 
L 252.247237 180.262458 
L 244.770763 181.953749 
L 237.294288 183.382839 
L 229.817813 184.950599 
L 222.341338 186.623873 
L 214.864863 188.387141 
L 207.388388 189.969962 
L 199.911913 191.732958 
L 192.435438 193.640742 
L 184.958963 195.403452 
L 177.482488 197.475769 
L 170.006013 199.399658 
L 162.529538 201.497123 
L 155.053063 203.732327 
L 147.576588 205.979033 
L 140.100113 208.373806 
L 132.623638 210.739748 
L 125.147163 213.326852 
L 117.670688 216.070994 
L 110.194213 218.96859 
L 102.717738 222.47799 
L 95.241263 226.281911 
L 87.764788 230.552534 
L 80.288314 235.798823 
L 72.811839 242.515833 
L 65.335364 251.179906 
z
" clip-path="url(#pedd4a5036a)" style="fill: #ff7f0e; fill-opacity: 0.45"/>
   </g>
   <g id="FillBetweenPolyCollection_3">
    <path d="M 65.335364 273.583852 
L 65.335364 276.683463 
L 72.811839 274.150433 
L 80.288314 271.657073 
L 87.764788 269.336872 
L 95.241263 267.366849 
L 102.717738 265.930145 
L 110.194213 264.673906 
L 117.670688 263.63052 
L 125.147163 262.400577 
L 132.623638 261.40595 
L 140.100113 260.491598 
L 147.576588 259.618389 
L 155.053063 258.701956 
L 162.529538 257.97549 
L 170.006013 257.107867 
L 177.482488 256.280816 
L 184.958963 255.558237 
L 192.435438 254.842431 
L 199.911913 254.178596 
L 207.388388 253.505191 
L 214.864863 252.797508 
L 222.341338 252.135968 
L 229.817813 251.505137 
L 237.294288 250.998065 
L 244.770763 250.404506 
L 252.247237 249.835136 
L 259.723712 249.19285 
L 267.200187 248.665588 
L 274.676662 248.098012 
L 282.153137 247.500016 
L 289.629612 246.958014 
L 297.106087 246.565128 
L 304.582562 245.94398 
L 312.059037 245.415145 
L 319.535512 244.943867 
L 327.011987 244.43396 
L 334.488462 243.905403 
L 341.964937 243.435532 
L 349.441412 243.026989 
L 356.917887 242.551865 
L 364.394362 242.176158 
L 371.870837 241.646474 
L 379.347312 241.236322 
L 386.823787 240.848192 
L 394.300262 240.360375 
L 401.776737 240.089766 
L 409.253212 239.977136 
L 416.729686 239.878364 
L 424.206161 239.398331 
L 431.682636 238.168987 
L 431.682636 235.035679 
L 431.682636 235.035679 
L 424.206161 234.686928 
L 416.729686 235.137482 
L 409.253212 235.642004 
L 401.776737 236.562875 
L 394.300262 237.223039 
L 386.823787 237.592889 
L 379.347312 237.949047 
L 371.870837 238.433991 
L 364.394362 239.001367 
L 356.917887 239.402049 
L 349.441412 239.868273 
L 341.964937 240.299208 
L 334.488462 240.775614 
L 327.011987 241.432877 
L 319.535512 241.856472 
L 312.059037 242.476504 
L 304.582562 242.844494 
L 297.106087 243.351595 
L 289.629612 244.000976 
L 282.153137 244.42403 
L 274.676662 245.015734 
L 267.200187 245.449783 
L 259.723712 246.085806 
L 252.247237 246.60877 
L 244.770763 247.266309 
L 237.294288 247.910167 
L 229.817813 248.509026 
L 222.341338 249.067534 
L 214.864863 249.645339 
L 207.388388 250.372861 
L 199.911913 251.109078 
L 192.435438 251.756651 
L 184.958963 252.527169 
L 177.482488 253.246392 
L 170.006013 253.995593 
L 162.529538 254.834022 
L 155.053063 255.588568 
L 147.576588 256.425752 
L 140.100113 257.388499 
L 132.623638 258.23659 
L 125.147163 259.270334 
L 117.670688 260.282679 
L 110.194213 261.434579 
L 102.717738 262.74932 
L 95.241263 264.168646 
L 87.764788 265.695695 
L 80.288314 267.364695 
L 72.811839 269.982459 
L 65.335364 273.583852 
z
" clip-path="url(#pedd4a5036a)" style="fill: #2ca02c; fill-opacity: 0.45"/>
   </g>
   <g id="FillBetweenPolyCollection_4">
    <path d="M 65.335364 278.980333 
L 65.335364 288.954545 
L 72.811839 288.014987 
L 80.288314 287.474681 
L 87.764788 287.331943 
L 95.241263 286.418011 
L 102.717738 286.015901 
L 110.194213 285.994477 
L 117.670688 285.651134 
L 125.147163 285.232575 
L 132.623638 285.097348 
L 140.100113 285.07028 
L 147.576588 284.532976 
L 155.053063 284.432926 
L 162.529538 284.17194 
L 170.006013 284.194483 
L 177.482488 283.995194 
L 184.958963 283.743256 
L 192.435438 283.670837 
L 199.911913 283.212583 
L 207.388388 283.012682 
L 214.864863 282.915931 
L 222.341338 282.901318 
L 229.817813 282.853188 
L 237.294288 282.651695 
L 244.770763 282.49469 
L 252.247237 281.967345 
L 259.723712 282.242162 
L 267.200187 282.221945 
L 274.676662 281.891803 
L 282.153137 281.854402 
L 289.629612 281.742687 
L 297.106087 281.541013 
L 304.582562 281.37005 
L 312.059037 281.388284 
L 319.535512 281.162347 
L 327.011987 281.25327 
L 334.488462 280.841525 
L 341.964937 280.713916 
L 349.441412 280.707753 
L 356.917887 280.872845 
L 364.394362 280.541163 
L 371.870837 280.232455 
L 379.347312 280.362549 
L 386.823787 280.280548 
L 394.300262 280.030656 
L 401.776737 279.876449 
L 409.253212 279.886389 
L 416.729686 279.643935 
L 424.206161 279.814229 
L 431.682636 279.824153 
L 431.682636 269.784248 
L 431.682636 269.784248 
L 424.206161 269.668541 
L 416.729686 269.984052 
L 409.253212 270.132508 
L 401.776737 270.302781 
L 394.300262 270.404237 
L 386.823787 270.623064 
L 379.347312 270.942748 
L 371.870837 271.220772 
L 364.394362 271.344665 
L 356.917887 271.378698 
L 349.441412 271.807742 
L 341.964937 271.676456 
L 334.488462 271.93815 
L 327.011987 271.972844 
L 319.535512 271.88003 
L 312.059037 272.030346 
L 304.582562 272.544116 
L 297.106087 272.26861 
L 289.629612 272.617995 
L 282.153137 272.666925 
L 274.676662 272.715121 
L 267.200187 272.970719 
L 259.723712 273.274439 
L 252.247237 273.201046 
L 244.770763 273.130909 
L 237.294288 273.344327 
L 229.817813 273.731563 
L 222.341338 273.656153 
L 214.864863 273.856474 
L 207.388388 273.840889 
L 199.911913 274.268645 
L 192.435438 274.28949 
L 184.958963 274.665044 
L 177.482488 274.707326 
L 170.006013 274.506052 
L 162.529538 275.171562 
L 155.053063 275.073048 
L 147.576588 275.437071 
L 140.100113 275.545338 
L 132.623638 275.779851 
L 125.147163 276.218133 
L 117.670688 276.153521 
L 110.194213 276.46766 
L 102.717738 276.807527 
L 95.241263 277.192193 
L 87.764788 277.616357 
L 80.288314 277.648079 
L 72.811839 277.987791 
L 65.335364 278.980333 
z
" clip-path="url(#pedd4a5036a)" style="fill: #d62728; fill-opacity: 0.45"/>
   </g>
   <g id="matplotlib.axis_1">
    <g id="xtick_1">
     <g id="line2d_1">
      <defs>
       <path id="m306c5c68fd" d="M 0 0 
L 0 3.5 
" style="stroke: #000000; stroke-width: 0.8"/>
      </defs>
      <g>
       <use xlink:href="#m306c5c68fd" x="61.634886" y="302.2" style="stroke: #000000; stroke-width: 0.8"/>
      </g>
     </g>
     <g id="text_1">
      <!-- 0 -->
      <g transform="translate(58.453636 316.798437) scale(0.1 -0.1)">
       <defs>
        <path id="DejaVuSans-30" d="M 2034 4250 
Q 1547 4250 1301 3770 
Q 1056 3291 1056 2328 
Q 1056 1369 1301 889 
Q 1547 409 2034 409 
Q 2525 409 2770 889 
Q 3016 1369 3016 2328 
Q 3016 3291 2770 3770 
Q 2525 4250 2034 4250 
z
M 2034 4750 
Q 2819 4750 3233 4129 
Q 3647 3509 3647 2328 
Q 3647 1150 3233 529 
Q 2819 -91 2034 -91 
Q 1250 -91 836 529 
Q 422 1150 422 2328 
Q 422 3509 836 4129 
Q 1250 4750 2034 4750 
z
" transform="scale(0.015625)"/>
       </defs>
       <use xlink:href="#DejaVuSans-30"/>
      </g>
     </g>
    </g>
    <g id="xtick_2">
     <g id="line2d_2">
      <g>
       <use xlink:href="#m306c5c68fd" x="135.644436" y="302.2" style="stroke: #000000; stroke-width: 0.8"/>
      </g>
     </g>
     <g id="text_2">
      <!-- 1 -->
      <g transform="translate(132.463186 316.798437) scale(0.1 -0.1)">
       <defs>
        <path id="DejaVuSans-31" d="M 794 531 
L 1825 531 
L 1825 4091 
L 703 3866 
L 703 4441 
L 1819 4666 
L 2450 4666 
L 2450 531 
L 3481 531 
L 3481 0 
L 794 0 
L 794 531 
z
" transform="scale(0.015625)"/>
       </defs>
       <use xlink:href="#DejaVuSans-31"/>
      </g>
     </g>
    </g>
    <g id="xtick_3">
     <g id="line2d_3">
      <g>
       <use xlink:href="#m306c5c68fd" x="209.653986" y="302.2" style="stroke: #000000; stroke-width: 0.8"/>
      </g>
     </g>
     <g id="text_3">
      <!-- 2 -->
      <g transform="translate(206.472736 316.798437) scale(0.1 -0.1)">
       <defs>
        <path id="DejaVuSans-32" d="M 1228 531 
L 3431 531 
L 3431 0 
L 469 0 
L 469 531 
Q 828 903 1448 1529 
Q 2069 2156 2228 2338 
Q 2531 2678 2651 2914 
Q 2772 3150 2772 3378 
Q 2772 3750 2511 3984 
Q 2250 4219 1831 4219 
Q 1534 4219 1204 4116 
Q 875 4013 500 3803 
L 500 4441 
Q 881 4594 1212 4672 
Q 1544 4750 1819 4750 
Q 2544 4750 2975 4387 
Q 3406 4025 3406 3419 
Q 3406 3131 3298 2873 
Q 3191 2616 2906 2266 
Q 2828 2175 2409 1742 
Q 1991 1309 1228 531 
z
" transform="scale(0.015625)"/>
       </defs>
       <use xlink:href="#DejaVuSans-32"/>
      </g>
     </g>
    </g>
    <g id="xtick_4">
     <g id="line2d_4">
      <g>
       <use xlink:href="#m306c5c68fd" x="283.663536" y="302.2" style="stroke: #000000; stroke-width: 0.8"/>
      </g>
     </g>
     <g id="text_4">
      <!-- 3 -->
      <g transform="translate(280.482286 316.798437) scale(0.1 -0.1)">
       <defs>
        <path id="DejaVuSans-33" d="M 2597 2516 
Q 3050 2419 3304 2112 
Q 3559 1806 3559 1356 
Q 3559 666 3084 287 
Q 2609 -91 1734 -91 
Q 1441 -91 1130 -33 
Q 819 25 488 141 
L 488 750 
Q 750 597 1062 519 
Q 1375 441 1716 441 
Q 2309 441 2620 675 
Q 2931 909 2931 1356 
Q 2931 1769 2642 2001 
Q 2353 2234 1838 2234 
L 1294 2234 
L 1294 2753 
L 1863 2753 
Q 2328 2753 2575 2939 
Q 2822 3125 2822 3475 
Q 2822 3834 2567 4026 
Q 2313 4219 1838 4219 
Q 1578 4219 1281 4162 
Q 984 4106 628 3988 
L 628 4550 
Q 988 4650 1302 4700 
Q 1616 4750 1894 4750 
Q 2613 4750 3031 4423 
Q 3450 4097 3450 3541 
Q 3450 3153 3228 2886 
Q 3006 2619 2597 2516 
z
" transform="scale(0.015625)"/>
       </defs>
       <use xlink:href="#DejaVuSans-33"/>
      </g>
     </g>
    </g>
    <g id="xtick_5">
     <g id="line2d_5">
      <g>
       <use xlink:href="#m306c5c68fd" x="357.673086" y="302.2" style="stroke: #000000; stroke-width: 0.8"/>
      </g>
     </g>
     <g id="text_5">
      <!-- 4 -->
      <g transform="translate(354.491836 316.798437) scale(0.1 -0.1)">
       <defs>
        <path id="DejaVuSans-34" d="M 2419 4116 
L 825 1625 
L 2419 1625 
L 2419 4116 
z
M 2253 4666 
L 3047 4666 
L 3047 1625 
L 3713 1625 
L 3713 1100 
L 3047 1100 
L 3047 0 
L 2419 0 
L 2419 1100 
L 313 1100 
L 313 1709 
L 2253 4666 
z
" transform="scale(0.015625)"/>
       </defs>
       <use xlink:href="#DejaVuSans-34"/>
      </g>
     </g>
    </g>
    <g id="xtick_6">
     <g id="line2d_6">
      <g>
       <use xlink:href="#m306c5c68fd" x="431.682636" y="302.2" style="stroke: #000000; stroke-width: 0.8"/>
      </g>
     </g>
     <g id="text_6">
      <!-- 5 -->
      <g transform="translate(428.501386 316.798437) scale(0.1 -0.1)">
       <defs>
        <path id="DejaVuSans-35" d="M 691 4666 
L 3169 4666 
L 3169 4134 
L 1269 4134 
L 1269 2991 
Q 1406 3038 1543 3061 
Q 1681 3084 1819 3084 
Q 2600 3084 3056 2656 
Q 3513 2228 3513 1497 
Q 3513 744 3044 326 
Q 2575 -91 1722 -91 
Q 1428 -91 1123 -41 
Q 819 9 494 109 
L 494 744 
Q 775 591 1075 516 
Q 1375 441 1709 441 
Q 2250 441 2565 725 
Q 2881 1009 2881 1497 
Q 2881 1984 2565 2268 
Q 2250 2553 1709 2553 
Q 1456 2553 1204 2497 
Q 953 2441 691 2322 
L 691 4666 
z
" transform="scale(0.015625)"/>
       </defs>
       <use xlink:href="#DejaVuSans-35"/>
      </g>
     </g>
    </g>
    <g id="text_7">
     <!-- $W$ (m/hour) -->
     <g transform="translate(220.059 330.476562) scale(0.1 -0.1)">
      <defs>
       <path id="DejaVuSans-Oblique-57" d="M 616 4666 
L 1228 4666 
L 1453 697 
L 3213 4666 
L 3916 4666 
L 4147 697 
L 5888 4666 
L 6528 4666 
L 4453 0 
L 3659 0 
L 3444 3891 
L 1697 0 
L 903 0 
L 616 4666 
z
" transform="scale(0.015625)"/>
       <path id="DejaVuSans-20" transform="scale(0.015625)"/>
       <path id="DejaVuSans-28" d="M 1984 4856 
Q 1566 4138 1362 3434 
Q 1159 2731 1159 2009 
Q 1159 1288 1364 580 
Q 1569 -128 1984 -844 
L 1484 -844 
Q 1016 -109 783 600 
Q 550 1309 550 2009 
Q 550 2706 781 3412 
Q 1013 4119 1484 4856 
L 1984 4856 
z
" transform="scale(0.015625)"/>
       <path id="DejaVuSans-6d" d="M 3328 2828 
Q 3544 3216 3844 3400 
Q 4144 3584 4550 3584 
Q 5097 3584 5394 3201 
Q 5691 2819 5691 2113 
L 5691 0 
L 5113 0 
L 5113 2094 
Q 5113 2597 4934 2840 
Q 4756 3084 4391 3084 
Q 3944 3084 3684 2787 
Q 3425 2491 3425 1978 
L 3425 0 
L 2847 0 
L 2847 2094 
Q 2847 2600 2669 2842 
Q 2491 3084 2119 3084 
Q 1678 3084 1418 2786 
Q 1159 2488 1159 1978 
L 1159 0 
L 581 0 
L 581 3500 
L 1159 3500 
L 1159 2956 
Q 1356 3278 1631 3431 
Q 1906 3584 2284 3584 
Q 2666 3584 2933 3390 
Q 3200 3197 3328 2828 
z
" transform="scale(0.015625)"/>
       <path id="DejaVuSans-2f" d="M 1625 4666 
L 2156 4666 
L 531 -594 
L 0 -594 
L 1625 4666 
z
" transform="scale(0.015625)"/>
       <path id="DejaVuSans-68" d="M 3513 2113 
L 3513 0 
L 2938 0 
L 2938 2094 
Q 2938 2591 2744 2837 
Q 2550 3084 2163 3084 
Q 1697 3084 1428 2787 
Q 1159 2491 1159 1978 
L 1159 0 
L 581 0 
L 581 4863 
L 1159 4863 
L 1159 2956 
Q 1366 3272 1645 3428 
Q 1925 3584 2291 3584 
Q 2894 3584 3203 3211 
Q 3513 2838 3513 2113 
z
" transform="scale(0.015625)"/>
       <path id="DejaVuSans-6f" d="M 1959 3097 
Q 1497 3097 1228 2736 
Q 959 2375 959 1747 
Q 959 1119 1226 758 
Q 1494 397 1959 397 
Q 2419 397 2687 759 
Q 2956 1122 2956 1747 
Q 2956 2369 2687 2733 
Q 2419 3097 1959 3097 
z
M 1959 3584 
Q 2709 3584 3137 3096 
Q 3566 2609 3566 1747 
Q 3566 888 3137 398 
Q 2709 -91 1959 -91 
Q 1206 -91 779 398 
Q 353 888 353 1747 
Q 353 2609 779 3096 
Q 1206 3584 1959 3584 
z
" transform="scale(0.015625)"/>
       <path id="DejaVuSans-75" d="M 544 1381 
L 544 3500 
L 1119 3500 
L 1119 1403 
Q 1119 906 1312 657 
Q 1506 409 1894 409 
Q 2359 409 2629 706 
Q 2900 1003 2900 1516 
L 2900 3500 
L 3475 3500 
L 3475 0 
L 2900 0 
L 2900 538 
Q 2691 219 2414 64 
Q 2138 -91 1772 -91 
Q 1169 -91 856 284 
Q 544 659 544 1381 
z
M 1991 3584 
L 1991 3584 
z
" transform="scale(0.015625)"/>
       <path id="DejaVuSans-72" d="M 2631 2963 
Q 2534 3019 2420 3045 
Q 2306 3072 2169 3072 
Q 1681 3072 1420 2755 
Q 1159 2438 1159 1844 
L 1159 0 
L 581 0 
L 581 3500 
L 1159 3500 
L 1159 2956 
Q 1341 3275 1631 3429 
Q 1922 3584 2338 3584 
Q 2397 3584 2469 3576 
Q 2541 3569 2628 3553 
L 2631 2963 
z
" transform="scale(0.015625)"/>
       <path id="DejaVuSans-29" d="M 513 4856 
L 1013 4856 
Q 1481 4119 1714 3412 
Q 1947 2706 1947 2009 
Q 1947 1309 1714 600 
Q 1481 -109 1013 -844 
L 513 -844 
Q 928 -128 1133 580 
Q 1338 1288 1338 2009 
Q 1338 2731 1133 3434 
Q 928 4138 513 4856 
z
" transform="scale(0.015625)"/>
      </defs>
      <use xlink:href="#DejaVuSans-Oblique-57" transform="translate(0 0.015625)"/>
      <use xlink:href="#DejaVuSans-20" transform="translate(98.876953 0.015625)"/>
      <use xlink:href="#DejaVuSans-28" transform="translate(130.664062 0.015625)"/>
      <use xlink:href="#DejaVuSans-6d" transform="translate(169.677734 0.015625)"/>
      <use xlink:href="#DejaVuSans-2f" transform="translate(267.089844 0.015625)"/>
      <use xlink:href="#DejaVuSans-68" transform="translate(300.78125 0.015625)"/>
      <use xlink:href="#DejaVuSans-6f" transform="translate(364.160156 0.015625)"/>
      <use xlink:href="#DejaVuSans-75" transform="translate(425.341797 0.015625)"/>
      <use xlink:href="#DejaVuSans-72" transform="translate(488.720703 0.015625)"/>
      <use xlink:href="#DejaVuSans-29" transform="translate(529.833984 0.015625)"/>
     </g>
    </g>
   </g>
   <g id="matplotlib.axis_2">
    <g id="ytick_1">
     <g id="line2d_7">
      <defs>
       <path id="m297755b1aa" d="M 0 0 
L -3.5 0 
" style="stroke: #000000; stroke-width: 0.8"/>
      </defs>
      <g>
       <use xlink:href="#m297755b1aa" x="47.018" y="286.491946" style="stroke: #000000; stroke-width: 0.8"/>
      </g>
     </g>
     <g id="text_8">
      <!-- 0 -->
      <g transform="translate(33.6555 290.291165) scale(0.1 -0.1)">
       <use xlink:href="#DejaVuSans-30"/>
      </g>
     </g>
    </g>
    <g id="ytick_2">
     <g id="line2d_8">
      <g>
       <use xlink:href="#m297755b1aa" x="47.018" y="250.090729" style="stroke: #000000; stroke-width: 0.8"/>
      </g>
     </g>
     <g id="text_9">
      <!-- 5 -->
      <g transform="translate(33.6555 253.889948) scale(0.1 -0.1)">
       <use xlink:href="#DejaVuSans-35"/>
      </g>
     </g>
    </g>
    <g id="ytick_3">
     <g id="line2d_9">
      <g>
       <use xlink:href="#m297755b1aa" x="47.018" y="213.689513" style="stroke: #000000; stroke-width: 0.8"/>
      </g>
     </g>
     <g id="text_10">
      <!-- 10 -->
      <g transform="translate(27.293 217.488731) scale(0.1 -0.1)">
       <use xlink:href="#DejaVuSans-31"/>
       <use xlink:href="#DejaVuSans-30" transform="translate(63.623047 0)"/>
      </g>
     </g>
    </g>
    <g id="ytick_4">
     <g id="line2d_10">
      <g>
       <use xlink:href="#m297755b1aa" x="47.018" y="177.288296" style="stroke: #000000; stroke-width: 0.8"/>
      </g>
     </g>
     <g id="text_11">
      <!-- 15 -->
      <g transform="translate(27.293 181.087515) scale(0.1 -0.1)">
       <use xlink:href="#DejaVuSans-31"/>
       <use xlink:href="#DejaVuSans-35" transform="translate(63.623047 0)"/>
      </g>
     </g>
    </g>
    <g id="ytick_5">
     <g id="line2d_11">
      <g>
       <use xlink:href="#m297755b1aa" x="47.018" y="140.887079" style="stroke: #000000; stroke-width: 0.8"/>
      </g>
     </g>
     <g id="text_12">
      <!-- 20 -->
      <g transform="translate(27.293 144.686298) scale(0.1 -0.1)">
       <use xlink:href="#DejaVuSans-32"/>
       <use xlink:href="#DejaVuSans-30" transform="translate(63.623047 0)"/>
      </g>
     </g>
    </g>
    <g id="ytick_6">
     <g id="line2d_12">
      <g>
       <use xlink:href="#m297755b1aa" x="47.018" y="104.485862" style="stroke: #000000; stroke-width: 0.8"/>
      </g>
     </g>
     <g id="text_13">
      <!-- 25 -->
      <g transform="translate(27.293 108.285081) scale(0.1 -0.1)">
       <use xlink:href="#DejaVuSans-32"/>
       <use xlink:href="#DejaVuSans-35" transform="translate(63.623047 0)"/>
      </g>
     </g>
    </g>
    <g id="ytick_7">
     <g id="line2d_13">
      <g>
       <use xlink:href="#m297755b1aa" x="47.018" y="68.084645" style="stroke: #000000; stroke-width: 0.8"/>
      </g>
     </g>
     <g id="text_14">
      <!-- 30 -->
      <g transform="translate(27.293 71.883864) scale(0.1 -0.1)">
       <use xlink:href="#DejaVuSans-33"/>
       <use xlink:href="#DejaVuSans-30" transform="translate(63.623047 0)"/>
      </g>
     </g>
    </g>
    <g id="ytick_8">
     <g id="line2d_14">
      <g>
       <use xlink:href="#m297755b1aa" x="47.018" y="31.683428" style="stroke: #000000; stroke-width: 0.8"/>
      </g>
     </g>
     <g id="text_15">
      <!-- 35 -->
      <g transform="translate(27.293 35.482647) scale(0.1 -0.1)">
       <use xlink:href="#DejaVuSans-33"/>
       <use xlink:href="#DejaVuSans-35" transform="translate(63.623047 0)"/>
      </g>
     </g>
    </g>
    <g id="text_16">
     <!-- $Q_{lc}$ (kW) -->
     <g transform="translate(21.213312 176.8) rotate(-90) scale(0.1 -0.1)">
      <defs>
       <path id="DejaVuSans-Oblique-51" d="M 2309 -84 
Q 2275 -88 2237 -89 
Q 2200 -91 2125 -91 
Q 1250 -91 756 411 
Q 263 913 263 1797 
Q 263 2319 452 2844 
Q 641 3369 978 3788 
Q 1369 4269 1858 4509 
Q 2347 4750 2938 4750 
Q 3794 4750 4287 4245 
Q 4781 3741 4781 2869 
Q 4781 1928 4265 1147 
Q 3750 366 2919 44 
L 3553 -825 
L 2847 -825 
L 2309 -84 
z
M 2919 4238 
Q 2400 4238 2003 3986 
Q 1606 3734 1313 3219 
Q 1125 2891 1026 2522 
Q 928 2153 928 1778 
Q 928 1128 1239 775 
Q 1550 422 2119 422 
Q 2631 422 3032 676 
Q 3434 931 3719 1434 
Q 3909 1772 4009 2142 
Q 4109 2513 4109 2881 
Q 4109 3528 3796 3883 
Q 3484 4238 2919 4238 
z
" transform="scale(0.015625)"/>
       <path id="DejaVuSans-Oblique-6c" d="M 1172 4863 
L 1747 4863 
L 800 0 
L 225 0 
L 1172 4863 
z
" transform="scale(0.015625)"/>
       <path id="DejaVuSans-Oblique-63" d="M 3431 3366 
L 3316 2797 
Q 3109 2947 2876 3022 
Q 2644 3097 2394 3097 
Q 2119 3097 1870 3000 
Q 1622 2903 1453 2725 
Q 1184 2453 1037 2087 
Q 891 1722 891 1331 
Q 891 859 1127 628 
Q 1363 397 1844 397 
Q 2081 397 2348 469 
Q 2616 541 2906 684 
L 2797 116 
Q 2547 13 2283 -39 
Q 2019 -91 1741 -91 
Q 1044 -91 669 257 
Q 294 606 294 1253 
Q 294 1797 489 2255 
Q 684 2713 1069 3078 
Q 1331 3328 1684 3456 
Q 2038 3584 2456 3584 
Q 2700 3584 2940 3529 
Q 3181 3475 3431 3366 
z
" transform="scale(0.015625)"/>
       <path id="DejaVuSans-6b" d="M 581 4863 
L 1159 4863 
L 1159 1991 
L 2875 3500 
L 3609 3500 
L 1753 1863 
L 3688 0 
L 2938 0 
L 1159 1709 
L 1159 0 
L 581 0 
L 581 4863 
z
" transform="scale(0.015625)"/>
       <path id="DejaVuSans-57" d="M 213 4666 
L 850 4666 
L 1831 722 
L 2809 4666 
L 3519 4666 
L 4500 722 
L 5478 4666 
L 6119 4666 
L 4947 0 
L 4153 0 
L 3169 4050 
L 2175 0 
L 1381 0 
L 213 4666 
z
" transform="scale(0.015625)"/>
      </defs>
      <use xlink:href="#DejaVuSans-Oblique-51" transform="translate(0 0.015625)"/>
      <use xlink:href="#DejaVuSans-Oblique-6c" transform="translate(78.710938 -16.390625) scale(0.7)"/>
      <use xlink:href="#DejaVuSans-Oblique-63" transform="translate(98.15918 -16.390625) scale(0.7)"/>
      <use xlink:href="#DejaVuSans-20" transform="translate(139.379883 0.015625)"/>
      <use xlink:href="#DejaVuSans-28" transform="translate(171.166992 0.015625)"/>
      <use xlink:href="#DejaVuSans-6b" transform="translate(210.180664 0.015625)"/>
      <use xlink:href="#DejaVuSans-57" transform="translate(268.09082 0.015625)"/>
      <use xlink:href="#DejaVuSans-29" transform="translate(366.967773 0.015625)"/>
     </g>
    </g>
   </g>
   <g id="line2d_15">
    <path d="M 65.335364 214.472906 
L 72.811839 198.656598 
L 80.288314 185.822449 
L 87.764788 175.490516 
L 95.241263 166.858828 
L 102.717738 159.644466 
L 110.194213 153.341098 
L 117.670688 147.728444 
L 125.147163 142.526873 
L 132.623638 137.716827 
L 140.100113 133.153761 
L 147.576588 128.757694 
L 155.053063 124.542803 
L 162.529538 120.518293 
L 170.006013 116.592451 
L 177.482488 112.860963 
L 184.958963 109.298889 
L 192.435438 105.759378 
L 199.911913 102.471994 
L 207.388388 99.179793 
L 214.864863 96.012144 
L 222.341338 92.924076 
L 229.817813 89.866498 
L 237.294288 86.903073 
L 244.770763 84.035177 
L 252.247237 81.207573 
L 259.723712 78.396071 
L 267.200187 75.627812 
L 274.676662 73.032679 
L 282.153137 70.43232 
L 289.629612 67.874948 
L 297.106087 65.336288 
L 304.582562 62.861028 
L 312.059037 60.407098 
L 319.535512 58.029771 
L 327.011987 55.6073 
L 334.488462 53.277018 
L 341.964937 50.98931 
L 349.441412 48.710244 
L 356.917887 46.511098 
L 364.394362 44.311396 
L 371.870837 42.157571 
L 379.347312 40.031276 
L 386.823787 37.873277 
L 394.300262 35.770936 
L 401.776737 33.598644 
L 409.253212 31.456654 
L 416.729686 29.318834 
L 424.206161 27.325401 
L 431.682636 25.639448 
" clip-path="url(#pedd4a5036a)" style="fill: none; stroke: #1f77b4; stroke-width: 1.5; stroke-linecap: square"/>
   </g>
   <g id="line2d_16">
    <path d="M 65.335364 252.834265 
L 72.811839 244.590724 
L 80.288314 237.915932 
L 87.764788 232.461432 
L 95.241263 227.920267 
L 102.717738 224.017163 
L 110.194213 220.691891 
L 117.670688 217.707417 
L 125.147163 214.913661 
L 132.623638 212.277277 
L 140.100113 209.864872 
L 147.576588 207.529902 
L 155.053063 205.247293 
L 162.529538 203.094237 
L 170.006013 201.033101 
L 177.482488 198.983667 
L 184.958963 197.033903 
L 192.435438 195.151029 
L 199.911913 193.401087 
L 207.388388 191.555634 
L 214.864863 189.907529 
L 222.341338 188.150603 
L 229.817813 186.562765 
L 237.294288 184.897081 
L 244.770763 183.396965 
L 252.247237 181.877965 
L 259.723712 180.403259 
L 267.200187 178.869221 
L 274.676662 177.469857 
L 282.153137 176.052269 
L 289.629612 174.651538 
L 297.106087 173.275656 
L 304.582562 171.969684 
L 312.059037 170.589316 
L 319.535512 169.302768 
L 327.011987 168.012336 
L 334.488462 166.695856 
L 341.964937 165.504298 
L 349.441412 164.300463 
L 356.917887 163.056151 
L 364.394362 161.845735 
L 371.870837 160.723504 
L 379.347312 159.517218 
L 386.823787 158.370854 
L 394.300262 157.269604 
L 401.776737 156.074163 
L 409.253212 154.968838 
L 416.729686 153.771234 
L 424.206161 152.710829 
L 431.682636 151.703857 
" clip-path="url(#pedd4a5036a)" style="fill: none; stroke: #ff7f0e; stroke-width: 1.5; stroke-linecap: square"/>
   </g>
   <g id="line2d_17">
    <path d="M 65.335364 275.070995 
L 72.811839 272.014895 
L 80.288314 269.479894 
L 87.764788 267.444811 
L 95.241263 265.776687 
L 102.717738 264.303039 
L 110.194213 263.07581 
L 117.670688 261.930117 
L 125.147163 260.819723 
L 132.623638 259.8519 
L 140.100113 258.921003 
L 147.576588 258.005059 
L 155.053063 257.153115 
L 162.529538 256.349025 
L 170.006013 255.555268 
L 177.482488 254.777087 
L 184.958963 254.001763 
L 192.435438 253.309789 
L 199.911913 252.599615 
L 207.388388 251.96078 
L 214.864863 251.307662 
L 222.341338 250.640666 
L 229.817813 249.999709 
L 237.294288 249.423588 
L 244.770763 248.75708 
L 252.247237 248.194424 
L 259.723712 247.664428 
L 267.200187 247.081094 
L 274.676662 246.530136 
L 282.153137 245.953853 
L 289.629612 245.44429 
L 297.106087 244.897619 
L 304.582562 244.376583 
L 312.059037 243.885193 
L 319.535512 243.392911 
L 327.011987 242.906632 
L 334.488462 242.429313 
L 341.964937 241.936616 
L 349.441412 241.475178 
L 356.917887 241.014217 
L 364.394362 240.543967 
L 371.870837 240.070862 
L 379.347312 239.647703 
L 386.823787 239.169187 
L 394.300262 238.733084 
L 401.776737 238.285876 
L 409.253212 237.882111 
L 416.729686 237.398019 
L 424.206161 236.965136 
L 431.682636 236.634854 
" clip-path="url(#pedd4a5036a)" style="fill: none; stroke: #2ca02c; stroke-width: 1.5; stroke-linecap: square"/>
   </g>
   <g id="line2d_18">
    <path d="M 65.335364 284.004331 
L 72.811839 283.26879 
L 80.288314 282.765013 
L 87.764788 282.2472 
L 95.241263 281.920153 
L 102.717738 281.481549 
L 110.194213 281.2834 
L 117.670688 281.05473 
L 125.147163 280.653349 
L 132.623638 280.522764 
L 140.100113 280.30934 
L 147.576588 279.923771 
L 155.053063 279.739868 
L 162.529538 279.582459 
L 170.006013 279.528867 
L 177.482488 279.188727 
L 184.958963 279.120635 
L 192.435438 278.999623 
L 199.911913 278.731354 
L 207.388388 278.506284 
L 214.864863 278.460035 
L 222.341338 278.309603 
L 229.817813 278.203588 
L 237.294288 278.117048 
L 244.770763 277.970057 
L 252.247237 277.842275 
L 259.723712 277.707644 
L 267.200187 277.587482 
L 274.676662 277.432928 
L 282.153137 277.355601 
L 289.629612 277.215281 
L 297.106087 277.024739 
L 304.582562 276.868803 
L 312.059037 276.839331 
L 319.535512 276.550452 
L 327.011987 276.497147 
L 334.488462 276.299113 
L 341.964937 276.268203 
L 349.441412 276.101966 
L 356.917887 276.072573 
L 364.394362 276.024347 
L 371.870837 275.688757 
L 379.347312 275.629219 
L 386.823787 275.472847 
L 394.300262 275.195827 
L 401.776737 275.111505 
L 409.253212 275.076211 
L 416.729686 274.94054 
L 424.206161 274.709521 
L 431.682636 274.730578 
" clip-path="url(#pedd4a5036a)" style="fill: none; stroke: #d62728; stroke-width: 1.5; stroke-linecap: square"/>
   </g>
   <g id="patch_3">
    <path d="M 47.018 302.2 
L 47.018 10.8 
" style="fill: none; stroke: #000000; stroke-width: 0.8; stroke-linejoin: miter; stroke-linecap: square"/>
   </g>
   <g id="patch_4">
    <path d="M 450 302.2 
L 450 10.8 
" style="fill: none; stroke: #000000; stroke-width: 0.8; stroke-linejoin: miter; stroke-linecap: square"/>
   </g>
   <g id="patch_5">
    <path d="M 47.018 302.2 
L 450 302.2 
" style="fill: none; stroke: #000000; stroke-width: 0.8; stroke-linejoin: miter; stroke-linecap: square"/>
   </g>
   <g id="patch_6">
    <path d="M 47.018 10.8 
L 450 10.8 
" style="fill: none; stroke: #000000; stroke-width: 0.8; stroke-linejoin: miter; stroke-linecap: square"/>
   </g>
   <g id="legend_1">
    <g id="patch_7">
     <path d="M 54.018 77.5125 
L 132.888313 77.5125 
Q 134.888313 77.5125 134.888313 75.5125 
L 134.888313 17.8 
Q 134.888313 15.8 132.888313 15.8 
L 54.018 15.8 
Q 52.018 15.8 52.018 17.8 
L 52.018 75.5125 
Q 52.018 77.5125 54.018 77.5125 
z
" style="fill: #ffffff; opacity: 0.8; stroke: #cccccc; stroke-linejoin: miter"/>
    </g>
    <g id="line2d_19">
     <path d="M 56.018 23.898438 
L 66.018 23.898438 
L 76.018 23.898438 
" style="fill: none; stroke: #1f77b4; stroke-width: 1.5; stroke-linecap: square"/>
    </g>
    <g id="text_17">
     <!-- Ts=100 K -->
     <g transform="translate(84.018 27.398438) scale(0.1 -0.1)">
      <defs>
       <path id="DejaVuSans-54" d="M -19 4666 
L 3928 4666 
L 3928 4134 
L 2272 4134 
L 2272 0 
L 1638 0 
L 1638 4134 
L -19 4134 
L -19 4666 
z
" transform="scale(0.015625)"/>
       <path id="DejaVuSans-73" d="M 2834 3397 
L 2834 2853 
Q 2591 2978 2328 3040 
Q 2066 3103 1784 3103 
Q 1356 3103 1142 2972 
Q 928 2841 928 2578 
Q 928 2378 1081 2264 
Q 1234 2150 1697 2047 
L 1894 2003 
Q 2506 1872 2764 1633 
Q 3022 1394 3022 966 
Q 3022 478 2636 193 
Q 2250 -91 1575 -91 
Q 1294 -91 989 -36 
Q 684 19 347 128 
L 347 722 
Q 666 556 975 473 
Q 1284 391 1588 391 
Q 1994 391 2212 530 
Q 2431 669 2431 922 
Q 2431 1156 2273 1281 
Q 2116 1406 1581 1522 
L 1381 1569 
Q 847 1681 609 1914 
Q 372 2147 372 2553 
Q 372 3047 722 3315 
Q 1072 3584 1716 3584 
Q 2034 3584 2315 3537 
Q 2597 3491 2834 3397 
z
" transform="scale(0.015625)"/>
       <path id="DejaVuSans-3d" d="M 678 2906 
L 4684 2906 
L 4684 2381 
L 678 2381 
L 678 2906 
z
M 678 1631 
L 4684 1631 
L 4684 1100 
L 678 1100 
L 678 1631 
z
" transform="scale(0.015625)"/>
       <path id="DejaVuSans-4b" d="M 628 4666 
L 1259 4666 
L 1259 2694 
L 3353 4666 
L 4166 4666 
L 1850 2491 
L 4331 0 
L 3500 0 
L 1259 2247 
L 1259 0 
L 628 0 
L 628 4666 
z
" transform="scale(0.015625)"/>
      </defs>
      <use xlink:href="#DejaVuSans-54"/>
      <use xlink:href="#DejaVuSans-73" transform="translate(44.583984 0)"/>
      <use xlink:href="#DejaVuSans-3d" transform="translate(96.683594 0)"/>
      <use xlink:href="#DejaVuSans-31" transform="translate(180.472656 0)"/>
      <use xlink:href="#DejaVuSans-30" transform="translate(244.095703 0)"/>
      <use xlink:href="#DejaVuSans-30" transform="translate(307.71875 0)"/>
      <use xlink:href="#DejaVuSans-20" transform="translate(371.341797 0)"/>
      <use xlink:href="#DejaVuSans-4b" transform="translate(403.128906 0)"/>
     </g>
    </g>
    <g id="line2d_20">
     <path d="M 56.018 38.576563 
L 66.018 38.576563 
L 76.018 38.576563 
" style="fill: none; stroke: #ff7f0e; stroke-width: 1.5; stroke-linecap: square"/>
    </g>
    <g id="text_18">
     <!-- Ts=160 K -->
     <g transform="translate(84.018 42.076563) scale(0.1 -0.1)">
      <defs>
       <path id="DejaVuSans-36" d="M 2113 2584 
Q 1688 2584 1439 2293 
Q 1191 2003 1191 1497 
Q 1191 994 1439 701 
Q 1688 409 2113 409 
Q 2538 409 2786 701 
Q 3034 994 3034 1497 
Q 3034 2003 2786 2293 
Q 2538 2584 2113 2584 
z
M 3366 4563 
L 3366 3988 
Q 3128 4100 2886 4159 
Q 2644 4219 2406 4219 
Q 1781 4219 1451 3797 
Q 1122 3375 1075 2522 
Q 1259 2794 1537 2939 
Q 1816 3084 2150 3084 
Q 2853 3084 3261 2657 
Q 3669 2231 3669 1497 
Q 3669 778 3244 343 
Q 2819 -91 2113 -91 
Q 1303 -91 875 529 
Q 447 1150 447 2328 
Q 447 3434 972 4092 
Q 1497 4750 2381 4750 
Q 2619 4750 2861 4703 
Q 3103 4656 3366 4563 
z
" transform="scale(0.015625)"/>
      </defs>
      <use xlink:href="#DejaVuSans-54"/>
      <use xlink:href="#DejaVuSans-73" transform="translate(44.583984 0)"/>
      <use xlink:href="#DejaVuSans-3d" transform="translate(96.683594 0)"/>
      <use xlink:href="#DejaVuSans-31" transform="translate(180.472656 0)"/>
      <use xlink:href="#DejaVuSans-36" transform="translate(244.095703 0)"/>
      <use xlink:href="#DejaVuSans-30" transform="translate(307.71875 0)"/>
      <use xlink:href="#DejaVuSans-20" transform="translate(371.341797 0)"/>
      <use xlink:href="#DejaVuSans-4b" transform="translate(403.128906 0)"/>
     </g>
    </g>
    <g id="line2d_21">
     <path d="M 56.018 53.254687 
L 66.018 53.254687 
L 76.018 53.254687 
" style="fill: none; stroke: #2ca02c; stroke-width: 1.5; stroke-linecap: square"/>
    </g>
    <g id="text_19">
     <!-- Ts=220 K -->
     <g transform="translate(84.018 56.754687) scale(0.1 -0.1)">
      <use xlink:href="#DejaVuSans-54"/>
      <use xlink:href="#DejaVuSans-73" transform="translate(44.583984 0)"/>
      <use xlink:href="#DejaVuSans-3d" transform="translate(96.683594 0)"/>
      <use xlink:href="#DejaVuSans-32" transform="translate(180.472656 0)"/>
      <use xlink:href="#DejaVuSans-32" transform="translate(244.095703 0)"/>
      <use xlink:href="#DejaVuSans-30" transform="translate(307.71875 0)"/>
      <use xlink:href="#DejaVuSans-20" transform="translate(371.341797 0)"/>
      <use xlink:href="#DejaVuSans-4b" transform="translate(403.128906 0)"/>
     </g>
    </g>
    <g id="line2d_22">
     <path d="M 56.018 67.932813 
L 66.018 67.932813 
L 76.018 67.932813 
" style="fill: none; stroke: #d62728; stroke-width: 1.5; stroke-linecap: square"/>
    </g>
    <g id="text_20">
     <!-- Ts=260 K -->
     <g transform="translate(84.018 71.432813) scale(0.1 -0.1)">
      <use xlink:href="#DejaVuSans-54"/>
      <use xlink:href="#DejaVuSans-73" transform="translate(44.583984 0)"/>
      <use xlink:href="#DejaVuSans-3d" transform="translate(96.683594 0)"/>
      <use xlink:href="#DejaVuSans-32" transform="translate(180.472656 0)"/>
      <use xlink:href="#DejaVuSans-36" transform="translate(244.095703 0)"/>
      <use xlink:href="#DejaVuSans-30" transform="translate(307.71875 0)"/>
      <use xlink:href="#DejaVuSans-20" transform="translate(371.341797 0)"/>
      <use xlink:href="#DejaVuSans-4b" transform="translate(403.128906 0)"/>
     </g>
    </g>
   </g>
  </g>
 </g>
 <defs>
  <clipPath id="pedd4a5036a">
   <rect x="47.018" y="10.8" width="402.982" height="291.4"/>
  </clipPath>
 </defs>
</svg>
