<?xml version="1.0" encoding="utf-8" standalone="no"?>
<!DOCTYPE svg PUBLIC "-//W3C//DTD SVG 1.1//EN"
  "http://www.w3.org/Graphics/SVG/1.1/DTD/svg11.dtd">
<svg xmlns:xlink="http://www.w3.org/1999/xlink" width="460.8pt" height="345.6pt" viewBox="0 0 460.8 345.6" xmlns="http://www.w3.org/2000/svg" version="1.1">
 <metadata>
  <rdf:RDF xmlns:dc="http://purl.org/dc/elements/1.1/" xmlns:cc="http://creativecommons.org/ns#" xmlns:rdf="http://www.w3.org/1999/02/22-rdf-syntax-ns#">
   <cc:Work>
    <dc:type rdf:resource="http://purl.org/dc/dcmitype/StillImage"/>
    <dc:date>2026-02-12T04:28:59.921472</dc:date>
    <dc:format>image/svg+xml</dc:format>
    <dc:creator>
     <cc:Agent>
      <dc:title>Matplotlib v3.10.8, https://matplotlib.org/</dc:title>
     </cc:Agent>
    </dc:creator>
   </cc:Work>
  </rdf:RDF>
 </metadata>
 <defs>
  <style type="text/css">*{stroke-linejoin: round; stroke-linecap: butt}</style>
 </defs>
 <g id="figure_1">
  <g id="patch_1">
   <path d="M 0 345.6 
L 460.8 345.6 
L 460.8 0 
L 0 0 
L 0 345.6 
z
" style="fill: none"/>
  </g>
  <g id="axes_1">
   <g id="patch_2">
    <path d="M 47.018 302.2 
L 450 302.2 
L 450 10.8 
L 47.018 10.8 
L 47.018 302.2 
z
" style="fill: none"/>
   </g>
   <g id="FillBetweenPolyCollection_1">
    <path d="M 65.335364 217.599945 
L 65.335364 217.84376 
L 72.811839 201.683432 
L 80.288314 188.615324 
L 87.764788 177.972753 
L 95.241263 169.176455 
L 102.717738 161.745599 
L 110.194213 155.298138 
L 117.670688 149.542469 
L 125.147163 144.268072 
L 132.623638 139.332991 
L 140.100113 134.649075 
L 147.576588 130.167131 
L 155.053063 125.861593 
L 162.529538 121.720468 
L 170.006013 117.73717 
L 177.482488 113.9053 
L 184.958963 110.216026 
L 192.435438 106.657549 
L 199.911913 103.216004 
L 207.388388 99.877037 
L 214.864863 96.627504 
L 222.341338 93.456769 
L 229.817813 90.3574 
L 237.294288 87.325033 
L 244.770763 84.357523 
L 252.247237 81.454082 
L 259.723712 78.613992 
L 267.200187 75.835595 
L 274.676662 73.115731 
L 282.153137 70.449695 
L 289.629612 67.831747 
L 297.106087 65.255999 
L 304.582562 62.717473 
L 312.059037 60.21303 
L 319.535512 57.741926 
L 327.011987 55.305761 
L 334.488462 52.90777 
L 341.964937 50.551519 
L 349.441412 48.239216 
L 356.917887 45.970027 
L 364.394362 43.738821 
L 371.870837 41.535855 
L 379.347312 39.347811 
L 386.823787 37.160501 
L 394.300262 34.963367 
L 401.776737 32.755713 
L 409.253212 30.554608 
L 416.729686 28.401281 
L 424.206161 26.370966 
L 431.682636 24.57922 
L 431.682636 24.045455 
L 431.682636 24.045455 
L 424.206161 25.84009 
L 416.729686 27.873974 
L 409.253212 30.031213 
L 401.776737 32.236347 
L 394.300262 34.447402 
L 386.823787 36.647853 
L 379.347312 38.838467 
L 371.870837 41.029822 
L 364.394362 43.236131 
L 356.917887 45.470731 
L 349.441412 47.743382 
L 341.964937 50.059219 
L 334.488462 52.419076 
L 327.011987 54.820738 
L 319.535512 57.260635 
L 312.059037 59.735524 
L 304.582562 62.243805 
L 297.106087 64.786226 
L 289.629612 67.365934 
L 282.153137 69.987916 
L 274.676662 72.65807 
L 267.200187 75.382147 
L 259.723712 78.164857 
L 252.247237 81.009361 
L 244.770763 83.917319 
L 237.294288 86.889446 
L 229.817813 89.926527 
L 222.341338 93.030614 
L 214.864863 96.206128 
L 207.388388 99.460569 
L 199.911913 102.804602 
L 192.435438 106.251404 
L 184.958963 109.815357 
L 177.482488 113.509657 
L 170.006013 117.345777 
L 162.529538 121.333554 
L 155.053063 125.479361 
L 147.576588 129.789753 
L 140.100113 134.276705 
L 132.623638 138.965801 
L 125.147163 143.907272 
L 117.670688 149.18996 
L 110.194213 154.954982 
L 102.717738 161.411841 
L 95.241263 168.852269 
L 87.764788 177.660666 
L 80.288314 188.31937 
L 72.811839 201.410435 
L 65.335364 217.599945 
z
" clip-path="url(#p70f61d84bb)" style="fill: #1f77b4; fill-opacity: 0.45"/>
   </g>
   <g id="FillBetweenPolyCollection_2">
    <path d="M 65.335364 256.918621 
L 65.335364 257.074726 
L 72.811839 248.676724 
L 80.288314 241.845896 
L 87.764788 236.251293 
L 95.241263 231.603233 
L 102.717738 227.659236 
L 110.194213 224.224763 
L 117.670688 221.150984 
L 125.147163 218.329983 
L 132.623638 215.688221 
L 140.100113 213.179205 
L 147.576588 210.776126 
L 155.053063 208.465154 
L 162.529538 206.239828 
L 170.006013 204.096838 
L 177.482488 202.033217 
L 184.958963 200.044866 
L 192.435438 198.126133 
L 199.911913 196.270167 
L 207.388388 194.469638 
L 214.864863 192.71761 
L 222.341338 191.008235 
L 229.817813 189.337164 
L 237.294288 187.701596 
L 244.770763 186.100016 
L 252.247237 184.531709 
L 259.723712 182.9962 
L 267.200187 181.492735 
L 274.676662 180.019959 
L 282.153137 178.575828 
L 289.629612 177.157762 
L 297.106087 175.763019 
L 304.582562 174.389147 
L 312.059037 173.034424 
L 319.535512 171.698137 
L 327.011987 170.38062 
L 334.488462 169.082992 
L 341.964937 167.806611 
L 349.441412 166.552358 
L 356.917887 165.31988 
L 364.394362 164.107017 
L 371.870837 162.909607 
L 379.347312 161.721894 
L 386.823787 160.537656 
L 394.300262 159.352148 
L 401.776737 158.164781 
L 409.253212 156.982404 
L 416.729686 155.822915 
L 424.206161 154.71881 
L 431.682636 153.72029 
L 431.682636 153.167008 
L 431.682636 153.167008 
L 424.206161 154.169158 
L 416.729686 155.277239 
L 409.253212 156.440901 
L 401.776737 157.627543 
L 394.300262 158.819213 
L 386.823787 160.009033 
L 379.347312 161.197594 
L 371.870837 162.389652 
L 364.394362 163.591449 
L 356.917887 164.808762 
L 349.441412 166.04577 
L 341.964937 167.304648 
L 334.488462 168.585754 
L 327.011987 169.888213 
L 319.535512 171.210659 
L 312.059037 172.551978 
L 304.582562 173.911826 
L 297.106087 175.290911 
L 289.629612 176.690951 
L 282.153137 178.114395 
L 274.676662 179.563984 
L 267.200187 181.042297 
L 259.723712 182.551382 
L 252.247237 184.092597 
L 244.770763 185.666703 
L 237.294288 187.274192 
L 229.817813 188.915799 
L 222.341338 190.59306 
L 214.864863 192.308804 
L 207.388388 194.06741 
L 199.911913 195.874753 
L 192.435438 197.737797 
L 184.958963 199.663883 
L 177.482488 201.659879 
L 170.006013 203.731435 
L 162.529538 205.882648 
L 155.053063 208.116469 
L 147.576588 210.436214 
L 140.100113 212.848364 
L 132.623638 215.366821 
L 125.147163 218.01853 
L 117.670688 220.850212 
L 110.194213 223.935754 
L 102.717738 227.383663 
L 95.241263 231.343504 
L 87.764788 236.01051 
L 80.288314 241.628152 
L 72.811839 248.48682 
L 65.335364 256.918621 
z
" clip-path="url(#p70f61d84bb)" style="fill: #ff7f0e; fill-opacity: 0.45"/>
   </g>
   <g id="FillBetweenPolyCollection_3">
    <path d="M 65.335364 279.754566 
L 65.335364 279.859614 
L 72.811839 276.73371 
L 80.288314 274.185708 
L 87.764788 272.092882 
L 95.241263 270.348155 
L 102.717738 268.862029 
L 110.194213 267.562974 
L 117.670688 266.396519 
L 125.147163 265.323382 
L 132.623638 264.316953 
L 140.100113 263.360511 
L 147.576588 262.444441 
L 155.053063 261.563743 
L 162.529538 260.715968 
L 170.006013 259.899698 
L 177.482488 259.113566 
L 184.958963 258.355765 
L 192.435438 257.623954 
L 199.911913 256.915423 
L 207.388388 256.227388 
L 214.864863 255.557308 
L 222.341338 254.903123 
L 229.817813 254.263374 
L 237.294288 253.637174 
L 244.770763 253.024085 
L 252.247237 252.423901 
L 259.723712 251.836426 
L 267.200187 251.261292 
L 274.676662 250.697855 
L 282.153137 250.145193 
L 289.629612 249.602206 
L 297.106087 249.067781 
L 304.582562 248.540988 
L 312.059037 248.021246 
L 319.535512 247.508425 
L 327.011987 247.002816 
L 334.488462 246.505005 
L 341.964937 246.015611 
L 349.441412 245.534986 
L 356.917887 245.062902 
L 364.394362 244.598334 
L 371.870837 244.139424 
L 379.347312 243.683697 
L 386.823787 243.228568 
L 394.300262 242.772175 
L 401.776737 242.314502 
L 409.253212 241.858689 
L 416.729686 241.412429 
L 424.206161 240.989295 
L 431.682636 240.609806 
L 431.682636 240.246524 
L 431.682636 240.246524 
L 424.206161 240.62888 
L 416.729686 241.054796 
L 409.253212 241.503774 
L 401.776737 241.962274 
L 394.300262 242.422638 
L 386.823787 242.881763 
L 379.347312 243.339692 
L 371.870837 243.798296 
L 364.394362 244.260162 
L 356.917887 244.727763 
L 349.441412 245.202939 
L 341.964937 245.686698 
L 334.488462 246.179249 
L 327.011987 246.680233 
L 319.535512 247.189024 
L 312.059037 247.705041 
L 304.582562 248.227999 
L 297.106087 248.758048 
L 289.629612 249.295786 
L 282.153137 249.842162 
L 274.676662 250.398303 
L 267.200187 250.965321 
L 259.723712 251.544138 
L 252.247237 252.135396 
L 244.770763 252.739458 
L 237.294288 253.356506 
L 229.817813 253.98674 
L 222.341338 254.630599 
L 214.864863 255.288968 
L 207.388388 255.963319 
L 199.911913 256.655733 
L 192.435438 257.368777 
L 184.958963 258.105261 
L 177.482488 258.867925 
L 170.006013 259.659131 
L 162.529538 260.480697 
L 155.053063 261.334002 
L 147.576588 262.220468 
L 140.100113 263.142549 
L 132.623638 264.105275 
L 125.147163 265.118315 
L 117.670688 266.198514 
L 110.194213 267.372671 
L 102.717738 268.680365 
L 95.241263 270.17648 
L 87.764788 271.933102 
L 80.288314 274.040422 
L 72.811839 276.606348 
L 65.335364 279.754566 
z
" clip-path="url(#p70f61d84bb)" style="fill: #2ca02c; fill-opacity: 0.45"/>
   </g>
   <g id="FillBetweenPolyCollection_4">
    <path d="M 65.335364 288.911408 
L 65.335364 288.954545 
L 72.811839 288.214125 
L 80.288314 287.620776 
L 87.764788 287.140022 
L 95.241263 286.742591 
L 102.717738 286.404781 
L 110.194213 286.10835 
L 117.670688 285.840037 
L 125.147163 285.590826 
L 132.623638 285.355079 
L 140.100113 285.129647 
L 147.576588 284.913044 
L 155.053063 284.704758 
L 162.529538 284.504721 
L 170.006013 284.312951 
L 177.482488 284.129357 
L 184.958963 283.95366 
L 192.435438 283.785406 
L 199.911913 283.624017 
L 207.388388 283.468854 
L 214.864863 283.319258 
L 222.341338 283.174575 
L 229.817813 283.034139 
L 237.294288 282.897259 
L 244.770763 282.763187 
L 252.247237 282.631116 
L 259.723712 282.500206 
L 267.200187 282.369637 
L 274.676662 282.238704 
L 282.153137 282.106913 
L 289.629612 281.974075 
L 297.106087 281.84036 
L 304.582562 281.706305 
L 312.059037 281.572728 
L 319.535512 281.440589 
L 327.011987 281.310768 
L 334.488462 281.183823 
L 341.964937 281.05974 
L 349.441412 280.93776 
L 356.917887 280.81631 
L 364.394362 280.693111 
L 371.870837 280.565474 
L 379.347312 280.430829 
L 386.823787 280.287446 
L 394.300262 280.135311 
L 401.776737 279.977104 
L 409.253212 279.819137 
L 416.729686 279.672186 
L 424.206161 279.552056 
L 431.682636 279.47979 
L 431.682636 279.351727 
L 431.682636 279.351727 
L 424.206161 279.424941 
L 416.729686 279.545844 
L 409.253212 279.693431 
L 401.776737 279.851967 
L 394.300262 280.010771 
L 386.823787 280.16362 
L 379.347312 280.307921 
L 371.870837 280.443745 
L 364.394362 280.572856 
L 356.917887 280.697824 
L 349.441412 280.821308 
L 341.964937 280.94553 
L 334.488462 281.071991 
L 327.011987 281.201365 
L 319.535512 281.333579 
L 312.059037 281.468002 
L 304.582562 281.603689 
L 297.106087 281.739639 
L 289.629612 281.875009 
L 282.153137 282.009267 
L 274.676662 282.142257 
L 267.200187 282.274203 
L 259.723712 282.405641 
L 252.247237 282.537324 
L 244.770763 282.670116 
L 237.294288 282.804901 
L 229.817813 282.942519 
L 222.341338 283.08375 
L 214.864863 283.229305 
L 207.388388 283.379864 
L 199.911913 283.536094 
L 192.435438 283.698655 
L 184.958963 283.86819 
L 177.482488 284.045276 
L 170.006013 284.230362 
L 162.529538 284.423718 
L 155.053063 284.625423 
L 147.576588 284.835438 
L 140.100113 285.053819 
L 132.623638 285.281063 
L 125.147163 285.518655 
L 117.670688 285.769766 
L 110.194213 286.040088 
L 102.717738 286.33874 
L 95.241263 286.679148 
L 87.764788 287.079796 
L 80.288314 287.564713 
L 72.811839 288.163588 
L 65.335364 288.911408 
z
" clip-path="url(#p70f61d84bb)" style="fill: #d62728; fill-opacity: 0.45"/>
   </g>
   <g id="matplotlib.axis_1">
    <g id="xtick_1">
     <g id="line2d_1">
      <defs>
       <path id="m5ff6116b14" d="M 0 0 
L 0 3.5 
" style="stroke: #000000; stroke-width: 0.8"/>
      </defs>
      <g>
       <use xlink:href="#m5ff6116b14" x="61.634886" y="302.2" style="stroke: #000000; stroke-width: 0.8"/>
      </g>
     </g>
     <g id="text_1">
      <!-- 0 -->
      <g transform="translate(58.453636 316.798437) scale(0.1 -0.1)">
       <defs>
        <path id="DejaVuSans-30" d="M 2034 4250 
Q 1547 4250 1301 3770 
Q 1056 3291 1056 2328 
Q 1056 1369 1301 889 
Q 1547 409 2034 409 
Q 2525 409 2770 889 
Q 3016 1369 3016 2328 
Q 3016 3291 2770 3770 
Q 2525 4250 2034 4250 
z
M 2034 4750 
Q 2819 4750 3233 4129 
Q 3647 3509 3647 2328 
Q 3647 1150 3233 529 
Q 2819 -91 2034 -91 
Q 1250 -91 836 529 
Q 422 1150 422 2328 
Q 422 3509 836 4129 
Q 1250 4750 2034 4750 
z
" transform="scale(0.015625)"/>
       </defs>
       <use xlink:href="#DejaVuSans-30"/>
      </g>
     </g>
    </g>
    <g id="xtick_2">
     <g id="line2d_2">
      <g>
       <use xlink:href="#m5ff6116b14" x="135.644436" y="302.2" style="stroke: #000000; stroke-width: 0.8"/>
      </g>
     </g>
     <g id="text_2">
      <!-- 1 -->
      <g transform="translate(132.463186 316.798437) scale(0.1 -0.1)">
       <defs>
        <path id="DejaVuSans-31" d="M 794 531 
L 1825 531 
L 1825 4091 
L 703 3866 
L 703 4441 
L 1819 4666 
L 2450 4666 
L 2450 531 
L 3481 531 
L 3481 0 
L 794 0 
L 794 531 
z
" transform="scale(0.015625)"/>
       </defs>
       <use xlink:href="#DejaVuSans-31"/>
      </g>
     </g>
    </g>
    <g id="xtick_3">
     <g id="line2d_3">
      <g>
       <use xlink:href="#m5ff6116b14" x="209.653986" y="302.2" style="stroke: #000000; stroke-width: 0.8"/>
      </g>
     </g>
     <g id="text_3">
      <!-- 2 -->
      <g transform="translate(206.472736 316.798437) scale(0.1 -0.1)">
       <defs>
        <path id="DejaVuSans-32" d="M 1228 531 
L 3431 531 
L 3431 0 
L 469 0 
L 469 531 
Q 828 903 1448 1529 
Q 2069 2156 2228 2338 
Q 2531 2678 2651 2914 
Q 2772 3150 2772 3378 
Q 2772 3750 2511 3984 
Q 2250 4219 1831 4219 
Q 1534 4219 1204 4116 
Q 875 4013 500 3803 
L 500 4441 
Q 881 4594 1212 4672 
Q 1544 4750 1819 4750 
Q 2544 4750 2975 4387 
Q 3406 4025 3406 3419 
Q 3406 3131 3298 2873 
Q 3191 2616 2906 2266 
Q 2828 2175 2409 1742 
Q 1991 1309 1228 531 
z
" transform="scale(0.015625)"/>
       </defs>
       <use xlink:href="#DejaVuSans-32"/>
      </g>
     </g>
    </g>
    <g id="xtick_4">
     <g id="line2d_4">
      <g>
       <use xlink:href="#m5ff6116b14" x="283.663536" y="302.2" style="stroke: #000000; stroke-width: 0.8"/>
      </g>
     </g>
     <g id="text_4">
      <!-- 3 -->
      <g transform="translate(280.482286 316.798437) scale(0.1 -0.1)">
       <defs>
        <path id="DejaVuSans-33" d="M 2597 2516 
Q 3050 2419 3304 2112 
Q 3559 1806 3559 1356 
Q 3559 666 3084 287 
Q 2609 -91 1734 -91 
Q 1441 -91 1130 -33 
Q 819 25 488 141 
L 488 750 
Q 750 597 1062 519 
Q 1375 441 1716 441 
Q 2309 441 2620 675 
Q 2931 909 2931 1356 
Q 2931 1769 2642 2001 
Q 2353 2234 1838 2234 
L 1294 2234 
L 1294 2753 
L 1863 2753 
Q 2328 2753 2575 2939 
Q 2822 3125 2822 3475 
Q 2822 3834 2567 4026 
Q 2313 4219 1838 4219 
Q 1578 4219 1281 4162 
Q 984 4106 628 3988 
L 628 4550 
Q 988 4650 1302 4700 
Q 1616 4750 1894 4750 
Q 2613 4750 3031 4423 
Q 3450 4097 3450 3541 
Q 3450 3153 3228 2886 
Q 3006 2619 2597 2516 
z
" transform="scale(0.015625)"/>
       </defs>
       <use xlink:href="#DejaVuSans-33"/>
      </g>
     </g>
    </g>
    <g id="xtick_5">
     <g id="line2d_5">
      <g>
       <use xlink:href="#m5ff6116b14" x="357.673086" y="302.2" style="stroke: #000000; stroke-width: 0.8"/>
      </g>
     </g>
     <g id="text_5">
      <!-- 4 -->
      <g transform="translate(354.491836 316.798437) scale(0.1 -0.1)">
       <defs>
        <path id="DejaVuSans-34" d="M 2419 4116 
L 825 1625 
L 2419 1625 
L 2419 4116 
z
M 2253 4666 
L 3047 4666 
L 3047 1625 
L 3713 1625 
L 3713 1100 
L 3047 1100 
L 3047 0 
L 2419 0 
L 2419 1100 
L 313 1100 
L 313 1709 
L 2253 4666 
z
" transform="scale(0.015625)"/>
       </defs>
       <use xlink:href="#DejaVuSans-34"/>
      </g>
     </g>
    </g>
    <g id="xtick_6">
     <g id="line2d_6">
      <g>
       <use xlink:href="#m5ff6116b14" x="431.682636" y="302.2" style="stroke: #000000; stroke-width: 0.8"/>
      </g>
     </g>
     <g id="text_6">
      <!-- 5 -->
      <g transform="translate(428.501386 316.798437) scale(0.1 -0.1)">
       <defs>
        <path id="DejaVuSans-35" d="M 691 4666 
L 3169 4666 
L 3169 4134 
L 1269 4134 
L 1269 2991 
Q 1406 3038 1543 3061 
Q 1681 3084 1819 3084 
Q 2600 3084 3056 2656 
Q 3513 2228 3513 1497 
Q 3513 744 3044 326 
Q 2575 -91 1722 -91 
Q 1428 -91 1123 -41 
Q 819 9 494 109 
L 494 744 
Q 775 591 1075 516 
Q 1375 441 1709 441 
Q 2250 441 2565 725 
Q 2881 1009 2881 1497 
Q 2881 1984 2565 2268 
Q 2250 2553 1709 2553 
Q 1456 2553 1204 2497 
Q 953 2441 691 2322 
L 691 4666 
z
" transform="scale(0.015625)"/>
       </defs>
       <use xlink:href="#DejaVuSans-35"/>
      </g>
     </g>
    </g>
    <g id="text_7">
     <!-- $W$ (m/hour) -->
     <g transform="translate(220.059 330.476562) scale(0.1 -0.1)">
      <defs>
       <path id="DejaVuSans-Oblique-57" d="M 616 4666 
L 1228 4666 
L 1453 697 
L 3213 4666 
L 3916 4666 
L 4147 697 
L 5888 4666 
L 6528 4666 
L 4453 0 
L 3659 0 
L 3444 3891 
L 1697 0 
L 903 0 
L 616 4666 
z
" transform="scale(0.015625)"/>
       <path id="DejaVuSans-20" transform="scale(0.015625)"/>
       <path id="DejaVuSans-28" d="M 1984 4856 
Q 1566 4138 1362 3434 
Q 1159 2731 1159 2009 
Q 1159 1288 1364 580 
Q 1569 -128 1984 -844 
L 1484 -844 
Q 1016 -109 783 600 
Q 550 1309 550 2009 
Q 550 2706 781 3412 
Q 1013 4119 1484 4856 
L 1984 4856 
z
" transform="scale(0.015625)"/>
       <path id="DejaVuSans-6d" d="M 3328 2828 
Q 3544 3216 3844 3400 
Q 4144 3584 4550 3584 
Q 5097 3584 5394 3201 
Q 5691 2819 5691 2113 
L 5691 0 
L 5113 0 
L 5113 2094 
Q 5113 2597 4934 2840 
Q 4756 3084 4391 3084 
Q 3944 3084 3684 2787 
Q 3425 2491 3425 1978 
L 3425 0 
L 2847 0 
L 2847 2094 
Q 2847 2600 2669 2842 
Q 2491 3084 2119 3084 
Q 1678 3084 1418 2786 
Q 1159 2488 1159 1978 
L 1159 0 
L 581 0 
L 581 3500 
L 1159 3500 
L 1159 2956 
Q 1356 3278 1631 3431 
Q 1906 3584 2284 3584 
Q 2666 3584 2933 3390 
Q 3200 3197 3328 2828 
z
" transform="scale(0.015625)"/>
       <path id="DejaVuSans-2f" d="M 1625 4666 
L 2156 4666 
L 531 -594 
L 0 -594 
L 1625 4666 
z
" transform="scale(0.015625)"/>
       <path id="DejaVuSans-68" d="M 3513 2113 
L 3513 0 
L 2938 0 
L 2938 2094 
Q 2938 2591 2744 2837 
Q 2550 3084 2163 3084 
Q 1697 3084 1428 2787 
Q 1159 2491 1159 1978 
L 1159 0 
L 581 0 
L 581 4863 
L 1159 4863 
L 1159 2956 
Q 1366 3272 1645 3428 
Q 1925 3584 2291 3584 
Q 2894 3584 3203 3211 
Q 3513 2838 3513 2113 
z
" transform="scale(0.015625)"/>
       <path id="DejaVuSans-6f" d="M 1959 3097 
Q 1497 3097 1228 2736 
Q 959 2375 959 1747 
Q 959 1119 1226 758 
Q 1494 397 1959 397 
Q 2419 397 2687 759 
Q 2956 1122 2956 1747 
Q 2956 2369 2687 2733 
Q 2419 3097 1959 3097 
z
M 1959 3584 
Q 2709 3584 3137 3096 
Q 3566 2609 3566 1747 
Q 3566 888 3137 398 
Q 2709 -91 1959 -91 
Q 1206 -91 779 398 
Q 353 888 353 1747 
Q 353 2609 779 3096 
Q 1206 3584 1959 3584 
z
" transform="scale(0.015625)"/>
       <path id="DejaVuSans-75" d="M 544 1381 
L 544 3500 
L 1119 3500 
L 1119 1403 
Q 1119 906 1312 657 
Q 1506 409 1894 409 
Q 2359 409 2629 706 
Q 2900 1003 2900 1516 
L 2900 3500 
L 3475 3500 
L 3475 0 
L 2900 0 
L 2900 538 
Q 2691 219 2414 64 
Q 2138 -91 1772 -91 
Q 1169 -91 856 284 
Q 544 659 544 1381 
z
M 1991 3584 
L 1991 3584 
z
" transform="scale(0.015625)"/>
       <path id="DejaVuSans-72" d="M 2631 2963 
Q 2534 3019 2420 3045 
Q 2306 3072 2169 3072 
Q 1681 3072 1420 2755 
Q 1159 2438 1159 1844 
L 1159 0 
L 581 0 
L 581 3500 
L 1159 3500 
L 1159 2956 
Q 1341 3275 1631 3429 
Q 1922 3584 2338 3584 
Q 2397 3584 2469 3576 
Q 2541 3569 2628 3553 
L 2631 2963 
z
" transform="scale(0.015625)"/>
       <path id="DejaVuSans-29" d="M 513 4856 
L 1013 4856 
Q 1481 4119 1714 3412 
Q 1947 2706 1947 2009 
Q 1947 1309 1714 600 
Q 1481 -109 1013 -844 
L 513 -844 
Q 928 -128 1133 580 
Q 1338 1288 1338 2009 
Q 1338 2731 1133 3434 
Q 928 4138 513 4856 
z
" transform="scale(0.015625)"/>
      </defs>
      <use xlink:href="#DejaVuSans-Oblique-57" transform="translate(0 0.015625)"/>
      <use xlink:href="#DejaVuSans-20" transform="translate(98.876953 0.015625)"/>
      <use xlink:href="#DejaVuSans-28" transform="translate(130.664062 0.015625)"/>
      <use xlink:href="#DejaVuSans-6d" transform="translate(169.677734 0.015625)"/>
      <use xlink:href="#DejaVuSans-2f" transform="translate(267.089844 0.015625)"/>
      <use xlink:href="#DejaVuSans-68" transform="translate(300.78125 0.015625)"/>
      <use xlink:href="#DejaVuSans-6f" transform="translate(364.160156 0.015625)"/>
      <use xlink:href="#DejaVuSans-75" transform="translate(425.341797 0.015625)"/>
      <use xlink:href="#DejaVuSans-72" transform="translate(488.720703 0.015625)"/>
      <use xlink:href="#DejaVuSans-29" transform="translate(529.833984 0.015625)"/>
     </g>
    </g>
   </g>
   <g id="matplotlib.axis_2">
    <g id="ytick_1">
     <g id="line2d_7">
      <defs>
       <path id="m4d430bb8b5" d="M 0 0 
L -3.5 0 
" style="stroke: #000000; stroke-width: 0.8"/>
      </defs>
      <g>
       <use xlink:href="#m4d430bb8b5" x="47.018" y="291.507633" style="stroke: #000000; stroke-width: 0.8"/>
      </g>
     </g>
     <g id="text_8">
      <!-- 0 -->
      <g transform="translate(33.6555 295.306852) scale(0.1 -0.1)">
       <use xlink:href="#DejaVuSans-30"/>
      </g>
     </g>
    </g>
    <g id="ytick_2">
     <g id="line2d_8">
      <g>
       <use xlink:href="#m4d430bb8b5" x="47.018" y="254.224282" style="stroke: #000000; stroke-width: 0.8"/>
      </g>
     </g>
     <g id="text_9">
      <!-- 5 -->
      <g transform="translate(33.6555 258.023501) scale(0.1 -0.1)">
       <use xlink:href="#DejaVuSans-35"/>
      </g>
     </g>
    </g>
    <g id="ytick_3">
     <g id="line2d_9">
      <g>
       <use xlink:href="#m4d430bb8b5" x="47.018" y="216.940932" style="stroke: #000000; stroke-width: 0.8"/>
      </g>
     </g>
     <g id="text_10">
      <!-- 10 -->
      <g transform="translate(27.293 220.740151) scale(0.1 -0.1)">
       <use xlink:href="#DejaVuSans-31"/>
       <use xlink:href="#DejaVuSans-30" transform="translate(63.623047 0)"/>
      </g>
     </g>
    </g>
    <g id="ytick_4">
     <g id="line2d_10">
      <g>
       <use xlink:href="#m4d430bb8b5" x="47.018" y="179.657581" style="stroke: #000000; stroke-width: 0.8"/>
      </g>
     </g>
     <g id="text_11">
      <!-- 15 -->
      <g transform="translate(27.293 183.4568) scale(0.1 -0.1)">
       <use xlink:href="#DejaVuSans-31"/>
       <use xlink:href="#DejaVuSans-35" transform="translate(63.623047 0)"/>
      </g>
     </g>
    </g>
    <g id="ytick_5">
     <g id="line2d_11">
      <g>
       <use xlink:href="#m4d430bb8b5" x="47.018" y="142.374231" style="stroke: #000000; stroke-width: 0.8"/>
      </g>
     </g>
     <g id="text_12">
      <!-- 20 -->
      <g transform="translate(27.293 146.173449) scale(0.1 -0.1)">
       <use xlink:href="#DejaVuSans-32"/>
       <use xlink:href="#DejaVuSans-30" transform="translate(63.623047 0)"/>
      </g>
     </g>
    </g>
    <g id="ytick_6">
     <g id="line2d_12">
      <g>
       <use xlink:href="#m4d430bb8b5" x="47.018" y="105.09088" style="stroke: #000000; stroke-width: 0.8"/>
      </g>
     </g>
     <g id="text_13">
      <!-- 25 -->
      <g transform="translate(27.293 108.890099) scale(0.1 -0.1)">
       <use xlink:href="#DejaVuSans-32"/>
       <use xlink:href="#DejaVuSans-35" transform="translate(63.623047 0)"/>
      </g>
     </g>
    </g>
    <g id="ytick_7">
     <g id="line2d_13">
      <g>
       <use xlink:href="#m4d430bb8b5" x="47.018" y="67.80753" style="stroke: #000000; stroke-width: 0.8"/>
      </g>
     </g>
     <g id="text_14">
      <!-- 30 -->
      <g transform="translate(27.293 71.606748) scale(0.1 -0.1)">
       <use xlink:href="#DejaVuSans-33"/>
       <use xlink:href="#DejaVuSans-30" transform="translate(63.623047 0)"/>
      </g>
     </g>
    </g>
    <g id="ytick_8">
     <g id="line2d_14">
      <g>
       <use xlink:href="#m4d430bb8b5" x="47.018" y="30.524179" style="stroke: #000000; stroke-width: 0.8"/>
      </g>
     </g>
     <g id="text_15">
      <!-- 35 -->
      <g transform="translate(27.293 34.323398) scale(0.1 -0.1)">
       <use xlink:href="#DejaVuSans-33"/>
       <use xlink:href="#DejaVuSans-35" transform="translate(63.623047 0)"/>
      </g>
     </g>
    </g>
    <g id="text_16">
     <!-- $Q_{lc}$ (kW) -->
     <g transform="translate(21.213312 176.8) rotate(-90) scale(0.1 -0.1)">
      <defs>
       <path id="DejaVuSans-Oblique-51" d="M 2309 -84 
Q 2275 -88 2237 -89 
Q 2200 -91 2125 -91 
Q 1250 -91 756 411 
Q 263 913 263 1797 
Q 263 2319 452 2844 
Q 641 3369 978 3788 
Q 1369 4269 1858 4509 
Q 2347 4750 2938 4750 
Q 3794 4750 4287 4245 
Q 4781 3741 4781 2869 
Q 4781 1928 4265 1147 
Q 3750 366 2919 44 
L 3553 -825 
L 2847 -825 
L 2309 -84 
z
M 2919 4238 
Q 2400 4238 2003 3986 
Q 1606 3734 1313 3219 
Q 1125 2891 1026 2522 
Q 928 2153 928 1778 
Q 928 1128 1239 775 
Q 1550 422 2119 422 
Q 2631 422 3032 676 
Q 3434 931 3719 1434 
Q 3909 1772 4009 2142 
Q 4109 2513 4109 2881 
Q 4109 3528 3796 3883 
Q 3484 4238 2919 4238 
z
" transform="scale(0.015625)"/>
       <path id="DejaVuSans-Oblique-6c" d="M 1172 4863 
L 1747 4863 
L 800 0 
L 225 0 
L 1172 4863 
z
" transform="scale(0.015625)"/>
       <path id="DejaVuSans-Oblique-63" d="M 3431 3366 
L 3316 2797 
Q 3109 2947 2876 3022 
Q 2644 3097 2394 3097 
Q 2119 3097 1870 3000 
Q 1622 2903 1453 2725 
Q 1184 2453 1037 2087 
Q 891 1722 891 1331 
Q 891 859 1127 628 
Q 1363 397 1844 397 
Q 2081 397 2348 469 
Q 2616 541 2906 684 
L 2797 116 
Q 2547 13 2283 -39 
Q 2019 -91 1741 -91 
Q 1044 -91 669 257 
Q 294 606 294 1253 
Q 294 1797 489 2255 
Q 684 2713 1069 3078 
Q 1331 3328 1684 3456 
Q 2038 3584 2456 3584 
Q 2700 3584 2940 3529 
Q 3181 3475 3431 3366 
z
" transform="scale(0.015625)"/>
       <path id="DejaVuSans-6b" d="M 581 4863 
L 1159 4863 
L 1159 1991 
L 2875 3500 
L 3609 3500 
L 1753 1863 
L 3688 0 
L 2938 0 
L 1159 1709 
L 1159 0 
L 581 0 
L 581 4863 
z
" transform="scale(0.015625)"/>
       <path id="DejaVuSans-57" d="M 213 4666 
L 850 4666 
L 1831 722 
L 2809 4666 
L 3519 4666 
L 4500 722 
L 5478 4666 
L 6119 4666 
L 4947 0 
L 4153 0 
L 3169 4050 
L 2175 0 
L 1381 0 
L 213 4666 
z
" transform="scale(0.015625)"/>
      </defs>
      <use xlink:href="#DejaVuSans-Oblique-51" transform="translate(0 0.015625)"/>
      <use xlink:href="#DejaVuSans-Oblique-6c" transform="translate(78.710938 -16.390625) scale(0.7)"/>
      <use xlink:href="#DejaVuSans-Oblique-63" transform="translate(98.15918 -16.390625) scale(0.7)"/>
      <use xlink:href="#DejaVuSans-20" transform="translate(139.379883 0.015625)"/>
      <use xlink:href="#DejaVuSans-28" transform="translate(171.166992 0.015625)"/>
      <use xlink:href="#DejaVuSans-6b" transform="translate(210.180664 0.015625)"/>
      <use xlink:href="#DejaVuSans-57" transform="translate(268.09082 0.015625)"/>
      <use xlink:href="#DejaVuSans-29" transform="translate(366.967773 0.015625)"/>
     </g>
    </g>
   </g>
   <g id="line2d_15">
    <path d="M 65.335364 217.725537 
L 72.811839 201.553141 
L 80.288314 188.474975 
L 87.764788 177.825531 
L 95.241263 169.023132 
L 102.717738 161.58797 
L 110.194213 155.134093 
L 117.670688 149.372114 
L 125.147163 144.092554 
L 132.623638 139.152533 
L 140.100113 134.464888 
L 147.576588 129.980351 
L 155.053063 125.671828 
L 162.529538 121.527206 
L 170.006013 117.540562 
L 177.482488 113.705493 
L 184.958963 110.013154 
L 192.435438 106.451529 
L 199.911913 103.006814 
L 207.388388 99.665645 
L 214.864863 96.414171 
L 222.341338 93.241554 
L 229.817813 90.140298 
L 237.294288 87.105983 
L 244.770763 84.136555 
L 252.247237 81.23123 
L 259.723712 78.389288 
L 267.200187 75.609082 
L 274.676662 72.887445 
L 282.153137 70.219275 
L 289.629612 67.59909 
L 297.106087 65.021142 
L 304.582562 62.480443 
L 312.059037 59.973858 
L 319.535512 57.500639 
L 327.011987 55.062388 
L 334.488462 52.662347 
L 341.964937 50.304086 
L 349.441412 47.989819 
L 356.917887 45.718707 
L 364.394362 43.485616 
L 371.870837 41.280791 
L 379.347312 39.090895 
L 386.823787 36.901724 
L 394.300262 34.702333 
L 401.776737 32.492269 
L 409.253212 30.288105 
L 416.729686 28.131831 
L 424.206161 26.099649 
L 431.682636 24.306415 
" clip-path="url(#p70f61d84bb)" style="fill: none; stroke: #1f77b4; stroke-width: 1.5; stroke-linecap: square"/>
   </g>
   <g id="line2d_16">
    <path d="M 65.335364 257.00034 
L 72.811839 248.586988 
L 80.288314 241.74333 
L 87.764788 236.137922 
L 95.241263 231.480976 
L 102.717738 227.52955 
L 110.194213 224.088709 
L 117.670688 221.009317 
L 125.147163 218.18322 
L 132.623638 215.536713 
L 140.100113 213.02319 
L 147.576588 210.61578 
L 155.053063 208.300615 
L 162.529538 206.071226 
L 170.006013 203.924302 
L 177.482488 201.85688 
L 184.958963 199.864869 
L 192.435438 197.942616 
L 199.911913 196.083259 
L 207.388388 194.279468 
L 214.864863 192.524293 
L 222.341338 190.811872 
L 229.817813 189.137842 
L 237.294288 187.499388 
L 244.770763 185.894983 
L 252.247237 184.323901 
L 259.723712 182.78566 
L 267.200187 181.279502 
L 274.676662 179.804071 
L 282.153137 178.357321 
L 289.629612 176.936675 
L 297.106087 175.539389 
L 304.582562 174.163017 
L 312.059037 172.805836 
L 319.535512 171.467138 
L 327.011987 170.14726 
L 334.488462 168.847319 
L 341.964937 167.568675 
L 349.441412 166.312206 
L 356.917887 165.077557 
L 364.394362 163.862561 
L 371.870837 162.663048 
L 379.347312 161.473253 
L 386.823787 160.286948 
L 394.300262 159.099379 
L 401.776737 157.909959 
L 409.253212 156.725551 
L 416.729686 155.564072 
L 424.206161 154.458065 
L 431.682636 153.457793 
" clip-path="url(#p70f61d84bb)" style="fill: none; stroke: #ff7f0e; stroke-width: 1.5; stroke-linecap: square"/>
   </g>
   <g id="line2d_17">
    <path d="M 65.335364 279.810964 
L 72.811839 276.674784 
L 80.288314 274.118525 
L 87.764788 272.019019 
L 95.241263 270.268811 
L 102.717738 268.778083 
L 110.194213 267.475049 
L 117.670688 266.305048 
L 125.147163 265.228661 
L 132.623638 264.219192 
L 140.100113 263.259862 
L 147.576588 262.341029 
L 155.053063 261.45768 
L 162.529538 260.607362 
L 170.006013 259.788655 
L 177.482488 259.000188 
L 184.958963 258.240148 
L 192.435438 257.506186 
L 199.911913 256.795575 
L 207.388388 256.105523 
L 214.864863 255.433476 
L 222.341338 254.777366 
L 229.817813 254.135726 
L 237.294288 253.507672 
L 244.770763 252.892763 
L 252.247237 252.290797 
L 259.723712 251.701583 
L 267.200187 251.124755 
L 274.676662 250.55967 
L 282.153137 250.005405 
L 289.629612 249.460856 
L 297.106087 248.924901 
L 304.582562 248.396604 
L 312.059037 247.875379 
L 319.535512 247.361083 
L 327.011987 246.854009 
L 334.488462 246.354738 
L 341.964937 245.863894 
L 349.441412 245.381831 
L 356.917887 244.90833 
L 364.394362 244.442373 
L 371.870837 243.982106 
L 379.347312 243.525056 
L 386.823787 243.068635 
L 394.300262 242.610978 
L 401.776737 242.152058 
L 409.253212 241.694998 
L 416.729686 241.247483 
L 424.206161 240.823077 
L 431.682636 240.442297 
" clip-path="url(#p70f61d84bb)" style="fill: none; stroke: #2ca02c; stroke-width: 1.5; stroke-linecap: square"/>
   </g>
   <g id="line2d_18">
    <path d="M 65.335364 288.935644 
L 72.811839 288.19198 
L 80.288314 287.596206 
L 87.764788 287.113625 
L 95.241263 286.714779 
L 102.717738 286.375826 
L 110.194213 286.078391 
L 117.670688 285.809166 
L 125.147163 285.559097 
L 132.623638 285.322523 
L 140.100113 285.096284 
L 147.576588 284.878893 
L 155.053063 284.669845 
L 162.529538 284.469073 
L 170.006013 284.276605 
L 177.482488 284.092353 
L 184.958963 283.91604 
L 192.435438 283.747216 
L 199.911913 283.5853 
L 207.388388 283.429653 
L 214.864863 283.279614 
L 222.341338 283.134524 
L 229.817813 282.993714 
L 237.294288 282.856482 
L 244.770763 282.72207 
L 252.247237 282.589656 
L 259.723712 282.458382 
L 267.200187 282.327412 
L 274.676662 282.196021 
L 282.153137 282.063698 
L 289.629612 281.930241 
L 297.106087 281.795814 
L 304.582562 281.66095 
L 312.059037 281.52648 
L 319.535512 281.393381 
L 327.011987 281.262556 
L 334.488462 281.134596 
L 341.964937 281.009522 
L 349.441412 280.886604 
L 356.917887 280.764305 
L 364.394362 280.640359 
L 371.870837 280.512074 
L 379.347312 280.376903 
L 386.823787 280.233108 
L 394.300262 280.08065 
L 401.776737 279.922171 
L 409.253212 279.763944 
L 416.729686 279.616708 
L 424.206161 279.496237 
L 431.682636 279.423558 
" clip-path="url(#p70f61d84bb)" style="fill: none; stroke: #d62728; stroke-width: 1.5; stroke-linecap: square"/>
   </g>
   <g id="patch_3">
    <path d="M 47.018 302.2 
L 47.018 10.8 
" style="fill: none; stroke: #000000; stroke-width: 0.8; stroke-linejoin: miter; stroke-linecap: square"/>
   </g>
   <g id="patch_4">
    <path d="M 450 302.2 
L 450 10.8 
" style="fill: none; stroke: #000000; stroke-width: 0.8; stroke-linejoin: miter; stroke-linecap: square"/>
   </g>
   <g id="patch_5">
    <path d="M 47.018 302.2 
L 450 302.2 
" style="fill: none; stroke: #000000; stroke-width: 0.8; stroke-linejoin: miter; stroke-linecap: square"/>
   </g>
   <g id="patch_6">
    <path d="M 47.018 10.8 
L 450 10.8 
" style="fill: none; stroke: #000000; stroke-width: 0.8; stroke-linejoin: miter; stroke-linecap: square"/>
   </g>
   <g id="legend_1">
    <g id="patch_7">
     <path d="M 54.018 77.5125 
L 132.888313 77.5125 
Q 134.888313 77.5125 134.888313 75.5125 
L 134.888313 17.8 
Q 134.888313 15.8 132.888313 15.8 
L 54.018 15.8 
Q 52.018 15.8 52.018 17.8 
L 52.018 75.5125 
Q 52.018 77.5125 54.018 77.5125 
z
" style="fill: #ffffff; opacity: 0.8; stroke: #cccccc; stroke-linejoin: miter"/>
    </g>
    <g id="line2d_19">
     <path d="M 56.018 23.898438 
L 66.018 23.898438 
L 76.018 23.898438 
" style="fill: none; stroke: #1f77b4; stroke-width: 1.5; stroke-linecap: square"/>
    </g>
    <g id="text_17">
     <!-- Ts=100 K -->
     <g transform="translate(84.018 27.398438) scale(0.1 -0.1)">
      <defs>
       <path id="DejaVuSans-54" d="M -19 4666 
L 3928 4666 
L 3928 4134 
L 2272 4134 
L 2272 0 
L 1638 0 
L 1638 4134 
L -19 4134 
L -19 4666 
z
" transform="scale(0.015625)"/>
       <path id="DejaVuSans-73" d="M 2834 3397 
L 2834 2853 
Q 2591 2978 2328 3040 
Q 2066 3103 1784 3103 
Q 1356 3103 1142 2972 
Q 928 2841 928 2578 
Q 928 2378 1081 2264 
Q 1234 2150 1697 2047 
L 1894 2003 
Q 2506 1872 2764 1633 
Q 3022 1394 3022 966 
Q 3022 478 2636 193 
Q 2250 -91 1575 -91 
Q 1294 -91 989 -36 
Q 684 19 347 128 
L 347 722 
Q 666 556 975 473 
Q 1284 391 1588 391 
Q 1994 391 2212 530 
Q 2431 669 2431 922 
Q 2431 1156 2273 1281 
Q 2116 1406 1581 1522 
L 1381 1569 
Q 847 1681 609 1914 
Q 372 2147 372 2553 
Q 372 3047 722 3315 
Q 1072 3584 1716 3584 
Q 2034 3584 2315 3537 
Q 2597 3491 2834 3397 
z
" transform="scale(0.015625)"/>
       <path id="DejaVuSans-3d" d="M 678 2906 
L 4684 2906 
L 4684 2381 
L 678 2381 
L 678 2906 
z
M 678 1631 
L 4684 1631 
L 4684 1100 
L 678 1100 
L 678 1631 
z
" transform="scale(0.015625)"/>
       <path id="DejaVuSans-4b" d="M 628 4666 
L 1259 4666 
L 1259 2694 
L 3353 4666 
L 4166 4666 
L 1850 2491 
L 4331 0 
L 3500 0 
L 1259 2247 
L 1259 0 
L 628 0 
L 628 4666 
z
" transform="scale(0.015625)"/>
      </defs>
      <use xlink:href="#DejaVuSans-54"/>
      <use xlink:href="#DejaVuSans-73" transform="translate(44.583984 0)"/>
      <use xlink:href="#DejaVuSans-3d" transform="translate(96.683594 0)"/>
      <use xlink:href="#DejaVuSans-31" transform="translate(180.472656 0)"/>
      <use xlink:href="#DejaVuSans-30" transform="translate(244.095703 0)"/>
      <use xlink:href="#DejaVuSans-30" transform="translate(307.71875 0)"/>
      <use xlink:href="#DejaVuSans-20" transform="translate(371.341797 0)"/>
      <use xlink:href="#DejaVuSans-4b" transform="translate(403.128906 0)"/>
     </g>
    </g>
    <g id="line2d_20">
     <path d="M 56.018 38.576563 
L 66.018 38.576563 
L 76.018 38.576563 
" style="fill: none; stroke: #ff7f0e; stroke-width: 1.5; stroke-linecap: square"/>
    </g>
    <g id="text_18">
     <!-- Ts=160 K -->
     <g transform="translate(84.018 42.076563) scale(0.1 -0.1)">
      <defs>
       <path id="DejaVuSans-36" d="M 2113 2584 
Q 1688 2584 1439 2293 
Q 1191 2003 1191 1497 
Q 1191 994 1439 701 
Q 1688 409 2113 409 
Q 2538 409 2786 701 
Q 3034 994 3034 1497 
Q 3034 2003 2786 2293 
Q 2538 2584 2113 2584 
z
M 3366 4563 
L 3366 3988 
Q 3128 4100 2886 4159 
Q 2644 4219 2406 4219 
Q 1781 4219 1451 3797 
Q 1122 3375 1075 2522 
Q 1259 2794 1537 2939 
Q 1816 3084 2150 3084 
Q 2853 3084 3261 2657 
Q 3669 2231 3669 1497 
Q 3669 778 3244 343 
Q 2819 -91 2113 -91 
Q 1303 -91 875 529 
Q 447 1150 447 2328 
Q 447 3434 972 4092 
Q 1497 4750 2381 4750 
Q 2619 4750 2861 4703 
Q 3103 4656 3366 4563 
z
" transform="scale(0.015625)"/>
      </defs>
      <use xlink:href="#DejaVuSans-54"/>
      <use xlink:href="#DejaVuSans-73" transform="translate(44.583984 0)"/>
      <use xlink:href="#DejaVuSans-3d" transform="translate(96.683594 0)"/>
      <use xlink:href="#DejaVuSans-31" transform="translate(180.472656 0)"/>
      <use xlink:href="#DejaVuSans-36" transform="translate(244.095703 0)"/>
      <use xlink:href="#DejaVuSans-30" transform="translate(307.71875 0)"/>
      <use xlink:href="#DejaVuSans-20" transform="translate(371.341797 0)"/>
      <use xlink:href="#DejaVuSans-4b" transform="translate(403.128906 0)"/>
     </g>
    </g>
    <g id="line2d_21">
     <path d="M 56.018 53.254687 
L 66.018 53.254687 
L 76.018 53.254687 
" style="fill: none; stroke: #2ca02c; stroke-width: 1.5; stroke-linecap: square"/>
    </g>
    <g id="text_19">
     <!-- Ts=220 K -->
     <g transform="translate(84.018 56.754687) scale(0.1 -0.1)">
      <use xlink:href="#DejaVuSans-54"/>
      <use xlink:href="#DejaVuSans-73" transform="translate(44.583984 0)"/>
      <use xlink:href="#DejaVuSans-3d" transform="translate(96.683594 0)"/>
      <use xlink:href="#DejaVuSans-32" transform="translate(180.472656 0)"/>
      <use xlink:href="#DejaVuSans-32" transform="translate(244.095703 0)"/>
      <use xlink:href="#DejaVuSans-30" transform="translate(307.71875 0)"/>
      <use xlink:href="#DejaVuSans-20" transform="translate(371.341797 0)"/>
      <use xlink:href="#DejaVuSans-4b" transform="translate(403.128906 0)"/>
     </g>
    </g>
    <g id="line2d_22">
     <path d="M 56.018 67.932813 
L 66.018 67.932813 
L 76.018 67.932813 
" style="fill: none; stroke: #d62728; stroke-width: 1.5; stroke-linecap: square"/>
    </g>
    <g id="text_20">
     <!-- Ts=260 K -->
     <g transform="translate(84.018 71.432813) scale(0.1 -0.1)">
      <use xlink:href="#DejaVuSans-54"/>
      <use xlink:href="#DejaVuSans-73" transform="translate(44.583984 0)"/>
      <use xlink:href="#DejaVuSans-3d" transform="translate(96.683594 0)"/>
      <use xlink:href="#DejaVuSans-32" transform="translate(180.472656 0)"/>
      <use xlink:href="#DejaVuSans-36" transform="translate(244.095703 0)"/>
      <use xlink:href="#DejaVuSans-30" transform="translate(307.71875 0)"/>
      <use xlink:href="#DejaVuSans-20" transform="translate(371.341797 0)"/>
      <use xlink:href="#DejaVuSans-4b" transform="translate(403.128906 0)"/>
     </g>
    </g>
   </g>
  </g>
 </g>
 <defs>
  <clipPath id="p70f61d84bb">
   <rect x="47.018" y="10.8" width="402.982" height="291.4"/>
  </clipPath>
 </defs>
</svg>
