<?xml version="1.0" encoding="utf-8" standalone="no"?>
<!DOCTYPE svg PUBLIC "-//W3C//DTD SVG 1.1//EN"
  "http://www.w3.org/Graphics/SVG/1.1/DTD/svg11.dtd">
<svg xmlns:xlink="http://www.w3.org/1999/xlink" width="460.8pt" height="345.6pt" viewBox="0 0 460.8 345.6" xmlns="http://www.w3.org/2000/svg" version="1.1">
 <metadata>
  <rdf:RDF xmlns:dc="http://purl.org/dc/elements/1.1/" xmlns:cc="http://creativecommons.org/ns#" xmlns:rdf="http://www.w3.org/1999/02/22-rdf-syntax-ns#">
   <cc:Work>
    <dc:type rdf:resource="http://purl.org/dc/dcmitype/StillImage"/>
    <dc:date>2026-02-11T13:30:21.855787</dc:date>
    <dc:format>image/svg+xml</dc:format>
    <dc:creator>
     <cc:Agent>
      <dc:title>Matplotlib v3.10.8, https://matplotlib.org/</dc:title>
     </cc:Agent>
    </dc:creator>
   </cc:Work>
  </rdf:RDF>
 </metadata>
 <defs>
  <style type="text/css">*{stroke-linejoin: round; stroke-linecap: butt}</style>
 </defs>
 <g id="figure_1">
  <g id="patch_1">
   <path d="M 0 345.6 
L 460.8 345.6 
L 460.8 0 
L 0 0 
L 0 345.6 
z
" style="fill: none"/>
  </g>
  <g id="axes_1">
   <g id="patch_2">
    <path d="M 56.468 302.2 
L 450 302.2 
L 450 10.8 
L 56.468 10.8 
L 56.468 302.2 
z
" style="fill: none"/>
   </g>
   <g id="FillBetweenPolyCollection_1">
    <path d="M 74.355818 244.948228 
L 74.355818 250.303381 
L 81.656968 233.739181 
L 88.958119 219.667705 
L 96.259269 207.755369 
L 103.560419 197.808798 
L 110.86157 189.495555 
L 118.16272 182.218411 
L 125.46387 175.78842 
L 132.76502 169.693188 
L 140.066171 163.953366 
L 147.367321 158.579141 
L 154.668471 153.395081 
L 161.969622 148.408388 
L 169.270772 143.565205 
L 176.571922 139.003245 
L 183.873072 134.440044 
L 191.174223 130.244302 
L 198.475373 126.148264 
L 205.776523 122.15966 
L 213.077673 118.150575 
L 220.378824 114.420553 
L 227.679974 110.800183 
L 234.981124 107.115233 
L 242.282275 103.576136 
L 249.583425 99.91996 
L 256.884575 96.578991 
L 264.185725 93.339962 
L 271.486876 90.146041 
L 278.788026 86.825008 
L 286.089176 83.772517 
L 293.390327 80.673653 
L 300.691477 77.56834 
L 307.992627 74.590883 
L 315.293777 71.581031 
L 322.594928 68.72475 
L 329.896078 65.791871 
L 337.197228 63.063792 
L 344.498378 60.395425 
L 351.799529 57.54717 
L 359.100679 54.982929 
L 366.401829 52.281607 
L 373.70298 49.676412 
L 381.00413 47.193045 
L 388.30528 44.492588 
L 395.60643 41.806877 
L 402.907581 39.411949 
L 410.208731 37.120743 
L 417.509881 34.879518 
L 424.811032 32.404709 
L 432.112182 29.419453 
L 432.112182 24.045455 
L 432.112182 24.045455 
L 424.811032 25.532944 
L 417.509881 27.973485 
L 410.208731 30.563824 
L 402.907581 33.508729 
L 395.60643 36.259791 
L 388.30528 38.811842 
L 381.00413 41.407953 
L 373.70298 43.972016 
L 366.401829 46.644429 
L 359.100679 49.304661 
L 351.799529 51.969614 
L 344.498378 54.749592 
L 337.197228 57.404819 
L 329.896078 60.394955 
L 322.594928 63.238328 
L 315.293777 66.1864 
L 307.992627 69.106676 
L 300.691477 72.108769 
L 293.390327 75.036481 
L 286.089176 78.151623 
L 278.788026 81.275073 
L 271.486876 84.487802 
L 264.185725 87.807669 
L 256.884575 91.126304 
L 249.583425 94.526679 
L 242.282275 98.086451 
L 234.981124 101.663057 
L 227.679974 105.172256 
L 220.378824 108.884676 
L 213.077673 112.770845 
L 205.776523 116.530779 
L 198.475373 120.632559 
L 191.174223 124.747257 
L 183.873072 129.087928 
L 176.571922 133.506115 
L 169.270772 138.12923 
L 161.969622 142.971786 
L 154.668471 147.950239 
L 147.367321 153.145535 
L 140.066171 158.489574 
L 132.76502 164.032095 
L 125.46387 169.997497 
L 118.16272 176.691223 
L 110.86157 184.011191 
L 103.560419 192.374954 
L 96.259269 201.845437 
L 88.958119 213.30012 
L 81.656968 227.275735 
L 74.355818 244.948228 
z
" clip-path="url(#p0c3a34b694)" style="fill: #1f77b4; fill-opacity: 0.27"/>
   </g>
   <g id="FillBetweenPolyCollection_2">
    <path d="M 74.355818 247.422938 
L 74.355818 247.910163 
L 81.656968 230.783153 
L 88.958119 216.738287 
L 96.259269 205.141242 
L 103.560419 195.429649 
L 110.86157 187.129683 
L 118.16272 179.855603 
L 125.46387 173.31172 
L 132.76502 167.283449 
L 140.066171 161.624349 
L 147.367321 156.241797 
L 154.668471 151.082375 
L 161.969622 146.118406 
L 169.270772 141.336654 
L 176.571922 136.729807 
L 183.873072 132.290894 
L 191.174223 128.010415 
L 198.475373 123.875682 
L 205.776523 119.871688 
L 213.077673 115.982793 
L 220.378824 112.194529 
L 227.679974 108.49506 
L 234.981124 104.875936 
L 242.282275 101.332073 
L 249.583425 97.861032 
L 256.884575 94.461867 
L 264.185725 91.133831 
L 271.486876 87.875265 
L 278.788026 84.682941 
L 286.089176 81.551963 
L 293.390327 78.476249 
L 300.691477 75.449456 
L 307.992627 72.466076 
L 315.293777 69.522445 
L 322.594928 66.617349 
L 329.896078 63.752031 
L 337.197228 60.929502 
L 344.498378 58.15322 
L 351.799529 55.425391 
L 359.100679 52.745223 
L 366.401829 50.107681 
L 373.70298 47.503125 
L 381.00413 44.918333 
L 388.30528 42.339202 
L 395.60643 39.755188 
L 402.907581 37.165365 
L 410.208731 34.585662 
L 417.509881 32.056647 
L 424.811032 29.651001 
L 432.112182 27.479747 
L 432.112182 26.047935 
L 432.112182 26.047935 
L 424.811032 28.228539 
L 417.509881 30.644402 
L 410.208731 33.184091 
L 402.907581 35.774667 
L 395.60643 38.375416 
L 388.30528 40.970351 
L 381.00413 43.5604 
L 373.70298 46.156144 
L 366.401829 48.771738 
L 359.100679 51.42045 
L 351.799529 54.111975 
L 344.498378 56.851366 
L 337.197228 59.639408 
L 329.896078 62.473897 
L 322.594928 65.351368 
L 315.293777 68.268807 
L 307.992627 71.224972 
L 300.691477 74.221083 
L 293.390327 77.260817 
L 286.089176 80.349698 
L 278.788026 83.49409 
L 271.486876 86.700087 
L 264.185725 89.972598 
L 256.884575 93.314862 
L 249.583425 96.728543 
L 242.282275 100.214403 
L 234.981124 103.773405 
L 227.679974 107.408014 
L 220.378824 111.123359 
L 213.077673 114.927298 
L 205.776523 118.832154 
L 198.475373 122.852669 
L 191.174223 127.004539 
L 183.873072 131.3028 
L 176.571922 135.760154 
L 169.270772 140.386104 
L 161.969622 145.187617 
L 154.668471 150.172028 
L 147.367321 155.35265 
L 140.066171 160.757346 
L 132.76502 166.439869 
L 125.46387 172.493401 
L 118.16272 179.065211 
L 110.86157 186.371043 
L 103.560419 194.70896 
L 96.259269 204.464661 
L 88.958119 216.115319 
L 81.656968 230.220371 
L 74.355818 247.422938 
z
" clip-path="url(#p0c3a34b694)" style="fill: #ff7f0e; fill-opacity: 0.45"/>
   </g>
   <g id="PathCollection_1">
    <defs>
     <path id="m1f894259f5" d="M 0 2.12132 
C 0.562581 2.12132 1.102195 1.897805 1.5 1.5 
C 1.897805 1.102195 2.12132 0.562581 2.12132 0 
C 2.12132 -0.562581 1.897805 -1.102195 1.5 -1.5 
C 1.102195 -1.897805 0.562581 -2.12132 0 -2.12132 
C -0.562581 -2.12132 -1.102195 -1.897805 -1.5 -1.5 
C -1.897805 -1.102195 -2.12132 -0.562581 -2.12132 0 
C -2.12132 0.562581 -1.897805 1.102195 -1.5 1.5 
C -1.102195 1.897805 -0.562581 2.12132 0 2.12132 
z
" style="stroke: #000000; stroke-opacity: 0.7"/>
    </defs>
    <g clip-path="url(#p0c3a34b694)">
     <use xlink:href="#m1f894259f5" x="74.355818" y="247.747923" style="fill-opacity: 0.7; stroke: #000000; stroke-opacity: 0.7"/>
     <use xlink:href="#m1f894259f5" x="106.879124" y="192.410604" style="fill-opacity: 0.7; stroke: #000000; stroke-opacity: 0.7"/>
     <use xlink:href="#m1f894259f5" x="143.01613" y="160.237859" style="fill-opacity: 0.7; stroke: #000000; stroke-opacity: 0.7"/>
     <use xlink:href="#m1f894259f5" x="179.153137" y="138.711249" style="fill-opacity: 0.7; stroke: #000000; stroke-opacity: 0.7"/>
     <use xlink:href="#m1f894259f5" x="215.290143" y="112.793835" style="fill-opacity: 0.7; stroke: #000000; stroke-opacity: 0.7"/>
     <use xlink:href="#m1f894259f5" x="251.42715" y="95.875541" style="fill-opacity: 0.7; stroke: #000000; stroke-opacity: 0.7"/>
     <use xlink:href="#m1f894259f5" x="287.564156" y="81.792954" style="fill-opacity: 0.7; stroke: #000000; stroke-opacity: 0.7"/>
     <use xlink:href="#m1f894259f5" x="323.701163" y="65.615986" style="fill-opacity: 0.7; stroke: #000000; stroke-opacity: 0.7"/>
     <use xlink:href="#m1f894259f5" x="359.838169" y="52.596421" style="fill-opacity: 0.7; stroke: #000000; stroke-opacity: 0.7"/>
     <use xlink:href="#m1f894259f5" x="395.975175" y="40.879961" style="fill-opacity: 0.7; stroke: #000000; stroke-opacity: 0.7"/>
     <use xlink:href="#m1f894259f5" x="432.112182" y="26.725118" style="fill-opacity: 0.7; stroke: #000000; stroke-opacity: 0.7"/>
    </g>
   </g>
   <g id="FillBetweenPolyCollection_3">
    <path d="M 74.355818 249.330523 
L 74.355818 254.531181 
L 81.656968 239.332904 
L 88.958119 226.39142 
L 96.259269 215.402947 
L 103.560419 206.344054 
L 110.86157 198.639227 
L 118.16272 191.989063 
L 125.46387 185.947167 
L 132.76502 180.405432 
L 140.066171 175.063725 
L 147.367321 170.076699 
L 154.668471 165.564989 
L 161.969622 160.927622 
L 169.270772 156.420693 
L 176.571922 152.223142 
L 183.873072 148.144417 
L 191.174223 144.160088 
L 198.475373 140.549271 
L 205.776523 136.708667 
L 213.077673 133.230211 
L 220.378824 129.611924 
L 227.679974 126.282517 
L 234.981124 122.955246 
L 242.282275 119.60454 
L 249.583425 116.524832 
L 256.884575 113.426686 
L 264.185725 110.332824 
L 271.486876 107.179758 
L 278.788026 104.337232 
L 286.089176 101.473981 
L 293.390327 98.56045 
L 300.691477 95.922734 
L 307.992627 93.270297 
L 315.293777 90.465304 
L 322.594928 87.675412 
L 329.896078 85.094025 
L 337.197228 82.577388 
L 344.498378 80.007368 
L 351.799529 77.501353 
L 359.100679 75.151682 
L 366.401829 72.598377 
L 373.70298 70.285102 
L 381.00413 68.026808 
L 388.30528 65.500915 
L 395.60643 63.090653 
L 402.907581 60.808146 
L 410.208731 58.75182 
L 417.509881 56.728416 
L 424.811032 54.467385 
L 432.112182 51.881832 
L 432.112182 46.338056 
L 432.112182 46.338056 
L 424.811032 47.639887 
L 417.509881 49.778232 
L 410.208731 52.431987 
L 402.907581 55.115511 
L 395.60643 57.572534 
L 388.30528 59.905424 
L 381.00413 62.296187 
L 373.70298 64.604321 
L 366.401829 67.155397 
L 359.100679 69.622691 
L 351.799529 71.995907 
L 344.498378 74.472712 
L 337.197228 77.092517 
L 329.896078 79.728442 
L 322.594928 82.319144 
L 315.293777 85.107584 
L 307.992627 87.73235 
L 300.691477 90.421699 
L 293.390327 93.229111 
L 286.089176 96.02635 
L 278.788026 98.909791 
L 271.486876 101.826746 
L 264.185725 104.868256 
L 256.884575 107.915424 
L 249.583425 111.071314 
L 242.282275 114.233492 
L 234.981124 117.477872 
L 227.679974 120.897862 
L 220.378824 124.272374 
L 213.077673 127.764137 
L 205.776523 131.238526 
L 198.475373 135.119265 
L 191.174223 138.757286 
L 183.873072 142.623955 
L 176.571922 146.872214 
L 169.270772 151.086443 
L 161.969622 155.484642 
L 154.668471 160.042256 
L 147.367321 164.748035 
L 140.066171 169.637648 
L 132.76502 174.845869 
L 125.46387 180.377267 
L 118.16272 186.502607 
L 110.86157 193.107038 
L 103.560419 200.815535 
L 96.259269 209.529054 
L 88.958119 219.922446 
L 81.656968 232.841997 
L 74.355818 249.330523 
z
" clip-path="url(#p0c3a34b694)" style="fill: #2ca02c; fill-opacity: 0.27"/>
   </g>
   <g id="FillBetweenPolyCollection_4">
    <path d="M 74.355818 251.688413 
L 74.355818 252.03192 
L 81.656968 236.275086 
L 88.958119 223.362558 
L 96.259269 212.702567 
L 103.560419 203.780087 
L 110.86157 196.15648 
L 118.16272 189.474532 
L 125.46387 183.461974 
L 132.76502 177.923416 
L 140.066171 172.724247 
L 147.367321 167.779422 
L 154.668471 163.039936 
L 161.969622 158.480411 
L 169.270772 154.090143 
L 176.571922 149.861002 
L 183.873072 145.786295 
L 191.174223 141.857175 
L 198.475373 138.061873 
L 205.776523 134.386523 
L 213.077673 130.816712 
L 220.378824 127.339157 
L 227.679974 123.94304 
L 234.981124 120.620675 
L 242.282275 117.36748 
L 249.583425 114.181294 
L 256.884575 111.0613 
L 264.185725 108.006682 
L 271.486876 105.01556 
L 278.788026 102.085372 
L 286.089176 99.21153 
L 293.390327 96.388358 
L 300.691477 93.609947 
L 307.992627 90.871186 
L 315.293777 88.168742 
L 322.594928 85.501563 
L 329.896078 82.870884 
L 337.197228 80.279581 
L 344.498378 77.73093 
L 351.799529 75.226961 
L 359.100679 72.766645 
L 366.401829 70.34562 
L 373.70298 67.954867 
L 381.00413 65.582042 
L 388.30528 63.214 
L 395.60643 60.840955 
L 402.907581 58.462121 
L 410.208731 56.09246 
L 417.509881 53.769916 
L 424.811032 51.562341 
L 432.112182 49.57326 
L 432.112182 48.529188 
L 432.112182 48.529188 
L 424.811032 50.524566 
L 417.509881 52.739029 
L 410.208731 55.068767 
L 402.907581 57.445746 
L 395.60643 59.831921 
L 388.30528 62.212293 
L 381.00413 64.587653 
L 373.70298 66.967814 
L 366.401829 69.36596 
L 359.100679 71.794471 
L 351.799529 74.26239 
L 344.498378 76.774452 
L 337.197228 79.331392 
L 329.896078 81.931129 
L 322.594928 84.570381 
L 315.293777 87.24627 
L 307.992627 89.957554 
L 300.691477 92.705294 
L 293.390327 95.492852 
L 286.089176 98.325335 
L 278.788026 101.20866 
L 271.486876 104.148518 
L 264.185725 107.149511 
L 256.884575 110.214678 
L 249.583425 113.345585 
L 242.282275 116.542913 
L 234.981124 119.807493 
L 227.679974 123.141495 
L 220.378824 126.549534 
L 213.077673 130.039341 
L 205.776523 133.621785 
L 198.475373 137.310183 
L 191.174223 141.119001 
L 183.873072 145.062153 
L 176.571922 149.151441 
L 169.270772 153.395728 
L 161.969622 157.80153 
L 154.668471 162.375631 
L 147.367321 167.13024 
L 140.066171 172.090853 
L 132.76502 177.306696 
L 125.46387 182.863212 
L 118.16272 188.895613 
L 110.86157 195.602172 
L 103.560419 203.255875 
L 96.259269 212.213484 
L 88.958119 222.913957 
L 81.656968 235.877157 
L 74.355818 251.688413 
z
" clip-path="url(#p0c3a34b694)" style="fill: #d62728; fill-opacity: 0.45"/>
   </g>
   <g id="PathCollection_2">
    <g clip-path="url(#p0c3a34b694)">
     <use xlink:href="#m1f894259f5" x="74.355818" y="252.525774" style="fill-opacity: 0.7; stroke: #000000; stroke-opacity: 0.7"/>
     <use xlink:href="#m1f894259f5" x="106.879124" y="200.951293" style="fill-opacity: 0.7; stroke: #000000; stroke-opacity: 0.7"/>
     <use xlink:href="#m1f894259f5" x="143.01613" y="172.246803" style="fill-opacity: 0.7; stroke: #000000; stroke-opacity: 0.7"/>
     <use xlink:href="#m1f894259f5" x="179.153137" y="148.421155" style="fill-opacity: 0.7; stroke: #000000; stroke-opacity: 0.7"/>
     <use xlink:href="#m1f894259f5" x="215.290143" y="130.603927" style="fill-opacity: 0.7; stroke: #000000; stroke-opacity: 0.7"/>
     <use xlink:href="#m1f894259f5" x="251.42715" y="113.472484" style="fill-opacity: 0.7; stroke: #000000; stroke-opacity: 0.7"/>
     <use xlink:href="#m1f894259f5" x="287.564156" y="100.335538" style="fill-opacity: 0.7; stroke: #000000; stroke-opacity: 0.7"/>
     <use xlink:href="#m1f894259f5" x="323.701163" y="85.899686" style="fill-opacity: 0.7; stroke: #000000; stroke-opacity: 0.7"/>
     <use xlink:href="#m1f894259f5" x="359.838169" y="74.747526" style="fill-opacity: 0.7; stroke: #000000; stroke-opacity: 0.7"/>
     <use xlink:href="#m1f894259f5" x="395.975175" y="60.711434" style="fill-opacity: 0.7; stroke: #000000; stroke-opacity: 0.7"/>
     <use xlink:href="#m1f894259f5" x="432.112182" y="50.496804" style="fill-opacity: 0.7; stroke: #000000; stroke-opacity: 0.7"/>
    </g>
   </g>
   <g id="FillBetweenPolyCollection_5">
    <path d="M 74.355818 253.638337 
L 74.355818 258.974215 
L 81.656968 245.128969 
L 88.958119 233.429481 
L 96.259269 223.399502 
L 103.560419 215.162842 
L 110.86157 208.105691 
L 118.16272 202.12975 
L 125.46387 196.664922 
L 132.76502 191.525343 
L 140.066171 186.845381 
L 147.367321 182.226554 
L 154.668471 178.111435 
L 161.969622 173.878863 
L 169.270772 169.951281 
L 176.571922 165.998725 
L 183.873072 162.364606 
L 191.174223 158.787822 
L 198.475373 155.330348 
L 205.776523 151.968197 
L 213.077673 148.651136 
L 220.378824 145.536472 
L 227.679974 142.464551 
L 234.981124 139.45836 
L 242.282275 136.382135 
L 249.583425 133.620053 
L 256.884575 130.63833 
L 264.185725 127.960884 
L 271.486876 125.177694 
L 278.788026 122.534326 
L 286.089176 120.000254 
L 293.390327 117.427487 
L 300.691477 114.894237 
L 307.992627 112.478515 
L 315.293777 110.003805 
L 322.594928 107.579545 
L 329.896078 105.08665 
L 337.197228 102.836776 
L 344.498378 100.595238 
L 351.799529 98.201116 
L 359.100679 95.892228 
L 366.401829 93.798533 
L 373.70298 91.679058 
L 381.00413 89.477576 
L 388.30528 87.355039 
L 395.60643 85.048765 
L 402.907581 83.22905 
L 410.208731 81.243711 
L 417.509881 79.508873 
L 424.811032 77.369737 
L 432.112182 74.777043 
L 432.112182 69.36407 
L 432.112182 69.36407 
L 424.811032 70.685267 
L 417.509881 72.634984 
L 410.208731 74.89575 
L 402.907581 77.429163 
L 395.60643 79.674399 
L 388.30528 81.776575 
L 381.00413 83.979863 
L 373.70298 86.12877 
L 366.401829 88.302901 
L 359.100679 90.671189 
L 351.799529 92.702001 
L 344.498378 95.049652 
L 337.197228 97.361886 
L 329.896078 99.781121 
L 322.594928 102.016413 
L 315.293777 104.541767 
L 307.992627 107.012596 
L 300.691477 109.528748 
L 293.390327 112.030181 
L 286.089176 114.527393 
L 278.788026 117.254033 
L 271.486876 119.879195 
L 264.185725 122.606269 
L 256.884575 125.335106 
L 249.583425 128.216169 
L 242.282275 131.070158 
L 234.981124 134.023894 
L 227.679974 137.107299 
L 220.378824 140.226806 
L 213.077673 143.345613 
L 205.776523 146.577698 
L 198.475373 149.864316 
L 191.174223 153.272169 
L 183.873072 156.83337 
L 176.571922 160.584057 
L 169.270772 164.598056 
L 161.969622 168.415147 
L 154.668471 172.481429 
L 147.367321 176.864879 
L 140.066171 181.393456 
L 132.76502 186.108897 
L 125.46387 191.044553 
L 118.16272 196.499377 
L 110.86157 202.72383 
L 103.560419 209.691142 
L 96.259269 217.593663 
L 88.958119 226.954745 
L 81.656968 238.793817 
L 74.355818 253.638337 
z
" clip-path="url(#p0c3a34b694)" style="fill: #9467bd; fill-opacity: 0.27"/>
   </g>
   <g id="FillBetweenPolyCollection_6">
    <path d="M 74.355818 256.148472 
L 74.355818 256.391657 
L 81.656968 242.062526 
L 88.958119 230.323415 
L 96.259269 220.63653 
L 103.560419 212.52895 
L 110.86157 205.601377 
L 118.16272 199.531752 
L 125.46387 194.072798 
L 132.76502 189.044865 
L 140.066171 184.325482 
L 147.367321 179.837285 
L 154.668471 175.535354 
L 161.969622 171.396555 
L 169.270772 167.410278 
L 176.571922 163.570329 
L 183.873072 159.870767 
L 191.174223 156.303508 
L 198.475373 152.85781 
L 205.776523 149.521032 
L 213.077673 146.280057 
L 220.378824 143.12282 
L 227.679974 140.039504 
L 234.981124 137.023164 
L 242.282275 134.070165 
L 249.583425 131.178093 
L 256.884575 128.346418 
L 264.185725 125.574819 
L 271.486876 122.86073 
L 278.788026 120.201341 
L 286.089176 117.593363 
L 293.390327 115.0317 
L 300.691477 112.510613 
L 307.992627 110.025468 
L 315.293777 107.573227 
L 322.594928 105.152963 
L 329.896078 102.765837 
L 337.197228 100.414504 
L 344.498378 98.101765 
L 351.799529 95.829688 
L 359.100679 93.597639 
L 366.401829 91.401286 
L 373.70298 89.232367 
L 381.00413 87.079594 
L 388.30528 84.930963 
L 395.60643 82.77756 
L 402.907581 80.618727 
L 410.208731 78.468209 
L 417.509881 76.360755 
L 424.811032 74.358414 
L 432.112182 72.555771 
L 432.112182 71.750758 
L 432.112182 71.750758 
L 424.811032 73.558557 
L 417.509881 75.566722 
L 410.208731 77.680342 
L 402.907581 79.837157 
L 395.60643 82.002303 
L 388.30528 84.161988 
L 381.00413 86.316877 
L 373.70298 88.475911 
L 366.401829 90.651136 
L 359.100679 92.853882 
L 351.799529 95.092434 
L 344.498378 97.37114 
L 337.197228 99.690677 
L 329.896078 102.049139 
L 322.594928 104.443506 
L 315.293777 106.871115 
L 307.992627 109.3308 
L 300.691477 111.823494 
L 293.390327 114.352244 
L 286.089176 116.921702 
L 278.788026 119.537274 
L 271.486876 122.204166 
L 264.185725 124.926595 
L 256.884575 127.707359 
L 249.583425 130.547884 
L 242.282275 133.448784 
L 234.981124 136.410782 
L 227.679974 139.435818 
L 220.378824 142.527795 
L 213.077673 145.693531 
L 205.776523 148.943258 
L 198.475373 152.289082 
L 191.174223 155.744158 
L 183.873072 159.321161 
L 176.571922 163.030859 
L 169.270772 166.881353 
L 161.969622 170.878599 
L 154.668471 175.028789 
L 147.367321 179.343014 
L 140.066171 183.844434 
L 132.76502 188.57853 
L 125.46387 193.623101 
L 118.16272 199.100276 
L 110.86157 205.192008 
L 103.560419 212.146137 
L 96.259269 220.281001 
L 88.958119 229.998082 
L 81.656968 241.777385 
L 74.355818 256.148472 
z
" clip-path="url(#p0c3a34b694)" style="fill: #8c564b; fill-opacity: 0.45"/>
   </g>
   <g id="PathCollection_3">
    <g clip-path="url(#p0c3a34b694)">
     <use xlink:href="#m1f894259f5" x="74.355818" y="256.212318" style="fill-opacity: 0.7; stroke: #000000; stroke-opacity: 0.7"/>
     <use xlink:href="#m1f894259f5" x="106.879124" y="209.495782" style="fill-opacity: 0.7; stroke: #000000; stroke-opacity: 0.7"/>
     <use xlink:href="#m1f894259f5" x="143.01613" y="184.933143" style="fill-opacity: 0.7; stroke: #000000; stroke-opacity: 0.7"/>
     <use xlink:href="#m1f894259f5" x="179.153137" y="162.556664" style="fill-opacity: 0.7; stroke: #000000; stroke-opacity: 0.7"/>
     <use xlink:href="#m1f894259f5" x="215.290143" y="144.134312" style="fill-opacity: 0.7; stroke: #000000; stroke-opacity: 0.7"/>
     <use xlink:href="#m1f894259f5" x="251.42715" y="134.374868" style="fill-opacity: 0.7; stroke: #000000; stroke-opacity: 0.7"/>
     <use xlink:href="#m1f894259f5" x="287.564156" y="121.272226" style="fill-opacity: 0.7; stroke: #000000; stroke-opacity: 0.7"/>
     <use xlink:href="#m1f894259f5" x="323.701163" y="108.8409" style="fill-opacity: 0.7; stroke: #000000; stroke-opacity: 0.7"/>
     <use xlink:href="#m1f894259f5" x="359.838169" y="94.44832" style="fill-opacity: 0.7; stroke: #000000; stroke-opacity: 0.7"/>
     <use xlink:href="#m1f894259f5" x="395.975175" y="84.82259" style="fill-opacity: 0.7; stroke: #000000; stroke-opacity: 0.7"/>
     <use xlink:href="#m1f894259f5" x="432.112182" y="73.570893" style="fill-opacity: 0.7; stroke: #000000; stroke-opacity: 0.7"/>
    </g>
   </g>
   <g id="FillBetweenPolyCollection_7">
    <path d="M 74.355818 259.830482 
L 74.355818 265.169256 
L 81.656968 253.332717 
L 88.958119 243.167501 
L 96.259269 234.719029 
L 103.560419 227.540947 
L 110.86157 221.399483 
L 118.16272 216.244176 
L 125.46387 211.662879 
L 132.76502 207.182278 
L 140.066171 203.083477 
L 147.367321 199.315973 
L 154.668471 195.717774 
L 161.969622 192.048091 
L 169.270772 188.603516 
L 176.571922 185.286037 
L 183.873072 182.225576 
L 191.174223 178.998189 
L 198.475373 176.053225 
L 205.776523 173.164459 
L 213.077673 170.470054 
L 220.378824 167.739666 
L 227.679974 165.07163 
L 234.981124 162.431377 
L 242.282275 159.905436 
L 249.583425 157.352383 
L 256.884575 155.022924 
L 264.185725 152.614885 
L 271.486876 150.277531 
L 278.788026 148.046156 
L 286.089176 145.732517 
L 293.390327 143.54248 
L 300.691477 141.357996 
L 307.992627 139.272695 
L 315.293777 137.098271 
L 322.594928 135.01204 
L 329.896078 132.871439 
L 337.197228 130.97075 
L 344.498378 128.973606 
L 351.799529 127.093329 
L 359.100679 125.114087 
L 366.401829 123.173584 
L 373.70298 121.524915 
L 381.00413 119.601148 
L 388.30528 117.746117 
L 395.60643 115.785575 
L 402.907581 114.074953 
L 410.208731 112.699758 
L 417.509881 111.005261 
L 424.811032 109.335086 
L 432.112182 107.027442 
L 432.112182 101.661116 
L 432.112182 101.661116 
L 424.811032 102.589774 
L 417.509881 104.212327 
L 410.208731 106.178569 
L 402.907581 108.413073 
L 395.60643 110.404151 
L 388.30528 112.185926 
L 381.00413 113.977898 
L 373.70298 115.897943 
L 366.401829 117.897611 
L 359.100679 119.665661 
L 351.799529 121.584136 
L 344.498378 123.53729 
L 337.197228 125.595601 
L 329.896078 127.578439 
L 322.594928 129.73218 
L 315.293777 131.634489 
L 307.992627 133.889249 
L 300.691477 135.945178 
L 293.390327 138.055622 
L 286.089176 140.388189 
L 278.788026 142.573572 
L 271.486876 144.948124 
L 264.185725 147.243825 
L 256.884575 149.595084 
L 249.583425 151.966254 
L 242.282275 154.479574 
L 234.981124 157.046808 
L 227.679974 159.615691 
L 220.378824 162.268479 
L 213.077673 165.033706 
L 205.776523 167.891624 
L 198.475373 170.570835 
L 191.174223 173.692207 
L 183.873072 176.738799 
L 176.571922 179.894808 
L 169.270772 183.224718 
L 161.969622 186.646167 
L 154.668471 190.145615 
L 147.367321 193.960641 
L 140.066171 197.809301 
L 132.76502 201.73013 
L 125.46387 205.94668 
L 118.16272 210.763971 
L 110.86157 216.092815 
L 103.560419 222.135954 
L 96.259269 228.754902 
L 88.958119 236.82887 
L 81.656968 246.912037 
L 74.355818 259.830482 
z
" clip-path="url(#p0c3a34b694)" style="fill: #e377c2; fill-opacity: 0.27"/>
   </g>
   <g id="FillBetweenPolyCollection_8">
    <path d="M 74.355818 262.42443 
L 74.355818 262.613444 
L 81.656968 250.279471 
L 88.958119 240.175643 
L 96.259269 231.840432 
L 103.560419 224.863572 
L 110.86157 218.905261 
L 118.16272 213.688179 
L 125.46387 208.997461 
L 132.76502 204.678128 
L 140.066171 200.624499 
L 147.367321 196.769783 
L 154.668471 193.075505 
L 161.969622 189.521736 
L 169.270772 186.098937 
L 176.571922 182.801809 
L 183.873072 179.62527 
L 191.174223 176.562412 
L 198.475373 173.60404 
L 205.776523 170.739318 
L 213.077673 167.956987 
L 220.378824 165.247198 
L 227.679974 162.601344 
L 234.981124 160.013061 
L 242.282275 157.478786 
L 249.583425 154.996583 
L 256.884575 152.56551 
L 264.185725 150.185605 
L 271.486876 147.855636 
L 278.788026 145.573186 
L 286.089176 143.334655 
L 293.390327 141.135603 
L 300.691477 138.97141 
L 307.992627 136.838109 
L 315.293777 134.733101 
L 322.594928 132.655598 
L 329.896078 130.606603 
L 337.197228 128.588394 
L 344.498378 126.603542 
L 351.799529 124.653662 
L 359.100679 122.73796 
L 366.401829 120.852825 
L 373.70298 118.991202 
L 381.00413 117.143389 
L 388.30528 115.299084 
L 395.60643 113.450665 
L 402.907581 111.597603 
L 410.208731 109.751747 
L 417.509881 107.942959 
L 424.811032 106.224498 
L 432.112182 104.677464 
L 432.112182 103.898263 
L 432.112182 103.898263 
L 424.811032 105.450509 
L 417.509881 107.174893 
L 410.208731 108.989972 
L 402.907581 110.842262 
L 395.60643 112.701775 
L 388.30528 114.556615 
L 381.00413 116.407306 
L 373.70298 118.261511 
L 366.401829 120.129568 
L 359.100679 122.021239 
L 351.799529 123.944135 
L 344.498378 125.901529 
L 337.197228 127.894028 
L 329.896078 129.920012 
L 322.594928 131.976903 
L 315.293777 134.062416 
L 307.992627 136.175547 
L 300.691477 138.317086 
L 293.390327 140.489643 
L 286.089176 142.697203 
L 278.788026 144.9444 
L 271.486876 147.2357 
L 264.185725 149.574725 
L 256.884575 151.963881 
L 249.583425 154.404405 
L 242.282275 156.896841 
L 234.981124 159.441832 
L 227.679974 162.041064 
L 220.378824 164.698119 
L 213.077673 167.419013 
L 205.776523 170.212223 
L 198.475373 173.088161 
L 191.174223 176.058128 
L 183.873072 179.133 
L 176.571922 182.322006 
L 169.270772 185.632077 
L 161.969622 189.068323 
L 154.668471 192.634076 
L 147.367321 196.339992 
L 140.066171 200.20686 
L 132.76502 204.273288 
L 125.46387 208.606295 
L 118.16272 213.311979 
L 110.86157 218.54953 
L 103.560419 224.529788 
L 96.259269 231.531605 
L 88.958119 239.898169 
L 81.656968 250.038849 
L 74.355818 262.42443 
z
" clip-path="url(#p0c3a34b694)" style="fill: #7f7f7f; fill-opacity: 0.45"/>
   </g>
   <g id="PathCollection_4">
    <g clip-path="url(#p0c3a34b694)">
     <use xlink:href="#m1f894259f5" x="74.355818" y="260.664447" style="fill-opacity: 0.7; stroke: #000000; stroke-opacity: 0.7"/>
     <use xlink:href="#m1f894259f5" x="106.879124" y="220.023109" style="fill-opacity: 0.7; stroke: #000000; stroke-opacity: 0.7"/>
     <use xlink:href="#m1f894259f5" x="143.01613" y="196.500289" style="fill-opacity: 0.7; stroke: #000000; stroke-opacity: 0.7"/>
     <use xlink:href="#m1f894259f5" x="179.153137" y="179.406347" style="fill-opacity: 0.7; stroke: #000000; stroke-opacity: 0.7"/>
     <use xlink:href="#m1f894259f5" x="215.290143" y="163.219457" style="fill-opacity: 0.7; stroke: #000000; stroke-opacity: 0.7"/>
     <use xlink:href="#m1f894259f5" x="251.42715" y="152.891694" style="fill-opacity: 0.7; stroke: #000000; stroke-opacity: 0.7"/>
     <use xlink:href="#m1f894259f5" x="287.564156" y="140.249186" style="fill-opacity: 0.7; stroke: #000000; stroke-opacity: 0.7"/>
     <use xlink:href="#m1f894259f5" x="323.701163" y="128.62989" style="fill-opacity: 0.7; stroke: #000000; stroke-opacity: 0.7"/>
     <use xlink:href="#m1f894259f5" x="359.838169" y="116.583514" style="fill-opacity: 0.7; stroke: #000000; stroke-opacity: 0.7"/>
     <use xlink:href="#m1f894259f5" x="395.975175" y="110.640096" style="fill-opacity: 0.7; stroke: #000000; stroke-opacity: 0.7"/>
     <use xlink:href="#m1f894259f5" x="432.112182" y="102.220722" style="fill-opacity: 0.7; stroke: #000000; stroke-opacity: 0.7"/>
    </g>
   </g>
   <g id="FillBetweenPolyCollection_9">
    <path d="M 74.355818 264.81068 
L 74.355818 270.167445 
L 81.656968 260.033457 
L 88.958119 251.054324 
L 96.259269 243.473965 
L 103.560419 237.210626 
L 110.86157 232.025166 
L 118.16272 227.547997 
L 125.46387 223.414684 
L 132.76502 219.648093 
L 140.066171 216.016135 
L 147.367321 212.637784 
L 154.668471 209.434168 
L 161.969622 206.246974 
L 169.270772 203.299569 
L 176.571922 200.43507 
L 183.873072 197.73876 
L 191.174223 194.921701 
L 198.475373 192.367049 
L 205.776523 189.924096 
L 213.077673 187.43933 
L 220.378824 185.112683 
L 227.679974 182.854941 
L 234.981124 180.570429 
L 242.282275 178.318763 
L 249.583425 176.232157 
L 256.884575 173.945311 
L 264.185725 172.001421 
L 271.486876 169.948729 
L 278.788026 167.934728 
L 286.089176 165.976692 
L 293.390327 164.044579 
L 300.691477 162.097537 
L 307.992627 160.246835 
L 315.293777 158.376232 
L 322.594928 156.679884 
L 329.896078 154.779448 
L 337.197228 153.088029 
L 344.498378 151.352401 
L 351.799529 149.631684 
L 359.100679 147.939678 
L 366.401829 146.36366 
L 373.70298 144.789212 
L 381.00413 143.2792 
L 388.30528 141.614816 
L 395.60643 139.847124 
L 402.907581 138.468167 
L 410.208731 137.214303 
L 417.509881 135.746105 
L 424.811032 134.240168 
L 432.112182 132.20726 
L 432.112182 126.826079 
L 432.112182 126.826079 
L 424.811032 127.422303 
L 417.509881 128.890264 
L 410.208731 130.729108 
L 402.907581 132.589645 
L 395.60643 134.411535 
L 388.30528 135.937373 
L 381.00413 137.47189 
L 373.70298 139.195383 
L 366.401829 140.926655 
L 359.100679 142.593218 
L 351.799529 144.246893 
L 344.498378 145.996671 
L 337.197228 147.674152 
L 329.896078 149.372605 
L 322.594928 151.258303 
L 315.293777 153.05346 
L 307.992627 154.873354 
L 300.691477 156.685132 
L 293.390327 158.685266 
L 286.089176 160.575772 
L 278.788026 162.477076 
L 271.486876 164.496927 
L 264.185725 166.537427 
L 256.884575 168.551735 
L 249.583425 170.806437 
L 242.282275 172.946745 
L 234.981124 175.111218 
L 227.679974 177.457193 
L 220.378824 179.864153 
L 213.077673 182.05542 
L 205.776523 184.470608 
L 198.475373 187.030693 
L 191.174223 189.591813 
L 183.873072 192.332028 
L 176.571922 194.995122 
L 169.270772 197.899452 
L 161.969622 200.864958 
L 154.668471 204.001481 
L 147.367321 207.235059 
L 140.066171 210.638573 
L 132.76502 214.094926 
L 125.46387 217.866342 
L 118.16272 221.834821 
L 110.86157 226.645237 
L 103.560419 231.687369 
L 96.259269 237.621892 
L 88.958119 244.710304 
L 81.656968 253.48587 
L 74.355818 264.81068 
z
" clip-path="url(#p0c3a34b694)" style="fill: #bcbd22; fill-opacity: 0.27"/>
   </g>
   <g id="FillBetweenPolyCollection_10">
    <path d="M 74.355818 267.411475 
L 74.355818 267.616784 
L 81.656968 256.846762 
L 88.958119 248.025541 
L 96.259269 240.749639 
L 103.560419 234.663644 
L 110.86157 229.466855 
L 118.16272 224.916512 
L 125.46387 220.826039 
L 132.76502 217.059691 
L 140.066171 213.526061 
L 147.367321 210.166054 
L 154.668471 206.945914 
L 161.969622 203.848157 
L 169.270772 200.864432 
L 176.571922 197.99014 
L 183.873072 195.22091 
L 191.174223 192.550794 
L 198.475373 189.971841 
L 205.776523 187.474657 
L 213.077673 185.04945 
L 220.378824 182.687191 
L 227.679974 180.380574 
L 234.981124 178.124766 
L 242.282275 175.916092 
L 249.583425 173.753051 
L 256.884575 171.635047 
L 264.185725 169.561588 
L 271.486876 167.531595 
L 278.788026 165.542983 
L 286.089176 163.592629 
L 293.390327 161.67668 
L 300.691477 159.791141 
L 307.992627 157.932576 
L 315.293777 156.098738 
L 322.594928 154.288941 
L 329.896078 152.504048 
L 337.197228 150.746022 
L 344.498378 149.017072 
L 351.799529 147.318577 
L 359.100679 145.649987 
L 366.401829 144.008031 
L 373.70298 142.386521 
L 381.00413 140.777031 
L 388.30528 139.170632 
L 395.60643 137.560721 
L 402.907581 135.946866 
L 410.208731 134.339367 
L 417.509881 132.76413 
L 424.811032 131.267312 
L 432.112182 129.919142 
L 432.112182 129.023824 
L 432.112182 129.023824 
L 424.811032 130.37878 
L 417.509881 131.883095 
L 410.208731 133.466197 
L 402.907581 135.081705 
L 395.60643 136.70367 
L 388.30528 138.321895 
L 381.00413 139.936596 
L 373.70298 141.554406 
L 366.401829 143.184298 
L 359.100679 144.834734 
L 351.799529 146.511932 
L 344.498378 148.219178 
L 337.197228 149.957029 
L 329.896078 151.724105 
L 322.594928 153.518187 
L 315.293777 155.33731 
L 307.992627 157.180609 
L 300.691477 159.048607 
L 293.390327 160.943616 
L 286.089176 162.869193 
L 278.788026 164.829355 
L 271.486876 166.827969 
L 264.185725 168.868177 
L 256.884575 170.952068 
L 249.583425 173.080733 
L 242.282275 175.254669 
L 234.981124 177.474477 
L 227.679974 179.741672 
L 220.378824 182.059427 
L 213.077673 184.433026 
L 205.776523 186.869889 
L 198.475373 189.379095 
L 191.174223 191.970481 
L 183.873072 194.653479 
L 176.571922 197.436076 
L 169.270772 200.324246 
L 161.969622 203.322371 
L 154.668471 206.435077 
L 147.367321 209.670753 
L 140.066171 213.046985 
L 132.76502 216.597715 
L 125.46387 220.381809 
L 118.16272 224.492332 
L 110.86157 229.065633 
L 103.560419 234.289178 
L 96.259269 240.406873 
L 88.958119 247.720819 
L 81.656968 256.588456 
L 74.355818 267.411475 
z
" clip-path="url(#p0c3a34b694)" style="fill: #17becf; fill-opacity: 0.45"/>
   </g>
   <g id="PathCollection_5">
    <g clip-path="url(#p0c3a34b694)">
     <use xlink:href="#m1f894259f5" x="74.355818" y="267.777221" style="fill-opacity: 0.7; stroke: #000000; stroke-opacity: 0.7"/>
     <use xlink:href="#m1f894259f5" x="106.879124" y="229.992787" style="fill-opacity: 0.7; stroke: #000000; stroke-opacity: 0.7"/>
     <use xlink:href="#m1f894259f5" x="143.01613" y="211.347264" style="fill-opacity: 0.7; stroke: #000000; stroke-opacity: 0.7"/>
     <use xlink:href="#m1f894259f5" x="179.153137" y="193.983414" style="fill-opacity: 0.7; stroke: #000000; stroke-opacity: 0.7"/>
     <use xlink:href="#m1f894259f5" x="215.290143" y="185.442861" style="fill-opacity: 0.7; stroke: #000000; stroke-opacity: 0.7"/>
     <use xlink:href="#m1f894259f5" x="251.42715" y="170.237615" style="fill-opacity: 0.7; stroke: #000000; stroke-opacity: 0.7"/>
     <use xlink:href="#m1f894259f5" x="287.564156" y="160.255742" style="fill-opacity: 0.7; stroke: #000000; stroke-opacity: 0.7"/>
     <use xlink:href="#m1f894259f5" x="323.701163" y="154.24618" style="fill-opacity: 0.7; stroke: #000000; stroke-opacity: 0.7"/>
     <use xlink:href="#m1f894259f5" x="359.838169" y="143.542051" style="fill-opacity: 0.7; stroke: #000000; stroke-opacity: 0.7"/>
     <use xlink:href="#m1f894259f5" x="395.975175" y="134.051474" style="fill-opacity: 0.7; stroke: #000000; stroke-opacity: 0.7"/>
     <use xlink:href="#m1f894259f5" x="432.112182" y="127.919338" style="fill-opacity: 0.7; stroke: #000000; stroke-opacity: 0.7"/>
    </g>
   </g>
   <g id="FillBetweenPolyCollection_11">
    <path d="M 74.355818 270.073509 
L 74.355818 275.325138 
L 81.656968 266.89052 
L 88.958119 259.259166 
L 96.259269 252.86367 
L 103.560419 247.488217 
L 110.86157 242.971299 
L 118.16272 239.265416 
L 125.46387 235.756231 
L 132.76502 232.493926 
L 140.066171 229.399171 
L 147.367321 226.578275 
L 154.668471 223.916286 
L 161.969622 221.314841 
L 169.270772 218.681819 
L 176.571922 216.17669 
L 183.873072 213.807942 
L 191.174223 211.752883 
L 198.475373 209.492312 
L 205.776523 207.350414 
L 213.077673 205.337608 
L 220.378824 203.225334 
L 227.679974 201.254333 
L 234.981124 199.353221 
L 242.282275 197.464194 
L 249.583425 195.482356 
L 256.884575 193.881776 
L 264.185725 192.135576 
L 271.486876 190.352406 
L 278.788026 188.681342 
L 286.089176 187.075927 
L 293.390327 185.413605 
L 300.691477 183.726451 
L 307.992627 182.179406 
L 315.293777 180.616 
L 322.594928 179.079807 
L 329.896078 177.532337 
L 337.197228 176.144413 
L 344.498378 174.677493 
L 351.799529 173.173533 
L 359.100679 171.735613 
L 366.401829 170.460574 
L 373.70298 169.005897 
L 381.00413 167.771943 
L 388.30528 166.320491 
L 395.60643 164.92848 
L 402.907581 163.638628 
L 410.208731 162.720484 
L 417.509881 161.470308 
L 424.811032 160.145735 
L 432.112182 158.410715 
L 432.112182 152.959006 
L 432.112182 152.959006 
L 424.811032 153.523116 
L 417.509881 154.676881 
L 410.208731 156.159712 
L 402.907581 157.844061 
L 395.60643 159.454291 
L 388.30528 160.698318 
L 381.00413 162.029981 
L 373.70298 163.442629 
L 366.401829 164.906664 
L 359.100679 166.270041 
L 351.799529 167.710719 
L 344.498378 169.124708 
L 337.197228 170.656219 
L 329.896078 172.024695 
L 322.594928 173.738029 
L 315.293777 175.182535 
L 307.992627 176.783258 
L 300.691477 178.331039 
L 293.390327 179.974975 
L 286.089176 181.511637 
L 278.788026 183.294344 
L 271.486876 184.898011 
L 264.185725 186.678099 
L 256.884575 188.418623 
L 249.583425 190.216167 
L 242.282275 192.105941 
L 234.981124 193.905591 
L 227.679974 195.800015 
L 220.378824 197.907327 
L 213.077673 199.928622 
L 205.776523 201.901504 
L 198.475373 203.962973 
L 191.174223 206.245855 
L 183.873072 208.492937 
L 176.571922 210.855539 
L 169.270772 213.218043 
L 161.969622 215.809921 
L 154.668471 218.375625 
L 147.367321 221.190414 
L 140.066171 224.064868 
L 132.76502 226.975912 
L 125.46387 230.16648 
L 118.16272 233.749587 
L 110.86157 237.53246 
L 103.560419 241.968041 
L 96.259269 246.89146 
L 88.958119 252.943312 
L 81.656968 260.553583 
L 74.355818 270.073509 
z
" clip-path="url(#p0c3a34b694)" style="fill: #1f77b4; fill-opacity: 0.27"/>
   </g>
   <g id="FillBetweenPolyCollection_12">
    <path d="M 74.355818 272.673447 
L 74.355818 272.918011 
L 81.656968 263.772095 
L 88.958119 256.279191 
L 96.259269 250.101132 
L 103.560419 244.934511 
L 110.86157 240.524192 
L 118.16272 236.664004 
L 125.46387 233.195198 
L 132.76502 230.002575 
L 140.066171 227.007274 
L 147.367321 224.159359 
L 154.668471 221.430007 
L 161.969622 218.804272 
L 169.270772 216.275042 
L 176.571922 213.838436 
L 183.873072 211.490809 
L 191.174223 209.227187 
L 198.475373 207.040909 
L 205.776523 204.924065 
L 213.077673 202.868396 
L 220.378824 200.866247 
L 227.679974 198.911349 
L 234.981124 196.999208 
L 242.282275 195.127106 
L 249.583425 193.293717 
L 256.884575 191.498493 
L 264.185725 189.740984 
L 271.486876 188.020257 
L 278.788026 186.33455 
L 286.089176 184.681233 
L 293.390327 183.05707 
L 300.691477 181.458709 
L 307.992627 179.883268 
L 315.293777 178.328865 
L 322.594928 176.794928 
L 329.896078 175.28218 
L 337.197228 173.792258 
L 344.498378 172.327004 
L 351.799529 170.887547 
L 359.100679 169.47339 
L 366.401829 168.081743 
L 373.70298 166.707368 
L 381.00413 165.343155 
L 388.30528 163.981584 
L 395.60643 162.617112 
L 402.907581 161.249408 
L 410.208731 159.887179 
L 417.509881 158.552249 
L 424.811032 157.283446 
L 432.112182 156.139767 
L 432.112182 155.137224 
L 432.112182 155.137224 
L 424.811032 156.28811 
L 417.509881 157.564954 
L 410.208731 158.908353 
L 402.907581 160.279216 
L 395.60643 161.65557 
L 388.30528 163.028653 
L 381.00413 164.398802 
L 373.70298 165.771597 
L 366.401829 167.154614 
L 359.100679 168.555012 
L 351.799529 169.978065 
L 344.498378 171.426583 
L 337.197228 172.901066 
L 329.896078 174.400378 
L 322.594928 175.922668 
L 315.293777 177.466284 
L 307.992627 179.030499 
L 300.691477 180.61589 
L 293.390327 182.224351 
L 286.089176 183.85878 
L 278.788026 185.522552 
L 271.486876 187.218927 
L 264.185725 188.95055 
L 256.884575 190.719195 
L 249.583425 192.525801 
L 242.282275 194.370826 
L 234.981124 196.25482 
L 227.679974 198.17912 
L 220.378824 200.146469 
L 213.077673 202.161384 
L 205.776523 204.230181 
L 198.475373 206.360561 
L 191.174223 208.560836 
L 183.873072 210.838958 
L 176.571922 213.201633 
L 169.270772 215.653858 
L 161.969622 218.199298 
L 154.668471 220.84186 
L 147.367321 223.588711 
L 140.066171 226.454905 
L 132.76502 229.469484 
L 125.46387 232.682749 
L 118.16272 236.174137 
L 110.86157 240.059933 
L 103.560419 244.499847 
L 96.259269 249.70137 
L 88.958119 255.921823 
L 81.656968 263.464598 
L 74.355818 272.673447 
z
" clip-path="url(#p0c3a34b694)" style="fill: #ff7f0e; fill-opacity: 0.45"/>
   </g>
   <g id="PathCollection_6">
    <g clip-path="url(#p0c3a34b694)">
     <use xlink:href="#m1f894259f5" x="74.355818" y="271.518626" style="fill-opacity: 0.7; stroke: #000000; stroke-opacity: 0.7"/>
     <use xlink:href="#m1f894259f5" x="106.879124" y="239.784368" style="fill-opacity: 0.7; stroke: #000000; stroke-opacity: 0.7"/>
     <use xlink:href="#m1f894259f5" x="143.01613" y="225.650716" style="fill-opacity: 0.7; stroke: #000000; stroke-opacity: 0.7"/>
     <use xlink:href="#m1f894259f5" x="179.153137" y="213.608198" style="fill-opacity: 0.7; stroke: #000000; stroke-opacity: 0.7"/>
     <use xlink:href="#m1f894259f5" x="215.290143" y="203.572183" style="fill-opacity: 0.7; stroke: #000000; stroke-opacity: 0.7"/>
     <use xlink:href="#m1f894259f5" x="251.42715" y="192.3146" style="fill-opacity: 0.7; stroke: #000000; stroke-opacity: 0.7"/>
     <use xlink:href="#m1f894259f5" x="287.564156" y="184.994103" style="fill-opacity: 0.7; stroke: #000000; stroke-opacity: 0.7"/>
     <use xlink:href="#m1f894259f5" x="323.701163" y="177.22449" style="fill-opacity: 0.7; stroke: #000000; stroke-opacity: 0.7"/>
     <use xlink:href="#m1f894259f5" x="359.838169" y="169.930871" style="fill-opacity: 0.7; stroke: #000000; stroke-opacity: 0.7"/>
     <use xlink:href="#m1f894259f5" x="395.975175" y="162.178531" style="fill-opacity: 0.7; stroke: #000000; stroke-opacity: 0.7"/>
     <use xlink:href="#m1f894259f5" x="432.112182" y="158.08528" style="fill-opacity: 0.7; stroke: #000000; stroke-opacity: 0.7"/>
    </g>
   </g>
   <g id="FillBetweenPolyCollection_13">
    <path d="M 74.355818 275.676288 
L 74.355818 281.077546 
L 81.656968 274.136843 
L 88.958119 267.963412 
L 96.259269 262.69415 
L 103.560419 258.210681 
L 110.86157 254.612329 
L 118.16272 251.476051 
L 125.46387 248.660276 
L 132.76502 246.043201 
L 140.066171 243.477781 
L 147.367321 241.220023 
L 154.668471 238.960736 
L 161.969622 236.793726 
L 169.270772 234.70391 
L 176.571922 232.809175 
L 183.873072 230.83543 
L 191.174223 228.916203 
L 198.475373 227.15313 
L 205.776523 225.405221 
L 213.077673 223.773959 
L 220.378824 222.137073 
L 227.679974 220.524509 
L 234.981124 219.065497 
L 242.282275 217.372668 
L 249.583425 215.984041 
L 256.884575 214.505838 
L 264.185725 212.976287 
L 271.486876 211.630059 
L 278.788026 210.263396 
L 286.089176 208.920794 
L 293.390327 207.581353 
L 300.691477 206.189829 
L 307.992627 205.018985 
L 315.293777 203.638229 
L 322.594928 202.438106 
L 329.896078 201.367307 
L 337.197228 200.108732 
L 344.498378 198.761716 
L 351.799529 197.653156 
L 359.100679 196.440846 
L 366.401829 195.396093 
L 373.70298 194.341731 
L 381.00413 193.115902 
L 388.30528 192.062285 
L 395.60643 190.864063 
L 402.907581 189.856412 
L 410.208731 189.093723 
L 417.509881 188.270017 
L 424.811032 187.232192 
L 432.112182 185.614199 
L 432.112182 180.036991 
L 432.112182 180.036991 
L 424.811032 180.43422 
L 417.509881 181.275236 
L 410.208731 182.603857 
L 402.907581 184.081464 
L 395.60643 185.456491 
L 388.30528 186.452523 
L 381.00413 187.538333 
L 373.70298 188.665205 
L 366.401829 189.915828 
L 359.100679 191.063522 
L 351.799529 192.205839 
L 344.498378 193.311934 
L 337.197228 194.58969 
L 329.896078 195.934547 
L 322.594928 197.021894 
L 315.293777 198.23563 
L 307.992627 199.561818 
L 300.691477 200.759373 
L 293.390327 202.052498 
L 286.089176 203.407489 
L 278.788026 204.859156 
L 271.486876 206.197599 
L 264.185725 207.54312 
L 256.884575 209.030244 
L 249.583425 210.517589 
L 242.282275 212.056478 
L 234.981124 213.57219 
L 227.679974 215.245309 
L 220.378824 216.789854 
L 213.077673 218.335386 
L 205.776523 220.125698 
L 198.475373 221.777754 
L 191.174223 223.556268 
L 183.873072 225.399563 
L 176.571922 227.352882 
L 169.270772 229.32843 
L 161.969622 231.301453 
L 154.668471 233.546938 
L 147.367321 235.82545 
L 140.066171 238.084674 
L 132.76502 240.477516 
L 125.46387 242.993389 
L 118.16272 245.733673 
L 110.86157 249.171733 
L 103.560419 252.644665 
L 96.259269 256.69571 
L 88.958119 261.486813 
L 81.656968 267.559404 
L 74.355818 275.676288 
z
" clip-path="url(#p0c3a34b694)" style="fill: #2ca02c; fill-opacity: 0.27"/>
   </g>
   <g id="FillBetweenPolyCollection_14">
    <path d="M 74.355818 278.251977 
L 74.355818 278.511798 
L 81.656968 271.048351 
L 88.958119 264.93494 
L 96.259269 259.89366 
L 103.560419 255.678596 
L 110.86157 252.081589 
L 118.16272 248.934314 
L 125.46387 246.107204 
L 132.76502 243.505856 
L 140.066171 241.06572 
L 147.367321 238.745877 
L 154.668471 236.522675 
L 161.969622 234.383838 
L 169.270772 232.323523 
L 176.571922 230.338571 
L 183.873072 228.426034 
L 191.174223 226.581906 
L 198.475373 224.80081 
L 205.776523 223.076345 
L 213.077673 221.401813 
L 220.378824 219.771001 
L 227.679974 218.178802 
L 234.981124 216.621542 
L 242.282275 215.096982 
L 249.583425 213.604005 
L 256.884575 212.142133 
L 264.185725 210.710963 
L 271.486876 209.309708 
L 278.788026 207.936919 
L 286.089176 206.590453 
L 293.390327 205.267684 
L 300.691477 203.965906 
L 307.992627 202.682803 
L 315.293777 201.416873 
L 322.594928 200.167675 
L 329.896078 198.935815 
L 337.197228 197.722625 
L 344.498378 196.529591 
L 351.799529 195.357598 
L 359.100679 194.206202 
L 366.401829 193.073089 
L 373.70298 191.953961 
L 381.00413 190.843017 
L 388.30528 189.734145 
L 395.60643 188.622876 
L 402.907581 187.508997 
L 410.208731 186.399659 
L 417.509881 185.312653 
L 424.811032 184.279521 
L 432.112182 183.348079 
L 432.112182 182.338798 
L 432.112182 182.338798 
L 424.811032 183.27726 
L 417.509881 184.318317 
L 410.208731 185.413711 
L 402.907581 186.531609 
L 395.60643 187.654057 
L 388.30528 188.77385 
L 381.00413 189.891204 
L 373.70298 191.010637 
L 366.401829 192.138314 
L 359.100679 193.280094 
L 351.799529 194.440314 
L 344.498378 195.621308 
L 337.197228 196.823522 
L 329.896078 198.046056 
L 322.594928 199.287375 
L 315.293777 200.546087 
L 307.992627 201.821654 
L 300.691477 203.114522 
L 293.390327 204.426204 
L 286.089176 205.759037 
L 278.788026 207.115751 
L 271.486876 208.498997 
L 264.185725 209.910937 
L 256.884575 211.353034 
L 249.583425 212.826081 
L 242.282275 214.330483 
L 234.981124 215.866721 
L 227.679974 217.435917 
L 220.378824 219.040327 
L 213.077673 220.683656 
L 205.776523 222.371048 
L 198.475373 224.108774 
L 191.174223 225.903587 
L 183.873072 227.761939 
L 176.571922 229.689254 
L 169.270772 231.689573 
L 161.969622 233.765864 
L 154.668471 235.921308 
L 147.367321 238.161796 
L 140.066171 240.499701 
L 132.76502 242.958872 
L 125.46387 245.580574 
L 118.16272 248.429937 
L 110.86157 251.602451 
L 103.560419 255.228594 
L 96.259269 259.478199 
L 88.958119 264.561315 
L 81.656968 270.725444 
L 74.355818 278.251977 
z
" clip-path="url(#p0c3a34b694)" style="fill: #d62728; fill-opacity: 0.45"/>
   </g>
   <g id="PathCollection_7">
    <g clip-path="url(#p0c3a34b694)">
     <use xlink:href="#m1f894259f5" x="74.355818" y="281.094558" style="fill-opacity: 0.7; stroke: #000000; stroke-opacity: 0.7"/>
     <use xlink:href="#m1f894259f5" x="106.879124" y="258.472475" style="fill-opacity: 0.7; stroke: #000000; stroke-opacity: 0.7"/>
     <use xlink:href="#m1f894259f5" x="143.01613" y="240.16497" style="fill-opacity: 0.7; stroke: #000000; stroke-opacity: 0.7"/>
     <use xlink:href="#m1f894259f5" x="179.153137" y="231.487785" style="fill-opacity: 0.7; stroke: #000000; stroke-opacity: 0.7"/>
     <use xlink:href="#m1f894259f5" x="215.290143" y="221.071354" style="fill-opacity: 0.7; stroke: #000000; stroke-opacity: 0.7"/>
     <use xlink:href="#m1f894259f5" x="251.42715" y="215.633444" style="fill-opacity: 0.7; stroke: #000000; stroke-opacity: 0.7"/>
     <use xlink:href="#m1f894259f5" x="287.564156" y="209.889076" style="fill-opacity: 0.7; stroke: #000000; stroke-opacity: 0.7"/>
     <use xlink:href="#m1f894259f5" x="323.701163" y="202.103542" style="fill-opacity: 0.7; stroke: #000000; stroke-opacity: 0.7"/>
     <use xlink:href="#m1f894259f5" x="359.838169" y="197.115051" style="fill-opacity: 0.7; stroke: #000000; stroke-opacity: 0.7"/>
     <use xlink:href="#m1f894259f5" x="395.975175" y="193.311212" style="fill-opacity: 0.7; stroke: #000000; stroke-opacity: 0.7"/>
     <use xlink:href="#m1f894259f5" x="432.112182" y="187.748291" style="fill-opacity: 0.7; stroke: #000000; stroke-opacity: 0.7"/>
    </g>
   </g>
   <g id="FillBetweenPolyCollection_15">
    <path d="M 74.355818 283.610009 
L 74.355818 288.954545 
L 81.656968 284.491318 
L 88.958119 280.248504 
L 96.259269 276.537174 
L 103.560419 273.346276 
L 110.86157 270.777611 
L 118.16272 268.761912 
L 125.46387 266.817751 
L 132.76502 265.035784 
L 140.066171 263.150854 
L 147.367321 261.648397 
L 154.668471 260.071125 
L 161.969622 258.669587 
L 169.270772 257.191015 
L 176.571922 255.881425 
L 183.873072 254.478656 
L 191.174223 253.317711 
L 198.475373 252.03604 
L 205.776523 250.810768 
L 213.077673 249.742156 
L 220.378824 248.670754 
L 227.679974 247.584216 
L 234.981124 246.40342 
L 242.282275 245.471695 
L 249.583425 244.333768 
L 256.884575 243.3222 
L 264.185725 242.306156 
L 271.486876 241.464987 
L 278.788026 240.295826 
L 286.089176 239.477144 
L 293.390327 238.584316 
L 300.691477 237.67534 
L 307.992627 236.870274 
L 315.293777 236.068831 
L 322.594928 235.047532 
L 329.896078 234.225929 
L 337.197228 233.499748 
L 344.498378 232.642223 
L 351.799529 231.807859 
L 359.100679 230.919998 
L 366.401829 230.27947 
L 373.70298 229.546324 
L 381.00413 228.905501 
L 388.30528 228.035551 
L 395.60643 227.215763 
L 402.907581 226.684207 
L 410.208731 226.127106 
L 417.509881 225.680668 
L 424.811032 224.843216 
L 432.112182 223.572191 
L 432.112182 218.189468 
L 432.112182 218.189468 
L 424.811032 218.029711 
L 417.509881 218.728996 
L 410.208731 219.607806 
L 402.907581 220.828198 
L 395.60643 221.869706 
L 388.30528 222.323007 
L 381.00413 222.99092 
L 373.70298 223.963069 
L 366.401829 224.683023 
L 359.100679 225.526032 
L 351.799529 226.299825 
L 344.498378 227.089136 
L 337.197228 227.961466 
L 329.896078 228.807861 
L 322.594928 229.689928 
L 315.293777 230.575452 
L 307.992627 231.470036 
L 300.691477 232.369142 
L 293.390327 233.233186 
L 286.089176 234.198244 
L 278.788026 235.087602 
L 271.486876 235.908806 
L 264.185725 236.920427 
L 256.884575 237.889503 
L 249.583425 238.970534 
L 242.282275 239.955054 
L 234.981124 240.959268 
L 227.679974 242.121157 
L 220.378824 243.076435 
L 213.077673 244.503333 
L 205.776523 245.342233 
L 198.475373 246.670523 
L 191.174223 247.823134 
L 183.873072 249.064178 
L 176.571922 250.54489 
L 169.270772 251.806514 
L 161.969622 253.207663 
L 154.668471 254.680643 
L 147.367321 256.272377 
L 140.066171 257.762159 
L 132.76502 259.445983 
L 125.46387 261.143723 
L 118.16272 263.109695 
L 110.86157 265.380613 
L 103.560419 267.803954 
L 96.259269 270.442729 
L 88.958119 273.82334 
L 81.656968 278.017578 
L 74.355818 283.610009 
z
" clip-path="url(#p0c3a34b694)" style="fill: #9467bd; fill-opacity: 0.27"/>
   </g>
   <g id="FillBetweenPolyCollection_16">
    <path d="M 74.355818 286.215919 
L 74.355818 286.461889 
L 81.656968 281.338488 
L 88.958119 277.142865 
L 96.259269 273.684151 
L 103.560419 270.793254 
L 110.86157 268.327024 
L 118.16272 266.16973 
L 125.46387 264.232316 
L 132.76502 262.449928 
L 140.066171 260.778245 
L 147.367321 259.18919 
L 154.668471 257.666535 
L 161.969622 256.201848 
L 169.270772 254.791085 
L 176.571922 253.432039 
L 183.873072 252.122632 
L 191.174223 250.860071 
L 198.475373 249.640632 
L 205.776523 248.459919 
L 213.077673 247.313354 
L 220.378824 246.196717 
L 227.679974 245.106553 
L 234.981124 244.040403 
L 242.282275 242.996773 
L 249.583425 241.974916 
L 256.884575 240.974493 
L 264.185725 239.995192 
L 271.486876 239.036412 
L 278.788026 238.097091 
L 286.089176 237.175688 
L 293.390327 236.270359 
L 300.691477 235.379238 
L 307.992627 234.500758 
L 315.293777 233.633951 
L 322.594928 232.778604 
L 329.896078 231.935226 
L 337.197228 231.104815 
L 344.498378 230.288432 
L 351.799529 229.486675 
L 359.100679 228.699174 
L 366.401829 227.924217 
L 373.70298 227.158701 
L 381.00413 226.398495 
L 388.30528 225.639305 
L 395.60643 224.878061 
L 402.907581 224.114755 
L 410.208731 223.354595 
L 417.509881 222.61026 
L 424.811032 221.90399 
L 432.112182 221.269241 
L 432.112182 220.361857 
L 432.112182 220.361857 
L 424.811032 221.002324 
L 417.509881 221.715395 
L 410.208731 222.467075 
L 402.907581 223.234771 
L 395.60643 224.005606 
L 388.30528 224.774299 
L 381.00413 225.540864 
L 373.70298 226.308423 
L 366.401829 227.081345 
L 359.100679 227.863823 
L 351.799529 228.659009 
L 344.498378 229.468629 
L 337.197228 230.29306 
L 329.896078 231.131679 
L 322.594928 231.983401 
L 315.293777 232.847204 
L 307.992627 233.722562 
L 300.691477 234.609688 
L 293.390327 235.509561 
L 286.089176 236.423766 
L 278.788026 237.354201 
L 271.486876 238.30274 
L 264.185725 239.270944 
L 256.884575 240.25989 
L 249.583425 241.270184 
L 242.282275 242.302138 
L 234.981124 243.356082 
L 227.679974 244.432763 
L 220.378824 245.533686 
L 213.077673 246.661336 
L 205.776523 247.819207 
L 198.475373 249.01158 
L 191.174223 250.243095 
L 183.873072 251.518217 
L 176.571922 252.840719 
L 169.270772 254.213441 
L 161.969622 255.638471 
L 154.668471 257.118031 
L 147.367321 258.656176 
L 140.066171 260.261385 
L 132.76502 261.950021 
L 125.46387 263.750431 
L 118.16272 265.707409 
L 110.86157 267.886544 
L 103.560419 270.37796 
L 96.259269 273.298832 
L 88.958119 276.794147 
L 81.656968 281.035237 
L 74.355818 286.215919 
z
" clip-path="url(#p0c3a34b694)" style="fill: #8c564b; fill-opacity: 0.45"/>
   </g>
   <g id="PathCollection_8">
    <g clip-path="url(#p0c3a34b694)">
     <use xlink:href="#m1f894259f5" x="74.355818" y="283.287643" style="fill-opacity: 0.7; stroke: #000000; stroke-opacity: 0.7"/>
     <use xlink:href="#m1f894259f5" x="106.879124" y="267.636722" style="fill-opacity: 0.7; stroke: #000000; stroke-opacity: 0.7"/>
     <use xlink:href="#m1f894259f5" x="143.01613" y="257.640594" style="fill-opacity: 0.7; stroke: #000000; stroke-opacity: 0.7"/>
     <use xlink:href="#m1f894259f5" x="179.153137" y="251.081363" style="fill-opacity: 0.7; stroke: #000000; stroke-opacity: 0.7"/>
     <use xlink:href="#m1f894259f5" x="215.290143" y="245.376031" style="fill-opacity: 0.7; stroke: #000000; stroke-opacity: 0.7"/>
     <use xlink:href="#m1f894259f5" x="251.42715" y="237.790948" style="fill-opacity: 0.7; stroke: #000000; stroke-opacity: 0.7"/>
     <use xlink:href="#m1f894259f5" x="287.564156" y="234.175999" style="fill-opacity: 0.7; stroke: #000000; stroke-opacity: 0.7"/>
     <use xlink:href="#m1f894259f5" x="323.701163" y="230.515371" style="fill-opacity: 0.7; stroke: #000000; stroke-opacity: 0.7"/>
     <use xlink:href="#m1f894259f5" x="359.838169" y="225.475619" style="fill-opacity: 0.7; stroke: #000000; stroke-opacity: 0.7"/>
     <use xlink:href="#m1f894259f5" x="395.975175" y="222.554457" style="fill-opacity: 0.7; stroke: #000000; stroke-opacity: 0.7"/>
     <use xlink:href="#m1f894259f5" x="432.112182" y="217.369556" style="fill-opacity: 0.7; stroke: #000000; stroke-opacity: 0.7"/>
    </g>
   </g>
   <g id="matplotlib.axis_1">
    <g id="xtick_1">
     <g id="line2d_1">
      <defs>
       <path id="m06accfa7ea" d="M 0 0 
L 0 3.5 
" style="stroke: #000000; stroke-width: 0.8"/>
      </defs>
      <g>
       <use xlink:href="#m06accfa7ea" x="70.742118" y="302.2" style="stroke: #000000; stroke-width: 0.8"/>
      </g>
     </g>
     <g id="text_1">
      <!-- 0 -->
      <g transform="translate(67.560868 316.798437) scale(0.1 -0.1)">
       <defs>
        <path id="DejaVuSans-30" d="M 2034 4250 
Q 1547 4250 1301 3770 
Q 1056 3291 1056 2328 
Q 1056 1369 1301 889 
Q 1547 409 2034 409 
Q 2525 409 2770 889 
Q 3016 1369 3016 2328 
Q 3016 3291 2770 3770 
Q 2525 4250 2034 4250 
z
M 2034 4750 
Q 2819 4750 3233 4129 
Q 3647 3509 3647 2328 
Q 3647 1150 3233 529 
Q 2819 -91 2034 -91 
Q 1250 -91 836 529 
Q 422 1150 422 2328 
Q 422 3509 836 4129 
Q 1250 4750 2034 4750 
z
" transform="scale(0.015625)"/>
       </defs>
       <use xlink:href="#DejaVuSans-30"/>
      </g>
     </g>
    </g>
    <g id="xtick_2">
     <g id="line2d_2">
      <g>
       <use xlink:href="#m06accfa7ea" x="143.01613" y="302.2" style="stroke: #000000; stroke-width: 0.8"/>
      </g>
     </g>
     <g id="text_2">
      <!-- 1 -->
      <g transform="translate(139.83488 316.798437) scale(0.1 -0.1)">
       <defs>
        <path id="DejaVuSans-31" d="M 794 531 
L 1825 531 
L 1825 4091 
L 703 3866 
L 703 4441 
L 1819 4666 
L 2450 4666 
L 2450 531 
L 3481 531 
L 3481 0 
L 794 0 
L 794 531 
z
" transform="scale(0.015625)"/>
       </defs>
       <use xlink:href="#DejaVuSans-31"/>
      </g>
     </g>
    </g>
    <g id="xtick_3">
     <g id="line2d_3">
      <g>
       <use xlink:href="#m06accfa7ea" x="215.290143" y="302.2" style="stroke: #000000; stroke-width: 0.8"/>
      </g>
     </g>
     <g id="text_3">
      <!-- 2 -->
      <g transform="translate(212.108893 316.798437) scale(0.1 -0.1)">
       <defs>
        <path id="DejaVuSans-32" d="M 1228 531 
L 3431 531 
L 3431 0 
L 469 0 
L 469 531 
Q 828 903 1448 1529 
Q 2069 2156 2228 2338 
Q 2531 2678 2651 2914 
Q 2772 3150 2772 3378 
Q 2772 3750 2511 3984 
Q 2250 4219 1831 4219 
Q 1534 4219 1204 4116 
Q 875 4013 500 3803 
L 500 4441 
Q 881 4594 1212 4672 
Q 1544 4750 1819 4750 
Q 2544 4750 2975 4387 
Q 3406 4025 3406 3419 
Q 3406 3131 3298 2873 
Q 3191 2616 2906 2266 
Q 2828 2175 2409 1742 
Q 1991 1309 1228 531 
z
" transform="scale(0.015625)"/>
       </defs>
       <use xlink:href="#DejaVuSans-32"/>
      </g>
     </g>
    </g>
    <g id="xtick_4">
     <g id="line2d_4">
      <g>
       <use xlink:href="#m06accfa7ea" x="287.564156" y="302.2" style="stroke: #000000; stroke-width: 0.8"/>
      </g>
     </g>
     <g id="text_4">
      <!-- 3 -->
      <g transform="translate(284.382906 316.798437) scale(0.1 -0.1)">
       <defs>
        <path id="DejaVuSans-33" d="M 2597 2516 
Q 3050 2419 3304 2112 
Q 3559 1806 3559 1356 
Q 3559 666 3084 287 
Q 2609 -91 1734 -91 
Q 1441 -91 1130 -33 
Q 819 25 488 141 
L 488 750 
Q 750 597 1062 519 
Q 1375 441 1716 441 
Q 2309 441 2620 675 
Q 2931 909 2931 1356 
Q 2931 1769 2642 2001 
Q 2353 2234 1838 2234 
L 1294 2234 
L 1294 2753 
L 1863 2753 
Q 2328 2753 2575 2939 
Q 2822 3125 2822 3475 
Q 2822 3834 2567 4026 
Q 2313 4219 1838 4219 
Q 1578 4219 1281 4162 
Q 984 4106 628 3988 
L 628 4550 
Q 988 4650 1302 4700 
Q 1616 4750 1894 4750 
Q 2613 4750 3031 4423 
Q 3450 4097 3450 3541 
Q 3450 3153 3228 2886 
Q 3006 2619 2597 2516 
z
" transform="scale(0.015625)"/>
       </defs>
       <use xlink:href="#DejaVuSans-33"/>
      </g>
     </g>
    </g>
    <g id="xtick_5">
     <g id="line2d_5">
      <g>
       <use xlink:href="#m06accfa7ea" x="359.838169" y="302.2" style="stroke: #000000; stroke-width: 0.8"/>
      </g>
     </g>
     <g id="text_5">
      <!-- 4 -->
      <g transform="translate(356.656919 316.798437) scale(0.1 -0.1)">
       <defs>
        <path id="DejaVuSans-34" d="M 2419 4116 
L 825 1625 
L 2419 1625 
L 2419 4116 
z
M 2253 4666 
L 3047 4666 
L 3047 1625 
L 3713 1625 
L 3713 1100 
L 3047 1100 
L 3047 0 
L 2419 0 
L 2419 1100 
L 313 1100 
L 313 1709 
L 2253 4666 
z
" transform="scale(0.015625)"/>
       </defs>
       <use xlink:href="#DejaVuSans-34"/>
      </g>
     </g>
    </g>
    <g id="xtick_6">
     <g id="line2d_6">
      <g>
       <use xlink:href="#m06accfa7ea" x="432.112182" y="302.2" style="stroke: #000000; stroke-width: 0.8"/>
      </g>
     </g>
     <g id="text_6">
      <!-- 5 -->
      <g transform="translate(428.930932 316.798437) scale(0.1 -0.1)">
       <defs>
        <path id="DejaVuSans-35" d="M 691 4666 
L 3169 4666 
L 3169 4134 
L 1269 4134 
L 1269 2991 
Q 1406 3038 1543 3061 
Q 1681 3084 1819 3084 
Q 2600 3084 3056 2656 
Q 3513 2228 3513 1497 
Q 3513 744 3044 326 
Q 2575 -91 1722 -91 
Q 1428 -91 1123 -41 
Q 819 9 494 109 
L 494 744 
Q 775 591 1075 516 
Q 1375 441 1709 441 
Q 2250 441 2565 725 
Q 2881 1009 2881 1497 
Q 2881 1984 2565 2268 
Q 2250 2553 1709 2553 
Q 1456 2553 1204 2497 
Q 953 2441 691 2322 
L 691 4666 
z
" transform="scale(0.015625)"/>
       </defs>
       <use xlink:href="#DejaVuSans-35"/>
      </g>
     </g>
    </g>
    <g id="text_7">
     <!-- $W$ (m/hour) -->
     <g transform="translate(224.784 330.476562) scale(0.1 -0.1)">
      <defs>
       <path id="DejaVuSans-Oblique-57" d="M 616 4666 
L 1228 4666 
L 1453 697 
L 3213 4666 
L 3916 4666 
L 4147 697 
L 5888 4666 
L 6528 4666 
L 4453 0 
L 3659 0 
L 3444 3891 
L 1697 0 
L 903 0 
L 616 4666 
z
" transform="scale(0.015625)"/>
       <path id="DejaVuSans-20" transform="scale(0.015625)"/>
       <path id="DejaVuSans-28" d="M 1984 4856 
Q 1566 4138 1362 3434 
Q 1159 2731 1159 2009 
Q 1159 1288 1364 580 
Q 1569 -128 1984 -844 
L 1484 -844 
Q 1016 -109 783 600 
Q 550 1309 550 2009 
Q 550 2706 781 3412 
Q 1013 4119 1484 4856 
L 1984 4856 
z
" transform="scale(0.015625)"/>
       <path id="DejaVuSans-6d" d="M 3328 2828 
Q 3544 3216 3844 3400 
Q 4144 3584 4550 3584 
Q 5097 3584 5394 3201 
Q 5691 2819 5691 2113 
L 5691 0 
L 5113 0 
L 5113 2094 
Q 5113 2597 4934 2840 
Q 4756 3084 4391 3084 
Q 3944 3084 3684 2787 
Q 3425 2491 3425 1978 
L 3425 0 
L 2847 0 
L 2847 2094 
Q 2847 2600 2669 2842 
Q 2491 3084 2119 3084 
Q 1678 3084 1418 2786 
Q 1159 2488 1159 1978 
L 1159 0 
L 581 0 
L 581 3500 
L 1159 3500 
L 1159 2956 
Q 1356 3278 1631 3431 
Q 1906 3584 2284 3584 
Q 2666 3584 2933 3390 
Q 3200 3197 3328 2828 
z
" transform="scale(0.015625)"/>
       <path id="DejaVuSans-2f" d="M 1625 4666 
L 2156 4666 
L 531 -594 
L 0 -594 
L 1625 4666 
z
" transform="scale(0.015625)"/>
       <path id="DejaVuSans-68" d="M 3513 2113 
L 3513 0 
L 2938 0 
L 2938 2094 
Q 2938 2591 2744 2837 
Q 2550 3084 2163 3084 
Q 1697 3084 1428 2787 
Q 1159 2491 1159 1978 
L 1159 0 
L 581 0 
L 581 4863 
L 1159 4863 
L 1159 2956 
Q 1366 3272 1645 3428 
Q 1925 3584 2291 3584 
Q 2894 3584 3203 3211 
Q 3513 2838 3513 2113 
z
" transform="scale(0.015625)"/>
       <path id="DejaVuSans-6f" d="M 1959 3097 
Q 1497 3097 1228 2736 
Q 959 2375 959 1747 
Q 959 1119 1226 758 
Q 1494 397 1959 397 
Q 2419 397 2687 759 
Q 2956 1122 2956 1747 
Q 2956 2369 2687 2733 
Q 2419 3097 1959 3097 
z
M 1959 3584 
Q 2709 3584 3137 3096 
Q 3566 2609 3566 1747 
Q 3566 888 3137 398 
Q 2709 -91 1959 -91 
Q 1206 -91 779 398 
Q 353 888 353 1747 
Q 353 2609 779 3096 
Q 1206 3584 1959 3584 
z
" transform="scale(0.015625)"/>
       <path id="DejaVuSans-75" d="M 544 1381 
L 544 3500 
L 1119 3500 
L 1119 1403 
Q 1119 906 1312 657 
Q 1506 409 1894 409 
Q 2359 409 2629 706 
Q 2900 1003 2900 1516 
L 2900 3500 
L 3475 3500 
L 3475 0 
L 2900 0 
L 2900 538 
Q 2691 219 2414 64 
Q 2138 -91 1772 -91 
Q 1169 -91 856 284 
Q 544 659 544 1381 
z
M 1991 3584 
L 1991 3584 
z
" transform="scale(0.015625)"/>
       <path id="DejaVuSans-72" d="M 2631 2963 
Q 2534 3019 2420 3045 
Q 2306 3072 2169 3072 
Q 1681 3072 1420 2755 
Q 1159 2438 1159 1844 
L 1159 0 
L 581 0 
L 581 3500 
L 1159 3500 
L 1159 2956 
Q 1341 3275 1631 3429 
Q 1922 3584 2338 3584 
Q 2397 3584 2469 3576 
Q 2541 3569 2628 3553 
L 2631 2963 
z
" transform="scale(0.015625)"/>
       <path id="DejaVuSans-29" d="M 513 4856 
L 1013 4856 
Q 1481 4119 1714 3412 
Q 1947 2706 1947 2009 
Q 1947 1309 1714 600 
Q 1481 -109 1013 -844 
L 513 -844 
Q 928 -128 1133 580 
Q 1338 1288 1338 2009 
Q 1338 2731 1133 3434 
Q 928 4138 513 4856 
z
" transform="scale(0.015625)"/>
      </defs>
      <use xlink:href="#DejaVuSans-Oblique-57" transform="translate(0 0.015625)"/>
      <use xlink:href="#DejaVuSans-20" transform="translate(98.876953 0.015625)"/>
      <use xlink:href="#DejaVuSans-28" transform="translate(130.664062 0.015625)"/>
      <use xlink:href="#DejaVuSans-6d" transform="translate(169.677734 0.015625)"/>
      <use xlink:href="#DejaVuSans-2f" transform="translate(267.089844 0.015625)"/>
      <use xlink:href="#DejaVuSans-68" transform="translate(300.78125 0.015625)"/>
      <use xlink:href="#DejaVuSans-6f" transform="translate(364.160156 0.015625)"/>
      <use xlink:href="#DejaVuSans-75" transform="translate(425.341797 0.015625)"/>
      <use xlink:href="#DejaVuSans-72" transform="translate(488.720703 0.015625)"/>
      <use xlink:href="#DejaVuSans-29" transform="translate(529.833984 0.015625)"/>
     </g>
    </g>
   </g>
   <g id="matplotlib.axis_2">
    <g id="ytick_1">
     <g id="line2d_7">
      <defs>
       <path id="mf09d3a94cb" d="M 0 0 
L -3.5 0 
" style="stroke: #000000; stroke-width: 0.8"/>
      </defs>
      <g>
       <use xlink:href="#mf09d3a94cb" x="56.468" y="271.30869" style="stroke: #000000; stroke-width: 0.8"/>
      </g>
     </g>
     <g id="text_8">
      <!-- 2.5 -->
      <g transform="translate(33.564875 275.107908) scale(0.1 -0.1)">
       <defs>
        <path id="DejaVuSans-2e" d="M 684 794 
L 1344 794 
L 1344 0 
L 684 0 
L 684 794 
z
" transform="scale(0.015625)"/>
       </defs>
       <use xlink:href="#DejaVuSans-32"/>
       <use xlink:href="#DejaVuSans-2e" transform="translate(63.623047 0)"/>
       <use xlink:href="#DejaVuSans-35" transform="translate(95.410156 0)"/>
      </g>
     </g>
    </g>
    <g id="ytick_2">
     <g id="line2d_8">
      <g>
       <use xlink:href="#mf09d3a94cb" x="56.468" y="238.071219" style="stroke: #000000; stroke-width: 0.8"/>
      </g>
     </g>
     <g id="text_9">
      <!-- 5.0 -->
      <g transform="translate(33.564875 241.870438) scale(0.1 -0.1)">
       <use xlink:href="#DejaVuSans-35"/>
       <use xlink:href="#DejaVuSans-2e" transform="translate(63.623047 0)"/>
       <use xlink:href="#DejaVuSans-30" transform="translate(95.410156 0)"/>
      </g>
     </g>
    </g>
    <g id="ytick_3">
     <g id="line2d_9">
      <g>
       <use xlink:href="#mf09d3a94cb" x="56.468" y="204.833748" style="stroke: #000000; stroke-width: 0.8"/>
      </g>
     </g>
     <g id="text_10">
      <!-- 7.5 -->
      <g transform="translate(33.564875 208.632967) scale(0.1 -0.1)">
       <defs>
        <path id="DejaVuSans-37" d="M 525 4666 
L 3525 4666 
L 3525 4397 
L 1831 0 
L 1172 0 
L 2766 4134 
L 525 4134 
L 525 4666 
z
" transform="scale(0.015625)"/>
       </defs>
       <use xlink:href="#DejaVuSans-37"/>
       <use xlink:href="#DejaVuSans-2e" transform="translate(63.623047 0)"/>
       <use xlink:href="#DejaVuSans-35" transform="translate(95.410156 0)"/>
      </g>
     </g>
    </g>
    <g id="ytick_4">
     <g id="line2d_10">
      <g>
       <use xlink:href="#mf09d3a94cb" x="56.468" y="171.596277" style="stroke: #000000; stroke-width: 0.8"/>
      </g>
     </g>
     <g id="text_11">
      <!-- 10.0 -->
      <g transform="translate(27.202375 175.395496) scale(0.1 -0.1)">
       <use xlink:href="#DejaVuSans-31"/>
       <use xlink:href="#DejaVuSans-30" transform="translate(63.623047 0)"/>
       <use xlink:href="#DejaVuSans-2e" transform="translate(127.246094 0)"/>
       <use xlink:href="#DejaVuSans-30" transform="translate(159.033203 0)"/>
      </g>
     </g>
    </g>
    <g id="ytick_5">
     <g id="line2d_11">
      <g>
       <use xlink:href="#mf09d3a94cb" x="56.468" y="138.358807" style="stroke: #000000; stroke-width: 0.8"/>
      </g>
     </g>
     <g id="text_12">
      <!-- 12.5 -->
      <g transform="translate(27.202375 142.158026) scale(0.1 -0.1)">
       <use xlink:href="#DejaVuSans-31"/>
       <use xlink:href="#DejaVuSans-32" transform="translate(63.623047 0)"/>
       <use xlink:href="#DejaVuSans-2e" transform="translate(127.246094 0)"/>
       <use xlink:href="#DejaVuSans-35" transform="translate(159.033203 0)"/>
      </g>
     </g>
    </g>
    <g id="ytick_6">
     <g id="line2d_12">
      <g>
       <use xlink:href="#mf09d3a94cb" x="56.468" y="105.121336" style="stroke: #000000; stroke-width: 0.8"/>
      </g>
     </g>
     <g id="text_13">
      <!-- 15.0 -->
      <g transform="translate(27.202375 108.920555) scale(0.1 -0.1)">
       <use xlink:href="#DejaVuSans-31"/>
       <use xlink:href="#DejaVuSans-35" transform="translate(63.623047 0)"/>
       <use xlink:href="#DejaVuSans-2e" transform="translate(127.246094 0)"/>
       <use xlink:href="#DejaVuSans-30" transform="translate(159.033203 0)"/>
      </g>
     </g>
    </g>
    <g id="ytick_7">
     <g id="line2d_13">
      <g>
       <use xlink:href="#mf09d3a94cb" x="56.468" y="71.883865" style="stroke: #000000; stroke-width: 0.8"/>
      </g>
     </g>
     <g id="text_14">
      <!-- 17.5 -->
      <g transform="translate(27.202375 75.683084) scale(0.1 -0.1)">
       <use xlink:href="#DejaVuSans-31"/>
       <use xlink:href="#DejaVuSans-37" transform="translate(63.623047 0)"/>
       <use xlink:href="#DejaVuSans-2e" transform="translate(127.246094 0)"/>
       <use xlink:href="#DejaVuSans-35" transform="translate(159.033203 0)"/>
      </g>
     </g>
    </g>
    <g id="ytick_8">
     <g id="line2d_14">
      <g>
       <use xlink:href="#mf09d3a94cb" x="56.468" y="38.646395" style="stroke: #000000; stroke-width: 0.8"/>
      </g>
     </g>
     <g id="text_15">
      <!-- 20.0 -->
      <g transform="translate(27.202375 42.445613) scale(0.1 -0.1)">
       <use xlink:href="#DejaVuSans-32"/>
       <use xlink:href="#DejaVuSans-30" transform="translate(63.623047 0)"/>
       <use xlink:href="#DejaVuSans-2e" transform="translate(127.246094 0)"/>
       <use xlink:href="#DejaVuSans-30" transform="translate(159.033203 0)"/>
      </g>
     </g>
    </g>
    <g id="text_16">
     <!-- $Q_{lc}$ (kW) -->
     <g transform="translate(21.122688 176.8) rotate(-90) scale(0.1 -0.1)">
      <defs>
       <path id="DejaVuSans-Oblique-51" d="M 2309 -84 
Q 2275 -88 2237 -89 
Q 2200 -91 2125 -91 
Q 1250 -91 756 411 
Q 263 913 263 1797 
Q 263 2319 452 2844 
Q 641 3369 978 3788 
Q 1369 4269 1858 4509 
Q 2347 4750 2938 4750 
Q 3794 4750 4287 4245 
Q 4781 3741 4781 2869 
Q 4781 1928 4265 1147 
Q 3750 366 2919 44 
L 3553 -825 
L 2847 -825 
L 2309 -84 
z
M 2919 4238 
Q 2400 4238 2003 3986 
Q 1606 3734 1313 3219 
Q 1125 2891 1026 2522 
Q 928 2153 928 1778 
Q 928 1128 1239 775 
Q 1550 422 2119 422 
Q 2631 422 3032 676 
Q 3434 931 3719 1434 
Q 3909 1772 4009 2142 
Q 4109 2513 4109 2881 
Q 4109 3528 3796 3883 
Q 3484 4238 2919 4238 
z
" transform="scale(0.015625)"/>
       <path id="DejaVuSans-Oblique-6c" d="M 1172 4863 
L 1747 4863 
L 800 0 
L 225 0 
L 1172 4863 
z
" transform="scale(0.015625)"/>
       <path id="DejaVuSans-Oblique-63" d="M 3431 3366 
L 3316 2797 
Q 3109 2947 2876 3022 
Q 2644 3097 2394 3097 
Q 2119 3097 1870 3000 
Q 1622 2903 1453 2725 
Q 1184 2453 1037 2087 
Q 891 1722 891 1331 
Q 891 859 1127 628 
Q 1363 397 1844 397 
Q 2081 397 2348 469 
Q 2616 541 2906 684 
L 2797 116 
Q 2547 13 2283 -39 
Q 2019 -91 1741 -91 
Q 1044 -91 669 257 
Q 294 606 294 1253 
Q 294 1797 489 2255 
Q 684 2713 1069 3078 
Q 1331 3328 1684 3456 
Q 2038 3584 2456 3584 
Q 2700 3584 2940 3529 
Q 3181 3475 3431 3366 
z
" transform="scale(0.015625)"/>
       <path id="DejaVuSans-6b" d="M 581 4863 
L 1159 4863 
L 1159 1991 
L 2875 3500 
L 3609 3500 
L 1753 1863 
L 3688 0 
L 2938 0 
L 1159 1709 
L 1159 0 
L 581 0 
L 581 4863 
z
" transform="scale(0.015625)"/>
       <path id="DejaVuSans-57" d="M 213 4666 
L 850 4666 
L 1831 722 
L 2809 4666 
L 3519 4666 
L 4500 722 
L 5478 4666 
L 6119 4666 
L 4947 0 
L 4153 0 
L 3169 4050 
L 2175 0 
L 1381 0 
L 213 4666 
z
" transform="scale(0.015625)"/>
      </defs>
      <use xlink:href="#DejaVuSans-Oblique-51" transform="translate(0 0.015625)"/>
      <use xlink:href="#DejaVuSans-Oblique-6c" transform="translate(78.710938 -16.390625) scale(0.7)"/>
      <use xlink:href="#DejaVuSans-Oblique-63" transform="translate(98.15918 -16.390625) scale(0.7)"/>
      <use xlink:href="#DejaVuSans-20" transform="translate(139.379883 0.015625)"/>
      <use xlink:href="#DejaVuSans-28" transform="translate(171.166992 0.015625)"/>
      <use xlink:href="#DejaVuSans-6b" transform="translate(210.180664 0.015625)"/>
      <use xlink:href="#DejaVuSans-57" transform="translate(268.09082 0.015625)"/>
      <use xlink:href="#DejaVuSans-29" transform="translate(366.967773 0.015625)"/>
     </g>
    </g>
   </g>
   <g id="line2d_15">
    <path d="M 74.355818 247.686806 
L 81.656968 230.518012 
L 88.958119 216.4408 
L 96.259269 204.820083 
L 103.560419 195.08665 
L 110.86157 186.768444 
L 118.16272 179.478121 
L 125.46387 172.919587 
L 132.76502 166.877645 
L 140.066171 161.206729 
L 147.367321 155.812615 
L 154.668471 150.641851 
L 161.969622 145.666961 
L 169.270772 140.874987 
L 176.571922 136.258014 
L 183.873072 131.809312 
L 191.174223 127.519205 
L 198.475373 123.375685 
L 205.776523 119.363132 
L 213.077673 115.466366 
L 220.378824 111.670479 
L 227.679974 107.963604 
L 234.981124 104.337264 
L 242.282275 100.786621 
L 249.583425 97.308954 
L 256.884575 93.903078 
L 264.185725 90.568458 
L 271.486876 87.303415 
L 278.788026 84.104702 
L 286.089176 80.967453 
L 293.390327 77.885584 
L 300.691477 74.852719 
L 307.992627 71.86313 
L 315.293777 68.913349 
L 322.594928 66.002194 
L 329.896078 63.13091 
L 337.197228 60.302509 
L 344.498378 57.520454 
L 351.799529 54.787024 
L 359.100679 52.101495 
L 366.401829 49.458673 
L 373.70298 46.848898 
L 381.00413 44.258928 
L 388.30528 41.674636 
L 395.60643 39.085465 
L 402.907581 36.490486 
L 410.208731 33.905657 
L 417.509881 31.371606 
L 424.811032 28.961124 
L 432.112182 26.785411 
" clip-path="url(#p0c3a34b694)" style="fill: none; stroke: #1f77b4; stroke-width: 1.5; stroke-linecap: square"/>
   </g>
   <g id="line2d_16">
    <path d="M 74.355818 251.867874 
L 81.656968 236.082207 
L 88.958119 223.148365 
L 96.259269 212.471659 
L 103.560419 203.53198 
L 110.86157 195.892386 
L 118.16272 189.199443 
L 125.46387 183.178849 
L 132.76502 177.632439 
L 140.066171 172.425141 
L 147.367321 167.473243 
L 154.668471 162.725847 
L 161.969622 158.158706 
L 169.270772 153.7602 
L 176.571922 149.522643 
L 183.873072 145.439697 
L 191.174223 141.503038 
L 198.475373 137.700682 
L 205.776523 134.018515 
L 213.077673 130.442095 
L 220.378824 126.958112 
L 227.679974 123.556008 
L 234.981124 120.228183 
L 242.282275 116.96891 
L 249.583425 113.776624 
L 256.884575 110.650795 
L 264.185725 107.591234 
L 271.486876 104.595733 
L 278.788026 101.661249 
L 286.089176 98.783194 
L 293.390327 95.955882 
L 300.691477 93.172989 
L 307.992627 90.429772 
L 315.293777 87.722939 
L 322.594928 85.051434 
L 329.896078 82.416495 
L 337.197228 79.821001 
L 344.498378 77.26823 
L 351.799529 74.760262 
L 359.100679 72.296366 
L 366.401829 69.871817 
L 373.70298 67.477583 
L 381.00413 65.101305 
L 388.30528 62.729819 
L 395.60643 60.353325 
L 402.907581 57.971035 
L 410.208731 55.598085 
L 417.509881 53.272537 
L 424.811032 51.062052 
L 432.112182 49.070241 
" clip-path="url(#p0c3a34b694)" style="fill: none; stroke: #ff7f0e; stroke-width: 1.5; stroke-linecap: square"/>
   </g>
   <g id="line2d_17">
    <path d="M 74.355818 256.274108 
L 81.656968 241.924373 
L 88.958119 230.167139 
L 96.259269 220.465426 
L 103.560419 212.343967 
L 110.86157 205.406626 
L 118.16272 199.328944 
L 125.46387 193.861812 
L 132.76502 188.826925 
L 140.066171 184.100476 
L 147.367321 179.604826 
L 154.668471 175.29824 
L 161.969622 171.15346 
L 169.270772 167.162304 
L 176.571922 163.317999 
L 183.873072 159.613541 
L 191.174223 156.042036 
L 198.475373 152.592019 
L 205.776523 149.251075 
L 213.077673 146.00607 
L 220.378824 142.845371 
L 227.679974 139.758747 
L 234.981124 136.739182 
L 242.282275 133.782542 
L 249.583425 130.886891 
L 256.884575 128.051035 
L 264.185725 125.27454 
L 271.486876 122.556286 
L 278.788026 119.893481 
L 286.089176 117.282592 
L 293.390327 114.718144 
L 300.691477 112.193927 
L 307.992627 109.705691 
L 315.293777 107.250405 
L 322.594928 104.827135 
L 329.896078 102.43705 
L 337.197228 100.082806 
L 344.498378 97.767415 
L 351.799529 95.49278 
L 359.100679 93.258136 
L 366.401829 91.058883 
L 373.70298 88.887103 
L 381.00413 86.731456 
L 388.30528 84.579668 
L 395.60643 82.423452 
L 402.907581 80.261853 
L 410.208731 78.108577 
L 417.509881 75.998753 
L 424.811032 73.994273 
L 432.112182 72.189724 
" clip-path="url(#p0c3a34b694)" style="fill: none; stroke: #2ca02c; stroke-width: 1.5; stroke-linecap: square"/>
   </g>
   <g id="line2d_18">
    <path d="M 74.355818 262.534293 
L 81.656968 250.179502 
L 88.958119 240.05749 
L 96.259269 231.707271 
L 103.560419 224.72004 
L 110.86157 218.75401 
L 118.16272 213.529799 
L 125.46387 208.831138 
L 132.76502 204.503691 
L 140.066171 200.442775 
L 147.367321 196.581247 
L 154.668471 192.880722 
L 161.969622 189.321288 
L 169.270772 185.892638 
L 176.571922 182.590107 
L 183.873072 179.408717 
L 191.174223 176.341066 
L 198.475373 173.378203 
L 205.776523 170.509063 
L 213.077673 167.722418 
L 220.378824 165.00787 
L 227.679974 162.356601 
L 234.981124 159.763379 
L 242.282275 157.224285 
L 249.583425 154.737624 
L 256.884575 152.302396 
L 264.185725 149.918435 
L 271.486876 147.584524 
L 278.788026 145.298233 
L 286.089176 143.055958 
L 293.390327 140.853253 
L 300.691477 138.685678 
L 307.992627 136.549043 
L 315.293777 134.440749 
L 322.594928 132.360002 
L 329.896078 130.30781 
L 337.197228 128.286453 
L 344.498378 126.298507 
L 351.799529 124.34559 
L 359.100679 122.427095 
L 366.401829 120.539294 
L 373.70298 118.675229 
L 381.00413 116.824991 
L 388.30528 114.978259 
L 395.60643 113.127207 
L 402.907581 111.271495 
L 410.208731 109.422997 
L 417.509881 107.611628 
L 424.811032 105.89075 
L 432.112182 104.341719 
" clip-path="url(#p0c3a34b694)" style="fill: none; stroke: #d62728; stroke-width: 1.5; stroke-linecap: square"/>
   </g>
   <g id="line2d_19">
    <path d="M 74.355818 267.528323 
L 81.656968 256.734257 
L 88.958119 247.892279 
L 96.259269 240.599303 
L 103.560419 234.499178 
L 110.86157 229.289254 
L 118.16272 224.727503 
L 125.46387 220.627705 
L 132.76502 216.853421 
L 140.066171 213.312066 
L 147.367321 209.945041 
L 154.668471 206.718459 
L 161.969622 203.614113 
L 169.270772 200.623855 
L 176.571922 197.743818 
L 183.873072 194.968499 
L 191.174223 192.292474 
L 198.475373 189.707817 
L 205.776523 187.205114 
L 213.077673 184.774557 
L 220.378824 182.407091 
L 227.679974 180.095344 
L 234.981124 177.834214 
L 242.282275 175.620338 
L 249.583425 173.452206 
L 256.884575 171.329222 
L 264.185725 169.250891 
L 271.486876 167.216125 
L 278.788026 165.22284 
L 286.089176 163.267904 
L 293.390327 161.347456 
L 300.691477 159.457492 
L 307.992627 157.59457 
L 315.293777 155.756438 
L 322.594928 153.942407 
L 329.896078 152.153341 
L 337.197228 150.391205 
L 344.498378 148.658214 
L 351.799529 146.955745 
L 359.100679 145.283254 
L 366.401829 143.637625 
L 373.70298 142.012485 
L 381.00413 140.399391 
L 388.30528 138.789392 
L 395.60643 137.175871 
L 402.907581 135.558391 
L 410.208731 133.947277 
L 417.509881 132.36849 
L 424.811032 130.868291 
L 432.112182 129.517065 
" clip-path="url(#p0c3a34b694)" style="fill: none; stroke: #9467bd; stroke-width: 1.5; stroke-linecap: square"/>
   </g>
   <g id="line2d_20">
    <path d="M 74.355818 272.807061 
L 81.656968 263.632129 
L 88.958119 256.117227 
L 96.259269 249.919674 
L 103.560419 244.737524 
L 110.86157 240.313314 
L 118.16272 236.440537 
L 125.46387 232.960972 
L 132.76502 229.758798 
L 140.066171 226.754547 
L 147.367321 223.898148 
L 154.668471 221.16042 
L 161.969622 218.526592 
L 169.270772 215.989673 
L 176.571922 213.545651 
L 183.873072 211.190872 
L 191.174223 208.920354 
L 198.475373 206.72746 
L 205.776523 204.60442 
L 213.077673 202.542739 
L 220.378824 200.534746 
L 227.679974 198.574144 
L 234.981124 196.656433 
L 242.282275 194.778885 
L 249.583425 192.940165 
L 256.884575 191.139687 
L 264.185725 189.37697 
L 271.486876 187.651146 
L 278.788026 185.960449 
L 286.089176 184.302241 
L 293.390327 182.673295 
L 300.691477 181.070255 
L 307.992627 179.490211 
L 315.293777 177.931294 
L 322.594928 176.392903 
L 329.896078 174.875768 
L 337.197228 173.381554 
L 344.498378 171.912084 
L 351.799529 170.468446 
L 359.100679 169.050163 
L 366.401829 167.654459 
L 373.70298 166.276077 
L 381.00413 164.907884 
L 388.30528 163.542334 
L 395.60643 162.173869 
L 402.907581 160.802154 
L 410.208731 159.435919 
L 417.509881 158.097059 
L 424.811032 156.824523 
L 432.112182 155.677495 
" clip-path="url(#p0c3a34b694)" style="fill: none; stroke: #8c564b; stroke-width: 1.5; stroke-linecap: square"/>
   </g>
   <g id="line2d_21">
    <path d="M 74.355818 278.389208 
L 81.656968 270.895804 
L 88.958119 264.757941 
L 96.259269 259.696722 
L 103.560419 255.465191 
L 110.86157 251.854289 
L 118.16272 248.694947 
L 125.46387 245.857074 
L 132.76502 243.245875 
L 140.066171 240.796525 
L 147.367321 238.467938 
L 154.668471 236.236359 
L 161.969622 234.089392 
L 169.270772 232.021311 
L 176.571922 230.028882 
L 183.873072 228.109235 
L 191.174223 226.258346 
L 198.475373 224.47073 
L 205.776523 222.739962 
L 213.077673 221.059302 
L 220.378824 219.422471 
L 227.679974 217.824399 
L 234.981124 216.2614 
L 242.282275 214.731225 
L 249.583425 213.232758 
L 256.884575 211.765513 
L 264.185725 210.329089 
L 271.486876 208.922698 
L 278.788026 207.544882 
L 286.089176 206.193487 
L 293.390327 204.86588 
L 300.691477 203.559331 
L 307.992627 202.271506 
L 315.293777 201.000914 
L 322.594928 199.747115 
L 329.896078 198.510718 
L 337.197228 197.293064 
L 344.498378 196.095645 
L 351.799529 194.919353 
L 359.100679 193.763743 
L 366.401829 192.626491 
L 373.70298 191.503281 
L 381.00413 190.388281 
L 388.30528 189.275354 
L 395.60643 188.160009 
L 402.907581 187.042032 
L 410.208731 185.928598 
L 417.509881 184.837578 
L 424.811032 183.800662 
L 432.112182 182.865877 
" clip-path="url(#p0c3a34b694)" style="fill: none; stroke: #e377c2; stroke-width: 1.5; stroke-linecap: square"/>
   </g>
   <g id="line2d_22">
    <path d="M 74.355818 286.346098 
L 81.656968 281.195385 
L 88.958119 276.978102 
L 96.259269 273.501968 
L 103.560419 270.596814 
L 110.86157 268.118606 
L 118.16272 265.95092 
L 125.46387 264.00419 
L 132.76502 262.213212 
L 140.066171 260.533439 
L 147.367321 258.93667 
L 154.668471 257.406614 
L 161.969622 255.934845 
L 169.270772 254.517302 
L 176.571922 253.151755 
L 183.873072 251.836124 
L 191.174223 250.567595 
L 198.475373 249.342418 
L 205.776523 248.156165 
L 213.077673 247.004229 
L 220.378824 245.88236 
L 227.679974 244.787088 
L 234.981124 243.715936 
L 242.282275 242.667406 
L 249.583425 241.640755 
L 256.884575 240.635644 
L 264.185725 239.651762 
L 271.486876 238.688507 
L 278.788026 237.744807 
L 286.089176 236.819114 
L 293.390327 235.909568 
L 300.691477 235.014286 
L 307.992627 234.131696 
L 315.293777 233.260823 
L 322.594928 232.401455 
L 329.896078 231.554109 
L 337.197228 230.719795 
L 344.498378 229.899586 
L 351.799529 229.094092 
L 359.100679 228.302939 
L 366.401829 227.524409 
L 373.70298 226.755376 
L 381.00413 225.991677 
L 388.30528 225.228984 
L 395.60643 224.464202 
L 402.907581 223.697317 
L 410.208731 222.933576 
L 417.509881 222.185749 
L 424.811032 221.476249 
L 432.112182 220.83879 
" clip-path="url(#p0c3a34b694)" style="fill: none; stroke: #7f7f7f; stroke-width: 1.5; stroke-linecap: square"/>
   </g>
   <g id="patch_3">
    <path d="M 56.468 302.2 
L 56.468 10.8 
" style="fill: none; stroke: #000000; stroke-width: 0.8; stroke-linejoin: miter; stroke-linecap: square"/>
   </g>
   <g id="patch_4">
    <path d="M 450 302.2 
L 450 10.8 
" style="fill: none; stroke: #000000; stroke-width: 0.8; stroke-linejoin: miter; stroke-linecap: square"/>
   </g>
   <g id="patch_5">
    <path d="M 56.468 302.2 
L 450 302.2 
" style="fill: none; stroke: #000000; stroke-width: 0.8; stroke-linejoin: miter; stroke-linecap: square"/>
   </g>
   <g id="patch_6">
    <path d="M 56.468 10.8 
L 450 10.8 
" style="fill: none; stroke: #000000; stroke-width: 0.8; stroke-linejoin: miter; stroke-linecap: square"/>
   </g>
   <g id="legend_1">
    <g id="patch_7">
     <path d="M 63.468 150.903125 
L 162.302375 150.903125 
Q 164.302375 150.903125 164.302375 148.903125 
L 164.302375 17.8 
Q 164.302375 15.8 162.302375 15.8 
L 63.468 15.8 
Q 61.468 15.8 61.468 17.8 
L 61.468 148.903125 
Q 61.468 150.903125 63.468 150.903125 
z
" style="fill: #ffffff; opacity: 0.8; stroke: #cccccc; stroke-linejoin: miter"/>
    </g>
    <g id="line2d_23">
     <path d="M 65.468 23.898438 
L 75.468 23.898438 
L 85.468 23.898438 
" style="fill: none; stroke: #1f77b4; stroke-width: 1.5; stroke-linecap: square"/>
    </g>
    <g id="text_17">
     <!-- Ts=80 K -->
     <g transform="translate(93.468 27.398438) scale(0.1 -0.1)">
      <defs>
       <path id="DejaVuSans-54" d="M -19 4666 
L 3928 4666 
L 3928 4134 
L 2272 4134 
L 2272 0 
L 1638 0 
L 1638 4134 
L -19 4134 
L -19 4666 
z
" transform="scale(0.015625)"/>
       <path id="DejaVuSans-73" d="M 2834 3397 
L 2834 2853 
Q 2591 2978 2328 3040 
Q 2066 3103 1784 3103 
Q 1356 3103 1142 2972 
Q 928 2841 928 2578 
Q 928 2378 1081 2264 
Q 1234 2150 1697 2047 
L 1894 2003 
Q 2506 1872 2764 1633 
Q 3022 1394 3022 966 
Q 3022 478 2636 193 
Q 2250 -91 1575 -91 
Q 1294 -91 989 -36 
Q 684 19 347 128 
L 347 722 
Q 666 556 975 473 
Q 1284 391 1588 391 
Q 1994 391 2212 530 
Q 2431 669 2431 922 
Q 2431 1156 2273 1281 
Q 2116 1406 1581 1522 
L 1381 1569 
Q 847 1681 609 1914 
Q 372 2147 372 2553 
Q 372 3047 722 3315 
Q 1072 3584 1716 3584 
Q 2034 3584 2315 3537 
Q 2597 3491 2834 3397 
z
" transform="scale(0.015625)"/>
       <path id="DejaVuSans-3d" d="M 678 2906 
L 4684 2906 
L 4684 2381 
L 678 2381 
L 678 2906 
z
M 678 1631 
L 4684 1631 
L 4684 1100 
L 678 1100 
L 678 1631 
z
" transform="scale(0.015625)"/>
       <path id="DejaVuSans-38" d="M 2034 2216 
Q 1584 2216 1326 1975 
Q 1069 1734 1069 1313 
Q 1069 891 1326 650 
Q 1584 409 2034 409 
Q 2484 409 2743 651 
Q 3003 894 3003 1313 
Q 3003 1734 2745 1975 
Q 2488 2216 2034 2216 
z
M 1403 2484 
Q 997 2584 770 2862 
Q 544 3141 544 3541 
Q 544 4100 942 4425 
Q 1341 4750 2034 4750 
Q 2731 4750 3128 4425 
Q 3525 4100 3525 3541 
Q 3525 3141 3298 2862 
Q 3072 2584 2669 2484 
Q 3125 2378 3379 2068 
Q 3634 1759 3634 1313 
Q 3634 634 3220 271 
Q 2806 -91 2034 -91 
Q 1263 -91 848 271 
Q 434 634 434 1313 
Q 434 1759 690 2068 
Q 947 2378 1403 2484 
z
M 1172 3481 
Q 1172 3119 1398 2916 
Q 1625 2713 2034 2713 
Q 2441 2713 2670 2916 
Q 2900 3119 2900 3481 
Q 2900 3844 2670 4047 
Q 2441 4250 2034 4250 
Q 1625 4250 1398 4047 
Q 1172 3844 1172 3481 
z
" transform="scale(0.015625)"/>
       <path id="DejaVuSans-4b" d="M 628 4666 
L 1259 4666 
L 1259 2694 
L 3353 4666 
L 4166 4666 
L 1850 2491 
L 4331 0 
L 3500 0 
L 1259 2247 
L 1259 0 
L 628 0 
L 628 4666 
z
" transform="scale(0.015625)"/>
      </defs>
      <use xlink:href="#DejaVuSans-54"/>
      <use xlink:href="#DejaVuSans-73" transform="translate(44.583984 0)"/>
      <use xlink:href="#DejaVuSans-3d" transform="translate(96.683594 0)"/>
      <use xlink:href="#DejaVuSans-38" transform="translate(180.472656 0)"/>
      <use xlink:href="#DejaVuSans-30" transform="translate(244.095703 0)"/>
      <use xlink:href="#DejaVuSans-20" transform="translate(307.71875 0)"/>
      <use xlink:href="#DejaVuSans-4b" transform="translate(339.505859 0)"/>
     </g>
    </g>
    <g id="line2d_24">
     <path d="M 65.468 38.576563 
L 75.468 38.576563 
L 85.468 38.576563 
" style="fill: none; stroke: #ff7f0e; stroke-width: 1.5; stroke-linecap: square"/>
    </g>
    <g id="text_18">
     <!-- Ts=100 K -->
     <g transform="translate(93.468 42.076563) scale(0.1 -0.1)">
      <use xlink:href="#DejaVuSans-54"/>
      <use xlink:href="#DejaVuSans-73" transform="translate(44.583984 0)"/>
      <use xlink:href="#DejaVuSans-3d" transform="translate(96.683594 0)"/>
      <use xlink:href="#DejaVuSans-31" transform="translate(180.472656 0)"/>
      <use xlink:href="#DejaVuSans-30" transform="translate(244.095703 0)"/>
      <use xlink:href="#DejaVuSans-30" transform="translate(307.71875 0)"/>
      <use xlink:href="#DejaVuSans-20" transform="translate(371.341797 0)"/>
      <use xlink:href="#DejaVuSans-4b" transform="translate(403.128906 0)"/>
     </g>
    </g>
    <g id="line2d_25">
     <path d="M 65.468 53.254687 
L 75.468 53.254687 
L 85.468 53.254687 
" style="fill: none; stroke: #2ca02c; stroke-width: 1.5; stroke-linecap: square"/>
    </g>
    <g id="text_19">
     <!-- Ts=120 K -->
     <g transform="translate(93.468 56.754687) scale(0.1 -0.1)">
      <use xlink:href="#DejaVuSans-54"/>
      <use xlink:href="#DejaVuSans-73" transform="translate(44.583984 0)"/>
      <use xlink:href="#DejaVuSans-3d" transform="translate(96.683594 0)"/>
      <use xlink:href="#DejaVuSans-31" transform="translate(180.472656 0)"/>
      <use xlink:href="#DejaVuSans-32" transform="translate(244.095703 0)"/>
      <use xlink:href="#DejaVuSans-30" transform="translate(307.71875 0)"/>
      <use xlink:href="#DejaVuSans-20" transform="translate(371.341797 0)"/>
      <use xlink:href="#DejaVuSans-4b" transform="translate(403.128906 0)"/>
     </g>
    </g>
    <g id="line2d_26">
     <path d="M 65.468 67.932813 
L 75.468 67.932813 
L 85.468 67.932813 
" style="fill: none; stroke: #d62728; stroke-width: 1.5; stroke-linecap: square"/>
    </g>
    <g id="text_20">
     <!-- Ts=140 K -->
     <g transform="translate(93.468 71.432813) scale(0.1 -0.1)">
      <use xlink:href="#DejaVuSans-54"/>
      <use xlink:href="#DejaVuSans-73" transform="translate(44.583984 0)"/>
      <use xlink:href="#DejaVuSans-3d" transform="translate(96.683594 0)"/>
      <use xlink:href="#DejaVuSans-31" transform="translate(180.472656 0)"/>
      <use xlink:href="#DejaVuSans-34" transform="translate(244.095703 0)"/>
      <use xlink:href="#DejaVuSans-30" transform="translate(307.71875 0)"/>
      <use xlink:href="#DejaVuSans-20" transform="translate(371.341797 0)"/>
      <use xlink:href="#DejaVuSans-4b" transform="translate(403.128906 0)"/>
     </g>
    </g>
    <g id="line2d_27">
     <path d="M 65.468 82.610938 
L 75.468 82.610938 
L 85.468 82.610938 
" style="fill: none; stroke: #9467bd; stroke-width: 1.5; stroke-linecap: square"/>
    </g>
    <g id="text_21">
     <!-- Ts=160 K -->
     <g transform="translate(93.468 86.110938) scale(0.1 -0.1)">
      <defs>
       <path id="DejaVuSans-36" d="M 2113 2584 
Q 1688 2584 1439 2293 
Q 1191 2003 1191 1497 
Q 1191 994 1439 701 
Q 1688 409 2113 409 
Q 2538 409 2786 701 
Q 3034 994 3034 1497 
Q 3034 2003 2786 2293 
Q 2538 2584 2113 2584 
z
M 3366 4563 
L 3366 3988 
Q 3128 4100 2886 4159 
Q 2644 4219 2406 4219 
Q 1781 4219 1451 3797 
Q 1122 3375 1075 2522 
Q 1259 2794 1537 2939 
Q 1816 3084 2150 3084 
Q 2853 3084 3261 2657 
Q 3669 2231 3669 1497 
Q 3669 778 3244 343 
Q 2819 -91 2113 -91 
Q 1303 -91 875 529 
Q 447 1150 447 2328 
Q 447 3434 972 4092 
Q 1497 4750 2381 4750 
Q 2619 4750 2861 4703 
Q 3103 4656 3366 4563 
z
" transform="scale(0.015625)"/>
      </defs>
      <use xlink:href="#DejaVuSans-54"/>
      <use xlink:href="#DejaVuSans-73" transform="translate(44.583984 0)"/>
      <use xlink:href="#DejaVuSans-3d" transform="translate(96.683594 0)"/>
      <use xlink:href="#DejaVuSans-31" transform="translate(180.472656 0)"/>
      <use xlink:href="#DejaVuSans-36" transform="translate(244.095703 0)"/>
      <use xlink:href="#DejaVuSans-30" transform="translate(307.71875 0)"/>
      <use xlink:href="#DejaVuSans-20" transform="translate(371.341797 0)"/>
      <use xlink:href="#DejaVuSans-4b" transform="translate(403.128906 0)"/>
     </g>
    </g>
    <g id="line2d_28">
     <path d="M 65.468 97.289062 
L 75.468 97.289062 
L 85.468 97.289062 
" style="fill: none; stroke: #8c564b; stroke-width: 1.5; stroke-linecap: square"/>
    </g>
    <g id="text_22">
     <!-- Ts=180 K -->
     <g transform="translate(93.468 100.789062) scale(0.1 -0.1)">
      <use xlink:href="#DejaVuSans-54"/>
      <use xlink:href="#DejaVuSans-73" transform="translate(44.583984 0)"/>
      <use xlink:href="#DejaVuSans-3d" transform="translate(96.683594 0)"/>
      <use xlink:href="#DejaVuSans-31" transform="translate(180.472656 0)"/>
      <use xlink:href="#DejaVuSans-38" transform="translate(244.095703 0)"/>
      <use xlink:href="#DejaVuSans-30" transform="translate(307.71875 0)"/>
      <use xlink:href="#DejaVuSans-20" transform="translate(371.341797 0)"/>
      <use xlink:href="#DejaVuSans-4b" transform="translate(403.128906 0)"/>
     </g>
    </g>
    <g id="line2d_29">
     <path d="M 65.468 111.967187 
L 75.468 111.967187 
L 85.468 111.967187 
" style="fill: none; stroke: #e377c2; stroke-width: 1.5; stroke-linecap: square"/>
    </g>
    <g id="text_23">
     <!-- Ts=200 K -->
     <g transform="translate(93.468 115.467187) scale(0.1 -0.1)">
      <use xlink:href="#DejaVuSans-54"/>
      <use xlink:href="#DejaVuSans-73" transform="translate(44.583984 0)"/>
      <use xlink:href="#DejaVuSans-3d" transform="translate(96.683594 0)"/>
      <use xlink:href="#DejaVuSans-32" transform="translate(180.472656 0)"/>
      <use xlink:href="#DejaVuSans-30" transform="translate(244.095703 0)"/>
      <use xlink:href="#DejaVuSans-30" transform="translate(307.71875 0)"/>
      <use xlink:href="#DejaVuSans-20" transform="translate(371.341797 0)"/>
      <use xlink:href="#DejaVuSans-4b" transform="translate(403.128906 0)"/>
     </g>
    </g>
    <g id="line2d_30">
     <path d="M 65.468 126.645312 
L 75.468 126.645312 
L 85.468 126.645312 
" style="fill: none; stroke: #7f7f7f; stroke-width: 1.5; stroke-linecap: square"/>
    </g>
    <g id="text_24">
     <!-- Ts=220 K -->
     <g transform="translate(93.468 130.145312) scale(0.1 -0.1)">
      <use xlink:href="#DejaVuSans-54"/>
      <use xlink:href="#DejaVuSans-73" transform="translate(44.583984 0)"/>
      <use xlink:href="#DejaVuSans-3d" transform="translate(96.683594 0)"/>
      <use xlink:href="#DejaVuSans-32" transform="translate(180.472656 0)"/>
      <use xlink:href="#DejaVuSans-32" transform="translate(244.095703 0)"/>
      <use xlink:href="#DejaVuSans-30" transform="translate(307.71875 0)"/>
      <use xlink:href="#DejaVuSans-20" transform="translate(371.341797 0)"/>
      <use xlink:href="#DejaVuSans-4b" transform="translate(403.128906 0)"/>
     </g>
    </g>
    <g id="PathCollection_9">
     <g>
      <use xlink:href="#m1f894259f5" x="75.468" y="142.198437" style="fill-opacity: 0.7; stroke: #000000; stroke-opacity: 0.7"/>
     </g>
    </g>
    <g id="text_25">
     <!-- Artificial data -->
     <g transform="translate(93.468 144.823437) scale(0.1 -0.1)">
      <defs>
       <path id="DejaVuSans-41" d="M 2188 4044 
L 1331 1722 
L 3047 1722 
L 2188 4044 
z
M 1831 4666 
L 2547 4666 
L 4325 0 
L 3669 0 
L 3244 1197 
L 1141 1197 
L 716 0 
L 50 0 
L 1831 4666 
z
" transform="scale(0.015625)"/>
       <path id="DejaVuSans-74" d="M 1172 4494 
L 1172 3500 
L 2356 3500 
L 2356 3053 
L 1172 3053 
L 1172 1153 
Q 1172 725 1289 603 
Q 1406 481 1766 481 
L 2356 481 
L 2356 0 
L 1766 0 
Q 1100 0 847 248 
Q 594 497 594 1153 
L 594 3053 
L 172 3053 
L 172 3500 
L 594 3500 
L 594 4494 
L 1172 4494 
z
" transform="scale(0.015625)"/>
       <path id="DejaVuSans-69" d="M 603 3500 
L 1178 3500 
L 1178 0 
L 603 0 
L 603 3500 
z
M 603 4863 
L 1178 4863 
L 1178 4134 
L 603 4134 
L 603 4863 
z
" transform="scale(0.015625)"/>
       <path id="DejaVuSans-66" d="M 2375 4863 
L 2375 4384 
L 1825 4384 
Q 1516 4384 1395 4259 
Q 1275 4134 1275 3809 
L 1275 3500 
L 2222 3500 
L 2222 3053 
L 1275 3053 
L 1275 0 
L 697 0 
L 697 3053 
L 147 3053 
L 147 3500 
L 697 3500 
L 697 3744 
Q 697 4328 969 4595 
Q 1241 4863 1831 4863 
L 2375 4863 
z
" transform="scale(0.015625)"/>
       <path id="DejaVuSans-63" d="M 3122 3366 
L 3122 2828 
Q 2878 2963 2633 3030 
Q 2388 3097 2138 3097 
Q 1578 3097 1268 2742 
Q 959 2388 959 1747 
Q 959 1106 1268 751 
Q 1578 397 2138 397 
Q 2388 397 2633 464 
Q 2878 531 3122 666 
L 3122 134 
Q 2881 22 2623 -34 
Q 2366 -91 2075 -91 
Q 1284 -91 818 406 
Q 353 903 353 1747 
Q 353 2603 823 3093 
Q 1294 3584 2113 3584 
Q 2378 3584 2631 3529 
Q 2884 3475 3122 3366 
z
" transform="scale(0.015625)"/>
       <path id="DejaVuSans-61" d="M 2194 1759 
Q 1497 1759 1228 1600 
Q 959 1441 959 1056 
Q 959 750 1161 570 
Q 1363 391 1709 391 
Q 2188 391 2477 730 
Q 2766 1069 2766 1631 
L 2766 1759 
L 2194 1759 
z
M 3341 1997 
L 3341 0 
L 2766 0 
L 2766 531 
Q 2569 213 2275 61 
Q 1981 -91 1556 -91 
Q 1019 -91 701 211 
Q 384 513 384 1019 
Q 384 1609 779 1909 
Q 1175 2209 1959 2209 
L 2766 2209 
L 2766 2266 
Q 2766 2663 2505 2880 
Q 2244 3097 1772 3097 
Q 1472 3097 1187 3025 
Q 903 2953 641 2809 
L 641 3341 
Q 956 3463 1253 3523 
Q 1550 3584 1831 3584 
Q 2591 3584 2966 3190 
Q 3341 2797 3341 1997 
z
" transform="scale(0.015625)"/>
       <path id="DejaVuSans-6c" d="M 603 4863 
L 1178 4863 
L 1178 0 
L 603 0 
L 603 4863 
z
" transform="scale(0.015625)"/>
       <path id="DejaVuSans-64" d="M 2906 2969 
L 2906 4863 
L 3481 4863 
L 3481 0 
L 2906 0 
L 2906 525 
Q 2725 213 2448 61 
Q 2172 -91 1784 -91 
Q 1150 -91 751 415 
Q 353 922 353 1747 
Q 353 2572 751 3078 
Q 1150 3584 1784 3584 
Q 2172 3584 2448 3432 
Q 2725 3281 2906 2969 
z
M 947 1747 
Q 947 1113 1208 752 
Q 1469 391 1925 391 
Q 2381 391 2643 752 
Q 2906 1113 2906 1747 
Q 2906 2381 2643 2742 
Q 2381 3103 1925 3103 
Q 1469 3103 1208 2742 
Q 947 2381 947 1747 
z
" transform="scale(0.015625)"/>
      </defs>
      <use xlink:href="#DejaVuSans-41"/>
      <use xlink:href="#DejaVuSans-72" transform="translate(68.408203 0)"/>
      <use xlink:href="#DejaVuSans-74" transform="translate(109.521484 0)"/>
      <use xlink:href="#DejaVuSans-69" transform="translate(148.730469 0)"/>
      <use xlink:href="#DejaVuSans-66" transform="translate(176.513672 0)"/>
      <use xlink:href="#DejaVuSans-69" transform="translate(211.71875 0)"/>
      <use xlink:href="#DejaVuSans-63" transform="translate(239.501953 0)"/>
      <use xlink:href="#DejaVuSans-69" transform="translate(294.482422 0)"/>
      <use xlink:href="#DejaVuSans-61" transform="translate(322.265625 0)"/>
      <use xlink:href="#DejaVuSans-6c" transform="translate(383.544922 0)"/>
      <use xlink:href="#DejaVuSans-20" transform="translate(411.328125 0)"/>
      <use xlink:href="#DejaVuSans-64" transform="translate(443.115234 0)"/>
      <use xlink:href="#DejaVuSans-61" transform="translate(506.591797 0)"/>
      <use xlink:href="#DejaVuSans-74" transform="translate(567.871094 0)"/>
      <use xlink:href="#DejaVuSans-61" transform="translate(607.080078 0)"/>
     </g>
    </g>
   </g>
  </g>
 </g>
 <defs>
  <clipPath id="p0c3a34b694">
   <rect x="56.468" y="10.8" width="393.532" height="291.4"/>
  </clipPath>
 </defs>
</svg>
