<?xml version="1.0" encoding="utf-8" standalone="no"?>
<!DOCTYPE svg PUBLIC "-//W3C//DTD SVG 1.1//EN"
  "http://www.w3.org/Graphics/SVG/1.1/DTD/svg11.dtd">
<svg xmlns:xlink="http://www.w3.org/1999/xlink" width="460.8pt" height="345.6pt" viewBox="0 0 460.8 345.6" xmlns="http://www.w3.org/2000/svg" version="1.1">
 <metadata>
  <rdf:RDF xmlns:dc="http://purl.org/dc/elements/1.1/" xmlns:cc="http://creativecommons.org/ns#" xmlns:rdf="http://www.w3.org/1999/02/22-rdf-syntax-ns#">
   <cc:Work>
    <dc:type rdf:resource="http://purl.org/dc/dcmitype/StillImage"/>
    <dc:date>2026-02-12T04:29:00.217078</dc:date>
    <dc:format>image/svg+xml</dc:format>
    <dc:creator>
     <cc:Agent>
      <dc:title>Matplotlib v3.10.8, https://matplotlib.org/</dc:title>
     </cc:Agent>
    </dc:creator>
   </cc:Work>
  </rdf:RDF>
 </metadata>
 <defs>
  <style type="text/css">*{stroke-linejoin: round; stroke-linecap: butt}</style>
 </defs>
 <g id="figure_1">
  <g id="patch_1">
   <path d="M 0 345.6 
L 460.8 345.6 
L 460.8 0 
L 0 0 
L 0 345.6 
z
" style="fill: none"/>
  </g>
  <g id="axes_1">
   <g id="patch_2">
    <path d="M 47.018 302.2 
L 450 302.2 
L 450 10.8 
L 47.018 10.8 
L 47.018 302.2 
z
" style="fill: none"/>
   </g>
   <g id="FillBetweenPolyCollection_1">
    <path d="M 65.335364 212.942977 
L 65.335364 216.055713 
L 72.811839 200.837843 
L 80.288314 188.106072 
L 87.764788 177.346266 
L 95.241263 168.461176 
L 102.717738 161.194653 
L 110.194213 155.140488 
L 117.670688 149.357355 
L 125.147163 144.435717 
L 132.623638 139.43594 
L 140.100113 134.765098 
L 147.576588 130.511803 
L 155.053063 126.241029 
L 162.529538 122.202351 
L 170.006013 118.248361 
L 177.482488 114.416233 
L 184.958963 110.915481 
L 192.435438 107.34566 
L 199.911913 104.129497 
L 207.388388 100.667931 
L 214.864863 97.713015 
L 222.341338 94.557224 
L 229.817813 91.394025 
L 237.294288 88.45883 
L 244.770763 85.610389 
L 252.247237 82.833069 
L 259.723712 79.988024 
L 267.200187 77.195807 
L 274.676662 74.650604 
L 282.153137 72.09396 
L 289.629612 69.400561 
L 297.106087 66.957262 
L 304.582562 64.466969 
L 312.059037 62.090392 
L 319.535512 59.584878 
L 327.011987 57.155969 
L 334.488462 54.898503 
L 341.964937 52.545165 
L 349.441412 50.364438 
L 356.917887 48.10167 
L 364.394362 45.864327 
L 371.870837 43.945046 
L 379.347312 41.89496 
L 386.823787 39.546158 
L 394.300262 37.461445 
L 401.776737 35.390457 
L 409.253212 33.561529 
L 416.729686 31.606312 
L 424.206161 29.741208 
L 431.682636 27.206787 
L 431.682636 24.045455 
L 431.682636 24.045455 
L 424.206161 25.123468 
L 416.729686 27.287575 
L 409.253212 29.468672 
L 401.776737 31.893268 
L 394.300262 34.279978 
L 386.823787 36.243611 
L 379.347312 38.457454 
L 371.870837 40.586949 
L 364.394362 42.834501 
L 356.917887 45.125672 
L 349.441412 47.230558 
L 341.964937 49.463574 
L 334.488462 51.676379 
L 327.011987 54.11628 
L 319.535512 56.519625 
L 312.059037 58.821975 
L 304.582562 61.393623 
L 297.106087 63.850164 
L 289.629612 66.475122 
L 282.153137 68.975684 
L 274.676662 71.433702 
L 267.200187 74.174016 
L 259.723712 76.816119 
L 252.247237 79.701096 
L 244.770763 82.480367 
L 237.294288 85.503809 
L 229.817813 88.346099 
L 222.341338 91.409961 
L 214.864863 94.61547 
L 207.388388 97.752788 
L 199.911913 100.948428 
L 192.435438 104.349573 
L 184.958963 107.830163 
L 177.482488 111.358816 
L 170.006013 115.143572 
L 162.529538 119.035266 
L 155.053063 122.973877 
L 147.576588 127.265674 
L 140.100113 131.647333 
L 132.623638 136.252594 
L 125.147163 141.058334 
L 117.670688 145.990729 
L 110.194213 151.781266 
L 102.717738 158.030403 
L 95.241263 165.295093 
L 87.764788 173.595412 
L 80.288314 183.894825 
L 72.811839 196.571187 
L 65.335364 212.942977 
z
" clip-path="url(#p3f90104f2f)" style="fill: #1f77b4; fill-opacity: 0.27"/>
   </g>
   <g id="FillBetweenPolyCollection_2">
    <path d="M 65.335364 214.406308 
L 65.335364 214.644374 
L 72.811839 198.865049 
L 80.288314 186.105041 
L 87.764788 175.713384 
L 95.241263 167.124471 
L 102.717738 159.868808 
L 110.194213 153.573355 
L 117.670688 147.953384 
L 125.147163 142.803339 
L 132.623638 137.98461 
L 140.100113 133.411124 
L 147.576588 129.034848 
L 155.053063 124.830819 
L 162.529538 120.787327 
L 170.006013 116.897941 
L 177.482488 113.156413 
L 184.958963 109.554119 
L 192.435438 106.079538 
L 199.911913 102.719132 
L 207.388388 99.458886 
L 214.864863 96.285966 
L 222.341338 93.189985 
L 229.817813 90.163688 
L 237.294288 87.202814 
L 244.770763 84.305267 
L 252.247237 81.470279 
L 259.723712 78.697149 
L 267.200187 75.984256 
L 274.676662 73.328516 
L 282.153137 70.725336 
L 289.629612 68.169111 
L 297.106087 65.654089 
L 304.582562 63.175412 
L 312.059037 60.730016 
L 319.535512 58.317172 
L 327.011987 55.938442 
L 334.488462 53.596988 
L 341.964937 51.296289 
L 349.441412 49.038502 
L 356.917887 46.822812 
L 364.394362 44.644209 
L 371.870837 42.493182 
L 379.347312 40.356724 
L 386.823787 38.220983 
L 394.300262 36.07565 
L 401.776737 33.920044 
L 409.253212 31.770833 
L 416.729686 29.668274 
L 424.206161 27.685827 
L 431.682636 25.936324 
L 431.682636 25.415143 
L 431.682636 25.415143 
L 424.206161 27.167467 
L 416.729686 29.153399 
L 409.253212 31.259779 
L 401.776737 33.412923 
L 394.300262 35.571849 
L 386.823787 37.720422 
L 379.347312 39.859389 
L 371.870837 41.99908 
L 364.394362 44.153371 
L 356.917887 46.335287 
L 349.441412 48.554357 
L 341.964937 50.815595 
L 334.488462 53.119815 
L 327.011987 55.464855 
L 319.535512 57.847227 
L 312.059037 60.263767 
L 304.582562 62.712912 
L 297.106087 65.195392 
L 289.629612 67.714279 
L 282.153137 70.274445 
L 274.676662 72.881646 
L 267.200187 75.541499 
L 259.723712 78.258602 
L 252.247237 81.036043 
L 244.770763 83.875441 
L 237.294288 86.777496 
L 229.817813 89.742974 
L 222.341338 92.773878 
L 214.864863 95.874524 
L 207.388388 99.052238 
L 199.911913 102.31743 
L 192.435438 105.682969 
L 184.958963 109.162897 
L 177.482488 112.770098 
L 170.006013 116.515776 
L 162.529538 120.409535 
L 155.053063 124.457599 
L 147.576588 128.666367 
L 140.100113 133.047533 
L 132.623638 137.626076 
L 125.147163 142.451046 
L 117.670688 147.609186 
L 110.194213 153.23829 
L 102.717738 159.542919 
L 95.241263 166.807928 
L 87.764788 175.408654 
L 80.288314 185.816064 
L 72.811839 198.598489 
L 65.335364 214.406308 
z
" clip-path="url(#p3f90104f2f)" style="fill: #ff7f0e; fill-opacity: 0.45"/>
   </g>
   <g id="FillBetweenPolyCollection_3">
    <path d="M 65.335364 251.465667 
L 65.335364 254.405342 
L 72.811839 246.805578 
L 80.288314 240.011968 
L 87.764788 234.235334 
L 95.241263 229.554558 
L 102.717738 225.770073 
L 110.194213 222.467317 
L 117.670688 219.242362 
L 125.147163 216.645939 
L 132.623638 213.970979 
L 140.100113 211.46894 
L 147.576588 209.17224 
L 155.053063 206.824482 
L 162.529538 204.693066 
L 170.006013 202.646967 
L 177.482488 200.516839 
L 184.958963 198.532529 
L 192.435438 196.745964 
L 199.911913 195.001834 
L 207.388388 193.244567 
L 214.864863 191.530974 
L 222.341338 189.893603 
L 229.817813 188.194905 
L 237.294288 186.564855 
L 244.770763 184.88846 
L 252.247237 183.482569 
L 259.723712 181.927979 
L 267.200187 180.496232 
L 274.676662 179.075108 
L 282.153137 177.712824 
L 289.629612 176.280844 
L 297.106087 174.968991 
L 304.582562 173.449559 
L 312.059037 172.246589 
L 319.535512 170.868848 
L 327.011987 169.616999 
L 334.488462 168.391823 
L 341.964937 167.332462 
L 349.441412 166.012427 
L 356.917887 164.589277 
L 364.394362 163.558587 
L 371.870837 162.37591 
L 379.347312 161.195506 
L 386.823787 160.013792 
L 394.300262 158.807879 
L 401.776737 157.932025 
L 409.253212 157.143261 
L 416.729686 156.203515 
L 424.206161 155.175458 
L 431.682636 153.448372 
L 431.682636 150.172624 
L 431.682636 150.172624 
L 424.206161 150.464981 
L 416.729686 151.443567 
L 409.253212 152.845522 
L 401.776737 154.249527 
L 394.300262 155.703399 
L 386.823787 156.814135 
L 379.347312 157.834175 
L 371.870837 159.117385 
L 364.394362 160.251863 
L 356.917887 161.534892 
L 349.441412 162.79905 
L 341.964937 163.949151 
L 334.488462 165.389885 
L 327.011987 166.480003 
L 319.535512 167.8025 
L 312.059037 169.166875 
L 304.582562 170.33733 
L 297.106087 171.736315 
L 289.629612 173.193714 
L 282.153137 174.526751 
L 274.676662 175.993385 
L 267.200187 177.428701 
L 259.723712 178.853307 
L 252.247237 180.319913 
L 244.770763 181.884479 
L 237.294288 183.38874 
L 229.817813 185.159684 
L 222.341338 186.84341 
L 214.864863 188.40826 
L 207.388388 190.227932 
L 199.911913 191.889959 
L 192.435438 193.478907 
L 184.958963 195.471392 
L 177.482488 197.472927 
L 170.006013 199.574451 
L 162.529538 201.551686 
L 155.053063 203.558908 
L 147.576588 206.021621 
L 140.100113 208.396272 
L 132.623638 210.909773 
L 125.147163 213.33597 
L 117.670688 216.131919 
L 110.194213 219.029605 
L 102.717738 222.675164 
L 95.241263 226.363315 
L 87.764788 230.689099 
L 80.288314 235.916174 
L 72.811839 242.552541 
L 65.335364 251.465667 
z
" clip-path="url(#p3f90104f2f)" style="fill: #2ca02c; fill-opacity: 0.27"/>
   </g>
   <g id="FillBetweenPolyCollection_4">
    <path d="M 65.335364 252.797989 
L 65.335364 252.950414 
L 72.811839 244.750407 
L 80.288314 238.080626 
L 87.764788 232.617923 
L 95.241263 228.079448 
L 102.717738 224.228436 
L 110.194213 220.874936 
L 117.670688 217.873626 
L 125.147163 215.119134 
L 132.623638 212.539656 
L 140.100113 210.089792 
L 147.576588 207.74337 
L 155.053063 205.486882 
L 162.529538 203.314022 
L 170.006013 201.221555 
L 177.482488 199.206587 
L 184.958963 197.265115 
L 192.435438 195.391619 
L 199.911913 193.579409 
L 207.388388 191.821331 
L 214.864863 190.11061 
L 222.341338 188.441535 
L 229.817813 186.809863 
L 237.294288 185.212855 
L 244.770763 183.649035 
L 252.247237 182.117703 
L 259.723712 180.618395 
L 267.200187 179.150377 
L 274.676662 177.712324 
L 282.153137 176.30224 
L 289.629612 174.917607 
L 297.106087 173.555747 
L 304.582562 172.214266 
L 312.059037 170.891483 
L 319.535512 169.5867 
L 327.011987 168.300246 
L 334.488462 167.033211 
L 341.964937 165.786923 
L 349.441412 164.562241 
L 356.917887 163.358821 
L 364.394362 162.174552 
L 371.870837 161.005373 
L 379.347312 159.845662 
L 386.823787 158.689344 
L 394.300262 157.531786 
L 401.776737 156.372413 
L 409.253212 155.217913 
L 416.729686 154.08576 
L 424.206161 153.007686 
L 431.682636 152.032707 
L 431.682636 151.49247 
L 431.682636 151.49247 
L 424.206161 152.470992 
L 416.729686 153.552949 
L 409.253212 154.689176 
L 401.776737 155.847841 
L 394.300262 157.011416 
L 386.823787 158.173184 
L 379.347312 159.333723 
L 371.870837 160.497677 
L 364.394362 161.67114 
L 356.917887 162.859753 
L 349.441412 164.067596 
L 341.964937 165.296795 
L 334.488462 166.547697 
L 327.011987 167.819448 
L 319.535512 169.110716 
L 312.059037 170.420411 
L 304.582562 171.748199 
L 297.106087 173.09477 
L 289.629612 174.461802 
L 282.153137 175.851686 
L 274.676662 177.267099 
L 267.200187 178.710559 
L 259.723712 180.184065 
L 252.247237 181.688943 
L 244.770763 183.225938 
L 237.294288 184.795528 
L 229.817813 186.398432 
L 222.341338 188.036149 
L 214.864863 189.711442 
L 207.388388 191.428586 
L 199.911913 193.193318 
L 192.435438 195.012438 
L 184.958963 196.893114 
L 177.482488 198.842051 
L 170.006013 200.864768 
L 162.529538 202.965263 
L 155.053063 205.146418 
L 147.576588 207.411471 
L 140.100113 209.766752 
L 132.623638 212.225832 
L 125.147163 214.815023 
L 117.670688 217.579945 
L 110.194213 220.592741 
L 102.717738 223.959361 
L 95.241263 227.825842 
L 87.764788 232.382817 
L 80.288314 237.868015 
L 72.811839 244.56498 
L 65.335364 252.797989 
z
" clip-path="url(#p3f90104f2f)" style="fill: #d62728; fill-opacity: 0.45"/>
   </g>
   <g id="FillBetweenPolyCollection_5">
    <path d="M 65.335364 273.622175 
L 65.335364 276.786853 
L 72.811839 274.179607 
L 80.288314 271.770983 
L 87.764788 269.235375 
L 95.241263 267.368476 
L 102.717738 265.964662 
L 110.194213 264.793391 
L 117.670688 263.739645 
L 125.147163 262.501495 
L 132.623638 261.340679 
L 140.100113 260.495411 
L 147.576588 259.668234 
L 155.053063 258.798538 
L 162.529538 258.082017 
L 170.006013 257.128788 
L 177.482488 256.262701 
L 184.958963 255.571851 
L 192.435438 254.91431 
L 199.911913 254.173521 
L 207.388388 253.461341 
L 214.864863 252.946542 
L 222.341338 252.41716 
L 229.817813 251.607328 
L 237.294288 250.959142 
L 244.770763 250.415518 
L 252.247237 249.882738 
L 259.723712 249.212597 
L 267.200187 248.772515 
L 274.676662 248.143424 
L 282.153137 247.518093 
L 289.629612 246.929312 
L 297.106087 246.539491 
L 304.582562 245.932767 
L 312.059037 245.529663 
L 319.535512 245.074377 
L 327.011987 244.427339 
L 334.488462 244.145702 
L 341.964937 243.699712 
L 349.441412 242.988822 
L 356.917887 242.548873 
L 364.394362 242.224725 
L 371.870837 241.800119 
L 379.347312 241.410594 
L 386.823787 240.912881 
L 394.300262 240.366887 
L 401.776737 240.092901 
L 409.253212 239.988016 
L 416.729686 239.896925 
L 424.206161 239.385212 
L 431.682636 238.306567 
L 431.682636 235.146372 
L 431.682636 235.146372 
L 424.206161 234.764113 
L 416.729686 235.227046 
L 409.253212 235.74708 
L 401.776737 236.615503 
L 394.300262 237.300075 
L 386.823787 237.607521 
L 379.347312 238.068705 
L 371.870837 238.512727 
L 364.394362 238.985327 
L 356.917887 239.499909 
L 349.441412 239.942643 
L 341.964937 240.371065 
L 334.488462 240.914112 
L 327.011987 241.423035 
L 319.535512 241.946029 
L 312.059037 242.420013 
L 304.582562 242.99995 
L 297.106087 243.434307 
L 289.629612 243.86183 
L 282.153137 244.487808 
L 274.676662 244.83621 
L 267.200187 245.568453 
L 259.723712 246.08207 
L 252.247237 246.650605 
L 244.770763 247.348689 
L 237.294288 247.972591 
L 229.817813 248.570426 
L 222.341338 249.233108 
L 214.864863 249.883315 
L 207.388388 250.440515 
L 199.911913 251.022266 
L 192.435438 251.80633 
L 184.958963 252.443183 
L 177.482488 253.465681 
L 170.006013 254.068277 
L 162.529538 254.852865 
L 155.053063 255.515023 
L 147.576588 256.51583 
L 140.100113 257.434937 
L 132.623638 258.396757 
L 125.147163 259.262406 
L 117.670688 260.293235 
L 110.194213 261.419669 
L 102.717738 262.937096 
L 95.241263 264.240474 
L 87.764788 265.62746 
L 80.288314 267.39689 
L 72.811839 269.952178 
L 65.335364 273.622175 
z
" clip-path="url(#p3f90104f2f)" style="fill: #9467bd; fill-opacity: 0.27"/>
   </g>
   <g id="FillBetweenPolyCollection_6">
    <path d="M 65.335364 275.095544 
L 65.335364 275.198115 
L 72.811839 272.145909 
L 80.288314 269.65798 
L 87.764788 267.614495 
L 95.241263 265.910902 
L 102.717738 264.459814 
L 110.194213 263.191386 
L 117.670688 262.052432 
L 125.147163 261.004596 
L 132.623638 260.021895 
L 140.100113 259.088002 
L 147.576588 258.19353 
L 155.053063 257.333596 
L 162.529538 256.505808 
L 170.006013 255.708783 
L 177.482488 254.941185 
L 184.958963 254.201251 
L 192.435438 253.486693 
L 199.911913 252.794867 
L 207.388388 252.123052 
L 214.864863 251.468771 
L 222.341338 250.83001 
L 229.817813 250.205343 
L 237.294288 249.593907 
L 244.770763 248.995273 
L 252.247237 248.409239 
L 259.723712 247.835614 
L 267.200187 247.274039 
L 274.676662 246.723886 
L 282.153137 246.184254 
L 289.629612 245.65407 
L 297.106087 245.132244 
L 304.582562 244.617871 
L 312.059037 244.110383 
L 319.535512 243.609652 
L 327.011987 243.115964 
L 334.488462 242.629889 
L 341.964937 242.152033 
L 349.441412 241.68274 
L 356.917887 241.221785 
L 364.394362 240.76817 
L 371.870837 240.32008 
L 379.347312 239.875098 
L 386.823787 239.430698 
L 394.300262 238.985066 
L 401.776737 238.538183 
L 409.253212 238.093117 
L 416.729686 237.657378 
L 424.206161 237.24422 
L 431.682636 236.873678 
L 431.682636 236.518961 
L 431.682636 236.518961 
L 424.206161 236.892302 
L 416.729686 237.308177 
L 409.253212 237.746569 
L 401.776737 238.194259 
L 394.300262 238.64377 
L 386.823787 239.092071 
L 379.347312 239.539203 
L 371.870837 239.986994 
L 364.394362 240.437972 
L 356.917887 240.894548 
L 349.441412 241.358522 
L 341.964937 241.830875 
L 334.488462 242.311814 
L 327.011987 242.800986 
L 319.535512 243.297781 
L 312.059037 243.801632 
L 304.582562 244.312261 
L 297.106087 244.829814 
L 289.629612 245.354873 
L 282.153137 245.888368 
L 274.676662 246.431397 
L 267.200187 246.985047 
L 259.723712 247.550218 
L 252.247237 248.127536 
L 244.770763 248.717356 
L 237.294288 249.319856 
L 229.817813 249.935232 
L 222.341338 250.563911 
L 214.864863 251.206757 
L 207.388388 251.86521 
L 199.911913 252.541299 
L 192.435438 253.237532 
L 184.958963 253.956653 
L 177.482488 254.701336 
L 170.006013 255.473888 
L 162.529538 256.276084 
L 155.053063 257.109272 
L 147.576588 257.974838 
L 140.100113 258.875179 
L 132.623638 259.815207 
L 125.147163 260.804363 
L 117.670688 261.859095 
L 110.194213 263.00557 
L 102.717738 264.282433 
L 95.241263 265.743275 
L 87.764788 267.458482 
L 80.288314 269.516119 
L 72.811839 272.021549 
L 65.335364 275.095544 
z
" clip-path="url(#p3f90104f2f)" style="fill: #8c564b; fill-opacity: 0.45"/>
   </g>
   <g id="FillBetweenPolyCollection_7">
    <path d="M 65.335364 279.001969 
L 65.335364 288.954545 
L 72.811839 288.544433 
L 80.288314 287.579305 
L 87.764788 286.683694 
L 95.241263 286.396225 
L 102.717738 286.516823 
L 110.194213 286.05753 
L 117.670688 285.388996 
L 125.147163 285.370281 
L 132.623638 284.680593 
L 140.100113 284.836079 
L 147.576588 284.687513 
L 155.053063 284.445836 
L 162.529538 284.129306 
L 170.006013 284.189042 
L 177.482488 283.807732 
L 184.958963 283.460159 
L 192.435438 283.800506 
L 199.911913 283.141433 
L 207.388388 283.269548 
L 214.864863 283.21289 
L 222.341338 282.808258 
L 229.817813 282.958757 
L 237.294288 282.764488 
L 244.770763 282.627204 
L 252.247237 282.534613 
L 259.723712 282.449362 
L 267.200187 282.423732 
L 274.676662 281.956834 
L 282.153137 282.010758 
L 289.629612 281.640259 
L 297.106087 281.431476 
L 304.582562 281.6495 
L 312.059037 281.209822 
L 319.535512 281.292076 
L 327.011987 281.239885 
L 334.488462 280.687415 
L 341.964937 281.018 
L 349.441412 280.661178 
L 356.917887 280.828511 
L 364.394362 280.645634 
L 371.870837 280.61651 
L 379.347312 279.8579 
L 386.823787 280.201417 
L 394.300262 280.09999 
L 401.776737 279.910647 
L 409.253212 279.632707 
L 416.729686 279.637053 
L 424.206161 280.015178 
L 431.682636 280.030364 
L 431.682636 269.474801 
L 431.682636 269.474801 
L 424.206161 269.461647 
L 416.729686 270.397941 
L 409.253212 270.210426 
L 401.776737 270.576895 
L 394.300262 270.577476 
L 386.823787 270.538587 
L 379.347312 271.142151 
L 371.870837 271.005507 
L 364.394362 271.446697 
L 356.917887 271.539599 
L 349.441412 271.488731 
L 341.964937 271.423837 
L 334.488462 271.694917 
L 327.011987 271.929906 
L 319.535512 271.950055 
L 312.059037 272.049669 
L 304.582562 272.304398 
L 297.106087 272.457525 
L 289.629612 272.562641 
L 282.153137 272.902334 
L 274.676662 272.670582 
L 267.200187 273.428358 
L 259.723712 273.20428 
L 252.247237 272.696887 
L 244.770763 273.113597 
L 237.294288 273.508527 
L 229.817813 273.718503 
L 222.341338 273.620534 
L 214.864863 273.995494 
L 207.388388 274.035755 
L 199.911913 274.15451 
L 192.435438 273.950088 
L 184.958963 274.476005 
L 177.482488 274.638261 
L 170.006013 274.789255 
L 162.529538 275.314213 
L 155.053063 275.235969 
L 147.576588 274.957693 
L 140.100113 275.545329 
L 132.623638 275.814271 
L 125.147163 276.437191 
L 117.670688 276.960841 
L 110.194213 276.516934 
L 102.717738 276.968973 
L 95.241263 277.254234 
L 87.764788 277.490034 
L 80.288314 278.007798 
L 72.811839 278.697519 
L 65.335364 279.001969 
z
" clip-path="url(#p3f90104f2f)" style="fill: #e377c2; fill-opacity: 0.27"/>
   </g>
   <g id="FillBetweenPolyCollection_8">
    <path d="M 65.335364 284.036501 
L 65.335364 284.078621 
L 72.811839 283.355656 
L 80.288314 282.776297 
L 87.764788 282.306878 
L 95.241263 281.918816 
L 102.717738 281.588971 
L 110.194213 281.299528 
L 117.670688 281.037541 
L 125.147163 280.794205 
L 132.623638 280.564016 
L 140.100113 280.343899 
L 147.576588 280.132403 
L 155.053063 279.929028 
L 162.529538 279.733707 
L 170.006013 279.546458 
L 177.482488 279.367192 
L 184.958963 279.195638 
L 192.435438 279.031351 
L 199.911913 278.873767 
L 207.388388 278.722262 
L 214.864863 278.576193 
L 222.341338 278.434921 
L 229.817813 278.297796 
L 237.294288 278.164143 
L 244.770763 278.033233 
L 252.247237 277.904275 
L 259.723712 277.776451 
L 267.200187 277.64896 
L 274.676662 277.521114 
L 282.153137 277.392431 
L 289.629612 277.262725 
L 297.106087 277.132163 
L 304.582562 277.001267 
L 312.059037 276.87084 
L 319.535512 276.741816 
L 327.011987 276.615057 
L 334.488462 276.491104 
L 341.964937 276.369946 
L 349.441412 276.250843 
L 356.917887 276.132256 
L 364.394362 276.011961 
L 371.870837 275.887333 
L 379.347312 275.755863 
L 386.823787 275.61586 
L 394.300262 275.467313 
L 401.776737 275.312835 
L 409.253212 275.158592 
L 416.729686 275.015106 
L 424.206161 274.897808 
L 431.682636 274.827247 
L 431.682636 274.702202 
L 431.682636 274.702202 
L 424.206161 274.77369 
L 416.729686 274.891743 
L 409.253212 275.03585 
L 401.776737 275.190649 
L 394.300262 275.345709 
L 386.823787 275.494954 
L 379.347312 275.635853 
L 371.870837 275.768474 
L 364.394362 275.894541 
L 356.917887 276.016564 
L 349.441412 276.137136 
L 341.964937 276.25843 
L 334.488462 276.381909 
L 327.011987 276.508232 
L 319.535512 276.63733 
L 312.059037 276.768583 
L 304.582562 276.901071 
L 297.106087 277.033815 
L 289.629612 277.165994 
L 282.153137 277.297087 
L 274.676662 277.426941 
L 267.200187 277.555777 
L 259.723712 277.684116 
L 252.247237 277.812695 
L 244.770763 277.942356 
L 237.294288 278.073962 
L 229.817813 278.208337 
L 222.341338 278.346237 
L 214.864863 278.488361 
L 207.388388 278.63537 
L 199.911913 278.787917 
L 192.435438 278.946645 
L 184.958963 279.112183 
L 177.482488 279.285094 
L 170.006013 279.465816 
L 162.529538 279.654614 
L 155.053063 279.851563 
L 147.576588 280.056627 
L 140.100113 280.269859 
L 132.623638 280.491746 
L 125.147163 280.723737 
L 117.670688 280.968927 
L 110.194213 281.232876 
L 102.717738 281.524486 
L 95.241263 281.856869 
L 87.764788 282.248071 
L 80.288314 282.721555 
L 72.811839 283.306311 
L 65.335364 284.036501 
z
" clip-path="url(#p3f90104f2f)" style="fill: #7f7f7f; fill-opacity: 0.45"/>
   </g>
   <g id="matplotlib.axis_1">
    <g id="xtick_1">
     <g id="line2d_1">
      <defs>
       <path id="m85ef187fef" d="M 0 0 
L 0 3.5 
" style="stroke: #000000; stroke-width: 0.8"/>
      </defs>
      <g>
       <use xlink:href="#m85ef187fef" x="61.634886" y="302.2" style="stroke: #000000; stroke-width: 0.8"/>
      </g>
     </g>
     <g id="text_1">
      <!-- 0 -->
      <g transform="translate(58.453636 316.798437) scale(0.1 -0.1)">
       <defs>
        <path id="DejaVuSans-30" d="M 2034 4250 
Q 1547 4250 1301 3770 
Q 1056 3291 1056 2328 
Q 1056 1369 1301 889 
Q 1547 409 2034 409 
Q 2525 409 2770 889 
Q 3016 1369 3016 2328 
Q 3016 3291 2770 3770 
Q 2525 4250 2034 4250 
z
M 2034 4750 
Q 2819 4750 3233 4129 
Q 3647 3509 3647 2328 
Q 3647 1150 3233 529 
Q 2819 -91 2034 -91 
Q 1250 -91 836 529 
Q 422 1150 422 2328 
Q 422 3509 836 4129 
Q 1250 4750 2034 4750 
z
" transform="scale(0.015625)"/>
       </defs>
       <use xlink:href="#DejaVuSans-30"/>
      </g>
     </g>
    </g>
    <g id="xtick_2">
     <g id="line2d_2">
      <g>
       <use xlink:href="#m85ef187fef" x="135.644436" y="302.2" style="stroke: #000000; stroke-width: 0.8"/>
      </g>
     </g>
     <g id="text_2">
      <!-- 1 -->
      <g transform="translate(132.463186 316.798437) scale(0.1 -0.1)">
       <defs>
        <path id="DejaVuSans-31" d="M 794 531 
L 1825 531 
L 1825 4091 
L 703 3866 
L 703 4441 
L 1819 4666 
L 2450 4666 
L 2450 531 
L 3481 531 
L 3481 0 
L 794 0 
L 794 531 
z
" transform="scale(0.015625)"/>
       </defs>
       <use xlink:href="#DejaVuSans-31"/>
      </g>
     </g>
    </g>
    <g id="xtick_3">
     <g id="line2d_3">
      <g>
       <use xlink:href="#m85ef187fef" x="209.653986" y="302.2" style="stroke: #000000; stroke-width: 0.8"/>
      </g>
     </g>
     <g id="text_3">
      <!-- 2 -->
      <g transform="translate(206.472736 316.798437) scale(0.1 -0.1)">
       <defs>
        <path id="DejaVuSans-32" d="M 1228 531 
L 3431 531 
L 3431 0 
L 469 0 
L 469 531 
Q 828 903 1448 1529 
Q 2069 2156 2228 2338 
Q 2531 2678 2651 2914 
Q 2772 3150 2772 3378 
Q 2772 3750 2511 3984 
Q 2250 4219 1831 4219 
Q 1534 4219 1204 4116 
Q 875 4013 500 3803 
L 500 4441 
Q 881 4594 1212 4672 
Q 1544 4750 1819 4750 
Q 2544 4750 2975 4387 
Q 3406 4025 3406 3419 
Q 3406 3131 3298 2873 
Q 3191 2616 2906 2266 
Q 2828 2175 2409 1742 
Q 1991 1309 1228 531 
z
" transform="scale(0.015625)"/>
       </defs>
       <use xlink:href="#DejaVuSans-32"/>
      </g>
     </g>
    </g>
    <g id="xtick_4">
     <g id="line2d_4">
      <g>
       <use xlink:href="#m85ef187fef" x="283.663536" y="302.2" style="stroke: #000000; stroke-width: 0.8"/>
      </g>
     </g>
     <g id="text_4">
      <!-- 3 -->
      <g transform="translate(280.482286 316.798437) scale(0.1 -0.1)">
       <defs>
        <path id="DejaVuSans-33" d="M 2597 2516 
Q 3050 2419 3304 2112 
Q 3559 1806 3559 1356 
Q 3559 666 3084 287 
Q 2609 -91 1734 -91 
Q 1441 -91 1130 -33 
Q 819 25 488 141 
L 488 750 
Q 750 597 1062 519 
Q 1375 441 1716 441 
Q 2309 441 2620 675 
Q 2931 909 2931 1356 
Q 2931 1769 2642 2001 
Q 2353 2234 1838 2234 
L 1294 2234 
L 1294 2753 
L 1863 2753 
Q 2328 2753 2575 2939 
Q 2822 3125 2822 3475 
Q 2822 3834 2567 4026 
Q 2313 4219 1838 4219 
Q 1578 4219 1281 4162 
Q 984 4106 628 3988 
L 628 4550 
Q 988 4650 1302 4700 
Q 1616 4750 1894 4750 
Q 2613 4750 3031 4423 
Q 3450 4097 3450 3541 
Q 3450 3153 3228 2886 
Q 3006 2619 2597 2516 
z
" transform="scale(0.015625)"/>
       </defs>
       <use xlink:href="#DejaVuSans-33"/>
      </g>
     </g>
    </g>
    <g id="xtick_5">
     <g id="line2d_5">
      <g>
       <use xlink:href="#m85ef187fef" x="357.673086" y="302.2" style="stroke: #000000; stroke-width: 0.8"/>
      </g>
     </g>
     <g id="text_5">
      <!-- 4 -->
      <g transform="translate(354.491836 316.798437) scale(0.1 -0.1)">
       <defs>
        <path id="DejaVuSans-34" d="M 2419 4116 
L 825 1625 
L 2419 1625 
L 2419 4116 
z
M 2253 4666 
L 3047 4666 
L 3047 1625 
L 3713 1625 
L 3713 1100 
L 3047 1100 
L 3047 0 
L 2419 0 
L 2419 1100 
L 313 1100 
L 313 1709 
L 2253 4666 
z
" transform="scale(0.015625)"/>
       </defs>
       <use xlink:href="#DejaVuSans-34"/>
      </g>
     </g>
    </g>
    <g id="xtick_6">
     <g id="line2d_6">
      <g>
       <use xlink:href="#m85ef187fef" x="431.682636" y="302.2" style="stroke: #000000; stroke-width: 0.8"/>
      </g>
     </g>
     <g id="text_6">
      <!-- 5 -->
      <g transform="translate(428.501386 316.798437) scale(0.1 -0.1)">
       <defs>
        <path id="DejaVuSans-35" d="M 691 4666 
L 3169 4666 
L 3169 4134 
L 1269 4134 
L 1269 2991 
Q 1406 3038 1543 3061 
Q 1681 3084 1819 3084 
Q 2600 3084 3056 2656 
Q 3513 2228 3513 1497 
Q 3513 744 3044 326 
Q 2575 -91 1722 -91 
Q 1428 -91 1123 -41 
Q 819 9 494 109 
L 494 744 
Q 775 591 1075 516 
Q 1375 441 1709 441 
Q 2250 441 2565 725 
Q 2881 1009 2881 1497 
Q 2881 1984 2565 2268 
Q 2250 2553 1709 2553 
Q 1456 2553 1204 2497 
Q 953 2441 691 2322 
L 691 4666 
z
" transform="scale(0.015625)"/>
       </defs>
       <use xlink:href="#DejaVuSans-35"/>
      </g>
     </g>
    </g>
    <g id="text_7">
     <!-- $W$ (m/hour) -->
     <g transform="translate(220.059 330.476562) scale(0.1 -0.1)">
      <defs>
       <path id="DejaVuSans-Oblique-57" d="M 616 4666 
L 1228 4666 
L 1453 697 
L 3213 4666 
L 3916 4666 
L 4147 697 
L 5888 4666 
L 6528 4666 
L 4453 0 
L 3659 0 
L 3444 3891 
L 1697 0 
L 903 0 
L 616 4666 
z
" transform="scale(0.015625)"/>
       <path id="DejaVuSans-20" transform="scale(0.015625)"/>
       <path id="DejaVuSans-28" d="M 1984 4856 
Q 1566 4138 1362 3434 
Q 1159 2731 1159 2009 
Q 1159 1288 1364 580 
Q 1569 -128 1984 -844 
L 1484 -844 
Q 1016 -109 783 600 
Q 550 1309 550 2009 
Q 550 2706 781 3412 
Q 1013 4119 1484 4856 
L 1984 4856 
z
" transform="scale(0.015625)"/>
       <path id="DejaVuSans-6d" d="M 3328 2828 
Q 3544 3216 3844 3400 
Q 4144 3584 4550 3584 
Q 5097 3584 5394 3201 
Q 5691 2819 5691 2113 
L 5691 0 
L 5113 0 
L 5113 2094 
Q 5113 2597 4934 2840 
Q 4756 3084 4391 3084 
Q 3944 3084 3684 2787 
Q 3425 2491 3425 1978 
L 3425 0 
L 2847 0 
L 2847 2094 
Q 2847 2600 2669 2842 
Q 2491 3084 2119 3084 
Q 1678 3084 1418 2786 
Q 1159 2488 1159 1978 
L 1159 0 
L 581 0 
L 581 3500 
L 1159 3500 
L 1159 2956 
Q 1356 3278 1631 3431 
Q 1906 3584 2284 3584 
Q 2666 3584 2933 3390 
Q 3200 3197 3328 2828 
z
" transform="scale(0.015625)"/>
       <path id="DejaVuSans-2f" d="M 1625 4666 
L 2156 4666 
L 531 -594 
L 0 -594 
L 1625 4666 
z
" transform="scale(0.015625)"/>
       <path id="DejaVuSans-68" d="M 3513 2113 
L 3513 0 
L 2938 0 
L 2938 2094 
Q 2938 2591 2744 2837 
Q 2550 3084 2163 3084 
Q 1697 3084 1428 2787 
Q 1159 2491 1159 1978 
L 1159 0 
L 581 0 
L 581 4863 
L 1159 4863 
L 1159 2956 
Q 1366 3272 1645 3428 
Q 1925 3584 2291 3584 
Q 2894 3584 3203 3211 
Q 3513 2838 3513 2113 
z
" transform="scale(0.015625)"/>
       <path id="DejaVuSans-6f" d="M 1959 3097 
Q 1497 3097 1228 2736 
Q 959 2375 959 1747 
Q 959 1119 1226 758 
Q 1494 397 1959 397 
Q 2419 397 2687 759 
Q 2956 1122 2956 1747 
Q 2956 2369 2687 2733 
Q 2419 3097 1959 3097 
z
M 1959 3584 
Q 2709 3584 3137 3096 
Q 3566 2609 3566 1747 
Q 3566 888 3137 398 
Q 2709 -91 1959 -91 
Q 1206 -91 779 398 
Q 353 888 353 1747 
Q 353 2609 779 3096 
Q 1206 3584 1959 3584 
z
" transform="scale(0.015625)"/>
       <path id="DejaVuSans-75" d="M 544 1381 
L 544 3500 
L 1119 3500 
L 1119 1403 
Q 1119 906 1312 657 
Q 1506 409 1894 409 
Q 2359 409 2629 706 
Q 2900 1003 2900 1516 
L 2900 3500 
L 3475 3500 
L 3475 0 
L 2900 0 
L 2900 538 
Q 2691 219 2414 64 
Q 2138 -91 1772 -91 
Q 1169 -91 856 284 
Q 544 659 544 1381 
z
M 1991 3584 
L 1991 3584 
z
" transform="scale(0.015625)"/>
       <path id="DejaVuSans-72" d="M 2631 2963 
Q 2534 3019 2420 3045 
Q 2306 3072 2169 3072 
Q 1681 3072 1420 2755 
Q 1159 2438 1159 1844 
L 1159 0 
L 581 0 
L 581 3500 
L 1159 3500 
L 1159 2956 
Q 1341 3275 1631 3429 
Q 1922 3584 2338 3584 
Q 2397 3584 2469 3576 
Q 2541 3569 2628 3553 
L 2631 2963 
z
" transform="scale(0.015625)"/>
       <path id="DejaVuSans-29" d="M 513 4856 
L 1013 4856 
Q 1481 4119 1714 3412 
Q 1947 2706 1947 2009 
Q 1947 1309 1714 600 
Q 1481 -109 1013 -844 
L 513 -844 
Q 928 -128 1133 580 
Q 1338 1288 1338 2009 
Q 1338 2731 1133 3434 
Q 928 4138 513 4856 
z
" transform="scale(0.015625)"/>
      </defs>
      <use xlink:href="#DejaVuSans-Oblique-57" transform="translate(0 0.015625)"/>
      <use xlink:href="#DejaVuSans-20" transform="translate(98.876953 0.015625)"/>
      <use xlink:href="#DejaVuSans-28" transform="translate(130.664062 0.015625)"/>
      <use xlink:href="#DejaVuSans-6d" transform="translate(169.677734 0.015625)"/>
      <use xlink:href="#DejaVuSans-2f" transform="translate(267.089844 0.015625)"/>
      <use xlink:href="#DejaVuSans-68" transform="translate(300.78125 0.015625)"/>
      <use xlink:href="#DejaVuSans-6f" transform="translate(364.160156 0.015625)"/>
      <use xlink:href="#DejaVuSans-75" transform="translate(425.341797 0.015625)"/>
      <use xlink:href="#DejaVuSans-72" transform="translate(488.720703 0.015625)"/>
      <use xlink:href="#DejaVuSans-29" transform="translate(529.833984 0.015625)"/>
     </g>
    </g>
   </g>
   <g id="matplotlib.axis_2">
    <g id="ytick_1">
     <g id="line2d_7">
      <defs>
       <path id="mebbf84f784" d="M 0 0 
L -3.5 0 
" style="stroke: #000000; stroke-width: 0.8"/>
      </defs>
      <g>
       <use xlink:href="#mebbf84f784" x="47.018" y="286.571515" style="stroke: #000000; stroke-width: 0.8"/>
      </g>
     </g>
     <g id="text_8">
      <!-- 0 -->
      <g transform="translate(33.6555 290.370734) scale(0.1 -0.1)">
       <use xlink:href="#DejaVuSans-30"/>
      </g>
     </g>
    </g>
    <g id="ytick_2">
     <g id="line2d_8">
      <g>
       <use xlink:href="#mebbf84f784" x="47.018" y="250.167173" style="stroke: #000000; stroke-width: 0.8"/>
      </g>
     </g>
     <g id="text_9">
      <!-- 5 -->
      <g transform="translate(33.6555 253.966392) scale(0.1 -0.1)">
       <use xlink:href="#DejaVuSans-35"/>
      </g>
     </g>
    </g>
    <g id="ytick_3">
     <g id="line2d_9">
      <g>
       <use xlink:href="#mebbf84f784" x="47.018" y="213.762832" style="stroke: #000000; stroke-width: 0.8"/>
      </g>
     </g>
     <g id="text_10">
      <!-- 10 -->
      <g transform="translate(27.293 217.56205) scale(0.1 -0.1)">
       <use xlink:href="#DejaVuSans-31"/>
       <use xlink:href="#DejaVuSans-30" transform="translate(63.623047 0)"/>
      </g>
     </g>
    </g>
    <g id="ytick_4">
     <g id="line2d_10">
      <g>
       <use xlink:href="#mebbf84f784" x="47.018" y="177.35849" style="stroke: #000000; stroke-width: 0.8"/>
      </g>
     </g>
     <g id="text_11">
      <!-- 15 -->
      <g transform="translate(27.293 181.157708) scale(0.1 -0.1)">
       <use xlink:href="#DejaVuSans-31"/>
       <use xlink:href="#DejaVuSans-35" transform="translate(63.623047 0)"/>
      </g>
     </g>
    </g>
    <g id="ytick_5">
     <g id="line2d_11">
      <g>
       <use xlink:href="#mebbf84f784" x="47.018" y="140.954148" style="stroke: #000000; stroke-width: 0.8"/>
      </g>
     </g>
     <g id="text_12">
      <!-- 20 -->
      <g transform="translate(27.293 144.753366) scale(0.1 -0.1)">
       <use xlink:href="#DejaVuSans-32"/>
       <use xlink:href="#DejaVuSans-30" transform="translate(63.623047 0)"/>
      </g>
     </g>
    </g>
    <g id="ytick_6">
     <g id="line2d_12">
      <g>
       <use xlink:href="#mebbf84f784" x="47.018" y="104.549806" style="stroke: #000000; stroke-width: 0.8"/>
      </g>
     </g>
     <g id="text_13">
      <!-- 25 -->
      <g transform="translate(27.293 108.349025) scale(0.1 -0.1)">
       <use xlink:href="#DejaVuSans-32"/>
       <use xlink:href="#DejaVuSans-35" transform="translate(63.623047 0)"/>
      </g>
     </g>
    </g>
    <g id="ytick_7">
     <g id="line2d_13">
      <g>
       <use xlink:href="#mebbf84f784" x="47.018" y="68.145464" style="stroke: #000000; stroke-width: 0.8"/>
      </g>
     </g>
     <g id="text_14">
      <!-- 30 -->
      <g transform="translate(27.293 71.944683) scale(0.1 -0.1)">
       <use xlink:href="#DejaVuSans-33"/>
       <use xlink:href="#DejaVuSans-30" transform="translate(63.623047 0)"/>
      </g>
     </g>
    </g>
    <g id="ytick_8">
     <g id="line2d_14">
      <g>
       <use xlink:href="#mebbf84f784" x="47.018" y="31.741122" style="stroke: #000000; stroke-width: 0.8"/>
      </g>
     </g>
     <g id="text_15">
      <!-- 35 -->
      <g transform="translate(27.293 35.540341) scale(0.1 -0.1)">
       <use xlink:href="#DejaVuSans-33"/>
       <use xlink:href="#DejaVuSans-35" transform="translate(63.623047 0)"/>
      </g>
     </g>
    </g>
    <g id="text_16">
     <!-- $Q_{lc}$ (kW) -->
     <g transform="translate(21.213312 176.8) rotate(-90) scale(0.1 -0.1)">
      <defs>
       <path id="DejaVuSans-Oblique-51" d="M 2309 -84 
Q 2275 -88 2237 -89 
Q 2200 -91 2125 -91 
Q 1250 -91 756 411 
Q 263 913 263 1797 
Q 263 2319 452 2844 
Q 641 3369 978 3788 
Q 1369 4269 1858 4509 
Q 2347 4750 2938 4750 
Q 3794 4750 4287 4245 
Q 4781 3741 4781 2869 
Q 4781 1928 4265 1147 
Q 3750 366 2919 44 
L 3553 -825 
L 2847 -825 
L 2309 -84 
z
M 2919 4238 
Q 2400 4238 2003 3986 
Q 1606 3734 1313 3219 
Q 1125 2891 1026 2522 
Q 928 2153 928 1778 
Q 928 1128 1239 775 
Q 1550 422 2119 422 
Q 2631 422 3032 676 
Q 3434 931 3719 1434 
Q 3909 1772 4009 2142 
Q 4109 2513 4109 2881 
Q 4109 3528 3796 3883 
Q 3484 4238 2919 4238 
z
" transform="scale(0.015625)"/>
       <path id="DejaVuSans-Oblique-6c" d="M 1172 4863 
L 1747 4863 
L 800 0 
L 225 0 
L 1172 4863 
z
" transform="scale(0.015625)"/>
       <path id="DejaVuSans-Oblique-63" d="M 3431 3366 
L 3316 2797 
Q 3109 2947 2876 3022 
Q 2644 3097 2394 3097 
Q 2119 3097 1870 3000 
Q 1622 2903 1453 2725 
Q 1184 2453 1037 2087 
Q 891 1722 891 1331 
Q 891 859 1127 628 
Q 1363 397 1844 397 
Q 2081 397 2348 469 
Q 2616 541 2906 684 
L 2797 116 
Q 2547 13 2283 -39 
Q 2019 -91 1741 -91 
Q 1044 -91 669 257 
Q 294 606 294 1253 
Q 294 1797 489 2255 
Q 684 2713 1069 3078 
Q 1331 3328 1684 3456 
Q 2038 3584 2456 3584 
Q 2700 3584 2940 3529 
Q 3181 3475 3431 3366 
z
" transform="scale(0.015625)"/>
       <path id="DejaVuSans-6b" d="M 581 4863 
L 1159 4863 
L 1159 1991 
L 2875 3500 
L 3609 3500 
L 1753 1863 
L 3688 0 
L 2938 0 
L 1159 1709 
L 1159 0 
L 581 0 
L 581 4863 
z
" transform="scale(0.015625)"/>
       <path id="DejaVuSans-57" d="M 213 4666 
L 850 4666 
L 1831 722 
L 2809 4666 
L 3519 4666 
L 4500 722 
L 5478 4666 
L 6119 4666 
L 4947 0 
L 4153 0 
L 3169 4050 
L 2175 0 
L 1381 0 
L 213 4666 
z
" transform="scale(0.015625)"/>
      </defs>
      <use xlink:href="#DejaVuSans-Oblique-51" transform="translate(0 0.015625)"/>
      <use xlink:href="#DejaVuSans-Oblique-6c" transform="translate(78.710938 -16.390625) scale(0.7)"/>
      <use xlink:href="#DejaVuSans-Oblique-63" transform="translate(98.15918 -16.390625) scale(0.7)"/>
      <use xlink:href="#DejaVuSans-20" transform="translate(139.379883 0.015625)"/>
      <use xlink:href="#DejaVuSans-28" transform="translate(171.166992 0.015625)"/>
      <use xlink:href="#DejaVuSans-6b" transform="translate(210.180664 0.015625)"/>
      <use xlink:href="#DejaVuSans-57" transform="translate(268.09082 0.015625)"/>
      <use xlink:href="#DejaVuSans-29" transform="translate(366.967773 0.015625)"/>
     </g>
    </g>
   </g>
   <g id="line2d_15">
    <path d="M 65.335364 214.528939 
L 72.811839 198.73783 
L 80.288314 185.968001 
L 87.764788 175.569632 
L 95.241263 166.974763 
L 102.717738 159.714895 
L 110.194213 153.413178 
L 117.670688 147.787046 
L 125.147163 142.631959 
L 132.623638 137.808406 
L 140.100113 133.231279 
L 147.576588 128.852471 
L 155.053063 124.645528 
L 162.529538 120.598621 
L 170.006013 116.705969 
L 177.482488 112.961317 
L 184.958963 109.35603 
L 192.435438 105.878375 
L 199.911913 102.514874 
L 207.388388 99.252479 
L 214.864863 96.077663 
L 222.341338 92.979845 
L 229.817813 89.951705 
L 237.294288 86.988928 
L 244.770763 84.089509 
L 252.247237 81.252681 
L 259.723712 78.477742 
L 267.200187 75.763083 
L 274.676662 73.105613 
L 282.153137 70.500349 
L 289.629612 67.941938 
L 297.106087 65.424769 
L 304.582562 62.943971 
L 312.059037 60.496482 
L 319.535512 58.081573 
L 327.011987 55.700807 
L 334.488462 53.357351 
L 341.964937 51.054689 
L 349.441412 48.794984 
L 356.917887 46.577417 
L 364.394362 44.396974 
L 371.870837 42.244131 
L 379.347312 40.105865 
L 386.823787 37.968307 
L 394.300262 35.82077 
L 401.776737 33.662811 
L 409.253212 31.510614 
L 416.729686 29.405177 
L 424.206161 27.420906 
L 431.682636 25.669951 
" clip-path="url(#p3f90104f2f)" style="fill: none; stroke: #1f77b4; stroke-width: 1.5; stroke-linecap: square"/>
   </g>
   <g id="line2d_16">
    <path d="M 65.335364 252.877782 
L 72.811839 244.662786 
L 80.288314 237.980477 
L 87.764788 232.507225 
L 95.241263 227.960073 
L 102.717738 224.101807 
L 110.194213 220.74209 
L 117.670688 217.735298 
L 125.147163 214.975831 
L 132.623638 212.391719 
L 140.100113 209.937456 
L 147.576588 207.586804 
L 155.053063 205.326223 
L 162.529538 203.149395 
L 170.006013 201.053087 
L 177.482488 199.034408 
L 184.958963 197.089361 
L 192.435438 195.212428 
L 199.911913 193.396908 
L 207.388388 191.635644 
L 214.864863 189.92185 
L 222.341338 188.249801 
L 229.817813 186.615239 
L 237.294288 185.015414 
L 244.770763 183.448835 
L 252.247237 181.914794 
L 259.723712 180.412819 
L 267.200187 178.942172 
L 274.676662 177.501526 
L 282.153137 176.088885 
L 289.629612 174.701732 
L 297.106087 173.33739 
L 304.582562 171.993468 
L 312.059037 170.668284 
L 319.535512 169.361148 
L 327.011987 168.072388 
L 334.488462 166.803095 
L 341.964937 165.554596 
L 349.441412 164.327751 
L 356.917887 163.12221 
L 364.394362 161.935859 
L 371.870837 160.764627 
L 379.347312 159.602883 
L 386.823787 158.444547 
L 394.300262 157.284977 
L 401.776737 156.123599 
L 409.253212 154.967115 
L 416.729686 153.83302 
L 424.206161 152.753088 
L 431.682636 151.776399 
" clip-path="url(#p3f90104f2f)" style="fill: none; stroke: #ff7f0e; stroke-width: 1.5; stroke-linecap: square"/>
   </g>
   <g id="line2d_17">
    <path d="M 65.335364 275.150613 
L 72.811839 272.088372 
L 80.288314 269.59238 
L 87.764788 267.542374 
L 95.241263 265.833429 
L 102.717738 264.377847 
L 110.194213 263.105534 
L 117.670688 261.963117 
L 125.147163 260.912108 
L 132.623638 259.926439 
L 140.100113 258.989726 
L 147.576588 258.092556 
L 155.053063 257.230033 
L 162.529538 256.399763 
L 170.006013 255.600358 
L 177.482488 254.83048 
L 184.958963 254.08836 
L 192.435438 253.371701 
L 199.911913 252.677845 
L 207.388388 252.004061 
L 214.864863 251.347859 
L 222.341338 250.707217 
L 229.817813 250.080705 
L 237.294288 249.467458 
L 244.770763 248.867047 
L 252.247237 248.279273 
L 259.723712 247.70395 
L 267.200187 247.140722 
L 274.676662 246.58896 
L 282.153137 246.047763 
L 289.629612 245.516051 
L 297.106087 244.992733 
L 304.582562 244.476891 
L 312.059037 243.967954 
L 319.535512 243.465784 
L 327.011987 242.970664 
L 334.488462 242.483165 
L 341.964937 242.003893 
L 349.441412 241.533196 
L 356.917887 241.070858 
L 364.394362 240.615886 
L 371.870837 240.166471 
L 379.347312 239.720196 
L 386.823787 239.274536 
L 394.300262 238.827669 
L 401.776737 238.379569 
L 409.253212 237.933285 
L 416.729686 237.496321 
L 424.206161 237.08192 
L 431.682636 236.710118 
" clip-path="url(#p3f90104f2f)" style="fill: none; stroke: #2ca02c; stroke-width: 1.5; stroke-linecap: square"/>
   </g>
   <g id="line2d_18">
    <path d="M 65.335364 284.060165 
L 72.811839 283.334034 
L 80.288314 282.752306 
L 87.764788 282.281103 
L 95.241263 281.89166 
L 102.717738 281.560698 
L 110.194213 281.270276 
L 117.670688 281.007398 
L 125.147163 280.763225 
L 132.623638 280.532228 
L 140.100113 280.311323 
L 147.576588 280.099058 
L 155.053063 279.894938 
L 162.529538 279.6989 
L 170.006013 279.510969 
L 177.482488 279.331061 
L 184.958963 279.158905 
L 192.435438 278.994061 
L 199.911913 278.835963 
L 207.388388 278.683985 
L 214.864863 278.537484 
L 222.341338 278.395814 
L 229.817813 278.258325 
L 237.294288 278.124328 
L 244.770763 277.993085 
L 252.247237 277.863792 
L 259.723712 277.735613 
L 267.200187 277.607731 
L 274.676662 277.479438 
L 282.153137 277.350235 
L 289.629612 277.219924 
L 297.106087 277.088666 
L 304.582562 276.956982 
L 312.059037 276.825683 
L 319.535512 276.695721 
L 327.011987 276.567981 
L 334.488462 276.443038 
L 341.964937 276.320912 
L 349.441412 276.200893 
L 356.917887 276.081476 
L 364.394362 275.960453 
L 371.870837 275.835192 
L 379.347312 275.703209 
L 386.823787 275.562803 
L 394.300262 275.41394 
L 401.776737 275.259197 
L 409.253212 275.104701 
L 416.729686 274.960936 
L 424.206161 274.843305 
L 431.682636 274.77234 
" clip-path="url(#p3f90104f2f)" style="fill: none; stroke: #d62728; stroke-width: 1.5; stroke-linecap: square"/>
   </g>
   <g id="patch_3">
    <path d="M 47.018 302.2 
L 47.018 10.8 
" style="fill: none; stroke: #000000; stroke-width: 0.8; stroke-linejoin: miter; stroke-linecap: square"/>
   </g>
   <g id="patch_4">
    <path d="M 450 302.2 
L 450 10.8 
" style="fill: none; stroke: #000000; stroke-width: 0.8; stroke-linejoin: miter; stroke-linecap: square"/>
   </g>
   <g id="patch_5">
    <path d="M 47.018 302.2 
L 450 302.2 
" style="fill: none; stroke: #000000; stroke-width: 0.8; stroke-linejoin: miter; stroke-linecap: square"/>
   </g>
   <g id="patch_6">
    <path d="M 47.018 10.8 
L 450 10.8 
" style="fill: none; stroke: #000000; stroke-width: 0.8; stroke-linejoin: miter; stroke-linecap: square"/>
   </g>
   <g id="legend_1">
    <g id="patch_7">
     <path d="M 54.018 77.5125 
L 132.888313 77.5125 
Q 134.888313 77.5125 134.888313 75.5125 
L 134.888313 17.8 
Q 134.888313 15.8 132.888313 15.8 
L 54.018 15.8 
Q 52.018 15.8 52.018 17.8 
L 52.018 75.5125 
Q 52.018 77.5125 54.018 77.5125 
z
" style="fill: #ffffff; opacity: 0.8; stroke: #cccccc; stroke-linejoin: miter"/>
    </g>
    <g id="line2d_19">
     <path d="M 56.018 23.898438 
L 66.018 23.898438 
L 76.018 23.898438 
" style="fill: none; stroke: #1f77b4; stroke-width: 1.5; stroke-linecap: square"/>
    </g>
    <g id="text_17">
     <!-- Ts=100 K -->
     <g transform="translate(84.018 27.398438) scale(0.1 -0.1)">
      <defs>
       <path id="DejaVuSans-54" d="M -19 4666 
L 3928 4666 
L 3928 4134 
L 2272 4134 
L 2272 0 
L 1638 0 
L 1638 4134 
L -19 4134 
L -19 4666 
z
" transform="scale(0.015625)"/>
       <path id="DejaVuSans-73" d="M 2834 3397 
L 2834 2853 
Q 2591 2978 2328 3040 
Q 2066 3103 1784 3103 
Q 1356 3103 1142 2972 
Q 928 2841 928 2578 
Q 928 2378 1081 2264 
Q 1234 2150 1697 2047 
L 1894 2003 
Q 2506 1872 2764 1633 
Q 3022 1394 3022 966 
Q 3022 478 2636 193 
Q 2250 -91 1575 -91 
Q 1294 -91 989 -36 
Q 684 19 347 128 
L 347 722 
Q 666 556 975 473 
Q 1284 391 1588 391 
Q 1994 391 2212 530 
Q 2431 669 2431 922 
Q 2431 1156 2273 1281 
Q 2116 1406 1581 1522 
L 1381 1569 
Q 847 1681 609 1914 
Q 372 2147 372 2553 
Q 372 3047 722 3315 
Q 1072 3584 1716 3584 
Q 2034 3584 2315 3537 
Q 2597 3491 2834 3397 
z
" transform="scale(0.015625)"/>
       <path id="DejaVuSans-3d" d="M 678 2906 
L 4684 2906 
L 4684 2381 
L 678 2381 
L 678 2906 
z
M 678 1631 
L 4684 1631 
L 4684 1100 
L 678 1100 
L 678 1631 
z
" transform="scale(0.015625)"/>
       <path id="DejaVuSans-4b" d="M 628 4666 
L 1259 4666 
L 1259 2694 
L 3353 4666 
L 4166 4666 
L 1850 2491 
L 4331 0 
L 3500 0 
L 1259 2247 
L 1259 0 
L 628 0 
L 628 4666 
z
" transform="scale(0.015625)"/>
      </defs>
      <use xlink:href="#DejaVuSans-54"/>
      <use xlink:href="#DejaVuSans-73" transform="translate(44.583984 0)"/>
      <use xlink:href="#DejaVuSans-3d" transform="translate(96.683594 0)"/>
      <use xlink:href="#DejaVuSans-31" transform="translate(180.472656 0)"/>
      <use xlink:href="#DejaVuSans-30" transform="translate(244.095703 0)"/>
      <use xlink:href="#DejaVuSans-30" transform="translate(307.71875 0)"/>
      <use xlink:href="#DejaVuSans-20" transform="translate(371.341797 0)"/>
      <use xlink:href="#DejaVuSans-4b" transform="translate(403.128906 0)"/>
     </g>
    </g>
    <g id="line2d_20">
     <path d="M 56.018 38.576563 
L 66.018 38.576563 
L 76.018 38.576563 
" style="fill: none; stroke: #ff7f0e; stroke-width: 1.5; stroke-linecap: square"/>
    </g>
    <g id="text_18">
     <!-- Ts=160 K -->
     <g transform="translate(84.018 42.076563) scale(0.1 -0.1)">
      <defs>
       <path id="DejaVuSans-36" d="M 2113 2584 
Q 1688 2584 1439 2293 
Q 1191 2003 1191 1497 
Q 1191 994 1439 701 
Q 1688 409 2113 409 
Q 2538 409 2786 701 
Q 3034 994 3034 1497 
Q 3034 2003 2786 2293 
Q 2538 2584 2113 2584 
z
M 3366 4563 
L 3366 3988 
Q 3128 4100 2886 4159 
Q 2644 4219 2406 4219 
Q 1781 4219 1451 3797 
Q 1122 3375 1075 2522 
Q 1259 2794 1537 2939 
Q 1816 3084 2150 3084 
Q 2853 3084 3261 2657 
Q 3669 2231 3669 1497 
Q 3669 778 3244 343 
Q 2819 -91 2113 -91 
Q 1303 -91 875 529 
Q 447 1150 447 2328 
Q 447 3434 972 4092 
Q 1497 4750 2381 4750 
Q 2619 4750 2861 4703 
Q 3103 4656 3366 4563 
z
" transform="scale(0.015625)"/>
      </defs>
      <use xlink:href="#DejaVuSans-54"/>
      <use xlink:href="#DejaVuSans-73" transform="translate(44.583984 0)"/>
      <use xlink:href="#DejaVuSans-3d" transform="translate(96.683594 0)"/>
      <use xlink:href="#DejaVuSans-31" transform="translate(180.472656 0)"/>
      <use xlink:href="#DejaVuSans-36" transform="translate(244.095703 0)"/>
      <use xlink:href="#DejaVuSans-30" transform="translate(307.71875 0)"/>
      <use xlink:href="#DejaVuSans-20" transform="translate(371.341797 0)"/>
      <use xlink:href="#DejaVuSans-4b" transform="translate(403.128906 0)"/>
     </g>
    </g>
    <g id="line2d_21">
     <path d="M 56.018 53.254687 
L 66.018 53.254687 
L 76.018 53.254687 
" style="fill: none; stroke: #2ca02c; stroke-width: 1.5; stroke-linecap: square"/>
    </g>
    <g id="text_19">
     <!-- Ts=220 K -->
     <g transform="translate(84.018 56.754687) scale(0.1 -0.1)">
      <use xlink:href="#DejaVuSans-54"/>
      <use xlink:href="#DejaVuSans-73" transform="translate(44.583984 0)"/>
      <use xlink:href="#DejaVuSans-3d" transform="translate(96.683594 0)"/>
      <use xlink:href="#DejaVuSans-32" transform="translate(180.472656 0)"/>
      <use xlink:href="#DejaVuSans-32" transform="translate(244.095703 0)"/>
      <use xlink:href="#DejaVuSans-30" transform="translate(307.71875 0)"/>
      <use xlink:href="#DejaVuSans-20" transform="translate(371.341797 0)"/>
      <use xlink:href="#DejaVuSans-4b" transform="translate(403.128906 0)"/>
     </g>
    </g>
    <g id="line2d_22">
     <path d="M 56.018 67.932813 
L 66.018 67.932813 
L 76.018 67.932813 
" style="fill: none; stroke: #d62728; stroke-width: 1.5; stroke-linecap: square"/>
    </g>
    <g id="text_20">
     <!-- Ts=260 K -->
     <g transform="translate(84.018 71.432813) scale(0.1 -0.1)">
      <use xlink:href="#DejaVuSans-54"/>
      <use xlink:href="#DejaVuSans-73" transform="translate(44.583984 0)"/>
      <use xlink:href="#DejaVuSans-3d" transform="translate(96.683594 0)"/>
      <use xlink:href="#DejaVuSans-32" transform="translate(180.472656 0)"/>
      <use xlink:href="#DejaVuSans-36" transform="translate(244.095703 0)"/>
      <use xlink:href="#DejaVuSans-30" transform="translate(307.71875 0)"/>
      <use xlink:href="#DejaVuSans-20" transform="translate(371.341797 0)"/>
      <use xlink:href="#DejaVuSans-4b" transform="translate(403.128906 0)"/>
     </g>
    </g>
   </g>
  </g>
 </g>
 <defs>
  <clipPath id="p3f90104f2f">
   <rect x="47.018" y="10.8" width="402.982" height="291.4"/>
  </clipPath>
 </defs>
</svg>
