<?xml version="1.0" encoding="utf-8" standalone="no"?>
<!DOCTYPE svg PUBLIC "-//W3C//DTD SVG 1.1//EN"
  "http://www.w3.org/Graphics/SVG/1.1/DTD/svg11.dtd">
<svg xmlns:xlink="http://www.w3.org/1999/xlink" width="460.8pt" height="345.6pt" viewBox="0 0 460.8 345.6" xmlns="http://www.w3.org/2000/svg" version="1.1">
 <metadata>
  <rdf:RDF xmlns:dc="http://purl.org/dc/elements/1.1/" xmlns:cc="http://creativecommons.org/ns#" xmlns:rdf="http://www.w3.org/1999/02/22-rdf-syntax-ns#">
   <cc:Work>
    <dc:type rdf:resource="http://purl.org/dc/dcmitype/StillImage"/>
    <dc:date>2026-02-12T04:29:02.588039</dc:date>
    <dc:format>image/svg+xml</dc:format>
    <dc:creator>
     <cc:Agent>
      <dc:title>Matplotlib v3.10.8, https://matplotlib.org/</dc:title>
     </cc:Agent>
    </dc:creator>
   </cc:Work>
  </rdf:RDF>
 </metadata>
 <defs>
  <style type="text/css">*{stroke-linejoin: round; stroke-linecap: butt}</style>
 </defs>
 <g id="figure_1">
  <g id="patch_1">
   <path d="M 0 345.6 
L 460.8 345.6 
L 460.8 0 
L 0 0 
L 0 345.6 
z
" style="fill: none"/>
  </g>
  <g id="axes_1">
   <g id="patch_2">
    <path d="M 47.018 302.2 
L 450 302.2 
L 450 10.8 
L 47.018 10.8 
L 47.018 302.2 
z
" style="fill: none"/>
   </g>
   <g id="FillBetweenPolyCollection_1">
    <path d="M 65.335364 205.586374 
L 65.335364 209.23868 
L 72.811839 195.635123 
L 80.288314 183.60009 
L 87.764788 172.986266 
L 95.241263 163.798505 
L 102.717738 156.576783 
L 110.194213 151.200176 
L 117.670688 145.708179 
L 125.147163 141.058058 
L 132.623638 135.748801 
L 140.100113 131.622772 
L 147.576588 127.944015 
L 155.053063 123.992657 
L 162.529538 119.969496 
L 170.006013 115.459496 
L 177.482488 111.838559 
L 184.958963 109.009342 
L 192.435438 105.563334 
L 199.911913 102.411726 
L 207.388388 98.550006 
L 214.864863 95.922574 
L 222.341338 93.38302 
L 229.817813 90.409033 
L 237.294288 87.304471 
L 244.770763 83.984071 
L 252.247237 81.643714 
L 259.723712 79.345257 
L 267.200187 76.690634 
L 274.676662 74.050087 
L 282.153137 71.005415 
L 289.629612 68.664367 
L 297.106087 66.929381 
L 304.582562 64.46933 
L 312.059037 61.854228 
L 319.535512 58.967419 
L 327.011987 57.005206 
L 334.488462 55.186456 
L 341.964937 53.137333 
L 349.441412 50.674457 
L 356.917887 47.864037 
L 364.394362 46.17124 
L 371.870837 44.68321 
L 379.347312 42.850175 
L 386.823787 40.137128 
L 394.300262 37.689803 
L 401.776737 36.094684 
L 409.253212 34.589149 
L 416.729686 32.689754 
L 424.206161 30.633721 
L 431.682636 27.829067 
L 431.682636 24.045455 
L 431.682636 24.045455 
L 424.206161 25.128349 
L 416.729686 26.968905 
L 409.253212 28.960935 
L 401.776737 31.230742 
L 394.300262 33.974775 
L 386.823787 35.306259 
L 379.347312 37.104867 
L 371.870837 39.173253 
L 364.394362 41.713076 
L 356.917887 44.350773 
L 349.441412 45.813077 
L 341.964937 47.718536 
L 334.488462 49.707228 
L 327.011987 52.600579 
L 319.535512 55.385841 
L 312.059037 56.913648 
L 304.582562 59.079475 
L 297.106087 61.579664 
L 289.629612 64.548396 
L 282.153137 67.219751 
L 274.676662 69.05839 
L 267.200187 71.426195 
L 259.723712 73.918469 
L 252.247237 77.130616 
L 244.770763 80.211266 
L 237.294288 82.523444 
L 229.817813 85.014953 
L 222.341338 88.16297 
L 214.864863 91.697443 
L 207.388388 94.915812 
L 199.911913 97.388586 
L 192.435438 100.228555 
L 184.958963 103.778175 
L 177.482488 107.704579 
L 170.006013 111.486826 
L 162.529538 114.827951 
L 155.053063 118.339349 
L 147.576588 122.661116 
L 140.100113 127.311173 
L 132.623638 131.759304 
L 125.147163 135.771757 
L 117.670688 140.032494 
L 110.194213 146.004889 
L 102.717738 152.466472 
L 95.241263 159.767651 
L 87.764788 167.836796 
L 80.288314 177.984948 
L 72.811839 190.374983 
L 65.335364 205.586374 
z
" clip-path="url(#pac59385402)" style="fill: #1f77b4; fill-opacity: 0.27"/>
   </g>
   <g id="FillBetweenPolyCollection_2">
    <path d="M 65.335364 207.315311 
L 65.335364 207.535126 
L 72.811839 193.140283 
L 80.288314 180.914391 
L 87.764788 170.633637 
L 95.241263 162.024478 
L 102.717738 154.785626 
L 110.194213 148.612502 
L 117.670688 143.221409 
L 125.147163 138.369896 
L 132.623638 133.868763 
L 140.100113 129.585841 
L 147.576588 125.442901 
L 155.053063 121.407121 
L 162.529538 117.478407 
L 170.006013 113.675034 
L 177.482488 110.016802 
L 184.958963 106.517338 
L 192.435438 103.175717 
L 199.911913 99.974218 
L 207.388388 96.883785 
L 214.864863 93.873829 
L 222.341338 90.921332 
L 229.817813 88.015387 
L 237.294288 85.156197 
L 244.770763 82.350772 
L 252.247237 79.607764 
L 259.723712 76.933266 
L 267.200187 74.327714 
L 274.676662 71.785062 
L 282.153137 69.295006 
L 289.629612 66.846977 
L 297.106087 64.433606 
L 304.582562 62.051664 
L 312.059037 59.700919 
L 319.535512 57.382674 
L 327.011987 55.099045 
L 334.488462 52.852567 
L 341.964937 50.644913 
L 349.441412 48.475572 
L 356.917887 46.341584 
L 364.394362 44.238123 
L 371.870837 42.159335 
L 379.347312 40.099113 
L 386.823787 38.052418 
L 394.300262 36.017663 
L 401.776737 33.999055 
L 409.253212 32.007959 
L 416.729686 30.05708 
L 424.206161 28.153397 
L 431.682636 26.291691 
L 431.682636 25.776383 
L 431.682636 25.776383 
L 424.206161 27.641973 
L 416.729686 29.548777 
L 409.253212 31.502206 
L 401.776737 33.49557 
L 394.300262 35.516493 
L 386.823787 37.554237 
L 379.347312 39.60417 
L 371.870837 41.667783 
L 364.394362 43.750066 
L 356.917887 45.857085 
L 349.441412 47.994662 
L 341.964937 50.167578 
L 334.488462 52.378787 
L 327.011987 54.628836 
L 319.535512 56.916113 
L 312.059037 59.238121 
L 304.582562 61.592721 
L 297.106087 63.978576 
L 289.629612 66.395899 
L 282.153137 68.847934 
L 274.676662 71.342069 
L 267.200187 73.888885 
L 259.723712 76.49871 
L 252.247237 79.177623 
L 244.770763 81.925216 
L 237.294288 84.735375 
L 229.817813 87.599378 
L 222.341338 90.510142 
L 214.864863 93.46742 
L 207.388388 96.482211 
L 199.911913 99.577633 
L 192.435438 102.784361 
L 184.958963 106.131547 
L 177.482488 109.636973 
L 170.006013 113.301552 
L 162.529538 117.111564 
L 155.053063 121.046153 
L 147.576588 125.087732 
L 140.100113 129.236397 
L 132.623638 133.525168 
L 125.147163 138.032557 
L 117.670688 142.891054 
L 110.194213 148.290321 
L 102.717738 154.473368 
L 95.241263 161.724467 
L 87.764788 170.348742 
L 80.288314 180.647788 
L 72.811839 192.895316 
L 65.335364 207.315311 
z
" clip-path="url(#pac59385402)" style="fill: #ff7f0e; fill-opacity: 0.45"/>
   </g>
   <g id="FillBetweenPolyCollection_3">
    <path d="M 65.335364 242.715221 
L 65.335364 245.892357 
L 72.811839 239.24899 
L 80.288314 232.950765 
L 87.764788 227.29087 
L 95.241263 222.342922 
L 102.717738 218.70274 
L 110.194213 215.932177 
L 117.670688 212.995992 
L 125.147163 210.334863 
L 132.623638 207.301232 
L 140.100113 205.012065 
L 147.576588 203.34393 
L 155.053063 201.331851 
L 162.529538 198.94858 
L 170.006013 196.402992 
L 177.482488 194.549676 
L 184.958963 193.08219 
L 192.435438 191.547875 
L 199.911913 189.63897 
L 207.388388 187.242066 
L 214.864863 185.9934 
L 222.341338 184.98138 
L 229.817813 183.418293 
L 237.294288 181.530526 
L 244.770763 179.25092 
L 252.247237 178.216612 
L 259.723712 177.248447 
L 267.200187 176.001632 
L 274.676662 174.307389 
L 282.153137 172.334672 
L 289.629612 171.303451 
L 297.106087 170.487227 
L 304.582562 169.063647 
L 312.059037 167.675117 
L 319.535512 165.668014 
L 327.011987 165.014206 
L 334.488462 164.296526 
L 341.964937 163.39312 
L 349.441412 161.664041 
L 356.917887 159.678125 
L 364.394362 159.263849 
L 371.870837 158.446132 
L 379.347312 157.279075 
L 386.823787 155.768557 
L 394.300262 154.076355 
L 401.776737 153.813307 
L 409.253212 153.148739 
L 416.729686 152.16445 
L 424.206161 150.955418 
L 431.682636 148.900162 
L 431.682636 145.534958 
L 431.682636 145.534958 
L 424.206161 145.455289 
L 416.729686 146.13148 
L 409.253212 147.331578 
L 401.776737 148.743912 
L 394.300262 150.67451 
L 386.823787 151.164952 
L 379.347312 151.742624 
L 371.870837 153.144129 
L 364.394362 154.526573 
L 356.917887 156.345716 
L 349.441412 156.870356 
L 341.964937 157.59656 
L 334.488462 159.162572 
L 327.011987 160.65057 
L 319.535512 162.327344 
L 312.059037 163.037319 
L 304.582562 163.854502 
L 297.106087 165.098847 
L 289.629612 167.054464 
L 282.153137 168.766334 
L 274.676662 169.507187 
L 267.200187 170.554086 
L 259.723712 172.091541 
L 252.247237 173.755108 
L 244.770763 175.751619 
L 237.294288 176.540034 
L 229.817813 178.056912 
L 222.341338 179.772579 
L 214.864863 181.746041 
L 207.388388 183.781759 
L 199.911913 184.762471 
L 192.435438 185.776209 
L 184.958963 188.002441 
L 177.482488 190.491256 
L 170.006013 192.773685 
L 162.529538 194.007355 
L 155.053063 195.618838 
L 147.576588 198.20771 
L 140.100113 201.055596 
L 132.623638 203.602047 
L 125.147163 205.237355 
L 117.670688 207.782761 
L 110.194213 210.654137 
L 102.717738 214.735424 
L 95.241263 218.445672 
L 87.764788 222.386861 
L 80.288314 227.477616 
L 72.811839 234.06687 
L 65.335364 242.715221 
z
" clip-path="url(#pac59385402)" style="fill: #2ca02c; fill-opacity: 0.27"/>
   </g>
   <g id="FillBetweenPolyCollection_4">
    <path d="M 65.335364 244.204846 
L 65.335364 244.344075 
L 72.811839 236.748331 
L 80.288314 230.355485 
L 87.764788 225.000894 
L 95.241263 220.511181 
L 102.717738 216.713916 
L 110.194213 213.44666 
L 117.670688 210.565568 
L 125.147163 207.95233 
L 132.623638 205.517479 
L 140.100113 203.200302 
L 147.576588 200.965669 
L 155.053063 198.798598 
L 162.529538 196.697513 
L 170.006013 194.667281 
L 177.482488 192.713459 
L 184.958963 190.838441 
L 192.435438 189.039314 
L 199.911913 187.307712 
L 207.388388 185.631853 
L 214.864863 183.999766 
L 222.341338 182.402083 
L 229.817813 180.833629 
L 237.294288 179.293349 
L 244.770763 177.782927 
L 252.247237 176.304996 
L 259.723712 174.861412 
L 267.200187 173.452145 
L 274.676662 172.074939 
L 282.153137 170.725851 
L 289.629612 169.400416 
L 297.106087 168.094728 
L 304.582562 166.80619 
L 312.059037 165.53372 
L 319.535512 164.277635 
L 327.011987 163.039407 
L 334.488462 161.821022 
L 341.964937 160.624164 
L 349.441412 159.449262 
L 356.917887 158.294878 
L 364.394362 157.157759 
L 371.870837 156.033388 
L 379.347312 154.917098 
L 386.823787 153.80546 
L 394.300262 152.697795 
L 401.776737 151.597158 
L 409.253212 150.510024 
L 416.729686 149.445096 
L 424.206161 148.411135 
L 431.682636 147.414817 
L 431.682636 146.928584 
L 431.682636 146.928584 
L 424.206161 147.928857 
L 416.729686 148.966542 
L 409.253212 150.035017 
L 401.776737 151.125631 
L 394.300262 152.229786 
L 386.823787 153.341076 
L 379.347312 154.456497 
L 371.870837 155.576717 
L 364.394362 156.705117 
L 356.917887 157.846314 
L 349.441412 159.004783 
L 341.964937 160.183785 
L 334.488462 161.384773 
L 327.011987 162.607345 
L 319.535512 163.849832 
L 312.059037 165.110254 
L 304.582562 166.387147 
L 297.106087 167.680186 
L 289.629612 168.990445 
L 282.153137 170.320513 
L 274.676662 171.674301 
L 267.200187 173.056302 
L 259.723712 174.470485 
L 252.247237 175.919126 
L 244.770763 177.40226 
L 237.294288 178.918013 
L 229.817813 180.46373 
L 222.341338 182.037694 
L 214.864863 183.640944 
L 207.388388 185.278663 
L 199.911913 186.960279 
L 192.435438 188.697876 
L 184.958963 190.503347 
L 177.482488 192.38514 
L 170.006013 194.346175 
L 162.529538 196.383964 
L 155.053063 198.492771 
L 147.576588 200.667551 
L 140.100113 202.909798 
L 132.623638 205.234587 
L 125.147163 207.677393 
L 117.670688 210.299489 
L 110.194213 213.191012 
L 102.717738 216.470903 
L 95.241263 220.2834 
L 87.764788 224.790976 
L 80.288314 230.166407 
L 72.811839 236.58292 
L 65.335364 244.204846 
z
" clip-path="url(#pac59385402)" style="fill: #d62728; fill-opacity: 0.45"/>
   </g>
   <g id="FillBetweenPolyCollection_5">
    <path d="M 65.335364 262.950185 
L 65.335364 268.50038 
L 72.811839 265.651425 
L 80.288314 263.572147 
L 87.764788 261.101514 
L 95.241263 259.235596 
L 102.717738 257.966397 
L 110.194213 257.086223 
L 117.670688 256.348094 
L 125.147163 254.890628 
L 132.623638 253.475133 
L 140.100113 252.666486 
L 147.576588 252.263643 
L 155.053063 251.483154 
L 162.529538 250.789532 
L 170.006013 249.517758 
L 177.482488 248.609087 
L 184.958963 248.284437 
L 192.435438 247.818799 
L 199.911913 246.919361 
L 207.388388 245.957474 
L 214.864863 245.595954 
L 222.341338 245.348144 
L 229.817813 244.641078 
L 237.294288 243.784081 
L 244.770763 243.129747 
L 252.247237 242.740836 
L 259.723712 242.238284 
L 267.200187 241.902211 
L 274.676662 241.045474 
L 282.153137 240.179293 
L 289.629612 239.69061 
L 297.106087 239.74012 
L 304.582562 239.039308 
L 312.059037 238.535066 
L 319.535512 237.996204 
L 327.011987 237.335612 
L 334.488462 237.508948 
L 341.964937 237.111431 
L 349.441412 236.030863 
L 356.917887 235.438353 
L 364.394362 235.409855 
L 371.870837 235.10079 
L 379.347312 234.718844 
L 386.823787 233.996744 
L 394.300262 233.422857 
L 401.776737 233.245804 
L 409.253212 233.140345 
L 416.729686 232.864819 
L 424.206161 232.15865 
L 431.682636 231.580703 
L 431.682636 225.964525 
L 431.682636 225.964525 
L 424.206161 226.054661 
L 416.729686 226.317037 
L 409.253212 226.620149 
L 401.776737 227.585964 
L 394.300262 228.092114 
L 386.823787 228.377885 
L 379.347312 228.566394 
L 371.870837 229.130284 
L 364.394362 229.645672 
L 356.917887 230.270969 
L 349.441412 230.463294 
L 341.964937 230.803243 
L 334.488462 231.263936 
L 327.011987 232.006696 
L 319.535512 232.550339 
L 312.059037 232.959321 
L 304.582562 233.32985 
L 297.106087 233.742071 
L 289.629612 234.249252 
L 282.153137 235.052956 
L 274.676662 235.070908 
L 267.200187 235.591079 
L 259.723712 236.200938 
L 252.247237 236.966498 
L 244.770763 237.750663 
L 237.294288 238.255738 
L 229.817813 238.605099 
L 222.341338 239.331948 
L 214.864863 240.189739 
L 207.388388 240.754433 
L 199.911913 240.970023 
L 192.435438 241.694144 
L 184.958963 242.308233 
L 177.482488 243.693009 
L 170.006013 244.21166 
L 162.529538 244.76417 
L 155.053063 245.17122 
L 147.576588 246.297326 
L 140.100113 247.418787 
L 132.623638 248.363407 
L 125.147163 248.973997 
L 117.670688 249.906745 
L 110.194213 251.086877 
L 102.717738 252.796856 
L 95.241263 254.049612 
L 87.764788 255.266468 
L 80.288314 257.130037 
L 72.811839 259.722928 
L 65.335364 262.950185 
z
" clip-path="url(#pac59385402)" style="fill: #9467bd; fill-opacity: 0.27"/>
   </g>
   <g id="FillBetweenPolyCollection_6">
    <path d="M 65.335364 265.611335 
L 65.335364 265.697415 
L 72.811839 262.779273 
L 80.288314 260.380047 
L 87.764788 258.403322 
L 95.241263 256.758034 
L 102.717738 255.36283 
L 110.194213 254.148831 
L 117.670688 253.061568 
L 125.147163 252.061676 
L 132.623638 251.123213 
L 140.100113 250.230539 
L 147.576588 249.374946 
L 155.053063 248.551837 
L 162.529538 247.758797 
L 170.006013 246.994389 
L 177.482488 246.257431 
L 184.958963 245.546615 
L 192.435438 244.860238 
L 199.911913 244.196092 
L 207.388388 243.551618 
L 214.864863 242.924221 
L 222.341338 242.31157 
L 229.817813 241.711931 
L 237.294288 241.124358 
L 244.770763 240.548607 
L 252.247237 239.984818 
L 259.723712 239.433119 
L 267.200187 238.893389 
L 274.676662 238.365168 
L 282.153137 237.847624 
L 289.629612 237.339573 
L 297.106087 236.839578 
L 304.582562 236.346286 
L 312.059037 235.858839 
L 319.535512 235.377127 
L 327.011987 234.901785 
L 334.488462 234.433905 
L 341.964937 233.974668 
L 349.441412 233.524831 
L 356.917887 233.084159 
L 364.394362 232.651053 
L 371.870837 232.222686 
L 379.347312 231.795799 
L 386.823787 231.367932 
L 394.300262 230.938633 
L 401.776737 230.510081 
L 409.253212 230.087003 
L 416.729686 229.676343 
L 424.206161 229.286379 
L 431.682636 228.925405 
L 431.682636 228.627089 
L 431.682636 228.627089 
L 424.206161 228.990909 
L 416.729686 229.38331 
L 409.253212 229.796104 
L 401.776737 230.221176 
L 394.300262 230.651743 
L 386.823787 231.083193 
L 379.347312 231.513371 
L 371.870837 231.942697 
L 364.394362 232.37358 
L 356.917887 232.809234 
L 349.441412 233.252459 
L 341.964937 233.704828 
L 334.488462 234.166578 
L 327.011987 234.636978 
L 319.535512 235.114888 
L 312.059037 235.59924 
L 304.582562 236.08939 
L 297.106087 236.585431 
L 289.629612 237.088214 
L 282.153137 237.599097 
L 274.676662 238.119526 
L 267.200187 238.650681 
L 259.723712 239.193399 
L 252.247237 239.748156 
L 244.770763 240.315095 
L 237.294288 240.89409 
L 229.817813 241.484971 
L 222.341338 242.087959 
L 214.864863 242.703991 
L 207.388388 243.334823 
L 199.911913 243.982822 
L 192.435438 244.650626 
L 184.958963 245.340845 
L 177.482488 246.055736 
L 170.006013 246.797024 
L 162.529538 247.565978 
L 155.053063 248.363672 
L 147.576588 249.191443 
L 140.100113 250.05167 
L 132.623638 250.949028 
L 125.147163 251.892419 
L 117.670688 252.897766 
L 110.194213 253.991372 
L 102.717738 255.212953 
L 95.241263 256.617254 
L 87.764788 258.273375 
L 80.288314 260.262828 
L 72.811839 262.676704 
L 65.335364 265.611335 
z
" clip-path="url(#pac59385402)" style="fill: #8c564b; fill-opacity: 0.45"/>
   </g>
   <g id="FillBetweenPolyCollection_7">
    <path d="M 65.335364 257.549157 
L 65.335364 288.954545 
L 72.811839 288.800023 
L 80.288314 286.712595 
L 87.764788 284.804565 
L 95.241263 284.899927 
L 102.717738 286.101175 
L 110.194213 285.438824 
L 117.670688 284.158436 
L 125.147163 284.843673 
L 132.623638 283.381237 
L 140.100113 284.692845 
L 147.576588 284.85282 
L 155.053063 284.779888 
L 162.529538 284.381822 
L 170.006013 285.203639 
L 177.482488 284.576594 
L 184.958963 283.932504 
L 192.435438 285.47303 
L 199.911913 283.7951 
L 207.388388 284.719369 
L 214.864863 284.852051 
L 222.341338 283.909617 
L 229.817813 284.781101 
L 237.294288 284.500287 
L 244.770763 284.433677 
L 252.247237 284.435998 
L 259.723712 284.412739 
L 267.200187 284.69798 
L 274.676662 283.523881 
L 282.153137 283.98727 
L 289.629612 283.124502 
L 297.106087 282.752758 
L 304.582562 283.915606 
L 312.059037 282.705485 
L 319.535512 283.324475 
L 327.011987 283.55896 
L 334.488462 282.167916 
L 341.964937 283.412157 
L 349.441412 282.665882 
L 356.917887 283.604115 
L 364.394362 283.188174 
L 371.870837 283.331982 
L 379.347312 281.405192 
L 386.823787 282.719361 
L 394.300262 282.74798 
L 401.776737 282.678915 
L 409.253212 282.079885 
L 416.729686 282.311683 
L 424.206161 283.92307 
L 431.682636 284.229507 
L 431.682636 251.20688 
L 431.682636 251.20688 
L 424.206161 250.855656 
L 416.729686 253.238457 
L 409.253212 251.981808 
L 401.776737 252.661843 
L 394.300262 252.095413 
L 386.823787 251.610044 
L 379.347312 253.053233 
L 371.870837 252.315014 
L 364.394362 253.218326 
L 356.917887 253.128045 
L 349.441412 252.683488 
L 341.964937 252.132693 
L 334.488462 252.844404 
L 327.011987 253.334433 
L 319.535512 252.971505 
L 312.059037 253.145759 
L 304.582562 253.450641 
L 297.106087 253.742284 
L 289.629612 253.476871 
L 282.153137 254.490955 
L 274.676662 253.35901 
L 267.200187 255.558945 
L 259.723712 254.429843 
L 252.247237 252.468748 
L 244.770763 253.468167 
L 237.294288 254.410033 
L 229.817813 254.758146 
L 222.341338 254.13409 
L 214.864863 254.90637 
L 207.388388 254.531493 
L 199.911913 254.605894 
L 192.435438 253.527728 
L 184.958963 254.734027 
L 177.482488 254.776379 
L 170.006013 254.62269 
L 162.529538 255.695247 
L 155.053063 254.794459 
L 147.576588 253.290443 
L 140.100113 254.386265 
L 132.623638 254.591395 
L 125.147163 255.877214 
L 117.670688 256.712551 
L 110.194213 254.539474 
L 102.717738 255.174948 
L 95.241263 255.37553 
L 87.764788 255.360129 
L 80.288314 256.318131 
L 72.811839 257.483731 
L 65.335364 257.549157 
z
" clip-path="url(#pac59385402)" style="fill: #e377c2; fill-opacity: 0.27"/>
   </g>
   <g id="FillBetweenPolyCollection_8">
    <path d="M 65.335364 273.464064 
L 65.335364 273.472665 
L 72.811839 272.256352 
L 80.288314 271.370121 
L 87.764788 270.753076 
L 95.241263 270.348001 
L 102.717738 270.103111 
L 110.194213 269.973357 
L 117.670688 269.921168 
L 125.147163 269.916608 
L 132.623638 269.936985 
L 140.100113 269.96605 
L 147.576588 269.992936 
L 155.053063 270.011013 
L 162.529538 270.016786 
L 170.006013 270.00893 
L 177.482488 269.987511 
L 184.958963 269.9534 
L 192.435438 269.907862 
L 199.911913 269.852298 
L 207.388388 269.788093 
L 214.864863 269.716557 
L 222.341338 269.638903 
L 229.817813 269.556255 
L 237.294288 269.469656 
L 244.770763 269.380066 
L 252.247237 269.288358 
L 259.723712 269.195299 
L 267.200187 269.101538 
L 274.676662 269.007599 
L 282.153137 268.913896 
L 289.629612 268.820751 
L 297.106087 268.728438 
L 304.582562 268.637218 
L 312.059037 268.547381 
L 319.535512 268.459258 
L 327.011987 268.37322 
L 334.488462 268.289656 
L 341.964937 268.208934 
L 349.441412 268.131384 
L 356.917887 268.057304 
L 364.394362 267.987021 
L 371.870837 267.921012 
L 379.347312 267.860057 
L 386.823787 267.805405 
L 394.300262 267.758888 
L 401.776737 267.722947 
L 409.253212 267.700528 
L 416.729686 267.694836 
L 424.206161 267.70899 
L 431.682636 267.745598 
L 431.682636 267.620515 
L 431.682636 267.620515 
L 424.206161 267.588087 
L 416.729686 267.577688 
L 409.253212 267.586747 
L 401.776737 267.612194 
L 394.300262 267.650869 
L 386.823787 267.699874 
L 379.347312 267.75681 
L 371.870837 267.819877 
L 364.394362 267.887853 
L 356.917887 267.959978 
L 349.441412 268.03579 
L 341.964937 268.114974 
L 334.488462 268.197244 
L 327.011987 268.282282 
L 319.535512 268.369727 
L 312.059037 268.4592 
L 304.582562 268.550337 
L 297.106087 268.642812 
L 289.629612 268.736343 
L 282.153137 268.830669 
L 274.676662 268.925525 
L 267.200187 269.020588 
L 259.723712 269.115452 
L 252.247237 269.209592 
L 244.770763 269.302365 
L 237.294288 269.393004 
L 229.817813 269.480641 
L 222.341338 269.564318 
L 214.864863 269.642998 
L 207.388388 269.715565 
L 199.911913 269.780814 
L 192.435438 269.837447 
L 184.958963 269.884088 
L 177.482488 269.919352 
L 170.006013 269.941991 
L 162.529538 269.951155 
L 155.053063 269.946809 
L 147.576588 269.930323 
L 140.100113 269.905253 
L 132.623638 269.878311 
L 125.147163 269.860462 
L 117.670688 269.868068 
L 110.194213 269.923945 
L 102.717738 270.05815 
L 95.241263 270.308364 
L 87.764788 270.719727 
L 80.288314 271.344089 
L 72.811839 272.238694 
L 65.335364 273.464064 
z
" clip-path="url(#pac59385402)" style="fill: #7f7f7f; fill-opacity: 0.45"/>
   </g>
   <g id="matplotlib.axis_1">
    <g id="xtick_1">
     <g id="line2d_1">
      <defs>
       <path id="mdea53f2d08" d="M 0 0 
L 0 3.5 
" style="stroke: #000000; stroke-width: 0.8"/>
      </defs>
      <g>
       <use xlink:href="#mdea53f2d08" x="61.634886" y="302.2" style="stroke: #000000; stroke-width: 0.8"/>
      </g>
     </g>
     <g id="text_1">
      <!-- 0 -->
      <g transform="translate(58.453636 316.798437) scale(0.1 -0.1)">
       <defs>
        <path id="DejaVuSans-30" d="M 2034 4250 
Q 1547 4250 1301 3770 
Q 1056 3291 1056 2328 
Q 1056 1369 1301 889 
Q 1547 409 2034 409 
Q 2525 409 2770 889 
Q 3016 1369 3016 2328 
Q 3016 3291 2770 3770 
Q 2525 4250 2034 4250 
z
M 2034 4750 
Q 2819 4750 3233 4129 
Q 3647 3509 3647 2328 
Q 3647 1150 3233 529 
Q 2819 -91 2034 -91 
Q 1250 -91 836 529 
Q 422 1150 422 2328 
Q 422 3509 836 4129 
Q 1250 4750 2034 4750 
z
" transform="scale(0.015625)"/>
       </defs>
       <use xlink:href="#DejaVuSans-30"/>
      </g>
     </g>
    </g>
    <g id="xtick_2">
     <g id="line2d_2">
      <g>
       <use xlink:href="#mdea53f2d08" x="135.644436" y="302.2" style="stroke: #000000; stroke-width: 0.8"/>
      </g>
     </g>
     <g id="text_2">
      <!-- 1 -->
      <g transform="translate(132.463186 316.798437) scale(0.1 -0.1)">
       <defs>
        <path id="DejaVuSans-31" d="M 794 531 
L 1825 531 
L 1825 4091 
L 703 3866 
L 703 4441 
L 1819 4666 
L 2450 4666 
L 2450 531 
L 3481 531 
L 3481 0 
L 794 0 
L 794 531 
z
" transform="scale(0.015625)"/>
       </defs>
       <use xlink:href="#DejaVuSans-31"/>
      </g>
     </g>
    </g>
    <g id="xtick_3">
     <g id="line2d_3">
      <g>
       <use xlink:href="#mdea53f2d08" x="209.653986" y="302.2" style="stroke: #000000; stroke-width: 0.8"/>
      </g>
     </g>
     <g id="text_3">
      <!-- 2 -->
      <g transform="translate(206.472736 316.798437) scale(0.1 -0.1)">
       <defs>
        <path id="DejaVuSans-32" d="M 1228 531 
L 3431 531 
L 3431 0 
L 469 0 
L 469 531 
Q 828 903 1448 1529 
Q 2069 2156 2228 2338 
Q 2531 2678 2651 2914 
Q 2772 3150 2772 3378 
Q 2772 3750 2511 3984 
Q 2250 4219 1831 4219 
Q 1534 4219 1204 4116 
Q 875 4013 500 3803 
L 500 4441 
Q 881 4594 1212 4672 
Q 1544 4750 1819 4750 
Q 2544 4750 2975 4387 
Q 3406 4025 3406 3419 
Q 3406 3131 3298 2873 
Q 3191 2616 2906 2266 
Q 2828 2175 2409 1742 
Q 1991 1309 1228 531 
z
" transform="scale(0.015625)"/>
       </defs>
       <use xlink:href="#DejaVuSans-32"/>
      </g>
     </g>
    </g>
    <g id="xtick_4">
     <g id="line2d_4">
      <g>
       <use xlink:href="#mdea53f2d08" x="283.663536" y="302.2" style="stroke: #000000; stroke-width: 0.8"/>
      </g>
     </g>
     <g id="text_4">
      <!-- 3 -->
      <g transform="translate(280.482286 316.798437) scale(0.1 -0.1)">
       <defs>
        <path id="DejaVuSans-33" d="M 2597 2516 
Q 3050 2419 3304 2112 
Q 3559 1806 3559 1356 
Q 3559 666 3084 287 
Q 2609 -91 1734 -91 
Q 1441 -91 1130 -33 
Q 819 25 488 141 
L 488 750 
Q 750 597 1062 519 
Q 1375 441 1716 441 
Q 2309 441 2620 675 
Q 2931 909 2931 1356 
Q 2931 1769 2642 2001 
Q 2353 2234 1838 2234 
L 1294 2234 
L 1294 2753 
L 1863 2753 
Q 2328 2753 2575 2939 
Q 2822 3125 2822 3475 
Q 2822 3834 2567 4026 
Q 2313 4219 1838 4219 
Q 1578 4219 1281 4162 
Q 984 4106 628 3988 
L 628 4550 
Q 988 4650 1302 4700 
Q 1616 4750 1894 4750 
Q 2613 4750 3031 4423 
Q 3450 4097 3450 3541 
Q 3450 3153 3228 2886 
Q 3006 2619 2597 2516 
z
" transform="scale(0.015625)"/>
       </defs>
       <use xlink:href="#DejaVuSans-33"/>
      </g>
     </g>
    </g>
    <g id="xtick_5">
     <g id="line2d_5">
      <g>
       <use xlink:href="#mdea53f2d08" x="357.673086" y="302.2" style="stroke: #000000; stroke-width: 0.8"/>
      </g>
     </g>
     <g id="text_5">
      <!-- 4 -->
      <g transform="translate(354.491836 316.798437) scale(0.1 -0.1)">
       <defs>
        <path id="DejaVuSans-34" d="M 2419 4116 
L 825 1625 
L 2419 1625 
L 2419 4116 
z
M 2253 4666 
L 3047 4666 
L 3047 1625 
L 3713 1625 
L 3713 1100 
L 3047 1100 
L 3047 0 
L 2419 0 
L 2419 1100 
L 313 1100 
L 313 1709 
L 2253 4666 
z
" transform="scale(0.015625)"/>
       </defs>
       <use xlink:href="#DejaVuSans-34"/>
      </g>
     </g>
    </g>
    <g id="xtick_6">
     <g id="line2d_6">
      <g>
       <use xlink:href="#mdea53f2d08" x="431.682636" y="302.2" style="stroke: #000000; stroke-width: 0.8"/>
      </g>
     </g>
     <g id="text_6">
      <!-- 5 -->
      <g transform="translate(428.501386 316.798437) scale(0.1 -0.1)">
       <defs>
        <path id="DejaVuSans-35" d="M 691 4666 
L 3169 4666 
L 3169 4134 
L 1269 4134 
L 1269 2991 
Q 1406 3038 1543 3061 
Q 1681 3084 1819 3084 
Q 2600 3084 3056 2656 
Q 3513 2228 3513 1497 
Q 3513 744 3044 326 
Q 2575 -91 1722 -91 
Q 1428 -91 1123 -41 
Q 819 9 494 109 
L 494 744 
Q 775 591 1075 516 
Q 1375 441 1709 441 
Q 2250 441 2565 725 
Q 2881 1009 2881 1497 
Q 2881 1984 2565 2268 
Q 2250 2553 1709 2553 
Q 1456 2553 1204 2497 
Q 953 2441 691 2322 
L 691 4666 
z
" transform="scale(0.015625)"/>
       </defs>
       <use xlink:href="#DejaVuSans-35"/>
      </g>
     </g>
    </g>
    <g id="text_7">
     <!-- $W$ (m/hour) -->
     <g transform="translate(220.059 330.476562) scale(0.1 -0.1)">
      <defs>
       <path id="DejaVuSans-Oblique-57" d="M 616 4666 
L 1228 4666 
L 1453 697 
L 3213 4666 
L 3916 4666 
L 4147 697 
L 5888 4666 
L 6528 4666 
L 4453 0 
L 3659 0 
L 3444 3891 
L 1697 0 
L 903 0 
L 616 4666 
z
" transform="scale(0.015625)"/>
       <path id="DejaVuSans-20" transform="scale(0.015625)"/>
       <path id="DejaVuSans-28" d="M 1984 4856 
Q 1566 4138 1362 3434 
Q 1159 2731 1159 2009 
Q 1159 1288 1364 580 
Q 1569 -128 1984 -844 
L 1484 -844 
Q 1016 -109 783 600 
Q 550 1309 550 2009 
Q 550 2706 781 3412 
Q 1013 4119 1484 4856 
L 1984 4856 
z
" transform="scale(0.015625)"/>
       <path id="DejaVuSans-6d" d="M 3328 2828 
Q 3544 3216 3844 3400 
Q 4144 3584 4550 3584 
Q 5097 3584 5394 3201 
Q 5691 2819 5691 2113 
L 5691 0 
L 5113 0 
L 5113 2094 
Q 5113 2597 4934 2840 
Q 4756 3084 4391 3084 
Q 3944 3084 3684 2787 
Q 3425 2491 3425 1978 
L 3425 0 
L 2847 0 
L 2847 2094 
Q 2847 2600 2669 2842 
Q 2491 3084 2119 3084 
Q 1678 3084 1418 2786 
Q 1159 2488 1159 1978 
L 1159 0 
L 581 0 
L 581 3500 
L 1159 3500 
L 1159 2956 
Q 1356 3278 1631 3431 
Q 1906 3584 2284 3584 
Q 2666 3584 2933 3390 
Q 3200 3197 3328 2828 
z
" transform="scale(0.015625)"/>
       <path id="DejaVuSans-2f" d="M 1625 4666 
L 2156 4666 
L 531 -594 
L 0 -594 
L 1625 4666 
z
" transform="scale(0.015625)"/>
       <path id="DejaVuSans-68" d="M 3513 2113 
L 3513 0 
L 2938 0 
L 2938 2094 
Q 2938 2591 2744 2837 
Q 2550 3084 2163 3084 
Q 1697 3084 1428 2787 
Q 1159 2491 1159 1978 
L 1159 0 
L 581 0 
L 581 4863 
L 1159 4863 
L 1159 2956 
Q 1366 3272 1645 3428 
Q 1925 3584 2291 3584 
Q 2894 3584 3203 3211 
Q 3513 2838 3513 2113 
z
" transform="scale(0.015625)"/>
       <path id="DejaVuSans-6f" d="M 1959 3097 
Q 1497 3097 1228 2736 
Q 959 2375 959 1747 
Q 959 1119 1226 758 
Q 1494 397 1959 397 
Q 2419 397 2687 759 
Q 2956 1122 2956 1747 
Q 2956 2369 2687 2733 
Q 2419 3097 1959 3097 
z
M 1959 3584 
Q 2709 3584 3137 3096 
Q 3566 2609 3566 1747 
Q 3566 888 3137 398 
Q 2709 -91 1959 -91 
Q 1206 -91 779 398 
Q 353 888 353 1747 
Q 353 2609 779 3096 
Q 1206 3584 1959 3584 
z
" transform="scale(0.015625)"/>
       <path id="DejaVuSans-75" d="M 544 1381 
L 544 3500 
L 1119 3500 
L 1119 1403 
Q 1119 906 1312 657 
Q 1506 409 1894 409 
Q 2359 409 2629 706 
Q 2900 1003 2900 1516 
L 2900 3500 
L 3475 3500 
L 3475 0 
L 2900 0 
L 2900 538 
Q 2691 219 2414 64 
Q 2138 -91 1772 -91 
Q 1169 -91 856 284 
Q 544 659 544 1381 
z
M 1991 3584 
L 1991 3584 
z
" transform="scale(0.015625)"/>
       <path id="DejaVuSans-72" d="M 2631 2963 
Q 2534 3019 2420 3045 
Q 2306 3072 2169 3072 
Q 1681 3072 1420 2755 
Q 1159 2438 1159 1844 
L 1159 0 
L 581 0 
L 581 3500 
L 1159 3500 
L 1159 2956 
Q 1341 3275 1631 3429 
Q 1922 3584 2338 3584 
Q 2397 3584 2469 3576 
Q 2541 3569 2628 3553 
L 2631 2963 
z
" transform="scale(0.015625)"/>
       <path id="DejaVuSans-29" d="M 513 4856 
L 1013 4856 
Q 1481 4119 1714 3412 
Q 1947 2706 1947 2009 
Q 1947 1309 1714 600 
Q 1481 -109 1013 -844 
L 513 -844 
Q 928 -128 1133 580 
Q 1338 1288 1338 2009 
Q 1338 2731 1133 3434 
Q 928 4138 513 4856 
z
" transform="scale(0.015625)"/>
      </defs>
      <use xlink:href="#DejaVuSans-Oblique-57" transform="translate(0 0.015625)"/>
      <use xlink:href="#DejaVuSans-20" transform="translate(98.876953 0.015625)"/>
      <use xlink:href="#DejaVuSans-28" transform="translate(130.664062 0.015625)"/>
      <use xlink:href="#DejaVuSans-6d" transform="translate(169.677734 0.015625)"/>
      <use xlink:href="#DejaVuSans-2f" transform="translate(267.089844 0.015625)"/>
      <use xlink:href="#DejaVuSans-68" transform="translate(300.78125 0.015625)"/>
      <use xlink:href="#DejaVuSans-6f" transform="translate(364.160156 0.015625)"/>
      <use xlink:href="#DejaVuSans-75" transform="translate(425.341797 0.015625)"/>
      <use xlink:href="#DejaVuSans-72" transform="translate(488.720703 0.015625)"/>
      <use xlink:href="#DejaVuSans-29" transform="translate(529.833984 0.015625)"/>
     </g>
    </g>
   </g>
   <g id="matplotlib.axis_2">
    <g id="ytick_1">
     <g id="line2d_7">
      <defs>
       <path id="m6e363ddcca" d="M 0 0 
L -3.5 0 
" style="stroke: #000000; stroke-width: 0.8"/>
      </defs>
      <g>
       <use xlink:href="#m6e363ddcca" x="47.018" y="276.637303" style="stroke: #000000; stroke-width: 0.8"/>
      </g>
     </g>
     <g id="text_8">
      <!-- 0 -->
      <g transform="translate(33.6555 280.436521) scale(0.1 -0.1)">
       <use xlink:href="#DejaVuSans-30"/>
      </g>
     </g>
    </g>
    <g id="ytick_2">
     <g id="line2d_8">
      <g>
       <use xlink:href="#m6e363ddcca" x="47.018" y="241.66843" style="stroke: #000000; stroke-width: 0.8"/>
      </g>
     </g>
     <g id="text_9">
      <!-- 5 -->
      <g transform="translate(33.6555 245.467649) scale(0.1 -0.1)">
       <use xlink:href="#DejaVuSans-35"/>
      </g>
     </g>
    </g>
    <g id="ytick_3">
     <g id="line2d_9">
      <g>
       <use xlink:href="#m6e363ddcca" x="47.018" y="206.699557" style="stroke: #000000; stroke-width: 0.8"/>
      </g>
     </g>
     <g id="text_10">
      <!-- 10 -->
      <g transform="translate(27.293 210.498776) scale(0.1 -0.1)">
       <use xlink:href="#DejaVuSans-31"/>
       <use xlink:href="#DejaVuSans-30" transform="translate(63.623047 0)"/>
      </g>
     </g>
    </g>
    <g id="ytick_4">
     <g id="line2d_10">
      <g>
       <use xlink:href="#m6e363ddcca" x="47.018" y="171.730684" style="stroke: #000000; stroke-width: 0.8"/>
      </g>
     </g>
     <g id="text_11">
      <!-- 15 -->
      <g transform="translate(27.293 175.529903) scale(0.1 -0.1)">
       <use xlink:href="#DejaVuSans-31"/>
       <use xlink:href="#DejaVuSans-35" transform="translate(63.623047 0)"/>
      </g>
     </g>
    </g>
    <g id="ytick_5">
     <g id="line2d_11">
      <g>
       <use xlink:href="#m6e363ddcca" x="47.018" y="136.761811" style="stroke: #000000; stroke-width: 0.8"/>
      </g>
     </g>
     <g id="text_12">
      <!-- 20 -->
      <g transform="translate(27.293 140.56103) scale(0.1 -0.1)">
       <use xlink:href="#DejaVuSans-32"/>
       <use xlink:href="#DejaVuSans-30" transform="translate(63.623047 0)"/>
      </g>
     </g>
    </g>
    <g id="ytick_6">
     <g id="line2d_12">
      <g>
       <use xlink:href="#m6e363ddcca" x="47.018" y="101.792938" style="stroke: #000000; stroke-width: 0.8"/>
      </g>
     </g>
     <g id="text_13">
      <!-- 25 -->
      <g transform="translate(27.293 105.592157) scale(0.1 -0.1)">
       <use xlink:href="#DejaVuSans-32"/>
       <use xlink:href="#DejaVuSans-35" transform="translate(63.623047 0)"/>
      </g>
     </g>
    </g>
    <g id="ytick_7">
     <g id="line2d_13">
      <g>
       <use xlink:href="#m6e363ddcca" x="47.018" y="66.824065" style="stroke: #000000; stroke-width: 0.8"/>
      </g>
     </g>
     <g id="text_14">
      <!-- 30 -->
      <g transform="translate(27.293 70.623284) scale(0.1 -0.1)">
       <use xlink:href="#DejaVuSans-33"/>
       <use xlink:href="#DejaVuSans-30" transform="translate(63.623047 0)"/>
      </g>
     </g>
    </g>
    <g id="ytick_8">
     <g id="line2d_14">
      <g>
       <use xlink:href="#m6e363ddcca" x="47.018" y="31.855192" style="stroke: #000000; stroke-width: 0.8"/>
      </g>
     </g>
     <g id="text_15">
      <!-- 35 -->
      <g transform="translate(27.293 35.654411) scale(0.1 -0.1)">
       <use xlink:href="#DejaVuSans-33"/>
       <use xlink:href="#DejaVuSans-35" transform="translate(63.623047 0)"/>
      </g>
     </g>
    </g>
    <g id="text_16">
     <!-- $Q_{lc}$ (kW) -->
     <g transform="translate(21.213312 176.8) rotate(-90) scale(0.1 -0.1)">
      <defs>
       <path id="DejaVuSans-Oblique-51" d="M 2309 -84 
Q 2275 -88 2237 -89 
Q 2200 -91 2125 -91 
Q 1250 -91 756 411 
Q 263 913 263 1797 
Q 263 2319 452 2844 
Q 641 3369 978 3788 
Q 1369 4269 1858 4509 
Q 2347 4750 2938 4750 
Q 3794 4750 4287 4245 
Q 4781 3741 4781 2869 
Q 4781 1928 4265 1147 
Q 3750 366 2919 44 
L 3553 -825 
L 2847 -825 
L 2309 -84 
z
M 2919 4238 
Q 2400 4238 2003 3986 
Q 1606 3734 1313 3219 
Q 1125 2891 1026 2522 
Q 928 2153 928 1778 
Q 928 1128 1239 775 
Q 1550 422 2119 422 
Q 2631 422 3032 676 
Q 3434 931 3719 1434 
Q 3909 1772 4009 2142 
Q 4109 2513 4109 2881 
Q 4109 3528 3796 3883 
Q 3484 4238 2919 4238 
z
" transform="scale(0.015625)"/>
       <path id="DejaVuSans-Oblique-6c" d="M 1172 4863 
L 1747 4863 
L 800 0 
L 225 0 
L 1172 4863 
z
" transform="scale(0.015625)"/>
       <path id="DejaVuSans-Oblique-63" d="M 3431 3366 
L 3316 2797 
Q 3109 2947 2876 3022 
Q 2644 3097 2394 3097 
Q 2119 3097 1870 3000 
Q 1622 2903 1453 2725 
Q 1184 2453 1037 2087 
Q 891 1722 891 1331 
Q 891 859 1127 628 
Q 1363 397 1844 397 
Q 2081 397 2348 469 
Q 2616 541 2906 684 
L 2797 116 
Q 2547 13 2283 -39 
Q 2019 -91 1741 -91 
Q 1044 -91 669 257 
Q 294 606 294 1253 
Q 294 1797 489 2255 
Q 684 2713 1069 3078 
Q 1331 3328 1684 3456 
Q 2038 3584 2456 3584 
Q 2700 3584 2940 3529 
Q 3181 3475 3431 3366 
z
" transform="scale(0.015625)"/>
       <path id="DejaVuSans-6b" d="M 581 4863 
L 1159 4863 
L 1159 1991 
L 2875 3500 
L 3609 3500 
L 1753 1863 
L 3688 0 
L 2938 0 
L 1159 1709 
L 1159 0 
L 581 0 
L 581 4863 
z
" transform="scale(0.015625)"/>
       <path id="DejaVuSans-57" d="M 213 4666 
L 850 4666 
L 1831 722 
L 2809 4666 
L 3519 4666 
L 4500 722 
L 5478 4666 
L 6119 4666 
L 4947 0 
L 4153 0 
L 3169 4050 
L 2175 0 
L 1381 0 
L 213 4666 
z
" transform="scale(0.015625)"/>
      </defs>
      <use xlink:href="#DejaVuSans-Oblique-51" transform="translate(0 0.015625)"/>
      <use xlink:href="#DejaVuSans-Oblique-6c" transform="translate(78.710938 -16.390625) scale(0.7)"/>
      <use xlink:href="#DejaVuSans-Oblique-63" transform="translate(98.15918 -16.390625) scale(0.7)"/>
      <use xlink:href="#DejaVuSans-20" transform="translate(139.379883 0.015625)"/>
      <use xlink:href="#DejaVuSans-28" transform="translate(171.166992 0.015625)"/>
      <use xlink:href="#DejaVuSans-6b" transform="translate(210.180664 0.015625)"/>
      <use xlink:href="#DejaVuSans-57" transform="translate(268.09082 0.015625)"/>
      <use xlink:href="#DejaVuSans-29" transform="translate(366.967773 0.015625)"/>
     </g>
    </g>
   </g>
   <g id="line2d_15">
    <path d="M 65.335364 207.422309 
L 72.811839 193.014443 
L 80.288314 180.778837 
L 87.764788 170.489028 
L 95.241263 161.87227 
L 102.717738 154.627341 
L 110.194213 148.449236 
L 117.670688 143.0544 
L 125.147163 138.199536 
L 132.623638 133.69568 
L 140.100113 129.41077 
L 147.576588 125.265929 
L 155.053063 121.228137 
L 162.529538 117.296484 
L 170.006013 113.489337 
L 177.482488 109.827472 
L 184.958963 106.32541 
L 192.435438 102.981686 
L 199.911913 99.778493 
L 207.388388 96.686751 
L 214.864863 93.675328 
L 222.341338 90.721088 
L 229.817813 87.813313 
L 237.294288 84.952239 
L 244.770763 82.144956 
L 252.247237 79.400168 
L 259.723712 76.723658 
L 267.200187 74.116156 
L 274.676662 71.571597 
L 282.153137 69.079672 
L 289.629612 66.629815 
L 297.106087 64.214644 
L 304.582562 61.830914 
L 312.059037 59.478402 
L 319.535512 57.158437 
L 327.011987 54.873156 
L 334.488462 52.625067 
L 341.964937 50.41556 
L 349.441412 48.244166 
L 356.917887 46.108168 
L 364.394362 44.002698 
L 371.870837 41.921919 
L 379.347312 39.859738 
L 386.823787 37.811096 
L 394.300262 35.774423 
L 401.776737 33.754346 
L 409.253212 31.7618 
L 416.729686 29.809433 
L 424.206161 27.904154 
L 431.682636 26.040678 
" clip-path="url(#pac59385402)" style="fill: none; stroke: #1f77b4; stroke-width: 1.5; stroke-linecap: square"/>
   </g>
   <g id="line2d_16">
    <path d="M 65.335364 244.270602 
L 72.811839 236.660621 
L 80.288314 230.254503 
L 87.764788 224.888434 
L 95.241263 220.389341 
L 102.717738 216.58457 
L 110.194213 213.311072 
L 117.670688 210.424501 
L 125.147163 207.806569 
L 132.623638 205.367501 
L 140.100113 203.046288 
L 147.576588 200.807619 
L 155.053063 198.636464 
L 162.529538 196.531235 
L 170.006013 194.496942 
L 177.482488 192.539247 
L 184.958963 190.660594 
L 192.435438 188.858067 
L 199.911913 187.123255 
L 207.388388 185.444314 
L 214.864863 183.80921 
L 222.341338 182.208544 
L 229.817813 180.637135 
L 237.294288 179.09394 
L 244.770763 177.580659 
L 252.247237 176.099938 
L 259.723712 174.653643 
L 267.200187 173.24174 
L 274.676662 171.861963 
L 282.153137 170.510355 
L 289.629612 169.182435 
L 297.106087 167.874295 
L 304.582562 166.583343 
L 312.059037 165.308501 
L 319.535512 164.050092 
L 327.011987 162.809581 
L 334.488462 161.588952 
L 341.964937 160.38988 
L 349.441412 159.212779 
L 356.917887 158.056201 
L 364.394362 156.916891 
L 371.870837 155.790355 
L 379.347312 154.671955 
L 386.823787 153.558289 
L 394.300262 152.448688 
L 401.776737 151.346174 
L 409.253212 150.257183 
L 416.729686 149.190357 
L 424.206161 148.154392 
L 431.682636 147.155937 
" clip-path="url(#pac59385402)" style="fill: none; stroke: #ff7f0e; stroke-width: 1.5; stroke-linecap: square"/>
   </g>
   <g id="line2d_17">
    <path d="M 65.335364 265.650764 
L 72.811839 262.723676 
L 80.288314 260.316518 
L 87.764788 258.332913 
L 95.241263 256.681775 
L 102.717738 255.281661 
L 110.194213 254.063567 
L 117.670688 252.972873 
L 125.147163 251.970024 
L 132.623638 251.028885 
L 140.100113 250.133669 
L 147.576588 249.275563 
L 155.053063 248.44993 
L 162.529538 247.654374 
L 170.006013 246.887509 
L 177.482488 246.14821 
L 184.958963 245.43519 
L 192.435438 244.746733 
L 199.911913 244.080606 
L 207.388388 243.434223 
L 214.864863 242.804967 
L 222.341338 242.190485 
L 229.817813 241.589034 
L 237.294288 240.999671 
L 244.770763 240.422164 
L 252.247237 239.85667 
L 259.723712 239.303315 
L 267.200187 238.761968 
L 274.676662 238.232159 
L 282.153137 237.713054 
L 289.629612 237.203471 
L 297.106087 236.701968 
L 304.582562 236.207189 
L 312.059037 235.718279 
L 319.535512 235.235136 
L 327.011987 234.758403 
L 334.488462 234.289158 
L 341.964937 233.828561 
L 349.441412 233.377354 
L 356.917887 232.935303 
L 364.394362 232.500821 
L 371.870837 232.071097 
L 379.347312 231.642891 
L 386.823787 231.213772 
L 394.300262 230.783305 
L 401.776737 230.353656 
L 409.253212 229.929493 
L 416.729686 229.517677 
L 424.206161 229.126399 
L 431.682636 228.7639 
" clip-path="url(#pac59385402)" style="fill: none; stroke: #2ca02c; stroke-width: 1.5; stroke-linecap: square"/>
   </g>
   <g id="line2d_18">
    <path d="M 65.335364 273.468858 
L 72.811839 272.247364 
L 80.288314 271.356553 
L 87.764788 270.73564 
L 95.241263 270.327259 
L 102.717738 270.079587 
L 110.194213 269.947519 
L 117.670688 269.893423 
L 125.147163 269.887295 
L 132.623638 269.906375 
L 140.100113 269.934354 
L 147.576588 269.960312 
L 155.053063 269.977577 
L 162.529538 269.982665 
L 170.006013 269.97418 
L 177.482488 269.952172 
L 184.958963 269.9175 
L 192.435438 269.871422 
L 199.911913 269.815331 
L 207.388388 269.750609 
L 214.864863 269.67856 
L 222.341338 269.600392 
L 229.817813 269.517227 
L 237.294288 269.430104 
L 244.770763 269.339985 
L 252.247237 269.247738 
L 259.723712 269.154132 
L 267.200187 269.059813 
L 274.676662 268.965306 
L 282.153137 268.871022 
L 289.629612 268.777281 
L 297.106087 268.684356 
L 304.582562 268.592506 
L 312.059037 268.502018 
L 319.535512 268.41322 
L 327.011987 268.326481 
L 334.488462 268.242186 
L 341.964937 268.160699 
L 349.441412 268.082344 
L 356.917887 268.007414 
L 364.394362 267.936231 
L 371.870837 267.869263 
L 379.347312 267.807283 
L 386.823787 267.751525 
L 394.300262 267.703806 
L 401.776737 267.666548 
L 409.253212 267.642673 
L 416.729686 267.635365 
L 424.206161 267.647716 
L 431.682636 267.682316 
" clip-path="url(#pac59385402)" style="fill: none; stroke: #d62728; stroke-width: 1.5; stroke-linecap: square"/>
   </g>
   <g id="patch_3">
    <path d="M 47.018 302.2 
L 47.018 10.8 
" style="fill: none; stroke: #000000; stroke-width: 0.8; stroke-linejoin: miter; stroke-linecap: square"/>
   </g>
   <g id="patch_4">
    <path d="M 450 302.2 
L 450 10.8 
" style="fill: none; stroke: #000000; stroke-width: 0.8; stroke-linejoin: miter; stroke-linecap: square"/>
   </g>
   <g id="patch_5">
    <path d="M 47.018 302.2 
L 450 302.2 
" style="fill: none; stroke: #000000; stroke-width: 0.8; stroke-linejoin: miter; stroke-linecap: square"/>
   </g>
   <g id="patch_6">
    <path d="M 47.018 10.8 
L 450 10.8 
" style="fill: none; stroke: #000000; stroke-width: 0.8; stroke-linejoin: miter; stroke-linecap: square"/>
   </g>
   <g id="legend_1">
    <g id="patch_7">
     <path d="M 54.018 77.5125 
L 132.888313 77.5125 
Q 134.888313 77.5125 134.888313 75.5125 
L 134.888313 17.8 
Q 134.888313 15.8 132.888313 15.8 
L 54.018 15.8 
Q 52.018 15.8 52.018 17.8 
L 52.018 75.5125 
Q 52.018 77.5125 54.018 77.5125 
z
" style="fill: #ffffff; opacity: 0.8; stroke: #cccccc; stroke-linejoin: miter"/>
    </g>
    <g id="line2d_19">
     <path d="M 56.018 23.898438 
L 66.018 23.898438 
L 76.018 23.898438 
" style="fill: none; stroke: #1f77b4; stroke-width: 1.5; stroke-linecap: square"/>
    </g>
    <g id="text_17">
     <!-- Ts=100 K -->
     <g transform="translate(84.018 27.398438) scale(0.1 -0.1)">
      <defs>
       <path id="DejaVuSans-54" d="M -19 4666 
L 3928 4666 
L 3928 4134 
L 2272 4134 
L 2272 0 
L 1638 0 
L 1638 4134 
L -19 4134 
L -19 4666 
z
" transform="scale(0.015625)"/>
       <path id="DejaVuSans-73" d="M 2834 3397 
L 2834 2853 
Q 2591 2978 2328 3040 
Q 2066 3103 1784 3103 
Q 1356 3103 1142 2972 
Q 928 2841 928 2578 
Q 928 2378 1081 2264 
Q 1234 2150 1697 2047 
L 1894 2003 
Q 2506 1872 2764 1633 
Q 3022 1394 3022 966 
Q 3022 478 2636 193 
Q 2250 -91 1575 -91 
Q 1294 -91 989 -36 
Q 684 19 347 128 
L 347 722 
Q 666 556 975 473 
Q 1284 391 1588 391 
Q 1994 391 2212 530 
Q 2431 669 2431 922 
Q 2431 1156 2273 1281 
Q 2116 1406 1581 1522 
L 1381 1569 
Q 847 1681 609 1914 
Q 372 2147 372 2553 
Q 372 3047 722 3315 
Q 1072 3584 1716 3584 
Q 2034 3584 2315 3537 
Q 2597 3491 2834 3397 
z
" transform="scale(0.015625)"/>
       <path id="DejaVuSans-3d" d="M 678 2906 
L 4684 2906 
L 4684 2381 
L 678 2381 
L 678 2906 
z
M 678 1631 
L 4684 1631 
L 4684 1100 
L 678 1100 
L 678 1631 
z
" transform="scale(0.015625)"/>
       <path id="DejaVuSans-4b" d="M 628 4666 
L 1259 4666 
L 1259 2694 
L 3353 4666 
L 4166 4666 
L 1850 2491 
L 4331 0 
L 3500 0 
L 1259 2247 
L 1259 0 
L 628 0 
L 628 4666 
z
" transform="scale(0.015625)"/>
      </defs>
      <use xlink:href="#DejaVuSans-54"/>
      <use xlink:href="#DejaVuSans-73" transform="translate(44.583984 0)"/>
      <use xlink:href="#DejaVuSans-3d" transform="translate(96.683594 0)"/>
      <use xlink:href="#DejaVuSans-31" transform="translate(180.472656 0)"/>
      <use xlink:href="#DejaVuSans-30" transform="translate(244.095703 0)"/>
      <use xlink:href="#DejaVuSans-30" transform="translate(307.71875 0)"/>
      <use xlink:href="#DejaVuSans-20" transform="translate(371.341797 0)"/>
      <use xlink:href="#DejaVuSans-4b" transform="translate(403.128906 0)"/>
     </g>
    </g>
    <g id="line2d_20">
     <path d="M 56.018 38.576563 
L 66.018 38.576563 
L 76.018 38.576563 
" style="fill: none; stroke: #ff7f0e; stroke-width: 1.5; stroke-linecap: square"/>
    </g>
    <g id="text_18">
     <!-- Ts=160 K -->
     <g transform="translate(84.018 42.076563) scale(0.1 -0.1)">
      <defs>
       <path id="DejaVuSans-36" d="M 2113 2584 
Q 1688 2584 1439 2293 
Q 1191 2003 1191 1497 
Q 1191 994 1439 701 
Q 1688 409 2113 409 
Q 2538 409 2786 701 
Q 3034 994 3034 1497 
Q 3034 2003 2786 2293 
Q 2538 2584 2113 2584 
z
M 3366 4563 
L 3366 3988 
Q 3128 4100 2886 4159 
Q 2644 4219 2406 4219 
Q 1781 4219 1451 3797 
Q 1122 3375 1075 2522 
Q 1259 2794 1537 2939 
Q 1816 3084 2150 3084 
Q 2853 3084 3261 2657 
Q 3669 2231 3669 1497 
Q 3669 778 3244 343 
Q 2819 -91 2113 -91 
Q 1303 -91 875 529 
Q 447 1150 447 2328 
Q 447 3434 972 4092 
Q 1497 4750 2381 4750 
Q 2619 4750 2861 4703 
Q 3103 4656 3366 4563 
z
" transform="scale(0.015625)"/>
      </defs>
      <use xlink:href="#DejaVuSans-54"/>
      <use xlink:href="#DejaVuSans-73" transform="translate(44.583984 0)"/>
      <use xlink:href="#DejaVuSans-3d" transform="translate(96.683594 0)"/>
      <use xlink:href="#DejaVuSans-31" transform="translate(180.472656 0)"/>
      <use xlink:href="#DejaVuSans-36" transform="translate(244.095703 0)"/>
      <use xlink:href="#DejaVuSans-30" transform="translate(307.71875 0)"/>
      <use xlink:href="#DejaVuSans-20" transform="translate(371.341797 0)"/>
      <use xlink:href="#DejaVuSans-4b" transform="translate(403.128906 0)"/>
     </g>
    </g>
    <g id="line2d_21">
     <path d="M 56.018 53.254687 
L 66.018 53.254687 
L 76.018 53.254687 
" style="fill: none; stroke: #2ca02c; stroke-width: 1.5; stroke-linecap: square"/>
    </g>
    <g id="text_19">
     <!-- Ts=220 K -->
     <g transform="translate(84.018 56.754687) scale(0.1 -0.1)">
      <use xlink:href="#DejaVuSans-54"/>
      <use xlink:href="#DejaVuSans-73" transform="translate(44.583984 0)"/>
      <use xlink:href="#DejaVuSans-3d" transform="translate(96.683594 0)"/>
      <use xlink:href="#DejaVuSans-32" transform="translate(180.472656 0)"/>
      <use xlink:href="#DejaVuSans-32" transform="translate(244.095703 0)"/>
      <use xlink:href="#DejaVuSans-30" transform="translate(307.71875 0)"/>
      <use xlink:href="#DejaVuSans-20" transform="translate(371.341797 0)"/>
      <use xlink:href="#DejaVuSans-4b" transform="translate(403.128906 0)"/>
     </g>
    </g>
    <g id="line2d_22">
     <path d="M 56.018 67.932813 
L 66.018 67.932813 
L 76.018 67.932813 
" style="fill: none; stroke: #d62728; stroke-width: 1.5; stroke-linecap: square"/>
    </g>
    <g id="text_20">
     <!-- Ts=260 K -->
     <g transform="translate(84.018 71.432813) scale(0.1 -0.1)">
      <use xlink:href="#DejaVuSans-54"/>
      <use xlink:href="#DejaVuSans-73" transform="translate(44.583984 0)"/>
      <use xlink:href="#DejaVuSans-3d" transform="translate(96.683594 0)"/>
      <use xlink:href="#DejaVuSans-32" transform="translate(180.472656 0)"/>
      <use xlink:href="#DejaVuSans-36" transform="translate(244.095703 0)"/>
      <use xlink:href="#DejaVuSans-30" transform="translate(307.71875 0)"/>
      <use xlink:href="#DejaVuSans-20" transform="translate(371.341797 0)"/>
      <use xlink:href="#DejaVuSans-4b" transform="translate(403.128906 0)"/>
     </g>
    </g>
   </g>
  </g>
 </g>
 <defs>
  <clipPath id="pac59385402">
   <rect x="47.018" y="10.8" width="402.982" height="291.4"/>
  </clipPath>
 </defs>
</svg>
