<?xml version="1.0" encoding="utf-8" standalone="no"?>
<!DOCTYPE svg PUBLIC "-//W3C//DTD SVG 1.1//EN"
  "http://www.w3.org/Graphics/SVG/1.1/DTD/svg11.dtd">
<svg xmlns:xlink="http://www.w3.org/1999/xlink" width="460.8pt" height="345.6pt" viewBox="0 0 460.8 345.6" xmlns="http://www.w3.org/2000/svg" version="1.1">
 <metadata>
  <rdf:RDF xmlns:dc="http://purl.org/dc/elements/1.1/" xmlns:cc="http://creativecommons.org/ns#" xmlns:rdf="http://www.w3.org/1999/02/22-rdf-syntax-ns#">
   <cc:Work>
    <dc:type rdf:resource="http://purl.org/dc/dcmitype/StillImage"/>
    <dc:date>2026-02-12T05:52:06.818099</dc:date>
    <dc:format>image/svg+xml</dc:format>
    <dc:creator>
     <cc:Agent>
      <dc:title>Matplotlib v3.10.8, https://matplotlib.org/</dc:title>
     </cc:Agent>
    </dc:creator>
   </cc:Work>
  </rdf:RDF>
 </metadata>
 <defs>
  <style type="text/css">*{stroke-linejoin: round; stroke-linecap: butt}</style>
 </defs>
 <g id="figure_1">
  <g id="patch_1">
   <path d="M 0 345.6 
L 460.8 345.6 
L 460.8 0 
L 0 0 
L 0 345.6 
z
" style="fill: none"/>
  </g>
  <g id="axes_1">
   <g id="patch_2">
    <path d="M 47.018 302.2 
L 450 302.2 
L 450 10.8 
L 47.018 10.8 
L 47.018 302.2 
z
" style="fill: none"/>
   </g>
   <g id="FillBetweenPolyCollection_1">
    <path d="M 65.335364 205.325761 
L 65.335364 209.023407 
L 72.811839 195.406109 
L 80.288314 183.268828 
L 87.764788 173.081939 
L 95.241263 163.737859 
L 102.717738 156.553396 
L 110.194213 150.949765 
L 117.670688 145.610116 
L 125.147163 140.611097 
L 132.623638 135.423247 
L 140.100113 131.367383 
L 147.576588 127.624943 
L 155.053063 123.643951 
L 162.529538 119.543804 
L 170.006013 115.208092 
L 177.482488 111.618541 
L 184.958963 108.703339 
L 192.435438 105.668327 
L 199.911913 102.108015 
L 207.388388 98.457759 
L 214.864863 95.696343 
L 222.341338 93.140623 
L 229.817813 90.204749 
L 237.294288 87.144665 
L 244.770763 83.937225 
L 252.247237 81.350501 
L 259.723712 79.169923 
L 267.200187 76.617388 
L 274.676662 73.779017 
L 282.153137 70.794095 
L 289.629612 68.749687 
L 297.106087 66.639975 
L 304.582562 64.427318 
L 312.059037 61.680524 
L 319.535512 58.838047 
L 327.011987 57.03678 
L 334.488462 55.226616 
L 341.964937 52.960911 
L 349.441412 50.414978 
L 356.917887 47.772116 
L 364.394362 46.123148 
L 371.870837 44.411145 
L 379.347312 42.453479 
L 386.823787 40.043064 
L 394.300262 37.408208 
L 401.776737 36.009247 
L 409.253212 34.665924 
L 416.729686 32.760334 
L 424.206161 30.413763 
L 431.682636 27.616856 
L 431.682636 24.045455 
L 431.682636 24.045455 
L 424.206161 25.034773 
L 416.729686 26.511279 
L 409.253212 28.68087 
L 401.776737 31.246974 
L 394.300262 33.755986 
L 386.823787 35.227886 
L 379.347312 36.944068 
L 371.870837 38.88954 
L 364.394362 41.488511 
L 356.917887 44.058665 
L 349.441412 45.651373 
L 341.964937 47.598392 
L 334.488462 49.669721 
L 327.011987 52.364743 
L 319.535512 55.161084 
L 312.059037 56.739371 
L 304.582562 58.933113 
L 297.106087 61.437508 
L 289.629612 64.266498 
L 282.153137 67.021088 
L 274.676662 68.79178 
L 267.200187 71.026624 
L 259.723712 73.946674 
L 252.247237 77.084792 
L 244.770763 80.047462 
L 237.294288 82.236585 
L 229.817813 84.862708 
L 222.341338 87.932626 
L 214.864863 91.368149 
L 207.388388 94.698101 
L 199.911913 97.186901 
L 192.435438 100.017498 
L 184.958963 103.389721 
L 177.482488 107.541866 
L 170.006013 111.388206 
L 162.529538 114.515324 
L 155.053063 118.359761 
L 147.576588 122.310725 
L 140.100113 127.076286 
L 132.623638 131.468404 
L 125.147163 135.316185 
L 117.670688 140.040043 
L 110.194213 145.424592 
L 102.717738 152.363497 
L 95.241263 159.578827 
L 87.764788 167.592152 
L 80.288314 177.740704 
L 72.811839 189.946788 
L 65.335364 205.325761 
z
" clip-path="url(#p353f581505)" style="fill: #1f77b4; fill-opacity: 0.45"/>
   </g>
   <g id="FillBetweenPolyCollection_2">
    <path d="M 65.335364 242.33638 
L 65.335364 245.613544 
L 72.811839 238.913373 
L 80.288314 232.769805 
L 87.764788 227.39429 
L 95.241263 221.98909 
L 102.717738 218.407765 
L 110.194213 215.646413 
L 117.670688 212.857735 
L 125.147163 210.151672 
L 132.623638 207.09115 
L 140.100113 204.868932 
L 147.576588 203.302156 
L 155.053063 201.14284 
L 162.529538 198.842384 
L 170.006013 196.111454 
L 177.482488 194.499373 
L 184.958963 193.100012 
L 192.435438 191.424195 
L 199.911913 189.438582 
L 207.388388 187.034374 
L 214.864863 185.749328 
L 222.341338 184.567649 
L 229.817813 183.273563 
L 237.294288 181.264063 
L 244.770763 179.292274 
L 252.247237 178.111189 
L 259.723712 177.104765 
L 267.200187 175.857698 
L 274.676662 174.009648 
L 282.153137 171.99768 
L 289.629612 171.187354 
L 297.106087 170.340451 
L 304.582562 169.086148 
L 312.059037 167.520881 
L 319.535512 165.519865 
L 327.011987 164.763001 
L 334.488462 164.068894 
L 341.964937 162.953118 
L 349.441412 161.460044 
L 356.917887 159.494142 
L 364.394362 159.14503 
L 371.870837 158.247876 
L 379.347312 157.105715 
L 386.823787 155.745188 
L 394.300262 153.899585 
L 401.776737 153.596955 
L 409.253212 152.987337 
L 416.729686 152.116215 
L 424.206161 150.519858 
L 431.682636 148.608937 
L 431.682636 145.275653 
L 431.682636 145.275653 
L 424.206161 145.193483 
L 416.729686 145.994944 
L 409.253212 147.227048 
L 401.776737 148.772368 
L 394.300262 150.698972 
L 386.823787 150.902179 
L 379.347312 151.684431 
L 371.870837 153.045086 
L 364.394362 154.456737 
L 356.917887 156.154841 
L 349.441412 156.769487 
L 341.964937 157.436343 
L 334.488462 158.706685 
L 327.011987 160.505175 
L 319.535512 162.203884 
L 312.059037 162.747529 
L 304.582562 163.72961 
L 297.106087 165.001388 
L 289.629612 166.815811 
L 282.153137 168.621206 
L 274.676662 169.404237 
L 267.200187 170.382848 
L 259.723712 171.758321 
L 252.247237 173.72417 
L 244.770763 175.742688 
L 237.294288 176.465809 
L 229.817813 177.743938 
L 222.341338 179.372242 
L 214.864863 181.646281 
L 207.388388 183.390672 
L 199.911913 184.415522 
L 192.435438 186.002201 
L 184.958963 187.849607 
L 177.482488 190.325654 
L 170.006013 192.447393 
L 162.529538 193.78885 
L 155.053063 195.733295 
L 147.576588 198.048166 
L 140.100113 200.841986 
L 132.623638 203.254785 
L 125.147163 205.103674 
L 117.670688 207.520609 
L 110.194213 210.471396 
L 102.717738 214.388349 
L 95.241263 218.207023 
L 87.764788 222.045276 
L 80.288314 227.193387 
L 72.811839 233.899827 
L 65.335364 242.33638 
z
" clip-path="url(#p353f581505)" style="fill: #ff7f0e; fill-opacity: 0.45"/>
   </g>
   <g id="FillBetweenPolyCollection_3">
    <path d="M 65.335364 262.813975 
L 65.335364 268.184959 
L 72.811839 265.475963 
L 80.288314 263.276147 
L 87.764788 261.101823 
L 95.241263 259.159484 
L 102.717738 257.768996 
L 110.194213 256.792495 
L 117.670688 255.967503 
L 125.147163 254.586492 
L 132.623638 253.446003 
L 140.100113 252.649569 
L 147.576588 252.020279 
L 155.053063 251.223413 
L 162.529538 250.471066 
L 170.006013 249.431556 
L 177.482488 248.567679 
L 184.958963 248.147835 
L 192.435438 247.595576 
L 199.911913 246.807757 
L 207.388388 245.939547 
L 214.864863 245.254976 
L 222.341338 244.771866 
L 229.817813 244.312743 
L 237.294288 243.813323 
L 244.770763 242.891034 
L 252.247237 242.495028 
L 259.723712 242.105097 
L 267.200187 241.66922 
L 274.676662 240.93798 
L 282.153137 240.079681 
L 289.629612 239.713785 
L 297.106087 239.578302 
L 304.582562 239.010055 
L 312.059037 238.268097 
L 319.535512 237.646788 
L 327.011987 237.300362 
L 334.488462 237.014208 
L 341.964937 236.581079 
L 349.441412 236.015676 
L 356.917887 235.35201 
L 364.394362 235.194148 
L 371.870837 234.781485 
L 379.347312 234.27658 
L 386.823787 233.818703 
L 394.300262 233.250858 
L 401.776737 233.097004 
L 409.253212 233.00471 
L 416.729686 232.783271 
L 424.206161 232.061289 
L 431.682636 231.229113 
L 431.682636 225.760888 
L 431.682636 225.760888 
L 424.206161 225.86025 
L 416.729686 226.040553 
L 409.253212 226.410508 
L 401.776737 227.241007 
L 394.300262 227.9929 
L 386.823787 228.200629 
L 379.347312 228.364084 
L 371.870837 228.754605 
L 364.394362 229.558743 
L 356.917887 230.043825 
L 349.441412 230.263047 
L 341.964937 230.423936 
L 334.488462 230.981982 
L 327.011987 231.91111 
L 319.535512 232.414538 
L 312.059037 232.90853 
L 304.582562 232.97758 
L 297.106087 233.398662 
L 289.629612 234.435113 
L 282.153137 234.881098 
L 274.676662 235.215036 
L 267.200187 235.405079 
L 259.723712 236.099334 
L 252.247237 236.838945 
L 244.770763 237.512027 
L 237.294288 238.048393 
L 229.817813 238.467885 
L 222.341338 238.998162 
L 214.864863 239.728379 
L 207.388388 240.546613 
L 199.911913 241.04146 
L 192.435438 241.456844 
L 184.958963 242.372346 
L 177.482488 243.258333 
L 170.006013 244.041845 
L 162.529538 244.726108 
L 155.053063 245.156081 
L 147.576588 246.042964 
L 140.100113 247.262397 
L 132.623638 248.025456 
L 125.147163 248.887268 
L 117.670688 249.782557 
L 110.194213 250.995297 
L 102.717738 252.437014 
L 95.241263 253.740213 
L 87.764788 255.304296 
L 80.288314 256.916445 
L 72.811839 259.656767 
L 65.335364 262.813975 
z
" clip-path="url(#p353f581505)" style="fill: #2ca02c; fill-opacity: 0.45"/>
   </g>
   <g id="FillBetweenPolyCollection_4">
    <path d="M 65.335364 257.466075 
L 65.335364 288.954545 
L 72.811839 287.11708 
L 80.288314 286.325909 
L 87.764788 286.994233 
L 95.241263 284.911607 
L 102.717738 284.494161 
L 110.194213 285.218859 
L 117.670688 284.992854 
L 125.147163 284.49581 
L 132.623638 284.718705 
L 140.100113 285.422263 
L 147.576588 284.462187 
L 155.053063 284.774569 
L 162.529538 284.594841 
L 170.006013 285.208489 
L 177.482488 285.10305 
L 184.958963 284.817399 
L 192.435438 285.059336 
L 199.911913 284.0622 
L 207.388388 283.901641 
L 214.864863 283.918143 
L 222.341338 284.279346 
L 229.817813 284.425796 
L 237.294288 284.214951 
L 244.770763 283.940602 
L 252.247237 282.623884 
L 259.723712 283.824162 
L 267.200187 284.068804 
L 274.676662 283.284407 
L 282.153137 283.471119 
L 289.629612 283.484037 
L 297.106087 283.107513 
L 304.582562 283.014096 
L 312.059037 283.374728 
L 319.535512 282.892267 
L 327.011987 283.614622 
L 334.488462 282.600147 
L 341.964937 282.391125 
L 349.441412 282.593608 
L 356.917887 283.602633 
L 364.394362 282.747986 
L 371.870837 282.061863 
L 379.347312 282.885555 
L 386.823787 283.035863 
L 394.300262 282.497854 
L 401.776737 282.470225 
L 409.253212 282.913225 
L 416.729686 282.454885 
L 424.206161 283.202368 
L 431.682636 283.563746 
L 431.682636 251.998205 
L 431.682636 251.998205 
L 424.206161 251.492497 
L 416.729686 251.983698 
L 409.253212 251.84312 
L 401.776737 251.87695 
L 394.300262 251.52896 
L 386.823787 251.739869 
L 379.347312 252.352609 
L 371.870837 252.958552 
L 364.394362 253.092993 
L 356.917887 252.779029 
L 349.441412 253.743589 
L 341.964937 253.023688 
L 334.488462 253.645079 
L 327.011987 253.321062 
L 319.535512 252.800764 
L 312.059037 253.006806 
L 304.582562 254.286464 
L 297.106087 253.094562 
L 289.629612 253.818225 
L 282.153137 253.644288 
L 274.676662 253.497461 
L 267.200187 254.04168 
L 259.723712 254.723312 
L 252.247237 254.074488 
L 244.770763 253.701841 
L 237.294288 253.878077 
L 229.817813 254.925906 
L 222.341338 254.298003 
L 214.864863 254.544071 
L 207.388388 253.993481 
L 199.911913 255.122011 
L 192.435438 254.65936 
L 184.958963 255.254336 
L 177.482488 254.946385 
L 170.006013 253.786431 
L 162.529538 255.303504 
L 155.053063 254.354483 
L 147.576588 254.83635 
L 140.100113 254.378494 
L 132.623638 254.307942 
L 125.147163 255.105307 
L 117.670688 254.196456 
L 110.194213 254.534555 
L 102.717738 254.705476 
L 95.241263 255.211432 
L 87.764788 255.805899 
L 80.288314 255.144717 
L 72.811839 255.278011 
L 65.335364 257.466075 
z
" clip-path="url(#p353f581505)" style="fill: #d62728; fill-opacity: 0.45"/>
   </g>
   <g id="matplotlib.axis_1">
    <g id="xtick_1">
     <g id="line2d_1">
      <defs>
       <path id="m4b63eeee04" d="M 0 0 
L 0 3.5 
" style="stroke: #000000; stroke-width: 0.8"/>
      </defs>
      <g>
       <use xlink:href="#m4b63eeee04" x="61.634886" y="302.2" style="stroke: #000000; stroke-width: 0.8"/>
      </g>
     </g>
     <g id="text_1">
      <!-- 0 -->
      <g transform="translate(58.453636 316.798437) scale(0.1 -0.1)">
       <defs>
        <path id="DejaVuSans-30" d="M 2034 4250 
Q 1547 4250 1301 3770 
Q 1056 3291 1056 2328 
Q 1056 1369 1301 889 
Q 1547 409 2034 409 
Q 2525 409 2770 889 
Q 3016 1369 3016 2328 
Q 3016 3291 2770 3770 
Q 2525 4250 2034 4250 
z
M 2034 4750 
Q 2819 4750 3233 4129 
Q 3647 3509 3647 2328 
Q 3647 1150 3233 529 
Q 2819 -91 2034 -91 
Q 1250 -91 836 529 
Q 422 1150 422 2328 
Q 422 3509 836 4129 
Q 1250 4750 2034 4750 
z
" transform="scale(0.015625)"/>
       </defs>
       <use xlink:href="#DejaVuSans-30"/>
      </g>
     </g>
    </g>
    <g id="xtick_2">
     <g id="line2d_2">
      <g>
       <use xlink:href="#m4b63eeee04" x="135.644436" y="302.2" style="stroke: #000000; stroke-width: 0.8"/>
      </g>
     </g>
     <g id="text_2">
      <!-- 1 -->
      <g transform="translate(132.463186 316.798437) scale(0.1 -0.1)">
       <defs>
        <path id="DejaVuSans-31" d="M 794 531 
L 1825 531 
L 1825 4091 
L 703 3866 
L 703 4441 
L 1819 4666 
L 2450 4666 
L 2450 531 
L 3481 531 
L 3481 0 
L 794 0 
L 794 531 
z
" transform="scale(0.015625)"/>
       </defs>
       <use xlink:href="#DejaVuSans-31"/>
      </g>
     </g>
    </g>
    <g id="xtick_3">
     <g id="line2d_3">
      <g>
       <use xlink:href="#m4b63eeee04" x="209.653986" y="302.2" style="stroke: #000000; stroke-width: 0.8"/>
      </g>
     </g>
     <g id="text_3">
      <!-- 2 -->
      <g transform="translate(206.472736 316.798437) scale(0.1 -0.1)">
       <defs>
        <path id="DejaVuSans-32" d="M 1228 531 
L 3431 531 
L 3431 0 
L 469 0 
L 469 531 
Q 828 903 1448 1529 
Q 2069 2156 2228 2338 
Q 2531 2678 2651 2914 
Q 2772 3150 2772 3378 
Q 2772 3750 2511 3984 
Q 2250 4219 1831 4219 
Q 1534 4219 1204 4116 
Q 875 4013 500 3803 
L 500 4441 
Q 881 4594 1212 4672 
Q 1544 4750 1819 4750 
Q 2544 4750 2975 4387 
Q 3406 4025 3406 3419 
Q 3406 3131 3298 2873 
Q 3191 2616 2906 2266 
Q 2828 2175 2409 1742 
Q 1991 1309 1228 531 
z
" transform="scale(0.015625)"/>
       </defs>
       <use xlink:href="#DejaVuSans-32"/>
      </g>
     </g>
    </g>
    <g id="xtick_4">
     <g id="line2d_4">
      <g>
       <use xlink:href="#m4b63eeee04" x="283.663536" y="302.2" style="stroke: #000000; stroke-width: 0.8"/>
      </g>
     </g>
     <g id="text_4">
      <!-- 3 -->
      <g transform="translate(280.482286 316.798437) scale(0.1 -0.1)">
       <defs>
        <path id="DejaVuSans-33" d="M 2597 2516 
Q 3050 2419 3304 2112 
Q 3559 1806 3559 1356 
Q 3559 666 3084 287 
Q 2609 -91 1734 -91 
Q 1441 -91 1130 -33 
Q 819 25 488 141 
L 488 750 
Q 750 597 1062 519 
Q 1375 441 1716 441 
Q 2309 441 2620 675 
Q 2931 909 2931 1356 
Q 2931 1769 2642 2001 
Q 2353 2234 1838 2234 
L 1294 2234 
L 1294 2753 
L 1863 2753 
Q 2328 2753 2575 2939 
Q 2822 3125 2822 3475 
Q 2822 3834 2567 4026 
Q 2313 4219 1838 4219 
Q 1578 4219 1281 4162 
Q 984 4106 628 3988 
L 628 4550 
Q 988 4650 1302 4700 
Q 1616 4750 1894 4750 
Q 2613 4750 3031 4423 
Q 3450 4097 3450 3541 
Q 3450 3153 3228 2886 
Q 3006 2619 2597 2516 
z
" transform="scale(0.015625)"/>
       </defs>
       <use xlink:href="#DejaVuSans-33"/>
      </g>
     </g>
    </g>
    <g id="xtick_5">
     <g id="line2d_5">
      <g>
       <use xlink:href="#m4b63eeee04" x="357.673086" y="302.2" style="stroke: #000000; stroke-width: 0.8"/>
      </g>
     </g>
     <g id="text_5">
      <!-- 4 -->
      <g transform="translate(354.491836 316.798437) scale(0.1 -0.1)">
       <defs>
        <path id="DejaVuSans-34" d="M 2419 4116 
L 825 1625 
L 2419 1625 
L 2419 4116 
z
M 2253 4666 
L 3047 4666 
L 3047 1625 
L 3713 1625 
L 3713 1100 
L 3047 1100 
L 3047 0 
L 2419 0 
L 2419 1100 
L 313 1100 
L 313 1709 
L 2253 4666 
z
" transform="scale(0.015625)"/>
       </defs>
       <use xlink:href="#DejaVuSans-34"/>
      </g>
     </g>
    </g>
    <g id="xtick_6">
     <g id="line2d_6">
      <g>
       <use xlink:href="#m4b63eeee04" x="431.682636" y="302.2" style="stroke: #000000; stroke-width: 0.8"/>
      </g>
     </g>
     <g id="text_6">
      <!-- 5 -->
      <g transform="translate(428.501386 316.798437) scale(0.1 -0.1)">
       <defs>
        <path id="DejaVuSans-35" d="M 691 4666 
L 3169 4666 
L 3169 4134 
L 1269 4134 
L 1269 2991 
Q 1406 3038 1543 3061 
Q 1681 3084 1819 3084 
Q 2600 3084 3056 2656 
Q 3513 2228 3513 1497 
Q 3513 744 3044 326 
Q 2575 -91 1722 -91 
Q 1428 -91 1123 -41 
Q 819 9 494 109 
L 494 744 
Q 775 591 1075 516 
Q 1375 441 1709 441 
Q 2250 441 2565 725 
Q 2881 1009 2881 1497 
Q 2881 1984 2565 2268 
Q 2250 2553 1709 2553 
Q 1456 2553 1204 2497 
Q 953 2441 691 2322 
L 691 4666 
z
" transform="scale(0.015625)"/>
       </defs>
       <use xlink:href="#DejaVuSans-35"/>
      </g>
     </g>
    </g>
    <g id="text_7">
     <!-- $W$ (m/hour) -->
     <g transform="translate(220.059 330.476562) scale(0.1 -0.1)">
      <defs>
       <path id="DejaVuSans-Oblique-57" d="M 616 4666 
L 1228 4666 
L 1453 697 
L 3213 4666 
L 3916 4666 
L 4147 697 
L 5888 4666 
L 6528 4666 
L 4453 0 
L 3659 0 
L 3444 3891 
L 1697 0 
L 903 0 
L 616 4666 
z
" transform="scale(0.015625)"/>
       <path id="DejaVuSans-20" transform="scale(0.015625)"/>
       <path id="DejaVuSans-28" d="M 1984 4856 
Q 1566 4138 1362 3434 
Q 1159 2731 1159 2009 
Q 1159 1288 1364 580 
Q 1569 -128 1984 -844 
L 1484 -844 
Q 1016 -109 783 600 
Q 550 1309 550 2009 
Q 550 2706 781 3412 
Q 1013 4119 1484 4856 
L 1984 4856 
z
" transform="scale(0.015625)"/>
       <path id="DejaVuSans-6d" d="M 3328 2828 
Q 3544 3216 3844 3400 
Q 4144 3584 4550 3584 
Q 5097 3584 5394 3201 
Q 5691 2819 5691 2113 
L 5691 0 
L 5113 0 
L 5113 2094 
Q 5113 2597 4934 2840 
Q 4756 3084 4391 3084 
Q 3944 3084 3684 2787 
Q 3425 2491 3425 1978 
L 3425 0 
L 2847 0 
L 2847 2094 
Q 2847 2600 2669 2842 
Q 2491 3084 2119 3084 
Q 1678 3084 1418 2786 
Q 1159 2488 1159 1978 
L 1159 0 
L 581 0 
L 581 3500 
L 1159 3500 
L 1159 2956 
Q 1356 3278 1631 3431 
Q 1906 3584 2284 3584 
Q 2666 3584 2933 3390 
Q 3200 3197 3328 2828 
z
" transform="scale(0.015625)"/>
       <path id="DejaVuSans-2f" d="M 1625 4666 
L 2156 4666 
L 531 -594 
L 0 -594 
L 1625 4666 
z
" transform="scale(0.015625)"/>
       <path id="DejaVuSans-68" d="M 3513 2113 
L 3513 0 
L 2938 0 
L 2938 2094 
Q 2938 2591 2744 2837 
Q 2550 3084 2163 3084 
Q 1697 3084 1428 2787 
Q 1159 2491 1159 1978 
L 1159 0 
L 581 0 
L 581 4863 
L 1159 4863 
L 1159 2956 
Q 1366 3272 1645 3428 
Q 1925 3584 2291 3584 
Q 2894 3584 3203 3211 
Q 3513 2838 3513 2113 
z
" transform="scale(0.015625)"/>
       <path id="DejaVuSans-6f" d="M 1959 3097 
Q 1497 3097 1228 2736 
Q 959 2375 959 1747 
Q 959 1119 1226 758 
Q 1494 397 1959 397 
Q 2419 397 2687 759 
Q 2956 1122 2956 1747 
Q 2956 2369 2687 2733 
Q 2419 3097 1959 3097 
z
M 1959 3584 
Q 2709 3584 3137 3096 
Q 3566 2609 3566 1747 
Q 3566 888 3137 398 
Q 2709 -91 1959 -91 
Q 1206 -91 779 398 
Q 353 888 353 1747 
Q 353 2609 779 3096 
Q 1206 3584 1959 3584 
z
" transform="scale(0.015625)"/>
       <path id="DejaVuSans-75" d="M 544 1381 
L 544 3500 
L 1119 3500 
L 1119 1403 
Q 1119 906 1312 657 
Q 1506 409 1894 409 
Q 2359 409 2629 706 
Q 2900 1003 2900 1516 
L 2900 3500 
L 3475 3500 
L 3475 0 
L 2900 0 
L 2900 538 
Q 2691 219 2414 64 
Q 2138 -91 1772 -91 
Q 1169 -91 856 284 
Q 544 659 544 1381 
z
M 1991 3584 
L 1991 3584 
z
" transform="scale(0.015625)"/>
       <path id="DejaVuSans-72" d="M 2631 2963 
Q 2534 3019 2420 3045 
Q 2306 3072 2169 3072 
Q 1681 3072 1420 2755 
Q 1159 2438 1159 1844 
L 1159 0 
L 581 0 
L 581 3500 
L 1159 3500 
L 1159 2956 
Q 1341 3275 1631 3429 
Q 1922 3584 2338 3584 
Q 2397 3584 2469 3576 
Q 2541 3569 2628 3553 
L 2631 2963 
z
" transform="scale(0.015625)"/>
       <path id="DejaVuSans-29" d="M 513 4856 
L 1013 4856 
Q 1481 4119 1714 3412 
Q 1947 2706 1947 2009 
Q 1947 1309 1714 600 
Q 1481 -109 1013 -844 
L 513 -844 
Q 928 -128 1133 580 
Q 1338 1288 1338 2009 
Q 1338 2731 1133 3434 
Q 928 4138 513 4856 
z
" transform="scale(0.015625)"/>
      </defs>
      <use xlink:href="#DejaVuSans-Oblique-57" transform="translate(0 0.015625)"/>
      <use xlink:href="#DejaVuSans-20" transform="translate(98.876953 0.015625)"/>
      <use xlink:href="#DejaVuSans-28" transform="translate(130.664062 0.015625)"/>
      <use xlink:href="#DejaVuSans-6d" transform="translate(169.677734 0.015625)"/>
      <use xlink:href="#DejaVuSans-2f" transform="translate(267.089844 0.015625)"/>
      <use xlink:href="#DejaVuSans-68" transform="translate(300.78125 0.015625)"/>
      <use xlink:href="#DejaVuSans-6f" transform="translate(364.160156 0.015625)"/>
      <use xlink:href="#DejaVuSans-75" transform="translate(425.341797 0.015625)"/>
      <use xlink:href="#DejaVuSans-72" transform="translate(488.720703 0.015625)"/>
      <use xlink:href="#DejaVuSans-29" transform="translate(529.833984 0.015625)"/>
     </g>
    </g>
   </g>
   <g id="matplotlib.axis_2">
    <g id="ytick_1">
     <g id="line2d_7">
      <defs>
       <path id="m51a22037dc" d="M 0 0 
L -3.5 0 
" style="stroke: #000000; stroke-width: 0.8"/>
      </defs>
      <g>
       <use xlink:href="#m51a22037dc" x="47.018" y="276.396824" style="stroke: #000000; stroke-width: 0.8"/>
      </g>
     </g>
     <g id="text_8">
      <!-- 0 -->
      <g transform="translate(33.6555 280.196043) scale(0.1 -0.1)">
       <use xlink:href="#DejaVuSans-30"/>
      </g>
     </g>
    </g>
    <g id="ytick_2">
     <g id="line2d_8">
      <g>
       <use xlink:href="#m51a22037dc" x="47.018" y="241.436033" style="stroke: #000000; stroke-width: 0.8"/>
      </g>
     </g>
     <g id="text_9">
      <!-- 5 -->
      <g transform="translate(33.6555 245.235252) scale(0.1 -0.1)">
       <use xlink:href="#DejaVuSans-35"/>
      </g>
     </g>
    </g>
    <g id="ytick_3">
     <g id="line2d_9">
      <g>
       <use xlink:href="#m51a22037dc" x="47.018" y="206.475242" style="stroke: #000000; stroke-width: 0.8"/>
      </g>
     </g>
     <g id="text_10">
      <!-- 10 -->
      <g transform="translate(27.293 210.274461) scale(0.1 -0.1)">
       <use xlink:href="#DejaVuSans-31"/>
       <use xlink:href="#DejaVuSans-30" transform="translate(63.623047 0)"/>
      </g>
     </g>
    </g>
    <g id="ytick_4">
     <g id="line2d_10">
      <g>
       <use xlink:href="#m51a22037dc" x="47.018" y="171.514451" style="stroke: #000000; stroke-width: 0.8"/>
      </g>
     </g>
     <g id="text_11">
      <!-- 15 -->
      <g transform="translate(27.293 175.31367) scale(0.1 -0.1)">
       <use xlink:href="#DejaVuSans-31"/>
       <use xlink:href="#DejaVuSans-35" transform="translate(63.623047 0)"/>
      </g>
     </g>
    </g>
    <g id="ytick_5">
     <g id="line2d_11">
      <g>
       <use xlink:href="#m51a22037dc" x="47.018" y="136.553661" style="stroke: #000000; stroke-width: 0.8"/>
      </g>
     </g>
     <g id="text_12">
      <!-- 20 -->
      <g transform="translate(27.293 140.352879) scale(0.1 -0.1)">
       <use xlink:href="#DejaVuSans-32"/>
       <use xlink:href="#DejaVuSans-30" transform="translate(63.623047 0)"/>
      </g>
     </g>
    </g>
    <g id="ytick_6">
     <g id="line2d_12">
      <g>
       <use xlink:href="#m51a22037dc" x="47.018" y="101.59287" style="stroke: #000000; stroke-width: 0.8"/>
      </g>
     </g>
     <g id="text_13">
      <!-- 25 -->
      <g transform="translate(27.293 105.392089) scale(0.1 -0.1)">
       <use xlink:href="#DejaVuSans-32"/>
       <use xlink:href="#DejaVuSans-35" transform="translate(63.623047 0)"/>
      </g>
     </g>
    </g>
    <g id="ytick_7">
     <g id="line2d_13">
      <g>
       <use xlink:href="#m51a22037dc" x="47.018" y="66.632079" style="stroke: #000000; stroke-width: 0.8"/>
      </g>
     </g>
     <g id="text_14">
      <!-- 30 -->
      <g transform="translate(27.293 70.431298) scale(0.1 -0.1)">
       <use xlink:href="#DejaVuSans-33"/>
       <use xlink:href="#DejaVuSans-30" transform="translate(63.623047 0)"/>
      </g>
     </g>
    </g>
    <g id="ytick_8">
     <g id="line2d_14">
      <g>
       <use xlink:href="#m51a22037dc" x="47.018" y="31.671288" style="stroke: #000000; stroke-width: 0.8"/>
      </g>
     </g>
     <g id="text_15">
      <!-- 35 -->
      <g transform="translate(27.293 35.470507) scale(0.1 -0.1)">
       <use xlink:href="#DejaVuSans-33"/>
       <use xlink:href="#DejaVuSans-35" transform="translate(63.623047 0)"/>
      </g>
     </g>
    </g>
    <g id="text_16">
     <!-- $Q_{lc}$ (kW) -->
     <g transform="translate(21.213312 176.8) rotate(-90) scale(0.1 -0.1)">
      <defs>
       <path id="DejaVuSans-Oblique-51" d="M 2309 -84 
Q 2275 -88 2237 -89 
Q 2200 -91 2125 -91 
Q 1250 -91 756 411 
Q 263 913 263 1797 
Q 263 2319 452 2844 
Q 641 3369 978 3788 
Q 1369 4269 1858 4509 
Q 2347 4750 2938 4750 
Q 3794 4750 4287 4245 
Q 4781 3741 4781 2869 
Q 4781 1928 4265 1147 
Q 3750 366 2919 44 
L 3553 -825 
L 2847 -825 
L 2309 -84 
z
M 2919 4238 
Q 2400 4238 2003 3986 
Q 1606 3734 1313 3219 
Q 1125 2891 1026 2522 
Q 928 2153 928 1778 
Q 928 1128 1239 775 
Q 1550 422 2119 422 
Q 2631 422 3032 676 
Q 3434 931 3719 1434 
Q 3909 1772 4009 2142 
Q 4109 2513 4109 2881 
Q 4109 3528 3796 3883 
Q 3484 4238 2919 4238 
z
" transform="scale(0.015625)"/>
       <path id="DejaVuSans-Oblique-6c" d="M 1172 4863 
L 1747 4863 
L 800 0 
L 225 0 
L 1172 4863 
z
" transform="scale(0.015625)"/>
       <path id="DejaVuSans-Oblique-63" d="M 3431 3366 
L 3316 2797 
Q 3109 2947 2876 3022 
Q 2644 3097 2394 3097 
Q 2119 3097 1870 3000 
Q 1622 2903 1453 2725 
Q 1184 2453 1037 2087 
Q 891 1722 891 1331 
Q 891 859 1127 628 
Q 1363 397 1844 397 
Q 2081 397 2348 469 
Q 2616 541 2906 684 
L 2797 116 
Q 2547 13 2283 -39 
Q 2019 -91 1741 -91 
Q 1044 -91 669 257 
Q 294 606 294 1253 
Q 294 1797 489 2255 
Q 684 2713 1069 3078 
Q 1331 3328 1684 3456 
Q 2038 3584 2456 3584 
Q 2700 3584 2940 3529 
Q 3181 3475 3431 3366 
z
" transform="scale(0.015625)"/>
       <path id="DejaVuSans-6b" d="M 581 4863 
L 1159 4863 
L 1159 1991 
L 2875 3500 
L 3609 3500 
L 1753 1863 
L 3688 0 
L 2938 0 
L 1159 1709 
L 1159 0 
L 581 0 
L 581 4863 
z
" transform="scale(0.015625)"/>
       <path id="DejaVuSans-57" d="M 213 4666 
L 850 4666 
L 1831 722 
L 2809 4666 
L 3519 4666 
L 4500 722 
L 5478 4666 
L 6119 4666 
L 4947 0 
L 4153 0 
L 3169 4050 
L 2175 0 
L 1381 0 
L 213 4666 
z
" transform="scale(0.015625)"/>
      </defs>
      <use xlink:href="#DejaVuSans-Oblique-51" transform="translate(0 0.015625)"/>
      <use xlink:href="#DejaVuSans-Oblique-6c" transform="translate(78.710938 -16.390625) scale(0.7)"/>
      <use xlink:href="#DejaVuSans-Oblique-63" transform="translate(98.15918 -16.390625) scale(0.7)"/>
      <use xlink:href="#DejaVuSans-20" transform="translate(139.379883 0.015625)"/>
      <use xlink:href="#DejaVuSans-28" transform="translate(171.166992 0.015625)"/>
      <use xlink:href="#DejaVuSans-6b" transform="translate(210.180664 0.015625)"/>
      <use xlink:href="#DejaVuSans-57" transform="translate(268.09082 0.015625)"/>
      <use xlink:href="#DejaVuSans-29" transform="translate(366.967773 0.015625)"/>
     </g>
    </g>
   </g>
   <g id="line2d_15">
    <path d="M 65.335364 207.211004 
L 72.811839 192.802409 
L 80.288314 180.492023 
L 87.764788 170.265921 
L 95.241263 161.633102 
L 102.717738 154.41931 
L 110.194213 148.235793 
L 117.670688 142.885468 
L 125.147163 137.959812 
L 132.623638 133.474637 
L 140.100113 129.211627 
L 147.576588 125.061702 
L 155.053063 120.996013 
L 162.529538 117.09202 
L 170.006013 113.237723 
L 177.482488 109.604405 
L 184.958963 106.126471 
L 192.435438 102.724992 
L 199.911913 99.647262 
L 207.388388 96.516244 
L 214.864863 93.500754 
L 222.341338 90.599401 
L 229.817813 87.596421 
L 237.294288 84.79176 
L 244.770763 81.987067 
L 252.247237 79.256812 
L 259.723712 76.520157 
L 267.200187 73.834852 
L 274.676662 71.396085 
L 282.153137 68.898384 
L 289.629612 66.448108 
L 297.106087 64.006813 
L 304.582562 61.626395 
L 312.059037 59.259982 
L 319.535512 56.991544 
L 327.011987 54.669617 
L 334.488462 52.431385 
L 341.964937 50.233561 
L 349.441412 48.011672 
L 356.917887 45.940694 
L 364.394362 43.837644 
L 371.870837 41.718882 
L 379.347312 39.689036 
L 386.823787 37.625937 
L 394.300262 35.617506 
L 401.776737 33.581407 
L 409.253212 31.588559 
L 416.729686 29.605702 
L 424.206161 27.728702 
L 431.682636 25.901372 
" clip-path="url(#p353f581505)" style="fill: none; stroke: #1f77b4; stroke-width: 1.5; stroke-linecap: square"/>
   </g>
   <g id="line2d_16">
    <path d="M 65.335364 244.079492 
L 72.811839 236.436367 
L 80.288314 230.052002 
L 87.764788 224.715054 
L 95.241263 220.199523 
L 102.717738 216.338008 
L 110.194213 213.123533 
L 117.670688 210.254697 
L 125.147163 207.627033 
L 132.623638 205.097581 
L 140.100113 202.838991 
L 147.576588 200.610826 
L 155.053063 198.400423 
L 162.529538 196.351842 
L 170.006013 194.359227 
L 177.482488 192.336788 
L 184.958963 190.461869 
L 192.435438 188.642176 
L 199.911913 187.008451 
L 207.388388 185.239432 
L 214.864863 183.664867 
L 222.341338 181.945004 
L 229.817813 180.475362 
L 237.294288 178.812093 
L 244.770763 177.407206 
L 252.247237 175.912909 
L 259.723712 174.549614 
L 267.200187 173.034794 
L 274.676662 171.720379 
L 282.153137 170.35442 
L 289.629612 169.009566 
L 297.106087 167.680759 
L 304.582562 166.470997 
L 312.059037 165.096365 
L 319.535512 163.857506 
L 327.011987 162.637441 
L 334.488462 161.30875 
L 341.964937 160.223468 
L 349.441412 159.042606 
L 356.917887 157.86078 
L 364.394362 156.669799 
L 371.870837 155.593011 
L 379.347312 154.427542 
L 386.823787 153.355804 
L 394.300262 152.317971 
L 401.776737 151.181031 
L 409.253212 150.139801 
L 416.729686 148.990901 
L 424.206161 147.945596 
L 431.682636 146.965864 
" clip-path="url(#p353f581505)" style="fill: none; stroke: #ff7f0e; stroke-width: 1.5; stroke-linecap: square"/>
   </g>
   <g id="line2d_17">
    <path d="M 65.335364 265.407945 
L 72.811839 262.489167 
L 80.288314 260.030859 
L 87.764788 258.062762 
L 95.241263 256.483644 
L 102.717738 255.050944 
L 110.194213 253.894962 
L 117.670688 252.830826 
L 125.147163 251.724815 
L 132.623638 250.805448 
L 140.100113 249.919268 
L 147.576588 249.03777 
L 155.053063 248.197743 
L 162.529538 247.474896 
L 170.006013 246.71701 
L 177.482488 245.96599 
L 184.958963 245.195335 
L 192.435438 244.543398 
L 199.911913 243.833823 
L 207.388388 243.254943 
L 214.864863 242.646002 
L 222.341338 241.996832 
L 229.817813 241.372783 
L 237.294288 240.851371 
L 244.770763 240.146221 
L 252.247237 239.591346 
L 259.723712 239.151482 
L 267.200187 238.587024 
L 274.676662 238.050009 
L 282.153137 237.469082 
L 289.629612 237.000622 
L 297.106087 236.453946 
L 304.582562 235.912241 
L 312.059037 235.476805 
L 319.535512 235.002612 
L 327.011987 234.559734 
L 334.488462 234.096422 
L 341.964937 233.604395 
L 349.441412 233.178297 
L 356.917887 232.746935 
L 364.394362 232.262733 
L 371.870837 231.813427 
L 379.347312 231.434765 
L 386.823787 230.952889 
L 394.300262 230.550795 
L 401.776737 230.111266 
L 409.253212 229.735727 
L 416.729686 229.2765 
L 424.206161 228.864488 
L 431.682636 228.510779 
" clip-path="url(#p353f581505)" style="fill: none; stroke: #2ca02c; stroke-width: 1.5; stroke-linecap: square"/>
   </g>
   <g id="line2d_18">
    <path d="M 65.335364 273.28372 
L 72.811839 272.039485 
L 80.288314 271.413514 
L 87.764788 270.621496 
L 95.241263 270.445417 
L 102.717738 269.868497 
L 110.194213 270.03165 
L 117.670688 270.091677 
L 125.147163 269.560598 
L 132.623638 269.898848 
L 140.100113 269.932595 
L 147.576588 269.377521 
L 155.053063 269.449849 
L 162.529538 269.621961 
L 170.006013 270.037204 
L 177.482488 269.521734 
L 184.958963 269.841668 
L 192.435438 269.921675 
L 199.911913 269.4991 
L 207.388388 269.195825 
L 214.864863 269.471756 
L 222.341338 269.30143 
L 229.817813 269.378901 
L 237.294288 269.426147 
L 244.770763 269.285198 
L 252.247237 269.220313 
L 259.723712 269.050488 
L 267.200187 269.016388 
L 274.676662 268.821753 
L 282.153137 268.890818 
L 289.629612 268.733201 
L 297.106087 268.49581 
L 304.582562 268.315807 
L 312.059037 268.54781 
L 319.535512 267.989775 
L 327.011987 268.117887 
L 334.488462 267.777861 
L 341.964937 267.99258 
L 349.441412 267.816556 
L 356.917887 267.982391 
L 364.394362 268.174939 
L 371.870837 267.410767 
L 379.347312 267.607429 
L 386.823787 267.442063 
L 394.300262 267.020435 
L 401.776737 267.205264 
L 409.253212 267.576983 
L 416.729686 267.597429 
L 424.206161 267.220903 
L 431.682636 267.513494 
" clip-path="url(#p353f581505)" style="fill: none; stroke: #d62728; stroke-width: 1.5; stroke-linecap: square"/>
   </g>
   <g id="patch_3">
    <path d="M 47.018 302.2 
L 47.018 10.8 
" style="fill: none; stroke: #000000; stroke-width: 0.8; stroke-linejoin: miter; stroke-linecap: square"/>
   </g>
   <g id="patch_4">
    <path d="M 450 302.2 
L 450 10.8 
" style="fill: none; stroke: #000000; stroke-width: 0.8; stroke-linejoin: miter; stroke-linecap: square"/>
   </g>
   <g id="patch_5">
    <path d="M 47.018 302.2 
L 450 302.2 
" style="fill: none; stroke: #000000; stroke-width: 0.8; stroke-linejoin: miter; stroke-linecap: square"/>
   </g>
   <g id="patch_6">
    <path d="M 47.018 10.8 
L 450 10.8 
" style="fill: none; stroke: #000000; stroke-width: 0.8; stroke-linejoin: miter; stroke-linecap: square"/>
   </g>
   <g id="legend_1">
    <g id="patch_7">
     <path d="M 54.018 77.5125 
L 132.888313 77.5125 
Q 134.888313 77.5125 134.888313 75.5125 
L 134.888313 17.8 
Q 134.888313 15.8 132.888313 15.8 
L 54.018 15.8 
Q 52.018 15.8 52.018 17.8 
L 52.018 75.5125 
Q 52.018 77.5125 54.018 77.5125 
z
" style="fill: #ffffff; opacity: 0.8; stroke: #cccccc; stroke-linejoin: miter"/>
    </g>
    <g id="line2d_19">
     <path d="M 56.018 23.898438 
L 66.018 23.898438 
L 76.018 23.898438 
" style="fill: none; stroke: #1f77b4; stroke-width: 1.5; stroke-linecap: square"/>
    </g>
    <g id="text_17">
     <!-- Ts=100 K -->
     <g transform="translate(84.018 27.398438) scale(0.1 -0.1)">
      <defs>
       <path id="DejaVuSans-54" d="M -19 4666 
L 3928 4666 
L 3928 4134 
L 2272 4134 
L 2272 0 
L 1638 0 
L 1638 4134 
L -19 4134 
L -19 4666 
z
" transform="scale(0.015625)"/>
       <path id="DejaVuSans-73" d="M 2834 3397 
L 2834 2853 
Q 2591 2978 2328 3040 
Q 2066 3103 1784 3103 
Q 1356 3103 1142 2972 
Q 928 2841 928 2578 
Q 928 2378 1081 2264 
Q 1234 2150 1697 2047 
L 1894 2003 
Q 2506 1872 2764 1633 
Q 3022 1394 3022 966 
Q 3022 478 2636 193 
Q 2250 -91 1575 -91 
Q 1294 -91 989 -36 
Q 684 19 347 128 
L 347 722 
Q 666 556 975 473 
Q 1284 391 1588 391 
Q 1994 391 2212 530 
Q 2431 669 2431 922 
Q 2431 1156 2273 1281 
Q 2116 1406 1581 1522 
L 1381 1569 
Q 847 1681 609 1914 
Q 372 2147 372 2553 
Q 372 3047 722 3315 
Q 1072 3584 1716 3584 
Q 2034 3584 2315 3537 
Q 2597 3491 2834 3397 
z
" transform="scale(0.015625)"/>
       <path id="DejaVuSans-3d" d="M 678 2906 
L 4684 2906 
L 4684 2381 
L 678 2381 
L 678 2906 
z
M 678 1631 
L 4684 1631 
L 4684 1100 
L 678 1100 
L 678 1631 
z
" transform="scale(0.015625)"/>
       <path id="DejaVuSans-4b" d="M 628 4666 
L 1259 4666 
L 1259 2694 
L 3353 4666 
L 4166 4666 
L 1850 2491 
L 4331 0 
L 3500 0 
L 1259 2247 
L 1259 0 
L 628 0 
L 628 4666 
z
" transform="scale(0.015625)"/>
      </defs>
      <use xlink:href="#DejaVuSans-54"/>
      <use xlink:href="#DejaVuSans-73" transform="translate(44.583984 0)"/>
      <use xlink:href="#DejaVuSans-3d" transform="translate(96.683594 0)"/>
      <use xlink:href="#DejaVuSans-31" transform="translate(180.472656 0)"/>
      <use xlink:href="#DejaVuSans-30" transform="translate(244.095703 0)"/>
      <use xlink:href="#DejaVuSans-30" transform="translate(307.71875 0)"/>
      <use xlink:href="#DejaVuSans-20" transform="translate(371.341797 0)"/>
      <use xlink:href="#DejaVuSans-4b" transform="translate(403.128906 0)"/>
     </g>
    </g>
    <g id="line2d_20">
     <path d="M 56.018 38.576563 
L 66.018 38.576563 
L 76.018 38.576563 
" style="fill: none; stroke: #ff7f0e; stroke-width: 1.5; stroke-linecap: square"/>
    </g>
    <g id="text_18">
     <!-- Ts=160 K -->
     <g transform="translate(84.018 42.076563) scale(0.1 -0.1)">
      <defs>
       <path id="DejaVuSans-36" d="M 2113 2584 
Q 1688 2584 1439 2293 
Q 1191 2003 1191 1497 
Q 1191 994 1439 701 
Q 1688 409 2113 409 
Q 2538 409 2786 701 
Q 3034 994 3034 1497 
Q 3034 2003 2786 2293 
Q 2538 2584 2113 2584 
z
M 3366 4563 
L 3366 3988 
Q 3128 4100 2886 4159 
Q 2644 4219 2406 4219 
Q 1781 4219 1451 3797 
Q 1122 3375 1075 2522 
Q 1259 2794 1537 2939 
Q 1816 3084 2150 3084 
Q 2853 3084 3261 2657 
Q 3669 2231 3669 1497 
Q 3669 778 3244 343 
Q 2819 -91 2113 -91 
Q 1303 -91 875 529 
Q 447 1150 447 2328 
Q 447 3434 972 4092 
Q 1497 4750 2381 4750 
Q 2619 4750 2861 4703 
Q 3103 4656 3366 4563 
z
" transform="scale(0.015625)"/>
      </defs>
      <use xlink:href="#DejaVuSans-54"/>
      <use xlink:href="#DejaVuSans-73" transform="translate(44.583984 0)"/>
      <use xlink:href="#DejaVuSans-3d" transform="translate(96.683594 0)"/>
      <use xlink:href="#DejaVuSans-31" transform="translate(180.472656 0)"/>
      <use xlink:href="#DejaVuSans-36" transform="translate(244.095703 0)"/>
      <use xlink:href="#DejaVuSans-30" transform="translate(307.71875 0)"/>
      <use xlink:href="#DejaVuSans-20" transform="translate(371.341797 0)"/>
      <use xlink:href="#DejaVuSans-4b" transform="translate(403.128906 0)"/>
     </g>
    </g>
    <g id="line2d_21">
     <path d="M 56.018 53.254687 
L 66.018 53.254687 
L 76.018 53.254687 
" style="fill: none; stroke: #2ca02c; stroke-width: 1.5; stroke-linecap: square"/>
    </g>
    <g id="text_19">
     <!-- Ts=220 K -->
     <g transform="translate(84.018 56.754687) scale(0.1 -0.1)">
      <use xlink:href="#DejaVuSans-54"/>
      <use xlink:href="#DejaVuSans-73" transform="translate(44.583984 0)"/>
      <use xlink:href="#DejaVuSans-3d" transform="translate(96.683594 0)"/>
      <use xlink:href="#DejaVuSans-32" transform="translate(180.472656 0)"/>
      <use xlink:href="#DejaVuSans-32" transform="translate(244.095703 0)"/>
      <use xlink:href="#DejaVuSans-30" transform="translate(307.71875 0)"/>
      <use xlink:href="#DejaVuSans-20" transform="translate(371.341797 0)"/>
      <use xlink:href="#DejaVuSans-4b" transform="translate(403.128906 0)"/>
     </g>
    </g>
    <g id="line2d_22">
     <path d="M 56.018 67.932813 
L 66.018 67.932813 
L 76.018 67.932813 
" style="fill: none; stroke: #d62728; stroke-width: 1.5; stroke-linecap: square"/>
    </g>
    <g id="text_20">
     <!-- Ts=260 K -->
     <g transform="translate(84.018 71.432813) scale(0.1 -0.1)">
      <use xlink:href="#DejaVuSans-54"/>
      <use xlink:href="#DejaVuSans-73" transform="translate(44.583984 0)"/>
      <use xlink:href="#DejaVuSans-3d" transform="translate(96.683594 0)"/>
      <use xlink:href="#DejaVuSans-32" transform="translate(180.472656 0)"/>
      <use xlink:href="#DejaVuSans-36" transform="translate(244.095703 0)"/>
      <use xlink:href="#DejaVuSans-30" transform="translate(307.71875 0)"/>
      <use xlink:href="#DejaVuSans-20" transform="translate(371.341797 0)"/>
      <use xlink:href="#DejaVuSans-4b" transform="translate(403.128906 0)"/>
     </g>
    </g>
   </g>
  </g>
 </g>
 <defs>
  <clipPath id="p353f581505">
   <rect x="47.018" y="10.8" width="402.982" height="291.4"/>
  </clipPath>
 </defs>
</svg>
