<?xml version="1.0" encoding="utf-8" standalone="no"?>
<!DOCTYPE svg PUBLIC "-//W3C//DTD SVG 1.1//EN"
  "http://www.w3.org/Graphics/SVG/1.1/DTD/svg11.dtd">
<svg xmlns:xlink="http://www.w3.org/1999/xlink" width="460.8pt" height="345.6pt" viewBox="0 0 460.8 345.6" xmlns="http://www.w3.org/2000/svg" version="1.1">
 <metadata>
  <rdf:RDF xmlns:dc="http://purl.org/dc/elements/1.1/" xmlns:cc="http://creativecommons.org/ns#" xmlns:rdf="http://www.w3.org/1999/02/22-rdf-syntax-ns#">
   <cc:Work>
    <dc:type rdf:resource="http://purl.org/dc/dcmitype/StillImage"/>
    <dc:date>2026-02-11T13:32:39.677458</dc:date>
    <dc:format>image/svg+xml</dc:format>
    <dc:creator>
     <cc:Agent>
      <dc:title>Matplotlib v3.10.8, https://matplotlib.org/</dc:title>
     </cc:Agent>
    </dc:creator>
   </cc:Work>
  </rdf:RDF>
 </metadata>
 <defs>
  <style type="text/css">*{stroke-linejoin: round; stroke-linecap: butt}</style>
 </defs>
 <g id="figure_1">
  <g id="patch_1">
   <path d="M 0 345.6 
L 460.8 345.6 
L 460.8 0 
L 0 0 
L 0 345.6 
z
" style="fill: none"/>
  </g>
  <g id="axes_1">
   <g id="patch_2">
    <path d="M 56.468 302.2 
L 450 302.2 
L 450 10.8 
L 56.468 10.8 
L 56.468 302.2 
z
" style="fill: none"/>
   </g>
   <g id="FillBetweenPolyCollection_1">
    <path d="M 74.355818 249.177308 
L 74.355818 249.72676 
L 81.656968 232.358212 
L 88.958119 218.129687 
L 96.259269 206.389884 
L 103.560419 196.561126 
L 110.86157 188.161197 
L 118.16272 180.796806 
L 125.46387 174.169438 
L 132.76502 168.062602 
L 140.066171 162.328918 
L 147.367321 156.875354 
L 154.668471 151.648304 
L 161.969622 146.619928 
L 169.270772 141.776776 
L 176.571922 137.111248 
L 183.873072 132.616035 
L 191.174223 128.281286 
L 198.475373 124.093994 
L 205.776523 120.038888 
L 213.077673 116.100128 
L 220.378824 112.263125 
L 227.679974 108.51597 
L 234.981124 104.850181 
L 242.282275 101.260656 
L 249.583425 97.744948 
L 256.884575 94.302091 
L 264.185725 90.931307 
L 271.486876 87.630894 
L 278.788026 84.397559 
L 286.089176 81.226342 
L 293.390327 78.111089 
L 300.691477 75.045383 
L 307.992627 72.023649 
L 315.293777 69.04217 
L 322.594928 66.099699 
L 329.896078 63.197467 
L 337.197228 60.33802 
L 344.498378 57.525235 
L 351.799529 54.761477 
L 359.100679 52.045997 
L 366.401829 49.373751 
L 373.70298 46.735029 
L 381.00413 44.116476 
L 388.30528 41.503784 
L 395.60643 38.886194 
L 402.907581 36.262637 
L 410.208731 33.649127 
L 417.509881 31.08676 
L 424.811032 28.649468 
L 432.112182 26.450576 
L 432.112182 24.694568 
L 432.112182 24.694568 
L 424.811032 26.904806 
L 417.509881 29.354273 
L 410.208731 31.929285 
L 402.907581 34.555689 
L 395.60643 37.192273 
L 388.30528 39.822981 
L 381.00413 42.448891 
L 373.70298 45.080792 
L 366.401829 47.733029 
L 359.100679 50.418987 
L 351.799529 53.148395 
L 344.498378 55.926305 
L 337.197228 58.753462 
L 329.896078 61.627611 
L 322.594928 64.54525 
L 315.293777 67.503353 
L 307.992627 70.500694 
L 300.691477 73.538535 
L 293.390327 76.62062 
L 286.089176 79.752551 
L 278.788026 82.940771 
L 271.486876 86.191457 
L 264.185725 89.509586 
L 256.884575 92.898452 
L 249.583425 96.360164 
L 242.282275 99.895393 
L 234.981124 103.504849 
L 227.679974 107.190999 
L 220.378824 110.958989 
L 213.077673 114.817366 
L 205.776523 118.778122 
L 198.475373 122.855939 
L 191.174223 127.066752 
L 183.873072 131.425916 
L 176.571922 135.946498 
L 169.270772 140.638391 
L 161.969622 145.508924 
L 154.668471 150.565728 
L 147.367321 155.822329 
L 140.066171 161.306745 
L 132.76502 167.072948 
L 125.46387 173.2146 
L 118.16272 179.880075 
L 110.86157 187.287311 
L 103.560419 195.735442 
L 96.259269 205.615046 
L 88.958119 217.415886 
L 81.656968 231.717033 
L 74.355818 249.177308 
z
" clip-path="url(#p12f9ec798a)" style="fill: #1f77b4; fill-opacity: 0.45"/>
   </g>
   <g id="PathCollection_1">
    <defs>
     <path id="ma01919f94c" d="M 0 2.12132 
C 0.562581 2.12132 1.102195 1.897805 1.5 1.5 
C 1.897805 1.102195 2.12132 0.562581 2.12132 0 
C 2.12132 -0.562581 1.897805 -1.102195 1.5 -1.5 
C 1.102195 -1.897805 0.562581 -2.12132 0 -2.12132 
C -0.562581 -2.12132 -1.102195 -1.897805 -1.5 -1.5 
C -1.897805 -1.102195 -2.12132 -0.562581 -2.12132 0 
C -2.12132 0.562581 -1.897805 1.102195 -1.5 1.5 
C -1.102195 1.897805 -0.562581 2.12132 0 2.12132 
z
" style="stroke: #000000; stroke-opacity: 0.7"/>
    </defs>
    <g clip-path="url(#p12f9ec798a)">
     <use xlink:href="#ma01919f94c" x="74.355818" y="249.175623" style="fill-opacity: 0.7; stroke: #000000; stroke-opacity: 0.7"/>
     <use xlink:href="#ma01919f94c" x="106.879124" y="192.809946" style="fill-opacity: 0.7; stroke: #000000; stroke-opacity: 0.7"/>
     <use xlink:href="#ma01919f94c" x="143.01613" y="160.039322" style="fill-opacity: 0.7; stroke: #000000; stroke-opacity: 0.7"/>
     <use xlink:href="#ma01919f94c" x="179.153137" y="138.112673" style="fill-opacity: 0.7; stroke: #000000; stroke-opacity: 0.7"/>
     <use xlink:href="#ma01919f94c" x="215.290143" y="111.713625" style="fill-opacity: 0.7; stroke: #000000; stroke-opacity: 0.7"/>
     <use xlink:href="#ma01919f94c" x="251.42715" y="94.480931" style="fill-opacity: 0.7; stroke: #000000; stroke-opacity: 0.7"/>
     <use xlink:href="#ma01919f94c" x="287.564156" y="80.136641" style="fill-opacity: 0.7; stroke: #000000; stroke-opacity: 0.7"/>
     <use xlink:href="#ma01919f94c" x="323.701163" y="63.659049" style="fill-opacity: 0.7; stroke: #000000; stroke-opacity: 0.7"/>
     <use xlink:href="#ma01919f94c" x="359.838169" y="50.397536" style="fill-opacity: 0.7; stroke: #000000; stroke-opacity: 0.7"/>
     <use xlink:href="#ma01919f94c" x="395.975175" y="38.463343" style="fill-opacity: 0.7; stroke: #000000; stroke-opacity: 0.7"/>
     <use xlink:href="#ma01919f94c" x="432.112182" y="24.045455" style="fill-opacity: 0.7; stroke: #000000; stroke-opacity: 0.7"/>
    </g>
   </g>
   <g id="FillBetweenPolyCollection_2">
    <path d="M 74.355818 252.988293 
L 74.355818 253.336328 
L 81.656968 237.25961 
L 88.958119 224.094901 
L 96.259269 213.234819 
L 103.560419 204.144086 
L 110.86157 196.371701 
L 118.16272 189.560779 
L 125.46387 183.433626 
L 132.76502 177.789139 
L 140.066171 172.490653 
L 147.367321 167.451823 
L 154.668471 162.622824 
L 161.969622 157.97771 
L 169.270772 153.504182 
L 176.571922 149.195747 
L 183.873072 145.044605 
L 191.174223 141.041626 
L 198.475373 137.174788 
L 205.776523 133.430008 
L 213.077673 129.792693 
L 220.378824 126.249412 
L 227.679974 122.789211 
L 234.981124 119.404297 
L 242.282275 116.08972 
L 249.583425 112.843106 
L 256.884575 109.663943 
L 264.185725 106.55147 
L 271.486876 103.504061 
L 278.788026 100.518623 
L 286.089176 97.590517 
L 293.390327 94.714028 
L 300.691477 91.883213 
L 307.992627 89.092928 
L 315.293777 86.339781 
L 322.594928 83.622694 
L 329.896078 80.942865 
L 337.197228 78.303141 
L 344.498378 75.706775 
L 351.799529 73.155828 
L 359.100679 70.649552 
L 366.401829 68.183196 
L 373.70298 65.747676 
L 381.00413 63.330527 
L 388.30528 60.918028 
L 395.60643 58.500692 
L 402.907581 56.077668 
L 410.208731 53.664053 
L 417.509881 51.298312 
L 424.811032 49.049455 
L 432.112182 47.02309 
L 432.112182 45.932393 
L 432.112182 45.932393 
L 424.811032 47.965569 
L 417.509881 50.221703 
L 410.208731 52.594925 
L 402.907581 55.016075 
L 395.60643 57.446621 
L 388.30528 59.871455 
L 381.00413 62.291457 
L 373.70298 64.716597 
L 366.401829 67.160204 
L 359.100679 69.634761 
L 351.799529 72.149371 
L 344.498378 74.708796 
L 337.197228 77.313777 
L 329.896078 79.962245 
L 322.594928 82.650936 
L 315.293777 85.377506 
L 307.992627 88.140802 
L 300.691477 90.941396 
L 293.390327 93.782696 
L 286.089176 96.669882 
L 278.788026 99.608903 
L 271.486876 102.605483 
L 264.185725 105.664273 
L 256.884575 108.788376 
L 249.583425 111.979421 
L 242.282275 115.238165 
L 234.981124 118.565523 
L 227.679974 121.963761 
L 220.378824 125.43759 
L 213.077673 128.994842 
L 205.776523 132.646523 
L 198.475373 136.406119 
L 191.174223 140.288357 
L 183.873072 144.307589 
L 176.571922 148.475128 
L 169.270772 152.800415 
L 161.969622 157.29078 
L 154.668471 161.952808 
L 147.367321 166.798925 
L 140.066171 171.854746 
L 132.76502 177.169636 
L 125.46387 182.831657 
L 118.16272 188.979528 
L 110.86157 195.813391 
L 103.560419 203.611596 
L 96.259269 212.736271 
L 88.958119 223.637794 
L 81.656968 236.851791 
L 74.355818 252.988293 
z
" clip-path="url(#p12f9ec798a)" style="fill: #ff7f0e; fill-opacity: 0.45"/>
   </g>
   <g id="PathCollection_2">
    <g clip-path="url(#p12f9ec798a)">
     <use xlink:href="#ma01919f94c" x="74.355818" y="254.042262" style="fill-opacity: 0.7; stroke: #000000; stroke-opacity: 0.7"/>
     <use xlink:href="#ma01919f94c" x="106.879124" y="201.509351" style="fill-opacity: 0.7; stroke: #000000; stroke-opacity: 0.7"/>
     <use xlink:href="#ma01919f94c" x="143.01613" y="172.271433" style="fill-opacity: 0.7; stroke: #000000; stroke-opacity: 0.7"/>
     <use xlink:href="#ma01919f94c" x="179.153137" y="148.003023" style="fill-opacity: 0.7; stroke: #000000; stroke-opacity: 0.7"/>
     <use xlink:href="#ma01919f94c" x="215.290143" y="129.854689" style="fill-opacity: 0.7; stroke: #000000; stroke-opacity: 0.7"/>
     <use xlink:href="#ma01919f94c" x="251.42715" y="112.404885" style="fill-opacity: 0.7; stroke: #000000; stroke-opacity: 0.7"/>
     <use xlink:href="#ma01919f94c" x="287.564156" y="99.02381" style="fill-opacity: 0.7; stroke: #000000; stroke-opacity: 0.7"/>
     <use xlink:href="#ma01919f94c" x="323.701163" y="84.31969" style="fill-opacity: 0.7; stroke: #000000; stroke-opacity: 0.7"/>
     <use xlink:href="#ma01919f94c" x="359.838169" y="72.960284" style="fill-opacity: 0.7; stroke: #000000; stroke-opacity: 0.7"/>
     <use xlink:href="#ma01919f94c" x="395.975175" y="58.663353" style="fill-opacity: 0.7; stroke: #000000; stroke-opacity: 0.7"/>
     <use xlink:href="#ma01919f94c" x="432.112182" y="48.258901" style="fill-opacity: 0.7; stroke: #000000; stroke-opacity: 0.7"/>
    </g>
   </g>
   <g id="FillBetweenPolyCollection_3">
    <path d="M 74.355818 257.303279 
L 74.355818 257.566914 
L 81.656968 242.921344 
L 88.958119 230.921655 
L 96.259269 221.019083 
L 103.560419 212.732035 
L 110.86157 205.652661 
L 118.16272 199.448433 
L 125.46387 193.871039 
L 132.76502 188.734693 
L 140.066171 183.913981 
L 147.367321 179.329947 
L 154.668471 174.93699 
L 161.969622 170.711345 
L 169.270772 166.641477 
L 176.571922 162.720877 
L 183.873072 158.943357 
L 191.174223 155.300646 
L 198.475373 151.781856 
L 205.776523 148.374216 
L 213.077673 145.064486 
L 220.378824 141.840466 
L 227.679974 138.692201 
L 234.981124 135.612588 
L 242.282275 132.597342 
L 249.583425 129.644384 
L 256.884575 126.75285 
L 264.185725 123.922015 
L 271.486876 121.150371 
L 278.788026 118.435083 
L 286.089176 115.77192 
L 293.390327 113.155683 
L 300.691477 110.58098 
L 307.992627 108.043165 
L 315.293777 105.539175 
L 322.594928 103.068043 
L 329.896078 100.630878 
L 337.197228 98.230277 
L 344.498378 95.869193 
L 351.799529 93.549474 
L 359.100679 91.270401 
L 366.401829 89.027598 
L 373.70298 86.812743 
L 381.00413 84.614463 
L 388.30528 82.420645 
L 395.60643 80.222258 
L 402.907581 78.018568 
L 410.208731 75.823391 
L 417.509881 73.671838 
L 424.811032 71.626828 
L 432.112182 69.784576 
L 432.112182 68.850911 
L 432.112182 68.850911 
L 424.811032 70.699513 
L 417.509881 72.751626 
L 410.208731 74.910672 
L 402.907581 77.113493 
L 395.60643 79.324852 
L 388.30528 81.530885 
L 381.00413 83.732332 
L 373.70298 85.938255 
L 366.401829 88.160817 
L 359.100679 90.411432 
L 351.799529 92.698447 
L 344.498378 95.026254 
L 337.197228 97.395576 
L 329.896078 99.804552 
L 322.594928 102.250221 
L 315.293777 104.729979 
L 307.992627 107.242711 
L 300.691477 109.789394 
L 293.390327 112.3731 
L 286.089176 114.998495 
L 278.788026 117.670991 
L 271.486876 120.395805 
L 264.185725 123.177182 
L 256.884575 126.017963 
L 249.583425 128.919661 
L 242.282275 131.883001 
L 234.981124 134.908846 
L 227.679974 137.999288 
L 220.378824 141.158629 
L 213.077673 144.394 
L 205.776523 147.715402 
L 198.475373 151.135083 
L 191.174223 154.666339 
L 183.873072 158.321989 
L 176.571922 162.113007 
L 169.270772 166.048429 
L 161.969622 170.133339 
L 154.668471 174.374002 
L 147.367321 178.78258 
L 140.066171 183.382926 
L 132.76502 188.220819 
L 125.46387 193.375533 
L 118.16272 198.972465 
L 110.86157 205.195629 
L 103.560419 212.298568 
L 96.259269 220.611587 
L 88.958119 230.54691 
L 81.656968 242.592405 
L 74.355818 257.303279 
z
" clip-path="url(#p12f9ec798a)" style="fill: #2ca02c; fill-opacity: 0.45"/>
   </g>
   <g id="PathCollection_3">
    <g clip-path="url(#p12f9ec798a)">
     <use xlink:href="#ma01919f94c" x="74.355818" y="257.797316" style="fill-opacity: 0.7; stroke: #000000; stroke-opacity: 0.7"/>
     <use xlink:href="#ma01919f94c" x="106.879124" y="210.212626" style="fill-opacity: 0.7; stroke: #000000; stroke-opacity: 0.7"/>
     <use xlink:href="#ma01919f94c" x="143.01613" y="185.193529" style="fill-opacity: 0.7; stroke: #000000; stroke-opacity: 0.7"/>
     <use xlink:href="#ma01919f94c" x="179.153137" y="162.401218" style="fill-opacity: 0.7; stroke: #000000; stroke-opacity: 0.7"/>
     <use xlink:href="#ma01919f94c" x="215.290143" y="143.636515" style="fill-opacity: 0.7; stroke: #000000; stroke-opacity: 0.7"/>
     <use xlink:href="#ma01919f94c" x="251.42715" y="133.695708" style="fill-opacity: 0.7; stroke: #000000; stroke-opacity: 0.7"/>
     <use xlink:href="#ma01919f94c" x="287.564156" y="120.349573" style="fill-opacity: 0.7; stroke: #000000; stroke-opacity: 0.7"/>
     <use xlink:href="#ma01919f94c" x="323.701163" y="107.68723" style="fill-opacity: 0.7; stroke: #000000; stroke-opacity: 0.7"/>
     <use xlink:href="#ma01919f94c" x="359.838169" y="93.027187" style="fill-opacity: 0.7; stroke: #000000; stroke-opacity: 0.7"/>
     <use xlink:href="#ma01919f94c" x="395.975175" y="83.222577" style="fill-opacity: 0.7; stroke: #000000; stroke-opacity: 0.7"/>
     <use xlink:href="#ma01919f94c" x="432.112182" y="71.761785" style="fill-opacity: 0.7; stroke: #000000; stroke-opacity: 0.7"/>
    </g>
   </g>
   <g id="FillBetweenPolyCollection_4">
    <path d="M 74.355818 263.686326 
L 74.355818 263.928687 
L 81.656968 251.312842 
L 88.958119 240.98703 
L 96.259269 232.471726 
L 103.560419 225.348492 
L 110.86157 219.264774 
L 118.16272 213.936388 
L 125.46387 209.145227 
L 132.76502 204.733755 
L 140.066171 200.594068 
L 147.367321 196.657895 
L 154.668471 192.885773 
L 161.969622 189.257145 
L 169.270772 185.762079 
L 176.571922 182.39504 
L 183.873072 179.150812 
L 191.174223 176.02241 
L 198.475373 173.000585 
L 205.776523 170.074445 
L 213.077673 167.232651 
L 220.378824 164.464726 
L 227.679974 161.76208 
L 234.981124 159.118552 
L 242.282275 156.53039 
L 249.583425 153.995732 
L 256.884575 151.513785 
L 264.185725 149.083884 
L 271.486876 146.704722 
L 278.788026 144.373872 
L 286.089176 142.087732 
L 293.390327 139.841876 
L 300.691477 137.631716 
L 307.992627 135.453298 
L 315.293777 133.304016 
L 322.594928 131.18304 
L 329.896078 129.091313 
L 337.197228 127.031035 
L 344.498378 125.004701 
L 351.799529 123.013864 
L 359.100679 121.057878 
L 366.401829 119.132978 
L 373.70298 117.232034 
L 381.00413 115.345319 
L 388.30528 113.462481 
L 395.60643 111.575814 
L 402.907581 109.6847 
L 410.208731 107.800947 
L 417.509881 105.954522 
L 424.811032 104.199104 
L 432.112182 102.616729 
L 432.112182 101.68679 
L 432.112182 101.68679 
L 424.811032 103.275651 
L 417.509881 105.038262 
L 410.208731 106.892254 
L 402.907581 108.783734 
L 395.60643 110.682614 
L 388.30528 112.577038 
L 381.00413 114.467623 
L 373.70298 116.362107 
L 366.401829 118.270878 
L 359.100679 120.203703 
L 351.799529 122.167736 
L 344.498378 124.16676 
L 337.197228 126.201425 
L 329.896078 128.270176 
L 322.594928 130.37051 
L 315.293777 132.500218 
L 307.992627 134.658362 
L 300.691477 136.845772 
L 293.390327 139.065064 
L 286.089176 141.320209 
L 278.788026 143.615808 
L 271.486876 145.956306 
L 264.185725 148.345312 
L 256.884575 150.785267 
L 249.583425 153.277483 
L 242.282275 155.822624 
L 234.981124 158.421498 
L 227.679974 161.075979 
L 220.378824 163.78984 
L 213.077673 166.569275 
L 205.776523 169.422914 
L 198.475373 172.361282 
L 191.174223 175.395759 
L 183.873072 178.53728 
L 176.571922 181.795124 
L 169.270772 185.176299 
L 161.969622 188.686032 
L 154.668471 192.329883 
L 147.367321 196.117843 
L 140.066171 200.070568 
L 132.76502 204.22772 
L 125.46387 208.657918 
L 118.16272 213.469599 
L 110.86157 218.821732 
L 103.560419 224.933162 
L 96.259269 232.089197 
L 88.958119 240.644123 
L 81.656968 251.017702 
L 74.355818 263.686326 
z
" clip-path="url(#p12f9ec798a)" style="fill: #d62728; fill-opacity: 0.45"/>
   </g>
   <g id="PathCollection_4">
    <g clip-path="url(#p12f9ec798a)">
     <use xlink:href="#ma01919f94c" x="74.355818" y="262.33218" style="fill-opacity: 0.7; stroke: #000000; stroke-opacity: 0.7"/>
     <use xlink:href="#ma01919f94c" x="106.879124" y="220.935587" style="fill-opacity: 0.7; stroke: #000000; stroke-opacity: 0.7"/>
     <use xlink:href="#ma01919f94c" x="143.01613" y="196.975632" style="fill-opacity: 0.7; stroke: #000000; stroke-opacity: 0.7"/>
     <use xlink:href="#ma01919f94c" x="179.153137" y="179.564026" style="fill-opacity: 0.7; stroke: #000000; stroke-opacity: 0.7"/>
     <use xlink:href="#ma01919f94c" x="215.290143" y="163.076328" style="fill-opacity: 0.7; stroke: #000000; stroke-opacity: 0.7"/>
     <use xlink:href="#ma01919f94c" x="251.42715" y="152.556639" style="fill-opacity: 0.7; stroke: #000000; stroke-opacity: 0.7"/>
     <use xlink:href="#ma01919f94c" x="287.564156" y="139.67919" style="fill-opacity: 0.7; stroke: #000000; stroke-opacity: 0.7"/>
     <use xlink:href="#ma01919f94c" x="323.701163" y="127.843968" style="fill-opacity: 0.7; stroke: #000000; stroke-opacity: 0.7"/>
     <use xlink:href="#ma01919f94c" x="359.838169" y="115.573728" style="fill-opacity: 0.7; stroke: #000000; stroke-opacity: 0.7"/>
     <use xlink:href="#ma01919f94c" x="395.975175" y="109.519861" style="fill-opacity: 0.7; stroke: #000000; stroke-opacity: 0.7"/>
     <use xlink:href="#ma01919f94c" x="432.112182" y="100.944027" style="fill-opacity: 0.7; stroke: #000000; stroke-opacity: 0.7"/>
    </g>
   </g>
   <g id="FillBetweenPolyCollection_5">
    <path d="M 74.355818 268.921575 
L 74.355818 269.180816 
L 81.656968 258.191175 
L 88.958119 249.193014 
L 96.259269 241.775755 
L 103.560419 235.572786 
L 110.86157 230.276535 
L 118.16272 225.639379 
L 125.46387 221.471294 
L 132.76502 217.634188 
L 140.066171 214.033828 
L 147.367321 210.610567 
L 154.668471 207.329925 
L 161.969622 204.173963 
L 169.270772 201.134047 
L 176.571922 198.205416 
L 183.873072 195.383609 
L 191.174223 192.662624 
L 198.475373 190.034478 
L 205.776523 187.489729 
L 213.077673 185.018525 
L 220.378824 182.611728 
L 227.679974 180.261831 
L 234.981124 177.963422 
L 242.282275 175.713185 
L 249.583425 173.509456 
L 256.884575 171.35151 
L 264.185725 169.238756 
L 271.486876 167.170063 
L 278.788026 165.143339 
L 286.089176 163.155479 
L 293.390327 161.202669 
L 300.691477 159.28095 
L 307.992627 157.386904 
L 315.293777 155.51827 
L 322.594928 153.674322 
L 329.896078 151.855856 
L 337.197228 150.064755 
L 344.498378 148.303159 
L 351.799529 146.572394 
L 359.100679 144.871888 
L 366.401829 143.19838 
L 373.70298 141.545704 
L 381.00413 139.905454 
L 388.30528 138.268692 
L 395.60643 136.628765 
L 402.907581 134.985142 
L 410.208731 133.348022 
L 417.509881 131.743272 
L 424.811032 130.217178 
L 432.112182 128.840456 
L 432.112182 127.840013 
L 432.112182 127.840013 
L 424.811032 129.223939 
L 417.509881 130.757892 
L 410.208731 132.370864 
L 402.907581 134.016368 
L 395.60643 135.668438 
L 388.30528 137.316835 
L 381.00413 138.962086 
L 373.70298 140.61086 
L 366.401829 142.272126 
L 359.100679 143.954321 
L 351.799529 145.663631 
L 344.498378 147.403335 
L 337.197228 149.174014 
L 329.896078 150.974347 
L 322.594928 152.802195 
L 315.293777 154.655675 
L 307.992627 156.533994 
L 300.691477 158.437886 
L 293.390327 160.369617 
L 286.089176 162.332615 
L 278.788026 164.330848 
L 271.486876 166.36814 
L 264.185725 168.447601 
L 256.884575 170.57133 
L 249.583425 172.740467 
L 242.282275 174.955612 
L 234.981124 177.217512 
L 227.679974 179.527853 
L 220.378824 181.889949 
L 213.077673 184.30918 
L 205.776523 186.793196 
L 198.475373 189.351184 
L 191.174223 191.993037 
L 183.873072 194.728229 
L 176.571922 197.56477 
L 169.270772 200.508674 
L 161.969622 203.564411 
L 154.668471 206.736767 
L 147.367321 210.03443 
L 140.066171 213.475471 
L 132.76502 217.094602 
L 125.46387 220.951864 
L 118.16272 225.142078 
L 110.86157 229.804176 
L 103.560419 235.129293 
L 96.259269 241.366467 
L 88.958119 248.824754 
L 81.656968 257.870816 
L 74.355818 268.921575 
z
" clip-path="url(#p12f9ec798a)" style="fill: #9467bd; fill-opacity: 0.45"/>
   </g>
   <g id="PathCollection_5">
    <g clip-path="url(#p12f9ec798a)">
     <use xlink:href="#ma01919f94c" x="74.355818" y="269.577134" style="fill-opacity: 0.7; stroke: #000000; stroke-opacity: 0.7"/>
     <use xlink:href="#ma01919f94c" x="106.879124" y="231.090535" style="fill-opacity: 0.7; stroke: #000000; stroke-opacity: 0.7"/>
     <use xlink:href="#ma01919f94c" x="143.01613" y="212.098515" style="fill-opacity: 0.7; stroke: #000000; stroke-opacity: 0.7"/>
     <use xlink:href="#ma01919f94c" x="179.153137" y="194.411985" style="fill-opacity: 0.7; stroke: #000000; stroke-opacity: 0.7"/>
     <use xlink:href="#ma01919f94c" x="215.290143" y="185.712719" style="fill-opacity: 0.7; stroke: #000000; stroke-opacity: 0.7"/>
     <use xlink:href="#ma01919f94c" x="251.42715" y="170.224908" style="fill-opacity: 0.7; stroke: #000000; stroke-opacity: 0.7"/>
     <use xlink:href="#ma01919f94c" x="287.564156" y="160.057537" style="fill-opacity: 0.7; stroke: #000000; stroke-opacity: 0.7"/>
     <use xlink:href="#ma01919f94c" x="323.701163" y="153.936296" style="fill-opacity: 0.7; stroke: #000000; stroke-opacity: 0.7"/>
     <use xlink:href="#ma01919f94c" x="359.838169" y="143.033248" style="fill-opacity: 0.7; stroke: #000000; stroke-opacity: 0.7"/>
     <use xlink:href="#ma01919f94c" x="395.975175" y="133.366303" style="fill-opacity: 0.7; stroke: #000000; stroke-opacity: 0.7"/>
     <use xlink:href="#ma01919f94c" x="432.112182" y="127.120211" style="fill-opacity: 0.7; stroke: #000000; stroke-opacity: 0.7"/>
    </g>
   </g>
   <g id="FillBetweenPolyCollection_6">
    <path d="M 74.355818 274.50972 
L 74.355818 274.773332 
L 81.656968 265.478186 
L 88.958119 257.869384 
L 96.259269 251.59678 
L 103.560419 246.351967 
L 110.86157 241.87487 
L 118.16272 237.955861 
L 125.46387 234.43401 
L 132.76502 231.192319 
L 140.066171 228.150921 
L 147.367321 225.259246 
L 154.668471 222.488062 
L 161.969622 219.822167 
L 169.270772 217.254194 
L 176.571922 214.780197 
L 183.873072 212.396463 
L 191.174223 210.097962 
L 198.475373 207.877979 
L 205.776523 205.728556 
L 213.077673 203.641366 
L 220.378824 201.608678 
L 227.679974 199.624122 
L 234.981124 197.683096 
L 242.282275 195.782769 
L 249.583425 193.921709 
L 256.884575 192.099285 
L 264.185725 190.314992 
L 271.486876 188.567878 
L 278.788026 186.856188 
L 286.089176 185.177323 
L 293.390327 183.52808 
L 300.691477 181.905137 
L 307.992627 180.30562 
L 315.293777 178.727629 
L 322.594928 177.170543 
L 329.896078 175.635021 
L 337.197228 174.122633 
L 344.498378 172.635157 
L 351.799529 171.173691 
L 359.100679 169.737736 
L 366.401829 168.324534 
L 373.70298 166.928893 
L 381.00413 165.54375 
L 388.30528 164.161604 
L 395.60643 162.776883 
L 402.907581 161.389177 
L 410.208731 160.00708 
L 417.509881 158.652341 
L 424.811032 157.363841 
L 432.112182 156.200909 
L 432.112182 155.161978 
L 432.112182 155.161978 
L 424.811032 156.332427 
L 417.509881 157.629027 
L 410.208731 158.992199 
L 402.907581 160.382898 
L 395.60643 161.779283 
L 388.30528 163.172716 
L 381.00413 164.563605 
L 373.70298 165.957535 
L 366.401829 167.362006 
L 359.100679 168.784127 
L 351.799529 170.229122 
L 344.498378 171.699766 
L 337.197228 173.196567 
L 329.896078 174.718435 
L 322.594928 176.263593 
L 315.293777 177.830474 
L 307.992627 179.418427 
L 300.691477 181.028078 
L 293.390327 182.661338 
L 286.089176 184.32109 
L 278.788026 186.010665 
L 271.486876 187.733271 
L 264.185725 189.491513 
L 256.884575 191.287148 
L 249.583425 193.121132 
L 242.282275 194.993981 
L 234.981124 196.906339 
L 227.679974 198.859664 
L 220.378824 200.856824 
L 213.077673 202.902465 
L 205.776523 205.003007 
L 198.475373 207.166235 
L 191.174223 209.400519 
L 183.873072 211.713853 
L 176.571922 214.112972 
L 169.270772 216.602916 
L 161.969622 219.18742 
L 154.668471 221.870498 
L 147.367321 224.659505 
L 140.066171 227.569778 
L 132.76502 230.630802 
L 125.46387 233.893567 
L 118.16272 237.438571 
L 110.86157 241.383696 
L 103.560419 245.891044 
L 96.259269 251.171716 
L 88.958119 257.487556 
L 81.656968 265.149366 
L 74.355818 274.50972 
z
" clip-path="url(#p12f9ec798a)" style="fill: #8c564b; fill-opacity: 0.45"/>
   </g>
   <g id="PathCollection_6">
    <g clip-path="url(#p12f9ec798a)">
     <use xlink:href="#ma01919f94c" x="74.355818" y="273.388068" style="fill-opacity: 0.7; stroke: #000000; stroke-opacity: 0.7"/>
     <use xlink:href="#ma01919f94c" x="106.879124" y="241.064078" style="fill-opacity: 0.7; stroke: #000000; stroke-opacity: 0.7"/>
     <use xlink:href="#ma01919f94c" x="143.01613" y="226.667774" style="fill-opacity: 0.7; stroke: #000000; stroke-opacity: 0.7"/>
     <use xlink:href="#ma01919f94c" x="179.153137" y="214.401464" style="fill-opacity: 0.7; stroke: #000000; stroke-opacity: 0.7"/>
     <use xlink:href="#ma01919f94c" x="215.290143" y="204.178946" style="fill-opacity: 0.7; stroke: #000000; stroke-opacity: 0.7"/>
     <use xlink:href="#ma01919f94c" x="251.42715" y="192.712159" style="fill-opacity: 0.7; stroke: #000000; stroke-opacity: 0.7"/>
     <use xlink:href="#ma01919f94c" x="287.564156" y="185.255622" style="fill-opacity: 0.7; stroke: #000000; stroke-opacity: 0.7"/>
     <use xlink:href="#ma01919f94c" x="323.701163" y="177.341623" style="fill-opacity: 0.7; stroke: #000000; stroke-opacity: 0.7"/>
     <use xlink:href="#ma01919f94c" x="359.838169" y="169.912463" style="fill-opacity: 0.7; stroke: #000000; stroke-opacity: 0.7"/>
     <use xlink:href="#ma01919f94c" x="395.975175" y="162.016058" style="fill-opacity: 0.7; stroke: #000000; stroke-opacity: 0.7"/>
     <use xlink:href="#ma01919f94c" x="432.112182" y="157.846741" style="fill-opacity: 0.7; stroke: #000000; stroke-opacity: 0.7"/>
    </g>
   </g>
   <g id="FillBetweenPolyCollection_7">
    <path d="M 74.355818 280.410088 
L 74.355818 280.673553 
L 81.656968 273.127011 
L 88.958119 266.950344 
L 96.259269 261.859207 
L 103.560419 257.603071 
L 110.86157 253.970628 
L 118.16272 250.791539 
L 125.46387 247.935028 
L 132.76502 245.306029 
L 140.066171 242.839649 
L 147.367321 240.494809 
L 154.668471 238.247768 
L 161.969622 236.086183 
L 169.270772 234.004134 
L 176.571922 231.998369 
L 183.873072 230.065854 
L 191.174223 228.202491 
L 198.475373 226.402818 
L 205.776523 224.660361 
L 213.077673 222.968361 
L 220.378824 221.320541 
L 227.679974 219.711739 
L 234.981124 218.13823 
L 242.282275 216.597727 
L 249.583425 215.089081 
L 256.884575 213.611783 
L 264.185725 212.165424 
L 271.486876 210.749227 
L 278.788026 209.36176 
L 286.089176 208.000905 
L 293.390327 206.66406 
L 300.691477 205.348527 
L 307.992627 204.051984 
L 315.293777 202.772901 
L 322.594928 201.51079 
L 329.896078 200.266203 
L 337.197228 199.04042 
L 344.498378 197.834884 
L 351.799529 196.650469 
L 359.100679 195.486739 
L 366.401829 194.341418 
L 373.70298 193.210255 
L 381.00413 192.08749 
L 388.30528 190.967032 
L 395.60643 189.844388 
L 402.907581 188.71929 
L 410.208731 187.598816 
L 417.509881 186.500727 
L 424.811032 185.456677 
L 432.112182 184.514844 
L 432.112182 183.51995 
L 432.112182 183.51995 
L 424.811032 184.468648 
L 417.509881 185.520289 
L 410.208731 186.626362 
L 402.907581 187.754999 
L 395.60643 188.888311 
L 388.30528 190.019169 
L 381.00413 191.147839 
L 373.70298 192.278837 
L 366.401829 193.418291 
L 359.100679 194.572 
L 351.799529 195.744241 
L 344.498378 196.93731 
L 337.197228 198.15165 
L 329.896078 199.386389 
L 322.594928 200.640083 
L 315.293777 201.911449 
L 307.992627 203.199943 
L 300.691477 204.506057 
L 293.390327 205.831332 
L 286.089176 207.178103 
L 278.788026 208.54908 
L 271.486876 209.946876 
L 264.185725 211.373614 
L 256.884575 212.830726 
L 249.583425 214.318995 
L 242.282275 215.83883 
L 234.981124 217.390747 
L 227.679974 218.975912 
L 220.378824 220.596644 
L 213.077673 222.256705 
L 205.776523 223.961309 
L 198.475373 225.716783 
L 191.174223 227.529944 
L 183.873072 229.407309 
L 176.571922 231.354372 
L 169.270772 233.375248 
L 161.969622 235.472985 
L 154.668471 237.650842 
L 147.367321 239.914787 
L 140.066171 242.277267 
L 132.76502 244.762235 
L 125.46387 247.411139 
L 118.16272 250.289442 
L 110.86157 253.493045 
L 103.560419 257.15385 
L 96.259269 261.443649 
L 88.958119 266.57553 
L 81.656968 272.802111 
L 74.355818 280.410088 
z
" clip-path="url(#p12f9ec798a)" style="fill: #e377c2; fill-opacity: 0.45"/>
   </g>
   <g id="PathCollection_7">
    <g clip-path="url(#p12f9ec798a)">
     <use xlink:href="#ma01919f94c" x="74.355818" y="283.141953" style="fill-opacity: 0.7; stroke: #000000; stroke-opacity: 0.7"/>
     <use xlink:href="#ma01919f94c" x="106.879124" y="260.099474" style="fill-opacity: 0.7; stroke: #000000; stroke-opacity: 0.7"/>
     <use xlink:href="#ma01919f94c" x="143.01613" y="241.451753" style="fill-opacity: 0.7; stroke: #000000; stroke-opacity: 0.7"/>
     <use xlink:href="#ma01919f94c" x="179.153137" y="232.613316" style="fill-opacity: 0.7; stroke: #000000; stroke-opacity: 0.7"/>
     <use xlink:href="#ma01919f94c" x="215.290143" y="222.003312" style="fill-opacity: 0.7; stroke: #000000; stroke-opacity: 0.7"/>
     <use xlink:href="#ma01919f94c" x="251.42715" y="216.464347" style="fill-opacity: 0.7; stroke: #000000; stroke-opacity: 0.7"/>
     <use xlink:href="#ma01919f94c" x="287.564156" y="210.613228" style="fill-opacity: 0.7; stroke: #000000; stroke-opacity: 0.7"/>
     <use xlink:href="#ma01919f94c" x="323.701163" y="202.683013" style="fill-opacity: 0.7; stroke: #000000; stroke-opacity: 0.7"/>
     <use xlink:href="#ma01919f94c" x="359.838169" y="197.601818" style="fill-opacity: 0.7; stroke: #000000; stroke-opacity: 0.7"/>
     <use xlink:href="#ma01919f94c" x="395.975175" y="193.727291" style="fill-opacity: 0.7; stroke: #000000; stroke-opacity: 0.7"/>
     <use xlink:href="#ma01919f94c" x="432.112182" y="188.060992" style="fill-opacity: 0.7; stroke: #000000; stroke-opacity: 0.7"/>
    </g>
   </g>
   <g id="FillBetweenPolyCollection_8">
    <path d="M 74.355818 288.733322 
L 74.355818 288.954545 
L 81.656968 283.815202 
L 88.958119 279.612127 
L 96.259269 276.150346 
L 103.560419 273.25788 
L 110.86157 270.789924 
L 118.16272 268.63 
L 125.46387 266.688913 
L 132.76502 264.902027 
L 140.066171 263.22539 
L 147.367321 261.631306 
L 154.668471 260.103851 
L 161.969622 258.634784 
L 169.270772 257.220133 
L 176.571922 255.857653 
L 183.873072 254.545175 
L 191.174223 253.279774 
L 198.475373 252.057599 
L 205.776523 250.874144 
L 213.077673 249.724765 
L 220.378824 248.605205 
L 227.679974 247.512021 
L 234.981124 246.44278 
L 242.282275 245.396034 
L 249.583425 244.371091 
L 256.884575 243.367657 
L 264.185725 242.385451 
L 271.486876 241.423895 
L 278.788026 240.481924 
L 286.089176 239.557989 
L 293.390327 238.650221 
L 300.691477 237.756721 
L 307.992627 236.875898 
L 315.293777 236.006757 
L 322.594928 235.149072 
L 329.896078 234.303352 
L 337.197228 233.470607 
L 344.498378 232.651922 
L 351.799529 231.847923 
L 359.100679 231.058259 
L 366.401829 230.281225 
L 373.70298 229.513695 
L 381.00413 228.751483 
L 388.30528 227.990218 
L 395.60643 227.226745 
L 402.907581 226.461009 
L 410.208731 225.698259 
L 417.509881 224.951405 
L 424.811032 224.243206 
L 432.112182 223.608051 
L 432.112182 222.806514 
L 432.112182 222.806514 
L 424.811032 223.446914 
L 417.509881 224.161224 
L 410.208731 224.914624 
L 402.907581 225.684067 
L 395.60643 226.45649 
L 388.30528 227.226578 
L 381.00413 227.994392 
L 373.70298 228.763128 
L 366.401829 229.537214 
L 359.100679 230.320888 
L 351.799529 231.117312 
L 344.498378 231.928211 
L 337.197228 232.75394 
L 329.896078 233.59386 
L 322.594928 234.446869 
L 315.293777 235.311939 
L 307.992627 236.188551 
L 300.691477 237.076932 
L 293.390327 237.97808 
L 286.089176 238.893604 
L 278.788026 239.825426 
L 271.486876 240.775432 
L 264.185725 241.745191 
L 256.884575 242.735778 
L 249.583425 243.74778 
L 242.282275 244.781477 
L 234.981124 245.837165 
L 227.679974 246.915544 
L 220.378824 248.018077 
L 213.077673 249.147222 
L 205.776523 250.306463 
L 198.475373 251.500103 
L 191.174223 252.732841 
L 183.873072 254.009231 
L 176.571922 255.33317 
L 169.270772 256.707605 
L 161.969622 258.134724 
L 154.668471 259.616776 
L 147.367321 261.157749 
L 140.066171 262.76594 
L 132.76502 264.457402 
L 125.46387 266.260083 
L 118.16272 268.21836 
L 110.86157 270.397523 
L 103.560419 272.887698 
L 96.259269 275.806603 
L 88.958119 279.300622 
L 81.656968 283.543639 
L 74.355818 288.733322 
z
" clip-path="url(#p12f9ec798a)" style="fill: #7f7f7f; fill-opacity: 0.45"/>
   </g>
   <g id="PathCollection_8">
    <g clip-path="url(#p12f9ec798a)">
     <use xlink:href="#ma01919f94c" x="74.355818" y="285.375793" style="fill-opacity: 0.7; stroke: #000000; stroke-opacity: 0.7"/>
     <use xlink:href="#ma01919f94c" x="106.879124" y="269.434024" style="fill-opacity: 0.7; stroke: #000000; stroke-opacity: 0.7"/>
     <use xlink:href="#ma01919f94c" x="143.01613" y="259.252134" style="fill-opacity: 0.7; stroke: #000000; stroke-opacity: 0.7"/>
     <use xlink:href="#ma01919f94c" x="179.153137" y="252.571009" style="fill-opacity: 0.7; stroke: #000000; stroke-opacity: 0.7"/>
     <use xlink:href="#ma01919f94c" x="215.290143" y="246.759653" style="fill-opacity: 0.7; stroke: #000000; stroke-opacity: 0.7"/>
     <use xlink:href="#ma01919f94c" x="251.42715" y="239.033614" style="fill-opacity: 0.7; stroke: #000000; stroke-opacity: 0.7"/>
     <use xlink:href="#ma01919f94c" x="287.564156" y="235.351486" style="fill-opacity: 0.7; stroke: #000000; stroke-opacity: 0.7"/>
     <use xlink:href="#ma01919f94c" x="323.701163" y="231.622831" style="fill-opacity: 0.7; stroke: #000000; stroke-opacity: 0.7"/>
     <use xlink:href="#ma01919f94c" x="359.838169" y="226.489423" style="fill-opacity: 0.7; stroke: #000000; stroke-opacity: 0.7"/>
     <use xlink:href="#ma01919f94c" x="395.975175" y="223.513976" style="fill-opacity: 0.7; stroke: #000000; stroke-opacity: 0.7"/>
     <use xlink:href="#ma01919f94c" x="432.112182" y="218.232721" style="fill-opacity: 0.7; stroke: #000000; stroke-opacity: 0.7"/>
    </g>
   </g>
   <g id="matplotlib.axis_1">
    <g id="xtick_1">
     <g id="line2d_1">
      <defs>
       <path id="md9e19cb66e" d="M 0 0 
L 0 3.5 
" style="stroke: #000000; stroke-width: 0.8"/>
      </defs>
      <g>
       <use xlink:href="#md9e19cb66e" x="70.742118" y="302.2" style="stroke: #000000; stroke-width: 0.8"/>
      </g>
     </g>
     <g id="text_1">
      <!-- 0 -->
      <g transform="translate(67.560868 316.798437) scale(0.1 -0.1)">
       <defs>
        <path id="DejaVuSans-30" d="M 2034 4250 
Q 1547 4250 1301 3770 
Q 1056 3291 1056 2328 
Q 1056 1369 1301 889 
Q 1547 409 2034 409 
Q 2525 409 2770 889 
Q 3016 1369 3016 2328 
Q 3016 3291 2770 3770 
Q 2525 4250 2034 4250 
z
M 2034 4750 
Q 2819 4750 3233 4129 
Q 3647 3509 3647 2328 
Q 3647 1150 3233 529 
Q 2819 -91 2034 -91 
Q 1250 -91 836 529 
Q 422 1150 422 2328 
Q 422 3509 836 4129 
Q 1250 4750 2034 4750 
z
" transform="scale(0.015625)"/>
       </defs>
       <use xlink:href="#DejaVuSans-30"/>
      </g>
     </g>
    </g>
    <g id="xtick_2">
     <g id="line2d_2">
      <g>
       <use xlink:href="#md9e19cb66e" x="143.01613" y="302.2" style="stroke: #000000; stroke-width: 0.8"/>
      </g>
     </g>
     <g id="text_2">
      <!-- 1 -->
      <g transform="translate(139.83488 316.798437) scale(0.1 -0.1)">
       <defs>
        <path id="DejaVuSans-31" d="M 794 531 
L 1825 531 
L 1825 4091 
L 703 3866 
L 703 4441 
L 1819 4666 
L 2450 4666 
L 2450 531 
L 3481 531 
L 3481 0 
L 794 0 
L 794 531 
z
" transform="scale(0.015625)"/>
       </defs>
       <use xlink:href="#DejaVuSans-31"/>
      </g>
     </g>
    </g>
    <g id="xtick_3">
     <g id="line2d_3">
      <g>
       <use xlink:href="#md9e19cb66e" x="215.290143" y="302.2" style="stroke: #000000; stroke-width: 0.8"/>
      </g>
     </g>
     <g id="text_3">
      <!-- 2 -->
      <g transform="translate(212.108893 316.798437) scale(0.1 -0.1)">
       <defs>
        <path id="DejaVuSans-32" d="M 1228 531 
L 3431 531 
L 3431 0 
L 469 0 
L 469 531 
Q 828 903 1448 1529 
Q 2069 2156 2228 2338 
Q 2531 2678 2651 2914 
Q 2772 3150 2772 3378 
Q 2772 3750 2511 3984 
Q 2250 4219 1831 4219 
Q 1534 4219 1204 4116 
Q 875 4013 500 3803 
L 500 4441 
Q 881 4594 1212 4672 
Q 1544 4750 1819 4750 
Q 2544 4750 2975 4387 
Q 3406 4025 3406 3419 
Q 3406 3131 3298 2873 
Q 3191 2616 2906 2266 
Q 2828 2175 2409 1742 
Q 1991 1309 1228 531 
z
" transform="scale(0.015625)"/>
       </defs>
       <use xlink:href="#DejaVuSans-32"/>
      </g>
     </g>
    </g>
    <g id="xtick_4">
     <g id="line2d_4">
      <g>
       <use xlink:href="#md9e19cb66e" x="287.564156" y="302.2" style="stroke: #000000; stroke-width: 0.8"/>
      </g>
     </g>
     <g id="text_4">
      <!-- 3 -->
      <g transform="translate(284.382906 316.798437) scale(0.1 -0.1)">
       <defs>
        <path id="DejaVuSans-33" d="M 2597 2516 
Q 3050 2419 3304 2112 
Q 3559 1806 3559 1356 
Q 3559 666 3084 287 
Q 2609 -91 1734 -91 
Q 1441 -91 1130 -33 
Q 819 25 488 141 
L 488 750 
Q 750 597 1062 519 
Q 1375 441 1716 441 
Q 2309 441 2620 675 
Q 2931 909 2931 1356 
Q 2931 1769 2642 2001 
Q 2353 2234 1838 2234 
L 1294 2234 
L 1294 2753 
L 1863 2753 
Q 2328 2753 2575 2939 
Q 2822 3125 2822 3475 
Q 2822 3834 2567 4026 
Q 2313 4219 1838 4219 
Q 1578 4219 1281 4162 
Q 984 4106 628 3988 
L 628 4550 
Q 988 4650 1302 4700 
Q 1616 4750 1894 4750 
Q 2613 4750 3031 4423 
Q 3450 4097 3450 3541 
Q 3450 3153 3228 2886 
Q 3006 2619 2597 2516 
z
" transform="scale(0.015625)"/>
       </defs>
       <use xlink:href="#DejaVuSans-33"/>
      </g>
     </g>
    </g>
    <g id="xtick_5">
     <g id="line2d_5">
      <g>
       <use xlink:href="#md9e19cb66e" x="359.838169" y="302.2" style="stroke: #000000; stroke-width: 0.8"/>
      </g>
     </g>
     <g id="text_5">
      <!-- 4 -->
      <g transform="translate(356.656919 316.798437) scale(0.1 -0.1)">
       <defs>
        <path id="DejaVuSans-34" d="M 2419 4116 
L 825 1625 
L 2419 1625 
L 2419 4116 
z
M 2253 4666 
L 3047 4666 
L 3047 1625 
L 3713 1625 
L 3713 1100 
L 3047 1100 
L 3047 0 
L 2419 0 
L 2419 1100 
L 313 1100 
L 313 1709 
L 2253 4666 
z
" transform="scale(0.015625)"/>
       </defs>
       <use xlink:href="#DejaVuSans-34"/>
      </g>
     </g>
    </g>
    <g id="xtick_6">
     <g id="line2d_6">
      <g>
       <use xlink:href="#md9e19cb66e" x="432.112182" y="302.2" style="stroke: #000000; stroke-width: 0.8"/>
      </g>
     </g>
     <g id="text_6">
      <!-- 5 -->
      <g transform="translate(428.930932 316.798437) scale(0.1 -0.1)">
       <defs>
        <path id="DejaVuSans-35" d="M 691 4666 
L 3169 4666 
L 3169 4134 
L 1269 4134 
L 1269 2991 
Q 1406 3038 1543 3061 
Q 1681 3084 1819 3084 
Q 2600 3084 3056 2656 
Q 3513 2228 3513 1497 
Q 3513 744 3044 326 
Q 2575 -91 1722 -91 
Q 1428 -91 1123 -41 
Q 819 9 494 109 
L 494 744 
Q 775 591 1075 516 
Q 1375 441 1709 441 
Q 2250 441 2565 725 
Q 2881 1009 2881 1497 
Q 2881 1984 2565 2268 
Q 2250 2553 1709 2553 
Q 1456 2553 1204 2497 
Q 953 2441 691 2322 
L 691 4666 
z
" transform="scale(0.015625)"/>
       </defs>
       <use xlink:href="#DejaVuSans-35"/>
      </g>
     </g>
    </g>
    <g id="text_7">
     <!-- $W$ (m/hour) -->
     <g transform="translate(224.784 330.476562) scale(0.1 -0.1)">
      <defs>
       <path id="DejaVuSans-Oblique-57" d="M 616 4666 
L 1228 4666 
L 1453 697 
L 3213 4666 
L 3916 4666 
L 4147 697 
L 5888 4666 
L 6528 4666 
L 4453 0 
L 3659 0 
L 3444 3891 
L 1697 0 
L 903 0 
L 616 4666 
z
" transform="scale(0.015625)"/>
       <path id="DejaVuSans-20" transform="scale(0.015625)"/>
       <path id="DejaVuSans-28" d="M 1984 4856 
Q 1566 4138 1362 3434 
Q 1159 2731 1159 2009 
Q 1159 1288 1364 580 
Q 1569 -128 1984 -844 
L 1484 -844 
Q 1016 -109 783 600 
Q 550 1309 550 2009 
Q 550 2706 781 3412 
Q 1013 4119 1484 4856 
L 1984 4856 
z
" transform="scale(0.015625)"/>
       <path id="DejaVuSans-6d" d="M 3328 2828 
Q 3544 3216 3844 3400 
Q 4144 3584 4550 3584 
Q 5097 3584 5394 3201 
Q 5691 2819 5691 2113 
L 5691 0 
L 5113 0 
L 5113 2094 
Q 5113 2597 4934 2840 
Q 4756 3084 4391 3084 
Q 3944 3084 3684 2787 
Q 3425 2491 3425 1978 
L 3425 0 
L 2847 0 
L 2847 2094 
Q 2847 2600 2669 2842 
Q 2491 3084 2119 3084 
Q 1678 3084 1418 2786 
Q 1159 2488 1159 1978 
L 1159 0 
L 581 0 
L 581 3500 
L 1159 3500 
L 1159 2956 
Q 1356 3278 1631 3431 
Q 1906 3584 2284 3584 
Q 2666 3584 2933 3390 
Q 3200 3197 3328 2828 
z
" transform="scale(0.015625)"/>
       <path id="DejaVuSans-2f" d="M 1625 4666 
L 2156 4666 
L 531 -594 
L 0 -594 
L 1625 4666 
z
" transform="scale(0.015625)"/>
       <path id="DejaVuSans-68" d="M 3513 2113 
L 3513 0 
L 2938 0 
L 2938 2094 
Q 2938 2591 2744 2837 
Q 2550 3084 2163 3084 
Q 1697 3084 1428 2787 
Q 1159 2491 1159 1978 
L 1159 0 
L 581 0 
L 581 4863 
L 1159 4863 
L 1159 2956 
Q 1366 3272 1645 3428 
Q 1925 3584 2291 3584 
Q 2894 3584 3203 3211 
Q 3513 2838 3513 2113 
z
" transform="scale(0.015625)"/>
       <path id="DejaVuSans-6f" d="M 1959 3097 
Q 1497 3097 1228 2736 
Q 959 2375 959 1747 
Q 959 1119 1226 758 
Q 1494 397 1959 397 
Q 2419 397 2687 759 
Q 2956 1122 2956 1747 
Q 2956 2369 2687 2733 
Q 2419 3097 1959 3097 
z
M 1959 3584 
Q 2709 3584 3137 3096 
Q 3566 2609 3566 1747 
Q 3566 888 3137 398 
Q 2709 -91 1959 -91 
Q 1206 -91 779 398 
Q 353 888 353 1747 
Q 353 2609 779 3096 
Q 1206 3584 1959 3584 
z
" transform="scale(0.015625)"/>
       <path id="DejaVuSans-75" d="M 544 1381 
L 544 3500 
L 1119 3500 
L 1119 1403 
Q 1119 906 1312 657 
Q 1506 409 1894 409 
Q 2359 409 2629 706 
Q 2900 1003 2900 1516 
L 2900 3500 
L 3475 3500 
L 3475 0 
L 2900 0 
L 2900 538 
Q 2691 219 2414 64 
Q 2138 -91 1772 -91 
Q 1169 -91 856 284 
Q 544 659 544 1381 
z
M 1991 3584 
L 1991 3584 
z
" transform="scale(0.015625)"/>
       <path id="DejaVuSans-72" d="M 2631 2963 
Q 2534 3019 2420 3045 
Q 2306 3072 2169 3072 
Q 1681 3072 1420 2755 
Q 1159 2438 1159 1844 
L 1159 0 
L 581 0 
L 581 3500 
L 1159 3500 
L 1159 2956 
Q 1341 3275 1631 3429 
Q 1922 3584 2338 3584 
Q 2397 3584 2469 3576 
Q 2541 3569 2628 3553 
L 2631 2963 
z
" transform="scale(0.015625)"/>
       <path id="DejaVuSans-29" d="M 513 4856 
L 1013 4856 
Q 1481 4119 1714 3412 
Q 1947 2706 1947 2009 
Q 1947 1309 1714 600 
Q 1481 -109 1013 -844 
L 513 -844 
Q 928 -128 1133 580 
Q 1338 1288 1338 2009 
Q 1338 2731 1133 3434 
Q 928 4138 513 4856 
z
" transform="scale(0.015625)"/>
      </defs>
      <use xlink:href="#DejaVuSans-Oblique-57" transform="translate(0 0.015625)"/>
      <use xlink:href="#DejaVuSans-20" transform="translate(98.876953 0.015625)"/>
      <use xlink:href="#DejaVuSans-28" transform="translate(130.664062 0.015625)"/>
      <use xlink:href="#DejaVuSans-6d" transform="translate(169.677734 0.015625)"/>
      <use xlink:href="#DejaVuSans-2f" transform="translate(267.089844 0.015625)"/>
      <use xlink:href="#DejaVuSans-68" transform="translate(300.78125 0.015625)"/>
      <use xlink:href="#DejaVuSans-6f" transform="translate(364.160156 0.015625)"/>
      <use xlink:href="#DejaVuSans-75" transform="translate(425.341797 0.015625)"/>
      <use xlink:href="#DejaVuSans-72" transform="translate(488.720703 0.015625)"/>
      <use xlink:href="#DejaVuSans-29" transform="translate(529.833984 0.015625)"/>
     </g>
    </g>
   </g>
   <g id="matplotlib.axis_2">
    <g id="ytick_1">
     <g id="line2d_7">
      <defs>
       <path id="m035cf01868" d="M 0 0 
L -3.5 0 
" style="stroke: #000000; stroke-width: 0.8"/>
      </defs>
      <g>
       <use xlink:href="#m035cf01868" x="56.468" y="273.17423" style="stroke: #000000; stroke-width: 0.8"/>
      </g>
     </g>
     <g id="text_8">
      <!-- 2.5 -->
      <g transform="translate(33.564875 276.973448) scale(0.1 -0.1)">
       <defs>
        <path id="DejaVuSans-2e" d="M 684 794 
L 1344 794 
L 1344 0 
L 684 0 
L 684 794 
z
" transform="scale(0.015625)"/>
       </defs>
       <use xlink:href="#DejaVuSans-32"/>
       <use xlink:href="#DejaVuSans-2e" transform="translate(63.623047 0)"/>
       <use xlink:href="#DejaVuSans-35" transform="translate(95.410156 0)"/>
      </g>
     </g>
    </g>
    <g id="ytick_2">
     <g id="line2d_8">
      <g>
       <use xlink:href="#m035cf01868" x="56.468" y="239.319092" style="stroke: #000000; stroke-width: 0.8"/>
      </g>
     </g>
     <g id="text_9">
      <!-- 5.0 -->
      <g transform="translate(33.564875 243.118311) scale(0.1 -0.1)">
       <use xlink:href="#DejaVuSans-35"/>
       <use xlink:href="#DejaVuSans-2e" transform="translate(63.623047 0)"/>
       <use xlink:href="#DejaVuSans-30" transform="translate(95.410156 0)"/>
      </g>
     </g>
    </g>
    <g id="ytick_3">
     <g id="line2d_9">
      <g>
       <use xlink:href="#m035cf01868" x="56.468" y="205.463955" style="stroke: #000000; stroke-width: 0.8"/>
      </g>
     </g>
     <g id="text_10">
      <!-- 7.5 -->
      <g transform="translate(33.564875 209.263174) scale(0.1 -0.1)">
       <defs>
        <path id="DejaVuSans-37" d="M 525 4666 
L 3525 4666 
L 3525 4397 
L 1831 0 
L 1172 0 
L 2766 4134 
L 525 4134 
L 525 4666 
z
" transform="scale(0.015625)"/>
       </defs>
       <use xlink:href="#DejaVuSans-37"/>
       <use xlink:href="#DejaVuSans-2e" transform="translate(63.623047 0)"/>
       <use xlink:href="#DejaVuSans-35" transform="translate(95.410156 0)"/>
      </g>
     </g>
    </g>
    <g id="ytick_4">
     <g id="line2d_10">
      <g>
       <use xlink:href="#m035cf01868" x="56.468" y="171.608818" style="stroke: #000000; stroke-width: 0.8"/>
      </g>
     </g>
     <g id="text_11">
      <!-- 10.0 -->
      <g transform="translate(27.202375 175.408037) scale(0.1 -0.1)">
       <use xlink:href="#DejaVuSans-31"/>
       <use xlink:href="#DejaVuSans-30" transform="translate(63.623047 0)"/>
       <use xlink:href="#DejaVuSans-2e" transform="translate(127.246094 0)"/>
       <use xlink:href="#DejaVuSans-30" transform="translate(159.033203 0)"/>
      </g>
     </g>
    </g>
    <g id="ytick_5">
     <g id="line2d_11">
      <g>
       <use xlink:href="#m035cf01868" x="56.468" y="137.753681" style="stroke: #000000; stroke-width: 0.8"/>
      </g>
     </g>
     <g id="text_12">
      <!-- 12.5 -->
      <g transform="translate(27.202375 141.5529) scale(0.1 -0.1)">
       <use xlink:href="#DejaVuSans-31"/>
       <use xlink:href="#DejaVuSans-32" transform="translate(63.623047 0)"/>
       <use xlink:href="#DejaVuSans-2e" transform="translate(127.246094 0)"/>
       <use xlink:href="#DejaVuSans-35" transform="translate(159.033203 0)"/>
      </g>
     </g>
    </g>
    <g id="ytick_6">
     <g id="line2d_12">
      <g>
       <use xlink:href="#m035cf01868" x="56.468" y="103.898544" style="stroke: #000000; stroke-width: 0.8"/>
      </g>
     </g>
     <g id="text_13">
      <!-- 15.0 -->
      <g transform="translate(27.202375 107.697763) scale(0.1 -0.1)">
       <use xlink:href="#DejaVuSans-31"/>
       <use xlink:href="#DejaVuSans-35" transform="translate(63.623047 0)"/>
       <use xlink:href="#DejaVuSans-2e" transform="translate(127.246094 0)"/>
       <use xlink:href="#DejaVuSans-30" transform="translate(159.033203 0)"/>
      </g>
     </g>
    </g>
    <g id="ytick_7">
     <g id="line2d_13">
      <g>
       <use xlink:href="#m035cf01868" x="56.468" y="70.043407" style="stroke: #000000; stroke-width: 0.8"/>
      </g>
     </g>
     <g id="text_14">
      <!-- 17.5 -->
      <g transform="translate(27.202375 73.842626) scale(0.1 -0.1)">
       <use xlink:href="#DejaVuSans-31"/>
       <use xlink:href="#DejaVuSans-37" transform="translate(63.623047 0)"/>
       <use xlink:href="#DejaVuSans-2e" transform="translate(127.246094 0)"/>
       <use xlink:href="#DejaVuSans-35" transform="translate(159.033203 0)"/>
      </g>
     </g>
    </g>
    <g id="ytick_8">
     <g id="line2d_14">
      <g>
       <use xlink:href="#m035cf01868" x="56.468" y="36.18827" style="stroke: #000000; stroke-width: 0.8"/>
      </g>
     </g>
     <g id="text_15">
      <!-- 20.0 -->
      <g transform="translate(27.202375 39.987489) scale(0.1 -0.1)">
       <use xlink:href="#DejaVuSans-32"/>
       <use xlink:href="#DejaVuSans-30" transform="translate(63.623047 0)"/>
       <use xlink:href="#DejaVuSans-2e" transform="translate(127.246094 0)"/>
       <use xlink:href="#DejaVuSans-30" transform="translate(159.033203 0)"/>
      </g>
     </g>
    </g>
    <g id="text_16">
     <!-- $Q_{lc}$ (kW) -->
     <g transform="translate(21.122688 176.8) rotate(-90) scale(0.1 -0.1)">
      <defs>
       <path id="DejaVuSans-Oblique-51" d="M 2309 -84 
Q 2275 -88 2237 -89 
Q 2200 -91 2125 -91 
Q 1250 -91 756 411 
Q 263 913 263 1797 
Q 263 2319 452 2844 
Q 641 3369 978 3788 
Q 1369 4269 1858 4509 
Q 2347 4750 2938 4750 
Q 3794 4750 4287 4245 
Q 4781 3741 4781 2869 
Q 4781 1928 4265 1147 
Q 3750 366 2919 44 
L 3553 -825 
L 2847 -825 
L 2309 -84 
z
M 2919 4238 
Q 2400 4238 2003 3986 
Q 1606 3734 1313 3219 
Q 1125 2891 1026 2522 
Q 928 2153 928 1778 
Q 928 1128 1239 775 
Q 1550 422 2119 422 
Q 2631 422 3032 676 
Q 3434 931 3719 1434 
Q 3909 1772 4009 2142 
Q 4109 2513 4109 2881 
Q 4109 3528 3796 3883 
Q 3484 4238 2919 4238 
z
" transform="scale(0.015625)"/>
       <path id="DejaVuSans-Oblique-6c" d="M 1172 4863 
L 1747 4863 
L 800 0 
L 225 0 
L 1172 4863 
z
" transform="scale(0.015625)"/>
       <path id="DejaVuSans-Oblique-63" d="M 3431 3366 
L 3316 2797 
Q 3109 2947 2876 3022 
Q 2644 3097 2394 3097 
Q 2119 3097 1870 3000 
Q 1622 2903 1453 2725 
Q 1184 2453 1037 2087 
Q 891 1722 891 1331 
Q 891 859 1127 628 
Q 1363 397 1844 397 
Q 2081 397 2348 469 
Q 2616 541 2906 684 
L 2797 116 
Q 2547 13 2283 -39 
Q 2019 -91 1741 -91 
Q 1044 -91 669 257 
Q 294 606 294 1253 
Q 294 1797 489 2255 
Q 684 2713 1069 3078 
Q 1331 3328 1684 3456 
Q 2038 3584 2456 3584 
Q 2700 3584 2940 3529 
Q 3181 3475 3431 3366 
z
" transform="scale(0.015625)"/>
       <path id="DejaVuSans-6b" d="M 581 4863 
L 1159 4863 
L 1159 1991 
L 2875 3500 
L 3609 3500 
L 1753 1863 
L 3688 0 
L 2938 0 
L 1159 1709 
L 1159 0 
L 581 0 
L 581 4863 
z
" transform="scale(0.015625)"/>
       <path id="DejaVuSans-57" d="M 213 4666 
L 850 4666 
L 1831 722 
L 2809 4666 
L 3519 4666 
L 4500 722 
L 5478 4666 
L 6119 4666 
L 4947 0 
L 4153 0 
L 3169 4050 
L 2175 0 
L 1381 0 
L 213 4666 
z
" transform="scale(0.015625)"/>
      </defs>
      <use xlink:href="#DejaVuSans-Oblique-51" transform="translate(0 0.015625)"/>
      <use xlink:href="#DejaVuSans-Oblique-6c" transform="translate(78.710938 -16.390625) scale(0.7)"/>
      <use xlink:href="#DejaVuSans-Oblique-63" transform="translate(98.15918 -16.390625) scale(0.7)"/>
      <use xlink:href="#DejaVuSans-20" transform="translate(139.379883 0.015625)"/>
      <use xlink:href="#DejaVuSans-28" transform="translate(171.166992 0.015625)"/>
      <use xlink:href="#DejaVuSans-6b" transform="translate(210.180664 0.015625)"/>
      <use xlink:href="#DejaVuSans-57" transform="translate(268.09082 0.015625)"/>
      <use xlink:href="#DejaVuSans-29" transform="translate(366.967773 0.015625)"/>
     </g>
    </g>
   </g>
   <g id="line2d_15">
    <path d="M 74.355818 249.476778 
L 81.656968 232.06513 
L 88.958119 217.800672 
L 96.259269 206.028915 
L 103.560419 196.17483 
L 110.86157 187.751978 
L 118.16272 180.36818 
L 125.46387 173.723735 
L 132.76502 167.601329 
L 140.066171 161.853349 
L 147.367321 156.386359 
L 154.668471 151.145321 
L 161.969622 146.103334 
L 169.270772 141.247114 
L 176.571922 136.569311 
L 183.873072 132.061887 
L 191.174223 127.71539 
L 198.475373 123.516936 
L 205.776523 119.451368 
L 213.077673 115.502478 
L 220.378824 111.655274 
L 227.679974 107.898154 
L 234.981124 104.222623 
L 242.282275 100.623563 
L 249.583425 97.098516 
L 256.884575 93.646513 
L 264.185725 90.266773 
L 271.486876 86.957591 
L 278.788026 83.715672 
L 286.089176 80.536041 
L 293.390327 77.412532 
L 300.691477 74.338969 
L 307.992627 71.30965 
L 315.293777 68.320702 
L 322.594928 65.370869 
L 329.896078 62.46138 
L 337.197228 59.595261 
L 344.498378 56.77601 
L 351.799529 54.005876 
L 359.100679 51.284118 
L 366.401829 48.605688 
L 373.70298 45.960877 
L 381.00413 43.336323 
L 388.30528 40.71771 
L 395.60643 38.094272 
L 402.907581 35.464937 
L 410.208731 32.84573 
L 417.509881 30.277782 
L 424.811032 27.835088 
L 432.112182 25.631088 
" clip-path="url(#p12f9ec798a)" style="fill: none; stroke: #1f77b4; stroke-width: 1.5; stroke-linecap: square"/>
   </g>
   <g id="line2d_16">
    <path d="M 74.355818 253.173087 
L 81.656968 237.065578 
L 88.958119 223.873702 
L 96.259269 212.990362 
L 103.560419 203.880891 
L 110.86157 196.094357 
L 118.16272 189.27101 
L 125.46387 183.132952 
L 132.76502 177.478904 
L 140.066171 172.171471 
L 147.367321 167.124134 
L 154.668471 162.286596 
L 161.969622 157.633153 
L 169.270772 153.151316 
L 176.571922 148.833544 
L 183.873072 144.673419 
L 191.174223 140.662021 
L 198.475373 136.786765 
L 205.776523 133.033841 
L 213.077673 129.388621 
L 220.378824 125.837648 
L 227.679974 122.369943 
L 234.981124 118.977694 
L 242.282275 115.656202 
L 249.583425 112.403205 
L 256.884575 109.217792 
L 264.185725 106.099201 
L 271.486876 103.045606 
L 278.788026 100.054086 
L 286.089176 97.120032 
L 293.390327 94.237705 
L 300.691477 91.401149 
L 307.992627 88.605295 
L 315.293777 85.84678 
L 322.594928 83.124397 
L 329.896078 80.439348 
L 337.197228 77.794507 
L 344.498378 75.193406 
L 351.799529 72.637908 
L 359.100679 70.127114 
L 366.401829 67.656288 
L 373.70298 65.21636 
L 381.00413 62.794859 
L 388.30528 60.378476 
L 395.60643 57.957259 
L 402.907581 55.530342 
L 410.208731 53.112828 
L 417.509881 50.743217 
L 424.811032 48.490599 
L 432.112182 46.46072 
" clip-path="url(#p12f9ec798a)" style="fill: none; stroke: #ff7f0e; stroke-width: 1.5; stroke-linecap: square"/>
   </g>
   <g id="line2d_17">
    <path d="M 74.355818 257.423125 
L 81.656968 242.738696 
L 88.958119 230.714505 
L 96.259269 220.797597 
L 103.560419 212.499503 
L 110.86157 205.409461 
L 118.16272 199.197226 
L 125.46387 193.609727 
L 132.76502 188.463966 
L 140.066171 183.634205 
L 147.367321 179.04112 
L 154.668471 174.639576 
L 161.969622 170.405536 
L 169.270772 166.328031 
L 176.571922 162.399859 
L 183.873072 158.615313 
L 191.174223 154.966002 
L 198.475373 151.441001 
L 205.776523 148.027332 
L 213.077673 144.711776 
L 220.378824 141.482435 
L 227.679974 138.328715 
L 234.981124 135.243656 
L 242.282275 132.222911 
L 249.583425 129.264564 
L 256.884575 126.367755 
L 264.185725 123.531758 
L 271.486876 120.754877 
L 278.788026 118.034521 
L 286.089176 115.366604 
L 293.390327 112.745399 
L 300.691477 110.165679 
L 307.992627 107.622921 
L 315.293777 105.114066 
L 322.594928 102.638384 
L 329.896078 100.196734 
L 337.197228 97.791717 
L 344.498378 95.42629 
L 351.799529 93.102305 
L 359.100679 90.819045 
L 366.401829 88.572121 
L 373.70298 86.353201 
L 381.00413 84.150864 
L 388.30528 81.952946 
L 395.60643 79.750451 
L 402.907581 77.542645 
L 410.208731 75.343373 
L 417.509881 73.18781 
L 424.811032 71.138999 
L 432.112182 69.293344 
" clip-path="url(#p12f9ec798a)" style="fill: none; stroke: #2ca02c; stroke-width: 1.5; stroke-linecap: square"/>
   </g>
   <g id="line2d_18">
    <path d="M 74.355818 263.811103 
L 81.656968 251.16992 
L 88.958119 240.819984 
L 96.259269 232.286491 
L 103.560419 225.147907 
L 110.86157 219.050838 
L 118.16272 213.710996 
L 125.46387 208.910535 
L 132.76502 204.490359 
L 140.066171 200.342299 
L 147.367321 196.398189 
L 154.668471 192.618471 
L 161.969622 188.982539 
L 169.270772 185.480435 
L 176.571922 182.106559 
L 183.873072 178.855583 
L 191.174223 175.72067 
L 198.475373 172.692705 
L 205.776523 169.760991 
L 213.077673 166.913788 
L 220.378824 164.140401 
L 227.679974 161.432482 
L 234.981124 158.7838 
L 242.282275 156.190594 
L 249.583425 153.650832 
L 256.884575 151.163858 
L 264.185725 148.729033 
L 271.486876 146.345044 
L 278.788026 144.009516 
L 286.089176 141.718996 
L 293.390327 139.468843 
L 300.691477 137.254459 
L 307.992627 135.071878 
L 315.293777 132.91849 
L 322.594928 130.793464 
L 329.896078 128.697741 
L 337.197228 126.633527 
L 344.498378 124.603325 
L 351.799529 122.608691 
L 359.100679 120.648981 
L 366.401829 118.720417 
L 373.70298 116.815859 
L 381.00413 114.925557 
L 388.30528 113.039137 
L 395.60643 111.148874 
L 402.907581 109.254148 
L 410.208731 107.366752 
L 417.509881 105.516635 
L 424.811032 103.757632 
L 432.112182 102.171941 
" clip-path="url(#p12f9ec798a)" style="fill: none; stroke: #d62728; stroke-width: 1.5; stroke-linecap: square"/>
   </g>
   <g id="line2d_19">
    <path d="M 74.355818 269.057028 
L 81.656968 258.037882 
L 88.958119 249.017817 
L 96.259269 241.580628 
L 103.560419 235.360296 
L 110.86157 230.049318 
L 118.16272 225.399749 
L 125.46387 221.221191 
L 132.76502 217.374334 
L 140.066171 213.764818 
L 147.367321 210.332845 
L 154.668471 207.043777 
L 161.969622 203.879821 
L 169.270772 200.832194 
L 176.571922 197.896115 
L 183.873072 195.067119 
L 191.174223 192.339161 
L 198.475373 189.7042 
L 205.776523 187.152872 
L 213.077673 184.675304 
L 220.378824 182.26234 
L 227.679974 179.906447 
L 234.981124 177.602194 
L 242.282275 175.346247 
L 249.583425 173.136927 
L 256.884575 170.973499 
L 264.185725 168.855368 
L 271.486876 166.781393 
L 278.788026 164.749484 
L 286.089176 162.756578 
L 293.390327 160.798865 
L 300.691477 158.872328 
L 307.992627 156.97345 
L 315.293777 155.100045 
L 322.594928 153.251405 
L 329.896078 151.428323 
L 337.197228 149.632681 
L 344.498378 147.866616 
L 351.799529 146.131448 
L 359.100679 144.426603 
L 366.401829 142.748809 
L 373.70298 141.091942 
L 381.00413 139.447594 
L 388.30528 137.806746 
L 395.60643 136.162738 
L 402.907581 134.515039 
L 410.208731 132.873869 
L 417.509881 131.265148 
L 424.811032 129.735282 
L 432.112182 128.355003 
" clip-path="url(#p12f9ec798a)" style="fill: none; stroke: #9467bd; stroke-width: 1.5; stroke-linecap: square"/>
   </g>
   <g id="line2d_20">
    <path d="M 74.355818 274.639857 
L 81.656968 265.310561 
L 88.958119 257.673977 
L 96.259269 251.378935 
L 103.560419 246.115501 
L 110.86157 241.622867 
L 118.16272 237.690566 
L 125.46387 234.156925 
L 132.76502 230.904377 
L 140.066171 227.852826 
L 147.367321 224.951531 
L 154.668471 222.171124 
L 161.969622 219.496333 
L 169.270772 216.919833 
L 176.571922 214.437587 
L 183.873072 212.045803 
L 191.174223 209.739536 
L 198.475373 207.512066 
L 205.776523 205.355416 
L 213.077673 203.261241 
L 220.378824 201.221783 
L 227.679974 199.230643 
L 234.981124 197.283196 
L 242.282275 195.376587 
L 249.583425 193.50937 
L 256.884575 191.680905 
L 264.185725 189.890681 
L 271.486876 188.137742 
L 278.788026 186.420335 
L 286.089176 184.735858 
L 293.390327 183.081111 
L 300.691477 181.452765 
L 307.992627 179.847947 
L 315.293777 178.26475 
L 322.594928 176.702541 
L 329.896078 175.161972 
L 337.197228 173.644619 
L 344.498378 172.152258 
L 351.799529 170.685977 
L 359.100679 169.245255 
L 366.401829 167.827335 
L 373.70298 166.427026 
L 381.00413 165.037253 
L 388.30528 163.650508 
L 395.60643 162.261218 
L 402.907581 160.868974 
L 410.208731 159.48239 
L 417.509881 158.123246 
L 424.811032 156.830481 
L 432.112182 155.663515 
" clip-path="url(#p12f9ec798a)" style="fill: none; stroke: #8c564b; stroke-width: 1.5; stroke-linecap: square"/>
   </g>
   <g id="line2d_21">
    <path d="M 74.355818 280.537476 
L 81.656968 272.958351 
L 88.958119 266.755162 
L 96.259269 261.642346 
L 103.560419 257.368282 
L 110.86157 253.720727 
L 118.16272 250.528637 
L 125.46387 247.66062 
L 132.76502 245.021112 
L 140.066171 242.544918 
L 147.367321 240.190764 
L 154.668471 237.934795 
L 161.969622 235.764613 
L 169.270772 233.674274 
L 176.571922 231.660519 
L 183.873072 229.720312 
L 191.174223 227.849545 
L 198.475373 226.042739 
L 205.776523 224.293399 
L 213.077673 222.594736 
L 220.378824 220.940444 
L 227.679974 219.325336 
L 234.981124 217.745666 
L 242.282275 216.19913 
L 249.583425 214.684566 
L 256.884575 213.201466 
L 264.185725 211.749418 
L 271.486876 210.327643 
L 278.788026 208.934711 
L 286.089176 207.568499 
L 293.390327 206.226401 
L 300.691477 204.905717 
L 307.992627 203.604114 
L 315.293777 202.320059 
L 322.594928 201.053059 
L 329.896078 199.803663 
L 337.197228 198.573153 
L 344.498378 197.362969 
L 351.799529 196.173983 
L 359.100679 195.005757 
L 366.401829 193.856003 
L 373.70298 192.720458 
L 381.00413 191.593342 
L 388.30528 190.468545 
L 395.60643 189.341565 
L 402.907581 188.212133 
L 410.208731 187.087353 
L 417.509881 185.985052 
L 424.811032 184.936989 
L 432.112182 183.991509 
" clip-path="url(#p12f9ec798a)" style="fill: none; stroke: #e377c2; stroke-width: 1.5; stroke-linecap: square"/>
   </g>
   <g id="line2d_22">
    <path d="M 74.355818 288.836387 
L 81.656968 283.670033 
L 88.958119 279.445748 
L 96.259269 275.966832 
L 103.560419 273.060287 
L 110.86157 270.580482 
L 118.16272 268.410298 
L 125.46387 266.460046 
L 132.76502 264.66474 
L 140.066171 262.980202 
L 147.367321 261.378602 
L 154.668471 259.843946 
L 161.969622 258.367962 
L 169.270772 256.946668 
L 176.571922 255.577818 
L 183.873072 254.259232 
L 191.174223 252.987973 
L 198.475373 251.760164 
L 205.776523 250.571277 
L 213.077673 249.416634 
L 220.378824 248.291959 
L 227.679974 247.193783 
L 234.981124 246.119661 
L 242.282275 245.06814 
L 249.583425 244.038521 
L 256.884575 243.03051 
L 264.185725 242.04383 
L 271.486876 241.077895 
L 278.788026 240.131635 
L 286.089176 239.203493 
L 293.390327 238.291589 
L 300.691477 237.394011 
L 307.992627 236.50916 
L 315.293777 235.636039 
L 322.594928 234.77442 
L 329.896078 233.924819 
L 337.197228 233.088253 
L 344.498378 232.265816 
L 351.799529 231.458143 
L 359.100679 230.664878 
L 366.401829 229.884307 
L 373.70298 229.113285 
L 381.00413 228.347601 
L 388.30528 227.582851 
L 395.60643 226.81586 
L 402.907581 226.046569 
L 410.208731 225.280263 
L 417.509881 224.529931 
L 424.811032 223.818486 
L 432.112182 223.180543 
" clip-path="url(#p12f9ec798a)" style="fill: none; stroke: #7f7f7f; stroke-width: 1.5; stroke-linecap: square"/>
   </g>
   <g id="patch_3">
    <path d="M 56.468 302.2 
L 56.468 10.8 
" style="fill: none; stroke: #000000; stroke-width: 0.8; stroke-linejoin: miter; stroke-linecap: square"/>
   </g>
   <g id="patch_4">
    <path d="M 450 302.2 
L 450 10.8 
" style="fill: none; stroke: #000000; stroke-width: 0.8; stroke-linejoin: miter; stroke-linecap: square"/>
   </g>
   <g id="patch_5">
    <path d="M 56.468 302.2 
L 450 302.2 
" style="fill: none; stroke: #000000; stroke-width: 0.8; stroke-linejoin: miter; stroke-linecap: square"/>
   </g>
   <g id="patch_6">
    <path d="M 56.468 10.8 
L 450 10.8 
" style="fill: none; stroke: #000000; stroke-width: 0.8; stroke-linejoin: miter; stroke-linecap: square"/>
   </g>
   <g id="legend_1">
    <g id="patch_7">
     <path d="M 63.468 150.903125 
L 162.302375 150.903125 
Q 164.302375 150.903125 164.302375 148.903125 
L 164.302375 17.8 
Q 164.302375 15.8 162.302375 15.8 
L 63.468 15.8 
Q 61.468 15.8 61.468 17.8 
L 61.468 148.903125 
Q 61.468 150.903125 63.468 150.903125 
z
" style="fill: #ffffff; opacity: 0.8; stroke: #cccccc; stroke-linejoin: miter"/>
    </g>
    <g id="line2d_23">
     <path d="M 65.468 23.898438 
L 75.468 23.898438 
L 85.468 23.898438 
" style="fill: none; stroke: #1f77b4; stroke-width: 1.5; stroke-linecap: square"/>
    </g>
    <g id="text_17">
     <!-- Ts=80 K -->
     <g transform="translate(93.468 27.398438) scale(0.1 -0.1)">
      <defs>
       <path id="DejaVuSans-54" d="M -19 4666 
L 3928 4666 
L 3928 4134 
L 2272 4134 
L 2272 0 
L 1638 0 
L 1638 4134 
L -19 4134 
L -19 4666 
z
" transform="scale(0.015625)"/>
       <path id="DejaVuSans-73" d="M 2834 3397 
L 2834 2853 
Q 2591 2978 2328 3040 
Q 2066 3103 1784 3103 
Q 1356 3103 1142 2972 
Q 928 2841 928 2578 
Q 928 2378 1081 2264 
Q 1234 2150 1697 2047 
L 1894 2003 
Q 2506 1872 2764 1633 
Q 3022 1394 3022 966 
Q 3022 478 2636 193 
Q 2250 -91 1575 -91 
Q 1294 -91 989 -36 
Q 684 19 347 128 
L 347 722 
Q 666 556 975 473 
Q 1284 391 1588 391 
Q 1994 391 2212 530 
Q 2431 669 2431 922 
Q 2431 1156 2273 1281 
Q 2116 1406 1581 1522 
L 1381 1569 
Q 847 1681 609 1914 
Q 372 2147 372 2553 
Q 372 3047 722 3315 
Q 1072 3584 1716 3584 
Q 2034 3584 2315 3537 
Q 2597 3491 2834 3397 
z
" transform="scale(0.015625)"/>
       <path id="DejaVuSans-3d" d="M 678 2906 
L 4684 2906 
L 4684 2381 
L 678 2381 
L 678 2906 
z
M 678 1631 
L 4684 1631 
L 4684 1100 
L 678 1100 
L 678 1631 
z
" transform="scale(0.015625)"/>
       <path id="DejaVuSans-38" d="M 2034 2216 
Q 1584 2216 1326 1975 
Q 1069 1734 1069 1313 
Q 1069 891 1326 650 
Q 1584 409 2034 409 
Q 2484 409 2743 651 
Q 3003 894 3003 1313 
Q 3003 1734 2745 1975 
Q 2488 2216 2034 2216 
z
M 1403 2484 
Q 997 2584 770 2862 
Q 544 3141 544 3541 
Q 544 4100 942 4425 
Q 1341 4750 2034 4750 
Q 2731 4750 3128 4425 
Q 3525 4100 3525 3541 
Q 3525 3141 3298 2862 
Q 3072 2584 2669 2484 
Q 3125 2378 3379 2068 
Q 3634 1759 3634 1313 
Q 3634 634 3220 271 
Q 2806 -91 2034 -91 
Q 1263 -91 848 271 
Q 434 634 434 1313 
Q 434 1759 690 2068 
Q 947 2378 1403 2484 
z
M 1172 3481 
Q 1172 3119 1398 2916 
Q 1625 2713 2034 2713 
Q 2441 2713 2670 2916 
Q 2900 3119 2900 3481 
Q 2900 3844 2670 4047 
Q 2441 4250 2034 4250 
Q 1625 4250 1398 4047 
Q 1172 3844 1172 3481 
z
" transform="scale(0.015625)"/>
       <path id="DejaVuSans-4b" d="M 628 4666 
L 1259 4666 
L 1259 2694 
L 3353 4666 
L 4166 4666 
L 1850 2491 
L 4331 0 
L 3500 0 
L 1259 2247 
L 1259 0 
L 628 0 
L 628 4666 
z
" transform="scale(0.015625)"/>
      </defs>
      <use xlink:href="#DejaVuSans-54"/>
      <use xlink:href="#DejaVuSans-73" transform="translate(44.583984 0)"/>
      <use xlink:href="#DejaVuSans-3d" transform="translate(96.683594 0)"/>
      <use xlink:href="#DejaVuSans-38" transform="translate(180.472656 0)"/>
      <use xlink:href="#DejaVuSans-30" transform="translate(244.095703 0)"/>
      <use xlink:href="#DejaVuSans-20" transform="translate(307.71875 0)"/>
      <use xlink:href="#DejaVuSans-4b" transform="translate(339.505859 0)"/>
     </g>
    </g>
    <g id="line2d_24">
     <path d="M 65.468 38.576563 
L 75.468 38.576563 
L 85.468 38.576563 
" style="fill: none; stroke: #ff7f0e; stroke-width: 1.5; stroke-linecap: square"/>
    </g>
    <g id="text_18">
     <!-- Ts=100 K -->
     <g transform="translate(93.468 42.076563) scale(0.1 -0.1)">
      <use xlink:href="#DejaVuSans-54"/>
      <use xlink:href="#DejaVuSans-73" transform="translate(44.583984 0)"/>
      <use xlink:href="#DejaVuSans-3d" transform="translate(96.683594 0)"/>
      <use xlink:href="#DejaVuSans-31" transform="translate(180.472656 0)"/>
      <use xlink:href="#DejaVuSans-30" transform="translate(244.095703 0)"/>
      <use xlink:href="#DejaVuSans-30" transform="translate(307.71875 0)"/>
      <use xlink:href="#DejaVuSans-20" transform="translate(371.341797 0)"/>
      <use xlink:href="#DejaVuSans-4b" transform="translate(403.128906 0)"/>
     </g>
    </g>
    <g id="line2d_25">
     <path d="M 65.468 53.254687 
L 75.468 53.254687 
L 85.468 53.254687 
" style="fill: none; stroke: #2ca02c; stroke-width: 1.5; stroke-linecap: square"/>
    </g>
    <g id="text_19">
     <!-- Ts=120 K -->
     <g transform="translate(93.468 56.754687) scale(0.1 -0.1)">
      <use xlink:href="#DejaVuSans-54"/>
      <use xlink:href="#DejaVuSans-73" transform="translate(44.583984 0)"/>
      <use xlink:href="#DejaVuSans-3d" transform="translate(96.683594 0)"/>
      <use xlink:href="#DejaVuSans-31" transform="translate(180.472656 0)"/>
      <use xlink:href="#DejaVuSans-32" transform="translate(244.095703 0)"/>
      <use xlink:href="#DejaVuSans-30" transform="translate(307.71875 0)"/>
      <use xlink:href="#DejaVuSans-20" transform="translate(371.341797 0)"/>
      <use xlink:href="#DejaVuSans-4b" transform="translate(403.128906 0)"/>
     </g>
    </g>
    <g id="line2d_26">
     <path d="M 65.468 67.932813 
L 75.468 67.932813 
L 85.468 67.932813 
" style="fill: none; stroke: #d62728; stroke-width: 1.5; stroke-linecap: square"/>
    </g>
    <g id="text_20">
     <!-- Ts=140 K -->
     <g transform="translate(93.468 71.432813) scale(0.1 -0.1)">
      <use xlink:href="#DejaVuSans-54"/>
      <use xlink:href="#DejaVuSans-73" transform="translate(44.583984 0)"/>
      <use xlink:href="#DejaVuSans-3d" transform="translate(96.683594 0)"/>
      <use xlink:href="#DejaVuSans-31" transform="translate(180.472656 0)"/>
      <use xlink:href="#DejaVuSans-34" transform="translate(244.095703 0)"/>
      <use xlink:href="#DejaVuSans-30" transform="translate(307.71875 0)"/>
      <use xlink:href="#DejaVuSans-20" transform="translate(371.341797 0)"/>
      <use xlink:href="#DejaVuSans-4b" transform="translate(403.128906 0)"/>
     </g>
    </g>
    <g id="line2d_27">
     <path d="M 65.468 82.610938 
L 75.468 82.610938 
L 85.468 82.610938 
" style="fill: none; stroke: #9467bd; stroke-width: 1.5; stroke-linecap: square"/>
    </g>
    <g id="text_21">
     <!-- Ts=160 K -->
     <g transform="translate(93.468 86.110938) scale(0.1 -0.1)">
      <defs>
       <path id="DejaVuSans-36" d="M 2113 2584 
Q 1688 2584 1439 2293 
Q 1191 2003 1191 1497 
Q 1191 994 1439 701 
Q 1688 409 2113 409 
Q 2538 409 2786 701 
Q 3034 994 3034 1497 
Q 3034 2003 2786 2293 
Q 2538 2584 2113 2584 
z
M 3366 4563 
L 3366 3988 
Q 3128 4100 2886 4159 
Q 2644 4219 2406 4219 
Q 1781 4219 1451 3797 
Q 1122 3375 1075 2522 
Q 1259 2794 1537 2939 
Q 1816 3084 2150 3084 
Q 2853 3084 3261 2657 
Q 3669 2231 3669 1497 
Q 3669 778 3244 343 
Q 2819 -91 2113 -91 
Q 1303 -91 875 529 
Q 447 1150 447 2328 
Q 447 3434 972 4092 
Q 1497 4750 2381 4750 
Q 2619 4750 2861 4703 
Q 3103 4656 3366 4563 
z
" transform="scale(0.015625)"/>
      </defs>
      <use xlink:href="#DejaVuSans-54"/>
      <use xlink:href="#DejaVuSans-73" transform="translate(44.583984 0)"/>
      <use xlink:href="#DejaVuSans-3d" transform="translate(96.683594 0)"/>
      <use xlink:href="#DejaVuSans-31" transform="translate(180.472656 0)"/>
      <use xlink:href="#DejaVuSans-36" transform="translate(244.095703 0)"/>
      <use xlink:href="#DejaVuSans-30" transform="translate(307.71875 0)"/>
      <use xlink:href="#DejaVuSans-20" transform="translate(371.341797 0)"/>
      <use xlink:href="#DejaVuSans-4b" transform="translate(403.128906 0)"/>
     </g>
    </g>
    <g id="line2d_28">
     <path d="M 65.468 97.289062 
L 75.468 97.289062 
L 85.468 97.289062 
" style="fill: none; stroke: #8c564b; stroke-width: 1.5; stroke-linecap: square"/>
    </g>
    <g id="text_22">
     <!-- Ts=180 K -->
     <g transform="translate(93.468 100.789062) scale(0.1 -0.1)">
      <use xlink:href="#DejaVuSans-54"/>
      <use xlink:href="#DejaVuSans-73" transform="translate(44.583984 0)"/>
      <use xlink:href="#DejaVuSans-3d" transform="translate(96.683594 0)"/>
      <use xlink:href="#DejaVuSans-31" transform="translate(180.472656 0)"/>
      <use xlink:href="#DejaVuSans-38" transform="translate(244.095703 0)"/>
      <use xlink:href="#DejaVuSans-30" transform="translate(307.71875 0)"/>
      <use xlink:href="#DejaVuSans-20" transform="translate(371.341797 0)"/>
      <use xlink:href="#DejaVuSans-4b" transform="translate(403.128906 0)"/>
     </g>
    </g>
    <g id="line2d_29">
     <path d="M 65.468 111.967187 
L 75.468 111.967187 
L 85.468 111.967187 
" style="fill: none; stroke: #e377c2; stroke-width: 1.5; stroke-linecap: square"/>
    </g>
    <g id="text_23">
     <!-- Ts=200 K -->
     <g transform="translate(93.468 115.467187) scale(0.1 -0.1)">
      <use xlink:href="#DejaVuSans-54"/>
      <use xlink:href="#DejaVuSans-73" transform="translate(44.583984 0)"/>
      <use xlink:href="#DejaVuSans-3d" transform="translate(96.683594 0)"/>
      <use xlink:href="#DejaVuSans-32" transform="translate(180.472656 0)"/>
      <use xlink:href="#DejaVuSans-30" transform="translate(244.095703 0)"/>
      <use xlink:href="#DejaVuSans-30" transform="translate(307.71875 0)"/>
      <use xlink:href="#DejaVuSans-20" transform="translate(371.341797 0)"/>
      <use xlink:href="#DejaVuSans-4b" transform="translate(403.128906 0)"/>
     </g>
    </g>
    <g id="line2d_30">
     <path d="M 65.468 126.645312 
L 75.468 126.645312 
L 85.468 126.645312 
" style="fill: none; stroke: #7f7f7f; stroke-width: 1.5; stroke-linecap: square"/>
    </g>
    <g id="text_24">
     <!-- Ts=220 K -->
     <g transform="translate(93.468 130.145312) scale(0.1 -0.1)">
      <use xlink:href="#DejaVuSans-54"/>
      <use xlink:href="#DejaVuSans-73" transform="translate(44.583984 0)"/>
      <use xlink:href="#DejaVuSans-3d" transform="translate(96.683594 0)"/>
      <use xlink:href="#DejaVuSans-32" transform="translate(180.472656 0)"/>
      <use xlink:href="#DejaVuSans-32" transform="translate(244.095703 0)"/>
      <use xlink:href="#DejaVuSans-30" transform="translate(307.71875 0)"/>
      <use xlink:href="#DejaVuSans-20" transform="translate(371.341797 0)"/>
      <use xlink:href="#DejaVuSans-4b" transform="translate(403.128906 0)"/>
     </g>
    </g>
    <g id="PathCollection_9">
     <g>
      <use xlink:href="#ma01919f94c" x="75.468" y="142.198437" style="fill-opacity: 0.7; stroke: #000000; stroke-opacity: 0.7"/>
     </g>
    </g>
    <g id="text_25">
     <!-- Artificial data -->
     <g transform="translate(93.468 144.823437) scale(0.1 -0.1)">
      <defs>
       <path id="DejaVuSans-41" d="M 2188 4044 
L 1331 1722 
L 3047 1722 
L 2188 4044 
z
M 1831 4666 
L 2547 4666 
L 4325 0 
L 3669 0 
L 3244 1197 
L 1141 1197 
L 716 0 
L 50 0 
L 1831 4666 
z
" transform="scale(0.015625)"/>
       <path id="DejaVuSans-74" d="M 1172 4494 
L 1172 3500 
L 2356 3500 
L 2356 3053 
L 1172 3053 
L 1172 1153 
Q 1172 725 1289 603 
Q 1406 481 1766 481 
L 2356 481 
L 2356 0 
L 1766 0 
Q 1100 0 847 248 
Q 594 497 594 1153 
L 594 3053 
L 172 3053 
L 172 3500 
L 594 3500 
L 594 4494 
L 1172 4494 
z
" transform="scale(0.015625)"/>
       <path id="DejaVuSans-69" d="M 603 3500 
L 1178 3500 
L 1178 0 
L 603 0 
L 603 3500 
z
M 603 4863 
L 1178 4863 
L 1178 4134 
L 603 4134 
L 603 4863 
z
" transform="scale(0.015625)"/>
       <path id="DejaVuSans-66" d="M 2375 4863 
L 2375 4384 
L 1825 4384 
Q 1516 4384 1395 4259 
Q 1275 4134 1275 3809 
L 1275 3500 
L 2222 3500 
L 2222 3053 
L 1275 3053 
L 1275 0 
L 697 0 
L 697 3053 
L 147 3053 
L 147 3500 
L 697 3500 
L 697 3744 
Q 697 4328 969 4595 
Q 1241 4863 1831 4863 
L 2375 4863 
z
" transform="scale(0.015625)"/>
       <path id="DejaVuSans-63" d="M 3122 3366 
L 3122 2828 
Q 2878 2963 2633 3030 
Q 2388 3097 2138 3097 
Q 1578 3097 1268 2742 
Q 959 2388 959 1747 
Q 959 1106 1268 751 
Q 1578 397 2138 397 
Q 2388 397 2633 464 
Q 2878 531 3122 666 
L 3122 134 
Q 2881 22 2623 -34 
Q 2366 -91 2075 -91 
Q 1284 -91 818 406 
Q 353 903 353 1747 
Q 353 2603 823 3093 
Q 1294 3584 2113 3584 
Q 2378 3584 2631 3529 
Q 2884 3475 3122 3366 
z
" transform="scale(0.015625)"/>
       <path id="DejaVuSans-61" d="M 2194 1759 
Q 1497 1759 1228 1600 
Q 959 1441 959 1056 
Q 959 750 1161 570 
Q 1363 391 1709 391 
Q 2188 391 2477 730 
Q 2766 1069 2766 1631 
L 2766 1759 
L 2194 1759 
z
M 3341 1997 
L 3341 0 
L 2766 0 
L 2766 531 
Q 2569 213 2275 61 
Q 1981 -91 1556 -91 
Q 1019 -91 701 211 
Q 384 513 384 1019 
Q 384 1609 779 1909 
Q 1175 2209 1959 2209 
L 2766 2209 
L 2766 2266 
Q 2766 2663 2505 2880 
Q 2244 3097 1772 3097 
Q 1472 3097 1187 3025 
Q 903 2953 641 2809 
L 641 3341 
Q 956 3463 1253 3523 
Q 1550 3584 1831 3584 
Q 2591 3584 2966 3190 
Q 3341 2797 3341 1997 
z
" transform="scale(0.015625)"/>
       <path id="DejaVuSans-6c" d="M 603 4863 
L 1178 4863 
L 1178 0 
L 603 0 
L 603 4863 
z
" transform="scale(0.015625)"/>
       <path id="DejaVuSans-64" d="M 2906 2969 
L 2906 4863 
L 3481 4863 
L 3481 0 
L 2906 0 
L 2906 525 
Q 2725 213 2448 61 
Q 2172 -91 1784 -91 
Q 1150 -91 751 415 
Q 353 922 353 1747 
Q 353 2572 751 3078 
Q 1150 3584 1784 3584 
Q 2172 3584 2448 3432 
Q 2725 3281 2906 2969 
z
M 947 1747 
Q 947 1113 1208 752 
Q 1469 391 1925 391 
Q 2381 391 2643 752 
Q 2906 1113 2906 1747 
Q 2906 2381 2643 2742 
Q 2381 3103 1925 3103 
Q 1469 3103 1208 2742 
Q 947 2381 947 1747 
z
" transform="scale(0.015625)"/>
      </defs>
      <use xlink:href="#DejaVuSans-41"/>
      <use xlink:href="#DejaVuSans-72" transform="translate(68.408203 0)"/>
      <use xlink:href="#DejaVuSans-74" transform="translate(109.521484 0)"/>
      <use xlink:href="#DejaVuSans-69" transform="translate(148.730469 0)"/>
      <use xlink:href="#DejaVuSans-66" transform="translate(176.513672 0)"/>
      <use xlink:href="#DejaVuSans-69" transform="translate(211.71875 0)"/>
      <use xlink:href="#DejaVuSans-63" transform="translate(239.501953 0)"/>
      <use xlink:href="#DejaVuSans-69" transform="translate(294.482422 0)"/>
      <use xlink:href="#DejaVuSans-61" transform="translate(322.265625 0)"/>
      <use xlink:href="#DejaVuSans-6c" transform="translate(383.544922 0)"/>
      <use xlink:href="#DejaVuSans-20" transform="translate(411.328125 0)"/>
      <use xlink:href="#DejaVuSans-64" transform="translate(443.115234 0)"/>
      <use xlink:href="#DejaVuSans-61" transform="translate(506.591797 0)"/>
      <use xlink:href="#DejaVuSans-74" transform="translate(567.871094 0)"/>
      <use xlink:href="#DejaVuSans-61" transform="translate(607.080078 0)"/>
     </g>
    </g>
   </g>
  </g>
 </g>
 <defs>
  <clipPath id="p12f9ec798a">
   <rect x="56.468" y="10.8" width="393.532" height="291.4"/>
  </clipPath>
 </defs>
</svg>
