<?xml version="1.0" encoding="utf-8" standalone="no"?>
<!DOCTYPE svg PUBLIC "-//W3C//DTD SVG 1.1//EN"
  "http://www.w3.org/Graphics/SVG/1.1/DTD/svg11.dtd">
<svg xmlns:xlink="http://www.w3.org/1999/xlink" width="460.8pt" height="345.6pt" viewBox="0 0 460.8 345.6" xmlns="http://www.w3.org/2000/svg" version="1.1">
 <metadata>
  <rdf:RDF xmlns:dc="http://purl.org/dc/elements/1.1/" xmlns:cc="http://creativecommons.org/ns#" xmlns:rdf="http://www.w3.org/1999/02/22-rdf-syntax-ns#">
   <cc:Work>
    <dc:type rdf:resource="http://purl.org/dc/dcmitype/StillImage"/>
    <dc:date>2026-02-11T13:32:39.847869</dc:date>
    <dc:format>image/svg+xml</dc:format>
    <dc:creator>
     <cc:Agent>
      <dc:title>Matplotlib v3.10.8, https://matplotlib.org/</dc:title>
     </cc:Agent>
    </dc:creator>
   </cc:Work>
  </rdf:RDF>
 </metadata>
 <defs>
  <style type="text/css">*{stroke-linejoin: round; stroke-linecap: butt}</style>
 </defs>
 <g id="figure_1">
  <g id="patch_1">
   <path d="M 0 345.6 
L 460.8 345.6 
L 460.8 0 
L 0 0 
L 0 345.6 
z
" style="fill: none"/>
  </g>
  <g id="axes_1">
   <g id="patch_2">
    <path d="M 56.468 302.2 
L 450 302.2 
L 450 10.8 
L 56.468 10.8 
L 56.468 302.2 
z
" style="fill: none"/>
   </g>
   <g id="FillBetweenPolyCollection_1">
    <path d="M 74.355818 244.831741 
L 74.355818 250.153947 
L 81.656968 233.61474 
L 88.958119 219.47729 
L 96.259269 207.644163 
L 103.560419 197.713474 
L 110.86157 189.405796 
L 118.16272 182.188708 
L 125.46387 175.71666 
L 132.76502 169.597532 
L 140.066171 163.93135 
L 147.367321 158.53123 
L 154.668471 153.340314 
L 161.969622 148.40619 
L 169.270772 143.581401 
L 176.571922 138.950632 
L 183.873072 134.495974 
L 191.174223 130.270705 
L 198.475373 126.14787 
L 205.776523 122.083671 
L 213.077673 118.141685 
L 220.378824 114.389385 
L 227.679974 110.803054 
L 234.981124 107.092073 
L 242.282275 103.528796 
L 249.583425 100.02536 
L 256.884575 96.623382 
L 264.185725 93.307474 
L 271.486876 90.11454 
L 278.788026 86.861025 
L 286.089176 83.736541 
L 293.390327 80.651213 
L 300.691477 77.683951 
L 307.992627 74.713658 
L 315.293777 71.699249 
L 322.594928 68.719707 
L 329.896078 65.934996 
L 337.197228 63.134981 
L 344.498378 60.431466 
L 351.799529 57.48849 
L 359.100679 55.031074 
L 366.401829 52.372227 
L 373.70298 49.726376 
L 381.00413 47.26491 
L 388.30528 44.556404 
L 395.60643 41.892122 
L 402.907581 39.423949 
L 410.208731 37.117396 
L 417.509881 34.773683 
L 424.811032 32.498183 
L 432.112182 29.575381 
L 432.112182 24.045455 
L 432.112182 24.045455 
L 424.811032 25.648025 
L 417.509881 28.01127 
L 410.208731 30.637337 
L 402.907581 33.531418 
L 395.60643 36.226676 
L 388.30528 38.788379 
L 381.00413 41.544612 
L 373.70298 43.950843 
L 366.401829 46.667844 
L 359.100679 49.30453 
L 351.799529 51.992152 
L 344.498378 54.714997 
L 337.197228 57.454954 
L 329.896078 60.384487 
L 322.594928 63.265228 
L 315.293777 66.120567 
L 307.992627 69.166963 
L 300.691477 72.088472 
L 293.390327 75.046708 
L 286.089176 78.11053 
L 278.788026 81.230801 
L 271.486876 84.443857 
L 264.185725 87.837343 
L 256.884575 91.167498 
L 249.583425 94.460947 
L 242.282275 98.036302 
L 234.981124 101.596581 
L 227.679974 105.147634 
L 220.378824 108.897158 
L 213.077673 112.748496 
L 205.776523 116.529934 
L 198.475373 120.545136 
L 191.174223 124.723243 
L 183.873072 129.035733 
L 176.571922 133.468046 
L 169.270772 138.026992 
L 161.969622 142.912248 
L 154.668471 147.82978 
L 147.367321 153.101565 
L 140.066171 158.380144 
L 132.76502 163.954679 
L 125.46387 169.989233 
L 118.16272 176.605868 
L 110.86157 183.891577 
L 103.560419 192.236805 
L 96.259269 201.74103 
L 88.958119 213.204031 
L 81.656968 227.191983 
L 74.355818 244.831741 
z
" clip-path="url(#p665023ee45)" style="fill: #1f77b4; fill-opacity: 0.45"/>
   </g>
   <g id="PathCollection_1">
    <defs>
     <path id="m69f067a39d" d="M 0 2.12132 
C 0.562581 2.12132 1.102195 1.897805 1.5 1.5 
C 1.897805 1.102195 2.12132 0.562581 2.12132 0 
C 2.12132 -0.562581 1.897805 -1.102195 1.5 -1.5 
C 1.102195 -1.897805 0.562581 -2.12132 0 -2.12132 
C -0.562581 -2.12132 -1.102195 -1.897805 -1.5 -1.5 
C -1.897805 -1.102195 -2.12132 -0.562581 -2.12132 0 
C -2.12132 0.562581 -1.897805 1.102195 -1.5 1.5 
C -1.102195 1.897805 -0.562581 2.12132 0 2.12132 
z
" style="stroke: #000000; stroke-opacity: 0.7"/>
    </defs>
    <g clip-path="url(#p665023ee45)">
     <use xlink:href="#m69f067a39d" x="74.355818" y="247.228483" style="fill-opacity: 0.7; stroke: #000000; stroke-opacity: 0.7"/>
     <use xlink:href="#m69f067a39d" x="106.879124" y="191.659531" style="fill-opacity: 0.7; stroke: #000000; stroke-opacity: 0.7"/>
     <use xlink:href="#m69f067a39d" x="143.01613" y="159.352118" style="fill-opacity: 0.7; stroke: #000000; stroke-opacity: 0.7"/>
     <use xlink:href="#m69f067a39d" x="179.153137" y="137.735401" style="fill-opacity: 0.7; stroke: #000000; stroke-opacity: 0.7"/>
     <use xlink:href="#m69f067a39d" x="215.290143" y="111.709502" style="fill-opacity: 0.7; stroke: #000000; stroke-opacity: 0.7"/>
     <use xlink:href="#m69f067a39d" x="251.42715" y="94.720391" style="fill-opacity: 0.7; stroke: #000000; stroke-opacity: 0.7"/>
     <use xlink:href="#m69f067a39d" x="287.564156" y="80.578857" style="fill-opacity: 0.7; stroke: #000000; stroke-opacity: 0.7"/>
     <use xlink:href="#m69f067a39d" x="323.701163" y="64.334174" style="fill-opacity: 0.7; stroke: #000000; stroke-opacity: 0.7"/>
     <use xlink:href="#m69f067a39d" x="359.838169" y="51.260112" style="fill-opacity: 0.7; stroke: #000000; stroke-opacity: 0.7"/>
     <use xlink:href="#m69f067a39d" x="395.975175" y="39.494609" style="fill-opacity: 0.7; stroke: #000000; stroke-opacity: 0.7"/>
     <use xlink:href="#m69f067a39d" x="432.112182" y="25.280516" style="fill-opacity: 0.7; stroke: #000000; stroke-opacity: 0.7"/>
    </g>
   </g>
   <g id="FillBetweenPolyCollection_2">
    <path d="M 74.355818 248.644065 
L 74.355818 253.833303 
L 81.656968 238.505161 
L 88.958119 225.500701 
L 96.259269 214.44781 
L 103.560419 205.438824 
L 110.86157 197.610363 
L 118.16272 190.976499 
L 125.46387 184.939624 
L 132.76502 179.289948 
L 140.066171 174.008438 
L 147.367321 168.937466 
L 154.668471 164.374517 
L 161.969622 159.826441 
L 169.270772 155.225286 
L 176.571922 151.022138 
L 183.873072 146.906527 
L 191.174223 142.864097 
L 198.475373 139.304908 
L 205.776523 135.417186 
L 213.077673 131.874162 
L 220.378824 128.321993 
L 227.679974 124.966456 
L 234.981124 121.674191 
L 242.282275 118.248773 
L 249.583425 115.164573 
L 256.884575 111.994194 
L 264.185725 108.896974 
L 271.486876 105.810438 
L 278.788026 102.851982 
L 286.089176 99.985998 
L 293.390327 97.097382 
L 300.691477 94.407613 
L 307.992627 91.840553 
L 315.293777 88.949291 
L 322.594928 86.24923 
L 329.896078 83.623192 
L 337.197228 80.998759 
L 344.498378 78.506983 
L 351.799529 75.976881 
L 359.100679 73.514609 
L 366.401829 71.047069 
L 373.70298 68.711868 
L 381.00413 66.483408 
L 388.30528 63.900288 
L 395.60643 61.439524 
L 402.907581 59.135165 
L 410.208731 57.115439 
L 417.509881 55.0061 
L 424.811032 52.73768 
L 432.112182 50.185668 
L 432.112182 44.616482 
L 432.112182 44.616482 
L 424.811032 45.992277 
L 417.509881 48.257085 
L 410.208731 50.784666 
L 402.907581 53.449665 
L 395.60643 55.992501 
L 388.30528 58.23873 
L 381.00413 60.664786 
L 373.70298 63.034854 
L 366.401829 65.567604 
L 359.100679 68.0308 
L 351.799529 70.41862 
L 344.498378 72.938082 
L 337.197228 75.586333 
L 329.896078 78.189734 
L 322.594928 80.765703 
L 315.293777 83.524886 
L 307.992627 86.215037 
L 300.691477 88.952399 
L 293.390327 91.736832 
L 286.089176 94.600414 
L 278.788026 97.512893 
L 271.486876 100.43218 
L 264.185725 103.442401 
L 256.884575 106.598156 
L 249.583425 109.724957 
L 242.282275 112.814012 
L 234.981124 116.093879 
L 227.679974 119.573046 
L 220.378824 122.913413 
L 213.077673 126.464041 
L 205.776523 129.958464 
L 198.475373 133.836291 
L 191.174223 137.500914 
L 183.873072 141.391111 
L 176.571922 145.624478 
L 169.270772 149.942591 
L 161.969622 154.312908 
L 154.668471 158.92074 
L 147.367321 163.620464 
L 140.066171 168.507421 
L 132.76502 173.784197 
L 125.46387 179.394253 
L 118.16272 185.515041 
L 110.86157 192.150227 
L 103.560419 199.856965 
L 96.259269 208.641932 
L 88.958119 219.106957 
L 81.656968 232.084575 
L 74.355818 248.644065 
z
" clip-path="url(#p665023ee45)" style="fill: #ff7f0e; fill-opacity: 0.45"/>
   </g>
   <g id="PathCollection_2">
    <g clip-path="url(#p665023ee45)">
     <use xlink:href="#m69f067a39d" x="74.355818" y="252.026332" style="fill-opacity: 0.7; stroke: #000000; stroke-opacity: 0.7"/>
     <use xlink:href="#m69f067a39d" x="106.879124" y="200.23597" style="fill-opacity: 0.7; stroke: #000000; stroke-opacity: 0.7"/>
     <use xlink:href="#m69f067a39d" x="143.01613" y="171.411329" style="fill-opacity: 0.7; stroke: #000000; stroke-opacity: 0.7"/>
     <use xlink:href="#m69f067a39d" x="179.153137" y="147.485951" style="fill-opacity: 0.7; stroke: #000000; stroke-opacity: 0.7"/>
     <use xlink:href="#m69f067a39d" x="215.290143" y="129.594144" style="fill-opacity: 0.7; stroke: #000000; stroke-opacity: 0.7"/>
     <use xlink:href="#m69f067a39d" x="251.42715" y="112.390991" style="fill-opacity: 0.7; stroke: #000000; stroke-opacity: 0.7"/>
     <use xlink:href="#m69f067a39d" x="287.564156" y="99.199057" style="fill-opacity: 0.7; stroke: #000000; stroke-opacity: 0.7"/>
     <use xlink:href="#m69f067a39d" x="323.701163" y="84.702779" style="fill-opacity: 0.7; stroke: #000000; stroke-opacity: 0.7"/>
     <use xlink:href="#m69f067a39d" x="359.838169" y="73.503937" style="fill-opacity: 0.7; stroke: #000000; stroke-opacity: 0.7"/>
     <use xlink:href="#m69f067a39d" x="395.975175" y="59.409093" style="fill-opacity: 0.7; stroke: #000000; stroke-opacity: 0.7"/>
     <use xlink:href="#m69f067a39d" x="432.112182" y="49.151707" style="fill-opacity: 0.7; stroke: #000000; stroke-opacity: 0.7"/>
    </g>
   </g>
   <g id="FillBetweenPolyCollection_3">
    <path d="M 74.355818 252.7062 
L 74.355818 258.057838 
L 81.656968 244.062904 
L 88.958119 232.232673 
L 96.259269 222.15753 
L 103.560419 213.863959 
L 110.86157 206.781178 
L 118.16272 200.748651 
L 125.46387 195.242448 
L 132.76502 190.065939 
L 140.066171 185.35735 
L 147.367321 180.724939 
L 154.668471 176.560653 
L 161.969622 172.308684 
L 169.270772 168.349364 
L 176.571922 164.393161 
L 183.873072 160.72316 
L 191.174223 157.099259 
L 198.475373 153.595873 
L 205.776523 150.248709 
L 213.077673 146.90921 
L 220.378824 143.756357 
L 227.679974 140.700648 
L 234.981124 137.611674 
L 242.282275 134.580447 
L 249.583425 131.710875 
L 256.884575 128.738244 
L 264.185725 126.021627 
L 271.486876 123.255539 
L 278.788026 120.569433 
L 286.089176 118.043032 
L 293.390327 115.500221 
L 300.691477 112.863313 
L 307.992627 110.426546 
L 315.293777 107.924712 
L 322.594928 105.546028 
L 329.896078 103.022706 
L 337.197228 100.735697 
L 344.498378 98.454638 
L 351.799529 96.093058 
L 359.100679 93.752706 
L 366.401829 91.659791 
L 373.70298 89.453374 
L 381.00413 87.229431 
L 388.30528 85.168797 
L 395.60643 82.844434 
L 402.907581 80.918235 
L 410.208731 78.998485 
L 417.509881 77.134419 
L 424.811032 75.065292 
L 432.112182 72.445852 
L 432.112182 67.066684 
L 432.112182 67.066684 
L 424.811032 68.401531 
L 417.509881 70.434625 
L 410.208731 72.610094 
L 402.907581 75.185655 
L 395.60643 77.490244 
L 388.30528 79.537988 
L 381.00413 81.794286 
L 373.70298 83.886172 
L 366.401829 86.114757 
L 359.100679 88.528539 
L 351.799529 90.660299 
L 344.498378 92.953275 
L 337.197228 95.225144 
L 329.896078 97.688793 
L 322.594928 99.962033 
L 315.293777 102.489458 
L 307.992627 104.975882 
L 300.691477 107.492224 
L 293.390327 110.024767 
L 286.089176 112.596785 
L 278.788026 115.275552 
L 271.486876 117.943937 
L 264.185725 120.681795 
L 256.884575 123.428897 
L 249.583425 126.309803 
L 242.282275 129.232854 
L 234.981124 132.215425 
L 227.679974 135.272937 
L 220.378824 138.420194 
L 213.077673 141.571793 
L 205.776523 144.828325 
L 198.475373 148.139302 
L 191.174223 151.586091 
L 183.873072 155.140631 
L 176.571922 158.981183 
L 169.270772 162.953348 
L 161.969622 166.842171 
L 154.668471 170.94795 
L 147.367321 175.337046 
L 140.066171 179.938828 
L 132.76502 184.623126 
L 125.46387 189.587851 
L 118.16272 195.145621 
L 110.86157 201.366923 
L 103.560419 208.434762 
L 96.259269 216.387419 
L 88.958119 225.832711 
L 81.656968 237.788332 
L 74.355818 252.7062 
z
" clip-path="url(#p665023ee45)" style="fill: #2ca02c; fill-opacity: 0.45"/>
   </g>
   <g id="PathCollection_3">
    <g clip-path="url(#p665023ee45)">
     <use xlink:href="#m69f067a39d" x="74.355818" y="255.728308" style="fill-opacity: 0.7; stroke: #000000; stroke-opacity: 0.7"/>
     <use xlink:href="#m69f067a39d" x="106.879124" y="208.816225" style="fill-opacity: 0.7; stroke: #000000; stroke-opacity: 0.7"/>
     <use xlink:href="#m69f067a39d" x="143.01613" y="184.150771" style="fill-opacity: 0.7; stroke: #000000; stroke-opacity: 0.7"/>
     <use xlink:href="#m69f067a39d" x="179.153137" y="161.680629" style="fill-opacity: 0.7; stroke: #000000; stroke-opacity: 0.7"/>
     <use xlink:href="#m69f067a39d" x="215.290143" y="143.181164" style="fill-opacity: 0.7; stroke: #000000; stroke-opacity: 0.7"/>
     <use xlink:href="#m69f067a39d" x="251.42715" y="133.380869" style="fill-opacity: 0.7; stroke: #000000; stroke-opacity: 0.7"/>
     <use xlink:href="#m69f067a39d" x="287.564156" y="120.223382" style="fill-opacity: 0.7; stroke: #000000; stroke-opacity: 0.7"/>
     <use xlink:href="#m69f067a39d" x="323.701163" y="107.74002" style="fill-opacity: 0.7; stroke: #000000; stroke-opacity: 0.7"/>
     <use xlink:href="#m69f067a39d" x="359.838169" y="93.287196" style="fill-opacity: 0.7; stroke: #000000; stroke-opacity: 0.7"/>
     <use xlink:href="#m69f067a39d" x="395.975175" y="83.621174" style="fill-opacity: 0.7; stroke: #000000; stroke-opacity: 0.7"/>
     <use xlink:href="#m69f067a39d" x="432.112182" y="72.322379" style="fill-opacity: 0.7; stroke: #000000; stroke-opacity: 0.7"/>
    </g>
   </g>
   <g id="FillBetweenPolyCollection_4">
    <path d="M 74.355818 258.919968 
L 74.355818 264.297622 
L 81.656968 252.299471 
L 88.958119 242.106095 
L 96.259269 233.582975 
L 103.560419 226.337928 
L 110.86157 220.204539 
L 118.16272 215.002239 
L 125.46387 210.358663 
L 132.76502 205.829558 
L 140.066171 201.771794 
L 147.367321 197.968605 
L 154.668471 194.302177 
L 161.969622 190.640177 
L 169.270772 187.146924 
L 176.571922 183.827911 
L 183.873072 180.699526 
L 191.174223 177.472746 
L 198.475373 174.527878 
L 205.776523 171.601018 
L 213.077673 168.950841 
L 220.378824 166.17276 
L 227.679974 163.456107 
L 234.981124 160.778167 
L 242.282275 158.309781 
L 249.583425 155.764147 
L 256.884575 153.305062 
L 264.185725 150.897314 
L 271.486876 148.598985 
L 278.788026 146.263922 
L 286.089176 144.041081 
L 293.390327 141.767492 
L 300.691477 139.583528 
L 307.992627 137.46791 
L 315.293777 135.277231 
L 322.594928 133.194798 
L 329.896078 131.03469 
L 337.197228 129.168617 
L 344.498378 127.132148 
L 351.799529 125.257566 
L 359.100679 123.224701 
L 366.401829 121.321179 
L 373.70298 119.556209 
L 381.00413 117.70682 
L 388.30528 115.835269 
L 395.60643 113.815259 
L 402.907581 112.115753 
L 410.208731 110.646924 
L 417.509881 108.983862 
L 424.811032 107.279472 
L 432.112182 105.009419 
L 432.112182 99.6246 
L 432.112182 99.6246 
L 424.811032 100.520425 
L 417.509881 102.155632 
L 410.208731 104.212717 
L 402.907581 106.367535 
L 395.60643 108.434877 
L 388.30528 110.235782 
L 381.00413 112.02698 
L 373.70298 113.941904 
L 366.401829 115.919952 
L 359.100679 117.785895 
L 351.799529 119.645376 
L 344.498378 121.683506 
L 337.197228 123.677954 
L 329.896078 125.701959 
L 322.594928 127.880114 
L 315.293777 129.789122 
L 307.992627 132.04889 
L 300.691477 134.098649 
L 293.390327 136.266253 
L 286.089176 138.643155 
L 278.788026 140.85225 
L 271.486876 143.167503 
L 264.185725 145.503767 
L 256.884575 147.942529 
L 249.583425 150.261068 
L 242.282275 152.765407 
L 234.981124 155.369742 
L 227.679974 157.992187 
L 220.378824 160.636614 
L 213.077673 163.376942 
L 205.776523 166.32975 
L 198.475373 169.041704 
L 191.174223 172.099424 
L 183.873072 175.182351 
L 176.571922 178.449468 
L 169.270772 181.754445 
L 161.969622 185.199136 
L 154.668471 188.720797 
L 147.367321 192.51237 
L 140.066171 196.434149 
L 132.76502 200.412466 
L 125.46387 204.584546 
L 118.16272 209.499585 
L 110.86157 214.802499 
L 103.560419 220.914389 
L 96.259269 227.638953 
L 88.958119 235.815318 
L 81.656968 245.971861 
L 74.355818 258.919968 
z
" clip-path="url(#p665023ee45)" style="fill: #d62728; fill-opacity: 0.45"/>
   </g>
   <g id="PathCollection_4">
    <g clip-path="url(#p665023ee45)">
     <use xlink:href="#m69f067a39d" x="74.355818" y="260.199072" style="fill-opacity: 0.7; stroke: #000000; stroke-opacity: 0.7"/>
     <use xlink:href="#m69f067a39d" x="106.879124" y="219.387618" style="fill-opacity: 0.7; stroke: #000000; stroke-opacity: 0.7"/>
     <use xlink:href="#m69f067a39d" x="143.01613" y="195.766336" style="fill-opacity: 0.7; stroke: #000000; stroke-opacity: 0.7"/>
     <use xlink:href="#m69f067a39d" x="179.153137" y="178.600842" style="fill-opacity: 0.7; stroke: #000000; stroke-opacity: 0.7"/>
     <use xlink:href="#m69f067a39d" x="215.290143" y="162.346196" style="fill-opacity: 0.7; stroke: #000000; stroke-opacity: 0.7"/>
     <use xlink:href="#m69f067a39d" x="251.42715" y="151.975202" style="fill-opacity: 0.7; stroke: #000000; stroke-opacity: 0.7"/>
     <use xlink:href="#m69f067a39d" x="287.564156" y="139.279775" style="fill-opacity: 0.7; stroke: #000000; stroke-opacity: 0.7"/>
     <use xlink:href="#m69f067a39d" x="323.701163" y="127.611844" style="fill-opacity: 0.7; stroke: #000000; stroke-opacity: 0.7"/>
     <use xlink:href="#m69f067a39d" x="359.838169" y="115.515043" style="fill-opacity: 0.7; stroke: #000000; stroke-opacity: 0.7"/>
     <use xlink:href="#m69f067a39d" x="395.975175" y="109.546747" style="fill-opacity: 0.7; stroke: #000000; stroke-opacity: 0.7"/>
     <use xlink:href="#m69f067a39d" x="432.112182" y="101.092131" style="fill-opacity: 0.7; stroke: #000000; stroke-opacity: 0.7"/>
    </g>
   </g>
   <g id="FillBetweenPolyCollection_5">
    <path d="M 74.355818 264.11651 
L 74.355818 269.504662 
L 81.656968 259.254846 
L 88.958119 250.203621 
L 96.259269 242.554671 
L 103.560419 236.323184 
L 110.86157 231.100318 
L 118.16272 226.648117 
L 125.46387 222.475427 
L 132.76502 218.651107 
L 140.066171 215.048692 
L 147.367321 211.659074 
L 154.668471 208.408179 
L 161.969622 205.180677 
L 169.270772 202.266532 
L 176.571922 199.370124 
L 183.873072 196.643455 
L 191.174223 193.835745 
L 198.475373 191.255336 
L 205.776523 188.825481 
L 213.077673 186.341838 
L 220.378824 183.919081 
L 227.679974 181.701667 
L 234.981124 179.414778 
L 242.282275 177.179779 
L 249.583425 175.044104 
L 256.884575 172.771408 
L 264.185725 170.817571 
L 271.486876 168.692595 
L 278.788026 166.771045 
L 286.089176 164.786309 
L 293.390327 162.797086 
L 300.691477 160.86272 
L 307.992627 158.999719 
L 315.293777 157.195737 
L 322.594928 155.445124 
L 329.896078 153.492509 
L 337.197228 151.769056 
L 344.498378 150.076631 
L 351.799529 148.36648 
L 359.100679 146.618447 
L 366.401829 145.007051 
L 373.70298 143.403447 
L 381.00413 141.935279 
L 388.30528 140.220326 
L 395.60643 138.449528 
L 402.907581 137.073294 
L 410.208731 135.766454 
L 417.509881 134.378314 
L 424.811032 132.771252 
L 432.112182 130.935797 
L 432.112182 125.372848 
L 432.112182 125.372848 
L 424.811032 126.034885 
L 417.509881 127.513981 
L 410.208731 129.410386 
L 402.907581 131.190016 
L 395.60643 133.056711 
L 388.30528 134.576383 
L 381.00413 136.204025 
L 373.70298 137.79514 
L 366.401829 139.587874 
L 359.100679 141.22544 
L 351.799529 142.851234 
L 344.498378 144.700967 
L 337.197228 146.351394 
L 329.896078 148.132647 
L 322.594928 149.970429 
L 315.293777 151.745194 
L 307.992627 153.570673 
L 300.691477 155.400416 
L 293.390327 157.360768 
L 286.089176 159.231543 
L 278.788026 161.201394 
L 271.486876 163.307313 
L 264.185725 165.3385 
L 256.884575 167.319664 
L 249.583425 169.574197 
L 242.282275 171.755212 
L 234.981124 173.902114 
L 227.679974 176.292641 
L 220.378824 178.659691 
L 213.077673 180.903418 
L 205.776523 183.370468 
L 198.475373 185.901941 
L 191.174223 188.4662 
L 183.873072 191.22363 
L 176.571922 193.929342 
L 169.270772 196.82712 
L 161.969622 199.827221 
L 154.668471 202.913879 
L 147.367321 206.204116 
L 140.066171 209.614701 
L 132.76502 213.124803 
L 125.46387 216.945968 
L 118.16272 220.950834 
L 110.86157 225.693652 
L 103.560419 230.778742 
L 96.259269 236.78025 
L 88.958119 243.918471 
L 81.656968 252.741466 
L 74.355818 264.11651 
z
" clip-path="url(#p665023ee45)" style="fill: #9467bd; fill-opacity: 0.45"/>
   </g>
   <g id="PathCollection_5">
    <g clip-path="url(#p665023ee45)">
     <use xlink:href="#m69f067a39d" x="74.355818" y="267.341619" style="fill-opacity: 0.7; stroke: #000000; stroke-opacity: 0.7"/>
     <use xlink:href="#m69f067a39d" x="106.879124" y="229.399026" style="fill-opacity: 0.7; stroke: #000000; stroke-opacity: 0.7"/>
     <use xlink:href="#m69f067a39d" x="143.01613" y="210.675457" style="fill-opacity: 0.7; stroke: #000000; stroke-opacity: 0.7"/>
     <use xlink:href="#m69f067a39d" x="179.153137" y="193.238925" style="fill-opacity: 0.7; stroke: #000000; stroke-opacity: 0.7"/>
     <use xlink:href="#m69f067a39d" x="215.290143" y="184.662623" style="fill-opacity: 0.7; stroke: #000000; stroke-opacity: 0.7"/>
     <use xlink:href="#m69f067a39d" x="251.42715" y="169.393731" style="fill-opacity: 0.7; stroke: #000000; stroke-opacity: 0.7"/>
     <use xlink:href="#m69f067a39d" x="287.564156" y="159.370075" style="fill-opacity: 0.7; stroke: #000000; stroke-opacity: 0.7"/>
     <use xlink:href="#m69f067a39d" x="323.701163" y="153.335358" style="fill-opacity: 0.7; stroke: #000000; stroke-opacity: 0.7"/>
     <use xlink:href="#m69f067a39d" x="359.838169" y="142.586424" style="fill-opacity: 0.7; stroke: #000000; stroke-opacity: 0.7"/>
     <use xlink:href="#m69f067a39d" x="395.975175" y="133.056121" style="fill-opacity: 0.7; stroke: #000000; stroke-opacity: 0.7"/>
     <use xlink:href="#m69f067a39d" x="432.112182" y="126.898317" style="fill-opacity: 0.7; stroke: #000000; stroke-opacity: 0.7"/>
    </g>
   </g>
   <g id="FillBetweenPolyCollection_6">
    <path d="M 74.355818 269.586946 
L 74.355818 274.882557 
L 81.656968 266.404252 
L 88.958119 258.690704 
L 96.259269 252.314725 
L 103.560419 246.970259 
L 110.86157 242.441905 
L 118.16272 238.732709 
L 125.46387 235.246151 
L 132.76502 231.988454 
L 140.066171 228.939725 
L 147.367321 226.075485 
L 154.668471 223.36769 
L 161.969622 220.773012 
L 169.270772 218.128888 
L 176.571922 215.685147 
L 183.873072 213.250375 
L 191.174223 211.137182 
L 198.475373 208.893993 
L 205.776523 206.816012 
L 213.077673 204.769154 
L 220.378824 202.634845 
L 227.679974 200.721084 
L 234.981124 198.780307 
L 242.282275 196.889693 
L 249.583425 194.934512 
L 256.884575 193.302505 
L 264.185725 191.552668 
L 271.486876 189.789636 
L 278.788026 188.062254 
L 286.089176 186.468328 
L 293.390327 184.822308 
L 300.691477 183.136864 
L 307.992627 181.560178 
L 315.293777 180.025715 
L 322.594928 178.513182 
L 329.896078 176.978368 
L 337.197228 175.468138 
L 344.498378 174.062313 
L 351.799529 172.567196 
L 359.100679 171.141084 
L 366.401829 169.88272 
L 373.70298 168.327715 
L 381.00413 167.164079 
L 388.30528 165.70105 
L 395.60643 164.294279 
L 402.907581 163.015476 
L 410.208731 162.040589 
L 417.509881 160.825903 
L 424.811032 159.488127 
L 432.112182 157.774611 
L 432.112182 152.319822 
L 432.112182 152.319822 
L 424.811032 152.886466 
L 417.509881 154.138218 
L 410.208731 155.605599 
L 402.907581 157.200563 
L 395.60643 158.748273 
L 388.30528 160.029589 
L 381.00413 161.454248 
L 373.70298 162.842182 
L 366.401829 164.264904 
L 359.100679 165.609717 
L 351.799529 167.043895 
L 344.498378 168.44843 
L 337.197228 170.010016 
L 329.896078 171.463739 
L 322.594928 173.100358 
L 315.293777 174.583229 
L 307.992627 176.185701 
L 300.691477 177.756738 
L 293.390327 179.37624 
L 286.089176 180.857067 
L 278.788026 182.707417 
L 271.486876 184.306808 
L 264.185725 186.019103 
L 256.884575 187.808605 
L 249.583425 189.604463 
L 242.282275 191.516461 
L 234.981124 193.363283 
L 227.679974 195.231218 
L 220.378824 197.338537 
L 213.077673 199.361011 
L 205.776523 201.338234 
L 198.475373 203.332885 
L 191.174223 205.667036 
L 183.873072 207.888187 
L 176.571922 210.256089 
L 169.270772 212.628694 
L 161.969622 215.251513 
L 154.668471 217.826993 
L 147.367321 220.598288 
L 140.066171 223.516545 
L 132.76502 226.44023 
L 125.46387 229.614908 
L 118.16272 233.22257 
L 110.86157 236.996187 
L 103.560419 241.427073 
L 96.259269 246.398742 
L 88.958119 252.430694 
L 81.656968 260.098257 
L 74.355818 269.586946 
z
" clip-path="url(#p665023ee45)" style="fill: #8c564b; fill-opacity: 0.45"/>
   </g>
   <g id="PathCollection_6">
    <g clip-path="url(#p665023ee45)">
     <use xlink:href="#m69f067a39d" x="74.355818" y="271.098686" style="fill-opacity: 0.7; stroke: #000000; stroke-opacity: 0.7"/>
     <use xlink:href="#m69f067a39d" x="106.879124" y="239.231594" style="fill-opacity: 0.7; stroke: #000000; stroke-opacity: 0.7"/>
     <use xlink:href="#m69f067a39d" x="143.01613" y="225.03878" style="fill-opacity: 0.7; stroke: #000000; stroke-opacity: 0.7"/>
     <use xlink:href="#m69f067a39d" x="179.153137" y="212.945854" style="fill-opacity: 0.7; stroke: #000000; stroke-opacity: 0.7"/>
     <use xlink:href="#m69f067a39d" x="215.290143" y="202.867831" style="fill-opacity: 0.7; stroke: #000000; stroke-opacity: 0.7"/>
     <use xlink:href="#m69f067a39d" x="251.42715" y="191.563126" style="fill-opacity: 0.7; stroke: #000000; stroke-opacity: 0.7"/>
     <use xlink:href="#m69f067a39d" x="287.564156" y="184.211987" style="fill-opacity: 0.7; stroke: #000000; stroke-opacity: 0.7"/>
     <use xlink:href="#m69f067a39d" x="323.701163" y="176.409852" style="fill-opacity: 0.7; stroke: #000000; stroke-opacity: 0.7"/>
     <use xlink:href="#m69f067a39d" x="359.838169" y="169.085703" style="fill-opacity: 0.7; stroke: #000000; stroke-opacity: 0.7"/>
     <use xlink:href="#m69f067a39d" x="395.975175" y="161.300913" style="fill-opacity: 0.7; stroke: #000000; stroke-opacity: 0.7"/>
     <use xlink:href="#m69f067a39d" x="432.112182" y="157.190529" style="fill-opacity: 0.7; stroke: #000000; stroke-opacity: 0.7"/>
    </g>
   </g>
   <g id="FillBetweenPolyCollection_7">
    <path d="M 74.355818 275.414898 
L 74.355818 280.823061 
L 81.656968 273.882747 
L 88.958119 267.695381 
L 96.259269 262.499268 
L 103.560419 258.083036 
L 110.86157 254.456827 
L 118.16272 251.355875 
L 125.46387 248.534001 
L 132.76502 245.902687 
L 140.066171 243.400125 
L 147.367321 241.118084 
L 154.668471 238.888138 
L 161.969622 236.718683 
L 169.270772 234.677251 
L 176.571922 232.709687 
L 183.873072 230.788732 
L 191.174223 228.931191 
L 198.475373 227.163142 
L 205.776523 225.357374 
L 213.077673 223.772037 
L 220.378824 222.136254 
L 227.679974 220.482826 
L 234.981124 218.999149 
L 242.282275 217.415575 
L 249.583425 215.968388 
L 256.884575 214.574041 
L 264.185725 212.938874 
L 271.486876 211.68006 
L 278.788026 210.256509 
L 286.089176 209.030368 
L 293.390327 207.584498 
L 300.691477 206.257431 
L 307.992627 205.026642 
L 315.293777 203.691041 
L 322.594928 202.471051 
L 329.896078 201.367362 
L 337.197228 200.198661 
L 344.498378 198.80808 
L 351.799529 197.648685 
L 359.100679 196.529173 
L 366.401829 195.5253 
L 373.70298 194.361012 
L 381.00413 193.251595 
L 388.30528 192.173188 
L 395.60643 190.928585 
L 402.907581 189.866962 
L 410.208731 189.173981 
L 417.509881 188.353666 
L 424.811032 187.270984 
L 432.112182 185.714357 
L 432.112182 180.142989 
L 432.112182 180.142989 
L 424.811032 180.589537 
L 417.509881 181.462167 
L 410.208731 182.768691 
L 402.907581 184.14405 
L 395.60643 185.501791 
L 388.30528 186.552909 
L 381.00413 187.603707 
L 373.70298 188.730299 
L 366.401829 189.974149 
L 359.100679 191.118787 
L 351.799529 192.245963 
L 344.498378 193.347773 
L 337.197228 194.591565 
L 329.896078 196.031031 
L 322.594928 197.094544 
L 315.293777 198.304508 
L 307.992627 199.524429 
L 300.691477 200.795991 
L 293.390327 202.059963 
L 286.089176 203.408527 
L 278.788026 204.903129 
L 271.486876 206.24072 
L 264.185725 207.521754 
L 256.884575 208.974361 
L 249.583425 210.483186 
L 242.282275 212.026332 
L 234.981124 213.560755 
L 227.679974 215.11961 
L 220.378824 216.715725 
L 213.077673 218.338151 
L 205.776523 220.05851 
L 198.475373 221.68222 
L 191.174223 223.483284 
L 183.873072 225.318124 
L 176.571922 227.259422 
L 169.270772 229.243515 
L 161.969622 231.178981 
L 154.668471 233.440002 
L 147.367321 235.725442 
L 140.066171 237.989789 
L 132.76502 240.375517 
L 125.46387 242.883987 
L 118.16272 245.603058 
L 110.86157 249.016013 
L 103.560419 252.49744 
L 96.259269 256.508061 
L 88.958119 261.361982 
L 81.656968 267.368216 
L 74.355818 275.414898 
z
" clip-path="url(#p665023ee45)" style="fill: #e377c2; fill-opacity: 0.45"/>
   </g>
   <g id="PathCollection_7">
    <g clip-path="url(#p665023ee45)">
     <use xlink:href="#m69f067a39d" x="74.355818" y="280.7147" style="fill-opacity: 0.7; stroke: #000000; stroke-opacity: 0.7"/>
     <use xlink:href="#m69f067a39d" x="106.879124" y="257.997926" style="fill-opacity: 0.7; stroke: #000000; stroke-opacity: 0.7"/>
     <use xlink:href="#m69f067a39d" x="143.01613" y="239.613789" style="fill-opacity: 0.7; stroke: #000000; stroke-opacity: 0.7"/>
     <use xlink:href="#m69f067a39d" x="179.153137" y="230.900283" style="fill-opacity: 0.7; stroke: #000000; stroke-opacity: 0.7"/>
     <use xlink:href="#m69f067a39d" x="215.290143" y="220.44025" style="fill-opacity: 0.7; stroke: #000000; stroke-opacity: 0.7"/>
     <use xlink:href="#m69f067a39d" x="251.42715" y="214.979578" style="fill-opacity: 0.7; stroke: #000000; stroke-opacity: 0.7"/>
     <use xlink:href="#m69f067a39d" x="287.564156" y="209.211165" style="fill-opacity: 0.7; stroke: #000000; stroke-opacity: 0.7"/>
     <use xlink:href="#m69f067a39d" x="323.701163" y="201.393043" style="fill-opacity: 0.7; stroke: #000000; stroke-opacity: 0.7"/>
     <use xlink:href="#m69f067a39d" x="359.838169" y="196.38367" style="fill-opacity: 0.7; stroke: #000000; stroke-opacity: 0.7"/>
     <use xlink:href="#m69f067a39d" x="395.975175" y="192.56391" style="fill-opacity: 0.7; stroke: #000000; stroke-opacity: 0.7"/>
     <use xlink:href="#m69f067a39d" x="432.112182" y="186.977703" style="fill-opacity: 0.7; stroke: #000000; stroke-opacity: 0.7"/>
    </g>
   </g>
   <g id="FillBetweenPolyCollection_8">
    <path d="M 74.355818 283.582147 
L 74.355818 288.954545 
L 81.656968 284.470629 
L 88.958119 280.324056 
L 96.259269 276.672878 
L 103.560419 273.524563 
L 110.86157 271.025259 
L 118.16272 268.976952 
L 125.46387 267.039804 
L 132.76502 265.315437 
L 140.066171 263.464319 
L 147.367321 261.978709 
L 154.668471 260.417772 
L 161.969622 259.032745 
L 169.270772 257.567995 
L 176.571922 256.289406 
L 183.873072 254.91283 
L 191.174223 253.722218 
L 198.475373 252.499726 
L 205.776523 251.245154 
L 213.077673 250.220561 
L 220.378824 249.139788 
L 227.679974 248.055187 
L 234.981124 246.938173 
L 242.282275 246.01471 
L 249.583425 244.8801 
L 256.884575 243.846442 
L 264.185725 242.794401 
L 271.486876 242.018968 
L 278.788026 240.892003 
L 286.089176 240.071732 
L 293.390327 239.196509 
L 300.691477 238.281067 
L 307.992627 237.521555 
L 315.293777 236.605224 
L 322.594928 235.657865 
L 329.896078 234.822996 
L 337.197228 234.147128 
L 344.498378 233.347884 
L 351.799529 232.463882 
L 359.100679 231.614942 
L 366.401829 230.935093 
L 373.70298 230.164114 
L 381.00413 229.614926 
L 388.30528 228.748549 
L 395.60643 227.935978 
L 402.907581 227.44067 
L 410.208731 226.805679 
L 417.509881 226.382554 
L 424.811032 225.587354 
L 432.112182 224.334981 
L 432.112182 218.898419 
L 432.112182 218.898419 
L 424.811032 218.822815 
L 417.509881 219.497389 
L 410.208731 220.422759 
L 402.907581 221.558935 
L 395.60643 222.606477 
L 388.30528 223.054923 
L 381.00413 223.751216 
L 373.70298 224.670987 
L 366.401829 225.450052 
L 359.100679 226.239292 
L 351.799529 226.98378 
L 344.498378 227.675764 
L 337.197228 228.645533 
L 329.896078 229.462645 
L 322.594928 230.334996 
L 315.293777 231.237819 
L 307.992627 232.106311 
L 300.691477 232.97907 
L 293.390327 233.813616 
L 286.089176 234.727795 
L 278.788026 235.686433 
L 271.486876 236.408658 
L 264.185725 237.461469 
L 256.884575 238.383327 
L 249.583425 239.518722 
L 242.282275 240.521332 
L 234.981124 241.456317 
L 227.679974 242.574089 
L 220.378824 243.569531 
L 213.077673 244.907144 
L 205.776523 245.846281 
L 198.475373 247.135192 
L 191.174223 248.244239 
L 183.873072 249.46727 
L 176.571922 250.887229 
L 169.270772 252.144007 
L 161.969622 253.580268 
L 154.668471 255.045317 
L 147.367321 256.620848 
L 140.066171 258.077946 
L 132.76502 259.75041 
L 125.46387 261.42912 
L 118.16272 263.360585 
L 110.86157 265.567864 
L 103.560419 267.994354 
L 96.259269 270.600824 
L 88.958119 273.956627 
L 81.656968 278.115416 
L 74.355818 283.582147 
z
" clip-path="url(#p665023ee45)" style="fill: #7f7f7f; fill-opacity: 0.45"/>
   </g>
   <g id="PathCollection_8">
    <g clip-path="url(#p665023ee45)">
     <use xlink:href="#m69f067a39d" x="74.355818" y="282.916965" style="fill-opacity: 0.7; stroke: #000000; stroke-opacity: 0.7"/>
     <use xlink:href="#m69f067a39d" x="106.879124" y="267.200532" style="fill-opacity: 0.7; stroke: #000000; stroke-opacity: 0.7"/>
     <use xlink:href="#m69f067a39d" x="143.01613" y="257.162563" style="fill-opacity: 0.7; stroke: #000000; stroke-opacity: 0.7"/>
     <use xlink:href="#m69f067a39d" x="179.153137" y="250.575875" style="fill-opacity: 0.7; stroke: #000000; stroke-opacity: 0.7"/>
     <use xlink:href="#m69f067a39d" x="215.290143" y="244.846663" style="fill-opacity: 0.7; stroke: #000000; stroke-opacity: 0.7"/>
     <use xlink:href="#m69f067a39d" x="251.42715" y="237.22983" style="fill-opacity: 0.7; stroke: #000000; stroke-opacity: 0.7"/>
     <use xlink:href="#m69f067a39d" x="287.564156" y="233.599749" style="fill-opacity: 0.7; stroke: #000000; stroke-opacity: 0.7"/>
     <use xlink:href="#m69f067a39d" x="323.701163" y="229.923798" style="fill-opacity: 0.7; stroke: #000000; stroke-opacity: 0.7"/>
     <use xlink:href="#m69f067a39d" x="359.838169" y="224.862951" style="fill-opacity: 0.7; stroke: #000000; stroke-opacity: 0.7"/>
     <use xlink:href="#m69f067a39d" x="395.975175" y="221.929561" style="fill-opacity: 0.7; stroke: #000000; stroke-opacity: 0.7"/>
     <use xlink:href="#m69f067a39d" x="432.112182" y="216.722957" style="fill-opacity: 0.7; stroke: #000000; stroke-opacity: 0.7"/>
    </g>
   </g>
   <g id="matplotlib.axis_1">
    <g id="xtick_1">
     <g id="line2d_1">
      <defs>
       <path id="mf116c5e281" d="M 0 0 
L 0 3.5 
" style="stroke: #000000; stroke-width: 0.8"/>
      </defs>
      <g>
       <use xlink:href="#mf116c5e281" x="70.742118" y="302.2" style="stroke: #000000; stroke-width: 0.8"/>
      </g>
     </g>
     <g id="text_1">
      <!-- 0 -->
      <g transform="translate(67.560868 316.798437) scale(0.1 -0.1)">
       <defs>
        <path id="DejaVuSans-30" d="M 2034 4250 
Q 1547 4250 1301 3770 
Q 1056 3291 1056 2328 
Q 1056 1369 1301 889 
Q 1547 409 2034 409 
Q 2525 409 2770 889 
Q 3016 1369 3016 2328 
Q 3016 3291 2770 3770 
Q 2525 4250 2034 4250 
z
M 2034 4750 
Q 2819 4750 3233 4129 
Q 3647 3509 3647 2328 
Q 3647 1150 3233 529 
Q 2819 -91 2034 -91 
Q 1250 -91 836 529 
Q 422 1150 422 2328 
Q 422 3509 836 4129 
Q 1250 4750 2034 4750 
z
" transform="scale(0.015625)"/>
       </defs>
       <use xlink:href="#DejaVuSans-30"/>
      </g>
     </g>
    </g>
    <g id="xtick_2">
     <g id="line2d_2">
      <g>
       <use xlink:href="#mf116c5e281" x="143.01613" y="302.2" style="stroke: #000000; stroke-width: 0.8"/>
      </g>
     </g>
     <g id="text_2">
      <!-- 1 -->
      <g transform="translate(139.83488 316.798437) scale(0.1 -0.1)">
       <defs>
        <path id="DejaVuSans-31" d="M 794 531 
L 1825 531 
L 1825 4091 
L 703 3866 
L 703 4441 
L 1819 4666 
L 2450 4666 
L 2450 531 
L 3481 531 
L 3481 0 
L 794 0 
L 794 531 
z
" transform="scale(0.015625)"/>
       </defs>
       <use xlink:href="#DejaVuSans-31"/>
      </g>
     </g>
    </g>
    <g id="xtick_3">
     <g id="line2d_3">
      <g>
       <use xlink:href="#mf116c5e281" x="215.290143" y="302.2" style="stroke: #000000; stroke-width: 0.8"/>
      </g>
     </g>
     <g id="text_3">
      <!-- 2 -->
      <g transform="translate(212.108893 316.798437) scale(0.1 -0.1)">
       <defs>
        <path id="DejaVuSans-32" d="M 1228 531 
L 3431 531 
L 3431 0 
L 469 0 
L 469 531 
Q 828 903 1448 1529 
Q 2069 2156 2228 2338 
Q 2531 2678 2651 2914 
Q 2772 3150 2772 3378 
Q 2772 3750 2511 3984 
Q 2250 4219 1831 4219 
Q 1534 4219 1204 4116 
Q 875 4013 500 3803 
L 500 4441 
Q 881 4594 1212 4672 
Q 1544 4750 1819 4750 
Q 2544 4750 2975 4387 
Q 3406 4025 3406 3419 
Q 3406 3131 3298 2873 
Q 3191 2616 2906 2266 
Q 2828 2175 2409 1742 
Q 1991 1309 1228 531 
z
" transform="scale(0.015625)"/>
       </defs>
       <use xlink:href="#DejaVuSans-32"/>
      </g>
     </g>
    </g>
    <g id="xtick_4">
     <g id="line2d_4">
      <g>
       <use xlink:href="#mf116c5e281" x="287.564156" y="302.2" style="stroke: #000000; stroke-width: 0.8"/>
      </g>
     </g>
     <g id="text_4">
      <!-- 3 -->
      <g transform="translate(284.382906 316.798437) scale(0.1 -0.1)">
       <defs>
        <path id="DejaVuSans-33" d="M 2597 2516 
Q 3050 2419 3304 2112 
Q 3559 1806 3559 1356 
Q 3559 666 3084 287 
Q 2609 -91 1734 -91 
Q 1441 -91 1130 -33 
Q 819 25 488 141 
L 488 750 
Q 750 597 1062 519 
Q 1375 441 1716 441 
Q 2309 441 2620 675 
Q 2931 909 2931 1356 
Q 2931 1769 2642 2001 
Q 2353 2234 1838 2234 
L 1294 2234 
L 1294 2753 
L 1863 2753 
Q 2328 2753 2575 2939 
Q 2822 3125 2822 3475 
Q 2822 3834 2567 4026 
Q 2313 4219 1838 4219 
Q 1578 4219 1281 4162 
Q 984 4106 628 3988 
L 628 4550 
Q 988 4650 1302 4700 
Q 1616 4750 1894 4750 
Q 2613 4750 3031 4423 
Q 3450 4097 3450 3541 
Q 3450 3153 3228 2886 
Q 3006 2619 2597 2516 
z
" transform="scale(0.015625)"/>
       </defs>
       <use xlink:href="#DejaVuSans-33"/>
      </g>
     </g>
    </g>
    <g id="xtick_5">
     <g id="line2d_5">
      <g>
       <use xlink:href="#mf116c5e281" x="359.838169" y="302.2" style="stroke: #000000; stroke-width: 0.8"/>
      </g>
     </g>
     <g id="text_5">
      <!-- 4 -->
      <g transform="translate(356.656919 316.798437) scale(0.1 -0.1)">
       <defs>
        <path id="DejaVuSans-34" d="M 2419 4116 
L 825 1625 
L 2419 1625 
L 2419 4116 
z
M 2253 4666 
L 3047 4666 
L 3047 1625 
L 3713 1625 
L 3713 1100 
L 3047 1100 
L 3047 0 
L 2419 0 
L 2419 1100 
L 313 1100 
L 313 1709 
L 2253 4666 
z
" transform="scale(0.015625)"/>
       </defs>
       <use xlink:href="#DejaVuSans-34"/>
      </g>
     </g>
    </g>
    <g id="xtick_6">
     <g id="line2d_6">
      <g>
       <use xlink:href="#mf116c5e281" x="432.112182" y="302.2" style="stroke: #000000; stroke-width: 0.8"/>
      </g>
     </g>
     <g id="text_6">
      <!-- 5 -->
      <g transform="translate(428.930932 316.798437) scale(0.1 -0.1)">
       <defs>
        <path id="DejaVuSans-35" d="M 691 4666 
L 3169 4666 
L 3169 4134 
L 1269 4134 
L 1269 2991 
Q 1406 3038 1543 3061 
Q 1681 3084 1819 3084 
Q 2600 3084 3056 2656 
Q 3513 2228 3513 1497 
Q 3513 744 3044 326 
Q 2575 -91 1722 -91 
Q 1428 -91 1123 -41 
Q 819 9 494 109 
L 494 744 
Q 775 591 1075 516 
Q 1375 441 1709 441 
Q 2250 441 2565 725 
Q 2881 1009 2881 1497 
Q 2881 1984 2565 2268 
Q 2250 2553 1709 2553 
Q 1456 2553 1204 2497 
Q 953 2441 691 2322 
L 691 4666 
z
" transform="scale(0.015625)"/>
       </defs>
       <use xlink:href="#DejaVuSans-35"/>
      </g>
     </g>
    </g>
    <g id="text_7">
     <!-- $W$ (m/hour) -->
     <g transform="translate(224.784 330.476562) scale(0.1 -0.1)">
      <defs>
       <path id="DejaVuSans-Oblique-57" d="M 616 4666 
L 1228 4666 
L 1453 697 
L 3213 4666 
L 3916 4666 
L 4147 697 
L 5888 4666 
L 6528 4666 
L 4453 0 
L 3659 0 
L 3444 3891 
L 1697 0 
L 903 0 
L 616 4666 
z
" transform="scale(0.015625)"/>
       <path id="DejaVuSans-20" transform="scale(0.015625)"/>
       <path id="DejaVuSans-28" d="M 1984 4856 
Q 1566 4138 1362 3434 
Q 1159 2731 1159 2009 
Q 1159 1288 1364 580 
Q 1569 -128 1984 -844 
L 1484 -844 
Q 1016 -109 783 600 
Q 550 1309 550 2009 
Q 550 2706 781 3412 
Q 1013 4119 1484 4856 
L 1984 4856 
z
" transform="scale(0.015625)"/>
       <path id="DejaVuSans-6d" d="M 3328 2828 
Q 3544 3216 3844 3400 
Q 4144 3584 4550 3584 
Q 5097 3584 5394 3201 
Q 5691 2819 5691 2113 
L 5691 0 
L 5113 0 
L 5113 2094 
Q 5113 2597 4934 2840 
Q 4756 3084 4391 3084 
Q 3944 3084 3684 2787 
Q 3425 2491 3425 1978 
L 3425 0 
L 2847 0 
L 2847 2094 
Q 2847 2600 2669 2842 
Q 2491 3084 2119 3084 
Q 1678 3084 1418 2786 
Q 1159 2488 1159 1978 
L 1159 0 
L 581 0 
L 581 3500 
L 1159 3500 
L 1159 2956 
Q 1356 3278 1631 3431 
Q 1906 3584 2284 3584 
Q 2666 3584 2933 3390 
Q 3200 3197 3328 2828 
z
" transform="scale(0.015625)"/>
       <path id="DejaVuSans-2f" d="M 1625 4666 
L 2156 4666 
L 531 -594 
L 0 -594 
L 1625 4666 
z
" transform="scale(0.015625)"/>
       <path id="DejaVuSans-68" d="M 3513 2113 
L 3513 0 
L 2938 0 
L 2938 2094 
Q 2938 2591 2744 2837 
Q 2550 3084 2163 3084 
Q 1697 3084 1428 2787 
Q 1159 2491 1159 1978 
L 1159 0 
L 581 0 
L 581 4863 
L 1159 4863 
L 1159 2956 
Q 1366 3272 1645 3428 
Q 1925 3584 2291 3584 
Q 2894 3584 3203 3211 
Q 3513 2838 3513 2113 
z
" transform="scale(0.015625)"/>
       <path id="DejaVuSans-6f" d="M 1959 3097 
Q 1497 3097 1228 2736 
Q 959 2375 959 1747 
Q 959 1119 1226 758 
Q 1494 397 1959 397 
Q 2419 397 2687 759 
Q 2956 1122 2956 1747 
Q 2956 2369 2687 2733 
Q 2419 3097 1959 3097 
z
M 1959 3584 
Q 2709 3584 3137 3096 
Q 3566 2609 3566 1747 
Q 3566 888 3137 398 
Q 2709 -91 1959 -91 
Q 1206 -91 779 398 
Q 353 888 353 1747 
Q 353 2609 779 3096 
Q 1206 3584 1959 3584 
z
" transform="scale(0.015625)"/>
       <path id="DejaVuSans-75" d="M 544 1381 
L 544 3500 
L 1119 3500 
L 1119 1403 
Q 1119 906 1312 657 
Q 1506 409 1894 409 
Q 2359 409 2629 706 
Q 2900 1003 2900 1516 
L 2900 3500 
L 3475 3500 
L 3475 0 
L 2900 0 
L 2900 538 
Q 2691 219 2414 64 
Q 2138 -91 1772 -91 
Q 1169 -91 856 284 
Q 544 659 544 1381 
z
M 1991 3584 
L 1991 3584 
z
" transform="scale(0.015625)"/>
       <path id="DejaVuSans-72" d="M 2631 2963 
Q 2534 3019 2420 3045 
Q 2306 3072 2169 3072 
Q 1681 3072 1420 2755 
Q 1159 2438 1159 1844 
L 1159 0 
L 581 0 
L 581 3500 
L 1159 3500 
L 1159 2956 
Q 1341 3275 1631 3429 
Q 1922 3584 2338 3584 
Q 2397 3584 2469 3576 
Q 2541 3569 2628 3553 
L 2631 2963 
z
" transform="scale(0.015625)"/>
       <path id="DejaVuSans-29" d="M 513 4856 
L 1013 4856 
Q 1481 4119 1714 3412 
Q 1947 2706 1947 2009 
Q 1947 1309 1714 600 
Q 1481 -109 1013 -844 
L 513 -844 
Q 928 -128 1133 580 
Q 1338 1288 1338 2009 
Q 1338 2731 1133 3434 
Q 928 4138 513 4856 
z
" transform="scale(0.015625)"/>
      </defs>
      <use xlink:href="#DejaVuSans-Oblique-57" transform="translate(0 0.015625)"/>
      <use xlink:href="#DejaVuSans-20" transform="translate(98.876953 0.015625)"/>
      <use xlink:href="#DejaVuSans-28" transform="translate(130.664062 0.015625)"/>
      <use xlink:href="#DejaVuSans-6d" transform="translate(169.677734 0.015625)"/>
      <use xlink:href="#DejaVuSans-2f" transform="translate(267.089844 0.015625)"/>
      <use xlink:href="#DejaVuSans-68" transform="translate(300.78125 0.015625)"/>
      <use xlink:href="#DejaVuSans-6f" transform="translate(364.160156 0.015625)"/>
      <use xlink:href="#DejaVuSans-75" transform="translate(425.341797 0.015625)"/>
      <use xlink:href="#DejaVuSans-72" transform="translate(488.720703 0.015625)"/>
      <use xlink:href="#DejaVuSans-29" transform="translate(529.833984 0.015625)"/>
     </g>
    </g>
   </g>
   <g id="matplotlib.axis_2">
    <g id="ytick_1">
     <g id="line2d_7">
      <defs>
       <path id="m287f54b11e" d="M 0 0 
L -3.5 0 
" style="stroke: #000000; stroke-width: 0.8"/>
      </defs>
      <g>
       <use xlink:href="#m287f54b11e" x="56.468" y="270.88787" style="stroke: #000000; stroke-width: 0.8"/>
      </g>
     </g>
     <g id="text_8">
      <!-- 2.5 -->
      <g transform="translate(33.564875 274.687089) scale(0.1 -0.1)">
       <defs>
        <path id="DejaVuSans-2e" d="M 684 794 
L 1344 794 
L 1344 0 
L 684 0 
L 684 794 
z
" transform="scale(0.015625)"/>
       </defs>
       <use xlink:href="#DejaVuSans-32"/>
       <use xlink:href="#DejaVuSans-2e" transform="translate(63.623047 0)"/>
       <use xlink:href="#DejaVuSans-35" transform="translate(95.410156 0)"/>
      </g>
     </g>
    </g>
    <g id="ytick_2">
     <g id="line2d_8">
      <g>
       <use xlink:href="#m287f54b11e" x="56.468" y="237.511274" style="stroke: #000000; stroke-width: 0.8"/>
      </g>
     </g>
     <g id="text_9">
      <!-- 5.0 -->
      <g transform="translate(33.564875 241.310492) scale(0.1 -0.1)">
       <use xlink:href="#DejaVuSans-35"/>
       <use xlink:href="#DejaVuSans-2e" transform="translate(63.623047 0)"/>
       <use xlink:href="#DejaVuSans-30" transform="translate(95.410156 0)"/>
      </g>
     </g>
    </g>
    <g id="ytick_3">
     <g id="line2d_9">
      <g>
       <use xlink:href="#m287f54b11e" x="56.468" y="204.134677" style="stroke: #000000; stroke-width: 0.8"/>
      </g>
     </g>
     <g id="text_10">
      <!-- 7.5 -->
      <g transform="translate(33.564875 207.933896) scale(0.1 -0.1)">
       <defs>
        <path id="DejaVuSans-37" d="M 525 4666 
L 3525 4666 
L 3525 4397 
L 1831 0 
L 1172 0 
L 2766 4134 
L 525 4134 
L 525 4666 
z
" transform="scale(0.015625)"/>
       </defs>
       <use xlink:href="#DejaVuSans-37"/>
       <use xlink:href="#DejaVuSans-2e" transform="translate(63.623047 0)"/>
       <use xlink:href="#DejaVuSans-35" transform="translate(95.410156 0)"/>
      </g>
     </g>
    </g>
    <g id="ytick_4">
     <g id="line2d_10">
      <g>
       <use xlink:href="#m287f54b11e" x="56.468" y="170.75808" style="stroke: #000000; stroke-width: 0.8"/>
      </g>
     </g>
     <g id="text_11">
      <!-- 10.0 -->
      <g transform="translate(27.202375 174.557299) scale(0.1 -0.1)">
       <use xlink:href="#DejaVuSans-31"/>
       <use xlink:href="#DejaVuSans-30" transform="translate(63.623047 0)"/>
       <use xlink:href="#DejaVuSans-2e" transform="translate(127.246094 0)"/>
       <use xlink:href="#DejaVuSans-30" transform="translate(159.033203 0)"/>
      </g>
     </g>
    </g>
    <g id="ytick_5">
     <g id="line2d_11">
      <g>
       <use xlink:href="#m287f54b11e" x="56.468" y="137.381484" style="stroke: #000000; stroke-width: 0.8"/>
      </g>
     </g>
     <g id="text_12">
      <!-- 12.5 -->
      <g transform="translate(27.202375 141.180702) scale(0.1 -0.1)">
       <use xlink:href="#DejaVuSans-31"/>
       <use xlink:href="#DejaVuSans-32" transform="translate(63.623047 0)"/>
       <use xlink:href="#DejaVuSans-2e" transform="translate(127.246094 0)"/>
       <use xlink:href="#DejaVuSans-35" transform="translate(159.033203 0)"/>
      </g>
     </g>
    </g>
    <g id="ytick_6">
     <g id="line2d_12">
      <g>
       <use xlink:href="#m287f54b11e" x="56.468" y="104.004887" style="stroke: #000000; stroke-width: 0.8"/>
      </g>
     </g>
     <g id="text_13">
      <!-- 15.0 -->
      <g transform="translate(27.202375 107.804106) scale(0.1 -0.1)">
       <use xlink:href="#DejaVuSans-31"/>
       <use xlink:href="#DejaVuSans-35" transform="translate(63.623047 0)"/>
       <use xlink:href="#DejaVuSans-2e" transform="translate(127.246094 0)"/>
       <use xlink:href="#DejaVuSans-30" transform="translate(159.033203 0)"/>
      </g>
     </g>
    </g>
    <g id="ytick_7">
     <g id="line2d_13">
      <g>
       <use xlink:href="#m287f54b11e" x="56.468" y="70.62829" style="stroke: #000000; stroke-width: 0.8"/>
      </g>
     </g>
     <g id="text_14">
      <!-- 17.5 -->
      <g transform="translate(27.202375 74.427509) scale(0.1 -0.1)">
       <use xlink:href="#DejaVuSans-31"/>
       <use xlink:href="#DejaVuSans-37" transform="translate(63.623047 0)"/>
       <use xlink:href="#DejaVuSans-2e" transform="translate(127.246094 0)"/>
       <use xlink:href="#DejaVuSans-35" transform="translate(159.033203 0)"/>
      </g>
     </g>
    </g>
    <g id="ytick_8">
     <g id="line2d_14">
      <g>
       <use xlink:href="#m287f54b11e" x="56.468" y="37.251694" style="stroke: #000000; stroke-width: 0.8"/>
      </g>
     </g>
     <g id="text_15">
      <!-- 20.0 -->
      <g transform="translate(27.202375 41.050912) scale(0.1 -0.1)">
       <use xlink:href="#DejaVuSans-32"/>
       <use xlink:href="#DejaVuSans-30" transform="translate(63.623047 0)"/>
       <use xlink:href="#DejaVuSans-2e" transform="translate(127.246094 0)"/>
       <use xlink:href="#DejaVuSans-30" transform="translate(159.033203 0)"/>
      </g>
     </g>
    </g>
    <g id="text_16">
     <!-- $Q_{lc}$ (kW) -->
     <g transform="translate(21.122688 176.8) rotate(-90) scale(0.1 -0.1)">
      <defs>
       <path id="DejaVuSans-Oblique-51" d="M 2309 -84 
Q 2275 -88 2237 -89 
Q 2200 -91 2125 -91 
Q 1250 -91 756 411 
Q 263 913 263 1797 
Q 263 2319 452 2844 
Q 641 3369 978 3788 
Q 1369 4269 1858 4509 
Q 2347 4750 2938 4750 
Q 3794 4750 4287 4245 
Q 4781 3741 4781 2869 
Q 4781 1928 4265 1147 
Q 3750 366 2919 44 
L 3553 -825 
L 2847 -825 
L 2309 -84 
z
M 2919 4238 
Q 2400 4238 2003 3986 
Q 1606 3734 1313 3219 
Q 1125 2891 1026 2522 
Q 928 2153 928 1778 
Q 928 1128 1239 775 
Q 1550 422 2119 422 
Q 2631 422 3032 676 
Q 3434 931 3719 1434 
Q 3909 1772 4009 2142 
Q 4109 2513 4109 2881 
Q 4109 3528 3796 3883 
Q 3484 4238 2919 4238 
z
" transform="scale(0.015625)"/>
       <path id="DejaVuSans-Oblique-6c" d="M 1172 4863 
L 1747 4863 
L 800 0 
L 225 0 
L 1172 4863 
z
" transform="scale(0.015625)"/>
       <path id="DejaVuSans-Oblique-63" d="M 3431 3366 
L 3316 2797 
Q 3109 2947 2876 3022 
Q 2644 3097 2394 3097 
Q 2119 3097 1870 3000 
Q 1622 2903 1453 2725 
Q 1184 2453 1037 2087 
Q 891 1722 891 1331 
Q 891 859 1127 628 
Q 1363 397 1844 397 
Q 2081 397 2348 469 
Q 2616 541 2906 684 
L 2797 116 
Q 2547 13 2283 -39 
Q 2019 -91 1741 -91 
Q 1044 -91 669 257 
Q 294 606 294 1253 
Q 294 1797 489 2255 
Q 684 2713 1069 3078 
Q 1331 3328 1684 3456 
Q 2038 3584 2456 3584 
Q 2700 3584 2940 3529 
Q 3181 3475 3431 3366 
z
" transform="scale(0.015625)"/>
       <path id="DejaVuSans-6b" d="M 581 4863 
L 1159 4863 
L 1159 1991 
L 2875 3500 
L 3609 3500 
L 1753 1863 
L 3688 0 
L 2938 0 
L 1159 1709 
L 1159 0 
L 581 0 
L 581 4863 
z
" transform="scale(0.015625)"/>
       <path id="DejaVuSans-57" d="M 213 4666 
L 850 4666 
L 1831 722 
L 2809 4666 
L 3519 4666 
L 4500 722 
L 5478 4666 
L 6119 4666 
L 4947 0 
L 4153 0 
L 3169 4050 
L 2175 0 
L 1381 0 
L 213 4666 
z
" transform="scale(0.015625)"/>
      </defs>
      <use xlink:href="#DejaVuSans-Oblique-51" transform="translate(0 0.015625)"/>
      <use xlink:href="#DejaVuSans-Oblique-6c" transform="translate(78.710938 -16.390625) scale(0.7)"/>
      <use xlink:href="#DejaVuSans-Oblique-63" transform="translate(98.15918 -16.390625) scale(0.7)"/>
      <use xlink:href="#DejaVuSans-20" transform="translate(139.379883 0.015625)"/>
      <use xlink:href="#DejaVuSans-28" transform="translate(171.166992 0.015625)"/>
      <use xlink:href="#DejaVuSans-6b" transform="translate(210.180664 0.015625)"/>
      <use xlink:href="#DejaVuSans-57" transform="translate(268.09082 0.015625)"/>
      <use xlink:href="#DejaVuSans-29" transform="translate(366.967773 0.015625)"/>
     </g>
    </g>
   </g>
   <g id="line2d_15">
    <path d="M 74.355818 247.569366 
L 81.656968 230.334957 
L 88.958119 216.250575 
L 96.259269 204.669561 
L 103.560419 194.989518 
L 110.86157 186.684817 
L 118.16272 179.346907 
L 125.46387 172.884272 
L 132.76502 166.803836 
L 140.066171 161.144168 
L 147.367321 155.729337 
L 154.668471 150.619189 
L 161.969622 145.605127 
L 169.270772 140.827523 
L 176.571922 136.204475 
L 183.873072 131.734681 
L 191.174223 127.493939 
L 198.475373 123.390409 
L 205.776523 119.350091 
L 213.077673 115.469017 
L 220.378824 111.665621 
L 227.679974 107.917704 
L 234.981124 104.342185 
L 242.282275 100.776667 
L 249.583425 97.28178 
L 256.884575 93.914762 
L 264.185725 90.614463 
L 271.486876 87.302255 
L 278.788026 84.055551 
L 286.089176 80.970538 
L 293.390327 77.849799 
L 300.691477 74.843435 
L 307.992627 71.845002 
L 315.293777 69.006343 
L 322.594928 65.995509 
L 329.896078 63.150053 
L 337.197228 60.355068 
L 344.498378 57.489511 
L 351.799529 54.776884 
L 359.100679 52.191151 
L 366.401829 49.477237 
L 373.70298 46.90871 
L 381.00413 44.314228 
L 388.30528 41.69736 
L 395.60643 39.10244 
L 402.907581 36.537719 
L 410.208731 33.928132 
L 417.509881 31.349767 
L 424.811032 28.982403 
L 432.112182 26.860227 
" clip-path="url(#p665023ee45)" style="fill: none; stroke: #1f77b4; stroke-width: 1.5; stroke-linecap: square"/>
   </g>
   <g id="line2d_16">
    <path d="M 74.355818 251.127176 
L 81.656968 235.291384 
L 88.958119 222.283603 
L 96.259269 211.564707 
L 103.560419 202.613384 
L 110.86157 194.84848 
L 118.16272 188.166212 
L 125.46387 182.183933 
L 132.76502 176.579615 
L 140.066171 171.307372 
L 147.367321 166.316628 
L 154.668471 161.59481 
L 161.969622 156.990427 
L 169.270772 152.565088 
L 176.571922 148.284717 
L 183.873072 144.217783 
L 191.174223 140.277007 
L 198.475373 136.435102 
L 205.776523 132.722744 
L 213.077673 129.20782 
L 220.378824 125.617801 
L 227.679974 122.240124 
L 234.981124 118.901923 
L 242.282275 115.615898 
L 249.583425 112.398476 
L 256.884575 109.235738 
L 264.185725 106.223832 
L 271.486876 103.108419 
L 278.788026 100.243217 
L 286.089176 97.284387 
L 293.390327 94.46633 
L 300.691477 91.746625 
L 307.992627 88.938589 
L 315.293777 86.274964 
L 322.594928 83.545 
L 329.896078 80.897727 
L 337.197228 78.242875 
L 344.498378 75.725739 
L 351.799529 73.233614 
L 359.100679 70.782963 
L 366.401829 68.266706 
L 373.70298 65.888226 
L 381.00413 63.490532 
L 388.30528 61.146318 
L 395.60643 58.721492 
L 402.907581 56.314797 
L 410.208731 53.95585 
L 417.509881 51.611889 
L 424.811032 49.437161 
L 432.112182 47.410448 
" clip-path="url(#p665023ee45)" style="fill: none; stroke: #ff7f0e; stroke-width: 1.5; stroke-linecap: square"/>
   </g>
   <g id="line2d_17">
    <path d="M 74.355818 255.410277 
L 81.656968 240.905451 
L 88.958119 229.045854 
L 96.259269 219.276097 
L 103.560419 211.095996 
L 110.86157 204.05137 
L 118.16272 197.958125 
L 125.46387 192.420856 
L 132.76502 187.363189 
L 140.066171 182.584591 
L 147.367321 178.070333 
L 154.668471 173.759997 
L 161.969622 169.598742 
L 169.270772 165.584463 
L 176.571922 161.650926 
L 183.873072 157.940806 
L 191.174223 154.32188 
L 198.475373 150.868063 
L 205.776523 147.440437 
L 213.077673 144.2785 
L 220.378824 141.053569 
L 227.679974 137.9781 
L 234.981124 134.903154 
L 242.282275 131.919745 
L 249.583425 128.994243 
L 256.884575 126.186892 
L 264.185725 123.375007 
L 271.486876 120.624656 
L 278.788026 117.975765 
L 286.089176 115.261001 
L 293.390327 112.717741 
L 300.691477 110.178497 
L 307.992627 107.68598 
L 315.293777 105.184974 
L 322.594928 102.791561 
L 329.896078 100.353888 
L 337.197228 97.951373 
L 344.498378 95.652759 
L 351.799529 93.392881 
L 359.100679 91.140324 
L 366.401829 88.881122 
L 373.70298 86.704193 
L 381.00413 84.520736 
L 388.30528 82.305707 
L 395.60643 80.181429 
L 402.907581 77.993646 
L 410.208731 75.786884 
L 417.509881 73.789899 
L 424.811032 71.722088 
L 432.112182 69.862073 
" clip-path="url(#p665023ee45)" style="fill: none; stroke: #2ca02c; stroke-width: 1.5; stroke-linecap: square"/>
   </g>
   <g id="line2d_18">
    <path d="M 74.355818 261.668231 
L 81.656968 249.199898 
L 88.958119 238.975402 
L 96.259269 230.632306 
L 103.560419 223.566807 
L 110.86157 217.51949 
L 118.16272 212.26897 
L 125.46387 207.5124 
L 132.76502 203.1579 
L 140.066171 199.078144 
L 147.367321 195.255605 
L 154.668471 191.493419 
L 161.969622 187.911286 
L 169.270772 184.498759 
L 176.571922 181.11858 
L 183.873072 177.917862 
L 191.174223 174.753798 
L 198.475373 171.798038 
L 205.776523 168.968641 
L 213.077673 166.164753 
L 220.378824 163.415708 
L 227.679974 160.662935 
L 234.981124 158.118443 
L 242.282275 155.49389 
L 249.583425 153.007238 
L 256.884575 150.573583 
L 264.185725 148.223241 
L 271.486876 145.867659 
L 278.788026 143.588476 
L 286.089176 141.290641 
L 293.390327 139.066974 
L 300.691477 136.879519 
L 307.992627 134.764141 
L 315.293777 132.618472 
L 322.594928 130.514284 
L 329.896078 128.393707 
L 337.197228 126.369193 
L 344.498378 124.409428 
L 351.799529 122.415142 
L 359.100679 120.490625 
L 366.401829 118.592399 
L 373.70298 116.666948 
L 381.00413 114.828976 
L 388.30528 113.056417 
L 395.60643 111.10715 
L 402.907581 109.258291 
L 410.208731 107.381542 
L 417.509881 105.574456 
L 424.811032 103.851404 
L 432.112182 102.310056 
" clip-path="url(#p665023ee45)" style="fill: none; stroke: #d62728; stroke-width: 1.5; stroke-linecap: square"/>
   </g>
   <g id="line2d_19">
    <path d="M 74.355818 266.800693 
L 81.656968 255.964142 
L 88.958119 247.040717 
L 96.259269 239.779869 
L 103.560419 233.614792 
L 110.86157 228.368807 
L 118.16272 223.779376 
L 125.46387 219.706751 
L 132.76502 215.912383 
L 140.066171 212.324008 
L 147.367321 208.893825 
L 154.668471 205.695029 
L 161.969622 202.581822 
L 169.270772 199.55428 
L 176.571922 196.670693 
L 183.873072 193.908386 
L 191.174223 191.116831 
L 198.475373 188.560351 
L 205.776523 186.044457 
L 213.077673 183.637733 
L 220.378824 181.25587 
L 227.679974 178.955223 
L 234.981124 176.634923 
L 242.282275 174.461185 
L 249.583425 172.286419 
L 256.884575 170.089482 
L 264.185725 168.060932 
L 271.486876 165.967205 
L 278.788026 163.978742 
L 286.089176 162.028247 
L 293.390327 160.088163 
L 300.691477 158.188623 
L 307.992627 156.323998 
L 315.293777 154.499775 
L 322.594928 152.654833 
L 329.896078 150.875743 
L 337.197228 149.144237 
L 344.498378 147.306214 
L 351.799529 145.620032 
L 359.100679 143.953099 
L 366.401829 142.314492 
L 373.70298 140.670886 
L 381.00413 139.033362 
L 388.30528 137.414928 
L 395.60643 135.776688 
L 402.907581 134.145343 
L 410.208731 132.510169 
L 417.509881 130.969385 
L 424.811032 129.471075 
L 432.112182 128.098903 
" clip-path="url(#p665023ee45)" style="fill: none; stroke: #9467bd; stroke-width: 1.5; stroke-linecap: square"/>
   </g>
   <g id="line2d_20">
    <path d="M 74.355818 272.296412 
L 81.656968 263.215245 
L 88.958119 255.604928 
L 96.259269 249.384754 
L 103.560419 244.218903 
L 110.86157 239.803179 
L 118.16272 235.910939 
L 125.46387 232.450145 
L 132.76502 229.20281 
L 140.066171 226.245266 
L 147.367321 223.35822 
L 154.668471 220.589183 
L 161.969622 217.960284 
L 169.270772 215.426819 
L 176.571922 212.987316 
L 183.873072 210.611976 
L 191.174223 208.348781 
L 198.475373 206.185829 
L 205.776523 204.075243 
L 213.077673 202.007162 
L 220.378824 199.986355 
L 227.679974 197.961676 
L 234.981124 196.080034 
L 242.282275 194.171402 
L 249.583425 192.332367 
L 256.884575 190.519869 
L 264.185725 188.764935 
L 271.486876 187.041509 
L 278.788026 185.380005 
L 286.089176 183.667125 
L 293.390327 182.055279 
L 300.691477 180.430404 
L 307.992627 178.852809 
L 315.293777 177.332226 
L 322.594928 175.812031 
L 329.896078 174.30673 
L 337.197228 172.750747 
L 344.498378 171.237127 
L 351.799529 169.865737 
L 359.100679 168.38502 
L 366.401829 167.035279 
L 373.70298 165.617498 
L 381.00413 164.265696 
L 388.30528 162.908396 
L 395.60643 161.556006 
L 402.907581 160.13007 
L 410.208731 158.842395 
L 417.509881 157.459848 
L 424.811032 156.171329 
L 432.112182 155.034053 
" clip-path="url(#p665023ee45)" style="fill: none; stroke: #8c564b; stroke-width: 1.5; stroke-linecap: square"/>
   </g>
   <g id="line2d_21">
    <path d="M 74.355818 278.134936 
L 81.656968 270.645765 
L 88.958119 264.593826 
L 96.259269 259.467204 
L 103.560419 255.259292 
L 110.86157 251.710107 
L 118.16272 248.559965 
L 125.46387 245.740966 
L 132.76502 243.131491 
L 140.066171 240.679295 
L 147.367321 238.372924 
L 154.668471 236.131203 
L 161.969622 233.998085 
L 169.270772 231.970826 
L 176.571922 229.937796 
L 183.873072 228.056313 
L 191.174223 226.194678 
L 198.475373 224.475563 
L 205.776523 222.702815 
L 213.077673 221.01571 
L 220.378824 219.421959 
L 227.679974 217.834906 
L 234.981124 216.235617 
L 242.282275 214.655672 
L 249.583425 213.227369 
L 256.884575 211.804602 
L 264.185725 210.363601 
L 271.486876 208.898141 
L 278.788026 207.537901 
L 286.089176 206.177748 
L 293.390327 204.902387 
L 300.691477 203.612369 
L 307.992627 202.323366 
L 315.293777 201.017299 
L 322.594928 199.700264 
L 329.896078 198.579585 
L 337.197228 197.336731 
L 344.498378 196.157921 
L 351.799529 194.966484 
L 359.100679 193.813398 
L 366.401829 192.709902 
L 373.70298 191.564586 
L 381.00413 190.466268 
L 388.30528 189.287115 
L 395.60643 188.228976 
L 402.907581 187.123407 
L 410.208731 185.973322 
L 417.509881 184.925735 
L 424.811032 183.910503 
L 432.112182 182.963196 
" clip-path="url(#p665023ee45)" style="fill: none; stroke: #e377c2; stroke-width: 1.5; stroke-linecap: square"/>
   </g>
   <g id="line2d_22">
    <path d="M 74.355818 286.351989 
L 81.656968 281.198072 
L 88.958119 277.025178 
L 96.259269 273.674368 
L 103.560419 270.797014 
L 110.86157 268.341255 
L 118.16272 266.168525 
L 125.46387 264.259833 
L 132.76502 262.481999 
L 140.066171 260.806492 
L 147.367321 259.264471 
L 154.668471 257.758819 
L 161.969622 256.323578 
L 169.270772 254.867129 
L 176.571922 253.519098 
L 183.873072 252.199037 
L 191.174223 251.031032 
L 198.475373 249.777497 
L 205.776523 248.587605 
L 213.077673 247.532473 
L 220.378824 246.337756 
L 227.679974 245.302375 
L 234.981124 244.245374 
L 242.282275 243.134996 
L 249.583425 242.183678 
L 256.884575 241.178998 
L 264.185725 240.202418 
L 271.486876 239.294699 
L 278.788026 238.245195 
L 286.089176 237.393309 
L 293.390327 236.531773 
L 300.691477 235.618671 
L 307.992627 234.76709 
L 315.293777 233.875645 
L 322.594928 233.038993 
L 329.896078 232.209761 
L 337.197228 231.383775 
L 344.498378 230.54317 
L 351.799529 229.743329 
L 359.100679 228.985096 
L 366.401829 228.205866 
L 373.70298 227.445833 
L 381.00413 226.671122 
L 388.30528 225.929137 
L 395.60643 225.209083 
L 402.907581 224.474272 
L 410.208731 223.670588 
L 417.509881 222.980792 
L 424.811032 222.242839 
L 432.112182 221.617264 
" clip-path="url(#p665023ee45)" style="fill: none; stroke: #7f7f7f; stroke-width: 1.5; stroke-linecap: square"/>
   </g>
   <g id="patch_3">
    <path d="M 56.468 302.2 
L 56.468 10.8 
" style="fill: none; stroke: #000000; stroke-width: 0.8; stroke-linejoin: miter; stroke-linecap: square"/>
   </g>
   <g id="patch_4">
    <path d="M 450 302.2 
L 450 10.8 
" style="fill: none; stroke: #000000; stroke-width: 0.8; stroke-linejoin: miter; stroke-linecap: square"/>
   </g>
   <g id="patch_5">
    <path d="M 56.468 302.2 
L 450 302.2 
" style="fill: none; stroke: #000000; stroke-width: 0.8; stroke-linejoin: miter; stroke-linecap: square"/>
   </g>
   <g id="patch_6">
    <path d="M 56.468 10.8 
L 450 10.8 
" style="fill: none; stroke: #000000; stroke-width: 0.8; stroke-linejoin: miter; stroke-linecap: square"/>
   </g>
   <g id="legend_1">
    <g id="patch_7">
     <path d="M 63.468 150.903125 
L 162.302375 150.903125 
Q 164.302375 150.903125 164.302375 148.903125 
L 164.302375 17.8 
Q 164.302375 15.8 162.302375 15.8 
L 63.468 15.8 
Q 61.468 15.8 61.468 17.8 
L 61.468 148.903125 
Q 61.468 150.903125 63.468 150.903125 
z
" style="fill: #ffffff; opacity: 0.8; stroke: #cccccc; stroke-linejoin: miter"/>
    </g>
    <g id="line2d_23">
     <path d="M 65.468 23.898438 
L 75.468 23.898438 
L 85.468 23.898438 
" style="fill: none; stroke: #1f77b4; stroke-width: 1.5; stroke-linecap: square"/>
    </g>
    <g id="text_17">
     <!-- Ts=80 K -->
     <g transform="translate(93.468 27.398438) scale(0.1 -0.1)">
      <defs>
       <path id="DejaVuSans-54" d="M -19 4666 
L 3928 4666 
L 3928 4134 
L 2272 4134 
L 2272 0 
L 1638 0 
L 1638 4134 
L -19 4134 
L -19 4666 
z
" transform="scale(0.015625)"/>
       <path id="DejaVuSans-73" d="M 2834 3397 
L 2834 2853 
Q 2591 2978 2328 3040 
Q 2066 3103 1784 3103 
Q 1356 3103 1142 2972 
Q 928 2841 928 2578 
Q 928 2378 1081 2264 
Q 1234 2150 1697 2047 
L 1894 2003 
Q 2506 1872 2764 1633 
Q 3022 1394 3022 966 
Q 3022 478 2636 193 
Q 2250 -91 1575 -91 
Q 1294 -91 989 -36 
Q 684 19 347 128 
L 347 722 
Q 666 556 975 473 
Q 1284 391 1588 391 
Q 1994 391 2212 530 
Q 2431 669 2431 922 
Q 2431 1156 2273 1281 
Q 2116 1406 1581 1522 
L 1381 1569 
Q 847 1681 609 1914 
Q 372 2147 372 2553 
Q 372 3047 722 3315 
Q 1072 3584 1716 3584 
Q 2034 3584 2315 3537 
Q 2597 3491 2834 3397 
z
" transform="scale(0.015625)"/>
       <path id="DejaVuSans-3d" d="M 678 2906 
L 4684 2906 
L 4684 2381 
L 678 2381 
L 678 2906 
z
M 678 1631 
L 4684 1631 
L 4684 1100 
L 678 1100 
L 678 1631 
z
" transform="scale(0.015625)"/>
       <path id="DejaVuSans-38" d="M 2034 2216 
Q 1584 2216 1326 1975 
Q 1069 1734 1069 1313 
Q 1069 891 1326 650 
Q 1584 409 2034 409 
Q 2484 409 2743 651 
Q 3003 894 3003 1313 
Q 3003 1734 2745 1975 
Q 2488 2216 2034 2216 
z
M 1403 2484 
Q 997 2584 770 2862 
Q 544 3141 544 3541 
Q 544 4100 942 4425 
Q 1341 4750 2034 4750 
Q 2731 4750 3128 4425 
Q 3525 4100 3525 3541 
Q 3525 3141 3298 2862 
Q 3072 2584 2669 2484 
Q 3125 2378 3379 2068 
Q 3634 1759 3634 1313 
Q 3634 634 3220 271 
Q 2806 -91 2034 -91 
Q 1263 -91 848 271 
Q 434 634 434 1313 
Q 434 1759 690 2068 
Q 947 2378 1403 2484 
z
M 1172 3481 
Q 1172 3119 1398 2916 
Q 1625 2713 2034 2713 
Q 2441 2713 2670 2916 
Q 2900 3119 2900 3481 
Q 2900 3844 2670 4047 
Q 2441 4250 2034 4250 
Q 1625 4250 1398 4047 
Q 1172 3844 1172 3481 
z
" transform="scale(0.015625)"/>
       <path id="DejaVuSans-4b" d="M 628 4666 
L 1259 4666 
L 1259 2694 
L 3353 4666 
L 4166 4666 
L 1850 2491 
L 4331 0 
L 3500 0 
L 1259 2247 
L 1259 0 
L 628 0 
L 628 4666 
z
" transform="scale(0.015625)"/>
      </defs>
      <use xlink:href="#DejaVuSans-54"/>
      <use xlink:href="#DejaVuSans-73" transform="translate(44.583984 0)"/>
      <use xlink:href="#DejaVuSans-3d" transform="translate(96.683594 0)"/>
      <use xlink:href="#DejaVuSans-38" transform="translate(180.472656 0)"/>
      <use xlink:href="#DejaVuSans-30" transform="translate(244.095703 0)"/>
      <use xlink:href="#DejaVuSans-20" transform="translate(307.71875 0)"/>
      <use xlink:href="#DejaVuSans-4b" transform="translate(339.505859 0)"/>
     </g>
    </g>
    <g id="line2d_24">
     <path d="M 65.468 38.576563 
L 75.468 38.576563 
L 85.468 38.576563 
" style="fill: none; stroke: #ff7f0e; stroke-width: 1.5; stroke-linecap: square"/>
    </g>
    <g id="text_18">
     <!-- Ts=100 K -->
     <g transform="translate(93.468 42.076563) scale(0.1 -0.1)">
      <use xlink:href="#DejaVuSans-54"/>
      <use xlink:href="#DejaVuSans-73" transform="translate(44.583984 0)"/>
      <use xlink:href="#DejaVuSans-3d" transform="translate(96.683594 0)"/>
      <use xlink:href="#DejaVuSans-31" transform="translate(180.472656 0)"/>
      <use xlink:href="#DejaVuSans-30" transform="translate(244.095703 0)"/>
      <use xlink:href="#DejaVuSans-30" transform="translate(307.71875 0)"/>
      <use xlink:href="#DejaVuSans-20" transform="translate(371.341797 0)"/>
      <use xlink:href="#DejaVuSans-4b" transform="translate(403.128906 0)"/>
     </g>
    </g>
    <g id="line2d_25">
     <path d="M 65.468 53.254687 
L 75.468 53.254687 
L 85.468 53.254687 
" style="fill: none; stroke: #2ca02c; stroke-width: 1.5; stroke-linecap: square"/>
    </g>
    <g id="text_19">
     <!-- Ts=120 K -->
     <g transform="translate(93.468 56.754687) scale(0.1 -0.1)">
      <use xlink:href="#DejaVuSans-54"/>
      <use xlink:href="#DejaVuSans-73" transform="translate(44.583984 0)"/>
      <use xlink:href="#DejaVuSans-3d" transform="translate(96.683594 0)"/>
      <use xlink:href="#DejaVuSans-31" transform="translate(180.472656 0)"/>
      <use xlink:href="#DejaVuSans-32" transform="translate(244.095703 0)"/>
      <use xlink:href="#DejaVuSans-30" transform="translate(307.71875 0)"/>
      <use xlink:href="#DejaVuSans-20" transform="translate(371.341797 0)"/>
      <use xlink:href="#DejaVuSans-4b" transform="translate(403.128906 0)"/>
     </g>
    </g>
    <g id="line2d_26">
     <path d="M 65.468 67.932813 
L 75.468 67.932813 
L 85.468 67.932813 
" style="fill: none; stroke: #d62728; stroke-width: 1.5; stroke-linecap: square"/>
    </g>
    <g id="text_20">
     <!-- Ts=140 K -->
     <g transform="translate(93.468 71.432813) scale(0.1 -0.1)">
      <use xlink:href="#DejaVuSans-54"/>
      <use xlink:href="#DejaVuSans-73" transform="translate(44.583984 0)"/>
      <use xlink:href="#DejaVuSans-3d" transform="translate(96.683594 0)"/>
      <use xlink:href="#DejaVuSans-31" transform="translate(180.472656 0)"/>
      <use xlink:href="#DejaVuSans-34" transform="translate(244.095703 0)"/>
      <use xlink:href="#DejaVuSans-30" transform="translate(307.71875 0)"/>
      <use xlink:href="#DejaVuSans-20" transform="translate(371.341797 0)"/>
      <use xlink:href="#DejaVuSans-4b" transform="translate(403.128906 0)"/>
     </g>
    </g>
    <g id="line2d_27">
     <path d="M 65.468 82.610938 
L 75.468 82.610938 
L 85.468 82.610938 
" style="fill: none; stroke: #9467bd; stroke-width: 1.5; stroke-linecap: square"/>
    </g>
    <g id="text_21">
     <!-- Ts=160 K -->
     <g transform="translate(93.468 86.110938) scale(0.1 -0.1)">
      <defs>
       <path id="DejaVuSans-36" d="M 2113 2584 
Q 1688 2584 1439 2293 
Q 1191 2003 1191 1497 
Q 1191 994 1439 701 
Q 1688 409 2113 409 
Q 2538 409 2786 701 
Q 3034 994 3034 1497 
Q 3034 2003 2786 2293 
Q 2538 2584 2113 2584 
z
M 3366 4563 
L 3366 3988 
Q 3128 4100 2886 4159 
Q 2644 4219 2406 4219 
Q 1781 4219 1451 3797 
Q 1122 3375 1075 2522 
Q 1259 2794 1537 2939 
Q 1816 3084 2150 3084 
Q 2853 3084 3261 2657 
Q 3669 2231 3669 1497 
Q 3669 778 3244 343 
Q 2819 -91 2113 -91 
Q 1303 -91 875 529 
Q 447 1150 447 2328 
Q 447 3434 972 4092 
Q 1497 4750 2381 4750 
Q 2619 4750 2861 4703 
Q 3103 4656 3366 4563 
z
" transform="scale(0.015625)"/>
      </defs>
      <use xlink:href="#DejaVuSans-54"/>
      <use xlink:href="#DejaVuSans-73" transform="translate(44.583984 0)"/>
      <use xlink:href="#DejaVuSans-3d" transform="translate(96.683594 0)"/>
      <use xlink:href="#DejaVuSans-31" transform="translate(180.472656 0)"/>
      <use xlink:href="#DejaVuSans-36" transform="translate(244.095703 0)"/>
      <use xlink:href="#DejaVuSans-30" transform="translate(307.71875 0)"/>
      <use xlink:href="#DejaVuSans-20" transform="translate(371.341797 0)"/>
      <use xlink:href="#DejaVuSans-4b" transform="translate(403.128906 0)"/>
     </g>
    </g>
    <g id="line2d_28">
     <path d="M 65.468 97.289062 
L 75.468 97.289062 
L 85.468 97.289062 
" style="fill: none; stroke: #8c564b; stroke-width: 1.5; stroke-linecap: square"/>
    </g>
    <g id="text_22">
     <!-- Ts=180 K -->
     <g transform="translate(93.468 100.789062) scale(0.1 -0.1)">
      <use xlink:href="#DejaVuSans-54"/>
      <use xlink:href="#DejaVuSans-73" transform="translate(44.583984 0)"/>
      <use xlink:href="#DejaVuSans-3d" transform="translate(96.683594 0)"/>
      <use xlink:href="#DejaVuSans-31" transform="translate(180.472656 0)"/>
      <use xlink:href="#DejaVuSans-38" transform="translate(244.095703 0)"/>
      <use xlink:href="#DejaVuSans-30" transform="translate(307.71875 0)"/>
      <use xlink:href="#DejaVuSans-20" transform="translate(371.341797 0)"/>
      <use xlink:href="#DejaVuSans-4b" transform="translate(403.128906 0)"/>
     </g>
    </g>
    <g id="line2d_29">
     <path d="M 65.468 111.967187 
L 75.468 111.967187 
L 85.468 111.967187 
" style="fill: none; stroke: #e377c2; stroke-width: 1.5; stroke-linecap: square"/>
    </g>
    <g id="text_23">
     <!-- Ts=200 K -->
     <g transform="translate(93.468 115.467187) scale(0.1 -0.1)">
      <use xlink:href="#DejaVuSans-54"/>
      <use xlink:href="#DejaVuSans-73" transform="translate(44.583984 0)"/>
      <use xlink:href="#DejaVuSans-3d" transform="translate(96.683594 0)"/>
      <use xlink:href="#DejaVuSans-32" transform="translate(180.472656 0)"/>
      <use xlink:href="#DejaVuSans-30" transform="translate(244.095703 0)"/>
      <use xlink:href="#DejaVuSans-30" transform="translate(307.71875 0)"/>
      <use xlink:href="#DejaVuSans-20" transform="translate(371.341797 0)"/>
      <use xlink:href="#DejaVuSans-4b" transform="translate(403.128906 0)"/>
     </g>
    </g>
    <g id="line2d_30">
     <path d="M 65.468 126.645312 
L 75.468 126.645312 
L 85.468 126.645312 
" style="fill: none; stroke: #7f7f7f; stroke-width: 1.5; stroke-linecap: square"/>
    </g>
    <g id="text_24">
     <!-- Ts=220 K -->
     <g transform="translate(93.468 130.145312) scale(0.1 -0.1)">
      <use xlink:href="#DejaVuSans-54"/>
      <use xlink:href="#DejaVuSans-73" transform="translate(44.583984 0)"/>
      <use xlink:href="#DejaVuSans-3d" transform="translate(96.683594 0)"/>
      <use xlink:href="#DejaVuSans-32" transform="translate(180.472656 0)"/>
      <use xlink:href="#DejaVuSans-32" transform="translate(244.095703 0)"/>
      <use xlink:href="#DejaVuSans-30" transform="translate(307.71875 0)"/>
      <use xlink:href="#DejaVuSans-20" transform="translate(371.341797 0)"/>
      <use xlink:href="#DejaVuSans-4b" transform="translate(403.128906 0)"/>
     </g>
    </g>
    <g id="PathCollection_9">
     <g>
      <use xlink:href="#m69f067a39d" x="75.468" y="142.198437" style="fill-opacity: 0.7; stroke: #000000; stroke-opacity: 0.7"/>
     </g>
    </g>
    <g id="text_25">
     <!-- Artificial data -->
     <g transform="translate(93.468 144.823437) scale(0.1 -0.1)">
      <defs>
       <path id="DejaVuSans-41" d="M 2188 4044 
L 1331 1722 
L 3047 1722 
L 2188 4044 
z
M 1831 4666 
L 2547 4666 
L 4325 0 
L 3669 0 
L 3244 1197 
L 1141 1197 
L 716 0 
L 50 0 
L 1831 4666 
z
" transform="scale(0.015625)"/>
       <path id="DejaVuSans-74" d="M 1172 4494 
L 1172 3500 
L 2356 3500 
L 2356 3053 
L 1172 3053 
L 1172 1153 
Q 1172 725 1289 603 
Q 1406 481 1766 481 
L 2356 481 
L 2356 0 
L 1766 0 
Q 1100 0 847 248 
Q 594 497 594 1153 
L 594 3053 
L 172 3053 
L 172 3500 
L 594 3500 
L 594 4494 
L 1172 4494 
z
" transform="scale(0.015625)"/>
       <path id="DejaVuSans-69" d="M 603 3500 
L 1178 3500 
L 1178 0 
L 603 0 
L 603 3500 
z
M 603 4863 
L 1178 4863 
L 1178 4134 
L 603 4134 
L 603 4863 
z
" transform="scale(0.015625)"/>
       <path id="DejaVuSans-66" d="M 2375 4863 
L 2375 4384 
L 1825 4384 
Q 1516 4384 1395 4259 
Q 1275 4134 1275 3809 
L 1275 3500 
L 2222 3500 
L 2222 3053 
L 1275 3053 
L 1275 0 
L 697 0 
L 697 3053 
L 147 3053 
L 147 3500 
L 697 3500 
L 697 3744 
Q 697 4328 969 4595 
Q 1241 4863 1831 4863 
L 2375 4863 
z
" transform="scale(0.015625)"/>
       <path id="DejaVuSans-63" d="M 3122 3366 
L 3122 2828 
Q 2878 2963 2633 3030 
Q 2388 3097 2138 3097 
Q 1578 3097 1268 2742 
Q 959 2388 959 1747 
Q 959 1106 1268 751 
Q 1578 397 2138 397 
Q 2388 397 2633 464 
Q 2878 531 3122 666 
L 3122 134 
Q 2881 22 2623 -34 
Q 2366 -91 2075 -91 
Q 1284 -91 818 406 
Q 353 903 353 1747 
Q 353 2603 823 3093 
Q 1294 3584 2113 3584 
Q 2378 3584 2631 3529 
Q 2884 3475 3122 3366 
z
" transform="scale(0.015625)"/>
       <path id="DejaVuSans-61" d="M 2194 1759 
Q 1497 1759 1228 1600 
Q 959 1441 959 1056 
Q 959 750 1161 570 
Q 1363 391 1709 391 
Q 2188 391 2477 730 
Q 2766 1069 2766 1631 
L 2766 1759 
L 2194 1759 
z
M 3341 1997 
L 3341 0 
L 2766 0 
L 2766 531 
Q 2569 213 2275 61 
Q 1981 -91 1556 -91 
Q 1019 -91 701 211 
Q 384 513 384 1019 
Q 384 1609 779 1909 
Q 1175 2209 1959 2209 
L 2766 2209 
L 2766 2266 
Q 2766 2663 2505 2880 
Q 2244 3097 1772 3097 
Q 1472 3097 1187 3025 
Q 903 2953 641 2809 
L 641 3341 
Q 956 3463 1253 3523 
Q 1550 3584 1831 3584 
Q 2591 3584 2966 3190 
Q 3341 2797 3341 1997 
z
" transform="scale(0.015625)"/>
       <path id="DejaVuSans-6c" d="M 603 4863 
L 1178 4863 
L 1178 0 
L 603 0 
L 603 4863 
z
" transform="scale(0.015625)"/>
       <path id="DejaVuSans-64" d="M 2906 2969 
L 2906 4863 
L 3481 4863 
L 3481 0 
L 2906 0 
L 2906 525 
Q 2725 213 2448 61 
Q 2172 -91 1784 -91 
Q 1150 -91 751 415 
Q 353 922 353 1747 
Q 353 2572 751 3078 
Q 1150 3584 1784 3584 
Q 2172 3584 2448 3432 
Q 2725 3281 2906 2969 
z
M 947 1747 
Q 947 1113 1208 752 
Q 1469 391 1925 391 
Q 2381 391 2643 752 
Q 2906 1113 2906 1747 
Q 2906 2381 2643 2742 
Q 2381 3103 1925 3103 
Q 1469 3103 1208 2742 
Q 947 2381 947 1747 
z
" transform="scale(0.015625)"/>
      </defs>
      <use xlink:href="#DejaVuSans-41"/>
      <use xlink:href="#DejaVuSans-72" transform="translate(68.408203 0)"/>
      <use xlink:href="#DejaVuSans-74" transform="translate(109.521484 0)"/>
      <use xlink:href="#DejaVuSans-69" transform="translate(148.730469 0)"/>
      <use xlink:href="#DejaVuSans-66" transform="translate(176.513672 0)"/>
      <use xlink:href="#DejaVuSans-69" transform="translate(211.71875 0)"/>
      <use xlink:href="#DejaVuSans-63" transform="translate(239.501953 0)"/>
      <use xlink:href="#DejaVuSans-69" transform="translate(294.482422 0)"/>
      <use xlink:href="#DejaVuSans-61" transform="translate(322.265625 0)"/>
      <use xlink:href="#DejaVuSans-6c" transform="translate(383.544922 0)"/>
      <use xlink:href="#DejaVuSans-20" transform="translate(411.328125 0)"/>
      <use xlink:href="#DejaVuSans-64" transform="translate(443.115234 0)"/>
      <use xlink:href="#DejaVuSans-61" transform="translate(506.591797 0)"/>
      <use xlink:href="#DejaVuSans-74" transform="translate(567.871094 0)"/>
      <use xlink:href="#DejaVuSans-61" transform="translate(607.080078 0)"/>
     </g>
    </g>
   </g>
  </g>
 </g>
 <defs>
  <clipPath id="p665023ee45">
   <rect x="56.468" y="10.8" width="393.532" height="291.4"/>
  </clipPath>
 </defs>
</svg>
