<?xml version="1.0" encoding="utf-8" standalone="no"?>
<!DOCTYPE svg PUBLIC "-//W3C//DTD SVG 1.1//EN"
  "http://www.w3.org/Graphics/SVG/1.1/DTD/svg11.dtd">
<svg xmlns:xlink="http://www.w3.org/1999/xlink" width="460.8pt" height="345.6pt" viewBox="0 0 460.8 345.6" xmlns="http://www.w3.org/2000/svg" version="1.1">
 <metadata>
  <rdf:RDF xmlns:dc="http://purl.org/dc/elements/1.1/" xmlns:cc="http://creativecommons.org/ns#" xmlns:rdf="http://www.w3.org/1999/02/22-rdf-syntax-ns#">
   <cc:Work>
    <dc:type rdf:resource="http://purl.org/dc/dcmitype/StillImage"/>
    <dc:date>2026-02-11T13:32:40.277084</dc:date>
    <dc:format>image/svg+xml</dc:format>
    <dc:creator>
     <cc:Agent>
      <dc:title>Matplotlib v3.10.8, https://matplotlib.org/</dc:title>
     </cc:Agent>
    </dc:creator>
   </cc:Work>
  </rdf:RDF>
 </metadata>
 <defs>
  <style type="text/css">*{stroke-linejoin: round; stroke-linecap: butt}</style>
 </defs>
 <g id="figure_1">
  <g id="patch_1">
   <path d="M 0 345.6 
L 460.8 345.6 
L 460.8 0 
L 0 0 
L 0 345.6 
z
" style="fill: none"/>
  </g>
  <g id="axes_1">
   <g id="patch_2">
    <path d="M 76.913112 302.2 
L 450 302.2 
L 450 10.8 
L 76.913112 10.8 
L 76.913112 302.2 
z
" style="fill: none"/>
   </g>
   <g id="FillBetweenPolyCollection_1">
    <path d="M 93.871606 236.176808 
L 93.871606 288.954545 
L 95.575978 280.869224 
L 97.280349 273.338683 
L 98.984721 266.296141 
L 100.689092 259.686084 
L 102.393463 253.461875 
L 104.097835 247.583957 
L 105.802206 242.018493 
L 107.506577 236.736312 
L 109.210949 231.712097 
L 110.91532 226.923732 
L 112.619691 222.351787 
L 114.324063 217.979103 
L 116.028434 213.790448 
L 117.732805 209.772247 
L 119.437177 205.912344 
L 121.141548 202.199815 
L 122.845919 198.624809 
L 124.550291 195.178409 
L 126.254662 191.852523 
L 127.959033 188.639781 
L 129.663405 185.533455 
L 131.367776 182.527257 
L 133.072148 179.615319 
L 134.776519 176.792813 
L 136.48089 174.054943 
L 138.185262 171.397283 
L 139.889633 168.815733 
L 141.594004 166.306494 
L 143.298376 163.866034 
L 145.002747 161.49107 
L 146.707118 159.178539 
L 148.41149 156.925584 
L 150.115861 154.729531 
L 151.820232 152.58788 
L 153.524604 150.498286 
L 155.228975 148.458548 
L 156.933346 146.466596 
L 158.637718 144.520484 
L 160.342089 142.618379 
L 162.04646 140.758549 
L 163.750832 138.939364 
L 165.455203 137.159279 
L 167.159574 135.416834 
L 168.863946 133.710136 
L 170.568317 132.030322 
L 172.272689 130.384491 
L 173.97706 128.771448 
L 175.681431 127.190061 
L 177.385803 125.63925 
L 179.090174 124.11799 
L 180.794545 122.635895 
L 182.498917 121.181633 
L 184.203288 119.753813 
L 185.907659 118.351601 
L 187.612031 116.9742 
L 189.316402 115.620848 
L 191.020773 114.290819 
L 192.725145 112.983413 
L 194.429516 111.697965 
L 196.133887 110.433835 
L 197.838259 109.190409 
L 199.54263 107.967099 
L 201.247001 106.763342 
L 202.951373 105.578595 
L 204.655744 104.412338 
L 206.360116 103.263795 
L 208.064487 102.130603 
L 209.768858 101.014513 
L 211.47323 99.915078 
L 213.177601 98.831868 
L 214.881972 97.764466 
L 216.586344 96.712409 
L 218.290715 95.675191 
L 219.995086 94.649718 
L 221.699458 93.634423 
L 223.403829 92.63323 
L 225.1082 91.645798 
L 226.812572 90.671799 
L 228.516943 89.714403 
L 230.221314 88.785495 
L 231.925686 87.868717 
L 233.630057 86.960714 
L 235.334428 86.055755 
L 237.0388 85.162353 
L 238.743171 84.280252 
L 240.447543 83.408988 
L 242.151914 82.553064 
L 243.856285 81.72075 
L 245.560657 80.898472 
L 247.265028 80.077369 
L 248.969399 79.259808 
L 250.673771 78.451181 
L 252.378142 77.641024 
L 254.082513 76.835204 
L 255.786885 76.061838 
L 257.491256 75.297284 
L 259.195627 74.541366 
L 260.899999 73.793916 
L 262.60437 73.048718 
L 264.308741 72.311468 
L 266.013113 71.582307 
L 267.717484 70.861081 
L 269.421855 70.148016 
L 271.126227 69.445643 
L 272.830598 68.750703 
L 274.53497 68.062748 
L 276.239341 67.396834 
L 277.943712 66.713729 
L 279.648084 66.042743 
L 281.352455 65.404676 
L 283.056826 64.776522 
L 284.761198 64.136685 
L 286.465569 63.499462 
L 288.16994 62.867743 
L 289.874312 62.247851 
L 291.578683 61.630911 
L 293.283054 61.009223 
L 294.987426 60.401871 
L 296.691797 59.809773 
L 298.396168 59.221591 
L 300.10054 58.650039 
L 301.804911 58.077069 
L 303.509282 57.520594 
L 305.213654 56.967978 
L 306.918025 56.435203 
L 308.622397 55.890736 
L 310.326768 55.373094 
L 312.031139 54.859655 
L 313.735511 54.297931 
L 315.439882 53.75845 
L 317.144253 53.240285 
L 318.848625 52.726552 
L 320.552996 52.217187 
L 322.257367 51.712125 
L 323.961739 51.210402 
L 325.66611 50.707243 
L 327.370481 50.222124 
L 329.074853 49.733462 
L 330.779224 49.24876 
L 332.483595 48.768165 
L 334.187967 48.306076 
L 335.892338 47.841956 
L 337.596709 47.374163 
L 339.301081 46.91008 
L 341.005452 46.469702 
L 342.709824 46.0371 
L 344.414195 45.596284 
L 346.118566 45.156832 
L 347.822938 44.715153 
L 349.527309 44.279483 
L 351.23168 43.854102 
L 352.936052 43.431896 
L 354.640423 43.013055 
L 356.344794 42.594963 
L 358.049166 42.184363 
L 359.753537 41.775876 
L 361.457908 41.382267 
L 363.16228 40.991461 
L 364.866651 40.603423 
L 366.571022 40.215524 
L 368.275394 39.829166 
L 369.979765 39.445448 
L 371.684136 39.056741 
L 373.388508 38.663221 
L 375.092879 38.279251 
L 376.797251 37.906729 
L 378.501622 37.536745 
L 380.205993 37.169268 
L 381.910365 36.80427 
L 383.614736 36.441461 
L 385.319107 36.081026 
L 387.023479 35.714948 
L 388.72785 35.349326 
L 390.432221 34.997011 
L 392.136593 34.646999 
L 393.840964 34.299141 
L 395.545335 33.953369 
L 397.249707 33.59861 
L 398.954078 33.246155 
L 400.658449 32.895979 
L 402.362821 32.548055 
L 404.067192 32.202358 
L 405.771563 31.858864 
L 407.475935 31.517547 
L 409.180306 31.178384 
L 410.884678 30.841351 
L 412.589049 30.506424 
L 414.29342 30.17358 
L 415.997792 29.842797 
L 417.702163 29.514052 
L 419.406534 29.187295 
L 421.110906 28.862348 
L 422.815277 28.539376 
L 424.519648 28.218358 
L 426.22402 27.899274 
L 427.928391 27.582102 
L 429.632762 27.266823 
L 431.337134 26.953418 
L 433.041505 26.641866 
L 433.041505 24.045455 
L 433.041505 24.045455 
L 431.337134 24.376127 
L 429.632762 24.708814 
L 427.928391 25.04354 
L 426.22402 25.380324 
L 424.519648 25.719191 
L 422.815277 26.060162 
L 421.110906 26.403261 
L 419.406534 26.74851 
L 417.702163 27.095935 
L 415.997792 27.445558 
L 414.29342 27.797405 
L 412.589049 28.150771 
L 410.884678 28.507751 
L 409.180306 28.866244 
L 407.475935 29.227062 
L 405.771563 29.59023 
L 404.067192 29.955777 
L 402.362821 30.323729 
L 400.658449 30.694114 
L 398.954078 31.066961 
L 397.249707 31.442298 
L 395.545335 31.820155 
L 393.840964 32.200562 
L 392.136593 32.58355 
L 390.432221 32.969148 
L 388.72785 33.357388 
L 387.023479 33.748303 
L 385.319107 34.141925 
L 383.614736 34.538406 
L 381.910365 34.93779 
L 380.205993 35.339983 
L 378.501622 35.745022 
L 376.797251 36.152942 
L 375.092879 36.563778 
L 373.388508 36.975967 
L 371.684136 37.385075 
L 369.979765 37.809989 
L 368.275394 38.236358 
L 366.571022 38.661828 
L 364.866651 39.087355 
L 363.16228 39.516033 
L 361.457908 39.953589 
L 359.753537 40.396868 
L 358.049166 40.839412 
L 356.344794 41.276826 
L 354.640423 41.713859 
L 352.936052 42.155334 
L 351.23168 42.604601 
L 349.527309 43.053223 
L 347.822938 43.505387 
L 346.118566 43.964562 
L 344.414195 44.43039 
L 342.709824 44.905812 
L 341.005452 45.385138 
L 339.301081 45.867383 
L 337.596709 46.342403 
L 335.892338 46.821328 
L 334.187967 47.304382 
L 332.483595 47.789093 
L 330.779224 48.268183 
L 329.074853 48.774286 
L 327.370481 49.278639 
L 325.66611 49.779561 
L 323.961739 50.286866 
L 322.257367 50.798426 
L 320.552996 51.31877 
L 318.848625 51.826519 
L 317.144253 52.339446 
L 315.439882 52.858769 
L 313.735511 53.37954 
L 312.031139 53.90252 
L 310.326768 54.435021 
L 308.622397 54.958628 
L 306.918025 55.502682 
L 305.213654 56.041523 
L 303.509282 56.583116 
L 301.804911 57.119713 
L 300.10054 57.668367 
L 298.396168 58.213197 
L 296.691797 58.75844 
L 294.987426 59.305371 
L 293.283054 59.864156 
L 291.578683 60.424855 
L 289.874312 60.99098 
L 288.16994 61.562558 
L 286.465569 62.138778 
L 284.761198 62.720807 
L 283.056826 63.311247 
L 281.352455 63.923301 
L 279.648084 64.527946 
L 277.943712 65.121534 
L 276.239341 65.720948 
L 274.53497 66.334871 
L 272.830598 66.958418 
L 271.126227 67.590767 
L 269.421855 68.233419 
L 267.717484 68.882715 
L 266.013113 69.538774 
L 264.308741 70.201723 
L 262.60437 70.871687 
L 260.899999 71.537833 
L 259.195627 72.208583 
L 257.491256 72.886535 
L 255.786885 73.568488 
L 254.082513 74.259228 
L 252.378142 74.964549 
L 250.673771 75.668069 
L 248.969399 76.372362 
L 247.265028 77.084537 
L 245.560657 77.804749 
L 243.856285 78.53779 
L 242.151914 79.280068 
L 240.447543 80.030973 
L 238.743171 80.790681 
L 237.0388 81.559376 
L 235.334428 82.337245 
L 233.630057 83.12448 
L 231.925686 83.921282 
L 230.221314 84.727856 
L 228.516943 85.544413 
L 226.812572 86.371171 
L 225.1082 87.208356 
L 223.403829 88.0562 
L 221.699458 88.914943 
L 219.995086 89.784833 
L 218.290715 90.666346 
L 216.586344 91.55973 
L 214.881972 92.465062 
L 213.177601 93.382624 
L 211.47323 94.312709 
L 209.768858 95.255619 
L 208.064487 96.211666 
L 206.360116 97.181174 
L 204.655744 98.164479 
L 202.951373 99.161928 
L 201.247001 100.181975 
L 199.54263 101.219853 
L 197.838259 102.273248 
L 196.133887 103.342572 
L 194.429516 104.428252 
L 192.725145 105.530731 
L 191.020773 106.650469 
L 189.316402 107.787946 
L 187.612031 108.943659 
L 185.907659 110.118128 
L 184.203288 111.311893 
L 182.498917 112.525515 
L 180.794545 113.759581 
L 179.090174 115.014703 
L 177.385803 116.291519 
L 175.681431 117.590696 
L 173.97706 118.912928 
L 172.272689 120.25933 
L 170.568317 121.630293 
L 168.863946 123.026608 
L 167.159574 124.449111 
L 165.455203 125.898676 
L 163.750832 127.366539 
L 162.04646 128.859115 
L 160.342089 130.381205 
L 158.637718 131.93385 
L 156.933346 133.518144 
L 155.228975 135.135241 
L 153.524604 136.786352 
L 151.820232 138.472758 
L 150.115861 140.195808 
L 148.41149 141.956927 
L 146.707118 143.757622 
L 145.002747 145.599487 
L 143.298376 147.484211 
L 141.594004 149.413583 
L 139.889633 151.389504 
L 138.185262 153.413993 
L 136.48089 155.507145 
L 134.776519 157.655782 
L 133.072148 159.860746 
L 131.367776 162.124703 
L 129.663405 164.450506 
L 127.959033 166.841214 
L 126.254662 169.300107 
L 124.550291 171.830713 
L 122.845919 174.436831 
L 121.141548 177.122561 
L 119.437177 179.892333 
L 117.732805 182.750943 
L 116.028434 185.703599 
L 114.324063 188.755963 
L 112.619691 191.914211 
L 110.91532 195.185089 
L 109.210949 198.575992 
L 107.506577 202.095043 
L 105.802206 205.751195 
L 104.097835 209.554349 
L 102.393463 213.515482 
L 100.689092 217.64693 
L 98.984721 221.962666 
L 97.280349 226.477647 
L 95.575978 231.209164 
L 93.871606 236.176808 
z
" clip-path="url(#p1972d35fbd)" style="fill: #1f77b4; fill-opacity: 0.3"/>
   </g>
   <g id="matplotlib.axis_1">
    <g id="xtick_1">
     <g id="line2d_1">
      <defs>
       <path id="me2bcd093f9" d="M 0 0 
L 0 3.5 
" style="stroke: #000000; stroke-width: 0.8"/>
      </defs>
      <g>
       <use xlink:href="#me2bcd093f9" x="85.091645" y="302.2" style="stroke: #000000; stroke-width: 0.8"/>
      </g>
     </g>
     <g id="text_1">
      <!-- 75 -->
      <g transform="translate(78.729145 316.798437) scale(0.1 -0.1)">
       <defs>
        <path id="DejaVuSans-37" d="M 525 4666 
L 3525 4666 
L 3525 4397 
L 1831 0 
L 1172 0 
L 2766 4134 
L 525 4134 
L 525 4666 
z
" transform="scale(0.015625)"/>
        <path id="DejaVuSans-35" d="M 691 4666 
L 3169 4666 
L 3169 4134 
L 1269 4134 
L 1269 2991 
Q 1406 3038 1543 3061 
Q 1681 3084 1819 3084 
Q 2600 3084 3056 2656 
Q 3513 2228 3513 1497 
Q 3513 744 3044 326 
Q 2575 -91 1722 -91 
Q 1428 -91 1123 -41 
Q 819 9 494 109 
L 494 744 
Q 775 591 1075 516 
Q 1375 441 1709 441 
Q 2250 441 2565 725 
Q 2881 1009 2881 1497 
Q 2881 1984 2565 2268 
Q 2250 2553 1709 2553 
Q 1456 2553 1204 2497 
Q 953 2441 691 2322 
L 691 4666 
z
" transform="scale(0.015625)"/>
       </defs>
       <use xlink:href="#DejaVuSans-37"/>
       <use xlink:href="#DejaVuSans-35" transform="translate(63.623047 0)"/>
      </g>
     </g>
    </g>
    <g id="xtick_2">
     <g id="line2d_2">
      <g>
       <use xlink:href="#me2bcd093f9" x="128.991451" y="302.2" style="stroke: #000000; stroke-width: 0.8"/>
      </g>
     </g>
     <g id="text_2">
      <!-- 100 -->
      <g transform="translate(119.447701 316.798437) scale(0.1 -0.1)">
       <defs>
        <path id="DejaVuSans-31" d="M 794 531 
L 1825 531 
L 1825 4091 
L 703 3866 
L 703 4441 
L 1819 4666 
L 2450 4666 
L 2450 531 
L 3481 531 
L 3481 0 
L 794 0 
L 794 531 
z
" transform="scale(0.015625)"/>
        <path id="DejaVuSans-30" d="M 2034 4250 
Q 1547 4250 1301 3770 
Q 1056 3291 1056 2328 
Q 1056 1369 1301 889 
Q 1547 409 2034 409 
Q 2525 409 2770 889 
Q 3016 1369 3016 2328 
Q 3016 3291 2770 3770 
Q 2525 4250 2034 4250 
z
M 2034 4750 
Q 2819 4750 3233 4129 
Q 3647 3509 3647 2328 
Q 3647 1150 3233 529 
Q 2819 -91 2034 -91 
Q 1250 -91 836 529 
Q 422 1150 422 2328 
Q 422 3509 836 4129 
Q 1250 4750 2034 4750 
z
" transform="scale(0.015625)"/>
       </defs>
       <use xlink:href="#DejaVuSans-31"/>
       <use xlink:href="#DejaVuSans-30" transform="translate(63.623047 0)"/>
       <use xlink:href="#DejaVuSans-30" transform="translate(127.246094 0)"/>
      </g>
     </g>
    </g>
    <g id="xtick_3">
     <g id="line2d_3">
      <g>
       <use xlink:href="#me2bcd093f9" x="172.891257" y="302.2" style="stroke: #000000; stroke-width: 0.8"/>
      </g>
     </g>
     <g id="text_3">
      <!-- 125 -->
      <g transform="translate(163.347507 316.798437) scale(0.1 -0.1)">
       <defs>
        <path id="DejaVuSans-32" d="M 1228 531 
L 3431 531 
L 3431 0 
L 469 0 
L 469 531 
Q 828 903 1448 1529 
Q 2069 2156 2228 2338 
Q 2531 2678 2651 2914 
Q 2772 3150 2772 3378 
Q 2772 3750 2511 3984 
Q 2250 4219 1831 4219 
Q 1534 4219 1204 4116 
Q 875 4013 500 3803 
L 500 4441 
Q 881 4594 1212 4672 
Q 1544 4750 1819 4750 
Q 2544 4750 2975 4387 
Q 3406 4025 3406 3419 
Q 3406 3131 3298 2873 
Q 3191 2616 2906 2266 
Q 2828 2175 2409 1742 
Q 1991 1309 1228 531 
z
" transform="scale(0.015625)"/>
       </defs>
       <use xlink:href="#DejaVuSans-31"/>
       <use xlink:href="#DejaVuSans-32" transform="translate(63.623047 0)"/>
       <use xlink:href="#DejaVuSans-35" transform="translate(127.246094 0)"/>
      </g>
     </g>
    </g>
    <g id="xtick_4">
     <g id="line2d_4">
      <g>
       <use xlink:href="#me2bcd093f9" x="216.791062" y="302.2" style="stroke: #000000; stroke-width: 0.8"/>
      </g>
     </g>
     <g id="text_4">
      <!-- 150 -->
      <g transform="translate(207.247312 316.798437) scale(0.1 -0.1)">
       <use xlink:href="#DejaVuSans-31"/>
       <use xlink:href="#DejaVuSans-35" transform="translate(63.623047 0)"/>
       <use xlink:href="#DejaVuSans-30" transform="translate(127.246094 0)"/>
      </g>
     </g>
    </g>
    <g id="xtick_5">
     <g id="line2d_5">
      <g>
       <use xlink:href="#me2bcd093f9" x="260.690868" y="302.2" style="stroke: #000000; stroke-width: 0.8"/>
      </g>
     </g>
     <g id="text_5">
      <!-- 175 -->
      <g transform="translate(251.147118 316.798437) scale(0.1 -0.1)">
       <use xlink:href="#DejaVuSans-31"/>
       <use xlink:href="#DejaVuSans-37" transform="translate(63.623047 0)"/>
       <use xlink:href="#DejaVuSans-35" transform="translate(127.246094 0)"/>
      </g>
     </g>
    </g>
    <g id="xtick_6">
     <g id="line2d_6">
      <g>
       <use xlink:href="#me2bcd093f9" x="304.590674" y="302.2" style="stroke: #000000; stroke-width: 0.8"/>
      </g>
     </g>
     <g id="text_6">
      <!-- 200 -->
      <g transform="translate(295.046924 316.798437) scale(0.1 -0.1)">
       <use xlink:href="#DejaVuSans-32"/>
       <use xlink:href="#DejaVuSans-30" transform="translate(63.623047 0)"/>
       <use xlink:href="#DejaVuSans-30" transform="translate(127.246094 0)"/>
      </g>
     </g>
    </g>
    <g id="xtick_7">
     <g id="line2d_7">
      <g>
       <use xlink:href="#me2bcd093f9" x="348.490479" y="302.2" style="stroke: #000000; stroke-width: 0.8"/>
      </g>
     </g>
     <g id="text_7">
      <!-- 225 -->
      <g transform="translate(338.946729 316.798437) scale(0.1 -0.1)">
       <use xlink:href="#DejaVuSans-32"/>
       <use xlink:href="#DejaVuSans-32" transform="translate(63.623047 0)"/>
       <use xlink:href="#DejaVuSans-35" transform="translate(127.246094 0)"/>
      </g>
     </g>
    </g>
    <g id="xtick_8">
     <g id="line2d_8">
      <g>
       <use xlink:href="#me2bcd093f9" x="392.390285" y="302.2" style="stroke: #000000; stroke-width: 0.8"/>
      </g>
     </g>
     <g id="text_8">
      <!-- 250 -->
      <g transform="translate(382.846535 316.798437) scale(0.1 -0.1)">
       <use xlink:href="#DejaVuSans-32"/>
       <use xlink:href="#DejaVuSans-35" transform="translate(63.623047 0)"/>
       <use xlink:href="#DejaVuSans-30" transform="translate(127.246094 0)"/>
      </g>
     </g>
    </g>
    <g id="xtick_9">
     <g id="line2d_9">
      <g>
       <use xlink:href="#me2bcd093f9" x="436.290091" y="302.2" style="stroke: #000000; stroke-width: 0.8"/>
      </g>
     </g>
     <g id="text_9">
      <!-- 275 -->
      <g transform="translate(426.746341 316.798437) scale(0.1 -0.1)">
       <use xlink:href="#DejaVuSans-32"/>
       <use xlink:href="#DejaVuSans-37" transform="translate(63.623047 0)"/>
       <use xlink:href="#DejaVuSans-35" transform="translate(127.246094 0)"/>
      </g>
     </g>
    </g>
    <g id="text_10">
     <!-- $T$ (K) -->
     <g transform="translate(251.606556 330.476562) scale(0.1 -0.1)">
      <defs>
       <path id="DejaVuSans-Oblique-54" d="M 378 4666 
L 4325 4666 
L 4225 4134 
L 2559 4134 
L 1759 0 
L 1125 0 
L 1925 4134 
L 275 4134 
L 378 4666 
z
" transform="scale(0.015625)"/>
       <path id="DejaVuSans-20" transform="scale(0.015625)"/>
       <path id="DejaVuSans-28" d="M 1984 4856 
Q 1566 4138 1362 3434 
Q 1159 2731 1159 2009 
Q 1159 1288 1364 580 
Q 1569 -128 1984 -844 
L 1484 -844 
Q 1016 -109 783 600 
Q 550 1309 550 2009 
Q 550 2706 781 3412 
Q 1013 4119 1484 4856 
L 1984 4856 
z
" transform="scale(0.015625)"/>
       <path id="DejaVuSans-4b" d="M 628 4666 
L 1259 4666 
L 1259 2694 
L 3353 4666 
L 4166 4666 
L 1850 2491 
L 4331 0 
L 3500 0 
L 1259 2247 
L 1259 0 
L 628 0 
L 628 4666 
z
" transform="scale(0.015625)"/>
       <path id="DejaVuSans-29" d="M 513 4856 
L 1013 4856 
Q 1481 4119 1714 3412 
Q 1947 2706 1947 2009 
Q 1947 1309 1714 600 
Q 1481 -109 1013 -844 
L 513 -844 
Q 928 -128 1133 580 
Q 1338 1288 1338 2009 
Q 1338 2731 1133 3434 
Q 928 4138 513 4856 
z
" transform="scale(0.015625)"/>
      </defs>
      <use xlink:href="#DejaVuSans-Oblique-54" transform="translate(0 0.125)"/>
      <use xlink:href="#DejaVuSans-20" transform="translate(61.083984 0.125)"/>
      <use xlink:href="#DejaVuSans-28" transform="translate(92.871094 0.125)"/>
      <use xlink:href="#DejaVuSans-4b" transform="translate(131.884766 0.125)"/>
      <use xlink:href="#DejaVuSans-29" transform="translate(197.460938 0.125)"/>
     </g>
    </g>
   </g>
   <g id="matplotlib.axis_2">
    <g id="ytick_1">
     <g id="line2d_10">
      <defs>
       <path id="m399e8e77e3" d="M 0 0 
L -3.5 0 
" style="stroke: #000000; stroke-width: 0.8"/>
      </defs>
      <g>
       <use xlink:href="#m399e8e77e3" x="76.913112" y="37.840942" style="stroke: #000000; stroke-width: 0.8"/>
      </g>
     </g>
     <g id="text_11">
      <!-- $\mathdefault{10^{-6}}$ -->
      <g transform="translate(46.413112 41.640161) scale(0.1 -0.1)">
       <defs>
        <path id="DejaVuSans-2212" d="M 678 2272 
L 4684 2272 
L 4684 1741 
L 678 1741 
L 678 2272 
z
" transform="scale(0.015625)"/>
        <path id="DejaVuSans-36" d="M 2113 2584 
Q 1688 2584 1439 2293 
Q 1191 2003 1191 1497 
Q 1191 994 1439 701 
Q 1688 409 2113 409 
Q 2538 409 2786 701 
Q 3034 994 3034 1497 
Q 3034 2003 2786 2293 
Q 2538 2584 2113 2584 
z
M 3366 4563 
L 3366 3988 
Q 3128 4100 2886 4159 
Q 2644 4219 2406 4219 
Q 1781 4219 1451 3797 
Q 1122 3375 1075 2522 
Q 1259 2794 1537 2939 
Q 1816 3084 2150 3084 
Q 2853 3084 3261 2657 
Q 3669 2231 3669 1497 
Q 3669 778 3244 343 
Q 2819 -91 2113 -91 
Q 1303 -91 875 529 
Q 447 1150 447 2328 
Q 447 3434 972 4092 
Q 1497 4750 2381 4750 
Q 2619 4750 2861 4703 
Q 3103 4656 3366 4563 
z
" transform="scale(0.015625)"/>
       </defs>
       <use xlink:href="#DejaVuSans-31" transform="translate(0 0.765625)"/>
       <use xlink:href="#DejaVuSans-30" transform="translate(63.623047 0.765625)"/>
       <use xlink:href="#DejaVuSans-2212" transform="translate(128.203125 39.046875) scale(0.7)"/>
       <use xlink:href="#DejaVuSans-36" transform="translate(186.855469 39.046875) scale(0.7)"/>
      </g>
     </g>
    </g>
    <g id="ytick_2">
     <g id="line2d_11">
      <defs>
       <path id="m4f864e5d6b" d="M 0 0 
L -2 0 
" style="stroke: #000000; stroke-width: 0.6"/>
      </defs>
      <g>
       <use xlink:href="#m4f864e5d6b" x="76.913112" y="250.410354" style="stroke: #000000; stroke-width: 0.6"/>
      </g>
     </g>
     <g id="text_12">
      <!-- $\mathdefault{2\times10^{-7}}$ -->
      <g transform="translate(29.413112 254.209573) scale(0.1 -0.1)">
       <defs>
        <path id="DejaVuSans-d7" d="M 4488 3438 
L 3059 2003 
L 4488 575 
L 4116 197 
L 2681 1631 
L 1247 197 
L 878 575 
L 2303 2003 
L 878 3438 
L 1247 3816 
L 2681 2381 
L 4116 3816 
L 4488 3438 
z
" transform="scale(0.015625)"/>
       </defs>
       <use xlink:href="#DejaVuSans-32" transform="translate(0 0.684375)"/>
       <use xlink:href="#DejaVuSans-d7" transform="translate(83.105469 0.684375)"/>
       <use xlink:href="#DejaVuSans-31" transform="translate(186.376953 0.684375)"/>
       <use xlink:href="#DejaVuSans-30" transform="translate(250 0.684375)"/>
       <use xlink:href="#DejaVuSans-2212" transform="translate(314.580078 38.965625) scale(0.7)"/>
       <use xlink:href="#DejaVuSans-37" transform="translate(373.232422 38.965625) scale(0.7)"/>
      </g>
     </g>
    </g>
    <g id="ytick_3">
     <g id="line2d_12">
      <g>
       <use xlink:href="#m4f864e5d6b" x="76.913112" y="196.857819" style="stroke: #000000; stroke-width: 0.6"/>
      </g>
     </g>
     <g id="text_13">
      <!-- $\mathdefault{3\times10^{-7}}$ -->
      <g transform="translate(29.413112 200.657038) scale(0.1 -0.1)">
       <defs>
        <path id="DejaVuSans-33" d="M 2597 2516 
Q 3050 2419 3304 2112 
Q 3559 1806 3559 1356 
Q 3559 666 3084 287 
Q 2609 -91 1734 -91 
Q 1441 -91 1130 -33 
Q 819 25 488 141 
L 488 750 
Q 750 597 1062 519 
Q 1375 441 1716 441 
Q 2309 441 2620 675 
Q 2931 909 2931 1356 
Q 2931 1769 2642 2001 
Q 2353 2234 1838 2234 
L 1294 2234 
L 1294 2753 
L 1863 2753 
Q 2328 2753 2575 2939 
Q 2822 3125 2822 3475 
Q 2822 3834 2567 4026 
Q 2313 4219 1838 4219 
Q 1578 4219 1281 4162 
Q 984 4106 628 3988 
L 628 4550 
Q 988 4650 1302 4700 
Q 1616 4750 1894 4750 
Q 2613 4750 3031 4423 
Q 3450 4097 3450 3541 
Q 3450 3153 3228 2886 
Q 3006 2619 2597 2516 
z
" transform="scale(0.015625)"/>
       </defs>
       <use xlink:href="#DejaVuSans-33" transform="translate(0 0.684375)"/>
       <use xlink:href="#DejaVuSans-d7" transform="translate(83.105469 0.684375)"/>
       <use xlink:href="#DejaVuSans-31" transform="translate(186.376953 0.684375)"/>
       <use xlink:href="#DejaVuSans-30" transform="translate(250 0.684375)"/>
       <use xlink:href="#DejaVuSans-2212" transform="translate(314.580078 38.965625) scale(0.7)"/>
       <use xlink:href="#DejaVuSans-37" transform="translate(373.232422 38.965625) scale(0.7)"/>
      </g>
     </g>
    </g>
    <g id="ytick_4">
     <g id="line2d_13">
      <g>
       <use xlink:href="#m4f864e5d6b" x="76.913112" y="158.861691" style="stroke: #000000; stroke-width: 0.6"/>
      </g>
     </g>
     <g id="text_14">
      <!-- $\mathdefault{4\times10^{-7}}$ -->
      <g transform="translate(29.413112 162.66091) scale(0.1 -0.1)">
       <defs>
        <path id="DejaVuSans-34" d="M 2419 4116 
L 825 1625 
L 2419 1625 
L 2419 4116 
z
M 2253 4666 
L 3047 4666 
L 3047 1625 
L 3713 1625 
L 3713 1100 
L 3047 1100 
L 3047 0 
L 2419 0 
L 2419 1100 
L 313 1100 
L 313 1709 
L 2253 4666 
z
" transform="scale(0.015625)"/>
       </defs>
       <use xlink:href="#DejaVuSans-34" transform="translate(0 0.684375)"/>
       <use xlink:href="#DejaVuSans-d7" transform="translate(83.105469 0.684375)"/>
       <use xlink:href="#DejaVuSans-31" transform="translate(186.376953 0.684375)"/>
       <use xlink:href="#DejaVuSans-30" transform="translate(250 0.684375)"/>
       <use xlink:href="#DejaVuSans-2212" transform="translate(314.580078 38.965625) scale(0.7)"/>
       <use xlink:href="#DejaVuSans-37" transform="translate(373.232422 38.965625) scale(0.7)"/>
      </g>
     </g>
    </g>
    <g id="ytick_5">
     <g id="line2d_14">
      <g>
       <use xlink:href="#m4f864e5d6b" x="76.913112" y="129.389605" style="stroke: #000000; stroke-width: 0.6"/>
      </g>
     </g>
    </g>
    <g id="ytick_6">
     <g id="line2d_15">
      <g>
       <use xlink:href="#m4f864e5d6b" x="76.913112" y="105.309157" style="stroke: #000000; stroke-width: 0.6"/>
      </g>
     </g>
     <g id="text_15">
      <!-- $\mathdefault{6\times10^{-7}}$ -->
      <g transform="translate(29.413112 109.108375) scale(0.1 -0.1)">
       <use xlink:href="#DejaVuSans-36" transform="translate(0 0.684375)"/>
       <use xlink:href="#DejaVuSans-d7" transform="translate(83.105469 0.684375)"/>
       <use xlink:href="#DejaVuSans-31" transform="translate(186.376953 0.684375)"/>
       <use xlink:href="#DejaVuSans-30" transform="translate(250 0.684375)"/>
       <use xlink:href="#DejaVuSans-2212" transform="translate(314.580078 38.965625) scale(0.7)"/>
       <use xlink:href="#DejaVuSans-37" transform="translate(373.232422 38.965625) scale(0.7)"/>
      </g>
     </g>
    </g>
    <g id="ytick_7">
     <g id="line2d_16">
      <g>
       <use xlink:href="#m4f864e5d6b" x="76.913112" y="84.949428" style="stroke: #000000; stroke-width: 0.6"/>
      </g>
     </g>
    </g>
    <g id="ytick_8">
     <g id="line2d_17">
      <g>
       <use xlink:href="#m4f864e5d6b" x="76.913112" y="67.313029" style="stroke: #000000; stroke-width: 0.6"/>
      </g>
     </g>
    </g>
    <g id="ytick_9">
     <g id="line2d_18">
      <g>
       <use xlink:href="#m4f864e5d6b" x="76.913112" y="51.756622" style="stroke: #000000; stroke-width: 0.6"/>
      </g>
     </g>
    </g>
    <g id="text_16">
     <!-- $\alpha(T)$ (m$^2$/s) -->
     <g transform="translate(23.333424 183.85) rotate(-90) scale(0.1 -0.1)">
      <defs>
       <path id="DejaVuSans-Oblique-3b1" d="M 2619 1628 
L 2622 2350 
Q 2625 3088 2069 3091 
Q 1653 3094 1394 2747 
Q 1069 2319 959 1747 
Q 825 1059 994 731 
Q 1169 397 1547 397 
Q 1966 397 2319 1063 
L 2619 1628 
z
M 2166 3578 
Q 3141 3594 3128 2584 
Q 3128 2584 3616 3500 
L 4128 3500 
L 3119 1603 
L 3109 919 
Q 3109 766 3194 638 
Q 3291 488 3391 488 
L 3669 488 
L 3575 0 
L 3228 0 
Q 2934 0 2722 263 
Q 2622 394 2619 669 
Q 2416 334 2066 50 
Q 1900 -81 1453 -78 
Q 722 -72 456 397 
Q 184 884 353 1747 
Q 534 2675 1009 3097 
Q 1544 3569 2166 3578 
z
" transform="scale(0.015625)"/>
       <path id="DejaVuSans-6d" d="M 3328 2828 
Q 3544 3216 3844 3400 
Q 4144 3584 4550 3584 
Q 5097 3584 5394 3201 
Q 5691 2819 5691 2113 
L 5691 0 
L 5113 0 
L 5113 2094 
Q 5113 2597 4934 2840 
Q 4756 3084 4391 3084 
Q 3944 3084 3684 2787 
Q 3425 2491 3425 1978 
L 3425 0 
L 2847 0 
L 2847 2094 
Q 2847 2600 2669 2842 
Q 2491 3084 2119 3084 
Q 1678 3084 1418 2786 
Q 1159 2488 1159 1978 
L 1159 0 
L 581 0 
L 581 3500 
L 1159 3500 
L 1159 2956 
Q 1356 3278 1631 3431 
Q 1906 3584 2284 3584 
Q 2666 3584 2933 3390 
Q 3200 3197 3328 2828 
z
" transform="scale(0.015625)"/>
       <path id="DejaVuSans-2f" d="M 1625 4666 
L 2156 4666 
L 531 -594 
L 0 -594 
L 1625 4666 
z
" transform="scale(0.015625)"/>
       <path id="DejaVuSans-73" d="M 2834 3397 
L 2834 2853 
Q 2591 2978 2328 3040 
Q 2066 3103 1784 3103 
Q 1356 3103 1142 2972 
Q 928 2841 928 2578 
Q 928 2378 1081 2264 
Q 1234 2150 1697 2047 
L 1894 2003 
Q 2506 1872 2764 1633 
Q 3022 1394 3022 966 
Q 3022 478 2636 193 
Q 2250 -91 1575 -91 
Q 1294 -91 989 -36 
Q 684 19 347 128 
L 347 722 
Q 666 556 975 473 
Q 1284 391 1588 391 
Q 1994 391 2212 530 
Q 2431 669 2431 922 
Q 2431 1156 2273 1281 
Q 2116 1406 1581 1522 
L 1381 1569 
Q 847 1681 609 1914 
Q 372 2147 372 2553 
Q 372 3047 722 3315 
Q 1072 3584 1716 3584 
Q 2034 3584 2315 3537 
Q 2597 3491 2834 3397 
z
" transform="scale(0.015625)"/>
      </defs>
      <use xlink:href="#DejaVuSans-Oblique-3b1" transform="translate(0 0.765625)"/>
      <use xlink:href="#DejaVuSans-28" transform="translate(65.917969 0.765625)"/>
      <use xlink:href="#DejaVuSans-Oblique-54" transform="translate(104.931641 0.765625)"/>
      <use xlink:href="#DejaVuSans-29" transform="translate(166.015625 0.765625)"/>
      <use xlink:href="#DejaVuSans-20" transform="translate(205.029297 0.765625)"/>
      <use xlink:href="#DejaVuSans-28" transform="translate(236.816406 0.765625)"/>
      <use xlink:href="#DejaVuSans-6d" transform="translate(275.830078 0.765625)"/>
      <use xlink:href="#DejaVuSans-32" transform="translate(374.199219 39.046875) scale(0.7)"/>
      <use xlink:href="#DejaVuSans-2f" transform="translate(421.469727 0.765625)"/>
      <use xlink:href="#DejaVuSans-73" transform="translate(455.161133 0.765625)"/>
      <use xlink:href="#DejaVuSans-29" transform="translate(507.260742 0.765625)"/>
     </g>
    </g>
   </g>
   <g id="line2d_19">
    <path d="M 93.871606 261.929346 
L 97.280349 249.633096 
L 100.689092 238.643042 
L 104.097835 228.721251 
L 107.506577 219.693336 
L 110.91532 211.433214 
L 114.324063 203.81933 
L 117.732805 196.766827 
L 121.141548 190.205987 
L 124.550291 184.073823 
L 127.959033 178.318986 
L 131.367776 172.911295 
L 134.776519 167.801121 
L 138.185262 162.974513 
L 143.298376 156.203321 
L 148.41149 149.932426 
L 153.524604 144.112975 
L 158.637718 138.67821 
L 163.750832 133.577051 
L 168.863946 128.793716 
L 173.97706 124.281551 
L 179.090174 120.0026 
L 185.907659 114.642589 
L 192.725145 109.638054 
L 199.54263 104.953916 
L 206.360116 100.571002 
L 213.177601 96.429546 
L 219.995086 92.513072 
L 228.516943 87.874894 
L 237.0388 83.555761 
L 245.560657 79.490482 
L 255.786885 74.906018 
L 266.013113 70.628463 
L 276.239341 66.63286 
L 284.761198 63.477756 
L 298.396168 58.718277 
L 310.326768 54.859759 
L 322.257367 51.231583 
L 334.187967 47.820628 
L 349.527309 43.69115 
L 364.866651 39.824711 
L 381.910365 35.817814 
L 398.954078 32.081587 
L 415.997792 28.57946 
L 433.041505 25.300571 
L 433.041505 25.300571 
" clip-path="url(#p1972d35fbd)" style="fill: none; stroke: #1f77b4; stroke-width: 1.5; stroke-linecap: square"/>
   </g>
   <g id="line2d_20">
    <path d="M 93.871606 193.578996 
L 104.097835 183.883576 
L 114.324063 174.531 
L 124.550291 165.508037 
L 134.776519 156.808649 
L 145.002747 148.432091 
L 155.228975 140.380458 
L 165.455203 132.656367 
L 175.681431 125.261175 
L 184.203288 119.349132 
L 192.725145 113.662829 
L 202.951373 107.132459 
L 213.177601 100.914372 
L 223.403829 94.998843 
L 233.630057 89.374969 
L 243.856285 84.031275 
L 254.082513 78.956219 
L 264.308741 74.138607 
L 274.53497 69.567877 
L 284.761198 65.234308 
L 294.987426 61.129139 
L 305.213654 57.244635 
L 315.439882 53.574113 
L 325.66611 50.111933 
L 335.892338 46.853485 
L 347.822938 43.304692 
L 359.753537 40.024248 
L 371.684136 37.00982 
L 383.614736 34.260765 
L 393.840964 32.116388 
L 404.067192 30.169347 
L 414.29342 28.422197 
L 424.519648 26.878445 
L 433.041505 25.750575 
L 433.041505 25.750575 
" clip-path="url(#p1972d35fbd)" style="fill: none; stroke-dasharray: 7.4,3.2; stroke-dashoffset: 0; stroke: #000000; stroke-width: 2"/>
   </g>
   <g id="patch_3">
    <path d="M 76.913112 302.2 
L 76.913112 10.8 
" style="fill: none; stroke: #000000; stroke-width: 0.8; stroke-linejoin: miter; stroke-linecap: square"/>
   </g>
   <g id="patch_4">
    <path d="M 450 302.2 
L 450 10.8 
" style="fill: none; stroke: #000000; stroke-width: 0.8; stroke-linejoin: miter; stroke-linecap: square"/>
   </g>
   <g id="patch_5">
    <path d="M 76.913112 302.2 
L 450 302.2 
" style="fill: none; stroke: #000000; stroke-width: 0.8; stroke-linejoin: miter; stroke-linecap: square"/>
   </g>
   <g id="patch_6">
    <path d="M 76.913112 10.8 
L 450 10.8 
" style="fill: none; stroke: #000000; stroke-width: 0.8; stroke-linejoin: miter; stroke-linecap: square"/>
   </g>
   <g id="legend_1">
    <g id="patch_7">
     <path d="M 214.60625 297.2 
L 443 297.2 
Q 445 297.2 445 295.2 
L 445 252.165625 
Q 445 250.165625 443 250.165625 
L 214.60625 250.165625 
Q 212.60625 250.165625 212.60625 252.165625 
L 212.60625 295.2 
Q 212.60625 297.2 214.60625 297.2 
z
" style="fill: #ffffff; opacity: 0.8; stroke: #cccccc; stroke-linejoin: miter"/>
    </g>
    <g id="patch_8">
     <path d="M 216.60625 261.764062 
L 236.60625 261.764062 
L 236.60625 254.764062 
L 216.60625 254.764062 
z
" style="fill: #1f77b4; fill-opacity: 0.3"/>
    </g>
    <g id="text_17">
     <!-- 95% Credible Interval (parameter-only) -->
     <g transform="translate(244.60625 261.764062) scale(0.1 -0.1)">
      <defs>
       <path id="DejaVuSans-39" d="M 703 97 
L 703 672 
Q 941 559 1184 500 
Q 1428 441 1663 441 
Q 2288 441 2617 861 
Q 2947 1281 2994 2138 
Q 2813 1869 2534 1725 
Q 2256 1581 1919 1581 
Q 1219 1581 811 2004 
Q 403 2428 403 3163 
Q 403 3881 828 4315 
Q 1253 4750 1959 4750 
Q 2769 4750 3195 4129 
Q 3622 3509 3622 2328 
Q 3622 1225 3098 567 
Q 2575 -91 1691 -91 
Q 1453 -91 1209 -44 
Q 966 3 703 97 
z
M 1959 2075 
Q 2384 2075 2632 2365 
Q 2881 2656 2881 3163 
Q 2881 3666 2632 3958 
Q 2384 4250 1959 4250 
Q 1534 4250 1286 3958 
Q 1038 3666 1038 3163 
Q 1038 2656 1286 2365 
Q 1534 2075 1959 2075 
z
" transform="scale(0.015625)"/>
       <path id="DejaVuSans-25" d="M 4653 2053 
Q 4381 2053 4226 1822 
Q 4072 1591 4072 1178 
Q 4072 772 4226 539 
Q 4381 306 4653 306 
Q 4919 306 5073 539 
Q 5228 772 5228 1178 
Q 5228 1588 5073 1820 
Q 4919 2053 4653 2053 
z
M 4653 2450 
Q 5147 2450 5437 2106 
Q 5728 1763 5728 1178 
Q 5728 594 5436 251 
Q 5144 -91 4653 -91 
Q 4153 -91 3862 251 
Q 3572 594 3572 1178 
Q 3572 1766 3864 2108 
Q 4156 2450 4653 2450 
z
M 1428 4353 
Q 1159 4353 1004 4120 
Q 850 3888 850 3481 
Q 850 3069 1003 2837 
Q 1156 2606 1428 2606 
Q 1700 2606 1854 2837 
Q 2009 3069 2009 3481 
Q 2009 3884 1853 4118 
Q 1697 4353 1428 4353 
z
M 4250 4750 
L 4750 4750 
L 1831 -91 
L 1331 -91 
L 4250 4750 
z
M 1428 4750 
Q 1922 4750 2215 4408 
Q 2509 4066 2509 3481 
Q 2509 2891 2217 2550 
Q 1925 2209 1428 2209 
Q 931 2209 642 2551 
Q 353 2894 353 3481 
Q 353 4063 643 4406 
Q 934 4750 1428 4750 
z
" transform="scale(0.015625)"/>
       <path id="DejaVuSans-43" d="M 4122 4306 
L 4122 3641 
Q 3803 3938 3442 4084 
Q 3081 4231 2675 4231 
Q 1875 4231 1450 3742 
Q 1025 3253 1025 2328 
Q 1025 1406 1450 917 
Q 1875 428 2675 428 
Q 3081 428 3442 575 
Q 3803 722 4122 1019 
L 4122 359 
Q 3791 134 3420 21 
Q 3050 -91 2638 -91 
Q 1578 -91 968 557 
Q 359 1206 359 2328 
Q 359 3453 968 4101 
Q 1578 4750 2638 4750 
Q 3056 4750 3426 4639 
Q 3797 4528 4122 4306 
z
" transform="scale(0.015625)"/>
       <path id="DejaVuSans-72" d="M 2631 2963 
Q 2534 3019 2420 3045 
Q 2306 3072 2169 3072 
Q 1681 3072 1420 2755 
Q 1159 2438 1159 1844 
L 1159 0 
L 581 0 
L 581 3500 
L 1159 3500 
L 1159 2956 
Q 1341 3275 1631 3429 
Q 1922 3584 2338 3584 
Q 2397 3584 2469 3576 
Q 2541 3569 2628 3553 
L 2631 2963 
z
" transform="scale(0.015625)"/>
       <path id="DejaVuSans-65" d="M 3597 1894 
L 3597 1613 
L 953 1613 
Q 991 1019 1311 708 
Q 1631 397 2203 397 
Q 2534 397 2845 478 
Q 3156 559 3463 722 
L 3463 178 
Q 3153 47 2828 -22 
Q 2503 -91 2169 -91 
Q 1331 -91 842 396 
Q 353 884 353 1716 
Q 353 2575 817 3079 
Q 1281 3584 2069 3584 
Q 2775 3584 3186 3129 
Q 3597 2675 3597 1894 
z
M 3022 2063 
Q 3016 2534 2758 2815 
Q 2500 3097 2075 3097 
Q 1594 3097 1305 2825 
Q 1016 2553 972 2059 
L 3022 2063 
z
" transform="scale(0.015625)"/>
       <path id="DejaVuSans-64" d="M 2906 2969 
L 2906 4863 
L 3481 4863 
L 3481 0 
L 2906 0 
L 2906 525 
Q 2725 213 2448 61 
Q 2172 -91 1784 -91 
Q 1150 -91 751 415 
Q 353 922 353 1747 
Q 353 2572 751 3078 
Q 1150 3584 1784 3584 
Q 2172 3584 2448 3432 
Q 2725 3281 2906 2969 
z
M 947 1747 
Q 947 1113 1208 752 
Q 1469 391 1925 391 
Q 2381 391 2643 752 
Q 2906 1113 2906 1747 
Q 2906 2381 2643 2742 
Q 2381 3103 1925 3103 
Q 1469 3103 1208 2742 
Q 947 2381 947 1747 
z
" transform="scale(0.015625)"/>
       <path id="DejaVuSans-69" d="M 603 3500 
L 1178 3500 
L 1178 0 
L 603 0 
L 603 3500 
z
M 603 4863 
L 1178 4863 
L 1178 4134 
L 603 4134 
L 603 4863 
z
" transform="scale(0.015625)"/>
       <path id="DejaVuSans-62" d="M 3116 1747 
Q 3116 2381 2855 2742 
Q 2594 3103 2138 3103 
Q 1681 3103 1420 2742 
Q 1159 2381 1159 1747 
Q 1159 1113 1420 752 
Q 1681 391 2138 391 
Q 2594 391 2855 752 
Q 3116 1113 3116 1747 
z
M 1159 2969 
Q 1341 3281 1617 3432 
Q 1894 3584 2278 3584 
Q 2916 3584 3314 3078 
Q 3713 2572 3713 1747 
Q 3713 922 3314 415 
Q 2916 -91 2278 -91 
Q 1894 -91 1617 61 
Q 1341 213 1159 525 
L 1159 0 
L 581 0 
L 581 4863 
L 1159 4863 
L 1159 2969 
z
" transform="scale(0.015625)"/>
       <path id="DejaVuSans-6c" d="M 603 4863 
L 1178 4863 
L 1178 0 
L 603 0 
L 603 4863 
z
" transform="scale(0.015625)"/>
       <path id="DejaVuSans-49" d="M 628 4666 
L 1259 4666 
L 1259 0 
L 628 0 
L 628 4666 
z
" transform="scale(0.015625)"/>
       <path id="DejaVuSans-6e" d="M 3513 2113 
L 3513 0 
L 2938 0 
L 2938 2094 
Q 2938 2591 2744 2837 
Q 2550 3084 2163 3084 
Q 1697 3084 1428 2787 
Q 1159 2491 1159 1978 
L 1159 0 
L 581 0 
L 581 3500 
L 1159 3500 
L 1159 2956 
Q 1366 3272 1645 3428 
Q 1925 3584 2291 3584 
Q 2894 3584 3203 3211 
Q 3513 2838 3513 2113 
z
" transform="scale(0.015625)"/>
       <path id="DejaVuSans-74" d="M 1172 4494 
L 1172 3500 
L 2356 3500 
L 2356 3053 
L 1172 3053 
L 1172 1153 
Q 1172 725 1289 603 
Q 1406 481 1766 481 
L 2356 481 
L 2356 0 
L 1766 0 
Q 1100 0 847 248 
Q 594 497 594 1153 
L 594 3053 
L 172 3053 
L 172 3500 
L 594 3500 
L 594 4494 
L 1172 4494 
z
" transform="scale(0.015625)"/>
       <path id="DejaVuSans-76" d="M 191 3500 
L 800 3500 
L 1894 563 
L 2988 3500 
L 3597 3500 
L 2284 0 
L 1503 0 
L 191 3500 
z
" transform="scale(0.015625)"/>
       <path id="DejaVuSans-61" d="M 2194 1759 
Q 1497 1759 1228 1600 
Q 959 1441 959 1056 
Q 959 750 1161 570 
Q 1363 391 1709 391 
Q 2188 391 2477 730 
Q 2766 1069 2766 1631 
L 2766 1759 
L 2194 1759 
z
M 3341 1997 
L 3341 0 
L 2766 0 
L 2766 531 
Q 2569 213 2275 61 
Q 1981 -91 1556 -91 
Q 1019 -91 701 211 
Q 384 513 384 1019 
Q 384 1609 779 1909 
Q 1175 2209 1959 2209 
L 2766 2209 
L 2766 2266 
Q 2766 2663 2505 2880 
Q 2244 3097 1772 3097 
Q 1472 3097 1187 3025 
Q 903 2953 641 2809 
L 641 3341 
Q 956 3463 1253 3523 
Q 1550 3584 1831 3584 
Q 2591 3584 2966 3190 
Q 3341 2797 3341 1997 
z
" transform="scale(0.015625)"/>
       <path id="DejaVuSans-70" d="M 1159 525 
L 1159 -1331 
L 581 -1331 
L 581 3500 
L 1159 3500 
L 1159 2969 
Q 1341 3281 1617 3432 
Q 1894 3584 2278 3584 
Q 2916 3584 3314 3078 
Q 3713 2572 3713 1747 
Q 3713 922 3314 415 
Q 2916 -91 2278 -91 
Q 1894 -91 1617 61 
Q 1341 213 1159 525 
z
M 3116 1747 
Q 3116 2381 2855 2742 
Q 2594 3103 2138 3103 
Q 1681 3103 1420 2742 
Q 1159 2381 1159 1747 
Q 1159 1113 1420 752 
Q 1681 391 2138 391 
Q 2594 391 2855 752 
Q 3116 1113 3116 1747 
z
" transform="scale(0.015625)"/>
       <path id="DejaVuSans-2d" d="M 313 2009 
L 1997 2009 
L 1997 1497 
L 313 1497 
L 313 2009 
z
" transform="scale(0.015625)"/>
       <path id="DejaVuSans-6f" d="M 1959 3097 
Q 1497 3097 1228 2736 
Q 959 2375 959 1747 
Q 959 1119 1226 758 
Q 1494 397 1959 397 
Q 2419 397 2687 759 
Q 2956 1122 2956 1747 
Q 2956 2369 2687 2733 
Q 2419 3097 1959 3097 
z
M 1959 3584 
Q 2709 3584 3137 3096 
Q 3566 2609 3566 1747 
Q 3566 888 3137 398 
Q 2709 -91 1959 -91 
Q 1206 -91 779 398 
Q 353 888 353 1747 
Q 353 2609 779 3096 
Q 1206 3584 1959 3584 
z
" transform="scale(0.015625)"/>
       <path id="DejaVuSans-79" d="M 2059 -325 
Q 1816 -950 1584 -1140 
Q 1353 -1331 966 -1331 
L 506 -1331 
L 506 -850 
L 844 -850 
Q 1081 -850 1212 -737 
Q 1344 -625 1503 -206 
L 1606 56 
L 191 3500 
L 800 3500 
L 1894 763 
L 2988 3500 
L 3597 3500 
L 2059 -325 
z
" transform="scale(0.015625)"/>
      </defs>
      <use xlink:href="#DejaVuSans-39"/>
      <use xlink:href="#DejaVuSans-35" transform="translate(63.623047 0)"/>
      <use xlink:href="#DejaVuSans-25" transform="translate(127.246094 0)"/>
      <use xlink:href="#DejaVuSans-20" transform="translate(222.265625 0)"/>
      <use xlink:href="#DejaVuSans-43" transform="translate(254.052734 0)"/>
      <use xlink:href="#DejaVuSans-72" transform="translate(323.876953 0)"/>
      <use xlink:href="#DejaVuSans-65" transform="translate(362.740234 0)"/>
      <use xlink:href="#DejaVuSans-64" transform="translate(424.263672 0)"/>
      <use xlink:href="#DejaVuSans-69" transform="translate(487.740234 0)"/>
      <use xlink:href="#DejaVuSans-62" transform="translate(515.523438 0)"/>
      <use xlink:href="#DejaVuSans-6c" transform="translate(579 0)"/>
      <use xlink:href="#DejaVuSans-65" transform="translate(606.783203 0)"/>
      <use xlink:href="#DejaVuSans-20" transform="translate(668.306641 0)"/>
      <use xlink:href="#DejaVuSans-49" transform="translate(700.09375 0)"/>
      <use xlink:href="#DejaVuSans-6e" transform="translate(729.585938 0)"/>
      <use xlink:href="#DejaVuSans-74" transform="translate(792.964844 0)"/>
      <use xlink:href="#DejaVuSans-65" transform="translate(832.173828 0)"/>
      <use xlink:href="#DejaVuSans-72" transform="translate(893.697266 0)"/>
      <use xlink:href="#DejaVuSans-76" transform="translate(934.810547 0)"/>
      <use xlink:href="#DejaVuSans-61" transform="translate(993.990234 0)"/>
      <use xlink:href="#DejaVuSans-6c" transform="translate(1055.269531 0)"/>
      <use xlink:href="#DejaVuSans-20" transform="translate(1083.052734 0)"/>
      <use xlink:href="#DejaVuSans-28" transform="translate(1114.839844 0)"/>
      <use xlink:href="#DejaVuSans-70" transform="translate(1153.853516 0)"/>
      <use xlink:href="#DejaVuSans-61" transform="translate(1217.330078 0)"/>
      <use xlink:href="#DejaVuSans-72" transform="translate(1278.609375 0)"/>
      <use xlink:href="#DejaVuSans-61" transform="translate(1319.722656 0)"/>
      <use xlink:href="#DejaVuSans-6d" transform="translate(1381.001953 0)"/>
      <use xlink:href="#DejaVuSans-65" transform="translate(1478.414062 0)"/>
      <use xlink:href="#DejaVuSans-74" transform="translate(1539.9375 0)"/>
      <use xlink:href="#DejaVuSans-65" transform="translate(1579.146484 0)"/>
      <use xlink:href="#DejaVuSans-72" transform="translate(1640.669922 0)"/>
      <use xlink:href="#DejaVuSans-2d" transform="translate(1675.408203 0)"/>
      <use xlink:href="#DejaVuSans-6f" transform="translate(1713.367188 0)"/>
      <use xlink:href="#DejaVuSans-6e" transform="translate(1774.548828 0)"/>
      <use xlink:href="#DejaVuSans-6c" transform="translate(1837.927734 0)"/>
      <use xlink:href="#DejaVuSans-79" transform="translate(1865.710938 0)"/>
      <use xlink:href="#DejaVuSans-29" transform="translate(1924.890625 0)"/>
     </g>
    </g>
    <g id="line2d_21">
     <path d="M 216.60625 272.942187 
L 226.60625 272.942187 
L 236.60625 272.942187 
" style="fill: none; stroke: #1f77b4; stroke-width: 1.5; stroke-linecap: square"/>
    </g>
    <g id="text_18">
     <!-- Logarithmic (median) -->
     <g transform="translate(244.60625 276.442187) scale(0.1 -0.1)">
      <defs>
       <path id="DejaVuSans-4c" d="M 628 4666 
L 1259 4666 
L 1259 531 
L 3531 531 
L 3531 0 
L 628 0 
L 628 4666 
z
" transform="scale(0.015625)"/>
       <path id="DejaVuSans-67" d="M 2906 1791 
Q 2906 2416 2648 2759 
Q 2391 3103 1925 3103 
Q 1463 3103 1205 2759 
Q 947 2416 947 1791 
Q 947 1169 1205 825 
Q 1463 481 1925 481 
Q 2391 481 2648 825 
Q 2906 1169 2906 1791 
z
M 3481 434 
Q 3481 -459 3084 -895 
Q 2688 -1331 1869 -1331 
Q 1566 -1331 1297 -1286 
Q 1028 -1241 775 -1147 
L 775 -588 
Q 1028 -725 1275 -790 
Q 1522 -856 1778 -856 
Q 2344 -856 2625 -561 
Q 2906 -266 2906 331 
L 2906 616 
Q 2728 306 2450 153 
Q 2172 0 1784 0 
Q 1141 0 747 490 
Q 353 981 353 1791 
Q 353 2603 747 3093 
Q 1141 3584 1784 3584 
Q 2172 3584 2450 3431 
Q 2728 3278 2906 2969 
L 2906 3500 
L 3481 3500 
L 3481 434 
z
" transform="scale(0.015625)"/>
       <path id="DejaVuSans-68" d="M 3513 2113 
L 3513 0 
L 2938 0 
L 2938 2094 
Q 2938 2591 2744 2837 
Q 2550 3084 2163 3084 
Q 1697 3084 1428 2787 
Q 1159 2491 1159 1978 
L 1159 0 
L 581 0 
L 581 4863 
L 1159 4863 
L 1159 2956 
Q 1366 3272 1645 3428 
Q 1925 3584 2291 3584 
Q 2894 3584 3203 3211 
Q 3513 2838 3513 2113 
z
" transform="scale(0.015625)"/>
       <path id="DejaVuSans-63" d="M 3122 3366 
L 3122 2828 
Q 2878 2963 2633 3030 
Q 2388 3097 2138 3097 
Q 1578 3097 1268 2742 
Q 959 2388 959 1747 
Q 959 1106 1268 751 
Q 1578 397 2138 397 
Q 2388 397 2633 464 
Q 2878 531 3122 666 
L 3122 134 
Q 2881 22 2623 -34 
Q 2366 -91 2075 -91 
Q 1284 -91 818 406 
Q 353 903 353 1747 
Q 353 2603 823 3093 
Q 1294 3584 2113 3584 
Q 2378 3584 2631 3529 
Q 2884 3475 3122 3366 
z
" transform="scale(0.015625)"/>
      </defs>
      <use xlink:href="#DejaVuSans-4c"/>
      <use xlink:href="#DejaVuSans-6f" transform="translate(53.962891 0)"/>
      <use xlink:href="#DejaVuSans-67" transform="translate(115.144531 0)"/>
      <use xlink:href="#DejaVuSans-61" transform="translate(178.621094 0)"/>
      <use xlink:href="#DejaVuSans-72" transform="translate(239.900391 0)"/>
      <use xlink:href="#DejaVuSans-69" transform="translate(281.013672 0)"/>
      <use xlink:href="#DejaVuSans-74" transform="translate(308.796875 0)"/>
      <use xlink:href="#DejaVuSans-68" transform="translate(348.005859 0)"/>
      <use xlink:href="#DejaVuSans-6d" transform="translate(411.384766 0)"/>
      <use xlink:href="#DejaVuSans-69" transform="translate(508.796875 0)"/>
      <use xlink:href="#DejaVuSans-63" transform="translate(536.580078 0)"/>
      <use xlink:href="#DejaVuSans-20" transform="translate(591.560547 0)"/>
      <use xlink:href="#DejaVuSans-28" transform="translate(623.347656 0)"/>
      <use xlink:href="#DejaVuSans-6d" transform="translate(662.361328 0)"/>
      <use xlink:href="#DejaVuSans-65" transform="translate(759.773438 0)"/>
      <use xlink:href="#DejaVuSans-64" transform="translate(821.296875 0)"/>
      <use xlink:href="#DejaVuSans-69" transform="translate(884.773438 0)"/>
      <use xlink:href="#DejaVuSans-61" transform="translate(912.556641 0)"/>
      <use xlink:href="#DejaVuSans-6e" transform="translate(973.835938 0)"/>
      <use xlink:href="#DejaVuSans-29" transform="translate(1037.214844 0)"/>
     </g>
    </g>
    <g id="line2d_22">
     <path d="M 216.60625 287.620312 
L 226.60625 287.620312 
L 236.60625 287.620312 
" style="fill: none; stroke-dasharray: 7.4,3.2; stroke-dashoffset: 0; stroke: #000000; stroke-width: 2"/>
    </g>
    <g id="text_19">
     <!-- Ulamec (2007) - Truth -->
     <g transform="translate(244.60625 291.120312) scale(0.1 -0.1)">
      <defs>
       <path id="DejaVuSans-55" d="M 556 4666 
L 1191 4666 
L 1191 1831 
Q 1191 1081 1462 751 
Q 1734 422 2344 422 
Q 2950 422 3222 751 
Q 3494 1081 3494 1831 
L 3494 4666 
L 4128 4666 
L 4128 1753 
Q 4128 841 3676 375 
Q 3225 -91 2344 -91 
Q 1459 -91 1007 375 
Q 556 841 556 1753 
L 556 4666 
z
" transform="scale(0.015625)"/>
       <path id="DejaVuSans-54" d="M -19 4666 
L 3928 4666 
L 3928 4134 
L 2272 4134 
L 2272 0 
L 1638 0 
L 1638 4134 
L -19 4134 
L -19 4666 
z
" transform="scale(0.015625)"/>
       <path id="DejaVuSans-75" d="M 544 1381 
L 544 3500 
L 1119 3500 
L 1119 1403 
Q 1119 906 1312 657 
Q 1506 409 1894 409 
Q 2359 409 2629 706 
Q 2900 1003 2900 1516 
L 2900 3500 
L 3475 3500 
L 3475 0 
L 2900 0 
L 2900 538 
Q 2691 219 2414 64 
Q 2138 -91 1772 -91 
Q 1169 -91 856 284 
Q 544 659 544 1381 
z
M 1991 3584 
L 1991 3584 
z
" transform="scale(0.015625)"/>
      </defs>
      <use xlink:href="#DejaVuSans-55"/>
      <use xlink:href="#DejaVuSans-6c" transform="translate(73.193359 0)"/>
      <use xlink:href="#DejaVuSans-61" transform="translate(100.976562 0)"/>
      <use xlink:href="#DejaVuSans-6d" transform="translate(162.255859 0)"/>
      <use xlink:href="#DejaVuSans-65" transform="translate(259.667969 0)"/>
      <use xlink:href="#DejaVuSans-63" transform="translate(321.191406 0)"/>
      <use xlink:href="#DejaVuSans-20" transform="translate(376.171875 0)"/>
      <use xlink:href="#DejaVuSans-28" transform="translate(407.958984 0)"/>
      <use xlink:href="#DejaVuSans-32" transform="translate(446.972656 0)"/>
      <use xlink:href="#DejaVuSans-30" transform="translate(510.595703 0)"/>
      <use xlink:href="#DejaVuSans-30" transform="translate(574.21875 0)"/>
      <use xlink:href="#DejaVuSans-37" transform="translate(637.841797 0)"/>
      <use xlink:href="#DejaVuSans-29" transform="translate(701.464844 0)"/>
      <use xlink:href="#DejaVuSans-20" transform="translate(740.478516 0)"/>
      <use xlink:href="#DejaVuSans-2d" transform="translate(772.265625 0)"/>
      <use xlink:href="#DejaVuSans-20" transform="translate(808.349609 0)"/>
      <use xlink:href="#DejaVuSans-54" transform="translate(840.136719 0)"/>
      <use xlink:href="#DejaVuSans-72" transform="translate(886.470703 0)"/>
      <use xlink:href="#DejaVuSans-75" transform="translate(927.583984 0)"/>
      <use xlink:href="#DejaVuSans-74" transform="translate(990.962891 0)"/>
      <use xlink:href="#DejaVuSans-68" transform="translate(1030.171875 0)"/>
     </g>
    </g>
   </g>
  </g>
 </g>
 <defs>
  <clipPath id="p1972d35fbd">
   <rect x="76.913112" y="10.8" width="373.086888" height="291.4"/>
  </clipPath>
 </defs>
</svg>
