<?xml version="1.0" encoding="utf-8" standalone="no"?>
<!DOCTYPE svg PUBLIC "-//W3C//DTD SVG 1.1//EN"
  "http://www.w3.org/Graphics/SVG/1.1/DTD/svg11.dtd">
<svg xmlns:xlink="http://www.w3.org/1999/xlink" width="460.8pt" height="345.6pt" viewBox="0 0 460.8 345.6" xmlns="http://www.w3.org/2000/svg" version="1.1">
 <metadata>
  <rdf:RDF xmlns:dc="http://purl.org/dc/elements/1.1/" xmlns:cc="http://creativecommons.org/ns#" xmlns:rdf="http://www.w3.org/1999/02/22-rdf-syntax-ns#">
   <cc:Work>
    <dc:type rdf:resource="http://purl.org/dc/dcmitype/StillImage"/>
    <dc:date>2026-02-12T05:35:36.383998</dc:date>
    <dc:format>image/svg+xml</dc:format>
    <dc:creator>
     <cc:Agent>
      <dc:title>Matplotlib v3.10.8, https://matplotlib.org/</dc:title>
     </cc:Agent>
    </dc:creator>
   </cc:Work>
  </rdf:RDF>
 </metadata>
 <defs>
  <style type="text/css">*{stroke-linejoin: round; stroke-linecap: butt}</style>
 </defs>
 <g id="figure_1">
  <g id="patch_1">
   <path d="M 0 345.6 
L 460.8 345.6 
L 460.8 0 
L 0 0 
L 0 345.6 
z
" style="fill: none"/>
  </g>
  <g id="axes_1">
   <g id="patch_2">
    <path d="M 47.018 302.2 
L 450 302.2 
L 450 10.8 
L 47.018 10.8 
L 47.018 302.2 
z
" style="fill: none"/>
   </g>
   <g id="FillBetweenPolyCollection_1">
    <path d="M 65.335364 206.32257 
L 65.335364 261.997699 
L 72.811839 257.104799 
L 80.288314 253.060139 
L 87.764788 249.792933 
L 95.241263 247.220007 
L 102.717738 245.250479 
L 110.194213 243.790312 
L 117.670688 242.746531 
L 125.147163 242.030909 
L 132.623638 241.562974 
L 140.100113 241.272241 
L 147.576588 241.099629 
L 155.053063 240.998072 
L 162.529538 240.932374 
L 170.006013 240.878422 
L 177.482488 240.82188 
L 184.958963 240.75651 
L 192.435438 240.682295 
L 199.911913 240.603512 
L 207.388388 240.526897 
L 214.864863 240.460021 
L 222.341338 240.409964 
L 229.817813 240.382351 
L 237.294288 240.380756 
L 244.770763 240.406461 
L 252.247237 240.458546 
L 259.723712 240.534226 
L 267.200187 240.629365 
L 274.676662 240.739087 
L 282.153137 240.858399 
L 289.629612 240.982746 
L 297.106087 241.108457 
L 304.582562 241.233023 
L 312.059037 241.355205 
L 319.535512 241.474961 
L 327.011987 241.593226 
L 334.488462 241.711569 
L 341.964937 241.831773 
L 349.441412 241.955406 
L 356.917887 242.083409 
L 364.394362 242.215763 
L 371.870837 242.351276 
L 379.347312 242.487487 
L 386.823787 242.620732 
L 394.300262 242.746343 
L 401.776737 242.858964 
L 409.253212 242.952968 
L 416.729686 243.022929 
L 424.206161 243.064098 
L 431.682636 243.072866 
L 431.682636 24.045455 
L 431.682636 24.045455 
L 424.206161 25.672536 
L 416.729686 27.411847 
L 409.253212 29.243526 
L 401.776737 31.148302 
L 394.300262 33.112892 
L 386.823787 35.130716 
L 379.347312 37.194685 
L 371.870837 39.299064 
L 364.394362 41.438883 
L 356.917887 43.609534 
L 349.441412 45.806597 
L 341.964937 48.025884 
L 334.488462 50.263678 
L 327.011987 52.517121 
L 319.535512 54.784681 
L 312.059037 57.066609 
L 304.582562 59.365322 
L 297.106087 61.685613 
L 289.629612 64.034638 
L 282.153137 66.421637 
L 274.676662 68.857382 
L 267.200187 71.353374 
L 259.723712 73.920848 
L 252.247237 76.569683 
L 244.770763 79.307331 
L 237.294288 82.137898 
L 229.817813 85.061523 
L 222.341338 88.07417 
L 214.864863 91.167969 
L 207.388388 94.332148 
L 199.911913 97.554606 
L 192.435438 100.824094 
L 184.958963 104.132914 
L 177.482488 107.479998 
L 170.006013 110.874171 
L 162.529538 114.337368 
L 155.053063 117.907533 
L 147.576588 121.640939 
L 140.100113 125.613659 
L 132.623638 129.921971 
L 125.147163 134.681511 
L 117.670688 140.025061 
L 110.194213 146.098957 
L 102.717738 153.058157 
L 95.241263 161.060128 
L 87.764788 170.257787 
L 80.288314 180.7918 
L 72.811839 192.782604 
L 65.335364 206.32257 
z
" clip-path="url(#paec9c62d16)" style="fill: #1f77b4; fill-opacity: 0.45"/>
   </g>
   <g id="FillBetweenPolyCollection_2">
    <path d="M 65.335364 228.766781 
L 65.335364 269.95268 
L 72.811839 268.353213 
L 80.288314 267.009637 
L 87.764788 265.89472 
L 95.241263 264.961468 
L 102.717738 264.164596 
L 110.194213 263.4686 
L 117.670688 262.84277 
L 125.147163 262.26208 
L 132.623638 261.707637 
L 140.100113 261.166647 
L 147.576588 260.631993 
L 155.053063 260.101463 
L 162.529538 259.576741 
L 170.006013 259.062244 
L 177.482488 258.563917 
L 184.958963 258.088077 
L 192.435438 257.640404 
L 199.911913 257.225132 
L 207.388388 256.844493 
L 214.864863 256.498436 
L 222.341338 256.18462 
L 229.817813 255.898647 
L 237.294288 255.63449 
L 244.770763 255.385073 
L 252.247237 255.142917 
L 259.723712 254.900785 
L 267.200187 254.652286 
L 274.676662 254.392347 
L 282.153137 254.117542 
L 289.629612 253.826251 
L 297.106087 253.518627 
L 304.582562 253.196406 
L 312.059037 252.862575 
L 319.535512 252.52094 
L 327.011987 252.175649 
L 334.488462 251.830704 
L 341.964937 251.489535 
L 349.441412 251.154654 
L 356.917887 250.82743 
L 364.394362 250.508017 
L 371.870837 250.195414 
L 379.347312 249.887672 
L 386.823787 249.582217 
L 394.300262 249.276247 
L 401.776737 248.967191 
L 409.253212 248.653153 
L 416.729686 248.333329 
L 424.206161 248.008334 
L 431.682636 247.68043 
L 431.682636 163.862297 
L 431.682636 163.862297 
L 424.206161 164.792687 
L 416.729686 165.752397 
L 409.253212 166.73183 
L 401.776737 167.725044 
L 394.300262 168.72924 
L 386.823787 169.744097 
L 379.347312 170.771015 
L 371.870837 171.812331 
L 364.394362 172.87059 
L 356.917887 173.947926 
L 349.441412 175.045605 
L 341.964937 176.16377 
L 334.488462 177.301399 
L 327.011987 178.456467 
L 319.535512 179.626285 
L 312.059037 180.807975 
L 304.582562 181.999003 
L 297.106087 183.197715 
L 289.629612 184.403801 
L 282.153137 185.618617 
L 274.676662 186.845317 
L 267.200187 188.088766 
L 259.723712 189.35523 
L 252.247237 190.651846 
L 244.770763 191.985951 
L 237.294288 193.364311 
L 229.817813 194.792356 
L 222.341338 196.273522 
L 214.864863 197.808802 
L 207.388388 199.389615 
L 199.911913 201.0242 
L 192.435438 202.702976 
L 184.958963 204.418796 
L 177.482488 206.165673 
L 170.006013 207.940821 
L 162.529538 209.746175 
L 155.053063 210.800769 
L 147.576588 210.848264 
L 140.100113 210.984261 
L 132.623638 211.245281 
L 125.147163 211.678927 
L 117.670688 212.338956 
L 110.194213 213.287526 
L 102.717738 214.594963 
L 95.241263 216.315971 
L 87.764788 218.53304 
L 80.288314 221.307727 
L 72.811839 224.702778 
L 65.335364 228.766781 
z
" clip-path="url(#paec9c62d16)" style="fill: #ff7f0e; fill-opacity: 0.45"/>
   </g>
   <g id="FillBetweenPolyCollection_3">
    <path d="M 65.335364 265.995707 
L 65.335364 281.47099 
L 72.811839 279.762139 
L 80.288314 278.231906 
L 87.764788 277.268169 
L 95.241263 277.07344 
L 102.717738 276.919812 
L 110.194213 276.797008 
L 117.670688 276.695212 
L 125.147163 276.605484 
L 132.623638 276.520078 
L 140.100113 276.432666 
L 147.576588 276.338406 
L 155.053063 276.234005 
L 162.529538 276.121177 
L 170.006013 275.992601 
L 177.482488 275.854195 
L 184.958963 275.708268 
L 192.435438 275.553062 
L 199.911913 275.390327 
L 207.388388 275.223466 
L 214.864863 275.055241 
L 222.341338 274.888083 
L 229.817813 274.724118 
L 237.294288 274.565083 
L 244.770763 274.412266 
L 252.247237 274.26568 
L 259.723712 274.126333 
L 267.200187 273.995222 
L 274.676662 273.873253 
L 282.153137 273.758774 
L 289.629612 273.646023 
L 297.106087 273.539707 
L 304.582562 273.436438 
L 312.059037 273.334342 
L 319.535512 273.232131 
L 327.011987 273.128628 
L 334.488462 273.022816 
L 341.964937 272.913888 
L 349.441412 272.801285 
L 356.917887 272.684725 
L 364.394362 272.564227 
L 371.870837 272.440112 
L 379.347312 272.312991 
L 386.823787 272.183737 
L 394.300262 272.05343 
L 401.776737 271.923288 
L 409.253212 271.794572 
L 416.729686 271.668473 
L 424.206161 271.545995 
L 431.682636 271.427827 
L 431.682636 245.982176 
L 431.682636 245.982176 
L 424.206161 246.138586 
L 416.729686 246.299783 
L 409.253212 246.464754 
L 401.776737 246.633089 
L 394.300262 246.804506 
L 386.823787 246.979229 
L 379.347312 247.1575 
L 371.870837 247.341318 
L 364.394362 247.530131 
L 356.917887 247.725653 
L 349.441412 247.928487 
L 341.964937 248.138599 
L 334.488462 248.356804 
L 327.011987 248.582673 
L 319.535512 248.816176 
L 312.059037 249.056978 
L 304.582562 249.30474 
L 297.106087 249.559223 
L 289.629612 249.820388 
L 282.153137 250.088471 
L 274.676662 250.364017 
L 267.200187 250.647941 
L 259.723712 250.941296 
L 252.247237 251.245362 
L 244.770763 251.561457 
L 237.294288 251.890746 
L 229.817813 252.234167 
L 222.341338 252.592241 
L 214.864863 252.96494 
L 207.388388 253.351674 
L 199.911913 253.751322 
L 192.435438 254.16236 
L 184.958963 254.583083 
L 177.482488 255.011919 
L 170.006013 255.447815 
L 162.529538 255.890726 
L 155.053063 256.341986 
L 147.576588 256.804832 
L 140.100113 257.284803 
L 132.623638 257.79003 
L 125.147163 258.33141 
L 117.670688 258.922596 
L 110.194213 259.5798 
L 102.717738 260.321367 
L 95.241263 261.167242 
L 87.764788 262.138015 
L 80.288314 263.254069 
L 72.811839 264.534458 
L 65.335364 265.995707 
z
" clip-path="url(#paec9c62d16)" style="fill: #2ca02c; fill-opacity: 0.45"/>
   </g>
   <g id="FillBetweenPolyCollection_4">
    <path d="M 65.335364 264.47956 
L 65.335364 288.954545 
L 72.811839 287.953613 
L 80.288314 286.858288 
L 87.764788 285.668166 
L 95.241263 284.383241 
L 102.717738 283.001958 
L 110.194213 281.522632 
L 117.670688 280.859956 
L 125.147163 280.719283 
L 132.623638 280.560104 
L 140.100113 280.381868 
L 147.576588 280.185012 
L 155.053063 279.970877 
L 162.529538 279.739828 
L 170.006013 279.49017 
L 177.482488 279.23069 
L 184.958963 278.964845 
L 192.435438 278.696079 
L 199.911913 278.427644 
L 207.388388 278.162437 
L 214.864863 277.966721 
L 222.341338 277.841333 
L 229.817813 277.836379 
L 237.294288 278.112865 
L 244.770763 278.786869 
L 252.247237 279.497398 
L 259.723712 280.221299 
L 267.200187 280.950921 
L 274.676662 281.677656 
L 282.153137 282.392263 
L 289.629612 283.085211 
L 297.106087 283.747023 
L 304.582562 284.368606 
L 312.059037 284.941549 
L 319.535512 285.458382 
L 327.011987 285.912775 
L 334.488462 286.299686 
L 341.964937 286.615443 
L 349.441412 286.857753 
L 356.917887 287.025666 
L 364.394362 287.119469 
L 371.870837 287.14054 
L 379.347312 287.091157 
L 386.823787 286.974277 
L 394.300262 286.793305 
L 401.776737 286.551948 
L 409.253212 286.253856 
L 416.729686 285.898842 
L 424.206161 285.503332 
L 431.682636 285.082854 
L 431.682636 230.250542 
L 431.682636 230.250542 
L 424.206161 228.852705 
L 416.729686 227.509636 
L 409.253212 226.237707 
L 401.776737 225.054845 
L 394.300262 223.979234 
L 386.823787 223.028879 
L 379.347312 222.221245 
L 371.870837 221.572906 
L 364.394362 221.099177 
L 356.917887 220.813746 
L 349.441412 220.728328 
L 341.964937 220.85234 
L 334.488462 221.192629 
L 327.011987 221.753249 
L 319.535512 222.535312 
L 312.059037 223.536912 
L 304.582562 224.753124 
L 297.106087 226.176093 
L 289.629612 227.795209 
L 282.153137 229.597603 
L 274.676662 231.569979 
L 267.200187 233.692866 
L 259.723712 235.94419 
L 252.247237 238.305015 
L 244.770763 240.756931 
L 237.294288 243.280021 
L 229.817813 245.853066 
L 222.341338 248.448545 
L 214.864863 251.050334 
L 207.388388 253.644396 
L 199.911913 256.214498 
L 192.435438 258.744842 
L 184.958963 261.222466 
L 177.482488 263.635336 
L 170.006013 265.973373 
L 162.529538 268.228272 
L 155.053063 270.393407 
L 147.576588 270.950336 
L 140.100113 270.561402 
L 132.623638 270.121849 
L 125.147163 269.612366 
L 117.670688 269.077029 
L 110.194213 268.515623 
L 102.717738 267.928671 
L 95.241263 267.261951 
L 87.764788 266.565666 
L 80.288314 265.865937 
L 72.811839 265.167706 
L 65.335364 264.47956 
z
" clip-path="url(#paec9c62d16)" style="fill: #d62728; fill-opacity: 0.45"/>
   </g>
   <g id="matplotlib.axis_1">
    <g id="xtick_1">
     <g id="line2d_1">
      <defs>
       <path id="m789f3b2b26" d="M 0 0 
L 0 3.5 
" style="stroke: #000000; stroke-width: 0.8"/>
      </defs>
      <g>
       <use xlink:href="#m789f3b2b26" x="61.634886" y="302.2" style="stroke: #000000; stroke-width: 0.8"/>
      </g>
     </g>
     <g id="text_1">
      <!-- 0 -->
      <g transform="translate(58.453636 316.798437) scale(0.1 -0.1)">
       <defs>
        <path id="DejaVuSans-30" d="M 2034 4250 
Q 1547 4250 1301 3770 
Q 1056 3291 1056 2328 
Q 1056 1369 1301 889 
Q 1547 409 2034 409 
Q 2525 409 2770 889 
Q 3016 1369 3016 2328 
Q 3016 3291 2770 3770 
Q 2525 4250 2034 4250 
z
M 2034 4750 
Q 2819 4750 3233 4129 
Q 3647 3509 3647 2328 
Q 3647 1150 3233 529 
Q 2819 -91 2034 -91 
Q 1250 -91 836 529 
Q 422 1150 422 2328 
Q 422 3509 836 4129 
Q 1250 4750 2034 4750 
z
" transform="scale(0.015625)"/>
       </defs>
       <use xlink:href="#DejaVuSans-30"/>
      </g>
     </g>
    </g>
    <g id="xtick_2">
     <g id="line2d_2">
      <g>
       <use xlink:href="#m789f3b2b26" x="135.644436" y="302.2" style="stroke: #000000; stroke-width: 0.8"/>
      </g>
     </g>
     <g id="text_2">
      <!-- 1 -->
      <g transform="translate(132.463186 316.798437) scale(0.1 -0.1)">
       <defs>
        <path id="DejaVuSans-31" d="M 794 531 
L 1825 531 
L 1825 4091 
L 703 3866 
L 703 4441 
L 1819 4666 
L 2450 4666 
L 2450 531 
L 3481 531 
L 3481 0 
L 794 0 
L 794 531 
z
" transform="scale(0.015625)"/>
       </defs>
       <use xlink:href="#DejaVuSans-31"/>
      </g>
     </g>
    </g>
    <g id="xtick_3">
     <g id="line2d_3">
      <g>
       <use xlink:href="#m789f3b2b26" x="209.653986" y="302.2" style="stroke: #000000; stroke-width: 0.8"/>
      </g>
     </g>
     <g id="text_3">
      <!-- 2 -->
      <g transform="translate(206.472736 316.798437) scale(0.1 -0.1)">
       <defs>
        <path id="DejaVuSans-32" d="M 1228 531 
L 3431 531 
L 3431 0 
L 469 0 
L 469 531 
Q 828 903 1448 1529 
Q 2069 2156 2228 2338 
Q 2531 2678 2651 2914 
Q 2772 3150 2772 3378 
Q 2772 3750 2511 3984 
Q 2250 4219 1831 4219 
Q 1534 4219 1204 4116 
Q 875 4013 500 3803 
L 500 4441 
Q 881 4594 1212 4672 
Q 1544 4750 1819 4750 
Q 2544 4750 2975 4387 
Q 3406 4025 3406 3419 
Q 3406 3131 3298 2873 
Q 3191 2616 2906 2266 
Q 2828 2175 2409 1742 
Q 1991 1309 1228 531 
z
" transform="scale(0.015625)"/>
       </defs>
       <use xlink:href="#DejaVuSans-32"/>
      </g>
     </g>
    </g>
    <g id="xtick_4">
     <g id="line2d_4">
      <g>
       <use xlink:href="#m789f3b2b26" x="283.663536" y="302.2" style="stroke: #000000; stroke-width: 0.8"/>
      </g>
     </g>
     <g id="text_4">
      <!-- 3 -->
      <g transform="translate(280.482286 316.798437) scale(0.1 -0.1)">
       <defs>
        <path id="DejaVuSans-33" d="M 2597 2516 
Q 3050 2419 3304 2112 
Q 3559 1806 3559 1356 
Q 3559 666 3084 287 
Q 2609 -91 1734 -91 
Q 1441 -91 1130 -33 
Q 819 25 488 141 
L 488 750 
Q 750 597 1062 519 
Q 1375 441 1716 441 
Q 2309 441 2620 675 
Q 2931 909 2931 1356 
Q 2931 1769 2642 2001 
Q 2353 2234 1838 2234 
L 1294 2234 
L 1294 2753 
L 1863 2753 
Q 2328 2753 2575 2939 
Q 2822 3125 2822 3475 
Q 2822 3834 2567 4026 
Q 2313 4219 1838 4219 
Q 1578 4219 1281 4162 
Q 984 4106 628 3988 
L 628 4550 
Q 988 4650 1302 4700 
Q 1616 4750 1894 4750 
Q 2613 4750 3031 4423 
Q 3450 4097 3450 3541 
Q 3450 3153 3228 2886 
Q 3006 2619 2597 2516 
z
" transform="scale(0.015625)"/>
       </defs>
       <use xlink:href="#DejaVuSans-33"/>
      </g>
     </g>
    </g>
    <g id="xtick_5">
     <g id="line2d_5">
      <g>
       <use xlink:href="#m789f3b2b26" x="357.673086" y="302.2" style="stroke: #000000; stroke-width: 0.8"/>
      </g>
     </g>
     <g id="text_5">
      <!-- 4 -->
      <g transform="translate(354.491836 316.798437) scale(0.1 -0.1)">
       <defs>
        <path id="DejaVuSans-34" d="M 2419 4116 
L 825 1625 
L 2419 1625 
L 2419 4116 
z
M 2253 4666 
L 3047 4666 
L 3047 1625 
L 3713 1625 
L 3713 1100 
L 3047 1100 
L 3047 0 
L 2419 0 
L 2419 1100 
L 313 1100 
L 313 1709 
L 2253 4666 
z
" transform="scale(0.015625)"/>
       </defs>
       <use xlink:href="#DejaVuSans-34"/>
      </g>
     </g>
    </g>
    <g id="xtick_6">
     <g id="line2d_6">
      <g>
       <use xlink:href="#m789f3b2b26" x="431.682636" y="302.2" style="stroke: #000000; stroke-width: 0.8"/>
      </g>
     </g>
     <g id="text_6">
      <!-- 5 -->
      <g transform="translate(428.501386 316.798437) scale(0.1 -0.1)">
       <defs>
        <path id="DejaVuSans-35" d="M 691 4666 
L 3169 4666 
L 3169 4134 
L 1269 4134 
L 1269 2991 
Q 1406 3038 1543 3061 
Q 1681 3084 1819 3084 
Q 2600 3084 3056 2656 
Q 3513 2228 3513 1497 
Q 3513 744 3044 326 
Q 2575 -91 1722 -91 
Q 1428 -91 1123 -41 
Q 819 9 494 109 
L 494 744 
Q 775 591 1075 516 
Q 1375 441 1709 441 
Q 2250 441 2565 725 
Q 2881 1009 2881 1497 
Q 2881 1984 2565 2268 
Q 2250 2553 1709 2553 
Q 1456 2553 1204 2497 
Q 953 2441 691 2322 
L 691 4666 
z
" transform="scale(0.015625)"/>
       </defs>
       <use xlink:href="#DejaVuSans-35"/>
      </g>
     </g>
    </g>
    <g id="text_7">
     <!-- $W$ (m/hour) -->
     <g transform="translate(220.059 330.476562) scale(0.1 -0.1)">
      <defs>
       <path id="DejaVuSans-Oblique-57" d="M 616 4666 
L 1228 4666 
L 1453 697 
L 3213 4666 
L 3916 4666 
L 4147 697 
L 5888 4666 
L 6528 4666 
L 4453 0 
L 3659 0 
L 3444 3891 
L 1697 0 
L 903 0 
L 616 4666 
z
" transform="scale(0.015625)"/>
       <path id="DejaVuSans-20" transform="scale(0.015625)"/>
       <path id="DejaVuSans-28" d="M 1984 4856 
Q 1566 4138 1362 3434 
Q 1159 2731 1159 2009 
Q 1159 1288 1364 580 
Q 1569 -128 1984 -844 
L 1484 -844 
Q 1016 -109 783 600 
Q 550 1309 550 2009 
Q 550 2706 781 3412 
Q 1013 4119 1484 4856 
L 1984 4856 
z
" transform="scale(0.015625)"/>
       <path id="DejaVuSans-6d" d="M 3328 2828 
Q 3544 3216 3844 3400 
Q 4144 3584 4550 3584 
Q 5097 3584 5394 3201 
Q 5691 2819 5691 2113 
L 5691 0 
L 5113 0 
L 5113 2094 
Q 5113 2597 4934 2840 
Q 4756 3084 4391 3084 
Q 3944 3084 3684 2787 
Q 3425 2491 3425 1978 
L 3425 0 
L 2847 0 
L 2847 2094 
Q 2847 2600 2669 2842 
Q 2491 3084 2119 3084 
Q 1678 3084 1418 2786 
Q 1159 2488 1159 1978 
L 1159 0 
L 581 0 
L 581 3500 
L 1159 3500 
L 1159 2956 
Q 1356 3278 1631 3431 
Q 1906 3584 2284 3584 
Q 2666 3584 2933 3390 
Q 3200 3197 3328 2828 
z
" transform="scale(0.015625)"/>
       <path id="DejaVuSans-2f" d="M 1625 4666 
L 2156 4666 
L 531 -594 
L 0 -594 
L 1625 4666 
z
" transform="scale(0.015625)"/>
       <path id="DejaVuSans-68" d="M 3513 2113 
L 3513 0 
L 2938 0 
L 2938 2094 
Q 2938 2591 2744 2837 
Q 2550 3084 2163 3084 
Q 1697 3084 1428 2787 
Q 1159 2491 1159 1978 
L 1159 0 
L 581 0 
L 581 4863 
L 1159 4863 
L 1159 2956 
Q 1366 3272 1645 3428 
Q 1925 3584 2291 3584 
Q 2894 3584 3203 3211 
Q 3513 2838 3513 2113 
z
" transform="scale(0.015625)"/>
       <path id="DejaVuSans-6f" d="M 1959 3097 
Q 1497 3097 1228 2736 
Q 959 2375 959 1747 
Q 959 1119 1226 758 
Q 1494 397 1959 397 
Q 2419 397 2687 759 
Q 2956 1122 2956 1747 
Q 2956 2369 2687 2733 
Q 2419 3097 1959 3097 
z
M 1959 3584 
Q 2709 3584 3137 3096 
Q 3566 2609 3566 1747 
Q 3566 888 3137 398 
Q 2709 -91 1959 -91 
Q 1206 -91 779 398 
Q 353 888 353 1747 
Q 353 2609 779 3096 
Q 1206 3584 1959 3584 
z
" transform="scale(0.015625)"/>
       <path id="DejaVuSans-75" d="M 544 1381 
L 544 3500 
L 1119 3500 
L 1119 1403 
Q 1119 906 1312 657 
Q 1506 409 1894 409 
Q 2359 409 2629 706 
Q 2900 1003 2900 1516 
L 2900 3500 
L 3475 3500 
L 3475 0 
L 2900 0 
L 2900 538 
Q 2691 219 2414 64 
Q 2138 -91 1772 -91 
Q 1169 -91 856 284 
Q 544 659 544 1381 
z
M 1991 3584 
L 1991 3584 
z
" transform="scale(0.015625)"/>
       <path id="DejaVuSans-72" d="M 2631 2963 
Q 2534 3019 2420 3045 
Q 2306 3072 2169 3072 
Q 1681 3072 1420 2755 
Q 1159 2438 1159 1844 
L 1159 0 
L 581 0 
L 581 3500 
L 1159 3500 
L 1159 2956 
Q 1341 3275 1631 3429 
Q 1922 3584 2338 3584 
Q 2397 3584 2469 3576 
Q 2541 3569 2628 3553 
L 2631 2963 
z
" transform="scale(0.015625)"/>
       <path id="DejaVuSans-29" d="M 513 4856 
L 1013 4856 
Q 1481 4119 1714 3412 
Q 1947 2706 1947 2009 
Q 1947 1309 1714 600 
Q 1481 -109 1013 -844 
L 513 -844 
Q 928 -128 1133 580 
Q 1338 1288 1338 2009 
Q 1338 2731 1133 3434 
Q 928 4138 513 4856 
z
" transform="scale(0.015625)"/>
      </defs>
      <use xlink:href="#DejaVuSans-Oblique-57" transform="translate(0 0.015625)"/>
      <use xlink:href="#DejaVuSans-20" transform="translate(98.876953 0.015625)"/>
      <use xlink:href="#DejaVuSans-28" transform="translate(130.664062 0.015625)"/>
      <use xlink:href="#DejaVuSans-6d" transform="translate(169.677734 0.015625)"/>
      <use xlink:href="#DejaVuSans-2f" transform="translate(267.089844 0.015625)"/>
      <use xlink:href="#DejaVuSans-68" transform="translate(300.78125 0.015625)"/>
      <use xlink:href="#DejaVuSans-6f" transform="translate(364.160156 0.015625)"/>
      <use xlink:href="#DejaVuSans-75" transform="translate(425.341797 0.015625)"/>
      <use xlink:href="#DejaVuSans-72" transform="translate(488.720703 0.015625)"/>
      <use xlink:href="#DejaVuSans-29" transform="translate(529.833984 0.015625)"/>
     </g>
    </g>
   </g>
   <g id="matplotlib.axis_2">
    <g id="ytick_1">
     <g id="line2d_7">
      <defs>
       <path id="m7a7668b75f" d="M 0 0 
L -3.5 0 
" style="stroke: #000000; stroke-width: 0.8"/>
      </defs>
      <g>
       <use xlink:href="#m7a7668b75f" x="47.018" y="287.690954" style="stroke: #000000; stroke-width: 0.8"/>
      </g>
     </g>
     <g id="text_8">
      <!-- 0 -->
      <g transform="translate(33.6555 291.490173) scale(0.1 -0.1)">
       <use xlink:href="#DejaVuSans-30"/>
      </g>
     </g>
    </g>
    <g id="ytick_2">
     <g id="line2d_8">
      <g>
       <use xlink:href="#m7a7668b75f" x="47.018" y="251.667027" style="stroke: #000000; stroke-width: 0.8"/>
      </g>
     </g>
     <g id="text_9">
      <!-- 5 -->
      <g transform="translate(33.6555 255.466246) scale(0.1 -0.1)">
       <use xlink:href="#DejaVuSans-35"/>
      </g>
     </g>
    </g>
    <g id="ytick_3">
     <g id="line2d_9">
      <g>
       <use xlink:href="#m7a7668b75f" x="47.018" y="215.643101" style="stroke: #000000; stroke-width: 0.8"/>
      </g>
     </g>
     <g id="text_10">
      <!-- 10 -->
      <g transform="translate(27.293 219.442319) scale(0.1 -0.1)">
       <use xlink:href="#DejaVuSans-31"/>
       <use xlink:href="#DejaVuSans-30" transform="translate(63.623047 0)"/>
      </g>
     </g>
    </g>
    <g id="ytick_4">
     <g id="line2d_10">
      <g>
       <use xlink:href="#m7a7668b75f" x="47.018" y="179.619174" style="stroke: #000000; stroke-width: 0.8"/>
      </g>
     </g>
     <g id="text_11">
      <!-- 15 -->
      <g transform="translate(27.293 183.418393) scale(0.1 -0.1)">
       <use xlink:href="#DejaVuSans-31"/>
       <use xlink:href="#DejaVuSans-35" transform="translate(63.623047 0)"/>
      </g>
     </g>
    </g>
    <g id="ytick_5">
     <g id="line2d_11">
      <g>
       <use xlink:href="#m7a7668b75f" x="47.018" y="143.595247" style="stroke: #000000; stroke-width: 0.8"/>
      </g>
     </g>
     <g id="text_12">
      <!-- 20 -->
      <g transform="translate(27.293 147.394466) scale(0.1 -0.1)">
       <use xlink:href="#DejaVuSans-32"/>
       <use xlink:href="#DejaVuSans-30" transform="translate(63.623047 0)"/>
      </g>
     </g>
    </g>
    <g id="ytick_6">
     <g id="line2d_12">
      <g>
       <use xlink:href="#m7a7668b75f" x="47.018" y="107.571321" style="stroke: #000000; stroke-width: 0.8"/>
      </g>
     </g>
     <g id="text_13">
      <!-- 25 -->
      <g transform="translate(27.293 111.37054) scale(0.1 -0.1)">
       <use xlink:href="#DejaVuSans-32"/>
       <use xlink:href="#DejaVuSans-35" transform="translate(63.623047 0)"/>
      </g>
     </g>
    </g>
    <g id="ytick_7">
     <g id="line2d_13">
      <g>
       <use xlink:href="#m7a7668b75f" x="47.018" y="71.547394" style="stroke: #000000; stroke-width: 0.8"/>
      </g>
     </g>
     <g id="text_14">
      <!-- 30 -->
      <g transform="translate(27.293 75.346613) scale(0.1 -0.1)">
       <use xlink:href="#DejaVuSans-33"/>
       <use xlink:href="#DejaVuSans-30" transform="translate(63.623047 0)"/>
      </g>
     </g>
    </g>
    <g id="ytick_8">
     <g id="line2d_14">
      <g>
       <use xlink:href="#m7a7668b75f" x="47.018" y="35.523468" style="stroke: #000000; stroke-width: 0.8"/>
      </g>
     </g>
     <g id="text_15">
      <!-- 35 -->
      <g transform="translate(27.293 39.322686) scale(0.1 -0.1)">
       <use xlink:href="#DejaVuSans-33"/>
       <use xlink:href="#DejaVuSans-35" transform="translate(63.623047 0)"/>
      </g>
     </g>
    </g>
    <g id="text_16">
     <!-- $Q_{lc}$ (kW) -->
     <g transform="translate(21.213312 176.8) rotate(-90) scale(0.1 -0.1)">
      <defs>
       <path id="DejaVuSans-Oblique-51" d="M 2309 -84 
Q 2275 -88 2237 -89 
Q 2200 -91 2125 -91 
Q 1250 -91 756 411 
Q 263 913 263 1797 
Q 263 2319 452 2844 
Q 641 3369 978 3788 
Q 1369 4269 1858 4509 
Q 2347 4750 2938 4750 
Q 3794 4750 4287 4245 
Q 4781 3741 4781 2869 
Q 4781 1928 4265 1147 
Q 3750 366 2919 44 
L 3553 -825 
L 2847 -825 
L 2309 -84 
z
M 2919 4238 
Q 2400 4238 2003 3986 
Q 1606 3734 1313 3219 
Q 1125 2891 1026 2522 
Q 928 2153 928 1778 
Q 928 1128 1239 775 
Q 1550 422 2119 422 
Q 2631 422 3032 676 
Q 3434 931 3719 1434 
Q 3909 1772 4009 2142 
Q 4109 2513 4109 2881 
Q 4109 3528 3796 3883 
Q 3484 4238 2919 4238 
z
" transform="scale(0.015625)"/>
       <path id="DejaVuSans-Oblique-6c" d="M 1172 4863 
L 1747 4863 
L 800 0 
L 225 0 
L 1172 4863 
z
" transform="scale(0.015625)"/>
       <path id="DejaVuSans-Oblique-63" d="M 3431 3366 
L 3316 2797 
Q 3109 2947 2876 3022 
Q 2644 3097 2394 3097 
Q 2119 3097 1870 3000 
Q 1622 2903 1453 2725 
Q 1184 2453 1037 2087 
Q 891 1722 891 1331 
Q 891 859 1127 628 
Q 1363 397 1844 397 
Q 2081 397 2348 469 
Q 2616 541 2906 684 
L 2797 116 
Q 2547 13 2283 -39 
Q 2019 -91 1741 -91 
Q 1044 -91 669 257 
Q 294 606 294 1253 
Q 294 1797 489 2255 
Q 684 2713 1069 3078 
Q 1331 3328 1684 3456 
Q 2038 3584 2456 3584 
Q 2700 3584 2940 3529 
Q 3181 3475 3431 3366 
z
" transform="scale(0.015625)"/>
       <path id="DejaVuSans-6b" d="M 581 4863 
L 1159 4863 
L 1159 1991 
L 2875 3500 
L 3609 3500 
L 1753 1863 
L 3688 0 
L 2938 0 
L 1159 1709 
L 1159 0 
L 581 0 
L 581 4863 
z
" transform="scale(0.015625)"/>
       <path id="DejaVuSans-57" d="M 213 4666 
L 850 4666 
L 1831 722 
L 2809 4666 
L 3519 4666 
L 4500 722 
L 5478 4666 
L 6119 4666 
L 4947 0 
L 4153 0 
L 3169 4050 
L 2175 0 
L 1381 0 
L 213 4666 
z
" transform="scale(0.015625)"/>
      </defs>
      <use xlink:href="#DejaVuSans-Oblique-51" transform="translate(0 0.015625)"/>
      <use xlink:href="#DejaVuSans-Oblique-6c" transform="translate(78.710938 -16.390625) scale(0.7)"/>
      <use xlink:href="#DejaVuSans-Oblique-63" transform="translate(98.15918 -16.390625) scale(0.7)"/>
      <use xlink:href="#DejaVuSans-20" transform="translate(139.379883 0.015625)"/>
      <use xlink:href="#DejaVuSans-28" transform="translate(171.166992 0.015625)"/>
      <use xlink:href="#DejaVuSans-6b" transform="translate(210.180664 0.015625)"/>
      <use xlink:href="#DejaVuSans-57" transform="translate(268.09082 0.015625)"/>
      <use xlink:href="#DejaVuSans-29" transform="translate(366.967773 0.015625)"/>
     </g>
    </g>
   </g>
   <g id="line2d_15">
    <path d="M 65.335364 214.09422 
L 72.811839 214.752766 
L 80.288314 215.308775 
L 87.764788 215.744834 
L 95.241263 216.050384 
L 102.717738 216.221512 
L 110.194213 216.260772 
L 117.670688 216.171811 
L 125.147163 215.977795 
L 132.623638 215.690466 
L 140.100113 215.331293 
L 147.576588 214.921797 
L 155.053063 214.484235 
L 162.529538 214.040004 
L 170.006013 213.608603 
L 177.482488 213.206777 
L 184.958963 212.847912 
L 192.435438 212.541673 
L 199.911913 212.29391 
L 207.388388 212.10679 
L 214.864863 211.978646 
L 222.341338 211.906623 
L 229.817813 211.884121 
L 237.294288 211.903327 
L 244.770763 211.956507 
L 252.247237 212.035259 
L 259.723712 212.1319 
L 267.200187 212.239632 
L 274.676662 212.3527 
L 282.153137 212.460118 
L 289.629612 212.567528 
L 297.106087 212.640145 
L 304.582562 212.742463 
L 312.059037 212.838897 
L 319.535512 212.929152 
L 327.011987 213.012918 
L 334.488462 213.089635 
L 341.964937 213.158354 
L 349.441412 213.217698 
L 356.917887 213.265937 
L 364.394362 213.301172 
L 371.870837 213.321603 
L 379.347312 213.325869 
L 386.823787 213.313423 
L 394.300262 213.284904 
L 401.776737 213.242474 
L 409.253212 213.190081 
L 416.729686 213.133625 
L 424.206161 213.081002 
L 431.682636 213.042009 
" clip-path="url(#paec9c62d16)" style="fill: none; stroke: #1f77b4; stroke-width: 1.5; stroke-linecap: square"/>
   </g>
   <g id="line2d_16">
    <path d="M 65.335364 254.152298 
L 72.811839 247.638456 
L 80.288314 241.906389 
L 87.764788 236.926097 
L 95.241263 232.59344 
L 102.717738 228.85364 
L 110.194213 225.610801 
L 117.670688 222.761948 
L 125.147163 220.229185 
L 132.623638 217.944244 
L 140.100113 215.843997 
L 147.576588 213.876323 
L 155.053063 211.999468 
L 162.529538 210.899588 
L 170.006013 210.927493 
L 177.482488 211.00865 
L 184.958963 211.107826 
L 192.435438 211.220647 
L 199.911913 211.345636 
L 207.388388 211.482899 
L 214.864863 211.633727 
L 222.341338 211.799055 
L 229.817813 211.978745 
L 237.294288 212.171737 
L 244.770763 212.375751 
L 252.247237 212.587492 
L 259.723712 212.802719 
L 267.200187 213.016764 
L 274.676662 213.225001 
L 282.153137 213.423219 
L 289.629612 213.607974 
L 297.106087 213.776822 
L 304.582562 213.928438 
L 312.059037 214.062736 
L 319.535512 214.180448 
L 327.011987 214.282702 
L 334.488462 214.371529 
L 341.964937 214.448872 
L 349.441412 214.516882 
L 356.917887 214.576238 
L 364.394362 214.627638 
L 371.870837 214.670721 
L 379.347312 214.704993 
L 386.823787 214.728668 
L 394.300262 214.739657 
L 401.776737 214.735928 
L 409.253212 214.716262 
L 416.729686 214.679777 
L 424.206161 214.626965 
L 431.682636 214.55985 
" clip-path="url(#paec9c62d16)" style="fill: none; stroke: #ff7f0e; stroke-width: 1.5; stroke-linecap: square"/>
   </g>
   <g id="line2d_17">
    <path d="M 65.335364 272.622767 
L 72.811839 272.04696 
L 80.288314 271.625935 
L 87.764788 271.170945 
L 95.241263 270.81413 
L 102.717738 270.495521 
L 110.194213 269.859534 
L 117.670688 269.107129 
L 125.147163 268.374449 
L 132.623638 267.751722 
L 140.100113 267.128323 
L 147.576588 266.539935 
L 155.053063 265.975338 
L 162.529538 265.426695 
L 170.006013 264.889195 
L 177.482488 264.360543 
L 184.958963 263.84038 
L 192.435438 263.329663 
L 199.911913 262.830061 
L 207.388388 262.343431 
L 214.864863 261.871377 
L 222.341338 261.414937 
L 229.817813 260.974401 
L 237.294288 260.549249 
L 244.770763 260.138213 
L 252.247237 259.739423 
L 259.723712 259.350619 
L 267.200187 258.969397 
L 274.676662 258.593453 
L 282.153137 258.220807 
L 289.629612 257.849973 
L 297.106087 257.480064 
L 304.582562 257.11083 
L 312.059037 256.742618 
L 319.535512 256.376271 
L 327.011987 256.012976 
L 334.488462 255.654075 
L 341.964937 255.300872 
L 349.441412 254.954442 
L 356.917887 254.615476 
L 364.394362 254.28416 
L 371.870837 253.960122 
L 379.347312 253.642429 
L 386.823787 253.329651 
L 394.300262 253.019974 
L 401.776737 252.711359 
L 409.253212 252.401732 
L 416.729686 252.089178 
L 424.206161 251.772135 
L 431.682636 251.449564 
" clip-path="url(#paec9c62d16)" style="fill: none; stroke: #2ca02c; stroke-width: 1.5; stroke-linecap: square"/>
   </g>
   <g id="line2d_18">
    <path d="M 65.335364 281.443268 
L 72.811839 281.366459 
L 80.288314 281.29394 
L 87.764788 281.21787 
L 95.241263 281.134261 
L 102.717738 281.039435 
L 110.194213 280.929669 
L 117.670688 279.793931 
L 125.147163 278.132297 
L 132.623638 276.384113 
L 140.100113 274.542126 
L 147.576588 272.567094 
L 155.053063 271.478514 
L 162.529538 271.846366 
L 170.006013 272.272764 
L 177.482488 272.705435 
L 184.958963 273.15171 
L 192.435438 273.618466 
L 199.911913 274.111735 
L 207.388388 274.636368 
L 214.864863 275.19575 
L 222.341338 275.791592 
L 229.817813 276.344331 
L 237.294288 276.169479 
L 244.770763 275.908695 
L 252.247237 275.659887 
L 259.723712 275.423071 
L 267.200187 275.198035 
L 274.676662 274.880855 
L 282.153137 274.444759 
L 289.629612 274.009953 
L 297.106087 273.635641 
L 304.582562 273.12733 
L 312.059037 272.649552 
L 319.535512 272.208698 
L 327.011987 271.799992 
L 334.488462 271.434943 
L 341.964937 271.107888 
L 349.441412 270.817091 
L 356.917887 270.572656 
L 364.394362 270.372874 
L 371.870837 270.213945 
L 379.347312 270.090091 
L 386.823787 269.99377 
L 394.300262 269.91594 
L 401.776737 269.846392 
L 409.253212 269.774119 
L 416.729686 269.687719 
L 424.206161 269.575796 
L 431.682636 269.427367 
" clip-path="url(#paec9c62d16)" style="fill: none; stroke: #d62728; stroke-width: 1.5; stroke-linecap: square"/>
   </g>
   <g id="patch_3">
    <path d="M 47.018 302.2 
L 47.018 10.8 
" style="fill: none; stroke: #000000; stroke-width: 0.8; stroke-linejoin: miter; stroke-linecap: square"/>
   </g>
   <g id="patch_4">
    <path d="M 450 302.2 
L 450 10.8 
" style="fill: none; stroke: #000000; stroke-width: 0.8; stroke-linejoin: miter; stroke-linecap: square"/>
   </g>
   <g id="patch_5">
    <path d="M 47.018 302.2 
L 450 302.2 
" style="fill: none; stroke: #000000; stroke-width: 0.8; stroke-linejoin: miter; stroke-linecap: square"/>
   </g>
   <g id="patch_6">
    <path d="M 47.018 10.8 
L 450 10.8 
" style="fill: none; stroke: #000000; stroke-width: 0.8; stroke-linejoin: miter; stroke-linecap: square"/>
   </g>
   <g id="legend_1">
    <g id="patch_7">
     <path d="M 54.018 77.5125 
L 132.888313 77.5125 
Q 134.888313 77.5125 134.888313 75.5125 
L 134.888313 17.8 
Q 134.888313 15.8 132.888313 15.8 
L 54.018 15.8 
Q 52.018 15.8 52.018 17.8 
L 52.018 75.5125 
Q 52.018 77.5125 54.018 77.5125 
z
" style="fill: #ffffff; opacity: 0.8; stroke: #cccccc; stroke-linejoin: miter"/>
    </g>
    <g id="line2d_19">
     <path d="M 56.018 23.898438 
L 66.018 23.898438 
L 76.018 23.898438 
" style="fill: none; stroke: #1f77b4; stroke-width: 1.5; stroke-linecap: square"/>
    </g>
    <g id="text_17">
     <!-- Ts=100 K -->
     <g transform="translate(84.018 27.398438) scale(0.1 -0.1)">
      <defs>
       <path id="DejaVuSans-54" d="M -19 4666 
L 3928 4666 
L 3928 4134 
L 2272 4134 
L 2272 0 
L 1638 0 
L 1638 4134 
L -19 4134 
L -19 4666 
z
" transform="scale(0.015625)"/>
       <path id="DejaVuSans-73" d="M 2834 3397 
L 2834 2853 
Q 2591 2978 2328 3040 
Q 2066 3103 1784 3103 
Q 1356 3103 1142 2972 
Q 928 2841 928 2578 
Q 928 2378 1081 2264 
Q 1234 2150 1697 2047 
L 1894 2003 
Q 2506 1872 2764 1633 
Q 3022 1394 3022 966 
Q 3022 478 2636 193 
Q 2250 -91 1575 -91 
Q 1294 -91 989 -36 
Q 684 19 347 128 
L 347 722 
Q 666 556 975 473 
Q 1284 391 1588 391 
Q 1994 391 2212 530 
Q 2431 669 2431 922 
Q 2431 1156 2273 1281 
Q 2116 1406 1581 1522 
L 1381 1569 
Q 847 1681 609 1914 
Q 372 2147 372 2553 
Q 372 3047 722 3315 
Q 1072 3584 1716 3584 
Q 2034 3584 2315 3537 
Q 2597 3491 2834 3397 
z
" transform="scale(0.015625)"/>
       <path id="DejaVuSans-3d" d="M 678 2906 
L 4684 2906 
L 4684 2381 
L 678 2381 
L 678 2906 
z
M 678 1631 
L 4684 1631 
L 4684 1100 
L 678 1100 
L 678 1631 
z
" transform="scale(0.015625)"/>
       <path id="DejaVuSans-4b" d="M 628 4666 
L 1259 4666 
L 1259 2694 
L 3353 4666 
L 4166 4666 
L 1850 2491 
L 4331 0 
L 3500 0 
L 1259 2247 
L 1259 0 
L 628 0 
L 628 4666 
z
" transform="scale(0.015625)"/>
      </defs>
      <use xlink:href="#DejaVuSans-54"/>
      <use xlink:href="#DejaVuSans-73" transform="translate(44.583984 0)"/>
      <use xlink:href="#DejaVuSans-3d" transform="translate(96.683594 0)"/>
      <use xlink:href="#DejaVuSans-31" transform="translate(180.472656 0)"/>
      <use xlink:href="#DejaVuSans-30" transform="translate(244.095703 0)"/>
      <use xlink:href="#DejaVuSans-30" transform="translate(307.71875 0)"/>
      <use xlink:href="#DejaVuSans-20" transform="translate(371.341797 0)"/>
      <use xlink:href="#DejaVuSans-4b" transform="translate(403.128906 0)"/>
     </g>
    </g>
    <g id="line2d_20">
     <path d="M 56.018 38.576563 
L 66.018 38.576563 
L 76.018 38.576563 
" style="fill: none; stroke: #ff7f0e; stroke-width: 1.5; stroke-linecap: square"/>
    </g>
    <g id="text_18">
     <!-- Ts=160 K -->
     <g transform="translate(84.018 42.076563) scale(0.1 -0.1)">
      <defs>
       <path id="DejaVuSans-36" d="M 2113 2584 
Q 1688 2584 1439 2293 
Q 1191 2003 1191 1497 
Q 1191 994 1439 701 
Q 1688 409 2113 409 
Q 2538 409 2786 701 
Q 3034 994 3034 1497 
Q 3034 2003 2786 2293 
Q 2538 2584 2113 2584 
z
M 3366 4563 
L 3366 3988 
Q 3128 4100 2886 4159 
Q 2644 4219 2406 4219 
Q 1781 4219 1451 3797 
Q 1122 3375 1075 2522 
Q 1259 2794 1537 2939 
Q 1816 3084 2150 3084 
Q 2853 3084 3261 2657 
Q 3669 2231 3669 1497 
Q 3669 778 3244 343 
Q 2819 -91 2113 -91 
Q 1303 -91 875 529 
Q 447 1150 447 2328 
Q 447 3434 972 4092 
Q 1497 4750 2381 4750 
Q 2619 4750 2861 4703 
Q 3103 4656 3366 4563 
z
" transform="scale(0.015625)"/>
      </defs>
      <use xlink:href="#DejaVuSans-54"/>
      <use xlink:href="#DejaVuSans-73" transform="translate(44.583984 0)"/>
      <use xlink:href="#DejaVuSans-3d" transform="translate(96.683594 0)"/>
      <use xlink:href="#DejaVuSans-31" transform="translate(180.472656 0)"/>
      <use xlink:href="#DejaVuSans-36" transform="translate(244.095703 0)"/>
      <use xlink:href="#DejaVuSans-30" transform="translate(307.71875 0)"/>
      <use xlink:href="#DejaVuSans-20" transform="translate(371.341797 0)"/>
      <use xlink:href="#DejaVuSans-4b" transform="translate(403.128906 0)"/>
     </g>
    </g>
    <g id="line2d_21">
     <path d="M 56.018 53.254687 
L 66.018 53.254687 
L 76.018 53.254687 
" style="fill: none; stroke: #2ca02c; stroke-width: 1.5; stroke-linecap: square"/>
    </g>
    <g id="text_19">
     <!-- Ts=220 K -->
     <g transform="translate(84.018 56.754687) scale(0.1 -0.1)">
      <use xlink:href="#DejaVuSans-54"/>
      <use xlink:href="#DejaVuSans-73" transform="translate(44.583984 0)"/>
      <use xlink:href="#DejaVuSans-3d" transform="translate(96.683594 0)"/>
      <use xlink:href="#DejaVuSans-32" transform="translate(180.472656 0)"/>
      <use xlink:href="#DejaVuSans-32" transform="translate(244.095703 0)"/>
      <use xlink:href="#DejaVuSans-30" transform="translate(307.71875 0)"/>
      <use xlink:href="#DejaVuSans-20" transform="translate(371.341797 0)"/>
      <use xlink:href="#DejaVuSans-4b" transform="translate(403.128906 0)"/>
     </g>
    </g>
    <g id="line2d_22">
     <path d="M 56.018 67.932813 
L 66.018 67.932813 
L 76.018 67.932813 
" style="fill: none; stroke: #d62728; stroke-width: 1.5; stroke-linecap: square"/>
    </g>
    <g id="text_20">
     <!-- Ts=260 K -->
     <g transform="translate(84.018 71.432813) scale(0.1 -0.1)">
      <use xlink:href="#DejaVuSans-54"/>
      <use xlink:href="#DejaVuSans-73" transform="translate(44.583984 0)"/>
      <use xlink:href="#DejaVuSans-3d" transform="translate(96.683594 0)"/>
      <use xlink:href="#DejaVuSans-32" transform="translate(180.472656 0)"/>
      <use xlink:href="#DejaVuSans-36" transform="translate(244.095703 0)"/>
      <use xlink:href="#DejaVuSans-30" transform="translate(307.71875 0)"/>
      <use xlink:href="#DejaVuSans-20" transform="translate(371.341797 0)"/>
      <use xlink:href="#DejaVuSans-4b" transform="translate(403.128906 0)"/>
     </g>
    </g>
   </g>
  </g>
 </g>
 <defs>
  <clipPath id="paec9c62d16">
   <rect x="47.018" y="10.8" width="402.982" height="291.4"/>
  </clipPath>
 </defs>
</svg>
