<?xml version="1.0" encoding="utf-8" standalone="no"?>
<!DOCTYPE svg PUBLIC "-//W3C//DTD SVG 1.1//EN"
  "http://www.w3.org/Graphics/SVG/1.1/DTD/svg11.dtd">
<svg xmlns:xlink="http://www.w3.org/1999/xlink" width="460.8pt" height="345.6pt" viewBox="0 0 460.8 345.6" xmlns="http://www.w3.org/2000/svg" version="1.1">
 <metadata>
  <rdf:RDF xmlns:dc="http://purl.org/dc/elements/1.1/" xmlns:cc="http://creativecommons.org/ns#" xmlns:rdf="http://www.w3.org/1999/02/22-rdf-syntax-ns#">
   <cc:Work>
    <dc:type rdf:resource="http://purl.org/dc/dcmitype/StillImage"/>
    <dc:date>2026-02-12T05:46:00.301993</dc:date>
    <dc:format>image/svg+xml</dc:format>
    <dc:creator>
     <cc:Agent>
      <dc:title>Matplotlib v3.10.8, https://matplotlib.org/</dc:title>
     </cc:Agent>
    </dc:creator>
   </cc:Work>
  </rdf:RDF>
 </metadata>
 <defs>
  <style type="text/css">*{stroke-linejoin: round; stroke-linecap: butt}</style>
 </defs>
 <g id="figure_1">
  <g id="patch_1">
   <path d="M 0 345.6 
L 460.8 345.6 
L 460.8 0 
L 0 0 
L 0 345.6 
z
" style="fill: none"/>
  </g>
  <g id="axes_1">
   <g id="patch_2">
    <path d="M 47.018 302.2 
L 450 302.2 
L 450 10.8 
L 47.018 10.8 
L 47.018 302.2 
z
" style="fill: none"/>
   </g>
   <g id="FillBetweenPolyCollection_1">
    <path d="M 65.335364 201.798894 
L 65.335364 269.451088 
L 72.811839 263.717635 
L 80.288314 258.657959 
L 87.764788 254.255307 
L 95.241263 250.481069 
L 102.717738 247.295109 
L 110.194213 244.647315 
L 117.670688 242.480079 
L 125.147163 240.731568 
L 132.623638 239.339319 
L 140.100113 238.24845 
L 147.576588 237.396571 
L 155.053063 236.739422 
L 162.529538 236.238962 
L 170.006013 235.86402 
L 177.482488 235.590071 
L 184.958963 235.397867 
L 192.435438 235.272063 
L 199.911913 235.200073 
L 207.388388 235.171279 
L 214.864863 235.176586 
L 222.341338 235.20822 
L 229.817813 235.259654 
L 237.294288 235.32555 
L 244.770763 235.401666 
L 252.247237 235.484691 
L 259.723712 235.572047 
L 267.200187 235.661695 
L 274.676662 235.751969 
L 282.153137 235.841467 
L 289.629612 235.928991 
L 297.106087 236.013529 
L 304.582562 236.094248 
L 312.059037 236.170493 
L 319.535512 236.241767 
L 327.011987 236.307711 
L 334.488462 236.368067 
L 341.964937 236.422651 
L 349.441412 236.471332 
L 356.917887 236.514017 
L 364.394362 236.55066 
L 371.870837 236.581261 
L 379.347312 236.605876 
L 386.823787 236.624627 
L 394.300262 236.637696 
L 401.776737 236.645331 
L 409.253212 236.647833 
L 416.729686 236.645547 
L 424.206161 236.638864 
L 431.682636 236.628202 
L 431.682636 24.045455 
L 431.682636 24.045455 
L 424.206161 25.773013 
L 416.729686 27.522773 
L 409.253212 29.508409 
L 401.776737 31.267441 
L 394.300262 33.180162 
L 386.823787 34.901829 
L 379.347312 36.650889 
L 371.870837 38.448492 
L 364.394362 40.296635 
L 356.917887 42.196258 
L 349.441412 44.171833 
L 341.964937 46.19266 
L 334.488462 48.259786 
L 327.011987 50.374268 
L 319.535512 52.527227 
L 312.059037 54.71469 
L 304.582562 56.957929 
L 297.106087 59.258405 
L 289.629612 61.617786 
L 282.153137 64.037968 
L 274.676662 66.521073 
L 267.200187 69.069457 
L 259.723712 71.685723 
L 252.247237 74.37278 
L 244.770763 77.133937 
L 237.294288 79.973058 
L 229.817813 82.865463 
L 222.341338 85.833359 
L 214.864863 88.888083 
L 207.388388 92.043393 
L 199.911913 95.340929 
L 192.435438 98.761525 
L 184.958963 102.316589 
L 177.482488 105.97054 
L 170.006013 109.77582 
L 162.529538 113.770673 
L 155.053063 118.071744 
L 147.576588 122.589815 
L 140.100113 127.335717 
L 132.623638 132.482573 
L 125.147163 138.081786 
L 117.670688 144.26379 
L 110.194213 151.120682 
L 102.717738 158.756811 
L 95.241263 167.276779 
L 87.764788 176.764123 
L 80.288314 187.240924 
L 72.811839 198.767891 
L 65.335364 201.798894 
z
" clip-path="url(#p7b39b3c969)" style="fill: #1f77b4; fill-opacity: 0.45"/>
   </g>
   <g id="FillBetweenPolyCollection_2">
    <path d="M 65.335364 232.455955 
L 65.335364 280.583191 
L 72.811839 276.944262 
L 80.288314 273.786887 
L 87.764788 271.067964 
L 95.241263 268.741511 
L 102.717738 266.760268 
L 110.194213 265.077336 
L 117.670688 263.647717 
L 125.147163 262.429641 
L 132.623638 261.385581 
L 140.100113 260.482899 
L 147.576588 259.694088 
L 155.053063 258.996649 
L 162.529538 258.372664 
L 170.006013 257.80815 
L 177.482488 257.292324 
L 184.958963 256.816858 
L 192.435438 256.375228 
L 199.911913 255.962192 
L 207.388388 255.573422 
L 214.864863 255.205267 
L 222.341338 254.854615 
L 229.817813 254.518817 
L 237.294288 254.195638 
L 244.770763 253.883206 
L 252.247237 253.579963 
L 259.723712 253.284606 
L 267.200187 252.996033 
L 274.676662 252.713297 
L 282.153137 252.43558 
L 289.629612 252.162173 
L 297.106087 251.892473 
L 304.582562 251.62598 
L 312.059037 251.362294 
L 319.535512 251.101101 
L 327.011987 250.842165 
L 334.488462 250.585303 
L 341.964937 250.330374 
L 349.441412 250.077271 
L 356.917887 249.825924 
L 364.394362 249.576325 
L 371.870837 249.328564 
L 379.347312 249.082875 
L 386.823787 248.839681 
L 394.300262 248.599629 
L 401.776737 248.363603 
L 409.253212 248.132707 
L 416.729686 247.908217 
L 424.206161 247.691505 
L 431.682636 247.483955 
L 431.682636 160.172091 
L 431.682636 160.172091 
L 424.206161 161.153412 
L 416.729686 162.007874 
L 409.253212 162.881756 
L 401.776737 163.774727 
L 394.300262 164.686585 
L 386.823787 165.617295 
L 379.347312 166.567017 
L 371.870837 167.536099 
L 364.394362 168.525049 
L 356.917887 169.534494 
L 349.441412 170.565126 
L 341.964937 171.617662 
L 334.488462 172.692814 
L 327.011987 173.791273 
L 319.535512 174.913721 
L 312.059037 176.060857 
L 304.582562 177.23343 
L 297.106087 178.432269 
L 289.629612 179.658308 
L 282.153137 180.912584 
L 274.676662 182.196233 
L 267.200187 183.510472 
L 259.723712 184.856588 
L 252.247237 186.235945 
L 244.770763 187.650031 
L 237.294288 189.100533 
L 229.817813 190.589432 
L 222.341338 192.119115 
L 214.864863 193.692462 
L 207.388388 195.312924 
L 199.911913 196.984592 
L 192.435438 198.71231 
L 184.958963 199.809295 
L 177.482488 200.192513 
L 170.006013 200.660356 
L 162.529538 201.235069 
L 155.053063 201.93754 
L 147.576588 202.792894 
L 140.100113 203.830884 
L 132.623638 205.085826 
L 125.147163 206.595946 
L 117.670688 208.402113 
L 110.194213 210.546042 
L 102.717738 213.068156 
L 95.241263 216.005401 
L 87.764788 219.391701 
L 80.288314 223.2505 
L 72.811839 227.601409 
L 65.335364 232.455955 
z
" clip-path="url(#p7b39b3c969)" style="fill: #ff7f0e; fill-opacity: 0.45"/>
   </g>
   <g id="FillBetweenPolyCollection_3">
    <path d="M 65.335364 269.65975 
L 65.335364 283.805737 
L 72.811839 282.814435 
L 80.288314 282.014577 
L 87.764788 281.379062 
L 95.241263 280.882377 
L 102.717738 280.501038 
L 110.194213 280.213915 
L 117.670688 280.002421 
L 125.147163 279.850562 
L 132.623638 279.744873 
L 140.100113 279.674244 
L 147.576588 279.62968 
L 155.053063 279.604014 
L 162.529538 279.59161 
L 170.006013 279.58808 
L 177.482488 279.590017 
L 184.958963 279.594781 
L 192.435438 279.600317 
L 199.911913 279.605016 
L 207.388388 279.607613 
L 214.864863 279.607113 
L 222.341338 279.602741 
L 229.817813 279.593897 
L 237.294288 279.580132 
L 244.770763 279.561122 
L 252.247237 279.536646 
L 259.723712 279.506563 
L 267.200187 279.470803 
L 274.676662 279.429343 
L 282.153137 279.382199 
L 289.629612 279.329418 
L 297.106087 279.271063 
L 304.582562 279.207213 
L 312.059037 279.137957 
L 319.535512 279.063386 
L 327.011987 278.983594 
L 334.488462 278.898675 
L 341.964937 278.808721 
L 349.441412 278.713818 
L 356.917887 278.614043 
L 364.394362 278.509459 
L 371.870837 278.400108 
L 379.347312 278.286 
L 386.823787 278.167108 
L 394.300262 278.04336 
L 401.776737 277.914636 
L 409.253212 277.780776 
L 416.729686 277.641584 
L 424.206161 277.496846 
L 431.682636 277.346352 
L 431.682636 244.252636 
L 431.682636 244.252636 
L 424.206161 244.359835 
L 416.729686 244.477921 
L 409.253212 244.606729 
L 401.776737 244.746185 
L 394.300262 244.896285 
L 386.823787 245.05707 
L 379.347312 245.228597 
L 371.870837 245.410923 
L 364.394362 245.604086 
L 356.917887 245.808099 
L 349.441412 246.022946 
L 341.964937 246.248587 
L 334.488462 246.484958 
L 327.011987 246.731977 
L 319.535512 246.989557 
L 312.059037 247.257605 
L 304.582562 247.536038 
L 297.106087 247.824795 
L 289.629612 248.123844 
L 282.153137 248.433204 
L 274.676662 248.752964 
L 267.200187 249.083303 
L 259.723712 249.424519 
L 252.247237 249.777066 
L 244.770763 250.141598 
L 237.294288 250.519015 
L 229.817813 250.910522 
L 222.341338 251.317696 
L 214.864863 251.742547 
L 207.388388 252.187597 
L 199.911913 252.655959 
L 192.435438 253.151426 
L 184.958963 253.678582 
L 177.482488 254.242931 
L 170.006013 254.851073 
L 162.529538 255.510877 
L 155.053063 256.23148 
L 147.576588 257.023905 
L 140.100113 257.900578 
L 132.623638 258.876416 
L 125.147163 259.967331 
L 117.670688 261.192783 
L 110.194213 262.57225 
L 102.717738 264.127056 
L 95.241263 265.016369 
L 87.764788 265.906276 
L 80.288314 266.96209 
L 72.811839 268.20572 
L 65.335364 269.65975 
z
" clip-path="url(#p7b39b3c969)" style="fill: #2ca02c; fill-opacity: 0.45"/>
   </g>
   <g id="FillBetweenPolyCollection_4">
    <path d="M 65.335364 271.653252 
L 65.335364 285.429416 
L 72.811839 284.637457 
L 80.288314 284.006393 
L 87.764788 283.510533 
L 95.241263 283.129722 
L 102.717738 282.845487 
L 110.194213 282.640498 
L 117.670688 282.633228 
L 125.147163 283.007194 
L 132.623638 283.378824 
L 140.100113 283.74196 
L 147.576588 284.091856 
L 155.053063 284.424998 
L 162.529538 284.738935 
L 170.006013 285.032121 
L 177.482488 285.303752 
L 184.958963 285.553631 
L 192.435438 285.782035 
L 199.911913 285.989613 
L 207.388388 286.17724 
L 214.864863 286.346177 
L 222.341338 286.497601 
L 229.817813 286.632866 
L 237.294288 286.753376 
L 244.770763 286.860553 
L 252.247237 286.955817 
L 259.723712 287.040562 
L 267.200187 287.116144 
L 274.676662 287.183871 
L 282.153137 287.244992 
L 289.629612 287.300689 
L 297.106087 287.352077 
L 304.582562 287.400196 
L 312.059037 287.44601 
L 319.535512 287.490441 
L 327.011987 287.634891 
L 334.488462 287.792214 
L 341.964937 287.938445 
L 349.441412 288.073966 
L 356.917887 288.199159 
L 364.394362 288.314402 
L 371.870837 288.420058 
L 379.347312 288.516472 
L 386.823787 288.603962 
L 394.300262 288.682813 
L 401.776737 288.753273 
L 409.253212 288.815545 
L 416.729686 288.869785 
L 424.206161 288.916101 
L 431.682636 288.954545 
L 431.682636 277.194673 
L 431.682636 277.194673 
L 424.206161 277.076659 
L 416.729686 276.959627 
L 409.253212 276.843635 
L 401.776737 276.727673 
L 394.300262 276.613262 
L 386.823787 276.500402 
L 379.347312 276.389019 
L 371.870837 276.278971 
L 364.394362 276.17005 
L 356.917887 276.061984 
L 349.441412 275.954446 
L 341.964937 275.847051 
L 334.488462 275.73936 
L 327.011987 275.630884 
L 319.535512 275.521087 
L 312.059037 275.409387 
L 304.582562 275.295161 
L 297.106087 275.177749 
L 289.629612 275.056459 
L 282.153137 274.930579 
L 274.676662 274.799376 
L 267.200187 274.662119 
L 259.723712 274.518082 
L 252.247237 274.36657 
L 244.770763 274.206934 
L 237.294288 274.038596 
L 229.817813 273.861083 
L 222.341338 273.67406 
L 214.864863 273.47737 
L 207.388388 273.271086 
L 199.911913 273.055561 
L 192.435438 272.831497 
L 184.958963 272.600008 
L 177.482488 272.362704 
L 170.006013 272.121769 
L 162.529538 271.880054 
L 155.053063 271.641162 
L 147.576588 271.409548 
L 140.100113 271.190597 
L 132.623638 270.990713 
L 125.147163 270.817378 
L 117.670688 270.679211 
L 110.194213 270.585991 
L 102.717738 270.54866 
L 95.241263 270.579303 
L 87.764788 270.691086 
L 80.288314 270.898099 
L 72.811839 271.212845 
L 65.335364 271.653252 
z
" clip-path="url(#p7b39b3c969)" style="fill: #d62728; fill-opacity: 0.45"/>
   </g>
   <g id="matplotlib.axis_1">
    <g id="xtick_1">
     <g id="line2d_1">
      <defs>
       <path id="m4e8c72ab86" d="M 0 0 
L 0 3.5 
" style="stroke: #000000; stroke-width: 0.8"/>
      </defs>
      <g>
       <use xlink:href="#m4e8c72ab86" x="61.634886" y="302.2" style="stroke: #000000; stroke-width: 0.8"/>
      </g>
     </g>
     <g id="text_1">
      <!-- 0 -->
      <g transform="translate(58.453636 316.798437) scale(0.1 -0.1)">
       <defs>
        <path id="DejaVuSans-30" d="M 2034 4250 
Q 1547 4250 1301 3770 
Q 1056 3291 1056 2328 
Q 1056 1369 1301 889 
Q 1547 409 2034 409 
Q 2525 409 2770 889 
Q 3016 1369 3016 2328 
Q 3016 3291 2770 3770 
Q 2525 4250 2034 4250 
z
M 2034 4750 
Q 2819 4750 3233 4129 
Q 3647 3509 3647 2328 
Q 3647 1150 3233 529 
Q 2819 -91 2034 -91 
Q 1250 -91 836 529 
Q 422 1150 422 2328 
Q 422 3509 836 4129 
Q 1250 4750 2034 4750 
z
" transform="scale(0.015625)"/>
       </defs>
       <use xlink:href="#DejaVuSans-30"/>
      </g>
     </g>
    </g>
    <g id="xtick_2">
     <g id="line2d_2">
      <g>
       <use xlink:href="#m4e8c72ab86" x="135.644436" y="302.2" style="stroke: #000000; stroke-width: 0.8"/>
      </g>
     </g>
     <g id="text_2">
      <!-- 1 -->
      <g transform="translate(132.463186 316.798437) scale(0.1 -0.1)">
       <defs>
        <path id="DejaVuSans-31" d="M 794 531 
L 1825 531 
L 1825 4091 
L 703 3866 
L 703 4441 
L 1819 4666 
L 2450 4666 
L 2450 531 
L 3481 531 
L 3481 0 
L 794 0 
L 794 531 
z
" transform="scale(0.015625)"/>
       </defs>
       <use xlink:href="#DejaVuSans-31"/>
      </g>
     </g>
    </g>
    <g id="xtick_3">
     <g id="line2d_3">
      <g>
       <use xlink:href="#m4e8c72ab86" x="209.653986" y="302.2" style="stroke: #000000; stroke-width: 0.8"/>
      </g>
     </g>
     <g id="text_3">
      <!-- 2 -->
      <g transform="translate(206.472736 316.798437) scale(0.1 -0.1)">
       <defs>
        <path id="DejaVuSans-32" d="M 1228 531 
L 3431 531 
L 3431 0 
L 469 0 
L 469 531 
Q 828 903 1448 1529 
Q 2069 2156 2228 2338 
Q 2531 2678 2651 2914 
Q 2772 3150 2772 3378 
Q 2772 3750 2511 3984 
Q 2250 4219 1831 4219 
Q 1534 4219 1204 4116 
Q 875 4013 500 3803 
L 500 4441 
Q 881 4594 1212 4672 
Q 1544 4750 1819 4750 
Q 2544 4750 2975 4387 
Q 3406 4025 3406 3419 
Q 3406 3131 3298 2873 
Q 3191 2616 2906 2266 
Q 2828 2175 2409 1742 
Q 1991 1309 1228 531 
z
" transform="scale(0.015625)"/>
       </defs>
       <use xlink:href="#DejaVuSans-32"/>
      </g>
     </g>
    </g>
    <g id="xtick_4">
     <g id="line2d_4">
      <g>
       <use xlink:href="#m4e8c72ab86" x="283.663536" y="302.2" style="stroke: #000000; stroke-width: 0.8"/>
      </g>
     </g>
     <g id="text_4">
      <!-- 3 -->
      <g transform="translate(280.482286 316.798437) scale(0.1 -0.1)">
       <defs>
        <path id="DejaVuSans-33" d="M 2597 2516 
Q 3050 2419 3304 2112 
Q 3559 1806 3559 1356 
Q 3559 666 3084 287 
Q 2609 -91 1734 -91 
Q 1441 -91 1130 -33 
Q 819 25 488 141 
L 488 750 
Q 750 597 1062 519 
Q 1375 441 1716 441 
Q 2309 441 2620 675 
Q 2931 909 2931 1356 
Q 2931 1769 2642 2001 
Q 2353 2234 1838 2234 
L 1294 2234 
L 1294 2753 
L 1863 2753 
Q 2328 2753 2575 2939 
Q 2822 3125 2822 3475 
Q 2822 3834 2567 4026 
Q 2313 4219 1838 4219 
Q 1578 4219 1281 4162 
Q 984 4106 628 3988 
L 628 4550 
Q 988 4650 1302 4700 
Q 1616 4750 1894 4750 
Q 2613 4750 3031 4423 
Q 3450 4097 3450 3541 
Q 3450 3153 3228 2886 
Q 3006 2619 2597 2516 
z
" transform="scale(0.015625)"/>
       </defs>
       <use xlink:href="#DejaVuSans-33"/>
      </g>
     </g>
    </g>
    <g id="xtick_5">
     <g id="line2d_5">
      <g>
       <use xlink:href="#m4e8c72ab86" x="357.673086" y="302.2" style="stroke: #000000; stroke-width: 0.8"/>
      </g>
     </g>
     <g id="text_5">
      <!-- 4 -->
      <g transform="translate(354.491836 316.798437) scale(0.1 -0.1)">
       <defs>
        <path id="DejaVuSans-34" d="M 2419 4116 
L 825 1625 
L 2419 1625 
L 2419 4116 
z
M 2253 4666 
L 3047 4666 
L 3047 1625 
L 3713 1625 
L 3713 1100 
L 3047 1100 
L 3047 0 
L 2419 0 
L 2419 1100 
L 313 1100 
L 313 1709 
L 2253 4666 
z
" transform="scale(0.015625)"/>
       </defs>
       <use xlink:href="#DejaVuSans-34"/>
      </g>
     </g>
    </g>
    <g id="xtick_6">
     <g id="line2d_6">
      <g>
       <use xlink:href="#m4e8c72ab86" x="431.682636" y="302.2" style="stroke: #000000; stroke-width: 0.8"/>
      </g>
     </g>
     <g id="text_6">
      <!-- 5 -->
      <g transform="translate(428.501386 316.798437) scale(0.1 -0.1)">
       <defs>
        <path id="DejaVuSans-35" d="M 691 4666 
L 3169 4666 
L 3169 4134 
L 1269 4134 
L 1269 2991 
Q 1406 3038 1543 3061 
Q 1681 3084 1819 3084 
Q 2600 3084 3056 2656 
Q 3513 2228 3513 1497 
Q 3513 744 3044 326 
Q 2575 -91 1722 -91 
Q 1428 -91 1123 -41 
Q 819 9 494 109 
L 494 744 
Q 775 591 1075 516 
Q 1375 441 1709 441 
Q 2250 441 2565 725 
Q 2881 1009 2881 1497 
Q 2881 1984 2565 2268 
Q 2250 2553 1709 2553 
Q 1456 2553 1204 2497 
Q 953 2441 691 2322 
L 691 4666 
z
" transform="scale(0.015625)"/>
       </defs>
       <use xlink:href="#DejaVuSans-35"/>
      </g>
     </g>
    </g>
    <g id="text_7">
     <!-- $W$ (m/hour) -->
     <g transform="translate(220.059 330.476562) scale(0.1 -0.1)">
      <defs>
       <path id="DejaVuSans-Oblique-57" d="M 616 4666 
L 1228 4666 
L 1453 697 
L 3213 4666 
L 3916 4666 
L 4147 697 
L 5888 4666 
L 6528 4666 
L 4453 0 
L 3659 0 
L 3444 3891 
L 1697 0 
L 903 0 
L 616 4666 
z
" transform="scale(0.015625)"/>
       <path id="DejaVuSans-20" transform="scale(0.015625)"/>
       <path id="DejaVuSans-28" d="M 1984 4856 
Q 1566 4138 1362 3434 
Q 1159 2731 1159 2009 
Q 1159 1288 1364 580 
Q 1569 -128 1984 -844 
L 1484 -844 
Q 1016 -109 783 600 
Q 550 1309 550 2009 
Q 550 2706 781 3412 
Q 1013 4119 1484 4856 
L 1984 4856 
z
" transform="scale(0.015625)"/>
       <path id="DejaVuSans-6d" d="M 3328 2828 
Q 3544 3216 3844 3400 
Q 4144 3584 4550 3584 
Q 5097 3584 5394 3201 
Q 5691 2819 5691 2113 
L 5691 0 
L 5113 0 
L 5113 2094 
Q 5113 2597 4934 2840 
Q 4756 3084 4391 3084 
Q 3944 3084 3684 2787 
Q 3425 2491 3425 1978 
L 3425 0 
L 2847 0 
L 2847 2094 
Q 2847 2600 2669 2842 
Q 2491 3084 2119 3084 
Q 1678 3084 1418 2786 
Q 1159 2488 1159 1978 
L 1159 0 
L 581 0 
L 581 3500 
L 1159 3500 
L 1159 2956 
Q 1356 3278 1631 3431 
Q 1906 3584 2284 3584 
Q 2666 3584 2933 3390 
Q 3200 3197 3328 2828 
z
" transform="scale(0.015625)"/>
       <path id="DejaVuSans-2f" d="M 1625 4666 
L 2156 4666 
L 531 -594 
L 0 -594 
L 1625 4666 
z
" transform="scale(0.015625)"/>
       <path id="DejaVuSans-68" d="M 3513 2113 
L 3513 0 
L 2938 0 
L 2938 2094 
Q 2938 2591 2744 2837 
Q 2550 3084 2163 3084 
Q 1697 3084 1428 2787 
Q 1159 2491 1159 1978 
L 1159 0 
L 581 0 
L 581 4863 
L 1159 4863 
L 1159 2956 
Q 1366 3272 1645 3428 
Q 1925 3584 2291 3584 
Q 2894 3584 3203 3211 
Q 3513 2838 3513 2113 
z
" transform="scale(0.015625)"/>
       <path id="DejaVuSans-6f" d="M 1959 3097 
Q 1497 3097 1228 2736 
Q 959 2375 959 1747 
Q 959 1119 1226 758 
Q 1494 397 1959 397 
Q 2419 397 2687 759 
Q 2956 1122 2956 1747 
Q 2956 2369 2687 2733 
Q 2419 3097 1959 3097 
z
M 1959 3584 
Q 2709 3584 3137 3096 
Q 3566 2609 3566 1747 
Q 3566 888 3137 398 
Q 2709 -91 1959 -91 
Q 1206 -91 779 398 
Q 353 888 353 1747 
Q 353 2609 779 3096 
Q 1206 3584 1959 3584 
z
" transform="scale(0.015625)"/>
       <path id="DejaVuSans-75" d="M 544 1381 
L 544 3500 
L 1119 3500 
L 1119 1403 
Q 1119 906 1312 657 
Q 1506 409 1894 409 
Q 2359 409 2629 706 
Q 2900 1003 2900 1516 
L 2900 3500 
L 3475 3500 
L 3475 0 
L 2900 0 
L 2900 538 
Q 2691 219 2414 64 
Q 2138 -91 1772 -91 
Q 1169 -91 856 284 
Q 544 659 544 1381 
z
M 1991 3584 
L 1991 3584 
z
" transform="scale(0.015625)"/>
       <path id="DejaVuSans-72" d="M 2631 2963 
Q 2534 3019 2420 3045 
Q 2306 3072 2169 3072 
Q 1681 3072 1420 2755 
Q 1159 2438 1159 1844 
L 1159 0 
L 581 0 
L 581 3500 
L 1159 3500 
L 1159 2956 
Q 1341 3275 1631 3429 
Q 1922 3584 2338 3584 
Q 2397 3584 2469 3576 
Q 2541 3569 2628 3553 
L 2631 2963 
z
" transform="scale(0.015625)"/>
       <path id="DejaVuSans-29" d="M 513 4856 
L 1013 4856 
Q 1481 4119 1714 3412 
Q 1947 2706 1947 2009 
Q 1947 1309 1714 600 
Q 1481 -109 1013 -844 
L 513 -844 
Q 928 -128 1133 580 
Q 1338 1288 1338 2009 
Q 1338 2731 1133 3434 
Q 928 4138 513 4856 
z
" transform="scale(0.015625)"/>
      </defs>
      <use xlink:href="#DejaVuSans-Oblique-57" transform="translate(0 0.015625)"/>
      <use xlink:href="#DejaVuSans-20" transform="translate(98.876953 0.015625)"/>
      <use xlink:href="#DejaVuSans-28" transform="translate(130.664062 0.015625)"/>
      <use xlink:href="#DejaVuSans-6d" transform="translate(169.677734 0.015625)"/>
      <use xlink:href="#DejaVuSans-2f" transform="translate(267.089844 0.015625)"/>
      <use xlink:href="#DejaVuSans-68" transform="translate(300.78125 0.015625)"/>
      <use xlink:href="#DejaVuSans-6f" transform="translate(364.160156 0.015625)"/>
      <use xlink:href="#DejaVuSans-75" transform="translate(425.341797 0.015625)"/>
      <use xlink:href="#DejaVuSans-72" transform="translate(488.720703 0.015625)"/>
      <use xlink:href="#DejaVuSans-29" transform="translate(529.833984 0.015625)"/>
     </g>
    </g>
   </g>
   <g id="matplotlib.axis_2">
    <g id="ytick_1">
     <g id="line2d_7">
      <defs>
       <path id="mb1b25ad02e" d="M 0 0 
L -3.5 0 
" style="stroke: #000000; stroke-width: 0.8"/>
      </defs>
      <g>
       <use xlink:href="#mb1b25ad02e" x="47.018" y="285.894431" style="stroke: #000000; stroke-width: 0.8"/>
      </g>
     </g>
     <g id="text_8">
      <!-- 0 -->
      <g transform="translate(33.6555 289.69365) scale(0.1 -0.1)">
       <use xlink:href="#DejaVuSans-30"/>
      </g>
     </g>
    </g>
    <g id="ytick_2">
     <g id="line2d_8">
      <g>
       <use xlink:href="#mb1b25ad02e" x="47.018" y="249.808295" style="stroke: #000000; stroke-width: 0.8"/>
      </g>
     </g>
     <g id="text_9">
      <!-- 5 -->
      <g transform="translate(33.6555 253.607514) scale(0.1 -0.1)">
       <use xlink:href="#DejaVuSans-35"/>
      </g>
     </g>
    </g>
    <g id="ytick_3">
     <g id="line2d_9">
      <g>
       <use xlink:href="#mb1b25ad02e" x="47.018" y="213.722159" style="stroke: #000000; stroke-width: 0.8"/>
      </g>
     </g>
     <g id="text_10">
      <!-- 10 -->
      <g transform="translate(27.293 217.521378) scale(0.1 -0.1)">
       <use xlink:href="#DejaVuSans-31"/>
       <use xlink:href="#DejaVuSans-30" transform="translate(63.623047 0)"/>
      </g>
     </g>
    </g>
    <g id="ytick_4">
     <g id="line2d_10">
      <g>
       <use xlink:href="#mb1b25ad02e" x="47.018" y="177.636023" style="stroke: #000000; stroke-width: 0.8"/>
      </g>
     </g>
     <g id="text_11">
      <!-- 15 -->
      <g transform="translate(27.293 181.435242) scale(0.1 -0.1)">
       <use xlink:href="#DejaVuSans-31"/>
       <use xlink:href="#DejaVuSans-35" transform="translate(63.623047 0)"/>
      </g>
     </g>
    </g>
    <g id="ytick_5">
     <g id="line2d_11">
      <g>
       <use xlink:href="#mb1b25ad02e" x="47.018" y="141.549887" style="stroke: #000000; stroke-width: 0.8"/>
      </g>
     </g>
     <g id="text_12">
      <!-- 20 -->
      <g transform="translate(27.293 145.349106) scale(0.1 -0.1)">
       <use xlink:href="#DejaVuSans-32"/>
       <use xlink:href="#DejaVuSans-30" transform="translate(63.623047 0)"/>
      </g>
     </g>
    </g>
    <g id="ytick_6">
     <g id="line2d_12">
      <g>
       <use xlink:href="#mb1b25ad02e" x="47.018" y="105.463751" style="stroke: #000000; stroke-width: 0.8"/>
      </g>
     </g>
     <g id="text_13">
      <!-- 25 -->
      <g transform="translate(27.293 109.262969) scale(0.1 -0.1)">
       <use xlink:href="#DejaVuSans-32"/>
       <use xlink:href="#DejaVuSans-35" transform="translate(63.623047 0)"/>
      </g>
     </g>
    </g>
    <g id="ytick_7">
     <g id="line2d_13">
      <g>
       <use xlink:href="#mb1b25ad02e" x="47.018" y="69.377615" style="stroke: #000000; stroke-width: 0.8"/>
      </g>
     </g>
     <g id="text_14">
      <!-- 30 -->
      <g transform="translate(27.293 73.176833) scale(0.1 -0.1)">
       <use xlink:href="#DejaVuSans-33"/>
       <use xlink:href="#DejaVuSans-30" transform="translate(63.623047 0)"/>
      </g>
     </g>
    </g>
    <g id="ytick_8">
     <g id="line2d_14">
      <g>
       <use xlink:href="#mb1b25ad02e" x="47.018" y="33.291479" style="stroke: #000000; stroke-width: 0.8"/>
      </g>
     </g>
     <g id="text_15">
      <!-- 35 -->
      <g transform="translate(27.293 37.090697) scale(0.1 -0.1)">
       <use xlink:href="#DejaVuSans-33"/>
       <use xlink:href="#DejaVuSans-35" transform="translate(63.623047 0)"/>
      </g>
     </g>
    </g>
    <g id="text_16">
     <!-- $Q_{lc}$ (kW) -->
     <g transform="translate(21.213312 176.8) rotate(-90) scale(0.1 -0.1)">
      <defs>
       <path id="DejaVuSans-Oblique-51" d="M 2309 -84 
Q 2275 -88 2237 -89 
Q 2200 -91 2125 -91 
Q 1250 -91 756 411 
Q 263 913 263 1797 
Q 263 2319 452 2844 
Q 641 3369 978 3788 
Q 1369 4269 1858 4509 
Q 2347 4750 2938 4750 
Q 3794 4750 4287 4245 
Q 4781 3741 4781 2869 
Q 4781 1928 4265 1147 
Q 3750 366 2919 44 
L 3553 -825 
L 2847 -825 
L 2309 -84 
z
M 2919 4238 
Q 2400 4238 2003 3986 
Q 1606 3734 1313 3219 
Q 1125 2891 1026 2522 
Q 928 2153 928 1778 
Q 928 1128 1239 775 
Q 1550 422 2119 422 
Q 2631 422 3032 676 
Q 3434 931 3719 1434 
Q 3909 1772 4009 2142 
Q 4109 2513 4109 2881 
Q 4109 3528 3796 3883 
Q 3484 4238 2919 4238 
z
" transform="scale(0.015625)"/>
       <path id="DejaVuSans-Oblique-6c" d="M 1172 4863 
L 1747 4863 
L 800 0 
L 225 0 
L 1172 4863 
z
" transform="scale(0.015625)"/>
       <path id="DejaVuSans-Oblique-63" d="M 3431 3366 
L 3316 2797 
Q 3109 2947 2876 3022 
Q 2644 3097 2394 3097 
Q 2119 3097 1870 3000 
Q 1622 2903 1453 2725 
Q 1184 2453 1037 2087 
Q 891 1722 891 1331 
Q 891 859 1127 628 
Q 1363 397 1844 397 
Q 2081 397 2348 469 
Q 2616 541 2906 684 
L 2797 116 
Q 2547 13 2283 -39 
Q 2019 -91 1741 -91 
Q 1044 -91 669 257 
Q 294 606 294 1253 
Q 294 1797 489 2255 
Q 684 2713 1069 3078 
Q 1331 3328 1684 3456 
Q 2038 3584 2456 3584 
Q 2700 3584 2940 3529 
Q 3181 3475 3431 3366 
z
" transform="scale(0.015625)"/>
       <path id="DejaVuSans-6b" d="M 581 4863 
L 1159 4863 
L 1159 1991 
L 2875 3500 
L 3609 3500 
L 1753 1863 
L 3688 0 
L 2938 0 
L 1159 1709 
L 1159 0 
L 581 0 
L 581 4863 
z
" transform="scale(0.015625)"/>
       <path id="DejaVuSans-57" d="M 213 4666 
L 850 4666 
L 1831 722 
L 2809 4666 
L 3519 4666 
L 4500 722 
L 5478 4666 
L 6119 4666 
L 4947 0 
L 4153 0 
L 3169 4050 
L 2175 0 
L 1381 0 
L 213 4666 
z
" transform="scale(0.015625)"/>
      </defs>
      <use xlink:href="#DejaVuSans-Oblique-51" transform="translate(0 0.015625)"/>
      <use xlink:href="#DejaVuSans-Oblique-6c" transform="translate(78.710938 -16.390625) scale(0.7)"/>
      <use xlink:href="#DejaVuSans-Oblique-63" transform="translate(98.15918 -16.390625) scale(0.7)"/>
      <use xlink:href="#DejaVuSans-20" transform="translate(139.379883 0.015625)"/>
      <use xlink:href="#DejaVuSans-28" transform="translate(171.166992 0.015625)"/>
      <use xlink:href="#DejaVuSans-6b" transform="translate(210.180664 0.015625)"/>
      <use xlink:href="#DejaVuSans-57" transform="translate(268.09082 0.015625)"/>
      <use xlink:href="#DejaVuSans-29" transform="translate(366.967773 0.015625)"/>
     </g>
    </g>
   </g>
   <g id="line2d_15">
    <path d="M 65.335364 211.421939 
L 72.811839 200.772385 
L 80.288314 199.934319 
L 87.764788 199.297793 
L 95.241263 198.819271 
L 102.717738 198.46575 
L 110.194213 198.20746 
L 117.670688 198.019626 
L 125.147163 197.883748 
L 132.623638 197.781321 
L 140.100113 197.708851 
L 147.576588 197.656863 
L 155.053063 197.620666 
L 162.529538 197.597174 
L 170.006013 197.584284 
L 177.482488 197.580012 
L 184.958963 197.582906 
L 192.435438 197.591676 
L 199.911913 197.605255 
L 207.388388 197.62262 
L 214.864863 197.642873 
L 222.341338 197.66527 
L 229.817813 197.689105 
L 237.294288 197.713775 
L 244.770763 197.738776 
L 252.247237 197.763713 
L 259.723712 197.788251 
L 267.200187 197.812131 
L 274.676662 197.835175 
L 282.153137 197.857271 
L 289.629612 197.878369 
L 297.106087 197.898464 
L 304.582562 197.917585 
L 312.059037 197.935782 
L 319.535512 197.953114 
L 327.011987 197.969645 
L 334.488462 197.985433 
L 341.964937 198.000534 
L 349.441412 198.014993 
L 356.917887 198.028849 
L 364.394362 198.042128 
L 371.870837 198.054846 
L 379.347312 198.067008 
L 386.823787 198.078605 
L 394.300262 198.089616 
L 401.776737 198.100005 
L 409.253212 198.109722 
L 416.729686 198.118703 
L 424.206161 198.12687 
L 431.682636 198.134136 
" clip-path="url(#p7b39b3c969)" style="fill: none; stroke: #1f77b4; stroke-width: 1.5; stroke-linecap: square"/>
   </g>
   <g id="line2d_16">
    <path d="M 65.335364 255.793492 
L 72.811839 249.312572 
L 80.288314 243.456105 
L 87.764788 238.068292 
L 95.241263 233.295295 
L 102.717738 229.051617 
L 110.194213 225.276442 
L 117.670688 221.906532 
L 125.147163 218.793765 
L 132.623638 215.922398 
L 140.100113 213.281038 
L 147.576588 210.840131 
L 155.053063 208.572382 
L 162.529538 206.423824 
L 170.006013 204.384307 
L 177.482488 202.437302 
L 184.958963 200.570255 
L 192.435438 199.536128 
L 199.911913 199.288825 
L 207.388388 199.096799 
L 214.864863 198.947956 
L 222.341338 198.834077 
L 229.817813 198.748264 
L 237.294288 198.683693 
L 244.770763 198.636065 
L 252.247237 198.600706 
L 259.723712 198.574612 
L 267.200187 198.554889 
L 274.676662 198.539413 
L 282.153137 198.526773 
L 289.629612 198.515663 
L 297.106087 198.505353 
L 304.582562 198.495332 
L 312.059037 198.485067 
L 319.535512 198.47458 
L 327.011987 198.463762 
L 334.488462 198.452774 
L 341.964937 198.44189 
L 349.441412 198.431314 
L 356.917887 198.421408 
L 364.394362 198.412455 
L 371.870837 198.404887 
L 379.347312 198.399137 
L 386.823787 198.395686 
L 394.300262 198.395076 
L 401.776737 198.397927 
L 409.253212 198.404959 
L 416.729686 198.417019 
L 424.206161 198.435097 
L 431.682636 198.460344 
" clip-path="url(#p7b39b3c969)" style="fill: none; stroke: #ff7f0e; stroke-width: 1.5; stroke-linecap: square"/>
   </g>
   <g id="line2d_17">
    <path d="M 65.335364 275.332379 
L 72.811839 272.569381 
L 80.288314 270.09171 
L 87.764788 267.879242 
L 95.241263 265.912668 
L 102.717738 264.298247 
L 110.194213 263.680288 
L 117.670688 263.169194 
L 125.147163 262.7483 
L 132.623638 262.402609 
L 140.100113 262.118821 
L 147.576588 261.885312 
L 155.053063 261.692071 
L 162.529538 261.530596 
L 170.006013 261.393766 
L 177.482488 261.27571 
L 184.958963 261.111739 
L 192.435438 260.970884 
L 199.911913 260.45952 
L 207.388388 259.943641 
L 214.864863 259.441501 
L 222.341338 258.935363 
L 229.817813 258.432012 
L 237.294288 257.940153 
L 244.770763 257.459317 
L 252.247237 256.989107 
L 259.723712 256.529176 
L 267.200187 256.079203 
L 274.676662 255.638881 
L 282.153137 255.207908 
L 289.629612 254.785981 
L 297.106087 254.372794 
L 304.582562 253.968038 
L 312.059037 253.571399 
L 319.535512 253.182552 
L 327.011987 252.801157 
L 334.488462 252.426846 
L 341.964937 252.059214 
L 349.441412 251.697804 
L 356.917887 251.342089 
L 364.394362 250.991457 
L 371.870837 250.645191 
L 379.347312 250.302453 
L 386.823787 249.962268 
L 394.300262 249.623522 
L 401.776737 249.284955 
L 409.253212 248.94518 
L 416.729686 248.602699 
L 424.206161 248.255942 
L 431.682636 247.903298 
" clip-path="url(#p7b39b3c969)" style="fill: none; stroke: #2ca02c; stroke-width: 1.5; stroke-linecap: square"/>
   </g>
   <g id="line2d_18">
    <path d="M 65.335364 282.906408 
L 72.811839 282.032433 
L 80.288314 281.320548 
L 87.764788 280.753668 
L 95.241263 280.309654 
L 102.717738 279.972155 
L 110.194213 279.723779 
L 117.670688 279.548622 
L 125.147163 279.433627 
L 132.623638 279.39478 
L 140.100113 279.35934 
L 147.576588 279.347055 
L 155.053063 279.349472 
L 162.529538 279.35969 
L 170.006013 279.372274 
L 177.482488 279.383129 
L 184.958963 279.389375 
L 192.435438 279.389204 
L 199.911913 279.381733 
L 207.388388 279.36687 
L 214.864863 279.345517 
L 222.341338 279.318648 
L 229.817813 279.287574 
L 237.294288 279.2541 
L 244.770763 279.22024 
L 252.247237 279.188129 
L 259.723712 279.159946 
L 267.200187 279.137852 
L 274.676662 279.123924 
L 282.153137 279.120112 
L 289.629612 279.128199 
L 297.106087 279.149761 
L 304.582562 279.185603 
L 312.059037 279.236394 
L 319.535512 279.303942 
L 327.011987 279.388796 
L 334.488462 279.477763 
L 341.964937 279.584194 
L 349.441412 279.717948 
L 356.917887 279.869475 
L 364.394362 280.035541 
L 371.870837 280.212118 
L 379.347312 280.39907 
L 386.823787 280.601682 
L 394.300262 280.815201 
L 401.776737 281.036517 
L 409.253212 281.262305 
L 416.729686 281.489696 
L 424.206161 281.713204 
L 431.682636 281.935904 
" clip-path="url(#p7b39b3c969)" style="fill: none; stroke: #d62728; stroke-width: 1.5; stroke-linecap: square"/>
   </g>
   <g id="patch_3">
    <path d="M 47.018 302.2 
L 47.018 10.8 
" style="fill: none; stroke: #000000; stroke-width: 0.8; stroke-linejoin: miter; stroke-linecap: square"/>
   </g>
   <g id="patch_4">
    <path d="M 450 302.2 
L 450 10.8 
" style="fill: none; stroke: #000000; stroke-width: 0.8; stroke-linejoin: miter; stroke-linecap: square"/>
   </g>
   <g id="patch_5">
    <path d="M 47.018 302.2 
L 450 302.2 
" style="fill: none; stroke: #000000; stroke-width: 0.8; stroke-linejoin: miter; stroke-linecap: square"/>
   </g>
   <g id="patch_6">
    <path d="M 47.018 10.8 
L 450 10.8 
" style="fill: none; stroke: #000000; stroke-width: 0.8; stroke-linejoin: miter; stroke-linecap: square"/>
   </g>
   <g id="legend_1">
    <g id="patch_7">
     <path d="M 54.018 77.5125 
L 132.888313 77.5125 
Q 134.888313 77.5125 134.888313 75.5125 
L 134.888313 17.8 
Q 134.888313 15.8 132.888313 15.8 
L 54.018 15.8 
Q 52.018 15.8 52.018 17.8 
L 52.018 75.5125 
Q 52.018 77.5125 54.018 77.5125 
z
" style="fill: #ffffff; opacity: 0.8; stroke: #cccccc; stroke-linejoin: miter"/>
    </g>
    <g id="line2d_19">
     <path d="M 56.018 23.898438 
L 66.018 23.898438 
L 76.018 23.898438 
" style="fill: none; stroke: #1f77b4; stroke-width: 1.5; stroke-linecap: square"/>
    </g>
    <g id="text_17">
     <!-- Ts=100 K -->
     <g transform="translate(84.018 27.398438) scale(0.1 -0.1)">
      <defs>
       <path id="DejaVuSans-54" d="M -19 4666 
L 3928 4666 
L 3928 4134 
L 2272 4134 
L 2272 0 
L 1638 0 
L 1638 4134 
L -19 4134 
L -19 4666 
z
" transform="scale(0.015625)"/>
       <path id="DejaVuSans-73" d="M 2834 3397 
L 2834 2853 
Q 2591 2978 2328 3040 
Q 2066 3103 1784 3103 
Q 1356 3103 1142 2972 
Q 928 2841 928 2578 
Q 928 2378 1081 2264 
Q 1234 2150 1697 2047 
L 1894 2003 
Q 2506 1872 2764 1633 
Q 3022 1394 3022 966 
Q 3022 478 2636 193 
Q 2250 -91 1575 -91 
Q 1294 -91 989 -36 
Q 684 19 347 128 
L 347 722 
Q 666 556 975 473 
Q 1284 391 1588 391 
Q 1994 391 2212 530 
Q 2431 669 2431 922 
Q 2431 1156 2273 1281 
Q 2116 1406 1581 1522 
L 1381 1569 
Q 847 1681 609 1914 
Q 372 2147 372 2553 
Q 372 3047 722 3315 
Q 1072 3584 1716 3584 
Q 2034 3584 2315 3537 
Q 2597 3491 2834 3397 
z
" transform="scale(0.015625)"/>
       <path id="DejaVuSans-3d" d="M 678 2906 
L 4684 2906 
L 4684 2381 
L 678 2381 
L 678 2906 
z
M 678 1631 
L 4684 1631 
L 4684 1100 
L 678 1100 
L 678 1631 
z
" transform="scale(0.015625)"/>
       <path id="DejaVuSans-4b" d="M 628 4666 
L 1259 4666 
L 1259 2694 
L 3353 4666 
L 4166 4666 
L 1850 2491 
L 4331 0 
L 3500 0 
L 1259 2247 
L 1259 0 
L 628 0 
L 628 4666 
z
" transform="scale(0.015625)"/>
      </defs>
      <use xlink:href="#DejaVuSans-54"/>
      <use xlink:href="#DejaVuSans-73" transform="translate(44.583984 0)"/>
      <use xlink:href="#DejaVuSans-3d" transform="translate(96.683594 0)"/>
      <use xlink:href="#DejaVuSans-31" transform="translate(180.472656 0)"/>
      <use xlink:href="#DejaVuSans-30" transform="translate(244.095703 0)"/>
      <use xlink:href="#DejaVuSans-30" transform="translate(307.71875 0)"/>
      <use xlink:href="#DejaVuSans-20" transform="translate(371.341797 0)"/>
      <use xlink:href="#DejaVuSans-4b" transform="translate(403.128906 0)"/>
     </g>
    </g>
    <g id="line2d_20">
     <path d="M 56.018 38.576563 
L 66.018 38.576563 
L 76.018 38.576563 
" style="fill: none; stroke: #ff7f0e; stroke-width: 1.5; stroke-linecap: square"/>
    </g>
    <g id="text_18">
     <!-- Ts=160 K -->
     <g transform="translate(84.018 42.076563) scale(0.1 -0.1)">
      <defs>
       <path id="DejaVuSans-36" d="M 2113 2584 
Q 1688 2584 1439 2293 
Q 1191 2003 1191 1497 
Q 1191 994 1439 701 
Q 1688 409 2113 409 
Q 2538 409 2786 701 
Q 3034 994 3034 1497 
Q 3034 2003 2786 2293 
Q 2538 2584 2113 2584 
z
M 3366 4563 
L 3366 3988 
Q 3128 4100 2886 4159 
Q 2644 4219 2406 4219 
Q 1781 4219 1451 3797 
Q 1122 3375 1075 2522 
Q 1259 2794 1537 2939 
Q 1816 3084 2150 3084 
Q 2853 3084 3261 2657 
Q 3669 2231 3669 1497 
Q 3669 778 3244 343 
Q 2819 -91 2113 -91 
Q 1303 -91 875 529 
Q 447 1150 447 2328 
Q 447 3434 972 4092 
Q 1497 4750 2381 4750 
Q 2619 4750 2861 4703 
Q 3103 4656 3366 4563 
z
" transform="scale(0.015625)"/>
      </defs>
      <use xlink:href="#DejaVuSans-54"/>
      <use xlink:href="#DejaVuSans-73" transform="translate(44.583984 0)"/>
      <use xlink:href="#DejaVuSans-3d" transform="translate(96.683594 0)"/>
      <use xlink:href="#DejaVuSans-31" transform="translate(180.472656 0)"/>
      <use xlink:href="#DejaVuSans-36" transform="translate(244.095703 0)"/>
      <use xlink:href="#DejaVuSans-30" transform="translate(307.71875 0)"/>
      <use xlink:href="#DejaVuSans-20" transform="translate(371.341797 0)"/>
      <use xlink:href="#DejaVuSans-4b" transform="translate(403.128906 0)"/>
     </g>
    </g>
    <g id="line2d_21">
     <path d="M 56.018 53.254687 
L 66.018 53.254687 
L 76.018 53.254687 
" style="fill: none; stroke: #2ca02c; stroke-width: 1.5; stroke-linecap: square"/>
    </g>
    <g id="text_19">
     <!-- Ts=220 K -->
     <g transform="translate(84.018 56.754687) scale(0.1 -0.1)">
      <use xlink:href="#DejaVuSans-54"/>
      <use xlink:href="#DejaVuSans-73" transform="translate(44.583984 0)"/>
      <use xlink:href="#DejaVuSans-3d" transform="translate(96.683594 0)"/>
      <use xlink:href="#DejaVuSans-32" transform="translate(180.472656 0)"/>
      <use xlink:href="#DejaVuSans-32" transform="translate(244.095703 0)"/>
      <use xlink:href="#DejaVuSans-30" transform="translate(307.71875 0)"/>
      <use xlink:href="#DejaVuSans-20" transform="translate(371.341797 0)"/>
      <use xlink:href="#DejaVuSans-4b" transform="translate(403.128906 0)"/>
     </g>
    </g>
    <g id="line2d_22">
     <path d="M 56.018 67.932813 
L 66.018 67.932813 
L 76.018 67.932813 
" style="fill: none; stroke: #d62728; stroke-width: 1.5; stroke-linecap: square"/>
    </g>
    <g id="text_20">
     <!-- Ts=260 K -->
     <g transform="translate(84.018 71.432813) scale(0.1 -0.1)">
      <use xlink:href="#DejaVuSans-54"/>
      <use xlink:href="#DejaVuSans-73" transform="translate(44.583984 0)"/>
      <use xlink:href="#DejaVuSans-3d" transform="translate(96.683594 0)"/>
      <use xlink:href="#DejaVuSans-32" transform="translate(180.472656 0)"/>
      <use xlink:href="#DejaVuSans-36" transform="translate(244.095703 0)"/>
      <use xlink:href="#DejaVuSans-30" transform="translate(307.71875 0)"/>
      <use xlink:href="#DejaVuSans-20" transform="translate(371.341797 0)"/>
      <use xlink:href="#DejaVuSans-4b" transform="translate(403.128906 0)"/>
     </g>
    </g>
   </g>
  </g>
 </g>
 <defs>
  <clipPath id="p7b39b3c969">
   <rect x="47.018" y="10.8" width="402.982" height="291.4"/>
  </clipPath>
 </defs>
</svg>
