<?xml version="1.0" encoding="utf-8" standalone="no"?>
<!DOCTYPE svg PUBLIC "-//W3C//DTD SVG 1.1//EN"
  "http://www.w3.org/Graphics/SVG/1.1/DTD/svg11.dtd">
<svg xmlns:xlink="http://www.w3.org/1999/xlink" width="460.8pt" height="345.6pt" viewBox="0 0 460.8 345.6" xmlns="http://www.w3.org/2000/svg" version="1.1">
 <metadata>
  <rdf:RDF xmlns:dc="http://purl.org/dc/elements/1.1/" xmlns:cc="http://creativecommons.org/ns#" xmlns:rdf="http://www.w3.org/1999/02/22-rdf-syntax-ns#">
   <cc:Work>
    <dc:type rdf:resource="http://purl.org/dc/dcmitype/StillImage"/>
    <dc:date>2026-02-12T05:18:56.899648</dc:date>
    <dc:format>image/svg+xml</dc:format>
    <dc:creator>
     <cc:Agent>
      <dc:title>Matplotlib v3.10.8, https://matplotlib.org/</dc:title>
     </cc:Agent>
    </dc:creator>
   </cc:Work>
  </rdf:RDF>
 </metadata>
 <defs>
  <style type="text/css">*{stroke-linejoin: round; stroke-linecap: butt}</style>
 </defs>
 <g id="figure_1">
  <g id="patch_1">
   <path d="M 0 345.6 
L 460.8 345.6 
L 460.8 0 
L 0 0 
L 0 345.6 
z
" style="fill: none"/>
  </g>
  <g id="axes_1">
   <g id="patch_2">
    <path d="M 47.018 302.2 
L 450 302.2 
L 450 11.064766 
L 47.018 11.064766 
L 47.018 302.2 
z
" style="fill: none"/>
   </g>
   <g id="FillBetweenPolyCollection_1">
    <path d="M 65.335364 181.90616 
L 65.335364 248.941735 
L 72.811839 248.363295 
L 80.288314 241.383391 
L 87.764788 240.529261 
L 95.241263 238.787795 
L 102.717738 235.793694 
L 110.194213 234.440682 
L 117.670688 232.317484 
L 125.147163 232.293829 
L 132.623638 231.700032 
L 140.100113 230.303083 
L 147.576588 228.468791 
L 155.053063 226.640449 
L 162.529538 227.537284 
L 170.006013 225.785273 
L 177.482488 223.55827 
L 184.958963 226.4037 
L 192.435438 223.313602 
L 199.911913 222.891109 
L 207.388388 220.800401 
L 214.864863 222.340409 
L 222.341338 221.274701 
L 229.817813 219.73089 
L 237.294288 220.842465 
L 244.770763 221.479432 
L 252.247237 220.436399 
L 259.723712 220.167576 
L 267.200187 220.355447 
L 274.676662 221.143363 
L 282.153137 220.847467 
L 289.629612 220.112914 
L 297.106087 220.025787 
L 304.582562 219.417845 
L 312.059037 220.406086 
L 319.535512 220.970027 
L 327.011987 219.818293 
L 334.488462 220.944316 
L 341.964937 219.683119 
L 349.441412 219.297513 
L 356.917887 220.389345 
L 364.394362 217.752827 
L 371.870837 219.462042 
L 379.347312 219.996476 
L 386.823787 219.824753 
L 394.300262 220.587243 
L 401.776737 219.969018 
L 409.253212 218.152151 
L 416.729686 218.133558 
L 424.206161 220.485652 
L 431.682636 219.674749 
L 431.682636 24.298186 
L 431.682636 24.298186 
L 424.206161 26.648248 
L 416.729686 29.038047 
L 409.253212 30.553423 
L 401.776737 31.169785 
L 394.300262 34.688137 
L 386.823787 34.952512 
L 379.347312 35.731008 
L 371.870837 38.094917 
L 364.394362 39.471845 
L 356.917887 43.164476 
L 349.441412 44.148794 
L 341.964937 45.635757 
L 334.488462 49.191381 
L 327.011987 49.918415 
L 319.535512 53.288317 
L 312.059037 53.364162 
L 304.582562 57.195501 
L 297.106087 57.027264 
L 289.629612 60.882608 
L 282.153137 63.109185 
L 274.676662 64.748791 
L 267.200187 65.925047 
L 259.723712 69.488275 
L 252.247237 70.901375 
L 244.770763 74.312353 
L 237.294288 76.579473 
L 229.817813 78.418475 
L 222.341338 81.996545 
L 214.864863 84.279238 
L 207.388388 87.188637 
L 199.911913 88.925345 
L 192.435438 91.482598 
L 184.958963 95.98505 
L 177.482488 98.538058 
L 170.006013 101.964412 
L 162.529538 104.542884 
L 155.053063 108.551405 
L 147.576588 112.173486 
L 140.100113 114.599965 
L 132.623638 118.576884 
L 125.147163 122.632628 
L 117.670688 124.33143 
L 110.194213 130.496063 
L 102.717738 138.595331 
L 95.241263 144.960645 
L 87.764788 153.975919 
L 80.288314 161.402976 
L 72.811839 172.386432 
L 65.335364 181.90616 
z
" clip-path="url(#p6d6cbb9ce1)" style="fill: #1f77b4; fill-opacity: 0.45"/>
   </g>
   <g id="FillBetweenPolyCollection_2">
    <path d="M 65.335364 199.795794 
L 65.335364 265.931481 
L 72.811839 261.761895 
L 80.288314 258.979476 
L 87.764788 258.195412 
L 95.241263 256.576003 
L 102.717738 254.588685 
L 110.194213 251.89419 
L 117.670688 253.733461 
L 125.147163 254.555462 
L 132.623638 252.827023 
L 140.100113 251.309619 
L 147.576588 250.862141 
L 155.053063 249.383879 
L 162.529538 249.991514 
L 170.006013 249.114234 
L 177.482488 249.865993 
L 184.958963 245.397988 
L 192.435438 248.161417 
L 199.911913 247.976288 
L 207.388388 246.851529 
L 214.864863 247.72887 
L 222.341338 244.525219 
L 229.817813 244.293446 
L 237.294288 244.092458 
L 244.770763 244.088025 
L 252.247237 244.128463 
L 259.723712 243.469953 
L 267.200187 242.882585 
L 274.676662 244.013638 
L 282.153137 241.625348 
L 289.629612 241.532433 
L 297.106087 239.811192 
L 304.582562 239.606528 
L 312.059037 239.769417 
L 319.535512 240.220977 
L 327.011987 241.90364 
L 334.488462 240.942441 
L 341.964937 241.40416 
L 349.441412 239.416556 
L 356.917887 239.977658 
L 364.394362 240.573361 
L 371.870837 240.227815 
L 379.347312 238.85331 
L 386.823787 239.673095 
L 394.300262 236.507522 
L 401.776737 236.895354 
L 409.253212 236.656727 
L 416.729686 237.019332 
L 424.206161 236.376375 
L 431.682636 239.122425 
L 431.682636 149.766929 
L 431.682636 149.766929 
L 424.206161 149.573033 
L 416.729686 151.143525 
L 409.253212 152.661045 
L 401.776737 151.556314 
L 394.300262 152.186242 
L 386.823787 153.83865 
L 379.347312 156.264456 
L 371.870837 155.674422 
L 364.394362 156.405349 
L 356.917887 158.418221 
L 349.441412 158.193222 
L 341.964937 160.200231 
L 334.488462 159.972419 
L 327.011987 161.797917 
L 319.535512 162.484295 
L 312.059037 164.980457 
L 304.582562 165.137921 
L 297.106087 165.367217 
L 289.629612 166.096392 
L 282.153137 167.300439 
L 274.676662 168.093628 
L 267.200187 169.777409 
L 259.723712 171.090497 
L 252.247237 170.68444 
L 244.770763 173.615837 
L 237.294288 172.493046 
L 229.817813 174.704841 
L 222.341338 177.52216 
L 214.864863 177.700957 
L 207.388388 177.991559 
L 199.911913 179.208626 
L 192.435438 177.996578 
L 184.958963 180.979537 
L 177.482488 181.74207 
L 170.006013 183.334495 
L 162.529538 183.147752 
L 155.053063 181.148447 
L 147.576588 180.948145 
L 140.100113 183.303046 
L 132.623638 183.895047 
L 125.147163 182.301654 
L 117.670688 183.974813 
L 110.194213 186.495453 
L 102.717738 188.045322 
L 95.241263 189.864814 
L 87.764788 190.295703 
L 80.288314 191.252859 
L 72.811839 196.571167 
L 65.335364 199.795794 
z
" clip-path="url(#p6d6cbb9ce1)" style="fill: #ff7f0e; fill-opacity: 0.45"/>
   </g>
   <g id="FillBetweenPolyCollection_3">
    <path d="M 65.335364 228.600723 
L 65.335364 276.226574 
L 72.811839 274.708157 
L 80.288314 273.731851 
L 87.764788 271.85725 
L 95.241263 273.344488 
L 102.717738 272.193194 
L 110.194213 272.383354 
L 117.670688 272.651143 
L 125.147163 271.228523 
L 132.623638 270.515969 
L 140.100113 268.972556 
L 147.576588 270.928037 
L 155.053063 270.576514 
L 162.529538 269.289584 
L 170.006013 270.035591 
L 177.482488 267.517179 
L 184.958963 268.848101 
L 192.435438 267.97096 
L 199.911913 266.79417 
L 207.388388 269.845303 
L 214.864863 267.824075 
L 222.341338 269.059648 
L 229.817813 266.504385 
L 237.294288 266.976786 
L 244.770763 267.303208 
L 252.247237 266.39272 
L 259.723712 267.250487 
L 267.200187 265.642839 
L 274.676662 265.425919 
L 282.153137 264.179119 
L 289.629612 266.264587 
L 297.106087 265.591559 
L 304.582562 266.199609 
L 312.059037 265.733948 
L 319.535512 268.470977 
L 327.011987 265.049004 
L 334.488462 265.448933 
L 341.964937 265.158283 
L 349.441412 265.055991 
L 356.917887 261.823041 
L 364.394362 263.766244 
L 371.870837 264.62674 
L 379.347312 266.091139 
L 386.823787 265.092488 
L 394.300262 265.716224 
L 401.776737 265.558681 
L 409.253212 262.185652 
L 416.729686 263.312481 
L 424.206161 266.265936 
L 431.682636 264.097279 
L 431.682636 212.716805 
L 431.682636 212.716805 
L 424.206161 215.905488 
L 416.729686 213.854434 
L 409.253212 214.594534 
L 401.776737 213.715077 
L 394.300262 215.458694 
L 386.823787 215.846418 
L 379.347312 214.825048 
L 371.870837 215.663488 
L 364.394362 215.782417 
L 356.917887 215.223213 
L 349.441412 216.366099 
L 341.964937 214.626867 
L 334.488462 214.720123 
L 327.011987 215.19859 
L 319.535512 217.611103 
L 312.059037 217.709872 
L 304.582562 218.145954 
L 297.106087 217.336401 
L 289.629612 216.706548 
L 282.153137 219.932237 
L 274.676662 217.661056 
L 267.200187 218.873352 
L 259.723712 217.698025 
L 252.247237 218.891847 
L 244.770763 220.34447 
L 237.294288 218.253257 
L 229.817813 218.538009 
L 222.341338 219.494436 
L 214.864863 222.034098 
L 207.388388 220.187297 
L 199.911913 219.556253 
L 192.435438 221.247924 
L 184.958963 220.928912 
L 177.482488 223.076923 
L 170.006013 224.250153 
L 162.529538 221.57241 
L 155.053063 221.667623 
L 147.576588 221.861142 
L 140.100113 223.584862 
L 132.623638 225.655573 
L 125.147163 224.211585 
L 117.670688 226.928797 
L 110.194213 225.992813 
L 102.717738 227.850068 
L 95.241263 228.599607 
L 87.764788 223.469122 
L 80.288314 228.586833 
L 72.811839 229.148466 
L 65.335364 228.600723 
z
" clip-path="url(#p6d6cbb9ce1)" style="fill: #2ca02c; fill-opacity: 0.45"/>
   </g>
   <g id="FillBetweenPolyCollection_4">
    <path d="M 65.335364 234.760175 
L 65.335364 288.250818 
L 72.811839 288.96658 
L 80.288314 285.097351 
L 87.764788 283.8203 
L 95.241263 284.489831 
L 102.717738 286.776006 
L 110.194213 282.856803 
L 117.670688 281.421804 
L 125.147163 281.171183 
L 132.623638 279.257001 
L 140.100113 281.117603 
L 147.576588 280.794436 
L 155.053063 279.931364 
L 162.529538 278.712368 
L 170.006013 279.093584 
L 177.482488 278.558109 
L 184.958963 278.223959 
L 192.435438 281.195007 
L 199.911913 276.92092 
L 207.388388 278.330092 
L 214.864863 277.804741 
L 222.341338 276.409781 
L 229.817813 278.812818 
L 237.294288 277.958956 
L 244.770763 277.709522 
L 252.247237 278.233604 
L 259.723712 277.669612 
L 267.200187 278.365664 
L 274.676662 276.894829 
L 282.153137 279.260163 
L 289.629612 277.184473 
L 297.106087 276.127984 
L 304.582562 276.940115 
L 312.059037 277.364374 
L 319.535512 278.248005 
L 327.011987 277.801592 
L 334.488462 275.762834 
L 341.964937 277.889647 
L 349.441412 274.874392 
L 356.917887 277.084294 
L 364.394362 275.365416 
L 371.870837 278.793381 
L 379.347312 273.779204 
L 386.823787 273.417276 
L 394.300262 275.911702 
L 401.776737 276.455571 
L 409.253212 273.904318 
L 416.729686 274.41804 
L 424.206161 274.831912 
L 431.682636 275.284166 
L 431.682636 199.520569 
L 431.682636 199.520569 
L 424.206161 196.805278 
L 416.729686 198.311902 
L 409.253212 196.897066 
L 401.776737 196.557675 
L 394.300262 192.750542 
L 386.823787 189.810446 
L 379.347312 190.862167 
L 371.870837 191.30817 
L 364.394362 192.843972 
L 356.917887 190.379186 
L 349.441412 190.675782 
L 341.964937 187.846214 
L 334.488462 190.221509 
L 327.011987 191.598965 
L 319.535512 194.310416 
L 312.059037 193.158531 
L 304.582562 194.303354 
L 297.106087 194.624694 
L 289.629612 197.407066 
L 282.153137 200.555696 
L 274.676662 199.380451 
L 267.200187 204.705982 
L 259.723712 203.746574 
L 252.247237 206.318302 
L 244.770763 209.01431 
L 237.294288 211.065704 
L 229.817813 214.028913 
L 222.341338 213.174993 
L 214.864863 216.712631 
L 207.388388 221.958962 
L 199.911913 223.697477 
L 192.435438 225.328622 
L 184.958963 225.877358 
L 177.482488 228.982275 
L 170.006013 227.989501 
L 162.529538 233.144052 
L 155.053063 232.459303 
L 147.576588 232.183583 
L 140.100113 231.93432 
L 132.623638 232.95147 
L 125.147163 234.130707 
L 117.670688 237.532672 
L 110.194213 233.422717 
L 102.717738 235.02947 
L 95.241263 235.036116 
L 87.764788 234.480323 
L 80.288314 236.028141 
L 72.811839 236.412254 
L 65.335364 234.760175 
z
" clip-path="url(#p6d6cbb9ce1)" style="fill: #d62728; fill-opacity: 0.45"/>
   </g>
   <g id="matplotlib.axis_1">
    <g id="xtick_1">
     <g id="line2d_1">
      <defs>
       <path id="ma1a7ba3cf2" d="M 0 0 
L 0 3.5 
" style="stroke: #000000; stroke-width: 0.8"/>
      </defs>
      <g>
       <use xlink:href="#ma1a7ba3cf2" x="61.634886" y="302.2" style="stroke: #000000; stroke-width: 0.8"/>
      </g>
     </g>
     <g id="text_1">
      <!-- 0 -->
      <g transform="translate(58.453636 316.798437) scale(0.1 -0.1)">
       <defs>
        <path id="DejaVuSans-30" d="M 2034 4250 
Q 1547 4250 1301 3770 
Q 1056 3291 1056 2328 
Q 1056 1369 1301 889 
Q 1547 409 2034 409 
Q 2525 409 2770 889 
Q 3016 1369 3016 2328 
Q 3016 3291 2770 3770 
Q 2525 4250 2034 4250 
z
M 2034 4750 
Q 2819 4750 3233 4129 
Q 3647 3509 3647 2328 
Q 3647 1150 3233 529 
Q 2819 -91 2034 -91 
Q 1250 -91 836 529 
Q 422 1150 422 2328 
Q 422 3509 836 4129 
Q 1250 4750 2034 4750 
z
" transform="scale(0.015625)"/>
       </defs>
       <use xlink:href="#DejaVuSans-30"/>
      </g>
     </g>
    </g>
    <g id="xtick_2">
     <g id="line2d_2">
      <g>
       <use xlink:href="#ma1a7ba3cf2" x="135.644436" y="302.2" style="stroke: #000000; stroke-width: 0.8"/>
      </g>
     </g>
     <g id="text_2">
      <!-- 1 -->
      <g transform="translate(132.463186 316.798437) scale(0.1 -0.1)">
       <defs>
        <path id="DejaVuSans-31" d="M 794 531 
L 1825 531 
L 1825 4091 
L 703 3866 
L 703 4441 
L 1819 4666 
L 2450 4666 
L 2450 531 
L 3481 531 
L 3481 0 
L 794 0 
L 794 531 
z
" transform="scale(0.015625)"/>
       </defs>
       <use xlink:href="#DejaVuSans-31"/>
      </g>
     </g>
    </g>
    <g id="xtick_3">
     <g id="line2d_3">
      <g>
       <use xlink:href="#ma1a7ba3cf2" x="209.653986" y="302.2" style="stroke: #000000; stroke-width: 0.8"/>
      </g>
     </g>
     <g id="text_3">
      <!-- 2 -->
      <g transform="translate(206.472736 316.798437) scale(0.1 -0.1)">
       <defs>
        <path id="DejaVuSans-32" d="M 1228 531 
L 3431 531 
L 3431 0 
L 469 0 
L 469 531 
Q 828 903 1448 1529 
Q 2069 2156 2228 2338 
Q 2531 2678 2651 2914 
Q 2772 3150 2772 3378 
Q 2772 3750 2511 3984 
Q 2250 4219 1831 4219 
Q 1534 4219 1204 4116 
Q 875 4013 500 3803 
L 500 4441 
Q 881 4594 1212 4672 
Q 1544 4750 1819 4750 
Q 2544 4750 2975 4387 
Q 3406 4025 3406 3419 
Q 3406 3131 3298 2873 
Q 3191 2616 2906 2266 
Q 2828 2175 2409 1742 
Q 1991 1309 1228 531 
z
" transform="scale(0.015625)"/>
       </defs>
       <use xlink:href="#DejaVuSans-32"/>
      </g>
     </g>
    </g>
    <g id="xtick_4">
     <g id="line2d_4">
      <g>
       <use xlink:href="#ma1a7ba3cf2" x="283.663536" y="302.2" style="stroke: #000000; stroke-width: 0.8"/>
      </g>
     </g>
     <g id="text_4">
      <!-- 3 -->
      <g transform="translate(280.482286 316.798437) scale(0.1 -0.1)">
       <defs>
        <path id="DejaVuSans-33" d="M 2597 2516 
Q 3050 2419 3304 2112 
Q 3559 1806 3559 1356 
Q 3559 666 3084 287 
Q 2609 -91 1734 -91 
Q 1441 -91 1130 -33 
Q 819 25 488 141 
L 488 750 
Q 750 597 1062 519 
Q 1375 441 1716 441 
Q 2309 441 2620 675 
Q 2931 909 2931 1356 
Q 2931 1769 2642 2001 
Q 2353 2234 1838 2234 
L 1294 2234 
L 1294 2753 
L 1863 2753 
Q 2328 2753 2575 2939 
Q 2822 3125 2822 3475 
Q 2822 3834 2567 4026 
Q 2313 4219 1838 4219 
Q 1578 4219 1281 4162 
Q 984 4106 628 3988 
L 628 4550 
Q 988 4650 1302 4700 
Q 1616 4750 1894 4750 
Q 2613 4750 3031 4423 
Q 3450 4097 3450 3541 
Q 3450 3153 3228 2886 
Q 3006 2619 2597 2516 
z
" transform="scale(0.015625)"/>
       </defs>
       <use xlink:href="#DejaVuSans-33"/>
      </g>
     </g>
    </g>
    <g id="xtick_5">
     <g id="line2d_5">
      <g>
       <use xlink:href="#ma1a7ba3cf2" x="357.673086" y="302.2" style="stroke: #000000; stroke-width: 0.8"/>
      </g>
     </g>
     <g id="text_5">
      <!-- 4 -->
      <g transform="translate(354.491836 316.798437) scale(0.1 -0.1)">
       <defs>
        <path id="DejaVuSans-34" d="M 2419 4116 
L 825 1625 
L 2419 1625 
L 2419 4116 
z
M 2253 4666 
L 3047 4666 
L 3047 1625 
L 3713 1625 
L 3713 1100 
L 3047 1100 
L 3047 0 
L 2419 0 
L 2419 1100 
L 313 1100 
L 313 1709 
L 2253 4666 
z
" transform="scale(0.015625)"/>
       </defs>
       <use xlink:href="#DejaVuSans-34"/>
      </g>
     </g>
    </g>
    <g id="xtick_6">
     <g id="line2d_6">
      <g>
       <use xlink:href="#ma1a7ba3cf2" x="431.682636" y="302.2" style="stroke: #000000; stroke-width: 0.8"/>
      </g>
     </g>
     <g id="text_6">
      <!-- 5 -->
      <g transform="translate(428.501386 316.798437) scale(0.1 -0.1)">
       <defs>
        <path id="DejaVuSans-35" d="M 691 4666 
L 3169 4666 
L 3169 4134 
L 1269 4134 
L 1269 2991 
Q 1406 3038 1543 3061 
Q 1681 3084 1819 3084 
Q 2600 3084 3056 2656 
Q 3513 2228 3513 1497 
Q 3513 744 3044 326 
Q 2575 -91 1722 -91 
Q 1428 -91 1123 -41 
Q 819 9 494 109 
L 494 744 
Q 775 591 1075 516 
Q 1375 441 1709 441 
Q 2250 441 2565 725 
Q 2881 1009 2881 1497 
Q 2881 1984 2565 2268 
Q 2250 2553 1709 2553 
Q 1456 2553 1204 2497 
Q 953 2441 691 2322 
L 691 4666 
z
" transform="scale(0.015625)"/>
       </defs>
       <use xlink:href="#DejaVuSans-35"/>
      </g>
     </g>
    </g>
    <g id="text_7">
     <!-- $W$ (m/hour) -->
     <g transform="translate(220.059 330.476562) scale(0.1 -0.1)">
      <defs>
       <path id="DejaVuSans-Oblique-57" d="M 616 4666 
L 1228 4666 
L 1453 697 
L 3213 4666 
L 3916 4666 
L 4147 697 
L 5888 4666 
L 6528 4666 
L 4453 0 
L 3659 0 
L 3444 3891 
L 1697 0 
L 903 0 
L 616 4666 
z
" transform="scale(0.015625)"/>
       <path id="DejaVuSans-20" transform="scale(0.015625)"/>
       <path id="DejaVuSans-28" d="M 1984 4856 
Q 1566 4138 1362 3434 
Q 1159 2731 1159 2009 
Q 1159 1288 1364 580 
Q 1569 -128 1984 -844 
L 1484 -844 
Q 1016 -109 783 600 
Q 550 1309 550 2009 
Q 550 2706 781 3412 
Q 1013 4119 1484 4856 
L 1984 4856 
z
" transform="scale(0.015625)"/>
       <path id="DejaVuSans-6d" d="M 3328 2828 
Q 3544 3216 3844 3400 
Q 4144 3584 4550 3584 
Q 5097 3584 5394 3201 
Q 5691 2819 5691 2113 
L 5691 0 
L 5113 0 
L 5113 2094 
Q 5113 2597 4934 2840 
Q 4756 3084 4391 3084 
Q 3944 3084 3684 2787 
Q 3425 2491 3425 1978 
L 3425 0 
L 2847 0 
L 2847 2094 
Q 2847 2600 2669 2842 
Q 2491 3084 2119 3084 
Q 1678 3084 1418 2786 
Q 1159 2488 1159 1978 
L 1159 0 
L 581 0 
L 581 3500 
L 1159 3500 
L 1159 2956 
Q 1356 3278 1631 3431 
Q 1906 3584 2284 3584 
Q 2666 3584 2933 3390 
Q 3200 3197 3328 2828 
z
" transform="scale(0.015625)"/>
       <path id="DejaVuSans-2f" d="M 1625 4666 
L 2156 4666 
L 531 -594 
L 0 -594 
L 1625 4666 
z
" transform="scale(0.015625)"/>
       <path id="DejaVuSans-68" d="M 3513 2113 
L 3513 0 
L 2938 0 
L 2938 2094 
Q 2938 2591 2744 2837 
Q 2550 3084 2163 3084 
Q 1697 3084 1428 2787 
Q 1159 2491 1159 1978 
L 1159 0 
L 581 0 
L 581 4863 
L 1159 4863 
L 1159 2956 
Q 1366 3272 1645 3428 
Q 1925 3584 2291 3584 
Q 2894 3584 3203 3211 
Q 3513 2838 3513 2113 
z
" transform="scale(0.015625)"/>
       <path id="DejaVuSans-6f" d="M 1959 3097 
Q 1497 3097 1228 2736 
Q 959 2375 959 1747 
Q 959 1119 1226 758 
Q 1494 397 1959 397 
Q 2419 397 2687 759 
Q 2956 1122 2956 1747 
Q 2956 2369 2687 2733 
Q 2419 3097 1959 3097 
z
M 1959 3584 
Q 2709 3584 3137 3096 
Q 3566 2609 3566 1747 
Q 3566 888 3137 398 
Q 2709 -91 1959 -91 
Q 1206 -91 779 398 
Q 353 888 353 1747 
Q 353 2609 779 3096 
Q 1206 3584 1959 3584 
z
" transform="scale(0.015625)"/>
       <path id="DejaVuSans-75" d="M 544 1381 
L 544 3500 
L 1119 3500 
L 1119 1403 
Q 1119 906 1312 657 
Q 1506 409 1894 409 
Q 2359 409 2629 706 
Q 2900 1003 2900 1516 
L 2900 3500 
L 3475 3500 
L 3475 0 
L 2900 0 
L 2900 538 
Q 2691 219 2414 64 
Q 2138 -91 1772 -91 
Q 1169 -91 856 284 
Q 544 659 544 1381 
z
M 1991 3584 
L 1991 3584 
z
" transform="scale(0.015625)"/>
       <path id="DejaVuSans-72" d="M 2631 2963 
Q 2534 3019 2420 3045 
Q 2306 3072 2169 3072 
Q 1681 3072 1420 2755 
Q 1159 2438 1159 1844 
L 1159 0 
L 581 0 
L 581 3500 
L 1159 3500 
L 1159 2956 
Q 1341 3275 1631 3429 
Q 1922 3584 2338 3584 
Q 2397 3584 2469 3576 
Q 2541 3569 2628 3553 
L 2631 2963 
z
" transform="scale(0.015625)"/>
       <path id="DejaVuSans-29" d="M 513 4856 
L 1013 4856 
Q 1481 4119 1714 3412 
Q 1947 2706 1947 2009 
Q 1947 1309 1714 600 
Q 1481 -109 1013 -844 
L 513 -844 
Q 928 -128 1133 580 
Q 1338 1288 1338 2009 
Q 1338 2731 1133 3434 
Q 928 4138 513 4856 
z
" transform="scale(0.015625)"/>
      </defs>
      <use xlink:href="#DejaVuSans-Oblique-57" transform="translate(0 0.015625)"/>
      <use xlink:href="#DejaVuSans-20" transform="translate(98.876953 0.015625)"/>
      <use xlink:href="#DejaVuSans-28" transform="translate(130.664062 0.015625)"/>
      <use xlink:href="#DejaVuSans-6d" transform="translate(169.677734 0.015625)"/>
      <use xlink:href="#DejaVuSans-2f" transform="translate(267.089844 0.015625)"/>
      <use xlink:href="#DejaVuSans-68" transform="translate(300.78125 0.015625)"/>
      <use xlink:href="#DejaVuSans-6f" transform="translate(364.160156 0.015625)"/>
      <use xlink:href="#DejaVuSans-75" transform="translate(425.341797 0.015625)"/>
      <use xlink:href="#DejaVuSans-72" transform="translate(488.720703 0.015625)"/>
      <use xlink:href="#DejaVuSans-29" transform="translate(529.833984 0.015625)"/>
     </g>
    </g>
   </g>
   <g id="matplotlib.axis_2">
    <g id="ytick_1">
     <g id="line2d_7">
      <defs>
       <path id="m583fdbcabd" d="M 0 0 
L -3.5 0 
" style="stroke: #000000; stroke-width: 0.8"/>
      </defs>
      <g>
       <use xlink:href="#m583fdbcabd" x="47.018" y="267.151506" style="stroke: #000000; stroke-width: 0.8"/>
      </g>
     </g>
     <g id="text_8">
      <!-- 0 -->
      <g transform="translate(33.6555 270.950725) scale(0.1 -0.1)">
       <use xlink:href="#DejaVuSans-30"/>
      </g>
     </g>
    </g>
    <g id="ytick_2">
     <g id="line2d_8">
      <g>
       <use xlink:href="#m583fdbcabd" x="47.018" y="204.140498" style="stroke: #000000; stroke-width: 0.8"/>
      </g>
     </g>
     <g id="text_9">
      <!-- 10 -->
      <g transform="translate(27.293 207.939716) scale(0.1 -0.1)">
       <use xlink:href="#DejaVuSans-31"/>
       <use xlink:href="#DejaVuSans-30" transform="translate(63.623047 0)"/>
      </g>
     </g>
    </g>
    <g id="ytick_3">
     <g id="line2d_9">
      <g>
       <use xlink:href="#m583fdbcabd" x="47.018" y="141.129489" style="stroke: #000000; stroke-width: 0.8"/>
      </g>
     </g>
     <g id="text_10">
      <!-- 20 -->
      <g transform="translate(27.293 144.928708) scale(0.1 -0.1)">
       <use xlink:href="#DejaVuSans-32"/>
       <use xlink:href="#DejaVuSans-30" transform="translate(63.623047 0)"/>
      </g>
     </g>
    </g>
    <g id="ytick_4">
     <g id="line2d_10">
      <g>
       <use xlink:href="#m583fdbcabd" x="47.018" y="78.118481" style="stroke: #000000; stroke-width: 0.8"/>
      </g>
     </g>
     <g id="text_11">
      <!-- 30 -->
      <g transform="translate(27.293 81.9177) scale(0.1 -0.1)">
       <use xlink:href="#DejaVuSans-33"/>
       <use xlink:href="#DejaVuSans-30" transform="translate(63.623047 0)"/>
      </g>
     </g>
    </g>
    <g id="ytick_5">
     <g id="line2d_11">
      <g>
       <use xlink:href="#m583fdbcabd" x="47.018" y="15.107473" style="stroke: #000000; stroke-width: 0.8"/>
      </g>
     </g>
     <g id="text_12">
      <!-- 40 -->
      <g transform="translate(27.293 18.906692) scale(0.1 -0.1)">
       <use xlink:href="#DejaVuSans-34"/>
       <use xlink:href="#DejaVuSans-30" transform="translate(63.623047 0)"/>
      </g>
     </g>
    </g>
    <g id="text_13">
     <!-- $Q_{lc}$ (kW) -->
     <g transform="translate(21.213312 176.932383) rotate(-90) scale(0.1 -0.1)">
      <defs>
       <path id="DejaVuSans-Oblique-51" d="M 2309 -84 
Q 2275 -88 2237 -89 
Q 2200 -91 2125 -91 
Q 1250 -91 756 411 
Q 263 913 263 1797 
Q 263 2319 452 2844 
Q 641 3369 978 3788 
Q 1369 4269 1858 4509 
Q 2347 4750 2938 4750 
Q 3794 4750 4287 4245 
Q 4781 3741 4781 2869 
Q 4781 1928 4265 1147 
Q 3750 366 2919 44 
L 3553 -825 
L 2847 -825 
L 2309 -84 
z
M 2919 4238 
Q 2400 4238 2003 3986 
Q 1606 3734 1313 3219 
Q 1125 2891 1026 2522 
Q 928 2153 928 1778 
Q 928 1128 1239 775 
Q 1550 422 2119 422 
Q 2631 422 3032 676 
Q 3434 931 3719 1434 
Q 3909 1772 4009 2142 
Q 4109 2513 4109 2881 
Q 4109 3528 3796 3883 
Q 3484 4238 2919 4238 
z
" transform="scale(0.015625)"/>
       <path id="DejaVuSans-Oblique-6c" d="M 1172 4863 
L 1747 4863 
L 800 0 
L 225 0 
L 1172 4863 
z
" transform="scale(0.015625)"/>
       <path id="DejaVuSans-Oblique-63" d="M 3431 3366 
L 3316 2797 
Q 3109 2947 2876 3022 
Q 2644 3097 2394 3097 
Q 2119 3097 1870 3000 
Q 1622 2903 1453 2725 
Q 1184 2453 1037 2087 
Q 891 1722 891 1331 
Q 891 859 1127 628 
Q 1363 397 1844 397 
Q 2081 397 2348 469 
Q 2616 541 2906 684 
L 2797 116 
Q 2547 13 2283 -39 
Q 2019 -91 1741 -91 
Q 1044 -91 669 257 
Q 294 606 294 1253 
Q 294 1797 489 2255 
Q 684 2713 1069 3078 
Q 1331 3328 1684 3456 
Q 2038 3584 2456 3584 
Q 2700 3584 2940 3529 
Q 3181 3475 3431 3366 
z
" transform="scale(0.015625)"/>
       <path id="DejaVuSans-6b" d="M 581 4863 
L 1159 4863 
L 1159 1991 
L 2875 3500 
L 3609 3500 
L 1753 1863 
L 3688 0 
L 2938 0 
L 1159 1709 
L 1159 0 
L 581 0 
L 581 4863 
z
" transform="scale(0.015625)"/>
       <path id="DejaVuSans-57" d="M 213 4666 
L 850 4666 
L 1831 722 
L 2809 4666 
L 3519 4666 
L 4500 722 
L 5478 4666 
L 6119 4666 
L 4947 0 
L 4153 0 
L 3169 4050 
L 2175 0 
L 1381 0 
L 213 4666 
z
" transform="scale(0.015625)"/>
      </defs>
      <use xlink:href="#DejaVuSans-Oblique-51" transform="translate(0 0.015625)"/>
      <use xlink:href="#DejaVuSans-Oblique-6c" transform="translate(78.710938 -16.390625) scale(0.7)"/>
      <use xlink:href="#DejaVuSans-Oblique-63" transform="translate(98.15918 -16.390625) scale(0.7)"/>
      <use xlink:href="#DejaVuSans-20" transform="translate(139.379883 0.015625)"/>
      <use xlink:href="#DejaVuSans-28" transform="translate(171.166992 0.015625)"/>
      <use xlink:href="#DejaVuSans-6b" transform="translate(210.180664 0.015625)"/>
      <use xlink:href="#DejaVuSans-57" transform="translate(268.09082 0.015625)"/>
      <use xlink:href="#DejaVuSans-29" transform="translate(366.967773 0.015625)"/>
     </g>
    </g>
   </g>
   <g id="line2d_12">
    <path d="M 65.335364 203.02074 
L 72.811839 196.176829 
L 80.288314 194.19648 
L 87.764788 193.046811 
L 95.241263 192.439949 
L 102.717738 193.483088 
L 110.194213 194.447548 
L 117.670688 190.543555 
L 125.147163 193.364537 
L 132.623638 189.480348 
L 140.100113 188.860079 
L 147.576588 191.181684 
L 155.053063 186.664992 
L 162.529538 188.714025 
L 170.006013 186.249491 
L 177.482488 186.396294 
L 184.958963 187.514295 
L 192.435438 184.403447 
L 199.911913 184.074111 
L 207.388388 184.396734 
L 214.864863 183.843117 
L 222.341338 182.744323 
L 229.817813 181.296502 
L 237.294288 181.208928 
L 244.770763 179.548434 
L 252.247237 179.201152 
L 259.723712 179.637428 
L 267.200187 179.579552 
L 274.676662 177.876145 
L 282.153137 178.300989 
L 289.629612 176.82165 
L 297.106087 178.085627 
L 304.582562 174.630555 
L 312.059037 175.276373 
L 319.535512 174.186866 
L 327.011987 172.879515 
L 334.488462 171.938299 
L 341.964937 170.655701 
L 349.441412 170.073462 
L 356.917887 171.309631 
L 364.394362 170.079999 
L 371.870837 167.715766 
L 379.347312 172.383279 
L 386.823787 166.946974 
L 394.300262 167.64715 
L 401.776737 167.307294 
L 409.253212 166.781251 
L 416.729686 164.983528 
L 424.206161 163.622678 
L 431.682636 163.648714 
" clip-path="url(#p6d6cbb9ce1)" style="fill: none; stroke: #1f77b4; stroke-width: 1.5; stroke-linecap: square"/>
   </g>
   <g id="line2d_13">
    <path d="M 65.335364 237.390675 
L 72.811839 231.709974 
L 80.288314 227.295024 
L 87.764788 223.401693 
L 95.241263 220.44632 
L 102.717738 217.528553 
L 110.194213 215.469412 
L 117.670688 212.726601 
L 125.147163 210.082387 
L 132.623638 209.55541 
L 140.100113 207.626962 
L 147.576588 206.997229 
L 155.053063 205.290606 
L 162.529538 203.864202 
L 170.006013 204.16299 
L 177.482488 201.327123 
L 184.958963 200.884124 
L 192.435438 200.226876 
L 199.911913 199.673882 
L 207.388388 199.182874 
L 214.864863 198.264538 
L 222.341338 197.604082 
L 229.817813 195.820669 
L 237.294288 196.413336 
L 244.770763 194.897578 
L 252.247237 194.702914 
L 259.723712 194.257196 
L 267.200187 195.820501 
L 274.676662 194.134832 
L 282.153137 195.57385 
L 289.629612 192.499406 
L 297.106087 192.842205 
L 304.582562 192.04864 
L 312.059037 193.465489 
L 319.535512 192.252081 
L 327.011987 191.198172 
L 334.488462 194.142315 
L 341.964937 192.170804 
L 349.441412 193.568843 
L 356.917887 193.429358 
L 364.394362 192.263121 
L 371.870837 192.658712 
L 379.347312 193.821661 
L 386.823787 193.259064 
L 394.300262 192.279866 
L 401.776737 191.446884 
L 409.253212 192.093748 
L 416.729686 192.214489 
L 424.206161 192.042371 
L 431.682636 192.823845 
" clip-path="url(#p6d6cbb9ce1)" style="fill: none; stroke: #ff7f0e; stroke-width: 1.5; stroke-linecap: square"/>
   </g>
   <g id="line2d_14">
    <path d="M 65.335364 256.85064 
L 72.811839 256.442619 
L 80.288314 254.380105 
L 87.764788 254.06881 
L 95.241263 252.70406 
L 102.717738 252.663125 
L 110.194213 251.633461 
L 117.670688 250.280766 
L 125.147163 250.293505 
L 132.623638 250.45682 
L 140.100113 248.841502 
L 147.576588 248.329966 
L 155.053063 248.533688 
L 162.529538 248.829667 
L 170.006013 247.440867 
L 177.482488 247.448668 
L 184.958963 246.746288 
L 192.435438 246.157928 
L 199.911913 246.147392 
L 207.388388 245.796335 
L 214.864863 246.534421 
L 222.341338 245.688708 
L 229.817813 245.163478 
L 237.294288 244.700424 
L 244.770763 244.47549 
L 252.247237 243.580346 
L 259.723712 243.372646 
L 267.200187 243.558034 
L 274.676662 243.273587 
L 282.153137 242.425324 
L 289.629612 242.195454 
L 297.106087 242.181586 
L 304.582562 242.726398 
L 312.059037 241.936569 
L 319.535512 240.7945 
L 327.011987 241.316208 
L 334.488462 240.573015 
L 341.964937 240.374129 
L 349.441412 240.606453 
L 356.917887 240.033153 
L 364.394362 240.423741 
L 371.870837 239.481369 
L 379.347312 239.830907 
L 386.823787 239.925119 
L 394.300262 239.124627 
L 401.776737 238.630492 
L 409.253212 238.667457 
L 416.729686 238.919068 
L 424.206161 238.543037 
L 431.682636 237.811134 
" clip-path="url(#p6d6cbb9ce1)" style="fill: none; stroke: #2ca02c; stroke-width: 1.5; stroke-linecap: square"/>
   </g>
   <g id="line2d_15">
    <path d="M 65.335364 260.989643 
L 72.811839 262.301471 
L 80.288314 260.740845 
L 87.764788 261.328399 
L 95.241263 261.123864 
L 102.717738 261.369644 
L 110.194213 259.575522 
L 117.670688 259.798771 
L 125.147163 258.540938 
L 132.623638 258.655047 
L 140.100113 258.076617 
L 147.576588 258.143908 
L 155.053063 257.132132 
L 162.529538 257.246423 
L 170.006013 256.284922 
L 177.482488 254.493597 
L 184.958963 254.501254 
L 192.435438 254.436477 
L 199.911913 254.148595 
L 207.388388 253.445112 
L 214.864863 252.624082 
L 222.341338 252.361284 
L 229.817813 252.897324 
L 237.294288 252.164542 
L 244.770763 252.221952 
L 252.247237 251.020633 
L 259.723712 251.762362 
L 267.200187 252.877481 
L 274.676662 250.893856 
L 282.153137 251.031344 
L 289.629612 250.21167 
L 297.106087 251.069154 
L 304.582562 251.980629 
L 312.059037 249.515848 
L 319.535512 249.918699 
L 327.011987 250.493498 
L 334.488462 249.342437 
L 341.964937 250.526505 
L 349.441412 249.860017 
L 356.917887 250.011109 
L 364.394362 249.868781 
L 371.870837 249.890987 
L 379.347312 248.854765 
L 386.823787 248.963204 
L 394.300262 248.452791 
L 401.776737 247.647201 
L 409.253212 248.897539 
L 416.729686 248.956595 
L 424.206161 248.552796 
L 431.682636 247.617269 
" clip-path="url(#p6d6cbb9ce1)" style="fill: none; stroke: #d62728; stroke-width: 1.5; stroke-linecap: square"/>
   </g>
   <g id="patch_3">
    <path d="M 47.018 302.2 
L 47.018 11.064766 
" style="fill: none; stroke: #000000; stroke-width: 0.8; stroke-linejoin: miter; stroke-linecap: square"/>
   </g>
   <g id="patch_4">
    <path d="M 450 302.2 
L 450 11.064766 
" style="fill: none; stroke: #000000; stroke-width: 0.8; stroke-linejoin: miter; stroke-linecap: square"/>
   </g>
   <g id="patch_5">
    <path d="M 47.018 302.2 
L 450 302.2 
" style="fill: none; stroke: #000000; stroke-width: 0.8; stroke-linejoin: miter; stroke-linecap: square"/>
   </g>
   <g id="patch_6">
    <path d="M 47.018 11.064766 
L 450 11.064766 
" style="fill: none; stroke: #000000; stroke-width: 0.8; stroke-linejoin: miter; stroke-linecap: square"/>
   </g>
   <g id="legend_1">
    <g id="patch_7">
     <path d="M 54.018 77.777266 
L 132.888313 77.777266 
Q 134.888313 77.777266 134.888313 75.777266 
L 134.888313 18.064766 
Q 134.888313 16.064766 132.888313 16.064766 
L 54.018 16.064766 
Q 52.018 16.064766 52.018 18.064766 
L 52.018 75.777266 
Q 52.018 77.777266 54.018 77.777266 
z
" style="fill: #ffffff; opacity: 0.8; stroke: #cccccc; stroke-linejoin: miter"/>
    </g>
    <g id="line2d_16">
     <path d="M 56.018 24.163204 
L 66.018 24.163204 
L 76.018 24.163204 
" style="fill: none; stroke: #1f77b4; stroke-width: 1.5; stroke-linecap: square"/>
    </g>
    <g id="text_14">
     <!-- Ts=100 K -->
     <g transform="translate(84.018 27.663204) scale(0.1 -0.1)">
      <defs>
       <path id="DejaVuSans-54" d="M -19 4666 
L 3928 4666 
L 3928 4134 
L 2272 4134 
L 2272 0 
L 1638 0 
L 1638 4134 
L -19 4134 
L -19 4666 
z
" transform="scale(0.015625)"/>
       <path id="DejaVuSans-73" d="M 2834 3397 
L 2834 2853 
Q 2591 2978 2328 3040 
Q 2066 3103 1784 3103 
Q 1356 3103 1142 2972 
Q 928 2841 928 2578 
Q 928 2378 1081 2264 
Q 1234 2150 1697 2047 
L 1894 2003 
Q 2506 1872 2764 1633 
Q 3022 1394 3022 966 
Q 3022 478 2636 193 
Q 2250 -91 1575 -91 
Q 1294 -91 989 -36 
Q 684 19 347 128 
L 347 722 
Q 666 556 975 473 
Q 1284 391 1588 391 
Q 1994 391 2212 530 
Q 2431 669 2431 922 
Q 2431 1156 2273 1281 
Q 2116 1406 1581 1522 
L 1381 1569 
Q 847 1681 609 1914 
Q 372 2147 372 2553 
Q 372 3047 722 3315 
Q 1072 3584 1716 3584 
Q 2034 3584 2315 3537 
Q 2597 3491 2834 3397 
z
" transform="scale(0.015625)"/>
       <path id="DejaVuSans-3d" d="M 678 2906 
L 4684 2906 
L 4684 2381 
L 678 2381 
L 678 2906 
z
M 678 1631 
L 4684 1631 
L 4684 1100 
L 678 1100 
L 678 1631 
z
" transform="scale(0.015625)"/>
       <path id="DejaVuSans-4b" d="M 628 4666 
L 1259 4666 
L 1259 2694 
L 3353 4666 
L 4166 4666 
L 1850 2491 
L 4331 0 
L 3500 0 
L 1259 2247 
L 1259 0 
L 628 0 
L 628 4666 
z
" transform="scale(0.015625)"/>
      </defs>
      <use xlink:href="#DejaVuSans-54"/>
      <use xlink:href="#DejaVuSans-73" transform="translate(44.583984 0)"/>
      <use xlink:href="#DejaVuSans-3d" transform="translate(96.683594 0)"/>
      <use xlink:href="#DejaVuSans-31" transform="translate(180.472656 0)"/>
      <use xlink:href="#DejaVuSans-30" transform="translate(244.095703 0)"/>
      <use xlink:href="#DejaVuSans-30" transform="translate(307.71875 0)"/>
      <use xlink:href="#DejaVuSans-20" transform="translate(371.341797 0)"/>
      <use xlink:href="#DejaVuSans-4b" transform="translate(403.128906 0)"/>
     </g>
    </g>
    <g id="line2d_17">
     <path d="M 56.018 38.841329 
L 66.018 38.841329 
L 76.018 38.841329 
" style="fill: none; stroke: #ff7f0e; stroke-width: 1.5; stroke-linecap: square"/>
    </g>
    <g id="text_15">
     <!-- Ts=160 K -->
     <g transform="translate(84.018 42.341329) scale(0.1 -0.1)">
      <defs>
       <path id="DejaVuSans-36" d="M 2113 2584 
Q 1688 2584 1439 2293 
Q 1191 2003 1191 1497 
Q 1191 994 1439 701 
Q 1688 409 2113 409 
Q 2538 409 2786 701 
Q 3034 994 3034 1497 
Q 3034 2003 2786 2293 
Q 2538 2584 2113 2584 
z
M 3366 4563 
L 3366 3988 
Q 3128 4100 2886 4159 
Q 2644 4219 2406 4219 
Q 1781 4219 1451 3797 
Q 1122 3375 1075 2522 
Q 1259 2794 1537 2939 
Q 1816 3084 2150 3084 
Q 2853 3084 3261 2657 
Q 3669 2231 3669 1497 
Q 3669 778 3244 343 
Q 2819 -91 2113 -91 
Q 1303 -91 875 529 
Q 447 1150 447 2328 
Q 447 3434 972 4092 
Q 1497 4750 2381 4750 
Q 2619 4750 2861 4703 
Q 3103 4656 3366 4563 
z
" transform="scale(0.015625)"/>
      </defs>
      <use xlink:href="#DejaVuSans-54"/>
      <use xlink:href="#DejaVuSans-73" transform="translate(44.583984 0)"/>
      <use xlink:href="#DejaVuSans-3d" transform="translate(96.683594 0)"/>
      <use xlink:href="#DejaVuSans-31" transform="translate(180.472656 0)"/>
      <use xlink:href="#DejaVuSans-36" transform="translate(244.095703 0)"/>
      <use xlink:href="#DejaVuSans-30" transform="translate(307.71875 0)"/>
      <use xlink:href="#DejaVuSans-20" transform="translate(371.341797 0)"/>
      <use xlink:href="#DejaVuSans-4b" transform="translate(403.128906 0)"/>
     </g>
    </g>
    <g id="line2d_18">
     <path d="M 56.018 53.519454 
L 66.018 53.519454 
L 76.018 53.519454 
" style="fill: none; stroke: #2ca02c; stroke-width: 1.5; stroke-linecap: square"/>
    </g>
    <g id="text_16">
     <!-- Ts=220 K -->
     <g transform="translate(84.018 57.019454) scale(0.1 -0.1)">
      <use xlink:href="#DejaVuSans-54"/>
      <use xlink:href="#DejaVuSans-73" transform="translate(44.583984 0)"/>
      <use xlink:href="#DejaVuSans-3d" transform="translate(96.683594 0)"/>
      <use xlink:href="#DejaVuSans-32" transform="translate(180.472656 0)"/>
      <use xlink:href="#DejaVuSans-32" transform="translate(244.095703 0)"/>
      <use xlink:href="#DejaVuSans-30" transform="translate(307.71875 0)"/>
      <use xlink:href="#DejaVuSans-20" transform="translate(371.341797 0)"/>
      <use xlink:href="#DejaVuSans-4b" transform="translate(403.128906 0)"/>
     </g>
    </g>
    <g id="line2d_19">
     <path d="M 56.018 68.197579 
L 66.018 68.197579 
L 76.018 68.197579 
" style="fill: none; stroke: #d62728; stroke-width: 1.5; stroke-linecap: square"/>
    </g>
    <g id="text_17">
     <!-- Ts=260 K -->
     <g transform="translate(84.018 71.697579) scale(0.1 -0.1)">
      <use xlink:href="#DejaVuSans-54"/>
      <use xlink:href="#DejaVuSans-73" transform="translate(44.583984 0)"/>
      <use xlink:href="#DejaVuSans-3d" transform="translate(96.683594 0)"/>
      <use xlink:href="#DejaVuSans-32" transform="translate(180.472656 0)"/>
      <use xlink:href="#DejaVuSans-36" transform="translate(244.095703 0)"/>
      <use xlink:href="#DejaVuSans-30" transform="translate(307.71875 0)"/>
      <use xlink:href="#DejaVuSans-20" transform="translate(371.341797 0)"/>
      <use xlink:href="#DejaVuSans-4b" transform="translate(403.128906 0)"/>
     </g>
    </g>
   </g>
  </g>
 </g>
 <defs>
  <clipPath id="p6d6cbb9ce1">
   <rect x="47.018" y="11.064766" width="402.982" height="291.135234"/>
  </clipPath>
 </defs>
</svg>
