<?xml version="1.0" encoding="utf-8" standalone="no"?>
<!DOCTYPE svg PUBLIC "-//W3C//DTD SVG 1.1//EN"
  "http://www.w3.org/Graphics/SVG/1.1/DTD/svg11.dtd">
<svg xmlns:xlink="http://www.w3.org/1999/xlink" width="460.8pt" height="345.6pt" viewBox="0 0 460.8 345.6" xmlns="http://www.w3.org/2000/svg" version="1.1">
 <metadata>
  <rdf:RDF xmlns:dc="http://purl.org/dc/elements/1.1/" xmlns:cc="http://creativecommons.org/ns#" xmlns:rdf="http://www.w3.org/1999/02/22-rdf-syntax-ns#">
   <cc:Work>
    <dc:type rdf:resource="http://purl.org/dc/dcmitype/StillImage"/>
    <dc:date>2026-02-12T00:50:33.490675</dc:date>
    <dc:format>image/svg+xml</dc:format>
    <dc:creator>
     <cc:Agent>
      <dc:title>Matplotlib v3.10.8, https://matplotlib.org/</dc:title>
     </cc:Agent>
    </dc:creator>
   </cc:Work>
  </rdf:RDF>
 </metadata>
 <defs>
  <style type="text/css">*{stroke-linejoin: round; stroke-linecap: butt}</style>
 </defs>
 <g id="figure_1">
  <g id="patch_1">
   <path d="M 0 345.6 
L 460.8 345.6 
L 460.8 0 
L 0 0 
L 0 345.6 
z
" style="fill: none"/>
  </g>
  <g id="axes_1">
   <g id="patch_2">
    <path d="M 47.018 302.2 
L 450 302.2 
L 450 10.8 
L 47.018 10.8 
L 47.018 302.2 
z
" style="fill: none"/>
   </g>
   <g id="FillBetweenPolyCollection_1">
    <path d="M 65.335364 260.813159 
L 65.335364 260.813159 
L 72.811839 260.813159 
L 80.288314 260.813159 
L 87.764788 260.813159 
L 95.241263 260.813159 
L 102.717738 260.813159 
L 110.194213 260.813159 
L 117.670688 260.813159 
L 125.147163 260.813159 
L 132.623638 260.813159 
L 140.100113 260.813159 
L 147.576588 260.813159 
L 155.053063 260.813159 
L 162.529538 260.813159 
L 170.006013 260.813159 
L 177.482488 260.813159 
L 184.958963 260.813159 
L 192.435438 260.813159 
L 199.911913 260.813159 
L 207.388388 260.813159 
L 214.864863 260.813159 
L 222.341338 260.813159 
L 229.817813 260.813159 
L 237.294288 260.813159 
L 244.770763 260.813159 
L 252.247237 260.813159 
L 259.723712 260.813159 
L 267.200187 260.813159 
L 274.676662 260.813159 
L 282.153137 260.813159 
L 289.629612 260.813159 
L 297.106087 260.813159 
L 304.582562 260.813159 
L 312.059037 260.813159 
L 319.535512 260.813159 
L 327.011987 260.813159 
L 334.488462 260.813159 
L 341.964937 260.813159 
L 349.441412 260.813159 
L 356.917887 260.813159 
L 364.394362 260.813159 
L 371.870837 260.813159 
L 379.347312 260.813159 
L 386.823787 260.813159 
L 394.300262 260.813159 
L 401.776737 260.813159 
L 409.253212 260.813159 
L 416.729686 260.813159 
L 424.206161 260.813159 
L 431.682636 260.813159 
L 431.682636 260.813159 
L 431.682636 260.813159 
L 424.206161 260.813159 
L 416.729686 260.813159 
L 409.253212 260.813159 
L 401.776737 260.813159 
L 394.300262 260.813159 
L 386.823787 260.813159 
L 379.347312 260.813159 
L 371.870837 260.813159 
L 364.394362 260.813159 
L 356.917887 260.813159 
L 349.441412 260.813159 
L 341.964937 260.813159 
L 334.488462 260.813159 
L 327.011987 260.813159 
L 319.535512 260.813159 
L 312.059037 260.813159 
L 304.582562 260.813159 
L 297.106087 260.813159 
L 289.629612 260.813159 
L 282.153137 260.813159 
L 274.676662 260.813159 
L 267.200187 260.813159 
L 259.723712 260.813159 
L 252.247237 260.813159 
L 244.770763 260.813159 
L 237.294288 260.813159 
L 229.817813 260.813159 
L 222.341338 260.813159 
L 214.864863 260.813159 
L 207.388388 260.813159 
L 199.911913 260.813159 
L 192.435438 260.813159 
L 184.958963 260.813159 
L 177.482488 260.813159 
L 170.006013 260.813159 
L 162.529538 260.813159 
L 155.053063 260.813159 
L 147.576588 260.813159 
L 140.100113 260.813159 
L 132.623638 260.813159 
L 125.147163 260.813159 
L 117.670688 260.813159 
L 110.194213 260.813159 
L 102.717738 260.813159 
L 95.241263 260.813159 
L 87.764788 260.813159 
L 80.288314 260.813159 
L 72.811839 260.813159 
L 65.335364 260.813159 
z
" clip-path="url(#p397a03fe54)" style="fill: #1f77b4; fill-opacity: 0.45"/>
   </g>
   <g id="PathCollection_1">
    <defs>
     <path id="m19e2cce087" d="M 0 2.12132 
C 0.562581 2.12132 1.102195 1.897805 1.5 1.5 
C 1.897805 1.102195 2.12132 0.562581 2.12132 0 
C 2.12132 -0.562581 1.897805 -1.102195 1.5 -1.5 
C 1.102195 -1.897805 0.562581 -2.12132 0 -2.12132 
C -0.562581 -2.12132 -1.102195 -1.897805 -1.5 -1.5 
C -1.897805 -1.102195 -2.12132 -0.562581 -2.12132 0 
C -2.12132 0.562581 -1.897805 1.102195 -1.5 1.5 
C -1.102195 1.897805 -0.562581 2.12132 0 2.12132 
z
" style="stroke: #000000; stroke-opacity: 0.7"/>
    </defs>
    <g clip-path="url(#p397a03fe54)">
     <use xlink:href="#m19e2cce087" x="65.335364" y="207.666246" style="fill-opacity: 0.7; stroke: #000000; stroke-opacity: 0.7"/>
     <use xlink:href="#m19e2cce087" x="98.639661" y="168.610338" style="fill-opacity: 0.7; stroke: #000000; stroke-opacity: 0.7"/>
     <use xlink:href="#m19e2cce087" x="135.644436" y="139.860689" style="fill-opacity: 0.7; stroke: #000000; stroke-opacity: 0.7"/>
     <use xlink:href="#m19e2cce087" x="172.649211" y="119.700328" style="fill-opacity: 0.7; stroke: #000000; stroke-opacity: 0.7"/>
     <use xlink:href="#m19e2cce087" x="209.653986" y="99.134866" style="fill-opacity: 0.7; stroke: #000000; stroke-opacity: 0.7"/>
     <use xlink:href="#m19e2cce087" x="246.658761" y="84.014961" style="fill-opacity: 0.7; stroke: #000000; stroke-opacity: 0.7"/>
     <use xlink:href="#m19e2cce087" x="283.663536" y="71.011458" style="fill-opacity: 0.7; stroke: #000000; stroke-opacity: 0.7"/>
     <use xlink:href="#m19e2cce087" x="320.668311" y="57.535008" style="fill-opacity: 0.7; stroke: #000000; stroke-opacity: 0.7"/>
     <use xlink:href="#m19e2cce087" x="357.673086" y="46.02097" style="fill-opacity: 0.7; stroke: #000000; stroke-opacity: 0.7"/>
     <use xlink:href="#m19e2cce087" x="394.677861" y="35.48448" style="fill-opacity: 0.7; stroke: #000000; stroke-opacity: 0.7"/>
     <use xlink:href="#m19e2cce087" x="431.682636" y="24.045455" style="fill-opacity: 0.7; stroke: #000000; stroke-opacity: 0.7"/>
    </g>
   </g>
   <g id="FillBetweenPolyCollection_2">
    <path d="M 65.335364 260.813159 
L 65.335364 260.813159 
L 72.811839 260.813159 
L 80.288314 260.813159 
L 87.764788 260.813159 
L 95.241263 260.813159 
L 102.717738 260.813159 
L 110.194213 260.813159 
L 117.670688 260.813159 
L 125.147163 260.813159 
L 132.623638 260.813159 
L 140.100113 260.813159 
L 147.576588 260.813159 
L 155.053063 260.813159 
L 162.529538 260.813159 
L 170.006013 260.813159 
L 177.482488 260.813159 
L 184.958963 260.813159 
L 192.435438 260.813159 
L 199.911913 260.813159 
L 207.388388 260.813159 
L 214.864863 260.813159 
L 222.341338 260.813159 
L 229.817813 260.813159 
L 237.294288 260.813159 
L 244.770763 260.813159 
L 252.247237 260.813159 
L 259.723712 260.813159 
L 267.200187 260.813159 
L 274.676662 260.813159 
L 282.153137 260.813159 
L 289.629612 260.813159 
L 297.106087 260.813159 
L 304.582562 260.813159 
L 312.059037 260.813159 
L 319.535512 260.813159 
L 327.011987 260.813159 
L 334.488462 260.813159 
L 341.964937 260.813159 
L 349.441412 260.813159 
L 356.917887 260.813159 
L 364.394362 260.813159 
L 371.870837 260.813159 
L 379.347312 260.813159 
L 386.823787 260.813159 
L 394.300262 260.813159 
L 401.776737 260.813159 
L 409.253212 260.813159 
L 416.729686 260.813159 
L 424.206161 260.813159 
L 431.682636 260.813159 
L 431.682636 260.813159 
L 431.682636 260.813159 
L 424.206161 260.813159 
L 416.729686 260.813159 
L 409.253212 260.813159 
L 401.776737 260.813159 
L 394.300262 260.813159 
L 386.823787 260.813159 
L 379.347312 260.813159 
L 371.870837 260.813159 
L 364.394362 260.813159 
L 356.917887 260.813159 
L 349.441412 260.813159 
L 341.964937 260.813159 
L 334.488462 260.813159 
L 327.011987 260.813159 
L 319.535512 260.813159 
L 312.059037 260.813159 
L 304.582562 260.813159 
L 297.106087 260.813159 
L 289.629612 260.813159 
L 282.153137 260.813159 
L 274.676662 260.813159 
L 267.200187 260.813159 
L 259.723712 260.813159 
L 252.247237 260.813159 
L 244.770763 260.813159 
L 237.294288 260.813159 
L 229.817813 260.813159 
L 222.341338 260.813159 
L 214.864863 260.813159 
L 207.388388 260.813159 
L 199.911913 260.813159 
L 192.435438 260.813159 
L 184.958963 260.813159 
L 177.482488 260.813159 
L 170.006013 260.813159 
L 162.529538 260.813159 
L 155.053063 260.813159 
L 147.576588 260.813159 
L 140.100113 260.813159 
L 132.623638 260.813159 
L 125.147163 260.813159 
L 117.670688 260.813159 
L 110.194213 260.813159 
L 102.717738 260.813159 
L 95.241263 260.813159 
L 87.764788 260.813159 
L 80.288314 260.813159 
L 72.811839 260.813159 
L 65.335364 260.813159 
z
" clip-path="url(#p397a03fe54)" style="fill: #ff7f0e; fill-opacity: 0.45"/>
   </g>
   <g id="PathCollection_2">
    <g clip-path="url(#p397a03fe54)">
     <use xlink:href="#m19e2cce087" x="65.335364" y="231.699344" style="fill-opacity: 0.7; stroke: #000000; stroke-opacity: 0.7"/>
     <use xlink:href="#m19e2cce087" x="98.639661" y="195.315982" style="fill-opacity: 0.7; stroke: #000000; stroke-opacity: 0.7"/>
     <use xlink:href="#m19e2cce087" x="135.644436" y="171.579796" style="fill-opacity: 0.7; stroke: #000000; stroke-opacity: 0.7"/>
     <use xlink:href="#m19e2cce087" x="172.649211" y="152.826537" style="fill-opacity: 0.7; stroke: #000000; stroke-opacity: 0.7"/>
     <use xlink:href="#m19e2cce087" x="209.653986" y="138.272314" style="fill-opacity: 0.7; stroke: #000000; stroke-opacity: 0.7"/>
     <use xlink:href="#m19e2cce087" x="246.658761" y="124.835548" style="fill-opacity: 0.7; stroke: #000000; stroke-opacity: 0.7"/>
     <use xlink:href="#m19e2cce087" x="283.663536" y="113.885061" style="fill-opacity: 0.7; stroke: #000000; stroke-opacity: 0.7"/>
     <use xlink:href="#m19e2cce087" x="320.668311" y="102.705094" style="fill-opacity: 0.7; stroke: #000000; stroke-opacity: 0.7"/>
     <use xlink:href="#m19e2cce087" x="357.673086" y="93.437312" style="fill-opacity: 0.7; stroke: #000000; stroke-opacity: 0.7"/>
     <use xlink:href="#m19e2cce087" x="394.677861" y="83.01924" style="fill-opacity: 0.7; stroke: #000000; stroke-opacity: 0.7"/>
     <use xlink:href="#m19e2cce087" x="431.682636" y="74.671077" style="fill-opacity: 0.7; stroke: #000000; stroke-opacity: 0.7"/>
    </g>
   </g>
   <g id="FillBetweenPolyCollection_3">
    <path d="M 65.335364 260.813159 
L 65.335364 260.813159 
L 72.811839 260.813159 
L 80.288314 260.813159 
L 87.764788 260.813159 
L 95.241263 260.813159 
L 102.717738 260.813159 
L 110.194213 260.813159 
L 117.670688 260.813159 
L 125.147163 260.813159 
L 132.623638 260.813159 
L 140.100113 260.813159 
L 147.576588 260.813159 
L 155.053063 260.813159 
L 162.529538 260.813159 
L 170.006013 260.813159 
L 177.482488 260.813159 
L 184.958963 260.813159 
L 192.435438 260.813159 
L 199.911913 260.813159 
L 207.388388 260.813159 
L 214.864863 260.813159 
L 222.341338 260.813159 
L 229.817813 260.813159 
L 237.294288 260.813159 
L 244.770763 260.813159 
L 252.247237 260.813159 
L 259.723712 260.813159 
L 267.200187 260.813159 
L 274.676662 260.813159 
L 282.153137 260.813159 
L 289.629612 260.813159 
L 297.106087 260.813159 
L 304.582562 260.813159 
L 312.059037 260.813159 
L 319.535512 260.813159 
L 327.011987 260.813159 
L 334.488462 260.813159 
L 341.964937 260.813159 
L 349.441412 260.813159 
L 356.917887 260.813159 
L 364.394362 260.813159 
L 371.870837 260.813159 
L 379.347312 260.813159 
L 386.823787 260.813159 
L 394.300262 260.813159 
L 401.776737 260.813159 
L 409.253212 260.813159 
L 416.729686 260.813159 
L 424.206161 260.813159 
L 431.682636 260.813159 
L 431.682636 260.813159 
L 431.682636 260.813159 
L 424.206161 260.813159 
L 416.729686 260.813159 
L 409.253212 260.813159 
L 401.776737 260.813159 
L 394.300262 260.813159 
L 386.823787 260.813159 
L 379.347312 260.813159 
L 371.870837 260.813159 
L 364.394362 260.813159 
L 356.917887 260.813159 
L 349.441412 260.813159 
L 341.964937 260.813159 
L 334.488462 260.813159 
L 327.011987 260.813159 
L 319.535512 260.813159 
L 312.059037 260.813159 
L 304.582562 260.813159 
L 297.106087 260.813159 
L 289.629612 260.813159 
L 282.153137 260.813159 
L 274.676662 260.813159 
L 267.200187 260.813159 
L 259.723712 260.813159 
L 252.247237 260.813159 
L 244.770763 260.813159 
L 237.294288 260.813159 
L 229.817813 260.813159 
L 222.341338 260.813159 
L 214.864863 260.813159 
L 207.388388 260.813159 
L 199.911913 260.813159 
L 192.435438 260.813159 
L 184.958963 260.813159 
L 177.482488 260.813159 
L 170.006013 260.813159 
L 162.529538 260.813159 
L 155.053063 260.813159 
L 147.576588 260.813159 
L 140.100113 260.813159 
L 132.623638 260.813159 
L 125.147163 260.813159 
L 117.670688 260.813159 
L 110.194213 260.813159 
L 102.717738 260.813159 
L 95.241263 260.813159 
L 87.764788 260.813159 
L 80.288314 260.813159 
L 72.811839 260.813159 
L 65.335364 260.813159 
z
" clip-path="url(#p397a03fe54)" style="fill: #2ca02c; fill-opacity: 0.45"/>
   </g>
   <g id="PathCollection_3">
    <g clip-path="url(#p397a03fe54)">
     <use xlink:href="#m19e2cce087" x="65.335364" y="247.757493" style="fill-opacity: 0.7; stroke: #000000; stroke-opacity: 0.7"/>
     <use xlink:href="#m19e2cce087" x="98.639661" y="215.634952" style="fill-opacity: 0.7; stroke: #000000; stroke-opacity: 0.7"/>
     <use xlink:href="#m19e2cce087" x="135.644436" y="196.560493" style="fill-opacity: 0.7; stroke: #000000; stroke-opacity: 0.7"/>
     <use xlink:href="#m19e2cce087" x="172.649211" y="180.45322" style="fill-opacity: 0.7; stroke: #000000; stroke-opacity: 0.7"/>
     <use xlink:href="#m19e2cce087" x="209.653986" y="167.195201" style="fill-opacity: 0.7; stroke: #000000; stroke-opacity: 0.7"/>
     <use xlink:href="#m19e2cce087" x="246.658761" y="158.72279" style="fill-opacity: 0.7; stroke: #000000; stroke-opacity: 0.7"/>
     <use xlink:href="#m19e2cce087" x="283.663536" y="149.017265" style="fill-opacity: 0.7; stroke: #000000; stroke-opacity: 0.7"/>
     <use xlink:href="#m19e2cce087" x="320.668311" y="139.931468" style="fill-opacity: 0.7; stroke: #000000; stroke-opacity: 0.7"/>
     <use xlink:href="#m19e2cce087" x="357.673086" y="130.119622" style="fill-opacity: 0.7; stroke: #000000; stroke-opacity: 0.7"/>
     <use xlink:href="#m19e2cce087" x="394.677861" y="122.812427" style="fill-opacity: 0.7; stroke: #000000; stroke-opacity: 0.7"/>
     <use xlink:href="#m19e2cce087" x="431.682636" y="114.86679" style="fill-opacity: 0.7; stroke: #000000; stroke-opacity: 0.7"/>
    </g>
   </g>
   <g id="FillBetweenPolyCollection_4">
    <path d="M 65.335364 260.813159 
L 65.335364 260.813159 
L 72.811839 260.813159 
L 80.288314 260.813159 
L 87.764788 260.813159 
L 95.241263 260.813159 
L 102.717738 260.813159 
L 110.194213 260.813159 
L 117.670688 260.813159 
L 125.147163 260.813159 
L 132.623638 260.813159 
L 140.100113 260.813159 
L 147.576588 260.813159 
L 155.053063 260.813159 
L 162.529538 260.813159 
L 170.006013 260.813159 
L 177.482488 260.813159 
L 184.958963 260.813159 
L 192.435438 260.813159 
L 199.911913 260.813159 
L 207.388388 260.813159 
L 214.864863 260.813159 
L 222.341338 260.813159 
L 229.817813 260.813159 
L 237.294288 260.813159 
L 244.770763 260.813159 
L 252.247237 260.813159 
L 259.723712 260.813159 
L 267.200187 260.813159 
L 274.676662 260.813159 
L 282.153137 260.813159 
L 289.629612 260.813159 
L 297.106087 260.813159 
L 304.582562 260.813159 
L 312.059037 260.813159 
L 319.535512 260.813159 
L 327.011987 260.813159 
L 334.488462 260.813159 
L 341.964937 260.813159 
L 349.441412 260.813159 
L 356.917887 260.813159 
L 364.394362 260.813159 
L 371.870837 260.813159 
L 379.347312 260.813159 
L 386.823787 260.813159 
L 394.300262 260.813159 
L 401.776737 260.813159 
L 409.253212 260.813159 
L 416.729686 260.813159 
L 424.206161 260.813159 
L 431.682636 260.813159 
L 431.682636 260.813159 
L 431.682636 260.813159 
L 424.206161 260.813159 
L 416.729686 260.813159 
L 409.253212 260.813159 
L 401.776737 260.813159 
L 394.300262 260.813159 
L 386.823787 260.813159 
L 379.347312 260.813159 
L 371.870837 260.813159 
L 364.394362 260.813159 
L 356.917887 260.813159 
L 349.441412 260.813159 
L 341.964937 260.813159 
L 334.488462 260.813159 
L 327.011987 260.813159 
L 319.535512 260.813159 
L 312.059037 260.813159 
L 304.582562 260.813159 
L 297.106087 260.813159 
L 289.629612 260.813159 
L 282.153137 260.813159 
L 274.676662 260.813159 
L 267.200187 260.813159 
L 259.723712 260.813159 
L 252.247237 260.813159 
L 244.770763 260.813159 
L 237.294288 260.813159 
L 229.817813 260.813159 
L 222.341338 260.813159 
L 214.864863 260.813159 
L 207.388388 260.813159 
L 199.911913 260.813159 
L 192.435438 260.813159 
L 184.958963 260.813159 
L 177.482488 260.813159 
L 170.006013 260.813159 
L 162.529538 260.813159 
L 155.053063 260.813159 
L 147.576588 260.813159 
L 140.100113 260.813159 
L 132.623638 260.813159 
L 125.147163 260.813159 
L 117.670688 260.813159 
L 110.194213 260.813159 
L 102.717738 260.813159 
L 95.241263 260.813159 
L 87.764788 260.813159 
L 80.288314 260.813159 
L 72.811839 260.813159 
L 65.335364 260.813159 
z
" clip-path="url(#p397a03fe54)" style="fill: #d62728; fill-opacity: 0.45"/>
   </g>
   <g id="PathCollection_4">
    <g clip-path="url(#p397a03fe54)">
     <use xlink:href="#m19e2cce087" x="65.335364" y="259.864099" style="fill-opacity: 0.7; stroke: #000000; stroke-opacity: 0.7"/>
     <use xlink:href="#m19e2cce087" x="98.639661" y="232.815626" style="fill-opacity: 0.7; stroke: #000000; stroke-opacity: 0.7"/>
     <use xlink:href="#m19e2cce087" x="135.644436" y="216.317689" style="fill-opacity: 0.7; stroke: #000000; stroke-opacity: 0.7"/>
     <use xlink:href="#m19e2cce087" x="172.649211" y="204.294449" style="fill-opacity: 0.7; stroke: #000000; stroke-opacity: 0.7"/>
     <use xlink:href="#m19e2cce087" x="209.653986" y="193.366724" style="fill-opacity: 0.7; stroke: #000000; stroke-opacity: 0.7"/>
     <use xlink:href="#m19e2cce087" x="246.658761" y="185.693751" style="fill-opacity: 0.7; stroke: #000000; stroke-opacity: 0.7"/>
     <use xlink:href="#m19e2cce087" x="283.663536" y="177.173368" style="fill-opacity: 0.7; stroke: #000000; stroke-opacity: 0.7"/>
     <use xlink:href="#m19e2cce087" x="320.668311" y="169.358711" style="fill-opacity: 0.7; stroke: #000000; stroke-opacity: 0.7"/>
     <use xlink:href="#m19e2cce087" x="357.673086" y="161.498273" style="fill-opacity: 0.7; stroke: #000000; stroke-opacity: 0.7"/>
     <use xlink:href="#m19e2cce087" x="394.677861" y="156.739196" style="fill-opacity: 0.7; stroke: #000000; stroke-opacity: 0.7"/>
     <use xlink:href="#m19e2cce087" x="431.682636" y="150.88358" style="fill-opacity: 0.7; stroke: #000000; stroke-opacity: 0.7"/>
    </g>
   </g>
   <g id="FillBetweenPolyCollection_5">
    <path d="M 65.335364 260.813159 
L 65.335364 260.813159 
L 72.811839 260.813159 
L 80.288314 260.813159 
L 87.764788 260.813159 
L 95.241263 260.813159 
L 102.717738 260.813159 
L 110.194213 260.813159 
L 117.670688 260.813159 
L 125.147163 260.813159 
L 132.623638 260.813159 
L 140.100113 260.813159 
L 147.576588 260.813159 
L 155.053063 260.813159 
L 162.529538 260.813159 
L 170.006013 260.813159 
L 177.482488 260.813159 
L 184.958963 260.813159 
L 192.435438 260.813159 
L 199.911913 260.813159 
L 207.388388 260.813159 
L 214.864863 260.813159 
L 222.341338 260.813159 
L 229.817813 260.813159 
L 237.294288 260.813159 
L 244.770763 260.813159 
L 252.247237 260.813159 
L 259.723712 260.813159 
L 267.200187 260.813159 
L 274.676662 260.813159 
L 282.153137 260.813159 
L 289.629612 260.813159 
L 297.106087 260.813159 
L 304.582562 260.813159 
L 312.059037 260.813159 
L 319.535512 260.813159 
L 327.011987 260.813159 
L 334.488462 260.813159 
L 341.964937 260.813159 
L 349.441412 260.813159 
L 356.917887 260.813159 
L 364.394362 260.813159 
L 371.870837 260.813159 
L 379.347312 260.813159 
L 386.823787 260.813159 
L 394.300262 260.813159 
L 401.776737 260.813159 
L 409.253212 260.813159 
L 416.729686 260.813159 
L 424.206161 260.813159 
L 431.682636 260.813159 
L 431.682636 260.813159 
L 431.682636 260.813159 
L 424.206161 260.813159 
L 416.729686 260.813159 
L 409.253212 260.813159 
L 401.776737 260.813159 
L 394.300262 260.813159 
L 386.823787 260.813159 
L 379.347312 260.813159 
L 371.870837 260.813159 
L 364.394362 260.813159 
L 356.917887 260.813159 
L 349.441412 260.813159 
L 341.964937 260.813159 
L 334.488462 260.813159 
L 327.011987 260.813159 
L 319.535512 260.813159 
L 312.059037 260.813159 
L 304.582562 260.813159 
L 297.106087 260.813159 
L 289.629612 260.813159 
L 282.153137 260.813159 
L 274.676662 260.813159 
L 267.200187 260.813159 
L 259.723712 260.813159 
L 252.247237 260.813159 
L 244.770763 260.813159 
L 237.294288 260.813159 
L 229.817813 260.813159 
L 222.341338 260.813159 
L 214.864863 260.813159 
L 207.388388 260.813159 
L 199.911913 260.813159 
L 192.435438 260.813159 
L 184.958963 260.813159 
L 177.482488 260.813159 
L 170.006013 260.813159 
L 162.529538 260.813159 
L 155.053063 260.813159 
L 147.576588 260.813159 
L 140.100113 260.813159 
L 132.623638 260.813159 
L 125.147163 260.813159 
L 117.670688 260.813159 
L 110.194213 260.813159 
L 102.717738 260.813159 
L 95.241263 260.813159 
L 87.764788 260.813159 
L 80.288314 260.813159 
L 72.811839 260.813159 
L 65.335364 260.813159 
z
" clip-path="url(#p397a03fe54)" style="fill: #9467bd; fill-opacity: 0.45"/>
   </g>
   <g id="PathCollection_5">
    <g clip-path="url(#p397a03fe54)">
     <use xlink:href="#m19e2cce087" x="65.335364" y="270.417544" style="fill-opacity: 0.7; stroke: #000000; stroke-opacity: 0.7"/>
     <use xlink:href="#m19e2cce087" x="98.639661" y="246.755753" style="fill-opacity: 0.7; stroke: #000000; stroke-opacity: 0.7"/>
     <use xlink:href="#m19e2cce087" x="135.644436" y="234.241405" style="fill-opacity: 0.7; stroke: #000000; stroke-opacity: 0.7"/>
     <use xlink:href="#m19e2cce087" x="172.649211" y="223.264599" style="fill-opacity: 0.7; stroke: #000000; stroke-opacity: 0.7"/>
     <use xlink:href="#m19e2cce087" x="209.653986" y="217.026892" style="fill-opacity: 0.7; stroke: #000000; stroke-opacity: 0.7"/>
     <use xlink:href="#m19e2cce087" x="246.658761" y="207.819545" style="fill-opacity: 0.7; stroke: #000000; stroke-opacity: 0.7"/>
     <use xlink:href="#m19e2cce087" x="283.663536" y="201.344616" style="fill-opacity: 0.7; stroke: #000000; stroke-opacity: 0.7"/>
     <use xlink:href="#m19e2cce087" x="320.668311" y="196.944566" style="fill-opacity: 0.7; stroke: #000000; stroke-opacity: 0.7"/>
     <use xlink:href="#m19e2cce087" x="357.673086" y="190.370024" style="fill-opacity: 0.7; stroke: #000000; stroke-opacity: 0.7"/>
     <use xlink:href="#m19e2cce087" x="394.677861" y="184.475387" style="fill-opacity: 0.7; stroke: #000000; stroke-opacity: 0.7"/>
     <use xlink:href="#m19e2cce087" x="431.682636" y="180.289382" style="fill-opacity: 0.7; stroke: #000000; stroke-opacity: 0.7"/>
    </g>
   </g>
   <g id="FillBetweenPolyCollection_6">
    <path d="M 65.335364 260.813159 
L 65.335364 260.813159 
L 72.811839 260.813159 
L 80.288314 260.813159 
L 87.764788 260.813159 
L 95.241263 260.813159 
L 102.717738 260.813159 
L 110.194213 260.813159 
L 117.670688 260.813159 
L 125.147163 260.813159 
L 132.623638 260.813159 
L 140.100113 260.813159 
L 147.576588 260.813159 
L 155.053063 260.813159 
L 162.529538 260.813159 
L 170.006013 260.813159 
L 177.482488 260.813159 
L 184.958963 260.813159 
L 192.435438 260.813159 
L 199.911913 260.813159 
L 207.388388 260.813159 
L 214.864863 260.813159 
L 222.341338 260.813159 
L 229.817813 260.813159 
L 237.294288 260.813159 
L 244.770763 260.813159 
L 252.247237 260.813159 
L 259.723712 260.813159 
L 267.200187 260.813159 
L 274.676662 260.813159 
L 282.153137 260.813159 
L 289.629612 260.813159 
L 297.106087 260.813159 
L 304.582562 260.813159 
L 312.059037 260.813159 
L 319.535512 260.813159 
L 327.011987 260.813159 
L 334.488462 260.813159 
L 341.964937 260.813159 
L 349.441412 260.813159 
L 356.917887 260.813159 
L 364.394362 260.813159 
L 371.870837 260.813159 
L 379.347312 260.813159 
L 386.823787 260.813159 
L 394.300262 260.813159 
L 401.776737 260.813159 
L 409.253212 260.813159 
L 416.729686 260.813159 
L 424.206161 260.813159 
L 431.682636 260.813159 
L 431.682636 260.813159 
L 431.682636 260.813159 
L 424.206161 260.813159 
L 416.729686 260.813159 
L 409.253212 260.813159 
L 401.776737 260.813159 
L 394.300262 260.813159 
L 386.823787 260.813159 
L 379.347312 260.813159 
L 371.870837 260.813159 
L 364.394362 260.813159 
L 356.917887 260.813159 
L 349.441412 260.813159 
L 341.964937 260.813159 
L 334.488462 260.813159 
L 327.011987 260.813159 
L 319.535512 260.813159 
L 312.059037 260.813159 
L 304.582562 260.813159 
L 297.106087 260.813159 
L 289.629612 260.813159 
L 282.153137 260.813159 
L 274.676662 260.813159 
L 267.200187 260.813159 
L 259.723712 260.813159 
L 252.247237 260.813159 
L 244.770763 260.813159 
L 237.294288 260.813159 
L 229.817813 260.813159 
L 222.341338 260.813159 
L 214.864863 260.813159 
L 207.388388 260.813159 
L 199.911913 260.813159 
L 192.435438 260.813159 
L 184.958963 260.813159 
L 177.482488 260.813159 
L 170.006013 260.813159 
L 162.529538 260.813159 
L 155.053063 260.813159 
L 147.576588 260.813159 
L 140.100113 260.813159 
L 132.623638 260.813159 
L 125.147163 260.813159 
L 117.670688 260.813159 
L 110.194213 260.813159 
L 102.717738 260.813159 
L 95.241263 260.813159 
L 87.764788 260.813159 
L 80.288314 260.813159 
L 72.811839 260.813159 
L 65.335364 260.813159 
z
" clip-path="url(#p397a03fe54)" style="fill: #8c564b; fill-opacity: 0.45"/>
   </g>
   <g id="PathCollection_6">
    <g clip-path="url(#p397a03fe54)">
     <use xlink:href="#m19e2cce087" x="65.335364" y="277.302077" style="fill-opacity: 0.7; stroke: #000000; stroke-opacity: 0.7"/>
     <use xlink:href="#m19e2cce087" x="98.639661" y="258.312605" style="fill-opacity: 0.7; stroke: #000000; stroke-opacity: 0.7"/>
     <use xlink:href="#m19e2cce087" x="135.644436" y="249.226316" style="fill-opacity: 0.7; stroke: #000000; stroke-opacity: 0.7"/>
     <use xlink:href="#m19e2cce087" x="172.649211" y="241.742564" style="fill-opacity: 0.7; stroke: #000000; stroke-opacity: 0.7"/>
     <use xlink:href="#m19e2cce087" x="209.653986" y="235.520281" style="fill-opacity: 0.7; stroke: #000000; stroke-opacity: 0.7"/>
     <use xlink:href="#m19e2cce087" x="246.658761" y="228.879241" style="fill-opacity: 0.7; stroke: #000000; stroke-opacity: 0.7"/>
     <use xlink:href="#m19e2cce087" x="283.663536" y="224.276405" style="fill-opacity: 0.7; stroke: #000000; stroke-opacity: 0.7"/>
     <use xlink:href="#m19e2cce087" x="320.668311" y="219.545769" style="fill-opacity: 0.7; stroke: #000000; stroke-opacity: 0.7"/>
     <use xlink:href="#m19e2cce087" x="357.673086" y="215.117712" style="fill-opacity: 0.7; stroke: #000000; stroke-opacity: 0.7"/>
     <use xlink:href="#m19e2cce087" x="394.677861" y="210.523694" style="fill-opacity: 0.7; stroke: #000000; stroke-opacity: 0.7"/>
     <use xlink:href="#m19e2cce087" x="431.682636" y="207.758166" style="fill-opacity: 0.7; stroke: #000000; stroke-opacity: 0.7"/>
    </g>
   </g>
   <g id="FillBetweenPolyCollection_7">
    <path d="M 65.335364 260.813159 
L 65.335364 260.813159 
L 72.811839 260.813159 
L 80.288314 260.813159 
L 87.764788 260.813159 
L 95.241263 260.813159 
L 102.717738 260.813159 
L 110.194213 260.813159 
L 117.670688 260.813159 
L 125.147163 260.813159 
L 132.623638 260.813159 
L 140.100113 260.813159 
L 147.576588 260.813159 
L 155.053063 260.813159 
L 162.529538 260.813159 
L 170.006013 260.813159 
L 177.482488 260.813159 
L 184.958963 260.813159 
L 192.435438 260.813159 
L 199.911913 260.813159 
L 207.388388 260.813159 
L 214.864863 260.813159 
L 222.341338 260.813159 
L 229.817813 260.813159 
L 237.294288 260.813159 
L 244.770763 260.813159 
L 252.247237 260.813159 
L 259.723712 260.813159 
L 267.200187 260.813159 
L 274.676662 260.813159 
L 282.153137 260.813159 
L 289.629612 260.813159 
L 297.106087 260.813159 
L 304.582562 260.813159 
L 312.059037 260.813159 
L 319.535512 260.813159 
L 327.011987 260.813159 
L 334.488462 260.813159 
L 341.964937 260.813159 
L 349.441412 260.813159 
L 356.917887 260.813159 
L 364.394362 260.813159 
L 371.870837 260.813159 
L 379.347312 260.813159 
L 386.823787 260.813159 
L 394.300262 260.813159 
L 401.776737 260.813159 
L 409.253212 260.813159 
L 416.729686 260.813159 
L 424.206161 260.813159 
L 431.682636 260.813159 
L 431.682636 260.813159 
L 431.682636 260.813159 
L 424.206161 260.813159 
L 416.729686 260.813159 
L 409.253212 260.813159 
L 401.776737 260.813159 
L 394.300262 260.813159 
L 386.823787 260.813159 
L 379.347312 260.813159 
L 371.870837 260.813159 
L 364.394362 260.813159 
L 356.917887 260.813159 
L 349.441412 260.813159 
L 341.964937 260.813159 
L 334.488462 260.813159 
L 327.011987 260.813159 
L 319.535512 260.813159 
L 312.059037 260.813159 
L 304.582562 260.813159 
L 297.106087 260.813159 
L 289.629612 260.813159 
L 282.153137 260.813159 
L 274.676662 260.813159 
L 267.200187 260.813159 
L 259.723712 260.813159 
L 252.247237 260.813159 
L 244.770763 260.813159 
L 237.294288 260.813159 
L 229.817813 260.813159 
L 222.341338 260.813159 
L 214.864863 260.813159 
L 207.388388 260.813159 
L 199.911913 260.813159 
L 192.435438 260.813159 
L 184.958963 260.813159 
L 177.482488 260.813159 
L 170.006013 260.813159 
L 162.529538 260.813159 
L 155.053063 260.813159 
L 147.576588 260.813159 
L 140.100113 260.813159 
L 132.623638 260.813159 
L 125.147163 260.813159 
L 117.670688 260.813159 
L 110.194213 260.813159 
L 102.717738 260.813159 
L 95.241263 260.813159 
L 87.764788 260.813159 
L 80.288314 260.813159 
L 72.811839 260.813159 
L 65.335364 260.813159 
z
" clip-path="url(#p397a03fe54)" style="fill: #e377c2; fill-opacity: 0.45"/>
   </g>
   <g id="PathCollection_7">
    <g clip-path="url(#p397a03fe54)">
     <use xlink:href="#m19e2cce087" x="65.335364" y="285.510219" style="fill-opacity: 0.7; stroke: #000000; stroke-opacity: 0.7"/>
     <use xlink:href="#m19e2cce087" x="98.639661" y="272.351396" style="fill-opacity: 0.7; stroke: #000000; stroke-opacity: 0.7"/>
     <use xlink:href="#m19e2cce087" x="135.644436" y="262.148328" style="fill-opacity: 0.7; stroke: #000000; stroke-opacity: 0.7"/>
     <use xlink:href="#m19e2cce087" x="172.649211" y="256.974068" style="fill-opacity: 0.7; stroke: #000000; stroke-opacity: 0.7"/>
     <use xlink:href="#m19e2cce087" x="209.653986" y="251.119842" style="fill-opacity: 0.7; stroke: #000000; stroke-opacity: 0.7"/>
     <use xlink:href="#m19e2cce087" x="246.658761" y="247.791619" style="fill-opacity: 0.7; stroke: #000000; stroke-opacity: 0.7"/>
     <use xlink:href="#m19e2cce087" x="283.663536" y="244.385619" style="fill-opacity: 0.7; stroke: #000000; stroke-opacity: 0.7"/>
     <use xlink:href="#m19e2cce087" x="320.668311" y="240.039308" style="fill-opacity: 0.7; stroke: #000000; stroke-opacity: 0.7"/>
     <use xlink:href="#m19e2cce087" x="357.673086" y="237.095903" style="fill-opacity: 0.7; stroke: #000000; stroke-opacity: 0.7"/>
     <use xlink:href="#m19e2cce087" x="394.677861" y="234.762668" style="fill-opacity: 0.7; stroke: #000000; stroke-opacity: 0.7"/>
     <use xlink:href="#m19e2cce087" x="431.682636" y="231.60111" style="fill-opacity: 0.7; stroke: #000000; stroke-opacity: 0.7"/>
    </g>
   </g>
   <g id="FillBetweenPolyCollection_8">
    <path d="M 65.335364 260.813159 
L 65.335364 260.813159 
L 72.811839 260.813159 
L 80.288314 260.813159 
L 87.764788 260.813159 
L 95.241263 260.813159 
L 102.717738 260.813159 
L 110.194213 260.813159 
L 117.670688 260.813159 
L 125.147163 260.813159 
L 132.623638 260.813159 
L 140.100113 260.813159 
L 147.576588 260.813159 
L 155.053063 260.813159 
L 162.529538 260.813159 
L 170.006013 260.813159 
L 177.482488 260.813159 
L 184.958963 260.813159 
L 192.435438 260.813159 
L 199.911913 260.813159 
L 207.388388 260.813159 
L 214.864863 260.813159 
L 222.341338 260.813159 
L 229.817813 260.813159 
L 237.294288 260.813159 
L 244.770763 260.813159 
L 252.247237 260.813159 
L 259.723712 260.813159 
L 267.200187 260.813159 
L 274.676662 260.813159 
L 282.153137 260.813159 
L 289.629612 260.813159 
L 297.106087 260.813159 
L 304.582562 260.813159 
L 312.059037 260.813159 
L 319.535512 260.813159 
L 327.011987 260.813159 
L 334.488462 260.813159 
L 341.964937 260.813159 
L 349.441412 260.813159 
L 356.917887 260.813159 
L 364.394362 260.813159 
L 371.870837 260.813159 
L 379.347312 260.813159 
L 386.823787 260.813159 
L 394.300262 260.813159 
L 401.776737 260.813159 
L 409.253212 260.813159 
L 416.729686 260.813159 
L 424.206161 260.813159 
L 431.682636 260.813159 
L 431.682636 260.813159 
L 431.682636 260.813159 
L 424.206161 260.813159 
L 416.729686 260.813159 
L 409.253212 260.813159 
L 401.776737 260.813159 
L 394.300262 260.813159 
L 386.823787 260.813159 
L 379.347312 260.813159 
L 371.870837 260.813159 
L 364.394362 260.813159 
L 356.917887 260.813159 
L 349.441412 260.813159 
L 341.964937 260.813159 
L 334.488462 260.813159 
L 327.011987 260.813159 
L 319.535512 260.813159 
L 312.059037 260.813159 
L 304.582562 260.813159 
L 297.106087 260.813159 
L 289.629612 260.813159 
L 282.153137 260.813159 
L 274.676662 260.813159 
L 267.200187 260.813159 
L 259.723712 260.813159 
L 252.247237 260.813159 
L 244.770763 260.813159 
L 237.294288 260.813159 
L 229.817813 260.813159 
L 222.341338 260.813159 
L 214.864863 260.813159 
L 207.388388 260.813159 
L 199.911913 260.813159 
L 192.435438 260.813159 
L 184.958963 260.813159 
L 177.482488 260.813159 
L 170.006013 260.813159 
L 162.529538 260.813159 
L 155.053063 260.813159 
L 147.576588 260.813159 
L 140.100113 260.813159 
L 132.623638 260.813159 
L 125.147163 260.813159 
L 117.670688 260.813159 
L 110.194213 260.813159 
L 102.717738 260.813159 
L 95.241263 260.813159 
L 87.764788 260.813159 
L 80.288314 260.813159 
L 72.811839 260.813159 
L 65.335364 260.813159 
z
" clip-path="url(#p397a03fe54)" style="fill: #7f7f7f; fill-opacity: 0.45"/>
   </g>
   <g id="PathCollection_8">
    <g clip-path="url(#p397a03fe54)">
     <use xlink:href="#m19e2cce087" x="65.335364" y="288.954545" style="fill-opacity: 0.7; stroke: #000000; stroke-opacity: 0.7"/>
     <use xlink:href="#m19e2cce087" x="98.639661" y="280.229196" style="fill-opacity: 0.7; stroke: #000000; stroke-opacity: 0.7"/>
     <use xlink:href="#m19e2cce087" x="135.644436" y="274.714801" style="fill-opacity: 0.7; stroke: #000000; stroke-opacity: 0.7"/>
     <use xlink:href="#m19e2cce087" x="172.649211" y="271.044342" style="fill-opacity: 0.7; stroke: #000000; stroke-opacity: 0.7"/>
     <use xlink:href="#m19e2cce087" x="209.653986" y="267.873029" style="fill-opacity: 0.7; stroke: #000000; stroke-opacity: 0.7"/>
     <use xlink:href="#m19e2cce087" x="246.658761" y="263.83842" style="fill-opacity: 0.7; stroke: #000000; stroke-opacity: 0.7"/>
     <use xlink:href="#m19e2cce087" x="283.663536" y="261.771991" style="fill-opacity: 0.7; stroke: #000000; stroke-opacity: 0.7"/>
     <use xlink:href="#m19e2cce087" x="320.668311" y="259.710029" style="fill-opacity: 0.7; stroke: #000000; stroke-opacity: 0.7"/>
     <use xlink:href="#m19e2cce087" x="357.673086" y="256.997683" style="fill-opacity: 0.7; stroke: #000000; stroke-opacity: 0.7"/>
     <use xlink:href="#m19e2cce087" x="394.677861" y="255.333367" style="fill-opacity: 0.7; stroke: #000000; stroke-opacity: 0.7"/>
     <use xlink:href="#m19e2cce087" x="431.682636" y="252.581244" style="fill-opacity: 0.7; stroke: #000000; stroke-opacity: 0.7"/>
    </g>
   </g>
   <g id="matplotlib.axis_1">
    <g id="xtick_1">
     <g id="line2d_1">
      <defs>
       <path id="mf7f005fd96" d="M 0 0 
L 0 3.5 
" style="stroke: #000000; stroke-width: 0.8"/>
      </defs>
      <g>
       <use xlink:href="#mf7f005fd96" x="61.634886" y="302.2" style="stroke: #000000; stroke-width: 0.8"/>
      </g>
     </g>
     <g id="text_1">
      <!-- 0 -->
      <g transform="translate(58.453636 316.798437) scale(0.1 -0.1)">
       <defs>
        <path id="DejaVuSans-30" d="M 2034 4250 
Q 1547 4250 1301 3770 
Q 1056 3291 1056 2328 
Q 1056 1369 1301 889 
Q 1547 409 2034 409 
Q 2525 409 2770 889 
Q 3016 1369 3016 2328 
Q 3016 3291 2770 3770 
Q 2525 4250 2034 4250 
z
M 2034 4750 
Q 2819 4750 3233 4129 
Q 3647 3509 3647 2328 
Q 3647 1150 3233 529 
Q 2819 -91 2034 -91 
Q 1250 -91 836 529 
Q 422 1150 422 2328 
Q 422 3509 836 4129 
Q 1250 4750 2034 4750 
z
" transform="scale(0.015625)"/>
       </defs>
       <use xlink:href="#DejaVuSans-30"/>
      </g>
     </g>
    </g>
    <g id="xtick_2">
     <g id="line2d_2">
      <g>
       <use xlink:href="#mf7f005fd96" x="135.644436" y="302.2" style="stroke: #000000; stroke-width: 0.8"/>
      </g>
     </g>
     <g id="text_2">
      <!-- 1 -->
      <g transform="translate(132.463186 316.798437) scale(0.1 -0.1)">
       <defs>
        <path id="DejaVuSans-31" d="M 794 531 
L 1825 531 
L 1825 4091 
L 703 3866 
L 703 4441 
L 1819 4666 
L 2450 4666 
L 2450 531 
L 3481 531 
L 3481 0 
L 794 0 
L 794 531 
z
" transform="scale(0.015625)"/>
       </defs>
       <use xlink:href="#DejaVuSans-31"/>
      </g>
     </g>
    </g>
    <g id="xtick_3">
     <g id="line2d_3">
      <g>
       <use xlink:href="#mf7f005fd96" x="209.653986" y="302.2" style="stroke: #000000; stroke-width: 0.8"/>
      </g>
     </g>
     <g id="text_3">
      <!-- 2 -->
      <g transform="translate(206.472736 316.798437) scale(0.1 -0.1)">
       <defs>
        <path id="DejaVuSans-32" d="M 1228 531 
L 3431 531 
L 3431 0 
L 469 0 
L 469 531 
Q 828 903 1448 1529 
Q 2069 2156 2228 2338 
Q 2531 2678 2651 2914 
Q 2772 3150 2772 3378 
Q 2772 3750 2511 3984 
Q 2250 4219 1831 4219 
Q 1534 4219 1204 4116 
Q 875 4013 500 3803 
L 500 4441 
Q 881 4594 1212 4672 
Q 1544 4750 1819 4750 
Q 2544 4750 2975 4387 
Q 3406 4025 3406 3419 
Q 3406 3131 3298 2873 
Q 3191 2616 2906 2266 
Q 2828 2175 2409 1742 
Q 1991 1309 1228 531 
z
" transform="scale(0.015625)"/>
       </defs>
       <use xlink:href="#DejaVuSans-32"/>
      </g>
     </g>
    </g>
    <g id="xtick_4">
     <g id="line2d_4">
      <g>
       <use xlink:href="#mf7f005fd96" x="283.663536" y="302.2" style="stroke: #000000; stroke-width: 0.8"/>
      </g>
     </g>
     <g id="text_4">
      <!-- 3 -->
      <g transform="translate(280.482286 316.798437) scale(0.1 -0.1)">
       <defs>
        <path id="DejaVuSans-33" d="M 2597 2516 
Q 3050 2419 3304 2112 
Q 3559 1806 3559 1356 
Q 3559 666 3084 287 
Q 2609 -91 1734 -91 
Q 1441 -91 1130 -33 
Q 819 25 488 141 
L 488 750 
Q 750 597 1062 519 
Q 1375 441 1716 441 
Q 2309 441 2620 675 
Q 2931 909 2931 1356 
Q 2931 1769 2642 2001 
Q 2353 2234 1838 2234 
L 1294 2234 
L 1294 2753 
L 1863 2753 
Q 2328 2753 2575 2939 
Q 2822 3125 2822 3475 
Q 2822 3834 2567 4026 
Q 2313 4219 1838 4219 
Q 1578 4219 1281 4162 
Q 984 4106 628 3988 
L 628 4550 
Q 988 4650 1302 4700 
Q 1616 4750 1894 4750 
Q 2613 4750 3031 4423 
Q 3450 4097 3450 3541 
Q 3450 3153 3228 2886 
Q 3006 2619 2597 2516 
z
" transform="scale(0.015625)"/>
       </defs>
       <use xlink:href="#DejaVuSans-33"/>
      </g>
     </g>
    </g>
    <g id="xtick_5">
     <g id="line2d_5">
      <g>
       <use xlink:href="#mf7f005fd96" x="357.673086" y="302.2" style="stroke: #000000; stroke-width: 0.8"/>
      </g>
     </g>
     <g id="text_5">
      <!-- 4 -->
      <g transform="translate(354.491836 316.798437) scale(0.1 -0.1)">
       <defs>
        <path id="DejaVuSans-34" d="M 2419 4116 
L 825 1625 
L 2419 1625 
L 2419 4116 
z
M 2253 4666 
L 3047 4666 
L 3047 1625 
L 3713 1625 
L 3713 1100 
L 3047 1100 
L 3047 0 
L 2419 0 
L 2419 1100 
L 313 1100 
L 313 1709 
L 2253 4666 
z
" transform="scale(0.015625)"/>
       </defs>
       <use xlink:href="#DejaVuSans-34"/>
      </g>
     </g>
    </g>
    <g id="xtick_6">
     <g id="line2d_6">
      <g>
       <use xlink:href="#mf7f005fd96" x="431.682636" y="302.2" style="stroke: #000000; stroke-width: 0.8"/>
      </g>
     </g>
     <g id="text_6">
      <!-- 5 -->
      <g transform="translate(428.501386 316.798437) scale(0.1 -0.1)">
       <defs>
        <path id="DejaVuSans-35" d="M 691 4666 
L 3169 4666 
L 3169 4134 
L 1269 4134 
L 1269 2991 
Q 1406 3038 1543 3061 
Q 1681 3084 1819 3084 
Q 2600 3084 3056 2656 
Q 3513 2228 3513 1497 
Q 3513 744 3044 326 
Q 2575 -91 1722 -91 
Q 1428 -91 1123 -41 
Q 819 9 494 109 
L 494 744 
Q 775 591 1075 516 
Q 1375 441 1709 441 
Q 2250 441 2565 725 
Q 2881 1009 2881 1497 
Q 2881 1984 2565 2268 
Q 2250 2553 1709 2553 
Q 1456 2553 1204 2497 
Q 953 2441 691 2322 
L 691 4666 
z
" transform="scale(0.015625)"/>
       </defs>
       <use xlink:href="#DejaVuSans-35"/>
      </g>
     </g>
    </g>
    <g id="text_7">
     <!-- $W$ (m/hour) -->
     <g transform="translate(220.059 330.476562) scale(0.1 -0.1)">
      <defs>
       <path id="DejaVuSans-Oblique-57" d="M 616 4666 
L 1228 4666 
L 1453 697 
L 3213 4666 
L 3916 4666 
L 4147 697 
L 5888 4666 
L 6528 4666 
L 4453 0 
L 3659 0 
L 3444 3891 
L 1697 0 
L 903 0 
L 616 4666 
z
" transform="scale(0.015625)"/>
       <path id="DejaVuSans-20" transform="scale(0.015625)"/>
       <path id="DejaVuSans-28" d="M 1984 4856 
Q 1566 4138 1362 3434 
Q 1159 2731 1159 2009 
Q 1159 1288 1364 580 
Q 1569 -128 1984 -844 
L 1484 -844 
Q 1016 -109 783 600 
Q 550 1309 550 2009 
Q 550 2706 781 3412 
Q 1013 4119 1484 4856 
L 1984 4856 
z
" transform="scale(0.015625)"/>
       <path id="DejaVuSans-6d" d="M 3328 2828 
Q 3544 3216 3844 3400 
Q 4144 3584 4550 3584 
Q 5097 3584 5394 3201 
Q 5691 2819 5691 2113 
L 5691 0 
L 5113 0 
L 5113 2094 
Q 5113 2597 4934 2840 
Q 4756 3084 4391 3084 
Q 3944 3084 3684 2787 
Q 3425 2491 3425 1978 
L 3425 0 
L 2847 0 
L 2847 2094 
Q 2847 2600 2669 2842 
Q 2491 3084 2119 3084 
Q 1678 3084 1418 2786 
Q 1159 2488 1159 1978 
L 1159 0 
L 581 0 
L 581 3500 
L 1159 3500 
L 1159 2956 
Q 1356 3278 1631 3431 
Q 1906 3584 2284 3584 
Q 2666 3584 2933 3390 
Q 3200 3197 3328 2828 
z
" transform="scale(0.015625)"/>
       <path id="DejaVuSans-2f" d="M 1625 4666 
L 2156 4666 
L 531 -594 
L 0 -594 
L 1625 4666 
z
" transform="scale(0.015625)"/>
       <path id="DejaVuSans-68" d="M 3513 2113 
L 3513 0 
L 2938 0 
L 2938 2094 
Q 2938 2591 2744 2837 
Q 2550 3084 2163 3084 
Q 1697 3084 1428 2787 
Q 1159 2491 1159 1978 
L 1159 0 
L 581 0 
L 581 4863 
L 1159 4863 
L 1159 2956 
Q 1366 3272 1645 3428 
Q 1925 3584 2291 3584 
Q 2894 3584 3203 3211 
Q 3513 2838 3513 2113 
z
" transform="scale(0.015625)"/>
       <path id="DejaVuSans-6f" d="M 1959 3097 
Q 1497 3097 1228 2736 
Q 959 2375 959 1747 
Q 959 1119 1226 758 
Q 1494 397 1959 397 
Q 2419 397 2687 759 
Q 2956 1122 2956 1747 
Q 2956 2369 2687 2733 
Q 2419 3097 1959 3097 
z
M 1959 3584 
Q 2709 3584 3137 3096 
Q 3566 2609 3566 1747 
Q 3566 888 3137 398 
Q 2709 -91 1959 -91 
Q 1206 -91 779 398 
Q 353 888 353 1747 
Q 353 2609 779 3096 
Q 1206 3584 1959 3584 
z
" transform="scale(0.015625)"/>
       <path id="DejaVuSans-75" d="M 544 1381 
L 544 3500 
L 1119 3500 
L 1119 1403 
Q 1119 906 1312 657 
Q 1506 409 1894 409 
Q 2359 409 2629 706 
Q 2900 1003 2900 1516 
L 2900 3500 
L 3475 3500 
L 3475 0 
L 2900 0 
L 2900 538 
Q 2691 219 2414 64 
Q 2138 -91 1772 -91 
Q 1169 -91 856 284 
Q 544 659 544 1381 
z
M 1991 3584 
L 1991 3584 
z
" transform="scale(0.015625)"/>
       <path id="DejaVuSans-72" d="M 2631 2963 
Q 2534 3019 2420 3045 
Q 2306 3072 2169 3072 
Q 1681 3072 1420 2755 
Q 1159 2438 1159 1844 
L 1159 0 
L 581 0 
L 581 3500 
L 1159 3500 
L 1159 2956 
Q 1341 3275 1631 3429 
Q 1922 3584 2338 3584 
Q 2397 3584 2469 3576 
Q 2541 3569 2628 3553 
L 2631 2963 
z
" transform="scale(0.015625)"/>
       <path id="DejaVuSans-29" d="M 513 4856 
L 1013 4856 
Q 1481 4119 1714 3412 
Q 1947 2706 1947 2009 
Q 1947 1309 1714 600 
Q 1481 -109 1013 -844 
L 513 -844 
Q 928 -128 1133 580 
Q 1338 1288 1338 2009 
Q 1338 2731 1133 3434 
Q 928 4138 513 4856 
z
" transform="scale(0.015625)"/>
      </defs>
      <use xlink:href="#DejaVuSans-Oblique-57" transform="translate(0 0.015625)"/>
      <use xlink:href="#DejaVuSans-20" transform="translate(98.876953 0.015625)"/>
      <use xlink:href="#DejaVuSans-28" transform="translate(130.664062 0.015625)"/>
      <use xlink:href="#DejaVuSans-6d" transform="translate(169.677734 0.015625)"/>
      <use xlink:href="#DejaVuSans-2f" transform="translate(267.089844 0.015625)"/>
      <use xlink:href="#DejaVuSans-68" transform="translate(300.78125 0.015625)"/>
      <use xlink:href="#DejaVuSans-6f" transform="translate(364.160156 0.015625)"/>
      <use xlink:href="#DejaVuSans-75" transform="translate(425.341797 0.015625)"/>
      <use xlink:href="#DejaVuSans-72" transform="translate(488.720703 0.015625)"/>
      <use xlink:href="#DejaVuSans-29" transform="translate(529.833984 0.015625)"/>
     </g>
    </g>
   </g>
   <g id="matplotlib.axis_2">
    <g id="ytick_1">
     <g id="line2d_7">
      <defs>
       <path id="m1a824da566" d="M 0 0 
L -3.5 0 
" style="stroke: #000000; stroke-width: 0.8"/>
      </defs>
      <g>
       <use xlink:href="#m1a824da566" x="47.018" y="301.569103" style="stroke: #000000; stroke-width: 0.8"/>
      </g>
     </g>
     <g id="text_8">
      <!-- 0 -->
      <g transform="translate(33.6555 305.368322) scale(0.1 -0.1)">
       <use xlink:href="#DejaVuSans-30"/>
      </g>
     </g>
    </g>
    <g id="ytick_2">
     <g id="line2d_8">
      <g>
       <use xlink:href="#m1a824da566" x="47.018" y="236.859758" style="stroke: #000000; stroke-width: 0.8"/>
      </g>
     </g>
     <g id="text_9">
      <!-- 10 -->
      <g transform="translate(27.293 240.658977) scale(0.1 -0.1)">
       <use xlink:href="#DejaVuSans-31"/>
       <use xlink:href="#DejaVuSans-30" transform="translate(63.623047 0)"/>
      </g>
     </g>
    </g>
    <g id="ytick_3">
     <g id="line2d_9">
      <g>
       <use xlink:href="#m1a824da566" x="47.018" y="172.150413" style="stroke: #000000; stroke-width: 0.8"/>
      </g>
     </g>
     <g id="text_10">
      <!-- 20 -->
      <g transform="translate(27.293 175.949632) scale(0.1 -0.1)">
       <use xlink:href="#DejaVuSans-32"/>
       <use xlink:href="#DejaVuSans-30" transform="translate(63.623047 0)"/>
      </g>
     </g>
    </g>
    <g id="ytick_4">
     <g id="line2d_10">
      <g>
       <use xlink:href="#m1a824da566" x="47.018" y="107.441068" style="stroke: #000000; stroke-width: 0.8"/>
      </g>
     </g>
     <g id="text_11">
      <!-- 30 -->
      <g transform="translate(27.293 111.240287) scale(0.1 -0.1)">
       <use xlink:href="#DejaVuSans-33"/>
       <use xlink:href="#DejaVuSans-30" transform="translate(63.623047 0)"/>
      </g>
     </g>
    </g>
    <g id="ytick_5">
     <g id="line2d_11">
      <g>
       <use xlink:href="#m1a824da566" x="47.018" y="42.731723" style="stroke: #000000; stroke-width: 0.8"/>
      </g>
     </g>
     <g id="text_12">
      <!-- 40 -->
      <g transform="translate(27.293 46.530942) scale(0.1 -0.1)">
       <use xlink:href="#DejaVuSans-34"/>
       <use xlink:href="#DejaVuSans-30" transform="translate(63.623047 0)"/>
      </g>
     </g>
    </g>
    <g id="text_13">
     <!-- $Q_{lc}$ (kW) -->
     <g transform="translate(21.213312 176.8) rotate(-90) scale(0.1 -0.1)">
      <defs>
       <path id="DejaVuSans-Oblique-51" d="M 2309 -84 
Q 2275 -88 2237 -89 
Q 2200 -91 2125 -91 
Q 1250 -91 756 411 
Q 263 913 263 1797 
Q 263 2319 452 2844 
Q 641 3369 978 3788 
Q 1369 4269 1858 4509 
Q 2347 4750 2938 4750 
Q 3794 4750 4287 4245 
Q 4781 3741 4781 2869 
Q 4781 1928 4265 1147 
Q 3750 366 2919 44 
L 3553 -825 
L 2847 -825 
L 2309 -84 
z
M 2919 4238 
Q 2400 4238 2003 3986 
Q 1606 3734 1313 3219 
Q 1125 2891 1026 2522 
Q 928 2153 928 1778 
Q 928 1128 1239 775 
Q 1550 422 2119 422 
Q 2631 422 3032 676 
Q 3434 931 3719 1434 
Q 3909 1772 4009 2142 
Q 4109 2513 4109 2881 
Q 4109 3528 3796 3883 
Q 3484 4238 2919 4238 
z
" transform="scale(0.015625)"/>
       <path id="DejaVuSans-Oblique-6c" d="M 1172 4863 
L 1747 4863 
L 800 0 
L 225 0 
L 1172 4863 
z
" transform="scale(0.015625)"/>
       <path id="DejaVuSans-Oblique-63" d="M 3431 3366 
L 3316 2797 
Q 3109 2947 2876 3022 
Q 2644 3097 2394 3097 
Q 2119 3097 1870 3000 
Q 1622 2903 1453 2725 
Q 1184 2453 1037 2087 
Q 891 1722 891 1331 
Q 891 859 1127 628 
Q 1363 397 1844 397 
Q 2081 397 2348 469 
Q 2616 541 2906 684 
L 2797 116 
Q 2547 13 2283 -39 
Q 2019 -91 1741 -91 
Q 1044 -91 669 257 
Q 294 606 294 1253 
Q 294 1797 489 2255 
Q 684 2713 1069 3078 
Q 1331 3328 1684 3456 
Q 2038 3584 2456 3584 
Q 2700 3584 2940 3529 
Q 3181 3475 3431 3366 
z
" transform="scale(0.015625)"/>
       <path id="DejaVuSans-6b" d="M 581 4863 
L 1159 4863 
L 1159 1991 
L 2875 3500 
L 3609 3500 
L 1753 1863 
L 3688 0 
L 2938 0 
L 1159 1709 
L 1159 0 
L 581 0 
L 581 4863 
z
" transform="scale(0.015625)"/>
       <path id="DejaVuSans-57" d="M 213 4666 
L 850 4666 
L 1831 722 
L 2809 4666 
L 3519 4666 
L 4500 722 
L 5478 4666 
L 6119 4666 
L 4947 0 
L 4153 0 
L 3169 4050 
L 2175 0 
L 1381 0 
L 213 4666 
z
" transform="scale(0.015625)"/>
      </defs>
      <use xlink:href="#DejaVuSans-Oblique-51" transform="translate(0 0.015625)"/>
      <use xlink:href="#DejaVuSans-Oblique-6c" transform="translate(78.710938 -16.390625) scale(0.7)"/>
      <use xlink:href="#DejaVuSans-Oblique-63" transform="translate(98.15918 -16.390625) scale(0.7)"/>
      <use xlink:href="#DejaVuSans-20" transform="translate(139.379883 0.015625)"/>
      <use xlink:href="#DejaVuSans-28" transform="translate(171.166992 0.015625)"/>
      <use xlink:href="#DejaVuSans-6b" transform="translate(210.180664 0.015625)"/>
      <use xlink:href="#DejaVuSans-57" transform="translate(268.09082 0.015625)"/>
      <use xlink:href="#DejaVuSans-29" transform="translate(366.967773 0.015625)"/>
     </g>
    </g>
   </g>
   <g id="line2d_12">
    <path d="M 65.335364 260.813159 
L 72.811839 260.813159 
L 80.288314 260.813159 
L 87.764788 260.813159 
L 95.241263 260.813159 
L 102.717738 260.813159 
L 110.194213 260.813159 
L 117.670688 260.813159 
L 125.147163 260.813159 
L 132.623638 260.813159 
L 140.100113 260.813159 
L 147.576588 260.813159 
L 155.053063 260.813159 
L 162.529538 260.813159 
L 170.006013 260.813159 
L 177.482488 260.813159 
L 184.958963 260.813159 
L 192.435438 260.813159 
L 199.911913 260.813159 
L 207.388388 260.813159 
L 214.864863 260.813159 
L 222.341338 260.813159 
L 229.817813 260.813159 
L 237.294288 260.813159 
L 244.770763 260.813159 
L 252.247237 260.813159 
L 259.723712 260.813159 
L 267.200187 260.813159 
L 274.676662 260.813159 
L 282.153137 260.813159 
L 289.629612 260.813159 
L 297.106087 260.813159 
L 304.582562 260.813159 
L 312.059037 260.813159 
L 319.535512 260.813159 
L 327.011987 260.813159 
L 334.488462 260.813159 
L 341.964937 260.813159 
L 349.441412 260.813159 
L 356.917887 260.813159 
L 364.394362 260.813159 
L 371.870837 260.813159 
L 379.347312 260.813159 
L 386.823787 260.813159 
L 394.300262 260.813159 
L 401.776737 260.813159 
L 409.253212 260.813159 
L 416.729686 260.813159 
L 424.206161 260.813159 
L 431.682636 260.813159 
" clip-path="url(#p397a03fe54)" style="fill: none; stroke: #1f77b4; stroke-width: 1.5; stroke-linecap: square"/>
   </g>
   <g id="line2d_13">
    <path d="M 65.335364 260.813159 
L 72.811839 260.813159 
L 80.288314 260.813159 
L 87.764788 260.813159 
L 95.241263 260.813159 
L 102.717738 260.813159 
L 110.194213 260.813159 
L 117.670688 260.813159 
L 125.147163 260.813159 
L 132.623638 260.813159 
L 140.100113 260.813159 
L 147.576588 260.813159 
L 155.053063 260.813159 
L 162.529538 260.813159 
L 170.006013 260.813159 
L 177.482488 260.813159 
L 184.958963 260.813159 
L 192.435438 260.813159 
L 199.911913 260.813159 
L 207.388388 260.813159 
L 214.864863 260.813159 
L 222.341338 260.813159 
L 229.817813 260.813159 
L 237.294288 260.813159 
L 244.770763 260.813159 
L 252.247237 260.813159 
L 259.723712 260.813159 
L 267.200187 260.813159 
L 274.676662 260.813159 
L 282.153137 260.813159 
L 289.629612 260.813159 
L 297.106087 260.813159 
L 304.582562 260.813159 
L 312.059037 260.813159 
L 319.535512 260.813159 
L 327.011987 260.813159 
L 334.488462 260.813159 
L 341.964937 260.813159 
L 349.441412 260.813159 
L 356.917887 260.813159 
L 364.394362 260.813159 
L 371.870837 260.813159 
L 379.347312 260.813159 
L 386.823787 260.813159 
L 394.300262 260.813159 
L 401.776737 260.813159 
L 409.253212 260.813159 
L 416.729686 260.813159 
L 424.206161 260.813159 
L 431.682636 260.813159 
" clip-path="url(#p397a03fe54)" style="fill: none; stroke: #ff7f0e; stroke-width: 1.5; stroke-linecap: square"/>
   </g>
   <g id="line2d_14">
    <path d="M 65.335364 260.813159 
L 72.811839 260.813159 
L 80.288314 260.813159 
L 87.764788 260.813159 
L 95.241263 260.813159 
L 102.717738 260.813159 
L 110.194213 260.813159 
L 117.670688 260.813159 
L 125.147163 260.813159 
L 132.623638 260.813159 
L 140.100113 260.813159 
L 147.576588 260.813159 
L 155.053063 260.813159 
L 162.529538 260.813159 
L 170.006013 260.813159 
L 177.482488 260.813159 
L 184.958963 260.813159 
L 192.435438 260.813159 
L 199.911913 260.813159 
L 207.388388 260.813159 
L 214.864863 260.813159 
L 222.341338 260.813159 
L 229.817813 260.813159 
L 237.294288 260.813159 
L 244.770763 260.813159 
L 252.247237 260.813159 
L 259.723712 260.813159 
L 267.200187 260.813159 
L 274.676662 260.813159 
L 282.153137 260.813159 
L 289.629612 260.813159 
L 297.106087 260.813159 
L 304.582562 260.813159 
L 312.059037 260.813159 
L 319.535512 260.813159 
L 327.011987 260.813159 
L 334.488462 260.813159 
L 341.964937 260.813159 
L 349.441412 260.813159 
L 356.917887 260.813159 
L 364.394362 260.813159 
L 371.870837 260.813159 
L 379.347312 260.813159 
L 386.823787 260.813159 
L 394.300262 260.813159 
L 401.776737 260.813159 
L 409.253212 260.813159 
L 416.729686 260.813159 
L 424.206161 260.813159 
L 431.682636 260.813159 
" clip-path="url(#p397a03fe54)" style="fill: none; stroke: #2ca02c; stroke-width: 1.5; stroke-linecap: square"/>
   </g>
   <g id="line2d_15">
    <path d="M 65.335364 260.813159 
L 72.811839 260.813159 
L 80.288314 260.813159 
L 87.764788 260.813159 
L 95.241263 260.813159 
L 102.717738 260.813159 
L 110.194213 260.813159 
L 117.670688 260.813159 
L 125.147163 260.813159 
L 132.623638 260.813159 
L 140.100113 260.813159 
L 147.576588 260.813159 
L 155.053063 260.813159 
L 162.529538 260.813159 
L 170.006013 260.813159 
L 177.482488 260.813159 
L 184.958963 260.813159 
L 192.435438 260.813159 
L 199.911913 260.813159 
L 207.388388 260.813159 
L 214.864863 260.813159 
L 222.341338 260.813159 
L 229.817813 260.813159 
L 237.294288 260.813159 
L 244.770763 260.813159 
L 252.247237 260.813159 
L 259.723712 260.813159 
L 267.200187 260.813159 
L 274.676662 260.813159 
L 282.153137 260.813159 
L 289.629612 260.813159 
L 297.106087 260.813159 
L 304.582562 260.813159 
L 312.059037 260.813159 
L 319.535512 260.813159 
L 327.011987 260.813159 
L 334.488462 260.813159 
L 341.964937 260.813159 
L 349.441412 260.813159 
L 356.917887 260.813159 
L 364.394362 260.813159 
L 371.870837 260.813159 
L 379.347312 260.813159 
L 386.823787 260.813159 
L 394.300262 260.813159 
L 401.776737 260.813159 
L 409.253212 260.813159 
L 416.729686 260.813159 
L 424.206161 260.813159 
L 431.682636 260.813159 
" clip-path="url(#p397a03fe54)" style="fill: none; stroke: #d62728; stroke-width: 1.5; stroke-linecap: square"/>
   </g>
   <g id="line2d_16">
    <path d="M 65.335364 260.813159 
L 72.811839 260.813159 
L 80.288314 260.813159 
L 87.764788 260.813159 
L 95.241263 260.813159 
L 102.717738 260.813159 
L 110.194213 260.813159 
L 117.670688 260.813159 
L 125.147163 260.813159 
L 132.623638 260.813159 
L 140.100113 260.813159 
L 147.576588 260.813159 
L 155.053063 260.813159 
L 162.529538 260.813159 
L 170.006013 260.813159 
L 177.482488 260.813159 
L 184.958963 260.813159 
L 192.435438 260.813159 
L 199.911913 260.813159 
L 207.388388 260.813159 
L 214.864863 260.813159 
L 222.341338 260.813159 
L 229.817813 260.813159 
L 237.294288 260.813159 
L 244.770763 260.813159 
L 252.247237 260.813159 
L 259.723712 260.813159 
L 267.200187 260.813159 
L 274.676662 260.813159 
L 282.153137 260.813159 
L 289.629612 260.813159 
L 297.106087 260.813159 
L 304.582562 260.813159 
L 312.059037 260.813159 
L 319.535512 260.813159 
L 327.011987 260.813159 
L 334.488462 260.813159 
L 341.964937 260.813159 
L 349.441412 260.813159 
L 356.917887 260.813159 
L 364.394362 260.813159 
L 371.870837 260.813159 
L 379.347312 260.813159 
L 386.823787 260.813159 
L 394.300262 260.813159 
L 401.776737 260.813159 
L 409.253212 260.813159 
L 416.729686 260.813159 
L 424.206161 260.813159 
L 431.682636 260.813159 
" clip-path="url(#p397a03fe54)" style="fill: none; stroke: #9467bd; stroke-width: 1.5; stroke-linecap: square"/>
   </g>
   <g id="line2d_17">
    <path d="M 65.335364 260.813159 
L 72.811839 260.813159 
L 80.288314 260.813159 
L 87.764788 260.813159 
L 95.241263 260.813159 
L 102.717738 260.813159 
L 110.194213 260.813159 
L 117.670688 260.813159 
L 125.147163 260.813159 
L 132.623638 260.813159 
L 140.100113 260.813159 
L 147.576588 260.813159 
L 155.053063 260.813159 
L 162.529538 260.813159 
L 170.006013 260.813159 
L 177.482488 260.813159 
L 184.958963 260.813159 
L 192.435438 260.813159 
L 199.911913 260.813159 
L 207.388388 260.813159 
L 214.864863 260.813159 
L 222.341338 260.813159 
L 229.817813 260.813159 
L 237.294288 260.813159 
L 244.770763 260.813159 
L 252.247237 260.813159 
L 259.723712 260.813159 
L 267.200187 260.813159 
L 274.676662 260.813159 
L 282.153137 260.813159 
L 289.629612 260.813159 
L 297.106087 260.813159 
L 304.582562 260.813159 
L 312.059037 260.813159 
L 319.535512 260.813159 
L 327.011987 260.813159 
L 334.488462 260.813159 
L 341.964937 260.813159 
L 349.441412 260.813159 
L 356.917887 260.813159 
L 364.394362 260.813159 
L 371.870837 260.813159 
L 379.347312 260.813159 
L 386.823787 260.813159 
L 394.300262 260.813159 
L 401.776737 260.813159 
L 409.253212 260.813159 
L 416.729686 260.813159 
L 424.206161 260.813159 
L 431.682636 260.813159 
" clip-path="url(#p397a03fe54)" style="fill: none; stroke: #8c564b; stroke-width: 1.5; stroke-linecap: square"/>
   </g>
   <g id="line2d_18">
    <path d="M 65.335364 260.813159 
L 72.811839 260.813159 
L 80.288314 260.813159 
L 87.764788 260.813159 
L 95.241263 260.813159 
L 102.717738 260.813159 
L 110.194213 260.813159 
L 117.670688 260.813159 
L 125.147163 260.813159 
L 132.623638 260.813159 
L 140.100113 260.813159 
L 147.576588 260.813159 
L 155.053063 260.813159 
L 162.529538 260.813159 
L 170.006013 260.813159 
L 177.482488 260.813159 
L 184.958963 260.813159 
L 192.435438 260.813159 
L 199.911913 260.813159 
L 207.388388 260.813159 
L 214.864863 260.813159 
L 222.341338 260.813159 
L 229.817813 260.813159 
L 237.294288 260.813159 
L 244.770763 260.813159 
L 252.247237 260.813159 
L 259.723712 260.813159 
L 267.200187 260.813159 
L 274.676662 260.813159 
L 282.153137 260.813159 
L 289.629612 260.813159 
L 297.106087 260.813159 
L 304.582562 260.813159 
L 312.059037 260.813159 
L 319.535512 260.813159 
L 327.011987 260.813159 
L 334.488462 260.813159 
L 341.964937 260.813159 
L 349.441412 260.813159 
L 356.917887 260.813159 
L 364.394362 260.813159 
L 371.870837 260.813159 
L 379.347312 260.813159 
L 386.823787 260.813159 
L 394.300262 260.813159 
L 401.776737 260.813159 
L 409.253212 260.813159 
L 416.729686 260.813159 
L 424.206161 260.813159 
L 431.682636 260.813159 
" clip-path="url(#p397a03fe54)" style="fill: none; stroke: #e377c2; stroke-width: 1.5; stroke-linecap: square"/>
   </g>
   <g id="line2d_19">
    <path d="M 65.335364 260.813159 
L 72.811839 260.813159 
L 80.288314 260.813159 
L 87.764788 260.813159 
L 95.241263 260.813159 
L 102.717738 260.813159 
L 110.194213 260.813159 
L 117.670688 260.813159 
L 125.147163 260.813159 
L 132.623638 260.813159 
L 140.100113 260.813159 
L 147.576588 260.813159 
L 155.053063 260.813159 
L 162.529538 260.813159 
L 170.006013 260.813159 
L 177.482488 260.813159 
L 184.958963 260.813159 
L 192.435438 260.813159 
L 199.911913 260.813159 
L 207.388388 260.813159 
L 214.864863 260.813159 
L 222.341338 260.813159 
L 229.817813 260.813159 
L 237.294288 260.813159 
L 244.770763 260.813159 
L 252.247237 260.813159 
L 259.723712 260.813159 
L 267.200187 260.813159 
L 274.676662 260.813159 
L 282.153137 260.813159 
L 289.629612 260.813159 
L 297.106087 260.813159 
L 304.582562 260.813159 
L 312.059037 260.813159 
L 319.535512 260.813159 
L 327.011987 260.813159 
L 334.488462 260.813159 
L 341.964937 260.813159 
L 349.441412 260.813159 
L 356.917887 260.813159 
L 364.394362 260.813159 
L 371.870837 260.813159 
L 379.347312 260.813159 
L 386.823787 260.813159 
L 394.300262 260.813159 
L 401.776737 260.813159 
L 409.253212 260.813159 
L 416.729686 260.813159 
L 424.206161 260.813159 
L 431.682636 260.813159 
" clip-path="url(#p397a03fe54)" style="fill: none; stroke: #7f7f7f; stroke-width: 1.5; stroke-linecap: square"/>
   </g>
   <g id="patch_3">
    <path d="M 47.018 302.2 
L 47.018 10.8 
" style="fill: none; stroke: #000000; stroke-width: 0.8; stroke-linejoin: miter; stroke-linecap: square"/>
   </g>
   <g id="patch_4">
    <path d="M 450 302.2 
L 450 10.8 
" style="fill: none; stroke: #000000; stroke-width: 0.8; stroke-linejoin: miter; stroke-linecap: square"/>
   </g>
   <g id="patch_5">
    <path d="M 47.018 302.2 
L 450 302.2 
" style="fill: none; stroke: #000000; stroke-width: 0.8; stroke-linejoin: miter; stroke-linecap: square"/>
   </g>
   <g id="patch_6">
    <path d="M 47.018 10.8 
L 450 10.8 
" style="fill: none; stroke: #000000; stroke-width: 0.8; stroke-linejoin: miter; stroke-linecap: square"/>
   </g>
   <g id="legend_1">
    <g id="patch_7">
     <path d="M 54.018 150.903125 
L 152.852375 150.903125 
Q 154.852375 150.903125 154.852375 148.903125 
L 154.852375 17.8 
Q 154.852375 15.8 152.852375 15.8 
L 54.018 15.8 
Q 52.018 15.8 52.018 17.8 
L 52.018 148.903125 
Q 52.018 150.903125 54.018 150.903125 
z
" style="fill: #ffffff; opacity: 0.8; stroke: #cccccc; stroke-linejoin: miter"/>
    </g>
    <g id="line2d_20">
     <path d="M 56.018 23.898438 
L 66.018 23.898438 
L 76.018 23.898438 
" style="fill: none; stroke: #1f77b4; stroke-width: 1.5; stroke-linecap: square"/>
    </g>
    <g id="text_14">
     <!-- Ts=80 K -->
     <g transform="translate(84.018 27.398438) scale(0.1 -0.1)">
      <defs>
       <path id="DejaVuSans-54" d="M -19 4666 
L 3928 4666 
L 3928 4134 
L 2272 4134 
L 2272 0 
L 1638 0 
L 1638 4134 
L -19 4134 
L -19 4666 
z
" transform="scale(0.015625)"/>
       <path id="DejaVuSans-73" d="M 2834 3397 
L 2834 2853 
Q 2591 2978 2328 3040 
Q 2066 3103 1784 3103 
Q 1356 3103 1142 2972 
Q 928 2841 928 2578 
Q 928 2378 1081 2264 
Q 1234 2150 1697 2047 
L 1894 2003 
Q 2506 1872 2764 1633 
Q 3022 1394 3022 966 
Q 3022 478 2636 193 
Q 2250 -91 1575 -91 
Q 1294 -91 989 -36 
Q 684 19 347 128 
L 347 722 
Q 666 556 975 473 
Q 1284 391 1588 391 
Q 1994 391 2212 530 
Q 2431 669 2431 922 
Q 2431 1156 2273 1281 
Q 2116 1406 1581 1522 
L 1381 1569 
Q 847 1681 609 1914 
Q 372 2147 372 2553 
Q 372 3047 722 3315 
Q 1072 3584 1716 3584 
Q 2034 3584 2315 3537 
Q 2597 3491 2834 3397 
z
" transform="scale(0.015625)"/>
       <path id="DejaVuSans-3d" d="M 678 2906 
L 4684 2906 
L 4684 2381 
L 678 2381 
L 678 2906 
z
M 678 1631 
L 4684 1631 
L 4684 1100 
L 678 1100 
L 678 1631 
z
" transform="scale(0.015625)"/>
       <path id="DejaVuSans-38" d="M 2034 2216 
Q 1584 2216 1326 1975 
Q 1069 1734 1069 1313 
Q 1069 891 1326 650 
Q 1584 409 2034 409 
Q 2484 409 2743 651 
Q 3003 894 3003 1313 
Q 3003 1734 2745 1975 
Q 2488 2216 2034 2216 
z
M 1403 2484 
Q 997 2584 770 2862 
Q 544 3141 544 3541 
Q 544 4100 942 4425 
Q 1341 4750 2034 4750 
Q 2731 4750 3128 4425 
Q 3525 4100 3525 3541 
Q 3525 3141 3298 2862 
Q 3072 2584 2669 2484 
Q 3125 2378 3379 2068 
Q 3634 1759 3634 1313 
Q 3634 634 3220 271 
Q 2806 -91 2034 -91 
Q 1263 -91 848 271 
Q 434 634 434 1313 
Q 434 1759 690 2068 
Q 947 2378 1403 2484 
z
M 1172 3481 
Q 1172 3119 1398 2916 
Q 1625 2713 2034 2713 
Q 2441 2713 2670 2916 
Q 2900 3119 2900 3481 
Q 2900 3844 2670 4047 
Q 2441 4250 2034 4250 
Q 1625 4250 1398 4047 
Q 1172 3844 1172 3481 
z
" transform="scale(0.015625)"/>
       <path id="DejaVuSans-4b" d="M 628 4666 
L 1259 4666 
L 1259 2694 
L 3353 4666 
L 4166 4666 
L 1850 2491 
L 4331 0 
L 3500 0 
L 1259 2247 
L 1259 0 
L 628 0 
L 628 4666 
z
" transform="scale(0.015625)"/>
      </defs>
      <use xlink:href="#DejaVuSans-54"/>
      <use xlink:href="#DejaVuSans-73" transform="translate(44.583984 0)"/>
      <use xlink:href="#DejaVuSans-3d" transform="translate(96.683594 0)"/>
      <use xlink:href="#DejaVuSans-38" transform="translate(180.472656 0)"/>
      <use xlink:href="#DejaVuSans-30" transform="translate(244.095703 0)"/>
      <use xlink:href="#DejaVuSans-20" transform="translate(307.71875 0)"/>
      <use xlink:href="#DejaVuSans-4b" transform="translate(339.505859 0)"/>
     </g>
    </g>
    <g id="line2d_21">
     <path d="M 56.018 38.576563 
L 66.018 38.576563 
L 76.018 38.576563 
" style="fill: none; stroke: #ff7f0e; stroke-width: 1.5; stroke-linecap: square"/>
    </g>
    <g id="text_15">
     <!-- Ts=100 K -->
     <g transform="translate(84.018 42.076563) scale(0.1 -0.1)">
      <use xlink:href="#DejaVuSans-54"/>
      <use xlink:href="#DejaVuSans-73" transform="translate(44.583984 0)"/>
      <use xlink:href="#DejaVuSans-3d" transform="translate(96.683594 0)"/>
      <use xlink:href="#DejaVuSans-31" transform="translate(180.472656 0)"/>
      <use xlink:href="#DejaVuSans-30" transform="translate(244.095703 0)"/>
      <use xlink:href="#DejaVuSans-30" transform="translate(307.71875 0)"/>
      <use xlink:href="#DejaVuSans-20" transform="translate(371.341797 0)"/>
      <use xlink:href="#DejaVuSans-4b" transform="translate(403.128906 0)"/>
     </g>
    </g>
    <g id="line2d_22">
     <path d="M 56.018 53.254687 
L 66.018 53.254687 
L 76.018 53.254687 
" style="fill: none; stroke: #2ca02c; stroke-width: 1.5; stroke-linecap: square"/>
    </g>
    <g id="text_16">
     <!-- Ts=120 K -->
     <g transform="translate(84.018 56.754687) scale(0.1 -0.1)">
      <use xlink:href="#DejaVuSans-54"/>
      <use xlink:href="#DejaVuSans-73" transform="translate(44.583984 0)"/>
      <use xlink:href="#DejaVuSans-3d" transform="translate(96.683594 0)"/>
      <use xlink:href="#DejaVuSans-31" transform="translate(180.472656 0)"/>
      <use xlink:href="#DejaVuSans-32" transform="translate(244.095703 0)"/>
      <use xlink:href="#DejaVuSans-30" transform="translate(307.71875 0)"/>
      <use xlink:href="#DejaVuSans-20" transform="translate(371.341797 0)"/>
      <use xlink:href="#DejaVuSans-4b" transform="translate(403.128906 0)"/>
     </g>
    </g>
    <g id="line2d_23">
     <path d="M 56.018 67.932813 
L 66.018 67.932813 
L 76.018 67.932813 
" style="fill: none; stroke: #d62728; stroke-width: 1.5; stroke-linecap: square"/>
    </g>
    <g id="text_17">
     <!-- Ts=140 K -->
     <g transform="translate(84.018 71.432813) scale(0.1 -0.1)">
      <use xlink:href="#DejaVuSans-54"/>
      <use xlink:href="#DejaVuSans-73" transform="translate(44.583984 0)"/>
      <use xlink:href="#DejaVuSans-3d" transform="translate(96.683594 0)"/>
      <use xlink:href="#DejaVuSans-31" transform="translate(180.472656 0)"/>
      <use xlink:href="#DejaVuSans-34" transform="translate(244.095703 0)"/>
      <use xlink:href="#DejaVuSans-30" transform="translate(307.71875 0)"/>
      <use xlink:href="#DejaVuSans-20" transform="translate(371.341797 0)"/>
      <use xlink:href="#DejaVuSans-4b" transform="translate(403.128906 0)"/>
     </g>
    </g>
    <g id="line2d_24">
     <path d="M 56.018 82.610938 
L 66.018 82.610938 
L 76.018 82.610938 
" style="fill: none; stroke: #9467bd; stroke-width: 1.5; stroke-linecap: square"/>
    </g>
    <g id="text_18">
     <!-- Ts=160 K -->
     <g transform="translate(84.018 86.110938) scale(0.1 -0.1)">
      <defs>
       <path id="DejaVuSans-36" d="M 2113 2584 
Q 1688 2584 1439 2293 
Q 1191 2003 1191 1497 
Q 1191 994 1439 701 
Q 1688 409 2113 409 
Q 2538 409 2786 701 
Q 3034 994 3034 1497 
Q 3034 2003 2786 2293 
Q 2538 2584 2113 2584 
z
M 3366 4563 
L 3366 3988 
Q 3128 4100 2886 4159 
Q 2644 4219 2406 4219 
Q 1781 4219 1451 3797 
Q 1122 3375 1075 2522 
Q 1259 2794 1537 2939 
Q 1816 3084 2150 3084 
Q 2853 3084 3261 2657 
Q 3669 2231 3669 1497 
Q 3669 778 3244 343 
Q 2819 -91 2113 -91 
Q 1303 -91 875 529 
Q 447 1150 447 2328 
Q 447 3434 972 4092 
Q 1497 4750 2381 4750 
Q 2619 4750 2861 4703 
Q 3103 4656 3366 4563 
z
" transform="scale(0.015625)"/>
      </defs>
      <use xlink:href="#DejaVuSans-54"/>
      <use xlink:href="#DejaVuSans-73" transform="translate(44.583984 0)"/>
      <use xlink:href="#DejaVuSans-3d" transform="translate(96.683594 0)"/>
      <use xlink:href="#DejaVuSans-31" transform="translate(180.472656 0)"/>
      <use xlink:href="#DejaVuSans-36" transform="translate(244.095703 0)"/>
      <use xlink:href="#DejaVuSans-30" transform="translate(307.71875 0)"/>
      <use xlink:href="#DejaVuSans-20" transform="translate(371.341797 0)"/>
      <use xlink:href="#DejaVuSans-4b" transform="translate(403.128906 0)"/>
     </g>
    </g>
    <g id="line2d_25">
     <path d="M 56.018 97.289062 
L 66.018 97.289062 
L 76.018 97.289062 
" style="fill: none; stroke: #8c564b; stroke-width: 1.5; stroke-linecap: square"/>
    </g>
    <g id="text_19">
     <!-- Ts=180 K -->
     <g transform="translate(84.018 100.789062) scale(0.1 -0.1)">
      <use xlink:href="#DejaVuSans-54"/>
      <use xlink:href="#DejaVuSans-73" transform="translate(44.583984 0)"/>
      <use xlink:href="#DejaVuSans-3d" transform="translate(96.683594 0)"/>
      <use xlink:href="#DejaVuSans-31" transform="translate(180.472656 0)"/>
      <use xlink:href="#DejaVuSans-38" transform="translate(244.095703 0)"/>
      <use xlink:href="#DejaVuSans-30" transform="translate(307.71875 0)"/>
      <use xlink:href="#DejaVuSans-20" transform="translate(371.341797 0)"/>
      <use xlink:href="#DejaVuSans-4b" transform="translate(403.128906 0)"/>
     </g>
    </g>
    <g id="line2d_26">
     <path d="M 56.018 111.967187 
L 66.018 111.967187 
L 76.018 111.967187 
" style="fill: none; stroke: #e377c2; stroke-width: 1.5; stroke-linecap: square"/>
    </g>
    <g id="text_20">
     <!-- Ts=200 K -->
     <g transform="translate(84.018 115.467187) scale(0.1 -0.1)">
      <use xlink:href="#DejaVuSans-54"/>
      <use xlink:href="#DejaVuSans-73" transform="translate(44.583984 0)"/>
      <use xlink:href="#DejaVuSans-3d" transform="translate(96.683594 0)"/>
      <use xlink:href="#DejaVuSans-32" transform="translate(180.472656 0)"/>
      <use xlink:href="#DejaVuSans-30" transform="translate(244.095703 0)"/>
      <use xlink:href="#DejaVuSans-30" transform="translate(307.71875 0)"/>
      <use xlink:href="#DejaVuSans-20" transform="translate(371.341797 0)"/>
      <use xlink:href="#DejaVuSans-4b" transform="translate(403.128906 0)"/>
     </g>
    </g>
    <g id="line2d_27">
     <path d="M 56.018 126.645312 
L 66.018 126.645312 
L 76.018 126.645312 
" style="fill: none; stroke: #7f7f7f; stroke-width: 1.5; stroke-linecap: square"/>
    </g>
    <g id="text_21">
     <!-- Ts=220 K -->
     <g transform="translate(84.018 130.145312) scale(0.1 -0.1)">
      <use xlink:href="#DejaVuSans-54"/>
      <use xlink:href="#DejaVuSans-73" transform="translate(44.583984 0)"/>
      <use xlink:href="#DejaVuSans-3d" transform="translate(96.683594 0)"/>
      <use xlink:href="#DejaVuSans-32" transform="translate(180.472656 0)"/>
      <use xlink:href="#DejaVuSans-32" transform="translate(244.095703 0)"/>
      <use xlink:href="#DejaVuSans-30" transform="translate(307.71875 0)"/>
      <use xlink:href="#DejaVuSans-20" transform="translate(371.341797 0)"/>
      <use xlink:href="#DejaVuSans-4b" transform="translate(403.128906 0)"/>
     </g>
    </g>
    <g id="PathCollection_9">
     <g>
      <use xlink:href="#m19e2cce087" x="66.018" y="142.198437" style="fill-opacity: 0.7; stroke: #000000; stroke-opacity: 0.7"/>
     </g>
    </g>
    <g id="text_22">
     <!-- Artificial data -->
     <g transform="translate(84.018 144.823437) scale(0.1 -0.1)">
      <defs>
       <path id="DejaVuSans-41" d="M 2188 4044 
L 1331 1722 
L 3047 1722 
L 2188 4044 
z
M 1831 4666 
L 2547 4666 
L 4325 0 
L 3669 0 
L 3244 1197 
L 1141 1197 
L 716 0 
L 50 0 
L 1831 4666 
z
" transform="scale(0.015625)"/>
       <path id="DejaVuSans-74" d="M 1172 4494 
L 1172 3500 
L 2356 3500 
L 2356 3053 
L 1172 3053 
L 1172 1153 
Q 1172 725 1289 603 
Q 1406 481 1766 481 
L 2356 481 
L 2356 0 
L 1766 0 
Q 1100 0 847 248 
Q 594 497 594 1153 
L 594 3053 
L 172 3053 
L 172 3500 
L 594 3500 
L 594 4494 
L 1172 4494 
z
" transform="scale(0.015625)"/>
       <path id="DejaVuSans-69" d="M 603 3500 
L 1178 3500 
L 1178 0 
L 603 0 
L 603 3500 
z
M 603 4863 
L 1178 4863 
L 1178 4134 
L 603 4134 
L 603 4863 
z
" transform="scale(0.015625)"/>
       <path id="DejaVuSans-66" d="M 2375 4863 
L 2375 4384 
L 1825 4384 
Q 1516 4384 1395 4259 
Q 1275 4134 1275 3809 
L 1275 3500 
L 2222 3500 
L 2222 3053 
L 1275 3053 
L 1275 0 
L 697 0 
L 697 3053 
L 147 3053 
L 147 3500 
L 697 3500 
L 697 3744 
Q 697 4328 969 4595 
Q 1241 4863 1831 4863 
L 2375 4863 
z
" transform="scale(0.015625)"/>
       <path id="DejaVuSans-63" d="M 3122 3366 
L 3122 2828 
Q 2878 2963 2633 3030 
Q 2388 3097 2138 3097 
Q 1578 3097 1268 2742 
Q 959 2388 959 1747 
Q 959 1106 1268 751 
Q 1578 397 2138 397 
Q 2388 397 2633 464 
Q 2878 531 3122 666 
L 3122 134 
Q 2881 22 2623 -34 
Q 2366 -91 2075 -91 
Q 1284 -91 818 406 
Q 353 903 353 1747 
Q 353 2603 823 3093 
Q 1294 3584 2113 3584 
Q 2378 3584 2631 3529 
Q 2884 3475 3122 3366 
z
" transform="scale(0.015625)"/>
       <path id="DejaVuSans-61" d="M 2194 1759 
Q 1497 1759 1228 1600 
Q 959 1441 959 1056 
Q 959 750 1161 570 
Q 1363 391 1709 391 
Q 2188 391 2477 730 
Q 2766 1069 2766 1631 
L 2766 1759 
L 2194 1759 
z
M 3341 1997 
L 3341 0 
L 2766 0 
L 2766 531 
Q 2569 213 2275 61 
Q 1981 -91 1556 -91 
Q 1019 -91 701 211 
Q 384 513 384 1019 
Q 384 1609 779 1909 
Q 1175 2209 1959 2209 
L 2766 2209 
L 2766 2266 
Q 2766 2663 2505 2880 
Q 2244 3097 1772 3097 
Q 1472 3097 1187 3025 
Q 903 2953 641 2809 
L 641 3341 
Q 956 3463 1253 3523 
Q 1550 3584 1831 3584 
Q 2591 3584 2966 3190 
Q 3341 2797 3341 1997 
z
" transform="scale(0.015625)"/>
       <path id="DejaVuSans-6c" d="M 603 4863 
L 1178 4863 
L 1178 0 
L 603 0 
L 603 4863 
z
" transform="scale(0.015625)"/>
       <path id="DejaVuSans-64" d="M 2906 2969 
L 2906 4863 
L 3481 4863 
L 3481 0 
L 2906 0 
L 2906 525 
Q 2725 213 2448 61 
Q 2172 -91 1784 -91 
Q 1150 -91 751 415 
Q 353 922 353 1747 
Q 353 2572 751 3078 
Q 1150 3584 1784 3584 
Q 2172 3584 2448 3432 
Q 2725 3281 2906 2969 
z
M 947 1747 
Q 947 1113 1208 752 
Q 1469 391 1925 391 
Q 2381 391 2643 752 
Q 2906 1113 2906 1747 
Q 2906 2381 2643 2742 
Q 2381 3103 1925 3103 
Q 1469 3103 1208 2742 
Q 947 2381 947 1747 
z
" transform="scale(0.015625)"/>
      </defs>
      <use xlink:href="#DejaVuSans-41"/>
      <use xlink:href="#DejaVuSans-72" transform="translate(68.408203 0)"/>
      <use xlink:href="#DejaVuSans-74" transform="translate(109.521484 0)"/>
      <use xlink:href="#DejaVuSans-69" transform="translate(148.730469 0)"/>
      <use xlink:href="#DejaVuSans-66" transform="translate(176.513672 0)"/>
      <use xlink:href="#DejaVuSans-69" transform="translate(211.71875 0)"/>
      <use xlink:href="#DejaVuSans-63" transform="translate(239.501953 0)"/>
      <use xlink:href="#DejaVuSans-69" transform="translate(294.482422 0)"/>
      <use xlink:href="#DejaVuSans-61" transform="translate(322.265625 0)"/>
      <use xlink:href="#DejaVuSans-6c" transform="translate(383.544922 0)"/>
      <use xlink:href="#DejaVuSans-20" transform="translate(411.328125 0)"/>
      <use xlink:href="#DejaVuSans-64" transform="translate(443.115234 0)"/>
      <use xlink:href="#DejaVuSans-61" transform="translate(506.591797 0)"/>
      <use xlink:href="#DejaVuSans-74" transform="translate(567.871094 0)"/>
      <use xlink:href="#DejaVuSans-61" transform="translate(607.080078 0)"/>
     </g>
    </g>
   </g>
  </g>
 </g>
 <defs>
  <clipPath id="p397a03fe54">
   <rect x="47.018" y="10.8" width="402.982" height="291.4"/>
  </clipPath>
 </defs>
</svg>
