<?xml version="1.0" encoding="utf-8" standalone="no"?>
<!DOCTYPE svg PUBLIC "-//W3C//DTD SVG 1.1//EN"
  "http://www.w3.org/Graphics/SVG/1.1/DTD/svg11.dtd">
<svg xmlns:xlink="http://www.w3.org/1999/xlink" width="460.8pt" height="345.6pt" viewBox="0 0 460.8 345.6" xmlns="http://www.w3.org/2000/svg" version="1.1">
 <metadata>
  <rdf:RDF xmlns:dc="http://purl.org/dc/elements/1.1/" xmlns:cc="http://creativecommons.org/ns#" xmlns:rdf="http://www.w3.org/1999/02/22-rdf-syntax-ns#">
   <cc:Work>
    <dc:type rdf:resource="http://purl.org/dc/dcmitype/StillImage"/>
    <dc:date>2026-02-12T05:35:36.628107</dc:date>
    <dc:format>image/svg+xml</dc:format>
    <dc:creator>
     <cc:Agent>
      <dc:title>Matplotlib v3.10.8, https://matplotlib.org/</dc:title>
     </cc:Agent>
    </dc:creator>
   </cc:Work>
  </rdf:RDF>
 </metadata>
 <defs>
  <style type="text/css">*{stroke-linejoin: round; stroke-linecap: butt}</style>
 </defs>
 <g id="figure_1">
  <g id="patch_1">
   <path d="M 0 345.6 
L 460.8 345.6 
L 460.8 0 
L 0 0 
L 0 345.6 
z
" style="fill: none"/>
  </g>
  <g id="axes_1">
   <g id="patch_2">
    <path d="M 47.018 302.2 
L 450 302.2 
L 450 14.454323 
L 47.018 14.454323 
L 47.018 302.2 
z
" style="fill: none"/>
   </g>
   <g id="FillBetweenPolyCollection_1">
    <path d="M 65.335364 181.056202 
L 65.335364 252.92574 
L 72.811839 249.778461 
L 80.288314 247.450156 
L 87.764788 244.60668 
L 95.241263 240.87019 
L 102.717738 239.432992 
L 110.194213 239.047038 
L 117.670688 237.916488 
L 125.147163 237.342623 
L 132.623638 235.591329 
L 140.100113 235.819626 
L 147.576588 235.207138 
L 155.053063 234.849294 
L 162.529538 234.30586 
L 170.006013 233.136176 
L 177.482488 234.143825 
L 184.958963 234.186356 
L 192.435438 234.557974 
L 199.911913 234.21472 
L 207.388388 234.3671 
L 214.864863 233.838168 
L 222.341338 233.275793 
L 229.817813 232.36604 
L 237.294288 233.828607 
L 244.770763 232.97989 
L 252.247237 234.317147 
L 259.723712 232.945471 
L 267.200187 233.184759 
L 274.676662 234.249556 
L 282.153137 233.409957 
L 289.629612 233.407966 
L 297.106087 234.413616 
L 304.582562 233.38669 
L 312.059037 234.749037 
L 319.535512 233.937883 
L 327.011987 234.310933 
L 334.488462 235.424017 
L 341.964937 235.664453 
L 349.441412 235.054311 
L 356.917887 234.653067 
L 364.394362 234.59608 
L 371.870837 234.202854 
L 379.347312 237.107873 
L 386.823787 235.934063 
L 394.300262 234.829153 
L 401.776737 235.291014 
L 409.253212 235.176643 
L 416.729686 235.624139 
L 424.206161 236.290668 
L 431.682636 236.478692 
L 431.682636 27.533672 
L 431.682636 27.533672 
L 424.206161 30.289525 
L 416.729686 30.918844 
L 409.253212 33.51252 
L 401.776737 34.790073 
L 394.300262 37.379875 
L 386.823787 38.092382 
L 379.347312 39.979865 
L 371.870837 41.549237 
L 364.394362 44.132564 
L 356.917887 45.42096 
L 349.441412 46.65256 
L 341.964937 49.461936 
L 334.488462 51.290561 
L 327.011987 53.390809 
L 319.535512 55.538224 
L 312.059037 57.081361 
L 304.582562 59.41395 
L 297.106087 60.05449 
L 289.629612 63.352965 
L 282.153137 64.972388 
L 274.676662 67.349026 
L 267.200187 69.641731 
L 259.723712 72.115085 
L 252.247237 74.704761 
L 244.770763 76.026149 
L 237.294288 78.889927 
L 229.817813 82.211067 
L 222.341338 84.09959 
L 214.864863 86.832354 
L 207.388388 90.521003 
L 199.911913 92.388062 
L 192.435438 95.33569 
L 184.958963 97.293099 
L 177.482488 101.572825 
L 170.006013 104.560054 
L 162.529538 107.686628 
L 155.053063 110.354904 
L 147.576588 113.931647 
L 140.100113 116.772766 
L 132.623638 120.288355 
L 125.147163 124.814355 
L 117.670688 128.696148 
L 110.194213 135.108509 
L 102.717738 140.626434 
L 95.241263 147.569218 
L 87.764788 155.189544 
L 80.288314 164.733788 
L 72.811839 173.969915 
L 65.335364 181.056202 
z
" clip-path="url(#pdaf249c3ae)" style="fill: #1f77b4; fill-opacity: 0.27"/>
   </g>
   <g id="FillBetweenPolyCollection_2">
    <path d="M 65.335364 195.423988 
L 65.335364 244.05062 
L 72.811839 239.777164 
L 80.288314 236.244559 
L 87.764788 233.390983 
L 95.241263 231.143791 
L 102.717738 229.423606 
L 110.194213 228.148296 
L 117.670688 227.236658 
L 125.147163 226.611635 
L 132.623638 226.202941 
L 140.100113 225.949014 
L 147.576588 225.798255 
L 155.053063 225.709555 
L 162.529538 225.652174 
L 170.006013 225.605053 
L 177.482488 225.55567 
L 184.958963 225.498575 
L 192.435438 225.433756 
L 199.911913 225.364947 
L 207.388388 225.298032 
L 214.864863 225.239622 
L 222.341338 225.195902 
L 229.817813 225.171785 
L 237.294288 225.170392 
L 244.770763 225.192842 
L 252.247237 225.238334 
L 259.723712 225.304432 
L 267.200187 225.387527 
L 274.676662 225.483358 
L 282.153137 225.587565 
L 289.629612 225.69617 
L 297.106087 225.805966 
L 304.582562 225.914762 
L 312.059037 226.021475 
L 319.535512 226.12607 
L 327.011987 226.229363 
L 334.488462 226.332723 
L 341.964937 226.43771 
L 349.441412 226.545691 
L 356.917887 226.657488 
L 364.394362 226.773087 
L 371.870837 226.891443 
L 379.347312 227.010409 
L 386.823787 227.126786 
L 394.300262 227.236494 
L 401.776737 227.334857 
L 409.253212 227.416961 
L 416.729686 227.478065 
L 424.206161 227.514022 
L 431.682636 227.521679 
L 431.682636 36.22324 
L 431.682636 36.22324 
L 424.206161 37.644332 
L 416.729686 39.163445 
L 409.253212 40.763233 
L 401.776737 42.426863 
L 394.300262 44.142736 
L 386.823787 45.905102 
L 379.347312 47.707771 
L 371.870837 49.545736 
L 364.394362 51.414652 
L 356.917887 53.310498 
L 349.441412 55.229412 
L 341.964937 57.167736 
L 334.488462 59.122224 
L 327.011987 61.090381 
L 319.535512 63.070866 
L 312.059037 65.063901 
L 304.582562 67.071596 
L 297.106087 69.098137 
L 289.629612 71.149774 
L 282.153137 73.234578 
L 274.676662 75.361957 
L 267.200187 77.541955 
L 259.723712 79.784385 
L 252.247237 82.097876 
L 244.770763 84.488937 
L 237.294288 86.961153 
L 229.817813 89.514646 
L 222.341338 92.145891 
L 214.864863 94.848013 
L 207.388388 97.611605 
L 199.911913 100.426098 
L 192.435438 103.281668 
L 184.958963 106.17159 
L 177.482488 109.094931 
L 170.006013 112.0594 
L 162.529538 115.084155 
L 155.053063 118.202336 
L 147.576588 121.463091 
L 140.100113 124.932862 
L 132.623638 128.69574 
L 125.147163 132.85272 
L 117.670688 137.519774 
L 110.194213 142.824713 
L 102.717738 148.902874 
L 95.241263 155.891792 
L 87.764788 163.925023 
L 80.288314 173.125425 
L 72.811839 183.598188 
L 65.335364 195.423988 
z
" clip-path="url(#pdaf249c3ae)" style="fill: #ff7f0e; fill-opacity: 0.45"/>
   </g>
   <g id="FillBetweenPolyCollection_3">
    <path d="M 65.335364 195.375162 
L 65.335364 262.52476 
L 72.811839 262.166367 
L 80.288314 259.491795 
L 87.764788 259.610789 
L 95.241263 256.183855 
L 102.717738 256.244005 
L 110.194213 254.997046 
L 117.670688 255.475342 
L 125.147163 255.474607 
L 132.623638 253.440337 
L 140.100113 255.385921 
L 147.576588 252.701611 
L 155.053063 253.712217 
L 162.529538 252.08217 
L 170.006013 251.530462 
L 177.482488 250.112833 
L 184.958963 250.501335 
L 192.435438 250.062941 
L 199.911913 251.845753 
L 207.388388 249.580064 
L 214.864863 248.159284 
L 222.341338 248.652101 
L 229.817813 248.866084 
L 237.294288 247.649888 
L 244.770763 247.301233 
L 252.247237 249.304393 
L 259.723712 248.50702 
L 267.200187 246.903706 
L 274.676662 247.808804 
L 282.153137 247.315135 
L 289.629612 247.650166 
L 297.106087 246.863082 
L 304.582562 247.675467 
L 312.059037 246.323703 
L 319.535512 246.892204 
L 327.011987 244.822624 
L 334.488462 244.151058 
L 341.964937 243.296993 
L 349.441412 245.112251 
L 356.917887 244.055443 
L 364.394362 243.720775 
L 371.870837 243.60086 
L 379.347312 242.496499 
L 386.823787 244.496649 
L 394.300262 242.518423 
L 401.776737 242.847707 
L 409.253212 242.655518 
L 416.729686 240.322787 
L 424.206161 240.022675 
L 431.682636 240.738908 
L 431.682636 151.072661 
L 431.682636 151.072661 
L 424.206161 151.623651 
L 416.729686 153.011051 
L 409.253212 153.207824 
L 401.776737 153.394882 
L 394.300262 155.051567 
L 386.823787 156.104497 
L 379.347312 156.814979 
L 371.870837 158.109595 
L 364.394362 158.097823 
L 356.917887 158.559395 
L 349.441412 160.985876 
L 341.964937 161.317045 
L 334.488462 161.77663 
L 327.011987 163.188727 
L 319.535512 163.529219 
L 312.059037 165.461852 
L 304.582562 166.04616 
L 297.106087 165.999499 
L 289.629612 167.279753 
L 282.153137 169.619544 
L 274.676662 170.527536 
L 267.200187 170.370883 
L 259.723712 171.93002 
L 252.247237 172.669253 
L 244.770763 174.312482 
L 237.294288 173.989615 
L 229.817813 174.942588 
L 222.341338 176.258406 
L 214.864863 177.242265 
L 207.388388 176.667458 
L 199.911913 177.508117 
L 192.435438 178.956253 
L 184.958963 177.896584 
L 177.482488 179.829592 
L 170.006013 180.344045 
L 162.529538 179.338754 
L 155.053063 179.330564 
L 147.576588 182.086471 
L 140.100113 181.210647 
L 132.623638 179.700608 
L 125.147163 179.632448 
L 117.670688 182.071695 
L 110.194213 181.065608 
L 102.717738 184.597557 
L 95.241263 184.704372 
L 87.764788 187.288157 
L 80.288314 189.906667 
L 72.811839 193.398427 
L 65.335364 195.375162 
z
" clip-path="url(#pdaf249c3ae)" style="fill: #2ca02c; fill-opacity: 0.27"/>
   </g>
   <g id="FillBetweenPolyCollection_4">
    <path d="M 65.335364 215.026751 
L 65.335364 250.998497 
L 72.811839 249.601523 
L 80.288314 248.428044 
L 87.764788 247.454277 
L 95.241263 246.639175 
L 102.717738 245.943187 
L 110.194213 245.335304 
L 117.670688 244.788704 
L 125.147163 244.281531 
L 132.623638 243.79728 
L 140.100113 243.32478 
L 147.576588 242.857813 
L 155.053063 242.394448 
L 162.529538 241.936156 
L 170.006013 241.486795 
L 177.482488 241.051556 
L 184.958963 240.635958 
L 192.435438 240.244961 
L 199.911913 239.882262 
L 207.388388 239.549812 
L 214.864863 239.247566 
L 222.341338 238.97348 
L 229.817813 238.72371 
L 237.294288 238.492996 
L 244.770763 238.275156 
L 252.247237 238.063656 
L 259.723712 237.852179 
L 267.200187 237.63514 
L 274.676662 237.408109 
L 282.153137 237.168095 
L 289.629612 236.913681 
L 297.106087 236.645003 
L 304.582562 236.363575 
L 312.059037 236.072007 
L 319.535512 235.773623 
L 327.011987 235.472046 
L 334.488462 235.170771 
L 341.964937 234.872795 
L 349.441412 234.580309 
L 356.917887 234.294512 
L 364.394362 234.015537 
L 371.870837 233.742509 
L 379.347312 233.473728 
L 386.823787 233.206943 
L 394.300262 232.93971 
L 401.776737 232.66978 
L 409.253212 232.3955 
L 416.729686 232.116165 
L 424.206161 231.832315 
L 431.682636 231.545924 
L 431.682636 158.339205 
L 431.682636 158.339205 
L 424.206161 159.151808 
L 416.729686 159.990017 
L 409.253212 160.845454 
L 401.776737 161.712926 
L 394.300262 162.589991 
L 386.823787 163.476367 
L 379.347312 164.373276 
L 371.870837 165.282761 
L 364.394362 166.207044 
L 356.917887 167.147989 
L 349.441412 168.106702 
L 341.964937 169.083306 
L 334.488462 170.076911 
L 327.011987 171.085746 
L 319.535512 172.107465 
L 312.059037 173.139553 
L 304.582562 174.179796 
L 297.106087 175.22675 
L 289.629612 176.280146 
L 282.153137 177.341165 
L 274.676662 178.412564 
L 267.200187 179.498592 
L 259.723712 180.604721 
L 252.247237 181.737185 
L 244.770763 182.902392 
L 237.294288 184.106251 
L 229.817813 185.353504 
L 222.341338 186.647154 
L 214.864863 187.988067 
L 207.388388 189.368749 
L 199.911913 190.796394 
L 192.435438 192.262636 
L 184.958963 193.761232 
L 177.482488 195.286954 
L 170.006013 196.837368 
L 162.529538 198.414163 
L 155.053063 199.335245 
L 147.576588 199.376727 
L 140.100113 199.495507 
L 132.623638 199.723482 
L 125.147163 200.102227 
L 117.670688 200.678697 
L 110.194213 201.507177 
L 102.717738 202.649092 
L 95.241263 204.152219 
L 87.764788 206.088607 
L 80.288314 208.512017 
L 72.811839 211.477253 
L 65.335364 215.026751 
z
" clip-path="url(#pdaf249c3ae)" style="fill: #d62728; fill-opacity: 0.45"/>
   </g>
   <g id="FillBetweenPolyCollection_5">
    <path d="M 65.335364 227.85582 
L 65.335364 275.607816 
L 72.811839 273.992972 
L 80.288314 273.5022 
L 87.764788 271.782322 
L 95.241263 271.533724 
L 102.717738 271.307278 
L 110.194213 270.975325 
L 117.670688 271.092724 
L 125.147163 269.718814 
L 132.623638 270.780698 
L 140.100113 269.985938 
L 147.576588 270.944149 
L 155.053063 270.111662 
L 162.529538 270.867528 
L 170.006013 270.09339 
L 177.482488 269.273321 
L 184.958963 268.001145 
L 192.435438 267.062272 
L 199.911913 269.667311 
L 207.388388 265.901634 
L 214.864863 267.33094 
L 222.341338 268.6308 
L 229.817813 267.047982 
L 237.294288 267.970101 
L 244.770763 268.331075 
L 252.247237 267.058534 
L 259.723712 267.075372 
L 267.200187 267.0957 
L 274.676662 267.374477 
L 282.153137 266.18711 
L 289.629612 265.311906 
L 297.106087 266.812665 
L 304.582562 265.541039 
L 312.059037 264.179961 
L 319.535512 265.364377 
L 327.011987 265.4746 
L 334.488462 266.066327 
L 341.964937 265.879438 
L 349.441412 263.692109 
L 356.917887 264.650937 
L 364.394362 265.403561 
L 371.870837 264.460189 
L 379.347312 263.739478 
L 386.823787 265.591569 
L 394.300262 266.126553 
L 401.776737 263.990975 
L 409.253212 263.75574 
L 416.729686 265.008402 
L 424.206161 264.142956 
L 431.682636 262.944536 
L 431.682636 211.739144 
L 431.682636 211.739144 
L 424.206161 211.754402 
L 416.729686 212.05718 
L 409.253212 210.860287 
L 401.776737 210.248054 
L 394.300262 211.344576 
L 386.823787 211.917133 
L 379.347312 211.009535 
L 371.870837 211.599463 
L 364.394362 212.724034 
L 356.917887 210.152108 
L 349.441412 211.408472 
L 341.964937 212.354692 
L 334.488462 212.098574 
L 327.011987 213.812835 
L 319.535512 213.095678 
L 312.059037 214.579986 
L 304.582562 214.569316 
L 297.106087 212.966119 
L 289.629612 215.393918 
L 282.153137 212.488541 
L 274.676662 213.73234 
L 267.200187 214.787984 
L 259.723712 215.949204 
L 252.247237 215.72541 
L 244.770763 214.755105 
L 237.294288 216.550275 
L 229.817813 216.597603 
L 222.341338 216.873522 
L 214.864863 216.126479 
L 207.388388 216.577748 
L 199.911913 217.750923 
L 192.435438 217.606277 
L 184.958963 217.94298 
L 177.482488 218.536426 
L 170.006013 219.094121 
L 162.529538 220.70185 
L 155.053063 219.527094 
L 147.576588 219.196412 
L 140.100113 221.589832 
L 132.623638 220.829589 
L 125.147163 221.410857 
L 117.670688 221.164025 
L 110.194213 222.686845 
L 102.717738 224.802286 
L 95.241263 223.596039 
L 87.764788 225.76217 
L 80.288314 225.594777 
L 72.811839 226.318972 
L 65.335364 227.85582 
z
" clip-path="url(#pdaf249c3ae)" style="fill: #9467bd; fill-opacity: 0.27"/>
   </g>
   <g id="FillBetweenPolyCollection_6">
    <path d="M 65.335364 247.542478 
L 65.335364 261.058583 
L 72.811839 259.566073 
L 80.288314 258.229569 
L 87.764788 257.387841 
L 95.241263 257.217765 
L 102.717738 257.083586 
L 110.194213 256.976329 
L 117.670688 256.887421 
L 125.147163 256.809052 
L 132.623638 256.734459 
L 140.100113 256.658113 
L 147.576588 256.575787 
L 155.053063 256.484603 
L 162.529538 256.386059 
L 170.006013 256.273761 
L 177.482488 256.152877 
L 184.958963 256.025425 
L 192.435438 255.889868 
L 199.911913 255.747735 
L 207.388388 255.601999 
L 214.864863 255.455071 
L 222.341338 255.309075 
L 229.817813 255.165869 
L 237.294288 255.026967 
L 244.770763 254.893497 
L 252.247237 254.765469 
L 259.723712 254.643764 
L 267.200187 254.529251 
L 274.676662 254.422723 
L 282.153137 254.322738 
L 289.629612 254.224261 
L 297.106087 254.131404 
L 304.582562 254.04121 
L 312.059037 253.952038 
L 319.535512 253.862767 
L 327.011987 253.772368 
L 334.488462 253.679952 
L 341.964937 253.584815 
L 349.441412 253.486467 
L 356.917887 253.384663 
L 364.394362 253.27942 
L 371.870837 253.171018 
L 379.347312 253.059991 
L 386.823787 252.947101 
L 394.300262 252.83329 
L 401.776737 252.719625 
L 409.253212 252.607204 
L 416.729686 252.497069 
L 424.206161 252.390098 
L 431.682636 252.286889 
L 431.682636 230.06267 
L 431.682636 230.06267 
L 424.206161 230.199278 
L 416.729686 230.340067 
L 409.253212 230.484153 
L 401.776737 230.631177 
L 394.300262 230.780892 
L 386.823787 230.933495 
L 379.347312 231.089197 
L 371.870837 231.249744 
L 364.394362 231.414652 
L 356.917887 231.585421 
L 349.441412 231.762577 
L 341.964937 231.946088 
L 334.488462 232.136669 
L 327.011987 232.333942 
L 319.535512 232.537884 
L 312.059037 232.7482 
L 304.582562 232.964596 
L 297.106087 233.186861 
L 289.629612 233.414962 
L 282.153137 233.649106 
L 274.676662 233.889768 
L 267.200187 234.137747 
L 259.723712 234.393963 
L 252.247237 234.659534 
L 244.770763 234.935611 
L 237.294288 235.223212 
L 229.817813 235.523156 
L 222.341338 235.835897 
L 214.864863 236.161412 
L 207.388388 236.499186 
L 199.911913 236.848238 
L 192.435438 237.207238 
L 184.958963 237.574698 
L 177.482488 237.949243 
L 170.006013 238.329954 
L 162.529538 238.716793 
L 155.053063 239.110922 
L 147.576588 239.515172 
L 140.100113 239.934378 
L 132.623638 240.375644 
L 125.147163 240.848485 
L 117.670688 241.364826 
L 110.194213 241.938828 
L 102.717738 242.586512 
L 95.241263 243.325299 
L 87.764788 244.173171 
L 80.288314 245.147933 
L 72.811839 246.266224 
L 65.335364 247.542478 
z
" clip-path="url(#pdaf249c3ae)" style="fill: #8c564b; fill-opacity: 0.45"/>
   </g>
   <g id="FillBetweenPolyCollection_7">
    <path d="M 65.335364 234.221392 
L 65.335364 289.120651 
L 72.811839 286.883179 
L 80.288314 286.469654 
L 87.764788 288.497349 
L 95.241263 285.61488 
L 102.717738 284.497973 
L 110.194213 283.72916 
L 117.670688 283.541332 
L 125.147163 281.504283 
L 132.623638 280.604059 
L 140.100113 280.507843 
L 147.576588 278.201916 
L 155.053063 278.506443 
L 162.529538 277.584145 
L 170.006013 277.95303 
L 177.482488 276.924153 
L 184.958963 276.415005 
L 192.435438 276.376354 
L 199.911913 275.27796 
L 207.388388 275.072591 
L 214.864863 276.104272 
L 222.341338 275.855961 
L 229.817813 276.657322 
L 237.294288 276.937169 
L 244.770763 275.103177 
L 252.247237 274.696964 
L 259.723712 276.647066 
L 267.200187 276.309587 
L 274.676662 277.107858 
L 282.153137 278.223705 
L 289.629612 276.008547 
L 297.106087 276.484748 
L 304.582562 276.16478 
L 312.059037 277.260357 
L 319.535512 275.921342 
L 327.011987 277.025369 
L 334.488462 276.49165 
L 341.964937 277.972709 
L 349.441412 276.625319 
L 356.917887 280.005692 
L 364.394362 277.153299 
L 371.870837 277.604256 
L 379.347312 277.461851 
L 386.823787 276.667402 
L 394.300262 277.308623 
L 401.776737 276.553517 
L 409.253212 277.510427 
L 416.729686 276.661564 
L 424.206161 276.442175 
L 431.682636 276.792444 
L 431.682636 198.050165 
L 431.682636 198.050165 
L 424.206161 195.295615 
L 416.729686 193.739561 
L 409.253212 191.672437 
L 401.776737 190.531218 
L 394.300262 188.286367 
L 386.823787 188.456021 
L 379.347312 188.704356 
L 371.870837 187.358148 
L 364.394362 188.21001 
L 356.917887 187.219232 
L 349.441412 187.738705 
L 341.964937 186.761605 
L 334.488462 187.31859 
L 327.011987 188.532253 
L 319.535512 189.06052 
L 312.059037 189.021656 
L 304.582562 192.294609 
L 297.106087 191.082988 
L 289.629612 193.564748 
L 282.153137 194.34206 
L 274.676662 194.639659 
L 267.200187 199.266952 
L 259.723712 201.910788 
L 252.247237 204.510917 
L 244.770763 203.61646 
L 237.294288 205.417504 
L 229.817813 208.689191 
L 222.341338 210.795074 
L 214.864863 214.548913 
L 207.388388 216.007686 
L 199.911913 219.101474 
L 192.435438 219.048172 
L 184.958963 223.037991 
L 177.482488 225.102063 
L 170.006013 225.730089 
L 162.529538 228.723429 
L 155.053063 229.362852 
L 147.576588 229.713656 
L 140.100113 230.137204 
L 132.623638 230.435144 
L 125.147163 234.246471 
L 117.670688 231.472581 
L 110.194213 231.59609 
L 102.717738 233.504688 
L 95.241263 232.85789 
L 87.764788 234.737932 
L 80.288314 233.404438 
L 72.811839 230.973844 
L 65.335364 234.221392 
z
" clip-path="url(#pdaf249c3ae)" style="fill: #e377c2; fill-opacity: 0.27"/>
   </g>
   <g id="FillBetweenPolyCollection_8">
    <path d="M 65.335364 246.218276 
L 65.335364 267.594717 
L 72.811839 266.720503 
L 80.288314 265.763846 
L 87.764788 264.724395 
L 95.241263 263.602142 
L 102.717738 262.39573 
L 110.194213 261.103687 
L 117.670688 260.524907 
L 125.147163 260.402043 
L 132.623638 260.263016 
L 140.100113 260.107345 
L 147.576588 259.93541 
L 155.053063 259.748385 
L 162.529538 259.546587 
L 170.006013 259.328536 
L 177.482488 259.101906 
L 184.958963 258.869717 
L 192.435438 258.634977 
L 199.911913 258.400526 
L 207.388388 258.168895 
L 214.864863 257.997956 
L 222.341338 257.888443 
L 229.817813 257.884116 
L 237.294288 258.125598 
L 244.770763 258.714274 
L 252.247237 259.334849 
L 259.723712 259.967103 
L 267.200187 260.604355 
L 274.676662 261.239085 
L 282.153137 261.863222 
L 289.629612 262.468443 
L 297.106087 263.046469 
L 304.582562 263.589359 
L 312.059037 264.089768 
L 319.535512 264.541169 
L 327.011987 264.938036 
L 334.488462 265.275964 
L 341.964937 265.551746 
L 349.441412 265.76338 
L 356.917887 265.910035 
L 364.394362 265.991963 
L 371.870837 266.010365 
L 379.347312 265.967235 
L 386.823787 265.865151 
L 394.300262 265.707091 
L 401.776737 265.496289 
L 409.253212 265.235936 
L 416.729686 264.925867 
L 424.206161 264.580429 
L 431.682636 264.213183 
L 431.682636 216.322667 
L 431.682636 216.322667 
L 424.206161 215.101798 
L 416.729686 213.928761 
L 409.253212 212.81786 
L 401.776737 211.784748 
L 394.300262 210.84531 
L 386.823787 210.01527 
L 379.347312 209.309883 
L 371.870837 208.743624 
L 364.394362 208.329869 
L 356.917887 208.080575 
L 349.441412 208.005971 
L 341.964937 208.114283 
L 334.488462 208.411491 
L 327.011987 208.901136 
L 319.535512 209.584189 
L 312.059037 210.458986 
L 304.582562 211.521225 
L 297.106087 212.764046 
L 289.629612 214.178181 
L 282.153137 215.752391 
L 274.676662 217.475063 
L 267.200187 219.329192 
L 259.723712 221.295497 
L 252.247237 223.357441 
L 244.770763 225.498943 
L 237.294288 227.702609 
L 229.817813 229.949905 
L 222.341338 232.216795 
L 214.864863 234.489197 
L 207.388388 236.754849 
L 199.911913 238.999575 
L 192.435438 241.209576 
L 184.958963 243.373531 
L 177.482488 245.480931 
L 170.006013 247.522971 
L 162.529538 249.492399 
L 155.053063 251.383428 
L 147.576588 251.869849 
L 140.100113 251.530154 
L 132.623638 251.146249 
L 125.147163 250.701267 
L 117.670688 250.233703 
L 110.194213 249.743372 
L 102.717738 249.230728 
L 95.241263 248.648415 
L 87.764788 248.04028 
L 80.288314 247.429137 
L 72.811839 246.819302 
L 65.335364 246.218276 
z
" clip-path="url(#pdaf249c3ae)" style="fill: #7f7f7f; fill-opacity: 0.45"/>
   </g>
   <g id="matplotlib.axis_1">
    <g id="xtick_1">
     <g id="line2d_1">
      <defs>
       <path id="m41cbdd97f9" d="M 0 0 
L 0 3.5 
" style="stroke: #000000; stroke-width: 0.8"/>
      </defs>
      <g>
       <use xlink:href="#m41cbdd97f9" x="61.634886" y="302.2" style="stroke: #000000; stroke-width: 0.8"/>
      </g>
     </g>
     <g id="text_1">
      <!-- 0 -->
      <g transform="translate(58.453636 316.798437) scale(0.1 -0.1)">
       <defs>
        <path id="DejaVuSans-30" d="M 2034 4250 
Q 1547 4250 1301 3770 
Q 1056 3291 1056 2328 
Q 1056 1369 1301 889 
Q 1547 409 2034 409 
Q 2525 409 2770 889 
Q 3016 1369 3016 2328 
Q 3016 3291 2770 3770 
Q 2525 4250 2034 4250 
z
M 2034 4750 
Q 2819 4750 3233 4129 
Q 3647 3509 3647 2328 
Q 3647 1150 3233 529 
Q 2819 -91 2034 -91 
Q 1250 -91 836 529 
Q 422 1150 422 2328 
Q 422 3509 836 4129 
Q 1250 4750 2034 4750 
z
" transform="scale(0.015625)"/>
       </defs>
       <use xlink:href="#DejaVuSans-30"/>
      </g>
     </g>
    </g>
    <g id="xtick_2">
     <g id="line2d_2">
      <g>
       <use xlink:href="#m41cbdd97f9" x="135.644436" y="302.2" style="stroke: #000000; stroke-width: 0.8"/>
      </g>
     </g>
     <g id="text_2">
      <!-- 1 -->
      <g transform="translate(132.463186 316.798437) scale(0.1 -0.1)">
       <defs>
        <path id="DejaVuSans-31" d="M 794 531 
L 1825 531 
L 1825 4091 
L 703 3866 
L 703 4441 
L 1819 4666 
L 2450 4666 
L 2450 531 
L 3481 531 
L 3481 0 
L 794 0 
L 794 531 
z
" transform="scale(0.015625)"/>
       </defs>
       <use xlink:href="#DejaVuSans-31"/>
      </g>
     </g>
    </g>
    <g id="xtick_3">
     <g id="line2d_3">
      <g>
       <use xlink:href="#m41cbdd97f9" x="209.653986" y="302.2" style="stroke: #000000; stroke-width: 0.8"/>
      </g>
     </g>
     <g id="text_3">
      <!-- 2 -->
      <g transform="translate(206.472736 316.798437) scale(0.1 -0.1)">
       <defs>
        <path id="DejaVuSans-32" d="M 1228 531 
L 3431 531 
L 3431 0 
L 469 0 
L 469 531 
Q 828 903 1448 1529 
Q 2069 2156 2228 2338 
Q 2531 2678 2651 2914 
Q 2772 3150 2772 3378 
Q 2772 3750 2511 3984 
Q 2250 4219 1831 4219 
Q 1534 4219 1204 4116 
Q 875 4013 500 3803 
L 500 4441 
Q 881 4594 1212 4672 
Q 1544 4750 1819 4750 
Q 2544 4750 2975 4387 
Q 3406 4025 3406 3419 
Q 3406 3131 3298 2873 
Q 3191 2616 2906 2266 
Q 2828 2175 2409 1742 
Q 1991 1309 1228 531 
z
" transform="scale(0.015625)"/>
       </defs>
       <use xlink:href="#DejaVuSans-32"/>
      </g>
     </g>
    </g>
    <g id="xtick_4">
     <g id="line2d_4">
      <g>
       <use xlink:href="#m41cbdd97f9" x="283.663536" y="302.2" style="stroke: #000000; stroke-width: 0.8"/>
      </g>
     </g>
     <g id="text_4">
      <!-- 3 -->
      <g transform="translate(280.482286 316.798437) scale(0.1 -0.1)">
       <defs>
        <path id="DejaVuSans-33" d="M 2597 2516 
Q 3050 2419 3304 2112 
Q 3559 1806 3559 1356 
Q 3559 666 3084 287 
Q 2609 -91 1734 -91 
Q 1441 -91 1130 -33 
Q 819 25 488 141 
L 488 750 
Q 750 597 1062 519 
Q 1375 441 1716 441 
Q 2309 441 2620 675 
Q 2931 909 2931 1356 
Q 2931 1769 2642 2001 
Q 2353 2234 1838 2234 
L 1294 2234 
L 1294 2753 
L 1863 2753 
Q 2328 2753 2575 2939 
Q 2822 3125 2822 3475 
Q 2822 3834 2567 4026 
Q 2313 4219 1838 4219 
Q 1578 4219 1281 4162 
Q 984 4106 628 3988 
L 628 4550 
Q 988 4650 1302 4700 
Q 1616 4750 1894 4750 
Q 2613 4750 3031 4423 
Q 3450 4097 3450 3541 
Q 3450 3153 3228 2886 
Q 3006 2619 2597 2516 
z
" transform="scale(0.015625)"/>
       </defs>
       <use xlink:href="#DejaVuSans-33"/>
      </g>
     </g>
    </g>
    <g id="xtick_5">
     <g id="line2d_5">
      <g>
       <use xlink:href="#m41cbdd97f9" x="357.673086" y="302.2" style="stroke: #000000; stroke-width: 0.8"/>
      </g>
     </g>
     <g id="text_5">
      <!-- 4 -->
      <g transform="translate(354.491836 316.798437) scale(0.1 -0.1)">
       <defs>
        <path id="DejaVuSans-34" d="M 2419 4116 
L 825 1625 
L 2419 1625 
L 2419 4116 
z
M 2253 4666 
L 3047 4666 
L 3047 1625 
L 3713 1625 
L 3713 1100 
L 3047 1100 
L 3047 0 
L 2419 0 
L 2419 1100 
L 313 1100 
L 313 1709 
L 2253 4666 
z
" transform="scale(0.015625)"/>
       </defs>
       <use xlink:href="#DejaVuSans-34"/>
      </g>
     </g>
    </g>
    <g id="xtick_6">
     <g id="line2d_6">
      <g>
       <use xlink:href="#m41cbdd97f9" x="431.682636" y="302.2" style="stroke: #000000; stroke-width: 0.8"/>
      </g>
     </g>
     <g id="text_6">
      <!-- 5 -->
      <g transform="translate(428.501386 316.798437) scale(0.1 -0.1)">
       <defs>
        <path id="DejaVuSans-35" d="M 691 4666 
L 3169 4666 
L 3169 4134 
L 1269 4134 
L 1269 2991 
Q 1406 3038 1543 3061 
Q 1681 3084 1819 3084 
Q 2600 3084 3056 2656 
Q 3513 2228 3513 1497 
Q 3513 744 3044 326 
Q 2575 -91 1722 -91 
Q 1428 -91 1123 -41 
Q 819 9 494 109 
L 494 744 
Q 775 591 1075 516 
Q 1375 441 1709 441 
Q 2250 441 2565 725 
Q 2881 1009 2881 1497 
Q 2881 1984 2565 2268 
Q 2250 2553 1709 2553 
Q 1456 2553 1204 2497 
Q 953 2441 691 2322 
L 691 4666 
z
" transform="scale(0.015625)"/>
       </defs>
       <use xlink:href="#DejaVuSans-35"/>
      </g>
     </g>
    </g>
    <g id="text_7">
     <!-- $W$ (m/hour) -->
     <g transform="translate(220.059 330.476562) scale(0.1 -0.1)">
      <defs>
       <path id="DejaVuSans-Oblique-57" d="M 616 4666 
L 1228 4666 
L 1453 697 
L 3213 4666 
L 3916 4666 
L 4147 697 
L 5888 4666 
L 6528 4666 
L 4453 0 
L 3659 0 
L 3444 3891 
L 1697 0 
L 903 0 
L 616 4666 
z
" transform="scale(0.015625)"/>
       <path id="DejaVuSans-20" transform="scale(0.015625)"/>
       <path id="DejaVuSans-28" d="M 1984 4856 
Q 1566 4138 1362 3434 
Q 1159 2731 1159 2009 
Q 1159 1288 1364 580 
Q 1569 -128 1984 -844 
L 1484 -844 
Q 1016 -109 783 600 
Q 550 1309 550 2009 
Q 550 2706 781 3412 
Q 1013 4119 1484 4856 
L 1984 4856 
z
" transform="scale(0.015625)"/>
       <path id="DejaVuSans-6d" d="M 3328 2828 
Q 3544 3216 3844 3400 
Q 4144 3584 4550 3584 
Q 5097 3584 5394 3201 
Q 5691 2819 5691 2113 
L 5691 0 
L 5113 0 
L 5113 2094 
Q 5113 2597 4934 2840 
Q 4756 3084 4391 3084 
Q 3944 3084 3684 2787 
Q 3425 2491 3425 1978 
L 3425 0 
L 2847 0 
L 2847 2094 
Q 2847 2600 2669 2842 
Q 2491 3084 2119 3084 
Q 1678 3084 1418 2786 
Q 1159 2488 1159 1978 
L 1159 0 
L 581 0 
L 581 3500 
L 1159 3500 
L 1159 2956 
Q 1356 3278 1631 3431 
Q 1906 3584 2284 3584 
Q 2666 3584 2933 3390 
Q 3200 3197 3328 2828 
z
" transform="scale(0.015625)"/>
       <path id="DejaVuSans-2f" d="M 1625 4666 
L 2156 4666 
L 531 -594 
L 0 -594 
L 1625 4666 
z
" transform="scale(0.015625)"/>
       <path id="DejaVuSans-68" d="M 3513 2113 
L 3513 0 
L 2938 0 
L 2938 2094 
Q 2938 2591 2744 2837 
Q 2550 3084 2163 3084 
Q 1697 3084 1428 2787 
Q 1159 2491 1159 1978 
L 1159 0 
L 581 0 
L 581 4863 
L 1159 4863 
L 1159 2956 
Q 1366 3272 1645 3428 
Q 1925 3584 2291 3584 
Q 2894 3584 3203 3211 
Q 3513 2838 3513 2113 
z
" transform="scale(0.015625)"/>
       <path id="DejaVuSans-6f" d="M 1959 3097 
Q 1497 3097 1228 2736 
Q 959 2375 959 1747 
Q 959 1119 1226 758 
Q 1494 397 1959 397 
Q 2419 397 2687 759 
Q 2956 1122 2956 1747 
Q 2956 2369 2687 2733 
Q 2419 3097 1959 3097 
z
M 1959 3584 
Q 2709 3584 3137 3096 
Q 3566 2609 3566 1747 
Q 3566 888 3137 398 
Q 2709 -91 1959 -91 
Q 1206 -91 779 398 
Q 353 888 353 1747 
Q 353 2609 779 3096 
Q 1206 3584 1959 3584 
z
" transform="scale(0.015625)"/>
       <path id="DejaVuSans-75" d="M 544 1381 
L 544 3500 
L 1119 3500 
L 1119 1403 
Q 1119 906 1312 657 
Q 1506 409 1894 409 
Q 2359 409 2629 706 
Q 2900 1003 2900 1516 
L 2900 3500 
L 3475 3500 
L 3475 0 
L 2900 0 
L 2900 538 
Q 2691 219 2414 64 
Q 2138 -91 1772 -91 
Q 1169 -91 856 284 
Q 544 659 544 1381 
z
M 1991 3584 
L 1991 3584 
z
" transform="scale(0.015625)"/>
       <path id="DejaVuSans-72" d="M 2631 2963 
Q 2534 3019 2420 3045 
Q 2306 3072 2169 3072 
Q 1681 3072 1420 2755 
Q 1159 2438 1159 1844 
L 1159 0 
L 581 0 
L 581 3500 
L 1159 3500 
L 1159 2956 
Q 1341 3275 1631 3429 
Q 1922 3584 2338 3584 
Q 2397 3584 2469 3576 
Q 2541 3569 2628 3553 
L 2631 2963 
z
" transform="scale(0.015625)"/>
       <path id="DejaVuSans-29" d="M 513 4856 
L 1013 4856 
Q 1481 4119 1714 3412 
Q 1947 2706 1947 2009 
Q 1947 1309 1714 600 
Q 1481 -109 1013 -844 
L 513 -844 
Q 928 -128 1133 580 
Q 1338 1288 1338 2009 
Q 1338 2731 1133 3434 
Q 928 4138 513 4856 
z
" transform="scale(0.015625)"/>
      </defs>
      <use xlink:href="#DejaVuSans-Oblique-57" transform="translate(0 0.015625)"/>
      <use xlink:href="#DejaVuSans-20" transform="translate(98.876953 0.015625)"/>
      <use xlink:href="#DejaVuSans-28" transform="translate(130.664062 0.015625)"/>
      <use xlink:href="#DejaVuSans-6d" transform="translate(169.677734 0.015625)"/>
      <use xlink:href="#DejaVuSans-2f" transform="translate(267.089844 0.015625)"/>
      <use xlink:href="#DejaVuSans-68" transform="translate(300.78125 0.015625)"/>
      <use xlink:href="#DejaVuSans-6f" transform="translate(364.160156 0.015625)"/>
      <use xlink:href="#DejaVuSans-75" transform="translate(425.341797 0.015625)"/>
      <use xlink:href="#DejaVuSans-72" transform="translate(488.720703 0.015625)"/>
      <use xlink:href="#DejaVuSans-29" transform="translate(529.833984 0.015625)"/>
     </g>
    </g>
   </g>
   <g id="matplotlib.axis_2">
    <g id="ytick_1">
     <g id="line2d_7">
      <defs>
       <path id="m82d1be7a39" d="M 0 0 
L -3.5 0 
" style="stroke: #000000; stroke-width: 0.8"/>
      </defs>
      <g>
       <use xlink:href="#m82d1be7a39" x="47.018" y="266.491097" style="stroke: #000000; stroke-width: 0.8"/>
      </g>
     </g>
     <g id="text_8">
      <!-- 0 -->
      <g transform="translate(33.6555 270.290316) scale(0.1 -0.1)">
       <use xlink:href="#DejaVuSans-30"/>
      </g>
     </g>
    </g>
    <g id="ytick_2">
     <g id="line2d_8">
      <g>
       <use xlink:href="#m82d1be7a39" x="47.018" y="203.564535" style="stroke: #000000; stroke-width: 0.8"/>
      </g>
     </g>
     <g id="text_9">
      <!-- 10 -->
      <g transform="translate(27.293 207.363754) scale(0.1 -0.1)">
       <use xlink:href="#DejaVuSans-31"/>
       <use xlink:href="#DejaVuSans-30" transform="translate(63.623047 0)"/>
      </g>
     </g>
    </g>
    <g id="ytick_3">
     <g id="line2d_9">
      <g>
       <use xlink:href="#m82d1be7a39" x="47.018" y="140.637973" style="stroke: #000000; stroke-width: 0.8"/>
      </g>
     </g>
     <g id="text_10">
      <!-- 20 -->
      <g transform="translate(27.293 144.437192) scale(0.1 -0.1)">
       <use xlink:href="#DejaVuSans-32"/>
       <use xlink:href="#DejaVuSans-30" transform="translate(63.623047 0)"/>
      </g>
     </g>
    </g>
    <g id="ytick_4">
     <g id="line2d_10">
      <g>
       <use xlink:href="#m82d1be7a39" x="47.018" y="77.711412" style="stroke: #000000; stroke-width: 0.8"/>
      </g>
     </g>
     <g id="text_11">
      <!-- 30 -->
      <g transform="translate(27.293 81.510631) scale(0.1 -0.1)">
       <use xlink:href="#DejaVuSans-33"/>
       <use xlink:href="#DejaVuSans-30" transform="translate(63.623047 0)"/>
      </g>
     </g>
    </g>
    <g id="ytick_5">
     <g id="line2d_11">
      <g>
       <use xlink:href="#m82d1be7a39" x="47.018" y="14.78485" style="stroke: #000000; stroke-width: 0.8"/>
      </g>
     </g>
     <g id="text_12">
      <!-- 40 -->
      <g transform="translate(27.293 18.584069) scale(0.1 -0.1)">
       <use xlink:href="#DejaVuSans-34"/>
       <use xlink:href="#DejaVuSans-30" transform="translate(63.623047 0)"/>
      </g>
     </g>
    </g>
    <g id="text_13">
     <!-- $Q_{lc}$ (kW) -->
     <g transform="translate(21.213312 178.627161) rotate(-90) scale(0.1 -0.1)">
      <defs>
       <path id="DejaVuSans-Oblique-51" d="M 2309 -84 
Q 2275 -88 2237 -89 
Q 2200 -91 2125 -91 
Q 1250 -91 756 411 
Q 263 913 263 1797 
Q 263 2319 452 2844 
Q 641 3369 978 3788 
Q 1369 4269 1858 4509 
Q 2347 4750 2938 4750 
Q 3794 4750 4287 4245 
Q 4781 3741 4781 2869 
Q 4781 1928 4265 1147 
Q 3750 366 2919 44 
L 3553 -825 
L 2847 -825 
L 2309 -84 
z
M 2919 4238 
Q 2400 4238 2003 3986 
Q 1606 3734 1313 3219 
Q 1125 2891 1026 2522 
Q 928 2153 928 1778 
Q 928 1128 1239 775 
Q 1550 422 2119 422 
Q 2631 422 3032 676 
Q 3434 931 3719 1434 
Q 3909 1772 4009 2142 
Q 4109 2513 4109 2881 
Q 4109 3528 3796 3883 
Q 3484 4238 2919 4238 
z
" transform="scale(0.015625)"/>
       <path id="DejaVuSans-Oblique-6c" d="M 1172 4863 
L 1747 4863 
L 800 0 
L 225 0 
L 1172 4863 
z
" transform="scale(0.015625)"/>
       <path id="DejaVuSans-Oblique-63" d="M 3431 3366 
L 3316 2797 
Q 3109 2947 2876 3022 
Q 2644 3097 2394 3097 
Q 2119 3097 1870 3000 
Q 1622 2903 1453 2725 
Q 1184 2453 1037 2087 
Q 891 1722 891 1331 
Q 891 859 1127 628 
Q 1363 397 1844 397 
Q 2081 397 2348 469 
Q 2616 541 2906 684 
L 2797 116 
Q 2547 13 2283 -39 
Q 2019 -91 1741 -91 
Q 1044 -91 669 257 
Q 294 606 294 1253 
Q 294 1797 489 2255 
Q 684 2713 1069 3078 
Q 1331 3328 1684 3456 
Q 2038 3584 2456 3584 
Q 2700 3584 2940 3529 
Q 3181 3475 3431 3366 
z
" transform="scale(0.015625)"/>
       <path id="DejaVuSans-6b" d="M 581 4863 
L 1159 4863 
L 1159 1991 
L 2875 3500 
L 3609 3500 
L 1753 1863 
L 3688 0 
L 2938 0 
L 1159 1709 
L 1159 0 
L 581 0 
L 581 4863 
z
" transform="scale(0.015625)"/>
       <path id="DejaVuSans-57" d="M 213 4666 
L 850 4666 
L 1831 722 
L 2809 4666 
L 3519 4666 
L 4500 722 
L 5478 4666 
L 6119 4666 
L 4947 0 
L 4153 0 
L 3169 4050 
L 2175 0 
L 1381 0 
L 213 4666 
z
" transform="scale(0.015625)"/>
      </defs>
      <use xlink:href="#DejaVuSans-Oblique-51" transform="translate(0 0.015625)"/>
      <use xlink:href="#DejaVuSans-Oblique-6c" transform="translate(78.710938 -16.390625) scale(0.7)"/>
      <use xlink:href="#DejaVuSans-Oblique-63" transform="translate(98.15918 -16.390625) scale(0.7)"/>
      <use xlink:href="#DejaVuSans-20" transform="translate(139.379883 0.015625)"/>
      <use xlink:href="#DejaVuSans-28" transform="translate(171.166992 0.015625)"/>
      <use xlink:href="#DejaVuSans-6b" transform="translate(210.180664 0.015625)"/>
      <use xlink:href="#DejaVuSans-57" transform="translate(268.09082 0.015625)"/>
      <use xlink:href="#DejaVuSans-29" transform="translate(366.967773 0.015625)"/>
     </g>
    </g>
   </g>
   <g id="line2d_12">
    <path d="M 65.335364 202.211743 
L 72.811839 202.786918 
L 80.288314 203.272535 
L 87.764788 203.653389 
L 95.241263 203.920257 
L 102.717738 204.069719 
L 110.194213 204.104009 
L 117.670688 204.026311 
L 125.147163 203.856857 
L 132.623638 203.605904 
L 140.100113 203.292202 
L 147.576588 202.934549 
L 155.053063 202.552382 
L 162.529538 202.164392 
L 170.006013 201.787606 
L 177.482488 201.436652 
L 184.958963 201.123219 
L 192.435438 200.855749 
L 199.911913 200.639353 
L 207.388388 200.475923 
L 214.864863 200.364002 
L 222.341338 200.301097 
L 229.817813 200.281444 
L 237.294288 200.298219 
L 244.770763 200.344666 
L 252.247237 200.413448 
L 259.723712 200.497854 
L 267.200187 200.591947 
L 274.676662 200.690701 
L 282.153137 200.78452 
L 289.629612 200.878331 
L 297.106087 200.941755 
L 304.582562 201.03112 
L 312.059037 201.115345 
L 319.535512 201.194174 
L 327.011987 201.267335 
L 334.488462 201.33434 
L 341.964937 201.394359 
L 349.441412 201.446189 
L 356.917887 201.488322 
L 364.394362 201.519096 
L 371.870837 201.53694 
L 379.347312 201.540666 
L 386.823787 201.529796 
L 394.300262 201.504887 
L 401.776737 201.467829 
L 409.253212 201.422069 
L 416.729686 201.372761 
L 424.206161 201.3268 
L 431.682636 201.292743 
" clip-path="url(#pdaf249c3ae)" style="fill: none; stroke: #1f77b4; stroke-width: 1.5; stroke-linecap: square"/>
   </g>
   <g id="line2d_13">
    <path d="M 65.335364 237.19845 
L 72.811839 231.509264 
L 80.288314 226.502879 
L 87.764788 222.153094 
L 95.241263 218.368954 
L 102.717738 215.102614 
L 110.194213 212.27032 
L 117.670688 209.782133 
L 125.147163 207.570019 
L 132.623638 205.574352 
L 140.100113 203.739998 
L 147.576588 202.021432 
L 155.053063 200.382188 
L 162.529538 199.421553 
L 170.006013 199.445925 
L 177.482488 199.516808 
L 184.958963 199.603428 
L 192.435438 199.701967 
L 199.911913 199.811132 
L 207.388388 199.931017 
L 214.864863 200.06275 
L 222.341338 200.207148 
L 229.817813 200.364088 
L 237.294288 200.532648 
L 244.770763 200.710834 
L 252.247237 200.895768 
L 259.723712 201.083747 
L 267.200187 201.270694 
L 274.676662 201.452568 
L 282.153137 201.625692 
L 289.629612 201.787057 
L 297.106087 201.934528 
L 304.582562 202.066949 
L 312.059037 202.184245 
L 319.535512 202.287055 
L 327.011987 202.376363 
L 334.488462 202.453945 
L 341.964937 202.521496 
L 349.441412 202.580897 
L 356.917887 202.632738 
L 364.394362 202.67763 
L 371.870837 202.715259 
L 379.347312 202.745192 
L 386.823787 202.76587 
L 394.300262 202.775468 
L 401.776737 202.772211 
L 409.253212 202.755035 
L 416.729686 202.723168 
L 424.206161 202.677043 
L 431.682636 202.618424 
" clip-path="url(#pdaf249c3ae)" style="fill: none; stroke: #ff7f0e; stroke-width: 1.5; stroke-linecap: square"/>
   </g>
   <g id="line2d_14">
    <path d="M 65.335364 253.33055 
L 72.811839 252.82764 
L 80.288314 252.459917 
L 87.764788 252.062529 
L 95.241263 251.750886 
L 102.717738 251.472613 
L 110.194213 250.917143 
L 117.670688 250.259993 
L 125.147163 249.62007 
L 132.623638 249.076181 
L 140.100113 248.531705 
L 147.576588 248.017807 
L 155.053063 247.524688 
L 162.529538 247.045504 
L 170.006013 246.576051 
L 177.482488 246.114327 
L 184.958963 245.660017 
L 192.435438 245.213956 
L 199.911913 244.777605 
L 207.388388 244.352582 
L 214.864863 243.94029 
L 222.341338 243.541636 
L 229.817813 243.156872 
L 237.294288 242.785544 
L 244.770763 242.426546 
L 252.247237 242.078243 
L 259.723712 241.738662 
L 267.200187 241.405702 
L 274.676662 241.077353 
L 282.153137 240.751885 
L 289.629612 240.427998 
L 297.106087 240.10492 
L 304.582562 239.782431 
L 312.059037 239.460835 
L 319.535512 239.140868 
L 327.011987 238.823566 
L 334.488462 238.510102 
L 341.964937 238.201614 
L 349.441412 237.899043 
L 356.917887 237.602989 
L 364.394362 237.313619 
L 371.870837 237.030604 
L 379.347312 236.753131 
L 386.823787 236.479951 
L 394.300262 236.209479 
L 401.776737 235.939935 
L 409.253212 235.669507 
L 416.729686 235.396522 
L 424.206161 235.119617 
L 431.682636 234.837884 
" clip-path="url(#pdaf249c3ae)" style="fill: none; stroke: #2ca02c; stroke-width: 1.5; stroke-linecap: square"/>
   </g>
   <g id="line2d_15">
    <path d="M 65.335364 261.034371 
L 72.811839 260.967286 
L 80.288314 260.903948 
L 87.764788 260.837508 
L 95.241263 260.764485 
L 102.717738 260.681663 
L 110.194213 260.585794 
L 117.670688 259.593841 
L 125.147163 258.14257 
L 132.623638 256.615707 
L 140.100113 255.006917 
L 147.576588 253.281924 
L 155.053063 252.331159 
L 162.529538 252.652441 
L 170.006013 253.024857 
L 177.482488 253.402751 
L 184.958963 253.792528 
L 192.435438 254.200192 
L 199.911913 254.631013 
L 207.388388 255.089227 
L 214.864863 255.577792 
L 222.341338 256.0982 
L 229.817813 256.580962 
L 237.294288 256.428246 
L 244.770763 256.200477 
L 252.247237 255.983168 
L 259.723712 255.776334 
L 267.200187 255.579787 
L 274.676662 255.302762 
L 282.153137 254.921876 
L 289.629612 254.542117 
L 297.106087 254.215193 
L 304.582562 253.771234 
L 312.059037 253.353943 
L 319.535512 252.968902 
L 327.011987 252.611938 
L 334.488462 252.293104 
L 341.964937 252.007455 
L 349.441412 251.753473 
L 356.917887 251.539983 
L 364.394362 251.365494 
L 371.870837 251.226685 
L 379.347312 251.118511 
L 386.823787 251.034385 
L 394.300262 250.966408 
L 401.776737 250.905664 
L 409.253212 250.842542 
L 416.729686 250.76708 
L 424.206161 250.669327 
L 431.682636 250.539688 
" clip-path="url(#pdaf249c3ae)" style="fill: none; stroke: #d62728; stroke-width: 1.5; stroke-linecap: square"/>
   </g>
   <g id="patch_3">
    <path d="M 47.018 302.2 
L 47.018 14.454323 
" style="fill: none; stroke: #000000; stroke-width: 0.8; stroke-linejoin: miter; stroke-linecap: square"/>
   </g>
   <g id="patch_4">
    <path d="M 450 302.2 
L 450 14.454323 
" style="fill: none; stroke: #000000; stroke-width: 0.8; stroke-linejoin: miter; stroke-linecap: square"/>
   </g>
   <g id="patch_5">
    <path d="M 47.018 302.2 
L 450 302.2 
" style="fill: none; stroke: #000000; stroke-width: 0.8; stroke-linejoin: miter; stroke-linecap: square"/>
   </g>
   <g id="patch_6">
    <path d="M 47.018 14.454323 
L 450 14.454323 
" style="fill: none; stroke: #000000; stroke-width: 0.8; stroke-linejoin: miter; stroke-linecap: square"/>
   </g>
   <g id="legend_1">
    <g id="patch_7">
     <path d="M 54.018 81.166823 
L 132.888313 81.166823 
Q 134.888313 81.166823 134.888313 79.166823 
L 134.888313 21.454323 
Q 134.888313 19.454323 132.888313 19.454323 
L 54.018 19.454323 
Q 52.018 19.454323 52.018 21.454323 
L 52.018 79.166823 
Q 52.018 81.166823 54.018 81.166823 
z
" style="fill: #ffffff; opacity: 0.8; stroke: #cccccc; stroke-linejoin: miter"/>
    </g>
    <g id="line2d_16">
     <path d="M 56.018 27.55276 
L 66.018 27.55276 
L 76.018 27.55276 
" style="fill: none; stroke: #1f77b4; stroke-width: 1.5; stroke-linecap: square"/>
    </g>
    <g id="text_14">
     <!-- Ts=100 K -->
     <g transform="translate(84.018 31.05276) scale(0.1 -0.1)">
      <defs>
       <path id="DejaVuSans-54" d="M -19 4666 
L 3928 4666 
L 3928 4134 
L 2272 4134 
L 2272 0 
L 1638 0 
L 1638 4134 
L -19 4134 
L -19 4666 
z
" transform="scale(0.015625)"/>
       <path id="DejaVuSans-73" d="M 2834 3397 
L 2834 2853 
Q 2591 2978 2328 3040 
Q 2066 3103 1784 3103 
Q 1356 3103 1142 2972 
Q 928 2841 928 2578 
Q 928 2378 1081 2264 
Q 1234 2150 1697 2047 
L 1894 2003 
Q 2506 1872 2764 1633 
Q 3022 1394 3022 966 
Q 3022 478 2636 193 
Q 2250 -91 1575 -91 
Q 1294 -91 989 -36 
Q 684 19 347 128 
L 347 722 
Q 666 556 975 473 
Q 1284 391 1588 391 
Q 1994 391 2212 530 
Q 2431 669 2431 922 
Q 2431 1156 2273 1281 
Q 2116 1406 1581 1522 
L 1381 1569 
Q 847 1681 609 1914 
Q 372 2147 372 2553 
Q 372 3047 722 3315 
Q 1072 3584 1716 3584 
Q 2034 3584 2315 3537 
Q 2597 3491 2834 3397 
z
" transform="scale(0.015625)"/>
       <path id="DejaVuSans-3d" d="M 678 2906 
L 4684 2906 
L 4684 2381 
L 678 2381 
L 678 2906 
z
M 678 1631 
L 4684 1631 
L 4684 1100 
L 678 1100 
L 678 1631 
z
" transform="scale(0.015625)"/>
       <path id="DejaVuSans-4b" d="M 628 4666 
L 1259 4666 
L 1259 2694 
L 3353 4666 
L 4166 4666 
L 1850 2491 
L 4331 0 
L 3500 0 
L 1259 2247 
L 1259 0 
L 628 0 
L 628 4666 
z
" transform="scale(0.015625)"/>
      </defs>
      <use xlink:href="#DejaVuSans-54"/>
      <use xlink:href="#DejaVuSans-73" transform="translate(44.583984 0)"/>
      <use xlink:href="#DejaVuSans-3d" transform="translate(96.683594 0)"/>
      <use xlink:href="#DejaVuSans-31" transform="translate(180.472656 0)"/>
      <use xlink:href="#DejaVuSans-30" transform="translate(244.095703 0)"/>
      <use xlink:href="#DejaVuSans-30" transform="translate(307.71875 0)"/>
      <use xlink:href="#DejaVuSans-20" transform="translate(371.341797 0)"/>
      <use xlink:href="#DejaVuSans-4b" transform="translate(403.128906 0)"/>
     </g>
    </g>
    <g id="line2d_17">
     <path d="M 56.018 42.230885 
L 66.018 42.230885 
L 76.018 42.230885 
" style="fill: none; stroke: #ff7f0e; stroke-width: 1.5; stroke-linecap: square"/>
    </g>
    <g id="text_15">
     <!-- Ts=160 K -->
     <g transform="translate(84.018 45.730885) scale(0.1 -0.1)">
      <defs>
       <path id="DejaVuSans-36" d="M 2113 2584 
Q 1688 2584 1439 2293 
Q 1191 2003 1191 1497 
Q 1191 994 1439 701 
Q 1688 409 2113 409 
Q 2538 409 2786 701 
Q 3034 994 3034 1497 
Q 3034 2003 2786 2293 
Q 2538 2584 2113 2584 
z
M 3366 4563 
L 3366 3988 
Q 3128 4100 2886 4159 
Q 2644 4219 2406 4219 
Q 1781 4219 1451 3797 
Q 1122 3375 1075 2522 
Q 1259 2794 1537 2939 
Q 1816 3084 2150 3084 
Q 2853 3084 3261 2657 
Q 3669 2231 3669 1497 
Q 3669 778 3244 343 
Q 2819 -91 2113 -91 
Q 1303 -91 875 529 
Q 447 1150 447 2328 
Q 447 3434 972 4092 
Q 1497 4750 2381 4750 
Q 2619 4750 2861 4703 
Q 3103 4656 3366 4563 
z
" transform="scale(0.015625)"/>
      </defs>
      <use xlink:href="#DejaVuSans-54"/>
      <use xlink:href="#DejaVuSans-73" transform="translate(44.583984 0)"/>
      <use xlink:href="#DejaVuSans-3d" transform="translate(96.683594 0)"/>
      <use xlink:href="#DejaVuSans-31" transform="translate(180.472656 0)"/>
      <use xlink:href="#DejaVuSans-36" transform="translate(244.095703 0)"/>
      <use xlink:href="#DejaVuSans-30" transform="translate(307.71875 0)"/>
      <use xlink:href="#DejaVuSans-20" transform="translate(371.341797 0)"/>
      <use xlink:href="#DejaVuSans-4b" transform="translate(403.128906 0)"/>
     </g>
    </g>
    <g id="line2d_18">
     <path d="M 56.018 56.90901 
L 66.018 56.90901 
L 76.018 56.90901 
" style="fill: none; stroke: #2ca02c; stroke-width: 1.5; stroke-linecap: square"/>
    </g>
    <g id="text_16">
     <!-- Ts=220 K -->
     <g transform="translate(84.018 60.40901) scale(0.1 -0.1)">
      <use xlink:href="#DejaVuSans-54"/>
      <use xlink:href="#DejaVuSans-73" transform="translate(44.583984 0)"/>
      <use xlink:href="#DejaVuSans-3d" transform="translate(96.683594 0)"/>
      <use xlink:href="#DejaVuSans-32" transform="translate(180.472656 0)"/>
      <use xlink:href="#DejaVuSans-32" transform="translate(244.095703 0)"/>
      <use xlink:href="#DejaVuSans-30" transform="translate(307.71875 0)"/>
      <use xlink:href="#DejaVuSans-20" transform="translate(371.341797 0)"/>
      <use xlink:href="#DejaVuSans-4b" transform="translate(403.128906 0)"/>
     </g>
    </g>
    <g id="line2d_19">
     <path d="M 56.018 71.587135 
L 66.018 71.587135 
L 76.018 71.587135 
" style="fill: none; stroke: #d62728; stroke-width: 1.5; stroke-linecap: square"/>
    </g>
    <g id="text_17">
     <!-- Ts=260 K -->
     <g transform="translate(84.018 75.087135) scale(0.1 -0.1)">
      <use xlink:href="#DejaVuSans-54"/>
      <use xlink:href="#DejaVuSans-73" transform="translate(44.583984 0)"/>
      <use xlink:href="#DejaVuSans-3d" transform="translate(96.683594 0)"/>
      <use xlink:href="#DejaVuSans-32" transform="translate(180.472656 0)"/>
      <use xlink:href="#DejaVuSans-36" transform="translate(244.095703 0)"/>
      <use xlink:href="#DejaVuSans-30" transform="translate(307.71875 0)"/>
      <use xlink:href="#DejaVuSans-20" transform="translate(371.341797 0)"/>
      <use xlink:href="#DejaVuSans-4b" transform="translate(403.128906 0)"/>
     </g>
    </g>
   </g>
  </g>
 </g>
 <defs>
  <clipPath id="pdaf249c3ae">
   <rect x="47.018" y="14.454323" width="402.982" height="287.745677"/>
  </clipPath>
 </defs>
</svg>
