<?xml version="1.0" encoding="utf-8" standalone="no"?>
<!DOCTYPE svg PUBLIC "-//W3C//DTD SVG 1.1//EN"
  "http://www.w3.org/Graphics/SVG/1.1/DTD/svg11.dtd">
<svg xmlns:xlink="http://www.w3.org/1999/xlink" width="460.8pt" height="345.6pt" viewBox="0 0 460.8 345.6" xmlns="http://www.w3.org/2000/svg" version="1.1">
 <metadata>
  <rdf:RDF xmlns:dc="http://purl.org/dc/elements/1.1/" xmlns:cc="http://creativecommons.org/ns#" xmlns:rdf="http://www.w3.org/1999/02/22-rdf-syntax-ns#">
   <cc:Work>
    <dc:type rdf:resource="http://purl.org/dc/dcmitype/StillImage"/>
    <dc:date>2026-02-12T05:19:00.469228</dc:date>
    <dc:format>image/svg+xml</dc:format>
    <dc:creator>
     <cc:Agent>
      <dc:title>Matplotlib v3.10.8, https://matplotlib.org/</dc:title>
     </cc:Agent>
    </dc:creator>
   </cc:Work>
  </rdf:RDF>
 </metadata>
 <defs>
  <style type="text/css">*{stroke-linejoin: round; stroke-linecap: butt}</style>
 </defs>
 <g id="figure_1">
  <g id="patch_1">
   <path d="M 0 345.6 
L 460.8 345.6 
L 460.8 0 
L 0 0 
L 0 345.6 
z
" style="fill: none"/>
  </g>
  <g id="axes_1">
   <g id="patch_2">
    <path d="M 59.984054 302.2 
L 450 302.2 
L 450 10.8 
L 59.984054 10.8 
L 59.984054 302.2 
z
" style="fill: none"/>
   </g>
   <g id="FillBetweenPolyCollection_1">
    <path d="M 77.712051 24.045455 
L 77.712051 106.749509 
L 79.49376 107.045355 
L 81.275468 107.340539 
L 83.057176 107.635097 
L 84.838885 107.929065 
L 86.620593 108.222479 
L 88.402301 108.515373 
L 90.18401 108.807782 
L 91.965718 109.099739 
L 93.747426 109.391275 
L 95.529134 109.682424 
L 97.310843 109.973216 
L 99.092551 110.263682 
L 100.874259 110.553853 
L 102.655968 110.843758 
L 104.437676 111.133427 
L 106.219384 111.422888 
L 108.001092 111.71217 
L 109.782801 112.001302 
L 111.564509 112.29031 
L 113.346217 112.579222 
L 115.127926 112.868066 
L 116.909634 113.156868 
L 118.691342 113.445654 
L 120.473051 113.734451 
L 122.254759 114.023285 
L 124.036467 114.312181 
L 125.818175 114.601164 
L 127.599884 114.890262 
L 129.381592 115.179497 
L 131.1633 115.468897 
L 132.945009 115.758484 
L 134.726717 116.048285 
L 136.508425 116.338324 
L 138.290134 116.628625 
L 140.071842 116.919213 
L 141.85355 117.210112 
L 143.635258 117.501347 
L 145.416967 117.792942 
L 147.198675 118.084922 
L 148.980383 118.37731 
L 150.762092 118.670132 
L 152.5438 118.96341 
L 154.325508 119.257171 
L 156.107216 119.551438 
L 157.888925 119.846235 
L 159.670633 120.141588 
L 161.452341 120.437521 
L 163.23405 120.734059 
L 165.015758 121.031226 
L 166.797466 121.329048 
L 168.579175 121.62755 
L 170.360883 121.926757 
L 172.142591 122.226695 
L 173.924299 122.527389 
L 175.706008 122.828865 
L 177.487716 123.13115 
L 179.269424 123.434269 
L 181.051133 123.73825 
L 182.832841 124.043118 
L 184.614549 124.348901 
L 186.396258 124.655627 
L 188.177966 124.963323 
L 189.959674 125.272017 
L 191.741382 125.581737 
L 193.523091 125.892513 
L 195.304799 126.204372 
L 197.086507 126.517345 
L 198.868216 126.831461 
L 200.649924 127.146751 
L 202.431632 127.463246 
L 204.213341 127.780975 
L 205.995049 128.099972 
L 207.776757 128.420268 
L 209.558465 128.741896 
L 211.340174 129.064889 
L 213.121882 129.38928 
L 214.90359 129.715105 
L 216.685299 130.042397 
L 218.467007 130.371194 
L 220.248715 130.70153 
L 222.030423 131.033443 
L 223.812132 131.36697 
L 225.59384 131.70215 
L 227.375548 132.039022 
L 229.157257 132.377626 
L 230.938965 132.718003 
L 232.720673 133.060194 
L 234.502382 133.404242 
L 236.28409 133.75019 
L 238.065798 134.098083 
L 239.847506 134.447966 
L 241.629215 134.799887 
L 243.410923 135.153891 
L 245.192631 135.510029 
L 246.97434 135.86835 
L 248.756048 136.228905 
L 250.537756 136.591747 
L 252.319465 136.956929 
L 254.101173 137.324507 
L 255.882881 137.694538 
L 257.664589 138.067078 
L 259.446298 138.442189 
L 261.228006 138.81993 
L 263.009714 139.200366 
L 264.791423 139.583561 
L 266.573131 139.969582 
L 268.354839 140.358497 
L 270.136547 140.750376 
L 271.918256 141.145292 
L 273.699964 141.543321 
L 275.481672 141.944539 
L 277.263381 142.349025 
L 279.045089 142.756862 
L 280.826797 143.168135 
L 282.608506 143.582929 
L 284.390214 144.001337 
L 286.171922 144.42345 
L 287.95363 144.849366 
L 289.735339 145.279183 
L 291.517047 145.713005 
L 293.298755 146.150938 
L 295.080464 146.593094 
L 296.862172 147.039586 
L 298.64388 147.490532 
L 300.425589 147.946057 
L 302.207297 148.406287 
L 303.989005 148.871355 
L 305.770713 149.3414 
L 307.552422 149.816563 
L 309.33413 150.296994 
L 311.115838 150.782847 
L 312.897547 151.274284 
L 314.679255 151.771473 
L 316.460963 152.337061 
L 318.242671 152.986025 
L 320.02438 153.646105 
L 321.806088 154.317756 
L 323.587796 155.001462 
L 325.369505 155.697735 
L 327.151213 156.407121 
L 328.932921 157.130202 
L 330.71463 157.867597 
L 332.496338 158.619967 
L 334.278046 159.388021 
L 336.059754 160.172515 
L 337.841463 160.974263 
L 339.623171 161.794138 
L 341.404879 162.633079 
L 343.186588 163.492101 
L 344.968296 164.372299 
L 346.750004 165.274859 
L 348.531713 166.201069 
L 350.313421 167.152329 
L 352.095129 168.130166 
L 353.876837 169.13625 
L 355.658546 170.172411 
L 357.440254 171.24066 
L 359.221962 172.343217 
L 361.003671 173.482536 
L 362.785379 174.661346 
L 364.567087 175.882685 
L 366.348795 177.149955 
L 368.130504 178.466981 
L 369.912212 179.838084 
L 371.69392 181.268169 
L 373.475629 182.762839 
L 375.257337 184.32853 
L 377.039045 185.972689 
L 378.820754 187.703993 
L 380.602462 189.532639 
L 382.38417 191.470722 
L 384.165878 193.532734 
L 385.947587 195.736244 
L 387.729295 198.102838 
L 389.511003 200.659444 
L 391.292712 203.440251 
L 393.07442 206.489591 
L 394.856128 209.866379 
L 396.637837 213.651322 
L 398.419545 217.959191 
L 400.201253 222.961178 
L 401.982961 228.92927 
L 403.76467 236.335173 
L 405.546378 246.111422 
L 407.328086 260.558091 
L 409.109795 288.954545 
L 410.891503 69543.058131 
L 412.673211 69543.058131 
L 414.454919 69543.058131 
L 416.236628 69543.058131 
L 418.018336 69543.058131 
L 419.800044 69543.058131 
L 421.581753 69543.058131 
L 423.363461 69543.058131 
L 425.145169 69543.058131 
L 426.926878 69543.058131 
L 428.708586 69543.058131 
L 430.490294 69543.058131 
L 432.272002 69543.058131 
L 432.272002 201.911666 
L 432.272002 201.911666 
L 430.490294 189.314807 
L 428.708586 180.356133 
L 426.926878 173.427142 
L 425.145169 167.772068 
L 423.363461 162.991699 
L 421.581753 158.84928 
L 419.800044 155.192808 
L 418.018336 151.918855 
L 416.236628 148.95385 
L 414.454919 146.243589 
L 412.673211 143.746984 
L 410.891503 141.432143 
L 409.109795 139.273816 
L 407.328086 137.251669 
L 405.546378 135.349087 
L 403.76467 133.552318 
L 401.982961 131.849849 
L 400.201253 130.231947 
L 398.419545 128.690311 
L 396.637837 127.2178 
L 394.856128 125.80823 
L 393.07442 124.45621 
L 391.292712 123.157009 
L 389.511003 121.906456 
L 387.729295 120.330906 
L 385.947587 118.570159 
L 384.165878 116.370429 
L 382.38417 114.311714 
L 380.602462 112.376532 
L 378.820754 110.550458 
L 377.039045 109.007918 
L 375.257337 107.363969 
L 373.475629 105.798467 
L 371.69392 104.303969 
L 369.912212 102.874041 
L 368.130504 101.503082 
L 366.348795 100.186188 
L 364.567087 98.919039 
L 362.785379 97.697813 
L 361.003671 96.519108 
L 359.221962 95.379885 
L 357.440254 94.277419 
L 355.658546 93.209254 
L 353.876837 92.173173 
L 352.095129 91.167164 
L 350.313421 90.189397 
L 348.531713 89.238202 
L 346.750004 88.312055 
L 344.968296 87.409554 
L 343.186588 86.529412 
L 341.404879 85.670443 
L 339.623171 84.831552 
L 337.841463 84.011725 
L 336.059754 83.210023 
L 334.278046 82.425572 
L 332.496338 81.657559 
L 330.71463 80.905228 
L 328.932921 80.167871 
L 327.151213 79.444827 
L 325.369505 78.735475 
L 323.587796 78.039235 
L 321.806088 77.355562 
L 320.02438 76.683942 
L 318.242671 76.023891 
L 316.460963 75.374955 
L 314.679255 74.736703 
L 312.897547 74.108728 
L 311.115838 73.490647 
L 309.33413 72.882096 
L 307.552422 72.282729 
L 305.770713 71.692219 
L 303.989005 71.110255 
L 302.207297 70.536542 
L 300.425589 69.970798 
L 298.64388 69.412756 
L 296.862172 68.86216 
L 295.080464 68.318767 
L 293.298755 67.782345 
L 291.517047 67.252672 
L 289.735339 66.729536 
L 287.95363 66.212733 
L 286.171922 65.702069 
L 284.390214 65.197358 
L 282.608506 64.698422 
L 280.826797 64.20509 
L 279.045089 63.717197 
L 277.263381 63.234585 
L 275.481672 62.757102 
L 273.699964 62.284604 
L 271.918256 61.816949 
L 270.136547 61.354002 
L 268.354839 60.895633 
L 266.573131 60.441717 
L 264.791423 59.992133 
L 263.009714 59.546764 
L 261.228006 59.105497 
L 259.446298 58.668224 
L 257.664589 58.234839 
L 255.882881 57.805242 
L 254.101173 57.379332 
L 252.319465 56.957017 
L 250.537756 56.538202 
L 248.756048 56.1228 
L 246.97434 55.710723 
L 245.192631 55.301888 
L 243.410923 54.896214 
L 241.629215 54.493622 
L 239.847506 54.094034 
L 238.065798 53.697378 
L 236.28409 53.30358 
L 234.502382 52.91257 
L 232.720673 52.524281 
L 230.938965 52.138645 
L 229.157257 51.755598 
L 227.375548 51.375076 
L 225.59384 50.99702 
L 223.812132 50.621368 
L 222.030423 50.248063 
L 220.248715 49.877048 
L 218.467007 49.508267 
L 216.685299 49.141666 
L 214.90359 48.777193 
L 213.121882 48.414795 
L 211.340174 48.054423 
L 209.558465 47.696026 
L 207.776757 47.339558 
L 205.995049 46.984969 
L 204.213341 46.632215 
L 202.431632 46.281251 
L 200.649924 45.93203 
L 198.868216 45.584511 
L 197.086507 45.238651 
L 195.304799 44.894407 
L 193.523091 44.551739 
L 191.741382 44.210606 
L 189.959674 43.870969 
L 188.177966 43.532789 
L 186.396258 43.196028 
L 184.614549 42.860647 
L 182.832841 42.526611 
L 181.051133 42.193882 
L 179.269424 41.862425 
L 177.487716 41.532204 
L 175.706008 41.203185 
L 173.924299 40.875332 
L 172.142591 40.548613 
L 170.360883 40.222993 
L 168.579175 39.89844 
L 166.797466 39.57492 
L 165.015758 39.252401 
L 163.23405 38.930852 
L 161.452341 38.61024 
L 159.670633 38.290535 
L 157.888925 37.971704 
L 156.107216 37.653718 
L 154.325508 37.336545 
L 152.5438 37.020156 
L 150.762092 36.70452 
L 148.980383 36.389607 
L 147.198675 36.075387 
L 145.416967 35.761831 
L 143.635258 35.448909 
L 141.85355 35.136593 
L 140.071842 34.824851 
L 138.290134 34.513656 
L 136.508425 34.202979 
L 134.726717 33.892789 
L 132.945009 33.583059 
L 131.1633 33.273759 
L 129.381592 32.964859 
L 127.599884 32.656332 
L 125.818175 32.348147 
L 124.036467 32.040276 
L 122.254759 31.73269 
L 120.473051 31.425358 
L 118.691342 31.118252 
L 116.909634 30.811341 
L 115.127926 30.504597 
L 113.346217 30.197988 
L 111.564509 29.891485 
L 109.782801 29.585058 
L 108.001092 29.278675 
L 106.219384 28.972306 
L 104.437676 28.665918 
L 102.655968 28.359482 
L 100.874259 28.052965 
L 99.092551 27.746333 
L 97.310843 27.439556 
L 95.529134 27.132598 
L 93.747426 26.825428 
L 91.965718 26.518009 
L 90.18401 26.210309 
L 88.402301 25.902291 
L 86.620593 25.593919 
L 84.838885 25.285158 
L 83.057176 24.975969 
L 81.275468 24.666315 
L 79.49376 24.356156 
L 77.712051 24.045455 
z
" clip-path="url(#pd0caab796f)" style="fill: #1f77b4; fill-opacity: 0.3"/>
   </g>
   <g id="matplotlib.axis_1">
    <g id="xtick_1">
     <g id="line2d_1">
      <defs>
       <path id="md17154ffa9" d="M 0 0 
L 0 3.5 
" style="stroke: #000000; stroke-width: 0.8"/>
      </defs>
      <g>
       <use xlink:href="#md17154ffa9" x="68.533694" y="302.2" style="stroke: #000000; stroke-width: 0.8"/>
      </g>
     </g>
     <g id="text_1">
      <!-- 75 -->
      <g transform="translate(62.171194 316.798437) scale(0.1 -0.1)">
       <defs>
        <path id="DejaVuSans-37" d="M 525 4666 
L 3525 4666 
L 3525 4397 
L 1831 0 
L 1172 0 
L 2766 4134 
L 525 4134 
L 525 4666 
z
" transform="scale(0.015625)"/>
        <path id="DejaVuSans-35" d="M 691 4666 
L 3169 4666 
L 3169 4134 
L 1269 4134 
L 1269 2991 
Q 1406 3038 1543 3061 
Q 1681 3084 1819 3084 
Q 2600 3084 3056 2656 
Q 3513 2228 3513 1497 
Q 3513 744 3044 326 
Q 2575 -91 1722 -91 
Q 1428 -91 1123 -41 
Q 819 9 494 109 
L 494 744 
Q 775 591 1075 516 
Q 1375 441 1709 441 
Q 2250 441 2565 725 
Q 2881 1009 2881 1497 
Q 2881 1984 2565 2268 
Q 2250 2553 1709 2553 
Q 1456 2553 1204 2497 
Q 953 2441 691 2322 
L 691 4666 
z
" transform="scale(0.015625)"/>
       </defs>
       <use xlink:href="#DejaVuSans-37"/>
       <use xlink:href="#DejaVuSans-35" transform="translate(63.623047 0)"/>
      </g>
     </g>
    </g>
    <g id="xtick_2">
     <g id="line2d_2">
      <g>
       <use xlink:href="#md17154ffa9" x="114.425482" y="302.2" style="stroke: #000000; stroke-width: 0.8"/>
      </g>
     </g>
     <g id="text_2">
      <!-- 100 -->
      <g transform="translate(104.881732 316.798437) scale(0.1 -0.1)">
       <defs>
        <path id="DejaVuSans-31" d="M 794 531 
L 1825 531 
L 1825 4091 
L 703 3866 
L 703 4441 
L 1819 4666 
L 2450 4666 
L 2450 531 
L 3481 531 
L 3481 0 
L 794 0 
L 794 531 
z
" transform="scale(0.015625)"/>
        <path id="DejaVuSans-30" d="M 2034 4250 
Q 1547 4250 1301 3770 
Q 1056 3291 1056 2328 
Q 1056 1369 1301 889 
Q 1547 409 2034 409 
Q 2525 409 2770 889 
Q 3016 1369 3016 2328 
Q 3016 3291 2770 3770 
Q 2525 4250 2034 4250 
z
M 2034 4750 
Q 2819 4750 3233 4129 
Q 3647 3509 3647 2328 
Q 3647 1150 3233 529 
Q 2819 -91 2034 -91 
Q 1250 -91 836 529 
Q 422 1150 422 2328 
Q 422 3509 836 4129 
Q 1250 4750 2034 4750 
z
" transform="scale(0.015625)"/>
       </defs>
       <use xlink:href="#DejaVuSans-31"/>
       <use xlink:href="#DejaVuSans-30" transform="translate(63.623047 0)"/>
       <use xlink:href="#DejaVuSans-30" transform="translate(127.246094 0)"/>
      </g>
     </g>
    </g>
    <g id="xtick_3">
     <g id="line2d_3">
      <g>
       <use xlink:href="#md17154ffa9" x="160.317269" y="302.2" style="stroke: #000000; stroke-width: 0.8"/>
      </g>
     </g>
     <g id="text_3">
      <!-- 125 -->
      <g transform="translate(150.773519 316.798437) scale(0.1 -0.1)">
       <defs>
        <path id="DejaVuSans-32" d="M 1228 531 
L 3431 531 
L 3431 0 
L 469 0 
L 469 531 
Q 828 903 1448 1529 
Q 2069 2156 2228 2338 
Q 2531 2678 2651 2914 
Q 2772 3150 2772 3378 
Q 2772 3750 2511 3984 
Q 2250 4219 1831 4219 
Q 1534 4219 1204 4116 
Q 875 4013 500 3803 
L 500 4441 
Q 881 4594 1212 4672 
Q 1544 4750 1819 4750 
Q 2544 4750 2975 4387 
Q 3406 4025 3406 3419 
Q 3406 3131 3298 2873 
Q 3191 2616 2906 2266 
Q 2828 2175 2409 1742 
Q 1991 1309 1228 531 
z
" transform="scale(0.015625)"/>
       </defs>
       <use xlink:href="#DejaVuSans-31"/>
       <use xlink:href="#DejaVuSans-32" transform="translate(63.623047 0)"/>
       <use xlink:href="#DejaVuSans-35" transform="translate(127.246094 0)"/>
      </g>
     </g>
    </g>
    <g id="xtick_4">
     <g id="line2d_4">
      <g>
       <use xlink:href="#md17154ffa9" x="206.209057" y="302.2" style="stroke: #000000; stroke-width: 0.8"/>
      </g>
     </g>
     <g id="text_4">
      <!-- 150 -->
      <g transform="translate(196.665307 316.798437) scale(0.1 -0.1)">
       <use xlink:href="#DejaVuSans-31"/>
       <use xlink:href="#DejaVuSans-35" transform="translate(63.623047 0)"/>
       <use xlink:href="#DejaVuSans-30" transform="translate(127.246094 0)"/>
      </g>
     </g>
    </g>
    <g id="xtick_5">
     <g id="line2d_5">
      <g>
       <use xlink:href="#md17154ffa9" x="252.100844" y="302.2" style="stroke: #000000; stroke-width: 0.8"/>
      </g>
     </g>
     <g id="text_5">
      <!-- 175 -->
      <g transform="translate(242.557094 316.798437) scale(0.1 -0.1)">
       <use xlink:href="#DejaVuSans-31"/>
       <use xlink:href="#DejaVuSans-37" transform="translate(63.623047 0)"/>
       <use xlink:href="#DejaVuSans-35" transform="translate(127.246094 0)"/>
      </g>
     </g>
    </g>
    <g id="xtick_6">
     <g id="line2d_6">
      <g>
       <use xlink:href="#md17154ffa9" x="297.992632" y="302.2" style="stroke: #000000; stroke-width: 0.8"/>
      </g>
     </g>
     <g id="text_6">
      <!-- 200 -->
      <g transform="translate(288.448882 316.798437) scale(0.1 -0.1)">
       <use xlink:href="#DejaVuSans-32"/>
       <use xlink:href="#DejaVuSans-30" transform="translate(63.623047 0)"/>
       <use xlink:href="#DejaVuSans-30" transform="translate(127.246094 0)"/>
      </g>
     </g>
    </g>
    <g id="xtick_7">
     <g id="line2d_7">
      <g>
       <use xlink:href="#md17154ffa9" x="343.88442" y="302.2" style="stroke: #000000; stroke-width: 0.8"/>
      </g>
     </g>
     <g id="text_7">
      <!-- 225 -->
      <g transform="translate(334.34067 316.798437) scale(0.1 -0.1)">
       <use xlink:href="#DejaVuSans-32"/>
       <use xlink:href="#DejaVuSans-32" transform="translate(63.623047 0)"/>
       <use xlink:href="#DejaVuSans-35" transform="translate(127.246094 0)"/>
      </g>
     </g>
    </g>
    <g id="xtick_8">
     <g id="line2d_8">
      <g>
       <use xlink:href="#md17154ffa9" x="389.776207" y="302.2" style="stroke: #000000; stroke-width: 0.8"/>
      </g>
     </g>
     <g id="text_8">
      <!-- 250 -->
      <g transform="translate(380.232457 316.798437) scale(0.1 -0.1)">
       <use xlink:href="#DejaVuSans-32"/>
       <use xlink:href="#DejaVuSans-35" transform="translate(63.623047 0)"/>
       <use xlink:href="#DejaVuSans-30" transform="translate(127.246094 0)"/>
      </g>
     </g>
    </g>
    <g id="xtick_9">
     <g id="line2d_9">
      <g>
       <use xlink:href="#md17154ffa9" x="435.667995" y="302.2" style="stroke: #000000; stroke-width: 0.8"/>
      </g>
     </g>
     <g id="text_9">
      <!-- 275 -->
      <g transform="translate(426.124245 316.798437) scale(0.1 -0.1)">
       <use xlink:href="#DejaVuSans-32"/>
       <use xlink:href="#DejaVuSans-37" transform="translate(63.623047 0)"/>
       <use xlink:href="#DejaVuSans-35" transform="translate(127.246094 0)"/>
      </g>
     </g>
    </g>
    <g id="text_10">
     <!-- $T$ (K) -->
     <g transform="translate(243.142027 330.476562) scale(0.1 -0.1)">
      <defs>
       <path id="DejaVuSans-Oblique-54" d="M 378 4666 
L 4325 4666 
L 4225 4134 
L 2559 4134 
L 1759 0 
L 1125 0 
L 1925 4134 
L 275 4134 
L 378 4666 
z
" transform="scale(0.015625)"/>
       <path id="DejaVuSans-20" transform="scale(0.015625)"/>
       <path id="DejaVuSans-28" d="M 1984 4856 
Q 1566 4138 1362 3434 
Q 1159 2731 1159 2009 
Q 1159 1288 1364 580 
Q 1569 -128 1984 -844 
L 1484 -844 
Q 1016 -109 783 600 
Q 550 1309 550 2009 
Q 550 2706 781 3412 
Q 1013 4119 1484 4856 
L 1984 4856 
z
" transform="scale(0.015625)"/>
       <path id="DejaVuSans-4b" d="M 628 4666 
L 1259 4666 
L 1259 2694 
L 3353 4666 
L 4166 4666 
L 1850 2491 
L 4331 0 
L 3500 0 
L 1259 2247 
L 1259 0 
L 628 0 
L 628 4666 
z
" transform="scale(0.015625)"/>
       <path id="DejaVuSans-29" d="M 513 4856 
L 1013 4856 
Q 1481 4119 1714 3412 
Q 1947 2706 1947 2009 
Q 1947 1309 1714 600 
Q 1481 -109 1013 -844 
L 513 -844 
Q 928 -128 1133 580 
Q 1338 1288 1338 2009 
Q 1338 2731 1133 3434 
Q 928 4138 513 4856 
z
" transform="scale(0.015625)"/>
      </defs>
      <use xlink:href="#DejaVuSans-Oblique-54" transform="translate(0 0.125)"/>
      <use xlink:href="#DejaVuSans-20" transform="translate(61.083984 0.125)"/>
      <use xlink:href="#DejaVuSans-28" transform="translate(92.871094 0.125)"/>
      <use xlink:href="#DejaVuSans-4b" transform="translate(131.884766 0.125)"/>
      <use xlink:href="#DejaVuSans-29" transform="translate(197.460938 0.125)"/>
     </g>
    </g>
   </g>
   <g id="matplotlib.axis_2">
    <g id="ytick_1">
     <g id="line2d_10">
      <defs>
       <path id="m888bf944d3" d="M 0 0 
L -3.5 0 
" style="stroke: #000000; stroke-width: 0.8"/>
      </defs>
      <g>
       <use xlink:href="#m888bf944d3" x="59.984054" y="273.032864" style="stroke: #000000; stroke-width: 0.8"/>
      </g>
     </g>
     <g id="text_11">
      <!-- $\mathdefault{10^{-8}}$ -->
      <g transform="translate(29.484054 276.832083) scale(0.1 -0.1)">
       <defs>
        <path id="DejaVuSans-2212" d="M 678 2272 
L 4684 2272 
L 4684 1741 
L 678 1741 
L 678 2272 
z
" transform="scale(0.015625)"/>
        <path id="DejaVuSans-38" d="M 2034 2216 
Q 1584 2216 1326 1975 
Q 1069 1734 1069 1313 
Q 1069 891 1326 650 
Q 1584 409 2034 409 
Q 2484 409 2743 651 
Q 3003 894 3003 1313 
Q 3003 1734 2745 1975 
Q 2488 2216 2034 2216 
z
M 1403 2484 
Q 997 2584 770 2862 
Q 544 3141 544 3541 
Q 544 4100 942 4425 
Q 1341 4750 2034 4750 
Q 2731 4750 3128 4425 
Q 3525 4100 3525 3541 
Q 3525 3141 3298 2862 
Q 3072 2584 2669 2484 
Q 3125 2378 3379 2068 
Q 3634 1759 3634 1313 
Q 3634 634 3220 271 
Q 2806 -91 2034 -91 
Q 1263 -91 848 271 
Q 434 634 434 1313 
Q 434 1759 690 2068 
Q 947 2378 1403 2484 
z
M 1172 3481 
Q 1172 3119 1398 2916 
Q 1625 2713 2034 2713 
Q 2441 2713 2670 2916 
Q 2900 3119 2900 3481 
Q 2900 3844 2670 4047 
Q 2441 4250 2034 4250 
Q 1625 4250 1398 4047 
Q 1172 3844 1172 3481 
z
" transform="scale(0.015625)"/>
       </defs>
       <use xlink:href="#DejaVuSans-31" transform="translate(0 0.765625)"/>
       <use xlink:href="#DejaVuSans-30" transform="translate(63.623047 0.765625)"/>
       <use xlink:href="#DejaVuSans-2212" transform="translate(128.203125 39.046875) scale(0.7)"/>
       <use xlink:href="#DejaVuSans-38" transform="translate(186.855469 39.046875) scale(0.7)"/>
      </g>
     </g>
    </g>
    <g id="ytick_2">
     <g id="line2d_11">
      <g>
       <use xlink:href="#m888bf944d3" x="59.984054" y="203.20421" style="stroke: #000000; stroke-width: 0.8"/>
      </g>
     </g>
     <g id="text_12">
      <!-- $\mathdefault{10^{-7}}$ -->
      <g transform="translate(29.484054 207.003429) scale(0.1 -0.1)">
       <use xlink:href="#DejaVuSans-31" transform="translate(0 0.684375)"/>
       <use xlink:href="#DejaVuSans-30" transform="translate(63.623047 0.684375)"/>
       <use xlink:href="#DejaVuSans-2212" transform="translate(128.203125 38.965625) scale(0.7)"/>
       <use xlink:href="#DejaVuSans-37" transform="translate(186.855469 38.965625) scale(0.7)"/>
      </g>
     </g>
    </g>
    <g id="ytick_3">
     <g id="line2d_12">
      <g>
       <use xlink:href="#m888bf944d3" x="59.984054" y="133.375555" style="stroke: #000000; stroke-width: 0.8"/>
      </g>
     </g>
     <g id="text_13">
      <!-- $\mathdefault{10^{-6}}$ -->
      <g transform="translate(29.484054 137.174774) scale(0.1 -0.1)">
       <defs>
        <path id="DejaVuSans-36" d="M 2113 2584 
Q 1688 2584 1439 2293 
Q 1191 2003 1191 1497 
Q 1191 994 1439 701 
Q 1688 409 2113 409 
Q 2538 409 2786 701 
Q 3034 994 3034 1497 
Q 3034 2003 2786 2293 
Q 2538 2584 2113 2584 
z
M 3366 4563 
L 3366 3988 
Q 3128 4100 2886 4159 
Q 2644 4219 2406 4219 
Q 1781 4219 1451 3797 
Q 1122 3375 1075 2522 
Q 1259 2794 1537 2939 
Q 1816 3084 2150 3084 
Q 2853 3084 3261 2657 
Q 3669 2231 3669 1497 
Q 3669 778 3244 343 
Q 2819 -91 2113 -91 
Q 1303 -91 875 529 
Q 447 1150 447 2328 
Q 447 3434 972 4092 
Q 1497 4750 2381 4750 
Q 2619 4750 2861 4703 
Q 3103 4656 3366 4563 
z
" transform="scale(0.015625)"/>
       </defs>
       <use xlink:href="#DejaVuSans-31" transform="translate(0 0.765625)"/>
       <use xlink:href="#DejaVuSans-30" transform="translate(63.623047 0.765625)"/>
       <use xlink:href="#DejaVuSans-2212" transform="translate(128.203125 39.046875) scale(0.7)"/>
       <use xlink:href="#DejaVuSans-36" transform="translate(186.855469 39.046875) scale(0.7)"/>
      </g>
     </g>
    </g>
    <g id="ytick_4">
     <g id="line2d_13">
      <g>
       <use xlink:href="#m888bf944d3" x="59.984054" y="63.546901" style="stroke: #000000; stroke-width: 0.8"/>
      </g>
     </g>
     <g id="text_14">
      <!-- $\mathdefault{10^{-5}}$ -->
      <g transform="translate(29.484054 67.34612) scale(0.1 -0.1)">
       <use xlink:href="#DejaVuSans-31" transform="translate(0 0.684375)"/>
       <use xlink:href="#DejaVuSans-30" transform="translate(63.623047 0.684375)"/>
       <use xlink:href="#DejaVuSans-2212" transform="translate(128.203125 38.965625) scale(0.7)"/>
       <use xlink:href="#DejaVuSans-35" transform="translate(186.855469 38.965625) scale(0.7)"/>
      </g>
     </g>
    </g>
    <g id="ytick_5">
     <g id="line2d_14">
      <defs>
       <path id="mc073c461f9" d="M 0 0 
L -2 0 
" style="stroke: #000000; stroke-width: 0.6"/>
      </defs>
      <g>
       <use xlink:href="#mc073c461f9" x="59.984054" y="300.82048" style="stroke: #000000; stroke-width: 0.6"/>
      </g>
     </g>
    </g>
    <g id="ytick_6">
     <g id="line2d_15">
      <g>
       <use xlink:href="#mc073c461f9" x="59.984054" y="294.053384" style="stroke: #000000; stroke-width: 0.6"/>
      </g>
     </g>
    </g>
    <g id="ytick_7">
     <g id="line2d_16">
      <g>
       <use xlink:href="#mc073c461f9" x="59.984054" y="288.524264" style="stroke: #000000; stroke-width: 0.6"/>
      </g>
     </g>
    </g>
    <g id="ytick_8">
     <g id="line2d_17">
      <g>
       <use xlink:href="#mc073c461f9" x="59.984054" y="283.84946" style="stroke: #000000; stroke-width: 0.6"/>
      </g>
     </g>
    </g>
    <g id="ytick_9">
     <g id="line2d_18">
      <g>
       <use xlink:href="#mc073c461f9" x="59.984054" y="279.79996" style="stroke: #000000; stroke-width: 0.6"/>
      </g>
     </g>
    </g>
    <g id="ytick_10">
     <g id="line2d_19">
      <g>
       <use xlink:href="#mc073c461f9" x="59.984054" y="276.228048" style="stroke: #000000; stroke-width: 0.6"/>
      </g>
     </g>
    </g>
    <g id="ytick_11">
     <g id="line2d_20">
      <g>
       <use xlink:href="#mc073c461f9" x="59.984054" y="252.012345" style="stroke: #000000; stroke-width: 0.6"/>
      </g>
     </g>
    </g>
    <g id="ytick_12">
     <g id="line2d_21">
      <g>
       <use xlink:href="#mc073c461f9" x="59.984054" y="239.716129" style="stroke: #000000; stroke-width: 0.6"/>
      </g>
     </g>
    </g>
    <g id="ytick_13">
     <g id="line2d_22">
      <g>
       <use xlink:href="#mc073c461f9" x="59.984054" y="230.991825" style="stroke: #000000; stroke-width: 0.6"/>
      </g>
     </g>
    </g>
    <g id="ytick_14">
     <g id="line2d_23">
      <g>
       <use xlink:href="#mc073c461f9" x="59.984054" y="224.22473" style="stroke: #000000; stroke-width: 0.6"/>
      </g>
     </g>
    </g>
    <g id="ytick_15">
     <g id="line2d_24">
      <g>
       <use xlink:href="#mc073c461f9" x="59.984054" y="218.69561" style="stroke: #000000; stroke-width: 0.6"/>
      </g>
     </g>
    </g>
    <g id="ytick_16">
     <g id="line2d_25">
      <g>
       <use xlink:href="#mc073c461f9" x="59.984054" y="214.020805" style="stroke: #000000; stroke-width: 0.6"/>
      </g>
     </g>
    </g>
    <g id="ytick_17">
     <g id="line2d_26">
      <g>
       <use xlink:href="#mc073c461f9" x="59.984054" y="209.971306" style="stroke: #000000; stroke-width: 0.6"/>
      </g>
     </g>
    </g>
    <g id="ytick_18">
     <g id="line2d_27">
      <g>
       <use xlink:href="#mc073c461f9" x="59.984054" y="206.399394" style="stroke: #000000; stroke-width: 0.6"/>
      </g>
     </g>
    </g>
    <g id="ytick_19">
     <g id="line2d_28">
      <g>
       <use xlink:href="#mc073c461f9" x="59.984054" y="182.18369" style="stroke: #000000; stroke-width: 0.6"/>
      </g>
     </g>
    </g>
    <g id="ytick_20">
     <g id="line2d_29">
      <g>
       <use xlink:href="#mc073c461f9" x="59.984054" y="169.887475" style="stroke: #000000; stroke-width: 0.6"/>
      </g>
     </g>
    </g>
    <g id="ytick_21">
     <g id="line2d_30">
      <g>
       <use xlink:href="#mc073c461f9" x="59.984054" y="161.163171" style="stroke: #000000; stroke-width: 0.6"/>
      </g>
     </g>
    </g>
    <g id="ytick_22">
     <g id="line2d_31">
      <g>
       <use xlink:href="#mc073c461f9" x="59.984054" y="154.396075" style="stroke: #000000; stroke-width: 0.6"/>
      </g>
     </g>
    </g>
    <g id="ytick_23">
     <g id="line2d_32">
      <g>
       <use xlink:href="#mc073c461f9" x="59.984054" y="148.866955" style="stroke: #000000; stroke-width: 0.6"/>
      </g>
     </g>
    </g>
    <g id="ytick_24">
     <g id="line2d_33">
      <g>
       <use xlink:href="#mc073c461f9" x="59.984054" y="144.192151" style="stroke: #000000; stroke-width: 0.6"/>
      </g>
     </g>
    </g>
    <g id="ytick_25">
     <g id="line2d_34">
      <g>
       <use xlink:href="#mc073c461f9" x="59.984054" y="140.142651" style="stroke: #000000; stroke-width: 0.6"/>
      </g>
     </g>
    </g>
    <g id="ytick_26">
     <g id="line2d_35">
      <g>
       <use xlink:href="#mc073c461f9" x="59.984054" y="136.570739" style="stroke: #000000; stroke-width: 0.6"/>
      </g>
     </g>
    </g>
    <g id="ytick_27">
     <g id="line2d_36">
      <g>
       <use xlink:href="#mc073c461f9" x="59.984054" y="112.355036" style="stroke: #000000; stroke-width: 0.6"/>
      </g>
     </g>
    </g>
    <g id="ytick_28">
     <g id="line2d_37">
      <g>
       <use xlink:href="#mc073c461f9" x="59.984054" y="100.05882" style="stroke: #000000; stroke-width: 0.6"/>
      </g>
     </g>
    </g>
    <g id="ytick_29">
     <g id="line2d_38">
      <g>
       <use xlink:href="#mc073c461f9" x="59.984054" y="91.334516" style="stroke: #000000; stroke-width: 0.6"/>
      </g>
     </g>
    </g>
    <g id="ytick_30">
     <g id="line2d_39">
      <g>
       <use xlink:href="#mc073c461f9" x="59.984054" y="84.567421" style="stroke: #000000; stroke-width: 0.6"/>
      </g>
     </g>
    </g>
    <g id="ytick_31">
     <g id="line2d_40">
      <g>
       <use xlink:href="#mc073c461f9" x="59.984054" y="79.038301" style="stroke: #000000; stroke-width: 0.6"/>
      </g>
     </g>
    </g>
    <g id="ytick_32">
     <g id="line2d_41">
      <g>
       <use xlink:href="#mc073c461f9" x="59.984054" y="74.363496" style="stroke: #000000; stroke-width: 0.6"/>
      </g>
     </g>
    </g>
    <g id="ytick_33">
     <g id="line2d_42">
      <g>
       <use xlink:href="#mc073c461f9" x="59.984054" y="70.313997" style="stroke: #000000; stroke-width: 0.6"/>
      </g>
     </g>
    </g>
    <g id="ytick_34">
     <g id="line2d_43">
      <g>
       <use xlink:href="#mc073c461f9" x="59.984054" y="66.742085" style="stroke: #000000; stroke-width: 0.6"/>
      </g>
     </g>
    </g>
    <g id="ytick_35">
     <g id="line2d_44">
      <g>
       <use xlink:href="#mc073c461f9" x="59.984054" y="42.526381" style="stroke: #000000; stroke-width: 0.6"/>
      </g>
     </g>
    </g>
    <g id="ytick_36">
     <g id="line2d_45">
      <g>
       <use xlink:href="#mc073c461f9" x="59.984054" y="30.230166" style="stroke: #000000; stroke-width: 0.6"/>
      </g>
     </g>
    </g>
    <g id="ytick_37">
     <g id="line2d_46">
      <g>
       <use xlink:href="#mc073c461f9" x="59.984054" y="21.505862" style="stroke: #000000; stroke-width: 0.6"/>
      </g>
     </g>
    </g>
    <g id="ytick_38">
     <g id="line2d_47">
      <g>
       <use xlink:href="#mc073c461f9" x="59.984054" y="14.738766" style="stroke: #000000; stroke-width: 0.6"/>
      </g>
     </g>
    </g>
    <g id="text_15">
     <!-- $\alpha(T)$ (m$^2$/s) -->
     <g transform="translate(23.404366 183.85) rotate(-90) scale(0.1 -0.1)">
      <defs>
       <path id="DejaVuSans-Oblique-3b1" d="M 2619 1628 
L 2622 2350 
Q 2625 3088 2069 3091 
Q 1653 3094 1394 2747 
Q 1069 2319 959 1747 
Q 825 1059 994 731 
Q 1169 397 1547 397 
Q 1966 397 2319 1063 
L 2619 1628 
z
M 2166 3578 
Q 3141 3594 3128 2584 
Q 3128 2584 3616 3500 
L 4128 3500 
L 3119 1603 
L 3109 919 
Q 3109 766 3194 638 
Q 3291 488 3391 488 
L 3669 488 
L 3575 0 
L 3228 0 
Q 2934 0 2722 263 
Q 2622 394 2619 669 
Q 2416 334 2066 50 
Q 1900 -81 1453 -78 
Q 722 -72 456 397 
Q 184 884 353 1747 
Q 534 2675 1009 3097 
Q 1544 3569 2166 3578 
z
" transform="scale(0.015625)"/>
       <path id="DejaVuSans-6d" d="M 3328 2828 
Q 3544 3216 3844 3400 
Q 4144 3584 4550 3584 
Q 5097 3584 5394 3201 
Q 5691 2819 5691 2113 
L 5691 0 
L 5113 0 
L 5113 2094 
Q 5113 2597 4934 2840 
Q 4756 3084 4391 3084 
Q 3944 3084 3684 2787 
Q 3425 2491 3425 1978 
L 3425 0 
L 2847 0 
L 2847 2094 
Q 2847 2600 2669 2842 
Q 2491 3084 2119 3084 
Q 1678 3084 1418 2786 
Q 1159 2488 1159 1978 
L 1159 0 
L 581 0 
L 581 3500 
L 1159 3500 
L 1159 2956 
Q 1356 3278 1631 3431 
Q 1906 3584 2284 3584 
Q 2666 3584 2933 3390 
Q 3200 3197 3328 2828 
z
" transform="scale(0.015625)"/>
       <path id="DejaVuSans-2f" d="M 1625 4666 
L 2156 4666 
L 531 -594 
L 0 -594 
L 1625 4666 
z
" transform="scale(0.015625)"/>
       <path id="DejaVuSans-73" d="M 2834 3397 
L 2834 2853 
Q 2591 2978 2328 3040 
Q 2066 3103 1784 3103 
Q 1356 3103 1142 2972 
Q 928 2841 928 2578 
Q 928 2378 1081 2264 
Q 1234 2150 1697 2047 
L 1894 2003 
Q 2506 1872 2764 1633 
Q 3022 1394 3022 966 
Q 3022 478 2636 193 
Q 2250 -91 1575 -91 
Q 1294 -91 989 -36 
Q 684 19 347 128 
L 347 722 
Q 666 556 975 473 
Q 1284 391 1588 391 
Q 1994 391 2212 530 
Q 2431 669 2431 922 
Q 2431 1156 2273 1281 
Q 2116 1406 1581 1522 
L 1381 1569 
Q 847 1681 609 1914 
Q 372 2147 372 2553 
Q 372 3047 722 3315 
Q 1072 3584 1716 3584 
Q 2034 3584 2315 3537 
Q 2597 3491 2834 3397 
z
" transform="scale(0.015625)"/>
      </defs>
      <use xlink:href="#DejaVuSans-Oblique-3b1" transform="translate(0 0.765625)"/>
      <use xlink:href="#DejaVuSans-28" transform="translate(65.917969 0.765625)"/>
      <use xlink:href="#DejaVuSans-Oblique-54" transform="translate(104.931641 0.765625)"/>
      <use xlink:href="#DejaVuSans-29" transform="translate(166.015625 0.765625)"/>
      <use xlink:href="#DejaVuSans-20" transform="translate(205.029297 0.765625)"/>
      <use xlink:href="#DejaVuSans-28" transform="translate(236.816406 0.765625)"/>
      <use xlink:href="#DejaVuSans-6d" transform="translate(275.830078 0.765625)"/>
      <use xlink:href="#DejaVuSans-32" transform="translate(374.199219 39.046875) scale(0.7)"/>
      <use xlink:href="#DejaVuSans-2f" transform="translate(421.469727 0.765625)"/>
      <use xlink:href="#DejaVuSans-73" transform="translate(455.161133 0.765625)"/>
      <use xlink:href="#DejaVuSans-29" transform="translate(507.260742 0.765625)"/>
     </g>
    </g>
   </g>
   <g id="line2d_48">
    <path d="M 77.712051 47.089051 
L 120.473051 54.122317 
L 168.579175 62.085384 
L 197.086507 67.028708 
L 220.248715 71.266169 
L 239.847506 75.067059 
L 257.664589 78.745675 
L 273.699964 82.286295 
L 287.95363 85.660954 
L 300.425589 88.829232 
L 312.897547 92.243225 
L 323.587796 95.407369 
L 332.496338 98.246876 
L 341.404879 101.307652 
L 350.313421 104.635132 
L 357.440254 107.529071 
L 364.567087 110.672728 
L 369.912212 113.226014 
L 375.257337 115.978881 
L 380.602462 118.96877 
L 385.947587 122.244613 
L 389.511003 124.61889 
L 391.292712 126.71547 
L 393.07442 129.771589 
L 394.856128 133.156727 
L 396.637837 136.952208 
L 398.419545 141.27379 
L 400.201253 146.294358 
L 401.982961 151.952085 
L 403.76467 159.353454 
L 405.546378 169.121748 
L 409.109795 198.549414 
L 412.673211 202.574943 
L 416.236628 207.180869 
L 418.018336 209.760947 
L 419.800044 212.57033 
L 421.581753 215.654935 
L 423.363461 219.076012 
L 425.145169 222.917829 
L 426.926878 227.296792 
L 428.708586 232.392484 
L 430.490294 238.496585 
L 432.272002 246.116164 
L 432.272002 246.116164 
" clip-path="url(#pd0caab796f)" style="fill: none; stroke: #1f77b4; stroke-width: 1.5; stroke-linecap: square"/>
   </g>
   <g id="line2d_49">
    <path d="M 77.712051 57.743021 
L 86.620593 61.191752 
L 95.529134 64.404779 
L 106.219384 67.98864 
L 116.909634 71.315381 
L 127.599884 74.421129 
L 140.071842 77.806605 
L 154.325508 81.413011 
L 168.579175 84.788315 
L 184.614549 88.360018 
L 202.431632 92.100652 
L 222.030423 95.990714 
L 243.410923 100.016506 
L 268.354839 104.48083 
L 296.862172 109.33925 
L 328.932921 114.56876 
L 369.912212 121.005745 
L 432.272002 130.596152 
L 432.272002 130.596152 
" clip-path="url(#pd0caab796f)" style="fill: none; stroke-dasharray: 7.4,3.2; stroke-dashoffset: 0; stroke: #000000; stroke-width: 2"/>
   </g>
   <g id="patch_3">
    <path d="M 59.984054 302.2 
L 59.984054 10.8 
" style="fill: none; stroke: #000000; stroke-width: 0.8; stroke-linejoin: miter; stroke-linecap: square"/>
   </g>
   <g id="patch_4">
    <path d="M 450 302.2 
L 450 10.8 
" style="fill: none; stroke: #000000; stroke-width: 0.8; stroke-linejoin: miter; stroke-linecap: square"/>
   </g>
   <g id="patch_5">
    <path d="M 59.984054 302.2 
L 450 302.2 
" style="fill: none; stroke: #000000; stroke-width: 0.8; stroke-linejoin: miter; stroke-linecap: square"/>
   </g>
   <g id="patch_6">
    <path d="M 59.984054 10.8 
L 450 10.8 
" style="fill: none; stroke: #000000; stroke-width: 0.8; stroke-linejoin: miter; stroke-linecap: square"/>
   </g>
   <g id="legend_1">
    <g id="patch_7">
     <path d="M 66.984054 297.2 
L 295.377804 297.2 
Q 297.377804 297.2 297.377804 295.2 
L 297.377804 252.165625 
Q 297.377804 250.165625 295.377804 250.165625 
L 66.984054 250.165625 
Q 64.984054 250.165625 64.984054 252.165625 
L 64.984054 295.2 
Q 64.984054 297.2 66.984054 297.2 
z
" style="fill: #ffffff; opacity: 0.8; stroke: #cccccc; stroke-linejoin: miter"/>
    </g>
    <g id="patch_8">
     <path d="M 68.984054 261.764062 
L 88.984054 261.764062 
L 88.984054 254.764062 
L 68.984054 254.764062 
z
" style="fill: #1f77b4; fill-opacity: 0.3"/>
    </g>
    <g id="text_16">
     <!-- 95% Credible Interval (parameter-only) -->
     <g transform="translate(96.984054 261.764062) scale(0.1 -0.1)">
      <defs>
       <path id="DejaVuSans-39" d="M 703 97 
L 703 672 
Q 941 559 1184 500 
Q 1428 441 1663 441 
Q 2288 441 2617 861 
Q 2947 1281 2994 2138 
Q 2813 1869 2534 1725 
Q 2256 1581 1919 1581 
Q 1219 1581 811 2004 
Q 403 2428 403 3163 
Q 403 3881 828 4315 
Q 1253 4750 1959 4750 
Q 2769 4750 3195 4129 
Q 3622 3509 3622 2328 
Q 3622 1225 3098 567 
Q 2575 -91 1691 -91 
Q 1453 -91 1209 -44 
Q 966 3 703 97 
z
M 1959 2075 
Q 2384 2075 2632 2365 
Q 2881 2656 2881 3163 
Q 2881 3666 2632 3958 
Q 2384 4250 1959 4250 
Q 1534 4250 1286 3958 
Q 1038 3666 1038 3163 
Q 1038 2656 1286 2365 
Q 1534 2075 1959 2075 
z
" transform="scale(0.015625)"/>
       <path id="DejaVuSans-25" d="M 4653 2053 
Q 4381 2053 4226 1822 
Q 4072 1591 4072 1178 
Q 4072 772 4226 539 
Q 4381 306 4653 306 
Q 4919 306 5073 539 
Q 5228 772 5228 1178 
Q 5228 1588 5073 1820 
Q 4919 2053 4653 2053 
z
M 4653 2450 
Q 5147 2450 5437 2106 
Q 5728 1763 5728 1178 
Q 5728 594 5436 251 
Q 5144 -91 4653 -91 
Q 4153 -91 3862 251 
Q 3572 594 3572 1178 
Q 3572 1766 3864 2108 
Q 4156 2450 4653 2450 
z
M 1428 4353 
Q 1159 4353 1004 4120 
Q 850 3888 850 3481 
Q 850 3069 1003 2837 
Q 1156 2606 1428 2606 
Q 1700 2606 1854 2837 
Q 2009 3069 2009 3481 
Q 2009 3884 1853 4118 
Q 1697 4353 1428 4353 
z
M 4250 4750 
L 4750 4750 
L 1831 -91 
L 1331 -91 
L 4250 4750 
z
M 1428 4750 
Q 1922 4750 2215 4408 
Q 2509 4066 2509 3481 
Q 2509 2891 2217 2550 
Q 1925 2209 1428 2209 
Q 931 2209 642 2551 
Q 353 2894 353 3481 
Q 353 4063 643 4406 
Q 934 4750 1428 4750 
z
" transform="scale(0.015625)"/>
       <path id="DejaVuSans-43" d="M 4122 4306 
L 4122 3641 
Q 3803 3938 3442 4084 
Q 3081 4231 2675 4231 
Q 1875 4231 1450 3742 
Q 1025 3253 1025 2328 
Q 1025 1406 1450 917 
Q 1875 428 2675 428 
Q 3081 428 3442 575 
Q 3803 722 4122 1019 
L 4122 359 
Q 3791 134 3420 21 
Q 3050 -91 2638 -91 
Q 1578 -91 968 557 
Q 359 1206 359 2328 
Q 359 3453 968 4101 
Q 1578 4750 2638 4750 
Q 3056 4750 3426 4639 
Q 3797 4528 4122 4306 
z
" transform="scale(0.015625)"/>
       <path id="DejaVuSans-72" d="M 2631 2963 
Q 2534 3019 2420 3045 
Q 2306 3072 2169 3072 
Q 1681 3072 1420 2755 
Q 1159 2438 1159 1844 
L 1159 0 
L 581 0 
L 581 3500 
L 1159 3500 
L 1159 2956 
Q 1341 3275 1631 3429 
Q 1922 3584 2338 3584 
Q 2397 3584 2469 3576 
Q 2541 3569 2628 3553 
L 2631 2963 
z
" transform="scale(0.015625)"/>
       <path id="DejaVuSans-65" d="M 3597 1894 
L 3597 1613 
L 953 1613 
Q 991 1019 1311 708 
Q 1631 397 2203 397 
Q 2534 397 2845 478 
Q 3156 559 3463 722 
L 3463 178 
Q 3153 47 2828 -22 
Q 2503 -91 2169 -91 
Q 1331 -91 842 396 
Q 353 884 353 1716 
Q 353 2575 817 3079 
Q 1281 3584 2069 3584 
Q 2775 3584 3186 3129 
Q 3597 2675 3597 1894 
z
M 3022 2063 
Q 3016 2534 2758 2815 
Q 2500 3097 2075 3097 
Q 1594 3097 1305 2825 
Q 1016 2553 972 2059 
L 3022 2063 
z
" transform="scale(0.015625)"/>
       <path id="DejaVuSans-64" d="M 2906 2969 
L 2906 4863 
L 3481 4863 
L 3481 0 
L 2906 0 
L 2906 525 
Q 2725 213 2448 61 
Q 2172 -91 1784 -91 
Q 1150 -91 751 415 
Q 353 922 353 1747 
Q 353 2572 751 3078 
Q 1150 3584 1784 3584 
Q 2172 3584 2448 3432 
Q 2725 3281 2906 2969 
z
M 947 1747 
Q 947 1113 1208 752 
Q 1469 391 1925 391 
Q 2381 391 2643 752 
Q 2906 1113 2906 1747 
Q 2906 2381 2643 2742 
Q 2381 3103 1925 3103 
Q 1469 3103 1208 2742 
Q 947 2381 947 1747 
z
" transform="scale(0.015625)"/>
       <path id="DejaVuSans-69" d="M 603 3500 
L 1178 3500 
L 1178 0 
L 603 0 
L 603 3500 
z
M 603 4863 
L 1178 4863 
L 1178 4134 
L 603 4134 
L 603 4863 
z
" transform="scale(0.015625)"/>
       <path id="DejaVuSans-62" d="M 3116 1747 
Q 3116 2381 2855 2742 
Q 2594 3103 2138 3103 
Q 1681 3103 1420 2742 
Q 1159 2381 1159 1747 
Q 1159 1113 1420 752 
Q 1681 391 2138 391 
Q 2594 391 2855 752 
Q 3116 1113 3116 1747 
z
M 1159 2969 
Q 1341 3281 1617 3432 
Q 1894 3584 2278 3584 
Q 2916 3584 3314 3078 
Q 3713 2572 3713 1747 
Q 3713 922 3314 415 
Q 2916 -91 2278 -91 
Q 1894 -91 1617 61 
Q 1341 213 1159 525 
L 1159 0 
L 581 0 
L 581 4863 
L 1159 4863 
L 1159 2969 
z
" transform="scale(0.015625)"/>
       <path id="DejaVuSans-6c" d="M 603 4863 
L 1178 4863 
L 1178 0 
L 603 0 
L 603 4863 
z
" transform="scale(0.015625)"/>
       <path id="DejaVuSans-49" d="M 628 4666 
L 1259 4666 
L 1259 0 
L 628 0 
L 628 4666 
z
" transform="scale(0.015625)"/>
       <path id="DejaVuSans-6e" d="M 3513 2113 
L 3513 0 
L 2938 0 
L 2938 2094 
Q 2938 2591 2744 2837 
Q 2550 3084 2163 3084 
Q 1697 3084 1428 2787 
Q 1159 2491 1159 1978 
L 1159 0 
L 581 0 
L 581 3500 
L 1159 3500 
L 1159 2956 
Q 1366 3272 1645 3428 
Q 1925 3584 2291 3584 
Q 2894 3584 3203 3211 
Q 3513 2838 3513 2113 
z
" transform="scale(0.015625)"/>
       <path id="DejaVuSans-74" d="M 1172 4494 
L 1172 3500 
L 2356 3500 
L 2356 3053 
L 1172 3053 
L 1172 1153 
Q 1172 725 1289 603 
Q 1406 481 1766 481 
L 2356 481 
L 2356 0 
L 1766 0 
Q 1100 0 847 248 
Q 594 497 594 1153 
L 594 3053 
L 172 3053 
L 172 3500 
L 594 3500 
L 594 4494 
L 1172 4494 
z
" transform="scale(0.015625)"/>
       <path id="DejaVuSans-76" d="M 191 3500 
L 800 3500 
L 1894 563 
L 2988 3500 
L 3597 3500 
L 2284 0 
L 1503 0 
L 191 3500 
z
" transform="scale(0.015625)"/>
       <path id="DejaVuSans-61" d="M 2194 1759 
Q 1497 1759 1228 1600 
Q 959 1441 959 1056 
Q 959 750 1161 570 
Q 1363 391 1709 391 
Q 2188 391 2477 730 
Q 2766 1069 2766 1631 
L 2766 1759 
L 2194 1759 
z
M 3341 1997 
L 3341 0 
L 2766 0 
L 2766 531 
Q 2569 213 2275 61 
Q 1981 -91 1556 -91 
Q 1019 -91 701 211 
Q 384 513 384 1019 
Q 384 1609 779 1909 
Q 1175 2209 1959 2209 
L 2766 2209 
L 2766 2266 
Q 2766 2663 2505 2880 
Q 2244 3097 1772 3097 
Q 1472 3097 1187 3025 
Q 903 2953 641 2809 
L 641 3341 
Q 956 3463 1253 3523 
Q 1550 3584 1831 3584 
Q 2591 3584 2966 3190 
Q 3341 2797 3341 1997 
z
" transform="scale(0.015625)"/>
       <path id="DejaVuSans-70" d="M 1159 525 
L 1159 -1331 
L 581 -1331 
L 581 3500 
L 1159 3500 
L 1159 2969 
Q 1341 3281 1617 3432 
Q 1894 3584 2278 3584 
Q 2916 3584 3314 3078 
Q 3713 2572 3713 1747 
Q 3713 922 3314 415 
Q 2916 -91 2278 -91 
Q 1894 -91 1617 61 
Q 1341 213 1159 525 
z
M 3116 1747 
Q 3116 2381 2855 2742 
Q 2594 3103 2138 3103 
Q 1681 3103 1420 2742 
Q 1159 2381 1159 1747 
Q 1159 1113 1420 752 
Q 1681 391 2138 391 
Q 2594 391 2855 752 
Q 3116 1113 3116 1747 
z
" transform="scale(0.015625)"/>
       <path id="DejaVuSans-2d" d="M 313 2009 
L 1997 2009 
L 1997 1497 
L 313 1497 
L 313 2009 
z
" transform="scale(0.015625)"/>
       <path id="DejaVuSans-6f" d="M 1959 3097 
Q 1497 3097 1228 2736 
Q 959 2375 959 1747 
Q 959 1119 1226 758 
Q 1494 397 1959 397 
Q 2419 397 2687 759 
Q 2956 1122 2956 1747 
Q 2956 2369 2687 2733 
Q 2419 3097 1959 3097 
z
M 1959 3584 
Q 2709 3584 3137 3096 
Q 3566 2609 3566 1747 
Q 3566 888 3137 398 
Q 2709 -91 1959 -91 
Q 1206 -91 779 398 
Q 353 888 353 1747 
Q 353 2609 779 3096 
Q 1206 3584 1959 3584 
z
" transform="scale(0.015625)"/>
       <path id="DejaVuSans-79" d="M 2059 -325 
Q 1816 -950 1584 -1140 
Q 1353 -1331 966 -1331 
L 506 -1331 
L 506 -850 
L 844 -850 
Q 1081 -850 1212 -737 
Q 1344 -625 1503 -206 
L 1606 56 
L 191 3500 
L 800 3500 
L 1894 763 
L 2988 3500 
L 3597 3500 
L 2059 -325 
z
" transform="scale(0.015625)"/>
      </defs>
      <use xlink:href="#DejaVuSans-39"/>
      <use xlink:href="#DejaVuSans-35" transform="translate(63.623047 0)"/>
      <use xlink:href="#DejaVuSans-25" transform="translate(127.246094 0)"/>
      <use xlink:href="#DejaVuSans-20" transform="translate(222.265625 0)"/>
      <use xlink:href="#DejaVuSans-43" transform="translate(254.052734 0)"/>
      <use xlink:href="#DejaVuSans-72" transform="translate(323.876953 0)"/>
      <use xlink:href="#DejaVuSans-65" transform="translate(362.740234 0)"/>
      <use xlink:href="#DejaVuSans-64" transform="translate(424.263672 0)"/>
      <use xlink:href="#DejaVuSans-69" transform="translate(487.740234 0)"/>
      <use xlink:href="#DejaVuSans-62" transform="translate(515.523438 0)"/>
      <use xlink:href="#DejaVuSans-6c" transform="translate(579 0)"/>
      <use xlink:href="#DejaVuSans-65" transform="translate(606.783203 0)"/>
      <use xlink:href="#DejaVuSans-20" transform="translate(668.306641 0)"/>
      <use xlink:href="#DejaVuSans-49" transform="translate(700.09375 0)"/>
      <use xlink:href="#DejaVuSans-6e" transform="translate(729.585938 0)"/>
      <use xlink:href="#DejaVuSans-74" transform="translate(792.964844 0)"/>
      <use xlink:href="#DejaVuSans-65" transform="translate(832.173828 0)"/>
      <use xlink:href="#DejaVuSans-72" transform="translate(893.697266 0)"/>
      <use xlink:href="#DejaVuSans-76" transform="translate(934.810547 0)"/>
      <use xlink:href="#DejaVuSans-61" transform="translate(993.990234 0)"/>
      <use xlink:href="#DejaVuSans-6c" transform="translate(1055.269531 0)"/>
      <use xlink:href="#DejaVuSans-20" transform="translate(1083.052734 0)"/>
      <use xlink:href="#DejaVuSans-28" transform="translate(1114.839844 0)"/>
      <use xlink:href="#DejaVuSans-70" transform="translate(1153.853516 0)"/>
      <use xlink:href="#DejaVuSans-61" transform="translate(1217.330078 0)"/>
      <use xlink:href="#DejaVuSans-72" transform="translate(1278.609375 0)"/>
      <use xlink:href="#DejaVuSans-61" transform="translate(1319.722656 0)"/>
      <use xlink:href="#DejaVuSans-6d" transform="translate(1381.001953 0)"/>
      <use xlink:href="#DejaVuSans-65" transform="translate(1478.414062 0)"/>
      <use xlink:href="#DejaVuSans-74" transform="translate(1539.9375 0)"/>
      <use xlink:href="#DejaVuSans-65" transform="translate(1579.146484 0)"/>
      <use xlink:href="#DejaVuSans-72" transform="translate(1640.669922 0)"/>
      <use xlink:href="#DejaVuSans-2d" transform="translate(1675.408203 0)"/>
      <use xlink:href="#DejaVuSans-6f" transform="translate(1713.367188 0)"/>
      <use xlink:href="#DejaVuSans-6e" transform="translate(1774.548828 0)"/>
      <use xlink:href="#DejaVuSans-6c" transform="translate(1837.927734 0)"/>
      <use xlink:href="#DejaVuSans-79" transform="translate(1865.710938 0)"/>
      <use xlink:href="#DejaVuSans-29" transform="translate(1924.890625 0)"/>
     </g>
    </g>
    <g id="line2d_50">
     <path d="M 68.984054 272.942187 
L 78.984054 272.942187 
L 88.984054 272.942187 
" style="fill: none; stroke: #1f77b4; stroke-width: 1.5; stroke-linecap: square"/>
    </g>
    <g id="text_17">
     <!-- Logarithmic (median) -->
     <g transform="translate(96.984054 276.442187) scale(0.1 -0.1)">
      <defs>
       <path id="DejaVuSans-4c" d="M 628 4666 
L 1259 4666 
L 1259 531 
L 3531 531 
L 3531 0 
L 628 0 
L 628 4666 
z
" transform="scale(0.015625)"/>
       <path id="DejaVuSans-67" d="M 2906 1791 
Q 2906 2416 2648 2759 
Q 2391 3103 1925 3103 
Q 1463 3103 1205 2759 
Q 947 2416 947 1791 
Q 947 1169 1205 825 
Q 1463 481 1925 481 
Q 2391 481 2648 825 
Q 2906 1169 2906 1791 
z
M 3481 434 
Q 3481 -459 3084 -895 
Q 2688 -1331 1869 -1331 
Q 1566 -1331 1297 -1286 
Q 1028 -1241 775 -1147 
L 775 -588 
Q 1028 -725 1275 -790 
Q 1522 -856 1778 -856 
Q 2344 -856 2625 -561 
Q 2906 -266 2906 331 
L 2906 616 
Q 2728 306 2450 153 
Q 2172 0 1784 0 
Q 1141 0 747 490 
Q 353 981 353 1791 
Q 353 2603 747 3093 
Q 1141 3584 1784 3584 
Q 2172 3584 2450 3431 
Q 2728 3278 2906 2969 
L 2906 3500 
L 3481 3500 
L 3481 434 
z
" transform="scale(0.015625)"/>
       <path id="DejaVuSans-68" d="M 3513 2113 
L 3513 0 
L 2938 0 
L 2938 2094 
Q 2938 2591 2744 2837 
Q 2550 3084 2163 3084 
Q 1697 3084 1428 2787 
Q 1159 2491 1159 1978 
L 1159 0 
L 581 0 
L 581 4863 
L 1159 4863 
L 1159 2956 
Q 1366 3272 1645 3428 
Q 1925 3584 2291 3584 
Q 2894 3584 3203 3211 
Q 3513 2838 3513 2113 
z
" transform="scale(0.015625)"/>
       <path id="DejaVuSans-63" d="M 3122 3366 
L 3122 2828 
Q 2878 2963 2633 3030 
Q 2388 3097 2138 3097 
Q 1578 3097 1268 2742 
Q 959 2388 959 1747 
Q 959 1106 1268 751 
Q 1578 397 2138 397 
Q 2388 397 2633 464 
Q 2878 531 3122 666 
L 3122 134 
Q 2881 22 2623 -34 
Q 2366 -91 2075 -91 
Q 1284 -91 818 406 
Q 353 903 353 1747 
Q 353 2603 823 3093 
Q 1294 3584 2113 3584 
Q 2378 3584 2631 3529 
Q 2884 3475 3122 3366 
z
" transform="scale(0.015625)"/>
      </defs>
      <use xlink:href="#DejaVuSans-4c"/>
      <use xlink:href="#DejaVuSans-6f" transform="translate(53.962891 0)"/>
      <use xlink:href="#DejaVuSans-67" transform="translate(115.144531 0)"/>
      <use xlink:href="#DejaVuSans-61" transform="translate(178.621094 0)"/>
      <use xlink:href="#DejaVuSans-72" transform="translate(239.900391 0)"/>
      <use xlink:href="#DejaVuSans-69" transform="translate(281.013672 0)"/>
      <use xlink:href="#DejaVuSans-74" transform="translate(308.796875 0)"/>
      <use xlink:href="#DejaVuSans-68" transform="translate(348.005859 0)"/>
      <use xlink:href="#DejaVuSans-6d" transform="translate(411.384766 0)"/>
      <use xlink:href="#DejaVuSans-69" transform="translate(508.796875 0)"/>
      <use xlink:href="#DejaVuSans-63" transform="translate(536.580078 0)"/>
      <use xlink:href="#DejaVuSans-20" transform="translate(591.560547 0)"/>
      <use xlink:href="#DejaVuSans-28" transform="translate(623.347656 0)"/>
      <use xlink:href="#DejaVuSans-6d" transform="translate(662.361328 0)"/>
      <use xlink:href="#DejaVuSans-65" transform="translate(759.773438 0)"/>
      <use xlink:href="#DejaVuSans-64" transform="translate(821.296875 0)"/>
      <use xlink:href="#DejaVuSans-69" transform="translate(884.773438 0)"/>
      <use xlink:href="#DejaVuSans-61" transform="translate(912.556641 0)"/>
      <use xlink:href="#DejaVuSans-6e" transform="translate(973.835938 0)"/>
      <use xlink:href="#DejaVuSans-29" transform="translate(1037.214844 0)"/>
     </g>
    </g>
    <g id="line2d_51">
     <path d="M 68.984054 287.620312 
L 78.984054 287.620312 
L 88.984054 287.620312 
" style="fill: none; stroke-dasharray: 7.4,3.2; stroke-dashoffset: 0; stroke: #000000; stroke-width: 2"/>
    </g>
    <g id="text_18">
     <!-- Ulamec (2007) - Truth -->
     <g transform="translate(96.984054 291.120312) scale(0.1 -0.1)">
      <defs>
       <path id="DejaVuSans-55" d="M 556 4666 
L 1191 4666 
L 1191 1831 
Q 1191 1081 1462 751 
Q 1734 422 2344 422 
Q 2950 422 3222 751 
Q 3494 1081 3494 1831 
L 3494 4666 
L 4128 4666 
L 4128 1753 
Q 4128 841 3676 375 
Q 3225 -91 2344 -91 
Q 1459 -91 1007 375 
Q 556 841 556 1753 
L 556 4666 
z
" transform="scale(0.015625)"/>
       <path id="DejaVuSans-54" d="M -19 4666 
L 3928 4666 
L 3928 4134 
L 2272 4134 
L 2272 0 
L 1638 0 
L 1638 4134 
L -19 4134 
L -19 4666 
z
" transform="scale(0.015625)"/>
       <path id="DejaVuSans-75" d="M 544 1381 
L 544 3500 
L 1119 3500 
L 1119 1403 
Q 1119 906 1312 657 
Q 1506 409 1894 409 
Q 2359 409 2629 706 
Q 2900 1003 2900 1516 
L 2900 3500 
L 3475 3500 
L 3475 0 
L 2900 0 
L 2900 538 
Q 2691 219 2414 64 
Q 2138 -91 1772 -91 
Q 1169 -91 856 284 
Q 544 659 544 1381 
z
M 1991 3584 
L 1991 3584 
z
" transform="scale(0.015625)"/>
      </defs>
      <use xlink:href="#DejaVuSans-55"/>
      <use xlink:href="#DejaVuSans-6c" transform="translate(73.193359 0)"/>
      <use xlink:href="#DejaVuSans-61" transform="translate(100.976562 0)"/>
      <use xlink:href="#DejaVuSans-6d" transform="translate(162.255859 0)"/>
      <use xlink:href="#DejaVuSans-65" transform="translate(259.667969 0)"/>
      <use xlink:href="#DejaVuSans-63" transform="translate(321.191406 0)"/>
      <use xlink:href="#DejaVuSans-20" transform="translate(376.171875 0)"/>
      <use xlink:href="#DejaVuSans-28" transform="translate(407.958984 0)"/>
      <use xlink:href="#DejaVuSans-32" transform="translate(446.972656 0)"/>
      <use xlink:href="#DejaVuSans-30" transform="translate(510.595703 0)"/>
      <use xlink:href="#DejaVuSans-30" transform="translate(574.21875 0)"/>
      <use xlink:href="#DejaVuSans-37" transform="translate(637.841797 0)"/>
      <use xlink:href="#DejaVuSans-29" transform="translate(701.464844 0)"/>
      <use xlink:href="#DejaVuSans-20" transform="translate(740.478516 0)"/>
      <use xlink:href="#DejaVuSans-2d" transform="translate(772.265625 0)"/>
      <use xlink:href="#DejaVuSans-20" transform="translate(808.349609 0)"/>
      <use xlink:href="#DejaVuSans-54" transform="translate(840.136719 0)"/>
      <use xlink:href="#DejaVuSans-72" transform="translate(886.470703 0)"/>
      <use xlink:href="#DejaVuSans-75" transform="translate(927.583984 0)"/>
      <use xlink:href="#DejaVuSans-74" transform="translate(990.962891 0)"/>
      <use xlink:href="#DejaVuSans-68" transform="translate(1030.171875 0)"/>
     </g>
    </g>
   </g>
  </g>
 </g>
 <defs>
  <clipPath id="pd0caab796f">
   <rect x="59.984054" y="10.8" width="390.015946" height="291.4"/>
  </clipPath>
 </defs>
</svg>
