<?xml version="1.0" encoding="utf-8" standalone="no"?>
<!DOCTYPE svg PUBLIC "-//W3C//DTD SVG 1.1//EN"
  "http://www.w3.org/Graphics/SVG/1.1/DTD/svg11.dtd">
<svg xmlns:xlink="http://www.w3.org/1999/xlink" width="460.8pt" height="345.6pt" viewBox="0 0 460.8 345.6" xmlns="http://www.w3.org/2000/svg" version="1.1">
 <metadata>
  <rdf:RDF xmlns:dc="http://purl.org/dc/elements/1.1/" xmlns:cc="http://creativecommons.org/ns#" xmlns:rdf="http://www.w3.org/1999/02/22-rdf-syntax-ns#">
   <cc:Work>
    <dc:type rdf:resource="http://purl.org/dc/dcmitype/StillImage"/>
    <dc:date>2026-02-12T04:31:37.363839</dc:date>
    <dc:format>image/svg+xml</dc:format>
    <dc:creator>
     <cc:Agent>
      <dc:title>Matplotlib v3.10.8, https://matplotlib.org/</dc:title>
     </cc:Agent>
    </dc:creator>
   </cc:Work>
  </rdf:RDF>
 </metadata>
 <defs>
  <style type="text/css">*{stroke-linejoin: round; stroke-linecap: butt}</style>
 </defs>
 <g id="figure_1">
  <g id="patch_1">
   <path d="M 0 345.6 
L 460.8 345.6 
L 460.8 0 
L 0 0 
L 0 345.6 
z
" style="fill: none"/>
  </g>
  <g id="axes_1">
   <g id="patch_2">
    <path d="M 47.018 302.2 
L 450 302.2 
L 450 10.8 
L 47.018 10.8 
L 47.018 302.2 
z
" style="fill: none"/>
   </g>
   <g id="FillBetweenPolyCollection_1">
    <path d="M 65.335364 202.083353 
L 65.335364 266.361136 
L 72.811839 259.938848 
L 80.288314 254.076411 
L 87.764788 248.754701 
L 95.241263 243.949707 
L 102.717738 239.633227 
L 110.194213 235.773719 
L 117.670688 232.337258 
L 125.147163 229.288542 
L 132.623638 226.591884 
L 140.100113 224.21213 
L 147.576588 222.115446 
L 155.053063 220.269942 
L 162.529538 218.646111 
L 170.006013 217.217095 
L 177.482488 215.958773 
L 184.958963 214.849728 
L 192.435438 213.871098 
L 199.911913 213.006378 
L 207.388388 212.241178 
L 214.864863 211.562978 
L 222.341338 210.960891 
L 229.817813 210.425451 
L 237.294288 209.948417 
L 244.770763 209.522612 
L 252.247237 209.141772 
L 259.723712 208.800427 
L 267.200187 208.493796 
L 274.676662 208.217696 
L 282.153137 207.968468 
L 289.629612 207.742913 
L 297.106087 207.538241 
L 304.582562 207.352028 
L 312.059037 207.182176 
L 319.535512 207.026885 
L 327.011987 206.884623 
L 334.488462 206.754101 
L 341.964937 206.634252 
L 349.441412 206.524211 
L 356.917887 206.423295 
L 364.394362 206.33099 
L 371.870837 206.246932 
L 379.347312 206.170899 
L 386.823787 206.102793 
L 394.300262 206.042632 
L 401.776737 205.990532 
L 409.253212 205.946697 
L 416.729686 205.911401 
L 424.206161 205.884975 
L 431.682636 205.867789 
L 431.682636 24.045455 
L 431.682636 24.045455 
L 424.206161 26.021688 
L 416.729686 27.983327 
L 409.253212 29.527937 
L 401.776737 31.13224 
L 394.300262 32.79179 
L 386.823787 34.503433 
L 379.347312 36.300436 
L 371.870837 38.143598 
L 364.394362 40.030607 
L 356.917887 41.961572 
L 349.441412 43.937136 
L 341.964937 45.958233 
L 334.488462 48.025901 
L 327.011987 50.141181 
L 319.535512 52.305104 
L 312.059037 54.518737 
L 304.582562 56.783281 
L 297.106087 59.100157 
L 289.629612 61.471067 
L 282.153137 63.898 
L 274.676662 66.383187 
L 267.200187 68.929029 
L 259.723712 71.538041 
L 252.247237 74.212856 
L 244.770763 76.95633 
L 237.294288 79.771754 
L 229.817813 82.663143 
L 222.341338 85.635534 
L 214.864863 88.695221 
L 207.388388 91.849877 
L 199.911913 95.108585 
L 192.435438 98.481889 
L 184.958963 101.99847 
L 177.482488 105.692855 
L 170.006013 109.556806 
L 162.529538 113.587429 
L 155.053063 117.82586 
L 147.576588 122.248377 
L 140.100113 126.939614 
L 132.623638 131.965195 
L 125.147163 137.519042 
L 117.670688 143.712162 
L 110.194213 150.547168 
L 102.717738 158.120086 
L 95.241263 166.593717 
L 87.764788 176.056956 
L 80.288314 186.578697 
L 72.811839 198.204389 
L 65.335364 202.083353 
z
" clip-path="url(#pe6b4d09ddd)" style="fill: #1f77b4; fill-opacity: 0.45"/>
   </g>
   <g id="FillBetweenPolyCollection_2">
    <path d="M 65.335364 232.944652 
L 65.335364 278.675658 
L 72.811839 274.569916 
L 80.288314 270.869803 
L 87.764788 267.548962 
L 95.241263 264.579559 
L 102.717738 261.932903 
L 110.194213 259.580063 
L 117.670688 257.492446 
L 125.147163 255.642316 
L 132.623638 254.003235 
L 140.100113 252.550412 
L 147.576588 251.260949 
L 155.053063 250.113987 
L 162.529538 249.090762 
L 170.006013 248.174576 
L 177.482488 247.350709 
L 184.958963 246.606283 
L 192.435438 245.930096 
L 199.911913 245.312449 
L 207.388388 244.744966 
L 214.864863 244.22043 
L 222.341338 243.732628 
L 229.817813 243.276218 
L 237.294288 242.846605 
L 244.770763 242.439846 
L 252.247237 242.052555 
L 259.723712 241.681833 
L 267.200187 241.325197 
L 274.676662 240.980533 
L 282.153137 240.64604 
L 289.629612 240.320195 
L 297.106087 240.001715 
L 304.582562 239.689529 
L 312.059037 239.382752 
L 319.535512 239.08066 
L 327.011987 238.782676 
L 334.488462 238.488348 
L 341.964937 238.197338 
L 349.441412 237.909407 
L 356.917887 237.62441 
L 364.394362 237.342277 
L 371.870837 237.063018 
L 379.347312 236.786709 
L 386.823787 236.513489 
L 394.300262 236.243561 
L 401.776737 235.977182 
L 409.253212 235.714667 
L 416.729686 235.456382 
L 424.206161 235.202743 
L 431.682636 234.954213 
L 431.682636 160.208277 
L 431.682636 160.208277 
L 424.206161 161.030888 
L 416.729686 161.873297 
L 409.253212 162.735314 
L 401.776737 163.617057 
L 394.300262 164.521419 
L 386.823787 165.44518 
L 379.347312 166.388539 
L 371.870837 167.351863 
L 364.394362 168.335658 
L 356.917887 169.340538 
L 349.441412 170.367178 
L 341.964937 171.416277 
L 334.488462 172.488536 
L 327.011987 173.584643 
L 319.535512 174.705285 
L 312.059037 175.851171 
L 304.582562 177.02306 
L 297.106087 178.221789 
L 289.629612 179.448294 
L 282.153137 180.703613 
L 274.676662 181.988884 
L 267.200187 183.305331 
L 259.723712 184.654261 
L 252.247237 186.037078 
L 244.770763 187.455324 
L 237.294288 188.910752 
L 229.817813 190.405417 
L 222.341338 191.941775 
L 214.864863 193.52278 
L 207.388388 195.151961 
L 199.911913 196.83352 
L 192.435438 198.572463 
L 184.958963 200.295911 
L 177.482488 200.687552 
L 170.006013 201.143273 
L 162.529538 201.703383 
L 155.053063 202.388478 
L 147.576588 203.22378 
L 140.100113 204.239707 
L 132.623638 205.47191 
L 125.147163 206.960624 
L 117.670688 208.749257 
L 110.194213 210.882337 
L 102.717738 213.403051 
L 95.241263 216.350703 
L 87.764788 219.758462 
L 80.288314 223.651222 
L 72.811839 228.043337 
L 65.335364 232.944652 
z
" clip-path="url(#pe6b4d09ddd)" style="fill: #ff7f0e; fill-opacity: 0.45"/>
   </g>
   <g id="FillBetweenPolyCollection_3">
    <path d="M 65.335364 275.500693 
L 65.335364 282.021089 
L 72.811839 280.619679 
L 80.288314 279.419836 
L 87.764788 278.401582 
L 95.241263 277.545499 
L 102.717738 276.832988 
L 110.194213 276.246474 
L 117.670688 275.769577 
L 125.147163 275.387219 
L 132.623638 275.085692 
L 140.100113 274.852668 
L 147.576588 274.677181 
L 155.053063 274.549563 
L 162.529538 274.461367 
L 170.006013 274.405265 
L 177.482488 274.374937 
L 184.958963 274.364965 
L 192.435438 274.370721 
L 199.911913 274.388264 
L 207.388388 274.41425 
L 214.864863 274.445846 
L 222.341338 274.48066 
L 229.817813 274.516672 
L 237.294288 274.552188 
L 244.770763 274.585787 
L 252.247237 274.616289 
L 259.723712 274.642714 
L 267.200187 274.664264 
L 274.676662 274.680287 
L 282.153137 274.690269 
L 289.629612 274.693806 
L 297.106087 274.690593 
L 304.582562 274.680412 
L 312.059037 274.663114 
L 319.535512 274.638613 
L 327.011987 274.606875 
L 334.488462 274.567907 
L 341.964937 274.521746 
L 349.441412 274.466351 
L 356.917887 274.408927 
L 364.394362 274.345682 
L 371.870837 274.277067 
L 379.347312 274.201509 
L 386.823787 274.119021 
L 394.300262 274.029658 
L 401.776737 273.933454 
L 409.253212 273.830426 
L 416.729686 273.72057 
L 424.206161 273.603864 
L 431.682636 273.48027 
L 431.682636 244.901084 
L 431.682636 244.901084 
L 424.206161 245.016182 
L 416.729686 245.141689 
L 409.253212 245.277466 
L 401.776737 245.423481 
L 394.300262 245.579785 
L 386.823787 245.746472 
L 379.347312 245.923653 
L 371.870837 246.111423 
L 364.394362 246.309853 
L 356.917887 246.518977 
L 349.441412 246.738792 
L 341.964937 246.969262 
L 334.488462 247.210324 
L 327.011987 247.461896 
L 319.535512 247.723883 
L 312.059037 247.996184 
L 304.582562 248.278703 
L 297.106087 248.57136 
L 289.629612 248.874101 
L 282.153137 249.186913 
L 274.676662 249.509845 
L 267.200187 249.843022 
L 259.723712 250.18668 
L 252.247237 250.541191 
L 244.770763 250.907112 
L 237.294288 251.285229 
L 229.817813 251.676618 
L 222.341338 252.082706 
L 214.864863 252.505335 
L 207.388388 252.94684 
L 199.911913 253.410115 
L 192.435438 253.89871 
L 184.958963 254.416926 
L 177.482488 254.969952 
L 170.006013 255.56402 
L 162.529538 256.206604 
L 155.053063 256.906627 
L 147.576588 257.674687 
L 140.100113 258.523254 
L 132.623638 259.466819 
L 125.147163 260.521963 
L 117.670688 261.707309 
L 110.194213 263.043346 
L 102.717738 264.55211 
L 95.241263 266.256732 
L 87.764788 268.180862 
L 80.288314 270.34802 
L 72.811839 272.780902 
L 65.335364 275.500693 
z
" clip-path="url(#pe6b4d09ddd)" style="fill: #2ca02c; fill-opacity: 0.45"/>
   </g>
   <g id="FillBetweenPolyCollection_4">
    <path d="M 65.335364 278.997835 
L 65.335364 285.362752 
L 72.811839 284.601384 
L 80.288314 283.994631 
L 87.764788 283.521408 
L 95.241263 283.161991 
L 102.717738 282.899006 
L 110.194213 282.715464 
L 117.670688 282.593954 
L 125.147163 282.52035 
L 132.623638 282.48234 
L 140.100113 282.469448 
L 147.576588 282.472982 
L 155.053063 282.485933 
L 162.529538 282.502826 
L 170.006013 282.519535 
L 177.482488 282.533086 
L 184.958963 282.582041 
L 192.435438 282.831024 
L 199.911913 283.201206 
L 207.388388 283.562565 
L 214.864863 283.913808 
L 222.341338 284.253927 
L 229.817813 284.582157 
L 237.294288 284.897932 
L 244.770763 285.200855 
L 252.247237 285.490671 
L 259.723712 285.767239 
L 267.200187 286.030518 
L 274.676662 286.280548 
L 282.153137 286.517441 
L 289.629612 286.741365 
L 297.106087 286.952542 
L 304.582562 287.151235 
L 312.059037 287.337744 
L 319.535512 287.512397 
L 327.011987 287.675549 
L 334.488462 287.827572 
L 341.964937 287.96885 
L 349.441412 288.099773 
L 356.917887 288.220732 
L 364.394362 288.332111 
L 371.870837 288.434279 
L 379.347312 288.527585 
L 386.823787 288.612349 
L 394.300262 288.688859 
L 401.776737 288.757362 
L 409.253212 288.818057 
L 416.729686 288.871096 
L 424.206161 288.916578 
L 431.682636 288.954545 
L 431.682636 278.174463 
L 431.682636 278.174463 
L 424.206161 278.346683 
L 416.729686 278.506735 
L 409.253212 278.655875 
L 401.776737 278.795351 
L 394.300262 278.926369 
L 386.823787 279.05007 
L 379.347312 279.167514 
L 371.870837 279.27966 
L 364.394362 279.38736 
L 356.917887 279.491352 
L 349.441412 279.592259 
L 341.964937 279.690594 
L 334.488462 279.731703 
L 327.011987 279.631057 
L 319.535512 279.54856 
L 312.059037 279.48394 
L 304.582562 279.436629 
L 297.106087 279.405764 
L 289.629612 279.390207 
L 282.153137 279.388555 
L 274.676662 279.399167 
L 267.200187 279.420183 
L 259.723712 279.449562 
L 252.247237 279.485118 
L 244.770763 279.52457 
L 237.294288 279.565598 
L 229.817813 279.605909 
L 222.341338 279.643313 
L 214.864863 279.675809 
L 207.388388 279.701681 
L 199.911913 279.719609 
L 192.435438 279.728783 
L 184.958963 279.729034 
L 177.482488 279.720973 
L 170.006013 279.706135 
L 162.529538 279.687133 
L 155.053063 279.667803 
L 147.576588 279.653354 
L 140.100113 279.650493 
L 132.623638 279.609207 
L 125.147163 279.303654 
L 117.670688 279.033586 
L 110.194213 278.807816 
L 102.717738 278.636142 
L 95.241263 278.529338 
L 87.764788 278.499121 
L 80.288314 278.55809 
L 72.811839 278.719637 
L 65.335364 278.997835 
z
" clip-path="url(#pe6b4d09ddd)" style="fill: #d62728; fill-opacity: 0.45"/>
   </g>
   <g id="matplotlib.axis_1">
    <g id="xtick_1">
     <g id="line2d_1">
      <defs>
       <path id="m3068187067" d="M 0 0 
L 0 3.5 
" style="stroke: #000000; stroke-width: 0.8"/>
      </defs>
      <g>
       <use xlink:href="#m3068187067" x="61.634886" y="302.2" style="stroke: #000000; stroke-width: 0.8"/>
      </g>
     </g>
     <g id="text_1">
      <!-- 0 -->
      <g transform="translate(58.453636 316.798437) scale(0.1 -0.1)">
       <defs>
        <path id="DejaVuSans-30" d="M 2034 4250 
Q 1547 4250 1301 3770 
Q 1056 3291 1056 2328 
Q 1056 1369 1301 889 
Q 1547 409 2034 409 
Q 2525 409 2770 889 
Q 3016 1369 3016 2328 
Q 3016 3291 2770 3770 
Q 2525 4250 2034 4250 
z
M 2034 4750 
Q 2819 4750 3233 4129 
Q 3647 3509 3647 2328 
Q 3647 1150 3233 529 
Q 2819 -91 2034 -91 
Q 1250 -91 836 529 
Q 422 1150 422 2328 
Q 422 3509 836 4129 
Q 1250 4750 2034 4750 
z
" transform="scale(0.015625)"/>
       </defs>
       <use xlink:href="#DejaVuSans-30"/>
      </g>
     </g>
    </g>
    <g id="xtick_2">
     <g id="line2d_2">
      <g>
       <use xlink:href="#m3068187067" x="135.644436" y="302.2" style="stroke: #000000; stroke-width: 0.8"/>
      </g>
     </g>
     <g id="text_2">
      <!-- 1 -->
      <g transform="translate(132.463186 316.798437) scale(0.1 -0.1)">
       <defs>
        <path id="DejaVuSans-31" d="M 794 531 
L 1825 531 
L 1825 4091 
L 703 3866 
L 703 4441 
L 1819 4666 
L 2450 4666 
L 2450 531 
L 3481 531 
L 3481 0 
L 794 0 
L 794 531 
z
" transform="scale(0.015625)"/>
       </defs>
       <use xlink:href="#DejaVuSans-31"/>
      </g>
     </g>
    </g>
    <g id="xtick_3">
     <g id="line2d_3">
      <g>
       <use xlink:href="#m3068187067" x="209.653986" y="302.2" style="stroke: #000000; stroke-width: 0.8"/>
      </g>
     </g>
     <g id="text_3">
      <!-- 2 -->
      <g transform="translate(206.472736 316.798437) scale(0.1 -0.1)">
       <defs>
        <path id="DejaVuSans-32" d="M 1228 531 
L 3431 531 
L 3431 0 
L 469 0 
L 469 531 
Q 828 903 1448 1529 
Q 2069 2156 2228 2338 
Q 2531 2678 2651 2914 
Q 2772 3150 2772 3378 
Q 2772 3750 2511 3984 
Q 2250 4219 1831 4219 
Q 1534 4219 1204 4116 
Q 875 4013 500 3803 
L 500 4441 
Q 881 4594 1212 4672 
Q 1544 4750 1819 4750 
Q 2544 4750 2975 4387 
Q 3406 4025 3406 3419 
Q 3406 3131 3298 2873 
Q 3191 2616 2906 2266 
Q 2828 2175 2409 1742 
Q 1991 1309 1228 531 
z
" transform="scale(0.015625)"/>
       </defs>
       <use xlink:href="#DejaVuSans-32"/>
      </g>
     </g>
    </g>
    <g id="xtick_4">
     <g id="line2d_4">
      <g>
       <use xlink:href="#m3068187067" x="283.663536" y="302.2" style="stroke: #000000; stroke-width: 0.8"/>
      </g>
     </g>
     <g id="text_4">
      <!-- 3 -->
      <g transform="translate(280.482286 316.798437) scale(0.1 -0.1)">
       <defs>
        <path id="DejaVuSans-33" d="M 2597 2516 
Q 3050 2419 3304 2112 
Q 3559 1806 3559 1356 
Q 3559 666 3084 287 
Q 2609 -91 1734 -91 
Q 1441 -91 1130 -33 
Q 819 25 488 141 
L 488 750 
Q 750 597 1062 519 
Q 1375 441 1716 441 
Q 2309 441 2620 675 
Q 2931 909 2931 1356 
Q 2931 1769 2642 2001 
Q 2353 2234 1838 2234 
L 1294 2234 
L 1294 2753 
L 1863 2753 
Q 2328 2753 2575 2939 
Q 2822 3125 2822 3475 
Q 2822 3834 2567 4026 
Q 2313 4219 1838 4219 
Q 1578 4219 1281 4162 
Q 984 4106 628 3988 
L 628 4550 
Q 988 4650 1302 4700 
Q 1616 4750 1894 4750 
Q 2613 4750 3031 4423 
Q 3450 4097 3450 3541 
Q 3450 3153 3228 2886 
Q 3006 2619 2597 2516 
z
" transform="scale(0.015625)"/>
       </defs>
       <use xlink:href="#DejaVuSans-33"/>
      </g>
     </g>
    </g>
    <g id="xtick_5">
     <g id="line2d_5">
      <g>
       <use xlink:href="#m3068187067" x="357.673086" y="302.2" style="stroke: #000000; stroke-width: 0.8"/>
      </g>
     </g>
     <g id="text_5">
      <!-- 4 -->
      <g transform="translate(354.491836 316.798437) scale(0.1 -0.1)">
       <defs>
        <path id="DejaVuSans-34" d="M 2419 4116 
L 825 1625 
L 2419 1625 
L 2419 4116 
z
M 2253 4666 
L 3047 4666 
L 3047 1625 
L 3713 1625 
L 3713 1100 
L 3047 1100 
L 3047 0 
L 2419 0 
L 2419 1100 
L 313 1100 
L 313 1709 
L 2253 4666 
z
" transform="scale(0.015625)"/>
       </defs>
       <use xlink:href="#DejaVuSans-34"/>
      </g>
     </g>
    </g>
    <g id="xtick_6">
     <g id="line2d_6">
      <g>
       <use xlink:href="#m3068187067" x="431.682636" y="302.2" style="stroke: #000000; stroke-width: 0.8"/>
      </g>
     </g>
     <g id="text_6">
      <!-- 5 -->
      <g transform="translate(428.501386 316.798437) scale(0.1 -0.1)">
       <defs>
        <path id="DejaVuSans-35" d="M 691 4666 
L 3169 4666 
L 3169 4134 
L 1269 4134 
L 1269 2991 
Q 1406 3038 1543 3061 
Q 1681 3084 1819 3084 
Q 2600 3084 3056 2656 
Q 3513 2228 3513 1497 
Q 3513 744 3044 326 
Q 2575 -91 1722 -91 
Q 1428 -91 1123 -41 
Q 819 9 494 109 
L 494 744 
Q 775 591 1075 516 
Q 1375 441 1709 441 
Q 2250 441 2565 725 
Q 2881 1009 2881 1497 
Q 2881 1984 2565 2268 
Q 2250 2553 1709 2553 
Q 1456 2553 1204 2497 
Q 953 2441 691 2322 
L 691 4666 
z
" transform="scale(0.015625)"/>
       </defs>
       <use xlink:href="#DejaVuSans-35"/>
      </g>
     </g>
    </g>
    <g id="text_7">
     <!-- $W$ (m/hour) -->
     <g transform="translate(220.059 330.476562) scale(0.1 -0.1)">
      <defs>
       <path id="DejaVuSans-Oblique-57" d="M 616 4666 
L 1228 4666 
L 1453 697 
L 3213 4666 
L 3916 4666 
L 4147 697 
L 5888 4666 
L 6528 4666 
L 4453 0 
L 3659 0 
L 3444 3891 
L 1697 0 
L 903 0 
L 616 4666 
z
" transform="scale(0.015625)"/>
       <path id="DejaVuSans-20" transform="scale(0.015625)"/>
       <path id="DejaVuSans-28" d="M 1984 4856 
Q 1566 4138 1362 3434 
Q 1159 2731 1159 2009 
Q 1159 1288 1364 580 
Q 1569 -128 1984 -844 
L 1484 -844 
Q 1016 -109 783 600 
Q 550 1309 550 2009 
Q 550 2706 781 3412 
Q 1013 4119 1484 4856 
L 1984 4856 
z
" transform="scale(0.015625)"/>
       <path id="DejaVuSans-6d" d="M 3328 2828 
Q 3544 3216 3844 3400 
Q 4144 3584 4550 3584 
Q 5097 3584 5394 3201 
Q 5691 2819 5691 2113 
L 5691 0 
L 5113 0 
L 5113 2094 
Q 5113 2597 4934 2840 
Q 4756 3084 4391 3084 
Q 3944 3084 3684 2787 
Q 3425 2491 3425 1978 
L 3425 0 
L 2847 0 
L 2847 2094 
Q 2847 2600 2669 2842 
Q 2491 3084 2119 3084 
Q 1678 3084 1418 2786 
Q 1159 2488 1159 1978 
L 1159 0 
L 581 0 
L 581 3500 
L 1159 3500 
L 1159 2956 
Q 1356 3278 1631 3431 
Q 1906 3584 2284 3584 
Q 2666 3584 2933 3390 
Q 3200 3197 3328 2828 
z
" transform="scale(0.015625)"/>
       <path id="DejaVuSans-2f" d="M 1625 4666 
L 2156 4666 
L 531 -594 
L 0 -594 
L 1625 4666 
z
" transform="scale(0.015625)"/>
       <path id="DejaVuSans-68" d="M 3513 2113 
L 3513 0 
L 2938 0 
L 2938 2094 
Q 2938 2591 2744 2837 
Q 2550 3084 2163 3084 
Q 1697 3084 1428 2787 
Q 1159 2491 1159 1978 
L 1159 0 
L 581 0 
L 581 4863 
L 1159 4863 
L 1159 2956 
Q 1366 3272 1645 3428 
Q 1925 3584 2291 3584 
Q 2894 3584 3203 3211 
Q 3513 2838 3513 2113 
z
" transform="scale(0.015625)"/>
       <path id="DejaVuSans-6f" d="M 1959 3097 
Q 1497 3097 1228 2736 
Q 959 2375 959 1747 
Q 959 1119 1226 758 
Q 1494 397 1959 397 
Q 2419 397 2687 759 
Q 2956 1122 2956 1747 
Q 2956 2369 2687 2733 
Q 2419 3097 1959 3097 
z
M 1959 3584 
Q 2709 3584 3137 3096 
Q 3566 2609 3566 1747 
Q 3566 888 3137 398 
Q 2709 -91 1959 -91 
Q 1206 -91 779 398 
Q 353 888 353 1747 
Q 353 2609 779 3096 
Q 1206 3584 1959 3584 
z
" transform="scale(0.015625)"/>
       <path id="DejaVuSans-75" d="M 544 1381 
L 544 3500 
L 1119 3500 
L 1119 1403 
Q 1119 906 1312 657 
Q 1506 409 1894 409 
Q 2359 409 2629 706 
Q 2900 1003 2900 1516 
L 2900 3500 
L 3475 3500 
L 3475 0 
L 2900 0 
L 2900 538 
Q 2691 219 2414 64 
Q 2138 -91 1772 -91 
Q 1169 -91 856 284 
Q 544 659 544 1381 
z
M 1991 3584 
L 1991 3584 
z
" transform="scale(0.015625)"/>
       <path id="DejaVuSans-72" d="M 2631 2963 
Q 2534 3019 2420 3045 
Q 2306 3072 2169 3072 
Q 1681 3072 1420 2755 
Q 1159 2438 1159 1844 
L 1159 0 
L 581 0 
L 581 3500 
L 1159 3500 
L 1159 2956 
Q 1341 3275 1631 3429 
Q 1922 3584 2338 3584 
Q 2397 3584 2469 3576 
Q 2541 3569 2628 3553 
L 2631 2963 
z
" transform="scale(0.015625)"/>
       <path id="DejaVuSans-29" d="M 513 4856 
L 1013 4856 
Q 1481 4119 1714 3412 
Q 1947 2706 1947 2009 
Q 1947 1309 1714 600 
Q 1481 -109 1013 -844 
L 513 -844 
Q 928 -128 1133 580 
Q 1338 1288 1338 2009 
Q 1338 2731 1133 3434 
Q 928 4138 513 4856 
z
" transform="scale(0.015625)"/>
      </defs>
      <use xlink:href="#DejaVuSans-Oblique-57" transform="translate(0 0.015625)"/>
      <use xlink:href="#DejaVuSans-20" transform="translate(98.876953 0.015625)"/>
      <use xlink:href="#DejaVuSans-28" transform="translate(130.664062 0.015625)"/>
      <use xlink:href="#DejaVuSans-6d" transform="translate(169.677734 0.015625)"/>
      <use xlink:href="#DejaVuSans-2f" transform="translate(267.089844 0.015625)"/>
      <use xlink:href="#DejaVuSans-68" transform="translate(300.78125 0.015625)"/>
      <use xlink:href="#DejaVuSans-6f" transform="translate(364.160156 0.015625)"/>
      <use xlink:href="#DejaVuSans-75" transform="translate(425.341797 0.015625)"/>
      <use xlink:href="#DejaVuSans-72" transform="translate(488.720703 0.015625)"/>
      <use xlink:href="#DejaVuSans-29" transform="translate(529.833984 0.015625)"/>
     </g>
    </g>
   </g>
   <g id="matplotlib.axis_2">
    <g id="ytick_1">
     <g id="line2d_7">
      <defs>
       <path id="me10d25a050" d="M 0 0 
L -3.5 0 
" style="stroke: #000000; stroke-width: 0.8"/>
      </defs>
      <g>
       <use xlink:href="#me10d25a050" x="47.018" y="285.816835" style="stroke: #000000; stroke-width: 0.8"/>
      </g>
     </g>
     <g id="text_8">
      <!-- 0 -->
      <g transform="translate(33.6555 289.616054) scale(0.1 -0.1)">
       <use xlink:href="#DejaVuSans-30"/>
      </g>
     </g>
    </g>
    <g id="ytick_2">
     <g id="line2d_8">
      <g>
       <use xlink:href="#me10d25a050" x="47.018" y="250.023845" style="stroke: #000000; stroke-width: 0.8"/>
      </g>
     </g>
     <g id="text_9">
      <!-- 5 -->
      <g transform="translate(33.6555 253.823063) scale(0.1 -0.1)">
       <use xlink:href="#DejaVuSans-35"/>
      </g>
     </g>
    </g>
    <g id="ytick_3">
     <g id="line2d_9">
      <g>
       <use xlink:href="#me10d25a050" x="47.018" y="214.230854" style="stroke: #000000; stroke-width: 0.8"/>
      </g>
     </g>
     <g id="text_10">
      <!-- 10 -->
      <g transform="translate(27.293 218.030073) scale(0.1 -0.1)">
       <use xlink:href="#DejaVuSans-31"/>
       <use xlink:href="#DejaVuSans-30" transform="translate(63.623047 0)"/>
      </g>
     </g>
    </g>
    <g id="ytick_4">
     <g id="line2d_10">
      <g>
       <use xlink:href="#me10d25a050" x="47.018" y="178.437864" style="stroke: #000000; stroke-width: 0.8"/>
      </g>
     </g>
     <g id="text_11">
      <!-- 15 -->
      <g transform="translate(27.293 182.237083) scale(0.1 -0.1)">
       <use xlink:href="#DejaVuSans-31"/>
       <use xlink:href="#DejaVuSans-35" transform="translate(63.623047 0)"/>
      </g>
     </g>
    </g>
    <g id="ytick_5">
     <g id="line2d_11">
      <g>
       <use xlink:href="#me10d25a050" x="47.018" y="142.644873" style="stroke: #000000; stroke-width: 0.8"/>
      </g>
     </g>
     <g id="text_12">
      <!-- 20 -->
      <g transform="translate(27.293 146.444092) scale(0.1 -0.1)">
       <use xlink:href="#DejaVuSans-32"/>
       <use xlink:href="#DejaVuSans-30" transform="translate(63.623047 0)"/>
      </g>
     </g>
    </g>
    <g id="ytick_6">
     <g id="line2d_12">
      <g>
       <use xlink:href="#me10d25a050" x="47.018" y="106.851883" style="stroke: #000000; stroke-width: 0.8"/>
      </g>
     </g>
     <g id="text_13">
      <!-- 25 -->
      <g transform="translate(27.293 110.651102) scale(0.1 -0.1)">
       <use xlink:href="#DejaVuSans-32"/>
       <use xlink:href="#DejaVuSans-35" transform="translate(63.623047 0)"/>
      </g>
     </g>
    </g>
    <g id="ytick_7">
     <g id="line2d_13">
      <g>
       <use xlink:href="#me10d25a050" x="47.018" y="71.058892" style="stroke: #000000; stroke-width: 0.8"/>
      </g>
     </g>
     <g id="text_14">
      <!-- 30 -->
      <g transform="translate(27.293 74.858111) scale(0.1 -0.1)">
       <use xlink:href="#DejaVuSans-33"/>
       <use xlink:href="#DejaVuSans-30" transform="translate(63.623047 0)"/>
      </g>
     </g>
    </g>
    <g id="ytick_8">
     <g id="line2d_14">
      <g>
       <use xlink:href="#me10d25a050" x="47.018" y="35.265902" style="stroke: #000000; stroke-width: 0.8"/>
      </g>
     </g>
     <g id="text_15">
      <!-- 35 -->
      <g transform="translate(27.293 39.065121) scale(0.1 -0.1)">
       <use xlink:href="#DejaVuSans-33"/>
       <use xlink:href="#DejaVuSans-35" transform="translate(63.623047 0)"/>
      </g>
     </g>
    </g>
    <g id="text_16">
     <!-- $Q_{lc}$ (kW) -->
     <g transform="translate(21.213312 176.8) rotate(-90) scale(0.1 -0.1)">
      <defs>
       <path id="DejaVuSans-Oblique-51" d="M 2309 -84 
Q 2275 -88 2237 -89 
Q 2200 -91 2125 -91 
Q 1250 -91 756 411 
Q 263 913 263 1797 
Q 263 2319 452 2844 
Q 641 3369 978 3788 
Q 1369 4269 1858 4509 
Q 2347 4750 2938 4750 
Q 3794 4750 4287 4245 
Q 4781 3741 4781 2869 
Q 4781 1928 4265 1147 
Q 3750 366 2919 44 
L 3553 -825 
L 2847 -825 
L 2309 -84 
z
M 2919 4238 
Q 2400 4238 2003 3986 
Q 1606 3734 1313 3219 
Q 1125 2891 1026 2522 
Q 928 2153 928 1778 
Q 928 1128 1239 775 
Q 1550 422 2119 422 
Q 2631 422 3032 676 
Q 3434 931 3719 1434 
Q 3909 1772 4009 2142 
Q 4109 2513 4109 2881 
Q 4109 3528 3796 3883 
Q 3484 4238 2919 4238 
z
" transform="scale(0.015625)"/>
       <path id="DejaVuSans-Oblique-6c" d="M 1172 4863 
L 1747 4863 
L 800 0 
L 225 0 
L 1172 4863 
z
" transform="scale(0.015625)"/>
       <path id="DejaVuSans-Oblique-63" d="M 3431 3366 
L 3316 2797 
Q 3109 2947 2876 3022 
Q 2644 3097 2394 3097 
Q 2119 3097 1870 3000 
Q 1622 2903 1453 2725 
Q 1184 2453 1037 2087 
Q 891 1722 891 1331 
Q 891 859 1127 628 
Q 1363 397 1844 397 
Q 2081 397 2348 469 
Q 2616 541 2906 684 
L 2797 116 
Q 2547 13 2283 -39 
Q 2019 -91 1741 -91 
Q 1044 -91 669 257 
Q 294 606 294 1253 
Q 294 1797 489 2255 
Q 684 2713 1069 3078 
Q 1331 3328 1684 3456 
Q 2038 3584 2456 3584 
Q 2700 3584 2940 3529 
Q 3181 3475 3431 3366 
z
" transform="scale(0.015625)"/>
       <path id="DejaVuSans-6b" d="M 581 4863 
L 1159 4863 
L 1159 1991 
L 2875 3500 
L 3609 3500 
L 1753 1863 
L 3688 0 
L 2938 0 
L 1159 1709 
L 1159 0 
L 581 0 
L 581 4863 
z
" transform="scale(0.015625)"/>
       <path id="DejaVuSans-57" d="M 213 4666 
L 850 4666 
L 1831 722 
L 2809 4666 
L 3519 4666 
L 4500 722 
L 5478 4666 
L 6119 4666 
L 4947 0 
L 4153 0 
L 3169 4050 
L 2175 0 
L 1381 0 
L 213 4666 
z
" transform="scale(0.015625)"/>
      </defs>
      <use xlink:href="#DejaVuSans-Oblique-51" transform="translate(0 0.015625)"/>
      <use xlink:href="#DejaVuSans-Oblique-6c" transform="translate(78.710938 -16.390625) scale(0.7)"/>
      <use xlink:href="#DejaVuSans-Oblique-63" transform="translate(98.15918 -16.390625) scale(0.7)"/>
      <use xlink:href="#DejaVuSans-20" transform="translate(139.379883 0.015625)"/>
      <use xlink:href="#DejaVuSans-28" transform="translate(171.166992 0.015625)"/>
      <use xlink:href="#DejaVuSans-6b" transform="translate(210.180664 0.015625)"/>
      <use xlink:href="#DejaVuSans-57" transform="translate(268.09082 0.015625)"/>
      <use xlink:href="#DejaVuSans-29" transform="translate(366.967773 0.015625)"/>
     </g>
    </g>
   </g>
   <g id="line2d_15">
    <path d="M 65.335364 212.904607 
L 72.811839 201.060932 
L 80.288314 190.864144 
L 87.764788 180.026441 
L 95.241263 170.423073 
L 102.717738 161.950774 
L 110.194213 154.34609 
L 117.670688 147.617873 
L 125.147163 141.575182 
L 132.623638 136.142515 
L 140.100113 131.138565 
L 147.576588 126.484654 
L 155.053063 122.089563 
L 162.529538 117.906336 
L 170.006013 113.907649 
L 177.482488 110.077905 
L 184.958963 106.436707 
L 192.435438 102.99072 
L 199.911913 99.662107 
L 207.388388 96.435885 
L 214.864863 93.317056 
L 222.341338 90.296375 
L 229.817813 87.36615 
L 237.294288 84.520011 
L 244.770763 81.75271 
L 252.247237 79.056929 
L 259.723712 76.378102 
L 267.200187 73.762041 
L 274.676662 71.150855 
L 282.153137 68.593211 
L 289.629612 66.122097 
L 297.106087 63.732144 
L 304.582562 61.448689 
L 312.059037 59.228308 
L 319.535512 57.057186 
L 327.011987 54.934122 
L 334.488462 52.85803 
L 341.964937 50.827852 
L 349.441412 48.842505 
L 356.917887 46.788977 
L 364.394362 44.768658 
L 371.870837 42.756342 
L 379.347312 40.852006 
L 386.823787 39.079789 
L 394.300262 37.354356 
L 401.776737 35.676035 
L 409.253212 34.048578 
L 416.729686 32.445154 
L 424.206161 30.901167 
L 431.682636 29.425675 
" clip-path="url(#pe6b4d09ddd)" style="fill: none; stroke: #1f77b4; stroke-width: 1.5; stroke-linecap: square"/>
   </g>
   <g id="line2d_16">
    <path d="M 65.335364 256.345429 
L 72.811839 249.76383 
L 80.288314 243.830852 
L 87.764788 238.546587 
L 95.241263 233.892083 
L 102.717738 229.704118 
L 110.194213 226.003142 
L 117.670688 222.73649 
L 125.147163 219.799974 
L 132.623638 217.066003 
L 140.100113 214.522219 
L 147.576588 212.136983 
L 155.053063 209.906516 
L 162.529538 207.803763 
L 170.006013 205.820781 
L 177.482488 203.932536 
L 184.958963 202.131266 
L 192.435438 200.39654 
L 199.911913 199.250908 
L 207.388388 197.638293 
L 214.864863 196.073561 
L 222.341338 194.55755 
L 229.817813 193.080696 
L 237.294288 191.639961 
L 244.770763 190.233244 
L 252.247237 188.858974 
L 259.723712 187.515805 
L 267.200187 186.206375 
L 274.676662 184.928464 
L 282.153137 183.679339 
L 289.629612 182.45782 
L 297.106087 181.262789 
L 304.582562 180.093225 
L 312.059037 178.948223 
L 319.535512 177.826987 
L 327.011987 176.728811 
L 334.488462 175.653033 
L 341.964937 174.581907 
L 349.441412 173.505095 
L 356.917887 172.418573 
L 364.394362 171.412637 
L 371.870837 170.434995 
L 379.347312 169.47538 
L 386.823787 168.533289 
L 394.300262 167.60843 
L 401.776737 166.700765 
L 409.253212 165.810516 
L 416.729686 164.938135 
L 424.206161 164.084242 
L 431.682636 163.24954 
" clip-path="url(#pe6b4d09ddd)" style="fill: none; stroke: #ff7f0e; stroke-width: 1.5; stroke-linecap: square"/>
   </g>
   <g id="line2d_17">
    <path d="M 65.335364 279.282406 
L 72.811839 277.134609 
L 80.288314 275.258745 
L 87.764788 273.60199 
L 95.241263 272.138404 
L 102.717738 270.868624 
L 110.194213 269.727456 
L 117.670688 268.710505 
L 125.147163 267.796062 
L 132.623638 266.964953 
L 140.100113 266.200958 
L 147.576588 265.495214 
L 155.053063 264.83098 
L 162.529538 264.199774 
L 170.006013 263.595262 
L 177.482488 263.012839 
L 184.958963 262.449223 
L 192.435438 261.902078 
L 199.911913 261.369723 
L 207.388388 260.850907 
L 214.864863 260.344672 
L 222.341338 259.850258 
L 229.817813 259.367055 
L 237.294288 258.894569 
L 244.770763 258.432396 
L 252.247237 257.987435 
L 259.723712 257.566967 
L 267.200187 257.163474 
L 274.676662 256.767485 
L 282.153137 256.378508 
L 289.629612 255.996078 
L 297.106087 255.619792 
L 304.582562 255.249314 
L 312.059037 254.876699 
L 319.535512 254.510045 
L 327.011987 254.149355 
L 334.488462 253.794326 
L 341.964937 253.444635 
L 349.441412 253.099944 
L 356.917887 252.7599 
L 364.394362 252.424134 
L 371.870837 252.09223 
L 379.347312 251.763685 
L 386.823787 251.437857 
L 394.300262 251.113902 
L 401.776737 250.790733 
L 409.253212 250.467008 
L 416.729686 250.141142 
L 424.206161 249.808619 
L 431.682636 249.466468 
" clip-path="url(#pe6b4d09ddd)" style="fill: none; stroke: #2ca02c; stroke-width: 1.5; stroke-linecap: square"/>
   </g>
   <g id="line2d_18">
    <path d="M 65.335364 284.818565 
L 72.811839 283.965115 
L 80.288314 283.289604 
L 87.764788 282.759355 
L 95.241263 282.353045 
L 102.717738 282.050407 
L 110.194213 281.832732 
L 117.670688 281.760456 
L 125.147163 281.643082 
L 132.623638 281.526958 
L 140.100113 281.442341 
L 147.576588 281.449958 
L 155.053063 281.503059 
L 162.529538 281.561536 
L 170.006013 281.635 
L 177.482488 281.819026 
L 184.958963 282.077619 
L 192.435438 282.067277 
L 199.911913 282.050898 
L 207.388388 282.028094 
L 214.864863 282.041233 
L 222.341338 282.058215 
L 229.817813 282.063039 
L 237.294288 282.085146 
L 244.770763 282.078189 
L 252.247237 282.071101 
L 259.723712 282.022876 
L 267.200187 281.96329 
L 274.676662 281.900704 
L 282.153137 281.835534 
L 289.629612 281.76813 
L 297.106087 281.698776 
L 304.582562 281.627685 
L 312.059037 281.554996 
L 319.535512 281.480773 
L 327.011987 281.404998 
L 334.488462 281.327568 
L 341.964937 281.248287 
L 349.441412 281.166859 
L 356.917887 281.08288 
L 364.394362 280.995833 
L 371.870837 280.905079 
L 379.347312 280.80985 
L 386.823787 280.902233 
L 394.300262 281.068076 
L 401.776737 281.125708 
L 409.253212 281.158138 
L 416.729686 281.057707 
L 424.206161 280.947157 
L 431.682636 280.825155 
" clip-path="url(#pe6b4d09ddd)" style="fill: none; stroke: #d62728; stroke-width: 1.5; stroke-linecap: square"/>
   </g>
   <g id="patch_3">
    <path d="M 47.018 302.2 
L 47.018 10.8 
" style="fill: none; stroke: #000000; stroke-width: 0.8; stroke-linejoin: miter; stroke-linecap: square"/>
   </g>
   <g id="patch_4">
    <path d="M 450 302.2 
L 450 10.8 
" style="fill: none; stroke: #000000; stroke-width: 0.8; stroke-linejoin: miter; stroke-linecap: square"/>
   </g>
   <g id="patch_5">
    <path d="M 47.018 302.2 
L 450 302.2 
" style="fill: none; stroke: #000000; stroke-width: 0.8; stroke-linejoin: miter; stroke-linecap: square"/>
   </g>
   <g id="patch_6">
    <path d="M 47.018 10.8 
L 450 10.8 
" style="fill: none; stroke: #000000; stroke-width: 0.8; stroke-linejoin: miter; stroke-linecap: square"/>
   </g>
   <g id="legend_1">
    <g id="patch_7">
     <path d="M 54.018 77.5125 
L 132.888313 77.5125 
Q 134.888313 77.5125 134.888313 75.5125 
L 134.888313 17.8 
Q 134.888313 15.8 132.888313 15.8 
L 54.018 15.8 
Q 52.018 15.8 52.018 17.8 
L 52.018 75.5125 
Q 52.018 77.5125 54.018 77.5125 
z
" style="fill: #ffffff; opacity: 0.8; stroke: #cccccc; stroke-linejoin: miter"/>
    </g>
    <g id="line2d_19">
     <path d="M 56.018 23.898438 
L 66.018 23.898438 
L 76.018 23.898438 
" style="fill: none; stroke: #1f77b4; stroke-width: 1.5; stroke-linecap: square"/>
    </g>
    <g id="text_17">
     <!-- Ts=100 K -->
     <g transform="translate(84.018 27.398438) scale(0.1 -0.1)">
      <defs>
       <path id="DejaVuSans-54" d="M -19 4666 
L 3928 4666 
L 3928 4134 
L 2272 4134 
L 2272 0 
L 1638 0 
L 1638 4134 
L -19 4134 
L -19 4666 
z
" transform="scale(0.015625)"/>
       <path id="DejaVuSans-73" d="M 2834 3397 
L 2834 2853 
Q 2591 2978 2328 3040 
Q 2066 3103 1784 3103 
Q 1356 3103 1142 2972 
Q 928 2841 928 2578 
Q 928 2378 1081 2264 
Q 1234 2150 1697 2047 
L 1894 2003 
Q 2506 1872 2764 1633 
Q 3022 1394 3022 966 
Q 3022 478 2636 193 
Q 2250 -91 1575 -91 
Q 1294 -91 989 -36 
Q 684 19 347 128 
L 347 722 
Q 666 556 975 473 
Q 1284 391 1588 391 
Q 1994 391 2212 530 
Q 2431 669 2431 922 
Q 2431 1156 2273 1281 
Q 2116 1406 1581 1522 
L 1381 1569 
Q 847 1681 609 1914 
Q 372 2147 372 2553 
Q 372 3047 722 3315 
Q 1072 3584 1716 3584 
Q 2034 3584 2315 3537 
Q 2597 3491 2834 3397 
z
" transform="scale(0.015625)"/>
       <path id="DejaVuSans-3d" d="M 678 2906 
L 4684 2906 
L 4684 2381 
L 678 2381 
L 678 2906 
z
M 678 1631 
L 4684 1631 
L 4684 1100 
L 678 1100 
L 678 1631 
z
" transform="scale(0.015625)"/>
       <path id="DejaVuSans-4b" d="M 628 4666 
L 1259 4666 
L 1259 2694 
L 3353 4666 
L 4166 4666 
L 1850 2491 
L 4331 0 
L 3500 0 
L 1259 2247 
L 1259 0 
L 628 0 
L 628 4666 
z
" transform="scale(0.015625)"/>
      </defs>
      <use xlink:href="#DejaVuSans-54"/>
      <use xlink:href="#DejaVuSans-73" transform="translate(44.583984 0)"/>
      <use xlink:href="#DejaVuSans-3d" transform="translate(96.683594 0)"/>
      <use xlink:href="#DejaVuSans-31" transform="translate(180.472656 0)"/>
      <use xlink:href="#DejaVuSans-30" transform="translate(244.095703 0)"/>
      <use xlink:href="#DejaVuSans-30" transform="translate(307.71875 0)"/>
      <use xlink:href="#DejaVuSans-20" transform="translate(371.341797 0)"/>
      <use xlink:href="#DejaVuSans-4b" transform="translate(403.128906 0)"/>
     </g>
    </g>
    <g id="line2d_20">
     <path d="M 56.018 38.576563 
L 66.018 38.576563 
L 76.018 38.576563 
" style="fill: none; stroke: #ff7f0e; stroke-width: 1.5; stroke-linecap: square"/>
    </g>
    <g id="text_18">
     <!-- Ts=160 K -->
     <g transform="translate(84.018 42.076563) scale(0.1 -0.1)">
      <defs>
       <path id="DejaVuSans-36" d="M 2113 2584 
Q 1688 2584 1439 2293 
Q 1191 2003 1191 1497 
Q 1191 994 1439 701 
Q 1688 409 2113 409 
Q 2538 409 2786 701 
Q 3034 994 3034 1497 
Q 3034 2003 2786 2293 
Q 2538 2584 2113 2584 
z
M 3366 4563 
L 3366 3988 
Q 3128 4100 2886 4159 
Q 2644 4219 2406 4219 
Q 1781 4219 1451 3797 
Q 1122 3375 1075 2522 
Q 1259 2794 1537 2939 
Q 1816 3084 2150 3084 
Q 2853 3084 3261 2657 
Q 3669 2231 3669 1497 
Q 3669 778 3244 343 
Q 2819 -91 2113 -91 
Q 1303 -91 875 529 
Q 447 1150 447 2328 
Q 447 3434 972 4092 
Q 1497 4750 2381 4750 
Q 2619 4750 2861 4703 
Q 3103 4656 3366 4563 
z
" transform="scale(0.015625)"/>
      </defs>
      <use xlink:href="#DejaVuSans-54"/>
      <use xlink:href="#DejaVuSans-73" transform="translate(44.583984 0)"/>
      <use xlink:href="#DejaVuSans-3d" transform="translate(96.683594 0)"/>
      <use xlink:href="#DejaVuSans-31" transform="translate(180.472656 0)"/>
      <use xlink:href="#DejaVuSans-36" transform="translate(244.095703 0)"/>
      <use xlink:href="#DejaVuSans-30" transform="translate(307.71875 0)"/>
      <use xlink:href="#DejaVuSans-20" transform="translate(371.341797 0)"/>
      <use xlink:href="#DejaVuSans-4b" transform="translate(403.128906 0)"/>
     </g>
    </g>
    <g id="line2d_21">
     <path d="M 56.018 53.254687 
L 66.018 53.254687 
L 76.018 53.254687 
" style="fill: none; stroke: #2ca02c; stroke-width: 1.5; stroke-linecap: square"/>
    </g>
    <g id="text_19">
     <!-- Ts=220 K -->
     <g transform="translate(84.018 56.754687) scale(0.1 -0.1)">
      <use xlink:href="#DejaVuSans-54"/>
      <use xlink:href="#DejaVuSans-73" transform="translate(44.583984 0)"/>
      <use xlink:href="#DejaVuSans-3d" transform="translate(96.683594 0)"/>
      <use xlink:href="#DejaVuSans-32" transform="translate(180.472656 0)"/>
      <use xlink:href="#DejaVuSans-32" transform="translate(244.095703 0)"/>
      <use xlink:href="#DejaVuSans-30" transform="translate(307.71875 0)"/>
      <use xlink:href="#DejaVuSans-20" transform="translate(371.341797 0)"/>
      <use xlink:href="#DejaVuSans-4b" transform="translate(403.128906 0)"/>
     </g>
    </g>
    <g id="line2d_22">
     <path d="M 56.018 67.932813 
L 66.018 67.932813 
L 76.018 67.932813 
" style="fill: none; stroke: #d62728; stroke-width: 1.5; stroke-linecap: square"/>
    </g>
    <g id="text_20">
     <!-- Ts=260 K -->
     <g transform="translate(84.018 71.432813) scale(0.1 -0.1)">
      <use xlink:href="#DejaVuSans-54"/>
      <use xlink:href="#DejaVuSans-73" transform="translate(44.583984 0)"/>
      <use xlink:href="#DejaVuSans-3d" transform="translate(96.683594 0)"/>
      <use xlink:href="#DejaVuSans-32" transform="translate(180.472656 0)"/>
      <use xlink:href="#DejaVuSans-36" transform="translate(244.095703 0)"/>
      <use xlink:href="#DejaVuSans-30" transform="translate(307.71875 0)"/>
      <use xlink:href="#DejaVuSans-20" transform="translate(371.341797 0)"/>
      <use xlink:href="#DejaVuSans-4b" transform="translate(403.128906 0)"/>
     </g>
    </g>
   </g>
  </g>
 </g>
 <defs>
  <clipPath id="pe6b4d09ddd">
   <rect x="47.018" y="10.8" width="402.982" height="291.4"/>
  </clipPath>
 </defs>
</svg>
