<?xml version="1.0" encoding="utf-8" standalone="no"?>
<!DOCTYPE svg PUBLIC "-//W3C//DTD SVG 1.1//EN"
  "http://www.w3.org/Graphics/SVG/1.1/DTD/svg11.dtd">
<svg xmlns:xlink="http://www.w3.org/1999/xlink" width="460.8pt" height="345.6pt" viewBox="0 0 460.8 345.6" xmlns="http://www.w3.org/2000/svg" version="1.1">
 <metadata>
  <rdf:RDF xmlns:dc="http://purl.org/dc/elements/1.1/" xmlns:cc="http://creativecommons.org/ns#" xmlns:rdf="http://www.w3.org/1999/02/22-rdf-syntax-ns#">
   <cc:Work>
    <dc:type rdf:resource="http://purl.org/dc/dcmitype/StillImage"/>
    <dc:date>2026-02-12T01:19:50.754565</dc:date>
    <dc:format>image/svg+xml</dc:format>
    <dc:creator>
     <cc:Agent>
      <dc:title>Matplotlib v3.10.8, https://matplotlib.org/</dc:title>
     </cc:Agent>
    </dc:creator>
   </cc:Work>
  </rdf:RDF>
 </metadata>
 <defs>
  <style type="text/css">*{stroke-linejoin: round; stroke-linecap: butt}</style>
 </defs>
 <g id="figure_1">
  <g id="patch_1">
   <path d="M 0 345.6 
L 460.8 345.6 
L 460.8 0 
L 0 0 
L 0 345.6 
z
" style="fill: none"/>
  </g>
  <g id="axes_1">
   <g id="patch_2">
    <path d="M 47.018 302.2 
L 450 302.2 
L 450 10.8 
L 47.018 10.8 
L 47.018 302.2 
z
" style="fill: none"/>
   </g>
   <g id="FillBetweenPolyCollection_1">
    <path d="M 65.335364 179.885085 
L 65.335364 252.892305 
L 72.811839 249.659515 
L 80.288314 246.818713 
L 87.764788 244.867883 
L 95.241263 241.060293 
L 102.717738 239.527209 
L 110.194213 240.379558 
L 117.670688 237.252371 
L 125.147163 238.446304 
L 132.623638 236.216676 
L 140.100113 236.290937 
L 147.576588 233.561729 
L 155.053063 233.130352 
L 162.529538 232.531802 
L 170.006013 231.396739 
L 177.482488 228.514557 
L 184.958963 231.24837 
L 192.435438 227.980518 
L 199.911913 229.156847 
L 207.388388 223.963727 
L 214.864863 227.015244 
L 222.341338 227.310304 
L 229.817813 225.995351 
L 237.294288 225.680467 
L 244.770763 225.524883 
L 252.247237 226.499322 
L 259.723712 223.788001 
L 267.200187 223.954155 
L 274.676662 224.743228 
L 282.153137 224.349259 
L 289.629612 222.489895 
L 297.106087 225.441799 
L 304.582562 223.140522 
L 312.059037 223.612553 
L 319.535512 224.62478 
L 327.011987 221.700457 
L 334.488462 224.052362 
L 341.964937 222.393622 
L 349.441412 223.303676 
L 356.917887 222.515577 
L 364.394362 221.484419 
L 371.870837 221.106637 
L 379.347312 222.296541 
L 386.823787 222.200305 
L 394.300262 224.009025 
L 401.776737 221.415297 
L 409.253212 220.826149 
L 416.729686 220.707594 
L 424.206161 222.295013 
L 431.682636 222.104204 
L 431.682636 24.045455 
L 431.682636 24.045455 
L 424.206161 28.076914 
L 416.729686 30.34844 
L 409.253212 31.943937 
L 401.776737 29.941906 
L 394.300262 33.129973 
L 386.823787 34.313726 
L 379.347312 38.823001 
L 371.870837 40.378445 
L 364.394362 40.070839 
L 356.917887 41.019854 
L 349.441412 44.224653 
L 341.964937 46.46969 
L 334.488462 48.480094 
L 327.011987 50.84458 
L 319.535512 53.927443 
L 312.059037 52.598818 
L 304.582562 55.93684 
L 297.106087 58.326876 
L 289.629612 60.783764 
L 282.153137 63.041825 
L 274.676662 66.890391 
L 267.200187 66.998435 
L 259.723712 69.424144 
L 252.247237 70.132127 
L 244.770763 73.279283 
L 237.294288 75.79385 
L 229.817813 78.528972 
L 222.341338 85.241547 
L 214.864863 86.335208 
L 207.388388 87.525148 
L 199.911913 88.065144 
L 192.435438 94.345286 
L 184.958963 95.422402 
L 177.482488 99.163917 
L 170.006013 101.812652 
L 162.529538 104.713567 
L 155.053063 107.686695 
L 147.576588 112.966847 
L 140.100113 112.728331 
L 132.623638 121.025935 
L 125.147163 123.522639 
L 117.670688 124.159417 
L 110.194213 133.427112 
L 102.717738 138.699406 
L 95.241263 147.335868 
L 87.764788 154.936319 
L 80.288314 164.880497 
L 72.811839 172.394696 
L 65.335364 179.885085 
z
" clip-path="url(#p842ef32413)" style="fill: #1f77b4; fill-opacity: 0.27"/>
   </g>
   <g id="FillBetweenPolyCollection_2">
    <path d="M 65.335364 191.980566 
L 65.335364 234.436557 
L 72.811839 230.918418 
L 80.288314 227.856978 
L 87.764788 225.21247 
L 95.241263 222.939594 
L 102.717738 221.015832 
L 110.194213 219.424748 
L 117.670688 218.039415 
L 125.147163 216.817732 
L 132.623638 215.721794 
L 140.100113 214.718343 
L 147.576588 213.781126 
L 155.053063 212.890289 
L 162.529538 212.032345 
L 170.006013 211.199133 
L 177.482488 210.386791 
L 184.958963 209.595488 
L 192.435438 208.827958 
L 199.911913 208.088409 
L 207.388388 207.381508 
L 214.864863 206.711527 
L 222.341338 206.08168 
L 229.817813 205.493696 
L 237.294288 204.947605 
L 244.770763 204.441755 
L 252.247237 203.973005 
L 259.723712 203.537062 
L 267.200187 203.12891 
L 274.676662 202.743282 
L 282.153137 202.375113 
L 289.629612 202.019945 
L 297.106087 201.835761 
L 304.582562 201.924996 
L 312.059037 202.008928 
L 319.535512 202.087312 
L 327.011987 202.159879 
L 334.488462 202.226141 
L 341.964937 202.285268 
L 349.441412 202.33606 
L 356.917887 202.377016 
L 364.394362 202.406496 
L 371.870837 202.422955 
L 379.347312 202.425246 
L 386.823787 202.412941 
L 394.300262 202.386656 
L 401.776737 202.348342 
L 409.253212 202.301512 
L 416.729686 202.251888 
L 424.206161 202.206503 
L 431.682636 202.17281 
L 431.682636 33.0546 
L 431.682636 33.0546 
L 424.206161 34.295658 
L 416.729686 35.681185 
L 409.253212 37.188381 
L 401.776737 38.797368 
L 394.300262 40.490964 
L 386.823787 42.254376 
L 379.347312 44.074871 
L 371.870837 45.941475 
L 364.394362 47.844735 
L 356.917887 49.77656 
L 349.441412 51.730172 
L 341.964937 53.700147 
L 334.488462 55.682532 
L 327.011987 57.675012 
L 319.535512 59.677077 
L 312.059037 61.690148 
L 304.582562 63.717612 
L 297.106087 65.764733 
L 289.629612 67.838408 
L 282.153137 69.946757 
L 274.676662 72.098557 
L 267.200187 74.302558 
L 259.723712 76.566729 
L 252.247237 78.897507 
L 244.770763 81.299134 
L 237.294288 83.773175 
L 229.817813 86.318306 
L 222.341338 88.930449 
L 214.864863 91.603313 
L 207.388388 94.329373 
L 199.911913 97.101279 
L 192.435438 99.913652 
L 184.958963 102.765187 
L 177.482488 105.660938 
L 170.006013 108.614633 
L 162.529538 111.650839 
L 155.053063 114.8068 
L 147.576588 118.133739 
L 140.100113 121.697468 
L 132.623638 125.578162 
L 125.147163 129.869174 
L 117.670688 134.67487 
L 110.194213 140.107472 
L 102.717738 146.282992 
L 95.241263 153.31639 
L 87.764788 161.316159 
L 80.288314 170.378561 
L 72.811839 180.581825 
L 65.335364 191.980566 
z
" clip-path="url(#p842ef32413)" style="fill: #ff7f0e; fill-opacity: 0.45"/>
   </g>
   <g id="FillBetweenPolyCollection_3">
    <path d="M 65.335364 199.950794 
L 65.335364 265.718754 
L 72.811839 262.880805 
L 80.288314 262.754895 
L 87.764788 260.541495 
L 95.241263 259.817337 
L 102.717738 258.615996 
L 110.194213 257.124438 
L 117.670688 257.660473 
L 125.147163 256.352435 
L 132.623638 253.462611 
L 140.100113 252.928868 
L 147.576588 254.076383 
L 155.053063 254.99262 
L 162.529538 253.505942 
L 170.006013 253.22368 
L 177.482488 252.645939 
L 184.958963 251.947365 
L 192.435438 251.653991 
L 199.911913 253.007963 
L 207.388388 247.416283 
L 214.864863 251.206611 
L 222.341338 247.68671 
L 229.817813 250.160123 
L 237.294288 248.297389 
L 244.770763 248.1781 
L 252.247237 248.527518 
L 259.723712 247.894385 
L 267.200187 247.954914 
L 274.676662 248.522123 
L 282.153137 247.2959 
L 289.629612 243.162003 
L 297.106087 244.609169 
L 304.582562 243.990165 
L 312.059037 245.381722 
L 319.535512 244.444043 
L 327.011987 244.547414 
L 334.488462 246.984548 
L 341.964937 243.465646 
L 349.441412 242.801476 
L 356.917887 243.209953 
L 364.394362 244.800267 
L 371.870837 245.183393 
L 379.347312 242.892423 
L 386.823787 242.172265 
L 394.300262 241.986917 
L 401.776737 241.145745 
L 409.253212 242.042487 
L 416.729686 240.771967 
L 424.206161 243.377687 
L 431.682636 241.660768 
L 431.682636 150.961633 
L 431.682636 150.961633 
L 424.206161 150.112611 
L 416.729686 150.349373 
L 409.253212 151.938261 
L 401.776737 152.105193 
L 394.300262 153.138265 
L 386.823787 154.219818 
L 379.347312 153.985468 
L 371.870837 155.261036 
L 364.394362 156.988104 
L 356.917887 158.145615 
L 349.441412 159.144535 
L 341.964937 162.002137 
L 334.488462 160.141444 
L 327.011987 161.506706 
L 319.535512 162.1126 
L 312.059037 164.710133 
L 304.582562 166.637769 
L 297.106087 166.779759 
L 289.629612 166.659048 
L 282.153137 166.708477 
L 274.676662 169.582995 
L 267.200187 170.615534 
L 259.723712 172.602951 
L 252.247237 171.805441 
L 244.770763 171.79936 
L 237.294288 172.566394 
L 229.817813 175.333694 
L 222.341338 177.399789 
L 214.864863 177.073154 
L 207.388388 178.263895 
L 199.911913 179.270497 
L 192.435438 178.20197 
L 184.958963 179.218954 
L 177.482488 180.829978 
L 170.006013 182.79032 
L 162.529538 183.007175 
L 155.053063 180.698083 
L 147.576588 180.715219 
L 140.100113 182.634515 
L 132.623638 184.162785 
L 125.147163 182.922079 
L 117.670688 184.546421 
L 110.194213 187.044594 
L 102.717738 188.557229 
L 95.241263 190.27765 
L 87.764788 190.72317 
L 80.288314 191.42426 
L 72.811839 196.722396 
L 65.335364 199.950794 
z
" clip-path="url(#p842ef32413)" style="fill: #2ca02c; fill-opacity: 0.27"/>
   </g>
   <g id="FillBetweenPolyCollection_4">
    <path d="M 65.335364 215.326671 
L 65.335364 247.83003 
L 72.811839 245.755169 
L 80.288314 243.912356 
L 87.764788 242.287792 
L 95.241263 240.863997 
L 102.717738 239.620982 
L 110.194213 238.537379 
L 117.670688 237.591472 
L 125.147163 236.762095 
L 132.623638 236.029363 
L 140.100113 235.375216 
L 147.576588 234.783771 
L 155.053063 234.241505 
L 162.529538 233.737261 
L 170.006013 233.26214 
L 177.482488 232.809277 
L 184.958963 232.373564 
L 192.435438 231.951336 
L 199.911913 231.540055 
L 207.388388 231.138029 
L 214.864863 230.744163 
L 222.341338 230.357767 
L 229.817813 229.978419 
L 237.294288 229.605879 
L 244.770763 229.240048 
L 252.247237 228.880947 
L 259.723712 228.528717 
L 267.200187 228.183624 
L 274.676662 227.846038 
L 282.153137 227.516413 
L 289.629612 227.19523 
L 297.106087 226.882927 
L 304.582562 226.579814 
L 312.059037 226.285985 
L 319.535512 226.001235 
L 327.011987 225.724998 
L 334.488462 225.456326 
L 341.964937 225.193894 
L 349.441412 224.93607 
L 356.917887 224.681027 
L 364.394362 224.426898 
L 371.870837 224.171973 
L 379.347312 223.914923 
L 386.823787 223.65502 
L 394.300262 223.392354 
L 401.776737 223.12802 
L 409.253212 222.864249 
L 416.729686 222.604479 
L 424.206161 222.354591 
L 431.682636 222.119921 
L 431.682636 157.828542 
L 431.682636 157.828542 
L 424.206161 158.496514 
L 416.729686 159.214425 
L 409.253212 159.97438 
L 401.776737 160.769973 
L 394.300262 161.596069 
L 386.823787 162.448545 
L 379.347312 163.324016 
L 371.870837 164.21959 
L 364.394362 165.132659 
L 356.917887 166.060766 
L 349.441412 167.001541 
L 341.964937 167.952731 
L 334.488462 168.91229 
L 327.011987 169.878543 
L 319.535512 170.850371 
L 312.059037 171.827407 
L 304.582562 172.810205 
L 297.106087 173.800349 
L 289.629612 174.800479 
L 282.153137 175.814211 
L 274.676662 176.845956 
L 267.200187 177.900628 
L 259.723712 178.983269 
L 252.247237 180.098629 
L 244.770763 181.250729 
L 237.294288 182.442465 
L 229.817813 183.67532 
L 222.341338 184.949209 
L 214.864863 186.262528 
L 207.388388 187.612429 
L 199.911913 188.995333 
L 192.435438 190.407691 
L 184.958963 191.846952 
L 177.482488 193.312697 
L 170.006013 194.807867 
L 162.529538 196.34 
L 155.053063 197.922366 
L 147.576588 199.572254 
L 140.100113 199.891722 
L 132.623638 200.279658 
L 125.147163 200.624132 
L 117.670688 201.16463 
L 110.194213 201.955067 
L 102.717738 203.054267 
L 95.241263 204.524042 
L 87.764788 206.426825 
L 80.288314 208.822938 
L 72.811839 211.767632 
L 65.335364 215.326671 
z
" clip-path="url(#p842ef32413)" style="fill: #d62728; fill-opacity: 0.45"/>
   </g>
   <g id="FillBetweenPolyCollection_5">
    <path d="M 65.335364 227.609738 
L 65.335364 276.836285 
L 72.811839 273.777015 
L 80.288314 274.801343 
L 87.764788 273.168712 
L 95.241263 272.046549 
L 102.717738 273.39022 
L 110.194213 273.136267 
L 117.670688 273.933267 
L 125.147163 270.881451 
L 132.623638 271.086041 
L 140.100113 270.706102 
L 147.576588 273.338826 
L 155.053063 272.395378 
L 162.529538 273.056091 
L 170.006013 271.633458 
L 177.482488 269.343241 
L 184.958963 269.073323 
L 192.435438 268.316503 
L 199.911913 268.861343 
L 207.388388 270.274223 
L 214.864863 267.58587 
L 222.341338 268.453929 
L 229.817813 269.534631 
L 237.294288 269.994236 
L 244.770763 268.546959 
L 252.247237 268.540902 
L 259.723712 268.804875 
L 267.200187 268.4312 
L 274.676662 270.808855 
L 282.153137 265.475666 
L 289.629612 268.082334 
L 297.106087 267.735513 
L 304.582562 267.246031 
L 312.059037 267.481454 
L 319.535512 269.353086 
L 327.011987 268.533608 
L 334.488462 266.782038 
L 341.964937 266.969408 
L 349.441412 267.269806 
L 356.917887 264.176522 
L 364.394362 265.711155 
L 371.870837 266.979038 
L 379.347312 266.000603 
L 386.823787 267.808615 
L 394.300262 267.111515 
L 401.776737 266.609794 
L 409.253212 267.273803 
L 416.729686 267.999268 
L 424.206161 268.674843 
L 431.682636 265.645838 
L 431.682636 212.338301 
L 431.682636 212.338301 
L 424.206161 215.234184 
L 416.729686 212.380533 
L 409.253212 213.140656 
L 401.776737 213.115036 
L 394.300262 215.071911 
L 386.823787 214.749223 
L 379.347312 213.776572 
L 371.870837 214.382166 
L 364.394362 214.949903 
L 356.917887 214.069479 
L 349.441412 214.711471 
L 341.964937 213.616369 
L 334.488462 212.965679 
L 327.011987 214.830074 
L 319.535512 215.332366 
L 312.059037 217.085084 
L 304.582562 217.184357 
L 297.106087 216.888631 
L 289.629612 216.020093 
L 282.153137 218.219755 
L 274.676662 215.655793 
L 267.200187 217.898418 
L 259.723712 216.358656 
L 252.247237 217.178043 
L 244.770763 219.28876 
L 237.294288 216.619505 
L 229.817813 218.412613 
L 222.341338 218.757345 
L 214.864863 220.412935 
L 207.388388 219.484244 
L 199.911913 217.842005 
L 192.435438 220.686674 
L 184.958963 218.482115 
L 177.482488 222.323851 
L 170.006013 223.028821 
L 162.529538 220.463552 
L 155.053063 220.292904 
L 147.576588 220.548318 
L 140.100113 222.557049 
L 132.623638 224.343951 
L 125.147163 223.047137 
L 117.670688 224.833581 
L 110.194213 223.996707 
L 102.717738 226.692861 
L 95.241263 227.04007 
L 87.764788 222.671038 
L 80.288314 227.052315 
L 72.811839 227.108755 
L 65.335364 227.609738 
z
" clip-path="url(#p842ef32413)" style="fill: #9467bd; fill-opacity: 0.27"/>
   </g>
   <g id="FillBetweenPolyCollection_6">
    <path d="M 65.335364 247.938703 
L 65.335364 260.188866 
L 72.811839 258.561222 
L 80.288314 257.149715 
L 87.764788 255.934442 
L 95.241263 254.892462 
L 102.717738 254.049842 
L 110.194213 253.545132 
L 117.670688 253.100834 
L 125.147163 252.70467 
L 132.623638 252.35545 
L 140.100113 252.175466 
L 147.576588 252.008645 
L 155.053063 251.853192 
L 162.529538 251.707674 
L 170.006013 251.570961 
L 177.482488 251.442135 
L 184.958963 251.320404 
L 192.435438 251.205014 
L 199.911913 251.095176 
L 207.388388 250.990013 
L 214.864863 250.888535 
L 222.341338 250.789638 
L 229.817813 250.692135 
L 237.294288 250.594808 
L 244.770763 250.496472 
L 252.247237 250.39606 
L 259.723712 250.292699 
L 267.200187 250.185785 
L 274.676662 250.075037 
L 282.153137 249.96054 
L 289.629612 249.84275 
L 297.106087 249.722479 
L 304.582562 249.60085 
L 312.059037 249.479225 
L 319.535512 249.359108 
L 327.011987 249.242043 
L 334.488462 249.129488 
L 341.964937 249.022705 
L 349.441412 248.922638 
L 356.917887 248.829827 
L 364.394362 248.744318 
L 371.870837 248.665617 
L 379.347312 248.592659 
L 386.823787 248.523813 
L 394.300262 248.456908 
L 401.776737 248.389287 
L 409.253212 248.317887 
L 416.729686 248.239329 
L 424.206161 248.150025 
L 431.682636 248.04629 
L 431.682636 230.586409 
L 431.682636 230.586409 
L 424.206161 230.722481 
L 416.729686 230.863014 
L 409.253212 231.007036 
L 401.776737 231.154065 
L 394.300262 231.304065 
L 386.823787 231.457372 
L 379.347312 231.614585 
L 371.870837 231.779197 
L 364.394362 231.953097 
L 356.917887 232.125074 
L 349.441412 232.303622 
L 341.964937 232.489096 
L 334.488462 232.681617 
L 327.011987 232.88109 
L 319.535512 233.084474 
L 312.059037 233.292549 
L 304.582562 233.506664 
L 297.106087 233.726613 
L 289.629612 233.952364 
L 282.153137 234.184117 
L 274.676662 234.422345 
L 267.200187 234.667787 
L 259.723712 234.921405 
L 252.247237 235.184308 
L 244.770763 235.457629 
L 237.294288 235.742402 
L 229.817813 236.039418 
L 222.341338 236.349106 
L 214.864863 236.671443 
L 207.388388 237.005917 
L 199.911913 237.351556 
L 192.435438 237.707042 
L 184.958963 238.070897 
L 177.482488 238.441759 
L 170.006013 238.818716 
L 162.529538 239.201693 
L 155.053063 239.591858 
L 147.576588 239.992016 
L 140.100113 240.406955 
L 132.623638 240.843709 
L 125.147163 241.311705 
L 117.670688 241.822755 
L 110.194213 242.390888 
L 102.717738 243.031997 
L 95.241263 243.763304 
L 87.764788 244.602665 
L 80.288314 245.567722 
L 72.811839 246.674962 
L 65.335364 247.938703 
z
" clip-path="url(#p842ef32413)" style="fill: #8c564b; fill-opacity: 0.45"/>
   </g>
   <g id="FillBetweenPolyCollection_7">
    <path d="M 65.335364 233.659118 
L 65.335364 287.166055 
L 72.811839 288.954545 
L 80.288314 284.709046 
L 87.764788 283.267073 
L 95.241263 284.116889 
L 102.717738 285.625152 
L 110.194213 283.135202 
L 117.670688 281.831178 
L 125.147163 280.974543 
L 132.623638 279.481829 
L 140.100113 281.715738 
L 147.576588 281.830687 
L 155.053063 281.737968 
L 162.529538 279.665117 
L 170.006013 281.727595 
L 177.482488 279.814296 
L 184.958963 279.946897 
L 192.435438 282.383668 
L 199.911913 278.689132 
L 207.388388 279.992587 
L 214.864863 279.600428 
L 222.341338 280.189324 
L 229.817813 280.659789 
L 237.294288 280.914575 
L 244.770763 280.260126 
L 252.247237 280.416452 
L 259.723712 279.304674 
L 267.200187 281.309151 
L 274.676662 277.736604 
L 282.153137 279.910424 
L 289.629612 278.55941 
L 297.106087 278.612012 
L 304.582562 278.684636 
L 312.059037 278.164796 
L 319.535512 278.071146 
L 327.011987 277.934002 
L 334.488462 276.733525 
L 341.964937 277.740219 
L 349.441412 275.660125 
L 356.917887 277.568768 
L 364.394362 276.546525 
L 371.870837 279.062402 
L 379.347312 274.15498 
L 386.823787 274.492369 
L 394.300262 275.748408 
L 401.776737 275.804235 
L 409.253212 273.7329 
L 416.729686 275.019833 
L 424.206161 276.470812 
L 431.682636 274.743655 
L 431.682636 199.200887 
L 431.682636 199.200887 
L 424.206161 196.711425 
L 416.729686 198.473395 
L 409.253212 197.189396 
L 401.776737 196.999511 
L 394.300262 193.194863 
L 386.823787 189.736558 
L 379.347312 191.301287 
L 371.870837 191.773479 
L 364.394362 193.389226 
L 356.917887 190.827136 
L 349.441412 190.959311 
L 341.964937 188.011494 
L 334.488462 189.988965 
L 327.011987 192.323535 
L 319.535512 194.450192 
L 312.059037 193.438386 
L 304.582562 194.49201 
L 297.106087 194.54031 
L 289.629612 197.565511 
L 282.153137 200.376522 
L 274.676662 199.413611 
L 267.200187 204.53961 
L 259.723712 203.768643 
L 252.247237 206.097989 
L 244.770763 208.920018 
L 237.294288 210.845296 
L 229.817813 213.764318 
L 222.341338 212.708768 
L 214.864863 216.284331 
L 207.388388 221.549452 
L 199.911913 221.963571 
L 192.435438 222.666795 
L 184.958963 224.945362 
L 177.482488 226.473546 
L 170.006013 227.022236 
L 162.529538 231.360153 
L 155.053063 231.832085 
L 147.576588 230.89291 
L 140.100113 231.439313 
L 132.623638 231.74582 
L 125.147163 235.761962 
L 117.670688 236.947186 
L 110.194213 232.856689 
L 102.717738 234.351268 
L 95.241263 234.225213 
L 87.764788 235.005728 
L 80.288314 235.223459 
L 72.811839 232.308658 
L 65.335364 233.659118 
z
" clip-path="url(#p842ef32413)" style="fill: #e377c2; fill-opacity: 0.27"/>
   </g>
   <g id="FillBetweenPolyCollection_8">
    <path d="M 65.335364 254.904371 
L 65.335364 269.210769 
L 72.811839 268.287672 
L 80.288314 267.282607 
L 87.764788 266.195385 
L 95.241263 265.0253 
L 102.717738 263.771283 
L 110.194213 262.432062 
L 117.670688 261.380415 
L 125.147163 261.085028 
L 132.623638 261.112761 
L 140.100113 261.152158 
L 147.576588 261.200485 
L 155.053063 261.255738 
L 162.529538 261.316544 
L 170.006013 261.38203 
L 177.482488 261.451654 
L 184.958963 261.52503 
L 192.435438 261.601759 
L 199.911913 261.681283 
L 207.388388 261.762765 
L 214.864863 261.84502 
L 222.341338 261.92648 
L 229.817813 262.005214 
L 237.294288 262.078979 
L 244.770763 262.145314 
L 252.247237 262.201653 
L 259.723712 262.245758 
L 267.200187 262.275458 
L 274.676662 262.287597 
L 282.153137 262.280542 
L 289.629612 262.253473 
L 297.106087 262.205884 
L 304.582562 262.137039 
L 312.059037 262.047109 
L 319.535512 261.936667 
L 327.011987 261.806658 
L 334.488462 261.658226 
L 341.964937 261.492676 
L 349.441412 261.311318 
L 356.917887 261.115919 
L 364.394362 260.907051 
L 371.870837 260.684429 
L 379.347312 260.449552 
L 386.823787 260.203117 
L 394.300262 259.944 
L 401.776737 259.67146 
L 409.253212 259.384408 
L 416.729686 259.081445 
L 424.206161 258.76092 
L 431.682636 258.420995 
L 431.682636 216.604135 
L 431.682636 216.604135 
L 424.206161 215.323559 
L 416.729686 214.089525 
L 409.253212 212.918527 
L 401.776737 211.827434 
L 394.300262 210.833231 
L 386.823787 209.952733 
L 379.347312 209.202256 
L 371.870837 208.597278 
L 364.394362 208.152087 
L 356.917887 207.87943 
L 349.441412 207.790179 
L 341.964937 207.893029 
L 334.488462 208.194242 
L 327.011987 208.697437 
L 319.535512 209.403463 
L 312.059037 210.310328 
L 304.582562 211.413214 
L 297.106087 212.704572 
L 289.629612 214.174287 
L 282.153137 215.809913 
L 274.676662 217.596965 
L 267.200187 219.519268 
L 259.723712 221.559328 
L 252.247237 223.698733 
L 244.770763 225.91855 
L 237.294288 228.199724 
L 229.817813 230.478266 
L 222.341338 232.766919 
L 214.864863 235.033079 
L 207.388388 237.275692 
L 199.911913 239.497372 
L 192.435438 241.68495 
L 184.958963 243.826685 
L 177.482488 245.912331 
L 170.006013 247.933169 
L 162.529538 249.881994 
L 155.053063 251.753074 
L 147.576588 253.542072 
L 140.100113 255.245943 
L 132.623638 256.47419 
L 125.147163 256.27973 
L 117.670688 256.089081 
L 110.194213 255.904274 
L 102.717738 255.722456 
L 95.241263 255.548183 
L 87.764788 255.379796 
L 80.288314 255.217752 
L 72.811839 255.060024 
L 65.335364 254.904371 
z
" clip-path="url(#p842ef32413)" style="fill: #7f7f7f; fill-opacity: 0.45"/>
   </g>
   <g id="matplotlib.axis_1">
    <g id="xtick_1">
     <g id="line2d_1">
      <defs>
       <path id="m892cf12985" d="M 0 0 
L 0 3.5 
" style="stroke: #000000; stroke-width: 0.8"/>
      </defs>
      <g>
       <use xlink:href="#m892cf12985" x="61.634886" y="302.2" style="stroke: #000000; stroke-width: 0.8"/>
      </g>
     </g>
     <g id="text_1">
      <!-- 0 -->
      <g transform="translate(58.453636 316.798437) scale(0.1 -0.1)">
       <defs>
        <path id="DejaVuSans-30" d="M 2034 4250 
Q 1547 4250 1301 3770 
Q 1056 3291 1056 2328 
Q 1056 1369 1301 889 
Q 1547 409 2034 409 
Q 2525 409 2770 889 
Q 3016 1369 3016 2328 
Q 3016 3291 2770 3770 
Q 2525 4250 2034 4250 
z
M 2034 4750 
Q 2819 4750 3233 4129 
Q 3647 3509 3647 2328 
Q 3647 1150 3233 529 
Q 2819 -91 2034 -91 
Q 1250 -91 836 529 
Q 422 1150 422 2328 
Q 422 3509 836 4129 
Q 1250 4750 2034 4750 
z
" transform="scale(0.015625)"/>
       </defs>
       <use xlink:href="#DejaVuSans-30"/>
      </g>
     </g>
    </g>
    <g id="xtick_2">
     <g id="line2d_2">
      <g>
       <use xlink:href="#m892cf12985" x="135.644436" y="302.2" style="stroke: #000000; stroke-width: 0.8"/>
      </g>
     </g>
     <g id="text_2">
      <!-- 1 -->
      <g transform="translate(132.463186 316.798437) scale(0.1 -0.1)">
       <defs>
        <path id="DejaVuSans-31" d="M 794 531 
L 1825 531 
L 1825 4091 
L 703 3866 
L 703 4441 
L 1819 4666 
L 2450 4666 
L 2450 531 
L 3481 531 
L 3481 0 
L 794 0 
L 794 531 
z
" transform="scale(0.015625)"/>
       </defs>
       <use xlink:href="#DejaVuSans-31"/>
      </g>
     </g>
    </g>
    <g id="xtick_3">
     <g id="line2d_3">
      <g>
       <use xlink:href="#m892cf12985" x="209.653986" y="302.2" style="stroke: #000000; stroke-width: 0.8"/>
      </g>
     </g>
     <g id="text_3">
      <!-- 2 -->
      <g transform="translate(206.472736 316.798437) scale(0.1 -0.1)">
       <defs>
        <path id="DejaVuSans-32" d="M 1228 531 
L 3431 531 
L 3431 0 
L 469 0 
L 469 531 
Q 828 903 1448 1529 
Q 2069 2156 2228 2338 
Q 2531 2678 2651 2914 
Q 2772 3150 2772 3378 
Q 2772 3750 2511 3984 
Q 2250 4219 1831 4219 
Q 1534 4219 1204 4116 
Q 875 4013 500 3803 
L 500 4441 
Q 881 4594 1212 4672 
Q 1544 4750 1819 4750 
Q 2544 4750 2975 4387 
Q 3406 4025 3406 3419 
Q 3406 3131 3298 2873 
Q 3191 2616 2906 2266 
Q 2828 2175 2409 1742 
Q 1991 1309 1228 531 
z
" transform="scale(0.015625)"/>
       </defs>
       <use xlink:href="#DejaVuSans-32"/>
      </g>
     </g>
    </g>
    <g id="xtick_4">
     <g id="line2d_4">
      <g>
       <use xlink:href="#m892cf12985" x="283.663536" y="302.2" style="stroke: #000000; stroke-width: 0.8"/>
      </g>
     </g>
     <g id="text_4">
      <!-- 3 -->
      <g transform="translate(280.482286 316.798437) scale(0.1 -0.1)">
       <defs>
        <path id="DejaVuSans-33" d="M 2597 2516 
Q 3050 2419 3304 2112 
Q 3559 1806 3559 1356 
Q 3559 666 3084 287 
Q 2609 -91 1734 -91 
Q 1441 -91 1130 -33 
Q 819 25 488 141 
L 488 750 
Q 750 597 1062 519 
Q 1375 441 1716 441 
Q 2309 441 2620 675 
Q 2931 909 2931 1356 
Q 2931 1769 2642 2001 
Q 2353 2234 1838 2234 
L 1294 2234 
L 1294 2753 
L 1863 2753 
Q 2328 2753 2575 2939 
Q 2822 3125 2822 3475 
Q 2822 3834 2567 4026 
Q 2313 4219 1838 4219 
Q 1578 4219 1281 4162 
Q 984 4106 628 3988 
L 628 4550 
Q 988 4650 1302 4700 
Q 1616 4750 1894 4750 
Q 2613 4750 3031 4423 
Q 3450 4097 3450 3541 
Q 3450 3153 3228 2886 
Q 3006 2619 2597 2516 
z
" transform="scale(0.015625)"/>
       </defs>
       <use xlink:href="#DejaVuSans-33"/>
      </g>
     </g>
    </g>
    <g id="xtick_5">
     <g id="line2d_5">
      <g>
       <use xlink:href="#m892cf12985" x="357.673086" y="302.2" style="stroke: #000000; stroke-width: 0.8"/>
      </g>
     </g>
     <g id="text_5">
      <!-- 4 -->
      <g transform="translate(354.491836 316.798437) scale(0.1 -0.1)">
       <defs>
        <path id="DejaVuSans-34" d="M 2419 4116 
L 825 1625 
L 2419 1625 
L 2419 4116 
z
M 2253 4666 
L 3047 4666 
L 3047 1625 
L 3713 1625 
L 3713 1100 
L 3047 1100 
L 3047 0 
L 2419 0 
L 2419 1100 
L 313 1100 
L 313 1709 
L 2253 4666 
z
" transform="scale(0.015625)"/>
       </defs>
       <use xlink:href="#DejaVuSans-34"/>
      </g>
     </g>
    </g>
    <g id="xtick_6">
     <g id="line2d_6">
      <g>
       <use xlink:href="#m892cf12985" x="431.682636" y="302.2" style="stroke: #000000; stroke-width: 0.8"/>
      </g>
     </g>
     <g id="text_6">
      <!-- 5 -->
      <g transform="translate(428.501386 316.798437) scale(0.1 -0.1)">
       <defs>
        <path id="DejaVuSans-35" d="M 691 4666 
L 3169 4666 
L 3169 4134 
L 1269 4134 
L 1269 2991 
Q 1406 3038 1543 3061 
Q 1681 3084 1819 3084 
Q 2600 3084 3056 2656 
Q 3513 2228 3513 1497 
Q 3513 744 3044 326 
Q 2575 -91 1722 -91 
Q 1428 -91 1123 -41 
Q 819 9 494 109 
L 494 744 
Q 775 591 1075 516 
Q 1375 441 1709 441 
Q 2250 441 2565 725 
Q 2881 1009 2881 1497 
Q 2881 1984 2565 2268 
Q 2250 2553 1709 2553 
Q 1456 2553 1204 2497 
Q 953 2441 691 2322 
L 691 4666 
z
" transform="scale(0.015625)"/>
       </defs>
       <use xlink:href="#DejaVuSans-35"/>
      </g>
     </g>
    </g>
    <g id="text_7">
     <!-- $W$ (m/hour) -->
     <g transform="translate(220.059 330.476562) scale(0.1 -0.1)">
      <defs>
       <path id="DejaVuSans-Oblique-57" d="M 616 4666 
L 1228 4666 
L 1453 697 
L 3213 4666 
L 3916 4666 
L 4147 697 
L 5888 4666 
L 6528 4666 
L 4453 0 
L 3659 0 
L 3444 3891 
L 1697 0 
L 903 0 
L 616 4666 
z
" transform="scale(0.015625)"/>
       <path id="DejaVuSans-20" transform="scale(0.015625)"/>
       <path id="DejaVuSans-28" d="M 1984 4856 
Q 1566 4138 1362 3434 
Q 1159 2731 1159 2009 
Q 1159 1288 1364 580 
Q 1569 -128 1984 -844 
L 1484 -844 
Q 1016 -109 783 600 
Q 550 1309 550 2009 
Q 550 2706 781 3412 
Q 1013 4119 1484 4856 
L 1984 4856 
z
" transform="scale(0.015625)"/>
       <path id="DejaVuSans-6d" d="M 3328 2828 
Q 3544 3216 3844 3400 
Q 4144 3584 4550 3584 
Q 5097 3584 5394 3201 
Q 5691 2819 5691 2113 
L 5691 0 
L 5113 0 
L 5113 2094 
Q 5113 2597 4934 2840 
Q 4756 3084 4391 3084 
Q 3944 3084 3684 2787 
Q 3425 2491 3425 1978 
L 3425 0 
L 2847 0 
L 2847 2094 
Q 2847 2600 2669 2842 
Q 2491 3084 2119 3084 
Q 1678 3084 1418 2786 
Q 1159 2488 1159 1978 
L 1159 0 
L 581 0 
L 581 3500 
L 1159 3500 
L 1159 2956 
Q 1356 3278 1631 3431 
Q 1906 3584 2284 3584 
Q 2666 3584 2933 3390 
Q 3200 3197 3328 2828 
z
" transform="scale(0.015625)"/>
       <path id="DejaVuSans-2f" d="M 1625 4666 
L 2156 4666 
L 531 -594 
L 0 -594 
L 1625 4666 
z
" transform="scale(0.015625)"/>
       <path id="DejaVuSans-68" d="M 3513 2113 
L 3513 0 
L 2938 0 
L 2938 2094 
Q 2938 2591 2744 2837 
Q 2550 3084 2163 3084 
Q 1697 3084 1428 2787 
Q 1159 2491 1159 1978 
L 1159 0 
L 581 0 
L 581 4863 
L 1159 4863 
L 1159 2956 
Q 1366 3272 1645 3428 
Q 1925 3584 2291 3584 
Q 2894 3584 3203 3211 
Q 3513 2838 3513 2113 
z
" transform="scale(0.015625)"/>
       <path id="DejaVuSans-6f" d="M 1959 3097 
Q 1497 3097 1228 2736 
Q 959 2375 959 1747 
Q 959 1119 1226 758 
Q 1494 397 1959 397 
Q 2419 397 2687 759 
Q 2956 1122 2956 1747 
Q 2956 2369 2687 2733 
Q 2419 3097 1959 3097 
z
M 1959 3584 
Q 2709 3584 3137 3096 
Q 3566 2609 3566 1747 
Q 3566 888 3137 398 
Q 2709 -91 1959 -91 
Q 1206 -91 779 398 
Q 353 888 353 1747 
Q 353 2609 779 3096 
Q 1206 3584 1959 3584 
z
" transform="scale(0.015625)"/>
       <path id="DejaVuSans-75" d="M 544 1381 
L 544 3500 
L 1119 3500 
L 1119 1403 
Q 1119 906 1312 657 
Q 1506 409 1894 409 
Q 2359 409 2629 706 
Q 2900 1003 2900 1516 
L 2900 3500 
L 3475 3500 
L 3475 0 
L 2900 0 
L 2900 538 
Q 2691 219 2414 64 
Q 2138 -91 1772 -91 
Q 1169 -91 856 284 
Q 544 659 544 1381 
z
M 1991 3584 
L 1991 3584 
z
" transform="scale(0.015625)"/>
       <path id="DejaVuSans-72" d="M 2631 2963 
Q 2534 3019 2420 3045 
Q 2306 3072 2169 3072 
Q 1681 3072 1420 2755 
Q 1159 2438 1159 1844 
L 1159 0 
L 581 0 
L 581 3500 
L 1159 3500 
L 1159 2956 
Q 1341 3275 1631 3429 
Q 1922 3584 2338 3584 
Q 2397 3584 2469 3576 
Q 2541 3569 2628 3553 
L 2631 2963 
z
" transform="scale(0.015625)"/>
       <path id="DejaVuSans-29" d="M 513 4856 
L 1013 4856 
Q 1481 4119 1714 3412 
Q 1947 2706 1947 2009 
Q 1947 1309 1714 600 
Q 1481 -109 1013 -844 
L 513 -844 
Q 928 -128 1133 580 
Q 1338 1288 1338 2009 
Q 1338 2731 1133 3434 
Q 928 4138 513 4856 
z
" transform="scale(0.015625)"/>
      </defs>
      <use xlink:href="#DejaVuSans-Oblique-57" transform="translate(0 0.015625)"/>
      <use xlink:href="#DejaVuSans-20" transform="translate(98.876953 0.015625)"/>
      <use xlink:href="#DejaVuSans-28" transform="translate(130.664062 0.015625)"/>
      <use xlink:href="#DejaVuSans-6d" transform="translate(169.677734 0.015625)"/>
      <use xlink:href="#DejaVuSans-2f" transform="translate(267.089844 0.015625)"/>
      <use xlink:href="#DejaVuSans-68" transform="translate(300.78125 0.015625)"/>
      <use xlink:href="#DejaVuSans-6f" transform="translate(364.160156 0.015625)"/>
      <use xlink:href="#DejaVuSans-75" transform="translate(425.341797 0.015625)"/>
      <use xlink:href="#DejaVuSans-72" transform="translate(488.720703 0.015625)"/>
      <use xlink:href="#DejaVuSans-29" transform="translate(529.833984 0.015625)"/>
     </g>
    </g>
   </g>
   <g id="matplotlib.axis_2">
    <g id="ytick_1">
     <g id="line2d_7">
      <defs>
       <path id="m1ead871076" d="M 0 0 
L -3.5 0 
" style="stroke: #000000; stroke-width: 0.8"/>
      </defs>
      <g>
       <use xlink:href="#m1ead871076" x="47.018" y="266.609389" style="stroke: #000000; stroke-width: 0.8"/>
      </g>
     </g>
     <g id="text_8">
      <!-- 0 -->
      <g transform="translate(33.6555 270.408607) scale(0.1 -0.1)">
       <use xlink:href="#DejaVuSans-30"/>
      </g>
     </g>
    </g>
    <g id="ytick_2">
     <g id="line2d_8">
      <g>
       <use xlink:href="#m1ead871076" x="47.018" y="204.41639" style="stroke: #000000; stroke-width: 0.8"/>
      </g>
     </g>
     <g id="text_9">
      <!-- 10 -->
      <g transform="translate(27.293 208.215609) scale(0.1 -0.1)">
       <use xlink:href="#DejaVuSans-31"/>
       <use xlink:href="#DejaVuSans-30" transform="translate(63.623047 0)"/>
      </g>
     </g>
    </g>
    <g id="ytick_3">
     <g id="line2d_9">
      <g>
       <use xlink:href="#m1ead871076" x="47.018" y="142.223391" style="stroke: #000000; stroke-width: 0.8"/>
      </g>
     </g>
     <g id="text_10">
      <!-- 20 -->
      <g transform="translate(27.293 146.02261) scale(0.1 -0.1)">
       <use xlink:href="#DejaVuSans-32"/>
       <use xlink:href="#DejaVuSans-30" transform="translate(63.623047 0)"/>
      </g>
     </g>
    </g>
    <g id="ytick_4">
     <g id="line2d_10">
      <g>
       <use xlink:href="#m1ead871076" x="47.018" y="80.030392" style="stroke: #000000; stroke-width: 0.8"/>
      </g>
     </g>
     <g id="text_11">
      <!-- 30 -->
      <g transform="translate(27.293 83.829611) scale(0.1 -0.1)">
       <use xlink:href="#DejaVuSans-33"/>
       <use xlink:href="#DejaVuSans-30" transform="translate(63.623047 0)"/>
      </g>
     </g>
    </g>
    <g id="ytick_5">
     <g id="line2d_11">
      <g>
       <use xlink:href="#m1ead871076" x="47.018" y="17.837394" style="stroke: #000000; stroke-width: 0.8"/>
      </g>
     </g>
     <g id="text_12">
      <!-- 40 -->
      <g transform="translate(27.293 21.636612) scale(0.1 -0.1)">
       <use xlink:href="#DejaVuSans-34"/>
       <use xlink:href="#DejaVuSans-30" transform="translate(63.623047 0)"/>
      </g>
     </g>
    </g>
    <g id="text_13">
     <!-- $Q_{lc}$ (kW) -->
     <g transform="translate(21.213312 176.8) rotate(-90) scale(0.1 -0.1)">
      <defs>
       <path id="DejaVuSans-Oblique-51" d="M 2309 -84 
Q 2275 -88 2237 -89 
Q 2200 -91 2125 -91 
Q 1250 -91 756 411 
Q 263 913 263 1797 
Q 263 2319 452 2844 
Q 641 3369 978 3788 
Q 1369 4269 1858 4509 
Q 2347 4750 2938 4750 
Q 3794 4750 4287 4245 
Q 4781 3741 4781 2869 
Q 4781 1928 4265 1147 
Q 3750 366 2919 44 
L 3553 -825 
L 2847 -825 
L 2309 -84 
z
M 2919 4238 
Q 2400 4238 2003 3986 
Q 1606 3734 1313 3219 
Q 1125 2891 1026 2522 
Q 928 2153 928 1778 
Q 928 1128 1239 775 
Q 1550 422 2119 422 
Q 2631 422 3032 676 
Q 3434 931 3719 1434 
Q 3909 1772 4009 2142 
Q 4109 2513 4109 2881 
Q 4109 3528 3796 3883 
Q 3484 4238 2919 4238 
z
" transform="scale(0.015625)"/>
       <path id="DejaVuSans-Oblique-6c" d="M 1172 4863 
L 1747 4863 
L 800 0 
L 225 0 
L 1172 4863 
z
" transform="scale(0.015625)"/>
       <path id="DejaVuSans-Oblique-63" d="M 3431 3366 
L 3316 2797 
Q 3109 2947 2876 3022 
Q 2644 3097 2394 3097 
Q 2119 3097 1870 3000 
Q 1622 2903 1453 2725 
Q 1184 2453 1037 2087 
Q 891 1722 891 1331 
Q 891 859 1127 628 
Q 1363 397 1844 397 
Q 2081 397 2348 469 
Q 2616 541 2906 684 
L 2797 116 
Q 2547 13 2283 -39 
Q 2019 -91 1741 -91 
Q 1044 -91 669 257 
Q 294 606 294 1253 
Q 294 1797 489 2255 
Q 684 2713 1069 3078 
Q 1331 3328 1684 3456 
Q 2038 3584 2456 3584 
Q 2700 3584 2940 3529 
Q 3181 3475 3431 3366 
z
" transform="scale(0.015625)"/>
       <path id="DejaVuSans-6b" d="M 581 4863 
L 1159 4863 
L 1159 1991 
L 2875 3500 
L 3609 3500 
L 1753 1863 
L 3688 0 
L 2938 0 
L 1159 1709 
L 1159 0 
L 581 0 
L 581 4863 
z
" transform="scale(0.015625)"/>
       <path id="DejaVuSans-57" d="M 213 4666 
L 850 4666 
L 1831 722 
L 2809 4666 
L 3519 4666 
L 4500 722 
L 5478 4666 
L 6119 4666 
L 4947 0 
L 4153 0 
L 3169 4050 
L 2175 0 
L 1381 0 
L 213 4666 
z
" transform="scale(0.015625)"/>
      </defs>
      <use xlink:href="#DejaVuSans-Oblique-51" transform="translate(0 0.015625)"/>
      <use xlink:href="#DejaVuSans-Oblique-6c" transform="translate(78.710938 -16.390625) scale(0.7)"/>
      <use xlink:href="#DejaVuSans-Oblique-63" transform="translate(98.15918 -16.390625) scale(0.7)"/>
      <use xlink:href="#DejaVuSans-20" transform="translate(139.379883 0.015625)"/>
      <use xlink:href="#DejaVuSans-28" transform="translate(171.166992 0.015625)"/>
      <use xlink:href="#DejaVuSans-6b" transform="translate(210.180664 0.015625)"/>
      <use xlink:href="#DejaVuSans-57" transform="translate(268.09082 0.015625)"/>
      <use xlink:href="#DejaVuSans-29" transform="translate(366.967773 0.015625)"/>
     </g>
    </g>
   </g>
   <g id="line2d_12">
    <path d="M 65.335364 203.028815 
L 72.811839 203.597621 
L 80.288314 204.077829 
L 87.764788 204.454622 
L 95.241263 204.71883 
L 102.717738 204.867024 
L 110.194213 204.901331 
L 117.670688 204.828963 
L 125.147163 204.661517 
L 132.623638 204.414083 
L 140.100113 204.104219 
L 147.576588 203.750861 
L 155.053063 203.373233 
L 162.529538 202.98982 
L 170.006013 202.617467 
L 177.482488 202.270644 
L 184.958963 201.960917 
L 192.435438 201.696637 
L 199.911913 201.482862 
L 207.388388 201.321474 
L 214.864863 201.211503 
L 222.341338 201.149575 
L 229.817813 201.130473 
L 237.294288 201.147747 
L 244.770763 201.194319 
L 252.247237 201.263376 
L 259.723712 201.347231 
L 267.200187 201.440498 
L 274.676662 201.538079 
L 282.153137 201.636591 
L 289.629612 201.732632 
L 297.106087 201.544037 
L 304.582562 201.220487 
L 312.059037 200.890679 
L 319.535512 200.568203 
L 327.011987 200.252272 
L 334.488462 199.944515 
L 341.964937 199.647052 
L 349.441412 199.3622 
L 356.917887 199.092194 
L 364.394362 198.838958 
L 371.870837 198.605107 
L 379.347312 198.390055 
L 386.823787 198.192505 
L 394.300262 198.0145 
L 401.776737 197.855755 
L 409.253212 197.715866 
L 416.729686 197.59473 
L 424.206161 197.492755 
L 431.682636 197.41111 
" clip-path="url(#p842ef32413)" style="fill: none; stroke: #1f77b4; stroke-width: 1.5; stroke-linecap: square"/>
   </g>
   <g id="line2d_13">
    <path d="M 65.335364 239.434543 
L 72.811839 233.541276 
L 80.288314 228.432711 
L 87.764788 224.036382 
L 95.241263 220.267251 
L 102.717738 217.035757 
L 110.194213 214.251749 
L 117.670688 211.828624 
L 125.147163 209.68662 
L 132.623638 207.755321 
L 140.100113 205.9753 
L 147.576588 204.307468 
L 155.053063 202.72135 
L 162.529538 201.15671 
L 170.006013 200.29382 
L 177.482488 200.365049 
L 184.958963 200.451298 
L 192.435438 200.548888 
L 199.911913 200.656714 
L 207.388388 200.775166 
L 214.864863 200.905195 
L 222.341338 201.047577 
L 229.817813 201.202388 
L 237.294288 201.36872 
L 244.770763 201.544606 
L 252.247237 201.727123 
L 259.723712 201.91265 
L 267.200187 202.097194 
L 274.676662 202.276768 
L 282.153137 202.447745 
L 289.629612 202.607155 
L 297.106087 202.752894 
L 304.582562 202.883821 
L 312.059037 202.999746 
L 319.535512 203.10131 
L 327.011987 203.189773 
L 334.488462 203.266756 
L 341.964937 203.333953 
L 349.441412 203.392847 
L 356.917887 203.444486 
L 364.394362 203.489311 
L 371.870837 203.527096 
L 379.347312 203.556971 
L 386.823787 203.577557 
L 394.300262 203.587189 
L 401.776737 203.584208 
L 409.253212 203.567302 
L 416.729686 203.535862 
L 424.206161 203.49031 
L 431.682636 203.432393 
" clip-path="url(#p842ef32413)" style="fill: none; stroke: #ff7f0e; stroke-width: 1.5; stroke-linecap: square"/>
   </g>
   <g id="line2d_14">
    <path d="M 65.335364 253.517209 
L 72.811839 253.119085 
L 80.288314 252.755253 
L 87.764788 252.424546 
L 95.241263 252.124959 
L 102.717738 251.853914 
L 110.194213 251.560454 
L 117.670688 251.33806 
L 125.147163 251.112318 
L 132.623638 250.910471 
L 140.100113 250.719652 
L 147.576588 250.354721 
L 155.053063 249.907809 
L 162.529538 249.472313 
L 170.006013 249.044184 
L 177.482488 248.621647 
L 184.958963 248.204633 
L 192.435438 247.794208 
L 199.911913 247.392014 
L 207.388388 246.999793 
L 214.864863 246.619003 
L 222.341338 246.250551 
L 229.817813 245.89465 
L 237.294288 245.550788 
L 244.770763 245.2178 
L 252.247237 244.894022 
L 259.723712 244.577488 
L 267.200187 244.266159 
L 274.676662 243.958135 
L 282.153137 243.651849 
L 289.629612 243.3462 
L 297.106087 243.04063 
L 304.582562 242.735132 
L 312.059037 242.430199 
L 319.535512 242.12671 
L 327.011987 241.825786 
L 334.488462 241.528618 
L 341.964937 241.236292 
L 349.441412 240.949638 
L 356.917887 240.669101 
L 364.394362 240.394667 
L 371.870837 240.12584 
L 379.347312 239.861668 
L 386.823787 239.60083 
L 394.300262 239.341759 
L 401.776737 239.082802 
L 409.253212 238.822392 
L 416.729686 238.559218 
L 424.206161 238.292387 
L 431.682636 238.021545 
" clip-path="url(#p842ef32413)" style="fill: none; stroke: #2ca02c; stroke-width: 1.5; stroke-linecap: square"/>
   </g>
   <g id="line2d_15">
    <path d="M 65.335364 261.788411 
L 72.811839 261.548428 
L 80.288314 261.359051 
L 87.764788 261.216249 
L 95.241263 261.115078 
L 102.717738 261.050084 
L 110.194213 261.01567 
L 117.670688 259.833112 
L 125.147163 258.453614 
L 132.623638 257.061157 
L 140.100113 256.757455 
L 147.576588 256.910755 
L 155.053063 257.097054 
L 162.529538 257.26106 
L 170.006013 257.408403 
L 177.482488 257.543551 
L 184.958963 257.650338 
L 192.435438 257.723453 
L 199.911913 257.758006 
L 207.388388 257.74975 
L 214.864863 257.695293 
L 222.341338 257.592289 
L 229.817813 257.439603 
L 237.294288 257.237429 
L 244.770763 256.987364 
L 252.247237 256.692406 
L 259.723712 256.357457 
L 267.200187 255.987656 
L 274.676662 255.587287 
L 282.153137 255.168425 
L 289.629612 254.738011 
L 297.106087 254.303124 
L 304.582562 253.870996 
L 312.059037 253.448271 
L 319.535512 253.050397 
L 327.011987 252.680587 
L 334.488462 252.342617 
L 341.964937 252.040694 
L 349.441412 251.780495 
L 356.917887 251.560452 
L 364.394362 251.37916 
L 371.870837 251.233403 
L 379.347312 251.118269 
L 386.823787 251.027321 
L 394.300262 250.952832 
L 401.776737 250.886068 
L 409.253212 250.817612 
L 416.729686 250.7377 
L 424.206161 250.636574 
L 431.682636 250.504828 
" clip-path="url(#p842ef32413)" style="fill: none; stroke: #d62728; stroke-width: 1.5; stroke-linecap: square"/>
   </g>
   <g id="patch_3">
    <path d="M 47.018 302.2 
L 47.018 10.8 
" style="fill: none; stroke: #000000; stroke-width: 0.8; stroke-linejoin: miter; stroke-linecap: square"/>
   </g>
   <g id="patch_4">
    <path d="M 450 302.2 
L 450 10.8 
" style="fill: none; stroke: #000000; stroke-width: 0.8; stroke-linejoin: miter; stroke-linecap: square"/>
   </g>
   <g id="patch_5">
    <path d="M 47.018 302.2 
L 450 302.2 
" style="fill: none; stroke: #000000; stroke-width: 0.8; stroke-linejoin: miter; stroke-linecap: square"/>
   </g>
   <g id="patch_6">
    <path d="M 47.018 10.8 
L 450 10.8 
" style="fill: none; stroke: #000000; stroke-width: 0.8; stroke-linejoin: miter; stroke-linecap: square"/>
   </g>
   <g id="legend_1">
    <g id="patch_7">
     <path d="M 54.018 77.5125 
L 132.888313 77.5125 
Q 134.888313 77.5125 134.888313 75.5125 
L 134.888313 17.8 
Q 134.888313 15.8 132.888313 15.8 
L 54.018 15.8 
Q 52.018 15.8 52.018 17.8 
L 52.018 75.5125 
Q 52.018 77.5125 54.018 77.5125 
z
" style="fill: #ffffff; opacity: 0.8; stroke: #cccccc; stroke-linejoin: miter"/>
    </g>
    <g id="line2d_16">
     <path d="M 56.018 23.898438 
L 66.018 23.898438 
L 76.018 23.898438 
" style="fill: none; stroke: #1f77b4; stroke-width: 1.5; stroke-linecap: square"/>
    </g>
    <g id="text_14">
     <!-- Ts=100 K -->
     <g transform="translate(84.018 27.398438) scale(0.1 -0.1)">
      <defs>
       <path id="DejaVuSans-54" d="M -19 4666 
L 3928 4666 
L 3928 4134 
L 2272 4134 
L 2272 0 
L 1638 0 
L 1638 4134 
L -19 4134 
L -19 4666 
z
" transform="scale(0.015625)"/>
       <path id="DejaVuSans-73" d="M 2834 3397 
L 2834 2853 
Q 2591 2978 2328 3040 
Q 2066 3103 1784 3103 
Q 1356 3103 1142 2972 
Q 928 2841 928 2578 
Q 928 2378 1081 2264 
Q 1234 2150 1697 2047 
L 1894 2003 
Q 2506 1872 2764 1633 
Q 3022 1394 3022 966 
Q 3022 478 2636 193 
Q 2250 -91 1575 -91 
Q 1294 -91 989 -36 
Q 684 19 347 128 
L 347 722 
Q 666 556 975 473 
Q 1284 391 1588 391 
Q 1994 391 2212 530 
Q 2431 669 2431 922 
Q 2431 1156 2273 1281 
Q 2116 1406 1581 1522 
L 1381 1569 
Q 847 1681 609 1914 
Q 372 2147 372 2553 
Q 372 3047 722 3315 
Q 1072 3584 1716 3584 
Q 2034 3584 2315 3537 
Q 2597 3491 2834 3397 
z
" transform="scale(0.015625)"/>
       <path id="DejaVuSans-3d" d="M 678 2906 
L 4684 2906 
L 4684 2381 
L 678 2381 
L 678 2906 
z
M 678 1631 
L 4684 1631 
L 4684 1100 
L 678 1100 
L 678 1631 
z
" transform="scale(0.015625)"/>
       <path id="DejaVuSans-4b" d="M 628 4666 
L 1259 4666 
L 1259 2694 
L 3353 4666 
L 4166 4666 
L 1850 2491 
L 4331 0 
L 3500 0 
L 1259 2247 
L 1259 0 
L 628 0 
L 628 4666 
z
" transform="scale(0.015625)"/>
      </defs>
      <use xlink:href="#DejaVuSans-54"/>
      <use xlink:href="#DejaVuSans-73" transform="translate(44.583984 0)"/>
      <use xlink:href="#DejaVuSans-3d" transform="translate(96.683594 0)"/>
      <use xlink:href="#DejaVuSans-31" transform="translate(180.472656 0)"/>
      <use xlink:href="#DejaVuSans-30" transform="translate(244.095703 0)"/>
      <use xlink:href="#DejaVuSans-30" transform="translate(307.71875 0)"/>
      <use xlink:href="#DejaVuSans-20" transform="translate(371.341797 0)"/>
      <use xlink:href="#DejaVuSans-4b" transform="translate(403.128906 0)"/>
     </g>
    </g>
    <g id="line2d_17">
     <path d="M 56.018 38.576563 
L 66.018 38.576563 
L 76.018 38.576563 
" style="fill: none; stroke: #ff7f0e; stroke-width: 1.5; stroke-linecap: square"/>
    </g>
    <g id="text_15">
     <!-- Ts=160 K -->
     <g transform="translate(84.018 42.076563) scale(0.1 -0.1)">
      <defs>
       <path id="DejaVuSans-36" d="M 2113 2584 
Q 1688 2584 1439 2293 
Q 1191 2003 1191 1497 
Q 1191 994 1439 701 
Q 1688 409 2113 409 
Q 2538 409 2786 701 
Q 3034 994 3034 1497 
Q 3034 2003 2786 2293 
Q 2538 2584 2113 2584 
z
M 3366 4563 
L 3366 3988 
Q 3128 4100 2886 4159 
Q 2644 4219 2406 4219 
Q 1781 4219 1451 3797 
Q 1122 3375 1075 2522 
Q 1259 2794 1537 2939 
Q 1816 3084 2150 3084 
Q 2853 3084 3261 2657 
Q 3669 2231 3669 1497 
Q 3669 778 3244 343 
Q 2819 -91 2113 -91 
Q 1303 -91 875 529 
Q 447 1150 447 2328 
Q 447 3434 972 4092 
Q 1497 4750 2381 4750 
Q 2619 4750 2861 4703 
Q 3103 4656 3366 4563 
z
" transform="scale(0.015625)"/>
      </defs>
      <use xlink:href="#DejaVuSans-54"/>
      <use xlink:href="#DejaVuSans-73" transform="translate(44.583984 0)"/>
      <use xlink:href="#DejaVuSans-3d" transform="translate(96.683594 0)"/>
      <use xlink:href="#DejaVuSans-31" transform="translate(180.472656 0)"/>
      <use xlink:href="#DejaVuSans-36" transform="translate(244.095703 0)"/>
      <use xlink:href="#DejaVuSans-30" transform="translate(307.71875 0)"/>
      <use xlink:href="#DejaVuSans-20" transform="translate(371.341797 0)"/>
      <use xlink:href="#DejaVuSans-4b" transform="translate(403.128906 0)"/>
     </g>
    </g>
    <g id="line2d_18">
     <path d="M 56.018 53.254687 
L 66.018 53.254687 
L 76.018 53.254687 
" style="fill: none; stroke: #2ca02c; stroke-width: 1.5; stroke-linecap: square"/>
    </g>
    <g id="text_16">
     <!-- Ts=220 K -->
     <g transform="translate(84.018 56.754687) scale(0.1 -0.1)">
      <use xlink:href="#DejaVuSans-54"/>
      <use xlink:href="#DejaVuSans-73" transform="translate(44.583984 0)"/>
      <use xlink:href="#DejaVuSans-3d" transform="translate(96.683594 0)"/>
      <use xlink:href="#DejaVuSans-32" transform="translate(180.472656 0)"/>
      <use xlink:href="#DejaVuSans-32" transform="translate(244.095703 0)"/>
      <use xlink:href="#DejaVuSans-30" transform="translate(307.71875 0)"/>
      <use xlink:href="#DejaVuSans-20" transform="translate(371.341797 0)"/>
      <use xlink:href="#DejaVuSans-4b" transform="translate(403.128906 0)"/>
     </g>
    </g>
    <g id="line2d_19">
     <path d="M 56.018 67.932813 
L 66.018 67.932813 
L 76.018 67.932813 
" style="fill: none; stroke: #d62728; stroke-width: 1.5; stroke-linecap: square"/>
    </g>
    <g id="text_17">
     <!-- Ts=260 K -->
     <g transform="translate(84.018 71.432813) scale(0.1 -0.1)">
      <use xlink:href="#DejaVuSans-54"/>
      <use xlink:href="#DejaVuSans-73" transform="translate(44.583984 0)"/>
      <use xlink:href="#DejaVuSans-3d" transform="translate(96.683594 0)"/>
      <use xlink:href="#DejaVuSans-32" transform="translate(180.472656 0)"/>
      <use xlink:href="#DejaVuSans-36" transform="translate(244.095703 0)"/>
      <use xlink:href="#DejaVuSans-30" transform="translate(307.71875 0)"/>
      <use xlink:href="#DejaVuSans-20" transform="translate(371.341797 0)"/>
      <use xlink:href="#DejaVuSans-4b" transform="translate(403.128906 0)"/>
     </g>
    </g>
   </g>
  </g>
 </g>
 <defs>
  <clipPath id="p842ef32413">
   <rect x="47.018" y="10.8" width="402.982" height="291.4"/>
  </clipPath>
 </defs>
</svg>
