<?xml version="1.0" encoding="utf-8" standalone="no"?>
<!DOCTYPE svg PUBLIC "-//W3C//DTD SVG 1.1//EN"
  "http://www.w3.org/Graphics/SVG/1.1/DTD/svg11.dtd">
<svg xmlns:xlink="http://www.w3.org/1999/xlink" width="460.8pt" height="345.6pt" viewBox="0 0 460.8 345.6" xmlns="http://www.w3.org/2000/svg" version="1.1">
 <metadata>
  <rdf:RDF xmlns:dc="http://purl.org/dc/elements/1.1/" xmlns:cc="http://creativecommons.org/ns#" xmlns:rdf="http://www.w3.org/1999/02/22-rdf-syntax-ns#">
   <cc:Work>
    <dc:type rdf:resource="http://purl.org/dc/dcmitype/StillImage"/>
    <dc:date>2026-02-12T05:35:36.536882</dc:date>
    <dc:format>image/svg+xml</dc:format>
    <dc:creator>
     <cc:Agent>
      <dc:title>Matplotlib v3.10.8, https://matplotlib.org/</dc:title>
     </cc:Agent>
    </dc:creator>
   </cc:Work>
  </rdf:RDF>
 </metadata>
 <defs>
  <style type="text/css">*{stroke-linejoin: round; stroke-linecap: butt}</style>
 </defs>
 <g id="figure_1">
  <g id="patch_1">
   <path d="M 0 345.6 
L 460.8 345.6 
L 460.8 0 
L 0 0 
L 0 345.6 
z
" style="fill: none"/>
  </g>
  <g id="axes_1">
   <g id="patch_2">
    <path d="M 47.018 302.2 
L 450 302.2 
L 450 14.454323 
L 47.018 14.454323 
L 47.018 302.2 
z
" style="fill: none"/>
   </g>
   <g id="FillBetweenPolyCollection_1">
    <path d="M 65.335364 181.056202 
L 65.335364 252.92574 
L 72.811839 249.778461 
L 80.288314 247.450156 
L 87.764788 244.60668 
L 95.241263 240.87019 
L 102.717738 239.432992 
L 110.194213 239.047038 
L 117.670688 237.916488 
L 125.147163 237.342623 
L 132.623638 235.591329 
L 140.100113 235.819626 
L 147.576588 235.207138 
L 155.053063 234.849294 
L 162.529538 234.30586 
L 170.006013 233.136176 
L 177.482488 234.143825 
L 184.958963 234.186356 
L 192.435438 234.557974 
L 199.911913 234.21472 
L 207.388388 234.3671 
L 214.864863 233.838168 
L 222.341338 233.275793 
L 229.817813 232.36604 
L 237.294288 233.828607 
L 244.770763 232.97989 
L 252.247237 234.317147 
L 259.723712 232.945471 
L 267.200187 233.184759 
L 274.676662 234.249556 
L 282.153137 233.409957 
L 289.629612 233.407966 
L 297.106087 234.413616 
L 304.582562 233.38669 
L 312.059037 234.749037 
L 319.535512 233.937883 
L 327.011987 234.310933 
L 334.488462 235.424017 
L 341.964937 235.664453 
L 349.441412 235.054311 
L 356.917887 234.653067 
L 364.394362 234.59608 
L 371.870837 234.202854 
L 379.347312 237.107873 
L 386.823787 235.934063 
L 394.300262 234.829153 
L 401.776737 235.291014 
L 409.253212 235.176643 
L 416.729686 235.624139 
L 424.206161 236.290668 
L 431.682636 236.478692 
L 431.682636 27.533672 
L 431.682636 27.533672 
L 424.206161 30.289525 
L 416.729686 30.918844 
L 409.253212 33.51252 
L 401.776737 34.790073 
L 394.300262 37.379875 
L 386.823787 38.092382 
L 379.347312 39.979865 
L 371.870837 41.549237 
L 364.394362 44.132564 
L 356.917887 45.42096 
L 349.441412 46.65256 
L 341.964937 49.461936 
L 334.488462 51.290561 
L 327.011987 53.390809 
L 319.535512 55.538224 
L 312.059037 57.081361 
L 304.582562 59.41395 
L 297.106087 60.05449 
L 289.629612 63.352965 
L 282.153137 64.972388 
L 274.676662 67.349026 
L 267.200187 69.641731 
L 259.723712 72.115085 
L 252.247237 74.704761 
L 244.770763 76.026149 
L 237.294288 78.889927 
L 229.817813 82.211067 
L 222.341338 84.09959 
L 214.864863 86.832354 
L 207.388388 90.521003 
L 199.911913 92.388062 
L 192.435438 95.33569 
L 184.958963 97.293099 
L 177.482488 101.572825 
L 170.006013 104.560054 
L 162.529538 107.686628 
L 155.053063 110.354904 
L 147.576588 113.931647 
L 140.100113 116.772766 
L 132.623638 120.288355 
L 125.147163 124.814355 
L 117.670688 128.696148 
L 110.194213 135.108509 
L 102.717738 140.626434 
L 95.241263 147.569218 
L 87.764788 155.189544 
L 80.288314 164.733788 
L 72.811839 173.969915 
L 65.335364 181.056202 
z
" clip-path="url(#p3e4e1ab6b0)" style="fill: #1f77b4; fill-opacity: 0.45"/>
   </g>
   <g id="FillBetweenPolyCollection_2">
    <path d="M 65.335364 195.375162 
L 65.335364 262.52476 
L 72.811839 262.166367 
L 80.288314 259.491795 
L 87.764788 259.610789 
L 95.241263 256.183855 
L 102.717738 256.244005 
L 110.194213 254.997046 
L 117.670688 255.475342 
L 125.147163 255.474607 
L 132.623638 253.440337 
L 140.100113 255.385921 
L 147.576588 252.701611 
L 155.053063 253.712217 
L 162.529538 252.08217 
L 170.006013 251.530462 
L 177.482488 250.112833 
L 184.958963 250.501335 
L 192.435438 250.062941 
L 199.911913 251.845753 
L 207.388388 249.580064 
L 214.864863 248.159284 
L 222.341338 248.652101 
L 229.817813 248.866084 
L 237.294288 247.649888 
L 244.770763 247.301233 
L 252.247237 249.304393 
L 259.723712 248.50702 
L 267.200187 246.903706 
L 274.676662 247.808804 
L 282.153137 247.315135 
L 289.629612 247.650166 
L 297.106087 246.863082 
L 304.582562 247.675467 
L 312.059037 246.323703 
L 319.535512 246.892204 
L 327.011987 244.822624 
L 334.488462 244.151058 
L 341.964937 243.296993 
L 349.441412 245.112251 
L 356.917887 244.055443 
L 364.394362 243.720775 
L 371.870837 243.60086 
L 379.347312 242.496499 
L 386.823787 244.496649 
L 394.300262 242.518423 
L 401.776737 242.847707 
L 409.253212 242.655518 
L 416.729686 240.322787 
L 424.206161 240.022675 
L 431.682636 240.738908 
L 431.682636 151.072661 
L 431.682636 151.072661 
L 424.206161 151.623651 
L 416.729686 153.011051 
L 409.253212 153.207824 
L 401.776737 153.394882 
L 394.300262 155.051567 
L 386.823787 156.104497 
L 379.347312 156.814979 
L 371.870837 158.109595 
L 364.394362 158.097823 
L 356.917887 158.559395 
L 349.441412 160.985876 
L 341.964937 161.317045 
L 334.488462 161.77663 
L 327.011987 163.188727 
L 319.535512 163.529219 
L 312.059037 165.461852 
L 304.582562 166.04616 
L 297.106087 165.999499 
L 289.629612 167.279753 
L 282.153137 169.619544 
L 274.676662 170.527536 
L 267.200187 170.370883 
L 259.723712 171.93002 
L 252.247237 172.669253 
L 244.770763 174.312482 
L 237.294288 173.989615 
L 229.817813 174.942588 
L 222.341338 176.258406 
L 214.864863 177.242265 
L 207.388388 176.667458 
L 199.911913 177.508117 
L 192.435438 178.956253 
L 184.958963 177.896584 
L 177.482488 179.829592 
L 170.006013 180.344045 
L 162.529538 179.338754 
L 155.053063 179.330564 
L 147.576588 182.086471 
L 140.100113 181.210647 
L 132.623638 179.700608 
L 125.147163 179.632448 
L 117.670688 182.071695 
L 110.194213 181.065608 
L 102.717738 184.597557 
L 95.241263 184.704372 
L 87.764788 187.288157 
L 80.288314 189.906667 
L 72.811839 193.398427 
L 65.335364 195.375162 
z
" clip-path="url(#p3e4e1ab6b0)" style="fill: #ff7f0e; fill-opacity: 0.45"/>
   </g>
   <g id="FillBetweenPolyCollection_3">
    <path d="M 65.335364 227.85582 
L 65.335364 275.607816 
L 72.811839 273.992972 
L 80.288314 273.5022 
L 87.764788 271.782322 
L 95.241263 271.533724 
L 102.717738 271.307278 
L 110.194213 270.975325 
L 117.670688 271.092724 
L 125.147163 269.718814 
L 132.623638 270.780698 
L 140.100113 269.985938 
L 147.576588 270.944149 
L 155.053063 270.111662 
L 162.529538 270.867528 
L 170.006013 270.09339 
L 177.482488 269.273321 
L 184.958963 268.001145 
L 192.435438 267.062272 
L 199.911913 269.667311 
L 207.388388 265.901634 
L 214.864863 267.33094 
L 222.341338 268.6308 
L 229.817813 267.047982 
L 237.294288 267.970101 
L 244.770763 268.331075 
L 252.247237 267.058534 
L 259.723712 267.075372 
L 267.200187 267.0957 
L 274.676662 267.374477 
L 282.153137 266.18711 
L 289.629612 265.311906 
L 297.106087 266.812665 
L 304.582562 265.541039 
L 312.059037 264.179961 
L 319.535512 265.364377 
L 327.011987 265.4746 
L 334.488462 266.066327 
L 341.964937 265.879438 
L 349.441412 263.692109 
L 356.917887 264.650937 
L 364.394362 265.403561 
L 371.870837 264.460189 
L 379.347312 263.739478 
L 386.823787 265.591569 
L 394.300262 266.126553 
L 401.776737 263.990975 
L 409.253212 263.75574 
L 416.729686 265.008402 
L 424.206161 264.142956 
L 431.682636 262.944536 
L 431.682636 211.739144 
L 431.682636 211.739144 
L 424.206161 211.754402 
L 416.729686 212.05718 
L 409.253212 210.860287 
L 401.776737 210.248054 
L 394.300262 211.344576 
L 386.823787 211.917133 
L 379.347312 211.009535 
L 371.870837 211.599463 
L 364.394362 212.724034 
L 356.917887 210.152108 
L 349.441412 211.408472 
L 341.964937 212.354692 
L 334.488462 212.098574 
L 327.011987 213.812835 
L 319.535512 213.095678 
L 312.059037 214.579986 
L 304.582562 214.569316 
L 297.106087 212.966119 
L 289.629612 215.393918 
L 282.153137 212.488541 
L 274.676662 213.73234 
L 267.200187 214.787984 
L 259.723712 215.949204 
L 252.247237 215.72541 
L 244.770763 214.755105 
L 237.294288 216.550275 
L 229.817813 216.597603 
L 222.341338 216.873522 
L 214.864863 216.126479 
L 207.388388 216.577748 
L 199.911913 217.750923 
L 192.435438 217.606277 
L 184.958963 217.94298 
L 177.482488 218.536426 
L 170.006013 219.094121 
L 162.529538 220.70185 
L 155.053063 219.527094 
L 147.576588 219.196412 
L 140.100113 221.589832 
L 132.623638 220.829589 
L 125.147163 221.410857 
L 117.670688 221.164025 
L 110.194213 222.686845 
L 102.717738 224.802286 
L 95.241263 223.596039 
L 87.764788 225.76217 
L 80.288314 225.594777 
L 72.811839 226.318972 
L 65.335364 227.85582 
z
" clip-path="url(#p3e4e1ab6b0)" style="fill: #2ca02c; fill-opacity: 0.45"/>
   </g>
   <g id="FillBetweenPolyCollection_4">
    <path d="M 65.335364 234.221392 
L 65.335364 289.120651 
L 72.811839 286.883179 
L 80.288314 286.469654 
L 87.764788 288.497349 
L 95.241263 285.61488 
L 102.717738 284.497973 
L 110.194213 283.72916 
L 117.670688 283.541332 
L 125.147163 281.504283 
L 132.623638 280.604059 
L 140.100113 280.507843 
L 147.576588 278.201916 
L 155.053063 278.506443 
L 162.529538 277.584145 
L 170.006013 277.95303 
L 177.482488 276.924153 
L 184.958963 276.415005 
L 192.435438 276.376354 
L 199.911913 275.27796 
L 207.388388 275.072591 
L 214.864863 276.104272 
L 222.341338 275.855961 
L 229.817813 276.657322 
L 237.294288 276.937169 
L 244.770763 275.103177 
L 252.247237 274.696964 
L 259.723712 276.647066 
L 267.200187 276.309587 
L 274.676662 277.107858 
L 282.153137 278.223705 
L 289.629612 276.008547 
L 297.106087 276.484748 
L 304.582562 276.16478 
L 312.059037 277.260357 
L 319.535512 275.921342 
L 327.011987 277.025369 
L 334.488462 276.49165 
L 341.964937 277.972709 
L 349.441412 276.625319 
L 356.917887 280.005692 
L 364.394362 277.153299 
L 371.870837 277.604256 
L 379.347312 277.461851 
L 386.823787 276.667402 
L 394.300262 277.308623 
L 401.776737 276.553517 
L 409.253212 277.510427 
L 416.729686 276.661564 
L 424.206161 276.442175 
L 431.682636 276.792444 
L 431.682636 198.050165 
L 431.682636 198.050165 
L 424.206161 195.295615 
L 416.729686 193.739561 
L 409.253212 191.672437 
L 401.776737 190.531218 
L 394.300262 188.286367 
L 386.823787 188.456021 
L 379.347312 188.704356 
L 371.870837 187.358148 
L 364.394362 188.21001 
L 356.917887 187.219232 
L 349.441412 187.738705 
L 341.964937 186.761605 
L 334.488462 187.31859 
L 327.011987 188.532253 
L 319.535512 189.06052 
L 312.059037 189.021656 
L 304.582562 192.294609 
L 297.106087 191.082988 
L 289.629612 193.564748 
L 282.153137 194.34206 
L 274.676662 194.639659 
L 267.200187 199.266952 
L 259.723712 201.910788 
L 252.247237 204.510917 
L 244.770763 203.61646 
L 237.294288 205.417504 
L 229.817813 208.689191 
L 222.341338 210.795074 
L 214.864863 214.548913 
L 207.388388 216.007686 
L 199.911913 219.101474 
L 192.435438 219.048172 
L 184.958963 223.037991 
L 177.482488 225.102063 
L 170.006013 225.730089 
L 162.529538 228.723429 
L 155.053063 229.362852 
L 147.576588 229.713656 
L 140.100113 230.137204 
L 132.623638 230.435144 
L 125.147163 234.246471 
L 117.670688 231.472581 
L 110.194213 231.59609 
L 102.717738 233.504688 
L 95.241263 232.85789 
L 87.764788 234.737932 
L 80.288314 233.404438 
L 72.811839 230.973844 
L 65.335364 234.221392 
z
" clip-path="url(#p3e4e1ab6b0)" style="fill: #d62728; fill-opacity: 0.45"/>
   </g>
   <g id="matplotlib.axis_1">
    <g id="xtick_1">
     <g id="line2d_1">
      <defs>
       <path id="m1521e65cb4" d="M 0 0 
L 0 3.5 
" style="stroke: #000000; stroke-width: 0.8"/>
      </defs>
      <g>
       <use xlink:href="#m1521e65cb4" x="61.634886" y="302.2" style="stroke: #000000; stroke-width: 0.8"/>
      </g>
     </g>
     <g id="text_1">
      <!-- 0 -->
      <g transform="translate(58.453636 316.798437) scale(0.1 -0.1)">
       <defs>
        <path id="DejaVuSans-30" d="M 2034 4250 
Q 1547 4250 1301 3770 
Q 1056 3291 1056 2328 
Q 1056 1369 1301 889 
Q 1547 409 2034 409 
Q 2525 409 2770 889 
Q 3016 1369 3016 2328 
Q 3016 3291 2770 3770 
Q 2525 4250 2034 4250 
z
M 2034 4750 
Q 2819 4750 3233 4129 
Q 3647 3509 3647 2328 
Q 3647 1150 3233 529 
Q 2819 -91 2034 -91 
Q 1250 -91 836 529 
Q 422 1150 422 2328 
Q 422 3509 836 4129 
Q 1250 4750 2034 4750 
z
" transform="scale(0.015625)"/>
       </defs>
       <use xlink:href="#DejaVuSans-30"/>
      </g>
     </g>
    </g>
    <g id="xtick_2">
     <g id="line2d_2">
      <g>
       <use xlink:href="#m1521e65cb4" x="135.644436" y="302.2" style="stroke: #000000; stroke-width: 0.8"/>
      </g>
     </g>
     <g id="text_2">
      <!-- 1 -->
      <g transform="translate(132.463186 316.798437) scale(0.1 -0.1)">
       <defs>
        <path id="DejaVuSans-31" d="M 794 531 
L 1825 531 
L 1825 4091 
L 703 3866 
L 703 4441 
L 1819 4666 
L 2450 4666 
L 2450 531 
L 3481 531 
L 3481 0 
L 794 0 
L 794 531 
z
" transform="scale(0.015625)"/>
       </defs>
       <use xlink:href="#DejaVuSans-31"/>
      </g>
     </g>
    </g>
    <g id="xtick_3">
     <g id="line2d_3">
      <g>
       <use xlink:href="#m1521e65cb4" x="209.653986" y="302.2" style="stroke: #000000; stroke-width: 0.8"/>
      </g>
     </g>
     <g id="text_3">
      <!-- 2 -->
      <g transform="translate(206.472736 316.798437) scale(0.1 -0.1)">
       <defs>
        <path id="DejaVuSans-32" d="M 1228 531 
L 3431 531 
L 3431 0 
L 469 0 
L 469 531 
Q 828 903 1448 1529 
Q 2069 2156 2228 2338 
Q 2531 2678 2651 2914 
Q 2772 3150 2772 3378 
Q 2772 3750 2511 3984 
Q 2250 4219 1831 4219 
Q 1534 4219 1204 4116 
Q 875 4013 500 3803 
L 500 4441 
Q 881 4594 1212 4672 
Q 1544 4750 1819 4750 
Q 2544 4750 2975 4387 
Q 3406 4025 3406 3419 
Q 3406 3131 3298 2873 
Q 3191 2616 2906 2266 
Q 2828 2175 2409 1742 
Q 1991 1309 1228 531 
z
" transform="scale(0.015625)"/>
       </defs>
       <use xlink:href="#DejaVuSans-32"/>
      </g>
     </g>
    </g>
    <g id="xtick_4">
     <g id="line2d_4">
      <g>
       <use xlink:href="#m1521e65cb4" x="283.663536" y="302.2" style="stroke: #000000; stroke-width: 0.8"/>
      </g>
     </g>
     <g id="text_4">
      <!-- 3 -->
      <g transform="translate(280.482286 316.798437) scale(0.1 -0.1)">
       <defs>
        <path id="DejaVuSans-33" d="M 2597 2516 
Q 3050 2419 3304 2112 
Q 3559 1806 3559 1356 
Q 3559 666 3084 287 
Q 2609 -91 1734 -91 
Q 1441 -91 1130 -33 
Q 819 25 488 141 
L 488 750 
Q 750 597 1062 519 
Q 1375 441 1716 441 
Q 2309 441 2620 675 
Q 2931 909 2931 1356 
Q 2931 1769 2642 2001 
Q 2353 2234 1838 2234 
L 1294 2234 
L 1294 2753 
L 1863 2753 
Q 2328 2753 2575 2939 
Q 2822 3125 2822 3475 
Q 2822 3834 2567 4026 
Q 2313 4219 1838 4219 
Q 1578 4219 1281 4162 
Q 984 4106 628 3988 
L 628 4550 
Q 988 4650 1302 4700 
Q 1616 4750 1894 4750 
Q 2613 4750 3031 4423 
Q 3450 4097 3450 3541 
Q 3450 3153 3228 2886 
Q 3006 2619 2597 2516 
z
" transform="scale(0.015625)"/>
       </defs>
       <use xlink:href="#DejaVuSans-33"/>
      </g>
     </g>
    </g>
    <g id="xtick_5">
     <g id="line2d_5">
      <g>
       <use xlink:href="#m1521e65cb4" x="357.673086" y="302.2" style="stroke: #000000; stroke-width: 0.8"/>
      </g>
     </g>
     <g id="text_5">
      <!-- 4 -->
      <g transform="translate(354.491836 316.798437) scale(0.1 -0.1)">
       <defs>
        <path id="DejaVuSans-34" d="M 2419 4116 
L 825 1625 
L 2419 1625 
L 2419 4116 
z
M 2253 4666 
L 3047 4666 
L 3047 1625 
L 3713 1625 
L 3713 1100 
L 3047 1100 
L 3047 0 
L 2419 0 
L 2419 1100 
L 313 1100 
L 313 1709 
L 2253 4666 
z
" transform="scale(0.015625)"/>
       </defs>
       <use xlink:href="#DejaVuSans-34"/>
      </g>
     </g>
    </g>
    <g id="xtick_6">
     <g id="line2d_6">
      <g>
       <use xlink:href="#m1521e65cb4" x="431.682636" y="302.2" style="stroke: #000000; stroke-width: 0.8"/>
      </g>
     </g>
     <g id="text_6">
      <!-- 5 -->
      <g transform="translate(428.501386 316.798437) scale(0.1 -0.1)">
       <defs>
        <path id="DejaVuSans-35" d="M 691 4666 
L 3169 4666 
L 3169 4134 
L 1269 4134 
L 1269 2991 
Q 1406 3038 1543 3061 
Q 1681 3084 1819 3084 
Q 2600 3084 3056 2656 
Q 3513 2228 3513 1497 
Q 3513 744 3044 326 
Q 2575 -91 1722 -91 
Q 1428 -91 1123 -41 
Q 819 9 494 109 
L 494 744 
Q 775 591 1075 516 
Q 1375 441 1709 441 
Q 2250 441 2565 725 
Q 2881 1009 2881 1497 
Q 2881 1984 2565 2268 
Q 2250 2553 1709 2553 
Q 1456 2553 1204 2497 
Q 953 2441 691 2322 
L 691 4666 
z
" transform="scale(0.015625)"/>
       </defs>
       <use xlink:href="#DejaVuSans-35"/>
      </g>
     </g>
    </g>
    <g id="text_7">
     <!-- $W$ (m/hour) -->
     <g transform="translate(220.059 330.476562) scale(0.1 -0.1)">
      <defs>
       <path id="DejaVuSans-Oblique-57" d="M 616 4666 
L 1228 4666 
L 1453 697 
L 3213 4666 
L 3916 4666 
L 4147 697 
L 5888 4666 
L 6528 4666 
L 4453 0 
L 3659 0 
L 3444 3891 
L 1697 0 
L 903 0 
L 616 4666 
z
" transform="scale(0.015625)"/>
       <path id="DejaVuSans-20" transform="scale(0.015625)"/>
       <path id="DejaVuSans-28" d="M 1984 4856 
Q 1566 4138 1362 3434 
Q 1159 2731 1159 2009 
Q 1159 1288 1364 580 
Q 1569 -128 1984 -844 
L 1484 -844 
Q 1016 -109 783 600 
Q 550 1309 550 2009 
Q 550 2706 781 3412 
Q 1013 4119 1484 4856 
L 1984 4856 
z
" transform="scale(0.015625)"/>
       <path id="DejaVuSans-6d" d="M 3328 2828 
Q 3544 3216 3844 3400 
Q 4144 3584 4550 3584 
Q 5097 3584 5394 3201 
Q 5691 2819 5691 2113 
L 5691 0 
L 5113 0 
L 5113 2094 
Q 5113 2597 4934 2840 
Q 4756 3084 4391 3084 
Q 3944 3084 3684 2787 
Q 3425 2491 3425 1978 
L 3425 0 
L 2847 0 
L 2847 2094 
Q 2847 2600 2669 2842 
Q 2491 3084 2119 3084 
Q 1678 3084 1418 2786 
Q 1159 2488 1159 1978 
L 1159 0 
L 581 0 
L 581 3500 
L 1159 3500 
L 1159 2956 
Q 1356 3278 1631 3431 
Q 1906 3584 2284 3584 
Q 2666 3584 2933 3390 
Q 3200 3197 3328 2828 
z
" transform="scale(0.015625)"/>
       <path id="DejaVuSans-2f" d="M 1625 4666 
L 2156 4666 
L 531 -594 
L 0 -594 
L 1625 4666 
z
" transform="scale(0.015625)"/>
       <path id="DejaVuSans-68" d="M 3513 2113 
L 3513 0 
L 2938 0 
L 2938 2094 
Q 2938 2591 2744 2837 
Q 2550 3084 2163 3084 
Q 1697 3084 1428 2787 
Q 1159 2491 1159 1978 
L 1159 0 
L 581 0 
L 581 4863 
L 1159 4863 
L 1159 2956 
Q 1366 3272 1645 3428 
Q 1925 3584 2291 3584 
Q 2894 3584 3203 3211 
Q 3513 2838 3513 2113 
z
" transform="scale(0.015625)"/>
       <path id="DejaVuSans-6f" d="M 1959 3097 
Q 1497 3097 1228 2736 
Q 959 2375 959 1747 
Q 959 1119 1226 758 
Q 1494 397 1959 397 
Q 2419 397 2687 759 
Q 2956 1122 2956 1747 
Q 2956 2369 2687 2733 
Q 2419 3097 1959 3097 
z
M 1959 3584 
Q 2709 3584 3137 3096 
Q 3566 2609 3566 1747 
Q 3566 888 3137 398 
Q 2709 -91 1959 -91 
Q 1206 -91 779 398 
Q 353 888 353 1747 
Q 353 2609 779 3096 
Q 1206 3584 1959 3584 
z
" transform="scale(0.015625)"/>
       <path id="DejaVuSans-75" d="M 544 1381 
L 544 3500 
L 1119 3500 
L 1119 1403 
Q 1119 906 1312 657 
Q 1506 409 1894 409 
Q 2359 409 2629 706 
Q 2900 1003 2900 1516 
L 2900 3500 
L 3475 3500 
L 3475 0 
L 2900 0 
L 2900 538 
Q 2691 219 2414 64 
Q 2138 -91 1772 -91 
Q 1169 -91 856 284 
Q 544 659 544 1381 
z
M 1991 3584 
L 1991 3584 
z
" transform="scale(0.015625)"/>
       <path id="DejaVuSans-72" d="M 2631 2963 
Q 2534 3019 2420 3045 
Q 2306 3072 2169 3072 
Q 1681 3072 1420 2755 
Q 1159 2438 1159 1844 
L 1159 0 
L 581 0 
L 581 3500 
L 1159 3500 
L 1159 2956 
Q 1341 3275 1631 3429 
Q 1922 3584 2338 3584 
Q 2397 3584 2469 3576 
Q 2541 3569 2628 3553 
L 2631 2963 
z
" transform="scale(0.015625)"/>
       <path id="DejaVuSans-29" d="M 513 4856 
L 1013 4856 
Q 1481 4119 1714 3412 
Q 1947 2706 1947 2009 
Q 1947 1309 1714 600 
Q 1481 -109 1013 -844 
L 513 -844 
Q 928 -128 1133 580 
Q 1338 1288 1338 2009 
Q 1338 2731 1133 3434 
Q 928 4138 513 4856 
z
" transform="scale(0.015625)"/>
      </defs>
      <use xlink:href="#DejaVuSans-Oblique-57" transform="translate(0 0.015625)"/>
      <use xlink:href="#DejaVuSans-20" transform="translate(98.876953 0.015625)"/>
      <use xlink:href="#DejaVuSans-28" transform="translate(130.664062 0.015625)"/>
      <use xlink:href="#DejaVuSans-6d" transform="translate(169.677734 0.015625)"/>
      <use xlink:href="#DejaVuSans-2f" transform="translate(267.089844 0.015625)"/>
      <use xlink:href="#DejaVuSans-68" transform="translate(300.78125 0.015625)"/>
      <use xlink:href="#DejaVuSans-6f" transform="translate(364.160156 0.015625)"/>
      <use xlink:href="#DejaVuSans-75" transform="translate(425.341797 0.015625)"/>
      <use xlink:href="#DejaVuSans-72" transform="translate(488.720703 0.015625)"/>
      <use xlink:href="#DejaVuSans-29" transform="translate(529.833984 0.015625)"/>
     </g>
    </g>
   </g>
   <g id="matplotlib.axis_2">
    <g id="ytick_1">
     <g id="line2d_7">
      <defs>
       <path id="m4787f72b47" d="M 0 0 
L -3.5 0 
" style="stroke: #000000; stroke-width: 0.8"/>
      </defs>
      <g>
       <use xlink:href="#m4787f72b47" x="47.018" y="266.491097" style="stroke: #000000; stroke-width: 0.8"/>
      </g>
     </g>
     <g id="text_8">
      <!-- 0 -->
      <g transform="translate(33.6555 270.290316) scale(0.1 -0.1)">
       <use xlink:href="#DejaVuSans-30"/>
      </g>
     </g>
    </g>
    <g id="ytick_2">
     <g id="line2d_8">
      <g>
       <use xlink:href="#m4787f72b47" x="47.018" y="203.564535" style="stroke: #000000; stroke-width: 0.8"/>
      </g>
     </g>
     <g id="text_9">
      <!-- 10 -->
      <g transform="translate(27.293 207.363754) scale(0.1 -0.1)">
       <use xlink:href="#DejaVuSans-31"/>
       <use xlink:href="#DejaVuSans-30" transform="translate(63.623047 0)"/>
      </g>
     </g>
    </g>
    <g id="ytick_3">
     <g id="line2d_9">
      <g>
       <use xlink:href="#m4787f72b47" x="47.018" y="140.637973" style="stroke: #000000; stroke-width: 0.8"/>
      </g>
     </g>
     <g id="text_10">
      <!-- 20 -->
      <g transform="translate(27.293 144.437192) scale(0.1 -0.1)">
       <use xlink:href="#DejaVuSans-32"/>
       <use xlink:href="#DejaVuSans-30" transform="translate(63.623047 0)"/>
      </g>
     </g>
    </g>
    <g id="ytick_4">
     <g id="line2d_10">
      <g>
       <use xlink:href="#m4787f72b47" x="47.018" y="77.711412" style="stroke: #000000; stroke-width: 0.8"/>
      </g>
     </g>
     <g id="text_11">
      <!-- 30 -->
      <g transform="translate(27.293 81.510631) scale(0.1 -0.1)">
       <use xlink:href="#DejaVuSans-33"/>
       <use xlink:href="#DejaVuSans-30" transform="translate(63.623047 0)"/>
      </g>
     </g>
    </g>
    <g id="ytick_5">
     <g id="line2d_11">
      <g>
       <use xlink:href="#m4787f72b47" x="47.018" y="14.78485" style="stroke: #000000; stroke-width: 0.8"/>
      </g>
     </g>
     <g id="text_12">
      <!-- 40 -->
      <g transform="translate(27.293 18.584069) scale(0.1 -0.1)">
       <use xlink:href="#DejaVuSans-34"/>
       <use xlink:href="#DejaVuSans-30" transform="translate(63.623047 0)"/>
      </g>
     </g>
    </g>
    <g id="text_13">
     <!-- $Q_{lc}$ (kW) -->
     <g transform="translate(21.213312 178.627161) rotate(-90) scale(0.1 -0.1)">
      <defs>
       <path id="DejaVuSans-Oblique-51" d="M 2309 -84 
Q 2275 -88 2237 -89 
Q 2200 -91 2125 -91 
Q 1250 -91 756 411 
Q 263 913 263 1797 
Q 263 2319 452 2844 
Q 641 3369 978 3788 
Q 1369 4269 1858 4509 
Q 2347 4750 2938 4750 
Q 3794 4750 4287 4245 
Q 4781 3741 4781 2869 
Q 4781 1928 4265 1147 
Q 3750 366 2919 44 
L 3553 -825 
L 2847 -825 
L 2309 -84 
z
M 2919 4238 
Q 2400 4238 2003 3986 
Q 1606 3734 1313 3219 
Q 1125 2891 1026 2522 
Q 928 2153 928 1778 
Q 928 1128 1239 775 
Q 1550 422 2119 422 
Q 2631 422 3032 676 
Q 3434 931 3719 1434 
Q 3909 1772 4009 2142 
Q 4109 2513 4109 2881 
Q 4109 3528 3796 3883 
Q 3484 4238 2919 4238 
z
" transform="scale(0.015625)"/>
       <path id="DejaVuSans-Oblique-6c" d="M 1172 4863 
L 1747 4863 
L 800 0 
L 225 0 
L 1172 4863 
z
" transform="scale(0.015625)"/>
       <path id="DejaVuSans-Oblique-63" d="M 3431 3366 
L 3316 2797 
Q 3109 2947 2876 3022 
Q 2644 3097 2394 3097 
Q 2119 3097 1870 3000 
Q 1622 2903 1453 2725 
Q 1184 2453 1037 2087 
Q 891 1722 891 1331 
Q 891 859 1127 628 
Q 1363 397 1844 397 
Q 2081 397 2348 469 
Q 2616 541 2906 684 
L 2797 116 
Q 2547 13 2283 -39 
Q 2019 -91 1741 -91 
Q 1044 -91 669 257 
Q 294 606 294 1253 
Q 294 1797 489 2255 
Q 684 2713 1069 3078 
Q 1331 3328 1684 3456 
Q 2038 3584 2456 3584 
Q 2700 3584 2940 3529 
Q 3181 3475 3431 3366 
z
" transform="scale(0.015625)"/>
       <path id="DejaVuSans-6b" d="M 581 4863 
L 1159 4863 
L 1159 1991 
L 2875 3500 
L 3609 3500 
L 1753 1863 
L 3688 0 
L 2938 0 
L 1159 1709 
L 1159 0 
L 581 0 
L 581 4863 
z
" transform="scale(0.015625)"/>
       <path id="DejaVuSans-57" d="M 213 4666 
L 850 4666 
L 1831 722 
L 2809 4666 
L 3519 4666 
L 4500 722 
L 5478 4666 
L 6119 4666 
L 4947 0 
L 4153 0 
L 3169 4050 
L 2175 0 
L 1381 0 
L 213 4666 
z
" transform="scale(0.015625)"/>
      </defs>
      <use xlink:href="#DejaVuSans-Oblique-51" transform="translate(0 0.015625)"/>
      <use xlink:href="#DejaVuSans-Oblique-6c" transform="translate(78.710938 -16.390625) scale(0.7)"/>
      <use xlink:href="#DejaVuSans-Oblique-63" transform="translate(98.15918 -16.390625) scale(0.7)"/>
      <use xlink:href="#DejaVuSans-20" transform="translate(139.379883 0.015625)"/>
      <use xlink:href="#DejaVuSans-28" transform="translate(171.166992 0.015625)"/>
      <use xlink:href="#DejaVuSans-6b" transform="translate(210.180664 0.015625)"/>
      <use xlink:href="#DejaVuSans-57" transform="translate(268.09082 0.015625)"/>
      <use xlink:href="#DejaVuSans-29" transform="translate(366.967773 0.015625)"/>
     </g>
    </g>
   </g>
   <g id="line2d_12">
    <path d="M 65.335364 204.152108 
L 72.811839 200.543631 
L 80.288314 199.817135 
L 87.764788 200.166747 
L 95.241263 200.091884 
L 102.717738 200.643147 
L 110.194213 200.087971 
L 117.670688 199.754246 
L 125.147163 198.806605 
L 132.623638 198.483966 
L 140.100113 197.819346 
L 147.576588 197.050186 
L 155.053063 196.619532 
L 162.529538 196.552494 
L 170.006013 195.763958 
L 177.482488 194.869374 
L 184.958963 194.652533 
L 192.435438 194.536598 
L 199.911913 194.86504 
L 207.388388 194.061855 
L 214.864863 194.399783 
L 222.341338 193.384766 
L 229.817813 193.296706 
L 237.294288 193.280242 
L 244.770763 193.081866 
L 252.247237 193.566577 
L 259.723712 193.685486 
L 267.200187 192.209019 
L 274.676662 192.573174 
L 282.153137 192.804592 
L 289.629612 193.596884 
L 297.106087 192.382556 
L 304.582562 192.894179 
L 312.059037 192.349348 
L 319.535512 192.9371 
L 327.011987 193.018297 
L 334.488462 193.013491 
L 341.964937 192.925983 
L 349.441412 192.365799 
L 356.917887 193.200738 
L 364.394362 192.198787 
L 371.870837 192.434031 
L 379.347312 191.652008 
L 386.823787 192.243248 
L 394.300262 191.879495 
L 401.776737 192.489539 
L 409.253212 192.889777 
L 416.729686 192.332106 
L 424.206161 191.763773 
L 431.682636 193.559176 
" clip-path="url(#p3e4e1ab6b0)" style="fill: none; stroke: #1f77b4; stroke-width: 1.5; stroke-linecap: square"/>
   </g>
   <g id="line2d_13">
    <path d="M 65.335364 232.774101 
L 72.811839 227.645328 
L 80.288314 223.600289 
L 87.764788 219.697518 
L 95.241263 217.293671 
L 102.717738 214.146065 
L 110.194213 212.289738 
L 117.670688 210.258901 
L 125.147163 208.414288 
L 132.623638 205.994478 
L 140.100113 205.648869 
L 147.576588 205.010409 
L 155.053063 203.961247 
L 162.529538 203.643182 
L 170.006013 202.897232 
L 177.482488 202.145708 
L 184.958963 201.133346 
L 192.435438 200.501487 
L 199.911913 200.553969 
L 207.388388 199.661324 
L 214.864863 199.623235 
L 222.341338 199.371008 
L 229.817813 199.583465 
L 237.294288 198.746925 
L 244.770763 198.439683 
L 252.247237 198.861056 
L 259.723712 199.70335 
L 267.200187 198.848536 
L 274.676662 199.507504 
L 282.153137 199.527718 
L 289.629612 199.980782 
L 297.106087 199.747509 
L 304.582562 200.130614 
L 312.059037 198.483834 
L 319.535512 199.677868 
L 327.011987 198.778901 
L 334.488462 198.632609 
L 341.964937 198.508188 
L 349.441412 198.922923 
L 356.917887 199.574444 
L 364.394362 199.114265 
L 371.870837 199.413104 
L 379.347312 198.964406 
L 386.823787 199.087201 
L 394.300262 200.446421 
L 401.776737 198.858831 
L 409.253212 200.218931 
L 416.729686 199.432978 
L 424.206161 199.37874 
L 431.682636 198.300169 
" clip-path="url(#p3e4e1ab6b0)" style="fill: none; stroke: #ff7f0e; stroke-width: 1.5; stroke-linecap: square"/>
   </g>
   <g id="line2d_14">
    <path d="M 65.335364 254.573613 
L 72.811839 253.393809 
L 80.288314 251.889594 
L 87.764788 251.331996 
L 95.241263 250.551975 
L 102.717738 249.959921 
L 110.194213 249.691306 
L 117.670688 248.812609 
L 125.147163 248.303876 
L 132.623638 247.685406 
L 140.100113 247.187451 
L 147.576588 246.723528 
L 155.053063 246.30316 
L 162.529538 246.517472 
L 170.006013 246.035008 
L 177.482488 245.730952 
L 184.958963 244.596547 
L 192.435438 244.909881 
L 199.911913 243.95671 
L 207.388388 244.006419 
L 214.864863 243.729698 
L 222.341338 243.15904 
L 229.817813 242.937184 
L 237.294288 242.738371 
L 244.770763 241.99813 
L 252.247237 241.915608 
L 259.723712 242.014814 
L 267.200187 241.505302 
L 274.676662 241.115174 
L 282.153137 241.08194 
L 289.629612 240.46316 
L 297.106087 240.363112 
L 304.582562 239.73482 
L 312.059037 239.660422 
L 319.535512 239.081466 
L 327.011987 239.382873 
L 334.488462 239.140134 
L 341.964937 238.689743 
L 349.441412 238.786134 
L 356.917887 238.583393 
L 364.394362 238.145802 
L 371.870837 237.97303 
L 379.347312 237.947222 
L 386.823787 237.542138 
L 394.300262 237.168709 
L 401.776737 237.366143 
L 409.253212 237.156415 
L 416.729686 237.102591 
L 424.206161 236.564296 
L 431.682636 236.488642 
" clip-path="url(#p3e4e1ab6b0)" style="fill: none; stroke: #2ca02c; stroke-width: 1.5; stroke-linecap: square"/>
   </g>
   <g id="line2d_15">
    <path d="M 65.335364 261.739118 
L 72.811839 260.742881 
L 80.288314 261.150226 
L 87.764788 260.214483 
L 95.241263 259.729355 
L 102.717738 259.006165 
L 110.194213 259.271345 
L 117.670688 258.488382 
L 125.147163 257.38653 
L 132.623638 257.343916 
L 140.100113 256.599884 
L 147.576588 255.152124 
L 155.053063 254.307243 
L 162.529538 253.771026 
L 170.006013 253.737295 
L 177.482488 252.520171 
L 184.958963 251.601776 
L 192.435438 251.365964 
L 199.911913 249.863017 
L 207.388388 248.402104 
L 214.864863 248.749889 
L 222.341338 247.863193 
L 229.817813 247.123656 
L 237.294288 246.582355 
L 244.770763 245.125065 
L 252.247237 244.9021 
L 259.723712 245.603917 
L 267.200187 244.39346 
L 274.676662 243.150251 
L 282.153137 243.716709 
L 289.629612 243.838546 
L 297.106087 243.750926 
L 304.582562 242.453394 
L 312.059037 242.572436 
L 319.535512 242.821558 
L 327.011987 243.005539 
L 334.488462 242.050288 
L 341.964937 242.357922 
L 349.441412 242.282834 
L 356.917887 243.082078 
L 364.394362 242.244291 
L 371.870837 242.024255 
L 379.347312 242.272247 
L 386.823787 241.349649 
L 394.300262 241.104827 
L 401.776737 241.499439 
L 409.253212 242.028342 
L 416.729686 241.587545 
L 424.206161 240.806344 
L 431.682636 241.822526 
" clip-path="url(#p3e4e1ab6b0)" style="fill: none; stroke: #d62728; stroke-width: 1.5; stroke-linecap: square"/>
   </g>
   <g id="patch_3">
    <path d="M 47.018 302.2 
L 47.018 14.454323 
" style="fill: none; stroke: #000000; stroke-width: 0.8; stroke-linejoin: miter; stroke-linecap: square"/>
   </g>
   <g id="patch_4">
    <path d="M 450 302.2 
L 450 14.454323 
" style="fill: none; stroke: #000000; stroke-width: 0.8; stroke-linejoin: miter; stroke-linecap: square"/>
   </g>
   <g id="patch_5">
    <path d="M 47.018 302.2 
L 450 302.2 
" style="fill: none; stroke: #000000; stroke-width: 0.8; stroke-linejoin: miter; stroke-linecap: square"/>
   </g>
   <g id="patch_6">
    <path d="M 47.018 14.454323 
L 450 14.454323 
" style="fill: none; stroke: #000000; stroke-width: 0.8; stroke-linejoin: miter; stroke-linecap: square"/>
   </g>
   <g id="legend_1">
    <g id="patch_7">
     <path d="M 54.018 81.166823 
L 132.888313 81.166823 
Q 134.888313 81.166823 134.888313 79.166823 
L 134.888313 21.454323 
Q 134.888313 19.454323 132.888313 19.454323 
L 54.018 19.454323 
Q 52.018 19.454323 52.018 21.454323 
L 52.018 79.166823 
Q 52.018 81.166823 54.018 81.166823 
z
" style="fill: #ffffff; opacity: 0.8; stroke: #cccccc; stroke-linejoin: miter"/>
    </g>
    <g id="line2d_16">
     <path d="M 56.018 27.55276 
L 66.018 27.55276 
L 76.018 27.55276 
" style="fill: none; stroke: #1f77b4; stroke-width: 1.5; stroke-linecap: square"/>
    </g>
    <g id="text_14">
     <!-- Ts=100 K -->
     <g transform="translate(84.018 31.05276) scale(0.1 -0.1)">
      <defs>
       <path id="DejaVuSans-54" d="M -19 4666 
L 3928 4666 
L 3928 4134 
L 2272 4134 
L 2272 0 
L 1638 0 
L 1638 4134 
L -19 4134 
L -19 4666 
z
" transform="scale(0.015625)"/>
       <path id="DejaVuSans-73" d="M 2834 3397 
L 2834 2853 
Q 2591 2978 2328 3040 
Q 2066 3103 1784 3103 
Q 1356 3103 1142 2972 
Q 928 2841 928 2578 
Q 928 2378 1081 2264 
Q 1234 2150 1697 2047 
L 1894 2003 
Q 2506 1872 2764 1633 
Q 3022 1394 3022 966 
Q 3022 478 2636 193 
Q 2250 -91 1575 -91 
Q 1294 -91 989 -36 
Q 684 19 347 128 
L 347 722 
Q 666 556 975 473 
Q 1284 391 1588 391 
Q 1994 391 2212 530 
Q 2431 669 2431 922 
Q 2431 1156 2273 1281 
Q 2116 1406 1581 1522 
L 1381 1569 
Q 847 1681 609 1914 
Q 372 2147 372 2553 
Q 372 3047 722 3315 
Q 1072 3584 1716 3584 
Q 2034 3584 2315 3537 
Q 2597 3491 2834 3397 
z
" transform="scale(0.015625)"/>
       <path id="DejaVuSans-3d" d="M 678 2906 
L 4684 2906 
L 4684 2381 
L 678 2381 
L 678 2906 
z
M 678 1631 
L 4684 1631 
L 4684 1100 
L 678 1100 
L 678 1631 
z
" transform="scale(0.015625)"/>
       <path id="DejaVuSans-4b" d="M 628 4666 
L 1259 4666 
L 1259 2694 
L 3353 4666 
L 4166 4666 
L 1850 2491 
L 4331 0 
L 3500 0 
L 1259 2247 
L 1259 0 
L 628 0 
L 628 4666 
z
" transform="scale(0.015625)"/>
      </defs>
      <use xlink:href="#DejaVuSans-54"/>
      <use xlink:href="#DejaVuSans-73" transform="translate(44.583984 0)"/>
      <use xlink:href="#DejaVuSans-3d" transform="translate(96.683594 0)"/>
      <use xlink:href="#DejaVuSans-31" transform="translate(180.472656 0)"/>
      <use xlink:href="#DejaVuSans-30" transform="translate(244.095703 0)"/>
      <use xlink:href="#DejaVuSans-30" transform="translate(307.71875 0)"/>
      <use xlink:href="#DejaVuSans-20" transform="translate(371.341797 0)"/>
      <use xlink:href="#DejaVuSans-4b" transform="translate(403.128906 0)"/>
     </g>
    </g>
    <g id="line2d_17">
     <path d="M 56.018 42.230885 
L 66.018 42.230885 
L 76.018 42.230885 
" style="fill: none; stroke: #ff7f0e; stroke-width: 1.5; stroke-linecap: square"/>
    </g>
    <g id="text_15">
     <!-- Ts=160 K -->
     <g transform="translate(84.018 45.730885) scale(0.1 -0.1)">
      <defs>
       <path id="DejaVuSans-36" d="M 2113 2584 
Q 1688 2584 1439 2293 
Q 1191 2003 1191 1497 
Q 1191 994 1439 701 
Q 1688 409 2113 409 
Q 2538 409 2786 701 
Q 3034 994 3034 1497 
Q 3034 2003 2786 2293 
Q 2538 2584 2113 2584 
z
M 3366 4563 
L 3366 3988 
Q 3128 4100 2886 4159 
Q 2644 4219 2406 4219 
Q 1781 4219 1451 3797 
Q 1122 3375 1075 2522 
Q 1259 2794 1537 2939 
Q 1816 3084 2150 3084 
Q 2853 3084 3261 2657 
Q 3669 2231 3669 1497 
Q 3669 778 3244 343 
Q 2819 -91 2113 -91 
Q 1303 -91 875 529 
Q 447 1150 447 2328 
Q 447 3434 972 4092 
Q 1497 4750 2381 4750 
Q 2619 4750 2861 4703 
Q 3103 4656 3366 4563 
z
" transform="scale(0.015625)"/>
      </defs>
      <use xlink:href="#DejaVuSans-54"/>
      <use xlink:href="#DejaVuSans-73" transform="translate(44.583984 0)"/>
      <use xlink:href="#DejaVuSans-3d" transform="translate(96.683594 0)"/>
      <use xlink:href="#DejaVuSans-31" transform="translate(180.472656 0)"/>
      <use xlink:href="#DejaVuSans-36" transform="translate(244.095703 0)"/>
      <use xlink:href="#DejaVuSans-30" transform="translate(307.71875 0)"/>
      <use xlink:href="#DejaVuSans-20" transform="translate(371.341797 0)"/>
      <use xlink:href="#DejaVuSans-4b" transform="translate(403.128906 0)"/>
     </g>
    </g>
    <g id="line2d_18">
     <path d="M 56.018 56.90901 
L 66.018 56.90901 
L 76.018 56.90901 
" style="fill: none; stroke: #2ca02c; stroke-width: 1.5; stroke-linecap: square"/>
    </g>
    <g id="text_16">
     <!-- Ts=220 K -->
     <g transform="translate(84.018 60.40901) scale(0.1 -0.1)">
      <use xlink:href="#DejaVuSans-54"/>
      <use xlink:href="#DejaVuSans-73" transform="translate(44.583984 0)"/>
      <use xlink:href="#DejaVuSans-3d" transform="translate(96.683594 0)"/>
      <use xlink:href="#DejaVuSans-32" transform="translate(180.472656 0)"/>
      <use xlink:href="#DejaVuSans-32" transform="translate(244.095703 0)"/>
      <use xlink:href="#DejaVuSans-30" transform="translate(307.71875 0)"/>
      <use xlink:href="#DejaVuSans-20" transform="translate(371.341797 0)"/>
      <use xlink:href="#DejaVuSans-4b" transform="translate(403.128906 0)"/>
     </g>
    </g>
    <g id="line2d_19">
     <path d="M 56.018 71.587135 
L 66.018 71.587135 
L 76.018 71.587135 
" style="fill: none; stroke: #d62728; stroke-width: 1.5; stroke-linecap: square"/>
    </g>
    <g id="text_17">
     <!-- Ts=260 K -->
     <g transform="translate(84.018 75.087135) scale(0.1 -0.1)">
      <use xlink:href="#DejaVuSans-54"/>
      <use xlink:href="#DejaVuSans-73" transform="translate(44.583984 0)"/>
      <use xlink:href="#DejaVuSans-3d" transform="translate(96.683594 0)"/>
      <use xlink:href="#DejaVuSans-32" transform="translate(180.472656 0)"/>
      <use xlink:href="#DejaVuSans-36" transform="translate(244.095703 0)"/>
      <use xlink:href="#DejaVuSans-30" transform="translate(307.71875 0)"/>
      <use xlink:href="#DejaVuSans-20" transform="translate(371.341797 0)"/>
      <use xlink:href="#DejaVuSans-4b" transform="translate(403.128906 0)"/>
     </g>
    </g>
   </g>
  </g>
 </g>
 <defs>
  <clipPath id="p3e4e1ab6b0">
   <rect x="47.018" y="14.454323" width="402.982" height="287.745677"/>
  </clipPath>
 </defs>
</svg>
