<?xml version="1.0" encoding="utf-8" standalone="no"?>
<!DOCTYPE svg PUBLIC "-//W3C//DTD SVG 1.1//EN"
  "http://www.w3.org/Graphics/SVG/1.1/DTD/svg11.dtd">
<svg xmlns:xlink="http://www.w3.org/1999/xlink" width="460.8pt" height="345.6pt" viewBox="0 0 460.8 345.6" xmlns="http://www.w3.org/2000/svg" version="1.1">
 <metadata>
  <rdf:RDF xmlns:dc="http://purl.org/dc/elements/1.1/" xmlns:cc="http://creativecommons.org/ns#" xmlns:rdf="http://www.w3.org/1999/02/22-rdf-syntax-ns#">
   <cc:Work>
    <dc:type rdf:resource="http://purl.org/dc/dcmitype/StillImage"/>
    <dc:date>2026-02-12T05:18:58.676215</dc:date>
    <dc:format>image/svg+xml</dc:format>
    <dc:creator>
     <cc:Agent>
      <dc:title>Matplotlib v3.10.8, https://matplotlib.org/</dc:title>
     </cc:Agent>
    </dc:creator>
   </cc:Work>
  </rdf:RDF>
 </metadata>
 <defs>
  <style type="text/css">*{stroke-linejoin: round; stroke-linecap: butt}</style>
 </defs>
 <g id="figure_1">
  <g id="patch_1">
   <path d="M 0 345.6 
L 460.8 345.6 
L 460.8 0 
L 0 0 
L 0 345.6 
z
" style="fill: none"/>
  </g>
  <g id="axes_1">
   <g id="patch_2">
    <path d="M 47.018 302.2 
L 450 302.2 
L 450 11.064766 
L 47.018 11.064766 
L 47.018 302.2 
z
" style="fill: none"/>
   </g>
   <g id="FillBetweenPolyCollection_1">
    <path d="M 65.335364 181.90616 
L 65.335364 248.941735 
L 72.811839 248.363295 
L 80.288314 241.383391 
L 87.764788 240.529261 
L 95.241263 238.787795 
L 102.717738 235.793694 
L 110.194213 234.440682 
L 117.670688 232.317484 
L 125.147163 232.293829 
L 132.623638 231.700032 
L 140.100113 230.303083 
L 147.576588 228.468791 
L 155.053063 226.640449 
L 162.529538 227.537284 
L 170.006013 225.785273 
L 177.482488 223.55827 
L 184.958963 226.4037 
L 192.435438 223.313602 
L 199.911913 222.891109 
L 207.388388 220.800401 
L 214.864863 222.340409 
L 222.341338 221.274701 
L 229.817813 219.73089 
L 237.294288 220.842465 
L 244.770763 221.479432 
L 252.247237 220.436399 
L 259.723712 220.167576 
L 267.200187 220.355447 
L 274.676662 221.143363 
L 282.153137 220.847467 
L 289.629612 220.112914 
L 297.106087 220.025787 
L 304.582562 219.417845 
L 312.059037 220.406086 
L 319.535512 220.970027 
L 327.011987 219.818293 
L 334.488462 220.944316 
L 341.964937 219.683119 
L 349.441412 219.297513 
L 356.917887 220.389345 
L 364.394362 217.752827 
L 371.870837 219.462042 
L 379.347312 219.996476 
L 386.823787 219.824753 
L 394.300262 220.587243 
L 401.776737 219.969018 
L 409.253212 218.152151 
L 416.729686 218.133558 
L 424.206161 220.485652 
L 431.682636 219.674749 
L 431.682636 24.298186 
L 431.682636 24.298186 
L 424.206161 26.648248 
L 416.729686 29.038047 
L 409.253212 30.553423 
L 401.776737 31.169785 
L 394.300262 34.688137 
L 386.823787 34.952512 
L 379.347312 35.731008 
L 371.870837 38.094917 
L 364.394362 39.471845 
L 356.917887 43.164476 
L 349.441412 44.148794 
L 341.964937 45.635757 
L 334.488462 49.191381 
L 327.011987 49.918415 
L 319.535512 53.288317 
L 312.059037 53.364162 
L 304.582562 57.195501 
L 297.106087 57.027264 
L 289.629612 60.882608 
L 282.153137 63.109185 
L 274.676662 64.748791 
L 267.200187 65.925047 
L 259.723712 69.488275 
L 252.247237 70.901375 
L 244.770763 74.312353 
L 237.294288 76.579473 
L 229.817813 78.418475 
L 222.341338 81.996545 
L 214.864863 84.279238 
L 207.388388 87.188637 
L 199.911913 88.925345 
L 192.435438 91.482598 
L 184.958963 95.98505 
L 177.482488 98.538058 
L 170.006013 101.964412 
L 162.529538 104.542884 
L 155.053063 108.551405 
L 147.576588 112.173486 
L 140.100113 114.599965 
L 132.623638 118.576884 
L 125.147163 122.632628 
L 117.670688 124.33143 
L 110.194213 130.496063 
L 102.717738 138.595331 
L 95.241263 144.960645 
L 87.764788 153.975919 
L 80.288314 161.402976 
L 72.811839 172.386432 
L 65.335364 181.90616 
z
" clip-path="url(#p6594e2607d)" style="fill: #1f77b4; fill-opacity: 0.27"/>
   </g>
   <g id="FillBetweenPolyCollection_2">
    <path d="M 65.335364 194.181137 
L 65.335364 237.203009 
L 72.811839 232.07884 
L 80.288314 227.628517 
L 87.764788 224.531425 
L 95.241263 222.234908 
L 102.717738 220.268551 
L 110.194213 218.580928 
L 117.670688 217.12177 
L 125.147163 215.844051 
L 132.623638 214.705645 
L 140.100113 213.670507 
L 147.576588 212.709355 
L 155.053063 211.799871 
L 162.529538 210.926455 
L 170.006013 210.079608 
L 177.482488 209.255017 
L 184.958963 208.452457 
L 192.435438 207.67459 
L 199.911913 206.925776 
L 207.388388 206.210971 
L 214.864863 205.534787 
L 222.341338 204.900763 
L 229.817813 204.310884 
L 237.294288 203.765337 
L 244.770763 203.262507 
L 252.247237 202.799175 
L 259.723712 202.370864 
L 267.200187 201.972297 
L 274.676662 201.597887 
L 282.153137 201.242232 
L 289.629612 201.073485 
L 297.106087 201.168673 
L 304.582562 201.258944 
L 312.059037 201.343866 
L 319.535512 201.423236 
L 327.011987 201.496823 
L 334.488462 201.564159 
L 341.964937 201.624419 
L 349.441412 201.676388 
L 356.917887 201.718527 
L 364.394362 201.749142 
L 371.870837 201.766629 
L 379.347312 201.769774 
L 386.823787 201.758099 
L 394.300262 201.732188 
L 401.776737 201.69399 
L 409.253212 201.647062 
L 416.729686 201.596705 
L 424.206161 201.550009 
L 431.682636 201.515763 
L 431.682636 32.468969 
L 431.682636 32.468969 
L 424.206161 33.812809 
L 416.729686 35.2796 
L 409.253212 36.848741 
L 401.776737 38.503042 
L 394.300262 40.228307 
L 386.823787 42.012827 
L 379.347312 43.846871 
L 371.870837 45.72221 
L 364.394362 47.631747 
L 356.917887 49.569262 
L 349.441412 51.529316 
L 341.964937 53.507288 
L 334.488462 55.499538 
L 327.011987 57.503663 
L 319.535512 59.518773 
L 312.059037 61.54576 
L 304.582562 63.587466 
L 297.106087 65.648731 
L 289.629612 67.736251 
L 282.153137 69.858243 
L 274.676662 72.023914 
L 267.200187 74.242752 
L 259.723712 76.523712 
L 252.247237 78.874359 
L 244.770763 81.300059 
L 237.294288 83.803344 
L 229.817813 86.383534 
L 222.341338 89.109265 
L 214.864863 91.914875 
L 207.388388 94.781204 
L 199.911913 97.698263 
L 192.435438 100.661194 
L 184.958963 103.558609 
L 177.482488 106.455744 
L 170.006013 109.434107 
L 162.529538 112.49247 
L 155.053063 115.65915 
L 147.576588 118.984916 
L 140.100113 122.536553 
L 132.623638 126.396899 
L 125.147163 130.663863 
L 117.670688 135.448342 
L 110.194213 140.87104 
L 102.717738 147.058247 
L 95.241263 154.136714 
L 87.764788 162.227825 
L 80.288314 171.530816 
L 72.811839 182.178284 
L 65.335364 194.181137 
z
" clip-path="url(#p6594e2607d)" style="fill: #ff7f0e; fill-opacity: 0.45"/>
   </g>
   <g id="FillBetweenPolyCollection_3">
    <path d="M 65.335364 199.795794 
L 65.335364 265.931481 
L 72.811839 261.761895 
L 80.288314 258.979476 
L 87.764788 258.195412 
L 95.241263 256.576003 
L 102.717738 254.588685 
L 110.194213 251.89419 
L 117.670688 253.733461 
L 125.147163 254.555462 
L 132.623638 252.827023 
L 140.100113 251.309619 
L 147.576588 250.862141 
L 155.053063 249.383879 
L 162.529538 249.991514 
L 170.006013 249.114234 
L 177.482488 249.865993 
L 184.958963 245.397988 
L 192.435438 248.161417 
L 199.911913 247.976288 
L 207.388388 246.851529 
L 214.864863 247.72887 
L 222.341338 244.525219 
L 229.817813 244.293446 
L 237.294288 244.092458 
L 244.770763 244.088025 
L 252.247237 244.128463 
L 259.723712 243.469953 
L 267.200187 242.882585 
L 274.676662 244.013638 
L 282.153137 241.625348 
L 289.629612 241.532433 
L 297.106087 239.811192 
L 304.582562 239.606528 
L 312.059037 239.769417 
L 319.535512 240.220977 
L 327.011987 241.90364 
L 334.488462 240.942441 
L 341.964937 241.40416 
L 349.441412 239.416556 
L 356.917887 239.977658 
L 364.394362 240.573361 
L 371.870837 240.227815 
L 379.347312 238.85331 
L 386.823787 239.673095 
L 394.300262 236.507522 
L 401.776737 236.895354 
L 409.253212 236.656727 
L 416.729686 237.019332 
L 424.206161 236.376375 
L 431.682636 239.122425 
L 431.682636 149.766929 
L 431.682636 149.766929 
L 424.206161 149.573033 
L 416.729686 151.143525 
L 409.253212 152.661045 
L 401.776737 151.556314 
L 394.300262 152.186242 
L 386.823787 153.83865 
L 379.347312 156.264456 
L 371.870837 155.674422 
L 364.394362 156.405349 
L 356.917887 158.418221 
L 349.441412 158.193222 
L 341.964937 160.200231 
L 334.488462 159.972419 
L 327.011987 161.797917 
L 319.535512 162.484295 
L 312.059037 164.980457 
L 304.582562 165.137921 
L 297.106087 165.367217 
L 289.629612 166.096392 
L 282.153137 167.300439 
L 274.676662 168.093628 
L 267.200187 169.777409 
L 259.723712 171.090497 
L 252.247237 170.68444 
L 244.770763 173.615837 
L 237.294288 172.493046 
L 229.817813 174.704841 
L 222.341338 177.52216 
L 214.864863 177.700957 
L 207.388388 177.991559 
L 199.911913 179.208626 
L 192.435438 177.996578 
L 184.958963 180.979537 
L 177.482488 181.74207 
L 170.006013 183.334495 
L 162.529538 183.147752 
L 155.053063 181.148447 
L 147.576588 180.948145 
L 140.100113 183.303046 
L 132.623638 183.895047 
L 125.147163 182.301654 
L 117.670688 183.974813 
L 110.194213 186.495453 
L 102.717738 188.045322 
L 95.241263 189.864814 
L 87.764788 190.295703 
L 80.288314 191.252859 
L 72.811839 196.571167 
L 65.335364 199.795794 
z
" clip-path="url(#p6594e2607d)" style="fill: #2ca02c; fill-opacity: 0.27"/>
   </g>
   <g id="FillBetweenPolyCollection_4">
    <path d="M 65.335364 214.919001 
L 65.335364 249.342604 
L 72.811839 246.878779 
L 80.288314 244.739091 
L 87.764788 242.893623 
L 95.241263 241.308599 
L 102.717738 239.948267 
L 110.194213 238.776634 
L 117.670688 237.758994 
L 125.147163 236.863166 
L 132.623638 236.060441 
L 140.100113 235.326179 
L 147.576588 234.640112 
L 155.053063 233.986338 
L 162.529538 233.353085 
L 170.006013 232.804024 
L 177.482488 232.353227 
L 184.958963 231.920773 
L 192.435438 231.503104 
L 199.911913 231.09772 
L 207.388388 230.702886 
L 214.864863 230.317388 
L 222.341338 229.940346 
L 229.817813 229.571093 
L 237.294288 229.209094 
L 244.770763 228.853929 
L 252.247237 228.505287 
L 259.723712 228.162992 
L 267.200187 227.82701 
L 274.676662 227.497463 
L 282.153137 227.174606 
L 289.629612 226.858784 
L 297.106087 226.550367 
L 304.582562 226.249664 
L 312.059037 225.956825 
L 319.535512 225.671757 
L 327.011987 225.394047 
L 334.488462 225.122923 
L 341.964937 224.857251 
L 349.441412 224.595585 
L 356.917887 224.336265 
L 364.394362 224.077562 
L 371.870837 223.817868 
L 379.347312 223.555908 
L 386.823787 223.290964 
L 394.300262 223.023091 
L 401.776737 222.753312 
L 409.253212 222.483752 
L 416.729686 222.217729 
L 424.206161 221.959755 
L 431.682636 221.715465 
L 431.682636 158.542512 
L 431.682636 158.542512 
L 424.206161 159.280207 
L 416.729686 160.054689 
L 409.253212 160.858877 
L 401.776737 161.687718 
L 394.300262 162.537845 
L 386.823787 163.407181 
L 379.347312 164.294514 
L 371.870837 165.199092 
L 364.394362 166.120281 
L 356.917887 167.0573 
L 349.441412 168.005828 
L 341.964937 168.961857 
L 334.488462 169.927916 
L 327.011987 170.902307 
L 319.535512 171.883704 
L 312.059037 172.871399 
L 304.582562 173.865527 
L 297.106087 174.867234 
L 289.629612 175.878767 
L 282.153137 176.90344 
L 274.676662 177.945495 
L 267.200187 179.009826 
L 259.723712 180.101606 
L 252.247237 181.225846 
L 244.770763 182.386914 
L 237.294288 183.588092 
L 229.817813 184.831213 
L 222.341338 186.11645 
L 214.864863 187.442294 
L 207.388388 188.805787 
L 199.911913 190.203007 
L 192.435438 191.629829 
L 184.958963 193.082923 
L 177.482488 194.560953 
L 170.006013 196.065901 
L 162.529538 197.604425 
L 155.053063 198.693184 
L 147.576588 199.068664 
L 140.100113 199.160895 
L 132.623638 199.364857 
L 125.147163 199.723025 
L 117.670688 200.276684 
L 110.194213 201.079499 
L 102.717738 202.204462 
L 95.241263 203.717128 
L 87.764788 205.68375 
L 80.288314 208.168453 
L 72.811839 211.230089 
L 65.335364 214.919001 
z
" clip-path="url(#p6594e2607d)" style="fill: #d62728; fill-opacity: 0.45"/>
   </g>
   <g id="FillBetweenPolyCollection_5">
    <path d="M 65.335364 228.600723 
L 65.335364 276.226574 
L 72.811839 274.708157 
L 80.288314 273.731851 
L 87.764788 271.85725 
L 95.241263 273.344488 
L 102.717738 272.193194 
L 110.194213 272.383354 
L 117.670688 272.651143 
L 125.147163 271.228523 
L 132.623638 270.515969 
L 140.100113 268.972556 
L 147.576588 270.928037 
L 155.053063 270.576514 
L 162.529538 269.289584 
L 170.006013 270.035591 
L 177.482488 267.517179 
L 184.958963 268.848101 
L 192.435438 267.97096 
L 199.911913 266.79417 
L 207.388388 269.845303 
L 214.864863 267.824075 
L 222.341338 269.059648 
L 229.817813 266.504385 
L 237.294288 266.976786 
L 244.770763 267.303208 
L 252.247237 266.39272 
L 259.723712 267.250487 
L 267.200187 265.642839 
L 274.676662 265.425919 
L 282.153137 264.179119 
L 289.629612 266.264587 
L 297.106087 265.591559 
L 304.582562 266.199609 
L 312.059037 265.733948 
L 319.535512 268.470977 
L 327.011987 265.049004 
L 334.488462 265.448933 
L 341.964937 265.158283 
L 349.441412 265.055991 
L 356.917887 261.823041 
L 364.394362 263.766244 
L 371.870837 264.62674 
L 379.347312 266.091139 
L 386.823787 265.092488 
L 394.300262 265.716224 
L 401.776737 265.558681 
L 409.253212 262.185652 
L 416.729686 263.312481 
L 424.206161 266.265936 
L 431.682636 264.097279 
L 431.682636 212.716805 
L 431.682636 212.716805 
L 424.206161 215.905488 
L 416.729686 213.854434 
L 409.253212 214.594534 
L 401.776737 213.715077 
L 394.300262 215.458694 
L 386.823787 215.846418 
L 379.347312 214.825048 
L 371.870837 215.663488 
L 364.394362 215.782417 
L 356.917887 215.223213 
L 349.441412 216.366099 
L 341.964937 214.626867 
L 334.488462 214.720123 
L 327.011987 215.19859 
L 319.535512 217.611103 
L 312.059037 217.709872 
L 304.582562 218.145954 
L 297.106087 217.336401 
L 289.629612 216.706548 
L 282.153137 219.932237 
L 274.676662 217.661056 
L 267.200187 218.873352 
L 259.723712 217.698025 
L 252.247237 218.891847 
L 244.770763 220.34447 
L 237.294288 218.253257 
L 229.817813 218.538009 
L 222.341338 219.494436 
L 214.864863 222.034098 
L 207.388388 220.187297 
L 199.911913 219.556253 
L 192.435438 221.247924 
L 184.958963 220.928912 
L 177.482488 223.076923 
L 170.006013 224.250153 
L 162.529538 221.57241 
L 155.053063 221.667623 
L 147.576588 221.861142 
L 140.100113 223.584862 
L 132.623638 225.655573 
L 125.147163 224.211585 
L 117.670688 226.928797 
L 110.194213 225.992813 
L 102.717738 227.850068 
L 95.241263 228.599607 
L 87.764788 223.469122 
L 80.288314 228.586833 
L 72.811839 229.148466 
L 65.335364 228.600723 
z
" clip-path="url(#p6594e2607d)" style="fill: #9467bd; fill-opacity: 0.27"/>
   </g>
   <g id="FillBetweenPolyCollection_6">
    <path d="M 65.335364 248.705627 
L 65.335364 261.652279 
L 72.811839 260.155001 
L 80.288314 258.81396 
L 87.764788 257.618649 
L 95.241263 256.555636 
L 102.717738 255.609564 
L 110.194213 254.764122 
L 117.670688 254.002943 
L 125.147163 253.310387 
L 132.623638 252.672181 
L 140.100113 252.132644 
L 147.576588 251.94797 
L 155.053063 251.77981 
L 162.529538 251.624974 
L 170.006013 251.48086 
L 177.482488 251.34533 
L 184.958963 251.216584 
L 192.435438 251.093052 
L 199.911913 250.973293 
L 207.388388 250.855935 
L 214.864863 250.739636 
L 222.341338 250.623089 
L 229.817813 250.50504 
L 237.294288 250.384337 
L 244.770763 250.259986 
L 252.247237 250.13121 
L 259.723712 249.9975 
L 267.200187 249.892428 
L 274.676662 249.787818 
L 282.153137 249.680579 
L 289.629612 249.570977 
L 297.106087 249.459587 
L 304.582562 249.347252 
L 312.059037 249.23503 
L 319.535512 249.124108 
L 327.011987 249.015711 
L 334.488462 248.911001 
L 341.964937 248.810971 
L 349.441412 248.716349 
L 356.917887 248.627512 
L 364.394362 248.544417 
L 371.870837 248.466555 
L 379.347312 248.392929 
L 386.823787 248.322048 
L 394.300262 248.251963 
L 401.776737 248.180302 
L 409.253212 248.104344 
L 416.729686 248.021094 
L 424.206161 247.927373 
L 431.682636 247.819913 
L 431.682636 230.823278 
L 431.682636 230.823278 
L 424.206161 230.962729 
L 416.729686 231.106493 
L 409.253212 231.25355 
L 401.776737 231.403392 
L 394.300262 231.555979 
L 386.823787 231.711657 
L 379.347312 231.871055 
L 371.870837 232.034964 
L 364.394362 232.204222 
L 356.917887 232.379594 
L 349.441412 232.561691 
L 341.964937 232.750905 
L 334.488462 232.947386 
L 327.011987 233.151059 
L 319.535512 233.361664 
L 312.059037 233.578836 
L 304.582562 233.8022 
L 297.106087 234.031461 
L 289.629612 234.266508 
L 282.153137 234.507477 
L 274.676662 234.754791 
L 267.200187 235.00917 
L 259.723712 235.27158 
L 252.247237 235.543156 
L 244.770763 235.825086 
L 237.294288 236.118469 
L 229.817813 236.424179 
L 222.341338 236.742727 
L 214.864863 237.074172 
L 207.388388 237.418072 
L 199.911913 237.773517 
L 192.435438 238.139233 
L 184.958963 238.513776 
L 177.482488 238.895813 
L 170.006013 239.284462 
L 162.529538 239.679692 
L 155.053063 240.082746 
L 147.576588 240.496544 
L 140.100113 240.92605 
L 132.623638 241.378541 
L 125.147163 241.863766 
L 117.670688 242.393943 
L 110.194213 242.983585 
L 102.717738 243.649143 
L 95.241263 244.408455 
L 87.764788 245.272086 
L 80.288314 246.264764 
L 72.811839 247.404316 
L 65.335364 248.705627 
z
" clip-path="url(#p6594e2607d)" style="fill: #8c564b; fill-opacity: 0.45"/>
   </g>
   <g id="FillBetweenPolyCollection_7">
    <path d="M 65.335364 234.760175 
L 65.335364 288.250818 
L 72.811839 288.96658 
L 80.288314 285.097351 
L 87.764788 283.8203 
L 95.241263 284.489831 
L 102.717738 286.776006 
L 110.194213 282.856803 
L 117.670688 281.421804 
L 125.147163 281.171183 
L 132.623638 279.257001 
L 140.100113 281.117603 
L 147.576588 280.794436 
L 155.053063 279.931364 
L 162.529538 278.712368 
L 170.006013 279.093584 
L 177.482488 278.558109 
L 184.958963 278.223959 
L 192.435438 281.195007 
L 199.911913 276.92092 
L 207.388388 278.330092 
L 214.864863 277.804741 
L 222.341338 276.409781 
L 229.817813 278.812818 
L 237.294288 277.958956 
L 244.770763 277.709522 
L 252.247237 278.233604 
L 259.723712 277.669612 
L 267.200187 278.365664 
L 274.676662 276.894829 
L 282.153137 279.260163 
L 289.629612 277.184473 
L 297.106087 276.127984 
L 304.582562 276.940115 
L 312.059037 277.364374 
L 319.535512 278.248005 
L 327.011987 277.801592 
L 334.488462 275.762834 
L 341.964937 277.889647 
L 349.441412 274.874392 
L 356.917887 277.084294 
L 364.394362 275.365416 
L 371.870837 278.793381 
L 379.347312 273.779204 
L 386.823787 273.417276 
L 394.300262 275.911702 
L 401.776737 276.455571 
L 409.253212 273.904318 
L 416.729686 274.41804 
L 424.206161 274.831912 
L 431.682636 275.284166 
L 431.682636 199.520569 
L 431.682636 199.520569 
L 424.206161 196.805278 
L 416.729686 198.311902 
L 409.253212 196.897066 
L 401.776737 196.557675 
L 394.300262 192.750542 
L 386.823787 189.810446 
L 379.347312 190.862167 
L 371.870837 191.30817 
L 364.394362 192.843972 
L 356.917887 190.379186 
L 349.441412 190.675782 
L 341.964937 187.846214 
L 334.488462 190.221509 
L 327.011987 191.598965 
L 319.535512 194.310416 
L 312.059037 193.158531 
L 304.582562 194.303354 
L 297.106087 194.624694 
L 289.629612 197.407066 
L 282.153137 200.555696 
L 274.676662 199.380451 
L 267.200187 204.705982 
L 259.723712 203.746574 
L 252.247237 206.318302 
L 244.770763 209.01431 
L 237.294288 211.065704 
L 229.817813 214.028913 
L 222.341338 213.174993 
L 214.864863 216.712631 
L 207.388388 221.958962 
L 199.911913 223.697477 
L 192.435438 225.328622 
L 184.958963 225.877358 
L 177.482488 228.982275 
L 170.006013 227.989501 
L 162.529538 233.144052 
L 155.053063 232.459303 
L 147.576588 232.183583 
L 140.100113 231.93432 
L 132.623638 232.95147 
L 125.147163 234.130707 
L 117.670688 237.532672 
L 110.194213 233.422717 
L 102.717738 235.02947 
L 95.241263 235.036116 
L 87.764788 234.480323 
L 80.288314 236.028141 
L 72.811839 236.412254 
L 65.335364 234.760175 
z
" clip-path="url(#p6594e2607d)" style="fill: #e377c2; fill-opacity: 0.27"/>
   </g>
   <g id="FillBetweenPolyCollection_8">
    <path d="M 65.335364 251.693686 
L 65.335364 271.548798 
L 72.811839 270.559639 
L 80.288314 269.485565 
L 87.764788 268.326648 
L 95.241263 267.08237 
L 102.717738 265.751772 
L 110.194213 264.333623 
L 117.670688 263.065045 
L 125.147163 262.191364 
L 132.623638 261.752385 
L 140.100113 261.788565 
L 147.576588 261.832276 
L 155.053063 261.881784 
L 162.529538 261.935973 
L 170.006013 261.994202 
L 177.482488 262.056137 
L 184.958963 262.121574 
L 192.435438 262.190269 
L 199.911913 262.26179 
L 207.388388 262.335403 
L 214.864863 262.410004 
L 222.341338 262.484084 
L 229.817813 262.555757 
L 237.294288 262.622815 
L 244.770763 262.682822 
L 252.247237 262.733234 
L 259.723712 262.771531 
L 267.200187 262.795345 
L 274.676662 262.80259 
L 282.153137 262.791555 
L 289.629612 262.760986 
L 297.106087 262.710125 
L 304.582562 262.638715 
L 312.059037 262.546975 
L 319.535512 262.435536 
L 327.011987 262.30536 
L 334.488462 262.157635 
L 341.964937 261.993657 
L 349.441412 261.814716 
L 356.917887 261.621979 
L 364.394362 261.416395 
L 371.870837 261.198611 
L 379.347312 260.968909 
L 386.823787 260.727175 
L 394.300262 260.47288 
L 401.776737 260.205099 
L 409.253212 259.922534 
L 416.729686 259.62357 
L 424.206161 259.306335 
L 431.682636 258.968768 
L 431.682636 216.263141 
L 431.682636 216.263141 
L 424.206161 214.898828 
L 416.729686 213.581819 
L 409.253212 212.329834 
L 401.776737 211.161036 
L 394.300262 210.093747 
L 386.823787 209.146125 
L 379.347312 208.33581 
L 371.870837 207.679544 
L 364.394362 207.192785 
L 356.917887 206.889318 
L 349.441412 206.780891 
L 341.964937 206.876884 
L 334.488462 207.184027 
L 327.011987 207.706176 
L 319.535512 208.444173 
L 312.059037 209.395778 
L 304.582562 210.555692 
L 297.106087 211.91566 
L 289.629612 213.464668 
L 282.153137 215.189202 
L 274.676662 217.073579 
L 267.200187 219.100332 
L 259.723712 221.250624 
L 252.247237 223.504687 
L 244.770763 225.842264 
L 237.294288 228.243038 
L 229.817813 230.728824 
L 222.341338 233.115299 
L 214.864863 235.446734 
L 207.388388 237.77046 
L 199.911913 240.071492 
L 192.435438 242.336248 
L 184.958963 244.552662 
L 177.482488 246.71025 
L 170.006013 248.800135 
L 162.529538 250.807954 
L 155.053063 251.786202 
L 147.576588 251.66482 
L 140.100113 251.563052 
L 132.623638 251.482083 
L 125.147163 251.422729 
L 117.670688 251.385427 
L 110.194213 251.370227 
L 102.717738 251.376782 
L 95.241263 251.40433 
L 87.764788 251.45168 
L 80.288314 251.517188 
L 72.811839 251.598731 
L 65.335364 251.693686 
z
" clip-path="url(#p6594e2607d)" style="fill: #7f7f7f; fill-opacity: 0.45"/>
   </g>
   <g id="matplotlib.axis_1">
    <g id="xtick_1">
     <g id="line2d_1">
      <defs>
       <path id="mbc1a8be10d" d="M 0 0 
L 0 3.5 
" style="stroke: #000000; stroke-width: 0.8"/>
      </defs>
      <g>
       <use xlink:href="#mbc1a8be10d" x="61.634886" y="302.2" style="stroke: #000000; stroke-width: 0.8"/>
      </g>
     </g>
     <g id="text_1">
      <!-- 0 -->
      <g transform="translate(58.453636 316.798437) scale(0.1 -0.1)">
       <defs>
        <path id="DejaVuSans-30" d="M 2034 4250 
Q 1547 4250 1301 3770 
Q 1056 3291 1056 2328 
Q 1056 1369 1301 889 
Q 1547 409 2034 409 
Q 2525 409 2770 889 
Q 3016 1369 3016 2328 
Q 3016 3291 2770 3770 
Q 2525 4250 2034 4250 
z
M 2034 4750 
Q 2819 4750 3233 4129 
Q 3647 3509 3647 2328 
Q 3647 1150 3233 529 
Q 2819 -91 2034 -91 
Q 1250 -91 836 529 
Q 422 1150 422 2328 
Q 422 3509 836 4129 
Q 1250 4750 2034 4750 
z
" transform="scale(0.015625)"/>
       </defs>
       <use xlink:href="#DejaVuSans-30"/>
      </g>
     </g>
    </g>
    <g id="xtick_2">
     <g id="line2d_2">
      <g>
       <use xlink:href="#mbc1a8be10d" x="135.644436" y="302.2" style="stroke: #000000; stroke-width: 0.8"/>
      </g>
     </g>
     <g id="text_2">
      <!-- 1 -->
      <g transform="translate(132.463186 316.798437) scale(0.1 -0.1)">
       <defs>
        <path id="DejaVuSans-31" d="M 794 531 
L 1825 531 
L 1825 4091 
L 703 3866 
L 703 4441 
L 1819 4666 
L 2450 4666 
L 2450 531 
L 3481 531 
L 3481 0 
L 794 0 
L 794 531 
z
" transform="scale(0.015625)"/>
       </defs>
       <use xlink:href="#DejaVuSans-31"/>
      </g>
     </g>
    </g>
    <g id="xtick_3">
     <g id="line2d_3">
      <g>
       <use xlink:href="#mbc1a8be10d" x="209.653986" y="302.2" style="stroke: #000000; stroke-width: 0.8"/>
      </g>
     </g>
     <g id="text_3">
      <!-- 2 -->
      <g transform="translate(206.472736 316.798437) scale(0.1 -0.1)">
       <defs>
        <path id="DejaVuSans-32" d="M 1228 531 
L 3431 531 
L 3431 0 
L 469 0 
L 469 531 
Q 828 903 1448 1529 
Q 2069 2156 2228 2338 
Q 2531 2678 2651 2914 
Q 2772 3150 2772 3378 
Q 2772 3750 2511 3984 
Q 2250 4219 1831 4219 
Q 1534 4219 1204 4116 
Q 875 4013 500 3803 
L 500 4441 
Q 881 4594 1212 4672 
Q 1544 4750 1819 4750 
Q 2544 4750 2975 4387 
Q 3406 4025 3406 3419 
Q 3406 3131 3298 2873 
Q 3191 2616 2906 2266 
Q 2828 2175 2409 1742 
Q 1991 1309 1228 531 
z
" transform="scale(0.015625)"/>
       </defs>
       <use xlink:href="#DejaVuSans-32"/>
      </g>
     </g>
    </g>
    <g id="xtick_4">
     <g id="line2d_4">
      <g>
       <use xlink:href="#mbc1a8be10d" x="283.663536" y="302.2" style="stroke: #000000; stroke-width: 0.8"/>
      </g>
     </g>
     <g id="text_4">
      <!-- 3 -->
      <g transform="translate(280.482286 316.798437) scale(0.1 -0.1)">
       <defs>
        <path id="DejaVuSans-33" d="M 2597 2516 
Q 3050 2419 3304 2112 
Q 3559 1806 3559 1356 
Q 3559 666 3084 287 
Q 2609 -91 1734 -91 
Q 1441 -91 1130 -33 
Q 819 25 488 141 
L 488 750 
Q 750 597 1062 519 
Q 1375 441 1716 441 
Q 2309 441 2620 675 
Q 2931 909 2931 1356 
Q 2931 1769 2642 2001 
Q 2353 2234 1838 2234 
L 1294 2234 
L 1294 2753 
L 1863 2753 
Q 2328 2753 2575 2939 
Q 2822 3125 2822 3475 
Q 2822 3834 2567 4026 
Q 2313 4219 1838 4219 
Q 1578 4219 1281 4162 
Q 984 4106 628 3988 
L 628 4550 
Q 988 4650 1302 4700 
Q 1616 4750 1894 4750 
Q 2613 4750 3031 4423 
Q 3450 4097 3450 3541 
Q 3450 3153 3228 2886 
Q 3006 2619 2597 2516 
z
" transform="scale(0.015625)"/>
       </defs>
       <use xlink:href="#DejaVuSans-33"/>
      </g>
     </g>
    </g>
    <g id="xtick_5">
     <g id="line2d_5">
      <g>
       <use xlink:href="#mbc1a8be10d" x="357.673086" y="302.2" style="stroke: #000000; stroke-width: 0.8"/>
      </g>
     </g>
     <g id="text_5">
      <!-- 4 -->
      <g transform="translate(354.491836 316.798437) scale(0.1 -0.1)">
       <defs>
        <path id="DejaVuSans-34" d="M 2419 4116 
L 825 1625 
L 2419 1625 
L 2419 4116 
z
M 2253 4666 
L 3047 4666 
L 3047 1625 
L 3713 1625 
L 3713 1100 
L 3047 1100 
L 3047 0 
L 2419 0 
L 2419 1100 
L 313 1100 
L 313 1709 
L 2253 4666 
z
" transform="scale(0.015625)"/>
       </defs>
       <use xlink:href="#DejaVuSans-34"/>
      </g>
     </g>
    </g>
    <g id="xtick_6">
     <g id="line2d_6">
      <g>
       <use xlink:href="#mbc1a8be10d" x="431.682636" y="302.2" style="stroke: #000000; stroke-width: 0.8"/>
      </g>
     </g>
     <g id="text_6">
      <!-- 5 -->
      <g transform="translate(428.501386 316.798437) scale(0.1 -0.1)">
       <defs>
        <path id="DejaVuSans-35" d="M 691 4666 
L 3169 4666 
L 3169 4134 
L 1269 4134 
L 1269 2991 
Q 1406 3038 1543 3061 
Q 1681 3084 1819 3084 
Q 2600 3084 3056 2656 
Q 3513 2228 3513 1497 
Q 3513 744 3044 326 
Q 2575 -91 1722 -91 
Q 1428 -91 1123 -41 
Q 819 9 494 109 
L 494 744 
Q 775 591 1075 516 
Q 1375 441 1709 441 
Q 2250 441 2565 725 
Q 2881 1009 2881 1497 
Q 2881 1984 2565 2268 
Q 2250 2553 1709 2553 
Q 1456 2553 1204 2497 
Q 953 2441 691 2322 
L 691 4666 
z
" transform="scale(0.015625)"/>
       </defs>
       <use xlink:href="#DejaVuSans-35"/>
      </g>
     </g>
    </g>
    <g id="text_7">
     <!-- $W$ (m/hour) -->
     <g transform="translate(220.059 330.476562) scale(0.1 -0.1)">
      <defs>
       <path id="DejaVuSans-Oblique-57" d="M 616 4666 
L 1228 4666 
L 1453 697 
L 3213 4666 
L 3916 4666 
L 4147 697 
L 5888 4666 
L 6528 4666 
L 4453 0 
L 3659 0 
L 3444 3891 
L 1697 0 
L 903 0 
L 616 4666 
z
" transform="scale(0.015625)"/>
       <path id="DejaVuSans-20" transform="scale(0.015625)"/>
       <path id="DejaVuSans-28" d="M 1984 4856 
Q 1566 4138 1362 3434 
Q 1159 2731 1159 2009 
Q 1159 1288 1364 580 
Q 1569 -128 1984 -844 
L 1484 -844 
Q 1016 -109 783 600 
Q 550 1309 550 2009 
Q 550 2706 781 3412 
Q 1013 4119 1484 4856 
L 1984 4856 
z
" transform="scale(0.015625)"/>
       <path id="DejaVuSans-6d" d="M 3328 2828 
Q 3544 3216 3844 3400 
Q 4144 3584 4550 3584 
Q 5097 3584 5394 3201 
Q 5691 2819 5691 2113 
L 5691 0 
L 5113 0 
L 5113 2094 
Q 5113 2597 4934 2840 
Q 4756 3084 4391 3084 
Q 3944 3084 3684 2787 
Q 3425 2491 3425 1978 
L 3425 0 
L 2847 0 
L 2847 2094 
Q 2847 2600 2669 2842 
Q 2491 3084 2119 3084 
Q 1678 3084 1418 2786 
Q 1159 2488 1159 1978 
L 1159 0 
L 581 0 
L 581 3500 
L 1159 3500 
L 1159 2956 
Q 1356 3278 1631 3431 
Q 1906 3584 2284 3584 
Q 2666 3584 2933 3390 
Q 3200 3197 3328 2828 
z
" transform="scale(0.015625)"/>
       <path id="DejaVuSans-2f" d="M 1625 4666 
L 2156 4666 
L 531 -594 
L 0 -594 
L 1625 4666 
z
" transform="scale(0.015625)"/>
       <path id="DejaVuSans-68" d="M 3513 2113 
L 3513 0 
L 2938 0 
L 2938 2094 
Q 2938 2591 2744 2837 
Q 2550 3084 2163 3084 
Q 1697 3084 1428 2787 
Q 1159 2491 1159 1978 
L 1159 0 
L 581 0 
L 581 4863 
L 1159 4863 
L 1159 2956 
Q 1366 3272 1645 3428 
Q 1925 3584 2291 3584 
Q 2894 3584 3203 3211 
Q 3513 2838 3513 2113 
z
" transform="scale(0.015625)"/>
       <path id="DejaVuSans-6f" d="M 1959 3097 
Q 1497 3097 1228 2736 
Q 959 2375 959 1747 
Q 959 1119 1226 758 
Q 1494 397 1959 397 
Q 2419 397 2687 759 
Q 2956 1122 2956 1747 
Q 2956 2369 2687 2733 
Q 2419 3097 1959 3097 
z
M 1959 3584 
Q 2709 3584 3137 3096 
Q 3566 2609 3566 1747 
Q 3566 888 3137 398 
Q 2709 -91 1959 -91 
Q 1206 -91 779 398 
Q 353 888 353 1747 
Q 353 2609 779 3096 
Q 1206 3584 1959 3584 
z
" transform="scale(0.015625)"/>
       <path id="DejaVuSans-75" d="M 544 1381 
L 544 3500 
L 1119 3500 
L 1119 1403 
Q 1119 906 1312 657 
Q 1506 409 1894 409 
Q 2359 409 2629 706 
Q 2900 1003 2900 1516 
L 2900 3500 
L 3475 3500 
L 3475 0 
L 2900 0 
L 2900 538 
Q 2691 219 2414 64 
Q 2138 -91 1772 -91 
Q 1169 -91 856 284 
Q 544 659 544 1381 
z
M 1991 3584 
L 1991 3584 
z
" transform="scale(0.015625)"/>
       <path id="DejaVuSans-72" d="M 2631 2963 
Q 2534 3019 2420 3045 
Q 2306 3072 2169 3072 
Q 1681 3072 1420 2755 
Q 1159 2438 1159 1844 
L 1159 0 
L 581 0 
L 581 3500 
L 1159 3500 
L 1159 2956 
Q 1341 3275 1631 3429 
Q 1922 3584 2338 3584 
Q 2397 3584 2469 3576 
Q 2541 3569 2628 3553 
L 2631 2963 
z
" transform="scale(0.015625)"/>
       <path id="DejaVuSans-29" d="M 513 4856 
L 1013 4856 
Q 1481 4119 1714 3412 
Q 1947 2706 1947 2009 
Q 1947 1309 1714 600 
Q 1481 -109 1013 -844 
L 513 -844 
Q 928 -128 1133 580 
Q 1338 1288 1338 2009 
Q 1338 2731 1133 3434 
Q 928 4138 513 4856 
z
" transform="scale(0.015625)"/>
      </defs>
      <use xlink:href="#DejaVuSans-Oblique-57" transform="translate(0 0.015625)"/>
      <use xlink:href="#DejaVuSans-20" transform="translate(98.876953 0.015625)"/>
      <use xlink:href="#DejaVuSans-28" transform="translate(130.664062 0.015625)"/>
      <use xlink:href="#DejaVuSans-6d" transform="translate(169.677734 0.015625)"/>
      <use xlink:href="#DejaVuSans-2f" transform="translate(267.089844 0.015625)"/>
      <use xlink:href="#DejaVuSans-68" transform="translate(300.78125 0.015625)"/>
      <use xlink:href="#DejaVuSans-6f" transform="translate(364.160156 0.015625)"/>
      <use xlink:href="#DejaVuSans-75" transform="translate(425.341797 0.015625)"/>
      <use xlink:href="#DejaVuSans-72" transform="translate(488.720703 0.015625)"/>
      <use xlink:href="#DejaVuSans-29" transform="translate(529.833984 0.015625)"/>
     </g>
    </g>
   </g>
   <g id="matplotlib.axis_2">
    <g id="ytick_1">
     <g id="line2d_7">
      <defs>
       <path id="ma0b31fc014" d="M 0 0 
L -3.5 0 
" style="stroke: #000000; stroke-width: 0.8"/>
      </defs>
      <g>
       <use xlink:href="#ma0b31fc014" x="47.018" y="267.151506" style="stroke: #000000; stroke-width: 0.8"/>
      </g>
     </g>
     <g id="text_8">
      <!-- 0 -->
      <g transform="translate(33.6555 270.950725) scale(0.1 -0.1)">
       <use xlink:href="#DejaVuSans-30"/>
      </g>
     </g>
    </g>
    <g id="ytick_2">
     <g id="line2d_8">
      <g>
       <use xlink:href="#ma0b31fc014" x="47.018" y="204.140498" style="stroke: #000000; stroke-width: 0.8"/>
      </g>
     </g>
     <g id="text_9">
      <!-- 10 -->
      <g transform="translate(27.293 207.939716) scale(0.1 -0.1)">
       <use xlink:href="#DejaVuSans-31"/>
       <use xlink:href="#DejaVuSans-30" transform="translate(63.623047 0)"/>
      </g>
     </g>
    </g>
    <g id="ytick_3">
     <g id="line2d_9">
      <g>
       <use xlink:href="#ma0b31fc014" x="47.018" y="141.129489" style="stroke: #000000; stroke-width: 0.8"/>
      </g>
     </g>
     <g id="text_10">
      <!-- 20 -->
      <g transform="translate(27.293 144.928708) scale(0.1 -0.1)">
       <use xlink:href="#DejaVuSans-32"/>
       <use xlink:href="#DejaVuSans-30" transform="translate(63.623047 0)"/>
      </g>
     </g>
    </g>
    <g id="ytick_4">
     <g id="line2d_10">
      <g>
       <use xlink:href="#ma0b31fc014" x="47.018" y="78.118481" style="stroke: #000000; stroke-width: 0.8"/>
      </g>
     </g>
     <g id="text_11">
      <!-- 30 -->
      <g transform="translate(27.293 81.9177) scale(0.1 -0.1)">
       <use xlink:href="#DejaVuSans-33"/>
       <use xlink:href="#DejaVuSans-30" transform="translate(63.623047 0)"/>
      </g>
     </g>
    </g>
    <g id="ytick_5">
     <g id="line2d_11">
      <g>
       <use xlink:href="#ma0b31fc014" x="47.018" y="15.107473" style="stroke: #000000; stroke-width: 0.8"/>
      </g>
     </g>
     <g id="text_12">
      <!-- 40 -->
      <g transform="translate(27.293 18.906692) scale(0.1 -0.1)">
       <use xlink:href="#DejaVuSans-34"/>
       <use xlink:href="#DejaVuSans-30" transform="translate(63.623047 0)"/>
      </g>
     </g>
    </g>
    <g id="text_13">
     <!-- $Q_{lc}$ (kW) -->
     <g transform="translate(21.213312 176.932383) rotate(-90) scale(0.1 -0.1)">
      <defs>
       <path id="DejaVuSans-Oblique-51" d="M 2309 -84 
Q 2275 -88 2237 -89 
Q 2200 -91 2125 -91 
Q 1250 -91 756 411 
Q 263 913 263 1797 
Q 263 2319 452 2844 
Q 641 3369 978 3788 
Q 1369 4269 1858 4509 
Q 2347 4750 2938 4750 
Q 3794 4750 4287 4245 
Q 4781 3741 4781 2869 
Q 4781 1928 4265 1147 
Q 3750 366 2919 44 
L 3553 -825 
L 2847 -825 
L 2309 -84 
z
M 2919 4238 
Q 2400 4238 2003 3986 
Q 1606 3734 1313 3219 
Q 1125 2891 1026 2522 
Q 928 2153 928 1778 
Q 928 1128 1239 775 
Q 1550 422 2119 422 
Q 2631 422 3032 676 
Q 3434 931 3719 1434 
Q 3909 1772 4009 2142 
Q 4109 2513 4109 2881 
Q 4109 3528 3796 3883 
Q 3484 4238 2919 4238 
z
" transform="scale(0.015625)"/>
       <path id="DejaVuSans-Oblique-6c" d="M 1172 4863 
L 1747 4863 
L 800 0 
L 225 0 
L 1172 4863 
z
" transform="scale(0.015625)"/>
       <path id="DejaVuSans-Oblique-63" d="M 3431 3366 
L 3316 2797 
Q 3109 2947 2876 3022 
Q 2644 3097 2394 3097 
Q 2119 3097 1870 3000 
Q 1622 2903 1453 2725 
Q 1184 2453 1037 2087 
Q 891 1722 891 1331 
Q 891 859 1127 628 
Q 1363 397 1844 397 
Q 2081 397 2348 469 
Q 2616 541 2906 684 
L 2797 116 
Q 2547 13 2283 -39 
Q 2019 -91 1741 -91 
Q 1044 -91 669 257 
Q 294 606 294 1253 
Q 294 1797 489 2255 
Q 684 2713 1069 3078 
Q 1331 3328 1684 3456 
Q 2038 3584 2456 3584 
Q 2700 3584 2940 3529 
Q 3181 3475 3431 3366 
z
" transform="scale(0.015625)"/>
       <path id="DejaVuSans-6b" d="M 581 4863 
L 1159 4863 
L 1159 1991 
L 2875 3500 
L 3609 3500 
L 1753 1863 
L 3688 0 
L 2938 0 
L 1159 1709 
L 1159 0 
L 581 0 
L 581 4863 
z
" transform="scale(0.015625)"/>
       <path id="DejaVuSans-57" d="M 213 4666 
L 850 4666 
L 1831 722 
L 2809 4666 
L 3519 4666 
L 4500 722 
L 5478 4666 
L 6119 4666 
L 4947 0 
L 4153 0 
L 3169 4050 
L 2175 0 
L 1381 0 
L 213 4666 
z
" transform="scale(0.015625)"/>
      </defs>
      <use xlink:href="#DejaVuSans-Oblique-51" transform="translate(0 0.015625)"/>
      <use xlink:href="#DejaVuSans-Oblique-6c" transform="translate(78.710938 -16.390625) scale(0.7)"/>
      <use xlink:href="#DejaVuSans-Oblique-63" transform="translate(98.15918 -16.390625) scale(0.7)"/>
      <use xlink:href="#DejaVuSans-20" transform="translate(139.379883 0.015625)"/>
      <use xlink:href="#DejaVuSans-28" transform="translate(171.166992 0.015625)"/>
      <use xlink:href="#DejaVuSans-6b" transform="translate(210.180664 0.015625)"/>
      <use xlink:href="#DejaVuSans-57" transform="translate(268.09082 0.015625)"/>
      <use xlink:href="#DejaVuSans-29" transform="translate(366.967773 0.015625)"/>
     </g>
    </g>
   </g>
   <g id="line2d_12">
    <path d="M 65.335364 202.170292 
L 72.811839 202.734013 
L 80.288314 203.219905 
L 87.764788 203.604529 
L 95.241263 203.877642 
L 102.717738 204.034883 
L 110.194213 204.077608 
L 117.670688 204.012443 
L 125.147163 203.373063 
L 132.623638 203.104434 
L 140.100113 202.775229 
L 147.576588 202.406096 
L 155.053063 202.017639 
L 162.529538 201.629336 
L 170.006013 201.258598 
L 177.482488 200.920039 
L 184.958963 200.418649 
L 192.435438 199.176042 
L 199.911913 197.939515 
L 207.388388 196.713414 
L 214.864863 195.502879 
L 222.341338 194.313009 
L 229.817813 193.14829 
L 237.294288 192.012258 
L 244.770763 190.907381 
L 252.247237 189.835106 
L 259.723712 188.796031 
L 267.200187 187.790117 
L 274.676662 186.816918 
L 282.153137 185.875752 
L 289.629612 184.965808 
L 297.106087 184.086156 
L 304.582562 183.235666 
L 312.059037 182.412861 
L 319.535512 181.615718 
L 327.011987 180.841473 
L 334.488462 180.086452 
L 341.964937 179.345994 
L 349.441412 178.614478 
L 356.917887 177.885486 
L 364.394362 177.15212 
L 371.870837 176.407454 
L 379.347312 175.645117 
L 386.823787 174.859952 
L 394.300262 174.048728 
L 401.776737 173.21083 
L 409.253212 172.348884 
L 416.729686 171.469256 
L 424.206161 170.582381 
L 431.682636 169.702866 
" clip-path="url(#p6594e2607d)" style="fill: none; stroke: #1f77b4; stroke-width: 1.5; stroke-linecap: square"/>
   </g>
   <g id="line2d_13">
    <path d="M 65.335364 238.206504 
L 72.811839 232.448735 
L 80.288314 227.534096 
L 87.764788 223.241693 
L 95.241263 219.503486 
L 102.717738 216.252489 
L 110.194213 213.418997 
L 117.670688 210.933384 
L 125.147163 208.729077 
L 132.623638 206.745003 
L 140.100113 204.927429 
L 147.576588 203.231147 
L 155.053063 201.620017 
L 162.529538 200.066909 
L 170.006013 199.509461 
L 177.482488 199.56223 
L 184.958963 199.640198 
L 192.435438 199.730646 
L 199.911913 199.832449 
L 207.388388 199.946012 
L 214.864863 200.072303 
L 222.341338 200.212082 
L 229.817813 200.365368 
L 237.294288 200.531145 
L 244.770763 200.707283 
L 252.247237 200.890662 
L 259.723712 201.077433 
L 267.200187 201.263371 
L 274.676662 201.444266 
L 282.153137 201.616297 
L 289.629612 201.776343 
L 297.106087 201.922203 
L 304.582562 202.052696 
L 312.059037 202.167646 
L 319.535512 202.267758 
L 327.011987 202.354397 
L 334.488462 202.429313 
L 341.964937 202.494333 
L 349.441412 202.551077 
L 356.917887 202.600703 
L 364.394362 202.643739 
L 371.870837 202.680004 
L 379.347312 202.70864 
L 386.823787 202.728241 
L 394.300262 202.73709 
L 401.776737 202.733458 
L 409.253212 202.715958 
L 416.729686 202.683915 
L 424.206161 202.637715 
L 431.682636 202.579104 
" clip-path="url(#p6594e2607d)" style="fill: none; stroke: #ff7f0e; stroke-width: 1.5; stroke-linecap: square"/>
   </g>
   <g id="line2d_14">
    <path d="M 65.335364 256.008327 
L 72.811839 255.353314 
L 80.288314 254.772891 
L 87.764788 254.222292 
L 95.241263 253.710404 
L 102.717738 253.005472 
L 110.194213 252.724084 
L 117.670688 252.49173 
L 125.147163 252.279639 
L 132.623638 252.084802 
L 140.100113 251.778984 
L 147.576588 251.208666 
L 155.053063 250.662342 
L 162.529538 250.134001 
L 170.006013 249.61967 
L 177.482488 249.117135 
L 184.958963 248.625593 
L 192.435438 248.183502 
L 199.911913 247.719699 
L 207.388388 247.265233 
L 214.864863 246.825092 
L 222.341338 246.40011 
L 229.817813 245.990696 
L 237.294288 245.596754 
L 244.770763 245.21769 
L 252.247237 244.85247 
L 259.723712 244.499742 
L 267.200187 244.157968 
L 274.676662 243.825586 
L 282.153137 243.501146 
L 289.629612 243.183433 
L 297.106087 242.871553 
L 304.582562 242.564968 
L 312.059037 242.2635 
L 319.535512 241.967282 
L 327.011987 241.676682 
L 334.488462 241.392196 
L 341.964937 241.114334 
L 349.441412 240.843507 
L 356.917887 240.579916 
L 364.394362 240.323481 
L 371.870837 240.073782 
L 379.347312 239.830053 
L 386.823787 239.591196 
L 394.300262 239.355839 
L 401.776737 239.122418 
L 409.253212 238.889283 
L 416.729686 238.654809 
L 424.206161 238.417511 
L 431.682636 238.176155 
" clip-path="url(#p6594e2607d)" style="fill: none; stroke: #2ca02c; stroke-width: 1.5; stroke-linecap: square"/>
   </g>
   <g id="line2d_15">
    <path d="M 65.335364 261.58408 
L 72.811839 261.509477 
L 80.288314 261.437297 
L 87.764788 261.362415 
L 95.241263 261.282609 
L 102.717738 261.195362 
L 110.194213 261.096382 
L 117.670688 260.972423 
L 125.147163 259.567827 
L 132.623638 258.022187 
L 140.100113 257.211767 
L 147.576588 257.35682 
L 155.053063 257.49777 
L 162.529538 257.630758 
L 170.006013 257.7515 
L 177.482488 257.85543 
L 184.958963 257.937873 
L 192.435438 257.994234 
L 199.911913 258.020195 
L 207.388388 258.011921 
L 214.864863 257.966263 
L 222.341338 257.72888 
L 229.817813 257.48771 
L 237.294288 257.255875 
L 244.770763 257.033972 
L 252.247237 256.822236 
L 259.723712 256.620615 
L 267.200187 256.428862 
L 274.676662 256.220325 
L 282.153137 255.873879 
L 289.629612 255.518476 
L 297.106087 255.16177 
L 304.582562 254.811435 
L 312.059037 254.565379 
L 319.535512 254.473681 
L 327.011987 254.404628 
L 334.488462 254.314624 
L 341.964937 254.204668 
L 349.441412 254.075832 
L 356.917887 253.929218 
L 364.394362 253.813491 
L 371.870837 253.736368 
L 379.347312 253.662346 
L 386.823787 253.588922 
L 394.300262 253.513183 
L 401.776737 253.431847 
L 409.253212 253.341321 
L 416.729686 253.237778 
L 424.206161 253.117249 
L 431.682636 252.975715 
" clip-path="url(#p6594e2607d)" style="fill: none; stroke: #d62728; stroke-width: 1.5; stroke-linecap: square"/>
   </g>
   <g id="patch_3">
    <path d="M 47.018 302.2 
L 47.018 11.064766 
" style="fill: none; stroke: #000000; stroke-width: 0.8; stroke-linejoin: miter; stroke-linecap: square"/>
   </g>
   <g id="patch_4">
    <path d="M 450 302.2 
L 450 11.064766 
" style="fill: none; stroke: #000000; stroke-width: 0.8; stroke-linejoin: miter; stroke-linecap: square"/>
   </g>
   <g id="patch_5">
    <path d="M 47.018 302.2 
L 450 302.2 
" style="fill: none; stroke: #000000; stroke-width: 0.8; stroke-linejoin: miter; stroke-linecap: square"/>
   </g>
   <g id="patch_6">
    <path d="M 47.018 11.064766 
L 450 11.064766 
" style="fill: none; stroke: #000000; stroke-width: 0.8; stroke-linejoin: miter; stroke-linecap: square"/>
   </g>
   <g id="legend_1">
    <g id="patch_7">
     <path d="M 54.018 77.777266 
L 132.888313 77.777266 
Q 134.888313 77.777266 134.888313 75.777266 
L 134.888313 18.064766 
Q 134.888313 16.064766 132.888313 16.064766 
L 54.018 16.064766 
Q 52.018 16.064766 52.018 18.064766 
L 52.018 75.777266 
Q 52.018 77.777266 54.018 77.777266 
z
" style="fill: #ffffff; opacity: 0.8; stroke: #cccccc; stroke-linejoin: miter"/>
    </g>
    <g id="line2d_16">
     <path d="M 56.018 24.163204 
L 66.018 24.163204 
L 76.018 24.163204 
" style="fill: none; stroke: #1f77b4; stroke-width: 1.5; stroke-linecap: square"/>
    </g>
    <g id="text_14">
     <!-- Ts=100 K -->
     <g transform="translate(84.018 27.663204) scale(0.1 -0.1)">
      <defs>
       <path id="DejaVuSans-54" d="M -19 4666 
L 3928 4666 
L 3928 4134 
L 2272 4134 
L 2272 0 
L 1638 0 
L 1638 4134 
L -19 4134 
L -19 4666 
z
" transform="scale(0.015625)"/>
       <path id="DejaVuSans-73" d="M 2834 3397 
L 2834 2853 
Q 2591 2978 2328 3040 
Q 2066 3103 1784 3103 
Q 1356 3103 1142 2972 
Q 928 2841 928 2578 
Q 928 2378 1081 2264 
Q 1234 2150 1697 2047 
L 1894 2003 
Q 2506 1872 2764 1633 
Q 3022 1394 3022 966 
Q 3022 478 2636 193 
Q 2250 -91 1575 -91 
Q 1294 -91 989 -36 
Q 684 19 347 128 
L 347 722 
Q 666 556 975 473 
Q 1284 391 1588 391 
Q 1994 391 2212 530 
Q 2431 669 2431 922 
Q 2431 1156 2273 1281 
Q 2116 1406 1581 1522 
L 1381 1569 
Q 847 1681 609 1914 
Q 372 2147 372 2553 
Q 372 3047 722 3315 
Q 1072 3584 1716 3584 
Q 2034 3584 2315 3537 
Q 2597 3491 2834 3397 
z
" transform="scale(0.015625)"/>
       <path id="DejaVuSans-3d" d="M 678 2906 
L 4684 2906 
L 4684 2381 
L 678 2381 
L 678 2906 
z
M 678 1631 
L 4684 1631 
L 4684 1100 
L 678 1100 
L 678 1631 
z
" transform="scale(0.015625)"/>
       <path id="DejaVuSans-4b" d="M 628 4666 
L 1259 4666 
L 1259 2694 
L 3353 4666 
L 4166 4666 
L 1850 2491 
L 4331 0 
L 3500 0 
L 1259 2247 
L 1259 0 
L 628 0 
L 628 4666 
z
" transform="scale(0.015625)"/>
      </defs>
      <use xlink:href="#DejaVuSans-54"/>
      <use xlink:href="#DejaVuSans-73" transform="translate(44.583984 0)"/>
      <use xlink:href="#DejaVuSans-3d" transform="translate(96.683594 0)"/>
      <use xlink:href="#DejaVuSans-31" transform="translate(180.472656 0)"/>
      <use xlink:href="#DejaVuSans-30" transform="translate(244.095703 0)"/>
      <use xlink:href="#DejaVuSans-30" transform="translate(307.71875 0)"/>
      <use xlink:href="#DejaVuSans-20" transform="translate(371.341797 0)"/>
      <use xlink:href="#DejaVuSans-4b" transform="translate(403.128906 0)"/>
     </g>
    </g>
    <g id="line2d_17">
     <path d="M 56.018 38.841329 
L 66.018 38.841329 
L 76.018 38.841329 
" style="fill: none; stroke: #ff7f0e; stroke-width: 1.5; stroke-linecap: square"/>
    </g>
    <g id="text_15">
     <!-- Ts=160 K -->
     <g transform="translate(84.018 42.341329) scale(0.1 -0.1)">
      <defs>
       <path id="DejaVuSans-36" d="M 2113 2584 
Q 1688 2584 1439 2293 
Q 1191 2003 1191 1497 
Q 1191 994 1439 701 
Q 1688 409 2113 409 
Q 2538 409 2786 701 
Q 3034 994 3034 1497 
Q 3034 2003 2786 2293 
Q 2538 2584 2113 2584 
z
M 3366 4563 
L 3366 3988 
Q 3128 4100 2886 4159 
Q 2644 4219 2406 4219 
Q 1781 4219 1451 3797 
Q 1122 3375 1075 2522 
Q 1259 2794 1537 2939 
Q 1816 3084 2150 3084 
Q 2853 3084 3261 2657 
Q 3669 2231 3669 1497 
Q 3669 778 3244 343 
Q 2819 -91 2113 -91 
Q 1303 -91 875 529 
Q 447 1150 447 2328 
Q 447 3434 972 4092 
Q 1497 4750 2381 4750 
Q 2619 4750 2861 4703 
Q 3103 4656 3366 4563 
z
" transform="scale(0.015625)"/>
      </defs>
      <use xlink:href="#DejaVuSans-54"/>
      <use xlink:href="#DejaVuSans-73" transform="translate(44.583984 0)"/>
      <use xlink:href="#DejaVuSans-3d" transform="translate(96.683594 0)"/>
      <use xlink:href="#DejaVuSans-31" transform="translate(180.472656 0)"/>
      <use xlink:href="#DejaVuSans-36" transform="translate(244.095703 0)"/>
      <use xlink:href="#DejaVuSans-30" transform="translate(307.71875 0)"/>
      <use xlink:href="#DejaVuSans-20" transform="translate(371.341797 0)"/>
      <use xlink:href="#DejaVuSans-4b" transform="translate(403.128906 0)"/>
     </g>
    </g>
    <g id="line2d_18">
     <path d="M 56.018 53.519454 
L 66.018 53.519454 
L 76.018 53.519454 
" style="fill: none; stroke: #2ca02c; stroke-width: 1.5; stroke-linecap: square"/>
    </g>
    <g id="text_16">
     <!-- Ts=220 K -->
     <g transform="translate(84.018 57.019454) scale(0.1 -0.1)">
      <use xlink:href="#DejaVuSans-54"/>
      <use xlink:href="#DejaVuSans-73" transform="translate(44.583984 0)"/>
      <use xlink:href="#DejaVuSans-3d" transform="translate(96.683594 0)"/>
      <use xlink:href="#DejaVuSans-32" transform="translate(180.472656 0)"/>
      <use xlink:href="#DejaVuSans-32" transform="translate(244.095703 0)"/>
      <use xlink:href="#DejaVuSans-30" transform="translate(307.71875 0)"/>
      <use xlink:href="#DejaVuSans-20" transform="translate(371.341797 0)"/>
      <use xlink:href="#DejaVuSans-4b" transform="translate(403.128906 0)"/>
     </g>
    </g>
    <g id="line2d_19">
     <path d="M 56.018 68.197579 
L 66.018 68.197579 
L 76.018 68.197579 
" style="fill: none; stroke: #d62728; stroke-width: 1.5; stroke-linecap: square"/>
    </g>
    <g id="text_17">
     <!-- Ts=260 K -->
     <g transform="translate(84.018 71.697579) scale(0.1 -0.1)">
      <use xlink:href="#DejaVuSans-54"/>
      <use xlink:href="#DejaVuSans-73" transform="translate(44.583984 0)"/>
      <use xlink:href="#DejaVuSans-3d" transform="translate(96.683594 0)"/>
      <use xlink:href="#DejaVuSans-32" transform="translate(180.472656 0)"/>
      <use xlink:href="#DejaVuSans-36" transform="translate(244.095703 0)"/>
      <use xlink:href="#DejaVuSans-30" transform="translate(307.71875 0)"/>
      <use xlink:href="#DejaVuSans-20" transform="translate(371.341797 0)"/>
      <use xlink:href="#DejaVuSans-4b" transform="translate(403.128906 0)"/>
     </g>
    </g>
   </g>
  </g>
 </g>
 <defs>
  <clipPath id="p6594e2607d">
   <rect x="47.018" y="11.064766" width="402.982" height="291.135234"/>
  </clipPath>
 </defs>
</svg>
