<?xml version="1.0" encoding="utf-8" standalone="no"?>
<!DOCTYPE svg PUBLIC "-//W3C//DTD SVG 1.1//EN"
  "http://www.w3.org/Graphics/SVG/1.1/DTD/svg11.dtd">
<svg xmlns:xlink="http://www.w3.org/1999/xlink" width="460.8pt" height="345.6pt" viewBox="0 0 460.8 345.6" xmlns="http://www.w3.org/2000/svg" version="1.1">
 <metadata>
  <rdf:RDF xmlns:dc="http://purl.org/dc/elements/1.1/" xmlns:cc="http://creativecommons.org/ns#" xmlns:rdf="http://www.w3.org/1999/02/22-rdf-syntax-ns#">
   <cc:Work>
    <dc:type rdf:resource="http://purl.org/dc/dcmitype/StillImage"/>
    <dc:date>2026-02-12T04:31:37.528977</dc:date>
    <dc:format>image/svg+xml</dc:format>
    <dc:creator>
     <cc:Agent>
      <dc:title>Matplotlib v3.10.8, https://matplotlib.org/</dc:title>
     </cc:Agent>
    </dc:creator>
   </cc:Work>
  </rdf:RDF>
 </metadata>
 <defs>
  <style type="text/css">*{stroke-linejoin: round; stroke-linecap: butt}</style>
 </defs>
 <g id="figure_1">
  <g id="patch_1">
   <path d="M 0 345.6 
L 460.8 345.6 
L 460.8 0 
L 0 0 
L 0 345.6 
z
" style="fill: none"/>
  </g>
  <g id="axes_1">
   <g id="patch_2">
    <path d="M 47.018 302.2 
L 450 302.2 
L 450 12.979864 
L 47.018 12.979864 
L 47.018 302.2 
z
" style="fill: none"/>
   </g>
   <g id="FillBetweenPolyCollection_1">
    <path d="M 65.335364 181.676428 
L 65.335364 263.232975 
L 72.811839 258.318669 
L 80.288314 249.58677 
L 87.764788 248.0039 
L 95.241263 243.433725 
L 102.717738 240.33234 
L 110.194213 237.305263 
L 117.670688 232.456114 
L 125.147163 231.203042 
L 132.623638 229.461754 
L 140.100113 228.647537 
L 147.576588 225.042905 
L 155.053063 222.592058 
L 162.529538 222.169993 
L 170.006013 221.64467 
L 177.482488 217.477069 
L 184.958963 219.938778 
L 192.435438 216.635727 
L 199.911913 215.752559 
L 207.388388 213.971985 
L 214.864863 214.821524 
L 222.341338 214.219609 
L 229.817813 213.287101 
L 237.294288 214.901603 
L 244.770763 214.847968 
L 252.247237 215.074331 
L 259.723712 213.37378 
L 267.200187 213.297828 
L 274.676662 214.220554 
L 282.153137 212.400267 
L 289.629612 211.58497 
L 297.106087 211.798149 
L 304.582562 213.003012 
L 312.059037 211.196741 
L 319.535512 212.972018 
L 327.011987 210.405884 
L 334.488462 211.079744 
L 341.964937 211.55588 
L 349.441412 211.605535 
L 356.917887 212.885984 
L 364.394362 211.38824 
L 371.870837 210.409172 
L 379.347312 210.643971 
L 386.823787 211.942005 
L 394.300262 210.451195 
L 401.776737 210.461943 
L 409.253212 210.106105 
L 416.729686 210.387314 
L 424.206161 210.831414 
L 431.682636 212.560231 
L 431.682636 26.126234 
L 431.682636 26.126234 
L 424.206161 27.062495 
L 416.729686 30.600737 
L 409.253212 31.594088 
L 401.776737 31.914556 
L 394.300262 34.008945 
L 386.823787 35.234741 
L 379.347312 37.620888 
L 371.870837 38.06528 
L 364.394362 39.924521 
L 356.917887 42.593849 
L 349.441412 43.689841 
L 341.964937 45.664777 
L 334.488462 47.61525 
L 327.011987 49.1238 
L 319.535512 51.372808 
L 312.059037 52.181099 
L 304.582562 55.200034 
L 297.106087 56.465491 
L 289.629612 59.768452 
L 282.153137 61.982664 
L 274.676662 63.322782 
L 267.200187 65.258999 
L 259.723712 67.691767 
L 252.247237 69.57603 
L 244.770763 72.903219 
L 237.294288 74.403544 
L 229.817813 76.444317 
L 222.341338 79.712596 
L 214.864863 82.92065 
L 207.388388 85.90264 
L 199.911913 87.118228 
L 192.435438 91.438792 
L 184.958963 94.550405 
L 177.482488 97.452749 
L 170.006013 99.712517 
L 162.529538 103.338461 
L 155.053063 107.465401 
L 147.576588 111.62629 
L 140.100113 115.285682 
L 132.623638 119.433305 
L 125.147163 124.799953 
L 117.670688 128.107195 
L 110.194213 135.532546 
L 102.717738 141.359592 
L 95.241263 149.802746 
L 87.764788 157.886529 
L 80.288314 165.890431 
L 72.811839 174.280683 
L 65.335364 181.676428 
z
" clip-path="url(#p63d2c6449f)" style="fill: #1f77b4; fill-opacity: 0.45"/>
   </g>
   <g id="FillBetweenPolyCollection_2">
    <path d="M 65.335364 207.770854 
L 65.335364 275.17364 
L 72.811839 269.614429 
L 80.288314 266.886135 
L 87.764788 263.488031 
L 95.241263 261.948648 
L 102.717738 259.783177 
L 110.194213 255.277008 
L 117.670688 255.230759 
L 125.147163 256.142662 
L 132.623638 252.071468 
L 140.100113 251.461079 
L 147.576588 250.637278 
L 155.053063 249.233742 
L 162.529538 248.566814 
L 170.006013 248.175348 
L 177.482488 247.669375 
L 184.958963 246.148574 
L 192.435438 244.490499 
L 199.911913 246.400231 
L 207.388388 242.331539 
L 214.864863 246.201268 
L 222.341338 242.37873 
L 229.817813 243.692647 
L 237.294288 244.509035 
L 244.770763 242.772829 
L 252.247237 243.092469 
L 259.723712 242.956144 
L 267.200187 239.91606 
L 274.676662 241.695127 
L 282.153137 242.084358 
L 289.629612 237.822092 
L 297.106087 239.615976 
L 304.582562 238.259204 
L 312.059037 239.399647 
L 319.535512 238.798717 
L 327.011987 238.87998 
L 334.488462 239.293348 
L 341.964937 238.836638 
L 349.441412 238.034752 
L 356.917887 238.170613 
L 364.394362 238.866061 
L 371.870837 239.926091 
L 379.347312 238.079138 
L 386.823787 237.220345 
L 394.300262 236.095477 
L 401.776737 234.774433 
L 409.253212 237.438764 
L 416.729686 236.417916 
L 424.206161 235.730234 
L 431.682636 237.539695 
L 431.682636 144.369339 
L 431.682636 144.369339 
L 424.206161 144.827316 
L 416.729686 145.747239 
L 409.253212 146.45582 
L 401.776737 146.506517 
L 394.300262 147.078323 
L 386.823787 148.450567 
L 379.347312 150.136646 
L 371.870837 150.289885 
L 364.394362 150.594218 
L 356.917887 152.742831 
L 349.441412 152.847469 
L 341.964937 153.360202 
L 334.488462 154.869866 
L 327.011987 156.303578 
L 319.535512 156.408901 
L 312.059037 159.178478 
L 304.582562 159.821035 
L 297.106087 159.246176 
L 289.629612 160.91034 
L 282.153137 161.828692 
L 274.676662 162.579088 
L 267.200187 163.762934 
L 259.723712 164.880473 
L 252.247237 165.132836 
L 244.770763 167.08236 
L 237.294288 167.794726 
L 229.817813 169.894226 
L 222.341338 171.742736 
L 214.864863 172.768358 
L 207.388388 173.865955 
L 199.911913 175.589966 
L 192.435438 173.777411 
L 184.958963 177.065043 
L 177.482488 178.30381 
L 170.006013 180.593314 
L 162.529538 179.680075 
L 155.053063 180.743013 
L 147.576588 182.313883 
L 140.100113 183.680184 
L 132.623638 185.944926 
L 125.147163 185.992016 
L 117.670688 187.264632 
L 110.194213 191.70619 
L 102.717738 191.742704 
L 95.241263 195.264799 
L 87.764788 198.140812 
L 80.288314 201.217877 
L 72.811839 205.695868 
L 65.335364 207.770854 
z
" clip-path="url(#p63d2c6449f)" style="fill: #ff7f0e; fill-opacity: 0.45"/>
   </g>
   <g id="FillBetweenPolyCollection_3">
    <path d="M 65.335364 239.135833 
L 65.335364 278.017095 
L 72.811839 276.216069 
L 80.288314 275.710053 
L 87.764788 274.333276 
L 95.241263 272.950488 
L 102.717738 275.366678 
L 110.194213 271.644769 
L 117.670688 272.673201 
L 125.147163 272.445703 
L 132.623638 271.575104 
L 140.100113 270.559468 
L 147.576588 271.479913 
L 155.053063 273.132204 
L 162.529538 270.641652 
L 170.006013 272.50998 
L 177.482488 269.790627 
L 184.958963 270.173594 
L 192.435438 268.054012 
L 199.911913 269.402382 
L 207.388388 273.17803 
L 214.864863 269.972494 
L 222.341338 268.821644 
L 229.817813 269.495084 
L 237.294288 270.61975 
L 244.770763 269.938532 
L 252.247237 269.673668 
L 259.723712 271.67932 
L 267.200187 271.284566 
L 274.676662 271.749806 
L 282.153137 268.15888 
L 289.629612 271.365373 
L 297.106087 270.575188 
L 304.582562 271.220184 
L 312.059037 269.607772 
L 319.535512 273.116002 
L 327.011987 271.012811 
L 334.488462 270.393415 
L 341.964937 270.180321 
L 349.441412 270.577233 
L 356.917887 267.442217 
L 364.394362 269.239216 
L 371.870837 269.447447 
L 379.347312 270.922136 
L 386.823787 271.445118 
L 394.300262 268.414592 
L 401.776737 271.363451 
L 409.253212 267.484746 
L 416.729686 268.83701 
L 424.206161 271.773551 
L 431.682636 270.766717 
L 431.682636 215.382958 
L 431.682636 215.382958 
L 424.206161 216.363892 
L 416.729686 216.639202 
L 409.253212 216.5173 
L 401.776737 216.827711 
L 394.300262 216.749277 
L 386.823787 217.958345 
L 379.347312 217.910353 
L 371.870837 217.660087 
L 364.394362 216.782645 
L 356.917887 217.663889 
L 349.441412 217.995468 
L 341.964937 218.181086 
L 334.488462 219.295694 
L 327.011987 219.523474 
L 319.535512 219.578714 
L 312.059037 219.623862 
L 304.582562 218.982894 
L 297.106087 219.492618 
L 289.629612 220.37165 
L 282.153137 221.104264 
L 274.676662 218.627158 
L 267.200187 219.744834 
L 259.723712 221.490934 
L 252.247237 222.366879 
L 244.770763 222.322191 
L 237.294288 223.035994 
L 229.817813 223.816718 
L 222.341338 222.907989 
L 214.864863 224.027167 
L 207.388388 225.100352 
L 199.911913 225.122032 
L 192.435438 225.448419 
L 184.958963 224.350284 
L 177.482488 226.895823 
L 170.006013 226.444481 
L 162.529538 227.778209 
L 155.053063 225.522291 
L 147.576588 227.60731 
L 140.100113 228.634124 
L 132.623638 229.179862 
L 125.147163 229.975634 
L 117.670688 230.634964 
L 110.194213 230.715386 
L 102.717738 233.038342 
L 95.241263 234.210695 
L 87.764788 233.972999 
L 80.288314 234.594583 
L 72.811839 235.895319 
L 65.335364 239.135833 
z
" clip-path="url(#p63d2c6449f)" style="fill: #2ca02c; fill-opacity: 0.45"/>
   </g>
   <g id="FillBetweenPolyCollection_4">
    <path d="M 65.335364 237.312077 
L 65.335364 283.088622 
L 72.811839 283.436789 
L 80.288314 281.501397 
L 87.764788 280.341558 
L 95.241263 279.719273 
L 102.717738 282.309172 
L 110.194213 279.599806 
L 117.670688 280.742102 
L 125.147163 279.939199 
L 132.623638 278.95299 
L 140.100113 281.678967 
L 147.576588 280.932324 
L 155.053063 281.179616 
L 162.529538 280.933017 
L 170.006013 281.093189 
L 177.482488 281.265672 
L 184.958963 281.318763 
L 192.435438 283.737372 
L 199.911913 281.562526 
L 207.388388 281.940066 
L 214.864863 280.606664 
L 222.341338 280.892085 
L 229.817813 282.538384 
L 237.294288 282.664619 
L 244.770763 283.429368 
L 252.247237 284.12137 
L 259.723712 281.859574 
L 267.200187 282.541638 
L 274.676662 283.67295 
L 282.153137 283.136451 
L 289.629612 283.218565 
L 297.106087 282.627059 
L 304.582562 285.662931 
L 312.059037 284.60827 
L 319.535512 286.946784 
L 327.011987 286.680589 
L 334.488462 285.110847 
L 341.964937 284.981423 
L 349.441412 282.504257 
L 356.917887 287.856739 
L 364.394362 284.982318 
L 371.870837 286.889978 
L 379.347312 282.336842 
L 386.823787 283.777764 
L 394.300262 284.370725 
L 401.776737 289.05363 
L 409.253212 284.71392 
L 416.729686 284.825941 
L 424.206161 285.69448 
L 431.682636 285.415245 
L 431.682636 238.523316 
L 431.682636 238.523316 
L 424.206161 237.409653 
L 416.729686 241.001318 
L 409.253212 239.233515 
L 401.776737 239.827685 
L 394.300262 239.591998 
L 386.823787 239.025571 
L 379.347312 240.013107 
L 371.870837 239.942298 
L 364.394362 240.15655 
L 356.917887 239.976061 
L 349.441412 237.913402 
L 341.964937 238.110347 
L 334.488462 238.048986 
L 327.011987 239.022979 
L 319.535512 239.415442 
L 312.059037 238.947043 
L 304.582562 239.683394 
L 297.106087 239.235192 
L 289.629612 239.278086 
L 282.153137 241.131204 
L 274.676662 238.704394 
L 267.200187 240.680646 
L 259.723712 240.677798 
L 252.247237 237.35823 
L 244.770763 238.500306 
L 237.294288 238.493804 
L 229.817813 239.493279 
L 222.341338 237.422544 
L 214.864863 237.415471 
L 207.388388 239.525171 
L 199.911913 237.801231 
L 192.435438 237.373518 
L 184.958963 238.757279 
L 177.482488 236.715328 
L 170.006013 238.784457 
L 162.529538 239.178513 
L 155.053063 239.265419 
L 147.576588 237.521255 
L 140.100113 236.694432 
L 132.623638 236.434373 
L 125.147163 238.605928 
L 117.670688 238.408284 
L 110.194213 236.566853 
L 102.717738 238.365748 
L 95.241263 236.862013 
L 87.764788 237.026111 
L 80.288314 237.243241 
L 72.811839 236.721799 
L 65.335364 237.312077 
z
" clip-path="url(#p63d2c6449f)" style="fill: #d62728; fill-opacity: 0.45"/>
   </g>
   <g id="matplotlib.axis_1">
    <g id="xtick_1">
     <g id="line2d_1">
      <defs>
       <path id="mb3da68cf5c" d="M 0 0 
L 0 3.5 
" style="stroke: #000000; stroke-width: 0.8"/>
      </defs>
      <g>
       <use xlink:href="#mb3da68cf5c" x="61.634886" y="302.2" style="stroke: #000000; stroke-width: 0.8"/>
      </g>
     </g>
     <g id="text_1">
      <!-- 0 -->
      <g transform="translate(58.453636 316.798437) scale(0.1 -0.1)">
       <defs>
        <path id="DejaVuSans-30" d="M 2034 4250 
Q 1547 4250 1301 3770 
Q 1056 3291 1056 2328 
Q 1056 1369 1301 889 
Q 1547 409 2034 409 
Q 2525 409 2770 889 
Q 3016 1369 3016 2328 
Q 3016 3291 2770 3770 
Q 2525 4250 2034 4250 
z
M 2034 4750 
Q 2819 4750 3233 4129 
Q 3647 3509 3647 2328 
Q 3647 1150 3233 529 
Q 2819 -91 2034 -91 
Q 1250 -91 836 529 
Q 422 1150 422 2328 
Q 422 3509 836 4129 
Q 1250 4750 2034 4750 
z
" transform="scale(0.015625)"/>
       </defs>
       <use xlink:href="#DejaVuSans-30"/>
      </g>
     </g>
    </g>
    <g id="xtick_2">
     <g id="line2d_2">
      <g>
       <use xlink:href="#mb3da68cf5c" x="135.644436" y="302.2" style="stroke: #000000; stroke-width: 0.8"/>
      </g>
     </g>
     <g id="text_2">
      <!-- 1 -->
      <g transform="translate(132.463186 316.798437) scale(0.1 -0.1)">
       <defs>
        <path id="DejaVuSans-31" d="M 794 531 
L 1825 531 
L 1825 4091 
L 703 3866 
L 703 4441 
L 1819 4666 
L 2450 4666 
L 2450 531 
L 3481 531 
L 3481 0 
L 794 0 
L 794 531 
z
" transform="scale(0.015625)"/>
       </defs>
       <use xlink:href="#DejaVuSans-31"/>
      </g>
     </g>
    </g>
    <g id="xtick_3">
     <g id="line2d_3">
      <g>
       <use xlink:href="#mb3da68cf5c" x="209.653986" y="302.2" style="stroke: #000000; stroke-width: 0.8"/>
      </g>
     </g>
     <g id="text_3">
      <!-- 2 -->
      <g transform="translate(206.472736 316.798437) scale(0.1 -0.1)">
       <defs>
        <path id="DejaVuSans-32" d="M 1228 531 
L 3431 531 
L 3431 0 
L 469 0 
L 469 531 
Q 828 903 1448 1529 
Q 2069 2156 2228 2338 
Q 2531 2678 2651 2914 
Q 2772 3150 2772 3378 
Q 2772 3750 2511 3984 
Q 2250 4219 1831 4219 
Q 1534 4219 1204 4116 
Q 875 4013 500 3803 
L 500 4441 
Q 881 4594 1212 4672 
Q 1544 4750 1819 4750 
Q 2544 4750 2975 4387 
Q 3406 4025 3406 3419 
Q 3406 3131 3298 2873 
Q 3191 2616 2906 2266 
Q 2828 2175 2409 1742 
Q 1991 1309 1228 531 
z
" transform="scale(0.015625)"/>
       </defs>
       <use xlink:href="#DejaVuSans-32"/>
      </g>
     </g>
    </g>
    <g id="xtick_4">
     <g id="line2d_4">
      <g>
       <use xlink:href="#mb3da68cf5c" x="283.663536" y="302.2" style="stroke: #000000; stroke-width: 0.8"/>
      </g>
     </g>
     <g id="text_4">
      <!-- 3 -->
      <g transform="translate(280.482286 316.798437) scale(0.1 -0.1)">
       <defs>
        <path id="DejaVuSans-33" d="M 2597 2516 
Q 3050 2419 3304 2112 
Q 3559 1806 3559 1356 
Q 3559 666 3084 287 
Q 2609 -91 1734 -91 
Q 1441 -91 1130 -33 
Q 819 25 488 141 
L 488 750 
Q 750 597 1062 519 
Q 1375 441 1716 441 
Q 2309 441 2620 675 
Q 2931 909 2931 1356 
Q 2931 1769 2642 2001 
Q 2353 2234 1838 2234 
L 1294 2234 
L 1294 2753 
L 1863 2753 
Q 2328 2753 2575 2939 
Q 2822 3125 2822 3475 
Q 2822 3834 2567 4026 
Q 2313 4219 1838 4219 
Q 1578 4219 1281 4162 
Q 984 4106 628 3988 
L 628 4550 
Q 988 4650 1302 4700 
Q 1616 4750 1894 4750 
Q 2613 4750 3031 4423 
Q 3450 4097 3450 3541 
Q 3450 3153 3228 2886 
Q 3006 2619 2597 2516 
z
" transform="scale(0.015625)"/>
       </defs>
       <use xlink:href="#DejaVuSans-33"/>
      </g>
     </g>
    </g>
    <g id="xtick_5">
     <g id="line2d_5">
      <g>
       <use xlink:href="#mb3da68cf5c" x="357.673086" y="302.2" style="stroke: #000000; stroke-width: 0.8"/>
      </g>
     </g>
     <g id="text_5">
      <!-- 4 -->
      <g transform="translate(354.491836 316.798437) scale(0.1 -0.1)">
       <defs>
        <path id="DejaVuSans-34" d="M 2419 4116 
L 825 1625 
L 2419 1625 
L 2419 4116 
z
M 2253 4666 
L 3047 4666 
L 3047 1625 
L 3713 1625 
L 3713 1100 
L 3047 1100 
L 3047 0 
L 2419 0 
L 2419 1100 
L 313 1100 
L 313 1709 
L 2253 4666 
z
" transform="scale(0.015625)"/>
       </defs>
       <use xlink:href="#DejaVuSans-34"/>
      </g>
     </g>
    </g>
    <g id="xtick_6">
     <g id="line2d_6">
      <g>
       <use xlink:href="#mb3da68cf5c" x="431.682636" y="302.2" style="stroke: #000000; stroke-width: 0.8"/>
      </g>
     </g>
     <g id="text_6">
      <!-- 5 -->
      <g transform="translate(428.501386 316.798437) scale(0.1 -0.1)">
       <defs>
        <path id="DejaVuSans-35" d="M 691 4666 
L 3169 4666 
L 3169 4134 
L 1269 4134 
L 1269 2991 
Q 1406 3038 1543 3061 
Q 1681 3084 1819 3084 
Q 2600 3084 3056 2656 
Q 3513 2228 3513 1497 
Q 3513 744 3044 326 
Q 2575 -91 1722 -91 
Q 1428 -91 1123 -41 
Q 819 9 494 109 
L 494 744 
Q 775 591 1075 516 
Q 1375 441 1709 441 
Q 2250 441 2565 725 
Q 2881 1009 2881 1497 
Q 2881 1984 2565 2268 
Q 2250 2553 1709 2553 
Q 1456 2553 1204 2497 
Q 953 2441 691 2322 
L 691 4666 
z
" transform="scale(0.015625)"/>
       </defs>
       <use xlink:href="#DejaVuSans-35"/>
      </g>
     </g>
    </g>
    <g id="text_7">
     <!-- $W$ (m/hour) -->
     <g transform="translate(220.059 330.476562) scale(0.1 -0.1)">
      <defs>
       <path id="DejaVuSans-Oblique-57" d="M 616 4666 
L 1228 4666 
L 1453 697 
L 3213 4666 
L 3916 4666 
L 4147 697 
L 5888 4666 
L 6528 4666 
L 4453 0 
L 3659 0 
L 3444 3891 
L 1697 0 
L 903 0 
L 616 4666 
z
" transform="scale(0.015625)"/>
       <path id="DejaVuSans-20" transform="scale(0.015625)"/>
       <path id="DejaVuSans-28" d="M 1984 4856 
Q 1566 4138 1362 3434 
Q 1159 2731 1159 2009 
Q 1159 1288 1364 580 
Q 1569 -128 1984 -844 
L 1484 -844 
Q 1016 -109 783 600 
Q 550 1309 550 2009 
Q 550 2706 781 3412 
Q 1013 4119 1484 4856 
L 1984 4856 
z
" transform="scale(0.015625)"/>
       <path id="DejaVuSans-6d" d="M 3328 2828 
Q 3544 3216 3844 3400 
Q 4144 3584 4550 3584 
Q 5097 3584 5394 3201 
Q 5691 2819 5691 2113 
L 5691 0 
L 5113 0 
L 5113 2094 
Q 5113 2597 4934 2840 
Q 4756 3084 4391 3084 
Q 3944 3084 3684 2787 
Q 3425 2491 3425 1978 
L 3425 0 
L 2847 0 
L 2847 2094 
Q 2847 2600 2669 2842 
Q 2491 3084 2119 3084 
Q 1678 3084 1418 2786 
Q 1159 2488 1159 1978 
L 1159 0 
L 581 0 
L 581 3500 
L 1159 3500 
L 1159 2956 
Q 1356 3278 1631 3431 
Q 1906 3584 2284 3584 
Q 2666 3584 2933 3390 
Q 3200 3197 3328 2828 
z
" transform="scale(0.015625)"/>
       <path id="DejaVuSans-2f" d="M 1625 4666 
L 2156 4666 
L 531 -594 
L 0 -594 
L 1625 4666 
z
" transform="scale(0.015625)"/>
       <path id="DejaVuSans-68" d="M 3513 2113 
L 3513 0 
L 2938 0 
L 2938 2094 
Q 2938 2591 2744 2837 
Q 2550 3084 2163 3084 
Q 1697 3084 1428 2787 
Q 1159 2491 1159 1978 
L 1159 0 
L 581 0 
L 581 4863 
L 1159 4863 
L 1159 2956 
Q 1366 3272 1645 3428 
Q 1925 3584 2291 3584 
Q 2894 3584 3203 3211 
Q 3513 2838 3513 2113 
z
" transform="scale(0.015625)"/>
       <path id="DejaVuSans-6f" d="M 1959 3097 
Q 1497 3097 1228 2736 
Q 959 2375 959 1747 
Q 959 1119 1226 758 
Q 1494 397 1959 397 
Q 2419 397 2687 759 
Q 2956 1122 2956 1747 
Q 2956 2369 2687 2733 
Q 2419 3097 1959 3097 
z
M 1959 3584 
Q 2709 3584 3137 3096 
Q 3566 2609 3566 1747 
Q 3566 888 3137 398 
Q 2709 -91 1959 -91 
Q 1206 -91 779 398 
Q 353 888 353 1747 
Q 353 2609 779 3096 
Q 1206 3584 1959 3584 
z
" transform="scale(0.015625)"/>
       <path id="DejaVuSans-75" d="M 544 1381 
L 544 3500 
L 1119 3500 
L 1119 1403 
Q 1119 906 1312 657 
Q 1506 409 1894 409 
Q 2359 409 2629 706 
Q 2900 1003 2900 1516 
L 2900 3500 
L 3475 3500 
L 3475 0 
L 2900 0 
L 2900 538 
Q 2691 219 2414 64 
Q 2138 -91 1772 -91 
Q 1169 -91 856 284 
Q 544 659 544 1381 
z
M 1991 3584 
L 1991 3584 
z
" transform="scale(0.015625)"/>
       <path id="DejaVuSans-72" d="M 2631 2963 
Q 2534 3019 2420 3045 
Q 2306 3072 2169 3072 
Q 1681 3072 1420 2755 
Q 1159 2438 1159 1844 
L 1159 0 
L 581 0 
L 581 3500 
L 1159 3500 
L 1159 2956 
Q 1341 3275 1631 3429 
Q 1922 3584 2338 3584 
Q 2397 3584 2469 3576 
Q 2541 3569 2628 3553 
L 2631 2963 
z
" transform="scale(0.015625)"/>
       <path id="DejaVuSans-29" d="M 513 4856 
L 1013 4856 
Q 1481 4119 1714 3412 
Q 1947 2706 1947 2009 
Q 1947 1309 1714 600 
Q 1481 -109 1013 -844 
L 513 -844 
Q 928 -128 1133 580 
Q 1338 1288 1338 2009 
Q 1338 2731 1133 3434 
Q 928 4138 513 4856 
z
" transform="scale(0.015625)"/>
      </defs>
      <use xlink:href="#DejaVuSans-Oblique-57" transform="translate(0 0.015625)"/>
      <use xlink:href="#DejaVuSans-20" transform="translate(98.876953 0.015625)"/>
      <use xlink:href="#DejaVuSans-28" transform="translate(130.664062 0.015625)"/>
      <use xlink:href="#DejaVuSans-6d" transform="translate(169.677734 0.015625)"/>
      <use xlink:href="#DejaVuSans-2f" transform="translate(267.089844 0.015625)"/>
      <use xlink:href="#DejaVuSans-68" transform="translate(300.78125 0.015625)"/>
      <use xlink:href="#DejaVuSans-6f" transform="translate(364.160156 0.015625)"/>
      <use xlink:href="#DejaVuSans-75" transform="translate(425.341797 0.015625)"/>
      <use xlink:href="#DejaVuSans-72" transform="translate(488.720703 0.015625)"/>
      <use xlink:href="#DejaVuSans-29" transform="translate(529.833984 0.015625)"/>
     </g>
    </g>
   </g>
   <g id="matplotlib.axis_2">
    <g id="ytick_1">
     <g id="line2d_7">
      <defs>
       <path id="ma0a44f30aa" d="M 0 0 
L -3.5 0 
" style="stroke: #000000; stroke-width: 0.8"/>
      </defs>
      <g>
       <use xlink:href="#ma0a44f30aa" x="47.018" y="263.610692" style="stroke: #000000; stroke-width: 0.8"/>
      </g>
     </g>
     <g id="text_8">
      <!-- 0 -->
      <g transform="translate(33.6555 267.409911) scale(0.1 -0.1)">
       <use xlink:href="#DejaVuSans-30"/>
      </g>
     </g>
    </g>
    <g id="ytick_2">
     <g id="line2d_8">
      <g>
       <use xlink:href="#ma0a44f30aa" x="47.018" y="201.436664" style="stroke: #000000; stroke-width: 0.8"/>
      </g>
     </g>
     <g id="text_9">
      <!-- 10 -->
      <g transform="translate(27.293 205.235883) scale(0.1 -0.1)">
       <use xlink:href="#DejaVuSans-31"/>
       <use xlink:href="#DejaVuSans-30" transform="translate(63.623047 0)"/>
      </g>
     </g>
    </g>
    <g id="ytick_3">
     <g id="line2d_9">
      <g>
       <use xlink:href="#ma0a44f30aa" x="47.018" y="139.262636" style="stroke: #000000; stroke-width: 0.8"/>
      </g>
     </g>
     <g id="text_10">
      <!-- 20 -->
      <g transform="translate(27.293 143.061855) scale(0.1 -0.1)">
       <use xlink:href="#DejaVuSans-32"/>
       <use xlink:href="#DejaVuSans-30" transform="translate(63.623047 0)"/>
      </g>
     </g>
    </g>
    <g id="ytick_4">
     <g id="line2d_10">
      <g>
       <use xlink:href="#ma0a44f30aa" x="47.018" y="77.088608" style="stroke: #000000; stroke-width: 0.8"/>
      </g>
     </g>
     <g id="text_11">
      <!-- 30 -->
      <g transform="translate(27.293 80.887827) scale(0.1 -0.1)">
       <use xlink:href="#DejaVuSans-33"/>
       <use xlink:href="#DejaVuSans-30" transform="translate(63.623047 0)"/>
      </g>
     </g>
    </g>
    <g id="ytick_5">
     <g id="line2d_11">
      <g>
       <use xlink:href="#ma0a44f30aa" x="47.018" y="14.91458" style="stroke: #000000; stroke-width: 0.8"/>
      </g>
     </g>
     <g id="text_12">
      <!-- 40 -->
      <g transform="translate(27.293 18.713799) scale(0.1 -0.1)">
       <use xlink:href="#DejaVuSans-34"/>
       <use xlink:href="#DejaVuSans-30" transform="translate(63.623047 0)"/>
      </g>
     </g>
    </g>
    <g id="text_13">
     <!-- $Q_{lc}$ (kW) -->
     <g transform="translate(21.213312 177.889932) rotate(-90) scale(0.1 -0.1)">
      <defs>
       <path id="DejaVuSans-Oblique-51" d="M 2309 -84 
Q 2275 -88 2237 -89 
Q 2200 -91 2125 -91 
Q 1250 -91 756 411 
Q 263 913 263 1797 
Q 263 2319 452 2844 
Q 641 3369 978 3788 
Q 1369 4269 1858 4509 
Q 2347 4750 2938 4750 
Q 3794 4750 4287 4245 
Q 4781 3741 4781 2869 
Q 4781 1928 4265 1147 
Q 3750 366 2919 44 
L 3553 -825 
L 2847 -825 
L 2309 -84 
z
M 2919 4238 
Q 2400 4238 2003 3986 
Q 1606 3734 1313 3219 
Q 1125 2891 1026 2522 
Q 928 2153 928 1778 
Q 928 1128 1239 775 
Q 1550 422 2119 422 
Q 2631 422 3032 676 
Q 3434 931 3719 1434 
Q 3909 1772 4009 2142 
Q 4109 2513 4109 2881 
Q 4109 3528 3796 3883 
Q 3484 4238 2919 4238 
z
" transform="scale(0.015625)"/>
       <path id="DejaVuSans-Oblique-6c" d="M 1172 4863 
L 1747 4863 
L 800 0 
L 225 0 
L 1172 4863 
z
" transform="scale(0.015625)"/>
       <path id="DejaVuSans-Oblique-63" d="M 3431 3366 
L 3316 2797 
Q 3109 2947 2876 3022 
Q 2644 3097 2394 3097 
Q 2119 3097 1870 3000 
Q 1622 2903 1453 2725 
Q 1184 2453 1037 2087 
Q 891 1722 891 1331 
Q 891 859 1127 628 
Q 1363 397 1844 397 
Q 2081 397 2348 469 
Q 2616 541 2906 684 
L 2797 116 
Q 2547 13 2283 -39 
Q 2019 -91 1741 -91 
Q 1044 -91 669 257 
Q 294 606 294 1253 
Q 294 1797 489 2255 
Q 684 2713 1069 3078 
Q 1331 3328 1684 3456 
Q 2038 3584 2456 3584 
Q 2700 3584 2940 3529 
Q 3181 3475 3431 3366 
z
" transform="scale(0.015625)"/>
       <path id="DejaVuSans-6b" d="M 581 4863 
L 1159 4863 
L 1159 1991 
L 2875 3500 
L 3609 3500 
L 1753 1863 
L 3688 0 
L 2938 0 
L 1159 1709 
L 1159 0 
L 581 0 
L 581 4863 
z
" transform="scale(0.015625)"/>
       <path id="DejaVuSans-57" d="M 213 4666 
L 850 4666 
L 1831 722 
L 2809 4666 
L 3519 4666 
L 4500 722 
L 5478 4666 
L 6119 4666 
L 4947 0 
L 4153 0 
L 3169 4050 
L 2175 0 
L 1381 0 
L 213 4666 
z
" transform="scale(0.015625)"/>
      </defs>
      <use xlink:href="#DejaVuSans-Oblique-51" transform="translate(0 0.015625)"/>
      <use xlink:href="#DejaVuSans-Oblique-6c" transform="translate(78.710938 -16.390625) scale(0.7)"/>
      <use xlink:href="#DejaVuSans-Oblique-63" transform="translate(98.15918 -16.390625) scale(0.7)"/>
      <use xlink:href="#DejaVuSans-20" transform="translate(139.379883 0.015625)"/>
      <use xlink:href="#DejaVuSans-28" transform="translate(171.166992 0.015625)"/>
      <use xlink:href="#DejaVuSans-6b" transform="translate(210.180664 0.015625)"/>
      <use xlink:href="#DejaVuSans-57" transform="translate(268.09082 0.015625)"/>
      <use xlink:href="#DejaVuSans-29" transform="translate(366.967773 0.015625)"/>
     </g>
    </g>
   </g>
   <g id="line2d_12">
    <path d="M 65.335364 202.370996 
L 72.811839 192.952758 
L 80.288314 183.79113 
L 87.764788 174.774967 
L 95.241263 167.854021 
L 102.717738 159.871414 
L 110.194213 154.194387 
L 117.670688 147.782173 
L 125.147163 142.663894 
L 132.623638 137.760251 
L 140.100113 133.113887 
L 147.576588 129.519486 
L 155.053063 125.291912 
L 162.529538 122.065239 
L 170.006013 118.494833 
L 177.482488 114.998865 
L 184.958963 112.277779 
L 192.435438 109.1729 
L 199.911913 106.213308 
L 207.388388 103.420213 
L 214.864863 101.016342 
L 222.341338 98.089881 
L 229.817813 94.978072 
L 237.294288 92.794008 
L 244.770763 90.096978 
L 252.247237 88.602872 
L 259.723712 85.790832 
L 267.200187 83.548872 
L 274.676662 81.04216 
L 282.153137 79.741786 
L 289.629612 76.795226 
L 297.106087 75.070507 
L 304.582562 73.207155 
L 312.059037 71.366995 
L 319.535512 69.126818 
L 327.011987 66.815827 
L 334.488462 65.652547 
L 341.964937 63.273454 
L 349.441412 61.392312 
L 356.917887 60.243559 
L 364.394362 57.935714 
L 371.870837 56.367214 
L 379.347312 54.934608 
L 386.823787 53.078871 
L 394.300262 52.090861 
L 401.776737 49.794771 
L 409.253212 49.396984 
L 416.729686 47.591579 
L 424.206161 46.18562 
L 431.682636 44.715708 
" clip-path="url(#p63d2c6449f)" style="fill: none; stroke: #1f77b4; stroke-width: 1.5; stroke-linecap: square"/>
   </g>
   <g id="line2d_13">
    <path d="M 65.335364 239.355279 
L 72.811839 234.016775 
L 80.288314 228.209897 
L 87.764788 223.886139 
L 95.241263 220.044187 
L 102.717738 217.075846 
L 110.194213 213.793505 
L 117.670688 210.280243 
L 125.147163 207.396183 
L 132.623638 205.82487 
L 140.100113 203.645968 
L 147.576588 201.120271 
L 155.053063 199.610229 
L 162.529538 198.069496 
L 170.006013 196.984677 
L 177.482488 194.625517 
L 184.958963 193.150257 
L 192.435438 192.260224 
L 199.911913 190.900414 
L 207.388388 189.795359 
L 214.864863 188.488115 
L 222.341338 186.910366 
L 229.817813 185.606229 
L 237.294288 184.612615 
L 244.770763 183.9166 
L 252.247237 183.144502 
L 259.723712 181.778883 
L 267.200187 180.823183 
L 274.676662 179.766168 
L 282.153137 179.237992 
L 289.629612 177.498243 
L 297.106087 176.832816 
L 304.582562 175.845648 
L 312.059037 175.086517 
L 319.535512 174.067106 
L 327.011987 173.543091 
L 334.488462 172.801178 
L 341.964937 171.052677 
L 349.441412 170.58665 
L 356.917887 169.66406 
L 364.394362 169.079666 
L 371.870837 167.981141 
L 379.347312 165.967002 
L 386.823787 165.922698 
L 394.300262 165.401432 
L 401.776737 164.774077 
L 409.253212 164.346307 
L 416.729686 162.925569 
L 424.206161 161.947886 
L 431.682636 161.704396 
" clip-path="url(#p63d2c6449f)" style="fill: none; stroke: #ff7f0e; stroke-width: 1.5; stroke-linecap: square"/>
   </g>
   <g id="line2d_14">
    <path d="M 65.335364 258.009729 
L 72.811839 255.736232 
L 80.288314 254.141243 
L 87.764788 253.13461 
L 95.241263 251.33472 
L 102.717738 251.031945 
L 110.194213 249.647943 
L 117.670688 248.617238 
L 125.147163 247.784017 
L 132.623638 247.764563 
L 140.100113 246.320145 
L 147.576588 245.77346 
L 155.053063 245.739909 
L 162.529538 245.673554 
L 170.006013 244.814925 
L 177.482488 244.600675 
L 184.958963 243.687247 
L 192.435438 243.373674 
L 199.911913 243.15433 
L 207.388388 242.677195 
L 214.864863 243.236559 
L 222.341338 242.50588 
L 229.817813 242.05119 
L 237.294288 241.460816 
L 244.770763 241.244182 
L 252.247237 240.875074 
L 259.723712 240.151063 
L 267.200187 240.158886 
L 274.676662 239.521353 
L 282.153137 239.480852 
L 289.629612 238.810388 
L 297.106087 238.535506 
L 304.582562 238.698283 
L 312.059037 237.967134 
L 319.535512 237.695881 
L 327.011987 237.476071 
L 334.488462 236.665989 
L 341.964937 236.997969 
L 349.441412 236.908487 
L 356.917887 236.602738 
L 364.394362 236.635565 
L 371.870837 235.557418 
L 379.347312 235.863452 
L 386.823787 235.589469 
L 394.300262 235.198075 
L 401.776737 234.849651 
L 409.253212 234.358276 
L 416.729686 234.57935 
L 424.206161 233.94367 
L 431.682636 234.182379 
" clip-path="url(#p63d2c6449f)" style="fill: none; stroke: #2ca02c; stroke-width: 1.5; stroke-linecap: square"/>
   </g>
   <g id="line2d_15">
    <path d="M 65.335364 261.170745 
L 72.811839 261.447438 
L 80.288314 260.260249 
L 87.764788 260.872755 
L 95.241263 260.748874 
L 102.717738 260.686542 
L 110.194213 259.8248 
L 117.670688 259.882509 
L 125.147163 259.476836 
L 132.623638 259.647868 
L 140.100113 259.680087 
L 147.576588 260.240293 
L 155.053063 260.077762 
L 162.529538 260.628698 
L 170.006013 259.650713 
L 177.482488 259.650328 
L 184.958963 260.03264 
L 192.435438 260.652662 
L 199.911913 260.651402 
L 207.388388 260.565859 
L 214.864863 260.123188 
L 222.341338 260.042236 
L 229.817813 260.243423 
L 237.294288 260.327946 
L 244.770763 260.295013 
L 252.247237 260.530332 
L 259.723712 260.105784 
L 267.200187 260.763815 
L 274.676662 259.981357 
L 282.153137 260.712519 
L 289.629612 260.163753 
L 297.106087 260.179239 
L 304.582562 261.536545 
L 312.059037 260.328186 
L 319.535512 259.844913 
L 327.011987 260.548873 
L 334.488462 260.647421 
L 341.964937 260.870611 
L 349.441412 260.084527 
L 356.917887 260.566062 
L 364.394362 260.451975 
L 371.870837 260.244751 
L 379.347312 260.307892 
L 386.823787 259.872571 
L 394.300262 259.706847 
L 401.776737 259.620369 
L 409.253212 260.286302 
L 416.729686 260.553909 
L 424.206161 259.789761 
L 431.682636 259.826705 
" clip-path="url(#p63d2c6449f)" style="fill: none; stroke: #d62728; stroke-width: 1.5; stroke-linecap: square"/>
   </g>
   <g id="patch_3">
    <path d="M 47.018 302.2 
L 47.018 12.979864 
" style="fill: none; stroke: #000000; stroke-width: 0.8; stroke-linejoin: miter; stroke-linecap: square"/>
   </g>
   <g id="patch_4">
    <path d="M 450 302.2 
L 450 12.979864 
" style="fill: none; stroke: #000000; stroke-width: 0.8; stroke-linejoin: miter; stroke-linecap: square"/>
   </g>
   <g id="patch_5">
    <path d="M 47.018 302.2 
L 450 302.2 
" style="fill: none; stroke: #000000; stroke-width: 0.8; stroke-linejoin: miter; stroke-linecap: square"/>
   </g>
   <g id="patch_6">
    <path d="M 47.018 12.979864 
L 450 12.979864 
" style="fill: none; stroke: #000000; stroke-width: 0.8; stroke-linejoin: miter; stroke-linecap: square"/>
   </g>
   <g id="legend_1">
    <g id="patch_7">
     <path d="M 54.018 79.692364 
L 132.888313 79.692364 
Q 134.888313 79.692364 134.888313 77.692364 
L 134.888313 19.979864 
Q 134.888313 17.979864 132.888313 17.979864 
L 54.018 17.979864 
Q 52.018 17.979864 52.018 19.979864 
L 52.018 77.692364 
Q 52.018 79.692364 54.018 79.692364 
z
" style="fill: #ffffff; opacity: 0.8; stroke: #cccccc; stroke-linejoin: miter"/>
    </g>
    <g id="line2d_16">
     <path d="M 56.018 26.078301 
L 66.018 26.078301 
L 76.018 26.078301 
" style="fill: none; stroke: #1f77b4; stroke-width: 1.5; stroke-linecap: square"/>
    </g>
    <g id="text_14">
     <!-- Ts=100 K -->
     <g transform="translate(84.018 29.578301) scale(0.1 -0.1)">
      <defs>
       <path id="DejaVuSans-54" d="M -19 4666 
L 3928 4666 
L 3928 4134 
L 2272 4134 
L 2272 0 
L 1638 0 
L 1638 4134 
L -19 4134 
L -19 4666 
z
" transform="scale(0.015625)"/>
       <path id="DejaVuSans-73" d="M 2834 3397 
L 2834 2853 
Q 2591 2978 2328 3040 
Q 2066 3103 1784 3103 
Q 1356 3103 1142 2972 
Q 928 2841 928 2578 
Q 928 2378 1081 2264 
Q 1234 2150 1697 2047 
L 1894 2003 
Q 2506 1872 2764 1633 
Q 3022 1394 3022 966 
Q 3022 478 2636 193 
Q 2250 -91 1575 -91 
Q 1294 -91 989 -36 
Q 684 19 347 128 
L 347 722 
Q 666 556 975 473 
Q 1284 391 1588 391 
Q 1994 391 2212 530 
Q 2431 669 2431 922 
Q 2431 1156 2273 1281 
Q 2116 1406 1581 1522 
L 1381 1569 
Q 847 1681 609 1914 
Q 372 2147 372 2553 
Q 372 3047 722 3315 
Q 1072 3584 1716 3584 
Q 2034 3584 2315 3537 
Q 2597 3491 2834 3397 
z
" transform="scale(0.015625)"/>
       <path id="DejaVuSans-3d" d="M 678 2906 
L 4684 2906 
L 4684 2381 
L 678 2381 
L 678 2906 
z
M 678 1631 
L 4684 1631 
L 4684 1100 
L 678 1100 
L 678 1631 
z
" transform="scale(0.015625)"/>
       <path id="DejaVuSans-4b" d="M 628 4666 
L 1259 4666 
L 1259 2694 
L 3353 4666 
L 4166 4666 
L 1850 2491 
L 4331 0 
L 3500 0 
L 1259 2247 
L 1259 0 
L 628 0 
L 628 4666 
z
" transform="scale(0.015625)"/>
      </defs>
      <use xlink:href="#DejaVuSans-54"/>
      <use xlink:href="#DejaVuSans-73" transform="translate(44.583984 0)"/>
      <use xlink:href="#DejaVuSans-3d" transform="translate(96.683594 0)"/>
      <use xlink:href="#DejaVuSans-31" transform="translate(180.472656 0)"/>
      <use xlink:href="#DejaVuSans-30" transform="translate(244.095703 0)"/>
      <use xlink:href="#DejaVuSans-30" transform="translate(307.71875 0)"/>
      <use xlink:href="#DejaVuSans-20" transform="translate(371.341797 0)"/>
      <use xlink:href="#DejaVuSans-4b" transform="translate(403.128906 0)"/>
     </g>
    </g>
    <g id="line2d_17">
     <path d="M 56.018 40.756426 
L 66.018 40.756426 
L 76.018 40.756426 
" style="fill: none; stroke: #ff7f0e; stroke-width: 1.5; stroke-linecap: square"/>
    </g>
    <g id="text_15">
     <!-- Ts=160 K -->
     <g transform="translate(84.018 44.256426) scale(0.1 -0.1)">
      <defs>
       <path id="DejaVuSans-36" d="M 2113 2584 
Q 1688 2584 1439 2293 
Q 1191 2003 1191 1497 
Q 1191 994 1439 701 
Q 1688 409 2113 409 
Q 2538 409 2786 701 
Q 3034 994 3034 1497 
Q 3034 2003 2786 2293 
Q 2538 2584 2113 2584 
z
M 3366 4563 
L 3366 3988 
Q 3128 4100 2886 4159 
Q 2644 4219 2406 4219 
Q 1781 4219 1451 3797 
Q 1122 3375 1075 2522 
Q 1259 2794 1537 2939 
Q 1816 3084 2150 3084 
Q 2853 3084 3261 2657 
Q 3669 2231 3669 1497 
Q 3669 778 3244 343 
Q 2819 -91 2113 -91 
Q 1303 -91 875 529 
Q 447 1150 447 2328 
Q 447 3434 972 4092 
Q 1497 4750 2381 4750 
Q 2619 4750 2861 4703 
Q 3103 4656 3366 4563 
z
" transform="scale(0.015625)"/>
      </defs>
      <use xlink:href="#DejaVuSans-54"/>
      <use xlink:href="#DejaVuSans-73" transform="translate(44.583984 0)"/>
      <use xlink:href="#DejaVuSans-3d" transform="translate(96.683594 0)"/>
      <use xlink:href="#DejaVuSans-31" transform="translate(180.472656 0)"/>
      <use xlink:href="#DejaVuSans-36" transform="translate(244.095703 0)"/>
      <use xlink:href="#DejaVuSans-30" transform="translate(307.71875 0)"/>
      <use xlink:href="#DejaVuSans-20" transform="translate(371.341797 0)"/>
      <use xlink:href="#DejaVuSans-4b" transform="translate(403.128906 0)"/>
     </g>
    </g>
    <g id="line2d_18">
     <path d="M 56.018 55.434551 
L 66.018 55.434551 
L 76.018 55.434551 
" style="fill: none; stroke: #2ca02c; stroke-width: 1.5; stroke-linecap: square"/>
    </g>
    <g id="text_16">
     <!-- Ts=220 K -->
     <g transform="translate(84.018 58.934551) scale(0.1 -0.1)">
      <use xlink:href="#DejaVuSans-54"/>
      <use xlink:href="#DejaVuSans-73" transform="translate(44.583984 0)"/>
      <use xlink:href="#DejaVuSans-3d" transform="translate(96.683594 0)"/>
      <use xlink:href="#DejaVuSans-32" transform="translate(180.472656 0)"/>
      <use xlink:href="#DejaVuSans-32" transform="translate(244.095703 0)"/>
      <use xlink:href="#DejaVuSans-30" transform="translate(307.71875 0)"/>
      <use xlink:href="#DejaVuSans-20" transform="translate(371.341797 0)"/>
      <use xlink:href="#DejaVuSans-4b" transform="translate(403.128906 0)"/>
     </g>
    </g>
    <g id="line2d_19">
     <path d="M 56.018 70.112676 
L 66.018 70.112676 
L 76.018 70.112676 
" style="fill: none; stroke: #d62728; stroke-width: 1.5; stroke-linecap: square"/>
    </g>
    <g id="text_17">
     <!-- Ts=260 K -->
     <g transform="translate(84.018 73.612676) scale(0.1 -0.1)">
      <use xlink:href="#DejaVuSans-54"/>
      <use xlink:href="#DejaVuSans-73" transform="translate(44.583984 0)"/>
      <use xlink:href="#DejaVuSans-3d" transform="translate(96.683594 0)"/>
      <use xlink:href="#DejaVuSans-32" transform="translate(180.472656 0)"/>
      <use xlink:href="#DejaVuSans-36" transform="translate(244.095703 0)"/>
      <use xlink:href="#DejaVuSans-30" transform="translate(307.71875 0)"/>
      <use xlink:href="#DejaVuSans-20" transform="translate(371.341797 0)"/>
      <use xlink:href="#DejaVuSans-4b" transform="translate(403.128906 0)"/>
     </g>
    </g>
   </g>
  </g>
 </g>
 <defs>
  <clipPath id="p63d2c6449f">
   <rect x="47.018" y="12.979864" width="402.982" height="289.220136"/>
  </clipPath>
 </defs>
</svg>
