<?xml version="1.0" encoding="utf-8" standalone="no"?>
<!DOCTYPE svg PUBLIC "-//W3C//DTD SVG 1.1//EN"
  "http://www.w3.org/Graphics/SVG/1.1/DTD/svg11.dtd">
<svg xmlns:xlink="http://www.w3.org/1999/xlink" width="460.8pt" height="345.6pt" viewBox="0 0 460.8 345.6" xmlns="http://www.w3.org/2000/svg" version="1.1">
 <metadata>
  <rdf:RDF xmlns:dc="http://purl.org/dc/elements/1.1/" xmlns:cc="http://creativecommons.org/ns#" xmlns:rdf="http://www.w3.org/1999/02/22-rdf-syntax-ns#">
   <cc:Work>
    <dc:type rdf:resource="http://purl.org/dc/dcmitype/StillImage"/>
    <dc:date>2026-02-12T04:31:37.624421</dc:date>
    <dc:format>image/svg+xml</dc:format>
    <dc:creator>
     <cc:Agent>
      <dc:title>Matplotlib v3.10.8, https://matplotlib.org/</dc:title>
     </cc:Agent>
    </dc:creator>
   </cc:Work>
  </rdf:RDF>
 </metadata>
 <defs>
  <style type="text/css">*{stroke-linejoin: round; stroke-linecap: butt}</style>
 </defs>
 <g id="figure_1">
  <g id="patch_1">
   <path d="M 0 345.6 
L 460.8 345.6 
L 460.8 0 
L 0 0 
L 0 345.6 
z
" style="fill: none"/>
  </g>
  <g id="axes_1">
   <g id="patch_2">
    <path d="M 47.018 302.2 
L 450 302.2 
L 450 12.979864 
L 47.018 12.979864 
L 47.018 302.2 
z
" style="fill: none"/>
   </g>
   <g id="FillBetweenPolyCollection_1">
    <path d="M 65.335364 181.676428 
L 65.335364 263.232975 
L 72.811839 258.318669 
L 80.288314 249.58677 
L 87.764788 248.0039 
L 95.241263 243.433725 
L 102.717738 240.33234 
L 110.194213 237.305263 
L 117.670688 232.456114 
L 125.147163 231.203042 
L 132.623638 229.461754 
L 140.100113 228.647537 
L 147.576588 225.042905 
L 155.053063 222.592058 
L 162.529538 222.169993 
L 170.006013 221.64467 
L 177.482488 217.477069 
L 184.958963 219.938778 
L 192.435438 216.635727 
L 199.911913 215.752559 
L 207.388388 213.971985 
L 214.864863 214.821524 
L 222.341338 214.219609 
L 229.817813 213.287101 
L 237.294288 214.901603 
L 244.770763 214.847968 
L 252.247237 215.074331 
L 259.723712 213.37378 
L 267.200187 213.297828 
L 274.676662 214.220554 
L 282.153137 212.400267 
L 289.629612 211.58497 
L 297.106087 211.798149 
L 304.582562 213.003012 
L 312.059037 211.196741 
L 319.535512 212.972018 
L 327.011987 210.405884 
L 334.488462 211.079744 
L 341.964937 211.55588 
L 349.441412 211.605535 
L 356.917887 212.885984 
L 364.394362 211.38824 
L 371.870837 210.409172 
L 379.347312 210.643971 
L 386.823787 211.942005 
L 394.300262 210.451195 
L 401.776737 210.461943 
L 409.253212 210.106105 
L 416.729686 210.387314 
L 424.206161 210.831414 
L 431.682636 212.560231 
L 431.682636 26.126234 
L 431.682636 26.126234 
L 424.206161 27.062495 
L 416.729686 30.600737 
L 409.253212 31.594088 
L 401.776737 31.914556 
L 394.300262 34.008945 
L 386.823787 35.234741 
L 379.347312 37.620888 
L 371.870837 38.06528 
L 364.394362 39.924521 
L 356.917887 42.593849 
L 349.441412 43.689841 
L 341.964937 45.664777 
L 334.488462 47.61525 
L 327.011987 49.1238 
L 319.535512 51.372808 
L 312.059037 52.181099 
L 304.582562 55.200034 
L 297.106087 56.465491 
L 289.629612 59.768452 
L 282.153137 61.982664 
L 274.676662 63.322782 
L 267.200187 65.258999 
L 259.723712 67.691767 
L 252.247237 69.57603 
L 244.770763 72.903219 
L 237.294288 74.403544 
L 229.817813 76.444317 
L 222.341338 79.712596 
L 214.864863 82.92065 
L 207.388388 85.90264 
L 199.911913 87.118228 
L 192.435438 91.438792 
L 184.958963 94.550405 
L 177.482488 97.452749 
L 170.006013 99.712517 
L 162.529538 103.338461 
L 155.053063 107.465401 
L 147.576588 111.62629 
L 140.100113 115.285682 
L 132.623638 119.433305 
L 125.147163 124.799953 
L 117.670688 128.107195 
L 110.194213 135.532546 
L 102.717738 141.359592 
L 95.241263 149.802746 
L 87.764788 157.886529 
L 80.288314 165.890431 
L 72.811839 174.280683 
L 65.335364 181.676428 
z
" clip-path="url(#pf690d53367)" style="fill: #1f77b4; fill-opacity: 0.27"/>
   </g>
   <g id="FillBetweenPolyCollection_2">
    <path d="M 65.335364 190.886287 
L 65.335364 246.712982 
L 72.811839 241.135081 
L 80.288314 236.043423 
L 87.764788 231.421398 
L 95.241263 227.248153 
L 102.717738 223.499194 
L 110.194213 220.147125 
L 117.670688 217.162482 
L 125.147163 214.514603 
L 132.623638 212.172495 
L 140.100113 210.105626 
L 147.576588 208.284609 
L 155.053063 206.681747 
L 162.529538 205.271414 
L 170.006013 204.030281 
L 177.482488 202.937401 
L 184.958963 201.97417 
L 192.435438 201.124208 
L 199.911913 200.373179 
L 207.388388 199.708586 
L 214.864863 199.119554 
L 222.341338 198.596628 
L 229.817813 198.131586 
L 237.294288 197.717272 
L 244.770763 197.34745 
L 252.247237 197.016682 
L 259.723712 196.720216 
L 267.200187 196.453901 
L 274.676662 196.214102 
L 282.153137 195.997641 
L 289.629612 195.801742 
L 297.106087 195.62398 
L 304.582562 195.462249 
L 312.059037 195.314729 
L 319.535512 195.179856 
L 327.011987 195.056298 
L 334.488462 194.942937 
L 341.964937 194.838845 
L 349.441412 194.743272 
L 356.917887 194.655624 
L 364.394362 194.575455 
L 371.870837 194.502449 
L 379.347312 194.436412 
L 386.823787 194.377261 
L 394.300262 194.32501 
L 401.776737 194.27976 
L 409.253212 194.241688 
L 416.729686 194.211033 
L 424.206161 194.188081 
L 431.682636 194.173155 
L 431.682636 36.256384 
L 431.682636 36.256384 
L 424.206161 37.972787 
L 416.729686 39.676515 
L 409.253212 41.018043 
L 401.776737 42.411416 
L 394.300262 43.852772 
L 386.823787 45.339372 
L 379.347312 46.90011 
L 371.870837 48.500938 
L 364.394362 50.139847 
L 356.917887 51.816933 
L 349.441412 53.532755 
L 341.964937 55.288123 
L 334.488462 57.083939 
L 327.011987 58.921107 
L 319.535512 60.800523 
L 312.059037 62.723113 
L 304.582562 64.68992 
L 297.106087 66.702179 
L 289.629612 68.761367 
L 282.153137 70.869213 
L 274.676662 73.027653 
L 267.200187 75.238774 
L 259.723712 77.50476 
L 252.247237 79.827896 
L 244.770763 82.210665 
L 237.294288 84.655923 
L 229.817813 87.16716 
L 222.341338 89.748748 
L 214.864863 92.406155 
L 207.388388 95.146044 
L 199.911913 97.976304 
L 192.435438 100.906095 
L 184.958963 103.960324 
L 177.482488 107.16898 
L 170.006013 110.524908 
L 162.529538 114.025595 
L 155.053063 117.706767 
L 147.576588 121.547822 
L 140.100113 125.622267 
L 132.623638 129.987096 
L 125.147163 134.810737 
L 117.670688 140.1896 
L 110.194213 146.125956 
L 102.717738 152.703205 
L 95.241263 160.062743 
L 87.764788 168.281778 
L 80.288314 177.420146 
L 72.811839 187.51732 
L 65.335364 190.886287 
z
" clip-path="url(#pf690d53367)" style="fill: #ff7f0e; fill-opacity: 0.45"/>
   </g>
   <g id="FillBetweenPolyCollection_3">
    <path d="M 65.335364 207.770854 
L 65.335364 275.17364 
L 72.811839 269.614429 
L 80.288314 266.886135 
L 87.764788 263.488031 
L 95.241263 261.948648 
L 102.717738 259.783177 
L 110.194213 255.277008 
L 117.670688 255.230759 
L 125.147163 256.142662 
L 132.623638 252.071468 
L 140.100113 251.461079 
L 147.576588 250.637278 
L 155.053063 249.233742 
L 162.529538 248.566814 
L 170.006013 248.175348 
L 177.482488 247.669375 
L 184.958963 246.148574 
L 192.435438 244.490499 
L 199.911913 246.400231 
L 207.388388 242.331539 
L 214.864863 246.201268 
L 222.341338 242.37873 
L 229.817813 243.692647 
L 237.294288 244.509035 
L 244.770763 242.772829 
L 252.247237 243.092469 
L 259.723712 242.956144 
L 267.200187 239.91606 
L 274.676662 241.695127 
L 282.153137 242.084358 
L 289.629612 237.822092 
L 297.106087 239.615976 
L 304.582562 238.259204 
L 312.059037 239.399647 
L 319.535512 238.798717 
L 327.011987 238.87998 
L 334.488462 239.293348 
L 341.964937 238.836638 
L 349.441412 238.034752 
L 356.917887 238.170613 
L 364.394362 238.866061 
L 371.870837 239.926091 
L 379.347312 238.079138 
L 386.823787 237.220345 
L 394.300262 236.095477 
L 401.776737 234.774433 
L 409.253212 237.438764 
L 416.729686 236.417916 
L 424.206161 235.730234 
L 431.682636 237.539695 
L 431.682636 144.369339 
L 431.682636 144.369339 
L 424.206161 144.827316 
L 416.729686 145.747239 
L 409.253212 146.45582 
L 401.776737 146.506517 
L 394.300262 147.078323 
L 386.823787 148.450567 
L 379.347312 150.136646 
L 371.870837 150.289885 
L 364.394362 150.594218 
L 356.917887 152.742831 
L 349.441412 152.847469 
L 341.964937 153.360202 
L 334.488462 154.869866 
L 327.011987 156.303578 
L 319.535512 156.408901 
L 312.059037 159.178478 
L 304.582562 159.821035 
L 297.106087 159.246176 
L 289.629612 160.91034 
L 282.153137 161.828692 
L 274.676662 162.579088 
L 267.200187 163.762934 
L 259.723712 164.880473 
L 252.247237 165.132836 
L 244.770763 167.08236 
L 237.294288 167.794726 
L 229.817813 169.894226 
L 222.341338 171.742736 
L 214.864863 172.768358 
L 207.388388 173.865955 
L 199.911913 175.589966 
L 192.435438 173.777411 
L 184.958963 177.065043 
L 177.482488 178.30381 
L 170.006013 180.593314 
L 162.529538 179.680075 
L 155.053063 180.743013 
L 147.576588 182.313883 
L 140.100113 183.680184 
L 132.623638 185.944926 
L 125.147163 185.992016 
L 117.670688 187.264632 
L 110.194213 191.70619 
L 102.717738 191.742704 
L 95.241263 195.264799 
L 87.764788 198.140812 
L 80.288314 201.217877 
L 72.811839 205.695868 
L 65.335364 207.770854 
z
" clip-path="url(#pf690d53367)" style="fill: #2ca02c; fill-opacity: 0.27"/>
   </g>
   <g id="FillBetweenPolyCollection_4">
    <path d="M 65.335364 217.690017 
L 65.335364 257.40842 
L 72.811839 253.842491 
L 80.288314 250.62886 
L 87.764788 247.744635 
L 95.241263 245.165642 
L 102.717738 242.866962 
L 110.194213 240.823468 
L 117.670688 239.010326 
L 125.147163 237.403446 
L 132.623638 235.979868 
L 140.100113 234.718058 
L 147.576588 233.598131 
L 155.053063 232.601969 
L 162.529538 231.713275 
L 170.006013 230.917547 
L 177.482488 230.202 
L 184.958963 229.555449 
L 192.435438 228.968166 
L 199.911913 228.431725 
L 207.388388 227.938854 
L 214.864863 227.483282 
L 222.341338 227.059616 
L 229.817813 226.663213 
L 237.294288 226.290085 
L 244.770763 225.936805 
L 252.247237 225.600435 
L 259.723712 225.278454 
L 267.200187 224.968708 
L 274.676662 224.66936 
L 282.153137 224.378845 
L 289.629612 224.095841 
L 297.106087 223.819234 
L 304.582562 223.548094 
L 312.059037 223.28165 
L 319.535512 223.019277 
L 327.011987 222.760471 
L 334.488462 222.50484 
L 341.964937 222.252092 
L 349.441412 222.002018 
L 356.917887 221.754491 
L 364.394362 221.509453 
L 371.870837 221.26691 
L 379.347312 221.026929 
L 386.823787 220.789632 
L 394.300262 220.555193 
L 401.776737 220.323837 
L 409.253212 220.095837 
L 416.729686 219.87151 
L 424.206161 219.65122 
L 431.682636 219.435365 
L 431.682636 154.516846 
L 431.682636 154.516846 
L 424.206161 155.231301 
L 416.729686 155.962952 
L 409.253212 156.711634 
L 401.776737 157.477447 
L 394.300262 158.262906 
L 386.823787 159.065213 
L 379.347312 159.884542 
L 371.870837 160.72121 
L 364.394362 161.575658 
L 356.917887 162.448419 
L 349.441412 163.340078 
L 341.964937 164.251245 
L 334.488462 165.182525 
L 327.011987 166.134519 
L 319.535512 167.107822 
L 312.059037 168.10305 
L 304.582562 169.120862 
L 297.106087 170.161985 
L 289.629612 171.227231 
L 282.153137 172.317504 
L 274.676662 173.433791 
L 267.200187 174.577155 
L 259.723712 175.74873 
L 252.247237 176.949738 
L 244.770763 178.181516 
L 237.294288 179.445588 
L 229.817813 180.743738 
L 222.341338 182.0781 
L 214.864863 183.451237 
L 207.388388 184.866218 
L 199.911913 186.32669 
L 192.435438 187.837 
L 184.958963 189.333853 
L 177.482488 189.674003 
L 170.006013 190.069807 
L 162.529538 190.556274 
L 155.053063 191.151295 
L 147.576588 191.876774 
L 140.100113 192.759129 
L 132.623638 193.829325 
L 125.147163 195.122306 
L 117.670688 196.675774 
L 110.194213 198.528402 
L 102.717738 200.717699 
L 95.241263 203.277801 
L 87.764788 206.237515 
L 80.288314 209.618465 
L 72.811839 213.433115 
L 65.335364 217.690017 
z
" clip-path="url(#pf690d53367)" style="fill: #d62728; fill-opacity: 0.45"/>
   </g>
   <g id="FillBetweenPolyCollection_5">
    <path d="M 65.335364 239.135833 
L 65.335364 278.017095 
L 72.811839 276.216069 
L 80.288314 275.710053 
L 87.764788 274.333276 
L 95.241263 272.950488 
L 102.717738 275.366678 
L 110.194213 271.644769 
L 117.670688 272.673201 
L 125.147163 272.445703 
L 132.623638 271.575104 
L 140.100113 270.559468 
L 147.576588 271.479913 
L 155.053063 273.132204 
L 162.529538 270.641652 
L 170.006013 272.50998 
L 177.482488 269.790627 
L 184.958963 270.173594 
L 192.435438 268.054012 
L 199.911913 269.402382 
L 207.388388 273.17803 
L 214.864863 269.972494 
L 222.341338 268.821644 
L 229.817813 269.495084 
L 237.294288 270.61975 
L 244.770763 269.938532 
L 252.247237 269.673668 
L 259.723712 271.67932 
L 267.200187 271.284566 
L 274.676662 271.749806 
L 282.153137 268.15888 
L 289.629612 271.365373 
L 297.106087 270.575188 
L 304.582562 271.220184 
L 312.059037 269.607772 
L 319.535512 273.116002 
L 327.011987 271.012811 
L 334.488462 270.393415 
L 341.964937 270.180321 
L 349.441412 270.577233 
L 356.917887 267.442217 
L 364.394362 269.239216 
L 371.870837 269.447447 
L 379.347312 270.922136 
L 386.823787 271.445118 
L 394.300262 268.414592 
L 401.776737 271.363451 
L 409.253212 267.484746 
L 416.729686 268.83701 
L 424.206161 271.773551 
L 431.682636 270.766717 
L 431.682636 215.382958 
L 431.682636 215.382958 
L 424.206161 216.363892 
L 416.729686 216.639202 
L 409.253212 216.5173 
L 401.776737 216.827711 
L 394.300262 216.749277 
L 386.823787 217.958345 
L 379.347312 217.910353 
L 371.870837 217.660087 
L 364.394362 216.782645 
L 356.917887 217.663889 
L 349.441412 217.995468 
L 341.964937 218.181086 
L 334.488462 219.295694 
L 327.011987 219.523474 
L 319.535512 219.578714 
L 312.059037 219.623862 
L 304.582562 218.982894 
L 297.106087 219.492618 
L 289.629612 220.37165 
L 282.153137 221.104264 
L 274.676662 218.627158 
L 267.200187 219.744834 
L 259.723712 221.490934 
L 252.247237 222.366879 
L 244.770763 222.322191 
L 237.294288 223.035994 
L 229.817813 223.816718 
L 222.341338 222.907989 
L 214.864863 224.027167 
L 207.388388 225.100352 
L 199.911913 225.122032 
L 192.435438 225.448419 
L 184.958963 224.350284 
L 177.482488 226.895823 
L 170.006013 226.444481 
L 162.529538 227.778209 
L 155.053063 225.522291 
L 147.576588 227.60731 
L 140.100113 228.634124 
L 132.623638 229.179862 
L 125.147163 229.975634 
L 117.670688 230.634964 
L 110.194213 230.715386 
L 102.717738 233.038342 
L 95.241263 234.210695 
L 87.764788 233.972999 
L 80.288314 234.594583 
L 72.811839 235.895319 
L 65.335364 239.135833 
z
" clip-path="url(#pf690d53367)" style="fill: #9467bd; fill-opacity: 0.27"/>
   </g>
   <g id="FillBetweenPolyCollection_6">
    <path d="M 65.335364 254.650891 
L 65.335364 260.314001 
L 72.811839 259.096846 
L 80.288314 258.054755 
L 87.764788 257.170378 
L 95.241263 256.426852 
L 102.717738 255.808019 
L 110.194213 255.298619 
L 117.670688 254.884423 
L 125.147163 254.552337 
L 132.623638 254.290454 
L 140.100113 254.088067 
L 147.576588 253.935653 
L 155.053063 253.824814 
L 162.529538 253.748214 
L 170.006013 253.699488 
L 177.482488 253.673147 
L 184.958963 253.664486 
L 192.435438 253.669485 
L 199.911913 253.684722 
L 207.388388 253.707291 
L 214.864863 253.734734 
L 222.341338 253.76497 
L 229.817813 253.796247 
L 237.294288 253.827093 
L 244.770763 253.856275 
L 252.247237 253.882767 
L 259.723712 253.905718 
L 267.200187 253.924434 
L 274.676662 253.938351 
L 282.153137 253.94702 
L 289.629612 253.950092 
L 297.106087 253.947302 
L 304.582562 253.938459 
L 312.059037 253.923435 
L 319.535512 253.902156 
L 327.011987 253.874591 
L 334.488462 253.840746 
L 341.964937 253.800654 
L 349.441412 253.752542 
L 356.917887 253.702668 
L 364.394362 253.647739 
L 371.870837 253.588145 
L 379.347312 253.522521 
L 386.823787 253.450878 
L 394.300262 253.373264 
L 401.776737 253.28971 
L 409.253212 253.200228 
L 416.729686 253.104815 
L 424.206161 253.003453 
L 431.682636 252.896109 
L 431.682636 228.074446 
L 431.682636 228.074446 
L 424.206161 228.174411 
L 416.729686 228.283417 
L 409.253212 228.401342 
L 401.776737 228.528159 
L 394.300262 228.663913 
L 386.823787 228.808684 
L 379.347312 228.962569 
L 371.870837 229.125652 
L 364.394362 229.297994 
L 356.917887 229.479622 
L 349.441412 229.670536 
L 341.964937 229.870705 
L 334.488462 230.080073 
L 327.011987 230.298569 
L 319.535512 230.52611 
L 312.059037 230.762609 
L 304.582562 231.007984 
L 297.106087 231.262163 
L 289.629612 231.5251 
L 282.153137 231.796784 
L 274.676662 232.077258 
L 267.200187 232.36663 
L 259.723712 232.665104 
L 252.247237 232.973005 
L 244.770763 233.290816 
L 237.294288 233.619219 
L 229.817813 233.959149 
L 222.341338 234.311845 
L 214.864863 234.678908 
L 207.388388 235.062365 
L 199.911913 235.46473 
L 192.435438 235.889086 
L 184.958963 236.339168 
L 177.482488 236.819483 
L 170.006013 237.335444 
L 162.529538 237.893543 
L 155.053063 238.501529 
L 147.576588 239.168606 
L 140.100113 239.905606 
L 132.623638 240.725113 
L 125.147163 241.641529 
L 117.670688 242.671028 
L 110.194213 243.831406 
L 102.717738 245.141802 
L 95.241263 246.622304 
L 87.764788 248.293454 
L 80.288314 250.175679 
L 72.811839 252.288692 
L 65.335364 254.650891 
z
" clip-path="url(#pf690d53367)" style="fill: #8c564b; fill-opacity: 0.45"/>
   </g>
   <g id="FillBetweenPolyCollection_7">
    <path d="M 65.335364 237.312077 
L 65.335364 283.088622 
L 72.811839 283.436789 
L 80.288314 281.501397 
L 87.764788 280.341558 
L 95.241263 279.719273 
L 102.717738 282.309172 
L 110.194213 279.599806 
L 117.670688 280.742102 
L 125.147163 279.939199 
L 132.623638 278.95299 
L 140.100113 281.678967 
L 147.576588 280.932324 
L 155.053063 281.179616 
L 162.529538 280.933017 
L 170.006013 281.093189 
L 177.482488 281.265672 
L 184.958963 281.318763 
L 192.435438 283.737372 
L 199.911913 281.562526 
L 207.388388 281.940066 
L 214.864863 280.606664 
L 222.341338 280.892085 
L 229.817813 282.538384 
L 237.294288 282.664619 
L 244.770763 283.429368 
L 252.247237 284.12137 
L 259.723712 281.859574 
L 267.200187 282.541638 
L 274.676662 283.67295 
L 282.153137 283.136451 
L 289.629612 283.218565 
L 297.106087 282.627059 
L 304.582562 285.662931 
L 312.059037 284.60827 
L 319.535512 286.946784 
L 327.011987 286.680589 
L 334.488462 285.110847 
L 341.964937 284.981423 
L 349.441412 282.504257 
L 356.917887 287.856739 
L 364.394362 284.982318 
L 371.870837 286.889978 
L 379.347312 282.336842 
L 386.823787 283.777764 
L 394.300262 284.370725 
L 401.776737 289.05363 
L 409.253212 284.71392 
L 416.729686 284.825941 
L 424.206161 285.69448 
L 431.682636 285.415245 
L 431.682636 238.523316 
L 431.682636 238.523316 
L 424.206161 237.409653 
L 416.729686 241.001318 
L 409.253212 239.233515 
L 401.776737 239.827685 
L 394.300262 239.591998 
L 386.823787 239.025571 
L 379.347312 240.013107 
L 371.870837 239.942298 
L 364.394362 240.15655 
L 356.917887 239.976061 
L 349.441412 237.913402 
L 341.964937 238.110347 
L 334.488462 238.048986 
L 327.011987 239.022979 
L 319.535512 239.415442 
L 312.059037 238.947043 
L 304.582562 239.683394 
L 297.106087 239.235192 
L 289.629612 239.278086 
L 282.153137 241.131204 
L 274.676662 238.704394 
L 267.200187 240.680646 
L 259.723712 240.677798 
L 252.247237 237.35823 
L 244.770763 238.500306 
L 237.294288 238.493804 
L 229.817813 239.493279 
L 222.341338 237.422544 
L 214.864863 237.415471 
L 207.388388 239.525171 
L 199.911913 237.801231 
L 192.435438 237.373518 
L 184.958963 238.757279 
L 177.482488 236.715328 
L 170.006013 238.784457 
L 162.529538 239.178513 
L 155.053063 239.265419 
L 147.576588 237.521255 
L 140.100113 236.694432 
L 132.623638 236.434373 
L 125.147163 238.605928 
L 117.670688 238.408284 
L 110.194213 236.566853 
L 102.717738 238.365748 
L 95.241263 236.862013 
L 87.764788 237.026111 
L 80.288314 237.243241 
L 72.811839 236.721799 
L 65.335364 237.312077 
z
" clip-path="url(#pf690d53367)" style="fill: #e377c2; fill-opacity: 0.27"/>
   </g>
   <g id="FillBetweenPolyCollection_8">
    <path d="M 65.335364 257.688238 
L 65.335364 263.21631 
L 72.811839 262.555045 
L 80.288314 262.028067 
L 87.764788 261.617062 
L 95.241263 261.304901 
L 102.717738 261.076492 
L 110.194213 260.917082 
L 117.670688 260.811547 
L 125.147163 260.747621 
L 132.623638 260.714609 
L 140.100113 260.703411 
L 147.576588 260.70648 
L 155.053063 260.717729 
L 162.529538 260.732401 
L 170.006013 260.746913 
L 177.482488 260.758682 
L 184.958963 260.801201 
L 192.435438 261.017448 
L 199.911913 261.338959 
L 207.388388 261.652808 
L 214.864863 261.95787 
L 222.341338 262.253271 
L 229.817813 262.538346 
L 237.294288 262.812604 
L 244.770763 263.0757 
L 252.247237 263.327411 
L 259.723712 263.567617 
L 267.200187 263.79628 
L 274.676662 264.013437 
L 282.153137 264.219184 
L 289.629612 264.413667 
L 297.106087 264.597079 
L 304.582562 264.769649 
L 312.059037 264.931635 
L 319.535512 265.083326 
L 327.011987 265.225027 
L 334.488462 265.357062 
L 341.964937 265.479765 
L 349.441412 265.593475 
L 356.917887 265.698531 
L 364.394362 265.795266 
L 371.870837 265.884001 
L 379.347312 265.965039 
L 386.823787 266.038659 
L 394.300262 266.105109 
L 401.776737 266.164605 
L 409.253212 266.21732 
L 416.729686 266.263386 
L 424.206161 266.302888 
L 431.682636 266.335864 
L 431.682636 256.973121 
L 431.682636 256.973121 
L 424.206161 257.122698 
L 416.729686 257.261706 
L 409.253212 257.391238 
L 401.776737 257.512376 
L 394.300262 257.626168 
L 386.823787 257.733605 
L 379.347312 257.835608 
L 371.870837 257.933009 
L 364.394362 258.026549 
L 356.917887 258.116868 
L 349.441412 258.204509 
L 341.964937 258.289914 
L 334.488462 258.325619 
L 327.011987 258.238205 
L 319.535512 258.166554 
L 312.059037 258.110431 
L 304.582562 258.06934 
L 297.106087 258.042533 
L 289.629612 258.029021 
L 282.153137 258.027587 
L 274.676662 258.036804 
L 267.200187 258.055057 
L 259.723712 258.080573 
L 252.247237 258.111454 
L 244.770763 258.145719 
L 237.294288 258.181353 
L 229.817813 258.216364 
L 222.341338 258.24885 
L 214.864863 258.277073 
L 207.388388 258.299544 
L 199.911913 258.315115 
L 192.435438 258.323083 
L 184.958963 258.323301 
L 177.482488 258.316299 
L 170.006013 258.303412 
L 162.529538 258.286908 
L 155.053063 258.27012 
L 147.576588 258.25757 
L 140.100113 258.255086 
L 132.623638 258.219228 
L 125.147163 257.953848 
L 117.670688 257.719288 
L 110.194213 257.523202 
L 102.717738 257.374099 
L 95.241263 257.281338 
L 87.764788 257.255093 
L 80.288314 257.306309 
L 72.811839 257.446616 
L 65.335364 257.688238 
z
" clip-path="url(#pf690d53367)" style="fill: #7f7f7f; fill-opacity: 0.45"/>
   </g>
   <g id="matplotlib.axis_1">
    <g id="xtick_1">
     <g id="line2d_1">
      <defs>
       <path id="mfefcd0cf9d" d="M 0 0 
L 0 3.5 
" style="stroke: #000000; stroke-width: 0.8"/>
      </defs>
      <g>
       <use xlink:href="#mfefcd0cf9d" x="61.634886" y="302.2" style="stroke: #000000; stroke-width: 0.8"/>
      </g>
     </g>
     <g id="text_1">
      <!-- 0 -->
      <g transform="translate(58.453636 316.798437) scale(0.1 -0.1)">
       <defs>
        <path id="DejaVuSans-30" d="M 2034 4250 
Q 1547 4250 1301 3770 
Q 1056 3291 1056 2328 
Q 1056 1369 1301 889 
Q 1547 409 2034 409 
Q 2525 409 2770 889 
Q 3016 1369 3016 2328 
Q 3016 3291 2770 3770 
Q 2525 4250 2034 4250 
z
M 2034 4750 
Q 2819 4750 3233 4129 
Q 3647 3509 3647 2328 
Q 3647 1150 3233 529 
Q 2819 -91 2034 -91 
Q 1250 -91 836 529 
Q 422 1150 422 2328 
Q 422 3509 836 4129 
Q 1250 4750 2034 4750 
z
" transform="scale(0.015625)"/>
       </defs>
       <use xlink:href="#DejaVuSans-30"/>
      </g>
     </g>
    </g>
    <g id="xtick_2">
     <g id="line2d_2">
      <g>
       <use xlink:href="#mfefcd0cf9d" x="135.644436" y="302.2" style="stroke: #000000; stroke-width: 0.8"/>
      </g>
     </g>
     <g id="text_2">
      <!-- 1 -->
      <g transform="translate(132.463186 316.798437) scale(0.1 -0.1)">
       <defs>
        <path id="DejaVuSans-31" d="M 794 531 
L 1825 531 
L 1825 4091 
L 703 3866 
L 703 4441 
L 1819 4666 
L 2450 4666 
L 2450 531 
L 3481 531 
L 3481 0 
L 794 0 
L 794 531 
z
" transform="scale(0.015625)"/>
       </defs>
       <use xlink:href="#DejaVuSans-31"/>
      </g>
     </g>
    </g>
    <g id="xtick_3">
     <g id="line2d_3">
      <g>
       <use xlink:href="#mfefcd0cf9d" x="209.653986" y="302.2" style="stroke: #000000; stroke-width: 0.8"/>
      </g>
     </g>
     <g id="text_3">
      <!-- 2 -->
      <g transform="translate(206.472736 316.798437) scale(0.1 -0.1)">
       <defs>
        <path id="DejaVuSans-32" d="M 1228 531 
L 3431 531 
L 3431 0 
L 469 0 
L 469 531 
Q 828 903 1448 1529 
Q 2069 2156 2228 2338 
Q 2531 2678 2651 2914 
Q 2772 3150 2772 3378 
Q 2772 3750 2511 3984 
Q 2250 4219 1831 4219 
Q 1534 4219 1204 4116 
Q 875 4013 500 3803 
L 500 4441 
Q 881 4594 1212 4672 
Q 1544 4750 1819 4750 
Q 2544 4750 2975 4387 
Q 3406 4025 3406 3419 
Q 3406 3131 3298 2873 
Q 3191 2616 2906 2266 
Q 2828 2175 2409 1742 
Q 1991 1309 1228 531 
z
" transform="scale(0.015625)"/>
       </defs>
       <use xlink:href="#DejaVuSans-32"/>
      </g>
     </g>
    </g>
    <g id="xtick_4">
     <g id="line2d_4">
      <g>
       <use xlink:href="#mfefcd0cf9d" x="283.663536" y="302.2" style="stroke: #000000; stroke-width: 0.8"/>
      </g>
     </g>
     <g id="text_4">
      <!-- 3 -->
      <g transform="translate(280.482286 316.798437) scale(0.1 -0.1)">
       <defs>
        <path id="DejaVuSans-33" d="M 2597 2516 
Q 3050 2419 3304 2112 
Q 3559 1806 3559 1356 
Q 3559 666 3084 287 
Q 2609 -91 1734 -91 
Q 1441 -91 1130 -33 
Q 819 25 488 141 
L 488 750 
Q 750 597 1062 519 
Q 1375 441 1716 441 
Q 2309 441 2620 675 
Q 2931 909 2931 1356 
Q 2931 1769 2642 2001 
Q 2353 2234 1838 2234 
L 1294 2234 
L 1294 2753 
L 1863 2753 
Q 2328 2753 2575 2939 
Q 2822 3125 2822 3475 
Q 2822 3834 2567 4026 
Q 2313 4219 1838 4219 
Q 1578 4219 1281 4162 
Q 984 4106 628 3988 
L 628 4550 
Q 988 4650 1302 4700 
Q 1616 4750 1894 4750 
Q 2613 4750 3031 4423 
Q 3450 4097 3450 3541 
Q 3450 3153 3228 2886 
Q 3006 2619 2597 2516 
z
" transform="scale(0.015625)"/>
       </defs>
       <use xlink:href="#DejaVuSans-33"/>
      </g>
     </g>
    </g>
    <g id="xtick_5">
     <g id="line2d_5">
      <g>
       <use xlink:href="#mfefcd0cf9d" x="357.673086" y="302.2" style="stroke: #000000; stroke-width: 0.8"/>
      </g>
     </g>
     <g id="text_5">
      <!-- 4 -->
      <g transform="translate(354.491836 316.798437) scale(0.1 -0.1)">
       <defs>
        <path id="DejaVuSans-34" d="M 2419 4116 
L 825 1625 
L 2419 1625 
L 2419 4116 
z
M 2253 4666 
L 3047 4666 
L 3047 1625 
L 3713 1625 
L 3713 1100 
L 3047 1100 
L 3047 0 
L 2419 0 
L 2419 1100 
L 313 1100 
L 313 1709 
L 2253 4666 
z
" transform="scale(0.015625)"/>
       </defs>
       <use xlink:href="#DejaVuSans-34"/>
      </g>
     </g>
    </g>
    <g id="xtick_6">
     <g id="line2d_6">
      <g>
       <use xlink:href="#mfefcd0cf9d" x="431.682636" y="302.2" style="stroke: #000000; stroke-width: 0.8"/>
      </g>
     </g>
     <g id="text_6">
      <!-- 5 -->
      <g transform="translate(428.501386 316.798437) scale(0.1 -0.1)">
       <defs>
        <path id="DejaVuSans-35" d="M 691 4666 
L 3169 4666 
L 3169 4134 
L 1269 4134 
L 1269 2991 
Q 1406 3038 1543 3061 
Q 1681 3084 1819 3084 
Q 2600 3084 3056 2656 
Q 3513 2228 3513 1497 
Q 3513 744 3044 326 
Q 2575 -91 1722 -91 
Q 1428 -91 1123 -41 
Q 819 9 494 109 
L 494 744 
Q 775 591 1075 516 
Q 1375 441 1709 441 
Q 2250 441 2565 725 
Q 2881 1009 2881 1497 
Q 2881 1984 2565 2268 
Q 2250 2553 1709 2553 
Q 1456 2553 1204 2497 
Q 953 2441 691 2322 
L 691 4666 
z
" transform="scale(0.015625)"/>
       </defs>
       <use xlink:href="#DejaVuSans-35"/>
      </g>
     </g>
    </g>
    <g id="text_7">
     <!-- $W$ (m/hour) -->
     <g transform="translate(220.059 330.476562) scale(0.1 -0.1)">
      <defs>
       <path id="DejaVuSans-Oblique-57" d="M 616 4666 
L 1228 4666 
L 1453 697 
L 3213 4666 
L 3916 4666 
L 4147 697 
L 5888 4666 
L 6528 4666 
L 4453 0 
L 3659 0 
L 3444 3891 
L 1697 0 
L 903 0 
L 616 4666 
z
" transform="scale(0.015625)"/>
       <path id="DejaVuSans-20" transform="scale(0.015625)"/>
       <path id="DejaVuSans-28" d="M 1984 4856 
Q 1566 4138 1362 3434 
Q 1159 2731 1159 2009 
Q 1159 1288 1364 580 
Q 1569 -128 1984 -844 
L 1484 -844 
Q 1016 -109 783 600 
Q 550 1309 550 2009 
Q 550 2706 781 3412 
Q 1013 4119 1484 4856 
L 1984 4856 
z
" transform="scale(0.015625)"/>
       <path id="DejaVuSans-6d" d="M 3328 2828 
Q 3544 3216 3844 3400 
Q 4144 3584 4550 3584 
Q 5097 3584 5394 3201 
Q 5691 2819 5691 2113 
L 5691 0 
L 5113 0 
L 5113 2094 
Q 5113 2597 4934 2840 
Q 4756 3084 4391 3084 
Q 3944 3084 3684 2787 
Q 3425 2491 3425 1978 
L 3425 0 
L 2847 0 
L 2847 2094 
Q 2847 2600 2669 2842 
Q 2491 3084 2119 3084 
Q 1678 3084 1418 2786 
Q 1159 2488 1159 1978 
L 1159 0 
L 581 0 
L 581 3500 
L 1159 3500 
L 1159 2956 
Q 1356 3278 1631 3431 
Q 1906 3584 2284 3584 
Q 2666 3584 2933 3390 
Q 3200 3197 3328 2828 
z
" transform="scale(0.015625)"/>
       <path id="DejaVuSans-2f" d="M 1625 4666 
L 2156 4666 
L 531 -594 
L 0 -594 
L 1625 4666 
z
" transform="scale(0.015625)"/>
       <path id="DejaVuSans-68" d="M 3513 2113 
L 3513 0 
L 2938 0 
L 2938 2094 
Q 2938 2591 2744 2837 
Q 2550 3084 2163 3084 
Q 1697 3084 1428 2787 
Q 1159 2491 1159 1978 
L 1159 0 
L 581 0 
L 581 4863 
L 1159 4863 
L 1159 2956 
Q 1366 3272 1645 3428 
Q 1925 3584 2291 3584 
Q 2894 3584 3203 3211 
Q 3513 2838 3513 2113 
z
" transform="scale(0.015625)"/>
       <path id="DejaVuSans-6f" d="M 1959 3097 
Q 1497 3097 1228 2736 
Q 959 2375 959 1747 
Q 959 1119 1226 758 
Q 1494 397 1959 397 
Q 2419 397 2687 759 
Q 2956 1122 2956 1747 
Q 2956 2369 2687 2733 
Q 2419 3097 1959 3097 
z
M 1959 3584 
Q 2709 3584 3137 3096 
Q 3566 2609 3566 1747 
Q 3566 888 3137 398 
Q 2709 -91 1959 -91 
Q 1206 -91 779 398 
Q 353 888 353 1747 
Q 353 2609 779 3096 
Q 1206 3584 1959 3584 
z
" transform="scale(0.015625)"/>
       <path id="DejaVuSans-75" d="M 544 1381 
L 544 3500 
L 1119 3500 
L 1119 1403 
Q 1119 906 1312 657 
Q 1506 409 1894 409 
Q 2359 409 2629 706 
Q 2900 1003 2900 1516 
L 2900 3500 
L 3475 3500 
L 3475 0 
L 2900 0 
L 2900 538 
Q 2691 219 2414 64 
Q 2138 -91 1772 -91 
Q 1169 -91 856 284 
Q 544 659 544 1381 
z
M 1991 3584 
L 1991 3584 
z
" transform="scale(0.015625)"/>
       <path id="DejaVuSans-72" d="M 2631 2963 
Q 2534 3019 2420 3045 
Q 2306 3072 2169 3072 
Q 1681 3072 1420 2755 
Q 1159 2438 1159 1844 
L 1159 0 
L 581 0 
L 581 3500 
L 1159 3500 
L 1159 2956 
Q 1341 3275 1631 3429 
Q 1922 3584 2338 3584 
Q 2397 3584 2469 3576 
Q 2541 3569 2628 3553 
L 2631 2963 
z
" transform="scale(0.015625)"/>
       <path id="DejaVuSans-29" d="M 513 4856 
L 1013 4856 
Q 1481 4119 1714 3412 
Q 1947 2706 1947 2009 
Q 1947 1309 1714 600 
Q 1481 -109 1013 -844 
L 513 -844 
Q 928 -128 1133 580 
Q 1338 1288 1338 2009 
Q 1338 2731 1133 3434 
Q 928 4138 513 4856 
z
" transform="scale(0.015625)"/>
      </defs>
      <use xlink:href="#DejaVuSans-Oblique-57" transform="translate(0 0.015625)"/>
      <use xlink:href="#DejaVuSans-20" transform="translate(98.876953 0.015625)"/>
      <use xlink:href="#DejaVuSans-28" transform="translate(130.664062 0.015625)"/>
      <use xlink:href="#DejaVuSans-6d" transform="translate(169.677734 0.015625)"/>
      <use xlink:href="#DejaVuSans-2f" transform="translate(267.089844 0.015625)"/>
      <use xlink:href="#DejaVuSans-68" transform="translate(300.78125 0.015625)"/>
      <use xlink:href="#DejaVuSans-6f" transform="translate(364.160156 0.015625)"/>
      <use xlink:href="#DejaVuSans-75" transform="translate(425.341797 0.015625)"/>
      <use xlink:href="#DejaVuSans-72" transform="translate(488.720703 0.015625)"/>
      <use xlink:href="#DejaVuSans-29" transform="translate(529.833984 0.015625)"/>
     </g>
    </g>
   </g>
   <g id="matplotlib.axis_2">
    <g id="ytick_1">
     <g id="line2d_7">
      <defs>
       <path id="mdd9e8c7341" d="M 0 0 
L -3.5 0 
" style="stroke: #000000; stroke-width: 0.8"/>
      </defs>
      <g>
       <use xlink:href="#mdd9e8c7341" x="47.018" y="263.610692" style="stroke: #000000; stroke-width: 0.8"/>
      </g>
     </g>
     <g id="text_8">
      <!-- 0 -->
      <g transform="translate(33.6555 267.409911) scale(0.1 -0.1)">
       <use xlink:href="#DejaVuSans-30"/>
      </g>
     </g>
    </g>
    <g id="ytick_2">
     <g id="line2d_8">
      <g>
       <use xlink:href="#mdd9e8c7341" x="47.018" y="201.436664" style="stroke: #000000; stroke-width: 0.8"/>
      </g>
     </g>
     <g id="text_9">
      <!-- 10 -->
      <g transform="translate(27.293 205.235883) scale(0.1 -0.1)">
       <use xlink:href="#DejaVuSans-31"/>
       <use xlink:href="#DejaVuSans-30" transform="translate(63.623047 0)"/>
      </g>
     </g>
    </g>
    <g id="ytick_3">
     <g id="line2d_9">
      <g>
       <use xlink:href="#mdd9e8c7341" x="47.018" y="139.262636" style="stroke: #000000; stroke-width: 0.8"/>
      </g>
     </g>
     <g id="text_10">
      <!-- 20 -->
      <g transform="translate(27.293 143.061855) scale(0.1 -0.1)">
       <use xlink:href="#DejaVuSans-32"/>
       <use xlink:href="#DejaVuSans-30" transform="translate(63.623047 0)"/>
      </g>
     </g>
    </g>
    <g id="ytick_4">
     <g id="line2d_10">
      <g>
       <use xlink:href="#mdd9e8c7341" x="47.018" y="77.088608" style="stroke: #000000; stroke-width: 0.8"/>
      </g>
     </g>
     <g id="text_11">
      <!-- 30 -->
      <g transform="translate(27.293 80.887827) scale(0.1 -0.1)">
       <use xlink:href="#DejaVuSans-33"/>
       <use xlink:href="#DejaVuSans-30" transform="translate(63.623047 0)"/>
      </g>
     </g>
    </g>
    <g id="ytick_5">
     <g id="line2d_11">
      <g>
       <use xlink:href="#mdd9e8c7341" x="47.018" y="14.91458" style="stroke: #000000; stroke-width: 0.8"/>
      </g>
     </g>
     <g id="text_12">
      <!-- 40 -->
      <g transform="translate(27.293 18.713799) scale(0.1 -0.1)">
       <use xlink:href="#DejaVuSans-34"/>
       <use xlink:href="#DejaVuSans-30" transform="translate(63.623047 0)"/>
      </g>
     </g>
    </g>
    <g id="text_13">
     <!-- $Q_{lc}$ (kW) -->
     <g transform="translate(21.213312 177.889932) rotate(-90) scale(0.1 -0.1)">
      <defs>
       <path id="DejaVuSans-Oblique-51" d="M 2309 -84 
Q 2275 -88 2237 -89 
Q 2200 -91 2125 -91 
Q 1250 -91 756 411 
Q 263 913 263 1797 
Q 263 2319 452 2844 
Q 641 3369 978 3788 
Q 1369 4269 1858 4509 
Q 2347 4750 2938 4750 
Q 3794 4750 4287 4245 
Q 4781 3741 4781 2869 
Q 4781 1928 4265 1147 
Q 3750 366 2919 44 
L 3553 -825 
L 2847 -825 
L 2309 -84 
z
M 2919 4238 
Q 2400 4238 2003 3986 
Q 1606 3734 1313 3219 
Q 1125 2891 1026 2522 
Q 928 2153 928 1778 
Q 928 1128 1239 775 
Q 1550 422 2119 422 
Q 2631 422 3032 676 
Q 3434 931 3719 1434 
Q 3909 1772 4009 2142 
Q 4109 2513 4109 2881 
Q 4109 3528 3796 3883 
Q 3484 4238 2919 4238 
z
" transform="scale(0.015625)"/>
       <path id="DejaVuSans-Oblique-6c" d="M 1172 4863 
L 1747 4863 
L 800 0 
L 225 0 
L 1172 4863 
z
" transform="scale(0.015625)"/>
       <path id="DejaVuSans-Oblique-63" d="M 3431 3366 
L 3316 2797 
Q 3109 2947 2876 3022 
Q 2644 3097 2394 3097 
Q 2119 3097 1870 3000 
Q 1622 2903 1453 2725 
Q 1184 2453 1037 2087 
Q 891 1722 891 1331 
Q 891 859 1127 628 
Q 1363 397 1844 397 
Q 2081 397 2348 469 
Q 2616 541 2906 684 
L 2797 116 
Q 2547 13 2283 -39 
Q 2019 -91 1741 -91 
Q 1044 -91 669 257 
Q 294 606 294 1253 
Q 294 1797 489 2255 
Q 684 2713 1069 3078 
Q 1331 3328 1684 3456 
Q 2038 3584 2456 3584 
Q 2700 3584 2940 3529 
Q 3181 3475 3431 3366 
z
" transform="scale(0.015625)"/>
       <path id="DejaVuSans-6b" d="M 581 4863 
L 1159 4863 
L 1159 1991 
L 2875 3500 
L 3609 3500 
L 1753 1863 
L 3688 0 
L 2938 0 
L 1159 1709 
L 1159 0 
L 581 0 
L 581 4863 
z
" transform="scale(0.015625)"/>
       <path id="DejaVuSans-57" d="M 213 4666 
L 850 4666 
L 1831 722 
L 2809 4666 
L 3519 4666 
L 4500 722 
L 5478 4666 
L 6119 4666 
L 4947 0 
L 4153 0 
L 3169 4050 
L 2175 0 
L 1381 0 
L 213 4666 
z
" transform="scale(0.015625)"/>
      </defs>
      <use xlink:href="#DejaVuSans-Oblique-51" transform="translate(0 0.015625)"/>
      <use xlink:href="#DejaVuSans-Oblique-6c" transform="translate(78.710938 -16.390625) scale(0.7)"/>
      <use xlink:href="#DejaVuSans-Oblique-63" transform="translate(98.15918 -16.390625) scale(0.7)"/>
      <use xlink:href="#DejaVuSans-20" transform="translate(139.379883 0.015625)"/>
      <use xlink:href="#DejaVuSans-28" transform="translate(171.166992 0.015625)"/>
      <use xlink:href="#DejaVuSans-6b" transform="translate(210.180664 0.015625)"/>
      <use xlink:href="#DejaVuSans-57" transform="translate(268.09082 0.015625)"/>
      <use xlink:href="#DejaVuSans-29" transform="translate(366.967773 0.015625)"/>
     </g>
    </g>
   </g>
   <g id="line2d_12">
    <path d="M 65.335364 200.284788 
L 72.811839 189.998292 
L 80.288314 181.142153 
L 87.764788 171.729365 
L 95.241263 163.388625 
L 102.717738 156.030243 
L 110.194213 149.425405 
L 117.670688 143.581798 
L 125.147163 138.333585 
L 132.623638 133.615193 
L 140.100113 129.269149 
L 147.576588 125.227124 
L 155.053063 121.409889 
L 162.529538 117.776663 
L 170.006013 114.303713 
L 177.482488 110.977495 
L 184.958963 107.815032 
L 192.435438 104.822116 
L 199.911913 101.93114 
L 207.388388 99.129095 
L 214.864863 96.420322 
L 222.341338 93.796793 
L 229.817813 91.251826 
L 237.294288 88.779891 
L 244.770763 86.376428 
L 252.247237 84.035082 
L 259.723712 81.70846 
L 267.200187 79.436354 
L 274.676662 77.16848 
L 282.153137 74.947109 
L 289.629612 72.800891 
L 297.106087 70.725163 
L 304.582562 68.741931 
L 312.059037 66.81348 
L 319.535512 64.927813 
L 327.011987 63.083884 
L 334.488462 61.280752 
L 341.964937 59.517496 
L 349.441412 57.793178 
L 356.917887 56.009643 
L 364.394362 54.254951 
L 371.870837 52.507209 
L 379.347312 50.853251 
L 386.823787 49.31404 
L 394.300262 47.815463 
L 401.776737 46.357804 
L 409.253212 44.944321 
L 416.729686 43.551711 
L 424.206161 42.210724 
L 431.682636 40.929226 
" clip-path="url(#pf690d53367)" style="fill: none; stroke: #1f77b4; stroke-width: 1.5; stroke-linecap: square"/>
   </g>
   <g id="line2d_13">
    <path d="M 65.335364 238.014116 
L 72.811839 232.297849 
L 80.288314 227.144925 
L 87.764788 222.555423 
L 95.241263 218.512882 
L 102.717738 214.875541 
L 110.194213 211.66116 
L 117.670688 208.823999 
L 125.147163 206.273569 
L 132.623638 203.899054 
L 140.100113 201.689721 
L 147.576588 199.61809 
L 155.053063 197.680879 
L 162.529538 195.854592 
L 170.006013 194.132327 
L 177.482488 192.492344 
L 184.958963 190.9279 
L 192.435438 189.421252 
L 199.911913 188.426246 
L 207.388388 187.025653 
L 214.864863 185.666648 
L 222.341338 184.349959 
L 229.817813 183.067278 
L 237.294288 181.815967 
L 244.770763 180.594202 
L 252.247237 179.400618 
L 259.723712 178.234045 
L 267.200187 177.096777 
L 274.676662 175.986882 
L 282.153137 174.901989 
L 289.629612 173.841072 
L 297.106087 172.803161 
L 304.582562 171.787368 
L 312.059037 170.792908 
L 319.535512 169.81909 
L 327.011987 168.865299 
L 334.488462 167.930962 
L 341.964937 167.000666 
L 349.441412 166.06543 
L 356.917887 165.121761 
L 364.394362 164.248084 
L 371.870837 163.398979 
L 379.347312 162.565532 
L 386.823787 161.747305 
L 394.300262 160.944044 
L 401.776737 160.155717 
L 409.253212 159.382516 
L 416.729686 158.624833 
L 424.206161 157.883208 
L 431.682636 157.158251 
" clip-path="url(#pf690d53367)" style="fill: none; stroke: #ff7f0e; stroke-width: 1.5; stroke-linecap: square"/>
   </g>
   <g id="line2d_14">
    <path d="M 65.335364 257.935394 
L 72.811839 256.069984 
L 80.288314 254.440755 
L 87.764788 253.001826 
L 95.241263 251.730669 
L 102.717738 250.627836 
L 110.194213 249.636706 
L 117.670688 248.753461 
L 125.147163 247.959247 
L 132.623638 247.237411 
L 140.100113 246.573863 
L 147.576588 245.960909 
L 155.053063 245.384006 
L 162.529538 244.83579 
L 170.006013 244.310758 
L 177.482488 243.804911 
L 184.958963 243.315397 
L 192.435438 242.84019 
L 199.911913 242.377827 
L 207.388388 241.927225 
L 214.864863 241.487548 
L 222.341338 241.058138 
L 229.817813 240.638465 
L 237.294288 240.228101 
L 244.770763 239.826693 
L 252.247237 239.440235 
L 259.723712 239.075049 
L 267.200187 238.724606 
L 274.676662 238.380681 
L 282.153137 238.042846 
L 289.629612 237.710697 
L 297.106087 237.383884 
L 304.582562 237.062115 
L 312.059037 236.738491 
L 319.535512 236.420044 
L 327.011987 236.106776 
L 334.488462 235.798425 
L 341.964937 235.494711 
L 349.441412 235.195339 
L 356.917887 234.900004 
L 364.394362 234.608383 
L 371.870837 234.320117 
L 379.347312 234.034769 
L 386.823787 233.75178 
L 394.300262 233.470417 
L 401.776737 233.189738 
L 409.253212 232.908576 
L 416.729686 232.625553 
L 424.206161 232.336749 
L 431.682636 232.039584 
" clip-path="url(#pf690d53367)" style="fill: none; stroke: #2ca02c; stroke-width: 1.5; stroke-linecap: square"/>
   </g>
   <g id="line2d_15">
    <path d="M 65.335364 262.743672 
L 72.811839 262.002432 
L 80.288314 261.415735 
L 87.764788 260.955202 
L 95.241263 260.602312 
L 102.717738 260.339465 
L 110.194213 260.150409 
L 117.670688 260.087636 
L 125.147163 259.985694 
L 132.623638 259.884837 
L 140.100113 259.811346 
L 147.576588 259.817962 
L 155.053063 259.864081 
L 162.529538 259.91487 
L 170.006013 259.978674 
L 177.482488 260.138505 
L 184.958963 260.3631 
L 192.435438 260.354116 
L 199.911913 260.339891 
L 207.388388 260.320085 
L 214.864863 260.331497 
L 222.341338 260.346247 
L 229.817813 260.350436 
L 237.294288 260.369637 
L 244.770763 260.363594 
L 252.247237 260.357438 
L 259.723712 260.315554 
L 267.200187 260.263802 
L 274.676662 260.209445 
L 282.153137 260.152843 
L 289.629612 260.094301 
L 297.106087 260.034065 
L 304.582562 259.972321 
L 312.059037 259.909189 
L 319.535512 259.844725 
L 327.011987 259.778913 
L 334.488462 259.711663 
L 341.964937 259.642806 
L 349.441412 259.572083 
L 356.917887 259.499146 
L 364.394362 259.423544 
L 371.870837 259.344722 
L 379.347312 259.262013 
L 386.823787 259.34225 
L 394.300262 259.486288 
L 401.776737 259.536343 
L 409.253212 259.564509 
L 416.729686 259.477282 
L 424.206161 259.381268 
L 431.682636 259.275306 
" clip-path="url(#pf690d53367)" style="fill: none; stroke: #d62728; stroke-width: 1.5; stroke-linecap: square"/>
   </g>
   <g id="patch_3">
    <path d="M 47.018 302.2 
L 47.018 12.979864 
" style="fill: none; stroke: #000000; stroke-width: 0.8; stroke-linejoin: miter; stroke-linecap: square"/>
   </g>
   <g id="patch_4">
    <path d="M 450 302.2 
L 450 12.979864 
" style="fill: none; stroke: #000000; stroke-width: 0.8; stroke-linejoin: miter; stroke-linecap: square"/>
   </g>
   <g id="patch_5">
    <path d="M 47.018 302.2 
L 450 302.2 
" style="fill: none; stroke: #000000; stroke-width: 0.8; stroke-linejoin: miter; stroke-linecap: square"/>
   </g>
   <g id="patch_6">
    <path d="M 47.018 12.979864 
L 450 12.979864 
" style="fill: none; stroke: #000000; stroke-width: 0.8; stroke-linejoin: miter; stroke-linecap: square"/>
   </g>
   <g id="legend_1">
    <g id="patch_7">
     <path d="M 54.018 79.692364 
L 132.888313 79.692364 
Q 134.888313 79.692364 134.888313 77.692364 
L 134.888313 19.979864 
Q 134.888313 17.979864 132.888313 17.979864 
L 54.018 17.979864 
Q 52.018 17.979864 52.018 19.979864 
L 52.018 77.692364 
Q 52.018 79.692364 54.018 79.692364 
z
" style="fill: #ffffff; opacity: 0.8; stroke: #cccccc; stroke-linejoin: miter"/>
    </g>
    <g id="line2d_16">
     <path d="M 56.018 26.078301 
L 66.018 26.078301 
L 76.018 26.078301 
" style="fill: none; stroke: #1f77b4; stroke-width: 1.5; stroke-linecap: square"/>
    </g>
    <g id="text_14">
     <!-- Ts=100 K -->
     <g transform="translate(84.018 29.578301) scale(0.1 -0.1)">
      <defs>
       <path id="DejaVuSans-54" d="M -19 4666 
L 3928 4666 
L 3928 4134 
L 2272 4134 
L 2272 0 
L 1638 0 
L 1638 4134 
L -19 4134 
L -19 4666 
z
" transform="scale(0.015625)"/>
       <path id="DejaVuSans-73" d="M 2834 3397 
L 2834 2853 
Q 2591 2978 2328 3040 
Q 2066 3103 1784 3103 
Q 1356 3103 1142 2972 
Q 928 2841 928 2578 
Q 928 2378 1081 2264 
Q 1234 2150 1697 2047 
L 1894 2003 
Q 2506 1872 2764 1633 
Q 3022 1394 3022 966 
Q 3022 478 2636 193 
Q 2250 -91 1575 -91 
Q 1294 -91 989 -36 
Q 684 19 347 128 
L 347 722 
Q 666 556 975 473 
Q 1284 391 1588 391 
Q 1994 391 2212 530 
Q 2431 669 2431 922 
Q 2431 1156 2273 1281 
Q 2116 1406 1581 1522 
L 1381 1569 
Q 847 1681 609 1914 
Q 372 2147 372 2553 
Q 372 3047 722 3315 
Q 1072 3584 1716 3584 
Q 2034 3584 2315 3537 
Q 2597 3491 2834 3397 
z
" transform="scale(0.015625)"/>
       <path id="DejaVuSans-3d" d="M 678 2906 
L 4684 2906 
L 4684 2381 
L 678 2381 
L 678 2906 
z
M 678 1631 
L 4684 1631 
L 4684 1100 
L 678 1100 
L 678 1631 
z
" transform="scale(0.015625)"/>
       <path id="DejaVuSans-4b" d="M 628 4666 
L 1259 4666 
L 1259 2694 
L 3353 4666 
L 4166 4666 
L 1850 2491 
L 4331 0 
L 3500 0 
L 1259 2247 
L 1259 0 
L 628 0 
L 628 4666 
z
" transform="scale(0.015625)"/>
      </defs>
      <use xlink:href="#DejaVuSans-54"/>
      <use xlink:href="#DejaVuSans-73" transform="translate(44.583984 0)"/>
      <use xlink:href="#DejaVuSans-3d" transform="translate(96.683594 0)"/>
      <use xlink:href="#DejaVuSans-31" transform="translate(180.472656 0)"/>
      <use xlink:href="#DejaVuSans-30" transform="translate(244.095703 0)"/>
      <use xlink:href="#DejaVuSans-30" transform="translate(307.71875 0)"/>
      <use xlink:href="#DejaVuSans-20" transform="translate(371.341797 0)"/>
      <use xlink:href="#DejaVuSans-4b" transform="translate(403.128906 0)"/>
     </g>
    </g>
    <g id="line2d_17">
     <path d="M 56.018 40.756426 
L 66.018 40.756426 
L 76.018 40.756426 
" style="fill: none; stroke: #ff7f0e; stroke-width: 1.5; stroke-linecap: square"/>
    </g>
    <g id="text_15">
     <!-- Ts=160 K -->
     <g transform="translate(84.018 44.256426) scale(0.1 -0.1)">
      <defs>
       <path id="DejaVuSans-36" d="M 2113 2584 
Q 1688 2584 1439 2293 
Q 1191 2003 1191 1497 
Q 1191 994 1439 701 
Q 1688 409 2113 409 
Q 2538 409 2786 701 
Q 3034 994 3034 1497 
Q 3034 2003 2786 2293 
Q 2538 2584 2113 2584 
z
M 3366 4563 
L 3366 3988 
Q 3128 4100 2886 4159 
Q 2644 4219 2406 4219 
Q 1781 4219 1451 3797 
Q 1122 3375 1075 2522 
Q 1259 2794 1537 2939 
Q 1816 3084 2150 3084 
Q 2853 3084 3261 2657 
Q 3669 2231 3669 1497 
Q 3669 778 3244 343 
Q 2819 -91 2113 -91 
Q 1303 -91 875 529 
Q 447 1150 447 2328 
Q 447 3434 972 4092 
Q 1497 4750 2381 4750 
Q 2619 4750 2861 4703 
Q 3103 4656 3366 4563 
z
" transform="scale(0.015625)"/>
      </defs>
      <use xlink:href="#DejaVuSans-54"/>
      <use xlink:href="#DejaVuSans-73" transform="translate(44.583984 0)"/>
      <use xlink:href="#DejaVuSans-3d" transform="translate(96.683594 0)"/>
      <use xlink:href="#DejaVuSans-31" transform="translate(180.472656 0)"/>
      <use xlink:href="#DejaVuSans-36" transform="translate(244.095703 0)"/>
      <use xlink:href="#DejaVuSans-30" transform="translate(307.71875 0)"/>
      <use xlink:href="#DejaVuSans-20" transform="translate(371.341797 0)"/>
      <use xlink:href="#DejaVuSans-4b" transform="translate(403.128906 0)"/>
     </g>
    </g>
    <g id="line2d_18">
     <path d="M 56.018 55.434551 
L 66.018 55.434551 
L 76.018 55.434551 
" style="fill: none; stroke: #2ca02c; stroke-width: 1.5; stroke-linecap: square"/>
    </g>
    <g id="text_16">
     <!-- Ts=220 K -->
     <g transform="translate(84.018 58.934551) scale(0.1 -0.1)">
      <use xlink:href="#DejaVuSans-54"/>
      <use xlink:href="#DejaVuSans-73" transform="translate(44.583984 0)"/>
      <use xlink:href="#DejaVuSans-3d" transform="translate(96.683594 0)"/>
      <use xlink:href="#DejaVuSans-32" transform="translate(180.472656 0)"/>
      <use xlink:href="#DejaVuSans-32" transform="translate(244.095703 0)"/>
      <use xlink:href="#DejaVuSans-30" transform="translate(307.71875 0)"/>
      <use xlink:href="#DejaVuSans-20" transform="translate(371.341797 0)"/>
      <use xlink:href="#DejaVuSans-4b" transform="translate(403.128906 0)"/>
     </g>
    </g>
    <g id="line2d_19">
     <path d="M 56.018 70.112676 
L 66.018 70.112676 
L 76.018 70.112676 
" style="fill: none; stroke: #d62728; stroke-width: 1.5; stroke-linecap: square"/>
    </g>
    <g id="text_17">
     <!-- Ts=260 K -->
     <g transform="translate(84.018 73.612676) scale(0.1 -0.1)">
      <use xlink:href="#DejaVuSans-54"/>
      <use xlink:href="#DejaVuSans-73" transform="translate(44.583984 0)"/>
      <use xlink:href="#DejaVuSans-3d" transform="translate(96.683594 0)"/>
      <use xlink:href="#DejaVuSans-32" transform="translate(180.472656 0)"/>
      <use xlink:href="#DejaVuSans-36" transform="translate(244.095703 0)"/>
      <use xlink:href="#DejaVuSans-30" transform="translate(307.71875 0)"/>
      <use xlink:href="#DejaVuSans-20" transform="translate(371.341797 0)"/>
      <use xlink:href="#DejaVuSans-4b" transform="translate(403.128906 0)"/>
     </g>
    </g>
   </g>
  </g>
 </g>
 <defs>
  <clipPath id="pf690d53367">
   <rect x="47.018" y="12.979864" width="402.982" height="289.220136"/>
  </clipPath>
 </defs>
</svg>
