<?xml version="1.0" encoding="utf-8" standalone="no"?>
<!DOCTYPE svg PUBLIC "-//W3C//DTD SVG 1.1//EN"
  "http://www.w3.org/Graphics/SVG/1.1/DTD/svg11.dtd">
<svg xmlns:xlink="http://www.w3.org/1999/xlink" width="460.8pt" height="345.6pt" viewBox="0 0 460.8 345.6" xmlns="http://www.w3.org/2000/svg" version="1.1">
 <metadata>
  <rdf:RDF xmlns:dc="http://purl.org/dc/elements/1.1/" xmlns:cc="http://creativecommons.org/ns#" xmlns:rdf="http://www.w3.org/1999/02/22-rdf-syntax-ns#">
   <cc:Work>
    <dc:type rdf:resource="http://purl.org/dc/dcmitype/StillImage"/>
    <dc:date>2026-02-12T05:18:55.116631</dc:date>
    <dc:format>image/svg+xml</dc:format>
    <dc:creator>
     <cc:Agent>
      <dc:title>Matplotlib v3.10.8, https://matplotlib.org/</dc:title>
     </cc:Agent>
    </dc:creator>
   </cc:Work>
  </rdf:RDF>
 </metadata>
 <defs>
  <style type="text/css">*{stroke-linejoin: round; stroke-linecap: butt}</style>
 </defs>
 <g id="figure_1">
  <g id="patch_1">
   <path d="M 0 345.6 
L 460.8 345.6 
L 460.8 0 
L 0 0 
L 0 345.6 
z
" style="fill: none"/>
  </g>
  <g id="axes_1">
   <g id="patch_2">
    <path d="M 47.018 302.2 
L 450 302.2 
L 450 10.8 
L 47.018 10.8 
L 47.018 302.2 
z
" style="fill: none"/>
   </g>
   <g id="FillBetweenPolyCollection_1">
    <path d="M 65.335364 203.228381 
L 65.335364 250.89817 
L 72.811839 245.220405 
L 80.288314 240.289287 
L 87.764788 236.857597 
L 95.241263 234.312972 
L 102.717738 232.134178 
L 110.194213 230.26423 
L 117.670688 228.647431 
L 125.147163 227.231672 
L 132.623638 225.970277 
L 140.100113 224.823306 
L 147.576588 223.758316 
L 155.053063 222.750575 
L 162.529538 221.782799 
L 170.006013 220.844461 
L 177.482488 219.930785 
L 184.958963 219.041519 
L 192.435438 218.179614 
L 199.911913 217.349902 
L 207.388388 216.557872 
L 214.864863 215.808635 
L 222.341338 215.106114 
L 229.817813 214.452506 
L 237.294288 213.84802 
L 244.770763 213.290867 
L 252.247237 212.777478 
L 259.723712 212.302895 
L 267.200187 211.861267 
L 274.676662 211.446408 
L 282.153137 211.052329 
L 289.629612 210.865352 
L 297.106087 210.970823 
L 304.582562 211.070846 
L 312.059037 211.164943 
L 319.535512 211.252888 
L 327.011987 211.334425 
L 334.488462 211.409036 
L 341.964937 211.475806 
L 349.441412 211.533389 
L 356.917887 211.580081 
L 364.394362 211.614004 
L 371.870837 211.633379 
L 379.347312 211.636865 
L 386.823787 211.623929 
L 394.300262 211.595218 
L 401.776737 211.552894 
L 409.253212 211.500895 
L 416.729686 211.445098 
L 424.206161 211.393357 
L 431.682636 211.355411 
L 431.682636 24.045455 
L 431.682636 24.045455 
L 424.206161 25.534477 
L 416.729686 27.159735 
L 409.253212 28.8984 
L 401.776737 30.731425 
L 394.300262 32.643081 
L 386.823787 34.620394 
L 379.347312 36.652581 
L 371.870837 38.730524 
L 364.394362 40.84636 
L 356.917887 42.993197 
L 349.441412 45.165008 
L 341.964937 47.356672 
L 334.488462 49.564157 
L 327.011987 51.7848 
L 319.535512 54.017615 
L 312.059037 56.263589 
L 304.582562 58.525874 
L 297.106087 60.80983 
L 289.629612 63.122877 
L 282.153137 65.474122 
L 274.676662 67.873762 
L 267.200187 70.332315 
L 259.723712 72.859702 
L 252.247237 75.464303 
L 244.770763 78.152066 
L 237.294288 80.925797 
L 229.817813 83.784741 
L 222.341338 86.80495 
L 214.864863 89.913667 
L 207.388388 93.089662 
L 199.911913 96.32187 
L 192.435438 99.604904 
L 184.958963 102.815345 
L 177.482488 106.025474 
L 170.006013 109.325609 
L 162.529538 112.714385 
L 155.053063 116.223181 
L 147.576588 119.90825 
L 140.100113 123.843592 
L 132.623638 128.120995 
L 125.147163 132.848945 
L 117.670688 138.150321 
L 110.194213 144.158867 
L 102.717738 151.014516 
L 95.241263 158.857713 
L 87.764788 167.822957 
L 80.288314 178.131007 
L 72.811839 189.928786 
L 65.335364 203.228381 
z
" clip-path="url(#pd13b4e0c33)" style="fill: #1f77b4; fill-opacity: 0.45"/>
   </g>
   <g id="FillBetweenPolyCollection_2">
    <path d="M 65.335364 226.206683 
L 65.335364 264.349279 
L 72.811839 261.619272 
L 80.288314 259.248421 
L 87.764788 257.203575 
L 95.241263 255.447312 
L 102.717738 253.940015 
L 110.194213 252.641804 
L 117.670688 251.514221 
L 125.147163 250.521612 
L 132.623638 249.632163 
L 140.100113 248.818575 
L 147.576588 248.058387 
L 155.053063 247.333982 
L 162.529538 246.632315 
L 170.006013 246.023935 
L 177.482488 245.524436 
L 184.958963 245.045261 
L 192.435438 244.582469 
L 199.911913 244.133289 
L 207.388388 243.695798 
L 214.864863 243.268652 
L 222.341338 242.850877 
L 229.817813 242.44173 
L 237.294288 242.040623 
L 244.770763 241.647087 
L 252.247237 241.26078 
L 259.723712 240.881504 
L 267.200187 240.509224 
L 274.676662 240.144074 
L 282.153137 239.786337 
L 289.629612 239.436395 
L 297.106087 239.094658 
L 304.582562 238.761467 
L 312.059037 238.436991 
L 319.535512 238.121126 
L 327.011987 237.813413 
L 334.488462 237.512998 
L 341.964937 237.218624 
L 349.441412 236.928688 
L 356.917887 236.641352 
L 364.394362 236.3547 
L 371.870837 236.06695 
L 379.347312 235.776688 
L 386.823787 235.48312 
L 394.300262 235.186308 
L 401.776737 234.887383 
L 409.253212 234.588701 
L 416.729686 234.293938 
L 424.206161 234.008094 
L 431.682636 233.737412 
L 431.682636 163.739497 
L 431.682636 163.739497 
L 424.206161 164.556889 
L 416.729686 165.415043 
L 409.253212 166.306113 
L 401.776737 167.224498 
L 394.300262 168.16647 
L 386.823787 169.129725 
L 379.347312 170.112922 
L 371.870837 171.115228 
L 364.394362 172.135938 
L 356.917887 173.174189 
L 349.441412 174.225193 
L 341.964937 175.284507 
L 334.488462 176.354936 
L 327.011987 177.434596 
L 319.535512 178.522019 
L 312.059037 179.616421 
L 304.582562 180.71795 
L 297.106087 181.827879 
L 289.629612 182.948693 
L 282.153137 184.084068 
L 274.676662 185.238703 
L 267.200187 186.418019 
L 259.723712 187.627752 
L 252.247237 188.87345 
L 244.770763 190.159955 
L 237.294288 191.490903 
L 229.817813 192.868327 
L 222.341338 194.292416 
L 214.864863 195.761499 
L 207.388388 197.272299 
L 199.911913 198.820469 
L 192.435438 200.401439 
L 184.958963 202.011519 
L 177.482488 203.64923 
L 170.006013 205.316768 
L 162.529538 207.021507 
L 155.053063 208.227892 
L 147.576588 208.643938 
L 140.100113 208.746133 
L 132.623638 208.972129 
L 125.147163 209.368993 
L 117.670688 209.982467 
L 110.194213 210.872016 
L 102.717738 212.118515 
L 95.241263 213.794603 
L 87.764788 215.973692 
L 80.288314 218.726832 
L 72.811839 222.119236 
L 65.335364 226.206683 
z
" clip-path="url(#pd13b4e0c33)" style="fill: #ff7f0e; fill-opacity: 0.45"/>
   </g>
   <g id="FillBetweenPolyCollection_3">
    <path d="M 65.335364 263.643486 
L 65.335364 277.988844 
L 72.811839 276.329806 
L 80.288314 274.843885 
L 87.764788 273.519437 
L 95.241263 272.34158 
L 102.717738 271.293298 
L 110.194213 270.356518 
L 117.670688 269.513104 
L 125.147163 268.745727 
L 132.623638 268.038572 
L 140.100113 267.440745 
L 147.576588 267.23612 
L 155.053063 267.049791 
L 162.529538 266.878228 
L 170.006013 266.718545 
L 177.482488 266.568372 
L 184.958963 266.425717 
L 192.435438 266.288839 
L 199.911913 266.156142 
L 207.388388 266.026105 
L 214.864863 265.897242 
L 222.341338 265.768104 
L 229.817813 265.637301 
L 237.294288 265.503557 
L 244.770763 265.365772 
L 252.247237 265.223084 
L 259.723712 265.074928 
L 267.200187 264.958505 
L 274.676662 264.842593 
L 282.153137 264.723768 
L 289.629612 264.602326 
L 297.106087 264.478901 
L 304.582562 264.35443 
L 312.059037 264.230084 
L 319.535512 264.107178 
L 327.011987 263.98707 
L 334.488462 263.871048 
L 341.964937 263.760211 
L 349.441412 263.655366 
L 356.917887 263.556931 
L 364.394362 263.464859 
L 371.870837 263.378586 
L 379.347312 263.297005 
L 386.823787 263.218467 
L 394.300262 263.14081 
L 401.776737 263.061407 
L 409.253212 262.977243 
L 416.729686 262.884999 
L 424.206161 262.781152 
L 431.682636 262.662083 
L 431.682636 243.829198 
L 431.682636 243.829198 
L 424.206161 243.983714 
L 416.729686 244.143009 
L 409.253212 244.305954 
L 401.776737 244.471985 
L 394.300262 244.641057 
L 386.823787 244.813553 
L 379.347312 244.990171 
L 371.870837 245.171789 
L 364.394362 245.359333 
L 356.917887 245.553652 
L 349.441412 245.755421 
L 341.964937 245.965077 
L 334.488462 246.182786 
L 327.011987 246.408462 
L 319.535512 246.64182 
L 312.059037 246.882455 
L 304.582562 247.12995 
L 297.106087 247.38398 
L 289.629612 247.644421 
L 282.153137 247.911422 
L 274.676662 248.185456 
L 267.200187 248.467317 
L 259.723712 248.758077 
L 252.247237 249.058993 
L 244.770763 249.371381 
L 237.294288 249.69646 
L 229.817813 250.035198 
L 222.341338 250.388161 
L 214.864863 250.755413 
L 207.388388 251.136467 
L 199.911913 251.530313 
L 192.435438 251.935539 
L 184.958963 252.350547 
L 177.482488 252.773858 
L 170.006013 253.204494 
L 162.529538 253.642424 
L 155.053063 254.089022 
L 147.576588 254.547526 
L 140.100113 255.023434 
L 132.623638 255.52481 
L 125.147163 256.062457 
L 117.670688 256.649912 
L 110.194213 257.303257 
L 102.717738 258.040719 
L 95.241263 258.882064 
L 87.764788 259.838998 
L 80.288314 260.938921 
L 72.811839 262.201586 
L 65.335364 263.643486 
z
" clip-path="url(#pd13b4e0c33)" style="fill: #2ca02c; fill-opacity: 0.45"/>
   </g>
   <g id="FillBetweenPolyCollection_4">
    <path d="M 65.335364 266.954363 
L 65.335364 288.954545 
L 72.811839 287.858521 
L 80.288314 286.668408 
L 87.764788 285.384286 
L 95.241263 284.005581 
L 102.717738 282.531231 
L 110.194213 280.95987 
L 117.670688 279.55424 
L 125.147163 278.58617 
L 132.623638 278.099765 
L 140.100113 278.139854 
L 147.576588 278.188288 
L 155.053063 278.243144 
L 162.529538 278.303187 
L 170.006013 278.367707 
L 177.482488 278.436334 
L 184.958963 278.50884 
L 192.435438 278.584957 
L 199.911913 278.664204 
L 207.388388 278.745771 
L 214.864863 278.828431 
L 222.341338 278.910514 
L 229.817813 278.989931 
L 237.294288 279.064234 
L 244.770763 279.130723 
L 252.247237 279.186582 
L 259.723712 279.229016 
L 267.200187 279.255403 
L 274.676662 279.26343 
L 282.153137 279.251203 
L 289.629612 279.217332 
L 297.106087 279.160976 
L 304.582562 279.081851 
L 312.059037 278.980199 
L 319.535512 278.856721 
L 327.011987 278.712482 
L 334.488462 278.548797 
L 341.964937 278.367104 
L 349.441412 278.16883 
L 356.917887 277.95527 
L 364.394362 277.727476 
L 371.870837 277.486164 
L 379.347312 277.231646 
L 386.823787 276.963796 
L 394.300262 276.682028 
L 401.776737 276.385316 
L 409.253212 276.072224 
L 416.729686 275.740962 
L 424.206161 275.389454 
L 431.682636 275.015417 
L 431.682636 227.696039 
L 431.682636 227.696039 
L 424.206161 226.184331 
L 416.729686 224.725037 
L 409.253212 223.337793 
L 401.776737 222.042722 
L 394.300262 220.860127 
L 386.823787 219.810128 
L 379.347312 218.91227 
L 371.870837 218.185104 
L 364.394362 217.645757 
L 356.917887 217.309504 
L 349.441412 217.189363 
L 341.964937 217.295727 
L 334.488462 217.636052 
L 327.011987 218.214612 
L 319.535512 219.03234 
L 312.059037 220.086753 
L 304.582562 221.371979 
L 297.106087 222.878874 
L 289.629612 224.59523 
L 282.153137 226.506075 
L 274.676662 228.594033 
L 267.200187 230.839749 
L 259.723712 233.22235 
L 252.247237 235.719933 
L 244.770763 238.310053 
L 237.294288 240.970198 
L 229.817813 243.724539 
L 222.341338 246.368839 
L 214.864863 248.952153 
L 207.388388 251.526926 
L 199.911913 254.076552 
L 192.435438 256.585984 
L 184.958963 259.041851 
L 177.482488 261.432536 
L 170.006013 263.748205 
L 162.529538 265.97294 
L 155.053063 267.056875 
L 147.576588 266.922379 
L 140.100113 266.809616 
L 132.623638 266.719899 
L 125.147163 266.654133 
L 117.670688 266.612801 
L 110.194213 266.59596 
L 102.717738 266.603222 
L 95.241263 266.633747 
L 87.764788 266.686212 
L 80.288314 266.758797 
L 72.811839 266.849149 
L 65.335364 266.954363 
z
" clip-path="url(#pd13b4e0c33)" style="fill: #d62728; fill-opacity: 0.45"/>
   </g>
   <g id="matplotlib.axis_1">
    <g id="xtick_1">
     <g id="line2d_1">
      <defs>
       <path id="m06cadeb1d0" d="M 0 0 
L 0 3.5 
" style="stroke: #000000; stroke-width: 0.8"/>
      </defs>
      <g>
       <use xlink:href="#m06cadeb1d0" x="61.634886" y="302.2" style="stroke: #000000; stroke-width: 0.8"/>
      </g>
     </g>
     <g id="text_1">
      <!-- 0 -->
      <g transform="translate(58.453636 316.798437) scale(0.1 -0.1)">
       <defs>
        <path id="DejaVuSans-30" d="M 2034 4250 
Q 1547 4250 1301 3770 
Q 1056 3291 1056 2328 
Q 1056 1369 1301 889 
Q 1547 409 2034 409 
Q 2525 409 2770 889 
Q 3016 1369 3016 2328 
Q 3016 3291 2770 3770 
Q 2525 4250 2034 4250 
z
M 2034 4750 
Q 2819 4750 3233 4129 
Q 3647 3509 3647 2328 
Q 3647 1150 3233 529 
Q 2819 -91 2034 -91 
Q 1250 -91 836 529 
Q 422 1150 422 2328 
Q 422 3509 836 4129 
Q 1250 4750 2034 4750 
z
" transform="scale(0.015625)"/>
       </defs>
       <use xlink:href="#DejaVuSans-30"/>
      </g>
     </g>
    </g>
    <g id="xtick_2">
     <g id="line2d_2">
      <g>
       <use xlink:href="#m06cadeb1d0" x="135.644436" y="302.2" style="stroke: #000000; stroke-width: 0.8"/>
      </g>
     </g>
     <g id="text_2">
      <!-- 1 -->
      <g transform="translate(132.463186 316.798437) scale(0.1 -0.1)">
       <defs>
        <path id="DejaVuSans-31" d="M 794 531 
L 1825 531 
L 1825 4091 
L 703 3866 
L 703 4441 
L 1819 4666 
L 2450 4666 
L 2450 531 
L 3481 531 
L 3481 0 
L 794 0 
L 794 531 
z
" transform="scale(0.015625)"/>
       </defs>
       <use xlink:href="#DejaVuSans-31"/>
      </g>
     </g>
    </g>
    <g id="xtick_3">
     <g id="line2d_3">
      <g>
       <use xlink:href="#m06cadeb1d0" x="209.653986" y="302.2" style="stroke: #000000; stroke-width: 0.8"/>
      </g>
     </g>
     <g id="text_3">
      <!-- 2 -->
      <g transform="translate(206.472736 316.798437) scale(0.1 -0.1)">
       <defs>
        <path id="DejaVuSans-32" d="M 1228 531 
L 3431 531 
L 3431 0 
L 469 0 
L 469 531 
Q 828 903 1448 1529 
Q 2069 2156 2228 2338 
Q 2531 2678 2651 2914 
Q 2772 3150 2772 3378 
Q 2772 3750 2511 3984 
Q 2250 4219 1831 4219 
Q 1534 4219 1204 4116 
Q 875 4013 500 3803 
L 500 4441 
Q 881 4594 1212 4672 
Q 1544 4750 1819 4750 
Q 2544 4750 2975 4387 
Q 3406 4025 3406 3419 
Q 3406 3131 3298 2873 
Q 3191 2616 2906 2266 
Q 2828 2175 2409 1742 
Q 1991 1309 1228 531 
z
" transform="scale(0.015625)"/>
       </defs>
       <use xlink:href="#DejaVuSans-32"/>
      </g>
     </g>
    </g>
    <g id="xtick_4">
     <g id="line2d_4">
      <g>
       <use xlink:href="#m06cadeb1d0" x="283.663536" y="302.2" style="stroke: #000000; stroke-width: 0.8"/>
      </g>
     </g>
     <g id="text_4">
      <!-- 3 -->
      <g transform="translate(280.482286 316.798437) scale(0.1 -0.1)">
       <defs>
        <path id="DejaVuSans-33" d="M 2597 2516 
Q 3050 2419 3304 2112 
Q 3559 1806 3559 1356 
Q 3559 666 3084 287 
Q 2609 -91 1734 -91 
Q 1441 -91 1130 -33 
Q 819 25 488 141 
L 488 750 
Q 750 597 1062 519 
Q 1375 441 1716 441 
Q 2309 441 2620 675 
Q 2931 909 2931 1356 
Q 2931 1769 2642 2001 
Q 2353 2234 1838 2234 
L 1294 2234 
L 1294 2753 
L 1863 2753 
Q 2328 2753 2575 2939 
Q 2822 3125 2822 3475 
Q 2822 3834 2567 4026 
Q 2313 4219 1838 4219 
Q 1578 4219 1281 4162 
Q 984 4106 628 3988 
L 628 4550 
Q 988 4650 1302 4700 
Q 1616 4750 1894 4750 
Q 2613 4750 3031 4423 
Q 3450 4097 3450 3541 
Q 3450 3153 3228 2886 
Q 3006 2619 2597 2516 
z
" transform="scale(0.015625)"/>
       </defs>
       <use xlink:href="#DejaVuSans-33"/>
      </g>
     </g>
    </g>
    <g id="xtick_5">
     <g id="line2d_5">
      <g>
       <use xlink:href="#m06cadeb1d0" x="357.673086" y="302.2" style="stroke: #000000; stroke-width: 0.8"/>
      </g>
     </g>
     <g id="text_5">
      <!-- 4 -->
      <g transform="translate(354.491836 316.798437) scale(0.1 -0.1)">
       <defs>
        <path id="DejaVuSans-34" d="M 2419 4116 
L 825 1625 
L 2419 1625 
L 2419 4116 
z
M 2253 4666 
L 3047 4666 
L 3047 1625 
L 3713 1625 
L 3713 1100 
L 3047 1100 
L 3047 0 
L 2419 0 
L 2419 1100 
L 313 1100 
L 313 1709 
L 2253 4666 
z
" transform="scale(0.015625)"/>
       </defs>
       <use xlink:href="#DejaVuSans-34"/>
      </g>
     </g>
    </g>
    <g id="xtick_6">
     <g id="line2d_6">
      <g>
       <use xlink:href="#m06cadeb1d0" x="431.682636" y="302.2" style="stroke: #000000; stroke-width: 0.8"/>
      </g>
     </g>
     <g id="text_6">
      <!-- 5 -->
      <g transform="translate(428.501386 316.798437) scale(0.1 -0.1)">
       <defs>
        <path id="DejaVuSans-35" d="M 691 4666 
L 3169 4666 
L 3169 4134 
L 1269 4134 
L 1269 2991 
Q 1406 3038 1543 3061 
Q 1681 3084 1819 3084 
Q 2600 3084 3056 2656 
Q 3513 2228 3513 1497 
Q 3513 744 3044 326 
Q 2575 -91 1722 -91 
Q 1428 -91 1123 -41 
Q 819 9 494 109 
L 494 744 
Q 775 591 1075 516 
Q 1375 441 1709 441 
Q 2250 441 2565 725 
Q 2881 1009 2881 1497 
Q 2881 1984 2565 2268 
Q 2250 2553 1709 2553 
Q 1456 2553 1204 2497 
Q 953 2441 691 2322 
L 691 4666 
z
" transform="scale(0.015625)"/>
       </defs>
       <use xlink:href="#DejaVuSans-35"/>
      </g>
     </g>
    </g>
    <g id="text_7">
     <!-- $W$ (m/hour) -->
     <g transform="translate(220.059 330.476562) scale(0.1 -0.1)">
      <defs>
       <path id="DejaVuSans-Oblique-57" d="M 616 4666 
L 1228 4666 
L 1453 697 
L 3213 4666 
L 3916 4666 
L 4147 697 
L 5888 4666 
L 6528 4666 
L 4453 0 
L 3659 0 
L 3444 3891 
L 1697 0 
L 903 0 
L 616 4666 
z
" transform="scale(0.015625)"/>
       <path id="DejaVuSans-20" transform="scale(0.015625)"/>
       <path id="DejaVuSans-28" d="M 1984 4856 
Q 1566 4138 1362 3434 
Q 1159 2731 1159 2009 
Q 1159 1288 1364 580 
Q 1569 -128 1984 -844 
L 1484 -844 
Q 1016 -109 783 600 
Q 550 1309 550 2009 
Q 550 2706 781 3412 
Q 1013 4119 1484 4856 
L 1984 4856 
z
" transform="scale(0.015625)"/>
       <path id="DejaVuSans-6d" d="M 3328 2828 
Q 3544 3216 3844 3400 
Q 4144 3584 4550 3584 
Q 5097 3584 5394 3201 
Q 5691 2819 5691 2113 
L 5691 0 
L 5113 0 
L 5113 2094 
Q 5113 2597 4934 2840 
Q 4756 3084 4391 3084 
Q 3944 3084 3684 2787 
Q 3425 2491 3425 1978 
L 3425 0 
L 2847 0 
L 2847 2094 
Q 2847 2600 2669 2842 
Q 2491 3084 2119 3084 
Q 1678 3084 1418 2786 
Q 1159 2488 1159 1978 
L 1159 0 
L 581 0 
L 581 3500 
L 1159 3500 
L 1159 2956 
Q 1356 3278 1631 3431 
Q 1906 3584 2284 3584 
Q 2666 3584 2933 3390 
Q 3200 3197 3328 2828 
z
" transform="scale(0.015625)"/>
       <path id="DejaVuSans-2f" d="M 1625 4666 
L 2156 4666 
L 531 -594 
L 0 -594 
L 1625 4666 
z
" transform="scale(0.015625)"/>
       <path id="DejaVuSans-68" d="M 3513 2113 
L 3513 0 
L 2938 0 
L 2938 2094 
Q 2938 2591 2744 2837 
Q 2550 3084 2163 3084 
Q 1697 3084 1428 2787 
Q 1159 2491 1159 1978 
L 1159 0 
L 581 0 
L 581 4863 
L 1159 4863 
L 1159 2956 
Q 1366 3272 1645 3428 
Q 1925 3584 2291 3584 
Q 2894 3584 3203 3211 
Q 3513 2838 3513 2113 
z
" transform="scale(0.015625)"/>
       <path id="DejaVuSans-6f" d="M 1959 3097 
Q 1497 3097 1228 2736 
Q 959 2375 959 1747 
Q 959 1119 1226 758 
Q 1494 397 1959 397 
Q 2419 397 2687 759 
Q 2956 1122 2956 1747 
Q 2956 2369 2687 2733 
Q 2419 3097 1959 3097 
z
M 1959 3584 
Q 2709 3584 3137 3096 
Q 3566 2609 3566 1747 
Q 3566 888 3137 398 
Q 2709 -91 1959 -91 
Q 1206 -91 779 398 
Q 353 888 353 1747 
Q 353 2609 779 3096 
Q 1206 3584 1959 3584 
z
" transform="scale(0.015625)"/>
       <path id="DejaVuSans-75" d="M 544 1381 
L 544 3500 
L 1119 3500 
L 1119 1403 
Q 1119 906 1312 657 
Q 1506 409 1894 409 
Q 2359 409 2629 706 
Q 2900 1003 2900 1516 
L 2900 3500 
L 3475 3500 
L 3475 0 
L 2900 0 
L 2900 538 
Q 2691 219 2414 64 
Q 2138 -91 1772 -91 
Q 1169 -91 856 284 
Q 544 659 544 1381 
z
M 1991 3584 
L 1991 3584 
z
" transform="scale(0.015625)"/>
       <path id="DejaVuSans-72" d="M 2631 2963 
Q 2534 3019 2420 3045 
Q 2306 3072 2169 3072 
Q 1681 3072 1420 2755 
Q 1159 2438 1159 1844 
L 1159 0 
L 581 0 
L 581 3500 
L 1159 3500 
L 1159 2956 
Q 1341 3275 1631 3429 
Q 1922 3584 2338 3584 
Q 2397 3584 2469 3576 
Q 2541 3569 2628 3553 
L 2631 2963 
z
" transform="scale(0.015625)"/>
       <path id="DejaVuSans-29" d="M 513 4856 
L 1013 4856 
Q 1481 4119 1714 3412 
Q 1947 2706 1947 2009 
Q 1947 1309 1714 600 
Q 1481 -109 1013 -844 
L 513 -844 
Q 928 -128 1133 580 
Q 1338 1288 1338 2009 
Q 1338 2731 1133 3434 
Q 928 4138 513 4856 
z
" transform="scale(0.015625)"/>
      </defs>
      <use xlink:href="#DejaVuSans-Oblique-57" transform="translate(0 0.015625)"/>
      <use xlink:href="#DejaVuSans-20" transform="translate(98.876953 0.015625)"/>
      <use xlink:href="#DejaVuSans-28" transform="translate(130.664062 0.015625)"/>
      <use xlink:href="#DejaVuSans-6d" transform="translate(169.677734 0.015625)"/>
      <use xlink:href="#DejaVuSans-2f" transform="translate(267.089844 0.015625)"/>
      <use xlink:href="#DejaVuSans-68" transform="translate(300.78125 0.015625)"/>
      <use xlink:href="#DejaVuSans-6f" transform="translate(364.160156 0.015625)"/>
      <use xlink:href="#DejaVuSans-75" transform="translate(425.341797 0.015625)"/>
      <use xlink:href="#DejaVuSans-72" transform="translate(488.720703 0.015625)"/>
      <use xlink:href="#DejaVuSans-29" transform="translate(529.833984 0.015625)"/>
     </g>
    </g>
   </g>
   <g id="matplotlib.axis_2">
    <g id="ytick_1">
     <g id="line2d_7">
      <defs>
       <path id="mefad795228" d="M 0 0 
L -3.5 0 
" style="stroke: #000000; stroke-width: 0.8"/>
      </defs>
      <g>
       <use xlink:href="#mefad795228" x="47.018" y="284.082187" style="stroke: #000000; stroke-width: 0.8"/>
      </g>
     </g>
     <g id="text_8">
      <!-- 0 -->
      <g transform="translate(33.6555 287.881405) scale(0.1 -0.1)">
       <use xlink:href="#DejaVuSans-30"/>
      </g>
     </g>
    </g>
    <g id="ytick_2">
     <g id="line2d_8">
      <g>
       <use xlink:href="#mefad795228" x="47.018" y="249.172949" style="stroke: #000000; stroke-width: 0.8"/>
      </g>
     </g>
     <g id="text_9">
      <!-- 5 -->
      <g transform="translate(33.6555 252.972168) scale(0.1 -0.1)">
       <use xlink:href="#DejaVuSans-35"/>
      </g>
     </g>
    </g>
    <g id="ytick_3">
     <g id="line2d_9">
      <g>
       <use xlink:href="#mefad795228" x="47.018" y="214.263712" style="stroke: #000000; stroke-width: 0.8"/>
      </g>
     </g>
     <g id="text_10">
      <!-- 10 -->
      <g transform="translate(27.293 218.062931) scale(0.1 -0.1)">
       <use xlink:href="#DejaVuSans-31"/>
       <use xlink:href="#DejaVuSans-30" transform="translate(63.623047 0)"/>
      </g>
     </g>
    </g>
    <g id="ytick_4">
     <g id="line2d_10">
      <g>
       <use xlink:href="#mefad795228" x="47.018" y="179.354475" style="stroke: #000000; stroke-width: 0.8"/>
      </g>
     </g>
     <g id="text_11">
      <!-- 15 -->
      <g transform="translate(27.293 183.153694) scale(0.1 -0.1)">
       <use xlink:href="#DejaVuSans-31"/>
       <use xlink:href="#DejaVuSans-35" transform="translate(63.623047 0)"/>
      </g>
     </g>
    </g>
    <g id="ytick_5">
     <g id="line2d_11">
      <g>
       <use xlink:href="#mefad795228" x="47.018" y="144.445238" style="stroke: #000000; stroke-width: 0.8"/>
      </g>
     </g>
     <g id="text_12">
      <!-- 20 -->
      <g transform="translate(27.293 148.244457) scale(0.1 -0.1)">
       <use xlink:href="#DejaVuSans-32"/>
       <use xlink:href="#DejaVuSans-30" transform="translate(63.623047 0)"/>
      </g>
     </g>
    </g>
    <g id="ytick_6">
     <g id="line2d_12">
      <g>
       <use xlink:href="#mefad795228" x="47.018" y="109.536001" style="stroke: #000000; stroke-width: 0.8"/>
      </g>
     </g>
     <g id="text_13">
      <!-- 25 -->
      <g transform="translate(27.293 113.335219) scale(0.1 -0.1)">
       <use xlink:href="#DejaVuSans-32"/>
       <use xlink:href="#DejaVuSans-35" transform="translate(63.623047 0)"/>
      </g>
     </g>
    </g>
    <g id="ytick_7">
     <g id="line2d_13">
      <g>
       <use xlink:href="#mefad795228" x="47.018" y="74.626763" style="stroke: #000000; stroke-width: 0.8"/>
      </g>
     </g>
     <g id="text_14">
      <!-- 30 -->
      <g transform="translate(27.293 78.425982) scale(0.1 -0.1)">
       <use xlink:href="#DejaVuSans-33"/>
       <use xlink:href="#DejaVuSans-30" transform="translate(63.623047 0)"/>
      </g>
     </g>
    </g>
    <g id="ytick_8">
     <g id="line2d_14">
      <g>
       <use xlink:href="#mefad795228" x="47.018" y="39.717526" style="stroke: #000000; stroke-width: 0.8"/>
      </g>
     </g>
     <g id="text_15">
      <!-- 35 -->
      <g transform="translate(27.293 43.516745) scale(0.1 -0.1)">
       <use xlink:href="#DejaVuSans-33"/>
       <use xlink:href="#DejaVuSans-35" transform="translate(63.623047 0)"/>
      </g>
     </g>
    </g>
    <g id="text_16">
     <!-- $Q_{lc}$ (kW) -->
     <g transform="translate(21.213312 176.8) rotate(-90) scale(0.1 -0.1)">
      <defs>
       <path id="DejaVuSans-Oblique-51" d="M 2309 -84 
Q 2275 -88 2237 -89 
Q 2200 -91 2125 -91 
Q 1250 -91 756 411 
Q 263 913 263 1797 
Q 263 2319 452 2844 
Q 641 3369 978 3788 
Q 1369 4269 1858 4509 
Q 2347 4750 2938 4750 
Q 3794 4750 4287 4245 
Q 4781 3741 4781 2869 
Q 4781 1928 4265 1147 
Q 3750 366 2919 44 
L 3553 -825 
L 2847 -825 
L 2309 -84 
z
M 2919 4238 
Q 2400 4238 2003 3986 
Q 1606 3734 1313 3219 
Q 1125 2891 1026 2522 
Q 928 2153 928 1778 
Q 928 1128 1239 775 
Q 1550 422 2119 422 
Q 2631 422 3032 676 
Q 3434 931 3719 1434 
Q 3909 1772 4009 2142 
Q 4109 2513 4109 2881 
Q 4109 3528 3796 3883 
Q 3484 4238 2919 4238 
z
" transform="scale(0.015625)"/>
       <path id="DejaVuSans-Oblique-6c" d="M 1172 4863 
L 1747 4863 
L 800 0 
L 225 0 
L 1172 4863 
z
" transform="scale(0.015625)"/>
       <path id="DejaVuSans-Oblique-63" d="M 3431 3366 
L 3316 2797 
Q 3109 2947 2876 3022 
Q 2644 3097 2394 3097 
Q 2119 3097 1870 3000 
Q 1622 2903 1453 2725 
Q 1184 2453 1037 2087 
Q 891 1722 891 1331 
Q 891 859 1127 628 
Q 1363 397 1844 397 
Q 2081 397 2348 469 
Q 2616 541 2906 684 
L 2797 116 
Q 2547 13 2283 -39 
Q 2019 -91 1741 -91 
Q 1044 -91 669 257 
Q 294 606 294 1253 
Q 294 1797 489 2255 
Q 684 2713 1069 3078 
Q 1331 3328 1684 3456 
Q 2038 3584 2456 3584 
Q 2700 3584 2940 3529 
Q 3181 3475 3431 3366 
z
" transform="scale(0.015625)"/>
       <path id="DejaVuSans-6b" d="M 581 4863 
L 1159 4863 
L 1159 1991 
L 2875 3500 
L 3609 3500 
L 1753 1863 
L 3688 0 
L 2938 0 
L 1159 1709 
L 1159 0 
L 581 0 
L 581 4863 
z
" transform="scale(0.015625)"/>
       <path id="DejaVuSans-57" d="M 213 4666 
L 850 4666 
L 1831 722 
L 2809 4666 
L 3519 4666 
L 4500 722 
L 5478 4666 
L 6119 4666 
L 4947 0 
L 4153 0 
L 3169 4050 
L 2175 0 
L 1381 0 
L 213 4666 
z
" transform="scale(0.015625)"/>
      </defs>
      <use xlink:href="#DejaVuSans-Oblique-51" transform="translate(0 0.015625)"/>
      <use xlink:href="#DejaVuSans-Oblique-6c" transform="translate(78.710938 -16.390625) scale(0.7)"/>
      <use xlink:href="#DejaVuSans-Oblique-63" transform="translate(98.15918 -16.390625) scale(0.7)"/>
      <use xlink:href="#DejaVuSans-20" transform="translate(139.379883 0.015625)"/>
      <use xlink:href="#DejaVuSans-28" transform="translate(171.166992 0.015625)"/>
      <use xlink:href="#DejaVuSans-6b" transform="translate(210.180664 0.015625)"/>
      <use xlink:href="#DejaVuSans-57" transform="translate(268.09082 0.015625)"/>
      <use xlink:href="#DejaVuSans-29" transform="translate(366.967773 0.015625)"/>
     </g>
    </g>
   </g>
   <g id="line2d_15">
    <path d="M 65.335364 212.080653 
L 72.811839 212.705276 
L 80.288314 213.243662 
L 87.764788 213.669839 
L 95.241263 213.972459 
L 102.717738 214.146687 
L 110.194213 214.194028 
L 117.670688 214.121823 
L 125.147163 213.413367 
L 132.623638 213.115716 
L 140.100113 212.750946 
L 147.576588 212.341933 
L 155.053063 211.911508 
L 162.529538 211.481254 
L 170.006013 211.070463 
L 177.482488 210.695327 
L 184.958963 210.139769 
L 192.435438 208.762916 
L 199.911913 207.392799 
L 207.388388 206.034236 
L 214.864863 204.692918 
L 222.341338 203.374499 
L 229.817813 202.083949 
L 237.294288 200.825185 
L 244.770763 199.60094 
L 252.247237 198.412821 
L 259.723712 197.261488 
L 267.200187 196.1469 
L 274.676662 195.06856 
L 282.153137 194.025714 
L 289.629612 193.017463 
L 297.106087 192.042777 
L 304.582562 191.100403 
L 312.059037 190.188705 
L 319.535512 189.305443 
L 327.011987 188.44755 
L 334.488462 187.61096 
L 341.964937 186.790506 
L 349.441412 185.97996 
L 356.917887 185.172211 
L 364.394362 184.359614 
L 371.870837 183.534498 
L 379.347312 182.6898 
L 386.823787 181.81981 
L 394.300262 180.920944 
L 401.776737 179.992523 
L 409.253212 179.037455 
L 416.729686 178.062796 
L 424.206161 177.080106 
L 431.682636 176.105572 
" clip-path="url(#pd13b4e0c33)" style="fill: none; stroke: #1f77b4; stroke-width: 1.5; stroke-linecap: square"/>
   </g>
   <g id="line2d_16">
    <path d="M 65.335364 252.010078 
L 72.811839 245.630263 
L 80.288314 240.184664 
L 87.764788 235.428527 
L 95.241263 231.286459 
L 102.717738 227.684236 
L 110.194213 224.544625 
L 117.670688 221.790476 
L 125.147163 219.348024 
L 132.623638 217.149599 
L 140.100113 215.135661 
L 147.576588 213.256118 
L 155.053063 211.470928 
L 162.529538 209.750028 
L 170.006013 209.132356 
L 177.482488 209.190826 
L 184.958963 209.277217 
L 192.435438 209.377437 
L 199.911913 209.490238 
L 207.388388 209.616071 
L 214.864863 209.756006 
L 222.341338 209.910886 
L 229.817813 210.080733 
L 237.294288 210.264419 
L 244.770763 210.459586 
L 252.247237 210.662777 
L 259.723712 210.869726 
L 267.200187 211.075752 
L 274.676662 211.27619 
L 282.153137 211.466806 
L 289.629612 211.644144 
L 297.106087 211.805762 
L 304.582562 211.950352 
L 312.059037 212.077722 
L 319.535512 212.188649 
L 327.011987 212.284649 
L 334.488462 212.367657 
L 341.964937 212.439703 
L 349.441412 212.502577 
L 356.917887 212.557564 
L 364.394362 212.605249 
L 371.870837 212.645433 
L 379.347312 212.677162 
L 386.823787 212.698881 
L 394.300262 212.708686 
L 401.776737 212.704661 
L 409.253212 212.68527 
L 416.729686 212.649766 
L 424.206161 212.598574 
L 431.682636 212.533631 
" clip-path="url(#pd13b4e0c33)" style="fill: none; stroke: #ff7f0e; stroke-width: 1.5; stroke-linecap: square"/>
   </g>
   <g id="line2d_17">
    <path d="M 65.335364 271.735141 
L 72.811839 271.009364 
L 80.288314 270.366233 
L 87.764788 269.75615 
L 95.241263 269.18896 
L 102.717738 268.407869 
L 110.194213 268.096082 
L 117.670688 267.838625 
L 125.147163 267.603621 
L 132.623638 267.387735 
L 140.100113 267.048877 
L 147.576588 266.416944 
L 155.053063 265.811597 
L 162.529538 265.226176 
L 170.006013 264.656279 
L 177.482488 264.099452 
L 184.958963 263.554806 
L 192.435438 263.064952 
L 199.911913 262.551043 
L 207.388388 262.047477 
L 214.864863 261.559785 
L 222.341338 261.08889 
L 229.817813 260.635245 
L 237.294288 260.198743 
L 244.770763 259.778725 
L 252.247237 259.374049 
L 259.723712 258.983213 
L 267.200187 258.604516 
L 274.676662 258.236224 
L 282.153137 257.876733 
L 289.629612 257.524696 
L 297.106087 257.179121 
L 304.582562 256.839414 
L 312.059037 256.505376 
L 319.535512 256.177156 
L 327.011987 255.855161 
L 334.488462 255.53994 
L 341.964937 255.23206 
L 349.441412 254.931973 
L 356.917887 254.639905 
L 364.394362 254.355765 
L 371.870837 254.07909 
L 379.347312 253.80903 
L 386.823787 253.544367 
L 394.300262 253.283583 
L 401.776737 253.024944 
L 409.253212 252.766622 
L 416.729686 252.506816 
L 424.206161 252.243882 
L 431.682636 251.976451 
" clip-path="url(#pd13b4e0c33)" style="fill: none; stroke: #2ca02c; stroke-width: 1.5; stroke-linecap: square"/>
   </g>
   <g id="line2d_18">
    <path d="M 65.335364 277.913278 
L 72.811839 277.830614 
L 80.288314 277.750636 
L 87.764788 277.667664 
L 95.241263 277.579237 
L 102.717738 277.482564 
L 110.194213 277.37289 
L 117.670688 277.235539 
L 125.147163 275.679196 
L 132.623638 273.966571 
L 140.100113 273.068597 
L 147.576588 273.229321 
L 155.053063 273.385498 
L 162.529538 273.532854 
L 170.006013 273.66664 
L 177.482488 273.781798 
L 184.958963 273.873149 
L 192.435438 273.935599 
L 199.911913 273.964364 
L 207.388388 273.955196 
L 214.864863 273.904605 
L 222.341338 273.641577 
L 229.817813 273.374352 
L 237.294288 273.117469 
L 244.770763 272.871594 
L 252.247237 272.636983 
L 259.723712 272.413579 
L 267.200187 272.201109 
L 274.676662 271.970043 
L 282.153137 271.586169 
L 289.629612 271.192369 
L 297.106087 270.797126 
L 304.582562 270.408942 
L 312.059037 270.136304 
L 319.535512 270.034699 
L 327.011987 269.958186 
L 334.488462 269.858457 
L 341.964937 269.736622 
L 349.441412 269.593868 
L 356.917887 269.431414 
L 364.394362 269.303184 
L 371.870837 269.217728 
L 379.347312 269.135709 
L 386.823787 269.054353 
L 394.300262 268.970432 
L 401.776737 268.880308 
L 409.253212 268.780002 
L 416.729686 268.665273 
L 424.206161 268.531722 
L 431.682636 268.374898 
" clip-path="url(#pd13b4e0c33)" style="fill: none; stroke: #d62728; stroke-width: 1.5; stroke-linecap: square"/>
   </g>
   <g id="patch_3">
    <path d="M 47.018 302.2 
L 47.018 10.8 
" style="fill: none; stroke: #000000; stroke-width: 0.8; stroke-linejoin: miter; stroke-linecap: square"/>
   </g>
   <g id="patch_4">
    <path d="M 450 302.2 
L 450 10.8 
" style="fill: none; stroke: #000000; stroke-width: 0.8; stroke-linejoin: miter; stroke-linecap: square"/>
   </g>
   <g id="patch_5">
    <path d="M 47.018 302.2 
L 450 302.2 
" style="fill: none; stroke: #000000; stroke-width: 0.8; stroke-linejoin: miter; stroke-linecap: square"/>
   </g>
   <g id="patch_6">
    <path d="M 47.018 10.8 
L 450 10.8 
" style="fill: none; stroke: #000000; stroke-width: 0.8; stroke-linejoin: miter; stroke-linecap: square"/>
   </g>
   <g id="legend_1">
    <g id="patch_7">
     <path d="M 54.018 77.5125 
L 132.888313 77.5125 
Q 134.888313 77.5125 134.888313 75.5125 
L 134.888313 17.8 
Q 134.888313 15.8 132.888313 15.8 
L 54.018 15.8 
Q 52.018 15.8 52.018 17.8 
L 52.018 75.5125 
Q 52.018 77.5125 54.018 77.5125 
z
" style="fill: #ffffff; opacity: 0.8; stroke: #cccccc; stroke-linejoin: miter"/>
    </g>
    <g id="line2d_19">
     <path d="M 56.018 23.898438 
L 66.018 23.898438 
L 76.018 23.898438 
" style="fill: none; stroke: #1f77b4; stroke-width: 1.5; stroke-linecap: square"/>
    </g>
    <g id="text_17">
     <!-- Ts=100 K -->
     <g transform="translate(84.018 27.398438) scale(0.1 -0.1)">
      <defs>
       <path id="DejaVuSans-54" d="M -19 4666 
L 3928 4666 
L 3928 4134 
L 2272 4134 
L 2272 0 
L 1638 0 
L 1638 4134 
L -19 4134 
L -19 4666 
z
" transform="scale(0.015625)"/>
       <path id="DejaVuSans-73" d="M 2834 3397 
L 2834 2853 
Q 2591 2978 2328 3040 
Q 2066 3103 1784 3103 
Q 1356 3103 1142 2972 
Q 928 2841 928 2578 
Q 928 2378 1081 2264 
Q 1234 2150 1697 2047 
L 1894 2003 
Q 2506 1872 2764 1633 
Q 3022 1394 3022 966 
Q 3022 478 2636 193 
Q 2250 -91 1575 -91 
Q 1294 -91 989 -36 
Q 684 19 347 128 
L 347 722 
Q 666 556 975 473 
Q 1284 391 1588 391 
Q 1994 391 2212 530 
Q 2431 669 2431 922 
Q 2431 1156 2273 1281 
Q 2116 1406 1581 1522 
L 1381 1569 
Q 847 1681 609 1914 
Q 372 2147 372 2553 
Q 372 3047 722 3315 
Q 1072 3584 1716 3584 
Q 2034 3584 2315 3537 
Q 2597 3491 2834 3397 
z
" transform="scale(0.015625)"/>
       <path id="DejaVuSans-3d" d="M 678 2906 
L 4684 2906 
L 4684 2381 
L 678 2381 
L 678 2906 
z
M 678 1631 
L 4684 1631 
L 4684 1100 
L 678 1100 
L 678 1631 
z
" transform="scale(0.015625)"/>
       <path id="DejaVuSans-4b" d="M 628 4666 
L 1259 4666 
L 1259 2694 
L 3353 4666 
L 4166 4666 
L 1850 2491 
L 4331 0 
L 3500 0 
L 1259 2247 
L 1259 0 
L 628 0 
L 628 4666 
z
" transform="scale(0.015625)"/>
      </defs>
      <use xlink:href="#DejaVuSans-54"/>
      <use xlink:href="#DejaVuSans-73" transform="translate(44.583984 0)"/>
      <use xlink:href="#DejaVuSans-3d" transform="translate(96.683594 0)"/>
      <use xlink:href="#DejaVuSans-31" transform="translate(180.472656 0)"/>
      <use xlink:href="#DejaVuSans-30" transform="translate(244.095703 0)"/>
      <use xlink:href="#DejaVuSans-30" transform="translate(307.71875 0)"/>
      <use xlink:href="#DejaVuSans-20" transform="translate(371.341797 0)"/>
      <use xlink:href="#DejaVuSans-4b" transform="translate(403.128906 0)"/>
     </g>
    </g>
    <g id="line2d_20">
     <path d="M 56.018 38.576563 
L 66.018 38.576563 
L 76.018 38.576563 
" style="fill: none; stroke: #ff7f0e; stroke-width: 1.5; stroke-linecap: square"/>
    </g>
    <g id="text_18">
     <!-- Ts=160 K -->
     <g transform="translate(84.018 42.076563) scale(0.1 -0.1)">
      <defs>
       <path id="DejaVuSans-36" d="M 2113 2584 
Q 1688 2584 1439 2293 
Q 1191 2003 1191 1497 
Q 1191 994 1439 701 
Q 1688 409 2113 409 
Q 2538 409 2786 701 
Q 3034 994 3034 1497 
Q 3034 2003 2786 2293 
Q 2538 2584 2113 2584 
z
M 3366 4563 
L 3366 3988 
Q 3128 4100 2886 4159 
Q 2644 4219 2406 4219 
Q 1781 4219 1451 3797 
Q 1122 3375 1075 2522 
Q 1259 2794 1537 2939 
Q 1816 3084 2150 3084 
Q 2853 3084 3261 2657 
Q 3669 2231 3669 1497 
Q 3669 778 3244 343 
Q 2819 -91 2113 -91 
Q 1303 -91 875 529 
Q 447 1150 447 2328 
Q 447 3434 972 4092 
Q 1497 4750 2381 4750 
Q 2619 4750 2861 4703 
Q 3103 4656 3366 4563 
z
" transform="scale(0.015625)"/>
      </defs>
      <use xlink:href="#DejaVuSans-54"/>
      <use xlink:href="#DejaVuSans-73" transform="translate(44.583984 0)"/>
      <use xlink:href="#DejaVuSans-3d" transform="translate(96.683594 0)"/>
      <use xlink:href="#DejaVuSans-31" transform="translate(180.472656 0)"/>
      <use xlink:href="#DejaVuSans-36" transform="translate(244.095703 0)"/>
      <use xlink:href="#DejaVuSans-30" transform="translate(307.71875 0)"/>
      <use xlink:href="#DejaVuSans-20" transform="translate(371.341797 0)"/>
      <use xlink:href="#DejaVuSans-4b" transform="translate(403.128906 0)"/>
     </g>
    </g>
    <g id="line2d_21">
     <path d="M 56.018 53.254687 
L 66.018 53.254687 
L 76.018 53.254687 
" style="fill: none; stroke: #2ca02c; stroke-width: 1.5; stroke-linecap: square"/>
    </g>
    <g id="text_19">
     <!-- Ts=220 K -->
     <g transform="translate(84.018 56.754687) scale(0.1 -0.1)">
      <use xlink:href="#DejaVuSans-54"/>
      <use xlink:href="#DejaVuSans-73" transform="translate(44.583984 0)"/>
      <use xlink:href="#DejaVuSans-3d" transform="translate(96.683594 0)"/>
      <use xlink:href="#DejaVuSans-32" transform="translate(180.472656 0)"/>
      <use xlink:href="#DejaVuSans-32" transform="translate(244.095703 0)"/>
      <use xlink:href="#DejaVuSans-30" transform="translate(307.71875 0)"/>
      <use xlink:href="#DejaVuSans-20" transform="translate(371.341797 0)"/>
      <use xlink:href="#DejaVuSans-4b" transform="translate(403.128906 0)"/>
     </g>
    </g>
    <g id="line2d_22">
     <path d="M 56.018 67.932813 
L 66.018 67.932813 
L 76.018 67.932813 
" style="fill: none; stroke: #d62728; stroke-width: 1.5; stroke-linecap: square"/>
    </g>
    <g id="text_20">
     <!-- Ts=260 K -->
     <g transform="translate(84.018 71.432813) scale(0.1 -0.1)">
      <use xlink:href="#DejaVuSans-54"/>
      <use xlink:href="#DejaVuSans-73" transform="translate(44.583984 0)"/>
      <use xlink:href="#DejaVuSans-3d" transform="translate(96.683594 0)"/>
      <use xlink:href="#DejaVuSans-32" transform="translate(180.472656 0)"/>
      <use xlink:href="#DejaVuSans-36" transform="translate(244.095703 0)"/>
      <use xlink:href="#DejaVuSans-30" transform="translate(307.71875 0)"/>
      <use xlink:href="#DejaVuSans-20" transform="translate(371.341797 0)"/>
      <use xlink:href="#DejaVuSans-4b" transform="translate(403.128906 0)"/>
     </g>
    </g>
   </g>
  </g>
 </g>
 <defs>
  <clipPath id="pd13b4e0c33">
   <rect x="47.018" y="10.8" width="402.982" height="291.4"/>
  </clipPath>
 </defs>
</svg>
