<?xml version="1.0" encoding="utf-8" standalone="no"?>
<!DOCTYPE svg PUBLIC "-//W3C//DTD SVG 1.1//EN"
  "http://www.w3.org/Graphics/SVG/1.1/DTD/svg11.dtd">
<svg xmlns:xlink="http://www.w3.org/1999/xlink" width="460.8pt" height="345.6pt" viewBox="0 0 460.8 345.6" xmlns="http://www.w3.org/2000/svg" version="1.1">
 <metadata>
  <rdf:RDF xmlns:dc="http://purl.org/dc/elements/1.1/" xmlns:cc="http://creativecommons.org/ns#" xmlns:rdf="http://www.w3.org/1999/02/22-rdf-syntax-ns#">
   <cc:Work>
    <dc:type rdf:resource="http://purl.org/dc/dcmitype/StillImage"/>
    <dc:date>2026-02-12T05:46:00.606995</dc:date>
    <dc:format>image/svg+xml</dc:format>
    <dc:creator>
     <cc:Agent>
      <dc:title>Matplotlib v3.10.8, https://matplotlib.org/</dc:title>
     </cc:Agent>
    </dc:creator>
   </cc:Work>
  </rdf:RDF>
 </metadata>
 <defs>
  <style type="text/css">*{stroke-linejoin: round; stroke-linecap: butt}</style>
 </defs>
 <g id="figure_1">
  <g id="patch_1">
   <path d="M 0 345.6 
L 460.8 345.6 
L 460.8 0 
L 0 0 
L 0 345.6 
z
" style="fill: none"/>
  </g>
  <g id="axes_1">
   <g id="patch_2">
    <path d="M 47.018 302.2 
L 450 302.2 
L 450 10.8 
L 47.018 10.8 
L 47.018 302.2 
z
" style="fill: none"/>
   </g>
   <g id="FillBetweenPolyCollection_1">
    <path d="M 65.335364 171.763779 
L 65.335364 263.253643 
L 72.811839 257.76593 
L 80.288314 252.34567 
L 87.764788 248.054161 
L 95.241263 244.380973 
L 102.717738 240.225582 
L 110.194213 238.605629 
L 117.670688 235.16398 
L 125.147163 234.505288 
L 132.623638 231.231875 
L 140.100113 230.364103 
L 147.576588 228.442274 
L 155.053063 227.57248 
L 162.529538 227.1031 
L 170.006013 225.279706 
L 177.482488 226.884933 
L 184.958963 225.471321 
L 192.435438 225.677332 
L 199.911913 224.965457 
L 207.388388 225.204872 
L 214.864863 225.67752 
L 222.341338 225.559537 
L 229.817813 224.333095 
L 237.294288 225.99208 
L 244.770763 223.967825 
L 252.247237 225.398914 
L 259.723712 225.575534 
L 267.200187 224.637751 
L 274.676662 224.384655 
L 282.153137 225.002806 
L 289.629612 224.798727 
L 297.106087 226.062168 
L 304.582562 224.735625 
L 312.059037 225.339003 
L 319.535512 225.871737 
L 327.011987 224.834259 
L 334.488462 226.17067 
L 341.964937 225.773266 
L 349.441412 225.595361 
L 356.917887 225.050364 
L 364.394362 225.09868 
L 371.870837 224.807757 
L 379.347312 227.764537 
L 386.823787 226.489852 
L 394.300262 224.117226 
L 401.776737 225.743012 
L 409.253212 226.54661 
L 416.729686 225.640597 
L 424.206161 227.354336 
L 431.682636 226.639094 
L 431.682636 24.045455 
L 431.682636 24.045455 
L 424.206161 26.412511 
L 416.729686 26.50695 
L 409.253212 28.430561 
L 401.776737 29.972953 
L 394.300262 32.108607 
L 386.823787 33.419549 
L 379.347312 35.259335 
L 371.870837 37.350118 
L 364.394362 38.906329 
L 356.917887 39.637547 
L 349.441412 42.647261 
L 341.964937 43.523742 
L 334.488462 44.761728 
L 327.011987 47.377715 
L 319.535512 49.660593 
L 312.059037 51.681962 
L 304.582562 52.613026 
L 297.106087 55.393383 
L 289.629612 56.78154 
L 282.153137 59.042615 
L 274.676662 61.016208 
L 267.200187 64.07855 
L 259.723712 66.609588 
L 252.247237 69.414063 
L 244.770763 71.807231 
L 237.294288 73.483758 
L 229.817813 76.554534 
L 222.341338 79.91683 
L 214.864863 82.010489 
L 207.388388 84.745032 
L 199.911913 87.513918 
L 192.435438 90.762595 
L 184.958963 93.212825 
L 177.482488 97.209496 
L 170.006013 100.038616 
L 162.529538 103.433163 
L 155.053063 107.826074 
L 147.576588 112.033286 
L 140.100113 115.417151 
L 132.623638 119.546088 
L 125.147163 125.450348 
L 117.670688 131.6098 
L 110.194213 136.509406 
L 102.717738 143.030215 
L 95.241263 151.157834 
L 87.764788 159.837544 
L 80.288314 166.677429 
L 72.811839 170.257354 
L 65.335364 171.763779 
z
" clip-path="url(#p303e93b0ff)" style="fill: #1f77b4; fill-opacity: 0.27"/>
   </g>
   <g id="FillBetweenPolyCollection_2">
    <path d="M 65.335364 189.774646 
L 65.335364 250.044157 
L 72.811839 244.936379 
L 80.288314 240.42885 
L 87.764788 236.506647 
L 95.241263 233.14428 
L 102.717738 230.305995 
L 110.194213 227.947146 
L 117.670688 226.016414 
L 125.147163 224.458713 
L 132.623638 223.218396 
L 140.100113 222.24657 
L 147.576588 221.487655 
L 155.053063 220.902218 
L 162.529538 220.456372 
L 170.006013 220.122346 
L 177.482488 219.878292 
L 184.958963 219.707063 
L 192.435438 219.594988 
L 199.911913 219.530853 
L 207.388388 219.505202 
L 214.864863 219.50993 
L 222.341338 219.538112 
L 229.817813 219.583933 
L 237.294288 219.642638 
L 244.770763 219.710448 
L 252.247237 219.784412 
L 259.723712 219.862235 
L 267.200187 219.9421 
L 274.676662 220.022523 
L 282.153137 220.102254 
L 289.629612 220.180227 
L 297.106087 220.25554 
L 304.582562 220.32745 
L 312.059037 220.395374 
L 319.535512 220.458871 
L 327.011987 220.517618 
L 334.488462 220.571388 
L 341.964937 220.620016 
L 349.441412 220.663384 
L 356.917887 220.701411 
L 364.394362 220.734056 
L 371.870837 220.761317 
L 379.347312 220.783246 
L 386.823787 220.79995 
L 394.300262 220.811594 
L 401.776737 220.818395 
L 409.253212 220.820624 
L 416.729686 220.818588 
L 424.206161 220.812633 
L 431.682636 220.803136 
L 431.682636 31.418911 
L 431.682636 31.418911 
L 424.206161 32.957946 
L 416.729686 34.516759 
L 409.253212 36.285709 
L 401.776737 37.852783 
L 394.300262 39.556775 
L 386.823787 41.090561 
L 379.347312 42.648751 
L 371.870837 44.250187 
L 364.394362 45.896648 
L 356.917887 47.588971 
L 349.441412 49.348957 
L 341.964937 51.149258 
L 334.488462 52.990804 
L 327.011987 54.874539 
L 319.535512 56.792552 
L 312.059037 58.741303 
L 304.582562 60.739745 
L 297.106087 62.789177 
L 289.629612 64.891086 
L 282.153137 67.04716 
L 274.676662 69.259292 
L 267.200187 71.529578 
L 259.723712 73.860339 
L 252.247237 76.254164 
L 244.770763 78.714005 
L 237.294288 81.243301 
L 229.817813 83.820066 
L 222.341338 86.464085 
L 214.864863 89.185456 
L 207.388388 91.996437 
L 199.911913 94.934122 
L 192.435438 97.981439 
L 184.958963 101.148549 
L 177.482488 104.403755 
L 170.006013 107.793776 
L 162.529538 111.352683 
L 155.053063 115.184391 
L 147.576588 119.209418 
L 140.100113 123.437414 
L 132.623638 128.022609 
L 125.147163 133.010797 
L 117.670688 138.518177 
L 110.194213 144.626797 
L 102.717738 151.429617 
L 95.241263 159.019827 
L 87.764788 167.471845 
L 80.288314 176.805344 
L 72.811839 187.074407 
L 65.335364 189.774646 
z
" clip-path="url(#p303e93b0ff)" style="fill: #ff7f0e; fill-opacity: 0.45"/>
   </g>
   <g id="FillBetweenPolyCollection_3">
    <path d="M 65.335364 199.031081 
L 65.335364 273.000267 
L 72.811839 271.212682 
L 80.288314 267.527413 
L 87.764788 264.720249 
L 95.241263 260.292561 
L 102.717738 259.33426 
L 110.194213 257.465158 
L 117.670688 257.157489 
L 125.147163 254.607847 
L 132.623638 252.696801 
L 140.100113 253.452416 
L 147.576588 250.392632 
L 155.053063 250.444052 
L 162.529538 250.876743 
L 170.006013 249.655109 
L 177.482488 247.223311 
L 184.958963 246.183895 
L 192.435438 247.418697 
L 199.911913 249.007856 
L 207.388388 246.699751 
L 214.864863 244.883857 
L 222.341338 246.310463 
L 229.817813 245.882467 
L 237.294288 243.929221 
L 244.770763 244.21531 
L 252.247237 245.926875 
L 259.723712 245.380715 
L 267.200187 243.607884 
L 274.676662 244.341242 
L 282.153137 243.987456 
L 289.629612 242.954636 
L 297.106087 243.225932 
L 304.582562 244.944648 
L 312.059037 243.128603 
L 319.535512 243.318411 
L 327.011987 242.087397 
L 334.488462 240.661805 
L 341.964937 241.160177 
L 349.441412 242.340828 
L 356.917887 241.38061 
L 364.394362 240.648221 
L 371.870837 240.133846 
L 379.347312 240.245395 
L 386.823787 241.321291 
L 394.300262 240.233434 
L 401.776737 239.678398 
L 409.253212 240.170802 
L 416.729686 238.177673 
L 424.206161 237.472608 
L 431.682636 239.131767 
L 431.682636 144.575734 
L 431.682636 144.575734 
L 424.206161 145.153419 
L 416.729686 147.224276 
L 409.253212 147.422184 
L 401.776737 147.486724 
L 394.300262 149.205896 
L 386.823787 149.881823 
L 379.347312 149.853746 
L 371.870837 152.11919 
L 364.394362 151.843788 
L 356.917887 153.112082 
L 349.441412 154.351951 
L 341.964937 154.640334 
L 334.488462 155.560906 
L 327.011987 157.061251 
L 319.535512 157.533126 
L 312.059037 159.297257 
L 304.582562 160.014748 
L 297.106087 160.591277 
L 289.629612 161.674091 
L 282.153137 163.168368 
L 274.676662 164.711278 
L 267.200187 164.194905 
L 259.723712 164.996666 
L 252.247237 165.829524 
L 244.770763 166.474411 
L 237.294288 166.591893 
L 229.817813 166.701878 
L 222.341338 167.574965 
L 214.864863 168.780904 
L 207.388388 167.082228 
L 199.911913 168.779355 
L 192.435438 169.877033 
L 184.958963 168.946975 
L 177.482488 171.092989 
L 170.006013 171.213597 
L 162.529538 170.66086 
L 155.053063 171.575424 
L 147.576588 174.735043 
L 140.100113 174.407437 
L 132.623638 173.568147 
L 125.147163 174.479524 
L 117.670688 178.360994 
L 110.194213 178.704559 
L 102.717738 183.118992 
L 95.241263 184.587824 
L 87.764788 187.893512 
L 80.288314 190.714468 
L 72.811839 195.352007 
L 65.335364 199.031081 
z
" clip-path="url(#p303e93b0ff)" style="fill: #2ca02c; fill-opacity: 0.27"/>
   </g>
   <g id="FillBetweenPolyCollection_4">
    <path d="M 65.335364 217.086194 
L 65.335364 259.961447 
L 72.811839 256.719623 
L 80.288314 253.906803 
L 87.764788 251.484589 
L 95.241263 249.412014 
L 102.717738 247.646978 
L 110.194213 246.1477 
L 117.670688 244.874091 
L 125.147163 243.78894 
L 132.623638 242.858815 
L 140.100113 242.05464 
L 147.576588 241.35191 
L 155.053063 240.73058 
L 162.529538 240.174688 
L 170.006013 239.671779 
L 177.482488 239.212243 
L 184.958963 238.788664 
L 192.435438 238.395227 
L 199.911913 238.027264 
L 207.388388 237.68092 
L 214.864863 237.352941 
L 222.341338 237.040554 
L 229.817813 236.741401 
L 237.294288 236.453489 
L 244.770763 236.175152 
L 252.247237 235.905001 
L 259.723712 235.641876 
L 267.200187 235.384794 
L 274.676662 235.132912 
L 282.153137 234.885501 
L 289.629612 234.64193 
L 297.106087 234.401662 
L 304.582562 234.164251 
L 312.059037 233.929339 
L 319.535512 233.69665 
L 327.011987 233.46597 
L 334.488462 233.237139 
L 341.964937 233.01003 
L 349.441412 232.784547 
L 356.917887 232.560629 
L 364.394362 232.338268 
L 371.870837 232.117545 
L 379.347312 231.898667 
L 386.823787 231.682012 
L 394.300262 231.468156 
L 401.776737 231.257887 
L 409.253212 231.052188 
L 416.729686 230.852196 
L 424.206161 230.659133 
L 431.682636 230.474233 
L 431.682636 152.690452 
L 431.682636 152.690452 
L 424.206161 153.564685 
L 416.729686 154.325902 
L 409.253212 155.104419 
L 401.776737 155.899943 
L 394.300262 156.712292 
L 386.823787 157.541437 
L 379.347312 158.387519 
L 371.870837 159.250848 
L 364.394362 160.131877 
L 356.917887 161.031164 
L 349.441412 161.949326 
L 341.964937 162.887002 
L 334.488462 163.844826 
L 327.011987 164.823413 
L 319.535512 165.823372 
L 312.059037 166.845324 
L 304.582562 167.889938 
L 297.106087 168.957952 
L 289.629612 170.050196 
L 282.153137 171.167596 
L 274.676662 172.311165 
L 267.200187 173.481985 
L 259.723712 174.681203 
L 252.247237 175.910035 
L 244.770763 177.169806 
L 237.294288 178.462019 
L 229.817813 179.78844 
L 222.341338 181.151192 
L 214.864863 182.552845 
L 207.388388 183.99647 
L 199.911913 185.485714 
L 192.435438 187.024892 
L 184.958963 188.002166 
L 177.482488 188.343565 
L 170.006013 188.760353 
L 162.529538 189.27235 
L 155.053063 189.898162 
L 147.576588 190.660174 
L 140.100113 191.584891 
L 132.623638 192.702885 
L 125.147163 194.04821 
L 117.670688 195.657276 
L 110.194213 197.567244 
L 102.717738 199.814127 
L 95.241263 202.43084 
L 87.764788 205.447603 
L 80.288314 208.885302 
L 72.811839 212.761409 
L 65.335364 217.086194 
z
" clip-path="url(#p303e93b0ff)" style="fill: #d62728; fill-opacity: 0.45"/>
   </g>
   <g id="FillBetweenPolyCollection_5">
    <path d="M 65.335364 234.934179 
L 65.335364 280.032695 
L 72.811839 278.562984 
L 80.288314 276.438441 
L 87.764788 275.75538 
L 95.241263 274.450296 
L 102.717738 273.274728 
L 110.194213 273.674438 
L 117.670688 273.207028 
L 125.147163 272.041668 
L 132.623638 272.987789 
L 140.100113 272.294527 
L 147.576588 272.12354 
L 155.053063 271.356979 
L 162.529538 272.56891 
L 170.006013 272.507819 
L 177.482488 271.283187 
L 184.958963 271.044346 
L 192.435438 270.311289 
L 199.911913 272.884311 
L 207.388388 269.792733 
L 214.864863 270.79481 
L 222.341338 271.875568 
L 229.817813 270.742217 
L 237.294288 271.278325 
L 244.770763 271.856677 
L 252.247237 271.745455 
L 259.723712 271.341996 
L 267.200187 271.982832 
L 274.676662 271.670516 
L 282.153137 270.954358 
L 289.629612 271.636793 
L 297.106087 272.153561 
L 304.582562 271.325173 
L 312.059037 269.670994 
L 319.535512 269.844517 
L 327.011987 270.083887 
L 334.488462 271.386537 
L 341.964937 271.1718 
L 349.441412 270.123787 
L 356.917887 271.484912 
L 364.394362 271.400798 
L 371.870837 270.19478 
L 379.347312 270.425601 
L 386.823787 269.233245 
L 394.300262 271.508889 
L 401.776737 270.949345 
L 409.253212 270.310007 
L 416.729686 269.571612 
L 424.206161 269.666516 
L 431.682636 270.179791 
L 431.682636 209.242971 
L 431.682636 209.242971 
L 424.206161 210.384597 
L 416.729686 210.065878 
L 409.253212 209.513873 
L 401.776737 209.894992 
L 394.300262 210.236332 
L 386.823787 210.247357 
L 379.347312 210.047475 
L 371.870837 209.39971 
L 364.394362 210.414964 
L 356.917887 209.462864 
L 349.441412 210.134134 
L 341.964937 210.730859 
L 334.488462 210.318419 
L 327.011987 212.74403 
L 319.535512 212.62827 
L 312.059037 213.110415 
L 304.582562 213.310347 
L 297.106087 212.390586 
L 289.629612 213.049097 
L 282.153137 210.983079 
L 274.676662 213.495728 
L 267.200187 213.643563 
L 259.723712 214.676868 
L 252.247237 215.288029 
L 244.770763 214.279668 
L 237.294288 215.660266 
L 229.817813 215.821674 
L 222.341338 216.535428 
L 214.864863 215.715561 
L 207.388388 216.097877 
L 199.911913 217.204549 
L 192.435438 217.004109 
L 184.958963 217.345578 
L 177.482488 218.850801 
L 170.006013 218.173399 
L 162.529538 220.366177 
L 155.053063 219.358767 
L 147.576588 219.921479 
L 140.100113 222.289926 
L 132.623638 222.456651 
L 125.147163 223.302825 
L 117.670688 223.161276 
L 110.194213 225.041852 
L 102.717738 227.563318 
L 95.241263 226.921998 
L 87.764788 230.33036 
L 80.288314 229.893752 
L 72.811839 232.79521 
L 65.335364 234.934179 
z
" clip-path="url(#p303e93b0ff)" style="fill: #9467bd; fill-opacity: 0.27"/>
   </g>
   <g id="FillBetweenPolyCollection_6">
    <path d="M 65.335364 250.230049 
L 65.335364 262.832327 
L 72.811839 261.949202 
L 80.288314 261.23663 
L 87.764788 260.670467 
L 95.241263 260.227984 
L 102.717738 259.888259 
L 110.194213 259.632469 
L 117.670688 259.444054 
L 125.147163 259.308768 
L 132.623638 259.214612 
L 140.100113 259.151691 
L 147.576588 259.11199 
L 155.053063 259.089124 
L 162.529538 259.078075 
L 170.006013 259.074929 
L 177.482488 259.076655 
L 184.958963 259.080899 
L 192.435438 259.085831 
L 199.911913 259.090017 
L 207.388388 259.092331 
L 214.864863 259.091886 
L 222.341338 259.087991 
L 229.817813 259.080112 
L 237.294288 259.067849 
L 244.770763 259.050914 
L 252.247237 259.029108 
L 259.723712 259.002309 
L 267.200187 258.970451 
L 274.676662 258.933515 
L 282.153137 258.891516 
L 289.629612 258.844494 
L 297.106087 258.792508 
L 304.582562 258.735626 
L 312.059037 258.673927 
L 319.535512 258.607494 
L 327.011987 258.536409 
L 334.488462 258.460758 
L 341.964937 258.38062 
L 349.441412 258.296073 
L 356.917887 258.207186 
L 364.394362 258.114015 
L 371.870837 258.016597 
L 379.347312 257.914942 
L 386.823787 257.809024 
L 394.300262 257.69878 
L 401.776737 257.584104 
L 409.253212 257.464851 
L 416.729686 257.340849 
L 424.206161 257.211906 
L 431.682636 257.077835 
L 431.682636 227.595537 
L 431.682636 227.595537 
L 424.206161 227.691038 
L 416.729686 227.796238 
L 409.253212 227.910989 
L 401.776737 228.035227 
L 394.300262 228.168947 
L 386.823787 228.312186 
L 379.347312 228.464995 
L 371.870837 228.627424 
L 364.394362 228.799508 
L 356.917887 228.981257 
L 349.441412 229.172659 
L 341.964937 229.373676 
L 334.488462 229.584252 
L 327.011987 229.804316 
L 319.535512 230.033786 
L 312.059037 230.272583 
L 304.582562 230.520632 
L 297.106087 230.777877 
L 289.629612 231.044292 
L 282.153137 231.319893 
L 274.676662 231.604758 
L 267.200187 231.899048 
L 259.723712 232.203028 
L 252.247237 232.517103 
L 244.770763 232.841855 
L 237.294288 233.178085 
L 229.817813 233.526869 
L 222.341338 233.889608 
L 214.864863 234.268097 
L 207.388388 234.66458 
L 199.911913 235.081831 
L 192.435438 235.523229 
L 184.958963 235.992858 
L 177.482488 236.495621 
L 170.006013 237.037398 
L 162.529538 237.6252 
L 155.053063 238.267166 
L 147.576588 238.973116 
L 140.100113 239.75412 
L 132.623638 240.623468 
L 125.147163 241.595335 
L 117.670688 242.687056 
L 110.194213 243.915987 
L 102.717738 245.301121 
L 95.241263 246.093386 
L 87.764788 246.88618 
L 80.288314 247.826776 
L 72.811839 248.934693 
L 65.335364 250.230049 
z
" clip-path="url(#p303e93b0ff)" style="fill: #8c564b; fill-opacity: 0.45"/>
   </g>
   <g id="FillBetweenPolyCollection_7">
    <path d="M 65.335364 235.623656 
L 65.335364 286.235529 
L 72.811839 284.316719 
L 80.288314 283.938564 
L 87.764788 286.807914 
L 95.241263 284.347803 
L 102.717738 282.937616 
L 110.194213 283.590759 
L 117.670688 284.407457 
L 125.147163 283.781122 
L 132.623638 284.014146 
L 140.100113 284.670243 
L 147.576588 283.434112 
L 155.053063 283.745779 
L 162.529538 283.730865 
L 170.006013 284.9192 
L 177.482488 284.691816 
L 184.958963 284.565748 
L 192.435438 284.159482 
L 199.911913 284.093662 
L 207.388388 283.570107 
L 214.864863 283.867998 
L 222.341338 285.321777 
L 229.817813 285.198872 
L 237.294288 285.744002 
L 244.770763 285.039735 
L 252.247237 284.352421 
L 259.723712 284.905611 
L 267.200187 284.782122 
L 274.676662 284.825592 
L 282.153137 286.459756 
L 289.629612 285.196802 
L 297.106087 285.973258 
L 304.582562 284.872858 
L 312.059037 286.79443 
L 319.535512 285.5574 
L 327.011987 286.517537 
L 334.488462 286.398584 
L 341.964937 285.254687 
L 349.441412 286.093914 
L 356.917887 288.954545 
L 364.394362 286.649051 
L 371.870837 285.389118 
L 379.347312 287.603995 
L 386.823787 286.47171 
L 394.300262 286.483177 
L 401.776737 287.387662 
L 409.253212 287.6545 
L 416.729686 288.064665 
L 424.206161 288.155454 
L 431.682636 288.685939 
L 431.682636 237.956639 
L 431.682636 237.956639 
L 424.206161 236.494589 
L 416.729686 236.763696 
L 409.253212 237.311747 
L 401.776737 236.144546 
L 394.300262 235.293045 
L 386.823787 235.94242 
L 379.347312 236.665247 
L 371.870837 236.751496 
L 364.394362 236.940485 
L 356.917887 235.944393 
L 349.441412 236.996971 
L 341.964937 236.053651 
L 334.488462 235.857981 
L 327.011987 237.297863 
L 319.535512 236.077574 
L 312.059037 235.093936 
L 304.582562 236.638734 
L 297.106087 233.918289 
L 289.629612 235.685358 
L 282.153137 235.047176 
L 274.676662 234.318205 
L 267.200187 236.0293 
L 259.723712 236.040564 
L 252.247237 236.432335 
L 244.770763 235.287815 
L 237.294288 234.901952 
L 229.817813 235.523944 
L 222.341338 234.738901 
L 214.864863 234.64883 
L 207.388388 235.020267 
L 199.911913 235.510579 
L 192.435438 235.113669 
L 184.958963 235.750413 
L 177.482488 234.846977 
L 170.006013 234.435194 
L 162.529538 235.954691 
L 155.053063 234.323802 
L 147.576588 234.607555 
L 140.100113 234.129039 
L 132.623638 234.093997 
L 125.147163 234.672446 
L 117.670688 233.770978 
L 110.194213 232.735204 
L 102.717738 233.428297 
L 95.241263 234.574149 
L 87.764788 234.581701 
L 80.288314 234.067836 
L 72.811839 233.055262 
L 65.335364 235.623656 
z
" clip-path="url(#p303e93b0ff)" style="fill: #e377c2; fill-opacity: 0.27"/>
   </g>
   <g id="FillBetweenPolyCollection_8">
    <path d="M 65.335364 252.006006 
L 65.335364 264.278818 
L 72.811839 263.573283 
L 80.288314 263.011085 
L 87.764788 262.569337 
L 95.241263 262.230083 
L 102.717738 261.976865 
L 110.194213 261.794247 
L 117.670688 261.787769 
L 125.147163 262.120926 
L 132.623638 262.452001 
L 140.100113 262.775509 
L 147.576588 263.087222 
L 155.053063 263.384009 
L 162.529538 263.663687 
L 170.006013 263.924879 
L 177.482488 264.166868 
L 184.958963 264.389478 
L 192.435438 264.592957 
L 199.911913 264.777882 
L 207.388388 264.945034 
L 214.864863 265.095535 
L 222.341338 265.230435 
L 229.817813 265.350939 
L 237.294288 265.458298 
L 244.770763 265.553779 
L 252.247237 265.638647 
L 259.723712 265.714144 
L 267.200187 265.781479 
L 274.676662 265.841815 
L 282.153137 265.896265 
L 289.629612 265.945884 
L 297.106087 265.991665 
L 304.582562 266.034533 
L 312.059037 266.075347 
L 319.535512 266.114929 
L 327.011987 266.243616 
L 334.488462 266.383771 
L 341.964937 266.514044 
L 349.441412 266.634776 
L 356.917887 266.746307 
L 364.394362 266.848974 
L 371.870837 266.9431 
L 379.347312 267.028993 
L 386.823787 267.106935 
L 394.300262 267.177182 
L 401.776737 267.239952 
L 409.253212 267.295429 
L 416.729686 267.34375 
L 424.206161 267.385011 
L 431.682636 267.419261 
L 431.682636 256.942708 
L 431.682636 256.942708 
L 424.206161 256.837573 
L 416.729686 256.733312 
L 409.253212 256.629978 
L 401.776737 256.52667 
L 394.300262 256.424744 
L 386.823787 256.3242 
L 379.347312 256.224973 
L 371.870837 256.126934 
L 364.394362 256.029899 
L 356.917887 255.933626 
L 349.441412 255.837824 
L 341.964937 255.742148 
L 334.488462 255.646209 
L 327.011987 255.549571 
L 319.535512 255.451756 
L 312.059037 255.352245 
L 304.582562 255.250484 
L 297.106087 255.145885 
L 289.629612 255.037831 
L 282.153137 254.925687 
L 274.676662 254.808803 
L 267.200187 254.686524 
L 259.723712 254.558206 
L 252.247237 254.423228 
L 244.770763 254.281012 
L 237.294288 254.131044 
L 229.817813 253.972903 
L 222.341338 253.806289 
L 214.864863 253.631063 
L 207.388388 253.44729 
L 199.911913 253.255285 
L 192.435438 253.055672 
L 184.958963 252.849445 
L 177.482488 252.638037 
L 170.006013 252.423395 
L 162.529538 252.208057 
L 155.053063 251.995235 
L 147.576588 251.788896 
L 140.100113 251.593839 
L 132.623638 251.415767 
L 125.147163 251.261348 
L 117.670688 251.138259 
L 110.194213 251.055211 
L 102.717738 251.021955 
L 95.241263 251.049254 
L 87.764788 251.148838 
L 80.288314 251.33326 
L 72.811839 251.613659 
L 65.335364 252.006006 
z
" clip-path="url(#p303e93b0ff)" style="fill: #7f7f7f; fill-opacity: 0.45"/>
   </g>
   <g id="matplotlib.axis_1">
    <g id="xtick_1">
     <g id="line2d_1">
      <defs>
       <path id="m7aaa4741a6" d="M 0 0 
L 0 3.5 
" style="stroke: #000000; stroke-width: 0.8"/>
      </defs>
      <g>
       <use xlink:href="#m7aaa4741a6" x="61.634886" y="302.2" style="stroke: #000000; stroke-width: 0.8"/>
      </g>
     </g>
     <g id="text_1">
      <!-- 0 -->
      <g transform="translate(58.453636 316.798437) scale(0.1 -0.1)">
       <defs>
        <path id="DejaVuSans-30" d="M 2034 4250 
Q 1547 4250 1301 3770 
Q 1056 3291 1056 2328 
Q 1056 1369 1301 889 
Q 1547 409 2034 409 
Q 2525 409 2770 889 
Q 3016 1369 3016 2328 
Q 3016 3291 2770 3770 
Q 2525 4250 2034 4250 
z
M 2034 4750 
Q 2819 4750 3233 4129 
Q 3647 3509 3647 2328 
Q 3647 1150 3233 529 
Q 2819 -91 2034 -91 
Q 1250 -91 836 529 
Q 422 1150 422 2328 
Q 422 3509 836 4129 
Q 1250 4750 2034 4750 
z
" transform="scale(0.015625)"/>
       </defs>
       <use xlink:href="#DejaVuSans-30"/>
      </g>
     </g>
    </g>
    <g id="xtick_2">
     <g id="line2d_2">
      <g>
       <use xlink:href="#m7aaa4741a6" x="135.644436" y="302.2" style="stroke: #000000; stroke-width: 0.8"/>
      </g>
     </g>
     <g id="text_2">
      <!-- 1 -->
      <g transform="translate(132.463186 316.798437) scale(0.1 -0.1)">
       <defs>
        <path id="DejaVuSans-31" d="M 794 531 
L 1825 531 
L 1825 4091 
L 703 3866 
L 703 4441 
L 1819 4666 
L 2450 4666 
L 2450 531 
L 3481 531 
L 3481 0 
L 794 0 
L 794 531 
z
" transform="scale(0.015625)"/>
       </defs>
       <use xlink:href="#DejaVuSans-31"/>
      </g>
     </g>
    </g>
    <g id="xtick_3">
     <g id="line2d_3">
      <g>
       <use xlink:href="#m7aaa4741a6" x="209.653986" y="302.2" style="stroke: #000000; stroke-width: 0.8"/>
      </g>
     </g>
     <g id="text_3">
      <!-- 2 -->
      <g transform="translate(206.472736 316.798437) scale(0.1 -0.1)">
       <defs>
        <path id="DejaVuSans-32" d="M 1228 531 
L 3431 531 
L 3431 0 
L 469 0 
L 469 531 
Q 828 903 1448 1529 
Q 2069 2156 2228 2338 
Q 2531 2678 2651 2914 
Q 2772 3150 2772 3378 
Q 2772 3750 2511 3984 
Q 2250 4219 1831 4219 
Q 1534 4219 1204 4116 
Q 875 4013 500 3803 
L 500 4441 
Q 881 4594 1212 4672 
Q 1544 4750 1819 4750 
Q 2544 4750 2975 4387 
Q 3406 4025 3406 3419 
Q 3406 3131 3298 2873 
Q 3191 2616 2906 2266 
Q 2828 2175 2409 1742 
Q 1991 1309 1228 531 
z
" transform="scale(0.015625)"/>
       </defs>
       <use xlink:href="#DejaVuSans-32"/>
      </g>
     </g>
    </g>
    <g id="xtick_4">
     <g id="line2d_4">
      <g>
       <use xlink:href="#m7aaa4741a6" x="283.663536" y="302.2" style="stroke: #000000; stroke-width: 0.8"/>
      </g>
     </g>
     <g id="text_4">
      <!-- 3 -->
      <g transform="translate(280.482286 316.798437) scale(0.1 -0.1)">
       <defs>
        <path id="DejaVuSans-33" d="M 2597 2516 
Q 3050 2419 3304 2112 
Q 3559 1806 3559 1356 
Q 3559 666 3084 287 
Q 2609 -91 1734 -91 
Q 1441 -91 1130 -33 
Q 819 25 488 141 
L 488 750 
Q 750 597 1062 519 
Q 1375 441 1716 441 
Q 2309 441 2620 675 
Q 2931 909 2931 1356 
Q 2931 1769 2642 2001 
Q 2353 2234 1838 2234 
L 1294 2234 
L 1294 2753 
L 1863 2753 
Q 2328 2753 2575 2939 
Q 2822 3125 2822 3475 
Q 2822 3834 2567 4026 
Q 2313 4219 1838 4219 
Q 1578 4219 1281 4162 
Q 984 4106 628 3988 
L 628 4550 
Q 988 4650 1302 4700 
Q 1616 4750 1894 4750 
Q 2613 4750 3031 4423 
Q 3450 4097 3450 3541 
Q 3450 3153 3228 2886 
Q 3006 2619 2597 2516 
z
" transform="scale(0.015625)"/>
       </defs>
       <use xlink:href="#DejaVuSans-33"/>
      </g>
     </g>
    </g>
    <g id="xtick_5">
     <g id="line2d_5">
      <g>
       <use xlink:href="#m7aaa4741a6" x="357.673086" y="302.2" style="stroke: #000000; stroke-width: 0.8"/>
      </g>
     </g>
     <g id="text_5">
      <!-- 4 -->
      <g transform="translate(354.491836 316.798437) scale(0.1 -0.1)">
       <defs>
        <path id="DejaVuSans-34" d="M 2419 4116 
L 825 1625 
L 2419 1625 
L 2419 4116 
z
M 2253 4666 
L 3047 4666 
L 3047 1625 
L 3713 1625 
L 3713 1100 
L 3047 1100 
L 3047 0 
L 2419 0 
L 2419 1100 
L 313 1100 
L 313 1709 
L 2253 4666 
z
" transform="scale(0.015625)"/>
       </defs>
       <use xlink:href="#DejaVuSans-34"/>
      </g>
     </g>
    </g>
    <g id="xtick_6">
     <g id="line2d_6">
      <g>
       <use xlink:href="#m7aaa4741a6" x="431.682636" y="302.2" style="stroke: #000000; stroke-width: 0.8"/>
      </g>
     </g>
     <g id="text_6">
      <!-- 5 -->
      <g transform="translate(428.501386 316.798437) scale(0.1 -0.1)">
       <defs>
        <path id="DejaVuSans-35" d="M 691 4666 
L 3169 4666 
L 3169 4134 
L 1269 4134 
L 1269 2991 
Q 1406 3038 1543 3061 
Q 1681 3084 1819 3084 
Q 2600 3084 3056 2656 
Q 3513 2228 3513 1497 
Q 3513 744 3044 326 
Q 2575 -91 1722 -91 
Q 1428 -91 1123 -41 
Q 819 9 494 109 
L 494 744 
Q 775 591 1075 516 
Q 1375 441 1709 441 
Q 2250 441 2565 725 
Q 2881 1009 2881 1497 
Q 2881 1984 2565 2268 
Q 2250 2553 1709 2553 
Q 1456 2553 1204 2497 
Q 953 2441 691 2322 
L 691 4666 
z
" transform="scale(0.015625)"/>
       </defs>
       <use xlink:href="#DejaVuSans-35"/>
      </g>
     </g>
    </g>
    <g id="text_7">
     <!-- $W$ (m/hour) -->
     <g transform="translate(220.059 330.476562) scale(0.1 -0.1)">
      <defs>
       <path id="DejaVuSans-Oblique-57" d="M 616 4666 
L 1228 4666 
L 1453 697 
L 3213 4666 
L 3916 4666 
L 4147 697 
L 5888 4666 
L 6528 4666 
L 4453 0 
L 3659 0 
L 3444 3891 
L 1697 0 
L 903 0 
L 616 4666 
z
" transform="scale(0.015625)"/>
       <path id="DejaVuSans-20" transform="scale(0.015625)"/>
       <path id="DejaVuSans-28" d="M 1984 4856 
Q 1566 4138 1362 3434 
Q 1159 2731 1159 2009 
Q 1159 1288 1364 580 
Q 1569 -128 1984 -844 
L 1484 -844 
Q 1016 -109 783 600 
Q 550 1309 550 2009 
Q 550 2706 781 3412 
Q 1013 4119 1484 4856 
L 1984 4856 
z
" transform="scale(0.015625)"/>
       <path id="DejaVuSans-6d" d="M 3328 2828 
Q 3544 3216 3844 3400 
Q 4144 3584 4550 3584 
Q 5097 3584 5394 3201 
Q 5691 2819 5691 2113 
L 5691 0 
L 5113 0 
L 5113 2094 
Q 5113 2597 4934 2840 
Q 4756 3084 4391 3084 
Q 3944 3084 3684 2787 
Q 3425 2491 3425 1978 
L 3425 0 
L 2847 0 
L 2847 2094 
Q 2847 2600 2669 2842 
Q 2491 3084 2119 3084 
Q 1678 3084 1418 2786 
Q 1159 2488 1159 1978 
L 1159 0 
L 581 0 
L 581 3500 
L 1159 3500 
L 1159 2956 
Q 1356 3278 1631 3431 
Q 1906 3584 2284 3584 
Q 2666 3584 2933 3390 
Q 3200 3197 3328 2828 
z
" transform="scale(0.015625)"/>
       <path id="DejaVuSans-2f" d="M 1625 4666 
L 2156 4666 
L 531 -594 
L 0 -594 
L 1625 4666 
z
" transform="scale(0.015625)"/>
       <path id="DejaVuSans-68" d="M 3513 2113 
L 3513 0 
L 2938 0 
L 2938 2094 
Q 2938 2591 2744 2837 
Q 2550 3084 2163 3084 
Q 1697 3084 1428 2787 
Q 1159 2491 1159 1978 
L 1159 0 
L 581 0 
L 581 4863 
L 1159 4863 
L 1159 2956 
Q 1366 3272 1645 3428 
Q 1925 3584 2291 3584 
Q 2894 3584 3203 3211 
Q 3513 2838 3513 2113 
z
" transform="scale(0.015625)"/>
       <path id="DejaVuSans-6f" d="M 1959 3097 
Q 1497 3097 1228 2736 
Q 959 2375 959 1747 
Q 959 1119 1226 758 
Q 1494 397 1959 397 
Q 2419 397 2687 759 
Q 2956 1122 2956 1747 
Q 2956 2369 2687 2733 
Q 2419 3097 1959 3097 
z
M 1959 3584 
Q 2709 3584 3137 3096 
Q 3566 2609 3566 1747 
Q 3566 888 3137 398 
Q 2709 -91 1959 -91 
Q 1206 -91 779 398 
Q 353 888 353 1747 
Q 353 2609 779 3096 
Q 1206 3584 1959 3584 
z
" transform="scale(0.015625)"/>
       <path id="DejaVuSans-75" d="M 544 1381 
L 544 3500 
L 1119 3500 
L 1119 1403 
Q 1119 906 1312 657 
Q 1506 409 1894 409 
Q 2359 409 2629 706 
Q 2900 1003 2900 1516 
L 2900 3500 
L 3475 3500 
L 3475 0 
L 2900 0 
L 2900 538 
Q 2691 219 2414 64 
Q 2138 -91 1772 -91 
Q 1169 -91 856 284 
Q 544 659 544 1381 
z
M 1991 3584 
L 1991 3584 
z
" transform="scale(0.015625)"/>
       <path id="DejaVuSans-72" d="M 2631 2963 
Q 2534 3019 2420 3045 
Q 2306 3072 2169 3072 
Q 1681 3072 1420 2755 
Q 1159 2438 1159 1844 
L 1159 0 
L 581 0 
L 581 3500 
L 1159 3500 
L 1159 2956 
Q 1341 3275 1631 3429 
Q 1922 3584 2338 3584 
Q 2397 3584 2469 3576 
Q 2541 3569 2628 3553 
L 2631 2963 
z
" transform="scale(0.015625)"/>
       <path id="DejaVuSans-29" d="M 513 4856 
L 1013 4856 
Q 1481 4119 1714 3412 
Q 1947 2706 1947 2009 
Q 1947 1309 1714 600 
Q 1481 -109 1013 -844 
L 513 -844 
Q 928 -128 1133 580 
Q 1338 1288 1338 2009 
Q 1338 2731 1133 3434 
Q 928 4138 513 4856 
z
" transform="scale(0.015625)"/>
      </defs>
      <use xlink:href="#DejaVuSans-Oblique-57" transform="translate(0 0.015625)"/>
      <use xlink:href="#DejaVuSans-20" transform="translate(98.876953 0.015625)"/>
      <use xlink:href="#DejaVuSans-28" transform="translate(130.664062 0.015625)"/>
      <use xlink:href="#DejaVuSans-6d" transform="translate(169.677734 0.015625)"/>
      <use xlink:href="#DejaVuSans-2f" transform="translate(267.089844 0.015625)"/>
      <use xlink:href="#DejaVuSans-68" transform="translate(300.78125 0.015625)"/>
      <use xlink:href="#DejaVuSans-6f" transform="translate(364.160156 0.015625)"/>
      <use xlink:href="#DejaVuSans-75" transform="translate(425.341797 0.015625)"/>
      <use xlink:href="#DejaVuSans-72" transform="translate(488.720703 0.015625)"/>
      <use xlink:href="#DejaVuSans-29" transform="translate(529.833984 0.015625)"/>
     </g>
    </g>
   </g>
   <g id="matplotlib.axis_2">
    <g id="ytick_1">
     <g id="line2d_7">
      <defs>
       <path id="mbe859b1780" d="M 0 0 
L -3.5 0 
" style="stroke: #000000; stroke-width: 0.8"/>
      </defs>
      <g>
       <use xlink:href="#mbe859b1780" x="47.018" y="264.693087" style="stroke: #000000; stroke-width: 0.8"/>
      </g>
     </g>
     <g id="text_8">
      <!-- 0 -->
      <g transform="translate(33.6555 268.492306) scale(0.1 -0.1)">
       <use xlink:href="#DejaVuSans-30"/>
      </g>
     </g>
    </g>
    <g id="ytick_2">
     <g id="line2d_8">
      <g>
       <use xlink:href="#mbe859b1780" x="47.018" y="200.396761" style="stroke: #000000; stroke-width: 0.8"/>
      </g>
     </g>
     <g id="text_9">
      <!-- 10 -->
      <g transform="translate(27.293 204.195979) scale(0.1 -0.1)">
       <use xlink:href="#DejaVuSans-31"/>
       <use xlink:href="#DejaVuSans-30" transform="translate(63.623047 0)"/>
      </g>
     </g>
    </g>
    <g id="ytick_3">
     <g id="line2d_9">
      <g>
       <use xlink:href="#mbe859b1780" x="47.018" y="136.100434" style="stroke: #000000; stroke-width: 0.8"/>
      </g>
     </g>
     <g id="text_10">
      <!-- 20 -->
      <g transform="translate(27.293 139.899652) scale(0.1 -0.1)">
       <use xlink:href="#DejaVuSans-32"/>
       <use xlink:href="#DejaVuSans-30" transform="translate(63.623047 0)"/>
      </g>
     </g>
    </g>
    <g id="ytick_4">
     <g id="line2d_10">
      <g>
       <use xlink:href="#mbe859b1780" x="47.018" y="71.804107" style="stroke: #000000; stroke-width: 0.8"/>
      </g>
     </g>
     <g id="text_11">
      <!-- 30 -->
      <g transform="translate(27.293 75.603326) scale(0.1 -0.1)">
       <use xlink:href="#DejaVuSans-33"/>
       <use xlink:href="#DejaVuSans-30" transform="translate(63.623047 0)"/>
      </g>
     </g>
    </g>
    <g id="text_12">
     <!-- $Q_{lc}$ (kW) -->
     <g transform="translate(21.213312 176.8) rotate(-90) scale(0.1 -0.1)">
      <defs>
       <path id="DejaVuSans-Oblique-51" d="M 2309 -84 
Q 2275 -88 2237 -89 
Q 2200 -91 2125 -91 
Q 1250 -91 756 411 
Q 263 913 263 1797 
Q 263 2319 452 2844 
Q 641 3369 978 3788 
Q 1369 4269 1858 4509 
Q 2347 4750 2938 4750 
Q 3794 4750 4287 4245 
Q 4781 3741 4781 2869 
Q 4781 1928 4265 1147 
Q 3750 366 2919 44 
L 3553 -825 
L 2847 -825 
L 2309 -84 
z
M 2919 4238 
Q 2400 4238 2003 3986 
Q 1606 3734 1313 3219 
Q 1125 2891 1026 2522 
Q 928 2153 928 1778 
Q 928 1128 1239 775 
Q 1550 422 2119 422 
Q 2631 422 3032 676 
Q 3434 931 3719 1434 
Q 3909 1772 4009 2142 
Q 4109 2513 4109 2881 
Q 4109 3528 3796 3883 
Q 3484 4238 2919 4238 
z
" transform="scale(0.015625)"/>
       <path id="DejaVuSans-Oblique-6c" d="M 1172 4863 
L 1747 4863 
L 800 0 
L 225 0 
L 1172 4863 
z
" transform="scale(0.015625)"/>
       <path id="DejaVuSans-Oblique-63" d="M 3431 3366 
L 3316 2797 
Q 3109 2947 2876 3022 
Q 2644 3097 2394 3097 
Q 2119 3097 1870 3000 
Q 1622 2903 1453 2725 
Q 1184 2453 1037 2087 
Q 891 1722 891 1331 
Q 891 859 1127 628 
Q 1363 397 1844 397 
Q 2081 397 2348 469 
Q 2616 541 2906 684 
L 2797 116 
Q 2547 13 2283 -39 
Q 2019 -91 1741 -91 
Q 1044 -91 669 257 
Q 294 606 294 1253 
Q 294 1797 489 2255 
Q 684 2713 1069 3078 
Q 1331 3328 1684 3456 
Q 2038 3584 2456 3584 
Q 2700 3584 2940 3529 
Q 3181 3475 3431 3366 
z
" transform="scale(0.015625)"/>
       <path id="DejaVuSans-6b" d="M 581 4863 
L 1159 4863 
L 1159 1991 
L 2875 3500 
L 3609 3500 
L 1753 1863 
L 3688 0 
L 2938 0 
L 1159 1709 
L 1159 0 
L 581 0 
L 581 4863 
z
" transform="scale(0.015625)"/>
       <path id="DejaVuSans-57" d="M 213 4666 
L 850 4666 
L 1831 722 
L 2809 4666 
L 3519 4666 
L 4500 722 
L 5478 4666 
L 6119 4666 
L 4947 0 
L 4153 0 
L 3169 4050 
L 2175 0 
L 1381 0 
L 213 4666 
z
" transform="scale(0.015625)"/>
      </defs>
      <use xlink:href="#DejaVuSans-Oblique-51" transform="translate(0 0.015625)"/>
      <use xlink:href="#DejaVuSans-Oblique-6c" transform="translate(78.710938 -16.390625) scale(0.7)"/>
      <use xlink:href="#DejaVuSans-Oblique-63" transform="translate(98.15918 -16.390625) scale(0.7)"/>
      <use xlink:href="#DejaVuSans-20" transform="translate(139.379883 0.015625)"/>
      <use xlink:href="#DejaVuSans-28" transform="translate(171.166992 0.015625)"/>
      <use xlink:href="#DejaVuSans-6b" transform="translate(210.180664 0.015625)"/>
      <use xlink:href="#DejaVuSans-57" transform="translate(268.09082 0.015625)"/>
      <use xlink:href="#DejaVuSans-29" transform="translate(366.967773 0.015625)"/>
     </g>
    </g>
   </g>
   <g id="line2d_11">
    <path d="M 65.335364 198.347556 
L 72.811839 188.860157 
L 80.288314 188.113546 
L 87.764788 187.546483 
L 95.241263 187.120181 
L 102.717738 186.805238 
L 110.194213 186.575134 
L 117.670688 186.407798 
L 125.147163 186.286748 
L 132.623638 186.195499 
L 140.100113 186.130937 
L 147.576588 186.084622 
L 155.053063 186.052376 
L 162.529538 186.031447 
L 170.006013 186.019964 
L 177.482488 186.016158 
L 184.958963 186.018737 
L 192.435438 186.026549 
L 199.911913 186.038646 
L 207.388388 186.054116 
L 214.864863 186.072159 
L 222.341338 186.092112 
L 229.817813 186.113346 
L 237.294288 186.135324 
L 244.770763 186.157597 
L 252.247237 186.179813 
L 259.723712 186.201672 
L 267.200187 186.222947 
L 274.676662 186.243476 
L 282.153137 186.263161 
L 289.629612 186.281956 
L 297.106087 186.299858 
L 304.582562 186.316893 
L 312.059037 186.333104 
L 319.535512 186.348545 
L 327.011987 186.363271 
L 334.488462 186.377337 
L 341.964937 186.390789 
L 349.441412 186.403671 
L 356.917887 186.416015 
L 364.394362 186.427845 
L 371.870837 186.439175 
L 379.347312 186.45001 
L 386.823787 186.460341 
L 394.300262 186.47015 
L 401.776737 186.479406 
L 409.253212 186.488063 
L 416.729686 186.496064 
L 424.206161 186.503339 
L 431.682636 186.509812 
" clip-path="url(#p303e93b0ff)" style="fill: none; stroke: #1f77b4; stroke-width: 1.5; stroke-linecap: square"/>
   </g>
   <g id="line2d_12">
    <path d="M 65.335364 237.876975 
L 72.811839 232.103298 
L 80.288314 226.885929 
L 87.764788 222.086072 
L 95.241263 217.833939 
L 102.717738 214.053361 
L 110.194213 210.690159 
L 117.670688 207.687997 
L 125.147163 204.914918 
L 132.623638 202.356894 
L 140.100113 200.003778 
L 147.576588 197.82924 
L 155.053063 195.808963 
L 162.529538 193.894872 
L 170.006013 192.077921 
L 177.482488 190.343387 
L 184.958963 188.680085 
L 192.435438 187.758809 
L 199.911913 187.538493 
L 207.388388 187.367423 
L 214.864863 187.234823 
L 222.341338 187.133371 
L 229.817813 187.056922 
L 237.294288 186.999398 
L 244.770763 186.956967 
L 252.247237 186.925467 
L 259.723712 186.902221 
L 267.200187 186.88465 
L 274.676662 186.870862 
L 282.153137 186.859602 
L 289.629612 186.849704 
L 297.106087 186.840519 
L 304.582562 186.831592 
L 312.059037 186.822447 
L 319.535512 186.813104 
L 327.011987 186.803467 
L 334.488462 186.793678 
L 341.964937 186.783982 
L 349.441412 186.77456 
L 356.917887 186.765735 
L 364.394362 186.757759 
L 371.870837 186.751017 
L 379.347312 186.745894 
L 386.823787 186.74282 
L 394.300262 186.742277 
L 401.776737 186.744816 
L 409.253212 186.751081 
L 416.729686 186.761825 
L 424.206161 186.77793 
L 431.682636 186.800422 
" clip-path="url(#p303e93b0ff)" style="fill: none; stroke: #ff7f0e; stroke-width: 1.5; stroke-linecap: square"/>
   </g>
   <g id="line2d_13">
    <path d="M 65.335364 255.28364 
L 72.811839 252.82216 
L 80.288314 250.61487 
L 87.764788 248.643842 
L 95.241263 246.891875 
L 102.717738 245.45363 
L 110.194213 244.903108 
L 117.670688 244.447788 
L 125.147163 244.072825 
L 132.623638 243.764858 
L 140.100113 243.512039 
L 147.576588 243.304012 
L 155.053063 243.131859 
L 162.529538 242.988005 
L 170.006013 242.866107 
L 177.482488 242.760934 
L 184.958963 242.614857 
L 192.435438 242.489373 
L 199.911913 242.033813 
L 207.388388 241.57423 
L 214.864863 241.126887 
L 222.341338 240.675982 
L 229.817813 240.22756 
L 237.294288 239.789376 
L 244.770763 239.361012 
L 252.247237 238.942116 
L 259.723712 238.532375 
L 267.200187 238.131506 
L 274.676662 237.739236 
L 282.153137 237.355293 
L 289.629612 236.97941 
L 297.106087 236.611313 
L 304.582562 236.250727 
L 312.059037 235.897372 
L 319.535512 235.550959 
L 327.011987 235.211184 
L 334.488462 234.87772 
L 341.964937 234.550207 
L 349.441412 234.228236 
L 356.917887 233.91134 
L 364.394362 233.598971 
L 371.870837 233.290492 
L 379.347312 232.985156 
L 386.823787 232.682095 
L 394.300262 232.380314 
L 401.776737 232.078694 
L 409.253212 231.775998 
L 416.729686 231.470891 
L 424.206161 231.161974 
L 431.682636 230.847814 
" clip-path="url(#p303e93b0ff)" style="fill: none; stroke: #2ca02c; stroke-width: 1.5; stroke-linecap: square"/>
   </g>
   <g id="line2d_14">
    <path d="M 65.335364 262.031139 
L 72.811839 261.252538 
L 80.288314 260.618339 
L 87.764788 260.113321 
L 95.241263 259.717761 
L 102.717738 259.417091 
L 110.194213 259.19582 
L 117.670688 259.039778 
L 125.147163 258.937332 
L 132.623638 258.902724 
L 140.100113 258.871151 
L 147.576588 258.860207 
L 155.053063 258.86236 
L 162.529538 258.871464 
L 170.006013 258.882674 
L 177.482488 258.892344 
L 184.958963 258.897909 
L 192.435438 258.897756 
L 199.911913 258.891101 
L 207.388388 258.87786 
L 214.864863 258.858837 
L 222.341338 258.8349 
L 229.817813 258.807217 
L 237.294288 258.777396 
L 244.770763 258.747231 
L 252.247237 258.718624 
L 259.723712 258.693517 
L 267.200187 258.673833 
L 274.676662 258.661425 
L 282.153137 258.65803 
L 289.629612 258.665234 
L 297.106087 258.684443 
L 304.582562 258.716374 
L 312.059037 258.761622 
L 319.535512 258.821799 
L 327.011987 258.897393 
L 334.488462 258.976651 
L 341.964937 259.071468 
L 349.441412 259.190626 
L 356.917887 259.325617 
L 364.394362 259.473561 
L 371.870837 259.630868 
L 379.347312 259.797418 
L 386.823787 259.97792 
L 394.300262 260.168139 
L 401.776737 260.365303 
L 409.253212 260.566452 
L 416.729686 260.769028 
L 424.206161 260.968145 
L 431.682636 261.166542 
" clip-path="url(#p303e93b0ff)" style="fill: none; stroke: #d62728; stroke-width: 1.5; stroke-linecap: square"/>
   </g>
   <g id="patch_3">
    <path d="M 47.018 302.2 
L 47.018 10.8 
" style="fill: none; stroke: #000000; stroke-width: 0.8; stroke-linejoin: miter; stroke-linecap: square"/>
   </g>
   <g id="patch_4">
    <path d="M 450 302.2 
L 450 10.8 
" style="fill: none; stroke: #000000; stroke-width: 0.8; stroke-linejoin: miter; stroke-linecap: square"/>
   </g>
   <g id="patch_5">
    <path d="M 47.018 302.2 
L 450 302.2 
" style="fill: none; stroke: #000000; stroke-width: 0.8; stroke-linejoin: miter; stroke-linecap: square"/>
   </g>
   <g id="patch_6">
    <path d="M 47.018 10.8 
L 450 10.8 
" style="fill: none; stroke: #000000; stroke-width: 0.8; stroke-linejoin: miter; stroke-linecap: square"/>
   </g>
   <g id="legend_1">
    <g id="patch_7">
     <path d="M 54.018 77.5125 
L 132.888313 77.5125 
Q 134.888313 77.5125 134.888313 75.5125 
L 134.888313 17.8 
Q 134.888313 15.8 132.888313 15.8 
L 54.018 15.8 
Q 52.018 15.8 52.018 17.8 
L 52.018 75.5125 
Q 52.018 77.5125 54.018 77.5125 
z
" style="fill: #ffffff; opacity: 0.8; stroke: #cccccc; stroke-linejoin: miter"/>
    </g>
    <g id="line2d_15">
     <path d="M 56.018 23.898438 
L 66.018 23.898438 
L 76.018 23.898438 
" style="fill: none; stroke: #1f77b4; stroke-width: 1.5; stroke-linecap: square"/>
    </g>
    <g id="text_13">
     <!-- Ts=100 K -->
     <g transform="translate(84.018 27.398438) scale(0.1 -0.1)">
      <defs>
       <path id="DejaVuSans-54" d="M -19 4666 
L 3928 4666 
L 3928 4134 
L 2272 4134 
L 2272 0 
L 1638 0 
L 1638 4134 
L -19 4134 
L -19 4666 
z
" transform="scale(0.015625)"/>
       <path id="DejaVuSans-73" d="M 2834 3397 
L 2834 2853 
Q 2591 2978 2328 3040 
Q 2066 3103 1784 3103 
Q 1356 3103 1142 2972 
Q 928 2841 928 2578 
Q 928 2378 1081 2264 
Q 1234 2150 1697 2047 
L 1894 2003 
Q 2506 1872 2764 1633 
Q 3022 1394 3022 966 
Q 3022 478 2636 193 
Q 2250 -91 1575 -91 
Q 1294 -91 989 -36 
Q 684 19 347 128 
L 347 722 
Q 666 556 975 473 
Q 1284 391 1588 391 
Q 1994 391 2212 530 
Q 2431 669 2431 922 
Q 2431 1156 2273 1281 
Q 2116 1406 1581 1522 
L 1381 1569 
Q 847 1681 609 1914 
Q 372 2147 372 2553 
Q 372 3047 722 3315 
Q 1072 3584 1716 3584 
Q 2034 3584 2315 3537 
Q 2597 3491 2834 3397 
z
" transform="scale(0.015625)"/>
       <path id="DejaVuSans-3d" d="M 678 2906 
L 4684 2906 
L 4684 2381 
L 678 2381 
L 678 2906 
z
M 678 1631 
L 4684 1631 
L 4684 1100 
L 678 1100 
L 678 1631 
z
" transform="scale(0.015625)"/>
       <path id="DejaVuSans-4b" d="M 628 4666 
L 1259 4666 
L 1259 2694 
L 3353 4666 
L 4166 4666 
L 1850 2491 
L 4331 0 
L 3500 0 
L 1259 2247 
L 1259 0 
L 628 0 
L 628 4666 
z
" transform="scale(0.015625)"/>
      </defs>
      <use xlink:href="#DejaVuSans-54"/>
      <use xlink:href="#DejaVuSans-73" transform="translate(44.583984 0)"/>
      <use xlink:href="#DejaVuSans-3d" transform="translate(96.683594 0)"/>
      <use xlink:href="#DejaVuSans-31" transform="translate(180.472656 0)"/>
      <use xlink:href="#DejaVuSans-30" transform="translate(244.095703 0)"/>
      <use xlink:href="#DejaVuSans-30" transform="translate(307.71875 0)"/>
      <use xlink:href="#DejaVuSans-20" transform="translate(371.341797 0)"/>
      <use xlink:href="#DejaVuSans-4b" transform="translate(403.128906 0)"/>
     </g>
    </g>
    <g id="line2d_16">
     <path d="M 56.018 38.576563 
L 66.018 38.576563 
L 76.018 38.576563 
" style="fill: none; stroke: #ff7f0e; stroke-width: 1.5; stroke-linecap: square"/>
    </g>
    <g id="text_14">
     <!-- Ts=160 K -->
     <g transform="translate(84.018 42.076563) scale(0.1 -0.1)">
      <defs>
       <path id="DejaVuSans-36" d="M 2113 2584 
Q 1688 2584 1439 2293 
Q 1191 2003 1191 1497 
Q 1191 994 1439 701 
Q 1688 409 2113 409 
Q 2538 409 2786 701 
Q 3034 994 3034 1497 
Q 3034 2003 2786 2293 
Q 2538 2584 2113 2584 
z
M 3366 4563 
L 3366 3988 
Q 3128 4100 2886 4159 
Q 2644 4219 2406 4219 
Q 1781 4219 1451 3797 
Q 1122 3375 1075 2522 
Q 1259 2794 1537 2939 
Q 1816 3084 2150 3084 
Q 2853 3084 3261 2657 
Q 3669 2231 3669 1497 
Q 3669 778 3244 343 
Q 2819 -91 2113 -91 
Q 1303 -91 875 529 
Q 447 1150 447 2328 
Q 447 3434 972 4092 
Q 1497 4750 2381 4750 
Q 2619 4750 2861 4703 
Q 3103 4656 3366 4563 
z
" transform="scale(0.015625)"/>
      </defs>
      <use xlink:href="#DejaVuSans-54"/>
      <use xlink:href="#DejaVuSans-73" transform="translate(44.583984 0)"/>
      <use xlink:href="#DejaVuSans-3d" transform="translate(96.683594 0)"/>
      <use xlink:href="#DejaVuSans-31" transform="translate(180.472656 0)"/>
      <use xlink:href="#DejaVuSans-36" transform="translate(244.095703 0)"/>
      <use xlink:href="#DejaVuSans-30" transform="translate(307.71875 0)"/>
      <use xlink:href="#DejaVuSans-20" transform="translate(371.341797 0)"/>
      <use xlink:href="#DejaVuSans-4b" transform="translate(403.128906 0)"/>
     </g>
    </g>
    <g id="line2d_17">
     <path d="M 56.018 53.254687 
L 66.018 53.254687 
L 76.018 53.254687 
" style="fill: none; stroke: #2ca02c; stroke-width: 1.5; stroke-linecap: square"/>
    </g>
    <g id="text_15">
     <!-- Ts=220 K -->
     <g transform="translate(84.018 56.754687) scale(0.1 -0.1)">
      <use xlink:href="#DejaVuSans-54"/>
      <use xlink:href="#DejaVuSans-73" transform="translate(44.583984 0)"/>
      <use xlink:href="#DejaVuSans-3d" transform="translate(96.683594 0)"/>
      <use xlink:href="#DejaVuSans-32" transform="translate(180.472656 0)"/>
      <use xlink:href="#DejaVuSans-32" transform="translate(244.095703 0)"/>
      <use xlink:href="#DejaVuSans-30" transform="translate(307.71875 0)"/>
      <use xlink:href="#DejaVuSans-20" transform="translate(371.341797 0)"/>
      <use xlink:href="#DejaVuSans-4b" transform="translate(403.128906 0)"/>
     </g>
    </g>
    <g id="line2d_18">
     <path d="M 56.018 67.932813 
L 66.018 67.932813 
L 76.018 67.932813 
" style="fill: none; stroke: #d62728; stroke-width: 1.5; stroke-linecap: square"/>
    </g>
    <g id="text_16">
     <!-- Ts=260 K -->
     <g transform="translate(84.018 71.432813) scale(0.1 -0.1)">
      <use xlink:href="#DejaVuSans-54"/>
      <use xlink:href="#DejaVuSans-73" transform="translate(44.583984 0)"/>
      <use xlink:href="#DejaVuSans-3d" transform="translate(96.683594 0)"/>
      <use xlink:href="#DejaVuSans-32" transform="translate(180.472656 0)"/>
      <use xlink:href="#DejaVuSans-36" transform="translate(244.095703 0)"/>
      <use xlink:href="#DejaVuSans-30" transform="translate(307.71875 0)"/>
      <use xlink:href="#DejaVuSans-20" transform="translate(371.341797 0)"/>
      <use xlink:href="#DejaVuSans-4b" transform="translate(403.128906 0)"/>
     </g>
    </g>
   </g>
  </g>
 </g>
 <defs>
  <clipPath id="p303e93b0ff">
   <rect x="47.018" y="10.8" width="402.982" height="291.4"/>
  </clipPath>
 </defs>
</svg>
