<?xml version="1.0" encoding="utf-8" standalone="no"?>
<!DOCTYPE svg PUBLIC "-//W3C//DTD SVG 1.1//EN"
  "http://www.w3.org/Graphics/SVG/1.1/DTD/svg11.dtd">
<svg xmlns:xlink="http://www.w3.org/1999/xlink" width="460.8pt" height="345.6pt" viewBox="0 0 460.8 345.6" xmlns="http://www.w3.org/2000/svg" version="1.1">
 <metadata>
  <rdf:RDF xmlns:dc="http://purl.org/dc/elements/1.1/" xmlns:cc="http://creativecommons.org/ns#" xmlns:rdf="http://www.w3.org/1999/02/22-rdf-syntax-ns#">
   <cc:Work>
    <dc:type rdf:resource="http://purl.org/dc/dcmitype/StillImage"/>
    <dc:date>2026-02-11T13:28:04.221958</dc:date>
    <dc:format>image/svg+xml</dc:format>
    <dc:creator>
     <cc:Agent>
      <dc:title>Matplotlib v3.10.8, https://matplotlib.org/</dc:title>
     </cc:Agent>
    </dc:creator>
   </cc:Work>
  </rdf:RDF>
 </metadata>
 <defs>
  <style type="text/css">*{stroke-linejoin: round; stroke-linecap: butt}</style>
 </defs>
 <g id="figure_1">
  <g id="patch_1">
   <path d="M 0 345.6 
L 460.8 345.6 
L 460.8 0 
L 0 0 
L 0 345.6 
z
" style="fill: none"/>
  </g>
  <g id="axes_1">
   <g id="patch_2">
    <path d="M 76.913112 302.2 
L 450 302.2 
L 450 10.8 
L 76.913112 10.8 
L 76.913112 302.2 
z
" style="fill: none"/>
   </g>
   <g id="FillBetweenPolyCollection_1">
    <path d="M 93.871606 243.523883 
L 93.871606 250.676205 
L 95.575978 248.464852 
L 97.280349 246.276767 
L 98.984721 244.111032 
L 100.689092 241.970503 
L 102.393463 239.855678 
L 104.097835 237.766832 
L 105.802206 235.701477 
L 107.506577 233.659082 
L 109.210949 231.639148 
L 110.91532 229.641189 
L 112.619691 227.661452 
L 114.324063 225.702736 
L 116.028434 223.764654 
L 117.732805 221.846778 
L 119.437177 219.948689 
L 121.141548 218.069984 
L 122.845919 216.210272 
L 124.550291 214.369171 
L 126.254662 212.546313 
L 127.959033 210.74134 
L 129.663405 208.953904 
L 131.367776 207.183668 
L 133.072148 205.430304 
L 134.776519 203.693494 
L 136.48089 201.972927 
L 138.185262 200.268304 
L 139.889633 198.57933 
L 141.594004 196.905721 
L 143.298376 195.247201 
L 145.002747 193.603499 
L 146.707118 191.974354 
L 148.41149 190.359509 
L 150.115861 188.758716 
L 151.820232 187.171732 
L 153.524604 185.598321 
L 155.228975 184.038253 
L 156.933346 182.491304 
L 158.637718 180.957287 
L 160.342089 179.441657 
L 162.04646 177.938457 
L 163.750832 176.442475 
L 165.455203 174.95838 
L 167.159574 173.486165 
L 168.863946 172.025641 
L 170.568317 170.576624 
L 172.272689 169.138935 
L 173.97706 167.712398 
L 175.681431 166.29684 
L 177.385803 164.892095 
L 179.090174 163.503046 
L 180.794545 162.124631 
L 182.498917 160.756508 
L 184.203288 159.398525 
L 185.907659 158.050461 
L 187.612031 156.712178 
L 189.316402 155.383598 
L 191.020773 154.064581 
L 192.725145 152.754992 
L 194.429516 151.454695 
L 196.133887 150.16356 
L 197.838259 148.88146 
L 199.54263 147.607196 
L 201.247001 146.337658 
L 202.951373 145.07682 
L 204.655744 143.824564 
L 206.360116 142.580774 
L 208.064487 141.345336 
L 209.768858 140.118138 
L 211.47323 138.899071 
L 213.177601 137.688029 
L 214.881972 136.484907 
L 216.586344 135.2896 
L 218.290715 134.10192 
L 219.995086 132.92184 
L 221.699458 131.749281 
L 223.403829 130.584146 
L 225.1082 129.426343 
L 226.812572 128.27578 
L 228.516943 127.132367 
L 230.221314 125.996015 
L 231.925686 124.866638 
L 233.630057 123.74415 
L 235.334428 122.628469 
L 237.0388 121.519512 
L 238.743171 120.418238 
L 240.447543 119.330868 
L 242.151914 118.249935 
L 243.856285 117.175363 
L 245.560657 116.107078 
L 247.265028 115.045007 
L 248.969399 113.989078 
L 250.673771 112.93922 
L 252.378142 111.895365 
L 254.082513 110.851919 
L 255.786885 109.812584 
L 257.491256 108.77909 
L 259.195627 107.751372 
L 260.899999 106.729366 
L 262.60437 105.71301 
L 264.308741 104.701876 
L 266.013113 103.695997 
L 267.717484 102.697323 
L 269.421855 101.703108 
L 271.126227 100.71424 
L 272.830598 99.730662 
L 274.53497 98.752319 
L 276.239341 97.783455 
L 277.943712 96.820758 
L 279.648084 95.863104 
L 281.352455 94.910439 
L 283.056826 93.962664 
L 284.761198 93.019691 
L 286.465569 92.081555 
L 288.16994 91.148207 
L 289.874312 90.219599 
L 291.578683 89.293148 
L 293.283054 88.368895 
L 294.987426 87.449264 
L 296.691797 86.537608 
L 298.396168 85.637271 
L 300.10054 84.74137 
L 301.804911 83.848987 
L 303.509282 82.956864 
L 305.213654 82.06887 
L 306.918025 81.182595 
L 308.622397 80.303499 
L 310.326768 79.430858 
L 312.031139 78.560065 
L 313.735511 77.6934 
L 315.439882 76.830793 
L 317.144253 75.972087 
L 318.848625 75.117395 
L 320.552996 74.266681 
L 322.257367 73.424069 
L 323.961739 72.589619 
L 325.66611 71.758998 
L 327.370481 70.927841 
L 329.074853 70.104091 
L 330.779224 69.285842 
L 332.483595 68.470101 
L 334.187967 67.646336 
L 335.892338 66.826094 
L 337.596709 66.009927 
L 339.301081 65.208578 
L 341.005452 64.410761 
L 342.709824 63.610119 
L 344.414195 62.814508 
L 346.118566 62.016589 
L 347.822938 61.221924 
L 349.527309 60.444346 
L 351.23168 59.670145 
L 352.936052 58.889612 
L 354.640423 58.138398 
L 356.344794 57.381475 
L 358.049166 56.622548 
L 359.753537 55.863481 
L 361.457908 55.1132 
L 363.16228 54.352484 
L 364.866651 53.599021 
L 366.571022 52.855982 
L 368.275394 52.110924 
L 369.979765 51.366789 
L 371.684136 50.644284 
L 373.388508 49.925189 
L 375.092879 49.206383 
L 376.797251 48.487391 
L 378.501622 47.761428 
L 380.205993 47.038273 
L 381.910365 46.318 
L 383.614736 45.600587 
L 385.319107 44.904565 
L 387.023479 44.211486 
L 388.72785 43.513698 
L 390.432221 42.829462 
L 392.136593 42.141338 
L 393.840964 41.449715 
L 395.545335 40.765409 
L 397.249707 40.094235 
L 398.954078 39.425633 
L 400.658449 38.759584 
L 402.362821 38.095804 
L 404.067192 37.428808 
L 405.771563 36.756859 
L 407.475935 36.087274 
L 409.180306 35.420121 
L 410.884678 34.755459 
L 412.589049 34.093268 
L 414.29342 33.433531 
L 415.997792 32.776228 
L 417.702163 32.121343 
L 419.406534 31.468858 
L 421.110906 30.818754 
L 422.815277 30.171015 
L 424.519648 29.525624 
L 426.22402 28.882563 
L 427.928391 28.241816 
L 429.632762 27.603366 
L 431.337134 26.967197 
L 433.041505 26.333293 
L 433.041505 24.045455 
L 433.041505 24.045455 
L 431.337134 24.696406 
L 429.632762 25.349684 
L 427.928391 26.005303 
L 426.22402 26.663282 
L 424.519648 27.323636 
L 422.815277 27.988037 
L 421.110906 28.655935 
L 419.406534 29.32627 
L 417.702163 29.999062 
L 415.997792 30.674328 
L 414.29342 31.35217 
L 412.589049 32.032528 
L 410.884678 32.715416 
L 409.180306 33.400853 
L 407.475935 34.088857 
L 405.771563 34.779449 
L 404.067192 35.472648 
L 402.362821 36.168473 
L 400.658449 36.866945 
L 398.954078 37.568083 
L 397.249707 38.271908 
L 395.545335 38.978442 
L 393.840964 39.687704 
L 392.136593 40.399716 
L 390.432221 41.113616 
L 388.72785 41.829612 
L 387.023479 42.549487 
L 385.319107 43.273282 
L 383.614736 43.999938 
L 381.910365 44.729479 
L 380.205993 45.461974 
L 378.501622 46.197228 
L 376.797251 46.933973 
L 375.092879 47.670164 
L 373.388508 48.412953 
L 371.684136 49.153398 
L 369.979765 49.896286 
L 368.275394 50.644405 
L 366.571022 51.395565 
L 364.866651 52.14983 
L 363.16228 52.907226 
L 361.457908 53.667778 
L 359.753537 54.431514 
L 358.049166 55.19846 
L 356.344794 55.968643 
L 354.640423 56.742196 
L 352.936052 57.519103 
L 351.23168 58.299331 
L 349.527309 59.087375 
L 347.822938 59.879106 
L 346.118566 60.674338 
L 344.414195 61.473086 
L 342.709824 62.275324 
L 341.005452 63.081082 
L 339.301081 63.885733 
L 337.596709 64.678418 
L 335.892338 65.474391 
L 334.187967 66.28888 
L 332.483595 67.10716 
L 330.779224 67.929514 
L 329.074853 68.75559 
L 327.370481 69.585422 
L 325.66611 70.419045 
L 323.961739 71.256493 
L 322.257367 72.097802 
L 320.552996 72.943007 
L 318.848625 73.792144 
L 317.144253 74.645251 
L 315.439882 75.493884 
L 313.735511 76.355893 
L 312.031139 77.212743 
L 310.326768 78.077677 
L 308.622397 78.947137 
L 306.918025 79.807212 
L 305.213654 80.686619 
L 303.509282 81.557832 
L 301.804911 82.439461 
L 300.10054 83.325093 
L 298.396168 84.215133 
L 296.691797 85.095247 
L 294.987426 85.967047 
L 293.283054 86.853102 
L 291.578683 87.738924 
L 289.874312 88.627219 
L 288.16994 89.520191 
L 286.465569 90.431653 
L 284.761198 91.369157 
L 283.056826 92.281473 
L 281.352455 93.193666 
L 279.648084 94.141824 
L 277.943712 95.094948 
L 276.239341 96.04323 
L 274.53497 96.988861 
L 272.830598 97.939657 
L 271.126227 98.895539 
L 269.421855 99.856562 
L 267.717484 100.822783 
L 266.013113 101.794257 
L 264.308741 102.771041 
L 262.60437 103.753195 
L 260.899999 104.740778 
L 259.195627 105.733849 
L 257.491256 106.732471 
L 255.786885 107.736706 
L 254.082513 108.746616 
L 252.378142 109.762268 
L 250.673771 110.783725 
L 248.969399 111.811056 
L 247.265028 112.844328 
L 245.560657 113.88361 
L 243.856285 114.928972 
L 242.151914 115.978617 
L 240.447543 117.031777 
L 238.743171 118.091208 
L 237.0388 119.156987 
L 235.334428 120.229189 
L 233.630057 121.307892 
L 231.925686 122.393175 
L 230.221314 123.484107 
L 228.516943 124.574378 
L 226.812572 125.671425 
L 225.1082 126.775331 
L 223.403829 127.886184 
L 221.699458 129.00407 
L 219.995086 130.129081 
L 218.290715 131.261306 
L 216.586344 132.403259 
L 214.881972 133.562504 
L 213.177601 134.729329 
L 211.47323 135.903835 
L 209.768858 137.082126 
L 208.064487 138.259619 
L 206.360116 139.445019 
L 204.655744 140.638432 
L 202.951373 141.839968 
L 201.247001 143.049738 
L 199.54263 144.267856 
L 197.838259 145.494438 
L 196.133887 146.729602 
L 194.429516 147.973469 
L 192.725145 149.226163 
L 191.020773 150.487809 
L 189.316402 151.758537 
L 187.612031 153.038524 
L 185.907659 154.328169 
L 184.203288 155.627302 
L 182.498917 156.936065 
L 180.794545 158.257684 
L 179.090174 159.599742 
L 177.385803 160.951972 
L 175.681431 162.314532 
L 173.97706 163.67669 
L 172.272689 165.04498 
L 170.568317 166.423967 
L 168.863946 167.813818 
L 167.159574 169.214707 
L 165.455203 170.62681 
L 163.750832 172.050308 
L 162.04646 173.485387 
L 160.342089 174.932236 
L 158.637718 176.39105 
L 156.933346 177.862029 
L 155.228975 179.345378 
L 153.524604 180.841305 
L 151.820232 182.350027 
L 150.115861 183.871764 
L 148.41149 185.406742 
L 146.707118 186.955194 
L 145.002747 188.517359 
L 143.298376 190.093482 
L 141.594004 191.683814 
L 139.889633 193.288614 
L 138.185262 194.908147 
L 136.48089 196.542687 
L 134.776519 198.192515 
L 133.072148 199.857918 
L 131.367776 201.539194 
L 129.663405 203.236649 
L 127.959033 204.950596 
L 126.254662 206.681596 
L 124.550291 208.439797 
L 122.845919 210.223211 
L 121.141548 212.024653 
L 119.437177 213.844491 
L 117.732805 215.683107 
L 116.028434 217.54089 
L 114.324063 219.418244 
L 112.619691 221.315588 
L 110.91532 223.23335 
L 109.210949 225.171975 
L 107.506577 227.131923 
L 105.802206 229.113666 
L 104.097835 231.102522 
L 102.393463 233.113079 
L 100.689092 235.146766 
L 98.984721 237.204122 
L 97.280349 239.285706 
L 95.575978 241.392093 
L 93.871606 243.523883 
z
" clip-path="url(#p5d4e21c416)" style="fill: #1f77b4; fill-opacity: 0.3"/>
   </g>
   <g id="matplotlib.axis_1">
    <g id="xtick_1">
     <g id="line2d_1">
      <defs>
       <path id="mf996094e94" d="M 0 0 
L 0 3.5 
" style="stroke: #000000; stroke-width: 0.8"/>
      </defs>
      <g>
       <use xlink:href="#mf996094e94" x="85.091645" y="302.2" style="stroke: #000000; stroke-width: 0.8"/>
      </g>
     </g>
     <g id="text_1">
      <!-- 75 -->
      <g transform="translate(78.729145 316.798437) scale(0.1 -0.1)">
       <defs>
        <path id="DejaVuSans-37" d="M 525 4666 
L 3525 4666 
L 3525 4397 
L 1831 0 
L 1172 0 
L 2766 4134 
L 525 4134 
L 525 4666 
z
" transform="scale(0.015625)"/>
        <path id="DejaVuSans-35" d="M 691 4666 
L 3169 4666 
L 3169 4134 
L 1269 4134 
L 1269 2991 
Q 1406 3038 1543 3061 
Q 1681 3084 1819 3084 
Q 2600 3084 3056 2656 
Q 3513 2228 3513 1497 
Q 3513 744 3044 326 
Q 2575 -91 1722 -91 
Q 1428 -91 1123 -41 
Q 819 9 494 109 
L 494 744 
Q 775 591 1075 516 
Q 1375 441 1709 441 
Q 2250 441 2565 725 
Q 2881 1009 2881 1497 
Q 2881 1984 2565 2268 
Q 2250 2553 1709 2553 
Q 1456 2553 1204 2497 
Q 953 2441 691 2322 
L 691 4666 
z
" transform="scale(0.015625)"/>
       </defs>
       <use xlink:href="#DejaVuSans-37"/>
       <use xlink:href="#DejaVuSans-35" transform="translate(63.623047 0)"/>
      </g>
     </g>
    </g>
    <g id="xtick_2">
     <g id="line2d_2">
      <g>
       <use xlink:href="#mf996094e94" x="128.991451" y="302.2" style="stroke: #000000; stroke-width: 0.8"/>
      </g>
     </g>
     <g id="text_2">
      <!-- 100 -->
      <g transform="translate(119.447701 316.798437) scale(0.1 -0.1)">
       <defs>
        <path id="DejaVuSans-31" d="M 794 531 
L 1825 531 
L 1825 4091 
L 703 3866 
L 703 4441 
L 1819 4666 
L 2450 4666 
L 2450 531 
L 3481 531 
L 3481 0 
L 794 0 
L 794 531 
z
" transform="scale(0.015625)"/>
        <path id="DejaVuSans-30" d="M 2034 4250 
Q 1547 4250 1301 3770 
Q 1056 3291 1056 2328 
Q 1056 1369 1301 889 
Q 1547 409 2034 409 
Q 2525 409 2770 889 
Q 3016 1369 3016 2328 
Q 3016 3291 2770 3770 
Q 2525 4250 2034 4250 
z
M 2034 4750 
Q 2819 4750 3233 4129 
Q 3647 3509 3647 2328 
Q 3647 1150 3233 529 
Q 2819 -91 2034 -91 
Q 1250 -91 836 529 
Q 422 1150 422 2328 
Q 422 3509 836 4129 
Q 1250 4750 2034 4750 
z
" transform="scale(0.015625)"/>
       </defs>
       <use xlink:href="#DejaVuSans-31"/>
       <use xlink:href="#DejaVuSans-30" transform="translate(63.623047 0)"/>
       <use xlink:href="#DejaVuSans-30" transform="translate(127.246094 0)"/>
      </g>
     </g>
    </g>
    <g id="xtick_3">
     <g id="line2d_3">
      <g>
       <use xlink:href="#mf996094e94" x="172.891257" y="302.2" style="stroke: #000000; stroke-width: 0.8"/>
      </g>
     </g>
     <g id="text_3">
      <!-- 125 -->
      <g transform="translate(163.347507 316.798437) scale(0.1 -0.1)">
       <defs>
        <path id="DejaVuSans-32" d="M 1228 531 
L 3431 531 
L 3431 0 
L 469 0 
L 469 531 
Q 828 903 1448 1529 
Q 2069 2156 2228 2338 
Q 2531 2678 2651 2914 
Q 2772 3150 2772 3378 
Q 2772 3750 2511 3984 
Q 2250 4219 1831 4219 
Q 1534 4219 1204 4116 
Q 875 4013 500 3803 
L 500 4441 
Q 881 4594 1212 4672 
Q 1544 4750 1819 4750 
Q 2544 4750 2975 4387 
Q 3406 4025 3406 3419 
Q 3406 3131 3298 2873 
Q 3191 2616 2906 2266 
Q 2828 2175 2409 1742 
Q 1991 1309 1228 531 
z
" transform="scale(0.015625)"/>
       </defs>
       <use xlink:href="#DejaVuSans-31"/>
       <use xlink:href="#DejaVuSans-32" transform="translate(63.623047 0)"/>
       <use xlink:href="#DejaVuSans-35" transform="translate(127.246094 0)"/>
      </g>
     </g>
    </g>
    <g id="xtick_4">
     <g id="line2d_4">
      <g>
       <use xlink:href="#mf996094e94" x="216.791062" y="302.2" style="stroke: #000000; stroke-width: 0.8"/>
      </g>
     </g>
     <g id="text_4">
      <!-- 150 -->
      <g transform="translate(207.247312 316.798437) scale(0.1 -0.1)">
       <use xlink:href="#DejaVuSans-31"/>
       <use xlink:href="#DejaVuSans-35" transform="translate(63.623047 0)"/>
       <use xlink:href="#DejaVuSans-30" transform="translate(127.246094 0)"/>
      </g>
     </g>
    </g>
    <g id="xtick_5">
     <g id="line2d_5">
      <g>
       <use xlink:href="#mf996094e94" x="260.690868" y="302.2" style="stroke: #000000; stroke-width: 0.8"/>
      </g>
     </g>
     <g id="text_5">
      <!-- 175 -->
      <g transform="translate(251.147118 316.798437) scale(0.1 -0.1)">
       <use xlink:href="#DejaVuSans-31"/>
       <use xlink:href="#DejaVuSans-37" transform="translate(63.623047 0)"/>
       <use xlink:href="#DejaVuSans-35" transform="translate(127.246094 0)"/>
      </g>
     </g>
    </g>
    <g id="xtick_6">
     <g id="line2d_6">
      <g>
       <use xlink:href="#mf996094e94" x="304.590674" y="302.2" style="stroke: #000000; stroke-width: 0.8"/>
      </g>
     </g>
     <g id="text_6">
      <!-- 200 -->
      <g transform="translate(295.046924 316.798437) scale(0.1 -0.1)">
       <use xlink:href="#DejaVuSans-32"/>
       <use xlink:href="#DejaVuSans-30" transform="translate(63.623047 0)"/>
       <use xlink:href="#DejaVuSans-30" transform="translate(127.246094 0)"/>
      </g>
     </g>
    </g>
    <g id="xtick_7">
     <g id="line2d_7">
      <g>
       <use xlink:href="#mf996094e94" x="348.490479" y="302.2" style="stroke: #000000; stroke-width: 0.8"/>
      </g>
     </g>
     <g id="text_7">
      <!-- 225 -->
      <g transform="translate(338.946729 316.798437) scale(0.1 -0.1)">
       <use xlink:href="#DejaVuSans-32"/>
       <use xlink:href="#DejaVuSans-32" transform="translate(63.623047 0)"/>
       <use xlink:href="#DejaVuSans-35" transform="translate(127.246094 0)"/>
      </g>
     </g>
    </g>
    <g id="xtick_8">
     <g id="line2d_8">
      <g>
       <use xlink:href="#mf996094e94" x="392.390285" y="302.2" style="stroke: #000000; stroke-width: 0.8"/>
      </g>
     </g>
     <g id="text_8">
      <!-- 250 -->
      <g transform="translate(382.846535 316.798437) scale(0.1 -0.1)">
       <use xlink:href="#DejaVuSans-32"/>
       <use xlink:href="#DejaVuSans-35" transform="translate(63.623047 0)"/>
       <use xlink:href="#DejaVuSans-30" transform="translate(127.246094 0)"/>
      </g>
     </g>
    </g>
    <g id="xtick_9">
     <g id="line2d_9">
      <g>
       <use xlink:href="#mf996094e94" x="436.290091" y="302.2" style="stroke: #000000; stroke-width: 0.8"/>
      </g>
     </g>
     <g id="text_9">
      <!-- 275 -->
      <g transform="translate(426.746341 316.798437) scale(0.1 -0.1)">
       <use xlink:href="#DejaVuSans-32"/>
       <use xlink:href="#DejaVuSans-37" transform="translate(63.623047 0)"/>
       <use xlink:href="#DejaVuSans-35" transform="translate(127.246094 0)"/>
      </g>
     </g>
    </g>
    <g id="text_10">
     <!-- $T$ (K) -->
     <g transform="translate(251.606556 330.476562) scale(0.1 -0.1)">
      <defs>
       <path id="DejaVuSans-Oblique-54" d="M 378 4666 
L 4325 4666 
L 4225 4134 
L 2559 4134 
L 1759 0 
L 1125 0 
L 1925 4134 
L 275 4134 
L 378 4666 
z
" transform="scale(0.015625)"/>
       <path id="DejaVuSans-20" transform="scale(0.015625)"/>
       <path id="DejaVuSans-28" d="M 1984 4856 
Q 1566 4138 1362 3434 
Q 1159 2731 1159 2009 
Q 1159 1288 1364 580 
Q 1569 -128 1984 -844 
L 1484 -844 
Q 1016 -109 783 600 
Q 550 1309 550 2009 
Q 550 2706 781 3412 
Q 1013 4119 1484 4856 
L 1984 4856 
z
" transform="scale(0.015625)"/>
       <path id="DejaVuSans-4b" d="M 628 4666 
L 1259 4666 
L 1259 2694 
L 3353 4666 
L 4166 4666 
L 1850 2491 
L 4331 0 
L 3500 0 
L 1259 2247 
L 1259 0 
L 628 0 
L 628 4666 
z
" transform="scale(0.015625)"/>
       <path id="DejaVuSans-29" d="M 513 4856 
L 1013 4856 
Q 1481 4119 1714 3412 
Q 1947 2706 1947 2009 
Q 1947 1309 1714 600 
Q 1481 -109 1013 -844 
L 513 -844 
Q 928 -128 1133 580 
Q 1338 1288 1338 2009 
Q 1338 2731 1133 3434 
Q 928 4138 513 4856 
z
" transform="scale(0.015625)"/>
      </defs>
      <use xlink:href="#DejaVuSans-Oblique-54" transform="translate(0 0.125)"/>
      <use xlink:href="#DejaVuSans-20" transform="translate(61.083984 0.125)"/>
      <use xlink:href="#DejaVuSans-28" transform="translate(92.871094 0.125)"/>
      <use xlink:href="#DejaVuSans-4b" transform="translate(131.884766 0.125)"/>
      <use xlink:href="#DejaVuSans-29" transform="translate(197.460938 0.125)"/>
     </g>
    </g>
   </g>
   <g id="matplotlib.axis_2">
    <g id="ytick_1">
     <g id="line2d_10">
      <defs>
       <path id="m150e4bcb4a" d="M 0 0 
L -3.5 0 
" style="stroke: #000000; stroke-width: 0.8"/>
      </defs>
      <g>
       <use xlink:href="#m150e4bcb4a" x="76.913112" y="47.876255" style="stroke: #000000; stroke-width: 0.8"/>
      </g>
     </g>
     <g id="text_11">
      <!-- $\mathdefault{10^{-6}}$ -->
      <g transform="translate(46.413112 51.675474) scale(0.1 -0.1)">
       <defs>
        <path id="DejaVuSans-2212" d="M 678 2272 
L 4684 2272 
L 4684 1741 
L 678 1741 
L 678 2272 
z
" transform="scale(0.015625)"/>
        <path id="DejaVuSans-36" d="M 2113 2584 
Q 1688 2584 1439 2293 
Q 1191 2003 1191 1497 
Q 1191 994 1439 701 
Q 1688 409 2113 409 
Q 2538 409 2786 701 
Q 3034 994 3034 1497 
Q 3034 2003 2786 2293 
Q 2538 2584 2113 2584 
z
M 3366 4563 
L 3366 3988 
Q 3128 4100 2886 4159 
Q 2644 4219 2406 4219 
Q 1781 4219 1451 3797 
Q 1122 3375 1075 2522 
Q 1259 2794 1537 2939 
Q 1816 3084 2150 3084 
Q 2853 3084 3261 2657 
Q 3669 2231 3669 1497 
Q 3669 778 3244 343 
Q 2819 -91 2113 -91 
Q 1303 -91 875 529 
Q 447 1150 447 2328 
Q 447 3434 972 4092 
Q 1497 4750 2381 4750 
Q 2619 4750 2861 4703 
Q 3103 4656 3366 4563 
z
" transform="scale(0.015625)"/>
       </defs>
       <use xlink:href="#DejaVuSans-31" transform="translate(0 0.765625)"/>
       <use xlink:href="#DejaVuSans-30" transform="translate(63.623047 0.765625)"/>
       <use xlink:href="#DejaVuSans-2212" transform="translate(128.203125 39.046875) scale(0.7)"/>
       <use xlink:href="#DejaVuSans-36" transform="translate(186.855469 39.046875) scale(0.7)"/>
      </g>
     </g>
    </g>
    <g id="ytick_2">
     <g id="line2d_11">
      <defs>
       <path id="m5b0e47e466" d="M 0 0 
L -2 0 
" style="stroke: #000000; stroke-width: 0.6"/>
      </defs>
      <g>
       <use xlink:href="#m5b0e47e466" x="76.913112" y="294.030075" style="stroke: #000000; stroke-width: 0.6"/>
      </g>
     </g>
     <g id="text_12">
      <!-- $\mathdefault{3\times10^{-7}}$ -->
      <g transform="translate(29.413112 297.829294) scale(0.1 -0.1)">
       <defs>
        <path id="DejaVuSans-33" d="M 2597 2516 
Q 3050 2419 3304 2112 
Q 3559 1806 3559 1356 
Q 3559 666 3084 287 
Q 2609 -91 1734 -91 
Q 1441 -91 1130 -33 
Q 819 25 488 141 
L 488 750 
Q 750 597 1062 519 
Q 1375 441 1716 441 
Q 2309 441 2620 675 
Q 2931 909 2931 1356 
Q 2931 1769 2642 2001 
Q 2353 2234 1838 2234 
L 1294 2234 
L 1294 2753 
L 1863 2753 
Q 2328 2753 2575 2939 
Q 2822 3125 2822 3475 
Q 2822 3834 2567 4026 
Q 2313 4219 1838 4219 
Q 1578 4219 1281 4162 
Q 984 4106 628 3988 
L 628 4550 
Q 988 4650 1302 4700 
Q 1616 4750 1894 4750 
Q 2613 4750 3031 4423 
Q 3450 4097 3450 3541 
Q 3450 3153 3228 2886 
Q 3006 2619 2597 2516 
z
" transform="scale(0.015625)"/>
        <path id="DejaVuSans-d7" d="M 4488 3438 
L 3059 2003 
L 4488 575 
L 4116 197 
L 2681 1631 
L 1247 197 
L 878 575 
L 2303 2003 
L 878 3438 
L 1247 3816 
L 2681 2381 
L 4116 3816 
L 4488 3438 
z
" transform="scale(0.015625)"/>
       </defs>
       <use xlink:href="#DejaVuSans-33" transform="translate(0 0.684375)"/>
       <use xlink:href="#DejaVuSans-d7" transform="translate(83.105469 0.684375)"/>
       <use xlink:href="#DejaVuSans-31" transform="translate(186.376953 0.684375)"/>
       <use xlink:href="#DejaVuSans-30" transform="translate(250 0.684375)"/>
       <use xlink:href="#DejaVuSans-2212" transform="translate(314.580078 38.965625) scale(0.7)"/>
       <use xlink:href="#DejaVuSans-37" transform="translate(373.232422 38.965625) scale(0.7)"/>
      </g>
     </g>
    </g>
    <g id="ytick_3">
     <g id="line2d_12">
      <g>
       <use xlink:href="#m5b0e47e466" x="76.913112" y="235.213098" style="stroke: #000000; stroke-width: 0.6"/>
      </g>
     </g>
     <g id="text_13">
      <!-- $\mathdefault{4\times10^{-7}}$ -->
      <g transform="translate(29.413112 239.012317) scale(0.1 -0.1)">
       <defs>
        <path id="DejaVuSans-34" d="M 2419 4116 
L 825 1625 
L 2419 1625 
L 2419 4116 
z
M 2253 4666 
L 3047 4666 
L 3047 1625 
L 3713 1625 
L 3713 1100 
L 3047 1100 
L 3047 0 
L 2419 0 
L 2419 1100 
L 313 1100 
L 313 1709 
L 2253 4666 
z
" transform="scale(0.015625)"/>
       </defs>
       <use xlink:href="#DejaVuSans-34" transform="translate(0 0.684375)"/>
       <use xlink:href="#DejaVuSans-d7" transform="translate(83.105469 0.684375)"/>
       <use xlink:href="#DejaVuSans-31" transform="translate(186.376953 0.684375)"/>
       <use xlink:href="#DejaVuSans-30" transform="translate(250 0.684375)"/>
       <use xlink:href="#DejaVuSans-2212" transform="translate(314.580078 38.965625) scale(0.7)"/>
       <use xlink:href="#DejaVuSans-37" transform="translate(373.232422 38.965625) scale(0.7)"/>
      </g>
     </g>
    </g>
    <g id="ytick_4">
     <g id="line2d_13">
      <g>
       <use xlink:href="#m5b0e47e466" x="76.913112" y="189.591106" style="stroke: #000000; stroke-width: 0.6"/>
      </g>
     </g>
    </g>
    <g id="ytick_5">
     <g id="line2d_14">
      <g>
       <use xlink:href="#m5b0e47e466" x="76.913112" y="152.315224" style="stroke: #000000; stroke-width: 0.6"/>
      </g>
     </g>
     <g id="text_14">
      <!-- $\mathdefault{6\times10^{-7}}$ -->
      <g transform="translate(29.413112 156.114443) scale(0.1 -0.1)">
       <use xlink:href="#DejaVuSans-36" transform="translate(0 0.684375)"/>
       <use xlink:href="#DejaVuSans-d7" transform="translate(83.105469 0.684375)"/>
       <use xlink:href="#DejaVuSans-31" transform="translate(186.376953 0.684375)"/>
       <use xlink:href="#DejaVuSans-30" transform="translate(250 0.684375)"/>
       <use xlink:href="#DejaVuSans-2212" transform="translate(314.580078 38.965625) scale(0.7)"/>
       <use xlink:href="#DejaVuSans-37" transform="translate(373.232422 38.965625) scale(0.7)"/>
      </g>
     </g>
    </g>
    <g id="ytick_6">
     <g id="line2d_15">
      <g>
       <use xlink:href="#m5b0e47e466" x="76.913112" y="120.798915" style="stroke: #000000; stroke-width: 0.6"/>
      </g>
     </g>
    </g>
    <g id="ytick_7">
     <g id="line2d_16">
      <g>
       <use xlink:href="#m5b0e47e466" x="76.913112" y="93.498247" style="stroke: #000000; stroke-width: 0.6"/>
      </g>
     </g>
    </g>
    <g id="ytick_8">
     <g id="line2d_17">
      <g>
       <use xlink:href="#m5b0e47e466" x="76.913112" y="69.417351" style="stroke: #000000; stroke-width: 0.6"/>
      </g>
     </g>
    </g>
    <g id="text_15">
     <!-- $\alpha(T)$ (m$^2$/s) -->
     <g transform="translate(23.333424 183.85) rotate(-90) scale(0.1 -0.1)">
      <defs>
       <path id="DejaVuSans-Oblique-3b1" d="M 2619 1628 
L 2622 2350 
Q 2625 3088 2069 3091 
Q 1653 3094 1394 2747 
Q 1069 2319 959 1747 
Q 825 1059 994 731 
Q 1169 397 1547 397 
Q 1966 397 2319 1063 
L 2619 1628 
z
M 2166 3578 
Q 3141 3594 3128 2584 
Q 3128 2584 3616 3500 
L 4128 3500 
L 3119 1603 
L 3109 919 
Q 3109 766 3194 638 
Q 3291 488 3391 488 
L 3669 488 
L 3575 0 
L 3228 0 
Q 2934 0 2722 263 
Q 2622 394 2619 669 
Q 2416 334 2066 50 
Q 1900 -81 1453 -78 
Q 722 -72 456 397 
Q 184 884 353 1747 
Q 534 2675 1009 3097 
Q 1544 3569 2166 3578 
z
" transform="scale(0.015625)"/>
       <path id="DejaVuSans-6d" d="M 3328 2828 
Q 3544 3216 3844 3400 
Q 4144 3584 4550 3584 
Q 5097 3584 5394 3201 
Q 5691 2819 5691 2113 
L 5691 0 
L 5113 0 
L 5113 2094 
Q 5113 2597 4934 2840 
Q 4756 3084 4391 3084 
Q 3944 3084 3684 2787 
Q 3425 2491 3425 1978 
L 3425 0 
L 2847 0 
L 2847 2094 
Q 2847 2600 2669 2842 
Q 2491 3084 2119 3084 
Q 1678 3084 1418 2786 
Q 1159 2488 1159 1978 
L 1159 0 
L 581 0 
L 581 3500 
L 1159 3500 
L 1159 2956 
Q 1356 3278 1631 3431 
Q 1906 3584 2284 3584 
Q 2666 3584 2933 3390 
Q 3200 3197 3328 2828 
z
" transform="scale(0.015625)"/>
       <path id="DejaVuSans-2f" d="M 1625 4666 
L 2156 4666 
L 531 -594 
L 0 -594 
L 1625 4666 
z
" transform="scale(0.015625)"/>
       <path id="DejaVuSans-73" d="M 2834 3397 
L 2834 2853 
Q 2591 2978 2328 3040 
Q 2066 3103 1784 3103 
Q 1356 3103 1142 2972 
Q 928 2841 928 2578 
Q 928 2378 1081 2264 
Q 1234 2150 1697 2047 
L 1894 2003 
Q 2506 1872 2764 1633 
Q 3022 1394 3022 966 
Q 3022 478 2636 193 
Q 2250 -91 1575 -91 
Q 1294 -91 989 -36 
Q 684 19 347 128 
L 347 722 
Q 666 556 975 473 
Q 1284 391 1588 391 
Q 1994 391 2212 530 
Q 2431 669 2431 922 
Q 2431 1156 2273 1281 
Q 2116 1406 1581 1522 
L 1381 1569 
Q 847 1681 609 1914 
Q 372 2147 372 2553 
Q 372 3047 722 3315 
Q 1072 3584 1716 3584 
Q 2034 3584 2315 3537 
Q 2597 3491 2834 3397 
z
" transform="scale(0.015625)"/>
      </defs>
      <use xlink:href="#DejaVuSans-Oblique-3b1" transform="translate(0 0.765625)"/>
      <use xlink:href="#DejaVuSans-28" transform="translate(65.917969 0.765625)"/>
      <use xlink:href="#DejaVuSans-Oblique-54" transform="translate(104.931641 0.765625)"/>
      <use xlink:href="#DejaVuSans-29" transform="translate(166.015625 0.765625)"/>
      <use xlink:href="#DejaVuSans-20" transform="translate(205.029297 0.765625)"/>
      <use xlink:href="#DejaVuSans-28" transform="translate(236.816406 0.765625)"/>
      <use xlink:href="#DejaVuSans-6d" transform="translate(275.830078 0.765625)"/>
      <use xlink:href="#DejaVuSans-32" transform="translate(374.199219 39.046875) scale(0.7)"/>
      <use xlink:href="#DejaVuSans-2f" transform="translate(421.469727 0.765625)"/>
      <use xlink:href="#DejaVuSans-73" transform="translate(455.161133 0.765625)"/>
      <use xlink:href="#DejaVuSans-29" transform="translate(507.260742 0.765625)"/>
     </g>
    </g>
   </g>
   <g id="line2d_18">
    <path d="M 93.871606 249.08087 
L 100.689092 240.420336 
L 107.506577 232.156581 
L 114.324063 224.255694 
L 121.141548 216.690011 
L 127.959033 209.416266 
L 134.776519 202.419562 
L 143.298376 194.041499 
L 151.820232 186.01117 
L 160.342089 178.323771 
L 168.863946 170.94648 
L 177.385803 163.85943 
L 185.907659 157.047591 
L 194.429516 150.465296 
L 204.655744 142.872936 
L 214.881972 135.580061 
L 225.1082 128.576773 
L 237.0388 120.7251 
L 247.265028 114.259192 
L 259.195627 106.999469 
L 271.126227 99.999836 
L 283.056826 93.291061 
L 296.691797 85.899743 
L 313.735511 77.052034 
L 325.66611 71.120183 
L 341.005452 63.759944 
L 356.344794 56.686443 
L 371.684136 49.873966 
L 388.72785 42.586425 
L 407.475935 34.904302 
L 426.22402 27.513079 
L 433.041505 24.902713 
L 433.041505 24.902713 
" clip-path="url(#p5d4e21c416)" style="fill: none; stroke: #1f77b4; stroke-width: 1.5; stroke-linecap: square"/>
   </g>
   <g id="line2d_19">
    <path d="M 93.871606 288.954545 
L 102.393463 276.410085 
L 110.91532 264.237153 
L 119.437177 252.422151 
L 127.959033 240.957191 
L 136.48089 229.839173 
L 145.002747 219.06836 
L 153.524604 208.646822 
L 162.04646 198.576998 
L 170.568317 188.860544 
L 179.090174 179.497555 
L 187.612031 170.486142 
L 196.133887 161.822335 
L 204.655744 153.500216 
L 213.177601 145.512216 
L 221.699458 137.849493 
L 230.221314 130.502325 
L 238.743171 123.460495 
L 247.265028 116.713623 
L 255.786885 110.25145 
L 264.308741 104.064057 
L 272.830598 98.142036 
L 281.352455 92.476604 
L 289.874312 87.05969 
L 298.396168 81.883975 
L 306.918025 76.942922 
L 315.439882 72.230777 
L 323.961739 67.74257 
L 332.483595 63.474093 
L 341.005452 59.421891 
L 349.527309 55.583238 
L 358.049166 51.956121 
L 366.571022 48.539224 
L 375.092879 45.331915 
L 383.614736 42.334238 
L 392.136593 39.546913 
L 400.658449 36.971334 
L 409.180306 34.609581 
L 417.702163 32.464435 
L 426.22402 30.539402 
L 433.041505 29.160695 
L 433.041505 29.160695 
" clip-path="url(#p5d4e21c416)" style="fill: none; stroke-dasharray: 7.4,3.2; stroke-dashoffset: 0; stroke: #000000; stroke-width: 2"/>
   </g>
   <g id="patch_3">
    <path d="M 76.913112 302.2 
L 76.913112 10.8 
" style="fill: none; stroke: #000000; stroke-width: 0.8; stroke-linejoin: miter; stroke-linecap: square"/>
   </g>
   <g id="patch_4">
    <path d="M 450 302.2 
L 450 10.8 
" style="fill: none; stroke: #000000; stroke-width: 0.8; stroke-linejoin: miter; stroke-linecap: square"/>
   </g>
   <g id="patch_5">
    <path d="M 76.913112 302.2 
L 450 302.2 
" style="fill: none; stroke: #000000; stroke-width: 0.8; stroke-linejoin: miter; stroke-linecap: square"/>
   </g>
   <g id="patch_6">
    <path d="M 76.913112 10.8 
L 450 10.8 
" style="fill: none; stroke: #000000; stroke-width: 0.8; stroke-linejoin: miter; stroke-linecap: square"/>
   </g>
   <g id="legend_1">
    <g id="patch_7">
     <path d="M 83.913112 62.834375 
L 312.306862 62.834375 
Q 314.306862 62.834375 314.306862 60.834375 
L 314.306862 17.8 
Q 314.306862 15.8 312.306862 15.8 
L 83.913112 15.8 
Q 81.913112 15.8 81.913112 17.8 
L 81.913112 60.834375 
Q 81.913112 62.834375 83.913112 62.834375 
z
" style="fill: #ffffff; opacity: 0.8; stroke: #cccccc; stroke-linejoin: miter"/>
    </g>
    <g id="patch_8">
     <path d="M 85.913112 27.398438 
L 105.913112 27.398438 
L 105.913112 20.398438 
L 85.913112 20.398438 
z
" style="fill: #1f77b4; fill-opacity: 0.3"/>
    </g>
    <g id="text_16">
     <!-- 95% Credible Interval (parameter-only) -->
     <g transform="translate(113.913112 27.398438) scale(0.1 -0.1)">
      <defs>
       <path id="DejaVuSans-39" d="M 703 97 
L 703 672 
Q 941 559 1184 500 
Q 1428 441 1663 441 
Q 2288 441 2617 861 
Q 2947 1281 2994 2138 
Q 2813 1869 2534 1725 
Q 2256 1581 1919 1581 
Q 1219 1581 811 2004 
Q 403 2428 403 3163 
Q 403 3881 828 4315 
Q 1253 4750 1959 4750 
Q 2769 4750 3195 4129 
Q 3622 3509 3622 2328 
Q 3622 1225 3098 567 
Q 2575 -91 1691 -91 
Q 1453 -91 1209 -44 
Q 966 3 703 97 
z
M 1959 2075 
Q 2384 2075 2632 2365 
Q 2881 2656 2881 3163 
Q 2881 3666 2632 3958 
Q 2384 4250 1959 4250 
Q 1534 4250 1286 3958 
Q 1038 3666 1038 3163 
Q 1038 2656 1286 2365 
Q 1534 2075 1959 2075 
z
" transform="scale(0.015625)"/>
       <path id="DejaVuSans-25" d="M 4653 2053 
Q 4381 2053 4226 1822 
Q 4072 1591 4072 1178 
Q 4072 772 4226 539 
Q 4381 306 4653 306 
Q 4919 306 5073 539 
Q 5228 772 5228 1178 
Q 5228 1588 5073 1820 
Q 4919 2053 4653 2053 
z
M 4653 2450 
Q 5147 2450 5437 2106 
Q 5728 1763 5728 1178 
Q 5728 594 5436 251 
Q 5144 -91 4653 -91 
Q 4153 -91 3862 251 
Q 3572 594 3572 1178 
Q 3572 1766 3864 2108 
Q 4156 2450 4653 2450 
z
M 1428 4353 
Q 1159 4353 1004 4120 
Q 850 3888 850 3481 
Q 850 3069 1003 2837 
Q 1156 2606 1428 2606 
Q 1700 2606 1854 2837 
Q 2009 3069 2009 3481 
Q 2009 3884 1853 4118 
Q 1697 4353 1428 4353 
z
M 4250 4750 
L 4750 4750 
L 1831 -91 
L 1331 -91 
L 4250 4750 
z
M 1428 4750 
Q 1922 4750 2215 4408 
Q 2509 4066 2509 3481 
Q 2509 2891 2217 2550 
Q 1925 2209 1428 2209 
Q 931 2209 642 2551 
Q 353 2894 353 3481 
Q 353 4063 643 4406 
Q 934 4750 1428 4750 
z
" transform="scale(0.015625)"/>
       <path id="DejaVuSans-43" d="M 4122 4306 
L 4122 3641 
Q 3803 3938 3442 4084 
Q 3081 4231 2675 4231 
Q 1875 4231 1450 3742 
Q 1025 3253 1025 2328 
Q 1025 1406 1450 917 
Q 1875 428 2675 428 
Q 3081 428 3442 575 
Q 3803 722 4122 1019 
L 4122 359 
Q 3791 134 3420 21 
Q 3050 -91 2638 -91 
Q 1578 -91 968 557 
Q 359 1206 359 2328 
Q 359 3453 968 4101 
Q 1578 4750 2638 4750 
Q 3056 4750 3426 4639 
Q 3797 4528 4122 4306 
z
" transform="scale(0.015625)"/>
       <path id="DejaVuSans-72" d="M 2631 2963 
Q 2534 3019 2420 3045 
Q 2306 3072 2169 3072 
Q 1681 3072 1420 2755 
Q 1159 2438 1159 1844 
L 1159 0 
L 581 0 
L 581 3500 
L 1159 3500 
L 1159 2956 
Q 1341 3275 1631 3429 
Q 1922 3584 2338 3584 
Q 2397 3584 2469 3576 
Q 2541 3569 2628 3553 
L 2631 2963 
z
" transform="scale(0.015625)"/>
       <path id="DejaVuSans-65" d="M 3597 1894 
L 3597 1613 
L 953 1613 
Q 991 1019 1311 708 
Q 1631 397 2203 397 
Q 2534 397 2845 478 
Q 3156 559 3463 722 
L 3463 178 
Q 3153 47 2828 -22 
Q 2503 -91 2169 -91 
Q 1331 -91 842 396 
Q 353 884 353 1716 
Q 353 2575 817 3079 
Q 1281 3584 2069 3584 
Q 2775 3584 3186 3129 
Q 3597 2675 3597 1894 
z
M 3022 2063 
Q 3016 2534 2758 2815 
Q 2500 3097 2075 3097 
Q 1594 3097 1305 2825 
Q 1016 2553 972 2059 
L 3022 2063 
z
" transform="scale(0.015625)"/>
       <path id="DejaVuSans-64" d="M 2906 2969 
L 2906 4863 
L 3481 4863 
L 3481 0 
L 2906 0 
L 2906 525 
Q 2725 213 2448 61 
Q 2172 -91 1784 -91 
Q 1150 -91 751 415 
Q 353 922 353 1747 
Q 353 2572 751 3078 
Q 1150 3584 1784 3584 
Q 2172 3584 2448 3432 
Q 2725 3281 2906 2969 
z
M 947 1747 
Q 947 1113 1208 752 
Q 1469 391 1925 391 
Q 2381 391 2643 752 
Q 2906 1113 2906 1747 
Q 2906 2381 2643 2742 
Q 2381 3103 1925 3103 
Q 1469 3103 1208 2742 
Q 947 2381 947 1747 
z
" transform="scale(0.015625)"/>
       <path id="DejaVuSans-69" d="M 603 3500 
L 1178 3500 
L 1178 0 
L 603 0 
L 603 3500 
z
M 603 4863 
L 1178 4863 
L 1178 4134 
L 603 4134 
L 603 4863 
z
" transform="scale(0.015625)"/>
       <path id="DejaVuSans-62" d="M 3116 1747 
Q 3116 2381 2855 2742 
Q 2594 3103 2138 3103 
Q 1681 3103 1420 2742 
Q 1159 2381 1159 1747 
Q 1159 1113 1420 752 
Q 1681 391 2138 391 
Q 2594 391 2855 752 
Q 3116 1113 3116 1747 
z
M 1159 2969 
Q 1341 3281 1617 3432 
Q 1894 3584 2278 3584 
Q 2916 3584 3314 3078 
Q 3713 2572 3713 1747 
Q 3713 922 3314 415 
Q 2916 -91 2278 -91 
Q 1894 -91 1617 61 
Q 1341 213 1159 525 
L 1159 0 
L 581 0 
L 581 4863 
L 1159 4863 
L 1159 2969 
z
" transform="scale(0.015625)"/>
       <path id="DejaVuSans-6c" d="M 603 4863 
L 1178 4863 
L 1178 0 
L 603 0 
L 603 4863 
z
" transform="scale(0.015625)"/>
       <path id="DejaVuSans-49" d="M 628 4666 
L 1259 4666 
L 1259 0 
L 628 0 
L 628 4666 
z
" transform="scale(0.015625)"/>
       <path id="DejaVuSans-6e" d="M 3513 2113 
L 3513 0 
L 2938 0 
L 2938 2094 
Q 2938 2591 2744 2837 
Q 2550 3084 2163 3084 
Q 1697 3084 1428 2787 
Q 1159 2491 1159 1978 
L 1159 0 
L 581 0 
L 581 3500 
L 1159 3500 
L 1159 2956 
Q 1366 3272 1645 3428 
Q 1925 3584 2291 3584 
Q 2894 3584 3203 3211 
Q 3513 2838 3513 2113 
z
" transform="scale(0.015625)"/>
       <path id="DejaVuSans-74" d="M 1172 4494 
L 1172 3500 
L 2356 3500 
L 2356 3053 
L 1172 3053 
L 1172 1153 
Q 1172 725 1289 603 
Q 1406 481 1766 481 
L 2356 481 
L 2356 0 
L 1766 0 
Q 1100 0 847 248 
Q 594 497 594 1153 
L 594 3053 
L 172 3053 
L 172 3500 
L 594 3500 
L 594 4494 
L 1172 4494 
z
" transform="scale(0.015625)"/>
       <path id="DejaVuSans-76" d="M 191 3500 
L 800 3500 
L 1894 563 
L 2988 3500 
L 3597 3500 
L 2284 0 
L 1503 0 
L 191 3500 
z
" transform="scale(0.015625)"/>
       <path id="DejaVuSans-61" d="M 2194 1759 
Q 1497 1759 1228 1600 
Q 959 1441 959 1056 
Q 959 750 1161 570 
Q 1363 391 1709 391 
Q 2188 391 2477 730 
Q 2766 1069 2766 1631 
L 2766 1759 
L 2194 1759 
z
M 3341 1997 
L 3341 0 
L 2766 0 
L 2766 531 
Q 2569 213 2275 61 
Q 1981 -91 1556 -91 
Q 1019 -91 701 211 
Q 384 513 384 1019 
Q 384 1609 779 1909 
Q 1175 2209 1959 2209 
L 2766 2209 
L 2766 2266 
Q 2766 2663 2505 2880 
Q 2244 3097 1772 3097 
Q 1472 3097 1187 3025 
Q 903 2953 641 2809 
L 641 3341 
Q 956 3463 1253 3523 
Q 1550 3584 1831 3584 
Q 2591 3584 2966 3190 
Q 3341 2797 3341 1997 
z
" transform="scale(0.015625)"/>
       <path id="DejaVuSans-70" d="M 1159 525 
L 1159 -1331 
L 581 -1331 
L 581 3500 
L 1159 3500 
L 1159 2969 
Q 1341 3281 1617 3432 
Q 1894 3584 2278 3584 
Q 2916 3584 3314 3078 
Q 3713 2572 3713 1747 
Q 3713 922 3314 415 
Q 2916 -91 2278 -91 
Q 1894 -91 1617 61 
Q 1341 213 1159 525 
z
M 3116 1747 
Q 3116 2381 2855 2742 
Q 2594 3103 2138 3103 
Q 1681 3103 1420 2742 
Q 1159 2381 1159 1747 
Q 1159 1113 1420 752 
Q 1681 391 2138 391 
Q 2594 391 2855 752 
Q 3116 1113 3116 1747 
z
" transform="scale(0.015625)"/>
       <path id="DejaVuSans-2d" d="M 313 2009 
L 1997 2009 
L 1997 1497 
L 313 1497 
L 313 2009 
z
" transform="scale(0.015625)"/>
       <path id="DejaVuSans-6f" d="M 1959 3097 
Q 1497 3097 1228 2736 
Q 959 2375 959 1747 
Q 959 1119 1226 758 
Q 1494 397 1959 397 
Q 2419 397 2687 759 
Q 2956 1122 2956 1747 
Q 2956 2369 2687 2733 
Q 2419 3097 1959 3097 
z
M 1959 3584 
Q 2709 3584 3137 3096 
Q 3566 2609 3566 1747 
Q 3566 888 3137 398 
Q 2709 -91 1959 -91 
Q 1206 -91 779 398 
Q 353 888 353 1747 
Q 353 2609 779 3096 
Q 1206 3584 1959 3584 
z
" transform="scale(0.015625)"/>
       <path id="DejaVuSans-79" d="M 2059 -325 
Q 1816 -950 1584 -1140 
Q 1353 -1331 966 -1331 
L 506 -1331 
L 506 -850 
L 844 -850 
Q 1081 -850 1212 -737 
Q 1344 -625 1503 -206 
L 1606 56 
L 191 3500 
L 800 3500 
L 1894 763 
L 2988 3500 
L 3597 3500 
L 2059 -325 
z
" transform="scale(0.015625)"/>
      </defs>
      <use xlink:href="#DejaVuSans-39"/>
      <use xlink:href="#DejaVuSans-35" transform="translate(63.623047 0)"/>
      <use xlink:href="#DejaVuSans-25" transform="translate(127.246094 0)"/>
      <use xlink:href="#DejaVuSans-20" transform="translate(222.265625 0)"/>
      <use xlink:href="#DejaVuSans-43" transform="translate(254.052734 0)"/>
      <use xlink:href="#DejaVuSans-72" transform="translate(323.876953 0)"/>
      <use xlink:href="#DejaVuSans-65" transform="translate(362.740234 0)"/>
      <use xlink:href="#DejaVuSans-64" transform="translate(424.263672 0)"/>
      <use xlink:href="#DejaVuSans-69" transform="translate(487.740234 0)"/>
      <use xlink:href="#DejaVuSans-62" transform="translate(515.523438 0)"/>
      <use xlink:href="#DejaVuSans-6c" transform="translate(579 0)"/>
      <use xlink:href="#DejaVuSans-65" transform="translate(606.783203 0)"/>
      <use xlink:href="#DejaVuSans-20" transform="translate(668.306641 0)"/>
      <use xlink:href="#DejaVuSans-49" transform="translate(700.09375 0)"/>
      <use xlink:href="#DejaVuSans-6e" transform="translate(729.585938 0)"/>
      <use xlink:href="#DejaVuSans-74" transform="translate(792.964844 0)"/>
      <use xlink:href="#DejaVuSans-65" transform="translate(832.173828 0)"/>
      <use xlink:href="#DejaVuSans-72" transform="translate(893.697266 0)"/>
      <use xlink:href="#DejaVuSans-76" transform="translate(934.810547 0)"/>
      <use xlink:href="#DejaVuSans-61" transform="translate(993.990234 0)"/>
      <use xlink:href="#DejaVuSans-6c" transform="translate(1055.269531 0)"/>
      <use xlink:href="#DejaVuSans-20" transform="translate(1083.052734 0)"/>
      <use xlink:href="#DejaVuSans-28" transform="translate(1114.839844 0)"/>
      <use xlink:href="#DejaVuSans-70" transform="translate(1153.853516 0)"/>
      <use xlink:href="#DejaVuSans-61" transform="translate(1217.330078 0)"/>
      <use xlink:href="#DejaVuSans-72" transform="translate(1278.609375 0)"/>
      <use xlink:href="#DejaVuSans-61" transform="translate(1319.722656 0)"/>
      <use xlink:href="#DejaVuSans-6d" transform="translate(1381.001953 0)"/>
      <use xlink:href="#DejaVuSans-65" transform="translate(1478.414062 0)"/>
      <use xlink:href="#DejaVuSans-74" transform="translate(1539.9375 0)"/>
      <use xlink:href="#DejaVuSans-65" transform="translate(1579.146484 0)"/>
      <use xlink:href="#DejaVuSans-72" transform="translate(1640.669922 0)"/>
      <use xlink:href="#DejaVuSans-2d" transform="translate(1675.408203 0)"/>
      <use xlink:href="#DejaVuSans-6f" transform="translate(1713.367188 0)"/>
      <use xlink:href="#DejaVuSans-6e" transform="translate(1774.548828 0)"/>
      <use xlink:href="#DejaVuSans-6c" transform="translate(1837.927734 0)"/>
      <use xlink:href="#DejaVuSans-79" transform="translate(1865.710938 0)"/>
      <use xlink:href="#DejaVuSans-29" transform="translate(1924.890625 0)"/>
     </g>
    </g>
    <g id="line2d_20">
     <path d="M 85.913112 38.576563 
L 95.913112 38.576563 
L 105.913112 38.576563 
" style="fill: none; stroke: #1f77b4; stroke-width: 1.5; stroke-linecap: square"/>
    </g>
    <g id="text_17">
     <!-- Powerlaw (median) -->
     <g transform="translate(113.913112 42.076563) scale(0.1 -0.1)">
      <defs>
       <path id="DejaVuSans-50" d="M 1259 4147 
L 1259 2394 
L 2053 2394 
Q 2494 2394 2734 2622 
Q 2975 2850 2975 3272 
Q 2975 3691 2734 3919 
Q 2494 4147 2053 4147 
L 1259 4147 
z
M 628 4666 
L 2053 4666 
Q 2838 4666 3239 4311 
Q 3641 3956 3641 3272 
Q 3641 2581 3239 2228 
Q 2838 1875 2053 1875 
L 1259 1875 
L 1259 0 
L 628 0 
L 628 4666 
z
" transform="scale(0.015625)"/>
       <path id="DejaVuSans-77" d="M 269 3500 
L 844 3500 
L 1563 769 
L 2278 3500 
L 2956 3500 
L 3675 769 
L 4391 3500 
L 4966 3500 
L 4050 0 
L 3372 0 
L 2619 2869 
L 1863 0 
L 1184 0 
L 269 3500 
z
" transform="scale(0.015625)"/>
      </defs>
      <use xlink:href="#DejaVuSans-50"/>
      <use xlink:href="#DejaVuSans-6f" transform="translate(56.677734 0)"/>
      <use xlink:href="#DejaVuSans-77" transform="translate(117.859375 0)"/>
      <use xlink:href="#DejaVuSans-65" transform="translate(199.646484 0)"/>
      <use xlink:href="#DejaVuSans-72" transform="translate(261.169922 0)"/>
      <use xlink:href="#DejaVuSans-6c" transform="translate(302.283203 0)"/>
      <use xlink:href="#DejaVuSans-61" transform="translate(330.066406 0)"/>
      <use xlink:href="#DejaVuSans-77" transform="translate(391.345703 0)"/>
      <use xlink:href="#DejaVuSans-20" transform="translate(473.132812 0)"/>
      <use xlink:href="#DejaVuSans-28" transform="translate(504.919922 0)"/>
      <use xlink:href="#DejaVuSans-6d" transform="translate(543.933594 0)"/>
      <use xlink:href="#DejaVuSans-65" transform="translate(641.345703 0)"/>
      <use xlink:href="#DejaVuSans-64" transform="translate(702.869141 0)"/>
      <use xlink:href="#DejaVuSans-69" transform="translate(766.345703 0)"/>
      <use xlink:href="#DejaVuSans-61" transform="translate(794.128906 0)"/>
      <use xlink:href="#DejaVuSans-6e" transform="translate(855.408203 0)"/>
      <use xlink:href="#DejaVuSans-29" transform="translate(918.787109 0)"/>
     </g>
    </g>
    <g id="line2d_21">
     <path d="M 85.913112 53.254687 
L 95.913112 53.254687 
L 105.913112 53.254687 
" style="fill: none; stroke-dasharray: 7.4,3.2; stroke-dashoffset: 0; stroke: #000000; stroke-width: 2"/>
    </g>
    <g id="text_18">
     <!-- Ulamec (2007) - Truth -->
     <g transform="translate(113.913112 56.754687) scale(0.1 -0.1)">
      <defs>
       <path id="DejaVuSans-55" d="M 556 4666 
L 1191 4666 
L 1191 1831 
Q 1191 1081 1462 751 
Q 1734 422 2344 422 
Q 2950 422 3222 751 
Q 3494 1081 3494 1831 
L 3494 4666 
L 4128 4666 
L 4128 1753 
Q 4128 841 3676 375 
Q 3225 -91 2344 -91 
Q 1459 -91 1007 375 
Q 556 841 556 1753 
L 556 4666 
z
" transform="scale(0.015625)"/>
       <path id="DejaVuSans-63" d="M 3122 3366 
L 3122 2828 
Q 2878 2963 2633 3030 
Q 2388 3097 2138 3097 
Q 1578 3097 1268 2742 
Q 959 2388 959 1747 
Q 959 1106 1268 751 
Q 1578 397 2138 397 
Q 2388 397 2633 464 
Q 2878 531 3122 666 
L 3122 134 
Q 2881 22 2623 -34 
Q 2366 -91 2075 -91 
Q 1284 -91 818 406 
Q 353 903 353 1747 
Q 353 2603 823 3093 
Q 1294 3584 2113 3584 
Q 2378 3584 2631 3529 
Q 2884 3475 3122 3366 
z
" transform="scale(0.015625)"/>
       <path id="DejaVuSans-54" d="M -19 4666 
L 3928 4666 
L 3928 4134 
L 2272 4134 
L 2272 0 
L 1638 0 
L 1638 4134 
L -19 4134 
L -19 4666 
z
" transform="scale(0.015625)"/>
       <path id="DejaVuSans-75" d="M 544 1381 
L 544 3500 
L 1119 3500 
L 1119 1403 
Q 1119 906 1312 657 
Q 1506 409 1894 409 
Q 2359 409 2629 706 
Q 2900 1003 2900 1516 
L 2900 3500 
L 3475 3500 
L 3475 0 
L 2900 0 
L 2900 538 
Q 2691 219 2414 64 
Q 2138 -91 1772 -91 
Q 1169 -91 856 284 
Q 544 659 544 1381 
z
M 1991 3584 
L 1991 3584 
z
" transform="scale(0.015625)"/>
       <path id="DejaVuSans-68" d="M 3513 2113 
L 3513 0 
L 2938 0 
L 2938 2094 
Q 2938 2591 2744 2837 
Q 2550 3084 2163 3084 
Q 1697 3084 1428 2787 
Q 1159 2491 1159 1978 
L 1159 0 
L 581 0 
L 581 4863 
L 1159 4863 
L 1159 2956 
Q 1366 3272 1645 3428 
Q 1925 3584 2291 3584 
Q 2894 3584 3203 3211 
Q 3513 2838 3513 2113 
z
" transform="scale(0.015625)"/>
      </defs>
      <use xlink:href="#DejaVuSans-55"/>
      <use xlink:href="#DejaVuSans-6c" transform="translate(73.193359 0)"/>
      <use xlink:href="#DejaVuSans-61" transform="translate(100.976562 0)"/>
      <use xlink:href="#DejaVuSans-6d" transform="translate(162.255859 0)"/>
      <use xlink:href="#DejaVuSans-65" transform="translate(259.667969 0)"/>
      <use xlink:href="#DejaVuSans-63" transform="translate(321.191406 0)"/>
      <use xlink:href="#DejaVuSans-20" transform="translate(376.171875 0)"/>
      <use xlink:href="#DejaVuSans-28" transform="translate(407.958984 0)"/>
      <use xlink:href="#DejaVuSans-32" transform="translate(446.972656 0)"/>
      <use xlink:href="#DejaVuSans-30" transform="translate(510.595703 0)"/>
      <use xlink:href="#DejaVuSans-30" transform="translate(574.21875 0)"/>
      <use xlink:href="#DejaVuSans-37" transform="translate(637.841797 0)"/>
      <use xlink:href="#DejaVuSans-29" transform="translate(701.464844 0)"/>
      <use xlink:href="#DejaVuSans-20" transform="translate(740.478516 0)"/>
      <use xlink:href="#DejaVuSans-2d" transform="translate(772.265625 0)"/>
      <use xlink:href="#DejaVuSans-20" transform="translate(808.349609 0)"/>
      <use xlink:href="#DejaVuSans-54" transform="translate(840.136719 0)"/>
      <use xlink:href="#DejaVuSans-72" transform="translate(886.470703 0)"/>
      <use xlink:href="#DejaVuSans-75" transform="translate(927.583984 0)"/>
      <use xlink:href="#DejaVuSans-74" transform="translate(990.962891 0)"/>
      <use xlink:href="#DejaVuSans-68" transform="translate(1030.171875 0)"/>
     </g>
    </g>
   </g>
  </g>
 </g>
 <defs>
  <clipPath id="p5d4e21c416">
   <rect x="76.913112" y="10.8" width="373.086888" height="291.4"/>
  </clipPath>
 </defs>
</svg>
