<?xml version="1.0" encoding="utf-8" standalone="no"?>
<!DOCTYPE svg PUBLIC "-//W3C//DTD SVG 1.1//EN"
  "http://www.w3.org/Graphics/SVG/1.1/DTD/svg11.dtd">
<svg xmlns:xlink="http://www.w3.org/1999/xlink" width="460.8pt" height="345.6pt" viewBox="0 0 460.8 345.6" xmlns="http://www.w3.org/2000/svg" version="1.1">
 <metadata>
  <rdf:RDF xmlns:dc="http://purl.org/dc/elements/1.1/" xmlns:cc="http://creativecommons.org/ns#" xmlns:rdf="http://www.w3.org/1999/02/22-rdf-syntax-ns#">
   <cc:Work>
    <dc:type rdf:resource="http://purl.org/dc/dcmitype/StillImage"/>
    <dc:date>2026-02-12T00:45:45.441879</dc:date>
    <dc:format>image/svg+xml</dc:format>
    <dc:creator>
     <cc:Agent>
      <dc:title>Matplotlib v3.10.8, https://matplotlib.org/</dc:title>
     </cc:Agent>
    </dc:creator>
   </cc:Work>
  </rdf:RDF>
 </metadata>
 <defs>
  <style type="text/css">*{stroke-linejoin: round; stroke-linecap: butt}</style>
 </defs>
 <g id="figure_1">
  <g id="patch_1">
   <path d="M 0 345.6 
L 460.8 345.6 
L 460.8 0 
L 0 0 
L 0 345.6 
z
" style="fill: none"/>
  </g>
  <g id="axes_1">
   <g id="patch_2">
    <path d="M 47.018 302.2 
L 450 302.2 
L 450 10.8 
L 47.018 10.8 
L 47.018 302.2 
z
" style="fill: none"/>
   </g>
   <g id="FillBetweenPolyCollection_1">
    <path d="M 65.335364 219.025075 
L 65.335364 279.108367 
L 72.811839 272.724591 
L 80.288314 267.094453 
L 87.764788 261.064819 
L 95.241263 257.320328 
L 102.717738 254.622936 
L 110.194213 251.709939 
L 117.670688 249.907149 
L 125.147163 247.736221 
L 132.623638 245.162753 
L 140.100113 243.237596 
L 147.576588 241.144313 
L 155.053063 239.24025 
L 162.529538 237.154755 
L 170.006013 235.350086 
L 177.482488 233.292207 
L 184.958963 232.158055 
L 192.435438 230.773134 
L 199.911913 229.088476 
L 207.388388 226.641634 
L 214.864863 225.957344 
L 222.341338 225.013996 
L 229.817813 222.415104 
L 237.294288 221.203207 
L 244.770763 218.325019 
L 252.247237 218.279668 
L 259.723712 217.166823 
L 267.200187 216.497093 
L 274.676662 214.019497 
L 282.153137 213.387445 
L 289.629612 212.046501 
L 297.106087 210.991453 
L 304.582562 210.243919 
L 312.059037 207.772585 
L 319.535512 207.476896 
L 327.011987 206.262793 
L 334.488462 205.32848 
L 341.964937 205.399243 
L 349.441412 201.9193 
L 356.917887 203.452688 
L 364.394362 202.118709 
L 371.870837 199.203097 
L 379.347312 199.583152 
L 386.823787 197.523776 
L 394.300262 196.422864 
L 401.776737 194.86926 
L 409.253212 193.656663 
L 416.729686 192.38083 
L 424.206161 191.92768 
L 431.682636 189.428777 
L 431.682636 129.963875 
L 431.682636 129.963875 
L 424.206161 132.061265 
L 416.729686 134.064857 
L 409.253212 134.585014 
L 401.776737 136.556574 
L 394.300262 137.360907 
L 386.823787 139.030373 
L 379.347312 142.184967 
L 371.870837 141.903103 
L 364.394362 142.627477 
L 356.917887 143.867139 
L 349.441412 144.900092 
L 341.964937 146.572454 
L 334.488462 146.515348 
L 327.011987 149.031442 
L 319.535512 150.037903 
L 312.059037 150.627871 
L 304.582562 152.52125 
L 297.106087 153.126577 
L 289.629612 154.325836 
L 282.153137 154.69006 
L 274.676662 155.823891 
L 267.200187 157.486531 
L 259.723712 159.399261 
L 252.247237 160.214976 
L 244.770763 160.910795 
L 237.294288 163.546661 
L 229.817813 164.990406 
L 222.341338 165.518957 
L 214.864863 167.783743 
L 207.388388 169.532754 
L 199.911913 170.307154 
L 192.435438 172.32357 
L 184.958963 174.330994 
L 177.482488 175.85165 
L 170.006013 177.656862 
L 162.529538 179.210118 
L 155.053063 181.795969 
L 147.576588 183.056141 
L 140.100113 185.238633 
L 132.623638 187.14795 
L 125.147163 187.899997 
L 117.670688 190.734428 
L 110.194213 193.92246 
L 102.717738 196.077899 
L 95.241263 199.471999 
L 87.764788 203.246348 
L 80.288314 207.859112 
L 72.811839 212.655047 
L 65.335364 219.025075 
z
" clip-path="url(#p481409a279)" style="fill: #1f77b4; fill-opacity: 0.45"/>
   </g>
   <g id="PathCollection_1">
    <defs>
     <path id="mfb2f61bbfd" d="M 0 2.12132 
C 0.562581 2.12132 1.102195 1.897805 1.5 1.5 
C 1.897805 1.102195 2.12132 0.562581 2.12132 0 
C 2.12132 -0.562581 1.897805 -1.102195 1.5 -1.5 
C 1.102195 -1.897805 0.562581 -2.12132 0 -2.12132 
C -0.562581 -2.12132 -1.102195 -1.897805 -1.5 -1.5 
C -1.897805 -1.102195 -2.12132 -0.562581 -2.12132 0 
C -2.12132 0.562581 -1.897805 1.102195 -1.5 1.5 
C -1.102195 1.897805 -0.562581 2.12132 0 2.12132 
z
" style="stroke: #000000; stroke-opacity: 0.7"/>
    </defs>
    <g clip-path="url(#p481409a279)">
     <use xlink:href="#mfb2f61bbfd" x="65.335364" y="185.449929" style="fill-opacity: 0.7; stroke: #000000; stroke-opacity: 0.7"/>
     <use xlink:href="#mfb2f61bbfd" x="98.639661" y="151.119404" style="fill-opacity: 0.7; stroke: #000000; stroke-opacity: 0.7"/>
     <use xlink:href="#mfb2f61bbfd" x="135.644436" y="125.848181" style="fill-opacity: 0.7; stroke: #000000; stroke-opacity: 0.7"/>
     <use xlink:href="#mfb2f61bbfd" x="172.649211" y="108.127026" style="fill-opacity: 0.7; stroke: #000000; stroke-opacity: 0.7"/>
     <use xlink:href="#mfb2f61bbfd" x="209.653986" y="90.049783" style="fill-opacity: 0.7; stroke: #000000; stroke-opacity: 0.7"/>
     <use xlink:href="#mfb2f61bbfd" x="246.658761" y="76.759238" style="fill-opacity: 0.7; stroke: #000000; stroke-opacity: 0.7"/>
     <use xlink:href="#mfb2f61bbfd" x="283.663536" y="65.329032" style="fill-opacity: 0.7; stroke: #000000; stroke-opacity: 0.7"/>
     <use xlink:href="#mfb2f61bbfd" x="320.668311" y="53.4831" style="fill-opacity: 0.7; stroke: #000000; stroke-opacity: 0.7"/>
     <use xlink:href="#mfb2f61bbfd" x="357.673086" y="43.362148" style="fill-opacity: 0.7; stroke: #000000; stroke-opacity: 0.7"/>
     <use xlink:href="#mfb2f61bbfd" x="394.677861" y="34.10047" style="fill-opacity: 0.7; stroke: #000000; stroke-opacity: 0.7"/>
     <use xlink:href="#mfb2f61bbfd" x="431.682636" y="24.045455" style="fill-opacity: 0.7; stroke: #000000; stroke-opacity: 0.7"/>
    </g>
   </g>
   <g id="FillBetweenPolyCollection_2">
    <path d="M 65.335364 221.568802 
L 65.335364 278.717284 
L 72.811839 272.281241 
L 80.288314 267.274469 
L 87.764788 261.796081 
L 95.241263 259.641102 
L 102.717738 255.162655 
L 110.194213 252.910078 
L 117.670688 250.690475 
L 125.147163 248.314208 
L 132.623638 245.977754 
L 140.100113 243.30751 
L 147.576588 243.533423 
L 155.053063 241.556731 
L 162.529538 238.336496 
L 170.006013 237.36035 
L 177.482488 235.265983 
L 184.958963 232.724665 
L 192.435438 233.254282 
L 199.911913 229.993003 
L 207.388388 228.989174 
L 214.864863 226.903428 
L 222.341338 226.351985 
L 229.817813 224.650477 
L 237.294288 222.374616 
L 244.770763 222.391594 
L 252.247237 221.128017 
L 259.723712 219.126122 
L 267.200187 216.897062 
L 274.676662 216.117832 
L 282.153137 215.47937 
L 289.629612 213.585415 
L 297.106087 214.088792 
L 304.582562 214.284038 
L 312.059037 212.045691 
L 319.535512 210.352904 
L 327.011987 210.573091 
L 334.488462 209.042129 
L 341.964937 208.231521 
L 349.441412 207.523189 
L 356.917887 207.516219 
L 364.394362 205.197819 
L 371.870837 204.891722 
L 379.347312 204.722674 
L 386.823787 202.570228 
L 394.300262 201.765824 
L 401.776737 200.283221 
L 409.253212 199.800584 
L 416.729686 199.203944 
L 424.206161 198.448186 
L 431.682636 198.190175 
L 431.682636 138.888318 
L 431.682636 138.888318 
L 424.206161 139.925882 
L 416.729686 141.746305 
L 409.253212 143.491592 
L 401.776737 144.103434 
L 394.300262 144.610844 
L 386.823787 145.925258 
L 379.347312 147.55244 
L 371.870837 147.971298 
L 364.394362 149.60403 
L 356.917887 150.180759 
L 349.441412 150.56261 
L 341.964937 150.917026 
L 334.488462 152.458935 
L 327.011987 154.280935 
L 319.535512 154.640039 
L 312.059037 155.932531 
L 304.582562 156.685549 
L 297.106087 156.599828 
L 289.629612 158.292962 
L 282.153137 159.135751 
L 274.676662 160.719138 
L 267.200187 161.068312 
L 259.723712 162.699819 
L 252.247237 164.198468 
L 244.770763 165.755343 
L 237.294288 166.113127 
L 229.817813 167.930863 
L 222.341338 169.512772 
L 214.864863 170.906121 
L 207.388388 172.985786 
L 199.911913 173.379979 
L 192.435438 176.92895 
L 184.958963 176.821141 
L 177.482488 177.752816 
L 170.006013 181.126709 
L 162.529538 182.845794 
L 155.053063 184.868432 
L 147.576588 186.52641 
L 140.100113 187.588002 
L 132.623638 188.861648 
L 125.147163 191.29996 
L 117.670688 194.332241 
L 110.194213 197.231836 
L 102.717738 198.55109 
L 95.241263 201.876931 
L 87.764788 205.496309 
L 80.288314 209.037813 
L 72.811839 213.677883 
L 65.335364 221.568802 
z
" clip-path="url(#p481409a279)" style="fill: #ff7f0e; fill-opacity: 0.45"/>
   </g>
   <g id="PathCollection_2">
    <g clip-path="url(#p481409a279)">
     <use xlink:href="#mfb2f61bbfd" x="65.335364" y="206.575258" style="fill-opacity: 0.7; stroke: #000000; stroke-opacity: 0.7"/>
     <use xlink:href="#mfb2f61bbfd" x="98.639661" y="174.593926" style="fill-opacity: 0.7; stroke: #000000; stroke-opacity: 0.7"/>
     <use xlink:href="#mfb2f61bbfd" x="135.644436" y="153.729586" style="fill-opacity: 0.7; stroke: #000000; stroke-opacity: 0.7"/>
     <use xlink:href="#mfb2f61bbfd" x="172.649211" y="137.245288" style="fill-opacity: 0.7; stroke: #000000; stroke-opacity: 0.7"/>
     <use xlink:href="#mfb2f61bbfd" x="209.653986" y="124.451983" style="fill-opacity: 0.7; stroke: #000000; stroke-opacity: 0.7"/>
     <use xlink:href="#mfb2f61bbfd" x="246.658761" y="112.640934" style="fill-opacity: 0.7; stroke: #000000; stroke-opacity: 0.7"/>
     <use xlink:href="#mfb2f61bbfd" x="283.663536" y="103.015349" style="fill-opacity: 0.7; stroke: #000000; stroke-opacity: 0.7"/>
     <use xlink:href="#mfb2f61bbfd" x="320.668311" y="93.188049" style="fill-opacity: 0.7; stroke: #000000; stroke-opacity: 0.7"/>
     <use xlink:href="#mfb2f61bbfd" x="357.673086" y="85.041577" style="fill-opacity: 0.7; stroke: #000000; stroke-opacity: 0.7"/>
     <use xlink:href="#mfb2f61bbfd" x="394.677861" y="75.88399" style="fill-opacity: 0.7; stroke: #000000; stroke-opacity: 0.7"/>
     <use xlink:href="#mfb2f61bbfd" x="431.682636" y="68.545873" style="fill-opacity: 0.7; stroke: #000000; stroke-opacity: 0.7"/>
    </g>
   </g>
   <g id="FillBetweenPolyCollection_3">
    <path d="M 65.335364 219.114235 
L 65.335364 276.824387 
L 72.811839 270.309654 
L 80.288314 265.99551 
L 87.764788 260.630874 
L 95.241263 259.000244 
L 102.717738 254.575931 
L 110.194213 252.734538 
L 117.670688 250.1598 
L 125.147163 247.486497 
L 132.623638 246.521879 
L 140.100113 243.50949 
L 147.576588 243.194635 
L 155.053063 240.221186 
L 162.529538 239.552645 
L 170.006013 236.605183 
L 177.482488 235.575968 
L 184.958963 234.055194 
L 192.435438 232.415405 
L 199.911913 230.645478 
L 207.388388 228.798737 
L 214.864863 227.340067 
L 222.341338 226.735809 
L 229.817813 225.049501 
L 237.294288 223.041809 
L 244.770763 222.501491 
L 252.247237 220.297045 
L 259.723712 219.717679 
L 267.200187 218.170332 
L 274.676662 217.202677 
L 282.153137 217.8984 
L 289.629612 216.546001 
L 297.106087 215.327931 
L 304.582562 214.711485 
L 312.059037 213.517322 
L 319.535512 213.058684 
L 327.011987 211.330864 
L 334.488462 210.671962 
L 341.964937 211.76221 
L 349.441412 209.238772 
L 356.917887 207.541617 
L 364.394362 207.904312 
L 371.870837 206.82895 
L 379.347312 205.130369 
L 386.823787 205.921603 
L 394.300262 204.759297 
L 401.776737 204.971079 
L 409.253212 202.829539 
L 416.729686 203.554768 
L 424.206161 202.718993 
L 431.682636 200.459045 
L 431.682636 143.313314 
L 431.682636 143.313314 
L 424.206161 146.064862 
L 416.729686 146.874352 
L 409.253212 147.154386 
L 401.776737 148.756583 
L 394.300262 148.731303 
L 386.823787 149.151809 
L 379.347312 151.250714 
L 371.870837 151.458482 
L 364.394362 150.922219 
L 356.917887 153.559974 
L 349.441412 153.252247 
L 341.964937 154.436816 
L 334.488462 154.502245 
L 327.011987 156.049545 
L 319.535512 155.548662 
L 312.059037 157.297602 
L 304.582562 158.443247 
L 297.106087 159.252868 
L 289.629612 160.586413 
L 282.153137 161.264331 
L 274.676662 162.652276 
L 267.200187 163.096906 
L 259.723712 164.423263 
L 252.247237 165.082625 
L 244.770763 166.734939 
L 237.294288 167.742171 
L 229.817813 168.960835 
L 222.341338 170.715407 
L 214.864863 172.067498 
L 207.388388 173.348838 
L 199.911913 174.850201 
L 192.435438 175.663695 
L 184.958963 176.924095 
L 177.482488 178.133011 
L 170.006013 180.550782 
L 162.529538 183.942421 
L 155.053063 184.131145 
L 147.576588 185.726782 
L 140.100113 187.519043 
L 132.623638 189.883079 
L 125.147163 191.929649 
L 117.670688 193.466539 
L 110.194213 196.165882 
L 102.717738 199.154626 
L 95.241263 202.435407 
L 87.764788 205.768883 
L 80.288314 208.496907 
L 72.811839 214.032114 
L 65.335364 219.114235 
z
" clip-path="url(#p481409a279)" style="fill: #2ca02c; fill-opacity: 0.45"/>
   </g>
   <g id="PathCollection_3">
    <g clip-path="url(#p481409a279)">
     <use xlink:href="#mfb2f61bbfd" x="65.335364" y="220.690529" style="fill-opacity: 0.7; stroke: #000000; stroke-opacity: 0.7"/>
     <use xlink:href="#mfb2f61bbfd" x="98.639661" y="192.4545" style="fill-opacity: 0.7; stroke: #000000; stroke-opacity: 0.7"/>
     <use xlink:href="#mfb2f61bbfd" x="135.644436" y="175.687864" style="fill-opacity: 0.7; stroke: #000000; stroke-opacity: 0.7"/>
     <use xlink:href="#mfb2f61bbfd" x="172.649211" y="161.529413" style="fill-opacity: 0.7; stroke: #000000; stroke-opacity: 0.7"/>
     <use xlink:href="#mfb2f61bbfd" x="209.653986" y="149.875484" style="fill-opacity: 0.7; stroke: #000000; stroke-opacity: 0.7"/>
     <use xlink:href="#mfb2f61bbfd" x="246.658761" y="142.428152" style="fill-opacity: 0.7; stroke: #000000; stroke-opacity: 0.7"/>
     <use xlink:href="#mfb2f61bbfd" x="283.663536" y="133.8969" style="fill-opacity: 0.7; stroke: #000000; stroke-opacity: 0.7"/>
     <use xlink:href="#mfb2f61bbfd" x="320.668311" y="125.910396" style="fill-opacity: 0.7; stroke: #000000; stroke-opacity: 0.7"/>
     <use xlink:href="#mfb2f61bbfd" x="357.673086" y="117.285687" style="fill-opacity: 0.7; stroke: #000000; stroke-opacity: 0.7"/>
     <use xlink:href="#mfb2f61bbfd" x="394.677861" y="110.862591" style="fill-opacity: 0.7; stroke: #000000; stroke-opacity: 0.7"/>
     <use xlink:href="#mfb2f61bbfd" x="431.682636" y="103.878298" style="fill-opacity: 0.7; stroke: #000000; stroke-opacity: 0.7"/>
    </g>
   </g>
   <g id="FillBetweenPolyCollection_4">
    <path d="M 65.335364 217.569805 
L 65.335364 275.003761 
L 72.811839 269.412626 
L 80.288314 264.889266 
L 87.764788 262.292501 
L 95.241263 259.48909 
L 102.717738 255.293686 
L 110.194213 252.7139 
L 117.670688 252.077624 
L 125.147163 249.066566 
L 132.623638 247.560608 
L 140.100113 246.578706 
L 147.576588 245.496893 
L 155.053063 243.143739 
L 162.529538 241.166275 
L 170.006013 239.521235 
L 177.482488 238.931222 
L 184.958963 236.241108 
L 192.435438 234.922414 
L 199.911913 233.367278 
L 207.388388 233.726999 
L 214.864863 232.037293 
L 222.341338 230.323338 
L 229.817813 228.948646 
L 237.294288 228.137455 
L 244.770763 226.52865 
L 252.247237 225.668016 
L 259.723712 225.126269 
L 267.200187 224.417178 
L 274.676662 223.16328 
L 282.153137 222.183304 
L 289.629612 221.243366 
L 297.106087 220.578778 
L 304.582562 219.668461 
L 312.059037 217.81622 
L 319.535512 217.413197 
L 327.011987 216.064202 
L 334.488462 216.099459 
L 341.964937 214.906665 
L 349.441412 215.423125 
L 356.917887 214.16027 
L 364.394362 213.199956 
L 371.870837 213.230615 
L 379.347312 212.03648 
L 386.823787 211.972694 
L 394.300262 211.144155 
L 401.776737 210.184165 
L 409.253212 211.052041 
L 416.729686 209.787058 
L 424.206161 209.970901 
L 431.682636 209.314661 
L 431.682636 151.666709 
L 431.682636 151.666709 
L 424.206161 152.948163 
L 416.729686 153.180037 
L 409.253212 153.954364 
L 401.776737 154.847713 
L 394.300262 155.661951 
L 386.823787 156.117412 
L 379.347312 156.550013 
L 371.870837 157.361683 
L 364.394362 158.411145 
L 356.917887 157.935112 
L 349.441412 158.516583 
L 341.964937 160.007295 
L 334.488462 160.823533 
L 327.011987 161.109991 
L 319.535512 162.670492 
L 312.059037 161.77589 
L 304.582562 164.292926 
L 297.106087 164.469351 
L 289.629612 164.361429 
L 282.153137 167.265408 
L 274.676662 167.231662 
L 267.200187 168.810602 
L 259.723712 169.277571 
L 252.247237 170.457947 
L 244.770763 170.150049 
L 237.294288 171.462216 
L 229.817813 173.157504 
L 222.341338 174.271692 
L 214.864863 174.782027 
L 207.388388 176.586053 
L 199.911913 178.99222 
L 192.435438 178.913452 
L 184.958963 181.31762 
L 177.482488 182.569279 
L 170.006013 184.488194 
L 162.529538 185.627291 
L 155.053063 186.785078 
L 147.576588 188.085759 
L 140.100113 190.902387 
L 132.623638 192.731792 
L 125.147163 193.473195 
L 117.670688 194.400915 
L 110.194213 197.867705 
L 102.717738 200.357829 
L 95.241263 203.625509 
L 87.764788 205.495175 
L 80.288314 208.697851 
L 72.811839 212.042401 
L 65.335364 217.569805 
z
" clip-path="url(#p481409a279)" style="fill: #d62728; fill-opacity: 0.45"/>
   </g>
   <g id="PathCollection_4">
    <g clip-path="url(#p481409a279)">
     <use xlink:href="#mfb2f61bbfd" x="65.335364" y="231.332353" style="fill-opacity: 0.7; stroke: #000000; stroke-opacity: 0.7"/>
     <use xlink:href="#mfb2f61bbfd" x="98.639661" y="207.55648" style="fill-opacity: 0.7; stroke: #000000; stroke-opacity: 0.7"/>
     <use xlink:href="#mfb2f61bbfd" x="135.644436" y="193.054633" style="fill-opacity: 0.7; stroke: #000000; stroke-opacity: 0.7"/>
     <use xlink:href="#mfb2f61bbfd" x="172.649211" y="182.486087" style="fill-opacity: 0.7; stroke: #000000; stroke-opacity: 0.7"/>
     <use xlink:href="#mfb2f61bbfd" x="209.653986" y="172.88051" style="fill-opacity: 0.7; stroke: #000000; stroke-opacity: 0.7"/>
     <use xlink:href="#mfb2f61bbfd" x="246.658761" y="166.135891" style="fill-opacity: 0.7; stroke: #000000; stroke-opacity: 0.7"/>
     <use xlink:href="#mfb2f61bbfd" x="283.663536" y="158.646391" style="fill-opacity: 0.7; stroke: #000000; stroke-opacity: 0.7"/>
     <use xlink:href="#mfb2f61bbfd" x="320.668311" y="151.777231" style="fill-opacity: 0.7; stroke: #000000; stroke-opacity: 0.7"/>
     <use xlink:href="#mfb2f61bbfd" x="357.673086" y="144.867829" style="fill-opacity: 0.7; stroke: #000000; stroke-opacity: 0.7"/>
     <use xlink:href="#mfb2f61bbfd" x="394.677861" y="140.684554" style="fill-opacity: 0.7; stroke: #000000; stroke-opacity: 0.7"/>
     <use xlink:href="#mfb2f61bbfd" x="431.682636" y="135.53741" style="fill-opacity: 0.7; stroke: #000000; stroke-opacity: 0.7"/>
    </g>
   </g>
   <g id="FillBetweenPolyCollection_5">
    <path d="M 65.335364 218.867887 
L 65.335364 276.354587 
L 72.811839 272.808531 
L 80.288314 267.898473 
L 87.764788 263.848759 
L 95.241263 261.830284 
L 102.717738 259.696876 
L 110.194213 257.993815 
L 117.670688 255.660567 
L 125.147163 254.589518 
L 132.623638 252.50728 
L 140.100113 251.043604 
L 147.576588 249.691891 
L 155.053063 247.019511 
L 162.529538 246.707015 
L 170.006013 245.480878 
L 177.482488 244.946397 
L 184.958963 241.966061 
L 192.435438 241.351975 
L 199.911913 241.00288 
L 207.388388 239.262366 
L 214.864863 238.189099 
L 222.341338 237.799637 
L 229.817813 236.889374 
L 237.294288 235.590925 
L 244.770763 235.193784 
L 252.247237 232.97327 
L 259.723712 233.565389 
L 267.200187 231.942914 
L 274.676662 231.500555 
L 282.153137 230.551616 
L 289.629612 229.109432 
L 297.106087 227.861548 
L 304.582562 227.290194 
L 312.059037 226.353499 
L 319.535512 226.338687 
L 327.011987 224.848662 
L 334.488462 224.096764 
L 341.964937 223.809083 
L 349.441412 223.37799 
L 356.917887 222.472018 
L 364.394362 222.163258 
L 371.870837 221.024174 
L 379.347312 221.714714 
L 386.823787 220.49477 
L 394.300262 219.992675 
L 401.776737 219.406934 
L 409.253212 219.578912 
L 416.729686 218.630459 
L 424.206161 218.055974 
L 431.682636 218.560981 
L 431.682636 160.694688 
L 431.682636 160.694688 
L 424.206161 160.714252 
L 416.729686 161.969964 
L 409.253212 163.234187 
L 401.776737 162.999046 
L 394.300262 163.487436 
L 386.823787 164.126925 
L 379.347312 164.495905 
L 371.870837 165.539618 
L 364.394362 166.732954 
L 356.917887 167.372985 
L 349.441412 167.815529 
L 341.964937 169.155487 
L 334.488462 169.154951 
L 327.011987 169.901514 
L 319.535512 170.30974 
L 312.059037 170.849558 
L 304.582562 171.807861 
L 297.106087 172.303269 
L 289.629612 173.309315 
L 282.153137 173.77495 
L 274.676662 174.448931 
L 267.200187 176.283637 
L 259.723712 176.924265 
L 252.247237 176.817539 
L 244.770763 179.196126 
L 237.294288 179.887005 
L 229.817813 180.620509 
L 222.341338 182.235913 
L 214.864863 184.182393 
L 207.388388 183.236893 
L 199.911913 184.639246 
L 192.435438 186.349758 
L 184.958963 187.117164 
L 177.482488 188.728337 
L 170.006013 188.799025 
L 162.529538 190.60046 
L 155.053063 191.983331 
L 147.576588 192.994449 
L 140.100113 195.18783 
L 132.623638 196.900282 
L 125.147163 198.064812 
L 117.670688 200.18654 
L 110.194213 200.910477 
L 102.717738 204.245833 
L 95.241263 205.08839 
L 87.764788 208.231029 
L 80.288314 211.341647 
L 72.811839 214.72526 
L 65.335364 218.867887 
z
" clip-path="url(#p481409a279)" style="fill: #9467bd; fill-opacity: 0.45"/>
   </g>
   <g id="PathCollection_5">
    <g clip-path="url(#p481409a279)">
     <use xlink:href="#mfb2f61bbfd" x="65.335364" y="240.608935" style="fill-opacity: 0.7; stroke: #000000; stroke-opacity: 0.7"/>
     <use xlink:href="#mfb2f61bbfd" x="98.639661" y="219.809989" style="fill-opacity: 0.7; stroke: #000000; stroke-opacity: 0.7"/>
     <use xlink:href="#mfb2f61bbfd" x="135.644436" y="208.809755" style="fill-opacity: 0.7; stroke: #000000; stroke-opacity: 0.7"/>
     <use xlink:href="#mfb2f61bbfd" x="172.649211" y="199.161034" style="fill-opacity: 0.7; stroke: #000000; stroke-opacity: 0.7"/>
     <use xlink:href="#mfb2f61bbfd" x="209.653986" y="193.678029" style="fill-opacity: 0.7; stroke: #000000; stroke-opacity: 0.7"/>
     <use xlink:href="#mfb2f61bbfd" x="246.658761" y="185.584681" style="fill-opacity: 0.7; stroke: #000000; stroke-opacity: 0.7"/>
     <use xlink:href="#mfb2f61bbfd" x="283.663536" y="179.893154" style="fill-opacity: 0.7; stroke: #000000; stroke-opacity: 0.7"/>
     <use xlink:href="#mfb2f61bbfd" x="320.668311" y="176.025468" style="fill-opacity: 0.7; stroke: #000000; stroke-opacity: 0.7"/>
     <use xlink:href="#mfb2f61bbfd" x="357.673086" y="170.246381" style="fill-opacity: 0.7; stroke: #000000; stroke-opacity: 0.7"/>
     <use xlink:href="#mfb2f61bbfd" x="394.677861" y="165.064937" style="fill-opacity: 0.7; stroke: #000000; stroke-opacity: 0.7"/>
     <use xlink:href="#mfb2f61bbfd" x="431.682636" y="161.385398" style="fill-opacity: 0.7; stroke: #000000; stroke-opacity: 0.7"/>
    </g>
   </g>
   <g id="FillBetweenPolyCollection_6">
    <path d="M 65.335364 221.312587 
L 65.335364 278.407235 
L 72.811839 276.494262 
L 80.288314 271.770166 
L 87.764788 269.229679 
L 95.241263 267.71564 
L 102.717738 264.689521 
L 110.194213 263.532369 
L 117.670688 262.192559 
L 125.147163 260.580256 
L 132.623638 258.900595 
L 140.100113 258.480708 
L 147.576588 257.579188 
L 155.053063 256.167446 
L 162.529538 254.274429 
L 170.006013 253.192884 
L 177.482488 251.617671 
L 184.958963 252.27609 
L 192.435438 250.794821 
L 199.911913 249.805869 
L 207.388388 249.665364 
L 214.864863 247.367763 
L 222.341338 246.446077 
L 229.817813 246.089092 
L 237.294288 245.185972 
L 244.770763 243.075067 
L 252.247237 243.867467 
L 259.723712 243.869923 
L 267.200187 242.176438 
L 274.676662 241.307533 
L 282.153137 240.816714 
L 289.629612 240.167789 
L 297.106087 238.86232 
L 304.582562 238.15596 
L 312.059037 238.093403 
L 319.535512 237.320884 
L 327.011987 236.520457 
L 334.488462 235.952091 
L 341.964937 235.822862 
L 349.441412 234.907425 
L 356.917887 234.326289 
L 364.394362 235.115609 
L 371.870837 232.834198 
L 379.347312 233.157168 
L 386.823787 231.932932 
L 394.300262 232.040387 
L 401.776737 230.495423 
L 409.253212 231.507875 
L 416.729686 230.047032 
L 424.206161 229.59059 
L 431.682636 230.770895 
L 431.682636 171.83309 
L 431.682636 171.83309 
L 424.206161 173.444147 
L 416.729686 174.046306 
L 409.253212 174.353926 
L 401.776737 174.260706 
L 394.300262 175.093188 
L 386.823787 175.460551 
L 379.347312 176.461306 
L 371.870837 176.909513 
L 364.394362 177.830515 
L 356.917887 178.136882 
L 349.441412 178.328063 
L 341.964937 179.406613 
L 334.488462 180.044577 
L 327.011987 179.802185 
L 319.535512 182.225501 
L 312.059037 181.930328 
L 304.582562 182.811474 
L 297.106087 184.014971 
L 289.629612 184.373615 
L 282.153137 183.720446 
L 274.676662 186.002032 
L 267.200187 185.845818 
L 259.723712 186.797145 
L 252.247237 187.331528 
L 244.770763 188.004168 
L 237.294288 189.622912 
L 229.817813 189.761074 
L 222.341338 190.639549 
L 214.864863 192.660098 
L 207.388388 193.634484 
L 199.911913 193.857719 
L 192.435438 193.345075 
L 184.958963 195.195144 
L 177.482488 196.368574 
L 170.006013 197.614646 
L 162.529538 197.793779 
L 155.053063 199.163367 
L 147.576588 199.923349 
L 140.100113 201.77286 
L 132.623638 203.389087 
L 125.147163 204.486733 
L 117.670688 206.355651 
L 110.194213 208.961452 
L 102.717738 208.72906 
L 95.241263 210.581678 
L 87.764788 212.801667 
L 80.288314 215.364097 
L 72.811839 219.659921 
L 65.335364 221.312587 
z
" clip-path="url(#p481409a279)" style="fill: #8c564b; fill-opacity: 0.45"/>
   </g>
   <g id="PathCollection_6">
    <g clip-path="url(#p481409a279)">
     <use xlink:href="#mfb2f61bbfd" x="65.335364" y="246.660507" style="fill-opacity: 0.7; stroke: #000000; stroke-opacity: 0.7"/>
     <use xlink:href="#mfb2f61bbfd" x="98.639661" y="229.968575" style="fill-opacity: 0.7; stroke: #000000; stroke-opacity: 0.7"/>
     <use xlink:href="#mfb2f61bbfd" x="135.644436" y="221.981638" style="fill-opacity: 0.7; stroke: #000000; stroke-opacity: 0.7"/>
     <use xlink:href="#mfb2f61bbfd" x="172.649211" y="215.403346" style="fill-opacity: 0.7; stroke: #000000; stroke-opacity: 0.7"/>
     <use xlink:href="#mfb2f61bbfd" x="209.653986" y="209.933899" style="fill-opacity: 0.7; stroke: #000000; stroke-opacity: 0.7"/>
     <use xlink:href="#mfb2f61bbfd" x="246.658761" y="204.09636" style="fill-opacity: 0.7; stroke: #000000; stroke-opacity: 0.7"/>
     <use xlink:href="#mfb2f61bbfd" x="283.663536" y="200.050422" style="fill-opacity: 0.7; stroke: #000000; stroke-opacity: 0.7"/>
     <use xlink:href="#mfb2f61bbfd" x="320.668311" y="195.892147" style="fill-opacity: 0.7; stroke: #000000; stroke-opacity: 0.7"/>
     <use xlink:href="#mfb2f61bbfd" x="357.673086" y="191.999841" style="fill-opacity: 0.7; stroke: #000000; stroke-opacity: 0.7"/>
     <use xlink:href="#mfb2f61bbfd" x="394.677861" y="187.961654" style="fill-opacity: 0.7; stroke: #000000; stroke-opacity: 0.7"/>
     <use xlink:href="#mfb2f61bbfd" x="431.682636" y="185.530728" style="fill-opacity: 0.7; stroke: #000000; stroke-opacity: 0.7"/>
    </g>
   </g>
   <g id="FillBetweenPolyCollection_7">
    <path d="M 65.335364 224.444495 
L 65.335364 283.896801 
L 72.811839 280.859167 
L 80.288314 277.600418 
L 87.764788 275.568089 
L 95.241263 273.428287 
L 102.717738 272.266678 
L 110.194213 269.762746 
L 117.670688 269.30193 
L 125.147163 268.309957 
L 132.623638 266.838534 
L 140.100113 266.438312 
L 147.576588 264.825655 
L 155.053063 263.839832 
L 162.529538 262.696623 
L 170.006013 262.711872 
L 177.482488 261.492279 
L 184.958963 259.973553 
L 192.435438 259.535883 
L 199.911913 258.634128 
L 207.388388 258.789604 
L 214.864863 257.918759 
L 222.341338 257.057888 
L 229.817813 256.750638 
L 237.294288 255.315631 
L 244.770763 255.495584 
L 252.247237 255.177342 
L 259.723712 252.843295 
L 267.200187 253.662335 
L 274.676662 253.029938 
L 282.153137 252.667511 
L 289.629612 251.701859 
L 297.106087 249.969309 
L 304.582562 250.744807 
L 312.059037 248.866765 
L 319.535512 249.32439 
L 327.011987 250.530559 
L 334.488462 249.966564 
L 341.964937 247.298458 
L 349.441412 247.20617 
L 356.917887 246.847589 
L 364.394362 246.866319 
L 371.870837 246.296853 
L 379.347312 244.772856 
L 386.823787 245.820263 
L 394.300262 245.471651 
L 401.776737 243.066972 
L 409.253212 243.779642 
L 416.729686 243.686432 
L 424.206161 243.547153 
L 431.682636 243.652679 
L 431.682636 183.795751 
L 431.682636 183.795751 
L 424.206161 185.712097 
L 416.729686 186.099442 
L 409.253212 186.089382 
L 401.776737 186.809065 
L 394.300262 188.369838 
L 386.823787 188.860386 
L 379.347312 188.942153 
L 371.870837 189.040334 
L 364.394362 190.416912 
L 356.917887 190.987847 
L 349.441412 191.424067 
L 341.964937 191.48441 
L 334.488462 192.073451 
L 327.011987 194.495661 
L 319.535512 193.245469 
L 312.059037 193.746922 
L 304.582562 194.235267 
L 297.106087 194.011039 
L 289.629612 194.584163 
L 282.153137 195.021697 
L 274.676662 197.143704 
L 267.200187 196.735339 
L 259.723712 196.988884 
L 252.247237 197.403748 
L 244.770763 198.59646 
L 237.294288 199.682661 
L 229.817813 200.290094 
L 222.341338 201.395337 
L 214.864863 201.676506 
L 207.388388 202.311927 
L 199.911913 203.232034 
L 192.435438 203.272196 
L 184.958963 203.923476 
L 177.482488 205.04142 
L 170.006013 205.715645 
L 162.529538 206.89924 
L 155.053063 206.554823 
L 147.576588 208.918335 
L 140.100113 209.973458 
L 132.623638 210.174016 
L 125.147163 211.247104 
L 117.670688 211.618994 
L 110.194213 212.013688 
L 102.717738 215.37795 
L 95.241263 215.756011 
L 87.764788 217.735424 
L 80.288314 219.560687 
L 72.811839 221.126041 
L 65.335364 224.444495 
z
" clip-path="url(#p481409a279)" style="fill: #e377c2; fill-opacity: 0.45"/>
   </g>
   <g id="PathCollection_7">
    <g clip-path="url(#p481409a279)">
     <use xlink:href="#mfb2f61bbfd" x="65.335364" y="253.875544" style="fill-opacity: 0.7; stroke: #000000; stroke-opacity: 0.7"/>
     <use xlink:href="#mfb2f61bbfd" x="98.639661" y="242.30881" style="fill-opacity: 0.7; stroke: #000000; stroke-opacity: 0.7"/>
     <use xlink:href="#mfb2f61bbfd" x="135.644436" y="233.340213" style="fill-opacity: 0.7; stroke: #000000; stroke-opacity: 0.7"/>
     <use xlink:href="#mfb2f61bbfd" x="172.649211" y="228.791988" style="fill-opacity: 0.7; stroke: #000000; stroke-opacity: 0.7"/>
     <use xlink:href="#mfb2f61bbfd" x="209.653986" y="223.646066" style="fill-opacity: 0.7; stroke: #000000; stroke-opacity: 0.7"/>
     <use xlink:href="#mfb2f61bbfd" x="246.658761" y="220.720526" style="fill-opacity: 0.7; stroke: #000000; stroke-opacity: 0.7"/>
     <use xlink:href="#mfb2f61bbfd" x="283.663536" y="217.726618" style="fill-opacity: 0.7; stroke: #000000; stroke-opacity: 0.7"/>
     <use xlink:href="#mfb2f61bbfd" x="320.668311" y="213.906168" style="fill-opacity: 0.7; stroke: #000000; stroke-opacity: 0.7"/>
     <use xlink:href="#mfb2f61bbfd" x="357.673086" y="211.318886" style="fill-opacity: 0.7; stroke: #000000; stroke-opacity: 0.7"/>
     <use xlink:href="#mfb2f61bbfd" x="394.677861" y="209.26795" style="fill-opacity: 0.7; stroke: #000000; stroke-opacity: 0.7"/>
     <use xlink:href="#mfb2f61bbfd" x="431.682636" y="206.488909" style="fill-opacity: 0.7; stroke: #000000; stroke-opacity: 0.7"/>
    </g>
   </g>
   <g id="FillBetweenPolyCollection_8">
    <path d="M 65.335364 228.226738 
L 65.335364 288.954545 
L 72.811839 288.068099 
L 80.288314 286.103226 
L 87.764788 283.912218 
L 95.241263 282.38865 
L 102.717738 280.724041 
L 110.194213 280.305172 
L 117.670688 279.491093 
L 125.147163 279.604154 
L 132.623638 277.257063 
L 140.100113 277.572772 
L 147.576588 276.343537 
L 155.053063 276.729996 
L 162.529538 275.76475 
L 170.006013 275.760944 
L 177.482488 274.223659 
L 184.958963 274.503131 
L 192.435438 274.130443 
L 199.911913 273.563689 
L 207.388388 273.71801 
L 214.864863 273.396166 
L 222.341338 273.182479 
L 229.817813 272.101634 
L 237.294288 272.657105 
L 244.770763 271.381031 
L 252.247237 270.711815 
L 259.723712 269.311926 
L 267.200187 270.561331 
L 274.676662 268.412025 
L 282.153137 269.591951 
L 289.629612 269.068182 
L 297.106087 268.390857 
L 304.582562 269.232923 
L 312.059037 268.71822 
L 319.535512 267.376088 
L 327.011987 266.937448 
L 334.488462 267.424355 
L 341.964937 266.744868 
L 349.441412 266.2723 
L 356.917887 265.002284 
L 364.394362 265.148955 
L 371.870837 264.508617 
L 379.347312 265.100601 
L 386.823787 264.033231 
L 394.300262 263.591856 
L 401.776737 264.65736 
L 409.253212 262.949979 
L 416.729686 263.042658 
L 424.206161 262.277888 
L 431.682636 262.838084 
L 431.682636 202.012607 
L 431.682636 202.012607 
L 424.206161 201.760655 
L 416.729686 202.97517 
L 409.253212 202.859072 
L 401.776737 204.506708 
L 394.300262 206.486472 
L 386.823787 204.119305 
L 379.347312 204.273281 
L 371.870837 206.881905 
L 364.394362 206.536242 
L 356.917887 206.841482 
L 349.441412 207.294556 
L 341.964937 206.900128 
L 334.488462 208.295948 
L 327.011987 209.10561 
L 319.535512 209.608829 
L 312.059037 210.538983 
L 304.582562 210.885163 
L 297.106087 211.627179 
L 289.629612 211.570738 
L 282.153137 212.095349 
L 274.676662 212.329351 
L 267.200187 211.374285 
L 259.723712 212.298053 
L 252.247237 212.198012 
L 244.770763 213.459537 
L 237.294288 213.758157 
L 229.817813 213.427687 
L 222.341338 214.422108 
L 214.864863 213.815889 
L 207.388388 216.157425 
L 199.911913 214.499942 
L 192.435438 216.114244 
L 184.958963 215.316471 
L 177.482488 215.239453 
L 170.006013 217.797863 
L 162.529538 217.232367 
L 155.053063 218.021854 
L 147.576588 218.936814 
L 140.100113 219.378672 
L 132.623638 219.13388 
L 125.147163 220.336629 
L 117.670688 220.731957 
L 110.194213 221.236822 
L 102.717738 222.328539 
L 95.241263 222.923537 
L 87.764788 223.665835 
L 80.288314 226.148436 
L 72.811839 227.66246 
L 65.335364 228.226738 
z
" clip-path="url(#p481409a279)" style="fill: #7f7f7f; fill-opacity: 0.45"/>
   </g>
   <g id="PathCollection_8">
    <g clip-path="url(#p481409a279)">
     <use xlink:href="#mfb2f61bbfd" x="65.335364" y="256.903141" style="fill-opacity: 0.7; stroke: #000000; stroke-opacity: 0.7"/>
     <use xlink:href="#mfb2f61bbfd" x="98.639661" y="249.233473" style="fill-opacity: 0.7; stroke: #000000; stroke-opacity: 0.7"/>
     <use xlink:href="#mfb2f61bbfd" x="135.644436" y="244.386266" style="fill-opacity: 0.7; stroke: #000000; stroke-opacity: 0.7"/>
     <use xlink:href="#mfb2f61bbfd" x="172.649211" y="241.159897" style="fill-opacity: 0.7; stroke: #000000; stroke-opacity: 0.7"/>
     <use xlink:href="#mfb2f61bbfd" x="209.653986" y="238.372281" style="fill-opacity: 0.7; stroke: #000000; stroke-opacity: 0.7"/>
     <use xlink:href="#mfb2f61bbfd" x="246.658761" y="234.825821" style="fill-opacity: 0.7; stroke: #000000; stroke-opacity: 0.7"/>
     <use xlink:href="#mfb2f61bbfd" x="283.663536" y="233.009409" style="fill-opacity: 0.7; stroke: #000000; stroke-opacity: 0.7"/>
     <use xlink:href="#mfb2f61bbfd" x="320.668311" y="231.196925" style="fill-opacity: 0.7; stroke: #000000; stroke-opacity: 0.7"/>
     <use xlink:href="#mfb2f61bbfd" x="357.673086" y="228.812746" style="fill-opacity: 0.7; stroke: #000000; stroke-opacity: 0.7"/>
     <use xlink:href="#mfb2f61bbfd" x="394.677861" y="227.349796" style="fill-opacity: 0.7; stroke: #000000; stroke-opacity: 0.7"/>
     <use xlink:href="#mfb2f61bbfd" x="431.682636" y="224.930652" style="fill-opacity: 0.7; stroke: #000000; stroke-opacity: 0.7"/>
    </g>
   </g>
   <g id="matplotlib.axis_1">
    <g id="xtick_1">
     <g id="line2d_1">
      <defs>
       <path id="mdd507f58e9" d="M 0 0 
L 0 3.5 
" style="stroke: #000000; stroke-width: 0.8"/>
      </defs>
      <g>
       <use xlink:href="#mdd507f58e9" x="61.634886" y="302.2" style="stroke: #000000; stroke-width: 0.8"/>
      </g>
     </g>
     <g id="text_1">
      <!-- 0 -->
      <g transform="translate(58.453636 316.798437) scale(0.1 -0.1)">
       <defs>
        <path id="DejaVuSans-30" d="M 2034 4250 
Q 1547 4250 1301 3770 
Q 1056 3291 1056 2328 
Q 1056 1369 1301 889 
Q 1547 409 2034 409 
Q 2525 409 2770 889 
Q 3016 1369 3016 2328 
Q 3016 3291 2770 3770 
Q 2525 4250 2034 4250 
z
M 2034 4750 
Q 2819 4750 3233 4129 
Q 3647 3509 3647 2328 
Q 3647 1150 3233 529 
Q 2819 -91 2034 -91 
Q 1250 -91 836 529 
Q 422 1150 422 2328 
Q 422 3509 836 4129 
Q 1250 4750 2034 4750 
z
" transform="scale(0.015625)"/>
       </defs>
       <use xlink:href="#DejaVuSans-30"/>
      </g>
     </g>
    </g>
    <g id="xtick_2">
     <g id="line2d_2">
      <g>
       <use xlink:href="#mdd507f58e9" x="135.644436" y="302.2" style="stroke: #000000; stroke-width: 0.8"/>
      </g>
     </g>
     <g id="text_2">
      <!-- 1 -->
      <g transform="translate(132.463186 316.798437) scale(0.1 -0.1)">
       <defs>
        <path id="DejaVuSans-31" d="M 794 531 
L 1825 531 
L 1825 4091 
L 703 3866 
L 703 4441 
L 1819 4666 
L 2450 4666 
L 2450 531 
L 3481 531 
L 3481 0 
L 794 0 
L 794 531 
z
" transform="scale(0.015625)"/>
       </defs>
       <use xlink:href="#DejaVuSans-31"/>
      </g>
     </g>
    </g>
    <g id="xtick_3">
     <g id="line2d_3">
      <g>
       <use xlink:href="#mdd507f58e9" x="209.653986" y="302.2" style="stroke: #000000; stroke-width: 0.8"/>
      </g>
     </g>
     <g id="text_3">
      <!-- 2 -->
      <g transform="translate(206.472736 316.798437) scale(0.1 -0.1)">
       <defs>
        <path id="DejaVuSans-32" d="M 1228 531 
L 3431 531 
L 3431 0 
L 469 0 
L 469 531 
Q 828 903 1448 1529 
Q 2069 2156 2228 2338 
Q 2531 2678 2651 2914 
Q 2772 3150 2772 3378 
Q 2772 3750 2511 3984 
Q 2250 4219 1831 4219 
Q 1534 4219 1204 4116 
Q 875 4013 500 3803 
L 500 4441 
Q 881 4594 1212 4672 
Q 1544 4750 1819 4750 
Q 2544 4750 2975 4387 
Q 3406 4025 3406 3419 
Q 3406 3131 3298 2873 
Q 3191 2616 2906 2266 
Q 2828 2175 2409 1742 
Q 1991 1309 1228 531 
z
" transform="scale(0.015625)"/>
       </defs>
       <use xlink:href="#DejaVuSans-32"/>
      </g>
     </g>
    </g>
    <g id="xtick_4">
     <g id="line2d_4">
      <g>
       <use xlink:href="#mdd507f58e9" x="283.663536" y="302.2" style="stroke: #000000; stroke-width: 0.8"/>
      </g>
     </g>
     <g id="text_4">
      <!-- 3 -->
      <g transform="translate(280.482286 316.798437) scale(0.1 -0.1)">
       <defs>
        <path id="DejaVuSans-33" d="M 2597 2516 
Q 3050 2419 3304 2112 
Q 3559 1806 3559 1356 
Q 3559 666 3084 287 
Q 2609 -91 1734 -91 
Q 1441 -91 1130 -33 
Q 819 25 488 141 
L 488 750 
Q 750 597 1062 519 
Q 1375 441 1716 441 
Q 2309 441 2620 675 
Q 2931 909 2931 1356 
Q 2931 1769 2642 2001 
Q 2353 2234 1838 2234 
L 1294 2234 
L 1294 2753 
L 1863 2753 
Q 2328 2753 2575 2939 
Q 2822 3125 2822 3475 
Q 2822 3834 2567 4026 
Q 2313 4219 1838 4219 
Q 1578 4219 1281 4162 
Q 984 4106 628 3988 
L 628 4550 
Q 988 4650 1302 4700 
Q 1616 4750 1894 4750 
Q 2613 4750 3031 4423 
Q 3450 4097 3450 3541 
Q 3450 3153 3228 2886 
Q 3006 2619 2597 2516 
z
" transform="scale(0.015625)"/>
       </defs>
       <use xlink:href="#DejaVuSans-33"/>
      </g>
     </g>
    </g>
    <g id="xtick_5">
     <g id="line2d_5">
      <g>
       <use xlink:href="#mdd507f58e9" x="357.673086" y="302.2" style="stroke: #000000; stroke-width: 0.8"/>
      </g>
     </g>
     <g id="text_5">
      <!-- 4 -->
      <g transform="translate(354.491836 316.798437) scale(0.1 -0.1)">
       <defs>
        <path id="DejaVuSans-34" d="M 2419 4116 
L 825 1625 
L 2419 1625 
L 2419 4116 
z
M 2253 4666 
L 3047 4666 
L 3047 1625 
L 3713 1625 
L 3713 1100 
L 3047 1100 
L 3047 0 
L 2419 0 
L 2419 1100 
L 313 1100 
L 313 1709 
L 2253 4666 
z
" transform="scale(0.015625)"/>
       </defs>
       <use xlink:href="#DejaVuSans-34"/>
      </g>
     </g>
    </g>
    <g id="xtick_6">
     <g id="line2d_6">
      <g>
       <use xlink:href="#mdd507f58e9" x="431.682636" y="302.2" style="stroke: #000000; stroke-width: 0.8"/>
      </g>
     </g>
     <g id="text_6">
      <!-- 5 -->
      <g transform="translate(428.501386 316.798437) scale(0.1 -0.1)">
       <defs>
        <path id="DejaVuSans-35" d="M 691 4666 
L 3169 4666 
L 3169 4134 
L 1269 4134 
L 1269 2991 
Q 1406 3038 1543 3061 
Q 1681 3084 1819 3084 
Q 2600 3084 3056 2656 
Q 3513 2228 3513 1497 
Q 3513 744 3044 326 
Q 2575 -91 1722 -91 
Q 1428 -91 1123 -41 
Q 819 9 494 109 
L 494 744 
Q 775 591 1075 516 
Q 1375 441 1709 441 
Q 2250 441 2565 725 
Q 2881 1009 2881 1497 
Q 2881 1984 2565 2268 
Q 2250 2553 1709 2553 
Q 1456 2553 1204 2497 
Q 953 2441 691 2322 
L 691 4666 
z
" transform="scale(0.015625)"/>
       </defs>
       <use xlink:href="#DejaVuSans-35"/>
      </g>
     </g>
    </g>
    <g id="text_7">
     <!-- $W$ (m/hour) -->
     <g transform="translate(220.059 330.476562) scale(0.1 -0.1)">
      <defs>
       <path id="DejaVuSans-Oblique-57" d="M 616 4666 
L 1228 4666 
L 1453 697 
L 3213 4666 
L 3916 4666 
L 4147 697 
L 5888 4666 
L 6528 4666 
L 4453 0 
L 3659 0 
L 3444 3891 
L 1697 0 
L 903 0 
L 616 4666 
z
" transform="scale(0.015625)"/>
       <path id="DejaVuSans-20" transform="scale(0.015625)"/>
       <path id="DejaVuSans-28" d="M 1984 4856 
Q 1566 4138 1362 3434 
Q 1159 2731 1159 2009 
Q 1159 1288 1364 580 
Q 1569 -128 1984 -844 
L 1484 -844 
Q 1016 -109 783 600 
Q 550 1309 550 2009 
Q 550 2706 781 3412 
Q 1013 4119 1484 4856 
L 1984 4856 
z
" transform="scale(0.015625)"/>
       <path id="DejaVuSans-6d" d="M 3328 2828 
Q 3544 3216 3844 3400 
Q 4144 3584 4550 3584 
Q 5097 3584 5394 3201 
Q 5691 2819 5691 2113 
L 5691 0 
L 5113 0 
L 5113 2094 
Q 5113 2597 4934 2840 
Q 4756 3084 4391 3084 
Q 3944 3084 3684 2787 
Q 3425 2491 3425 1978 
L 3425 0 
L 2847 0 
L 2847 2094 
Q 2847 2600 2669 2842 
Q 2491 3084 2119 3084 
Q 1678 3084 1418 2786 
Q 1159 2488 1159 1978 
L 1159 0 
L 581 0 
L 581 3500 
L 1159 3500 
L 1159 2956 
Q 1356 3278 1631 3431 
Q 1906 3584 2284 3584 
Q 2666 3584 2933 3390 
Q 3200 3197 3328 2828 
z
" transform="scale(0.015625)"/>
       <path id="DejaVuSans-2f" d="M 1625 4666 
L 2156 4666 
L 531 -594 
L 0 -594 
L 1625 4666 
z
" transform="scale(0.015625)"/>
       <path id="DejaVuSans-68" d="M 3513 2113 
L 3513 0 
L 2938 0 
L 2938 2094 
Q 2938 2591 2744 2837 
Q 2550 3084 2163 3084 
Q 1697 3084 1428 2787 
Q 1159 2491 1159 1978 
L 1159 0 
L 581 0 
L 581 4863 
L 1159 4863 
L 1159 2956 
Q 1366 3272 1645 3428 
Q 1925 3584 2291 3584 
Q 2894 3584 3203 3211 
Q 3513 2838 3513 2113 
z
" transform="scale(0.015625)"/>
       <path id="DejaVuSans-6f" d="M 1959 3097 
Q 1497 3097 1228 2736 
Q 959 2375 959 1747 
Q 959 1119 1226 758 
Q 1494 397 1959 397 
Q 2419 397 2687 759 
Q 2956 1122 2956 1747 
Q 2956 2369 2687 2733 
Q 2419 3097 1959 3097 
z
M 1959 3584 
Q 2709 3584 3137 3096 
Q 3566 2609 3566 1747 
Q 3566 888 3137 398 
Q 2709 -91 1959 -91 
Q 1206 -91 779 398 
Q 353 888 353 1747 
Q 353 2609 779 3096 
Q 1206 3584 1959 3584 
z
" transform="scale(0.015625)"/>
       <path id="DejaVuSans-75" d="M 544 1381 
L 544 3500 
L 1119 3500 
L 1119 1403 
Q 1119 906 1312 657 
Q 1506 409 1894 409 
Q 2359 409 2629 706 
Q 2900 1003 2900 1516 
L 2900 3500 
L 3475 3500 
L 3475 0 
L 2900 0 
L 2900 538 
Q 2691 219 2414 64 
Q 2138 -91 1772 -91 
Q 1169 -91 856 284 
Q 544 659 544 1381 
z
M 1991 3584 
L 1991 3584 
z
" transform="scale(0.015625)"/>
       <path id="DejaVuSans-72" d="M 2631 2963 
Q 2534 3019 2420 3045 
Q 2306 3072 2169 3072 
Q 1681 3072 1420 2755 
Q 1159 2438 1159 1844 
L 1159 0 
L 581 0 
L 581 3500 
L 1159 3500 
L 1159 2956 
Q 1341 3275 1631 3429 
Q 1922 3584 2338 3584 
Q 2397 3584 2469 3576 
Q 2541 3569 2628 3553 
L 2631 2963 
z
" transform="scale(0.015625)"/>
       <path id="DejaVuSans-29" d="M 513 4856 
L 1013 4856 
Q 1481 4119 1714 3412 
Q 1947 2706 1947 2009 
Q 1947 1309 1714 600 
Q 1481 -109 1013 -844 
L 513 -844 
Q 928 -128 1133 580 
Q 1338 1288 1338 2009 
Q 1338 2731 1133 3434 
Q 928 4138 513 4856 
z
" transform="scale(0.015625)"/>
      </defs>
      <use xlink:href="#DejaVuSans-Oblique-57" transform="translate(0 0.015625)"/>
      <use xlink:href="#DejaVuSans-20" transform="translate(98.876953 0.015625)"/>
      <use xlink:href="#DejaVuSans-28" transform="translate(130.664062 0.015625)"/>
      <use xlink:href="#DejaVuSans-6d" transform="translate(169.677734 0.015625)"/>
      <use xlink:href="#DejaVuSans-2f" transform="translate(267.089844 0.015625)"/>
      <use xlink:href="#DejaVuSans-68" transform="translate(300.78125 0.015625)"/>
      <use xlink:href="#DejaVuSans-6f" transform="translate(364.160156 0.015625)"/>
      <use xlink:href="#DejaVuSans-75" transform="translate(425.341797 0.015625)"/>
      <use xlink:href="#DejaVuSans-72" transform="translate(488.720703 0.015625)"/>
      <use xlink:href="#DejaVuSans-29" transform="translate(529.833984 0.015625)"/>
     </g>
    </g>
   </g>
   <g id="matplotlib.axis_2">
    <g id="ytick_1">
     <g id="line2d_7">
      <defs>
       <path id="m91f4f5d588" d="M 0 0 
L -3.5 0 
" style="stroke: #000000; stroke-width: 0.8"/>
      </defs>
      <g>
       <use xlink:href="#m91f4f5d588" x="47.018" y="267.991461" style="stroke: #000000; stroke-width: 0.8"/>
      </g>
     </g>
     <g id="text_8">
      <!-- 0 -->
      <g transform="translate(33.6555 271.79068) scale(0.1 -0.1)">
       <use xlink:href="#DejaVuSans-30"/>
      </g>
     </g>
    </g>
    <g id="ytick_2">
     <g id="line2d_8">
      <g>
       <use xlink:href="#m91f4f5d588" x="47.018" y="211.111313" style="stroke: #000000; stroke-width: 0.8"/>
      </g>
     </g>
     <g id="text_9">
      <!-- 10 -->
      <g transform="translate(27.293 214.910531) scale(0.1 -0.1)">
       <use xlink:href="#DejaVuSans-31"/>
       <use xlink:href="#DejaVuSans-30" transform="translate(63.623047 0)"/>
      </g>
     </g>
    </g>
    <g id="ytick_3">
     <g id="line2d_9">
      <g>
       <use xlink:href="#m91f4f5d588" x="47.018" y="154.231164" style="stroke: #000000; stroke-width: 0.8"/>
      </g>
     </g>
     <g id="text_10">
      <!-- 20 -->
      <g transform="translate(27.293 158.030383) scale(0.1 -0.1)">
       <use xlink:href="#DejaVuSans-32"/>
       <use xlink:href="#DejaVuSans-30" transform="translate(63.623047 0)"/>
      </g>
     </g>
    </g>
    <g id="ytick_4">
     <g id="line2d_10">
      <g>
       <use xlink:href="#m91f4f5d588" x="47.018" y="97.351016" style="stroke: #000000; stroke-width: 0.8"/>
      </g>
     </g>
     <g id="text_11">
      <!-- 30 -->
      <g transform="translate(27.293 101.150235) scale(0.1 -0.1)">
       <use xlink:href="#DejaVuSans-33"/>
       <use xlink:href="#DejaVuSans-30" transform="translate(63.623047 0)"/>
      </g>
     </g>
    </g>
    <g id="ytick_5">
     <g id="line2d_11">
      <g>
       <use xlink:href="#m91f4f5d588" x="47.018" y="40.470867" style="stroke: #000000; stroke-width: 0.8"/>
      </g>
     </g>
     <g id="text_12">
      <!-- 40 -->
      <g transform="translate(27.293 44.270086) scale(0.1 -0.1)">
       <use xlink:href="#DejaVuSans-34"/>
       <use xlink:href="#DejaVuSans-30" transform="translate(63.623047 0)"/>
      </g>
     </g>
    </g>
    <g id="text_13">
     <!-- $Q_{lc}$ (kW) -->
     <g transform="translate(21.213312 176.8) rotate(-90) scale(0.1 -0.1)">
      <defs>
       <path id="DejaVuSans-Oblique-51" d="M 2309 -84 
Q 2275 -88 2237 -89 
Q 2200 -91 2125 -91 
Q 1250 -91 756 411 
Q 263 913 263 1797 
Q 263 2319 452 2844 
Q 641 3369 978 3788 
Q 1369 4269 1858 4509 
Q 2347 4750 2938 4750 
Q 3794 4750 4287 4245 
Q 4781 3741 4781 2869 
Q 4781 1928 4265 1147 
Q 3750 366 2919 44 
L 3553 -825 
L 2847 -825 
L 2309 -84 
z
M 2919 4238 
Q 2400 4238 2003 3986 
Q 1606 3734 1313 3219 
Q 1125 2891 1026 2522 
Q 928 2153 928 1778 
Q 928 1128 1239 775 
Q 1550 422 2119 422 
Q 2631 422 3032 676 
Q 3434 931 3719 1434 
Q 3909 1772 4009 2142 
Q 4109 2513 4109 2881 
Q 4109 3528 3796 3883 
Q 3484 4238 2919 4238 
z
" transform="scale(0.015625)"/>
       <path id="DejaVuSans-Oblique-6c" d="M 1172 4863 
L 1747 4863 
L 800 0 
L 225 0 
L 1172 4863 
z
" transform="scale(0.015625)"/>
       <path id="DejaVuSans-Oblique-63" d="M 3431 3366 
L 3316 2797 
Q 3109 2947 2876 3022 
Q 2644 3097 2394 3097 
Q 2119 3097 1870 3000 
Q 1622 2903 1453 2725 
Q 1184 2453 1037 2087 
Q 891 1722 891 1331 
Q 891 859 1127 628 
Q 1363 397 1844 397 
Q 2081 397 2348 469 
Q 2616 541 2906 684 
L 2797 116 
Q 2547 13 2283 -39 
Q 2019 -91 1741 -91 
Q 1044 -91 669 257 
Q 294 606 294 1253 
Q 294 1797 489 2255 
Q 684 2713 1069 3078 
Q 1331 3328 1684 3456 
Q 2038 3584 2456 3584 
Q 2700 3584 2940 3529 
Q 3181 3475 3431 3366 
z
" transform="scale(0.015625)"/>
       <path id="DejaVuSans-6b" d="M 581 4863 
L 1159 4863 
L 1159 1991 
L 2875 3500 
L 3609 3500 
L 1753 1863 
L 3688 0 
L 2938 0 
L 1159 1709 
L 1159 0 
L 581 0 
L 581 4863 
z
" transform="scale(0.015625)"/>
       <path id="DejaVuSans-57" d="M 213 4666 
L 850 4666 
L 1831 722 
L 2809 4666 
L 3519 4666 
L 4500 722 
L 5478 4666 
L 6119 4666 
L 4947 0 
L 4153 0 
L 3169 4050 
L 2175 0 
L 1381 0 
L 213 4666 
z
" transform="scale(0.015625)"/>
      </defs>
      <use xlink:href="#DejaVuSans-Oblique-51" transform="translate(0 0.015625)"/>
      <use xlink:href="#DejaVuSans-Oblique-6c" transform="translate(78.710938 -16.390625) scale(0.7)"/>
      <use xlink:href="#DejaVuSans-Oblique-63" transform="translate(98.15918 -16.390625) scale(0.7)"/>
      <use xlink:href="#DejaVuSans-20" transform="translate(139.379883 0.015625)"/>
      <use xlink:href="#DejaVuSans-28" transform="translate(171.166992 0.015625)"/>
      <use xlink:href="#DejaVuSans-6b" transform="translate(210.180664 0.015625)"/>
      <use xlink:href="#DejaVuSans-57" transform="translate(268.09082 0.015625)"/>
      <use xlink:href="#DejaVuSans-29" transform="translate(366.967773 0.015625)"/>
     </g>
    </g>
   </g>
   <g id="line2d_12">
    <path d="M 65.335364 249.926936 
L 72.811839 242.633143 
L 80.288314 236.674548 
L 87.764788 232.412127 
L 95.241263 228.676363 
L 102.717738 225.55173 
L 110.194213 222.156582 
L 117.670688 220.618168 
L 125.147163 217.614341 
L 132.623638 215.921247 
L 140.100113 213.62388 
L 147.576588 212.380993 
L 155.053063 210.179736 
L 162.529538 208.279575 
L 170.006013 206.415684 
L 177.482488 204.466019 
L 184.958963 203.324345 
L 192.435438 201.803351 
L 199.911913 199.784881 
L 207.388388 198.381879 
L 214.864863 196.712806 
L 222.341338 194.600992 
L 229.817813 193.430725 
L 237.294288 192.233445 
L 244.770763 190.69897 
L 252.247237 189.381796 
L 259.723712 188.351397 
L 267.200187 186.811685 
L 274.676662 185.1573 
L 282.153137 184.130813 
L 289.629612 182.668913 
L 297.106087 182.177285 
L 304.582562 180.491865 
L 312.059037 180.458135 
L 319.535512 178.643023 
L 327.011987 177.689368 
L 334.488462 176.606393 
L 341.964937 174.743105 
L 349.441412 173.921239 
L 356.917887 173.716953 
L 364.394362 172.254033 
L 371.870837 171.090913 
L 379.347312 169.840548 
L 386.823787 168.448717 
L 394.300262 166.949889 
L 401.776737 166.245828 
L 409.253212 164.564806 
L 416.729686 162.784339 
L 424.206161 161.642691 
L 431.682636 160.673928 
" clip-path="url(#p481409a279)" style="fill: none; stroke: #1f77b4; stroke-width: 1.5; stroke-linecap: square"/>
   </g>
   <g id="line2d_13">
    <path d="M 65.335364 248.956874 
L 72.811839 243.0735 
L 80.288314 237.981959 
L 87.764788 233.764273 
L 95.241263 230.502413 
L 102.717738 226.57881 
L 110.194213 224.261188 
L 117.670688 222.645068 
L 125.147163 220.160459 
L 132.623638 217.788842 
L 140.100113 215.768635 
L 147.576588 214.373833 
L 155.053063 212.426435 
L 162.529538 210.330942 
L 170.006013 208.462446 
L 177.482488 207.187788 
L 184.958963 205.506655 
L 192.435438 203.709868 
L 199.911913 201.971969 
L 207.388388 200.743678 
L 214.864863 198.670577 
L 222.341338 197.809297 
L 229.817813 196.418144 
L 237.294288 195.008146 
L 244.770763 193.617255 
L 252.247237 192.259005 
L 259.723712 191.450854 
L 267.200187 189.26611 
L 274.676662 189.281396 
L 282.153137 187.116114 
L 289.629612 186.44198 
L 297.106087 186.174116 
L 304.582562 184.34679 
L 312.059037 184.342861 
L 319.535512 182.609461 
L 327.011987 181.940518 
L 334.488462 180.423671 
L 341.964937 180.073302 
L 349.441412 179.149631 
L 356.917887 178.512151 
L 364.394362 177.073866 
L 371.870837 176.421372 
L 379.347312 175.328956 
L 386.823787 174.90953 
L 394.300262 173.84093 
L 401.776737 172.477743 
L 409.253212 171.597386 
L 416.729686 170.182076 
L 424.206161 169.647785 
L 431.682636 168.521938 
" clip-path="url(#p481409a279)" style="fill: none; stroke: #ff7f0e; stroke-width: 1.5; stroke-linecap: square"/>
   </g>
   <g id="line2d_14">
    <path d="M 65.335364 248.157 
L 72.811839 242.095092 
L 80.288314 237.225872 
L 87.764788 233.291947 
L 95.241263 229.878908 
L 102.717738 226.48097 
L 110.194213 224.292962 
L 117.670688 221.6498 
L 125.147163 219.87486 
L 132.623638 217.862492 
L 140.100113 215.828547 
L 147.576588 214.45644 
L 155.053063 212.678662 
L 162.529538 210.920909 
L 170.006013 208.749359 
L 177.482488 206.982989 
L 184.958963 205.388767 
L 192.435438 204.105741 
L 199.911913 201.97713 
L 207.388388 201.325669 
L 214.864863 199.632571 
L 222.341338 198.654192 
L 229.817813 196.938321 
L 237.294288 195.834061 
L 244.770763 194.563145 
L 252.247237 193.596915 
L 259.723712 192.534316 
L 267.200187 191.303993 
L 274.676662 190.519961 
L 282.153137 188.791119 
L 289.629612 188.179852 
L 297.106087 187.11196 
L 304.582562 186.576484 
L 312.059037 185.210761 
L 319.535512 184.858531 
L 327.011987 183.509985 
L 334.488462 182.404468 
L 341.964937 182.018313 
L 349.441412 181.426401 
L 356.917887 180.890255 
L 364.394362 179.53834 
L 371.870837 179.071115 
L 379.347312 178.254395 
L 386.823787 177.134628 
L 394.300262 176.954104 
L 401.776737 175.98236 
L 409.253212 174.919897 
L 416.729686 175.066792 
L 424.206161 174.045026 
L 431.682636 172.843634 
" clip-path="url(#p481409a279)" style="fill: none; stroke: #2ca02c; stroke-width: 1.5; stroke-linecap: square"/>
   </g>
   <g id="line2d_15">
    <path d="M 65.335364 246.660603 
L 72.811839 241.424162 
L 80.288314 237.160366 
L 87.764788 234.057513 
L 95.241263 230.793787 
L 102.717738 227.978479 
L 110.194213 225.860091 
L 117.670688 223.390199 
L 125.147163 221.640347 
L 132.623638 219.77063 
L 140.100113 218.702328 
L 147.576588 216.834883 
L 155.053063 215.177767 
L 162.529538 213.805034 
L 170.006013 211.760137 
L 177.482488 210.532292 
L 184.958963 208.165832 
L 192.435438 207.026044 
L 199.911913 206.247711 
L 207.388388 205.270844 
L 214.864863 203.674955 
L 222.341338 201.737585 
L 229.817813 201.355833 
L 237.294288 199.858364 
L 244.770763 198.887496 
L 252.247237 197.972757 
L 259.723712 197.397222 
L 267.200187 196.407359 
L 274.676662 195.503441 
L 282.153137 194.287085 
L 289.629612 193.283454 
L 297.106087 192.494882 
L 304.582562 191.815765 
L 312.059037 190.879997 
L 319.535512 189.930507 
L 327.011987 188.626956 
L 334.488462 187.988227 
L 341.964937 187.678373 
L 349.441412 186.529854 
L 356.917887 186.126658 
L 364.394362 185.417911 
L 371.870837 184.440435 
L 379.347312 183.791505 
L 386.823787 184.292365 
L 394.300262 182.964908 
L 401.776737 182.269094 
L 409.253212 181.68741 
L 416.729686 181.246399 
L 424.206161 180.813842 
L 431.682636 180.569567 
" clip-path="url(#p481409a279)" style="fill: none; stroke: #d62728; stroke-width: 1.5; stroke-linecap: square"/>
   </g>
   <g id="line2d_16">
    <path d="M 65.335364 247.808034 
L 72.811839 243.543376 
L 80.288314 239.529406 
L 87.764788 237.093525 
L 95.241263 234.117711 
L 102.717738 231.606902 
L 110.194213 229.586934 
L 117.670688 228.218597 
L 125.147163 226.570337 
L 132.623638 224.722456 
L 140.100113 222.781366 
L 147.576588 221.623577 
L 155.053063 220.232182 
L 162.529538 218.894129 
L 170.006013 217.377003 
L 177.482488 216.309117 
L 184.958963 214.142083 
L 192.435438 213.278912 
L 199.911913 212.449359 
L 207.388388 211.616759 
L 214.864863 210.59946 
L 222.341338 209.671512 
L 229.817813 208.286867 
L 237.294288 207.678239 
L 244.770763 206.869825 
L 252.247237 205.266698 
L 259.723712 205.340773 
L 267.200187 203.724033 
L 274.676662 203.070118 
L 282.153137 202.618525 
L 289.629612 201.315268 
L 297.106087 200.623868 
L 304.582562 199.941697 
L 312.059037 199.201185 
L 319.535512 198.511067 
L 327.011987 197.715655 
L 334.488462 197.517194 
L 341.964937 195.898174 
L 349.441412 195.572561 
L 356.917887 195.026819 
L 364.394362 194.515293 
L 371.870837 193.716109 
L 379.347312 193.004081 
L 386.823787 192.58472 
L 394.300262 191.755773 
L 401.776737 191.118951 
L 409.253212 190.662689 
L 416.729686 190.197255 
L 424.206161 189.998334 
L 431.682636 189.514955 
" clip-path="url(#p481409a279)" style="fill: none; stroke: #9467bd; stroke-width: 1.5; stroke-linecap: square"/>
   </g>
   <g id="line2d_17">
    <path d="M 65.335364 250.576557 
L 72.811839 247.919176 
L 80.288314 244.033932 
L 87.764788 241.228262 
L 95.241263 239.103571 
L 102.717738 237.593407 
L 110.194213 235.512941 
L 117.670688 234.174868 
L 125.147163 232.485396 
L 132.623638 231.636423 
L 140.100113 230.276691 
L 147.576588 228.678657 
L 155.053063 227.41087 
L 162.529538 226.450945 
L 170.006013 225.35493 
L 177.482488 224.22085 
L 184.958963 223.381267 
L 192.435438 222.799425 
L 199.911913 221.919669 
L 207.388388 221.075436 
L 214.864863 220.01614 
L 222.341338 218.691114 
L 229.817813 218.067934 
L 237.294288 217.006154 
L 244.770763 216.135983 
L 252.247237 215.353223 
L 259.723712 214.633239 
L 267.200187 214.025567 
L 274.676662 213.559079 
L 282.153137 212.568391 
L 289.629612 211.970813 
L 297.106087 210.939405 
L 304.582562 210.353298 
L 312.059037 210.077784 
L 319.535512 209.734506 
L 327.011987 209.260242 
L 334.488462 208.051199 
L 341.964937 207.230259 
L 349.441412 207.459116 
L 356.917887 206.11488 
L 364.394362 205.959814 
L 371.870837 204.673783 
L 379.347312 204.761893 
L 386.823787 204.233454 
L 394.300262 203.969405 
L 401.776737 202.80758 
L 409.253212 202.718253 
L 416.729686 202.144507 
L 424.206161 201.456022 
L 431.682636 201.044446 
" clip-path="url(#p481409a279)" style="fill: none; stroke: #8c564b; stroke-width: 1.5; stroke-linecap: square"/>
   </g>
   <g id="line2d_18">
    <path d="M 65.335364 254.254413 
L 72.811839 250.919301 
L 80.288314 248.961866 
L 87.764788 246.188593 
L 95.241263 244.46134 
L 102.717738 243.302871 
L 110.194213 241.835321 
L 117.670688 240.883966 
L 125.147163 239.700478 
L 132.623638 238.622787 
L 140.100113 237.611945 
L 147.576588 236.523404 
L 155.053063 235.393133 
L 162.529538 235.026862 
L 170.006013 233.932887 
L 177.482488 233.324551 
L 184.958963 232.238325 
L 192.435438 232.163991 
L 199.911913 231.121829 
L 207.388388 230.166097 
L 214.864863 229.83216 
L 222.341338 229.115514 
L 229.817813 228.184525 
L 237.294288 227.088961 
L 244.770763 226.929679 
L 252.247237 226.669498 
L 259.723712 225.943669 
L 267.200187 224.925532 
L 274.676662 224.043887 
L 282.153137 223.570771 
L 289.629612 223.460777 
L 297.106087 223.128242 
L 304.582562 222.650986 
L 312.059037 221.619188 
L 319.535512 220.506034 
L 327.011987 221.188578 
L 334.488462 220.207814 
L 341.964937 219.924573 
L 349.441412 219.131554 
L 356.917887 218.744066 
L 364.394362 218.617986 
L 371.870837 217.992507 
L 379.347312 217.610737 
L 386.823787 216.523592 
L 394.300262 216.306234 
L 401.776737 215.979608 
L 409.253212 215.041462 
L 416.729686 214.98479 
L 424.206161 214.489789 
L 431.682636 214.119114 
" clip-path="url(#p481409a279)" style="fill: none; stroke: #e377c2; stroke-width: 1.5; stroke-linecap: square"/>
   </g>
   <g id="line2d_19">
    <path d="M 65.335364 259.595851 
L 72.811839 256.7562 
L 80.288314 255.148372 
L 87.764788 254.518223 
L 95.241263 253.18306 
L 102.717738 252.073799 
L 110.194213 250.794564 
L 117.670688 250.022826 
L 125.147163 249.335371 
L 132.623638 248.723987 
L 140.100113 248.385594 
L 147.576588 247.823228 
L 155.053063 247.490749 
L 162.529538 246.363721 
L 170.006013 245.970882 
L 177.482488 245.148546 
L 184.958963 245.337146 
L 192.435438 244.783413 
L 199.911913 244.163859 
L 207.388388 244.441667 
L 214.864863 243.350092 
L 222.341338 243.555088 
L 229.817813 242.932298 
L 237.294288 242.094626 
L 244.770763 242.497677 
L 252.247237 241.900697 
L 259.723712 241.690122 
L 267.200187 241.82758 
L 274.676662 240.161841 
L 282.153137 240.567584 
L 289.629612 240.525344 
L 297.106087 239.899295 
L 304.582562 239.780132 
L 312.059037 238.920807 
L 319.535512 238.644458 
L 327.011987 238.337817 
L 334.488462 237.976548 
L 341.964937 237.257369 
L 349.441412 236.602556 
L 356.917887 236.642361 
L 364.394362 236.138956 
L 371.870837 235.631526 
L 379.347312 234.839877 
L 386.823787 234.57831 
L 394.300262 234.549458 
L 401.776737 234.045361 
L 409.253212 233.237167 
L 416.729686 233.139643 
L 424.206161 232.439891 
L 431.682636 232.307754 
" clip-path="url(#p481409a279)" style="fill: none; stroke: #7f7f7f; stroke-width: 1.5; stroke-linecap: square"/>
   </g>
   <g id="patch_3">
    <path d="M 47.018 302.2 
L 47.018 10.8 
" style="fill: none; stroke: #000000; stroke-width: 0.8; stroke-linejoin: miter; stroke-linecap: square"/>
   </g>
   <g id="patch_4">
    <path d="M 450 302.2 
L 450 10.8 
" style="fill: none; stroke: #000000; stroke-width: 0.8; stroke-linejoin: miter; stroke-linecap: square"/>
   </g>
   <g id="patch_5">
    <path d="M 47.018 302.2 
L 450 302.2 
" style="fill: none; stroke: #000000; stroke-width: 0.8; stroke-linejoin: miter; stroke-linecap: square"/>
   </g>
   <g id="patch_6">
    <path d="M 47.018 10.8 
L 450 10.8 
" style="fill: none; stroke: #000000; stroke-width: 0.8; stroke-linejoin: miter; stroke-linecap: square"/>
   </g>
   <g id="legend_1">
    <g id="patch_7">
     <path d="M 54.018 150.903125 
L 152.852375 150.903125 
Q 154.852375 150.903125 154.852375 148.903125 
L 154.852375 17.8 
Q 154.852375 15.8 152.852375 15.8 
L 54.018 15.8 
Q 52.018 15.8 52.018 17.8 
L 52.018 148.903125 
Q 52.018 150.903125 54.018 150.903125 
z
" style="fill: #ffffff; opacity: 0.8; stroke: #cccccc; stroke-linejoin: miter"/>
    </g>
    <g id="line2d_20">
     <path d="M 56.018 23.898438 
L 66.018 23.898438 
L 76.018 23.898438 
" style="fill: none; stroke: #1f77b4; stroke-width: 1.5; stroke-linecap: square"/>
    </g>
    <g id="text_14">
     <!-- Ts=80 K -->
     <g transform="translate(84.018 27.398438) scale(0.1 -0.1)">
      <defs>
       <path id="DejaVuSans-54" d="M -19 4666 
L 3928 4666 
L 3928 4134 
L 2272 4134 
L 2272 0 
L 1638 0 
L 1638 4134 
L -19 4134 
L -19 4666 
z
" transform="scale(0.015625)"/>
       <path id="DejaVuSans-73" d="M 2834 3397 
L 2834 2853 
Q 2591 2978 2328 3040 
Q 2066 3103 1784 3103 
Q 1356 3103 1142 2972 
Q 928 2841 928 2578 
Q 928 2378 1081 2264 
Q 1234 2150 1697 2047 
L 1894 2003 
Q 2506 1872 2764 1633 
Q 3022 1394 3022 966 
Q 3022 478 2636 193 
Q 2250 -91 1575 -91 
Q 1294 -91 989 -36 
Q 684 19 347 128 
L 347 722 
Q 666 556 975 473 
Q 1284 391 1588 391 
Q 1994 391 2212 530 
Q 2431 669 2431 922 
Q 2431 1156 2273 1281 
Q 2116 1406 1581 1522 
L 1381 1569 
Q 847 1681 609 1914 
Q 372 2147 372 2553 
Q 372 3047 722 3315 
Q 1072 3584 1716 3584 
Q 2034 3584 2315 3537 
Q 2597 3491 2834 3397 
z
" transform="scale(0.015625)"/>
       <path id="DejaVuSans-3d" d="M 678 2906 
L 4684 2906 
L 4684 2381 
L 678 2381 
L 678 2906 
z
M 678 1631 
L 4684 1631 
L 4684 1100 
L 678 1100 
L 678 1631 
z
" transform="scale(0.015625)"/>
       <path id="DejaVuSans-38" d="M 2034 2216 
Q 1584 2216 1326 1975 
Q 1069 1734 1069 1313 
Q 1069 891 1326 650 
Q 1584 409 2034 409 
Q 2484 409 2743 651 
Q 3003 894 3003 1313 
Q 3003 1734 2745 1975 
Q 2488 2216 2034 2216 
z
M 1403 2484 
Q 997 2584 770 2862 
Q 544 3141 544 3541 
Q 544 4100 942 4425 
Q 1341 4750 2034 4750 
Q 2731 4750 3128 4425 
Q 3525 4100 3525 3541 
Q 3525 3141 3298 2862 
Q 3072 2584 2669 2484 
Q 3125 2378 3379 2068 
Q 3634 1759 3634 1313 
Q 3634 634 3220 271 
Q 2806 -91 2034 -91 
Q 1263 -91 848 271 
Q 434 634 434 1313 
Q 434 1759 690 2068 
Q 947 2378 1403 2484 
z
M 1172 3481 
Q 1172 3119 1398 2916 
Q 1625 2713 2034 2713 
Q 2441 2713 2670 2916 
Q 2900 3119 2900 3481 
Q 2900 3844 2670 4047 
Q 2441 4250 2034 4250 
Q 1625 4250 1398 4047 
Q 1172 3844 1172 3481 
z
" transform="scale(0.015625)"/>
       <path id="DejaVuSans-4b" d="M 628 4666 
L 1259 4666 
L 1259 2694 
L 3353 4666 
L 4166 4666 
L 1850 2491 
L 4331 0 
L 3500 0 
L 1259 2247 
L 1259 0 
L 628 0 
L 628 4666 
z
" transform="scale(0.015625)"/>
      </defs>
      <use xlink:href="#DejaVuSans-54"/>
      <use xlink:href="#DejaVuSans-73" transform="translate(44.583984 0)"/>
      <use xlink:href="#DejaVuSans-3d" transform="translate(96.683594 0)"/>
      <use xlink:href="#DejaVuSans-38" transform="translate(180.472656 0)"/>
      <use xlink:href="#DejaVuSans-30" transform="translate(244.095703 0)"/>
      <use xlink:href="#DejaVuSans-20" transform="translate(307.71875 0)"/>
      <use xlink:href="#DejaVuSans-4b" transform="translate(339.505859 0)"/>
     </g>
    </g>
    <g id="line2d_21">
     <path d="M 56.018 38.576563 
L 66.018 38.576563 
L 76.018 38.576563 
" style="fill: none; stroke: #ff7f0e; stroke-width: 1.5; stroke-linecap: square"/>
    </g>
    <g id="text_15">
     <!-- Ts=100 K -->
     <g transform="translate(84.018 42.076563) scale(0.1 -0.1)">
      <use xlink:href="#DejaVuSans-54"/>
      <use xlink:href="#DejaVuSans-73" transform="translate(44.583984 0)"/>
      <use xlink:href="#DejaVuSans-3d" transform="translate(96.683594 0)"/>
      <use xlink:href="#DejaVuSans-31" transform="translate(180.472656 0)"/>
      <use xlink:href="#DejaVuSans-30" transform="translate(244.095703 0)"/>
      <use xlink:href="#DejaVuSans-30" transform="translate(307.71875 0)"/>
      <use xlink:href="#DejaVuSans-20" transform="translate(371.341797 0)"/>
      <use xlink:href="#DejaVuSans-4b" transform="translate(403.128906 0)"/>
     </g>
    </g>
    <g id="line2d_22">
     <path d="M 56.018 53.254687 
L 66.018 53.254687 
L 76.018 53.254687 
" style="fill: none; stroke: #2ca02c; stroke-width: 1.5; stroke-linecap: square"/>
    </g>
    <g id="text_16">
     <!-- Ts=120 K -->
     <g transform="translate(84.018 56.754687) scale(0.1 -0.1)">
      <use xlink:href="#DejaVuSans-54"/>
      <use xlink:href="#DejaVuSans-73" transform="translate(44.583984 0)"/>
      <use xlink:href="#DejaVuSans-3d" transform="translate(96.683594 0)"/>
      <use xlink:href="#DejaVuSans-31" transform="translate(180.472656 0)"/>
      <use xlink:href="#DejaVuSans-32" transform="translate(244.095703 0)"/>
      <use xlink:href="#DejaVuSans-30" transform="translate(307.71875 0)"/>
      <use xlink:href="#DejaVuSans-20" transform="translate(371.341797 0)"/>
      <use xlink:href="#DejaVuSans-4b" transform="translate(403.128906 0)"/>
     </g>
    </g>
    <g id="line2d_23">
     <path d="M 56.018 67.932813 
L 66.018 67.932813 
L 76.018 67.932813 
" style="fill: none; stroke: #d62728; stroke-width: 1.5; stroke-linecap: square"/>
    </g>
    <g id="text_17">
     <!-- Ts=140 K -->
     <g transform="translate(84.018 71.432813) scale(0.1 -0.1)">
      <use xlink:href="#DejaVuSans-54"/>
      <use xlink:href="#DejaVuSans-73" transform="translate(44.583984 0)"/>
      <use xlink:href="#DejaVuSans-3d" transform="translate(96.683594 0)"/>
      <use xlink:href="#DejaVuSans-31" transform="translate(180.472656 0)"/>
      <use xlink:href="#DejaVuSans-34" transform="translate(244.095703 0)"/>
      <use xlink:href="#DejaVuSans-30" transform="translate(307.71875 0)"/>
      <use xlink:href="#DejaVuSans-20" transform="translate(371.341797 0)"/>
      <use xlink:href="#DejaVuSans-4b" transform="translate(403.128906 0)"/>
     </g>
    </g>
    <g id="line2d_24">
     <path d="M 56.018 82.610938 
L 66.018 82.610938 
L 76.018 82.610938 
" style="fill: none; stroke: #9467bd; stroke-width: 1.5; stroke-linecap: square"/>
    </g>
    <g id="text_18">
     <!-- Ts=160 K -->
     <g transform="translate(84.018 86.110938) scale(0.1 -0.1)">
      <defs>
       <path id="DejaVuSans-36" d="M 2113 2584 
Q 1688 2584 1439 2293 
Q 1191 2003 1191 1497 
Q 1191 994 1439 701 
Q 1688 409 2113 409 
Q 2538 409 2786 701 
Q 3034 994 3034 1497 
Q 3034 2003 2786 2293 
Q 2538 2584 2113 2584 
z
M 3366 4563 
L 3366 3988 
Q 3128 4100 2886 4159 
Q 2644 4219 2406 4219 
Q 1781 4219 1451 3797 
Q 1122 3375 1075 2522 
Q 1259 2794 1537 2939 
Q 1816 3084 2150 3084 
Q 2853 3084 3261 2657 
Q 3669 2231 3669 1497 
Q 3669 778 3244 343 
Q 2819 -91 2113 -91 
Q 1303 -91 875 529 
Q 447 1150 447 2328 
Q 447 3434 972 4092 
Q 1497 4750 2381 4750 
Q 2619 4750 2861 4703 
Q 3103 4656 3366 4563 
z
" transform="scale(0.015625)"/>
      </defs>
      <use xlink:href="#DejaVuSans-54"/>
      <use xlink:href="#DejaVuSans-73" transform="translate(44.583984 0)"/>
      <use xlink:href="#DejaVuSans-3d" transform="translate(96.683594 0)"/>
      <use xlink:href="#DejaVuSans-31" transform="translate(180.472656 0)"/>
      <use xlink:href="#DejaVuSans-36" transform="translate(244.095703 0)"/>
      <use xlink:href="#DejaVuSans-30" transform="translate(307.71875 0)"/>
      <use xlink:href="#DejaVuSans-20" transform="translate(371.341797 0)"/>
      <use xlink:href="#DejaVuSans-4b" transform="translate(403.128906 0)"/>
     </g>
    </g>
    <g id="line2d_25">
     <path d="M 56.018 97.289062 
L 66.018 97.289062 
L 76.018 97.289062 
" style="fill: none; stroke: #8c564b; stroke-width: 1.5; stroke-linecap: square"/>
    </g>
    <g id="text_19">
     <!-- Ts=180 K -->
     <g transform="translate(84.018 100.789062) scale(0.1 -0.1)">
      <use xlink:href="#DejaVuSans-54"/>
      <use xlink:href="#DejaVuSans-73" transform="translate(44.583984 0)"/>
      <use xlink:href="#DejaVuSans-3d" transform="translate(96.683594 0)"/>
      <use xlink:href="#DejaVuSans-31" transform="translate(180.472656 0)"/>
      <use xlink:href="#DejaVuSans-38" transform="translate(244.095703 0)"/>
      <use xlink:href="#DejaVuSans-30" transform="translate(307.71875 0)"/>
      <use xlink:href="#DejaVuSans-20" transform="translate(371.341797 0)"/>
      <use xlink:href="#DejaVuSans-4b" transform="translate(403.128906 0)"/>
     </g>
    </g>
    <g id="line2d_26">
     <path d="M 56.018 111.967187 
L 66.018 111.967187 
L 76.018 111.967187 
" style="fill: none; stroke: #e377c2; stroke-width: 1.5; stroke-linecap: square"/>
    </g>
    <g id="text_20">
     <!-- Ts=200 K -->
     <g transform="translate(84.018 115.467187) scale(0.1 -0.1)">
      <use xlink:href="#DejaVuSans-54"/>
      <use xlink:href="#DejaVuSans-73" transform="translate(44.583984 0)"/>
      <use xlink:href="#DejaVuSans-3d" transform="translate(96.683594 0)"/>
      <use xlink:href="#DejaVuSans-32" transform="translate(180.472656 0)"/>
      <use xlink:href="#DejaVuSans-30" transform="translate(244.095703 0)"/>
      <use xlink:href="#DejaVuSans-30" transform="translate(307.71875 0)"/>
      <use xlink:href="#DejaVuSans-20" transform="translate(371.341797 0)"/>
      <use xlink:href="#DejaVuSans-4b" transform="translate(403.128906 0)"/>
     </g>
    </g>
    <g id="line2d_27">
     <path d="M 56.018 126.645312 
L 66.018 126.645312 
L 76.018 126.645312 
" style="fill: none; stroke: #7f7f7f; stroke-width: 1.5; stroke-linecap: square"/>
    </g>
    <g id="text_21">
     <!-- Ts=220 K -->
     <g transform="translate(84.018 130.145312) scale(0.1 -0.1)">
      <use xlink:href="#DejaVuSans-54"/>
      <use xlink:href="#DejaVuSans-73" transform="translate(44.583984 0)"/>
      <use xlink:href="#DejaVuSans-3d" transform="translate(96.683594 0)"/>
      <use xlink:href="#DejaVuSans-32" transform="translate(180.472656 0)"/>
      <use xlink:href="#DejaVuSans-32" transform="translate(244.095703 0)"/>
      <use xlink:href="#DejaVuSans-30" transform="translate(307.71875 0)"/>
      <use xlink:href="#DejaVuSans-20" transform="translate(371.341797 0)"/>
      <use xlink:href="#DejaVuSans-4b" transform="translate(403.128906 0)"/>
     </g>
    </g>
    <g id="PathCollection_9">
     <g>
      <use xlink:href="#mfb2f61bbfd" x="66.018" y="142.198437" style="fill-opacity: 0.7; stroke: #000000; stroke-opacity: 0.7"/>
     </g>
    </g>
    <g id="text_22">
     <!-- Artificial data -->
     <g transform="translate(84.018 144.823437) scale(0.1 -0.1)">
      <defs>
       <path id="DejaVuSans-41" d="M 2188 4044 
L 1331 1722 
L 3047 1722 
L 2188 4044 
z
M 1831 4666 
L 2547 4666 
L 4325 0 
L 3669 0 
L 3244 1197 
L 1141 1197 
L 716 0 
L 50 0 
L 1831 4666 
z
" transform="scale(0.015625)"/>
       <path id="DejaVuSans-74" d="M 1172 4494 
L 1172 3500 
L 2356 3500 
L 2356 3053 
L 1172 3053 
L 1172 1153 
Q 1172 725 1289 603 
Q 1406 481 1766 481 
L 2356 481 
L 2356 0 
L 1766 0 
Q 1100 0 847 248 
Q 594 497 594 1153 
L 594 3053 
L 172 3053 
L 172 3500 
L 594 3500 
L 594 4494 
L 1172 4494 
z
" transform="scale(0.015625)"/>
       <path id="DejaVuSans-69" d="M 603 3500 
L 1178 3500 
L 1178 0 
L 603 0 
L 603 3500 
z
M 603 4863 
L 1178 4863 
L 1178 4134 
L 603 4134 
L 603 4863 
z
" transform="scale(0.015625)"/>
       <path id="DejaVuSans-66" d="M 2375 4863 
L 2375 4384 
L 1825 4384 
Q 1516 4384 1395 4259 
Q 1275 4134 1275 3809 
L 1275 3500 
L 2222 3500 
L 2222 3053 
L 1275 3053 
L 1275 0 
L 697 0 
L 697 3053 
L 147 3053 
L 147 3500 
L 697 3500 
L 697 3744 
Q 697 4328 969 4595 
Q 1241 4863 1831 4863 
L 2375 4863 
z
" transform="scale(0.015625)"/>
       <path id="DejaVuSans-63" d="M 3122 3366 
L 3122 2828 
Q 2878 2963 2633 3030 
Q 2388 3097 2138 3097 
Q 1578 3097 1268 2742 
Q 959 2388 959 1747 
Q 959 1106 1268 751 
Q 1578 397 2138 397 
Q 2388 397 2633 464 
Q 2878 531 3122 666 
L 3122 134 
Q 2881 22 2623 -34 
Q 2366 -91 2075 -91 
Q 1284 -91 818 406 
Q 353 903 353 1747 
Q 353 2603 823 3093 
Q 1294 3584 2113 3584 
Q 2378 3584 2631 3529 
Q 2884 3475 3122 3366 
z
" transform="scale(0.015625)"/>
       <path id="DejaVuSans-61" d="M 2194 1759 
Q 1497 1759 1228 1600 
Q 959 1441 959 1056 
Q 959 750 1161 570 
Q 1363 391 1709 391 
Q 2188 391 2477 730 
Q 2766 1069 2766 1631 
L 2766 1759 
L 2194 1759 
z
M 3341 1997 
L 3341 0 
L 2766 0 
L 2766 531 
Q 2569 213 2275 61 
Q 1981 -91 1556 -91 
Q 1019 -91 701 211 
Q 384 513 384 1019 
Q 384 1609 779 1909 
Q 1175 2209 1959 2209 
L 2766 2209 
L 2766 2266 
Q 2766 2663 2505 2880 
Q 2244 3097 1772 3097 
Q 1472 3097 1187 3025 
Q 903 2953 641 2809 
L 641 3341 
Q 956 3463 1253 3523 
Q 1550 3584 1831 3584 
Q 2591 3584 2966 3190 
Q 3341 2797 3341 1997 
z
" transform="scale(0.015625)"/>
       <path id="DejaVuSans-6c" d="M 603 4863 
L 1178 4863 
L 1178 0 
L 603 0 
L 603 4863 
z
" transform="scale(0.015625)"/>
       <path id="DejaVuSans-64" d="M 2906 2969 
L 2906 4863 
L 3481 4863 
L 3481 0 
L 2906 0 
L 2906 525 
Q 2725 213 2448 61 
Q 2172 -91 1784 -91 
Q 1150 -91 751 415 
Q 353 922 353 1747 
Q 353 2572 751 3078 
Q 1150 3584 1784 3584 
Q 2172 3584 2448 3432 
Q 2725 3281 2906 2969 
z
M 947 1747 
Q 947 1113 1208 752 
Q 1469 391 1925 391 
Q 2381 391 2643 752 
Q 2906 1113 2906 1747 
Q 2906 2381 2643 2742 
Q 2381 3103 1925 3103 
Q 1469 3103 1208 2742 
Q 947 2381 947 1747 
z
" transform="scale(0.015625)"/>
      </defs>
      <use xlink:href="#DejaVuSans-41"/>
      <use xlink:href="#DejaVuSans-72" transform="translate(68.408203 0)"/>
      <use xlink:href="#DejaVuSans-74" transform="translate(109.521484 0)"/>
      <use xlink:href="#DejaVuSans-69" transform="translate(148.730469 0)"/>
      <use xlink:href="#DejaVuSans-66" transform="translate(176.513672 0)"/>
      <use xlink:href="#DejaVuSans-69" transform="translate(211.71875 0)"/>
      <use xlink:href="#DejaVuSans-63" transform="translate(239.501953 0)"/>
      <use xlink:href="#DejaVuSans-69" transform="translate(294.482422 0)"/>
      <use xlink:href="#DejaVuSans-61" transform="translate(322.265625 0)"/>
      <use xlink:href="#DejaVuSans-6c" transform="translate(383.544922 0)"/>
      <use xlink:href="#DejaVuSans-20" transform="translate(411.328125 0)"/>
      <use xlink:href="#DejaVuSans-64" transform="translate(443.115234 0)"/>
      <use xlink:href="#DejaVuSans-61" transform="translate(506.591797 0)"/>
      <use xlink:href="#DejaVuSans-74" transform="translate(567.871094 0)"/>
      <use xlink:href="#DejaVuSans-61" transform="translate(607.080078 0)"/>
     </g>
    </g>
   </g>
  </g>
 </g>
 <defs>
  <clipPath id="p481409a279">
   <rect x="47.018" y="10.8" width="402.982" height="291.4"/>
  </clipPath>
 </defs>
</svg>
