<?xml version="1.0" encoding="utf-8" standalone="no"?>
<!DOCTYPE svg PUBLIC "-//W3C//DTD SVG 1.1//EN"
  "http://www.w3.org/Graphics/SVG/1.1/DTD/svg11.dtd">
<svg xmlns:xlink="http://www.w3.org/1999/xlink" width="460.8pt" height="345.6pt" viewBox="0 0 460.8 345.6" xmlns="http://www.w3.org/2000/svg" version="1.1">
 <metadata>
  <rdf:RDF xmlns:dc="http://purl.org/dc/elements/1.1/" xmlns:cc="http://creativecommons.org/ns#" xmlns:rdf="http://www.w3.org/1999/02/22-rdf-syntax-ns#">
   <cc:Work>
    <dc:type rdf:resource="http://purl.org/dc/dcmitype/StillImage"/>
    <dc:date>2026-02-12T06:30:25.931976</dc:date>
    <dc:format>image/svg+xml</dc:format>
    <dc:creator>
     <cc:Agent>
      <dc:title>Matplotlib v3.10.8, https://matplotlib.org/</dc:title>
     </cc:Agent>
    </dc:creator>
   </cc:Work>
  </rdf:RDF>
 </metadata>
 <defs>
  <style type="text/css">*{stroke-linejoin: round; stroke-linecap: butt}</style>
 </defs>
 <g id="figure_1">
  <g id="patch_1">
   <path d="M 0 345.6 
L 460.8 345.6 
L 460.8 0 
L 0 0 
L 0 345.6 
z
" style="fill: none"/>
  </g>
  <g id="axes_1">
   <g id="patch_2">
    <path d="M 47.018 302.2 
L 450 302.2 
L 450 10.8 
L 47.018 10.8 
L 47.018 302.2 
z
" style="fill: none"/>
   </g>
   <g id="FillBetweenPolyCollection_1">
    <path d="M 65.335364 201.687232 
L 65.335364 205.73336 
L 72.811839 192.203189 
L 80.288314 180.348822 
L 87.764788 170.440457 
L 95.241263 161.403348 
L 102.717738 154.397357 
L 110.194213 148.82291 
L 117.670688 143.590756 
L 125.147163 138.698938 
L 132.623638 133.704906 
L 140.100113 129.729048 
L 147.576588 125.96957 
L 155.053063 122.026684 
L 162.529538 118.055581 
L 170.006013 113.928382 
L 177.482488 110.333324 
L 184.958963 107.438731 
L 192.435438 104.434102 
L 199.911913 101.000009 
L 207.388388 97.541917 
L 214.864863 94.738382 
L 222.341338 92.162807 
L 229.817813 89.285209 
L 237.294288 86.295098 
L 244.770763 83.328723 
L 252.247237 80.642238 
L 259.723712 78.475754 
L 267.200187 75.983705 
L 274.676662 73.185357 
L 282.153137 70.41374 
L 289.629612 68.289478 
L 297.106087 66.124392 
L 304.582562 63.978674 
L 312.059037 61.333526 
L 319.535512 58.640491 
L 327.011987 56.734676 
L 334.488462 54.924379 
L 341.964937 52.706102 
L 349.441412 50.230523 
L 356.917887 47.806459 
L 364.394362 46.028629 
L 371.870837 44.334073 
L 379.347312 42.502494 
L 386.823787 40.122128 
L 394.300262 37.692659 
L 401.776737 36.161812 
L 409.253212 34.68968 
L 416.729686 32.936858 
L 424.206161 30.592129 
L 431.682636 28.058509 
L 431.682636 24.045455 
L 431.682636 24.045455 
L 424.206161 25.172113 
L 416.729686 26.682574 
L 409.253212 28.832877 
L 401.776737 31.298577 
L 394.300262 33.646894 
L 386.823787 35.261591 
L 379.347312 36.896931 
L 371.870837 38.840543 
L 364.394362 41.322841 
L 356.917887 43.709675 
L 349.441412 45.475155 
L 341.964937 47.347691 
L 334.488462 49.43808 
L 327.011987 51.990756 
L 319.535512 54.655803 
L 312.059037 56.365058 
L 304.582562 58.465482 
L 297.106087 60.982821 
L 289.629612 63.695825 
L 282.153137 66.308217 
L 274.676662 68.177927 
L 267.200187 70.395397 
L 259.723712 73.265427 
L 252.247237 76.252015 
L 244.770763 79.069603 
L 237.294288 81.339085 
L 229.817813 83.97079 
L 222.341338 86.93268 
L 214.864863 90.219288 
L 207.388388 93.461371 
L 199.911913 96.036335 
L 192.435438 98.769736 
L 184.958963 102.090385 
L 177.482488 106.082711 
L 170.006013 109.841718 
L 162.529538 112.944301 
L 155.053063 116.728329 
L 147.576588 120.660137 
L 140.100113 125.191755 
L 132.623638 129.523752 
L 125.147163 133.399242 
L 117.670688 138.089083 
L 110.194213 143.271967 
L 102.717738 150.03538 
L 95.241263 157.067807 
L 87.764788 164.945263 
L 80.288314 174.845964 
L 72.811839 186.771002 
L 65.335364 201.687232 
z
" clip-path="url(#p446e8791d4)" style="fill: #1f77b4; fill-opacity: 0.45"/>
   </g>
   <g id="FillBetweenPolyCollection_2">
    <path d="M 65.335364 237.630859 
L 65.335364 240.991089 
L 72.811839 234.309584 
L 80.288314 228.17944 
L 87.764788 222.86395 
L 95.241263 217.550969 
L 102.717738 213.967488 
L 110.194213 211.199989 
L 117.670688 208.465718 
L 125.147163 205.760798 
L 132.623638 202.751618 
L 140.100113 200.509305 
L 147.576588 198.933568 
L 155.053063 196.800229 
L 162.529538 194.516424 
L 170.006013 191.873151 
L 177.482488 190.204984 
L 184.958963 188.776895 
L 192.435438 187.137318 
L 199.911913 185.224067 
L 207.388388 182.873512 
L 214.864863 181.535385 
L 222.341338 180.351415 
L 229.817813 179.036053 
L 237.294288 177.069418 
L 244.770763 175.113823 
L 252.247237 173.969703 
L 259.723712 172.909121 
L 267.200187 171.661823 
L 274.676662 169.839822 
L 282.153137 167.899524 
L 289.629612 167.021275 
L 297.106087 166.224765 
L 304.582562 164.966942 
L 312.059037 163.389822 
L 319.535512 161.402645 
L 327.011987 160.645211 
L 334.488462 159.956511 
L 341.964937 158.865631 
L 349.441412 157.345858 
L 356.917887 155.483723 
L 364.394362 155.102219 
L 371.870837 154.157778 
L 379.347312 153.020456 
L 386.823787 151.647095 
L 394.300262 149.916042 
L 401.776737 149.605779 
L 409.253212 148.931975 
L 416.729686 148.130306 
L 424.206161 146.416502 
L 431.682636 144.671729 
L 431.682636 141.25828 
L 431.682636 141.25828 
L 424.206161 141.198892 
L 416.729686 142.061543 
L 409.253212 143.317659 
L 401.776737 144.773798 
L 394.300262 146.605642 
L 386.823787 146.939732 
L 379.347312 147.806973 
L 371.870837 148.97259 
L 364.394362 150.509707 
L 356.917887 152.032629 
L 349.441412 152.694583 
L 341.964937 153.434041 
L 334.488462 154.694325 
L 327.011987 156.41124 
L 319.535512 158.101558 
L 312.059037 158.672766 
L 304.582562 159.690962 
L 297.106087 160.955436 
L 289.629612 162.664135 
L 282.153137 164.470311 
L 274.676662 165.310693 
L 267.200187 166.299121 
L 259.723712 167.646096 
L 252.247237 169.627907 
L 244.770763 171.535347 
L 237.294288 172.338741 
L 229.817813 173.560016 
L 222.341338 175.219483 
L 214.864863 177.46243 
L 207.388388 179.1358 
L 199.911913 180.197808 
L 192.435438 181.788059 
L 184.958963 183.582403 
L 177.482488 186.101207 
L 170.006013 188.145095 
L 162.529538 189.504875 
L 155.053063 191.511327 
L 147.576588 193.750372 
L 140.100113 196.516786 
L 132.623638 198.912438 
L 125.147163 200.790392 
L 117.670688 203.197115 
L 110.194213 206.124063 
L 102.717738 209.967868 
L 95.241263 213.741098 
L 87.764788 217.580121 
L 80.288314 222.733168 
L 72.811839 229.377095 
L 65.335364 237.630859 
z
" clip-path="url(#p446e8791d4)" style="fill: #ff7f0e; fill-opacity: 0.45"/>
   </g>
   <g id="FillBetweenPolyCollection_3">
    <path d="M 65.335364 256.365684 
L 65.335364 262.923046 
L 72.811839 259.936032 
L 80.288314 257.557986 
L 87.764788 255.323899 
L 95.241263 253.462801 
L 102.717738 252.019807 
L 110.194213 250.797071 
L 117.670688 249.931534 
L 125.147163 248.591921 
L 132.623638 247.58211 
L 140.100113 246.723258 
L 147.576588 245.957706 
L 155.053063 245.052886 
L 162.529538 244.339162 
L 170.006013 243.444855 
L 177.482488 242.515841 
L 184.958963 241.911914 
L 192.435438 241.319527 
L 199.911913 240.536071 
L 207.388388 239.833611 
L 214.864863 238.970182 
L 222.341338 238.403036 
L 229.817813 237.89713 
L 237.294288 237.417176 
L 244.770763 236.636805 
L 252.247237 236.205188 
L 259.723712 235.656798 
L 267.200187 235.15749 
L 274.676662 234.489034 
L 282.153137 233.705167 
L 289.629612 233.252515 
L 297.106087 233.034219 
L 304.582562 232.404802 
L 312.059037 231.753414 
L 319.535512 231.227055 
L 327.011987 230.759072 
L 334.488462 230.350508 
L 341.964937 229.88339 
L 349.441412 229.349656 
L 356.917887 228.876168 
L 364.394362 228.518116 
L 371.870837 228.011071 
L 379.347312 227.462241 
L 386.823787 227.147038 
L 394.300262 226.681253 
L 401.776737 226.373291 
L 409.253212 226.072224 
L 416.729686 225.859658 
L 424.206161 225.219287 
L 431.682636 224.576887 
L 431.682636 217.916649 
L 431.682636 217.916649 
L 424.206161 218.26425 
L 416.729686 218.556678 
L 409.253212 218.852028 
L 401.776737 219.577211 
L 394.300262 220.271197 
L 386.823787 220.576823 
L 379.347312 220.830751 
L 371.870837 221.211268 
L 364.394362 221.96045 
L 356.917887 222.282295 
L 349.441412 222.701231 
L 341.964937 222.979649 
L 334.488462 223.499799 
L 327.011987 224.372785 
L 319.535512 224.754295 
L 312.059037 225.472996 
L 304.582562 225.588659 
L 297.106087 226.046989 
L 289.629612 226.978568 
L 282.153137 227.365791 
L 274.676662 227.844364 
L 267.200187 228.076202 
L 259.723712 228.797173 
L 252.247237 229.398019 
L 244.770763 230.151954 
L 237.294288 230.748077 
L 229.817813 231.286524 
L 222.341338 231.811114 
L 214.864863 232.44095 
L 207.388388 233.237809 
L 199.911913 233.871738 
L 192.435438 234.408325 
L 184.958963 235.309214 
L 177.482488 236.085568 
L 170.006013 236.855764 
L 162.529538 237.676386 
L 155.053063 238.225638 
L 147.576588 239.096374 
L 140.100113 240.228527 
L 132.623638 240.985201 
L 125.147163 241.986457 
L 117.670688 243.007979 
L 110.194213 244.201296 
L 102.717738 245.562073 
L 95.241263 246.943113 
L 87.764788 248.726264 
L 80.288314 250.498192 
L 72.811839 253.248125 
L 65.335364 256.365684 
z
" clip-path="url(#p446e8791d4)" style="fill: #2ca02c; fill-opacity: 0.45"/>
   </g>
   <g id="FillBetweenPolyCollection_4">
    <path d="M 65.335364 248.659329 
L 65.335364 288.954545 
L 72.811839 286.776778 
L 80.288314 285.856235 
L 87.764788 286.674972 
L 95.241263 283.934641 
L 102.717738 283.356135 
L 110.194213 284.236743 
L 117.670688 283.870033 
L 125.147163 283.214203 
L 132.623638 283.475098 
L 140.100113 284.373624 
L 147.576588 283.159389 
L 155.053063 283.624313 
L 162.529538 283.498355 
L 170.006013 284.379899 
L 177.482488 284.329254 
L 184.958963 284.077859 
L 192.435438 284.464111 
L 199.911913 283.25466 
L 207.388388 283.174656 
L 214.864863 283.296741 
L 222.341338 283.897058 
L 229.817813 284.114703 
L 237.294288 283.981936 
L 244.770763 283.683502 
L 252.247237 282.10998 
L 259.723712 283.716099 
L 267.200187 284.088355 
L 274.676662 283.130716 
L 282.153137 283.433803 
L 289.629612 283.573203 
L 297.106087 283.092302 
L 304.582562 283.021956 
L 312.059037 283.49025 
L 319.535512 282.999356 
L 327.011987 283.939334 
L 334.488462 282.664112 
L 341.964937 282.397066 
L 349.441412 282.767173 
L 356.917887 283.983905 
L 364.394362 283.058515 
L 371.870837 282.179031 
L 379.347312 283.224184 
L 386.823787 283.395267 
L 394.300262 282.740566 
L 401.776737 282.66047 
L 409.253212 283.051216 
L 416.729686 282.570743 
L 424.206161 283.402513 
L 431.682636 283.694727 
L 431.682636 243.287014 
L 431.682636 243.287014 
L 424.206161 242.592411 
L 416.729686 243.343139 
L 409.253212 243.139593 
L 401.776737 243.191385 
L 394.300262 242.879668 
L 386.823787 243.054562 
L 379.347312 243.850987 
L 371.870837 244.617956 
L 364.394362 244.714817 
L 356.917887 244.358176 
L 349.441412 245.58165 
L 341.964937 244.670141 
L 334.488462 245.334166 
L 327.011987 244.979703 
L 319.535512 244.277279 
L 312.059037 244.458794 
L 304.582562 246.053832 
L 297.106087 244.502078 
L 289.629612 245.436227 
L 282.153137 245.071894 
L 274.676662 244.82818 
L 267.200187 245.500161 
L 259.723712 246.269379 
L 252.247237 245.348082 
L 244.770763 244.728891 
L 237.294288 244.929164 
L 229.817813 246.205394 
L 222.341338 245.258228 
L 214.864863 245.501571 
L 207.388388 244.692079 
L 199.911913 246.028641 
L 192.435438 245.299017 
L 184.958963 245.982749 
L 177.482488 245.52616 
L 170.006013 243.850888 
L 162.529538 245.731044 
L 155.053063 244.430009 
L 147.576588 244.980641 
L 140.100113 244.376753 
L 132.623638 244.303586 
L 125.147163 245.256676 
L 117.670688 244.148595 
L 110.194213 244.643745 
L 102.717738 244.941577 
L 95.241263 245.72459 
L 87.764788 246.561042 
L 80.288314 245.736356 
L 72.811839 245.910573 
L 65.335364 248.659329 
z
" clip-path="url(#p446e8791d4)" style="fill: #d62728; fill-opacity: 0.45"/>
   </g>
   <g id="matplotlib.axis_1">
    <g id="xtick_1">
     <g id="line2d_1">
      <defs>
       <path id="m8715e87086" d="M 0 0 
L 0 3.5 
" style="stroke: #000000; stroke-width: 0.8"/>
      </defs>
      <g>
       <use xlink:href="#m8715e87086" x="61.634886" y="302.2" style="stroke: #000000; stroke-width: 0.8"/>
      </g>
     </g>
     <g id="text_1">
      <!-- 0 -->
      <g transform="translate(58.453636 316.798437) scale(0.1 -0.1)">
       <defs>
        <path id="DejaVuSans-30" d="M 2034 4250 
Q 1547 4250 1301 3770 
Q 1056 3291 1056 2328 
Q 1056 1369 1301 889 
Q 1547 409 2034 409 
Q 2525 409 2770 889 
Q 3016 1369 3016 2328 
Q 3016 3291 2770 3770 
Q 2525 4250 2034 4250 
z
M 2034 4750 
Q 2819 4750 3233 4129 
Q 3647 3509 3647 2328 
Q 3647 1150 3233 529 
Q 2819 -91 2034 -91 
Q 1250 -91 836 529 
Q 422 1150 422 2328 
Q 422 3509 836 4129 
Q 1250 4750 2034 4750 
z
" transform="scale(0.015625)"/>
       </defs>
       <use xlink:href="#DejaVuSans-30"/>
      </g>
     </g>
    </g>
    <g id="xtick_2">
     <g id="line2d_2">
      <g>
       <use xlink:href="#m8715e87086" x="135.644436" y="302.2" style="stroke: #000000; stroke-width: 0.8"/>
      </g>
     </g>
     <g id="text_2">
      <!-- 1 -->
      <g transform="translate(132.463186 316.798437) scale(0.1 -0.1)">
       <defs>
        <path id="DejaVuSans-31" d="M 794 531 
L 1825 531 
L 1825 4091 
L 703 3866 
L 703 4441 
L 1819 4666 
L 2450 4666 
L 2450 531 
L 3481 531 
L 3481 0 
L 794 0 
L 794 531 
z
" transform="scale(0.015625)"/>
       </defs>
       <use xlink:href="#DejaVuSans-31"/>
      </g>
     </g>
    </g>
    <g id="xtick_3">
     <g id="line2d_3">
      <g>
       <use xlink:href="#m8715e87086" x="209.653986" y="302.2" style="stroke: #000000; stroke-width: 0.8"/>
      </g>
     </g>
     <g id="text_3">
      <!-- 2 -->
      <g transform="translate(206.472736 316.798437) scale(0.1 -0.1)">
       <defs>
        <path id="DejaVuSans-32" d="M 1228 531 
L 3431 531 
L 3431 0 
L 469 0 
L 469 531 
Q 828 903 1448 1529 
Q 2069 2156 2228 2338 
Q 2531 2678 2651 2914 
Q 2772 3150 2772 3378 
Q 2772 3750 2511 3984 
Q 2250 4219 1831 4219 
Q 1534 4219 1204 4116 
Q 875 4013 500 3803 
L 500 4441 
Q 881 4594 1212 4672 
Q 1544 4750 1819 4750 
Q 2544 4750 2975 4387 
Q 3406 4025 3406 3419 
Q 3406 3131 3298 2873 
Q 3191 2616 2906 2266 
Q 2828 2175 2409 1742 
Q 1991 1309 1228 531 
z
" transform="scale(0.015625)"/>
       </defs>
       <use xlink:href="#DejaVuSans-32"/>
      </g>
     </g>
    </g>
    <g id="xtick_4">
     <g id="line2d_4">
      <g>
       <use xlink:href="#m8715e87086" x="283.663536" y="302.2" style="stroke: #000000; stroke-width: 0.8"/>
      </g>
     </g>
     <g id="text_4">
      <!-- 3 -->
      <g transform="translate(280.482286 316.798437) scale(0.1 -0.1)">
       <defs>
        <path id="DejaVuSans-33" d="M 2597 2516 
Q 3050 2419 3304 2112 
Q 3559 1806 3559 1356 
Q 3559 666 3084 287 
Q 2609 -91 1734 -91 
Q 1441 -91 1130 -33 
Q 819 25 488 141 
L 488 750 
Q 750 597 1062 519 
Q 1375 441 1716 441 
Q 2309 441 2620 675 
Q 2931 909 2931 1356 
Q 2931 1769 2642 2001 
Q 2353 2234 1838 2234 
L 1294 2234 
L 1294 2753 
L 1863 2753 
Q 2328 2753 2575 2939 
Q 2822 3125 2822 3475 
Q 2822 3834 2567 4026 
Q 2313 4219 1838 4219 
Q 1578 4219 1281 4162 
Q 984 4106 628 3988 
L 628 4550 
Q 988 4650 1302 4700 
Q 1616 4750 1894 4750 
Q 2613 4750 3031 4423 
Q 3450 4097 3450 3541 
Q 3450 3153 3228 2886 
Q 3006 2619 2597 2516 
z
" transform="scale(0.015625)"/>
       </defs>
       <use xlink:href="#DejaVuSans-33"/>
      </g>
     </g>
    </g>
    <g id="xtick_5">
     <g id="line2d_5">
      <g>
       <use xlink:href="#m8715e87086" x="357.673086" y="302.2" style="stroke: #000000; stroke-width: 0.8"/>
      </g>
     </g>
     <g id="text_5">
      <!-- 4 -->
      <g transform="translate(354.491836 316.798437) scale(0.1 -0.1)">
       <defs>
        <path id="DejaVuSans-34" d="M 2419 4116 
L 825 1625 
L 2419 1625 
L 2419 4116 
z
M 2253 4666 
L 3047 4666 
L 3047 1625 
L 3713 1625 
L 3713 1100 
L 3047 1100 
L 3047 0 
L 2419 0 
L 2419 1100 
L 313 1100 
L 313 1709 
L 2253 4666 
z
" transform="scale(0.015625)"/>
       </defs>
       <use xlink:href="#DejaVuSans-34"/>
      </g>
     </g>
    </g>
    <g id="xtick_6">
     <g id="line2d_6">
      <g>
       <use xlink:href="#m8715e87086" x="431.682636" y="302.2" style="stroke: #000000; stroke-width: 0.8"/>
      </g>
     </g>
     <g id="text_6">
      <!-- 5 -->
      <g transform="translate(428.501386 316.798437) scale(0.1 -0.1)">
       <defs>
        <path id="DejaVuSans-35" d="M 691 4666 
L 3169 4666 
L 3169 4134 
L 1269 4134 
L 1269 2991 
Q 1406 3038 1543 3061 
Q 1681 3084 1819 3084 
Q 2600 3084 3056 2656 
Q 3513 2228 3513 1497 
Q 3513 744 3044 326 
Q 2575 -91 1722 -91 
Q 1428 -91 1123 -41 
Q 819 9 494 109 
L 494 744 
Q 775 591 1075 516 
Q 1375 441 1709 441 
Q 2250 441 2565 725 
Q 2881 1009 2881 1497 
Q 2881 1984 2565 2268 
Q 2250 2553 1709 2553 
Q 1456 2553 1204 2497 
Q 953 2441 691 2322 
L 691 4666 
z
" transform="scale(0.015625)"/>
       </defs>
       <use xlink:href="#DejaVuSans-35"/>
      </g>
     </g>
    </g>
    <g id="text_7">
     <!-- $W$ (m/hour) -->
     <g transform="translate(220.059 330.476562) scale(0.1 -0.1)">
      <defs>
       <path id="DejaVuSans-Oblique-57" d="M 616 4666 
L 1228 4666 
L 1453 697 
L 3213 4666 
L 3916 4666 
L 4147 697 
L 5888 4666 
L 6528 4666 
L 4453 0 
L 3659 0 
L 3444 3891 
L 1697 0 
L 903 0 
L 616 4666 
z
" transform="scale(0.015625)"/>
       <path id="DejaVuSans-20" transform="scale(0.015625)"/>
       <path id="DejaVuSans-28" d="M 1984 4856 
Q 1566 4138 1362 3434 
Q 1159 2731 1159 2009 
Q 1159 1288 1364 580 
Q 1569 -128 1984 -844 
L 1484 -844 
Q 1016 -109 783 600 
Q 550 1309 550 2009 
Q 550 2706 781 3412 
Q 1013 4119 1484 4856 
L 1984 4856 
z
" transform="scale(0.015625)"/>
       <path id="DejaVuSans-6d" d="M 3328 2828 
Q 3544 3216 3844 3400 
Q 4144 3584 4550 3584 
Q 5097 3584 5394 3201 
Q 5691 2819 5691 2113 
L 5691 0 
L 5113 0 
L 5113 2094 
Q 5113 2597 4934 2840 
Q 4756 3084 4391 3084 
Q 3944 3084 3684 2787 
Q 3425 2491 3425 1978 
L 3425 0 
L 2847 0 
L 2847 2094 
Q 2847 2600 2669 2842 
Q 2491 3084 2119 3084 
Q 1678 3084 1418 2786 
Q 1159 2488 1159 1978 
L 1159 0 
L 581 0 
L 581 3500 
L 1159 3500 
L 1159 2956 
Q 1356 3278 1631 3431 
Q 1906 3584 2284 3584 
Q 2666 3584 2933 3390 
Q 3200 3197 3328 2828 
z
" transform="scale(0.015625)"/>
       <path id="DejaVuSans-2f" d="M 1625 4666 
L 2156 4666 
L 531 -594 
L 0 -594 
L 1625 4666 
z
" transform="scale(0.015625)"/>
       <path id="DejaVuSans-68" d="M 3513 2113 
L 3513 0 
L 2938 0 
L 2938 2094 
Q 2938 2591 2744 2837 
Q 2550 3084 2163 3084 
Q 1697 3084 1428 2787 
Q 1159 2491 1159 1978 
L 1159 0 
L 581 0 
L 581 4863 
L 1159 4863 
L 1159 2956 
Q 1366 3272 1645 3428 
Q 1925 3584 2291 3584 
Q 2894 3584 3203 3211 
Q 3513 2838 3513 2113 
z
" transform="scale(0.015625)"/>
       <path id="DejaVuSans-6f" d="M 1959 3097 
Q 1497 3097 1228 2736 
Q 959 2375 959 1747 
Q 959 1119 1226 758 
Q 1494 397 1959 397 
Q 2419 397 2687 759 
Q 2956 1122 2956 1747 
Q 2956 2369 2687 2733 
Q 2419 3097 1959 3097 
z
M 1959 3584 
Q 2709 3584 3137 3096 
Q 3566 2609 3566 1747 
Q 3566 888 3137 398 
Q 2709 -91 1959 -91 
Q 1206 -91 779 398 
Q 353 888 353 1747 
Q 353 2609 779 3096 
Q 1206 3584 1959 3584 
z
" transform="scale(0.015625)"/>
       <path id="DejaVuSans-75" d="M 544 1381 
L 544 3500 
L 1119 3500 
L 1119 1403 
Q 1119 906 1312 657 
Q 1506 409 1894 409 
Q 2359 409 2629 706 
Q 2900 1003 2900 1516 
L 2900 3500 
L 3475 3500 
L 3475 0 
L 2900 0 
L 2900 538 
Q 2691 219 2414 64 
Q 2138 -91 1772 -91 
Q 1169 -91 856 284 
Q 544 659 544 1381 
z
M 1991 3584 
L 1991 3584 
z
" transform="scale(0.015625)"/>
       <path id="DejaVuSans-72" d="M 2631 2963 
Q 2534 3019 2420 3045 
Q 2306 3072 2169 3072 
Q 1681 3072 1420 2755 
Q 1159 2438 1159 1844 
L 1159 0 
L 581 0 
L 581 3500 
L 1159 3500 
L 1159 2956 
Q 1341 3275 1631 3429 
Q 1922 3584 2338 3584 
Q 2397 3584 2469 3576 
Q 2541 3569 2628 3553 
L 2631 2963 
z
" transform="scale(0.015625)"/>
       <path id="DejaVuSans-29" d="M 513 4856 
L 1013 4856 
Q 1481 4119 1714 3412 
Q 1947 2706 1947 2009 
Q 1947 1309 1714 600 
Q 1481 -109 1013 -844 
L 513 -844 
Q 928 -128 1133 580 
Q 1338 1288 1338 2009 
Q 1338 2731 1133 3434 
Q 928 4138 513 4856 
z
" transform="scale(0.015625)"/>
      </defs>
      <use xlink:href="#DejaVuSans-Oblique-57" transform="translate(0 0.015625)"/>
      <use xlink:href="#DejaVuSans-20" transform="translate(98.876953 0.015625)"/>
      <use xlink:href="#DejaVuSans-28" transform="translate(130.664062 0.015625)"/>
      <use xlink:href="#DejaVuSans-6d" transform="translate(169.677734 0.015625)"/>
      <use xlink:href="#DejaVuSans-2f" transform="translate(267.089844 0.015625)"/>
      <use xlink:href="#DejaVuSans-68" transform="translate(300.78125 0.015625)"/>
      <use xlink:href="#DejaVuSans-6f" transform="translate(364.160156 0.015625)"/>
      <use xlink:href="#DejaVuSans-75" transform="translate(425.341797 0.015625)"/>
      <use xlink:href="#DejaVuSans-72" transform="translate(488.720703 0.015625)"/>
      <use xlink:href="#DejaVuSans-29" transform="translate(529.833984 0.015625)"/>
     </g>
    </g>
   </g>
   <g id="matplotlib.axis_2">
    <g id="ytick_1">
     <g id="line2d_7">
      <defs>
       <path id="m0d93116b65" d="M 0 0 
L -3.5 0 
" style="stroke: #000000; stroke-width: 0.8"/>
      </defs>
      <g>
       <use xlink:href="#m0d93116b65" x="47.018" y="271.056206" style="stroke: #000000; stroke-width: 0.8"/>
      </g>
     </g>
     <g id="text_8">
      <!-- 0 -->
      <g transform="translate(33.6555 274.855424) scale(0.1 -0.1)">
       <use xlink:href="#DejaVuSans-30"/>
      </g>
     </g>
    </g>
    <g id="ytick_2">
     <g id="line2d_8">
      <g>
       <use xlink:href="#m0d93116b65" x="47.018" y="236.586099" style="stroke: #000000; stroke-width: 0.8"/>
      </g>
     </g>
     <g id="text_9">
      <!-- 5 -->
      <g transform="translate(33.6555 240.385317) scale(0.1 -0.1)">
       <use xlink:href="#DejaVuSans-35"/>
      </g>
     </g>
    </g>
    <g id="ytick_3">
     <g id="line2d_9">
      <g>
       <use xlink:href="#m0d93116b65" x="47.018" y="202.115992" style="stroke: #000000; stroke-width: 0.8"/>
      </g>
     </g>
     <g id="text_10">
      <!-- 10 -->
      <g transform="translate(27.293 205.91521) scale(0.1 -0.1)">
       <use xlink:href="#DejaVuSans-31"/>
       <use xlink:href="#DejaVuSans-30" transform="translate(63.623047 0)"/>
      </g>
     </g>
    </g>
    <g id="ytick_4">
     <g id="line2d_10">
      <g>
       <use xlink:href="#m0d93116b65" x="47.018" y="167.645885" style="stroke: #000000; stroke-width: 0.8"/>
      </g>
     </g>
     <g id="text_11">
      <!-- 15 -->
      <g transform="translate(27.293 171.445104) scale(0.1 -0.1)">
       <use xlink:href="#DejaVuSans-31"/>
       <use xlink:href="#DejaVuSans-35" transform="translate(63.623047 0)"/>
      </g>
     </g>
    </g>
    <g id="ytick_5">
     <g id="line2d_11">
      <g>
       <use xlink:href="#m0d93116b65" x="47.018" y="133.175778" style="stroke: #000000; stroke-width: 0.8"/>
      </g>
     </g>
     <g id="text_12">
      <!-- 20 -->
      <g transform="translate(27.293 136.974997) scale(0.1 -0.1)">
       <use xlink:href="#DejaVuSans-32"/>
       <use xlink:href="#DejaVuSans-30" transform="translate(63.623047 0)"/>
      </g>
     </g>
    </g>
    <g id="ytick_6">
     <g id="line2d_12">
      <g>
       <use xlink:href="#m0d93116b65" x="47.018" y="98.705671" style="stroke: #000000; stroke-width: 0.8"/>
      </g>
     </g>
     <g id="text_13">
      <!-- 25 -->
      <g transform="translate(27.293 102.50489) scale(0.1 -0.1)">
       <use xlink:href="#DejaVuSans-32"/>
       <use xlink:href="#DejaVuSans-35" transform="translate(63.623047 0)"/>
      </g>
     </g>
    </g>
    <g id="ytick_7">
     <g id="line2d_13">
      <g>
       <use xlink:href="#m0d93116b65" x="47.018" y="64.235564" style="stroke: #000000; stroke-width: 0.8"/>
      </g>
     </g>
     <g id="text_14">
      <!-- 30 -->
      <g transform="translate(27.293 68.034783) scale(0.1 -0.1)">
       <use xlink:href="#DejaVuSans-33"/>
       <use xlink:href="#DejaVuSans-30" transform="translate(63.623047 0)"/>
      </g>
     </g>
    </g>
    <g id="ytick_8">
     <g id="line2d_14">
      <g>
       <use xlink:href="#m0d93116b65" x="47.018" y="29.765457" style="stroke: #000000; stroke-width: 0.8"/>
      </g>
     </g>
     <g id="text_15">
      <!-- 35 -->
      <g transform="translate(27.293 33.564676) scale(0.1 -0.1)">
       <use xlink:href="#DejaVuSans-33"/>
       <use xlink:href="#DejaVuSans-35" transform="translate(63.623047 0)"/>
      </g>
     </g>
    </g>
    <g id="text_16">
     <!-- $Q_{lc}$ (kW) -->
     <g transform="translate(21.213312 176.8) rotate(-90) scale(0.1 -0.1)">
      <defs>
       <path id="DejaVuSans-Oblique-51" d="M 2309 -84 
Q 2275 -88 2237 -89 
Q 2200 -91 2125 -91 
Q 1250 -91 756 411 
Q 263 913 263 1797 
Q 263 2319 452 2844 
Q 641 3369 978 3788 
Q 1369 4269 1858 4509 
Q 2347 4750 2938 4750 
Q 3794 4750 4287 4245 
Q 4781 3741 4781 2869 
Q 4781 1928 4265 1147 
Q 3750 366 2919 44 
L 3553 -825 
L 2847 -825 
L 2309 -84 
z
M 2919 4238 
Q 2400 4238 2003 3986 
Q 1606 3734 1313 3219 
Q 1125 2891 1026 2522 
Q 928 2153 928 1778 
Q 928 1128 1239 775 
Q 1550 422 2119 422 
Q 2631 422 3032 676 
Q 3434 931 3719 1434 
Q 3909 1772 4009 2142 
Q 4109 2513 4109 2881 
Q 4109 3528 3796 3883 
Q 3484 4238 2919 4238 
z
" transform="scale(0.015625)"/>
       <path id="DejaVuSans-Oblique-6c" d="M 1172 4863 
L 1747 4863 
L 800 0 
L 225 0 
L 1172 4863 
z
" transform="scale(0.015625)"/>
       <path id="DejaVuSans-Oblique-63" d="M 3431 3366 
L 3316 2797 
Q 3109 2947 2876 3022 
Q 2644 3097 2394 3097 
Q 2119 3097 1870 3000 
Q 1622 2903 1453 2725 
Q 1184 2453 1037 2087 
Q 891 1722 891 1331 
Q 891 859 1127 628 
Q 1363 397 1844 397 
Q 2081 397 2348 469 
Q 2616 541 2906 684 
L 2797 116 
Q 2547 13 2283 -39 
Q 2019 -91 1741 -91 
Q 1044 -91 669 257 
Q 294 606 294 1253 
Q 294 1797 489 2255 
Q 684 2713 1069 3078 
Q 1331 3328 1684 3456 
Q 2038 3584 2456 3584 
Q 2700 3584 2940 3529 
Q 3181 3475 3431 3366 
z
" transform="scale(0.015625)"/>
       <path id="DejaVuSans-6b" d="M 581 4863 
L 1159 4863 
L 1159 1991 
L 2875 3500 
L 3609 3500 
L 1753 1863 
L 3688 0 
L 2938 0 
L 1159 1709 
L 1159 0 
L 581 0 
L 581 4863 
z
" transform="scale(0.015625)"/>
       <path id="DejaVuSans-57" d="M 213 4666 
L 850 4666 
L 1831 722 
L 2809 4666 
L 3519 4666 
L 4500 722 
L 5478 4666 
L 6119 4666 
L 4947 0 
L 4153 0 
L 3169 4050 
L 2175 0 
L 1381 0 
L 213 4666 
z
" transform="scale(0.015625)"/>
      </defs>
      <use xlink:href="#DejaVuSans-Oblique-51" transform="translate(0 0.015625)"/>
      <use xlink:href="#DejaVuSans-Oblique-6c" transform="translate(78.710938 -16.390625) scale(0.7)"/>
      <use xlink:href="#DejaVuSans-Oblique-63" transform="translate(98.15918 -16.390625) scale(0.7)"/>
      <use xlink:href="#DejaVuSans-20" transform="translate(139.379883 0.015625)"/>
      <use xlink:href="#DejaVuSans-28" transform="translate(171.166992 0.015625)"/>
      <use xlink:href="#DejaVuSans-6b" transform="translate(210.180664 0.015625)"/>
      <use xlink:href="#DejaVuSans-57" transform="translate(268.09082 0.015625)"/>
      <use xlink:href="#DejaVuSans-29" transform="translate(366.967773 0.015625)"/>
     </g>
    </g>
   </g>
   <g id="line2d_15">
    <path d="M 65.335364 203.75077 
L 72.811839 189.609484 
L 80.288314 177.579774 
L 87.764788 167.607998 
L 95.241263 159.191953 
L 102.717738 152.161759 
L 110.194213 146.122674 
L 117.670688 140.876031 
L 125.147163 136.058972 
L 132.623638 131.652561 
L 140.100113 127.460875 
L 147.576588 123.383846 
L 155.053063 119.413166 
L 162.529538 115.582247 
L 170.006013 111.822855 
L 177.482488 108.26462 
L 184.958963 104.873249 
L 192.435438 101.493777 
L 199.911913 98.48179 
L 207.388388 95.389975 
L 214.864863 92.464495 
L 222.341338 89.581459 
L 229.817813 86.649199 
L 237.294288 83.902266 
L 244.770763 81.185056 
L 252.247237 78.467948 
L 259.723712 75.803783 
L 267.200187 73.172329 
L 274.676662 70.769882 
L 282.153137 68.317243 
L 289.629612 65.932973 
L 297.106087 63.541273 
L 304.582562 61.189427 
L 312.059037 58.872461 
L 319.535512 56.631092 
L 327.011987 54.371043 
L 334.488462 52.182184 
L 341.964937 50.017161 
L 349.441412 47.841419 
L 356.917887 45.779252 
L 364.394362 43.726643 
L 371.870837 41.63588 
L 379.347312 39.645668 
L 386.823787 37.618885 
L 394.300262 35.674141 
L 401.776737 33.662256 
L 409.253212 31.714835 
L 416.729686 29.764761 
L 424.206161 27.922339 
L 431.682636 26.152421 
" clip-path="url(#p446e8791d4)" style="fill: none; stroke: #1f77b4; stroke-width: 1.5; stroke-linecap: square"/>
   </g>
   <g id="line2d_16">
    <path d="M 65.335364 239.421259 
L 72.811839 231.851787 
L 80.288314 225.520822 
L 87.764788 220.224388 
L 95.241263 215.757536 
L 102.717738 211.929108 
L 110.194213 208.726167 
L 117.670688 205.871758 
L 125.147163 203.257696 
L 132.623638 200.759623 
L 140.100113 198.508755 
L 147.576588 196.299108 
L 155.053063 194.091936 
L 162.529538 192.069244 
L 170.006013 190.084271 
L 177.482488 188.077529 
L 184.958963 186.214203 
L 192.435438 184.387831 
L 199.911913 182.79406 
L 207.388388 181.01553 
L 214.864863 179.454177 
L 222.341338 177.743045 
L 229.817813 176.291823 
L 237.294288 174.636371 
L 244.770763 173.239805 
L 252.247237 171.768492 
L 259.723712 170.388353 
L 267.200187 168.875879 
L 274.676662 167.574945 
L 282.153137 166.225882 
L 289.629612 164.869998 
L 297.106087 163.557545 
L 304.582562 162.325952 
L 312.059037 161.008463 
L 319.535512 159.768464 
L 327.011987 158.559205 
L 334.488462 157.268952 
L 341.964937 156.128545 
L 349.441412 155.004966 
L 356.917887 153.798202 
L 364.394362 152.651376 
L 371.870837 151.577355 
L 379.347312 150.401897 
L 386.823787 149.308649 
L 394.300262 148.280557 
L 401.776737 147.152184 
L 409.253212 146.147074 
L 416.729686 145.018055 
L 424.206161 143.966526 
L 431.682636 142.966315 
" clip-path="url(#p446e8791d4)" style="fill: none; stroke: #ff7f0e; stroke-width: 1.5; stroke-linecap: square"/>
   </g>
   <g id="line2d_17">
    <path d="M 65.335364 259.534113 
L 72.811839 256.509544 
L 80.288314 253.94544 
L 87.764788 251.885491 
L 95.241263 250.22851 
L 102.717738 248.727026 
L 110.194213 247.532829 
L 117.670688 246.430088 
L 125.147163 245.249914 
L 132.623638 244.331648 
L 140.100113 243.426148 
L 147.576588 242.505548 
L 155.053063 241.65033 
L 162.529538 240.878275 
L 170.006013 240.116968 
L 177.482488 239.346119 
L 184.958963 238.509553 
L 192.435438 237.844991 
L 199.911913 237.132517 
L 207.388388 236.513919 
L 214.864863 235.904802 
L 222.341338 235.218388 
L 229.817813 234.579191 
L 237.294288 234.037681 
L 244.770763 233.293907 
L 252.247237 232.733187 
L 259.723712 232.271192 
L 267.200187 231.694085 
L 274.676662 231.139974 
L 282.153137 230.541814 
L 289.629612 230.049967 
L 297.106087 229.476268 
L 304.582562 228.924645 
L 312.059037 228.465125 
L 319.535512 227.978784 
L 327.011987 227.532478 
L 334.488462 227.053001 
L 341.964937 226.547301 
L 349.441412 226.101767 
L 356.917887 225.653163 
L 364.394362 225.162145 
L 371.870837 224.695117 
L 379.347312 224.28568 
L 386.823787 223.773465 
L 394.300262 223.364523 
L 401.776737 222.921307 
L 409.253212 222.550319 
L 416.729686 222.057643 
L 424.206161 221.650202 
L 431.682636 221.284973 
" clip-path="url(#p446e8791d4)" style="fill: none; stroke: #2ca02c; stroke-width: 1.5; stroke-linecap: square"/>
   </g>
   <g id="line2d_18">
    <path d="M 65.335364 268.896717 
L 72.811839 267.429812 
L 80.288314 266.659034 
L 87.764788 265.602879 
L 95.241263 265.333484 
L 102.717738 264.488992 
L 110.194213 264.628295 
L 117.670688 264.656744 
L 125.147163 263.936141 
L 132.623638 264.365275 
L 140.100113 264.435632 
L 147.576588 263.745125 
L 155.053063 263.895853 
L 162.529538 264.186686 
L 170.006013 264.827889 
L 177.482488 264.252223 
L 184.958963 264.761637 
L 192.435438 264.974339 
L 199.911913 264.519191 
L 207.388388 264.237344 
L 214.864863 264.699045 
L 222.341338 264.606151 
L 229.817813 264.777665 
L 237.294288 264.943995 
L 244.770763 264.830186 
L 252.247237 264.82121 
L 259.723712 264.723998 
L 267.200187 264.726958 
L 274.676662 264.549912 
L 282.153137 264.701456 
L 289.629612 264.572227 
L 297.106087 264.29479 
L 304.582562 264.102185 
L 312.059037 264.444346 
L 319.535512 263.7943 
L 327.011987 264.003267 
L 334.488462 263.622439 
L 341.964937 263.901089 
L 349.441412 263.678589 
L 356.917887 263.919538 
L 364.394362 264.182463 
L 371.870837 263.241221 
L 379.347312 263.500634 
L 386.823787 263.315027 
L 394.300262 262.74444 
L 401.776737 262.978026 
L 409.253212 263.46755 
L 416.729686 263.409957 
L 424.206161 262.881535 
L 431.682636 263.162998 
" clip-path="url(#p446e8791d4)" style="fill: none; stroke: #d62728; stroke-width: 1.5; stroke-linecap: square"/>
   </g>
   <g id="patch_3">
    <path d="M 47.018 302.2 
L 47.018 10.8 
" style="fill: none; stroke: #000000; stroke-width: 0.8; stroke-linejoin: miter; stroke-linecap: square"/>
   </g>
   <g id="patch_4">
    <path d="M 450 302.2 
L 450 10.8 
" style="fill: none; stroke: #000000; stroke-width: 0.8; stroke-linejoin: miter; stroke-linecap: square"/>
   </g>
   <g id="patch_5">
    <path d="M 47.018 302.2 
L 450 302.2 
" style="fill: none; stroke: #000000; stroke-width: 0.8; stroke-linejoin: miter; stroke-linecap: square"/>
   </g>
   <g id="patch_6">
    <path d="M 47.018 10.8 
L 450 10.8 
" style="fill: none; stroke: #000000; stroke-width: 0.8; stroke-linejoin: miter; stroke-linecap: square"/>
   </g>
   <g id="legend_1">
    <g id="patch_7">
     <path d="M 54.018 77.5125 
L 132.888313 77.5125 
Q 134.888313 77.5125 134.888313 75.5125 
L 134.888313 17.8 
Q 134.888313 15.8 132.888313 15.8 
L 54.018 15.8 
Q 52.018 15.8 52.018 17.8 
L 52.018 75.5125 
Q 52.018 77.5125 54.018 77.5125 
z
" style="fill: #ffffff; opacity: 0.8; stroke: #cccccc; stroke-linejoin: miter"/>
    </g>
    <g id="line2d_19">
     <path d="M 56.018 23.898438 
L 66.018 23.898438 
L 76.018 23.898438 
" style="fill: none; stroke: #1f77b4; stroke-width: 1.5; stroke-linecap: square"/>
    </g>
    <g id="text_17">
     <!-- Ts=100 K -->
     <g transform="translate(84.018 27.398438) scale(0.1 -0.1)">
      <defs>
       <path id="DejaVuSans-54" d="M -19 4666 
L 3928 4666 
L 3928 4134 
L 2272 4134 
L 2272 0 
L 1638 0 
L 1638 4134 
L -19 4134 
L -19 4666 
z
" transform="scale(0.015625)"/>
       <path id="DejaVuSans-73" d="M 2834 3397 
L 2834 2853 
Q 2591 2978 2328 3040 
Q 2066 3103 1784 3103 
Q 1356 3103 1142 2972 
Q 928 2841 928 2578 
Q 928 2378 1081 2264 
Q 1234 2150 1697 2047 
L 1894 2003 
Q 2506 1872 2764 1633 
Q 3022 1394 3022 966 
Q 3022 478 2636 193 
Q 2250 -91 1575 -91 
Q 1294 -91 989 -36 
Q 684 19 347 128 
L 347 722 
Q 666 556 975 473 
Q 1284 391 1588 391 
Q 1994 391 2212 530 
Q 2431 669 2431 922 
Q 2431 1156 2273 1281 
Q 2116 1406 1581 1522 
L 1381 1569 
Q 847 1681 609 1914 
Q 372 2147 372 2553 
Q 372 3047 722 3315 
Q 1072 3584 1716 3584 
Q 2034 3584 2315 3537 
Q 2597 3491 2834 3397 
z
" transform="scale(0.015625)"/>
       <path id="DejaVuSans-3d" d="M 678 2906 
L 4684 2906 
L 4684 2381 
L 678 2381 
L 678 2906 
z
M 678 1631 
L 4684 1631 
L 4684 1100 
L 678 1100 
L 678 1631 
z
" transform="scale(0.015625)"/>
       <path id="DejaVuSans-4b" d="M 628 4666 
L 1259 4666 
L 1259 2694 
L 3353 4666 
L 4166 4666 
L 1850 2491 
L 4331 0 
L 3500 0 
L 1259 2247 
L 1259 0 
L 628 0 
L 628 4666 
z
" transform="scale(0.015625)"/>
      </defs>
      <use xlink:href="#DejaVuSans-54"/>
      <use xlink:href="#DejaVuSans-73" transform="translate(44.583984 0)"/>
      <use xlink:href="#DejaVuSans-3d" transform="translate(96.683594 0)"/>
      <use xlink:href="#DejaVuSans-31" transform="translate(180.472656 0)"/>
      <use xlink:href="#DejaVuSans-30" transform="translate(244.095703 0)"/>
      <use xlink:href="#DejaVuSans-30" transform="translate(307.71875 0)"/>
      <use xlink:href="#DejaVuSans-20" transform="translate(371.341797 0)"/>
      <use xlink:href="#DejaVuSans-4b" transform="translate(403.128906 0)"/>
     </g>
    </g>
    <g id="line2d_20">
     <path d="M 56.018 38.576563 
L 66.018 38.576563 
L 76.018 38.576563 
" style="fill: none; stroke: #ff7f0e; stroke-width: 1.5; stroke-linecap: square"/>
    </g>
    <g id="text_18">
     <!-- Ts=160 K -->
     <g transform="translate(84.018 42.076563) scale(0.1 -0.1)">
      <defs>
       <path id="DejaVuSans-36" d="M 2113 2584 
Q 1688 2584 1439 2293 
Q 1191 2003 1191 1497 
Q 1191 994 1439 701 
Q 1688 409 2113 409 
Q 2538 409 2786 701 
Q 3034 994 3034 1497 
Q 3034 2003 2786 2293 
Q 2538 2584 2113 2584 
z
M 3366 4563 
L 3366 3988 
Q 3128 4100 2886 4159 
Q 2644 4219 2406 4219 
Q 1781 4219 1451 3797 
Q 1122 3375 1075 2522 
Q 1259 2794 1537 2939 
Q 1816 3084 2150 3084 
Q 2853 3084 3261 2657 
Q 3669 2231 3669 1497 
Q 3669 778 3244 343 
Q 2819 -91 2113 -91 
Q 1303 -91 875 529 
Q 447 1150 447 2328 
Q 447 3434 972 4092 
Q 1497 4750 2381 4750 
Q 2619 4750 2861 4703 
Q 3103 4656 3366 4563 
z
" transform="scale(0.015625)"/>
      </defs>
      <use xlink:href="#DejaVuSans-54"/>
      <use xlink:href="#DejaVuSans-73" transform="translate(44.583984 0)"/>
      <use xlink:href="#DejaVuSans-3d" transform="translate(96.683594 0)"/>
      <use xlink:href="#DejaVuSans-31" transform="translate(180.472656 0)"/>
      <use xlink:href="#DejaVuSans-36" transform="translate(244.095703 0)"/>
      <use xlink:href="#DejaVuSans-30" transform="translate(307.71875 0)"/>
      <use xlink:href="#DejaVuSans-20" transform="translate(371.341797 0)"/>
      <use xlink:href="#DejaVuSans-4b" transform="translate(403.128906 0)"/>
     </g>
    </g>
    <g id="line2d_21">
     <path d="M 56.018 53.254687 
L 66.018 53.254687 
L 76.018 53.254687 
" style="fill: none; stroke: #2ca02c; stroke-width: 1.5; stroke-linecap: square"/>
    </g>
    <g id="text_19">
     <!-- Ts=220 K -->
     <g transform="translate(84.018 56.754687) scale(0.1 -0.1)">
      <use xlink:href="#DejaVuSans-54"/>
      <use xlink:href="#DejaVuSans-73" transform="translate(44.583984 0)"/>
      <use xlink:href="#DejaVuSans-3d" transform="translate(96.683594 0)"/>
      <use xlink:href="#DejaVuSans-32" transform="translate(180.472656 0)"/>
      <use xlink:href="#DejaVuSans-32" transform="translate(244.095703 0)"/>
      <use xlink:href="#DejaVuSans-30" transform="translate(307.71875 0)"/>
      <use xlink:href="#DejaVuSans-20" transform="translate(371.341797 0)"/>
      <use xlink:href="#DejaVuSans-4b" transform="translate(403.128906 0)"/>
     </g>
    </g>
    <g id="line2d_22">
     <path d="M 56.018 67.932813 
L 66.018 67.932813 
L 76.018 67.932813 
" style="fill: none; stroke: #d62728; stroke-width: 1.5; stroke-linecap: square"/>
    </g>
    <g id="text_20">
     <!-- Ts=260 K -->
     <g transform="translate(84.018 71.432813) scale(0.1 -0.1)">
      <use xlink:href="#DejaVuSans-54"/>
      <use xlink:href="#DejaVuSans-73" transform="translate(44.583984 0)"/>
      <use xlink:href="#DejaVuSans-3d" transform="translate(96.683594 0)"/>
      <use xlink:href="#DejaVuSans-32" transform="translate(180.472656 0)"/>
      <use xlink:href="#DejaVuSans-36" transform="translate(244.095703 0)"/>
      <use xlink:href="#DejaVuSans-30" transform="translate(307.71875 0)"/>
      <use xlink:href="#DejaVuSans-20" transform="translate(371.341797 0)"/>
      <use xlink:href="#DejaVuSans-4b" transform="translate(403.128906 0)"/>
     </g>
    </g>
   </g>
  </g>
 </g>
 <defs>
  <clipPath id="p446e8791d4">
   <rect x="47.018" y="10.8" width="402.982" height="291.4"/>
  </clipPath>
 </defs>
</svg>
