<?xml version="1.0" encoding="utf-8" standalone="no"?>
<!DOCTYPE svg PUBLIC "-//W3C//DTD SVG 1.1//EN"
  "http://www.w3.org/Graphics/SVG/1.1/DTD/svg11.dtd">
<svg xmlns:xlink="http://www.w3.org/1999/xlink" width="460.8pt" height="345.6pt" viewBox="0 0 460.8 345.6" xmlns="http://www.w3.org/2000/svg" version="1.1">
 <metadata>
  <rdf:RDF xmlns:dc="http://purl.org/dc/elements/1.1/" xmlns:cc="http://creativecommons.org/ns#" xmlns:rdf="http://www.w3.org/1999/02/22-rdf-syntax-ns#">
   <cc:Work>
    <dc:type rdf:resource="http://purl.org/dc/dcmitype/StillImage"/>
    <dc:date>2026-02-12T05:45:12.448751</dc:date>
    <dc:format>image/svg+xml</dc:format>
    <dc:creator>
     <cc:Agent>
      <dc:title>Matplotlib v3.10.8, https://matplotlib.org/</dc:title>
     </cc:Agent>
    </dc:creator>
   </cc:Work>
  </rdf:RDF>
 </metadata>
 <defs>
  <style type="text/css">*{stroke-linejoin: round; stroke-linecap: butt}</style>
 </defs>
 <g id="figure_1">
  <g id="patch_1">
   <path d="M 0 345.6 
L 460.8 345.6 
L 460.8 0 
L 0 0 
L 0 345.6 
z
" style="fill: none"/>
  </g>
  <g id="axes_1">
   <g id="patch_2">
    <path d="M 47.018 302.2 
L 450 302.2 
L 450 10.8 
L 47.018 10.8 
L 47.018 302.2 
z
" style="fill: none"/>
   </g>
   <g id="FillBetweenPolyCollection_1">
    <path d="M 65.335364 205.984947 
L 65.335364 209.040359 
L 72.811839 194.122063 
L 80.288314 181.790288 
L 87.764788 171.838998 
L 95.241263 163.34714 
L 102.717738 156.381376 
L 110.194213 150.376176 
L 117.670688 144.882009 
L 125.147163 139.924229 
L 132.623638 135.190656 
L 140.100113 130.833769 
L 147.576588 126.521749 
L 155.053063 122.442945 
L 162.529538 118.59643 
L 170.006013 114.863733 
L 177.482488 111.176375 
L 184.958963 107.813388 
L 192.435438 104.497786 
L 199.911913 101.250193 
L 207.388388 98.099011 
L 214.864863 95.020881 
L 222.341338 92.013453 
L 229.817813 89.057629 
L 237.294288 86.144686 
L 244.770763 83.538139 
L 252.247237 80.680479 
L 259.723712 78.037641 
L 267.200187 75.383598 
L 274.676662 72.797245 
L 282.153137 70.363618 
L 289.629612 67.915585 
L 297.106087 65.395677 
L 304.582562 63.055319 
L 312.059037 60.687264 
L 319.535512 58.364404 
L 327.011987 56.072904 
L 334.488462 53.860395 
L 341.964937 51.569247 
L 349.441412 49.353868 
L 356.917887 47.2522 
L 364.394362 45.176333 
L 371.870837 43.071663 
L 379.347312 41.094262 
L 386.823787 39.036698 
L 394.300262 36.892579 
L 401.776737 34.972171 
L 409.253212 33.134937 
L 416.729686 31.332622 
L 424.206161 29.292701 
L 431.682636 27.014334 
L 431.682636 24.045455 
L 431.682636 24.045455 
L 424.206161 25.263674 
L 416.729686 27.092847 
L 409.253212 29.320276 
L 401.776737 31.699133 
L 394.300262 33.870892 
L 386.823787 35.92148 
L 379.347312 37.924286 
L 371.870837 39.951401 
L 364.394362 42.1033 
L 356.917887 44.200952 
L 349.441412 46.362671 
L 341.964937 48.567811 
L 334.488462 50.717174 
L 327.011987 52.970698 
L 319.535512 55.364023 
L 312.059037 57.633923 
L 304.582562 60.029917 
L 297.106087 62.415906 
L 289.629612 64.876334 
L 282.153137 67.309206 
L 274.676662 69.737566 
L 267.200187 72.354613 
L 259.723712 75.037028 
L 252.247237 77.764153 
L 244.770763 80.44402 
L 237.294288 83.166764 
L 229.817813 86.088826 
L 222.341338 89.003311 
L 214.864863 92.04081 
L 207.388388 95.154405 
L 199.911913 98.250101 
L 192.435438 101.421081 
L 184.958963 104.746836 
L 177.482488 108.269066 
L 170.006013 111.903271 
L 162.529538 115.587786 
L 155.053063 119.549709 
L 147.576588 123.503636 
L 140.100113 127.763566 
L 132.623638 132.163534 
L 125.147163 136.742727 
L 117.670688 141.786509 
L 110.194213 147.074677 
L 102.717738 153.340648 
L 95.241263 160.242741 
L 87.764788 168.31592 
L 80.288314 178.188874 
L 72.811839 190.270958 
L 65.335364 205.984947 
z
" clip-path="url(#pb4cb0cff1a)" style="fill: #1f77b4; fill-opacity: 0.45"/>
   </g>
   <g id="FillBetweenPolyCollection_2">
    <path d="M 65.335364 242.495111 
L 65.335364 245.48478 
L 72.811839 237.815411 
L 80.288314 231.305142 
L 87.764788 225.934666 
L 95.241263 221.173742 
L 102.717738 217.542843 
L 110.194213 214.274601 
L 117.670688 211.333264 
L 125.147163 208.646677 
L 132.623638 206.100725 
L 140.100113 203.688788 
L 147.576588 201.45633 
L 155.053063 199.145981 
L 162.529538 197.064768 
L 170.006013 194.97234 
L 177.482488 193.07819 
L 184.958963 191.125811 
L 192.435438 189.317343 
L 199.911913 187.590092 
L 207.388388 185.797511 
L 214.864863 184.120028 
L 222.341338 182.433233 
L 229.817813 180.961772 
L 237.294288 179.29045 
L 244.770763 177.833609 
L 252.247237 176.356808 
L 259.723712 174.847747 
L 267.200187 173.406711 
L 274.676662 171.932677 
L 282.153137 170.576837 
L 289.629612 169.247122 
L 297.106087 167.94251 
L 304.582562 166.617134 
L 312.059037 165.277889 
L 319.535512 163.992766 
L 327.011987 162.774577 
L 334.488462 161.537876 
L 341.964937 160.361754 
L 349.441412 159.135896 
L 356.917887 157.861135 
L 364.394362 156.881938 
L 371.870837 155.645427 
L 379.347312 154.50879 
L 386.823787 153.39222 
L 394.300262 152.263047 
L 401.776737 151.246916 
L 409.253212 150.305465 
L 416.729686 149.489688 
L 424.206161 148.164221 
L 431.682636 146.805389 
L 431.682636 143.775497 
L 431.682636 143.775497 
L 424.206161 144.188798 
L 416.729686 145.38166 
L 409.253212 146.678469 
L 401.776737 147.977854 
L 394.300262 149.284112 
L 386.823787 150.289246 
L 379.347312 151.42769 
L 371.870837 152.627169 
L 364.394362 153.752364 
L 356.917887 154.89391 
L 349.441412 156.148814 
L 341.964937 157.293493 
L 334.488462 158.505826 
L 327.011987 159.798398 
L 319.535512 161.08186 
L 312.059037 162.300535 
L 304.582562 163.601124 
L 297.106087 164.897701 
L 289.629612 166.238364 
L 282.153137 167.642636 
L 274.676662 169.09024 
L 267.200187 170.427014 
L 259.723712 171.778278 
L 252.247237 173.271026 
L 244.770763 174.920876 
L 237.294288 176.379171 
L 229.817813 177.866466 
L 222.341338 179.432168 
L 214.864863 181.191828 
L 207.388388 182.703812 
L 199.911913 184.520148 
L 192.435438 186.335736 
L 184.958963 188.083974 
L 177.482488 190.065254 
L 170.006013 191.944591 
L 162.529538 194.023218 
L 155.053063 196.167176 
L 147.576588 198.373125 
L 140.100113 200.678058 
L 132.623638 203.035133 
L 125.147163 205.61636 
L 117.670688 208.288397 
L 110.194213 211.161486 
L 102.717738 214.501701 
L 95.241263 218.238865 
L 87.764788 222.509617 
L 80.288314 227.653244 
L 72.811839 234.183069 
L 65.335364 242.495111 
z
" clip-path="url(#pb4cb0cff1a)" style="fill: #ff7f0e; fill-opacity: 0.45"/>
   </g>
   <g id="FillBetweenPolyCollection_3">
    <path d="M 65.335364 263.091357 
L 65.335364 266.350837 
L 72.811839 263.448395 
L 80.288314 260.903375 
L 87.764788 258.653949 
L 95.241263 256.817257 
L 102.717738 255.318614 
L 110.194213 254.012035 
L 117.670688 252.956366 
L 125.147163 251.719697 
L 132.623638 250.753305 
L 140.100113 249.834487 
L 147.576588 248.919938 
L 155.053063 247.987325 
L 162.529538 247.23186 
L 170.006013 246.416988 
L 177.482488 245.547418 
L 184.958963 244.806156 
L 192.435438 244.095225 
L 199.911913 243.381408 
L 207.388388 242.719484 
L 214.864863 241.958207 
L 222.341338 241.278404 
L 229.817813 240.689035 
L 237.294288 240.170759 
L 244.770763 239.511545 
L 252.247237 238.982711 
L 259.723712 238.331164 
L 267.200187 237.788466 
L 274.676662 237.195885 
L 282.153137 236.603043 
L 289.629612 236.053357 
L 297.106087 235.609675 
L 304.582562 235.0189 
L 312.059037 234.432286 
L 319.535512 233.975083 
L 327.011987 233.497723 
L 334.488462 232.92768 
L 341.964937 232.44958 
L 349.441412 232.020361 
L 356.917887 231.572726 
L 364.394362 231.125631 
L 371.870837 230.613028 
L 379.347312 230.096272 
L 386.823787 229.735411 
L 394.300262 229.326552 
L 401.776737 228.903334 
L 409.253212 228.673944 
L 416.729686 228.453212 
L 424.206161 227.938426 
L 431.682636 227.108732 
L 431.682636 223.844876 
L 431.682636 223.844876 
L 424.206161 223.853847 
L 416.729686 224.254467 
L 409.253212 224.785435 
L 401.776737 225.474332 
L 394.300262 226.054997 
L 386.823787 226.464976 
L 379.347312 226.874996 
L 371.870837 227.326819 
L 364.394362 227.841862 
L 356.917887 228.279021 
L 349.441412 228.714557 
L 341.964937 229.173056 
L 334.488462 229.655309 
L 327.011987 230.329923 
L 319.535512 230.7325 
L 312.059037 231.37755 
L 304.582562 231.760207 
L 297.106087 232.233232 
L 289.629612 232.916248 
L 282.153137 233.35497 
L 274.676662 233.922938 
L 267.200187 234.426599 
L 259.723712 235.043149 
L 252.247237 235.545385 
L 244.770763 236.231993 
L 237.294288 236.887046 
L 229.817813 237.53648 
L 222.341338 238.114117 
L 214.864863 238.7132 
L 207.388388 239.423273 
L 199.911913 240.152824 
L 192.435438 240.801786 
L 184.958963 241.629733 
L 177.482488 242.334372 
L 170.006013 243.119305 
L 162.529538 244.003464 
L 155.053063 244.757684 
L 147.576588 245.610021 
L 140.100113 246.569932 
L 132.623638 247.443387 
L 125.147163 248.520093 
L 117.670688 249.600446 
L 110.194213 250.761686 
L 102.717738 252.074491 
L 95.241263 253.504534 
L 87.764788 255.263384 
L 80.288314 257.079795 
L 72.811839 259.714311 
L 65.335364 263.091357 
z
" clip-path="url(#pb4cb0cff1a)" style="fill: #2ca02c; fill-opacity: 0.45"/>
   </g>
   <g id="FillBetweenPolyCollection_4">
    <path d="M 65.335364 262.289958 
L 65.335364 288.954545 
L 72.811839 287.843522 
L 80.288314 287.466052 
L 87.764788 288.205773 
L 95.241263 286.434203 
L 102.717738 286.050308 
L 110.194213 286.621124 
L 117.670688 286.229631 
L 125.147163 285.629982 
L 132.623638 285.64386 
L 140.100113 286.067446 
L 147.576588 285.016114 
L 155.053063 285.12969 
L 162.529538 284.827256 
L 170.006013 285.233648 
L 177.482488 285.006744 
L 184.958963 284.658558 
L 192.435438 284.776999 
L 199.911913 283.762379 
L 207.388388 283.559527 
L 214.864863 283.508772 
L 222.341338 283.772821 
L 229.817813 283.774372 
L 237.294288 283.553323 
L 244.770763 283.275416 
L 252.247237 282.039403 
L 259.723712 283.031431 
L 267.200187 283.214087 
L 274.676662 282.451378 
L 282.153137 282.59123 
L 289.629612 282.575695 
L 297.106087 282.210587 
L 304.582562 282.111019 
L 312.059037 282.385485 
L 319.535512 281.966381 
L 327.011987 282.545557 
L 334.488462 281.595075 
L 341.964937 281.415131 
L 349.441412 281.601274 
L 356.917887 282.398448 
L 364.394362 281.680424 
L 371.870837 281.025986 
L 379.347312 281.702349 
L 386.823787 281.755114 
L 394.300262 281.290867 
L 401.776737 281.175713 
L 409.253212 281.37528 
L 416.729686 280.89606 
L 424.206161 281.290413 
L 431.682636 281.264808 
L 431.682636 254.556361 
L 431.682636 254.556361 
L 424.206161 254.089687 
L 416.729686 254.552776 
L 409.253212 254.38277 
L 401.776737 254.391602 
L 394.300262 254.100749 
L 386.823787 254.209896 
L 379.347312 254.748017 
L 371.870837 255.24516 
L 364.394362 255.324891 
L 356.917887 255.086034 
L 349.441412 255.949106 
L 341.964937 255.319005 
L 334.488462 255.832402 
L 327.011987 255.595945 
L 319.535512 255.150623 
L 312.059037 255.342807 
L 304.582562 256.467766 
L 297.106087 255.42448 
L 289.629612 256.164755 
L 282.153137 255.948575 
L 274.676662 255.849636 
L 267.200187 256.417072 
L 259.723712 257.029018 
L 252.247237 256.51942 
L 244.770763 256.23414 
L 237.294288 256.432033 
L 229.817813 257.478109 
L 222.341338 256.95205 
L 214.864863 257.240322 
L 207.388388 256.853164 
L 199.911913 257.92519 
L 192.435438 257.623043 
L 184.958963 258.272892 
L 177.482488 258.133145 
L 170.006013 257.180819 
L 162.529538 258.704548 
L 155.053063 258.032277 
L 147.576588 258.649117 
L 140.100113 258.487085 
L 132.623638 258.650511 
L 125.147163 259.567553 
L 117.670688 259.004803 
L 110.194213 259.5273 
L 102.717738 259.867169 
L 95.241263 260.489436 
L 87.764788 261.095563 
L 80.288314 260.527351 
L 72.811839 260.574987 
L 65.335364 262.289958 
z
" clip-path="url(#pb4cb0cff1a)" style="fill: #d62728; fill-opacity: 0.45"/>
   </g>
   <g id="matplotlib.axis_1">
    <g id="xtick_1">
     <g id="line2d_1">
      <defs>
       <path id="mdcb76556f7" d="M 0 0 
L 0 3.5 
" style="stroke: #000000; stroke-width: 0.8"/>
      </defs>
      <g>
       <use xlink:href="#mdcb76556f7" x="61.634886" y="302.2" style="stroke: #000000; stroke-width: 0.8"/>
      </g>
     </g>
     <g id="text_1">
      <!-- 0 -->
      <g transform="translate(58.453636 316.798437) scale(0.1 -0.1)">
       <defs>
        <path id="DejaVuSans-30" d="M 2034 4250 
Q 1547 4250 1301 3770 
Q 1056 3291 1056 2328 
Q 1056 1369 1301 889 
Q 1547 409 2034 409 
Q 2525 409 2770 889 
Q 3016 1369 3016 2328 
Q 3016 3291 2770 3770 
Q 2525 4250 2034 4250 
z
M 2034 4750 
Q 2819 4750 3233 4129 
Q 3647 3509 3647 2328 
Q 3647 1150 3233 529 
Q 2819 -91 2034 -91 
Q 1250 -91 836 529 
Q 422 1150 422 2328 
Q 422 3509 836 4129 
Q 1250 4750 2034 4750 
z
" transform="scale(0.015625)"/>
       </defs>
       <use xlink:href="#DejaVuSans-30"/>
      </g>
     </g>
    </g>
    <g id="xtick_2">
     <g id="line2d_2">
      <g>
       <use xlink:href="#mdcb76556f7" x="135.644436" y="302.2" style="stroke: #000000; stroke-width: 0.8"/>
      </g>
     </g>
     <g id="text_2">
      <!-- 1 -->
      <g transform="translate(132.463186 316.798437) scale(0.1 -0.1)">
       <defs>
        <path id="DejaVuSans-31" d="M 794 531 
L 1825 531 
L 1825 4091 
L 703 3866 
L 703 4441 
L 1819 4666 
L 2450 4666 
L 2450 531 
L 3481 531 
L 3481 0 
L 794 0 
L 794 531 
z
" transform="scale(0.015625)"/>
       </defs>
       <use xlink:href="#DejaVuSans-31"/>
      </g>
     </g>
    </g>
    <g id="xtick_3">
     <g id="line2d_3">
      <g>
       <use xlink:href="#mdcb76556f7" x="209.653986" y="302.2" style="stroke: #000000; stroke-width: 0.8"/>
      </g>
     </g>
     <g id="text_3">
      <!-- 2 -->
      <g transform="translate(206.472736 316.798437) scale(0.1 -0.1)">
       <defs>
        <path id="DejaVuSans-32" d="M 1228 531 
L 3431 531 
L 3431 0 
L 469 0 
L 469 531 
Q 828 903 1448 1529 
Q 2069 2156 2228 2338 
Q 2531 2678 2651 2914 
Q 2772 3150 2772 3378 
Q 2772 3750 2511 3984 
Q 2250 4219 1831 4219 
Q 1534 4219 1204 4116 
Q 875 4013 500 3803 
L 500 4441 
Q 881 4594 1212 4672 
Q 1544 4750 1819 4750 
Q 2544 4750 2975 4387 
Q 3406 4025 3406 3419 
Q 3406 3131 3298 2873 
Q 3191 2616 2906 2266 
Q 2828 2175 2409 1742 
Q 1991 1309 1228 531 
z
" transform="scale(0.015625)"/>
       </defs>
       <use xlink:href="#DejaVuSans-32"/>
      </g>
     </g>
    </g>
    <g id="xtick_4">
     <g id="line2d_4">
      <g>
       <use xlink:href="#mdcb76556f7" x="283.663536" y="302.2" style="stroke: #000000; stroke-width: 0.8"/>
      </g>
     </g>
     <g id="text_4">
      <!-- 3 -->
      <g transform="translate(280.482286 316.798437) scale(0.1 -0.1)">
       <defs>
        <path id="DejaVuSans-33" d="M 2597 2516 
Q 3050 2419 3304 2112 
Q 3559 1806 3559 1356 
Q 3559 666 3084 287 
Q 2609 -91 1734 -91 
Q 1441 -91 1130 -33 
Q 819 25 488 141 
L 488 750 
Q 750 597 1062 519 
Q 1375 441 1716 441 
Q 2309 441 2620 675 
Q 2931 909 2931 1356 
Q 2931 1769 2642 2001 
Q 2353 2234 1838 2234 
L 1294 2234 
L 1294 2753 
L 1863 2753 
Q 2328 2753 2575 2939 
Q 2822 3125 2822 3475 
Q 2822 3834 2567 4026 
Q 2313 4219 1838 4219 
Q 1578 4219 1281 4162 
Q 984 4106 628 3988 
L 628 4550 
Q 988 4650 1302 4700 
Q 1616 4750 1894 4750 
Q 2613 4750 3031 4423 
Q 3450 4097 3450 3541 
Q 3450 3153 3228 2886 
Q 3006 2619 2597 2516 
z
" transform="scale(0.015625)"/>
       </defs>
       <use xlink:href="#DejaVuSans-33"/>
      </g>
     </g>
    </g>
    <g id="xtick_5">
     <g id="line2d_5">
      <g>
       <use xlink:href="#mdcb76556f7" x="357.673086" y="302.2" style="stroke: #000000; stroke-width: 0.8"/>
      </g>
     </g>
     <g id="text_5">
      <!-- 4 -->
      <g transform="translate(354.491836 316.798437) scale(0.1 -0.1)">
       <defs>
        <path id="DejaVuSans-34" d="M 2419 4116 
L 825 1625 
L 2419 1625 
L 2419 4116 
z
M 2253 4666 
L 3047 4666 
L 3047 1625 
L 3713 1625 
L 3713 1100 
L 3047 1100 
L 3047 0 
L 2419 0 
L 2419 1100 
L 313 1100 
L 313 1709 
L 2253 4666 
z
" transform="scale(0.015625)"/>
       </defs>
       <use xlink:href="#DejaVuSans-34"/>
      </g>
     </g>
    </g>
    <g id="xtick_6">
     <g id="line2d_6">
      <g>
       <use xlink:href="#mdcb76556f7" x="431.682636" y="302.2" style="stroke: #000000; stroke-width: 0.8"/>
      </g>
     </g>
     <g id="text_6">
      <!-- 5 -->
      <g transform="translate(428.501386 316.798437) scale(0.1 -0.1)">
       <defs>
        <path id="DejaVuSans-35" d="M 691 4666 
L 3169 4666 
L 3169 4134 
L 1269 4134 
L 1269 2991 
Q 1406 3038 1543 3061 
Q 1681 3084 1819 3084 
Q 2600 3084 3056 2656 
Q 3513 2228 3513 1497 
Q 3513 744 3044 326 
Q 2575 -91 1722 -91 
Q 1428 -91 1123 -41 
Q 819 9 494 109 
L 494 744 
Q 775 591 1075 516 
Q 1375 441 1709 441 
Q 2250 441 2565 725 
Q 2881 1009 2881 1497 
Q 2881 1984 2565 2268 
Q 2250 2553 1709 2553 
Q 1456 2553 1204 2497 
Q 953 2441 691 2322 
L 691 4666 
z
" transform="scale(0.015625)"/>
       </defs>
       <use xlink:href="#DejaVuSans-35"/>
      </g>
     </g>
    </g>
    <g id="text_7">
     <!-- $W$ (m/hour) -->
     <g transform="translate(220.059 330.476562) scale(0.1 -0.1)">
      <defs>
       <path id="DejaVuSans-Oblique-57" d="M 616 4666 
L 1228 4666 
L 1453 697 
L 3213 4666 
L 3916 4666 
L 4147 697 
L 5888 4666 
L 6528 4666 
L 4453 0 
L 3659 0 
L 3444 3891 
L 1697 0 
L 903 0 
L 616 4666 
z
" transform="scale(0.015625)"/>
       <path id="DejaVuSans-20" transform="scale(0.015625)"/>
       <path id="DejaVuSans-28" d="M 1984 4856 
Q 1566 4138 1362 3434 
Q 1159 2731 1159 2009 
Q 1159 1288 1364 580 
Q 1569 -128 1984 -844 
L 1484 -844 
Q 1016 -109 783 600 
Q 550 1309 550 2009 
Q 550 2706 781 3412 
Q 1013 4119 1484 4856 
L 1984 4856 
z
" transform="scale(0.015625)"/>
       <path id="DejaVuSans-6d" d="M 3328 2828 
Q 3544 3216 3844 3400 
Q 4144 3584 4550 3584 
Q 5097 3584 5394 3201 
Q 5691 2819 5691 2113 
L 5691 0 
L 5113 0 
L 5113 2094 
Q 5113 2597 4934 2840 
Q 4756 3084 4391 3084 
Q 3944 3084 3684 2787 
Q 3425 2491 3425 1978 
L 3425 0 
L 2847 0 
L 2847 2094 
Q 2847 2600 2669 2842 
Q 2491 3084 2119 3084 
Q 1678 3084 1418 2786 
Q 1159 2488 1159 1978 
L 1159 0 
L 581 0 
L 581 3500 
L 1159 3500 
L 1159 2956 
Q 1356 3278 1631 3431 
Q 1906 3584 2284 3584 
Q 2666 3584 2933 3390 
Q 3200 3197 3328 2828 
z
" transform="scale(0.015625)"/>
       <path id="DejaVuSans-2f" d="M 1625 4666 
L 2156 4666 
L 531 -594 
L 0 -594 
L 1625 4666 
z
" transform="scale(0.015625)"/>
       <path id="DejaVuSans-68" d="M 3513 2113 
L 3513 0 
L 2938 0 
L 2938 2094 
Q 2938 2591 2744 2837 
Q 2550 3084 2163 3084 
Q 1697 3084 1428 2787 
Q 1159 2491 1159 1978 
L 1159 0 
L 581 0 
L 581 4863 
L 1159 4863 
L 1159 2956 
Q 1366 3272 1645 3428 
Q 1925 3584 2291 3584 
Q 2894 3584 3203 3211 
Q 3513 2838 3513 2113 
z
" transform="scale(0.015625)"/>
       <path id="DejaVuSans-6f" d="M 1959 3097 
Q 1497 3097 1228 2736 
Q 959 2375 959 1747 
Q 959 1119 1226 758 
Q 1494 397 1959 397 
Q 2419 397 2687 759 
Q 2956 1122 2956 1747 
Q 2956 2369 2687 2733 
Q 2419 3097 1959 3097 
z
M 1959 3584 
Q 2709 3584 3137 3096 
Q 3566 2609 3566 1747 
Q 3566 888 3137 398 
Q 2709 -91 1959 -91 
Q 1206 -91 779 398 
Q 353 888 353 1747 
Q 353 2609 779 3096 
Q 1206 3584 1959 3584 
z
" transform="scale(0.015625)"/>
       <path id="DejaVuSans-75" d="M 544 1381 
L 544 3500 
L 1119 3500 
L 1119 1403 
Q 1119 906 1312 657 
Q 1506 409 1894 409 
Q 2359 409 2629 706 
Q 2900 1003 2900 1516 
L 2900 3500 
L 3475 3500 
L 3475 0 
L 2900 0 
L 2900 538 
Q 2691 219 2414 64 
Q 2138 -91 1772 -91 
Q 1169 -91 856 284 
Q 544 659 544 1381 
z
M 1991 3584 
L 1991 3584 
z
" transform="scale(0.015625)"/>
       <path id="DejaVuSans-72" d="M 2631 2963 
Q 2534 3019 2420 3045 
Q 2306 3072 2169 3072 
Q 1681 3072 1420 2755 
Q 1159 2438 1159 1844 
L 1159 0 
L 581 0 
L 581 3500 
L 1159 3500 
L 1159 2956 
Q 1341 3275 1631 3429 
Q 1922 3584 2338 3584 
Q 2397 3584 2469 3576 
Q 2541 3569 2628 3553 
L 2631 2963 
z
" transform="scale(0.015625)"/>
       <path id="DejaVuSans-29" d="M 513 4856 
L 1013 4856 
Q 1481 4119 1714 3412 
Q 1947 2706 1947 2009 
Q 1947 1309 1714 600 
Q 1481 -109 1013 -844 
L 513 -844 
Q 928 -128 1133 580 
Q 1338 1288 1338 2009 
Q 1338 2731 1133 3434 
Q 928 4138 513 4856 
z
" transform="scale(0.015625)"/>
      </defs>
      <use xlink:href="#DejaVuSans-Oblique-57" transform="translate(0 0.015625)"/>
      <use xlink:href="#DejaVuSans-20" transform="translate(98.876953 0.015625)"/>
      <use xlink:href="#DejaVuSans-28" transform="translate(130.664062 0.015625)"/>
      <use xlink:href="#DejaVuSans-6d" transform="translate(169.677734 0.015625)"/>
      <use xlink:href="#DejaVuSans-2f" transform="translate(267.089844 0.015625)"/>
      <use xlink:href="#DejaVuSans-68" transform="translate(300.78125 0.015625)"/>
      <use xlink:href="#DejaVuSans-6f" transform="translate(364.160156 0.015625)"/>
      <use xlink:href="#DejaVuSans-75" transform="translate(425.341797 0.015625)"/>
      <use xlink:href="#DejaVuSans-72" transform="translate(488.720703 0.015625)"/>
      <use xlink:href="#DejaVuSans-29" transform="translate(529.833984 0.015625)"/>
     </g>
    </g>
   </g>
   <g id="matplotlib.axis_2">
    <g id="ytick_1">
     <g id="line2d_7">
      <defs>
       <path id="m4949d4e04d" d="M 0 0 
L -3.5 0 
" style="stroke: #000000; stroke-width: 0.8"/>
      </defs>
      <g>
       <use xlink:href="#m4949d4e04d" x="47.018" y="276.458297" style="stroke: #000000; stroke-width: 0.8"/>
      </g>
     </g>
     <g id="text_8">
      <!-- 0 -->
      <g transform="translate(33.6555 280.257516) scale(0.1 -0.1)">
       <use xlink:href="#DejaVuSans-30"/>
      </g>
     </g>
    </g>
    <g id="ytick_2">
     <g id="line2d_8">
      <g>
       <use xlink:href="#m4949d4e04d" x="47.018" y="241.167871" style="stroke: #000000; stroke-width: 0.8"/>
      </g>
     </g>
     <g id="text_9">
      <!-- 5 -->
      <g transform="translate(33.6555 244.96709) scale(0.1 -0.1)">
       <use xlink:href="#DejaVuSans-35"/>
      </g>
     </g>
    </g>
    <g id="ytick_3">
     <g id="line2d_9">
      <g>
       <use xlink:href="#m4949d4e04d" x="47.018" y="205.877445" style="stroke: #000000; stroke-width: 0.8"/>
      </g>
     </g>
     <g id="text_10">
      <!-- 10 -->
      <g transform="translate(27.293 209.676664) scale(0.1 -0.1)">
       <use xlink:href="#DejaVuSans-31"/>
       <use xlink:href="#DejaVuSans-30" transform="translate(63.623047 0)"/>
      </g>
     </g>
    </g>
    <g id="ytick_4">
     <g id="line2d_10">
      <g>
       <use xlink:href="#m4949d4e04d" x="47.018" y="170.587019" style="stroke: #000000; stroke-width: 0.8"/>
      </g>
     </g>
     <g id="text_11">
      <!-- 15 -->
      <g transform="translate(27.293 174.386238) scale(0.1 -0.1)">
       <use xlink:href="#DejaVuSans-31"/>
       <use xlink:href="#DejaVuSans-35" transform="translate(63.623047 0)"/>
      </g>
     </g>
    </g>
    <g id="ytick_5">
     <g id="line2d_11">
      <g>
       <use xlink:href="#m4949d4e04d" x="47.018" y="135.296593" style="stroke: #000000; stroke-width: 0.8"/>
      </g>
     </g>
     <g id="text_12">
      <!-- 20 -->
      <g transform="translate(27.293 139.095812) scale(0.1 -0.1)">
       <use xlink:href="#DejaVuSans-32"/>
       <use xlink:href="#DejaVuSans-30" transform="translate(63.623047 0)"/>
      </g>
     </g>
    </g>
    <g id="ytick_6">
     <g id="line2d_12">
      <g>
       <use xlink:href="#m4949d4e04d" x="47.018" y="100.006168" style="stroke: #000000; stroke-width: 0.8"/>
      </g>
     </g>
     <g id="text_13">
      <!-- 25 -->
      <g transform="translate(27.293 103.805386) scale(0.1 -0.1)">
       <use xlink:href="#DejaVuSans-32"/>
       <use xlink:href="#DejaVuSans-35" transform="translate(63.623047 0)"/>
      </g>
     </g>
    </g>
    <g id="ytick_7">
     <g id="line2d_13">
      <g>
       <use xlink:href="#m4949d4e04d" x="47.018" y="64.715742" style="stroke: #000000; stroke-width: 0.8"/>
      </g>
     </g>
     <g id="text_14">
      <!-- 30 -->
      <g transform="translate(27.293 68.51496) scale(0.1 -0.1)">
       <use xlink:href="#DejaVuSans-33"/>
       <use xlink:href="#DejaVuSans-30" transform="translate(63.623047 0)"/>
      </g>
     </g>
    </g>
    <g id="ytick_8">
     <g id="line2d_14">
      <g>
       <use xlink:href="#m4949d4e04d" x="47.018" y="29.425316" style="stroke: #000000; stroke-width: 0.8"/>
      </g>
     </g>
     <g id="text_15">
      <!-- 35 -->
      <g transform="translate(27.293 33.224535) scale(0.1 -0.1)">
       <use xlink:href="#DejaVuSans-33"/>
       <use xlink:href="#DejaVuSans-35" transform="translate(63.623047 0)"/>
      </g>
     </g>
    </g>
    <g id="text_16">
     <!-- $Q_{lc}$ (kW) -->
     <g transform="translate(21.213312 176.8) rotate(-90) scale(0.1 -0.1)">
      <defs>
       <path id="DejaVuSans-Oblique-51" d="M 2309 -84 
Q 2275 -88 2237 -89 
Q 2200 -91 2125 -91 
Q 1250 -91 756 411 
Q 263 913 263 1797 
Q 263 2319 452 2844 
Q 641 3369 978 3788 
Q 1369 4269 1858 4509 
Q 2347 4750 2938 4750 
Q 3794 4750 4287 4245 
Q 4781 3741 4781 2869 
Q 4781 1928 4265 1147 
Q 3750 366 2919 44 
L 3553 -825 
L 2847 -825 
L 2309 -84 
z
M 2919 4238 
Q 2400 4238 2003 3986 
Q 1606 3734 1313 3219 
Q 1125 2891 1026 2522 
Q 928 2153 928 1778 
Q 928 1128 1239 775 
Q 1550 422 2119 422 
Q 2631 422 3032 676 
Q 3434 931 3719 1434 
Q 3909 1772 4009 2142 
Q 4109 2513 4109 2881 
Q 4109 3528 3796 3883 
Q 3484 4238 2919 4238 
z
" transform="scale(0.015625)"/>
       <path id="DejaVuSans-Oblique-6c" d="M 1172 4863 
L 1747 4863 
L 800 0 
L 225 0 
L 1172 4863 
z
" transform="scale(0.015625)"/>
       <path id="DejaVuSans-Oblique-63" d="M 3431 3366 
L 3316 2797 
Q 3109 2947 2876 3022 
Q 2644 3097 2394 3097 
Q 2119 3097 1870 3000 
Q 1622 2903 1453 2725 
Q 1184 2453 1037 2087 
Q 891 1722 891 1331 
Q 891 859 1127 628 
Q 1363 397 1844 397 
Q 2081 397 2348 469 
Q 2616 541 2906 684 
L 2797 116 
Q 2547 13 2283 -39 
Q 2019 -91 1741 -91 
Q 1044 -91 669 257 
Q 294 606 294 1253 
Q 294 1797 489 2255 
Q 684 2713 1069 3078 
Q 1331 3328 1684 3456 
Q 2038 3584 2456 3584 
Q 2700 3584 2940 3529 
Q 3181 3475 3431 3366 
z
" transform="scale(0.015625)"/>
       <path id="DejaVuSans-6b" d="M 581 4863 
L 1159 4863 
L 1159 1991 
L 2875 3500 
L 3609 3500 
L 1753 1863 
L 3688 0 
L 2938 0 
L 1159 1709 
L 1159 0 
L 581 0 
L 581 4863 
z
" transform="scale(0.015625)"/>
       <path id="DejaVuSans-57" d="M 213 4666 
L 850 4666 
L 1831 722 
L 2809 4666 
L 3519 4666 
L 4500 722 
L 5478 4666 
L 6119 4666 
L 4947 0 
L 4153 0 
L 3169 4050 
L 2175 0 
L 1381 0 
L 213 4666 
z
" transform="scale(0.015625)"/>
      </defs>
      <use xlink:href="#DejaVuSans-Oblique-51" transform="translate(0 0.015625)"/>
      <use xlink:href="#DejaVuSans-Oblique-6c" transform="translate(78.710938 -16.390625) scale(0.7)"/>
      <use xlink:href="#DejaVuSans-Oblique-63" transform="translate(98.15918 -16.390625) scale(0.7)"/>
      <use xlink:href="#DejaVuSans-20" transform="translate(139.379883 0.015625)"/>
      <use xlink:href="#DejaVuSans-28" transform="translate(171.166992 0.015625)"/>
      <use xlink:href="#DejaVuSans-6b" transform="translate(210.180664 0.015625)"/>
      <use xlink:href="#DejaVuSans-57" transform="translate(268.09082 0.015625)"/>
      <use xlink:href="#DejaVuSans-29" transform="translate(366.967773 0.015625)"/>
     </g>
    </g>
   </g>
   <g id="line2d_15">
    <path d="M 65.335364 207.531436 
L 72.811839 192.278263 
L 80.288314 179.972596 
L 87.764788 170.032002 
L 95.241263 161.771983 
L 102.717738 154.830104 
L 110.194213 148.76691 
L 117.670688 143.355852 
L 125.147163 138.353039 
L 132.623638 133.708514 
L 140.100113 129.322517 
L 147.576588 125.072129 
L 155.053063 120.991377 
L 162.529538 117.109677 
L 170.006013 113.34489 
L 177.482488 109.761595 
L 184.958963 106.300774 
L 192.435438 102.914757 
L 199.911913 99.744207 
L 207.388388 96.574489 
L 214.864863 93.506091 
L 222.341338 90.52777 
L 229.817813 87.5658 
L 237.294288 84.73799 
L 244.770763 81.960088 
L 252.247237 79.219034 
L 259.723712 76.518861 
L 267.200187 73.842914 
L 274.676662 71.340915 
L 282.153137 68.821434 
L 289.629612 66.3661 
L 297.106087 63.916243 
L 304.582562 61.520889 
L 312.059037 59.148163 
L 319.535512 56.848718 
L 327.011987 54.545078 
L 334.488462 52.27956 
L 341.964937 50.07414 
L 349.441412 47.860503 
L 356.917887 45.748943 
L 364.394362 43.631907 
L 371.870837 41.545159 
L 379.347312 39.495537 
L 386.823787 37.407194 
L 394.300262 35.368282 
L 401.776737 33.284015 
L 409.253212 31.24008 
L 416.729686 29.187046 
L 424.206161 27.259051 
L 431.682636 25.617165 
" clip-path="url(#pb4cb0cff1a)" style="fill: none; stroke: #1f77b4; stroke-width: 1.5; stroke-linecap: square"/>
   </g>
   <g id="line2d_16">
    <path d="M 65.335364 244.063997 
L 72.811839 236.002092 
L 80.288314 229.505228 
L 87.764788 224.20092 
L 95.241263 219.788759 
L 102.717738 215.994668 
L 110.194213 212.735976 
L 117.670688 209.821172 
L 125.147163 207.104714 
L 132.623638 204.506796 
L 140.100113 202.169155 
L 147.576588 199.866158 
L 155.053063 197.628597 
L 162.529538 195.556908 
L 170.006013 193.552005 
L 177.482488 191.530821 
L 184.958963 189.629239 
L 192.435438 187.773509 
L 199.911913 186.057713 
L 207.388388 184.277511 
L 214.864863 182.637376 
L 222.341338 180.936467 
L 229.817813 179.406844 
L 237.294288 177.761665 
L 244.770763 176.305176 
L 252.247237 174.804649 
L 259.723712 173.37277 
L 267.200187 171.86786 
L 274.676662 170.510726 
L 282.153137 169.128307 
L 289.629612 167.747934 
L 297.106087 166.416177 
L 304.582562 165.137619 
L 312.059037 163.791511 
L 319.535512 162.510653 
L 327.011987 161.291396 
L 334.488462 159.981735 
L 341.964937 158.827878 
L 349.441412 157.624371 
L 356.917887 156.419977 
L 364.394362 155.234365 
L 371.870837 154.12467 
L 379.347312 152.960207 
L 386.823787 151.85022 
L 394.300262 150.76644 
L 401.776737 149.611703 
L 409.253212 148.529819 
L 416.729686 147.344494 
L 424.206161 146.302618 
L 431.682636 145.329811 
" clip-path="url(#pb4cb0cff1a)" style="fill: none; stroke: #ff7f0e; stroke-width: 1.5; stroke-linecap: square"/>
   </g>
   <g id="line2d_17">
    <path d="M 65.335364 264.677064 
L 72.811839 261.528204 
L 80.288314 258.941103 
L 87.764788 256.869614 
L 95.241263 255.169026 
L 102.717738 253.654233 
L 110.194213 252.406635 
L 117.670688 251.252754 
L 125.147163 250.11231 
L 132.623638 249.122943 
L 140.100113 248.178853 
L 147.576588 247.239132 
L 155.053063 246.370196 
L 162.529538 245.56366 
L 170.006013 244.754751 
L 177.482488 243.964877 
L 184.958963 243.169667 
L 192.435438 242.456981 
L 199.911913 241.729438 
L 207.388388 241.082995 
L 214.864863 240.421925 
L 222.341338 239.740399 
L 229.817813 239.094612 
L 237.294288 238.524234 
L 244.770763 237.829237 
L 252.247237 237.238929 
L 259.723712 236.708496 
L 267.200187 236.128579 
L 274.676662 235.556453 
L 282.153137 234.974272 
L 289.629612 234.459006 
L 297.106087 233.903368 
L 304.582562 233.339996 
L 312.059037 232.854855 
L 319.535512 232.344006 
L 327.011987 231.873297 
L 334.488462 231.376621 
L 341.964937 230.867406 
L 349.441412 230.417504 
L 356.917887 229.941922 
L 364.394362 229.448772 
L 371.870837 228.982661 
L 379.347312 228.55339 
L 386.823787 228.082357 
L 394.300262 227.621343 
L 401.776737 227.165976 
L 409.253212 226.758096 
L 416.729686 226.284373 
L 424.206161 225.851795 
L 431.682636 225.467259 
" clip-path="url(#pb4cb0cff1a)" style="fill: none; stroke: #2ca02c; stroke-width: 1.5; stroke-linecap: square"/>
   </g>
   <g id="line2d_18">
    <path d="M 65.335364 275.67897 
L 72.811839 274.932977 
L 80.288314 274.578001 
L 87.764788 273.962611 
L 95.241263 273.799055 
L 102.717738 273.189351 
L 110.194213 273.193621 
L 117.670688 273.066328 
L 125.147163 272.393593 
L 132.623638 272.486894 
L 140.100113 272.311568 
L 147.576588 271.612687 
L 155.053063 271.492881 
L 162.529538 271.478575 
L 170.006013 271.70846 
L 177.482488 271.104708 
L 184.958963 271.28452 
L 192.435438 271.260504 
L 199.911913 270.775908 
L 207.388388 270.422744 
L 214.864863 270.591642 
L 222.341338 270.389447 
L 229.817813 270.35909 
L 237.294288 270.348539 
L 244.770763 270.140355 
L 252.247237 270.018172 
L 259.723712 269.844907 
L 267.200187 269.754839 
L 274.676662 269.549704 
L 282.153137 269.593154 
L 289.629612 269.427954 
L 297.106087 269.156461 
L 304.582562 268.992572 
L 312.059037 269.159182 
L 319.535512 268.670353 
L 327.011987 268.762148 
L 334.488462 268.457982 
L 341.964937 268.627851 
L 349.441412 268.412507 
L 356.917887 268.566407 
L 364.394362 268.7233 
L 371.870837 268.044212 
L 379.347312 268.201133 
L 386.823787 268.059697 
L 394.300262 267.669813 
L 401.776737 267.814901 
L 409.253212 268.109422 
L 416.729686 268.040074 
L 424.206161 267.613513 
L 431.682636 267.710695 
" clip-path="url(#pb4cb0cff1a)" style="fill: none; stroke: #d62728; stroke-width: 1.5; stroke-linecap: square"/>
   </g>
   <g id="patch_3">
    <path d="M 47.018 302.2 
L 47.018 10.8 
" style="fill: none; stroke: #000000; stroke-width: 0.8; stroke-linejoin: miter; stroke-linecap: square"/>
   </g>
   <g id="patch_4">
    <path d="M 450 302.2 
L 450 10.8 
" style="fill: none; stroke: #000000; stroke-width: 0.8; stroke-linejoin: miter; stroke-linecap: square"/>
   </g>
   <g id="patch_5">
    <path d="M 47.018 302.2 
L 450 302.2 
" style="fill: none; stroke: #000000; stroke-width: 0.8; stroke-linejoin: miter; stroke-linecap: square"/>
   </g>
   <g id="patch_6">
    <path d="M 47.018 10.8 
L 450 10.8 
" style="fill: none; stroke: #000000; stroke-width: 0.8; stroke-linejoin: miter; stroke-linecap: square"/>
   </g>
   <g id="legend_1">
    <g id="patch_7">
     <path d="M 54.018 77.5125 
L 132.888313 77.5125 
Q 134.888313 77.5125 134.888313 75.5125 
L 134.888313 17.8 
Q 134.888313 15.8 132.888313 15.8 
L 54.018 15.8 
Q 52.018 15.8 52.018 17.8 
L 52.018 75.5125 
Q 52.018 77.5125 54.018 77.5125 
z
" style="fill: #ffffff; opacity: 0.8; stroke: #cccccc; stroke-linejoin: miter"/>
    </g>
    <g id="line2d_19">
     <path d="M 56.018 23.898438 
L 66.018 23.898438 
L 76.018 23.898438 
" style="fill: none; stroke: #1f77b4; stroke-width: 1.5; stroke-linecap: square"/>
    </g>
    <g id="text_17">
     <!-- Ts=100 K -->
     <g transform="translate(84.018 27.398438) scale(0.1 -0.1)">
      <defs>
       <path id="DejaVuSans-54" d="M -19 4666 
L 3928 4666 
L 3928 4134 
L 2272 4134 
L 2272 0 
L 1638 0 
L 1638 4134 
L -19 4134 
L -19 4666 
z
" transform="scale(0.015625)"/>
       <path id="DejaVuSans-73" d="M 2834 3397 
L 2834 2853 
Q 2591 2978 2328 3040 
Q 2066 3103 1784 3103 
Q 1356 3103 1142 2972 
Q 928 2841 928 2578 
Q 928 2378 1081 2264 
Q 1234 2150 1697 2047 
L 1894 2003 
Q 2506 1872 2764 1633 
Q 3022 1394 3022 966 
Q 3022 478 2636 193 
Q 2250 -91 1575 -91 
Q 1294 -91 989 -36 
Q 684 19 347 128 
L 347 722 
Q 666 556 975 473 
Q 1284 391 1588 391 
Q 1994 391 2212 530 
Q 2431 669 2431 922 
Q 2431 1156 2273 1281 
Q 2116 1406 1581 1522 
L 1381 1569 
Q 847 1681 609 1914 
Q 372 2147 372 2553 
Q 372 3047 722 3315 
Q 1072 3584 1716 3584 
Q 2034 3584 2315 3537 
Q 2597 3491 2834 3397 
z
" transform="scale(0.015625)"/>
       <path id="DejaVuSans-3d" d="M 678 2906 
L 4684 2906 
L 4684 2381 
L 678 2381 
L 678 2906 
z
M 678 1631 
L 4684 1631 
L 4684 1100 
L 678 1100 
L 678 1631 
z
" transform="scale(0.015625)"/>
       <path id="DejaVuSans-4b" d="M 628 4666 
L 1259 4666 
L 1259 2694 
L 3353 4666 
L 4166 4666 
L 1850 2491 
L 4331 0 
L 3500 0 
L 1259 2247 
L 1259 0 
L 628 0 
L 628 4666 
z
" transform="scale(0.015625)"/>
      </defs>
      <use xlink:href="#DejaVuSans-54"/>
      <use xlink:href="#DejaVuSans-73" transform="translate(44.583984 0)"/>
      <use xlink:href="#DejaVuSans-3d" transform="translate(96.683594 0)"/>
      <use xlink:href="#DejaVuSans-31" transform="translate(180.472656 0)"/>
      <use xlink:href="#DejaVuSans-30" transform="translate(244.095703 0)"/>
      <use xlink:href="#DejaVuSans-30" transform="translate(307.71875 0)"/>
      <use xlink:href="#DejaVuSans-20" transform="translate(371.341797 0)"/>
      <use xlink:href="#DejaVuSans-4b" transform="translate(403.128906 0)"/>
     </g>
    </g>
    <g id="line2d_20">
     <path d="M 56.018 38.576563 
L 66.018 38.576563 
L 76.018 38.576563 
" style="fill: none; stroke: #ff7f0e; stroke-width: 1.5; stroke-linecap: square"/>
    </g>
    <g id="text_18">
     <!-- Ts=160 K -->
     <g transform="translate(84.018 42.076563) scale(0.1 -0.1)">
      <defs>
       <path id="DejaVuSans-36" d="M 2113 2584 
Q 1688 2584 1439 2293 
Q 1191 2003 1191 1497 
Q 1191 994 1439 701 
Q 1688 409 2113 409 
Q 2538 409 2786 701 
Q 3034 994 3034 1497 
Q 3034 2003 2786 2293 
Q 2538 2584 2113 2584 
z
M 3366 4563 
L 3366 3988 
Q 3128 4100 2886 4159 
Q 2644 4219 2406 4219 
Q 1781 4219 1451 3797 
Q 1122 3375 1075 2522 
Q 1259 2794 1537 2939 
Q 1816 3084 2150 3084 
Q 2853 3084 3261 2657 
Q 3669 2231 3669 1497 
Q 3669 778 3244 343 
Q 2819 -91 2113 -91 
Q 1303 -91 875 529 
Q 447 1150 447 2328 
Q 447 3434 972 4092 
Q 1497 4750 2381 4750 
Q 2619 4750 2861 4703 
Q 3103 4656 3366 4563 
z
" transform="scale(0.015625)"/>
      </defs>
      <use xlink:href="#DejaVuSans-54"/>
      <use xlink:href="#DejaVuSans-73" transform="translate(44.583984 0)"/>
      <use xlink:href="#DejaVuSans-3d" transform="translate(96.683594 0)"/>
      <use xlink:href="#DejaVuSans-31" transform="translate(180.472656 0)"/>
      <use xlink:href="#DejaVuSans-36" transform="translate(244.095703 0)"/>
      <use xlink:href="#DejaVuSans-30" transform="translate(307.71875 0)"/>
      <use xlink:href="#DejaVuSans-20" transform="translate(371.341797 0)"/>
      <use xlink:href="#DejaVuSans-4b" transform="translate(403.128906 0)"/>
     </g>
    </g>
    <g id="line2d_21">
     <path d="M 56.018 53.254687 
L 66.018 53.254687 
L 76.018 53.254687 
" style="fill: none; stroke: #2ca02c; stroke-width: 1.5; stroke-linecap: square"/>
    </g>
    <g id="text_19">
     <!-- Ts=220 K -->
     <g transform="translate(84.018 56.754687) scale(0.1 -0.1)">
      <use xlink:href="#DejaVuSans-54"/>
      <use xlink:href="#DejaVuSans-73" transform="translate(44.583984 0)"/>
      <use xlink:href="#DejaVuSans-3d" transform="translate(96.683594 0)"/>
      <use xlink:href="#DejaVuSans-32" transform="translate(180.472656 0)"/>
      <use xlink:href="#DejaVuSans-32" transform="translate(244.095703 0)"/>
      <use xlink:href="#DejaVuSans-30" transform="translate(307.71875 0)"/>
      <use xlink:href="#DejaVuSans-20" transform="translate(371.341797 0)"/>
      <use xlink:href="#DejaVuSans-4b" transform="translate(403.128906 0)"/>
     </g>
    </g>
    <g id="line2d_22">
     <path d="M 56.018 67.932813 
L 66.018 67.932813 
L 76.018 67.932813 
" style="fill: none; stroke: #d62728; stroke-width: 1.5; stroke-linecap: square"/>
    </g>
    <g id="text_20">
     <!-- Ts=260 K -->
     <g transform="translate(84.018 71.432813) scale(0.1 -0.1)">
      <use xlink:href="#DejaVuSans-54"/>
      <use xlink:href="#DejaVuSans-73" transform="translate(44.583984 0)"/>
      <use xlink:href="#DejaVuSans-3d" transform="translate(96.683594 0)"/>
      <use xlink:href="#DejaVuSans-32" transform="translate(180.472656 0)"/>
      <use xlink:href="#DejaVuSans-36" transform="translate(244.095703 0)"/>
      <use xlink:href="#DejaVuSans-30" transform="translate(307.71875 0)"/>
      <use xlink:href="#DejaVuSans-20" transform="translate(371.341797 0)"/>
      <use xlink:href="#DejaVuSans-4b" transform="translate(403.128906 0)"/>
     </g>
    </g>
   </g>
  </g>
 </g>
 <defs>
  <clipPath id="pb4cb0cff1a">
   <rect x="47.018" y="10.8" width="402.982" height="291.4"/>
  </clipPath>
 </defs>
</svg>
