<?xml version="1.0" encoding="utf-8" standalone="no"?>
<!DOCTYPE svg PUBLIC "-//W3C//DTD SVG 1.1//EN"
  "http://www.w3.org/Graphics/SVG/1.1/DTD/svg11.dtd">
<svg xmlns:xlink="http://www.w3.org/1999/xlink" width="460.8pt" height="345.6pt" viewBox="0 0 460.8 345.6" xmlns="http://www.w3.org/2000/svg" version="1.1">
 <metadata>
  <rdf:RDF xmlns:dc="http://purl.org/dc/elements/1.1/" xmlns:cc="http://creativecommons.org/ns#" xmlns:rdf="http://www.w3.org/1999/02/22-rdf-syntax-ns#">
   <cc:Work>
    <dc:type rdf:resource="http://purl.org/dc/dcmitype/StillImage"/>
    <dc:date>2026-02-12T04:35:45.718324</dc:date>
    <dc:format>image/svg+xml</dc:format>
    <dc:creator>
     <cc:Agent>
      <dc:title>Matplotlib v3.10.8, https://matplotlib.org/</dc:title>
     </cc:Agent>
    </dc:creator>
   </cc:Work>
  </rdf:RDF>
 </metadata>
 <defs>
  <style type="text/css">*{stroke-linejoin: round; stroke-linecap: butt}</style>
 </defs>
 <g id="figure_1">
  <g id="patch_1">
   <path d="M 0 345.6 
L 460.8 345.6 
L 460.8 0 
L 0 0 
L 0 345.6 
z
" style="fill: none"/>
  </g>
  <g id="axes_1">
   <g id="patch_2">
    <path d="M 47.018 302.2 
L 450 302.2 
L 450 10.8 
L 47.018 10.8 
L 47.018 302.2 
z
" style="fill: none"/>
   </g>
   <g id="FillBetweenPolyCollection_1">
    <path d="M 65.335364 205.952694 
L 65.335364 208.961669 
L 72.811839 194.108691 
L 80.288314 181.89846 
L 87.764788 171.669008 
L 95.241263 163.189309 
L 102.717738 156.210248 
L 110.194213 150.385197 
L 117.670688 144.855726 
L 125.147163 140.100113 
L 132.623638 135.285333 
L 140.100113 130.886318 
L 147.576588 126.731368 
L 155.053063 122.587969 
L 162.529538 118.690104 
L 170.006013 114.925114 
L 177.482488 111.199991 
L 184.958963 107.879964 
L 192.435438 104.422422 
L 199.911913 101.271024 
L 207.388388 98.019733 
L 214.864863 95.099003 
L 222.341338 92.064629 
L 229.817813 89.064973 
L 237.294288 86.185316 
L 244.770763 83.466589 
L 252.247237 80.743576 
L 259.723712 77.99841 
L 267.200187 75.332857 
L 274.676662 72.907215 
L 282.153137 70.431664 
L 289.629612 67.851485 
L 297.106087 65.489226 
L 304.582562 63.043446 
L 312.059037 60.719896 
L 319.535512 58.435044 
L 327.011987 56.062742 
L 334.488462 53.853151 
L 341.964937 51.626773 
L 349.441412 49.453211 
L 356.917887 47.220698 
L 364.394362 45.142041 
L 371.870837 43.245968 
L 379.347312 41.212315 
L 386.823787 38.970241 
L 394.300262 37.001559 
L 401.776737 34.97729 
L 409.253212 33.115227 
L 416.729686 31.189017 
L 424.206161 29.41554 
L 431.682636 27.190244 
L 431.682636 24.045455 
L 431.682636 24.045455 
L 424.206161 25.328023 
L 416.729686 27.372834 
L 409.253212 29.535473 
L 401.776737 31.694889 
L 394.300262 34.003418 
L 386.823787 35.948456 
L 379.347312 38.038697 
L 371.870837 40.100736 
L 364.394362 42.228681 
L 356.917887 44.380063 
L 349.441412 46.469537 
L 341.964937 48.635913 
L 334.488462 50.770086 
L 327.011987 53.03264 
L 319.535512 55.447757 
L 312.059037 57.664763 
L 304.582562 60.11012 
L 297.106087 62.480504 
L 289.629612 65.003076 
L 282.153137 67.397743 
L 274.676662 69.843341 
L 267.200187 72.451033 
L 259.723712 75.023925 
L 252.247237 77.673998 
L 244.770763 80.500982 
L 237.294288 83.28916 
L 229.817813 86.115294 
L 222.341338 89.084865 
L 214.864863 92.12861 
L 207.388388 95.184825 
L 199.911913 98.282208 
L 192.435438 101.513693 
L 184.958963 104.833468 
L 177.482488 108.248838 
L 170.006013 111.870907 
L 162.529538 115.650894 
L 155.053063 119.44027 
L 147.576588 123.643814 
L 140.100113 127.792089 
L 132.623638 132.229626 
L 125.147163 136.915774 
L 117.670688 141.667814 
L 110.194213 147.290584 
L 102.717738 153.215647 
L 95.241263 160.199809 
L 87.764788 168.294403 
L 80.288314 178.140888 
L 72.811839 190.356235 
L 65.335364 205.952694 
z
" clip-path="url(#pf3841bd109)" style="fill: #1f77b4; fill-opacity: 0.27"/>
   </g>
   <g id="FillBetweenPolyCollection_2">
    <path d="M 65.335364 207.339478 
L 65.335364 207.547277 
L 72.811839 192.339354 
L 80.288314 180.08956 
L 87.764788 170.132435 
L 95.241263 161.904811 
L 102.717738 154.946705 
L 110.194213 148.897038 
L 117.670688 143.485569 
L 125.147163 138.520266 
L 132.623638 133.872666 
L 140.100113 129.46281 
L 147.576588 125.245353 
L 155.053063 121.196486 
L 162.529538 117.30376 
L 170.006013 113.559977 
L 177.482488 109.958178 
L 184.958963 106.489439 
L 192.435438 103.142495 
L 199.911913 99.904501 
L 207.388388 96.762415 
L 214.864863 93.704369 
L 222.341338 90.720768 
L 229.817813 87.804763 
L 237.294288 84.952163 
L 244.770763 82.160805 
L 252.247237 79.429617 
L 259.723712 76.757605 
L 267.200187 74.14302 
L 274.676662 71.58287 
L 282.153137 69.0729 
L 289.629612 66.608002 
L 297.106087 64.182968 
L 304.582562 61.793377 
L 312.059037 59.436381 
L 319.535512 57.11119 
L 327.011987 54.818999 
L 334.488462 52.562529 
L 341.964937 50.344787 
L 349.441412 48.167655 
L 356.917887 46.030431 
L 364.394362 43.928624 
L 371.870837 41.853601 
L 379.347312 39.793457 
L 386.823787 37.735307 
L 394.300262 35.669273 
L 401.776737 33.594117 
L 409.253212 31.524257 
L 416.729686 29.497339 
L 424.206161 27.583622 
L 431.682636 25.892384 
L 431.682636 25.375196 
L 431.682636 25.375196 
L 424.206161 27.069076 
L 416.729686 28.985804 
L 409.253212 31.015917 
L 401.776737 33.089438 
L 394.300262 35.16825 
L 386.823787 37.237895 
L 379.347312 39.299616 
L 371.870837 41.363315 
L 364.394362 43.441911 
L 356.917887 45.54734 
L 349.441412 47.688232 
L 341.964937 49.869085 
L 334.488462 52.09063 
L 327.011987 54.350978 
L 319.535512 56.64711 
L 312.059037 58.976343 
L 304.582562 61.337425 
L 297.106087 63.731149 
L 289.629612 66.160375 
L 282.153137 68.629536 
L 274.676662 71.143851 
L 267.200187 73.70844 
L 259.723712 76.327572 
L 252.247237 79.00424 
L 244.770763 81.740202 
L 237.294288 84.536448 
L 229.817813 87.39405 
L 222.341338 90.315175 
L 214.864863 93.304016 
L 207.388388 96.367435 
L 199.911913 99.515052 
L 192.435438 102.758749 
L 184.958963 106.111606 
L 177.482488 109.586489 
L 170.006013 113.194696 
L 162.529538 116.945166 
L 155.053063 120.84487 
L 147.576588 124.901021 
L 140.100113 129.125587 
L 132.623638 133.542484 
L 125.147163 138.197518 
L 117.670688 143.170816 
L 110.194213 148.5911 
L 102.717738 154.650076 
L 95.241263 161.618999 
L 87.764788 169.859827 
L 80.288314 179.834097 
L 72.811839 192.105796 
L 65.335364 207.339478 
z
" clip-path="url(#pf3841bd109)" style="fill: #ff7f0e; fill-opacity: 0.45"/>
   </g>
   <g id="FillBetweenPolyCollection_3">
    <path d="M 65.335364 242.569005 
L 65.335364 245.456588 
L 72.811839 237.786444 
L 80.288314 231.202452 
L 87.764788 225.652178 
L 95.241263 221.242057 
L 102.717738 217.493742 
L 110.194213 214.256067 
L 117.670688 211.182099 
L 125.147163 208.584176 
L 132.623638 206.086842 
L 140.100113 203.601166 
L 147.576588 201.308358 
L 155.053063 199.074285 
L 162.529538 196.994967 
L 170.006013 194.994593 
L 177.482488 192.931311 
L 184.958963 191.012323 
L 192.435438 189.229494 
L 199.911913 187.556154 
L 207.388388 185.798147 
L 214.864863 184.169539 
L 222.341338 182.52348 
L 229.817813 180.867998 
L 237.294288 179.280133 
L 244.770763 177.663467 
L 252.247237 176.227756 
L 259.723712 174.758989 
L 267.200187 173.340841 
L 274.676662 171.966237 
L 282.153137 170.619971 
L 289.629612 169.249193 
L 297.106087 167.91224 
L 304.582562 166.448998 
L 312.059037 165.256232 
L 319.535512 163.942147 
L 327.011987 162.786695 
L 334.488462 161.535606 
L 341.964937 160.435044 
L 349.441412 159.118924 
L 356.917887 157.870855 
L 364.394362 156.807634 
L 371.870837 155.620444 
L 379.347312 154.486915 
L 386.823787 153.327921 
L 394.300262 152.153209 
L 401.776737 151.266771 
L 409.253212 150.314451 
L 416.729686 149.388405 
L 424.206161 148.380778 
L 431.682636 146.902728 
L 431.682636 143.882942 
L 431.682636 143.882942 
L 424.206161 144.263218 
L 416.729686 145.255662 
L 409.253212 146.595933 
L 401.776737 147.843239 
L 394.300262 149.21088 
L 386.823787 150.328536 
L 379.347312 151.362136 
L 371.870837 152.617145 
L 364.394362 153.651407 
L 356.917887 154.866369 
L 349.441412 156.177909 
L 341.964937 157.299372 
L 334.488462 158.624736 
L 327.011987 159.779223 
L 319.535512 160.992892 
L 312.059037 162.371043 
L 304.582562 163.546137 
L 297.106087 164.815646 
L 289.629612 166.294041 
L 282.153137 167.605147 
L 274.676662 169.027547 
L 267.200187 170.392801 
L 259.723712 171.81483 
L 252.247237 173.169121 
L 244.770763 174.735014 
L 237.294288 176.15739 
L 229.817813 177.889204 
L 222.341338 179.530816 
L 214.864863 181.146502 
L 207.388388 182.867011 
L 199.911913 184.519562 
L 192.435438 186.083008 
L 184.958963 188.038498 
L 177.482488 190.007194 
L 170.006013 191.988507 
L 162.529538 194.020881 
L 155.053063 195.873686 
L 147.576588 198.319926 
L 140.100113 200.629743 
L 132.623638 203.068392 
L 125.147163 205.490822 
L 117.670688 208.216083 
L 110.194213 211.078533 
L 102.717738 214.541536 
L 95.241263 218.158668 
L 87.764788 222.466587 
L 80.288314 227.614735 
L 72.811839 234.068939 
L 65.335364 242.569005 
z
" clip-path="url(#pf3841bd109)" style="fill: #2ca02c; fill-opacity: 0.27"/>
   </g>
   <g id="FillBetweenPolyCollection_4">
    <path d="M 65.335364 243.90959 
L 65.335364 244.01619 
L 72.811839 235.996821 
L 80.288314 229.499809 
L 87.764788 224.189526 
L 95.241263 219.779157 
L 102.717738 216.032937 
L 110.194213 212.764916 
L 117.670688 209.83491 
L 125.147163 207.142519 
L 132.623638 204.619954 
L 140.100113 202.22456 
L 147.576588 199.931641 
L 155.053063 197.728143 
L 162.529538 195.607537 
L 170.006013 193.566042 
L 177.482488 191.600201 
L 184.958963 189.705625 
L 192.435438 187.87668 
L 199.911913 186.10682 
L 207.388388 184.38924 
L 214.864863 182.717588 
L 222.341338 181.08657 
L 229.817813 179.492246 
L 237.294288 177.932053 
L 244.770763 176.404552 
L 252.247237 174.908994 
L 259.723712 173.444816 
L 267.200187 172.01121 
L 274.676662 170.606835 
L 282.153137 169.229739 
L 289.629612 167.87751 
L 297.106087 166.547589 
L 304.582562 165.237677 
L 312.059037 163.94612 
L 319.535512 162.672169 
L 327.011987 161.416022 
L 334.488462 160.178602 
L 341.964937 158.961097 
L 349.441412 157.764313 
L 356.917887 156.587993 
L 364.394362 155.430266 
L 371.870837 154.287431 
L 379.347312 153.154263 
L 386.823787 152.02499 
L 394.300262 150.895038 
L 401.776737 149.763535 
L 409.253212 148.636465 
L 416.729686 147.53027 
L 424.206161 146.47559 
L 431.682636 145.520758 
L 431.682636 145.160105 
L 431.682636 145.160105 
L 424.206161 146.117263 
L 416.729686 147.174534 
L 409.253212 148.283463 
L 401.776737 149.413333 
L 394.300262 150.547658 
L 386.823787 151.680436 
L 379.347312 152.812536 
L 371.870837 153.94854 
L 364.394362 155.094229 
L 356.917887 156.254841 
L 349.441412 157.434082 
L 341.964937 158.633833 
L 334.488462 159.854349 
L 327.011987 161.094829 
L 319.535512 162.354083 
L 312.059037 163.631188 
L 304.582562 164.925952 
L 297.106087 166.239123 
L 289.629612 167.572364 
L 282.153137 168.927976 
L 274.676662 170.308523 
L 267.200187 171.716421 
L 259.723712 173.153622 
L 252.247237 174.62147 
L 244.770763 176.120774 
L 237.294288 177.652093 
L 229.817813 179.216184 
L 222.341338 180.81449 
L 214.864863 182.449586 
L 207.388388 184.125425 
L 199.911913 185.847323 
L 192.435438 187.621648 
L 184.958963 189.455226 
L 177.482488 191.354621 
L 170.006013 193.325477 
L 162.529538 195.37219 
L 155.053063 197.498222 
L 147.576588 199.707357 
L 140.100113 202.006135 
L 132.623638 204.407646 
L 125.147163 206.936652 
L 117.670688 209.635938 
L 110.194213 212.573422 
L 102.717738 215.84981 
L 95.241263 219.605741 
L 87.764788 224.027807 
L 80.288314 229.352693 
L 72.811839 235.86781 
L 65.335364 243.90959 
z
" clip-path="url(#pf3841bd109)" style="fill: #d62728; fill-opacity: 0.45"/>
   </g>
   <g id="FillBetweenPolyCollection_5">
    <path d="M 65.335364 262.95152 
L 65.335364 266.297876 
L 72.811839 263.309739 
L 80.288314 260.826149 
L 87.764788 258.443433 
L 95.241263 256.60146 
L 102.717738 255.192252 
L 110.194213 253.978492 
L 117.670688 252.912403 
L 125.147163 251.671885 
L 132.623638 250.532302 
L 140.100113 249.650375 
L 147.576588 248.817891 
L 155.053063 247.927489 
L 162.529538 247.206079 
L 170.006013 246.268861 
L 177.482488 245.336254 
L 184.958963 244.649511 
L 192.435438 244.002707 
L 199.911913 243.252207 
L 207.388388 242.529113 
L 214.864863 241.973978 
L 222.341338 241.391466 
L 229.817813 240.626152 
L 237.294288 239.948048 
L 244.770763 239.426617 
L 252.247237 238.915718 
L 259.723712 238.202606 
L 267.200187 237.723999 
L 274.676662 237.092918 
L 282.153137 236.425871 
L 289.629612 235.87195 
L 297.106087 235.512161 
L 304.582562 234.85009 
L 312.059037 234.410556 
L 319.535512 233.990531 
L 327.011987 233.322433 
L 334.488462 233.007321 
L 341.964937 232.573839 
L 349.441412 231.803226 
L 356.917887 231.358905 
L 364.394362 231.094369 
L 371.870837 230.60061 
L 379.347312 230.15401 
L 386.823787 229.676868 
L 394.300262 229.183833 
L 401.776737 228.80877 
L 409.253212 228.518611 
L 416.729686 228.27223 
L 424.206161 227.870506 
L 431.682636 227.105712 
L 431.682636 223.736194 
L 431.682636 223.736194 
L 424.206161 223.782698 
L 416.729686 224.25283 
L 409.253212 224.776089 
L 401.776737 225.477732 
L 394.300262 225.942502 
L 386.823787 226.38211 
L 379.347312 226.837911 
L 371.870837 227.316745 
L 364.394362 227.72142 
L 356.917887 228.233207 
L 349.441412 228.662063 
L 341.964937 229.173683 
L 334.488462 229.655436 
L 327.011987 230.181342 
L 319.535512 230.663398 
L 312.059037 231.236363 
L 304.582562 231.813526 
L 297.106087 232.235392 
L 289.629612 232.655601 
L 282.153137 233.321102 
L 274.676662 233.671631 
L 267.200187 234.335408 
L 259.723712 234.882045 
L 252.247237 235.463405 
L 244.770763 236.150139 
L 237.294288 236.823696 
L 229.817813 237.436582 
L 222.341338 238.066266 
L 214.864863 238.73518 
L 207.388388 239.325742 
L 199.911913 239.88952 
L 192.435438 240.747694 
L 184.958963 241.380167 
L 177.482488 242.388764 
L 170.006013 243.023251 
L 162.529538 243.808997 
L 155.053063 244.518342 
L 147.576588 245.531935 
L 140.100113 246.436083 
L 132.623638 247.428023 
L 125.147163 248.36858 
L 117.670688 249.449436 
L 110.194213 250.612491 
L 102.717738 252.093226 
L 95.241263 253.457033 
L 87.764788 254.996708 
L 80.288314 256.938893 
L 72.811839 259.505285 
L 65.335364 262.95152 
z
" clip-path="url(#pf3841bd109)" style="fill: #9467bd; fill-opacity: 0.27"/>
   </g>
   <g id="FillBetweenPolyCollection_6">
    <path d="M 65.335364 264.544675 
L 65.335364 264.606604 
L 72.811839 261.472926 
L 80.288314 258.92833 
L 87.764788 256.843144 
L 95.241263 255.106529 
L 102.717738 253.627384 
L 110.194213 252.333887 
L 117.670688 251.171926 
L 125.147163 250.102768 
L 132.623638 249.100271 
L 140.100113 248.14797 
L 147.576588 247.236298 
L 155.053063 246.360142 
L 162.529538 245.516872 
L 170.006013 244.704895 
L 177.482488 243.922738 
L 184.958963 243.16858 
L 192.435438 242.440147 
L 199.911913 241.734849 
L 207.388388 241.050034 
L 214.864863 240.383264 
L 222.341338 239.732528 
L 229.817813 239.096351 
L 237.294288 238.473779 
L 244.770763 237.864279 
L 252.247237 237.267552 
L 259.723712 236.683347 
L 267.200187 236.111294 
L 274.676662 235.550803 
L 282.153137 235.001055 
L 289.629612 234.461068 
L 297.106087 233.929833 
L 304.582562 233.406477 
L 312.059037 232.890407 
L 319.535512 232.381406 
L 327.011987 231.879626 
L 334.488462 231.385482 
L 341.964937 230.899454 
L 349.441412 230.421816 
L 356.917887 229.952365 
L 364.394362 229.49022 
L 371.870837 229.033753 
L 379.347312 228.580753 
L 386.823787 228.128858 
L 394.300262 227.676287 
L 401.776737 227.222869 
L 409.253212 226.771314 
L 416.729686 226.328627 
L 424.206161 225.907543 
L 431.682636 225.527821 
L 431.682636 225.31578 
L 431.682636 225.31578 
L 424.206161 225.696977 
L 416.729686 226.119644 
L 409.253212 226.563969 
L 401.776737 227.017182 
L 394.300262 227.472262 
L 386.823787 227.926494 
L 379.347312 228.38005 
L 371.870837 228.834714 
L 364.394362 229.292857 
L 356.917887 229.756692 
L 349.441412 230.227851 
L 341.964937 230.707217 
L 334.488462 231.194992 
L 327.011987 231.690905 
L 319.535512 232.194478 
L 312.059037 232.705299 
L 304.582562 233.223218 
L 297.106087 233.74846 
L 289.629612 234.281623 
L 282.153137 234.823584 
L 274.676662 235.375358 
L 267.200187 235.937928 
L 259.723712 236.512117 
L 252.247237 237.098511 
L 244.770763 237.697478 
L 237.294288 238.309268 
L 229.817813 238.934179 
L 222.341338 239.572745 
L 214.864863 240.225923 
L 207.388388 240.895197 
L 199.911913 241.582587 
L 192.435438 242.290543 
L 184.958963 243.021731 
L 177.482488 243.778752 
L 170.006013 244.563888 
L 162.529538 245.378966 
L 155.053063 246.225466 
L 147.576588 247.104979 
L 140.100113 248.020144 
L 132.623638 248.976093 
L 125.147163 249.98243 
L 117.670688 251.055691 
L 110.194213 252.222132 
L 102.717738 253.520659 
L 95.241263 255.005627 
L 87.764788 256.74918 
L 80.288314 258.842828 
L 72.811839 261.397908 
L 65.335364 264.544675 
z
" clip-path="url(#pf3841bd109)" style="fill: #8c564b; fill-opacity: 0.45"/>
   </g>
   <g id="FillBetweenPolyCollection_7">
    <path d="M 65.335364 262.054394 
L 65.335364 288.622061 
L 72.811839 288.954545 
L 80.288314 287.465372 
L 87.764788 285.991584 
L 95.241263 286.118235 
L 102.717738 287.127789 
L 110.194213 286.44282 
L 117.670688 285.16456 
L 125.147163 285.602859 
L 132.623638 284.122617 
L 140.100113 285.097197 
L 147.576588 285.030472 
L 155.053063 284.843077 
L 162.529538 284.319575 
L 170.006013 284.902485 
L 177.482488 284.221561 
L 184.958963 283.541042 
L 192.435438 284.78332 
L 199.911913 283.205876 
L 207.388388 283.935678 
L 214.864863 283.999997 
L 222.341338 283.085352 
L 229.817813 283.761448 
L 237.294288 283.470241 
L 244.770763 283.35896 
L 252.247237 283.265142 
L 259.723712 283.227482 
L 267.200187 283.436815 
L 274.676662 282.346779 
L 282.153137 282.737206 
L 289.629612 281.916554 
L 297.106087 281.604709 
L 304.582562 282.567454 
L 312.059037 281.500162 
L 319.535512 282.004688 
L 327.011987 282.222389 
L 334.488462 280.94276 
L 341.964937 282.044773 
L 349.441412 281.323051 
L 356.917887 282.143308 
L 364.394362 281.767395 
L 371.870837 281.810133 
L 379.347312 280.042883 
L 386.823787 281.206631 
L 394.300262 281.133311 
L 401.776737 281.014799 
L 409.253212 280.406868 
L 416.729686 280.477851 
L 424.206161 281.579248 
L 431.682636 281.568082 
L 431.682636 253.593616 
L 431.682636 253.593616 
L 424.206161 253.302828 
L 416.729686 255.370181 
L 409.253212 254.247287 
L 401.776737 254.779958 
L 394.300262 254.264496 
L 386.823787 253.831142 
L 379.347312 255.038699 
L 371.870837 254.35715 
L 364.394362 255.135135 
L 356.917887 255.099968 
L 349.441412 254.691981 
L 341.964937 254.198451 
L 334.488462 254.851068 
L 327.011987 255.25317 
L 319.535512 254.947979 
L 312.059037 255.120652 
L 304.582562 255.431057 
L 297.106087 255.68814 
L 289.629612 255.504412 
L 282.153137 256.402232 
L 274.676662 255.456187 
L 267.200187 257.43523 
L 259.723712 256.494292 
L 252.247237 254.759853 
L 244.770763 255.734319 
L 237.294288 256.626526 
L 229.817813 256.993558 
L 222.341338 256.511863 
L 214.864863 257.269832 
L 207.388388 257.041035 
L 199.911913 257.18869 
L 192.435438 256.328289 
L 184.958963 257.489361 
L 177.482488 257.656843 
L 170.006013 257.669985 
L 162.529538 258.767357 
L 155.053063 258.13603 
L 147.576588 257.013456 
L 140.100113 258.193156 
L 132.623638 258.580934 
L 125.147163 259.965272 
L 117.670688 260.934877 
L 110.194213 259.233962 
L 102.717738 259.974571 
L 95.241263 260.324491 
L 87.764788 260.383717 
L 80.288314 261.235342 
L 72.811839 262.169746 
L 65.335364 262.054394 
z
" clip-path="url(#pf3841bd109)" style="fill: #e377c2; fill-opacity: 0.27"/>
   </g>
   <g id="FillBetweenPolyCollection_8">
    <path d="M 65.335364 275.518193 
L 65.335364 275.526947 
L 72.811839 274.795862 
L 80.288314 274.214666 
L 87.764788 273.753229 
L 95.241263 273.380268 
L 102.717738 273.072175 
L 110.194213 272.810406 
L 117.670688 272.580929 
L 125.147163 272.373682 
L 132.623638 272.181871 
L 140.100113 272.001191 
L 147.576588 271.829074 
L 155.053063 271.664016 
L 162.529538 271.505041 
L 170.006013 271.351327 
L 177.482488 271.201987 
L 184.958963 271.056005 
L 192.435438 270.912275 
L 199.911913 270.769727 
L 207.388388 270.62747 
L 214.864863 270.484933 
L 222.341338 270.341963 
L 229.817813 270.198855 
L 237.294288 270.056321 
L 244.770763 269.915379 
L 252.247237 269.77721 
L 259.723712 269.642978 
L 267.200187 269.513661 
L 274.676662 269.389909 
L 282.153137 269.271961 
L 289.629612 269.159622 
L 297.106087 269.052319 
L 304.582562 268.949223 
L 312.059037 268.849406 
L 319.535512 268.752036 
L 327.011987 268.656555 
L 334.488462 268.562813 
L 341.964937 268.471143 
L 349.441412 268.382343 
L 356.917887 268.297553 
L 364.394362 268.218034 
L 371.870837 268.145041 
L 379.347312 268.079003 
L 386.823787 268.019302 
L 394.300262 267.964128 
L 401.776737 267.909846 
L 409.253212 267.8508 
L 416.729686 267.778928 
L 424.206161 267.683872 
L 431.682636 267.553182 
L 431.682636 267.540326 
L 431.682636 267.540326 
L 424.206161 267.6706 
L 416.729686 267.765417 
L 409.253212 267.837106 
L 401.776737 267.895673 
L 394.300262 267.948983 
L 386.823787 268.002677 
L 379.347312 268.0602 
L 371.870837 268.123434 
L 364.394362 268.193059 
L 356.917887 268.268681 
L 349.441412 268.349434 
L 341.964937 268.434288 
L 334.488462 268.522025 
L 327.011987 268.611968 
L 319.535512 268.703896 
L 312.059037 268.798054 
L 304.582562 268.895083 
L 297.106087 268.995877 
L 289.629612 269.101404 
L 282.153137 269.212519 
L 274.676662 269.329799 
L 267.200187 269.453425 
L 259.723712 269.583132 
L 252.247237 269.718232 
L 244.770763 269.857698 
L 237.294288 270.000311 
L 229.817813 270.144834 
L 222.341338 270.29019 
L 214.864863 270.435616 
L 207.388388 270.580765 
L 199.911913 270.725748 
L 192.435438 270.871098 
L 184.958963 271.017675 
L 177.482488 271.166525 
L 170.006013 271.318731 
L 162.529538 271.475293 
L 155.053063 271.637081 
L 147.576588 271.804903 
L 140.100113 271.979725 
L 132.623638 272.163041 
L 125.147163 272.357422 
L 117.670688 272.567184 
L 110.194213 272.799152 
L 102.717738 273.063445 
L 95.241263 273.374183 
L 87.764788 273.750043 
L 80.288314 274.214127 
L 72.811839 274.791941 
L 65.335364 275.518193 
z
" clip-path="url(#pf3841bd109)" style="fill: #7f7f7f; fill-opacity: 0.45"/>
   </g>
   <g id="matplotlib.axis_1">
    <g id="xtick_1">
     <g id="line2d_1">
      <defs>
       <path id="mb32c87f156" d="M 0 0 
L 0 3.5 
" style="stroke: #000000; stroke-width: 0.8"/>
      </defs>
      <g>
       <use xlink:href="#mb32c87f156" x="61.634886" y="302.2" style="stroke: #000000; stroke-width: 0.8"/>
      </g>
     </g>
     <g id="text_1">
      <!-- 0 -->
      <g transform="translate(58.453636 316.798437) scale(0.1 -0.1)">
       <defs>
        <path id="DejaVuSans-30" d="M 2034 4250 
Q 1547 4250 1301 3770 
Q 1056 3291 1056 2328 
Q 1056 1369 1301 889 
Q 1547 409 2034 409 
Q 2525 409 2770 889 
Q 3016 1369 3016 2328 
Q 3016 3291 2770 3770 
Q 2525 4250 2034 4250 
z
M 2034 4750 
Q 2819 4750 3233 4129 
Q 3647 3509 3647 2328 
Q 3647 1150 3233 529 
Q 2819 -91 2034 -91 
Q 1250 -91 836 529 
Q 422 1150 422 2328 
Q 422 3509 836 4129 
Q 1250 4750 2034 4750 
z
" transform="scale(0.015625)"/>
       </defs>
       <use xlink:href="#DejaVuSans-30"/>
      </g>
     </g>
    </g>
    <g id="xtick_2">
     <g id="line2d_2">
      <g>
       <use xlink:href="#mb32c87f156" x="135.644436" y="302.2" style="stroke: #000000; stroke-width: 0.8"/>
      </g>
     </g>
     <g id="text_2">
      <!-- 1 -->
      <g transform="translate(132.463186 316.798437) scale(0.1 -0.1)">
       <defs>
        <path id="DejaVuSans-31" d="M 794 531 
L 1825 531 
L 1825 4091 
L 703 3866 
L 703 4441 
L 1819 4666 
L 2450 4666 
L 2450 531 
L 3481 531 
L 3481 0 
L 794 0 
L 794 531 
z
" transform="scale(0.015625)"/>
       </defs>
       <use xlink:href="#DejaVuSans-31"/>
      </g>
     </g>
    </g>
    <g id="xtick_3">
     <g id="line2d_3">
      <g>
       <use xlink:href="#mb32c87f156" x="209.653986" y="302.2" style="stroke: #000000; stroke-width: 0.8"/>
      </g>
     </g>
     <g id="text_3">
      <!-- 2 -->
      <g transform="translate(206.472736 316.798437) scale(0.1 -0.1)">
       <defs>
        <path id="DejaVuSans-32" d="M 1228 531 
L 3431 531 
L 3431 0 
L 469 0 
L 469 531 
Q 828 903 1448 1529 
Q 2069 2156 2228 2338 
Q 2531 2678 2651 2914 
Q 2772 3150 2772 3378 
Q 2772 3750 2511 3984 
Q 2250 4219 1831 4219 
Q 1534 4219 1204 4116 
Q 875 4013 500 3803 
L 500 4441 
Q 881 4594 1212 4672 
Q 1544 4750 1819 4750 
Q 2544 4750 2975 4387 
Q 3406 4025 3406 3419 
Q 3406 3131 3298 2873 
Q 3191 2616 2906 2266 
Q 2828 2175 2409 1742 
Q 1991 1309 1228 531 
z
" transform="scale(0.015625)"/>
       </defs>
       <use xlink:href="#DejaVuSans-32"/>
      </g>
     </g>
    </g>
    <g id="xtick_4">
     <g id="line2d_4">
      <g>
       <use xlink:href="#mb32c87f156" x="283.663536" y="302.2" style="stroke: #000000; stroke-width: 0.8"/>
      </g>
     </g>
     <g id="text_4">
      <!-- 3 -->
      <g transform="translate(280.482286 316.798437) scale(0.1 -0.1)">
       <defs>
        <path id="DejaVuSans-33" d="M 2597 2516 
Q 3050 2419 3304 2112 
Q 3559 1806 3559 1356 
Q 3559 666 3084 287 
Q 2609 -91 1734 -91 
Q 1441 -91 1130 -33 
Q 819 25 488 141 
L 488 750 
Q 750 597 1062 519 
Q 1375 441 1716 441 
Q 2309 441 2620 675 
Q 2931 909 2931 1356 
Q 2931 1769 2642 2001 
Q 2353 2234 1838 2234 
L 1294 2234 
L 1294 2753 
L 1863 2753 
Q 2328 2753 2575 2939 
Q 2822 3125 2822 3475 
Q 2822 3834 2567 4026 
Q 2313 4219 1838 4219 
Q 1578 4219 1281 4162 
Q 984 4106 628 3988 
L 628 4550 
Q 988 4650 1302 4700 
Q 1616 4750 1894 4750 
Q 2613 4750 3031 4423 
Q 3450 4097 3450 3541 
Q 3450 3153 3228 2886 
Q 3006 2619 2597 2516 
z
" transform="scale(0.015625)"/>
       </defs>
       <use xlink:href="#DejaVuSans-33"/>
      </g>
     </g>
    </g>
    <g id="xtick_5">
     <g id="line2d_5">
      <g>
       <use xlink:href="#mb32c87f156" x="357.673086" y="302.2" style="stroke: #000000; stroke-width: 0.8"/>
      </g>
     </g>
     <g id="text_5">
      <!-- 4 -->
      <g transform="translate(354.491836 316.798437) scale(0.1 -0.1)">
       <defs>
        <path id="DejaVuSans-34" d="M 2419 4116 
L 825 1625 
L 2419 1625 
L 2419 4116 
z
M 2253 4666 
L 3047 4666 
L 3047 1625 
L 3713 1625 
L 3713 1100 
L 3047 1100 
L 3047 0 
L 2419 0 
L 2419 1100 
L 313 1100 
L 313 1709 
L 2253 4666 
z
" transform="scale(0.015625)"/>
       </defs>
       <use xlink:href="#DejaVuSans-34"/>
      </g>
     </g>
    </g>
    <g id="xtick_6">
     <g id="line2d_6">
      <g>
       <use xlink:href="#mb32c87f156" x="431.682636" y="302.2" style="stroke: #000000; stroke-width: 0.8"/>
      </g>
     </g>
     <g id="text_6">
      <!-- 5 -->
      <g transform="translate(428.501386 316.798437) scale(0.1 -0.1)">
       <defs>
        <path id="DejaVuSans-35" d="M 691 4666 
L 3169 4666 
L 3169 4134 
L 1269 4134 
L 1269 2991 
Q 1406 3038 1543 3061 
Q 1681 3084 1819 3084 
Q 2600 3084 3056 2656 
Q 3513 2228 3513 1497 
Q 3513 744 3044 326 
Q 2575 -91 1722 -91 
Q 1428 -91 1123 -41 
Q 819 9 494 109 
L 494 744 
Q 775 591 1075 516 
Q 1375 441 1709 441 
Q 2250 441 2565 725 
Q 2881 1009 2881 1497 
Q 2881 1984 2565 2268 
Q 2250 2553 1709 2553 
Q 1456 2553 1204 2497 
Q 953 2441 691 2322 
L 691 4666 
z
" transform="scale(0.015625)"/>
       </defs>
       <use xlink:href="#DejaVuSans-35"/>
      </g>
     </g>
    </g>
    <g id="text_7">
     <!-- $W$ (m/hour) -->
     <g transform="translate(220.059 330.476562) scale(0.1 -0.1)">
      <defs>
       <path id="DejaVuSans-Oblique-57" d="M 616 4666 
L 1228 4666 
L 1453 697 
L 3213 4666 
L 3916 4666 
L 4147 697 
L 5888 4666 
L 6528 4666 
L 4453 0 
L 3659 0 
L 3444 3891 
L 1697 0 
L 903 0 
L 616 4666 
z
" transform="scale(0.015625)"/>
       <path id="DejaVuSans-20" transform="scale(0.015625)"/>
       <path id="DejaVuSans-28" d="M 1984 4856 
Q 1566 4138 1362 3434 
Q 1159 2731 1159 2009 
Q 1159 1288 1364 580 
Q 1569 -128 1984 -844 
L 1484 -844 
Q 1016 -109 783 600 
Q 550 1309 550 2009 
Q 550 2706 781 3412 
Q 1013 4119 1484 4856 
L 1984 4856 
z
" transform="scale(0.015625)"/>
       <path id="DejaVuSans-6d" d="M 3328 2828 
Q 3544 3216 3844 3400 
Q 4144 3584 4550 3584 
Q 5097 3584 5394 3201 
Q 5691 2819 5691 2113 
L 5691 0 
L 5113 0 
L 5113 2094 
Q 5113 2597 4934 2840 
Q 4756 3084 4391 3084 
Q 3944 3084 3684 2787 
Q 3425 2491 3425 1978 
L 3425 0 
L 2847 0 
L 2847 2094 
Q 2847 2600 2669 2842 
Q 2491 3084 2119 3084 
Q 1678 3084 1418 2786 
Q 1159 2488 1159 1978 
L 1159 0 
L 581 0 
L 581 3500 
L 1159 3500 
L 1159 2956 
Q 1356 3278 1631 3431 
Q 1906 3584 2284 3584 
Q 2666 3584 2933 3390 
Q 3200 3197 3328 2828 
z
" transform="scale(0.015625)"/>
       <path id="DejaVuSans-2f" d="M 1625 4666 
L 2156 4666 
L 531 -594 
L 0 -594 
L 1625 4666 
z
" transform="scale(0.015625)"/>
       <path id="DejaVuSans-68" d="M 3513 2113 
L 3513 0 
L 2938 0 
L 2938 2094 
Q 2938 2591 2744 2837 
Q 2550 3084 2163 3084 
Q 1697 3084 1428 2787 
Q 1159 2491 1159 1978 
L 1159 0 
L 581 0 
L 581 4863 
L 1159 4863 
L 1159 2956 
Q 1366 3272 1645 3428 
Q 1925 3584 2291 3584 
Q 2894 3584 3203 3211 
Q 3513 2838 3513 2113 
z
" transform="scale(0.015625)"/>
       <path id="DejaVuSans-6f" d="M 1959 3097 
Q 1497 3097 1228 2736 
Q 959 2375 959 1747 
Q 959 1119 1226 758 
Q 1494 397 1959 397 
Q 2419 397 2687 759 
Q 2956 1122 2956 1747 
Q 2956 2369 2687 2733 
Q 2419 3097 1959 3097 
z
M 1959 3584 
Q 2709 3584 3137 3096 
Q 3566 2609 3566 1747 
Q 3566 888 3137 398 
Q 2709 -91 1959 -91 
Q 1206 -91 779 398 
Q 353 888 353 1747 
Q 353 2609 779 3096 
Q 1206 3584 1959 3584 
z
" transform="scale(0.015625)"/>
       <path id="DejaVuSans-75" d="M 544 1381 
L 544 3500 
L 1119 3500 
L 1119 1403 
Q 1119 906 1312 657 
Q 1506 409 1894 409 
Q 2359 409 2629 706 
Q 2900 1003 2900 1516 
L 2900 3500 
L 3475 3500 
L 3475 0 
L 2900 0 
L 2900 538 
Q 2691 219 2414 64 
Q 2138 -91 1772 -91 
Q 1169 -91 856 284 
Q 544 659 544 1381 
z
M 1991 3584 
L 1991 3584 
z
" transform="scale(0.015625)"/>
       <path id="DejaVuSans-72" d="M 2631 2963 
Q 2534 3019 2420 3045 
Q 2306 3072 2169 3072 
Q 1681 3072 1420 2755 
Q 1159 2438 1159 1844 
L 1159 0 
L 581 0 
L 581 3500 
L 1159 3500 
L 1159 2956 
Q 1341 3275 1631 3429 
Q 1922 3584 2338 3584 
Q 2397 3584 2469 3576 
Q 2541 3569 2628 3553 
L 2631 2963 
z
" transform="scale(0.015625)"/>
       <path id="DejaVuSans-29" d="M 513 4856 
L 1013 4856 
Q 1481 4119 1714 3412 
Q 1947 2706 1947 2009 
Q 1947 1309 1714 600 
Q 1481 -109 1013 -844 
L 513 -844 
Q 928 -128 1133 580 
Q 1338 1288 1338 2009 
Q 1338 2731 1133 3434 
Q 928 4138 513 4856 
z
" transform="scale(0.015625)"/>
      </defs>
      <use xlink:href="#DejaVuSans-Oblique-57" transform="translate(0 0.015625)"/>
      <use xlink:href="#DejaVuSans-20" transform="translate(98.876953 0.015625)"/>
      <use xlink:href="#DejaVuSans-28" transform="translate(130.664062 0.015625)"/>
      <use xlink:href="#DejaVuSans-6d" transform="translate(169.677734 0.015625)"/>
      <use xlink:href="#DejaVuSans-2f" transform="translate(267.089844 0.015625)"/>
      <use xlink:href="#DejaVuSans-68" transform="translate(300.78125 0.015625)"/>
      <use xlink:href="#DejaVuSans-6f" transform="translate(364.160156 0.015625)"/>
      <use xlink:href="#DejaVuSans-75" transform="translate(425.341797 0.015625)"/>
      <use xlink:href="#DejaVuSans-72" transform="translate(488.720703 0.015625)"/>
      <use xlink:href="#DejaVuSans-29" transform="translate(529.833984 0.015625)"/>
     </g>
    </g>
   </g>
   <g id="matplotlib.axis_2">
    <g id="ytick_1">
     <g id="line2d_7">
      <defs>
       <path id="maede9d4f2e" d="M 0 0 
L -3.5 0 
" style="stroke: #000000; stroke-width: 0.8"/>
      </defs>
      <g>
       <use xlink:href="#maede9d4f2e" x="47.018" y="276.345613" style="stroke: #000000; stroke-width: 0.8"/>
      </g>
     </g>
     <g id="text_8">
      <!-- 0 -->
      <g transform="translate(33.6555 280.144831) scale(0.1 -0.1)">
       <use xlink:href="#DejaVuSans-30"/>
      </g>
     </g>
    </g>
    <g id="ytick_2">
     <g id="line2d_8">
      <g>
       <use xlink:href="#maede9d4f2e" x="47.018" y="241.084445" style="stroke: #000000; stroke-width: 0.8"/>
      </g>
     </g>
     <g id="text_9">
      <!-- 5 -->
      <g transform="translate(33.6555 244.883663) scale(0.1 -0.1)">
       <use xlink:href="#DejaVuSans-35"/>
      </g>
     </g>
    </g>
    <g id="ytick_3">
     <g id="line2d_9">
      <g>
       <use xlink:href="#maede9d4f2e" x="47.018" y="205.823276" style="stroke: #000000; stroke-width: 0.8"/>
      </g>
     </g>
     <g id="text_10">
      <!-- 10 -->
      <g transform="translate(27.293 209.622495) scale(0.1 -0.1)">
       <use xlink:href="#DejaVuSans-31"/>
       <use xlink:href="#DejaVuSans-30" transform="translate(63.623047 0)"/>
      </g>
     </g>
    </g>
    <g id="ytick_4">
     <g id="line2d_10">
      <g>
       <use xlink:href="#maede9d4f2e" x="47.018" y="170.562108" style="stroke: #000000; stroke-width: 0.8"/>
      </g>
     </g>
     <g id="text_11">
      <!-- 15 -->
      <g transform="translate(27.293 174.361327) scale(0.1 -0.1)">
       <use xlink:href="#DejaVuSans-31"/>
       <use xlink:href="#DejaVuSans-35" transform="translate(63.623047 0)"/>
      </g>
     </g>
    </g>
    <g id="ytick_5">
     <g id="line2d_11">
      <g>
       <use xlink:href="#maede9d4f2e" x="47.018" y="135.30094" style="stroke: #000000; stroke-width: 0.8"/>
      </g>
     </g>
     <g id="text_12">
      <!-- 20 -->
      <g transform="translate(27.293 139.100159) scale(0.1 -0.1)">
       <use xlink:href="#DejaVuSans-32"/>
       <use xlink:href="#DejaVuSans-30" transform="translate(63.623047 0)"/>
      </g>
     </g>
    </g>
    <g id="ytick_6">
     <g id="line2d_12">
      <g>
       <use xlink:href="#maede9d4f2e" x="47.018" y="100.039772" style="stroke: #000000; stroke-width: 0.8"/>
      </g>
     </g>
     <g id="text_13">
      <!-- 25 -->
      <g transform="translate(27.293 103.83899) scale(0.1 -0.1)">
       <use xlink:href="#DejaVuSans-32"/>
       <use xlink:href="#DejaVuSans-35" transform="translate(63.623047 0)"/>
      </g>
     </g>
    </g>
    <g id="ytick_7">
     <g id="line2d_13">
      <g>
       <use xlink:href="#maede9d4f2e" x="47.018" y="64.778603" style="stroke: #000000; stroke-width: 0.8"/>
      </g>
     </g>
     <g id="text_14">
      <!-- 30 -->
      <g transform="translate(27.293 68.577822) scale(0.1 -0.1)">
       <use xlink:href="#DejaVuSans-33"/>
       <use xlink:href="#DejaVuSans-30" transform="translate(63.623047 0)"/>
      </g>
     </g>
    </g>
    <g id="ytick_8">
     <g id="line2d_14">
      <g>
       <use xlink:href="#maede9d4f2e" x="47.018" y="29.517435" style="stroke: #000000; stroke-width: 0.8"/>
      </g>
     </g>
     <g id="text_15">
      <!-- 35 -->
      <g transform="translate(27.293 33.316654) scale(0.1 -0.1)">
       <use xlink:href="#DejaVuSans-33"/>
       <use xlink:href="#DejaVuSans-35" transform="translate(63.623047 0)"/>
      </g>
     </g>
    </g>
    <g id="text_16">
     <!-- $Q_{lc}$ (kW) -->
     <g transform="translate(21.213312 176.8) rotate(-90) scale(0.1 -0.1)">
      <defs>
       <path id="DejaVuSans-Oblique-51" d="M 2309 -84 
Q 2275 -88 2237 -89 
Q 2200 -91 2125 -91 
Q 1250 -91 756 411 
Q 263 913 263 1797 
Q 263 2319 452 2844 
Q 641 3369 978 3788 
Q 1369 4269 1858 4509 
Q 2347 4750 2938 4750 
Q 3794 4750 4287 4245 
Q 4781 3741 4781 2869 
Q 4781 1928 4265 1147 
Q 3750 366 2919 44 
L 3553 -825 
L 2847 -825 
L 2309 -84 
z
M 2919 4238 
Q 2400 4238 2003 3986 
Q 1606 3734 1313 3219 
Q 1125 2891 1026 2522 
Q 928 2153 928 1778 
Q 928 1128 1239 775 
Q 1550 422 2119 422 
Q 2631 422 3032 676 
Q 3434 931 3719 1434 
Q 3909 1772 4009 2142 
Q 4109 2513 4109 2881 
Q 4109 3528 3796 3883 
Q 3484 4238 2919 4238 
z
" transform="scale(0.015625)"/>
       <path id="DejaVuSans-Oblique-6c" d="M 1172 4863 
L 1747 4863 
L 800 0 
L 225 0 
L 1172 4863 
z
" transform="scale(0.015625)"/>
       <path id="DejaVuSans-Oblique-63" d="M 3431 3366 
L 3316 2797 
Q 3109 2947 2876 3022 
Q 2644 3097 2394 3097 
Q 2119 3097 1870 3000 
Q 1622 2903 1453 2725 
Q 1184 2453 1037 2087 
Q 891 1722 891 1331 
Q 891 859 1127 628 
Q 1363 397 1844 397 
Q 2081 397 2348 469 
Q 2616 541 2906 684 
L 2797 116 
Q 2547 13 2283 -39 
Q 2019 -91 1741 -91 
Q 1044 -91 669 257 
Q 294 606 294 1253 
Q 294 1797 489 2255 
Q 684 2713 1069 3078 
Q 1331 3328 1684 3456 
Q 2038 3584 2456 3584 
Q 2700 3584 2940 3529 
Q 3181 3475 3431 3366 
z
" transform="scale(0.015625)"/>
       <path id="DejaVuSans-6b" d="M 581 4863 
L 1159 4863 
L 1159 1991 
L 2875 3500 
L 3609 3500 
L 1753 1863 
L 3688 0 
L 2938 0 
L 1159 1709 
L 1159 0 
L 581 0 
L 581 4863 
z
" transform="scale(0.015625)"/>
       <path id="DejaVuSans-57" d="M 213 4666 
L 850 4666 
L 1831 722 
L 2809 4666 
L 3519 4666 
L 4500 722 
L 5478 4666 
L 6119 4666 
L 4947 0 
L 4153 0 
L 3169 4050 
L 2175 0 
L 1381 0 
L 213 4666 
z
" transform="scale(0.015625)"/>
      </defs>
      <use xlink:href="#DejaVuSans-Oblique-51" transform="translate(0 0.015625)"/>
      <use xlink:href="#DejaVuSans-Oblique-6c" transform="translate(78.710938 -16.390625) scale(0.7)"/>
      <use xlink:href="#DejaVuSans-Oblique-63" transform="translate(98.15918 -16.390625) scale(0.7)"/>
      <use xlink:href="#DejaVuSans-20" transform="translate(139.379883 0.015625)"/>
      <use xlink:href="#DejaVuSans-28" transform="translate(171.166992 0.015625)"/>
      <use xlink:href="#DejaVuSans-6b" transform="translate(210.180664 0.015625)"/>
      <use xlink:href="#DejaVuSans-57" transform="translate(268.09082 0.015625)"/>
      <use xlink:href="#DejaVuSans-29" transform="translate(366.967773 0.015625)"/>
     </g>
    </g>
   </g>
   <g id="line2d_15">
    <path d="M 65.335364 207.46968 
L 72.811839 192.247259 
L 80.288314 179.984698 
L 87.764788 170.019842 
L 95.241263 161.786955 
L 102.717738 154.824352 
L 110.194213 148.769657 
L 117.670688 143.353533 
L 125.147163 138.384724 
L 132.623638 133.734001 
L 140.100113 129.321663 
L 147.576588 125.101878 
L 155.053063 121.050085 
L 162.529538 117.154447 
L 170.006013 113.407189 
L 177.482488 109.802055 
L 184.958963 106.330113 
L 192.435438 102.980093 
L 199.911913 99.739417 
L 207.388388 96.594719 
L 214.864863 93.534134 
L 222.341338 90.54805 
L 229.817813 87.629618 
L 237.294288 84.774646 
L 244.770763 81.981137 
L 252.247237 79.247991 
L 259.723712 76.574037 
L 267.200187 73.957813 
L 274.676662 71.395922 
L 282.153137 68.884185 
L 289.629612 66.416979 
L 297.106087 63.989663 
L 304.582562 61.597811 
L 312.059037 59.238578 
L 319.535512 56.911172 
L 327.011987 54.616841 
L 334.488462 52.358465 
L 341.964937 50.138946 
L 349.441412 47.960081 
L 356.917887 45.821138 
L 364.394362 43.717622 
L 371.870837 41.640912 
L 379.347312 39.579084 
L 386.823787 37.51923 
L 394.300262 35.451462 
L 401.776737 33.374538 
L 409.253212 31.302904 
L 416.729686 29.274638 
L 424.206161 27.359642 
L 431.682636 25.667264 
" clip-path="url(#pf3841bd109)" style="fill: none; stroke: #1f77b4; stroke-width: 1.5; stroke-linecap: square"/>
   </g>
   <g id="line2d_16">
    <path d="M 65.335364 243.959456 
L 72.811839 235.9285 
L 80.288314 229.422421 
L 87.764788 224.10484 
L 95.241263 219.688508 
L 102.717738 215.937299 
L 110.194213 212.664983 
L 117.670688 209.731169 
L 125.147163 207.035295 
L 132.623638 204.509484 
L 140.100113 202.111012 
L 147.576588 199.81515 
L 155.053063 197.608827 
L 162.529538 195.485504 
L 170.006013 193.441399 
L 177.482488 191.47305 
L 184.958963 189.576063 
L 192.435438 187.744798 
L 199.911913 185.972699 
L 207.388388 184.252948 
L 214.864863 182.579192 
L 222.341338 180.946122 
L 229.817813 179.349794 
L 237.294288 177.787642 
L 244.770763 176.258224 
L 252.247237 174.760788 
L 259.723712 173.294774 
L 267.200187 171.859372 
L 274.676662 170.453238 
L 282.153137 169.074418 
L 289.629612 167.720498 
L 297.106087 166.388915 
L 304.582562 165.077368 
L 312.059037 163.7842 
L 319.535512 162.508663 
L 327.011987 161.250954 
L 334.488462 160.011996 
L 341.964937 158.792981 
L 349.441412 157.594712 
L 356.917887 156.416935 
L 364.394362 155.257773 
L 371.870837 154.113519 
L 379.347312 152.978939 
L 386.823787 151.848255 
L 394.300262 150.716885 
L 401.776737 149.583958 
L 409.253212 148.455471 
L 416.729686 147.347893 
L 424.206161 146.291918 
L 431.682636 145.335959 
" clip-path="url(#pf3841bd109)" style="fill: none; stroke: #ff7f0e; stroke-width: 1.5; stroke-linecap: square"/>
   </g>
   <g id="line2d_17">
    <path d="M 65.335364 264.576884 
L 72.811839 261.436926 
L 80.288314 258.887321 
L 87.764788 256.798096 
L 95.241263 255.058169 
L 102.717738 253.576245 
L 110.194213 252.280346 
L 117.670688 251.116246 
L 125.147163 250.045129 
L 132.623638 249.040799 
L 140.100113 248.086757 
L 147.576588 247.173419 
L 155.053063 246.295663 
L 162.529538 245.450854 
L 170.006013 244.6374 
L 177.482488 243.853824 
L 184.958963 243.098301 
L 192.435438 242.368555 
L 199.911913 241.661989 
L 207.388388 240.975946 
L 214.864863 240.307982 
L 222.341338 239.656082 
L 229.817813 239.018764 
L 237.294288 238.395077 
L 244.770763 237.784485 
L 252.247237 237.18669 
L 259.723712 236.601442 
L 267.200187 236.028371 
L 274.676662 235.466889 
L 282.153137 234.916174 
L 289.629612 234.375244 
L 297.106087 233.843086 
L 304.582562 233.318826 
L 312.059037 232.80187 
L 319.535512 232.291996 
L 327.011987 231.789356 
L 334.488462 231.294364 
L 341.964937 230.807499 
L 349.441412 230.329034 
L 356.917887 229.858767 
L 364.394362 229.395815 
L 371.870837 228.938549 
L 379.347312 228.484755 
L 386.823787 228.032066 
L 394.300262 227.5787 
L 401.776737 227.124485 
L 409.253212 226.672135 
L 416.729686 226.228663 
L 424.206161 225.806826 
L 431.682636 225.426413 
" clip-path="url(#pf3841bd109)" style="fill: none; stroke: #2ca02c; stroke-width: 1.5; stroke-linecap: square"/>
   </g>
   <g id="line2d_18">
    <path d="M 65.335364 275.522309 
L 72.811839 274.793756 
L 80.288314 274.214391 
L 87.764788 273.751593 
L 95.241263 273.377245 
L 102.717738 273.067869 
L 110.194213 272.804869 
L 117.670688 272.574171 
L 125.147163 272.365687 
L 132.623638 272.172608 
L 140.100113 271.990625 
L 147.576588 271.817168 
L 155.053063 271.650736 
L 162.529538 271.490362 
L 170.006013 271.335228 
L 177.482488 271.184457 
L 184.958963 271.03704 
L 192.435438 270.891886 
L 199.911913 270.747937 
L 207.388388 270.604317 
L 214.864863 270.460475 
L 222.341338 270.316279 
L 229.817813 270.172052 
L 237.294288 270.028531 
L 244.770763 269.886764 
L 252.247237 269.74796 
L 259.723712 269.613313 
L 267.200187 269.483824 
L 274.676662 269.360166 
L 282.153137 269.242589 
L 289.629612 269.130906 
L 297.106087 269.024545 
L 304.582562 268.922661 
L 312.059037 268.824331 
L 319.535512 268.728801 
L 327.011987 268.635331 
L 334.488462 268.543525 
L 341.964937 268.453724 
L 349.441412 268.366801 
L 356.917887 268.284034 
L 364.394362 268.206305 
L 371.870837 268.135002 
L 379.347312 268.070038 
L 386.823787 268.01126 
L 394.300262 267.957062 
L 401.776737 267.903094 
L 409.253212 267.843725 
L 416.729686 267.77176 
L 424.206161 267.676726 
L 431.682636 267.546121 
" clip-path="url(#pf3841bd109)" style="fill: none; stroke: #d62728; stroke-width: 1.5; stroke-linecap: square"/>
   </g>
   <g id="patch_3">
    <path d="M 47.018 302.2 
L 47.018 10.8 
" style="fill: none; stroke: #000000; stroke-width: 0.8; stroke-linejoin: miter; stroke-linecap: square"/>
   </g>
   <g id="patch_4">
    <path d="M 450 302.2 
L 450 10.8 
" style="fill: none; stroke: #000000; stroke-width: 0.8; stroke-linejoin: miter; stroke-linecap: square"/>
   </g>
   <g id="patch_5">
    <path d="M 47.018 302.2 
L 450 302.2 
" style="fill: none; stroke: #000000; stroke-width: 0.8; stroke-linejoin: miter; stroke-linecap: square"/>
   </g>
   <g id="patch_6">
    <path d="M 47.018 10.8 
L 450 10.8 
" style="fill: none; stroke: #000000; stroke-width: 0.8; stroke-linejoin: miter; stroke-linecap: square"/>
   </g>
   <g id="legend_1">
    <g id="patch_7">
     <path d="M 54.018 77.5125 
L 132.888313 77.5125 
Q 134.888313 77.5125 134.888313 75.5125 
L 134.888313 17.8 
Q 134.888313 15.8 132.888313 15.8 
L 54.018 15.8 
Q 52.018 15.8 52.018 17.8 
L 52.018 75.5125 
Q 52.018 77.5125 54.018 77.5125 
z
" style="fill: #ffffff; opacity: 0.8; stroke: #cccccc; stroke-linejoin: miter"/>
    </g>
    <g id="line2d_19">
     <path d="M 56.018 23.898438 
L 66.018 23.898438 
L 76.018 23.898438 
" style="fill: none; stroke: #1f77b4; stroke-width: 1.5; stroke-linecap: square"/>
    </g>
    <g id="text_17">
     <!-- Ts=100 K -->
     <g transform="translate(84.018 27.398438) scale(0.1 -0.1)">
      <defs>
       <path id="DejaVuSans-54" d="M -19 4666 
L 3928 4666 
L 3928 4134 
L 2272 4134 
L 2272 0 
L 1638 0 
L 1638 4134 
L -19 4134 
L -19 4666 
z
" transform="scale(0.015625)"/>
       <path id="DejaVuSans-73" d="M 2834 3397 
L 2834 2853 
Q 2591 2978 2328 3040 
Q 2066 3103 1784 3103 
Q 1356 3103 1142 2972 
Q 928 2841 928 2578 
Q 928 2378 1081 2264 
Q 1234 2150 1697 2047 
L 1894 2003 
Q 2506 1872 2764 1633 
Q 3022 1394 3022 966 
Q 3022 478 2636 193 
Q 2250 -91 1575 -91 
Q 1294 -91 989 -36 
Q 684 19 347 128 
L 347 722 
Q 666 556 975 473 
Q 1284 391 1588 391 
Q 1994 391 2212 530 
Q 2431 669 2431 922 
Q 2431 1156 2273 1281 
Q 2116 1406 1581 1522 
L 1381 1569 
Q 847 1681 609 1914 
Q 372 2147 372 2553 
Q 372 3047 722 3315 
Q 1072 3584 1716 3584 
Q 2034 3584 2315 3537 
Q 2597 3491 2834 3397 
z
" transform="scale(0.015625)"/>
       <path id="DejaVuSans-3d" d="M 678 2906 
L 4684 2906 
L 4684 2381 
L 678 2381 
L 678 2906 
z
M 678 1631 
L 4684 1631 
L 4684 1100 
L 678 1100 
L 678 1631 
z
" transform="scale(0.015625)"/>
       <path id="DejaVuSans-4b" d="M 628 4666 
L 1259 4666 
L 1259 2694 
L 3353 4666 
L 4166 4666 
L 1850 2491 
L 4331 0 
L 3500 0 
L 1259 2247 
L 1259 0 
L 628 0 
L 628 4666 
z
" transform="scale(0.015625)"/>
      </defs>
      <use xlink:href="#DejaVuSans-54"/>
      <use xlink:href="#DejaVuSans-73" transform="translate(44.583984 0)"/>
      <use xlink:href="#DejaVuSans-3d" transform="translate(96.683594 0)"/>
      <use xlink:href="#DejaVuSans-31" transform="translate(180.472656 0)"/>
      <use xlink:href="#DejaVuSans-30" transform="translate(244.095703 0)"/>
      <use xlink:href="#DejaVuSans-30" transform="translate(307.71875 0)"/>
      <use xlink:href="#DejaVuSans-20" transform="translate(371.341797 0)"/>
      <use xlink:href="#DejaVuSans-4b" transform="translate(403.128906 0)"/>
     </g>
    </g>
    <g id="line2d_20">
     <path d="M 56.018 38.576563 
L 66.018 38.576563 
L 76.018 38.576563 
" style="fill: none; stroke: #ff7f0e; stroke-width: 1.5; stroke-linecap: square"/>
    </g>
    <g id="text_18">
     <!-- Ts=160 K -->
     <g transform="translate(84.018 42.076563) scale(0.1 -0.1)">
      <defs>
       <path id="DejaVuSans-36" d="M 2113 2584 
Q 1688 2584 1439 2293 
Q 1191 2003 1191 1497 
Q 1191 994 1439 701 
Q 1688 409 2113 409 
Q 2538 409 2786 701 
Q 3034 994 3034 1497 
Q 3034 2003 2786 2293 
Q 2538 2584 2113 2584 
z
M 3366 4563 
L 3366 3988 
Q 3128 4100 2886 4159 
Q 2644 4219 2406 4219 
Q 1781 4219 1451 3797 
Q 1122 3375 1075 2522 
Q 1259 2794 1537 2939 
Q 1816 3084 2150 3084 
Q 2853 3084 3261 2657 
Q 3669 2231 3669 1497 
Q 3669 778 3244 343 
Q 2819 -91 2113 -91 
Q 1303 -91 875 529 
Q 447 1150 447 2328 
Q 447 3434 972 4092 
Q 1497 4750 2381 4750 
Q 2619 4750 2861 4703 
Q 3103 4656 3366 4563 
z
" transform="scale(0.015625)"/>
      </defs>
      <use xlink:href="#DejaVuSans-54"/>
      <use xlink:href="#DejaVuSans-73" transform="translate(44.583984 0)"/>
      <use xlink:href="#DejaVuSans-3d" transform="translate(96.683594 0)"/>
      <use xlink:href="#DejaVuSans-31" transform="translate(180.472656 0)"/>
      <use xlink:href="#DejaVuSans-36" transform="translate(244.095703 0)"/>
      <use xlink:href="#DejaVuSans-30" transform="translate(307.71875 0)"/>
      <use xlink:href="#DejaVuSans-20" transform="translate(371.341797 0)"/>
      <use xlink:href="#DejaVuSans-4b" transform="translate(403.128906 0)"/>
     </g>
    </g>
    <g id="line2d_21">
     <path d="M 56.018 53.254687 
L 66.018 53.254687 
L 76.018 53.254687 
" style="fill: none; stroke: #2ca02c; stroke-width: 1.5; stroke-linecap: square"/>
    </g>
    <g id="text_19">
     <!-- Ts=220 K -->
     <g transform="translate(84.018 56.754687) scale(0.1 -0.1)">
      <use xlink:href="#DejaVuSans-54"/>
      <use xlink:href="#DejaVuSans-73" transform="translate(44.583984 0)"/>
      <use xlink:href="#DejaVuSans-3d" transform="translate(96.683594 0)"/>
      <use xlink:href="#DejaVuSans-32" transform="translate(180.472656 0)"/>
      <use xlink:href="#DejaVuSans-32" transform="translate(244.095703 0)"/>
      <use xlink:href="#DejaVuSans-30" transform="translate(307.71875 0)"/>
      <use xlink:href="#DejaVuSans-20" transform="translate(371.341797 0)"/>
      <use xlink:href="#DejaVuSans-4b" transform="translate(403.128906 0)"/>
     </g>
    </g>
    <g id="line2d_22">
     <path d="M 56.018 67.932813 
L 66.018 67.932813 
L 76.018 67.932813 
" style="fill: none; stroke: #d62728; stroke-width: 1.5; stroke-linecap: square"/>
    </g>
    <g id="text_20">
     <!-- Ts=260 K -->
     <g transform="translate(84.018 71.432813) scale(0.1 -0.1)">
      <use xlink:href="#DejaVuSans-54"/>
      <use xlink:href="#DejaVuSans-73" transform="translate(44.583984 0)"/>
      <use xlink:href="#DejaVuSans-3d" transform="translate(96.683594 0)"/>
      <use xlink:href="#DejaVuSans-32" transform="translate(180.472656 0)"/>
      <use xlink:href="#DejaVuSans-36" transform="translate(244.095703 0)"/>
      <use xlink:href="#DejaVuSans-30" transform="translate(307.71875 0)"/>
      <use xlink:href="#DejaVuSans-20" transform="translate(371.341797 0)"/>
      <use xlink:href="#DejaVuSans-4b" transform="translate(403.128906 0)"/>
     </g>
    </g>
   </g>
  </g>
 </g>
 <defs>
  <clipPath id="pf3841bd109">
   <rect x="47.018" y="10.8" width="402.982" height="291.4"/>
  </clipPath>
 </defs>
</svg>
