<?xml version="1.0" encoding="utf-8" standalone="no"?>
<!DOCTYPE svg PUBLIC "-//W3C//DTD SVG 1.1//EN"
  "http://www.w3.org/Graphics/SVG/1.1/DTD/svg11.dtd">
<svg xmlns:xlink="http://www.w3.org/1999/xlink" width="460.8pt" height="345.6pt" viewBox="0 0 460.8 345.6" xmlns="http://www.w3.org/2000/svg" version="1.1">
 <metadata>
  <rdf:RDF xmlns:dc="http://purl.org/dc/elements/1.1/" xmlns:cc="http://creativecommons.org/ns#" xmlns:rdf="http://www.w3.org/1999/02/22-rdf-syntax-ns#">
   <cc:Work>
    <dc:type rdf:resource="http://purl.org/dc/dcmitype/StillImage"/>
    <dc:date>2026-02-12T06:30:24.060200</dc:date>
    <dc:format>image/svg+xml</dc:format>
    <dc:creator>
     <cc:Agent>
      <dc:title>Matplotlib v3.10.8, https://matplotlib.org/</dc:title>
     </cc:Agent>
    </dc:creator>
   </cc:Work>
  </rdf:RDF>
 </metadata>
 <defs>
  <style type="text/css">*{stroke-linejoin: round; stroke-linecap: butt}</style>
 </defs>
 <g id="figure_1">
  <g id="patch_1">
   <path d="M 0 345.6 
L 460.8 345.6 
L 460.8 0 
L 0 0 
L 0 345.6 
z
" style="fill: none"/>
  </g>
  <g id="axes_1">
   <g id="patch_2">
    <path d="M 47.018 302.2 
L 450 302.2 
L 450 10.8 
L 47.018 10.8 
L 47.018 302.2 
z
" style="fill: none"/>
   </g>
   <g id="FillBetweenPolyCollection_1">
    <path d="M 65.335364 217.86032 
L 65.335364 218.083838 
L 72.811839 202.698459 
L 80.288314 189.670492 
L 87.764788 178.739879 
L 95.241263 169.594075 
L 102.717738 161.899339 
L 110.194213 155.329025 
L 117.670688 149.580346 
L 125.147163 144.397216 
L 132.623638 139.582847 
L 140.100113 135.001623 
L 147.576588 130.573053 
L 155.053063 126.262489 
L 162.529538 122.06905 
L 170.006013 118.009914 
L 177.482488 114.105696 
L 184.958963 110.36882 
L 192.435438 106.796767 
L 199.911913 103.371114 
L 207.388388 100.062894 
L 214.864863 96.841994 
L 222.341338 93.684551 
L 229.817813 90.5782 
L 237.294288 87.522396 
L 244.770763 84.524196 
L 252.247237 81.592922 
L 259.723712 78.734256 
L 267.200187 75.947917 
L 274.676662 73.227805 
L 282.153137 70.564057 
L 289.629612 67.946613 
L 297.106087 65.366979 
L 304.582562 62.820399 
L 312.059037 60.305987 
L 319.535512 57.825512 
L 327.011987 55.382343 
L 334.488462 52.979117 
L 341.964937 50.617463 
L 349.441412 48.297276 
L 356.917887 46.016133 
L 364.394362 43.769285 
L 371.870837 41.548792 
L 379.347312 39.346259 
L 386.823787 37.155597 
L 394.300262 34.975939 
L 401.776737 32.813874 
L 409.253212 30.681426 
L 416.729686 28.593175 
L 424.206161 26.559536 
L 431.682636 24.580205 
L 431.682636 24.045455 
L 431.682636 24.045455 
L 424.206161 26.028283 
L 416.729686 28.065427 
L 409.253212 30.157288 
L 401.776737 32.293451 
L 394.300262 34.459283 
L 386.823787 36.642711 
L 379.347312 38.837166 
L 371.870837 41.043552 
L 364.394362 43.267967 
L 356.917887 45.518782 
L 349.441412 47.803922 
L 341.964937 50.128161 
L 334.488462 52.493954 
L 327.011987 54.901406 
L 319.535512 57.348868 
L 312.059037 59.833687 
L 304.582562 62.352513 
L 297.106087 64.90359 
L 289.629612 67.487789 
L 282.153137 70.109841 
L 274.676662 72.778244 
L 267.200187 75.50312 
L 259.723712 78.294387 
L 252.247237 81.157813 
L 244.770763 84.093866 
L 237.294288 87.096988 
L 229.817813 90.157803 
L 222.341338 93.269205 
L 214.864863 96.43173 
L 207.388388 99.657794 
L 199.911913 102.971331 
L 192.435438 106.402512 
L 184.958963 109.98041 
L 177.482488 113.723536 
L 170.006013 117.634406 
L 162.529538 121.699954 
L 155.053063 125.899822 
L 147.576588 130.216729 
L 140.100113 134.651529 
L 132.623638 139.239052 
L 125.147163 144.060123 
L 117.670688 149.250785 
L 110.194213 155.008357 
L 102.717738 161.588601 
L 95.241263 169.295918 
L 87.764788 178.461614 
L 80.288314 189.412798 
L 72.811839 202.457755 
L 65.335364 217.86032 
z
" clip-path="url(#p32c42d7ccd)" style="fill: #1f77b4; fill-opacity: 0.45"/>
   </g>
   <g id="FillBetweenPolyCollection_2">
    <path d="M 65.335364 256.786784 
L 65.335364 256.939384 
L 72.811839 248.736043 
L 80.288314 241.828658 
L 87.764788 236.040174 
L 95.241263 231.184253 
L 102.717738 227.075663 
L 110.194213 223.539543 
L 117.670688 220.420756 
L 125.147163 217.591732 
L 132.623638 214.955901 
L 140.100113 212.44762 
L 147.576588 210.028631 
L 155.053063 207.682383 
L 162.529538 205.407041 
L 170.006013 203.207977 
L 177.482488 201.091496 
L 184.958963 199.060459 
L 192.435438 197.111874 
L 199.911913 195.236672 
L 207.388388 193.421934 
L 214.864863 191.654554 
L 222.341338 189.924217 
L 229.817813 188.225256 
L 237.294288 186.556622 
L 244.770763 184.92029 
L 252.247237 183.319243 
L 259.723712 181.755525 
L 267.200187 180.229003 
L 274.676662 178.737116 
L 282.153137 177.275509 
L 289.629612 175.839411 
L 297.106087 174.424653 
L 304.582562 173.028562 
L 312.059037 171.650124 
L 319.535512 170.289745 
L 327.011987 168.948966 
L 334.488462 167.629625 
L 341.964937 166.33319 
L 349.441412 165.059906 
L 356.917887 163.808256 
L 364.394362 162.57509 
L 371.870837 161.355939 
L 379.347312 160.146215 
L 386.823787 158.942524 
L 394.300262 157.744112 
L 401.776737 156.553917 
L 409.253212 155.378094 
L 416.729686 154.225081 
L 424.206161 153.103442 
L 431.682636 152.019778 
L 431.682636 151.49629 
L 431.682636 151.49629 
L 424.206161 152.584308 
L 416.729686 153.709937 
L 409.253212 154.866696 
L 401.776737 156.046172 
L 394.300262 157.240071 
L 386.823787 158.442339 
L 379.347312 159.650063 
L 371.870837 160.863973 
L 364.394362 162.087411 
L 356.917887 163.324912 
L 349.441412 164.580908 
L 341.964937 165.858556 
L 334.488462 167.159393 
L 327.011987 168.483202 
L 319.535512 169.828535 
L 312.059037 171.193559 
L 304.582562 172.576726 
L 297.106087 173.977615 
L 289.629612 175.397228 
L 282.153137 176.838239 
L 274.676662 178.304832 
L 267.200187 179.801815 
L 259.723712 181.333579 
L 252.247237 182.90271 
L 244.770763 184.509347 
L 237.294288 186.151457 
L 229.817813 187.825965 
L 222.341338 189.530851 
L 214.864863 191.267144 
L 207.388388 193.040546 
L 199.911913 194.861463 
L 192.435438 196.743114 
L 184.958963 198.698442 
L 177.482488 200.736639 
L 170.006013 202.860685 
L 162.529538 205.067628 
L 155.053063 207.351052 
L 147.576588 209.705459 
L 140.100113 212.13263 
L 132.623638 214.649205 
L 125.147163 217.293722 
L 117.670688 220.132298 
L 110.194213 223.262121 
L 102.717738 226.811432 
L 95.241263 230.935972 
L 87.764788 235.811003 
L 80.288314 241.62189 
L 72.811839 248.554886 
L 65.335364 256.786784 
z
" clip-path="url(#p32c42d7ccd)" style="fill: #ff7f0e; fill-opacity: 0.45"/>
   </g>
   <g id="FillBetweenPolyCollection_3">
    <path d="M 65.335364 278.776388 
L 65.335364 278.863559 
L 72.811839 275.575125 
L 80.288314 272.850893 
L 87.764788 270.594421 
L 95.241263 268.712118 
L 102.717738 267.117907 
L 110.194213 265.736598 
L 117.670688 264.506602 
L 125.147163 263.381425 
L 132.623638 262.328729 
L 140.100113 261.327901 
L 147.576588 260.367101 
L 155.053063 259.44042 
L 162.529538 258.545486 
L 170.006013 257.681637 
L 177.482488 256.848629 
L 184.958963 256.04592 
L 192.435438 255.272053 
L 199.911913 254.524323 
L 207.388388 253.799134 
L 214.864863 253.092785 
L 222.341338 252.402266 
L 229.817813 251.725689 
L 237.294288 251.062258 
L 244.770763 250.411971 
L 252.247237 249.775207 
L 259.723712 249.152343 
L 267.200187 248.543362 
L 274.676662 247.947607 
L 282.153137 247.363825 
L 289.629612 246.790444 
L 297.106087 246.225942 
L 304.582562 245.669098 
L 312.059037 245.119156 
L 319.535512 244.575961 
L 327.011987 244.040038 
L 334.488462 243.51249 
L 341.964937 242.994516 
L 349.441412 242.48678 
L 356.917887 241.988876 
L 364.394362 241.499138 
L 371.870837 241.014916 
L 379.347312 240.533193 
L 386.823787 240.051574 
L 394.300262 239.569441 
L 401.776737 239.08881 
L 409.253212 238.614476 
L 416.729686 238.153344 
L 424.206161 237.713133 
L 431.682636 237.300918 
L 431.682636 237.003338 
L 431.682636 237.003338 
L 424.206161 237.418319 
L 416.729686 237.86093 
L 409.253212 238.324206 
L 401.776737 238.800568 
L 394.300262 239.283247 
L 386.823787 239.767547 
L 379.347312 240.251463 
L 371.870837 240.735581 
L 364.394362 241.222255 
L 356.917887 241.714475 
L 349.441412 242.214868 
L 341.964937 242.725091 
L 334.488462 243.245555 
L 327.011987 243.775614 
L 319.535512 244.314094 
L 312.059037 244.859908 
L 304.582562 245.41252 
L 297.106087 245.972073 
L 289.629612 246.539317 
L 282.153137 247.115481 
L 274.676662 247.702095 
L 267.200187 248.300738 
L 259.723712 248.912671 
L 252.247237 249.538566 
L 244.770763 250.17845 
L 237.294288 250.831942 
L 229.817813 251.498638 
L 222.341338 252.17852 
L 214.864863 252.872376 
L 207.388388 253.582119 
L 199.911913 254.310793 
L 192.435438 255.062145 
L 184.958963 255.839817 
L 177.482488 256.646548 
L 170.006013 257.48381 
L 162.529538 258.352101 
L 155.053063 259.251602 
L 147.576588 260.182909 
L 140.100113 261.148371 
L 132.623638 262.153956 
L 125.147163 263.211654 
L 117.670688 264.342326 
L 110.194213 265.578633 
L 102.717738 266.967439 
L 95.241263 268.570678 
L 87.764788 270.463778 
L 80.288314 272.73291 
L 72.811839 275.471661 
L 65.335364 278.776388 
z
" clip-path="url(#p32c42d7ccd)" style="fill: #2ca02c; fill-opacity: 0.45"/>
   </g>
   <g id="FillBetweenPolyCollection_4">
    <path d="M 65.335364 288.943103 
L 65.335364 288.954545 
L 72.811839 287.38922 
L 80.288314 286.185471 
L 87.764788 285.289918 
L 95.241263 284.651569 
L 102.717738 284.22232 
L 110.194213 283.958092 
L 117.670688 283.819674 
L 125.147163 283.773252 
L 132.623638 283.790603 
L 140.100113 283.84895 
L 147.576588 283.930571 
L 155.053063 284.022215 
L 162.529538 284.114398 
L 170.006013 284.200683 
L 177.482488 284.276984 
L 184.958963 284.340943 
L 192.435438 284.391426 
L 199.911913 284.428127 
L 207.388388 284.451284 
L 214.864863 284.461488 
L 222.341338 284.459556 
L 229.817813 284.446446 
L 237.294288 284.4232 
L 244.770763 284.390894 
L 252.247237 284.350591 
L 259.723712 284.303309 
L 267.200187 284.249984 
L 274.676662 284.191463 
L 282.153137 284.128494 
L 289.629612 284.061739 
L 297.106087 283.991792 
L 304.582562 283.919198 
L 312.059037 283.844467 
L 319.535512 283.76809 
L 327.011987 283.690533 
L 334.488462 283.61224 
L 341.964937 283.533624 
L 349.441412 283.455076 
L 356.917887 283.376979 
L 364.394362 283.299743 
L 371.870837 283.223853 
L 379.347312 283.149925 
L 386.823787 283.078746 
L 394.300262 283.011289 
L 401.776737 282.948687 
L 409.253212 282.892143 
L 416.729686 282.8428 
L 424.206161 282.801556 
L 431.682636 282.768875 
L 431.682636 282.637771 
L 431.682636 282.637771 
L 424.206161 282.674114 
L 416.729686 282.718726 
L 409.253212 282.771163 
L 401.776737 282.830552 
L 394.300262 282.895776 
L 386.823787 282.965657 
L 379.347312 283.039088 
L 371.870837 283.115117 
L 364.394362 283.192976 
L 356.917887 283.272067 
L 349.441412 283.351918 
L 341.964937 283.43213 
L 334.488462 283.512332 
L 327.011987 283.592142 
L 319.535512 283.671154 
L 312.059037 283.748933 
L 304.582562 283.825016 
L 297.106087 283.898922 
L 289.629612 283.970143 
L 282.153137 284.03814 
L 274.676662 284.102326 
L 267.200187 284.162042 
L 259.723712 284.216543 
L 252.247237 284.264989 
L 244.770763 284.306446 
L 237.294288 284.339903 
L 229.817813 284.364302 
L 222.341338 284.378572 
L 214.864863 284.381681 
L 207.388388 284.372679 
L 199.911913 284.35076 
L 192.435438 284.315347 
L 184.958963 284.266218 
L 177.482488 284.203695 
L 170.006013 284.128936 
L 162.529538 284.044324 
L 155.053063 283.953982 
L 147.576588 283.864389 
L 140.100113 283.78508 
L 132.623638 283.729371 
L 125.147163 283.715059 
L 117.670688 283.765004 
L 110.194213 283.907519 
L 102.717738 284.176505 
L 95.241263 284.611257 
L 87.764788 285.255939 
L 80.288314 286.158707 
L 72.811839 287.370415 
L 65.335364 288.943103 
z
" clip-path="url(#p32c42d7ccd)" style="fill: #d62728; fill-opacity: 0.45"/>
   </g>
   <g id="matplotlib.axis_1">
    <g id="xtick_1">
     <g id="line2d_1">
      <defs>
       <path id="mca5a1605aa" d="M 0 0 
L 0 3.5 
" style="stroke: #000000; stroke-width: 0.8"/>
      </defs>
      <g>
       <use xlink:href="#mca5a1605aa" x="61.634886" y="302.2" style="stroke: #000000; stroke-width: 0.8"/>
      </g>
     </g>
     <g id="text_1">
      <!-- 0 -->
      <g transform="translate(58.453636 316.798437) scale(0.1 -0.1)">
       <defs>
        <path id="DejaVuSans-30" d="M 2034 4250 
Q 1547 4250 1301 3770 
Q 1056 3291 1056 2328 
Q 1056 1369 1301 889 
Q 1547 409 2034 409 
Q 2525 409 2770 889 
Q 3016 1369 3016 2328 
Q 3016 3291 2770 3770 
Q 2525 4250 2034 4250 
z
M 2034 4750 
Q 2819 4750 3233 4129 
Q 3647 3509 3647 2328 
Q 3647 1150 3233 529 
Q 2819 -91 2034 -91 
Q 1250 -91 836 529 
Q 422 1150 422 2328 
Q 422 3509 836 4129 
Q 1250 4750 2034 4750 
z
" transform="scale(0.015625)"/>
       </defs>
       <use xlink:href="#DejaVuSans-30"/>
      </g>
     </g>
    </g>
    <g id="xtick_2">
     <g id="line2d_2">
      <g>
       <use xlink:href="#mca5a1605aa" x="135.644436" y="302.2" style="stroke: #000000; stroke-width: 0.8"/>
      </g>
     </g>
     <g id="text_2">
      <!-- 1 -->
      <g transform="translate(132.463186 316.798437) scale(0.1 -0.1)">
       <defs>
        <path id="DejaVuSans-31" d="M 794 531 
L 1825 531 
L 1825 4091 
L 703 3866 
L 703 4441 
L 1819 4666 
L 2450 4666 
L 2450 531 
L 3481 531 
L 3481 0 
L 794 0 
L 794 531 
z
" transform="scale(0.015625)"/>
       </defs>
       <use xlink:href="#DejaVuSans-31"/>
      </g>
     </g>
    </g>
    <g id="xtick_3">
     <g id="line2d_3">
      <g>
       <use xlink:href="#mca5a1605aa" x="209.653986" y="302.2" style="stroke: #000000; stroke-width: 0.8"/>
      </g>
     </g>
     <g id="text_3">
      <!-- 2 -->
      <g transform="translate(206.472736 316.798437) scale(0.1 -0.1)">
       <defs>
        <path id="DejaVuSans-32" d="M 1228 531 
L 3431 531 
L 3431 0 
L 469 0 
L 469 531 
Q 828 903 1448 1529 
Q 2069 2156 2228 2338 
Q 2531 2678 2651 2914 
Q 2772 3150 2772 3378 
Q 2772 3750 2511 3984 
Q 2250 4219 1831 4219 
Q 1534 4219 1204 4116 
Q 875 4013 500 3803 
L 500 4441 
Q 881 4594 1212 4672 
Q 1544 4750 1819 4750 
Q 2544 4750 2975 4387 
Q 3406 4025 3406 3419 
Q 3406 3131 3298 2873 
Q 3191 2616 2906 2266 
Q 2828 2175 2409 1742 
Q 1991 1309 1228 531 
z
" transform="scale(0.015625)"/>
       </defs>
       <use xlink:href="#DejaVuSans-32"/>
      </g>
     </g>
    </g>
    <g id="xtick_4">
     <g id="line2d_4">
      <g>
       <use xlink:href="#mca5a1605aa" x="283.663536" y="302.2" style="stroke: #000000; stroke-width: 0.8"/>
      </g>
     </g>
     <g id="text_4">
      <!-- 3 -->
      <g transform="translate(280.482286 316.798437) scale(0.1 -0.1)">
       <defs>
        <path id="DejaVuSans-33" d="M 2597 2516 
Q 3050 2419 3304 2112 
Q 3559 1806 3559 1356 
Q 3559 666 3084 287 
Q 2609 -91 1734 -91 
Q 1441 -91 1130 -33 
Q 819 25 488 141 
L 488 750 
Q 750 597 1062 519 
Q 1375 441 1716 441 
Q 2309 441 2620 675 
Q 2931 909 2931 1356 
Q 2931 1769 2642 2001 
Q 2353 2234 1838 2234 
L 1294 2234 
L 1294 2753 
L 1863 2753 
Q 2328 2753 2575 2939 
Q 2822 3125 2822 3475 
Q 2822 3834 2567 4026 
Q 2313 4219 1838 4219 
Q 1578 4219 1281 4162 
Q 984 4106 628 3988 
L 628 4550 
Q 988 4650 1302 4700 
Q 1616 4750 1894 4750 
Q 2613 4750 3031 4423 
Q 3450 4097 3450 3541 
Q 3450 3153 3228 2886 
Q 3006 2619 2597 2516 
z
" transform="scale(0.015625)"/>
       </defs>
       <use xlink:href="#DejaVuSans-33"/>
      </g>
     </g>
    </g>
    <g id="xtick_5">
     <g id="line2d_5">
      <g>
       <use xlink:href="#mca5a1605aa" x="357.673086" y="302.2" style="stroke: #000000; stroke-width: 0.8"/>
      </g>
     </g>
     <g id="text_5">
      <!-- 4 -->
      <g transform="translate(354.491836 316.798437) scale(0.1 -0.1)">
       <defs>
        <path id="DejaVuSans-34" d="M 2419 4116 
L 825 1625 
L 2419 1625 
L 2419 4116 
z
M 2253 4666 
L 3047 4666 
L 3047 1625 
L 3713 1625 
L 3713 1100 
L 3047 1100 
L 3047 0 
L 2419 0 
L 2419 1100 
L 313 1100 
L 313 1709 
L 2253 4666 
z
" transform="scale(0.015625)"/>
       </defs>
       <use xlink:href="#DejaVuSans-34"/>
      </g>
     </g>
    </g>
    <g id="xtick_6">
     <g id="line2d_6">
      <g>
       <use xlink:href="#mca5a1605aa" x="431.682636" y="302.2" style="stroke: #000000; stroke-width: 0.8"/>
      </g>
     </g>
     <g id="text_6">
      <!-- 5 -->
      <g transform="translate(428.501386 316.798437) scale(0.1 -0.1)">
       <defs>
        <path id="DejaVuSans-35" d="M 691 4666 
L 3169 4666 
L 3169 4134 
L 1269 4134 
L 1269 2991 
Q 1406 3038 1543 3061 
Q 1681 3084 1819 3084 
Q 2600 3084 3056 2656 
Q 3513 2228 3513 1497 
Q 3513 744 3044 326 
Q 2575 -91 1722 -91 
Q 1428 -91 1123 -41 
Q 819 9 494 109 
L 494 744 
Q 775 591 1075 516 
Q 1375 441 1709 441 
Q 2250 441 2565 725 
Q 2881 1009 2881 1497 
Q 2881 1984 2565 2268 
Q 2250 2553 1709 2553 
Q 1456 2553 1204 2497 
Q 953 2441 691 2322 
L 691 4666 
z
" transform="scale(0.015625)"/>
       </defs>
       <use xlink:href="#DejaVuSans-35"/>
      </g>
     </g>
    </g>
    <g id="text_7">
     <!-- $W$ (m/hour) -->
     <g transform="translate(220.059 330.476562) scale(0.1 -0.1)">
      <defs>
       <path id="DejaVuSans-Oblique-57" d="M 616 4666 
L 1228 4666 
L 1453 697 
L 3213 4666 
L 3916 4666 
L 4147 697 
L 5888 4666 
L 6528 4666 
L 4453 0 
L 3659 0 
L 3444 3891 
L 1697 0 
L 903 0 
L 616 4666 
z
" transform="scale(0.015625)"/>
       <path id="DejaVuSans-20" transform="scale(0.015625)"/>
       <path id="DejaVuSans-28" d="M 1984 4856 
Q 1566 4138 1362 3434 
Q 1159 2731 1159 2009 
Q 1159 1288 1364 580 
Q 1569 -128 1984 -844 
L 1484 -844 
Q 1016 -109 783 600 
Q 550 1309 550 2009 
Q 550 2706 781 3412 
Q 1013 4119 1484 4856 
L 1984 4856 
z
" transform="scale(0.015625)"/>
       <path id="DejaVuSans-6d" d="M 3328 2828 
Q 3544 3216 3844 3400 
Q 4144 3584 4550 3584 
Q 5097 3584 5394 3201 
Q 5691 2819 5691 2113 
L 5691 0 
L 5113 0 
L 5113 2094 
Q 5113 2597 4934 2840 
Q 4756 3084 4391 3084 
Q 3944 3084 3684 2787 
Q 3425 2491 3425 1978 
L 3425 0 
L 2847 0 
L 2847 2094 
Q 2847 2600 2669 2842 
Q 2491 3084 2119 3084 
Q 1678 3084 1418 2786 
Q 1159 2488 1159 1978 
L 1159 0 
L 581 0 
L 581 3500 
L 1159 3500 
L 1159 2956 
Q 1356 3278 1631 3431 
Q 1906 3584 2284 3584 
Q 2666 3584 2933 3390 
Q 3200 3197 3328 2828 
z
" transform="scale(0.015625)"/>
       <path id="DejaVuSans-2f" d="M 1625 4666 
L 2156 4666 
L 531 -594 
L 0 -594 
L 1625 4666 
z
" transform="scale(0.015625)"/>
       <path id="DejaVuSans-68" d="M 3513 2113 
L 3513 0 
L 2938 0 
L 2938 2094 
Q 2938 2591 2744 2837 
Q 2550 3084 2163 3084 
Q 1697 3084 1428 2787 
Q 1159 2491 1159 1978 
L 1159 0 
L 581 0 
L 581 4863 
L 1159 4863 
L 1159 2956 
Q 1366 3272 1645 3428 
Q 1925 3584 2291 3584 
Q 2894 3584 3203 3211 
Q 3513 2838 3513 2113 
z
" transform="scale(0.015625)"/>
       <path id="DejaVuSans-6f" d="M 1959 3097 
Q 1497 3097 1228 2736 
Q 959 2375 959 1747 
Q 959 1119 1226 758 
Q 1494 397 1959 397 
Q 2419 397 2687 759 
Q 2956 1122 2956 1747 
Q 2956 2369 2687 2733 
Q 2419 3097 1959 3097 
z
M 1959 3584 
Q 2709 3584 3137 3096 
Q 3566 2609 3566 1747 
Q 3566 888 3137 398 
Q 2709 -91 1959 -91 
Q 1206 -91 779 398 
Q 353 888 353 1747 
Q 353 2609 779 3096 
Q 1206 3584 1959 3584 
z
" transform="scale(0.015625)"/>
       <path id="DejaVuSans-75" d="M 544 1381 
L 544 3500 
L 1119 3500 
L 1119 1403 
Q 1119 906 1312 657 
Q 1506 409 1894 409 
Q 2359 409 2629 706 
Q 2900 1003 2900 1516 
L 2900 3500 
L 3475 3500 
L 3475 0 
L 2900 0 
L 2900 538 
Q 2691 219 2414 64 
Q 2138 -91 1772 -91 
Q 1169 -91 856 284 
Q 544 659 544 1381 
z
M 1991 3584 
L 1991 3584 
z
" transform="scale(0.015625)"/>
       <path id="DejaVuSans-72" d="M 2631 2963 
Q 2534 3019 2420 3045 
Q 2306 3072 2169 3072 
Q 1681 3072 1420 2755 
Q 1159 2438 1159 1844 
L 1159 0 
L 581 0 
L 581 3500 
L 1159 3500 
L 1159 2956 
Q 1341 3275 1631 3429 
Q 1922 3584 2338 3584 
Q 2397 3584 2469 3576 
Q 2541 3569 2628 3553 
L 2631 2963 
z
" transform="scale(0.015625)"/>
       <path id="DejaVuSans-29" d="M 513 4856 
L 1013 4856 
Q 1481 4119 1714 3412 
Q 1947 2706 1947 2009 
Q 1947 1309 1714 600 
Q 1481 -109 1013 -844 
L 513 -844 
Q 928 -128 1133 580 
Q 1338 1288 1338 2009 
Q 1338 2731 1133 3434 
Q 928 4138 513 4856 
z
" transform="scale(0.015625)"/>
      </defs>
      <use xlink:href="#DejaVuSans-Oblique-57" transform="translate(0 0.015625)"/>
      <use xlink:href="#DejaVuSans-20" transform="translate(98.876953 0.015625)"/>
      <use xlink:href="#DejaVuSans-28" transform="translate(130.664062 0.015625)"/>
      <use xlink:href="#DejaVuSans-6d" transform="translate(169.677734 0.015625)"/>
      <use xlink:href="#DejaVuSans-2f" transform="translate(267.089844 0.015625)"/>
      <use xlink:href="#DejaVuSans-68" transform="translate(300.78125 0.015625)"/>
      <use xlink:href="#DejaVuSans-6f" transform="translate(364.160156 0.015625)"/>
      <use xlink:href="#DejaVuSans-75" transform="translate(425.341797 0.015625)"/>
      <use xlink:href="#DejaVuSans-72" transform="translate(488.720703 0.015625)"/>
      <use xlink:href="#DejaVuSans-29" transform="translate(529.833984 0.015625)"/>
     </g>
    </g>
   </g>
   <g id="matplotlib.axis_2">
    <g id="ytick_1">
     <g id="line2d_7">
      <defs>
       <path id="m790a53c1b9" d="M 0 0 
L -3.5 0 
" style="stroke: #000000; stroke-width: 0.8"/>
      </defs>
      <g>
       <use xlink:href="#m790a53c1b9" x="47.018" y="291.377503" style="stroke: #000000; stroke-width: 0.8"/>
      </g>
     </g>
     <g id="text_8">
      <!-- 0 -->
      <g transform="translate(33.6555 295.176721) scale(0.1 -0.1)">
       <use xlink:href="#DejaVuSans-30"/>
      </g>
     </g>
    </g>
    <g id="ytick_2">
     <g id="line2d_8">
      <g>
       <use xlink:href="#m790a53c1b9" x="47.018" y="253.792857" style="stroke: #000000; stroke-width: 0.8"/>
      </g>
     </g>
     <g id="text_9">
      <!-- 5 -->
      <g transform="translate(33.6555 257.592076) scale(0.1 -0.1)">
       <use xlink:href="#DejaVuSans-35"/>
      </g>
     </g>
    </g>
    <g id="ytick_3">
     <g id="line2d_9">
      <g>
       <use xlink:href="#m790a53c1b9" x="47.018" y="216.208212" style="stroke: #000000; stroke-width: 0.8"/>
      </g>
     </g>
     <g id="text_10">
      <!-- 10 -->
      <g transform="translate(27.293 220.007431) scale(0.1 -0.1)">
       <use xlink:href="#DejaVuSans-31"/>
       <use xlink:href="#DejaVuSans-30" transform="translate(63.623047 0)"/>
      </g>
     </g>
    </g>
    <g id="ytick_4">
     <g id="line2d_10">
      <g>
       <use xlink:href="#m790a53c1b9" x="47.018" y="178.623567" style="stroke: #000000; stroke-width: 0.8"/>
      </g>
     </g>
     <g id="text_11">
      <!-- 15 -->
      <g transform="translate(27.293 182.422786) scale(0.1 -0.1)">
       <use xlink:href="#DejaVuSans-31"/>
       <use xlink:href="#DejaVuSans-35" transform="translate(63.623047 0)"/>
      </g>
     </g>
    </g>
    <g id="ytick_5">
     <g id="line2d_11">
      <g>
       <use xlink:href="#m790a53c1b9" x="47.018" y="141.038922" style="stroke: #000000; stroke-width: 0.8"/>
      </g>
     </g>
     <g id="text_12">
      <!-- 20 -->
      <g transform="translate(27.293 144.83814) scale(0.1 -0.1)">
       <use xlink:href="#DejaVuSans-32"/>
       <use xlink:href="#DejaVuSans-30" transform="translate(63.623047 0)"/>
      </g>
     </g>
    </g>
    <g id="ytick_6">
     <g id="line2d_12">
      <g>
       <use xlink:href="#m790a53c1b9" x="47.018" y="103.454276" style="stroke: #000000; stroke-width: 0.8"/>
      </g>
     </g>
     <g id="text_13">
      <!-- 25 -->
      <g transform="translate(27.293 107.253495) scale(0.1 -0.1)">
       <use xlink:href="#DejaVuSans-32"/>
       <use xlink:href="#DejaVuSans-35" transform="translate(63.623047 0)"/>
      </g>
     </g>
    </g>
    <g id="ytick_7">
     <g id="line2d_13">
      <g>
       <use xlink:href="#m790a53c1b9" x="47.018" y="65.869631" style="stroke: #000000; stroke-width: 0.8"/>
      </g>
     </g>
     <g id="text_14">
      <!-- 30 -->
      <g transform="translate(27.293 69.66885) scale(0.1 -0.1)">
       <use xlink:href="#DejaVuSans-33"/>
       <use xlink:href="#DejaVuSans-30" transform="translate(63.623047 0)"/>
      </g>
     </g>
    </g>
    <g id="ytick_8">
     <g id="line2d_14">
      <g>
       <use xlink:href="#m790a53c1b9" x="47.018" y="28.284986" style="stroke: #000000; stroke-width: 0.8"/>
      </g>
     </g>
     <g id="text_15">
      <!-- 35 -->
      <g transform="translate(27.293 32.084205) scale(0.1 -0.1)">
       <use xlink:href="#DejaVuSans-33"/>
       <use xlink:href="#DejaVuSans-35" transform="translate(63.623047 0)"/>
      </g>
     </g>
    </g>
    <g id="text_16">
     <!-- $Q_{lc}$ (kW) -->
     <g transform="translate(21.213312 176.8) rotate(-90) scale(0.1 -0.1)">
      <defs>
       <path id="DejaVuSans-Oblique-51" d="M 2309 -84 
Q 2275 -88 2237 -89 
Q 2200 -91 2125 -91 
Q 1250 -91 756 411 
Q 263 913 263 1797 
Q 263 2319 452 2844 
Q 641 3369 978 3788 
Q 1369 4269 1858 4509 
Q 2347 4750 2938 4750 
Q 3794 4750 4287 4245 
Q 4781 3741 4781 2869 
Q 4781 1928 4265 1147 
Q 3750 366 2919 44 
L 3553 -825 
L 2847 -825 
L 2309 -84 
z
M 2919 4238 
Q 2400 4238 2003 3986 
Q 1606 3734 1313 3219 
Q 1125 2891 1026 2522 
Q 928 2153 928 1778 
Q 928 1128 1239 775 
Q 1550 422 2119 422 
Q 2631 422 3032 676 
Q 3434 931 3719 1434 
Q 3909 1772 4009 2142 
Q 4109 2513 4109 2881 
Q 4109 3528 3796 3883 
Q 3484 4238 2919 4238 
z
" transform="scale(0.015625)"/>
       <path id="DejaVuSans-Oblique-6c" d="M 1172 4863 
L 1747 4863 
L 800 0 
L 225 0 
L 1172 4863 
z
" transform="scale(0.015625)"/>
       <path id="DejaVuSans-Oblique-63" d="M 3431 3366 
L 3316 2797 
Q 3109 2947 2876 3022 
Q 2644 3097 2394 3097 
Q 2119 3097 1870 3000 
Q 1622 2903 1453 2725 
Q 1184 2453 1037 2087 
Q 891 1722 891 1331 
Q 891 859 1127 628 
Q 1363 397 1844 397 
Q 2081 397 2348 469 
Q 2616 541 2906 684 
L 2797 116 
Q 2547 13 2283 -39 
Q 2019 -91 1741 -91 
Q 1044 -91 669 257 
Q 294 606 294 1253 
Q 294 1797 489 2255 
Q 684 2713 1069 3078 
Q 1331 3328 1684 3456 
Q 2038 3584 2456 3584 
Q 2700 3584 2940 3529 
Q 3181 3475 3431 3366 
z
" transform="scale(0.015625)"/>
       <path id="DejaVuSans-6b" d="M 581 4863 
L 1159 4863 
L 1159 1991 
L 2875 3500 
L 3609 3500 
L 1753 1863 
L 3688 0 
L 2938 0 
L 1159 1709 
L 1159 0 
L 581 0 
L 581 4863 
z
" transform="scale(0.015625)"/>
       <path id="DejaVuSans-57" d="M 213 4666 
L 850 4666 
L 1831 722 
L 2809 4666 
L 3519 4666 
L 4500 722 
L 5478 4666 
L 6119 4666 
L 4947 0 
L 4153 0 
L 3169 4050 
L 2175 0 
L 1381 0 
L 213 4666 
z
" transform="scale(0.015625)"/>
      </defs>
      <use xlink:href="#DejaVuSans-Oblique-51" transform="translate(0 0.015625)"/>
      <use xlink:href="#DejaVuSans-Oblique-6c" transform="translate(78.710938 -16.390625) scale(0.7)"/>
      <use xlink:href="#DejaVuSans-Oblique-63" transform="translate(98.15918 -16.390625) scale(0.7)"/>
      <use xlink:href="#DejaVuSans-20" transform="translate(139.379883 0.015625)"/>
      <use xlink:href="#DejaVuSans-28" transform="translate(171.166992 0.015625)"/>
      <use xlink:href="#DejaVuSans-6b" transform="translate(210.180664 0.015625)"/>
      <use xlink:href="#DejaVuSans-57" transform="translate(268.09082 0.015625)"/>
      <use xlink:href="#DejaVuSans-29" transform="translate(366.967773 0.015625)"/>
     </g>
    </g>
   </g>
   <g id="line2d_15">
    <path d="M 65.335364 217.963267 
L 72.811839 202.567118 
L 80.288314 189.528425 
L 87.764788 178.586105 
L 95.241263 169.431097 
L 102.717738 161.730636 
L 110.194213 155.154974 
L 117.670688 149.40045 
L 125.147163 144.21275 
L 132.623638 139.394727 
L 140.100113 134.809479 
L 147.576588 130.375858 
L 155.053063 126.060533 
L 162.529538 121.862471 
L 170.006013 117.798851 
L 177.482488 113.890289 
L 184.958963 110.149263 
L 192.435438 106.57366 
L 199.911913 103.145215 
L 207.388388 99.834295 
L 214.864863 96.610788 
L 222.341338 93.450601 
L 229.817813 90.341567 
L 237.294288 87.283546 
L 244.770763 84.282851 
L 252.247237 81.348489 
L 259.723712 78.486568 
L 267.200187 75.69711 
L 274.676662 72.974274 
L 282.153137 70.308017 
L 289.629612 67.688296 
L 297.106087 65.106371 
L 304.582562 62.557209 
L 312.059037 60.040266 
L 319.535512 57.557372 
L 327.011987 55.112585 
L 334.488462 52.707385 
L 341.964937 50.343201 
L 349.441412 48.020585 
L 356.917887 45.736913 
L 364.394362 43.487536 
L 371.870837 41.264517 
L 379.347312 39.059438 
L 386.823787 36.866127 
L 394.300262 34.683871 
L 401.776737 32.519409 
L 409.253212 30.384598 
L 416.729686 28.29416 
L 424.206161 26.258527 
L 431.682636 24.277309 
" clip-path="url(#p32c42d7ccd)" style="fill: none; stroke: #1f77b4; stroke-width: 1.5; stroke-linecap: square"/>
   </g>
   <g id="line2d_16">
    <path d="M 65.335364 256.859073 
L 72.811839 248.64042 
L 80.288314 241.719015 
L 87.764788 235.918 
L 95.241263 231.051012 
L 102.717738 226.933162 
L 110.194213 223.389441 
L 117.670688 220.264377 
L 125.147163 217.430031 
L 132.623638 214.789435 
L 140.100113 212.2766 
L 147.576588 209.853106 
L 155.053063 207.502351 
L 162.529538 205.222535 
L 170.006013 203.019106 
L 177.482488 200.898433 
L 184.958963 198.863435 
L 192.435438 196.911175 
L 199.911913 195.032503 
L 207.388388 193.21444 
L 214.864863 191.44382 
L 222.341338 189.710281 
L 229.817813 188.008137 
L 237.294288 186.336324 
L 244.770763 184.696832 
L 252.247237 183.092748 
L 259.723712 181.526094 
L 267.200187 179.996728 
L 274.676662 178.502077 
L 282.153137 177.037764 
L 289.629612 175.599002 
L 297.106087 174.181612 
L 304.582562 172.782918 
L 312.059037 171.401914 
L 319.535512 170.039014 
L 327.011987 168.695764 
L 334.488462 167.373997 
L 341.964937 166.075174 
L 349.441412 164.799523 
L 356.917887 163.545517 
L 364.394362 162.310002 
L 371.870837 161.088528 
L 379.347312 159.876535 
L 386.823787 158.670656 
L 394.300262 157.470147 
L 401.776737 156.277937 
L 409.253212 155.100126 
L 416.729686 153.945079 
L 424.206161 152.821325 
L 431.682636 151.735396 
" clip-path="url(#p32c42d7ccd)" style="fill: none; stroke: #ff7f0e; stroke-width: 1.5; stroke-linecap: square"/>
   </g>
   <g id="line2d_17">
    <path d="M 65.335364 278.818683 
L 72.811839 275.521834 
L 80.288314 272.790138 
L 87.764788 270.52718 
L 95.241263 268.639357 
L 102.717738 267.040532 
L 110.194213 265.655386 
L 117.670688 264.42215 
L 125.147163 263.294144 
L 132.623638 262.238869 
L 140.100113 261.235588 
L 147.576588 260.27239 
L 155.053063 259.343334 
L 162.529538 258.446061 
L 170.006013 257.579937 
L 177.482488 256.744748 
L 184.958963 255.939972 
L 192.435438 255.164149 
L 199.911913 254.414557 
L 207.388388 253.687576 
L 214.864863 252.979482 
L 222.341338 252.287247 
L 229.817813 251.608971 
L 237.294288 250.943862 
L 244.770763 250.291928 
L 252.247237 249.65356 
L 259.723712 249.029137 
L 267.200187 248.418639 
L 274.676662 247.8214 
L 282.153137 247.236162 
L 289.629612 246.661351 
L 297.106087 246.095439 
L 304.582562 245.537203 
L 312.059037 244.985889 
L 319.535512 244.441347 
L 327.011987 243.904109 
L 334.488462 243.375269 
L 341.964937 242.856015 
L 349.441412 242.347001 
L 356.917887 241.847819 
L 364.394362 241.356807 
L 371.870837 240.871326 
L 379.347312 240.388373 
L 386.823787 239.905573 
L 394.300262 239.422324 
L 401.776737 238.940637 
L 409.253212 238.465256 
L 416.729686 238.003021 
L 424.206161 237.561578 
L 431.682636 237.147947 
" clip-path="url(#p32c42d7ccd)" style="fill: none; stroke: #2ca02c; stroke-width: 1.5; stroke-linecap: square"/>
   </g>
   <g id="line2d_18">
    <path d="M 65.335364 288.948437 
L 72.811839 287.379603 
L 80.288314 286.171698 
L 87.764788 285.272511 
L 95.241263 284.631031 
L 102.717738 284.199009 
L 110.194213 283.932375 
L 117.670688 283.791883 
L 125.147163 283.743655 
L 132.623638 283.759447 
L 140.100113 283.816436 
L 147.576588 283.896862 
L 155.053063 283.987442 
L 162.529538 284.078667 
L 170.006013 284.164056 
L 177.482488 284.239534 
L 184.958963 284.302729 
L 192.435438 284.352492 
L 199.911913 284.388508 
L 207.388388 284.411007 
L 214.864863 284.420574 
L 222.341338 284.418018 
L 229.817813 284.404295 
L 237.294288 284.380442 
L 244.770763 284.347531 
L 252.247237 284.306622 
L 259.723712 284.25873 
L 267.200187 284.204791 
L 274.676662 284.145646 
L 282.153137 284.082044 
L 289.629612 284.014642 
L 297.106087 283.944033 
L 304.582562 283.870757 
L 312.059037 283.795325 
L 319.535512 283.71822 
L 327.011987 283.639909 
L 334.488462 283.560829 
L 341.964937 283.481392 
L 349.441412 283.401981 
L 356.917887 283.322976 
L 364.394362 283.244779 
L 371.870837 283.167869 
L 379.347312 283.092852 
L 386.823787 283.020506 
L 394.300262 282.951794 
L 401.776737 282.887834 
L 409.253212 282.829818 
L 416.729686 282.778874 
L 424.206161 282.73589 
L 431.682636 282.701318 
" clip-path="url(#p32c42d7ccd)" style="fill: none; stroke: #d62728; stroke-width: 1.5; stroke-linecap: square"/>
   </g>
   <g id="patch_3">
    <path d="M 47.018 302.2 
L 47.018 10.8 
" style="fill: none; stroke: #000000; stroke-width: 0.8; stroke-linejoin: miter; stroke-linecap: square"/>
   </g>
   <g id="patch_4">
    <path d="M 450 302.2 
L 450 10.8 
" style="fill: none; stroke: #000000; stroke-width: 0.8; stroke-linejoin: miter; stroke-linecap: square"/>
   </g>
   <g id="patch_5">
    <path d="M 47.018 302.2 
L 450 302.2 
" style="fill: none; stroke: #000000; stroke-width: 0.8; stroke-linejoin: miter; stroke-linecap: square"/>
   </g>
   <g id="patch_6">
    <path d="M 47.018 10.8 
L 450 10.8 
" style="fill: none; stroke: #000000; stroke-width: 0.8; stroke-linejoin: miter; stroke-linecap: square"/>
   </g>
   <g id="legend_1">
    <g id="patch_7">
     <path d="M 54.018 77.5125 
L 132.888313 77.5125 
Q 134.888313 77.5125 134.888313 75.5125 
L 134.888313 17.8 
Q 134.888313 15.8 132.888313 15.8 
L 54.018 15.8 
Q 52.018 15.8 52.018 17.8 
L 52.018 75.5125 
Q 52.018 77.5125 54.018 77.5125 
z
" style="fill: #ffffff; opacity: 0.8; stroke: #cccccc; stroke-linejoin: miter"/>
    </g>
    <g id="line2d_19">
     <path d="M 56.018 23.898438 
L 66.018 23.898438 
L 76.018 23.898438 
" style="fill: none; stroke: #1f77b4; stroke-width: 1.5; stroke-linecap: square"/>
    </g>
    <g id="text_17">
     <!-- Ts=100 K -->
     <g transform="translate(84.018 27.398438) scale(0.1 -0.1)">
      <defs>
       <path id="DejaVuSans-54" d="M -19 4666 
L 3928 4666 
L 3928 4134 
L 2272 4134 
L 2272 0 
L 1638 0 
L 1638 4134 
L -19 4134 
L -19 4666 
z
" transform="scale(0.015625)"/>
       <path id="DejaVuSans-73" d="M 2834 3397 
L 2834 2853 
Q 2591 2978 2328 3040 
Q 2066 3103 1784 3103 
Q 1356 3103 1142 2972 
Q 928 2841 928 2578 
Q 928 2378 1081 2264 
Q 1234 2150 1697 2047 
L 1894 2003 
Q 2506 1872 2764 1633 
Q 3022 1394 3022 966 
Q 3022 478 2636 193 
Q 2250 -91 1575 -91 
Q 1294 -91 989 -36 
Q 684 19 347 128 
L 347 722 
Q 666 556 975 473 
Q 1284 391 1588 391 
Q 1994 391 2212 530 
Q 2431 669 2431 922 
Q 2431 1156 2273 1281 
Q 2116 1406 1581 1522 
L 1381 1569 
Q 847 1681 609 1914 
Q 372 2147 372 2553 
Q 372 3047 722 3315 
Q 1072 3584 1716 3584 
Q 2034 3584 2315 3537 
Q 2597 3491 2834 3397 
z
" transform="scale(0.015625)"/>
       <path id="DejaVuSans-3d" d="M 678 2906 
L 4684 2906 
L 4684 2381 
L 678 2381 
L 678 2906 
z
M 678 1631 
L 4684 1631 
L 4684 1100 
L 678 1100 
L 678 1631 
z
" transform="scale(0.015625)"/>
       <path id="DejaVuSans-4b" d="M 628 4666 
L 1259 4666 
L 1259 2694 
L 3353 4666 
L 4166 4666 
L 1850 2491 
L 4331 0 
L 3500 0 
L 1259 2247 
L 1259 0 
L 628 0 
L 628 4666 
z
" transform="scale(0.015625)"/>
      </defs>
      <use xlink:href="#DejaVuSans-54"/>
      <use xlink:href="#DejaVuSans-73" transform="translate(44.583984 0)"/>
      <use xlink:href="#DejaVuSans-3d" transform="translate(96.683594 0)"/>
      <use xlink:href="#DejaVuSans-31" transform="translate(180.472656 0)"/>
      <use xlink:href="#DejaVuSans-30" transform="translate(244.095703 0)"/>
      <use xlink:href="#DejaVuSans-30" transform="translate(307.71875 0)"/>
      <use xlink:href="#DejaVuSans-20" transform="translate(371.341797 0)"/>
      <use xlink:href="#DejaVuSans-4b" transform="translate(403.128906 0)"/>
     </g>
    </g>
    <g id="line2d_20">
     <path d="M 56.018 38.576563 
L 66.018 38.576563 
L 76.018 38.576563 
" style="fill: none; stroke: #ff7f0e; stroke-width: 1.5; stroke-linecap: square"/>
    </g>
    <g id="text_18">
     <!-- Ts=160 K -->
     <g transform="translate(84.018 42.076563) scale(0.1 -0.1)">
      <defs>
       <path id="DejaVuSans-36" d="M 2113 2584 
Q 1688 2584 1439 2293 
Q 1191 2003 1191 1497 
Q 1191 994 1439 701 
Q 1688 409 2113 409 
Q 2538 409 2786 701 
Q 3034 994 3034 1497 
Q 3034 2003 2786 2293 
Q 2538 2584 2113 2584 
z
M 3366 4563 
L 3366 3988 
Q 3128 4100 2886 4159 
Q 2644 4219 2406 4219 
Q 1781 4219 1451 3797 
Q 1122 3375 1075 2522 
Q 1259 2794 1537 2939 
Q 1816 3084 2150 3084 
Q 2853 3084 3261 2657 
Q 3669 2231 3669 1497 
Q 3669 778 3244 343 
Q 2819 -91 2113 -91 
Q 1303 -91 875 529 
Q 447 1150 447 2328 
Q 447 3434 972 4092 
Q 1497 4750 2381 4750 
Q 2619 4750 2861 4703 
Q 3103 4656 3366 4563 
z
" transform="scale(0.015625)"/>
      </defs>
      <use xlink:href="#DejaVuSans-54"/>
      <use xlink:href="#DejaVuSans-73" transform="translate(44.583984 0)"/>
      <use xlink:href="#DejaVuSans-3d" transform="translate(96.683594 0)"/>
      <use xlink:href="#DejaVuSans-31" transform="translate(180.472656 0)"/>
      <use xlink:href="#DejaVuSans-36" transform="translate(244.095703 0)"/>
      <use xlink:href="#DejaVuSans-30" transform="translate(307.71875 0)"/>
      <use xlink:href="#DejaVuSans-20" transform="translate(371.341797 0)"/>
      <use xlink:href="#DejaVuSans-4b" transform="translate(403.128906 0)"/>
     </g>
    </g>
    <g id="line2d_21">
     <path d="M 56.018 53.254687 
L 66.018 53.254687 
L 76.018 53.254687 
" style="fill: none; stroke: #2ca02c; stroke-width: 1.5; stroke-linecap: square"/>
    </g>
    <g id="text_19">
     <!-- Ts=220 K -->
     <g transform="translate(84.018 56.754687) scale(0.1 -0.1)">
      <use xlink:href="#DejaVuSans-54"/>
      <use xlink:href="#DejaVuSans-73" transform="translate(44.583984 0)"/>
      <use xlink:href="#DejaVuSans-3d" transform="translate(96.683594 0)"/>
      <use xlink:href="#DejaVuSans-32" transform="translate(180.472656 0)"/>
      <use xlink:href="#DejaVuSans-32" transform="translate(244.095703 0)"/>
      <use xlink:href="#DejaVuSans-30" transform="translate(307.71875 0)"/>
      <use xlink:href="#DejaVuSans-20" transform="translate(371.341797 0)"/>
      <use xlink:href="#DejaVuSans-4b" transform="translate(403.128906 0)"/>
     </g>
    </g>
    <g id="line2d_22">
     <path d="M 56.018 67.932813 
L 66.018 67.932813 
L 76.018 67.932813 
" style="fill: none; stroke: #d62728; stroke-width: 1.5; stroke-linecap: square"/>
    </g>
    <g id="text_20">
     <!-- Ts=260 K -->
     <g transform="translate(84.018 71.432813) scale(0.1 -0.1)">
      <use xlink:href="#DejaVuSans-54"/>
      <use xlink:href="#DejaVuSans-73" transform="translate(44.583984 0)"/>
      <use xlink:href="#DejaVuSans-3d" transform="translate(96.683594 0)"/>
      <use xlink:href="#DejaVuSans-32" transform="translate(180.472656 0)"/>
      <use xlink:href="#DejaVuSans-36" transform="translate(244.095703 0)"/>
      <use xlink:href="#DejaVuSans-30" transform="translate(307.71875 0)"/>
      <use xlink:href="#DejaVuSans-20" transform="translate(371.341797 0)"/>
      <use xlink:href="#DejaVuSans-4b" transform="translate(403.128906 0)"/>
     </g>
    </g>
   </g>
  </g>
 </g>
 <defs>
  <clipPath id="p32c42d7ccd">
   <rect x="47.018" y="10.8" width="402.982" height="291.4"/>
  </clipPath>
 </defs>
</svg>
