<?xml version="1.0" encoding="utf-8" standalone="no"?>
<!DOCTYPE svg PUBLIC "-//W3C//DTD SVG 1.1//EN"
  "http://www.w3.org/Graphics/SVG/1.1/DTD/svg11.dtd">
<svg xmlns:xlink="http://www.w3.org/1999/xlink" width="460.8pt" height="345.6pt" viewBox="0 0 460.8 345.6" xmlns="http://www.w3.org/2000/svg" version="1.1">
 <metadata>
  <rdf:RDF xmlns:dc="http://purl.org/dc/elements/1.1/" xmlns:cc="http://creativecommons.org/ns#" xmlns:rdf="http://www.w3.org/1999/02/22-rdf-syntax-ns#">
   <cc:Work>
    <dc:type rdf:resource="http://purl.org/dc/dcmitype/StillImage"/>
    <dc:date>2026-02-11T13:28:03.614929</dc:date>
    <dc:format>image/svg+xml</dc:format>
    <dc:creator>
     <cc:Agent>
      <dc:title>Matplotlib v3.10.8, https://matplotlib.org/</dc:title>
     </cc:Agent>
    </dc:creator>
   </cc:Work>
  </rdf:RDF>
 </metadata>
 <defs>
  <style type="text/css">*{stroke-linejoin: round; stroke-linecap: butt}</style>
 </defs>
 <g id="figure_1">
  <g id="patch_1">
   <path d="M 0 345.6 
L 460.8 345.6 
L 460.8 0 
L 0 0 
L 0 345.6 
z
" style="fill: none"/>
  </g>
  <g id="axes_1">
   <g id="patch_2">
    <path d="M 56.468 302.2 
L 450 302.2 
L 450 10.8 
L 56.468 10.8 
L 56.468 302.2 
z
" style="fill: none"/>
   </g>
   <g id="FillBetweenPolyCollection_1">
    <path d="M 74.355818 248.988713 
L 74.355818 249.287524 
L 81.656968 231.891574 
L 88.958119 217.607776 
L 96.259269 205.803992 
L 103.560419 195.91686 
L 110.86157 187.466398 
L 118.16272 180.063443 
L 125.46387 173.407028 
L 132.76502 167.277332 
L 140.066171 161.52389 
L 147.367321 156.051424 
L 154.668471 150.805097 
L 161.969622 145.756743 
L 169.270772 140.893199 
L 176.571922 136.20772 
L 183.873072 131.69342 
L 191.174223 127.3407 
L 198.475373 123.136655 
L 205.776523 119.065861 
L 213.077673 115.112161 
L 220.378824 111.260598 
L 227.679974 107.498977 
L 234.981124 103.818666 
L 242.282275 100.214585 
L 249.583425 96.684438 
L 256.884575 93.227482 
L 264.185725 89.84314 
L 271.486876 86.529823 
L 278.788026 83.284089 
L 286.089176 80.100957 
L 293.390327 76.974059 
L 300.691477 73.896724 
L 307.992627 70.863186 
L 315.293777 67.869649 
L 322.594928 64.914942 
L 329.896078 62.000496 
L 337.197228 59.129614 
L 344.498378 56.306044 
L 351.799529 53.532182 
L 359.100679 50.807239 
L 366.401829 48.125923 
L 373.70298 45.478118 
L 381.00413 42.85001 
L 388.30528 40.226951 
L 395.60643 37.598134 
L 402.907581 34.962875 
L 410.208731 32.338045 
L 417.509881 29.765939 
L 424.811032 27.321686 
L 432.112182 25.119217 
L 432.112182 24.045455 
L 432.112182 24.045455 
L 424.811032 26.255339 
L 417.509881 28.707859 
L 410.208731 31.288671 
L 402.907581 33.922383 
L 395.60643 36.566555 
L 388.30528 39.204262 
L 381.00413 41.836197 
L 373.70298 44.473204 
L 366.401829 47.129982 
L 359.100679 49.820393 
L 351.799529 52.554587 
L 344.498378 55.33787 
L 337.197228 58.171032 
L 329.896078 61.051671 
L 322.594928 63.976021 
L 315.293777 66.940772 
L 307.992627 69.944489 
L 300.691477 72.988349 
L 293.390327 76.076163 
L 286.089176 79.213719 
L 278.788026 82.407713 
L 271.486876 85.664547 
L 264.185725 88.988771 
L 256.884575 92.383902 
L 249.583425 95.851872 
L 242.282275 99.393256 
L 234.981124 103.008798 
L 227.679974 106.700804 
L 220.378824 110.474381 
L 213.077673 114.338401 
L 205.776523 118.305633 
L 198.475373 122.390394 
L 191.174223 126.608903 
L 183.873072 130.976644 
L 176.571922 135.506564 
L 169.270772 140.208183 
L 161.969622 145.088229 
L 154.668471 150.153721 
L 147.367321 155.417848 
L 140.066171 160.908867 
L 132.76502 166.681815 
L 125.46387 172.832337 
L 118.16272 179.511498 
L 110.86157 186.940437 
L 103.560419 195.421466 
L 96.259269 205.344685 
L 88.958119 217.190239 
L 81.656968 231.526884 
L 74.355818 248.988713 
z
" clip-path="url(#p5560474936)" style="fill: #1f77b4; fill-opacity: 0.45"/>
   </g>
   <g id="PathCollection_1">
    <defs>
     <path id="m5744fd9e2e" d="M 0 2.12132 
C 0.562581 2.12132 1.102195 1.897805 1.5 1.5 
C 1.897805 1.102195 2.12132 0.562581 2.12132 0 
C 2.12132 -0.562581 1.897805 -1.102195 1.5 -1.5 
C 1.102195 -1.897805 0.562581 -2.12132 0 -2.12132 
C -0.562581 -2.12132 -1.102195 -1.897805 -1.5 -1.5 
C -1.897805 -1.102195 -2.12132 -0.562581 -2.12132 0 
C -2.12132 0.562581 -1.897805 1.102195 -1.5 1.5 
C -1.102195 1.897805 -0.562581 2.12132 0 2.12132 
z
" style="stroke: #000000; stroke-opacity: 0.7"/>
    </defs>
    <g clip-path="url(#p5560474936)">
     <use xlink:href="#m5744fd9e2e" x="74.355818" y="249.341073" style="fill-opacity: 0.7; stroke: #000000; stroke-opacity: 0.7"/>
     <use xlink:href="#m5744fd9e2e" x="106.879124" y="193.090697" style="fill-opacity: 0.7; stroke: #000000; stroke-opacity: 0.7"/>
     <use xlink:href="#m5744fd9e2e" x="143.01613" y="160.387108" style="fill-opacity: 0.7; stroke: #000000; stroke-opacity: 0.7"/>
     <use xlink:href="#m5744fd9e2e" x="179.153137" y="138.505312" style="fill-opacity: 0.7; stroke: #000000; stroke-opacity: 0.7"/>
     <use xlink:href="#m5744fd9e2e" x="215.290143" y="112.160266" style="fill-opacity: 0.7; stroke: #000000; stroke-opacity: 0.7"/>
     <use xlink:href="#m5744fd9e2e" x="251.42715" y="94.962823" style="fill-opacity: 0.7; stroke: #000000; stroke-opacity: 0.7"/>
     <use xlink:href="#m5744fd9e2e" x="287.564156" y="80.647876" style="fill-opacity: 0.7; stroke: #000000; stroke-opacity: 0.7"/>
     <use xlink:href="#m5744fd9e2e" x="323.701163" y="64.20399" style="fill-opacity: 0.7; stroke: #000000; stroke-opacity: 0.7"/>
     <use xlink:href="#m5744fd9e2e" x="359.838169" y="50.969605" style="fill-opacity: 0.7; stroke: #000000; stroke-opacity: 0.7"/>
     <use xlink:href="#m5744fd9e2e" x="395.975175" y="39.059825" style="fill-opacity: 0.7; stroke: #000000; stroke-opacity: 0.7"/>
     <use xlink:href="#m5744fd9e2e" x="432.112182" y="24.67143" style="fill-opacity: 0.7; stroke: #000000; stroke-opacity: 0.7"/>
    </g>
   </g>
   <g id="FillBetweenPolyCollection_2">
    <path d="M 74.355818 253.145676 
L 74.355818 253.410573 
L 81.656968 237.396327 
L 88.958119 224.249358 
L 96.259269 213.387374 
L 103.560419 204.29149 
L 110.86157 196.519865 
L 118.16272 189.713509 
L 125.46387 183.595037 
L 132.76502 177.961798 
L 140.066171 172.675035 
L 147.367321 167.646844 
L 154.668471 162.826602 
L 161.969622 158.188291 
L 169.270772 153.719751 
L 176.571922 149.41451 
L 183.873072 145.266396 
L 191.174223 141.266738 
L 198.475373 137.403718 
L 205.776523 133.6632 
L 213.077673 130.030374 
L 220.378824 126.491526 
L 227.679974 123.035464 
L 234.981124 119.654263 
L 242.282275 116.343239 
L 249.583425 113.100265 
L 256.884575 109.924624 
L 264.185725 106.815747 
L 271.486876 103.772136 
L 278.788026 100.790724 
L 286.089176 97.866796 
L 293.390327 94.99448 
L 300.691477 92.16766 
L 307.992627 89.381065 
L 315.293777 86.631247 
L 322.594928 83.917173 
L 329.896078 81.240201 
L 337.197228 78.603385 
L 344.498378 76.010173 
L 351.799529 73.462732 
L 359.100679 70.960277 
L 366.401829 68.497856 
L 373.70298 66.066073 
L 381.00413 63.652139 
L 388.30528 61.242531 
L 395.60643 58.827308 
L 402.907581 56.405914 
L 410.208731 53.994025 
L 417.509881 51.630786 
L 424.811032 49.385616 
L 432.112182 47.363676 
L 432.112182 46.395755 
L 432.112182 46.395755 
L 424.811032 48.424303 
L 417.509881 50.676864 
L 410.208731 53.0479 
L 402.907581 55.467747 
L 395.60643 57.897123 
L 388.30528 60.320304 
L 381.00413 62.737849 
L 373.70298 65.159738 
L 366.401829 67.59954 
L 359.100679 70.070088 
L 351.799529 72.580811 
L 344.498378 75.136673 
L 337.197228 77.73846 
L 329.896078 80.383996 
L 322.594928 83.069823 
L 315.293777 85.792875 
L 307.992627 88.551792 
L 300.691477 91.347613 
L 293.390327 94.183799 
L 286.089176 97.065642 
L 278.788026 99.99928 
L 271.486876 102.990604 
L 264.185725 106.044343 
L 256.884575 109.163572 
L 249.583425 112.349792 
L 242.282275 115.603567 
L 234.981124 118.925618 
L 227.679974 122.318084 
L 220.378824 125.785662 
L 213.077673 129.336313 
L 205.776523 132.981275 
L 198.475373 136.734314 
L 191.174223 140.6103 
L 183.873072 144.623417 
L 176.571922 148.785527 
L 169.270772 153.105323 
L 161.969622 157.588995 
L 154.668471 162.243026 
L 147.367321 167.079613 
L 140.066171 172.124866 
L 132.76502 177.429596 
L 125.46387 183.082045 
L 118.16272 189.221514 
L 110.86157 196.05145 
L 103.560419 203.849557 
L 96.259269 212.975859 
L 88.958119 223.877426 
L 81.656968 237.073241 
L 74.355818 253.145676 
z
" clip-path="url(#p5560474936)" style="fill: #ff7f0e; fill-opacity: 0.45"/>
   </g>
   <g id="PathCollection_2">
    <g clip-path="url(#p5560474936)">
     <use xlink:href="#m5744fd9e2e" x="74.355818" y="254.197757" style="fill-opacity: 0.7; stroke: #000000; stroke-opacity: 0.7"/>
     <use xlink:href="#m5744fd9e2e" x="106.879124" y="201.772306" style="fill-opacity: 0.7; stroke: #000000; stroke-opacity: 0.7"/>
     <use xlink:href="#m5744fd9e2e" x="143.01613" y="172.594198" style="fill-opacity: 0.7; stroke: #000000; stroke-opacity: 0.7"/>
     <use xlink:href="#m5744fd9e2e" x="179.153137" y="148.37543" style="fill-opacity: 0.7; stroke: #000000; stroke-opacity: 0.7"/>
     <use xlink:href="#m5744fd9e2e" x="215.290143" y="130.264221" style="fill-opacity: 0.7; stroke: #000000; stroke-opacity: 0.7"/>
     <use xlink:href="#m5744fd9e2e" x="251.42715" y="112.850112" style="fill-opacity: 0.7; stroke: #000000; stroke-opacity: 0.7"/>
     <use xlink:href="#m5744fd9e2e" x="287.564156" y="99.496409" style="fill-opacity: 0.7; stroke: #000000; stroke-opacity: 0.7"/>
     <use xlink:href="#m5744fd9e2e" x="323.701163" y="84.822368" style="fill-opacity: 0.7; stroke: #000000; stroke-opacity: 0.7"/>
     <use xlink:href="#m5744fd9e2e" x="359.838169" y="73.486199" style="fill-opacity: 0.7; stroke: #000000; stroke-opacity: 0.7"/>
     <use xlink:href="#m5744fd9e2e" x="395.975175" y="59.218514" style="fill-opacity: 0.7; stroke: #000000; stroke-opacity: 0.7"/>
     <use xlink:href="#m5744fd9e2e" x="432.112182" y="48.835345" style="fill-opacity: 0.7; stroke: #000000; stroke-opacity: 0.7"/>
    </g>
   </g>
   <g id="FillBetweenPolyCollection_3">
    <path d="M 74.355818 257.623698 
L 74.355818 257.865023 
L 81.656968 243.305732 
L 88.958119 231.353623 
L 96.259269 221.481198 
L 103.560419 213.216028 
L 110.86157 206.156475 
L 118.16272 199.975579 
L 125.46387 194.420825 
L 132.76502 189.307648 
L 140.066171 184.509601 
L 147.367321 179.946531 
L 154.668471 175.572248 
L 161.969622 171.362994 
L 169.270772 167.307684 
L 176.571922 163.400454 
L 183.873072 159.635755 
L 191.174223 156.005785 
L 198.475373 152.49989 
L 205.776523 149.1053 
L 213.077673 145.808611 
L 220.378824 142.597393 
L 227.679974 139.461482 
L 234.981124 136.393655 
L 242.282275 133.389627 
L 249.583425 130.447415 
L 256.884575 127.566323 
L 264.185725 124.745796 
L 271.486876 121.984446 
L 278.788026 119.279479 
L 286.089176 116.62662 
L 293.390327 114.020561 
L 300.691477 111.455782 
L 307.992627 108.927535 
L 315.293777 106.432732 
L 322.594928 103.970462 
L 329.896078 101.541973 
L 337.197228 99.150035 
L 344.498378 96.797758 
L 351.799529 94.487065 
L 359.100679 92.217189 
L 366.401829 89.983584 
L 373.70298 87.777668 
L 381.00413 85.587802 
L 388.30528 83.401701 
L 395.60643 81.21037 
L 402.907581 79.013359 
L 410.208731 76.824976 
L 417.509881 74.680838 
L 424.811032 72.644018 
L 432.112182 70.80997 
L 432.112182 69.901134 
L 432.112182 69.901134 
L 424.811032 71.741492 
L 417.509881 73.785345 
L 410.208731 75.936895 
L 402.907581 78.132841 
L 395.60643 80.33744 
L 388.30528 82.536335 
L 381.00413 84.729978 
L 373.70298 86.927396 
L 366.401829 89.140918 
L 359.100679 91.382226 
L 351.799529 93.659931 
L 344.498378 95.978598 
L 337.197228 98.338998 
L 329.896078 100.739196 
L 322.594928 103.176077 
L 315.293777 105.646862 
L 307.992627 108.150299 
L 300.691477 110.687303 
L 293.390327 113.260976 
L 286.089176 115.87608 
L 278.788026 118.538155 
L 271.486876 121.252525 
L 264.185725 124.023477 
L 256.884575 126.853818 
L 249.583425 129.744934 
L 242.282275 132.697386 
L 234.981124 135.711877 
L 227.679974 138.790394 
L 220.378824 141.937246 
L 213.077673 145.159684 
L 205.776523 148.467915 
L 198.475373 151.874413 
L 191.174223 155.392631 
L 183.873072 159.035381 
L 176.571922 162.813354 
L 169.270772 166.734367 
L 161.969622 170.803988 
L 154.668471 175.028096 
L 147.367321 179.417822 
L 140.066171 183.997017 
L 132.76502 188.812063 
L 125.46387 193.943451 
L 118.16272 199.518143 
L 110.86157 205.721463 
L 103.560419 212.806943 
L 96.259269 221.102564 
L 88.958119 231.011827 
L 81.656968 243.008431 
L 74.355818 257.623698 
z
" clip-path="url(#p5560474936)" style="fill: #2ca02c; fill-opacity: 0.45"/>
   </g>
   <g id="PathCollection_3">
    <g clip-path="url(#p5560474936)">
     <use xlink:href="#m5744fd9e2e" x="74.355818" y="257.945129" style="fill-opacity: 0.7; stroke: #000000; stroke-opacity: 0.7"/>
     <use xlink:href="#m5744fd9e2e" x="106.879124" y="210.457778" style="fill-opacity: 0.7; stroke: #000000; stroke-opacity: 0.7"/>
     <use xlink:href="#m5744fd9e2e" x="143.01613" y="185.48986" style="fill-opacity: 0.7; stroke: #000000; stroke-opacity: 0.7"/>
     <use xlink:href="#m5744fd9e2e" x="179.153137" y="162.744173" style="fill-opacity: 0.7; stroke: #000000; stroke-opacity: 0.7"/>
     <use xlink:href="#m5744fd9e2e" x="215.290143" y="144.017855" style="fill-opacity: 0.7; stroke: #000000; stroke-opacity: 0.7"/>
     <use xlink:href="#m5744fd9e2e" x="251.42715" y="134.097382" style="fill-opacity: 0.7; stroke: #000000; stroke-opacity: 0.7"/>
     <use xlink:href="#m5744fd9e2e" x="287.564156" y="120.778549" style="fill-opacity: 0.7; stroke: #000000; stroke-opacity: 0.7"/>
     <use xlink:href="#m5744fd9e2e" x="323.701163" y="108.142108" style="fill-opacity: 0.7; stroke: #000000; stroke-opacity: 0.7"/>
     <use xlink:href="#m5744fd9e2e" x="359.838169" y="93.512053" style="fill-opacity: 0.7; stroke: #000000; stroke-opacity: 0.7"/>
     <use xlink:href="#m5744fd9e2e" x="395.975175" y="83.7275" style="fill-opacity: 0.7; stroke: #000000; stroke-opacity: 0.7"/>
     <use xlink:href="#m5744fd9e2e" x="432.112182" y="72.290152" style="fill-opacity: 0.7; stroke: #000000; stroke-opacity: 0.7"/>
    </g>
   </g>
   <g id="FillBetweenPolyCollection_4">
    <path d="M 74.355818 264.092127 
L 74.355818 264.301081 
L 81.656968 251.783468 
L 88.958119 241.507922 
L 96.259269 233.02172 
L 103.560419 225.919828 
L 110.86157 219.855128 
L 118.16272 214.547419 
L 125.46387 209.779228 
L 132.76502 205.391419 
L 140.066171 201.27484 
L 147.367321 197.360211 
L 154.668471 193.607547 
L 161.969622 189.996269 
L 169.270772 186.516799 
L 176.571922 183.164141 
L 183.873072 179.933629 
L 191.174223 176.818704 
L 198.475373 173.810347 
L 205.776523 170.897708 
L 213.077673 168.069354 
L 220.378824 165.314635 
L 227.679974 162.624801 
L 234.981124 159.993595 
L 242.282275 157.41725 
L 249.583425 154.893981 
L 256.884575 152.423108 
L 264.185725 150.004096 
L 271.486876 147.635724 
L 278.788026 145.315599 
L 286.089176 143.040085 
L 293.390327 140.804681 
L 300.691477 138.604716 
L 307.992627 136.436179 
L 315.293777 134.296468 
L 322.594928 132.184825 
L 329.896078 130.10232 
L 337.197228 128.051297 
L 344.498378 126.03437 
L 351.799529 124.053127 
L 359.100679 122.106853 
L 366.401829 120.1916 
L 373.70298 118.299995 
L 381.00413 116.422071 
L 388.30528 114.547347 
L 395.60643 112.668179 
L 402.907581 110.784246 
L 410.208731 108.907839 
L 417.509881 107.069423 
L 424.811032 105.322849 
L 432.112182 103.749505 
L 432.112182 102.976763 
L 432.112182 102.976763 
L 424.811032 104.555316 
L 417.509881 106.307751 
L 410.208731 108.152366 
L 402.907581 110.035106 
L 395.60643 111.925393 
L 388.30528 113.81089 
L 381.00413 115.69192 
L 373.70298 117.576158 
L 366.401829 119.474124 
L 359.100679 121.39582 
L 351.799529 123.348647 
L 344.498378 125.336564 
L 337.197228 127.360291 
L 329.896078 129.418229 
L 322.594928 131.507759 
L 315.293777 133.626525 
L 307.992627 135.773456 
L 300.691477 137.949311 
L 293.390327 140.156706 
L 286.089176 142.399667 
L 278.788026 144.682881 
L 271.486876 147.010868 
L 264.185725 149.387272 
L 256.884575 151.814498 
L 249.583425 154.293768 
L 242.282275 156.825615 
L 234.981124 159.410721 
L 227.679974 162.050884 
L 220.378824 164.749878 
L 213.077673 167.513987 
L 205.776523 170.351993 
L 198.475373 173.274586 
L 191.174223 176.293247 
L 183.873072 179.418864 
L 176.571922 182.660487 
L 169.270772 186.024698 
L 161.969622 189.516174 
L 154.668471 193.139925 
L 147.367321 196.905564 
L 140.066171 200.833746 
L 132.76502 204.964609 
L 125.46387 209.367712 
L 118.16272 214.152637 
L 110.86157 219.479156 
L 103.560419 225.565638 
L 96.259269 232.694317 
L 88.958119 241.212134 
L 81.656968 251.526043 
L 74.355818 264.092127 
z
" clip-path="url(#p5560474936)" style="fill: #d62728; fill-opacity: 0.45"/>
   </g>
   <g id="PathCollection_4">
    <g clip-path="url(#p5560474936)">
     <use xlink:href="#m5744fd9e2e" x="74.355818" y="262.470716" style="fill-opacity: 0.7; stroke: #000000; stroke-opacity: 0.7"/>
     <use xlink:href="#m5744fd9e2e" x="106.879124" y="221.158804" style="fill-opacity: 0.7; stroke: #000000; stroke-opacity: 0.7"/>
     <use xlink:href="#m5744fd9e2e" x="143.01613" y="197.247862" style="fill-opacity: 0.7; stroke: #000000; stroke-opacity: 0.7"/>
     <use xlink:href="#m5744fd9e2e" x="179.153137" y="179.871873" style="fill-opacity: 0.7; stroke: #000000; stroke-opacity: 0.7"/>
     <use xlink:href="#m5744fd9e2e" x="215.290143" y="163.417902" style="fill-opacity: 0.7; stroke: #000000; stroke-opacity: 0.7"/>
     <use xlink:href="#m5744fd9e2e" x="251.42715" y="152.919732" style="fill-opacity: 0.7; stroke: #000000; stroke-opacity: 0.7"/>
     <use xlink:href="#m5744fd9e2e" x="287.564156" y="140.068625" style="fill-opacity: 0.7; stroke: #000000; stroke-opacity: 0.7"/>
     <use xlink:href="#m5744fd9e2e" x="323.701163" y="128.257613" style="fill-opacity: 0.7; stroke: #000000; stroke-opacity: 0.7"/>
     <use xlink:href="#m5744fd9e2e" x="359.838169" y="116.012473" style="fill-opacity: 0.7; stroke: #000000; stroke-opacity: 0.7"/>
     <use xlink:href="#m5744fd9e2e" x="395.975175" y="109.97099" style="fill-opacity: 0.7; stroke: #000000; stroke-opacity: 0.7"/>
     <use xlink:href="#m5744fd9e2e" x="432.112182" y="101.412698" style="fill-opacity: 0.7; stroke: #000000; stroke-opacity: 0.7"/>
    </g>
   </g>
   <g id="FillBetweenPolyCollection_5">
    <path d="M 74.355818 269.296372 
L 74.355818 269.486575 
L 81.656968 258.575953 
L 88.958119 249.621298 
L 96.259269 242.226523 
L 103.560419 236.038227 
L 110.86157 230.7558 
L 118.16272 226.134054 
L 125.46387 221.983179 
L 132.76502 218.164202 
L 140.066171 214.581739 
L 147.367321 211.175204 
L 154.668471 207.909615 
L 161.969622 204.766965 
L 169.270772 201.738899 
L 176.571922 198.821101 
L 183.873072 196.009578 
L 191.174223 193.298602 
L 198.475373 190.680443 
L 205.776523 188.145751 
L 213.077673 185.684592 
L 220.378824 183.287699 
L 227.679974 180.947427 
L 234.981124 178.658282 
L 242.282275 176.416935 
L 249.583425 174.221775 
L 256.884575 172.072164 
L 264.185725 169.967607 
L 271.486876 167.907033 
L 278.788026 165.888368 
L 286.089176 163.908474 
L 293.390327 161.963468 
L 300.691477 160.049323 
L 307.992627 158.162585 
L 315.293777 156.30101 
L 322.594928 154.463948 
L 329.896078 152.652317 
L 337.197228 150.868135 
L 344.498378 149.113642 
L 351.799529 147.390184 
L 359.100679 145.69711 
L 366.401829 144.030974 
L 373.70298 142.385373 
L 381.00413 140.75167 
L 388.30528 139.120806 
L 395.60643 137.486189 
L 402.907581 135.847586 
L 410.208731 134.215682 
L 417.509881 132.616873 
L 424.811032 131.097757 
L 432.112182 129.728675 
L 432.112182 129.010317 
L 432.112182 129.010317 
L 424.811032 130.384254 
L 417.509881 131.908816 
L 410.208731 133.513382 
L 402.907581 135.151172 
L 395.60643 136.795684 
L 388.30528 138.436192 
L 381.00413 140.072931 
L 373.70298 141.712516 
L 366.401829 143.364043 
L 359.100679 145.036179 
L 351.799529 146.735355 
L 344.498378 148.465028 
L 337.197228 150.225852 
L 329.896078 152.016476 
L 322.594928 153.834653 
L 315.293777 155.67836 
L 307.992627 157.546672 
L 300.691477 159.440246 
L 293.390327 161.361329 
L 286.089176 163.313393 
L 278.788026 165.300476 
L 271.486876 167.326476 
L 264.185725 169.394537 
L 256.884575 171.506747 
L 249.583425 173.664175 
L 242.282275 175.867322 
L 234.981124 178.116827 
L 227.679974 180.414311 
L 220.378824 182.763119 
L 213.077673 185.16877 
L 205.776523 187.638937 
L 198.475373 190.182931 
L 191.174223 192.810717 
L 183.873072 195.531721 
L 176.571922 198.353746 
L 169.270772 201.282444 
L 161.969622 204.321814 
L 154.668471 207.476186 
L 147.367321 210.753953 
L 140.066171 214.1732 
L 132.76502 217.769071 
L 125.46387 221.602422 
L 118.16272 225.769056 
L 110.86157 230.408551 
L 103.560419 235.711535 
L 96.259269 241.924242 
L 88.958119 249.349149 
L 81.656968 258.340828 
L 74.355818 269.296372 
z
" clip-path="url(#p5560474936)" style="fill: #9467bd; fill-opacity: 0.45"/>
   </g>
   <g id="PathCollection_5">
    <g clip-path="url(#p5560474936)">
     <use xlink:href="#m5744fd9e2e" x="74.355818" y="269.70085" style="fill-opacity: 0.7; stroke: #000000; stroke-opacity: 0.7"/>
     <use xlink:href="#m5744fd9e2e" x="106.879124" y="231.292979" style="fill-opacity: 0.7; stroke: #000000; stroke-opacity: 0.7"/>
     <use xlink:href="#m5744fd9e2e" x="143.01613" y="212.339809" style="fill-opacity: 0.7; stroke: #000000; stroke-opacity: 0.7"/>
     <use xlink:href="#m5744fd9e2e" x="179.153137" y="194.689459" style="fill-opacity: 0.7; stroke: #000000; stroke-opacity: 0.7"/>
     <use xlink:href="#m5744fd9e2e" x="215.290143" y="186.007988" style="fill-opacity: 0.7; stroke: #000000; stroke-opacity: 0.7"/>
     <use xlink:href="#m5744fd9e2e" x="251.42715" y="170.551858" style="fill-opacity: 0.7; stroke: #000000; stroke-opacity: 0.7"/>
     <use xlink:href="#m5744fd9e2e" x="287.564156" y="160.405286" style="fill-opacity: 0.7; stroke: #000000; stroke-opacity: 0.7"/>
     <use xlink:href="#m5744fd9e2e" x="323.701163" y="154.296567" style="fill-opacity: 0.7; stroke: #000000; stroke-opacity: 0.7"/>
     <use xlink:href="#m5744fd9e2e" x="359.838169" y="143.415822" style="fill-opacity: 0.7; stroke: #000000; stroke-opacity: 0.7"/>
     <use xlink:href="#m5744fd9e2e" x="395.975175" y="133.768652" style="fill-opacity: 0.7; stroke: #000000; stroke-opacity: 0.7"/>
     <use xlink:href="#m5744fd9e2e" x="432.112182" y="127.535337" style="fill-opacity: 0.7; stroke: #000000; stroke-opacity: 0.7"/>
    </g>
   </g>
   <g id="FillBetweenPolyCollection_6">
    <path d="M 74.355818 274.809832 
L 74.355818 274.982575 
L 81.656968 265.737562 
L 88.958119 258.149593 
L 96.259269 251.884067 
L 103.560419 246.642243 
L 110.86157 242.169169 
L 118.16272 238.256145 
L 125.46387 234.742625 
L 132.76502 231.510733 
L 140.066171 228.479322 
L 147.367321 225.596911 
L 154.668471 222.833764 
L 161.969622 220.174587 
L 169.270772 217.612304 
L 176.571922 215.143293 
L 183.873072 212.764223 
L 191.174223 210.470524 
L 198.475373 208.255644 
L 205.776523 206.111497 
L 213.077673 204.02968 
L 220.378824 202.002334 
L 227.679974 200.022968 
L 234.981124 198.086902 
L 242.282275 196.191292 
L 249.583425 194.334743 
L 256.884575 192.5167 
L 264.185725 190.73673 
L 271.486876 188.993926 
L 278.788026 187.286538 
L 286.089176 185.611926 
L 293.390327 183.966822 
L 300.691477 182.34784 
L 307.992627 180.752073 
L 315.293777 179.177633 
L 322.594928 177.623975 
L 329.896078 176.09187 
L 337.197228 174.583011 
L 344.498378 173.099272 
L 351.799529 171.641771 
L 359.100679 170.209939 
L 366.401829 168.800856 
L 373.70298 167.409111 
L 381.00413 166.027431 
L 388.30528 164.648193 
L 395.60643 163.265877 
L 402.907581 161.88033 
L 410.208731 160.500594 
L 417.509881 159.148933 
L 424.811032 157.864561 
L 432.112182 156.706597 
L 432.112182 156.072535 
L 432.112182 156.072535 
L 424.811032 157.234717 
L 417.509881 158.523849 
L 410.208731 159.880557 
L 402.907581 161.265458 
L 395.60643 162.656193 
L 388.30528 164.04368 
L 381.00413 165.428074 
L 373.70298 166.814916 
L 366.401829 168.21193 
L 359.100679 169.626377 
L 351.799529 171.063657 
L 344.498378 172.526705 
L 337.197228 174.016092 
L 329.896078 175.530699 
L 322.594928 177.068651 
L 315.293777 178.628251 
L 307.992627 180.208726 
L 300.691477 181.810628 
L 293.390327 183.435846 
L 286.089176 185.08729 
L 278.788026 186.768356 
L 271.486876 188.482317 
L 264.185725 190.231817 
L 256.884575 192.018611 
L 249.583425 193.843611 
L 242.282275 195.707254 
L 234.981124 197.610109 
L 227.679974 199.553581 
L 220.378824 201.540541 
L 213.077673 203.575693 
L 205.776523 205.665562 
L 198.475373 207.81804 
L 191.174223 210.041558 
L 183.873072 212.344073 
L 176.571922 214.732152 
L 169.270772 217.210529 
L 161.969622 219.782546 
L 154.668471 222.451834 
L 147.367321 225.225499 
L 140.066171 228.118895 
L 132.76502 231.161891 
L 125.46387 234.40619 
L 118.16272 237.933158 
L 110.86157 241.861286 
L 103.560419 246.352331 
L 96.259269 251.615125 
L 88.958119 257.906074 
L 81.656968 265.525577 
L 74.355818 274.809832 
z
" clip-path="url(#p5560474936)" style="fill: #8c564b; fill-opacity: 0.45"/>
   </g>
   <g id="PathCollection_6">
    <g clip-path="url(#p5560474936)">
     <use xlink:href="#m5744fd9e2e" x="74.355818" y="273.503988" style="fill-opacity: 0.7; stroke: #000000; stroke-opacity: 0.7"/>
     <use xlink:href="#m5744fd9e2e" x="106.879124" y="241.246121" style="fill-opacity: 0.7; stroke: #000000; stroke-opacity: 0.7"/>
     <use xlink:href="#m5744fd9e2e" x="143.01613" y="226.879265" style="fill-opacity: 0.7; stroke: #000000; stroke-opacity: 0.7"/>
     <use xlink:href="#m5744fd9e2e" x="179.153137" y="214.638047" style="fill-opacity: 0.7; stroke: #000000; stroke-opacity: 0.7"/>
     <use xlink:href="#m5744fd9e2e" x="215.290143" y="204.43644" style="fill-opacity: 0.7; stroke: #000000; stroke-opacity: 0.7"/>
     <use xlink:href="#m5744fd9e2e" x="251.42715" y="192.993109" style="fill-opacity: 0.7; stroke: #000000; stroke-opacity: 0.7"/>
     <use xlink:href="#m5744fd9e2e" x="287.564156" y="185.551826" style="fill-opacity: 0.7; stroke: #000000; stroke-opacity: 0.7"/>
     <use xlink:href="#m5744fd9e2e" x="323.701163" y="177.654015" style="fill-opacity: 0.7; stroke: #000000; stroke-opacity: 0.7"/>
     <use xlink:href="#m5744fd9e2e" x="359.838169" y="170.240053" style="fill-opacity: 0.7; stroke: #000000; stroke-opacity: 0.7"/>
     <use xlink:href="#m5744fd9e2e" x="395.975175" y="162.359801" style="fill-opacity: 0.7; stroke: #000000; stroke-opacity: 0.7"/>
     <use xlink:href="#m5744fd9e2e" x="432.112182" y="158.199012" style="fill-opacity: 0.7; stroke: #000000; stroke-opacity: 0.7"/>
    </g>
   </g>
   <g id="FillBetweenPolyCollection_7">
    <path d="M 74.355818 280.62305 
L 74.355818 280.776106 
L 81.656968 273.254218 
L 88.958119 267.082082 
L 96.259269 261.987134 
L 103.560419 257.725754 
L 110.86157 254.089955 
L 118.16272 250.910338 
L 125.46387 248.055701 
L 132.76502 245.429965 
L 140.066171 242.967188 
L 147.367321 240.625496 
L 154.668471 238.380741 
L 161.969622 236.220526 
L 169.270772 234.139136 
L 176.571922 232.133652 
L 183.873072 230.201374 
L 191.174223 228.338449 
L 198.475373 226.539536 
L 205.776523 224.79816 
L 213.077673 223.107459 
L 220.378824 221.461022 
L 227.679974 219.853549 
L 234.981124 218.281233 
L 242.282275 216.741754 
L 249.583425 215.233988 
L 256.884575 213.757487 
L 264.185725 212.311913 
L 271.486876 210.896531 
L 278.788026 209.509924 
L 286.089176 208.149947 
L 293.390327 206.813945 
L 300.691477 205.499163 
L 307.992627 204.20324 
L 315.293777 202.924647 
L 322.594928 201.662941 
L 329.896078 200.418754 
L 337.197228 199.193461 
L 344.498378 197.988584 
L 351.799529 196.805022 
L 359.100679 195.642303 
L 366.401829 194.498043 
L 373.70298 193.367841 
L 381.00413 192.245792 
L 388.30528 191.125727 
L 395.60643 190.003198 
L 402.907581 188.878131 
L 410.208731 187.757914 
L 417.509881 186.66064 
L 424.811032 185.618092 
L 432.112182 184.678078 
L 432.112182 184.121144 
L 432.112182 184.121144 
L 424.811032 185.064839 
L 417.509881 186.111537 
L 410.208731 187.213215 
L 402.907581 188.337948 
L 395.60643 189.467561 
L 388.30528 190.594632 
L 381.00413 191.719233 
L 373.70298 192.845828 
L 366.401829 193.980611 
L 359.100679 195.129512 
L 351.799529 196.296947 
L 344.498378 197.48531 
L 337.197228 198.695075 
L 329.896078 199.925339 
L 322.594928 201.174577 
L 315.293777 202.441407 
L 307.992627 203.725198 
L 300.691477 205.026393 
L 293.390327 206.346531 
L 286.089176 207.687984 
L 278.788026 209.053512 
L 271.486876 210.445784 
L 264.185725 211.866949 
L 256.884575 213.318429 
L 249.583425 214.800957 
L 242.282275 216.314878 
L 234.981124 217.860639 
L 227.679974 219.439371 
L 220.378824 221.053405 
L 213.077673 222.706575 
L 205.776523 224.404203 
L 198.475373 226.152734 
L 191.174223 227.95906 
L 183.873072 229.829684 
L 176.571922 231.769975 
L 169.270772 233.783791 
L 161.969622 235.873842 
L 154.668471 238.043056 
L 147.367321 240.297169 
L 140.066171 242.648629 
L 132.76502 245.121702 
L 125.46387 247.758457 
L 118.16272 250.625154 
L 110.86157 253.818331 
L 103.560419 257.469817 
L 96.259269 261.749822 
L 88.958119 266.867325 
L 81.656968 273.067113 
L 74.355818 280.62305 
z
" clip-path="url(#p5560474936)" style="fill: #e377c2; fill-opacity: 0.45"/>
   </g>
   <g id="PathCollection_7">
    <g clip-path="url(#p5560474936)">
     <use xlink:href="#m5744fd9e2e" x="74.355818" y="283.237921" style="fill-opacity: 0.7; stroke: #000000; stroke-opacity: 0.7"/>
     <use xlink:href="#m5744fd9e2e" x="106.879124" y="260.242578" style="fill-opacity: 0.7; stroke: #000000; stroke-opacity: 0.7"/>
     <use xlink:href="#m5744fd9e2e" x="143.01613" y="241.633002" style="fill-opacity: 0.7; stroke: #000000; stroke-opacity: 0.7"/>
     <use xlink:href="#m5744fd9e2e" x="179.153137" y="232.812645" style="fill-opacity: 0.7; stroke: #000000; stroke-opacity: 0.7"/>
     <use xlink:href="#m5744fd9e2e" x="215.290143" y="222.224345" style="fill-opacity: 0.7; stroke: #000000; stroke-opacity: 0.7"/>
     <use xlink:href="#m5744fd9e2e" x="251.42715" y="216.69671" style="fill-opacity: 0.7; stroke: #000000; stroke-opacity: 0.7"/>
     <use xlink:href="#m5744fd9e2e" x="287.564156" y="210.857561" style="fill-opacity: 0.7; stroke: #000000; stroke-opacity: 0.7"/>
     <use xlink:href="#m5744fd9e2e" x="323.701163" y="202.943567" style="fill-opacity: 0.7; stroke: #000000; stroke-opacity: 0.7"/>
     <use xlink:href="#m5744fd9e2e" x="359.838169" y="197.872767" style="fill-opacity: 0.7; stroke: #000000; stroke-opacity: 0.7"/>
     <use xlink:href="#m5744fd9e2e" x="395.975175" y="194.006166" style="fill-opacity: 0.7; stroke: #000000; stroke-opacity: 0.7"/>
     <use xlink:href="#m5744fd9e2e" x="432.112182" y="188.351457" style="fill-opacity: 0.7; stroke: #000000; stroke-opacity: 0.7"/>
    </g>
   </g>
   <g id="FillBetweenPolyCollection_8">
    <path d="M 74.355818 288.833218 
L 74.355818 288.954545 
L 81.656968 283.814405 
L 88.958119 279.601037 
L 96.259269 276.126272 
L 103.560419 273.222097 
L 110.86157 270.745297 
L 118.16272 268.579469 
L 125.46387 266.634703 
L 132.76502 264.845388 
L 140.066171 263.166696 
L 147.367321 261.57034 
L 154.668471 260.040137 
L 161.969622 258.567864 
L 169.270772 257.149759 
L 176.571922 255.78385 
L 183.873072 254.468211 
L 191.174223 253.200068 
L 198.475373 251.975597 
L 205.776523 250.790212 
L 213.077673 249.639114 
L 220.378824 248.517872 
L 227.679974 247.42289 
L 234.981124 246.351644 
L 242.282275 245.302665 
L 249.583425 244.275314 
L 256.884575 243.269397 
L 264.185725 242.284754 
L 271.486876 241.32091 
L 278.788026 240.376873 
L 286.089176 239.451117 
L 293.390327 238.541744 
L 300.691477 237.646792 
L 307.992627 236.764589 
L 315.293777 235.894062 
L 322.594928 235.03493 
L 329.896078 234.187671 
L 337.197228 233.353297 
L 344.498378 232.532913 
L 351.799529 231.727174 
L 359.100679 230.935755 
L 366.401829 230.156973 
L 373.70298 229.387721 
L 381.00413 228.623838 
L 388.30528 227.860997 
L 395.60643 227.096102 
L 402.907581 226.329149 
L 410.208731 225.565367 
L 417.509881 224.817447 
L 424.811032 224.107564 
L 432.112182 223.468905 
L 432.112182 223.022554 
L 432.112182 223.022554 
L 424.811032 223.664399 
L 417.509881 224.377798 
L 410.208731 225.129401 
L 402.907581 225.896933 
L 395.60643 226.667646 
L 388.30528 227.436287 
L 381.00413 228.202863 
L 373.70298 228.970482 
L 366.401829 229.743487 
L 359.100679 230.526052 
L 351.799529 231.321291 
L 344.498378 232.130892 
L 337.197228 232.95518 
L 329.896078 233.793498 
L 322.594928 234.644741 
L 315.293777 235.507905 
L 307.992627 236.382518 
L 300.691477 237.268878 
L 293.390327 238.168072 
L 286.089176 239.081786 
L 278.788026 240.011999 
L 271.486876 240.96061 
L 264.185725 241.929148 
L 256.884575 242.918602 
L 249.583425 243.929431 
L 242.282275 244.961785 
L 234.981124 246.015846 
L 227.679974 247.092253 
L 220.378824 248.192476 
L 213.077673 249.319059 
L 205.776523 250.475626 
L 198.475373 251.666645 
L 191.174223 252.896957 
L 183.873072 254.171184 
L 176.571922 255.493181 
L 169.270772 256.865743 
L 161.969622 258.290805 
L 154.668471 259.770335 
L 147.367321 261.308102 
L 140.066171 262.912352 
L 132.76502 264.599335 
L 125.46387 266.397475 
L 118.16272 268.35184 
L 110.86157 270.528412 
L 103.560419 273.01763 
L 96.259269 275.936602 
L 88.958119 279.429426 
L 81.656968 283.665173 
L 74.355818 288.833218 
z
" clip-path="url(#p5560474936)" style="fill: #7f7f7f; fill-opacity: 0.45"/>
   </g>
   <g id="PathCollection_8">
    <g clip-path="url(#p5560474936)">
     <use xlink:href="#m5744fd9e2e" x="74.355818" y="285.467191" style="fill-opacity: 0.7; stroke: #000000; stroke-opacity: 0.7"/>
     <use xlink:href="#m5744fd9e2e" x="106.879124" y="269.558033" style="fill-opacity: 0.7; stroke: #000000; stroke-opacity: 0.7"/>
     <use xlink:href="#m5744fd9e2e" x="143.01613" y="259.396971" style="fill-opacity: 0.7; stroke: #000000; stroke-opacity: 0.7"/>
     <use xlink:href="#m5744fd9e2e" x="179.153137" y="252.729513" style="fill-opacity: 0.7; stroke: #000000; stroke-opacity: 0.7"/>
     <use xlink:href="#m5744fd9e2e" x="215.290143" y="246.930045" style="fill-opacity: 0.7; stroke: #000000; stroke-opacity: 0.7"/>
     <use xlink:href="#m5744fd9e2e" x="251.42715" y="239.219809" style="fill-opacity: 0.7; stroke: #000000; stroke-opacity: 0.7"/>
     <use xlink:href="#m5744fd9e2e" x="287.564156" y="235.545214" style="fill-opacity: 0.7; stroke: #000000; stroke-opacity: 0.7"/>
     <use xlink:href="#m5744fd9e2e" x="323.701163" y="231.824186" style="fill-opacity: 0.7; stroke: #000000; stroke-opacity: 0.7"/>
     <use xlink:href="#m5744fd9e2e" x="359.838169" y="226.701279" style="fill-opacity: 0.7; stroke: #000000; stroke-opacity: 0.7"/>
     <use xlink:href="#m5744fd9e2e" x="395.975175" y="223.731918" style="fill-opacity: 0.7; stroke: #000000; stroke-opacity: 0.7"/>
     <use xlink:href="#m5744fd9e2e" x="432.112182" y="218.461467" style="fill-opacity: 0.7; stroke: #000000; stroke-opacity: 0.7"/>
    </g>
   </g>
   <g id="matplotlib.axis_1">
    <g id="xtick_1">
     <g id="line2d_1">
      <defs>
       <path id="mf024e6ceb6" d="M 0 0 
L 0 3.5 
" style="stroke: #000000; stroke-width: 0.8"/>
      </defs>
      <g>
       <use xlink:href="#mf024e6ceb6" x="70.742118" y="302.2" style="stroke: #000000; stroke-width: 0.8"/>
      </g>
     </g>
     <g id="text_1">
      <!-- 0 -->
      <g transform="translate(67.560868 316.798437) scale(0.1 -0.1)">
       <defs>
        <path id="DejaVuSans-30" d="M 2034 4250 
Q 1547 4250 1301 3770 
Q 1056 3291 1056 2328 
Q 1056 1369 1301 889 
Q 1547 409 2034 409 
Q 2525 409 2770 889 
Q 3016 1369 3016 2328 
Q 3016 3291 2770 3770 
Q 2525 4250 2034 4250 
z
M 2034 4750 
Q 2819 4750 3233 4129 
Q 3647 3509 3647 2328 
Q 3647 1150 3233 529 
Q 2819 -91 2034 -91 
Q 1250 -91 836 529 
Q 422 1150 422 2328 
Q 422 3509 836 4129 
Q 1250 4750 2034 4750 
z
" transform="scale(0.015625)"/>
       </defs>
       <use xlink:href="#DejaVuSans-30"/>
      </g>
     </g>
    </g>
    <g id="xtick_2">
     <g id="line2d_2">
      <g>
       <use xlink:href="#mf024e6ceb6" x="143.01613" y="302.2" style="stroke: #000000; stroke-width: 0.8"/>
      </g>
     </g>
     <g id="text_2">
      <!-- 1 -->
      <g transform="translate(139.83488 316.798437) scale(0.1 -0.1)">
       <defs>
        <path id="DejaVuSans-31" d="M 794 531 
L 1825 531 
L 1825 4091 
L 703 3866 
L 703 4441 
L 1819 4666 
L 2450 4666 
L 2450 531 
L 3481 531 
L 3481 0 
L 794 0 
L 794 531 
z
" transform="scale(0.015625)"/>
       </defs>
       <use xlink:href="#DejaVuSans-31"/>
      </g>
     </g>
    </g>
    <g id="xtick_3">
     <g id="line2d_3">
      <g>
       <use xlink:href="#mf024e6ceb6" x="215.290143" y="302.2" style="stroke: #000000; stroke-width: 0.8"/>
      </g>
     </g>
     <g id="text_3">
      <!-- 2 -->
      <g transform="translate(212.108893 316.798437) scale(0.1 -0.1)">
       <defs>
        <path id="DejaVuSans-32" d="M 1228 531 
L 3431 531 
L 3431 0 
L 469 0 
L 469 531 
Q 828 903 1448 1529 
Q 2069 2156 2228 2338 
Q 2531 2678 2651 2914 
Q 2772 3150 2772 3378 
Q 2772 3750 2511 3984 
Q 2250 4219 1831 4219 
Q 1534 4219 1204 4116 
Q 875 4013 500 3803 
L 500 4441 
Q 881 4594 1212 4672 
Q 1544 4750 1819 4750 
Q 2544 4750 2975 4387 
Q 3406 4025 3406 3419 
Q 3406 3131 3298 2873 
Q 3191 2616 2906 2266 
Q 2828 2175 2409 1742 
Q 1991 1309 1228 531 
z
" transform="scale(0.015625)"/>
       </defs>
       <use xlink:href="#DejaVuSans-32"/>
      </g>
     </g>
    </g>
    <g id="xtick_4">
     <g id="line2d_4">
      <g>
       <use xlink:href="#mf024e6ceb6" x="287.564156" y="302.2" style="stroke: #000000; stroke-width: 0.8"/>
      </g>
     </g>
     <g id="text_4">
      <!-- 3 -->
      <g transform="translate(284.382906 316.798437) scale(0.1 -0.1)">
       <defs>
        <path id="DejaVuSans-33" d="M 2597 2516 
Q 3050 2419 3304 2112 
Q 3559 1806 3559 1356 
Q 3559 666 3084 287 
Q 2609 -91 1734 -91 
Q 1441 -91 1130 -33 
Q 819 25 488 141 
L 488 750 
Q 750 597 1062 519 
Q 1375 441 1716 441 
Q 2309 441 2620 675 
Q 2931 909 2931 1356 
Q 2931 1769 2642 2001 
Q 2353 2234 1838 2234 
L 1294 2234 
L 1294 2753 
L 1863 2753 
Q 2328 2753 2575 2939 
Q 2822 3125 2822 3475 
Q 2822 3834 2567 4026 
Q 2313 4219 1838 4219 
Q 1578 4219 1281 4162 
Q 984 4106 628 3988 
L 628 4550 
Q 988 4650 1302 4700 
Q 1616 4750 1894 4750 
Q 2613 4750 3031 4423 
Q 3450 4097 3450 3541 
Q 3450 3153 3228 2886 
Q 3006 2619 2597 2516 
z
" transform="scale(0.015625)"/>
       </defs>
       <use xlink:href="#DejaVuSans-33"/>
      </g>
     </g>
    </g>
    <g id="xtick_5">
     <g id="line2d_5">
      <g>
       <use xlink:href="#mf024e6ceb6" x="359.838169" y="302.2" style="stroke: #000000; stroke-width: 0.8"/>
      </g>
     </g>
     <g id="text_5">
      <!-- 4 -->
      <g transform="translate(356.656919 316.798437) scale(0.1 -0.1)">
       <defs>
        <path id="DejaVuSans-34" d="M 2419 4116 
L 825 1625 
L 2419 1625 
L 2419 4116 
z
M 2253 4666 
L 3047 4666 
L 3047 1625 
L 3713 1625 
L 3713 1100 
L 3047 1100 
L 3047 0 
L 2419 0 
L 2419 1100 
L 313 1100 
L 313 1709 
L 2253 4666 
z
" transform="scale(0.015625)"/>
       </defs>
       <use xlink:href="#DejaVuSans-34"/>
      </g>
     </g>
    </g>
    <g id="xtick_6">
     <g id="line2d_6">
      <g>
       <use xlink:href="#mf024e6ceb6" x="432.112182" y="302.2" style="stroke: #000000; stroke-width: 0.8"/>
      </g>
     </g>
     <g id="text_6">
      <!-- 5 -->
      <g transform="translate(428.930932 316.798437) scale(0.1 -0.1)">
       <defs>
        <path id="DejaVuSans-35" d="M 691 4666 
L 3169 4666 
L 3169 4134 
L 1269 4134 
L 1269 2991 
Q 1406 3038 1543 3061 
Q 1681 3084 1819 3084 
Q 2600 3084 3056 2656 
Q 3513 2228 3513 1497 
Q 3513 744 3044 326 
Q 2575 -91 1722 -91 
Q 1428 -91 1123 -41 
Q 819 9 494 109 
L 494 744 
Q 775 591 1075 516 
Q 1375 441 1709 441 
Q 2250 441 2565 725 
Q 2881 1009 2881 1497 
Q 2881 1984 2565 2268 
Q 2250 2553 1709 2553 
Q 1456 2553 1204 2497 
Q 953 2441 691 2322 
L 691 4666 
z
" transform="scale(0.015625)"/>
       </defs>
       <use xlink:href="#DejaVuSans-35"/>
      </g>
     </g>
    </g>
    <g id="text_7">
     <!-- $W$ (m/hour) -->
     <g transform="translate(224.784 330.476562) scale(0.1 -0.1)">
      <defs>
       <path id="DejaVuSans-Oblique-57" d="M 616 4666 
L 1228 4666 
L 1453 697 
L 3213 4666 
L 3916 4666 
L 4147 697 
L 5888 4666 
L 6528 4666 
L 4453 0 
L 3659 0 
L 3444 3891 
L 1697 0 
L 903 0 
L 616 4666 
z
" transform="scale(0.015625)"/>
       <path id="DejaVuSans-20" transform="scale(0.015625)"/>
       <path id="DejaVuSans-28" d="M 1984 4856 
Q 1566 4138 1362 3434 
Q 1159 2731 1159 2009 
Q 1159 1288 1364 580 
Q 1569 -128 1984 -844 
L 1484 -844 
Q 1016 -109 783 600 
Q 550 1309 550 2009 
Q 550 2706 781 3412 
Q 1013 4119 1484 4856 
L 1984 4856 
z
" transform="scale(0.015625)"/>
       <path id="DejaVuSans-6d" d="M 3328 2828 
Q 3544 3216 3844 3400 
Q 4144 3584 4550 3584 
Q 5097 3584 5394 3201 
Q 5691 2819 5691 2113 
L 5691 0 
L 5113 0 
L 5113 2094 
Q 5113 2597 4934 2840 
Q 4756 3084 4391 3084 
Q 3944 3084 3684 2787 
Q 3425 2491 3425 1978 
L 3425 0 
L 2847 0 
L 2847 2094 
Q 2847 2600 2669 2842 
Q 2491 3084 2119 3084 
Q 1678 3084 1418 2786 
Q 1159 2488 1159 1978 
L 1159 0 
L 581 0 
L 581 3500 
L 1159 3500 
L 1159 2956 
Q 1356 3278 1631 3431 
Q 1906 3584 2284 3584 
Q 2666 3584 2933 3390 
Q 3200 3197 3328 2828 
z
" transform="scale(0.015625)"/>
       <path id="DejaVuSans-2f" d="M 1625 4666 
L 2156 4666 
L 531 -594 
L 0 -594 
L 1625 4666 
z
" transform="scale(0.015625)"/>
       <path id="DejaVuSans-68" d="M 3513 2113 
L 3513 0 
L 2938 0 
L 2938 2094 
Q 2938 2591 2744 2837 
Q 2550 3084 2163 3084 
Q 1697 3084 1428 2787 
Q 1159 2491 1159 1978 
L 1159 0 
L 581 0 
L 581 4863 
L 1159 4863 
L 1159 2956 
Q 1366 3272 1645 3428 
Q 1925 3584 2291 3584 
Q 2894 3584 3203 3211 
Q 3513 2838 3513 2113 
z
" transform="scale(0.015625)"/>
       <path id="DejaVuSans-6f" d="M 1959 3097 
Q 1497 3097 1228 2736 
Q 959 2375 959 1747 
Q 959 1119 1226 758 
Q 1494 397 1959 397 
Q 2419 397 2687 759 
Q 2956 1122 2956 1747 
Q 2956 2369 2687 2733 
Q 2419 3097 1959 3097 
z
M 1959 3584 
Q 2709 3584 3137 3096 
Q 3566 2609 3566 1747 
Q 3566 888 3137 398 
Q 2709 -91 1959 -91 
Q 1206 -91 779 398 
Q 353 888 353 1747 
Q 353 2609 779 3096 
Q 1206 3584 1959 3584 
z
" transform="scale(0.015625)"/>
       <path id="DejaVuSans-75" d="M 544 1381 
L 544 3500 
L 1119 3500 
L 1119 1403 
Q 1119 906 1312 657 
Q 1506 409 1894 409 
Q 2359 409 2629 706 
Q 2900 1003 2900 1516 
L 2900 3500 
L 3475 3500 
L 3475 0 
L 2900 0 
L 2900 538 
Q 2691 219 2414 64 
Q 2138 -91 1772 -91 
Q 1169 -91 856 284 
Q 544 659 544 1381 
z
M 1991 3584 
L 1991 3584 
z
" transform="scale(0.015625)"/>
       <path id="DejaVuSans-72" d="M 2631 2963 
Q 2534 3019 2420 3045 
Q 2306 3072 2169 3072 
Q 1681 3072 1420 2755 
Q 1159 2438 1159 1844 
L 1159 0 
L 581 0 
L 581 3500 
L 1159 3500 
L 1159 2956 
Q 1341 3275 1631 3429 
Q 1922 3584 2338 3584 
Q 2397 3584 2469 3576 
Q 2541 3569 2628 3553 
L 2631 2963 
z
" transform="scale(0.015625)"/>
       <path id="DejaVuSans-29" d="M 513 4856 
L 1013 4856 
Q 1481 4119 1714 3412 
Q 1947 2706 1947 2009 
Q 1947 1309 1714 600 
Q 1481 -109 1013 -844 
L 513 -844 
Q 928 -128 1133 580 
Q 1338 1288 1338 2009 
Q 1338 2731 1133 3434 
Q 928 4138 513 4856 
z
" transform="scale(0.015625)"/>
      </defs>
      <use xlink:href="#DejaVuSans-Oblique-57" transform="translate(0 0.015625)"/>
      <use xlink:href="#DejaVuSans-20" transform="translate(98.876953 0.015625)"/>
      <use xlink:href="#DejaVuSans-28" transform="translate(130.664062 0.015625)"/>
      <use xlink:href="#DejaVuSans-6d" transform="translate(169.677734 0.015625)"/>
      <use xlink:href="#DejaVuSans-2f" transform="translate(267.089844 0.015625)"/>
      <use xlink:href="#DejaVuSans-68" transform="translate(300.78125 0.015625)"/>
      <use xlink:href="#DejaVuSans-6f" transform="translate(364.160156 0.015625)"/>
      <use xlink:href="#DejaVuSans-75" transform="translate(425.341797 0.015625)"/>
      <use xlink:href="#DejaVuSans-72" transform="translate(488.720703 0.015625)"/>
      <use xlink:href="#DejaVuSans-29" transform="translate(529.833984 0.015625)"/>
     </g>
    </g>
   </g>
   <g id="matplotlib.axis_2">
    <g id="ytick_1">
     <g id="line2d_7">
      <defs>
       <path id="ma2327f8a47" d="M 0 0 
L -3.5 0 
" style="stroke: #000000; stroke-width: 0.8"/>
      </defs>
      <g>
       <use xlink:href="#ma2327f8a47" x="56.468" y="273.290587" style="stroke: #000000; stroke-width: 0.8"/>
      </g>
     </g>
     <g id="text_8">
      <!-- 2.5 -->
      <g transform="translate(33.564875 277.089806) scale(0.1 -0.1)">
       <defs>
        <path id="DejaVuSans-2e" d="M 684 794 
L 1344 794 
L 1344 0 
L 684 0 
L 684 794 
z
" transform="scale(0.015625)"/>
       </defs>
       <use xlink:href="#DejaVuSans-32"/>
       <use xlink:href="#DejaVuSans-2e" transform="translate(63.623047 0)"/>
       <use xlink:href="#DejaVuSans-35" transform="translate(95.410156 0)"/>
      </g>
     </g>
    </g>
    <g id="ytick_2">
     <g id="line2d_8">
      <g>
       <use xlink:href="#ma2327f8a47" x="56.468" y="239.504704" style="stroke: #000000; stroke-width: 0.8"/>
      </g>
     </g>
     <g id="text_9">
      <!-- 5.0 -->
      <g transform="translate(33.564875 243.303923) scale(0.1 -0.1)">
       <use xlink:href="#DejaVuSans-35"/>
       <use xlink:href="#DejaVuSans-2e" transform="translate(63.623047 0)"/>
       <use xlink:href="#DejaVuSans-30" transform="translate(95.410156 0)"/>
      </g>
     </g>
    </g>
    <g id="ytick_3">
     <g id="line2d_9">
      <g>
       <use xlink:href="#ma2327f8a47" x="56.468" y="205.718821" style="stroke: #000000; stroke-width: 0.8"/>
      </g>
     </g>
     <g id="text_10">
      <!-- 7.5 -->
      <g transform="translate(33.564875 209.51804) scale(0.1 -0.1)">
       <defs>
        <path id="DejaVuSans-37" d="M 525 4666 
L 3525 4666 
L 3525 4397 
L 1831 0 
L 1172 0 
L 2766 4134 
L 525 4134 
L 525 4666 
z
" transform="scale(0.015625)"/>
       </defs>
       <use xlink:href="#DejaVuSans-37"/>
       <use xlink:href="#DejaVuSans-2e" transform="translate(63.623047 0)"/>
       <use xlink:href="#DejaVuSans-35" transform="translate(95.410156 0)"/>
      </g>
     </g>
    </g>
    <g id="ytick_4">
     <g id="line2d_10">
      <g>
       <use xlink:href="#ma2327f8a47" x="56.468" y="171.932938" style="stroke: #000000; stroke-width: 0.8"/>
      </g>
     </g>
     <g id="text_11">
      <!-- 10.0 -->
      <g transform="translate(27.202375 175.732157) scale(0.1 -0.1)">
       <use xlink:href="#DejaVuSans-31"/>
       <use xlink:href="#DejaVuSans-30" transform="translate(63.623047 0)"/>
       <use xlink:href="#DejaVuSans-2e" transform="translate(127.246094 0)"/>
       <use xlink:href="#DejaVuSans-30" transform="translate(159.033203 0)"/>
      </g>
     </g>
    </g>
    <g id="ytick_5">
     <g id="line2d_11">
      <g>
       <use xlink:href="#ma2327f8a47" x="56.468" y="138.147055" style="stroke: #000000; stroke-width: 0.8"/>
      </g>
     </g>
     <g id="text_12">
      <!-- 12.5 -->
      <g transform="translate(27.202375 141.946274) scale(0.1 -0.1)">
       <use xlink:href="#DejaVuSans-31"/>
       <use xlink:href="#DejaVuSans-32" transform="translate(63.623047 0)"/>
       <use xlink:href="#DejaVuSans-2e" transform="translate(127.246094 0)"/>
       <use xlink:href="#DejaVuSans-35" transform="translate(159.033203 0)"/>
      </g>
     </g>
    </g>
    <g id="ytick_6">
     <g id="line2d_12">
      <g>
       <use xlink:href="#ma2327f8a47" x="56.468" y="104.361172" style="stroke: #000000; stroke-width: 0.8"/>
      </g>
     </g>
     <g id="text_13">
      <!-- 15.0 -->
      <g transform="translate(27.202375 108.160391) scale(0.1 -0.1)">
       <use xlink:href="#DejaVuSans-31"/>
       <use xlink:href="#DejaVuSans-35" transform="translate(63.623047 0)"/>
       <use xlink:href="#DejaVuSans-2e" transform="translate(127.246094 0)"/>
       <use xlink:href="#DejaVuSans-30" transform="translate(159.033203 0)"/>
      </g>
     </g>
    </g>
    <g id="ytick_7">
     <g id="line2d_13">
      <g>
       <use xlink:href="#ma2327f8a47" x="56.468" y="70.575289" style="stroke: #000000; stroke-width: 0.8"/>
      </g>
     </g>
     <g id="text_14">
      <!-- 17.5 -->
      <g transform="translate(27.202375 74.374508) scale(0.1 -0.1)">
       <use xlink:href="#DejaVuSans-31"/>
       <use xlink:href="#DejaVuSans-37" transform="translate(63.623047 0)"/>
       <use xlink:href="#DejaVuSans-2e" transform="translate(127.246094 0)"/>
       <use xlink:href="#DejaVuSans-35" transform="translate(159.033203 0)"/>
      </g>
     </g>
    </g>
    <g id="ytick_8">
     <g id="line2d_14">
      <g>
       <use xlink:href="#ma2327f8a47" x="56.468" y="36.789406" style="stroke: #000000; stroke-width: 0.8"/>
      </g>
     </g>
     <g id="text_15">
      <!-- 20.0 -->
      <g transform="translate(27.202375 40.588625) scale(0.1 -0.1)">
       <use xlink:href="#DejaVuSans-32"/>
       <use xlink:href="#DejaVuSans-30" transform="translate(63.623047 0)"/>
       <use xlink:href="#DejaVuSans-2e" transform="translate(127.246094 0)"/>
       <use xlink:href="#DejaVuSans-30" transform="translate(159.033203 0)"/>
      </g>
     </g>
    </g>
    <g id="text_16">
     <!-- $Q_{lc}$ (kW) -->
     <g transform="translate(21.122688 176.8) rotate(-90) scale(0.1 -0.1)">
      <defs>
       <path id="DejaVuSans-Oblique-51" d="M 2309 -84 
Q 2275 -88 2237 -89 
Q 2200 -91 2125 -91 
Q 1250 -91 756 411 
Q 263 913 263 1797 
Q 263 2319 452 2844 
Q 641 3369 978 3788 
Q 1369 4269 1858 4509 
Q 2347 4750 2938 4750 
Q 3794 4750 4287 4245 
Q 4781 3741 4781 2869 
Q 4781 1928 4265 1147 
Q 3750 366 2919 44 
L 3553 -825 
L 2847 -825 
L 2309 -84 
z
M 2919 4238 
Q 2400 4238 2003 3986 
Q 1606 3734 1313 3219 
Q 1125 2891 1026 2522 
Q 928 2153 928 1778 
Q 928 1128 1239 775 
Q 1550 422 2119 422 
Q 2631 422 3032 676 
Q 3434 931 3719 1434 
Q 3909 1772 4009 2142 
Q 4109 2513 4109 2881 
Q 4109 3528 3796 3883 
Q 3484 4238 2919 4238 
z
" transform="scale(0.015625)"/>
       <path id="DejaVuSans-Oblique-6c" d="M 1172 4863 
L 1747 4863 
L 800 0 
L 225 0 
L 1172 4863 
z
" transform="scale(0.015625)"/>
       <path id="DejaVuSans-Oblique-63" d="M 3431 3366 
L 3316 2797 
Q 3109 2947 2876 3022 
Q 2644 3097 2394 3097 
Q 2119 3097 1870 3000 
Q 1622 2903 1453 2725 
Q 1184 2453 1037 2087 
Q 891 1722 891 1331 
Q 891 859 1127 628 
Q 1363 397 1844 397 
Q 2081 397 2348 469 
Q 2616 541 2906 684 
L 2797 116 
Q 2547 13 2283 -39 
Q 2019 -91 1741 -91 
Q 1044 -91 669 257 
Q 294 606 294 1253 
Q 294 1797 489 2255 
Q 684 2713 1069 3078 
Q 1331 3328 1684 3456 
Q 2038 3584 2456 3584 
Q 2700 3584 2940 3529 
Q 3181 3475 3431 3366 
z
" transform="scale(0.015625)"/>
       <path id="DejaVuSans-6b" d="M 581 4863 
L 1159 4863 
L 1159 1991 
L 2875 3500 
L 3609 3500 
L 1753 1863 
L 3688 0 
L 2938 0 
L 1159 1709 
L 1159 0 
L 581 0 
L 581 4863 
z
" transform="scale(0.015625)"/>
       <path id="DejaVuSans-57" d="M 213 4666 
L 850 4666 
L 1831 722 
L 2809 4666 
L 3519 4666 
L 4500 722 
L 5478 4666 
L 6119 4666 
L 4947 0 
L 4153 0 
L 3169 4050 
L 2175 0 
L 1381 0 
L 213 4666 
z
" transform="scale(0.015625)"/>
      </defs>
      <use xlink:href="#DejaVuSans-Oblique-51" transform="translate(0 0.015625)"/>
      <use xlink:href="#DejaVuSans-Oblique-6c" transform="translate(78.710938 -16.390625) scale(0.7)"/>
      <use xlink:href="#DejaVuSans-Oblique-63" transform="translate(98.15918 -16.390625) scale(0.7)"/>
      <use xlink:href="#DejaVuSans-20" transform="translate(139.379883 0.015625)"/>
      <use xlink:href="#DejaVuSans-28" transform="translate(171.166992 0.015625)"/>
      <use xlink:href="#DejaVuSans-6b" transform="translate(210.180664 0.015625)"/>
      <use xlink:href="#DejaVuSans-57" transform="translate(268.09082 0.015625)"/>
      <use xlink:href="#DejaVuSans-29" transform="translate(366.967773 0.015625)"/>
     </g>
    </g>
   </g>
   <g id="line2d_15">
    <path d="M 74.355818 249.151449 
L 81.656968 231.725346 
L 88.958119 217.416408 
L 96.259269 205.59138 
L 103.560419 195.686657 
L 110.86157 187.222059 
L 118.16272 179.807079 
L 125.46387 173.139959 
L 132.76502 167.000344 
L 140.066171 161.237683 
L 147.367321 155.756685 
L 154.668471 150.502169 
L 161.969622 145.44557 
L 169.270772 140.574048 
L 176.571922 135.880613 
L 183.873072 131.358525 
L 191.174223 126.998301 
L 198.475373 122.787011 
L 205.776523 118.70921 
L 213.077673 114.748708 
L 220.378824 110.890528 
L 227.679974 107.12245 
L 234.981124 103.435828 
L 242.282275 99.825571 
L 249.583425 96.289381 
L 256.884575 92.826573 
L 264.185725 89.436698 
L 271.486876 86.117968 
L 278.788026 82.867074 
L 286.089176 79.678904 
L 293.390327 76.547063 
L 300.691477 73.46487 
L 307.992627 70.426548 
L 315.293777 67.428296 
L 322.594928 64.468936 
L 329.896078 61.549904 
L 337.197228 58.674464 
L 344.498378 55.846262 
L 351.799529 53.067848 
L 359.100679 50.338436 
L 366.401829 47.65279 
L 373.70298 45.0008 
L 381.00413 42.368542 
L 388.30528 39.741341 
L 395.60643 37.108373 
L 402.907581 34.468947 
L 410.208731 31.839961 
L 417.509881 29.263777 
L 424.811032 26.815648 
L 432.112182 24.609699 
" clip-path="url(#p5560474936)" style="fill: none; stroke: #1f77b4; stroke-width: 1.5; stroke-linecap: square"/>
   </g>
   <g id="line2d_16">
    <path d="M 74.355818 253.284825 
L 81.656968 237.241241 
L 88.958119 224.071235 
L 96.259269 213.190489 
L 103.560419 204.079271 
L 110.86157 196.295999 
L 118.16272 189.47848 
L 125.46387 183.350066 
L 132.76502 177.708239 
L 140.066171 172.413225 
L 147.367321 167.376979 
L 154.668471 162.549093 
L 161.969622 157.903476 
L 169.270772 153.427907 
L 176.571922 149.115964 
L 183.873072 144.961448 
L 191.174223 140.955575 
L 198.475373 137.086451 
L 205.776523 133.340041 
L 213.077673 129.701503 
L 220.378824 126.157102 
L 227.679974 122.695618 
L 234.981124 119.309115 
L 242.282275 115.992898 
L 249.583425 112.744838 
L 256.884575 109.564216 
L 264.185725 106.450464 
L 271.486876 103.402084 
L 278.788026 100.41597 
L 286.089176 97.487397 
L 293.390327 94.610523 
L 300.691477 91.779308 
L 307.992627 88.988583 
L 315.293777 86.234503 
L 322.594928 83.516185 
L 329.896078 80.835027 
L 337.197228 78.19409 
L 344.498378 75.596824 
L 351.799529 73.045418 
L 359.100679 70.539071 
L 366.401829 68.072825 
L 373.70298 65.637268 
L 381.00413 63.219592 
L 388.30528 60.806249 
L 395.60643 58.387283 
L 402.907581 55.962132 
L 410.208731 53.546499 
L 417.509881 51.17959 
L 424.811032 48.930944 
L 432.112182 46.905899 
" clip-path="url(#p5560474936)" style="fill: none; stroke: #ff7f0e; stroke-width: 1.5; stroke-linecap: square"/>
   </g>
   <g id="line2d_17">
    <path d="M 74.355818 257.750787 
L 81.656968 243.164172 
L 88.958119 231.191748 
L 96.259269 221.301639 
L 103.560419 213.02215 
L 110.86157 205.950022 
L 118.16272 199.75803 
L 125.46387 194.193279 
L 132.76502 189.070998 
L 140.066171 184.264475 
L 147.367321 179.693544 
L 154.668471 175.311825 
L 161.969622 171.095176 
L 169.270772 167.032725 
L 176.571922 163.118599 
L 183.873072 159.34724 
L 191.174223 155.710841 
L 198.475373 152.198735 
L 205.776523 148.798141 
L 213.077673 145.495635 
L 220.378824 142.278768 
L 227.679974 139.137357 
L 234.981124 136.064165 
L 242.282275 133.054893 
L 249.583425 130.107553 
L 256.884575 127.221441 
L 264.185725 124.396044 
L 271.486876 121.630022 
L 278.788026 118.920479 
L 286.089176 116.263136 
L 293.390327 113.652674 
L 300.691477 111.083566 
L 307.992627 108.55094 
L 315.293777 106.051798 
L 322.594928 103.585363 
L 329.896078 101.152826 
L 337.197228 98.756903 
L 344.498378 96.400705 
L 351.799529 94.086165 
L 359.100679 91.812514 
L 366.401829 89.575196 
L 373.70298 87.365615 
L 381.00413 85.172109 
L 388.30528 82.982375 
L 395.60643 80.7874 
L 402.907581 78.586732 
L 410.208731 76.394705 
L 417.509881 74.246996 
L 424.811032 72.20679 
L 432.112182 70.369712 
" clip-path="url(#p5560474936)" style="fill: none; stroke: #2ca02c; stroke-width: 1.5; stroke-linecap: square"/>
   </g>
   <g id="line2d_18">
    <path d="M 74.355818 264.199341 
L 81.656968 251.657717 
L 88.958119 241.363719 
L 96.259269 232.864261 
L 103.560419 225.749748 
L 110.86157 219.675504 
L 118.16272 214.359765 
L 125.46387 209.58415 
L 132.76502 205.189223 
L 140.066171 201.065956 
L 147.367321 197.144978 
L 154.668471 193.386239 
L 161.969622 189.769124 
L 169.270772 186.284042 
L 176.571922 182.92599 
L 183.873072 179.690298 
L 191.174223 176.570389 
L 198.475373 173.557234 
L 205.776523 170.639958 
L 213.077673 167.807105 
L 220.378824 165.048006 
L 227.679974 162.353896 
L 234.981124 159.718504 
L 242.282275 157.138065 
L 249.583425 154.610787 
L 256.884575 152.135991 
L 264.185725 149.713142 
L 271.486876 147.341091 
L 278.788026 145.017441 
L 286.089176 142.738314 
L 293.390327 140.499365 
L 300.691477 138.295913 
L 307.992627 136.123942 
L 315.293777 133.980842 
L 322.594928 131.865855 
L 329.896078 129.78005 
L 337.197228 127.725778 
L 344.498378 125.705657 
L 351.799529 123.721278 
L 359.100679 121.771938 
L 366.401829 119.853675 
L 373.70298 117.959099 
L 381.00413 116.078227 
L 388.30528 114.200558 
L 395.60643 112.318433 
L 402.907581 110.43153 
L 410.208731 108.55216 
L 417.509881 106.710846 
L 424.811032 104.961539 
L 432.112182 103.385783 
" clip-path="url(#p5560474936)" style="fill: none; stroke: #d62728; stroke-width: 1.5; stroke-linecap: square"/>
   </g>
   <g id="line2d_19">
    <path d="M 74.355818 269.395427 
L 81.656968 258.461495 
L 88.958119 249.488685 
L 96.259269 242.078784 
L 103.560419 235.878184 
L 110.86157 230.585285 
L 118.16272 225.95465 
L 125.46387 221.795935 
L 132.76502 217.969815 
L 140.066171 214.380693 
L 147.367321 210.967845 
L 154.668471 207.696206 
L 161.969622 204.547727 
L 169.270772 201.513935 
L 176.571922 198.590592 
L 183.873072 195.773713 
L 191.174223 193.057658 
L 198.475373 190.434643 
L 205.776523 187.895304 
L 213.077673 185.429701 
L 220.378824 183.028486 
L 227.679974 180.684 
L 234.981124 178.390681 
L 242.282275 176.145239 
L 249.583425 173.946069 
L 256.884575 171.79253 
L 264.185725 169.684124 
L 271.486876 167.619777 
L 278.788026 165.597409 
L 286.089176 163.61388 
L 293.390327 161.665303 
L 300.691477 159.747647 
L 307.992627 157.857453 
L 315.293777 155.992475 
L 322.594928 154.152063 
L 329.896078 152.337136 
L 337.197228 150.549715 
L 344.498378 148.79204 
L 351.799529 147.065457 
L 359.100679 145.36931 
L 366.401829 143.700149 
L 373.70298 142.051558 
L 381.00413 140.414891 
L 388.30528 138.781069 
L 395.60643 137.143492 
L 402.907581 135.50193 
L 410.208731 133.867085 
L 417.509881 132.2654 
L 424.811032 130.743548 
L 432.112182 129.371989 
" clip-path="url(#p5560474936)" style="fill: none; stroke: #9467bd; stroke-width: 1.5; stroke-linecap: square"/>
   </g>
   <g id="line2d_20">
    <path d="M 74.355818 274.89435 
L 81.656968 265.6286 
L 88.958119 258.024587 
L 96.259269 251.745883 
L 103.560419 246.49328 
L 110.86157 242.011007 
L 118.16272 238.090457 
L 125.46387 234.570222 
L 132.76502 231.332066 
L 140.066171 228.294803 
L 147.367321 225.406844 
L 154.668471 222.63839 
L 161.969622 219.974117 
L 169.270772 217.406934 
L 176.571922 214.933216 
L 183.873072 212.549622 
L 191.174223 210.251422 
L 198.475373 208.032062 
L 205.776523 205.883597 
L 213.077673 203.797612 
L 220.378824 201.766231 
L 227.679974 199.782944 
L 234.981124 197.843058 
L 242.282275 195.943711 
L 249.583425 194.083503 
L 256.884575 192.261867 
L 264.185725 190.47837 
L 271.486876 188.7321 
L 278.788026 187.021306 
L 286.089176 185.343346 
L 293.390327 183.694951 
L 300.691477 182.072734 
L 307.992627 180.473785 
L 315.293777 178.896215 
L 322.594928 177.339478 
L 329.896078 175.804347 
L 337.197228 174.292514 
L 344.498378 172.805853 
L 351.799529 171.345482 
L 359.100679 169.910814 
L 366.401829 168.498925 
L 373.70298 167.104411 
L 381.00413 165.719989 
L 388.30528 164.338029 
L 395.60643 162.953009 
L 402.907581 161.564777 
L 410.208731 160.182394 
L 417.509881 158.828149 
L 424.811032 157.541314 
L 432.112182 156.381081 
" clip-path="url(#p5560474936)" style="fill: none; stroke: #8c564b; stroke-width: 1.5; stroke-linecap: square"/>
   </g>
   <g id="line2d_21">
    <path d="M 74.355818 280.694312 
L 81.656968 273.154214 
L 88.958119 266.967221 
L 96.259269 261.860147 
L 103.560419 257.588682 
L 110.86157 253.944352 
L 118.16272 250.75736 
L 125.46387 247.896163 
L 132.76502 245.264433 
L 140.066171 242.796054 
L 147.367321 240.449096 
L 154.668471 238.199297 
L 161.969622 236.034229 
L 169.270772 233.948168 
L 176.571922 231.93819 
L 183.873072 230.001591 
L 191.174223 228.134514 
L 198.475373 226.331605 
L 205.776523 224.586372 
L 213.077673 222.891939 
L 220.378824 221.241875 
L 227.679974 219.630868 
L 234.981124 218.055096 
L 242.282275 216.512234 
L 249.583425 215.001153 
L 256.884575 213.521404 
L 264.185725 212.072646 
L 271.486876 210.654146 
L 278.788026 209.264484 
L 286.089176 207.901512 
L 293.390327 206.56257 
L 300.691477 205.244899 
L 307.992627 203.946133 
L 315.293777 202.664737 
L 322.594928 201.400268 
L 329.896078 200.153359 
L 337.197228 198.925387 
L 344.498378 197.717873 
L 351.799529 196.531723 
L 359.100679 195.36646 
L 366.401829 194.219696 
L 373.70298 193.087049 
L 381.00413 191.962593 
L 388.30528 190.840118 
L 395.60643 189.715163 
L 402.907581 188.587653 
L 410.208731 187.464999 
L 417.509881 186.365345 
L 424.811032 185.320566 
L 432.112182 184.378608 
" clip-path="url(#p5560474936)" style="fill: none; stroke: #e377c2; stroke-width: 1.5; stroke-linecap: square"/>
   </g>
   <g id="line2d_22">
    <path d="M 74.355818 288.886357 
L 81.656968 283.730099 
L 88.958119 279.503832 
L 96.259269 276.01867 
L 103.560419 273.10599 
L 110.86157 270.622055 
L 118.16272 268.45008 
L 125.46387 266.499817 
L 132.76502 264.705442 
L 140.066171 263.021991 
L 147.367321 261.421101 
L 154.668471 259.886518 
L 161.969622 258.410039 
L 169.270772 256.98791 
L 176.571922 255.618159 
L 183.873072 254.298859 
L 191.174223 253.027222 
L 198.475373 251.7994 
L 205.776523 250.610787 
L 213.077673 249.456553 
L 220.378824 248.332244 
L 227.679974 247.234243 
L 234.981124 246.160014 
L 242.282275 245.108089 
L 249.583425 244.07783 
L 256.884575 243.069052 
L 264.185725 242.081605 
L 271.486876 241.115026 
L 278.788026 240.16833 
L 286.089176 239.23999 
L 293.390327 238.328109 
L 300.691477 237.430717 
L 307.992627 236.54613 
L 315.293777 235.673264 
L 322.594928 234.811824 
L 329.896078 233.962282 
L 337.197228 233.12564 
L 344.498378 232.303001 
L 351.799529 231.495021 
L 359.100679 230.701375 
L 366.401829 229.920379 
L 373.70298 229.148926 
L 381.00413 228.382852 
L 388.30528 227.617823 
L 395.60643 226.85074 
L 402.907581 226.081595 
L 410.208731 225.315627 
L 417.509881 224.56555 
L 424.811032 223.853583 
L 432.112182 223.212987 
" clip-path="url(#p5560474936)" style="fill: none; stroke: #7f7f7f; stroke-width: 1.5; stroke-linecap: square"/>
   </g>
   <g id="patch_3">
    <path d="M 56.468 302.2 
L 56.468 10.8 
" style="fill: none; stroke: #000000; stroke-width: 0.8; stroke-linejoin: miter; stroke-linecap: square"/>
   </g>
   <g id="patch_4">
    <path d="M 450 302.2 
L 450 10.8 
" style="fill: none; stroke: #000000; stroke-width: 0.8; stroke-linejoin: miter; stroke-linecap: square"/>
   </g>
   <g id="patch_5">
    <path d="M 56.468 302.2 
L 450 302.2 
" style="fill: none; stroke: #000000; stroke-width: 0.8; stroke-linejoin: miter; stroke-linecap: square"/>
   </g>
   <g id="patch_6">
    <path d="M 56.468 10.8 
L 450 10.8 
" style="fill: none; stroke: #000000; stroke-width: 0.8; stroke-linejoin: miter; stroke-linecap: square"/>
   </g>
   <g id="legend_1">
    <g id="patch_7">
     <path d="M 63.468 150.903125 
L 162.302375 150.903125 
Q 164.302375 150.903125 164.302375 148.903125 
L 164.302375 17.8 
Q 164.302375 15.8 162.302375 15.8 
L 63.468 15.8 
Q 61.468 15.8 61.468 17.8 
L 61.468 148.903125 
Q 61.468 150.903125 63.468 150.903125 
z
" style="fill: #ffffff; opacity: 0.8; stroke: #cccccc; stroke-linejoin: miter"/>
    </g>
    <g id="line2d_23">
     <path d="M 65.468 23.898438 
L 75.468 23.898438 
L 85.468 23.898438 
" style="fill: none; stroke: #1f77b4; stroke-width: 1.5; stroke-linecap: square"/>
    </g>
    <g id="text_17">
     <!-- Ts=80 K -->
     <g transform="translate(93.468 27.398438) scale(0.1 -0.1)">
      <defs>
       <path id="DejaVuSans-54" d="M -19 4666 
L 3928 4666 
L 3928 4134 
L 2272 4134 
L 2272 0 
L 1638 0 
L 1638 4134 
L -19 4134 
L -19 4666 
z
" transform="scale(0.015625)"/>
       <path id="DejaVuSans-73" d="M 2834 3397 
L 2834 2853 
Q 2591 2978 2328 3040 
Q 2066 3103 1784 3103 
Q 1356 3103 1142 2972 
Q 928 2841 928 2578 
Q 928 2378 1081 2264 
Q 1234 2150 1697 2047 
L 1894 2003 
Q 2506 1872 2764 1633 
Q 3022 1394 3022 966 
Q 3022 478 2636 193 
Q 2250 -91 1575 -91 
Q 1294 -91 989 -36 
Q 684 19 347 128 
L 347 722 
Q 666 556 975 473 
Q 1284 391 1588 391 
Q 1994 391 2212 530 
Q 2431 669 2431 922 
Q 2431 1156 2273 1281 
Q 2116 1406 1581 1522 
L 1381 1569 
Q 847 1681 609 1914 
Q 372 2147 372 2553 
Q 372 3047 722 3315 
Q 1072 3584 1716 3584 
Q 2034 3584 2315 3537 
Q 2597 3491 2834 3397 
z
" transform="scale(0.015625)"/>
       <path id="DejaVuSans-3d" d="M 678 2906 
L 4684 2906 
L 4684 2381 
L 678 2381 
L 678 2906 
z
M 678 1631 
L 4684 1631 
L 4684 1100 
L 678 1100 
L 678 1631 
z
" transform="scale(0.015625)"/>
       <path id="DejaVuSans-38" d="M 2034 2216 
Q 1584 2216 1326 1975 
Q 1069 1734 1069 1313 
Q 1069 891 1326 650 
Q 1584 409 2034 409 
Q 2484 409 2743 651 
Q 3003 894 3003 1313 
Q 3003 1734 2745 1975 
Q 2488 2216 2034 2216 
z
M 1403 2484 
Q 997 2584 770 2862 
Q 544 3141 544 3541 
Q 544 4100 942 4425 
Q 1341 4750 2034 4750 
Q 2731 4750 3128 4425 
Q 3525 4100 3525 3541 
Q 3525 3141 3298 2862 
Q 3072 2584 2669 2484 
Q 3125 2378 3379 2068 
Q 3634 1759 3634 1313 
Q 3634 634 3220 271 
Q 2806 -91 2034 -91 
Q 1263 -91 848 271 
Q 434 634 434 1313 
Q 434 1759 690 2068 
Q 947 2378 1403 2484 
z
M 1172 3481 
Q 1172 3119 1398 2916 
Q 1625 2713 2034 2713 
Q 2441 2713 2670 2916 
Q 2900 3119 2900 3481 
Q 2900 3844 2670 4047 
Q 2441 4250 2034 4250 
Q 1625 4250 1398 4047 
Q 1172 3844 1172 3481 
z
" transform="scale(0.015625)"/>
       <path id="DejaVuSans-4b" d="M 628 4666 
L 1259 4666 
L 1259 2694 
L 3353 4666 
L 4166 4666 
L 1850 2491 
L 4331 0 
L 3500 0 
L 1259 2247 
L 1259 0 
L 628 0 
L 628 4666 
z
" transform="scale(0.015625)"/>
      </defs>
      <use xlink:href="#DejaVuSans-54"/>
      <use xlink:href="#DejaVuSans-73" transform="translate(44.583984 0)"/>
      <use xlink:href="#DejaVuSans-3d" transform="translate(96.683594 0)"/>
      <use xlink:href="#DejaVuSans-38" transform="translate(180.472656 0)"/>
      <use xlink:href="#DejaVuSans-30" transform="translate(244.095703 0)"/>
      <use xlink:href="#DejaVuSans-20" transform="translate(307.71875 0)"/>
      <use xlink:href="#DejaVuSans-4b" transform="translate(339.505859 0)"/>
     </g>
    </g>
    <g id="line2d_24">
     <path d="M 65.468 38.576563 
L 75.468 38.576563 
L 85.468 38.576563 
" style="fill: none; stroke: #ff7f0e; stroke-width: 1.5; stroke-linecap: square"/>
    </g>
    <g id="text_18">
     <!-- Ts=100 K -->
     <g transform="translate(93.468 42.076563) scale(0.1 -0.1)">
      <use xlink:href="#DejaVuSans-54"/>
      <use xlink:href="#DejaVuSans-73" transform="translate(44.583984 0)"/>
      <use xlink:href="#DejaVuSans-3d" transform="translate(96.683594 0)"/>
      <use xlink:href="#DejaVuSans-31" transform="translate(180.472656 0)"/>
      <use xlink:href="#DejaVuSans-30" transform="translate(244.095703 0)"/>
      <use xlink:href="#DejaVuSans-30" transform="translate(307.71875 0)"/>
      <use xlink:href="#DejaVuSans-20" transform="translate(371.341797 0)"/>
      <use xlink:href="#DejaVuSans-4b" transform="translate(403.128906 0)"/>
     </g>
    </g>
    <g id="line2d_25">
     <path d="M 65.468 53.254687 
L 75.468 53.254687 
L 85.468 53.254687 
" style="fill: none; stroke: #2ca02c; stroke-width: 1.5; stroke-linecap: square"/>
    </g>
    <g id="text_19">
     <!-- Ts=120 K -->
     <g transform="translate(93.468 56.754687) scale(0.1 -0.1)">
      <use xlink:href="#DejaVuSans-54"/>
      <use xlink:href="#DejaVuSans-73" transform="translate(44.583984 0)"/>
      <use xlink:href="#DejaVuSans-3d" transform="translate(96.683594 0)"/>
      <use xlink:href="#DejaVuSans-31" transform="translate(180.472656 0)"/>
      <use xlink:href="#DejaVuSans-32" transform="translate(244.095703 0)"/>
      <use xlink:href="#DejaVuSans-30" transform="translate(307.71875 0)"/>
      <use xlink:href="#DejaVuSans-20" transform="translate(371.341797 0)"/>
      <use xlink:href="#DejaVuSans-4b" transform="translate(403.128906 0)"/>
     </g>
    </g>
    <g id="line2d_26">
     <path d="M 65.468 67.932813 
L 75.468 67.932813 
L 85.468 67.932813 
" style="fill: none; stroke: #d62728; stroke-width: 1.5; stroke-linecap: square"/>
    </g>
    <g id="text_20">
     <!-- Ts=140 K -->
     <g transform="translate(93.468 71.432813) scale(0.1 -0.1)">
      <use xlink:href="#DejaVuSans-54"/>
      <use xlink:href="#DejaVuSans-73" transform="translate(44.583984 0)"/>
      <use xlink:href="#DejaVuSans-3d" transform="translate(96.683594 0)"/>
      <use xlink:href="#DejaVuSans-31" transform="translate(180.472656 0)"/>
      <use xlink:href="#DejaVuSans-34" transform="translate(244.095703 0)"/>
      <use xlink:href="#DejaVuSans-30" transform="translate(307.71875 0)"/>
      <use xlink:href="#DejaVuSans-20" transform="translate(371.341797 0)"/>
      <use xlink:href="#DejaVuSans-4b" transform="translate(403.128906 0)"/>
     </g>
    </g>
    <g id="line2d_27">
     <path d="M 65.468 82.610938 
L 75.468 82.610938 
L 85.468 82.610938 
" style="fill: none; stroke: #9467bd; stroke-width: 1.5; stroke-linecap: square"/>
    </g>
    <g id="text_21">
     <!-- Ts=160 K -->
     <g transform="translate(93.468 86.110938) scale(0.1 -0.1)">
      <defs>
       <path id="DejaVuSans-36" d="M 2113 2584 
Q 1688 2584 1439 2293 
Q 1191 2003 1191 1497 
Q 1191 994 1439 701 
Q 1688 409 2113 409 
Q 2538 409 2786 701 
Q 3034 994 3034 1497 
Q 3034 2003 2786 2293 
Q 2538 2584 2113 2584 
z
M 3366 4563 
L 3366 3988 
Q 3128 4100 2886 4159 
Q 2644 4219 2406 4219 
Q 1781 4219 1451 3797 
Q 1122 3375 1075 2522 
Q 1259 2794 1537 2939 
Q 1816 3084 2150 3084 
Q 2853 3084 3261 2657 
Q 3669 2231 3669 1497 
Q 3669 778 3244 343 
Q 2819 -91 2113 -91 
Q 1303 -91 875 529 
Q 447 1150 447 2328 
Q 447 3434 972 4092 
Q 1497 4750 2381 4750 
Q 2619 4750 2861 4703 
Q 3103 4656 3366 4563 
z
" transform="scale(0.015625)"/>
      </defs>
      <use xlink:href="#DejaVuSans-54"/>
      <use xlink:href="#DejaVuSans-73" transform="translate(44.583984 0)"/>
      <use xlink:href="#DejaVuSans-3d" transform="translate(96.683594 0)"/>
      <use xlink:href="#DejaVuSans-31" transform="translate(180.472656 0)"/>
      <use xlink:href="#DejaVuSans-36" transform="translate(244.095703 0)"/>
      <use xlink:href="#DejaVuSans-30" transform="translate(307.71875 0)"/>
      <use xlink:href="#DejaVuSans-20" transform="translate(371.341797 0)"/>
      <use xlink:href="#DejaVuSans-4b" transform="translate(403.128906 0)"/>
     </g>
    </g>
    <g id="line2d_28">
     <path d="M 65.468 97.289062 
L 75.468 97.289062 
L 85.468 97.289062 
" style="fill: none; stroke: #8c564b; stroke-width: 1.5; stroke-linecap: square"/>
    </g>
    <g id="text_22">
     <!-- Ts=180 K -->
     <g transform="translate(93.468 100.789062) scale(0.1 -0.1)">
      <use xlink:href="#DejaVuSans-54"/>
      <use xlink:href="#DejaVuSans-73" transform="translate(44.583984 0)"/>
      <use xlink:href="#DejaVuSans-3d" transform="translate(96.683594 0)"/>
      <use xlink:href="#DejaVuSans-31" transform="translate(180.472656 0)"/>
      <use xlink:href="#DejaVuSans-38" transform="translate(244.095703 0)"/>
      <use xlink:href="#DejaVuSans-30" transform="translate(307.71875 0)"/>
      <use xlink:href="#DejaVuSans-20" transform="translate(371.341797 0)"/>
      <use xlink:href="#DejaVuSans-4b" transform="translate(403.128906 0)"/>
     </g>
    </g>
    <g id="line2d_29">
     <path d="M 65.468 111.967187 
L 75.468 111.967187 
L 85.468 111.967187 
" style="fill: none; stroke: #e377c2; stroke-width: 1.5; stroke-linecap: square"/>
    </g>
    <g id="text_23">
     <!-- Ts=200 K -->
     <g transform="translate(93.468 115.467187) scale(0.1 -0.1)">
      <use xlink:href="#DejaVuSans-54"/>
      <use xlink:href="#DejaVuSans-73" transform="translate(44.583984 0)"/>
      <use xlink:href="#DejaVuSans-3d" transform="translate(96.683594 0)"/>
      <use xlink:href="#DejaVuSans-32" transform="translate(180.472656 0)"/>
      <use xlink:href="#DejaVuSans-30" transform="translate(244.095703 0)"/>
      <use xlink:href="#DejaVuSans-30" transform="translate(307.71875 0)"/>
      <use xlink:href="#DejaVuSans-20" transform="translate(371.341797 0)"/>
      <use xlink:href="#DejaVuSans-4b" transform="translate(403.128906 0)"/>
     </g>
    </g>
    <g id="line2d_30">
     <path d="M 65.468 126.645312 
L 75.468 126.645312 
L 85.468 126.645312 
" style="fill: none; stroke: #7f7f7f; stroke-width: 1.5; stroke-linecap: square"/>
    </g>
    <g id="text_24">
     <!-- Ts=220 K -->
     <g transform="translate(93.468 130.145312) scale(0.1 -0.1)">
      <use xlink:href="#DejaVuSans-54"/>
      <use xlink:href="#DejaVuSans-73" transform="translate(44.583984 0)"/>
      <use xlink:href="#DejaVuSans-3d" transform="translate(96.683594 0)"/>
      <use xlink:href="#DejaVuSans-32" transform="translate(180.472656 0)"/>
      <use xlink:href="#DejaVuSans-32" transform="translate(244.095703 0)"/>
      <use xlink:href="#DejaVuSans-30" transform="translate(307.71875 0)"/>
      <use xlink:href="#DejaVuSans-20" transform="translate(371.341797 0)"/>
      <use xlink:href="#DejaVuSans-4b" transform="translate(403.128906 0)"/>
     </g>
    </g>
    <g id="PathCollection_9">
     <g>
      <use xlink:href="#m5744fd9e2e" x="75.468" y="142.198437" style="fill-opacity: 0.7; stroke: #000000; stroke-opacity: 0.7"/>
     </g>
    </g>
    <g id="text_25">
     <!-- Artificial data -->
     <g transform="translate(93.468 144.823437) scale(0.1 -0.1)">
      <defs>
       <path id="DejaVuSans-41" d="M 2188 4044 
L 1331 1722 
L 3047 1722 
L 2188 4044 
z
M 1831 4666 
L 2547 4666 
L 4325 0 
L 3669 0 
L 3244 1197 
L 1141 1197 
L 716 0 
L 50 0 
L 1831 4666 
z
" transform="scale(0.015625)"/>
       <path id="DejaVuSans-74" d="M 1172 4494 
L 1172 3500 
L 2356 3500 
L 2356 3053 
L 1172 3053 
L 1172 1153 
Q 1172 725 1289 603 
Q 1406 481 1766 481 
L 2356 481 
L 2356 0 
L 1766 0 
Q 1100 0 847 248 
Q 594 497 594 1153 
L 594 3053 
L 172 3053 
L 172 3500 
L 594 3500 
L 594 4494 
L 1172 4494 
z
" transform="scale(0.015625)"/>
       <path id="DejaVuSans-69" d="M 603 3500 
L 1178 3500 
L 1178 0 
L 603 0 
L 603 3500 
z
M 603 4863 
L 1178 4863 
L 1178 4134 
L 603 4134 
L 603 4863 
z
" transform="scale(0.015625)"/>
       <path id="DejaVuSans-66" d="M 2375 4863 
L 2375 4384 
L 1825 4384 
Q 1516 4384 1395 4259 
Q 1275 4134 1275 3809 
L 1275 3500 
L 2222 3500 
L 2222 3053 
L 1275 3053 
L 1275 0 
L 697 0 
L 697 3053 
L 147 3053 
L 147 3500 
L 697 3500 
L 697 3744 
Q 697 4328 969 4595 
Q 1241 4863 1831 4863 
L 2375 4863 
z
" transform="scale(0.015625)"/>
       <path id="DejaVuSans-63" d="M 3122 3366 
L 3122 2828 
Q 2878 2963 2633 3030 
Q 2388 3097 2138 3097 
Q 1578 3097 1268 2742 
Q 959 2388 959 1747 
Q 959 1106 1268 751 
Q 1578 397 2138 397 
Q 2388 397 2633 464 
Q 2878 531 3122 666 
L 3122 134 
Q 2881 22 2623 -34 
Q 2366 -91 2075 -91 
Q 1284 -91 818 406 
Q 353 903 353 1747 
Q 353 2603 823 3093 
Q 1294 3584 2113 3584 
Q 2378 3584 2631 3529 
Q 2884 3475 3122 3366 
z
" transform="scale(0.015625)"/>
       <path id="DejaVuSans-61" d="M 2194 1759 
Q 1497 1759 1228 1600 
Q 959 1441 959 1056 
Q 959 750 1161 570 
Q 1363 391 1709 391 
Q 2188 391 2477 730 
Q 2766 1069 2766 1631 
L 2766 1759 
L 2194 1759 
z
M 3341 1997 
L 3341 0 
L 2766 0 
L 2766 531 
Q 2569 213 2275 61 
Q 1981 -91 1556 -91 
Q 1019 -91 701 211 
Q 384 513 384 1019 
Q 384 1609 779 1909 
Q 1175 2209 1959 2209 
L 2766 2209 
L 2766 2266 
Q 2766 2663 2505 2880 
Q 2244 3097 1772 3097 
Q 1472 3097 1187 3025 
Q 903 2953 641 2809 
L 641 3341 
Q 956 3463 1253 3523 
Q 1550 3584 1831 3584 
Q 2591 3584 2966 3190 
Q 3341 2797 3341 1997 
z
" transform="scale(0.015625)"/>
       <path id="DejaVuSans-6c" d="M 603 4863 
L 1178 4863 
L 1178 0 
L 603 0 
L 603 4863 
z
" transform="scale(0.015625)"/>
       <path id="DejaVuSans-64" d="M 2906 2969 
L 2906 4863 
L 3481 4863 
L 3481 0 
L 2906 0 
L 2906 525 
Q 2725 213 2448 61 
Q 2172 -91 1784 -91 
Q 1150 -91 751 415 
Q 353 922 353 1747 
Q 353 2572 751 3078 
Q 1150 3584 1784 3584 
Q 2172 3584 2448 3432 
Q 2725 3281 2906 2969 
z
M 947 1747 
Q 947 1113 1208 752 
Q 1469 391 1925 391 
Q 2381 391 2643 752 
Q 2906 1113 2906 1747 
Q 2906 2381 2643 2742 
Q 2381 3103 1925 3103 
Q 1469 3103 1208 2742 
Q 947 2381 947 1747 
z
" transform="scale(0.015625)"/>
      </defs>
      <use xlink:href="#DejaVuSans-41"/>
      <use xlink:href="#DejaVuSans-72" transform="translate(68.408203 0)"/>
      <use xlink:href="#DejaVuSans-74" transform="translate(109.521484 0)"/>
      <use xlink:href="#DejaVuSans-69" transform="translate(148.730469 0)"/>
      <use xlink:href="#DejaVuSans-66" transform="translate(176.513672 0)"/>
      <use xlink:href="#DejaVuSans-69" transform="translate(211.71875 0)"/>
      <use xlink:href="#DejaVuSans-63" transform="translate(239.501953 0)"/>
      <use xlink:href="#DejaVuSans-69" transform="translate(294.482422 0)"/>
      <use xlink:href="#DejaVuSans-61" transform="translate(322.265625 0)"/>
      <use xlink:href="#DejaVuSans-6c" transform="translate(383.544922 0)"/>
      <use xlink:href="#DejaVuSans-20" transform="translate(411.328125 0)"/>
      <use xlink:href="#DejaVuSans-64" transform="translate(443.115234 0)"/>
      <use xlink:href="#DejaVuSans-61" transform="translate(506.591797 0)"/>
      <use xlink:href="#DejaVuSans-74" transform="translate(567.871094 0)"/>
      <use xlink:href="#DejaVuSans-61" transform="translate(607.080078 0)"/>
     </g>
    </g>
   </g>
  </g>
 </g>
 <defs>
  <clipPath id="p5560474936">
   <rect x="56.468" y="10.8" width="393.532" height="291.4"/>
  </clipPath>
 </defs>
</svg>
