<?xml version="1.0" encoding="utf-8" standalone="no"?>
<!DOCTYPE svg PUBLIC "-//W3C//DTD SVG 1.1//EN"
  "http://www.w3.org/Graphics/SVG/1.1/DTD/svg11.dtd">
<svg xmlns:xlink="http://www.w3.org/1999/xlink" width="460.8pt" height="345.6pt" viewBox="0 0 460.8 345.6" xmlns="http://www.w3.org/2000/svg" version="1.1">
 <metadata>
  <rdf:RDF xmlns:dc="http://purl.org/dc/elements/1.1/" xmlns:cc="http://creativecommons.org/ns#" xmlns:rdf="http://www.w3.org/1999/02/22-rdf-syntax-ns#">
   <cc:Work>
    <dc:type rdf:resource="http://purl.org/dc/dcmitype/StillImage"/>
    <dc:date>2026-02-12T04:34:42.547585</dc:date>
    <dc:format>image/svg+xml</dc:format>
    <dc:creator>
     <cc:Agent>
      <dc:title>Matplotlib v3.10.8, https://matplotlib.org/</dc:title>
     </cc:Agent>
    </dc:creator>
   </cc:Work>
  </rdf:RDF>
 </metadata>
 <defs>
  <style type="text/css">*{stroke-linejoin: round; stroke-linecap: butt}</style>
 </defs>
 <g id="figure_1">
  <g id="patch_1">
   <path d="M 0 345.6 
L 460.8 345.6 
L 460.8 0 
L 0 0 
L 0 345.6 
z
" style="fill: none"/>
  </g>
  <g id="axes_1">
   <g id="patch_2">
    <path d="M 47.018 302.2 
L 450 302.2 
L 450 10.8 
L 47.018 10.8 
L 47.018 302.2 
z
" style="fill: none"/>
   </g>
   <g id="FillBetweenPolyCollection_1">
    <path d="M 65.335364 217.873931 
L 65.335364 218.099063 
L 72.811839 202.716973 
L 80.288314 189.694553 
L 87.764788 178.765391 
L 95.241263 169.620796 
L 102.717738 161.928924 
L 110.194213 155.360165 
L 117.670688 149.61199 
L 125.147163 144.429232 
L 132.623638 139.615159 
L 140.100113 135.034197 
L 147.576588 130.605902 
L 155.053063 126.295662 
L 162.529538 122.102592 
L 170.006013 118.043831 
L 177.482488 114.139946 
L 184.958963 110.403362 
L 192.435438 106.831587 
L 199.911913 103.406186 
L 207.388388 100.09818 
L 214.864863 96.877483 
L 222.341338 93.720267 
L 229.817813 90.614179 
L 237.294288 87.558645 
L 244.770763 84.560709 
L 252.247237 81.629676 
L 259.723712 78.771234 
L 267.200187 75.985122 
L 274.676662 73.265245 
L 282.153137 70.601732 
L 289.629612 67.984509 
L 297.106087 65.405087 
L 304.582562 62.858719 
L 312.059037 60.344518 
L 319.535512 57.864239 
L 327.011987 55.42124 
L 334.488462 53.018176 
L 341.964937 50.656702 
L 349.441412 48.336726 
L 356.917887 46.055816 
L 364.394362 43.809199 
L 371.870837 41.588927 
L 379.347312 39.386593 
L 386.823787 37.196087 
L 394.300262 35.016524 
L 401.776737 32.854496 
L 409.253212 30.722087 
L 416.729686 28.633947 
L 424.206161 26.600554 
L 431.682636 24.62163 
L 431.682636 24.045455 
L 431.682636 24.045455 
L 424.206161 26.028416 
L 416.729686 28.065537 
L 409.253212 30.15724 
L 401.776737 32.293168 
L 394.300262 34.458761 
L 386.823787 36.642002 
L 379.347312 38.836328 
L 371.870837 41.042622 
L 364.394362 43.26696 
L 356.917887 45.517697 
L 349.441412 47.802754 
L 341.964937 50.126882 
L 334.488462 52.492523 
L 327.011987 54.899798 
L 319.535512 57.347086 
L 312.059037 59.831753 
L 304.582562 62.350437 
L 297.106087 64.901367 
L 289.629612 67.485415 
L 282.153137 70.107321 
L 274.676662 72.775589 
L 267.200187 75.50032 
L 259.723712 78.291421 
L 252.247237 81.155016 
L 244.770763 84.091373 
L 237.294288 87.094781 
L 229.817813 90.155884 
L 222.341338 93.267593 
L 214.864863 96.430437 
L 207.388388 99.65682 
L 199.911913 102.970649 
L 192.435438 106.401965 
L 184.958963 109.980009 
L 177.482488 113.723286 
L 170.006013 117.634299 
L 162.529538 121.700531 
L 155.053063 125.901238 
L 147.576588 130.219139 
L 140.100113 134.655094 
L 132.623638 139.243861 
L 125.147163 144.06619 
L 117.670688 149.258084 
L 110.194213 155.016842 
L 102.717738 161.598255 
L 95.241263 169.30548 
L 87.764788 178.468353 
L 80.288314 189.419415 
L 72.811839 202.467648 
L 65.335364 217.873931 
z
" clip-path="url(#pad0ed5838d)" style="fill: #1f77b4; fill-opacity: 0.45"/>
   </g>
   <g id="FillBetweenPolyCollection_2">
    <path d="M 65.335364 256.776927 
L 65.335364 256.931579 
L 72.811839 248.726464 
L 80.288314 241.81747 
L 87.764788 236.027521 
L 95.241263 231.170322 
L 102.717738 227.060662 
L 110.194213 223.52367 
L 117.670688 220.404172 
L 125.147163 217.574547 
L 132.623638 214.938175 
L 140.100113 212.429375 
L 147.576588 210.009866 
L 155.053063 207.663091 
L 162.529538 205.387219 
L 170.006013 203.187636 
L 177.482488 201.070657 
L 184.958963 199.039152 
L 192.435438 197.09013 
L 199.911913 195.214519 
L 207.388388 193.39939 
L 214.864863 191.63163 
L 222.341338 189.900916 
L 229.817813 188.201576 
L 237.294288 186.532565 
L 244.770763 184.895861 
L 252.247237 183.294495 
L 259.723712 181.730475 
L 267.200187 180.20366 
L 274.676662 178.711487 
L 282.153137 177.249601 
L 289.629612 175.813228 
L 297.106087 174.398199 
L 304.582562 173.00184 
L 312.059037 171.62314 
L 319.535512 170.262501 
L 327.011987 168.921467 
L 334.488462 167.601874 
L 341.964937 166.305192 
L 349.441412 165.031665 
L 356.917887 163.779776 
L 364.394362 162.546373 
L 371.870837 161.326988 
L 379.347312 160.117033 
L 386.823787 158.913116 
L 394.300262 157.714479 
L 401.776737 156.524062 
L 409.253212 155.34802 
L 416.729686 154.194791 
L 424.206161 153.072939 
L 431.682636 151.989059 
L 431.682636 151.456441 
L 431.682636 151.456441 
L 424.206161 152.544731 
L 416.729686 153.670632 
L 409.253212 154.82767 
L 401.776737 156.007429 
L 394.300262 157.201617 
L 386.823787 158.404175 
L 379.347312 159.612191 
L 371.870837 160.826396 
L 364.394362 162.050134 
L 356.917887 163.287938 
L 349.441412 164.544241 
L 341.964937 165.8222 
L 334.488462 167.123354 
L 327.011987 168.447487 
L 319.535512 169.793148 
L 312.059037 171.158505 
L 304.582562 172.54201 
L 297.106087 173.943244 
L 289.629612 175.363206 
L 282.153137 176.804569 
L 274.676662 178.27152 
L 267.200187 179.768869 
L 259.723712 181.30101 
L 252.247237 182.870529 
L 244.770763 184.477566 
L 237.294288 186.120085 
L 229.817813 187.795009 
L 222.341338 189.500318 
L 214.864863 191.237039 
L 207.388388 193.010876 
L 199.911913 194.832239 
L 192.435438 196.714356 
L 184.958963 198.670268 
L 177.482488 200.709113 
L 170.006013 202.833851 
L 162.529538 205.041517 
L 155.053063 207.325675 
L 147.576588 209.680808 
L 140.100113 212.108685 
L 132.623638 214.625953 
L 125.147163 217.271191 
L 117.670688 220.110575 
L 110.194213 223.241372 
L 102.717738 226.791896 
L 95.241263 230.917931 
L 87.764788 235.794735 
L 80.288314 241.607634 
L 72.811839 248.542798 
L 65.335364 256.776927 
z
" clip-path="url(#pad0ed5838d)" style="fill: #ff7f0e; fill-opacity: 0.45"/>
   </g>
   <g id="FillBetweenPolyCollection_3">
    <path d="M 65.335364 278.769418 
L 65.335364 278.85797 
L 72.811839 275.568447 
L 80.288314 272.843192 
L 87.764788 270.585792 
L 95.241263 268.702684 
L 102.717738 267.107864 
L 110.194213 265.726045 
L 117.670688 264.495614 
L 125.147163 263.370053 
L 132.623638 262.317006 
L 140.100113 261.315844 
L 147.576588 260.35472 
L 155.053063 259.427721 
L 162.529538 258.532474 
L 170.006013 257.668322 
L 177.482488 256.835023 
L 184.958963 256.032037 
L 192.435438 255.257907 
L 199.911913 254.509926 
L 207.388388 253.784496 
L 214.864863 253.077911 
L 222.341338 252.387162 
L 229.817813 251.710356 
L 237.294288 251.0467 
L 244.770763 250.396192 
L 252.247237 249.759213 
L 259.723712 249.136139 
L 267.200187 248.526955 
L 274.676662 247.931 
L 282.153137 247.347023 
L 289.629612 246.77345 
L 297.106087 246.208759 
L 304.582562 245.651729 
L 312.059037 245.101603 
L 319.535512 244.558226 
L 327.011987 244.022126 
L 334.488462 243.494403 
L 341.964937 242.976257 
L 349.441412 242.46835 
L 356.917887 241.970277 
L 364.394362 241.480372 
L 371.870837 240.995984 
L 379.347312 240.514098 
L 386.823787 240.03232 
L 394.300262 239.550032 
L 401.776737 239.069253 
L 409.253212 238.59477 
L 416.729686 238.133488 
L 424.206161 237.693119 
L 431.682636 237.280734 
L 431.682636 236.97783 
L 431.682636 236.97783 
L 424.206161 237.393151 
L 416.729686 237.836009 
L 409.253212 238.299463 
L 401.776737 238.775968 
L 394.300262 239.258791 
L 386.823787 239.743262 
L 379.347312 240.227378 
L 371.870837 240.711718 
L 364.394362 241.198626 
L 356.917887 241.691081 
L 349.441412 242.191707 
L 341.964937 242.702156 
L 334.488462 243.222837 
L 327.011987 243.753113 
L 319.535512 244.291814 
L 312.059037 244.837858 
L 304.582562 245.390708 
L 297.106087 245.950501 
L 289.629612 246.517989 
L 282.153137 247.094401 
L 274.676662 247.681268 
L 267.200187 248.280167 
L 259.723712 248.892361 
L 252.247237 249.518521 
L 244.770763 250.158681 
L 237.294288 250.812458 
L 229.817813 251.479446 
L 222.341338 252.15962 
L 214.864863 252.853769 
L 207.388388 253.563808 
L 199.911913 254.292787 
L 192.435438 255.044456 
L 184.958963 255.822463 
L 177.482488 256.629554 
L 170.006013 257.467192 
L 162.529538 258.335878 
L 155.053063 259.235783 
L 147.576588 260.167494 
L 140.100113 261.133357 
L 132.623638 262.139346 
L 125.147163 263.197468 
L 117.670688 264.328611 
L 110.194213 265.565471 
L 102.717738 266.954946 
L 95.241263 268.559001 
L 87.764788 270.453074 
L 80.288314 272.72333 
L 72.811839 275.463335 
L 65.335364 278.769418 
z
" clip-path="url(#pad0ed5838d)" style="fill: #2ca02c; fill-opacity: 0.45"/>
   </g>
   <g id="FillBetweenPolyCollection_4">
    <path d="M 65.335364 288.941815 
L 65.335364 288.954545 
L 72.811839 287.389177 
L 80.288314 286.184864 
L 87.764788 285.289006 
L 95.241263 284.650096 
L 102.717738 284.220436 
L 110.194213 283.95589 
L 117.670688 283.817229 
L 125.147163 283.770629 
L 132.623638 283.787849 
L 140.100113 283.846103 
L 147.576588 283.927659 
L 155.053063 284.019256 
L 162.529538 284.111407 
L 170.006013 284.197681 
L 177.482488 284.273976 
L 184.958963 284.337933 
L 192.435438 284.388414 
L 199.911913 284.425112 
L 207.388388 284.448265 
L 214.864863 284.458462 
L 222.341338 284.45652 
L 229.817813 284.443398 
L 237.294288 284.420136 
L 244.770763 284.387792 
L 252.247237 284.347437 
L 259.723712 284.300103 
L 267.200187 284.246726 
L 274.676662 284.188152 
L 282.153137 284.125129 
L 289.629612 284.058319 
L 297.106087 283.988316 
L 304.582562 283.915664 
L 312.059037 283.840874 
L 319.535512 283.764435 
L 327.011987 283.686814 
L 334.488462 283.608454 
L 341.964937 283.529769 
L 349.441412 283.451148 
L 356.917887 283.372974 
L 364.394362 283.295657 
L 371.870837 283.21968 
L 379.347312 283.14566 
L 386.823787 283.074381 
L 394.300262 283.006817 
L 401.776737 282.944099 
L 409.253212 282.88743 
L 416.729686 282.83795 
L 424.206161 282.796558 
L 431.682636 282.763715 
L 431.682636 282.619166 
L 431.682636 282.619166 
L 424.206161 282.656049 
L 416.729686 282.701158 
L 409.253212 282.754054 
L 401.776737 282.813866 
L 394.300262 282.87948 
L 386.823787 282.949722 
L 379.347312 283.023488 
L 371.870837 283.099829 
L 364.394362 283.177982 
L 356.917887 283.257348 
L 349.441412 283.337459 
L 341.964937 283.417919 
L 334.488462 283.498357 
L 327.011987 283.578393 
L 319.535512 283.657621 
L 312.059037 283.735608 
L 304.582562 283.811893 
L 297.106087 283.885995 
L 289.629612 283.957407 
L 282.153137 284.025592 
L 274.676662 284.089961 
L 267.200187 284.149857 
L 259.723712 284.204538 
L 252.247237 284.253163 
L 244.770763 284.294799 
L 237.294288 284.328436 
L 229.817813 284.353016 
L 222.341338 284.367499 
L 214.864863 284.370833 
L 207.388388 284.362065 
L 199.911913 284.340392 
L 192.435438 284.305238 
L 184.958963 284.256381 
L 177.482488 284.194149 
L 170.006013 284.119699 
L 162.529538 284.035416 
L 155.053063 283.945426 
L 147.576588 283.856208 
L 140.100113 283.7773 
L 132.623638 283.72202 
L 125.147163 283.708164 
L 117.670688 283.758591 
L 110.194213 283.90161 
L 102.717738 284.171118 
L 95.241263 284.606399 
L 87.764788 285.251603 
L 80.288314 286.155211 
L 72.811839 287.367957 
L 65.335364 288.941815 
z
" clip-path="url(#pad0ed5838d)" style="fill: #d62728; fill-opacity: 0.45"/>
   </g>
   <g id="matplotlib.axis_1">
    <g id="xtick_1">
     <g id="line2d_1">
      <defs>
       <path id="m0729dab862" d="M 0 0 
L 0 3.5 
" style="stroke: #000000; stroke-width: 0.8"/>
      </defs>
      <g>
       <use xlink:href="#m0729dab862" x="61.634886" y="302.2" style="stroke: #000000; stroke-width: 0.8"/>
      </g>
     </g>
     <g id="text_1">
      <!-- 0 -->
      <g transform="translate(58.453636 316.798437) scale(0.1 -0.1)">
       <defs>
        <path id="DejaVuSans-30" d="M 2034 4250 
Q 1547 4250 1301 3770 
Q 1056 3291 1056 2328 
Q 1056 1369 1301 889 
Q 1547 409 2034 409 
Q 2525 409 2770 889 
Q 3016 1369 3016 2328 
Q 3016 3291 2770 3770 
Q 2525 4250 2034 4250 
z
M 2034 4750 
Q 2819 4750 3233 4129 
Q 3647 3509 3647 2328 
Q 3647 1150 3233 529 
Q 2819 -91 2034 -91 
Q 1250 -91 836 529 
Q 422 1150 422 2328 
Q 422 3509 836 4129 
Q 1250 4750 2034 4750 
z
" transform="scale(0.015625)"/>
       </defs>
       <use xlink:href="#DejaVuSans-30"/>
      </g>
     </g>
    </g>
    <g id="xtick_2">
     <g id="line2d_2">
      <g>
       <use xlink:href="#m0729dab862" x="135.644436" y="302.2" style="stroke: #000000; stroke-width: 0.8"/>
      </g>
     </g>
     <g id="text_2">
      <!-- 1 -->
      <g transform="translate(132.463186 316.798437) scale(0.1 -0.1)">
       <defs>
        <path id="DejaVuSans-31" d="M 794 531 
L 1825 531 
L 1825 4091 
L 703 3866 
L 703 4441 
L 1819 4666 
L 2450 4666 
L 2450 531 
L 3481 531 
L 3481 0 
L 794 0 
L 794 531 
z
" transform="scale(0.015625)"/>
       </defs>
       <use xlink:href="#DejaVuSans-31"/>
      </g>
     </g>
    </g>
    <g id="xtick_3">
     <g id="line2d_3">
      <g>
       <use xlink:href="#m0729dab862" x="209.653986" y="302.2" style="stroke: #000000; stroke-width: 0.8"/>
      </g>
     </g>
     <g id="text_3">
      <!-- 2 -->
      <g transform="translate(206.472736 316.798437) scale(0.1 -0.1)">
       <defs>
        <path id="DejaVuSans-32" d="M 1228 531 
L 3431 531 
L 3431 0 
L 469 0 
L 469 531 
Q 828 903 1448 1529 
Q 2069 2156 2228 2338 
Q 2531 2678 2651 2914 
Q 2772 3150 2772 3378 
Q 2772 3750 2511 3984 
Q 2250 4219 1831 4219 
Q 1534 4219 1204 4116 
Q 875 4013 500 3803 
L 500 4441 
Q 881 4594 1212 4672 
Q 1544 4750 1819 4750 
Q 2544 4750 2975 4387 
Q 3406 4025 3406 3419 
Q 3406 3131 3298 2873 
Q 3191 2616 2906 2266 
Q 2828 2175 2409 1742 
Q 1991 1309 1228 531 
z
" transform="scale(0.015625)"/>
       </defs>
       <use xlink:href="#DejaVuSans-32"/>
      </g>
     </g>
    </g>
    <g id="xtick_4">
     <g id="line2d_4">
      <g>
       <use xlink:href="#m0729dab862" x="283.663536" y="302.2" style="stroke: #000000; stroke-width: 0.8"/>
      </g>
     </g>
     <g id="text_4">
      <!-- 3 -->
      <g transform="translate(280.482286 316.798437) scale(0.1 -0.1)">
       <defs>
        <path id="DejaVuSans-33" d="M 2597 2516 
Q 3050 2419 3304 2112 
Q 3559 1806 3559 1356 
Q 3559 666 3084 287 
Q 2609 -91 1734 -91 
Q 1441 -91 1130 -33 
Q 819 25 488 141 
L 488 750 
Q 750 597 1062 519 
Q 1375 441 1716 441 
Q 2309 441 2620 675 
Q 2931 909 2931 1356 
Q 2931 1769 2642 2001 
Q 2353 2234 1838 2234 
L 1294 2234 
L 1294 2753 
L 1863 2753 
Q 2328 2753 2575 2939 
Q 2822 3125 2822 3475 
Q 2822 3834 2567 4026 
Q 2313 4219 1838 4219 
Q 1578 4219 1281 4162 
Q 984 4106 628 3988 
L 628 4550 
Q 988 4650 1302 4700 
Q 1616 4750 1894 4750 
Q 2613 4750 3031 4423 
Q 3450 4097 3450 3541 
Q 3450 3153 3228 2886 
Q 3006 2619 2597 2516 
z
" transform="scale(0.015625)"/>
       </defs>
       <use xlink:href="#DejaVuSans-33"/>
      </g>
     </g>
    </g>
    <g id="xtick_5">
     <g id="line2d_5">
      <g>
       <use xlink:href="#m0729dab862" x="357.673086" y="302.2" style="stroke: #000000; stroke-width: 0.8"/>
      </g>
     </g>
     <g id="text_5">
      <!-- 4 -->
      <g transform="translate(354.491836 316.798437) scale(0.1 -0.1)">
       <defs>
        <path id="DejaVuSans-34" d="M 2419 4116 
L 825 1625 
L 2419 1625 
L 2419 4116 
z
M 2253 4666 
L 3047 4666 
L 3047 1625 
L 3713 1625 
L 3713 1100 
L 3047 1100 
L 3047 0 
L 2419 0 
L 2419 1100 
L 313 1100 
L 313 1709 
L 2253 4666 
z
" transform="scale(0.015625)"/>
       </defs>
       <use xlink:href="#DejaVuSans-34"/>
      </g>
     </g>
    </g>
    <g id="xtick_6">
     <g id="line2d_6">
      <g>
       <use xlink:href="#m0729dab862" x="431.682636" y="302.2" style="stroke: #000000; stroke-width: 0.8"/>
      </g>
     </g>
     <g id="text_6">
      <!-- 5 -->
      <g transform="translate(428.501386 316.798437) scale(0.1 -0.1)">
       <defs>
        <path id="DejaVuSans-35" d="M 691 4666 
L 3169 4666 
L 3169 4134 
L 1269 4134 
L 1269 2991 
Q 1406 3038 1543 3061 
Q 1681 3084 1819 3084 
Q 2600 3084 3056 2656 
Q 3513 2228 3513 1497 
Q 3513 744 3044 326 
Q 2575 -91 1722 -91 
Q 1428 -91 1123 -41 
Q 819 9 494 109 
L 494 744 
Q 775 591 1075 516 
Q 1375 441 1709 441 
Q 2250 441 2565 725 
Q 2881 1009 2881 1497 
Q 2881 1984 2565 2268 
Q 2250 2553 1709 2553 
Q 1456 2553 1204 2497 
Q 953 2441 691 2322 
L 691 4666 
z
" transform="scale(0.015625)"/>
       </defs>
       <use xlink:href="#DejaVuSans-35"/>
      </g>
     </g>
    </g>
    <g id="text_7">
     <!-- $W$ (m/hour) -->
     <g transform="translate(220.059 330.476562) scale(0.1 -0.1)">
      <defs>
       <path id="DejaVuSans-Oblique-57" d="M 616 4666 
L 1228 4666 
L 1453 697 
L 3213 4666 
L 3916 4666 
L 4147 697 
L 5888 4666 
L 6528 4666 
L 4453 0 
L 3659 0 
L 3444 3891 
L 1697 0 
L 903 0 
L 616 4666 
z
" transform="scale(0.015625)"/>
       <path id="DejaVuSans-20" transform="scale(0.015625)"/>
       <path id="DejaVuSans-28" d="M 1984 4856 
Q 1566 4138 1362 3434 
Q 1159 2731 1159 2009 
Q 1159 1288 1364 580 
Q 1569 -128 1984 -844 
L 1484 -844 
Q 1016 -109 783 600 
Q 550 1309 550 2009 
Q 550 2706 781 3412 
Q 1013 4119 1484 4856 
L 1984 4856 
z
" transform="scale(0.015625)"/>
       <path id="DejaVuSans-6d" d="M 3328 2828 
Q 3544 3216 3844 3400 
Q 4144 3584 4550 3584 
Q 5097 3584 5394 3201 
Q 5691 2819 5691 2113 
L 5691 0 
L 5113 0 
L 5113 2094 
Q 5113 2597 4934 2840 
Q 4756 3084 4391 3084 
Q 3944 3084 3684 2787 
Q 3425 2491 3425 1978 
L 3425 0 
L 2847 0 
L 2847 2094 
Q 2847 2600 2669 2842 
Q 2491 3084 2119 3084 
Q 1678 3084 1418 2786 
Q 1159 2488 1159 1978 
L 1159 0 
L 581 0 
L 581 3500 
L 1159 3500 
L 1159 2956 
Q 1356 3278 1631 3431 
Q 1906 3584 2284 3584 
Q 2666 3584 2933 3390 
Q 3200 3197 3328 2828 
z
" transform="scale(0.015625)"/>
       <path id="DejaVuSans-2f" d="M 1625 4666 
L 2156 4666 
L 531 -594 
L 0 -594 
L 1625 4666 
z
" transform="scale(0.015625)"/>
       <path id="DejaVuSans-68" d="M 3513 2113 
L 3513 0 
L 2938 0 
L 2938 2094 
Q 2938 2591 2744 2837 
Q 2550 3084 2163 3084 
Q 1697 3084 1428 2787 
Q 1159 2491 1159 1978 
L 1159 0 
L 581 0 
L 581 4863 
L 1159 4863 
L 1159 2956 
Q 1366 3272 1645 3428 
Q 1925 3584 2291 3584 
Q 2894 3584 3203 3211 
Q 3513 2838 3513 2113 
z
" transform="scale(0.015625)"/>
       <path id="DejaVuSans-6f" d="M 1959 3097 
Q 1497 3097 1228 2736 
Q 959 2375 959 1747 
Q 959 1119 1226 758 
Q 1494 397 1959 397 
Q 2419 397 2687 759 
Q 2956 1122 2956 1747 
Q 2956 2369 2687 2733 
Q 2419 3097 1959 3097 
z
M 1959 3584 
Q 2709 3584 3137 3096 
Q 3566 2609 3566 1747 
Q 3566 888 3137 398 
Q 2709 -91 1959 -91 
Q 1206 -91 779 398 
Q 353 888 353 1747 
Q 353 2609 779 3096 
Q 1206 3584 1959 3584 
z
" transform="scale(0.015625)"/>
       <path id="DejaVuSans-75" d="M 544 1381 
L 544 3500 
L 1119 3500 
L 1119 1403 
Q 1119 906 1312 657 
Q 1506 409 1894 409 
Q 2359 409 2629 706 
Q 2900 1003 2900 1516 
L 2900 3500 
L 3475 3500 
L 3475 0 
L 2900 0 
L 2900 538 
Q 2691 219 2414 64 
Q 2138 -91 1772 -91 
Q 1169 -91 856 284 
Q 544 659 544 1381 
z
M 1991 3584 
L 1991 3584 
z
" transform="scale(0.015625)"/>
       <path id="DejaVuSans-72" d="M 2631 2963 
Q 2534 3019 2420 3045 
Q 2306 3072 2169 3072 
Q 1681 3072 1420 2755 
Q 1159 2438 1159 1844 
L 1159 0 
L 581 0 
L 581 3500 
L 1159 3500 
L 1159 2956 
Q 1341 3275 1631 3429 
Q 1922 3584 2338 3584 
Q 2397 3584 2469 3576 
Q 2541 3569 2628 3553 
L 2631 2963 
z
" transform="scale(0.015625)"/>
       <path id="DejaVuSans-29" d="M 513 4856 
L 1013 4856 
Q 1481 4119 1714 3412 
Q 1947 2706 1947 2009 
Q 1947 1309 1714 600 
Q 1481 -109 1013 -844 
L 513 -844 
Q 928 -128 1133 580 
Q 1338 1288 1338 2009 
Q 1338 2731 1133 3434 
Q 928 4138 513 4856 
z
" transform="scale(0.015625)"/>
      </defs>
      <use xlink:href="#DejaVuSans-Oblique-57" transform="translate(0 0.015625)"/>
      <use xlink:href="#DejaVuSans-20" transform="translate(98.876953 0.015625)"/>
      <use xlink:href="#DejaVuSans-28" transform="translate(130.664062 0.015625)"/>
      <use xlink:href="#DejaVuSans-6d" transform="translate(169.677734 0.015625)"/>
      <use xlink:href="#DejaVuSans-2f" transform="translate(267.089844 0.015625)"/>
      <use xlink:href="#DejaVuSans-68" transform="translate(300.78125 0.015625)"/>
      <use xlink:href="#DejaVuSans-6f" transform="translate(364.160156 0.015625)"/>
      <use xlink:href="#DejaVuSans-75" transform="translate(425.341797 0.015625)"/>
      <use xlink:href="#DejaVuSans-72" transform="translate(488.720703 0.015625)"/>
      <use xlink:href="#DejaVuSans-29" transform="translate(529.833984 0.015625)"/>
     </g>
    </g>
   </g>
   <g id="matplotlib.axis_2">
    <g id="ytick_1">
     <g id="line2d_7">
      <defs>
       <path id="m997f68fc09" d="M 0 0 
L -3.5 0 
" style="stroke: #000000; stroke-width: 0.8"/>
      </defs>
      <g>
       <use xlink:href="#m997f68fc09" x="47.018" y="291.378024" style="stroke: #000000; stroke-width: 0.8"/>
      </g>
     </g>
     <g id="text_8">
      <!-- 0 -->
      <g transform="translate(33.6555 295.177243) scale(0.1 -0.1)">
       <use xlink:href="#DejaVuSans-30"/>
      </g>
     </g>
    </g>
    <g id="ytick_2">
     <g id="line2d_8">
      <g>
       <use xlink:href="#m997f68fc09" x="47.018" y="253.79379" style="stroke: #000000; stroke-width: 0.8"/>
      </g>
     </g>
     <g id="text_9">
      <!-- 5 -->
      <g transform="translate(33.6555 257.593009) scale(0.1 -0.1)">
       <use xlink:href="#DejaVuSans-35"/>
      </g>
     </g>
    </g>
    <g id="ytick_3">
     <g id="line2d_9">
      <g>
       <use xlink:href="#m997f68fc09" x="47.018" y="216.209556" style="stroke: #000000; stroke-width: 0.8"/>
      </g>
     </g>
     <g id="text_10">
      <!-- 10 -->
      <g transform="translate(27.293 220.008775) scale(0.1 -0.1)">
       <use xlink:href="#DejaVuSans-31"/>
       <use xlink:href="#DejaVuSans-30" transform="translate(63.623047 0)"/>
      </g>
     </g>
    </g>
    <g id="ytick_4">
     <g id="line2d_10">
      <g>
       <use xlink:href="#m997f68fc09" x="47.018" y="178.625322" style="stroke: #000000; stroke-width: 0.8"/>
      </g>
     </g>
     <g id="text_11">
      <!-- 15 -->
      <g transform="translate(27.293 182.424541) scale(0.1 -0.1)">
       <use xlink:href="#DejaVuSans-31"/>
       <use xlink:href="#DejaVuSans-35" transform="translate(63.623047 0)"/>
      </g>
     </g>
    </g>
    <g id="ytick_5">
     <g id="line2d_11">
      <g>
       <use xlink:href="#m997f68fc09" x="47.018" y="141.041088" style="stroke: #000000; stroke-width: 0.8"/>
      </g>
     </g>
     <g id="text_12">
      <!-- 20 -->
      <g transform="translate(27.293 144.840307) scale(0.1 -0.1)">
       <use xlink:href="#DejaVuSans-32"/>
       <use xlink:href="#DejaVuSans-30" transform="translate(63.623047 0)"/>
      </g>
     </g>
    </g>
    <g id="ytick_6">
     <g id="line2d_12">
      <g>
       <use xlink:href="#m997f68fc09" x="47.018" y="103.456854" style="stroke: #000000; stroke-width: 0.8"/>
      </g>
     </g>
     <g id="text_13">
      <!-- 25 -->
      <g transform="translate(27.293 107.256073) scale(0.1 -0.1)">
       <use xlink:href="#DejaVuSans-32"/>
       <use xlink:href="#DejaVuSans-35" transform="translate(63.623047 0)"/>
      </g>
     </g>
    </g>
    <g id="ytick_7">
     <g id="line2d_13">
      <g>
       <use xlink:href="#m997f68fc09" x="47.018" y="65.87262" style="stroke: #000000; stroke-width: 0.8"/>
      </g>
     </g>
     <g id="text_14">
      <!-- 30 -->
      <g transform="translate(27.293 69.671838) scale(0.1 -0.1)">
       <use xlink:href="#DejaVuSans-33"/>
       <use xlink:href="#DejaVuSans-30" transform="translate(63.623047 0)"/>
      </g>
     </g>
    </g>
    <g id="ytick_8">
     <g id="line2d_14">
      <g>
       <use xlink:href="#m997f68fc09" x="47.018" y="28.288386" style="stroke: #000000; stroke-width: 0.8"/>
      </g>
     </g>
     <g id="text_15">
      <!-- 35 -->
      <g transform="translate(27.293 32.087604) scale(0.1 -0.1)">
       <use xlink:href="#DejaVuSans-33"/>
       <use xlink:href="#DejaVuSans-35" transform="translate(63.623047 0)"/>
      </g>
     </g>
    </g>
    <g id="text_16">
     <!-- $Q_{lc}$ (kW) -->
     <g transform="translate(21.213312 176.8) rotate(-90) scale(0.1 -0.1)">
      <defs>
       <path id="DejaVuSans-Oblique-51" d="M 2309 -84 
Q 2275 -88 2237 -89 
Q 2200 -91 2125 -91 
Q 1250 -91 756 411 
Q 263 913 263 1797 
Q 263 2319 452 2844 
Q 641 3369 978 3788 
Q 1369 4269 1858 4509 
Q 2347 4750 2938 4750 
Q 3794 4750 4287 4245 
Q 4781 3741 4781 2869 
Q 4781 1928 4265 1147 
Q 3750 366 2919 44 
L 3553 -825 
L 2847 -825 
L 2309 -84 
z
M 2919 4238 
Q 2400 4238 2003 3986 
Q 1606 3734 1313 3219 
Q 1125 2891 1026 2522 
Q 928 2153 928 1778 
Q 928 1128 1239 775 
Q 1550 422 2119 422 
Q 2631 422 3032 676 
Q 3434 931 3719 1434 
Q 3909 1772 4009 2142 
Q 4109 2513 4109 2881 
Q 4109 3528 3796 3883 
Q 3484 4238 2919 4238 
z
" transform="scale(0.015625)"/>
       <path id="DejaVuSans-Oblique-6c" d="M 1172 4863 
L 1747 4863 
L 800 0 
L 225 0 
L 1172 4863 
z
" transform="scale(0.015625)"/>
       <path id="DejaVuSans-Oblique-63" d="M 3431 3366 
L 3316 2797 
Q 3109 2947 2876 3022 
Q 2644 3097 2394 3097 
Q 2119 3097 1870 3000 
Q 1622 2903 1453 2725 
Q 1184 2453 1037 2087 
Q 891 1722 891 1331 
Q 891 859 1127 628 
Q 1363 397 1844 397 
Q 2081 397 2348 469 
Q 2616 541 2906 684 
L 2797 116 
Q 2547 13 2283 -39 
Q 2019 -91 1741 -91 
Q 1044 -91 669 257 
Q 294 606 294 1253 
Q 294 1797 489 2255 
Q 684 2713 1069 3078 
Q 1331 3328 1684 3456 
Q 2038 3584 2456 3584 
Q 2700 3584 2940 3529 
Q 3181 3475 3431 3366 
z
" transform="scale(0.015625)"/>
       <path id="DejaVuSans-6b" d="M 581 4863 
L 1159 4863 
L 1159 1991 
L 2875 3500 
L 3609 3500 
L 1753 1863 
L 3688 0 
L 2938 0 
L 1159 1709 
L 1159 0 
L 581 0 
L 581 4863 
z
" transform="scale(0.015625)"/>
       <path id="DejaVuSans-57" d="M 213 4666 
L 850 4666 
L 1831 722 
L 2809 4666 
L 3519 4666 
L 4500 722 
L 5478 4666 
L 6119 4666 
L 4947 0 
L 4153 0 
L 3169 4050 
L 2175 0 
L 1381 0 
L 213 4666 
z
" transform="scale(0.015625)"/>
      </defs>
      <use xlink:href="#DejaVuSans-Oblique-51" transform="translate(0 0.015625)"/>
      <use xlink:href="#DejaVuSans-Oblique-6c" transform="translate(78.710938 -16.390625) scale(0.7)"/>
      <use xlink:href="#DejaVuSans-Oblique-63" transform="translate(98.15918 -16.390625) scale(0.7)"/>
      <use xlink:href="#DejaVuSans-20" transform="translate(139.379883 0.015625)"/>
      <use xlink:href="#DejaVuSans-28" transform="translate(171.166992 0.015625)"/>
      <use xlink:href="#DejaVuSans-6b" transform="translate(210.180664 0.015625)"/>
      <use xlink:href="#DejaVuSans-57" transform="translate(268.09082 0.015625)"/>
      <use xlink:href="#DejaVuSans-29" transform="translate(366.967773 0.015625)"/>
     </g>
    </g>
   </g>
   <g id="line2d_15">
    <path d="M 65.335364 217.962414 
L 72.811839 202.569314 
L 80.288314 189.53106 
L 87.764788 178.587721 
L 95.241263 169.432829 
L 102.717738 161.732669 
L 110.194213 155.15527 
L 117.670688 149.40023 
L 125.147163 144.210971 
L 132.623638 139.391741 
L 140.100113 134.806408 
L 147.576588 130.373806 
L 155.053063 126.058387 
L 162.529538 121.859544 
L 170.006013 117.7952 
L 177.482488 113.885879 
L 184.958963 110.145125 
L 192.435438 106.56945 
L 199.911913 103.140128 
L 207.388388 99.827951 
L 214.864863 96.603169 
L 222.341338 93.441895 
L 229.817813 90.332476 
L 237.294288 87.273693 
L 244.770763 84.272568 
L 252.247237 81.33845 
L 259.723712 78.477262 
L 267.200187 75.688802 
L 274.676662 72.966575 
L 282.153137 70.300739 
L 289.629612 67.681273 
L 297.106087 65.099665 
L 304.582562 62.551128 
L 312.059037 60.034789 
L 319.535512 57.552464 
L 327.011987 55.10756 
L 334.488462 52.702648 
L 341.964937 50.339255 
L 349.441412 48.017226 
L 356.917887 45.734166 
L 364.394362 43.485407 
L 371.870837 41.263057 
L 379.347312 39.058559 
L 386.823787 36.865949 
L 394.300262 34.684427 
L 401.776737 32.519907 
L 409.253212 30.385037 
L 416.729686 28.294528 
L 424.206161 26.258873 
L 431.682636 24.277737 
" clip-path="url(#pad0ed5838d)" style="fill: none; stroke: #1f77b4; stroke-width: 1.5; stroke-linecap: square"/>
   </g>
   <g id="line2d_16">
    <path d="M 65.335364 256.860857 
L 72.811839 248.642571 
L 80.288314 241.721685 
L 87.764788 235.921325 
L 95.241263 231.055405 
L 102.717738 226.938552 
L 110.194213 223.395595 
L 117.670688 220.271083 
L 125.147163 217.437098 
L 132.623638 214.796752 
L 140.100113 212.284162 
L 147.576588 209.860926 
L 155.053063 207.510447 
L 162.529538 205.230917 
L 170.006013 203.027771 
L 177.482488 200.907369 
L 184.958963 198.87262 
L 192.435438 196.920542 
L 199.911913 195.042028 
L 207.388388 193.224115 
L 214.864863 191.453643 
L 222.341338 189.720248 
L 229.817813 188.018231 
L 237.294288 186.346569 
L 244.770763 184.707258 
L 252.247237 183.103349 
L 259.723712 181.536863 
L 267.200187 180.00766 
L 274.676662 178.513166 
L 282.153137 177.049009 
L 289.629612 175.610399 
L 297.106087 174.193159 
L 304.582562 172.794615 
L 312.059037 171.41376 
L 319.535512 170.051004 
L 327.011987 168.707894 
L 334.488462 167.386264 
L 341.964937 166.087577 
L 349.441412 164.812063 
L 356.917887 163.558197 
L 364.394362 162.322825 
L 371.870837 161.101493 
L 379.347312 159.889635 
L 386.823787 158.683879 
L 394.300262 157.483477 
L 401.776737 156.291359 
L 409.253212 155.113639 
L 416.729686 153.958698 
L 424.206161 152.835034 
L 431.682636 151.749194 
" clip-path="url(#pad0ed5838d)" style="fill: none; stroke: #ff7f0e; stroke-width: 1.5; stroke-linecap: square"/>
   </g>
   <g id="line2d_17">
    <path d="M 65.335364 278.818605 
L 72.811839 275.521787 
L 80.288314 272.789954 
L 87.764788 270.526766 
L 95.241263 268.638691 
L 102.717738 267.03965 
L 110.194213 265.654375 
L 117.670688 264.421083 
L 125.147163 263.293026 
L 132.623638 262.237704 
L 140.100113 261.234379 
L 147.576588 260.271139 
L 155.053063 259.342042 
L 162.529538 258.444728 
L 170.006013 257.578566 
L 177.482488 256.74334 
L 184.958963 255.938528 
L 192.435438 255.162671 
L 199.911913 254.413046 
L 207.388388 253.686034 
L 214.864863 252.977909 
L 222.341338 252.285645 
L 229.817813 251.60734 
L 237.294288 250.942201 
L 244.770763 250.290239 
L 252.247237 249.651843 
L 259.723712 249.027394 
L 267.200187 248.416869 
L 274.676662 247.819604 
L 282.153137 247.234341 
L 289.629612 246.659505 
L 297.106087 246.093569 
L 304.582562 245.535309 
L 312.059037 244.983971 
L 319.535512 244.439406 
L 327.011987 243.902145 
L 334.488462 243.373282 
L 341.964937 242.854006 
L 349.441412 242.34497 
L 356.917887 241.845767 
L 364.394362 241.354735 
L 371.870837 240.869234 
L 379.347312 240.38626 
L 386.823787 239.903439 
L 394.300262 239.420169 
L 401.776737 238.93846 
L 409.253212 238.463058 
L 416.729686 238.000802 
L 424.206161 237.559342 
L 431.682636 237.145696 
" clip-path="url(#pad0ed5838d)" style="fill: none; stroke: #2ca02c; stroke-width: 1.5; stroke-linecap: square"/>
   </g>
   <g id="line2d_18">
    <path d="M 65.335364 288.949287 
L 72.811839 287.380125 
L 80.288314 286.172303 
L 87.764788 285.273187 
L 95.241263 284.631694 
L 102.717738 284.199699 
L 110.194213 283.933081 
L 117.670688 283.792592 
L 125.147163 283.74438 
L 132.623638 283.760175 
L 140.100113 283.817163 
L 147.576588 283.897588 
L 155.053063 283.988165 
L 162.529538 284.079386 
L 170.006013 284.164795 
L 177.482488 284.240287 
L 184.958963 284.303492 
L 192.435438 284.353264 
L 199.911913 284.389288 
L 207.388388 284.411796 
L 214.864863 284.421371 
L 222.341338 284.418823 
L 229.817813 284.405107 
L 237.294288 284.381261 
L 244.770763 284.348357 
L 252.247237 284.307458 
L 259.723712 284.259581 
L 267.200187 284.205655 
L 274.676662 284.146523 
L 282.153137 284.082932 
L 289.629612 284.015542 
L 297.106087 283.944943 
L 304.582562 283.871673 
L 312.059037 283.796245 
L 319.535512 283.719146 
L 327.011987 283.64084 
L 334.488462 283.561766 
L 341.964937 283.482334 
L 349.441412 283.40293 
L 356.917887 283.323931 
L 364.394362 283.245741 
L 371.870837 283.168838 
L 379.347312 283.093828 
L 386.823787 283.02149 
L 394.300262 282.952786 
L 401.776737 282.888835 
L 409.253212 282.830829 
L 416.729686 282.779895 
L 424.206161 282.736922 
L 431.682636 282.702362 
" clip-path="url(#pad0ed5838d)" style="fill: none; stroke: #d62728; stroke-width: 1.5; stroke-linecap: square"/>
   </g>
   <g id="patch_3">
    <path d="M 47.018 302.2 
L 47.018 10.8 
" style="fill: none; stroke: #000000; stroke-width: 0.8; stroke-linejoin: miter; stroke-linecap: square"/>
   </g>
   <g id="patch_4">
    <path d="M 450 302.2 
L 450 10.8 
" style="fill: none; stroke: #000000; stroke-width: 0.8; stroke-linejoin: miter; stroke-linecap: square"/>
   </g>
   <g id="patch_5">
    <path d="M 47.018 302.2 
L 450 302.2 
" style="fill: none; stroke: #000000; stroke-width: 0.8; stroke-linejoin: miter; stroke-linecap: square"/>
   </g>
   <g id="patch_6">
    <path d="M 47.018 10.8 
L 450 10.8 
" style="fill: none; stroke: #000000; stroke-width: 0.8; stroke-linejoin: miter; stroke-linecap: square"/>
   </g>
   <g id="legend_1">
    <g id="patch_7">
     <path d="M 54.018 77.5125 
L 132.888313 77.5125 
Q 134.888313 77.5125 134.888313 75.5125 
L 134.888313 17.8 
Q 134.888313 15.8 132.888313 15.8 
L 54.018 15.8 
Q 52.018 15.8 52.018 17.8 
L 52.018 75.5125 
Q 52.018 77.5125 54.018 77.5125 
z
" style="fill: #ffffff; opacity: 0.8; stroke: #cccccc; stroke-linejoin: miter"/>
    </g>
    <g id="line2d_19">
     <path d="M 56.018 23.898438 
L 66.018 23.898438 
L 76.018 23.898438 
" style="fill: none; stroke: #1f77b4; stroke-width: 1.5; stroke-linecap: square"/>
    </g>
    <g id="text_17">
     <!-- Ts=100 K -->
     <g transform="translate(84.018 27.398438) scale(0.1 -0.1)">
      <defs>
       <path id="DejaVuSans-54" d="M -19 4666 
L 3928 4666 
L 3928 4134 
L 2272 4134 
L 2272 0 
L 1638 0 
L 1638 4134 
L -19 4134 
L -19 4666 
z
" transform="scale(0.015625)"/>
       <path id="DejaVuSans-73" d="M 2834 3397 
L 2834 2853 
Q 2591 2978 2328 3040 
Q 2066 3103 1784 3103 
Q 1356 3103 1142 2972 
Q 928 2841 928 2578 
Q 928 2378 1081 2264 
Q 1234 2150 1697 2047 
L 1894 2003 
Q 2506 1872 2764 1633 
Q 3022 1394 3022 966 
Q 3022 478 2636 193 
Q 2250 -91 1575 -91 
Q 1294 -91 989 -36 
Q 684 19 347 128 
L 347 722 
Q 666 556 975 473 
Q 1284 391 1588 391 
Q 1994 391 2212 530 
Q 2431 669 2431 922 
Q 2431 1156 2273 1281 
Q 2116 1406 1581 1522 
L 1381 1569 
Q 847 1681 609 1914 
Q 372 2147 372 2553 
Q 372 3047 722 3315 
Q 1072 3584 1716 3584 
Q 2034 3584 2315 3537 
Q 2597 3491 2834 3397 
z
" transform="scale(0.015625)"/>
       <path id="DejaVuSans-3d" d="M 678 2906 
L 4684 2906 
L 4684 2381 
L 678 2381 
L 678 2906 
z
M 678 1631 
L 4684 1631 
L 4684 1100 
L 678 1100 
L 678 1631 
z
" transform="scale(0.015625)"/>
       <path id="DejaVuSans-4b" d="M 628 4666 
L 1259 4666 
L 1259 2694 
L 3353 4666 
L 4166 4666 
L 1850 2491 
L 4331 0 
L 3500 0 
L 1259 2247 
L 1259 0 
L 628 0 
L 628 4666 
z
" transform="scale(0.015625)"/>
      </defs>
      <use xlink:href="#DejaVuSans-54"/>
      <use xlink:href="#DejaVuSans-73" transform="translate(44.583984 0)"/>
      <use xlink:href="#DejaVuSans-3d" transform="translate(96.683594 0)"/>
      <use xlink:href="#DejaVuSans-31" transform="translate(180.472656 0)"/>
      <use xlink:href="#DejaVuSans-30" transform="translate(244.095703 0)"/>
      <use xlink:href="#DejaVuSans-30" transform="translate(307.71875 0)"/>
      <use xlink:href="#DejaVuSans-20" transform="translate(371.341797 0)"/>
      <use xlink:href="#DejaVuSans-4b" transform="translate(403.128906 0)"/>
     </g>
    </g>
    <g id="line2d_20">
     <path d="M 56.018 38.576563 
L 66.018 38.576563 
L 76.018 38.576563 
" style="fill: none; stroke: #ff7f0e; stroke-width: 1.5; stroke-linecap: square"/>
    </g>
    <g id="text_18">
     <!-- Ts=160 K -->
     <g transform="translate(84.018 42.076563) scale(0.1 -0.1)">
      <defs>
       <path id="DejaVuSans-36" d="M 2113 2584 
Q 1688 2584 1439 2293 
Q 1191 2003 1191 1497 
Q 1191 994 1439 701 
Q 1688 409 2113 409 
Q 2538 409 2786 701 
Q 3034 994 3034 1497 
Q 3034 2003 2786 2293 
Q 2538 2584 2113 2584 
z
M 3366 4563 
L 3366 3988 
Q 3128 4100 2886 4159 
Q 2644 4219 2406 4219 
Q 1781 4219 1451 3797 
Q 1122 3375 1075 2522 
Q 1259 2794 1537 2939 
Q 1816 3084 2150 3084 
Q 2853 3084 3261 2657 
Q 3669 2231 3669 1497 
Q 3669 778 3244 343 
Q 2819 -91 2113 -91 
Q 1303 -91 875 529 
Q 447 1150 447 2328 
Q 447 3434 972 4092 
Q 1497 4750 2381 4750 
Q 2619 4750 2861 4703 
Q 3103 4656 3366 4563 
z
" transform="scale(0.015625)"/>
      </defs>
      <use xlink:href="#DejaVuSans-54"/>
      <use xlink:href="#DejaVuSans-73" transform="translate(44.583984 0)"/>
      <use xlink:href="#DejaVuSans-3d" transform="translate(96.683594 0)"/>
      <use xlink:href="#DejaVuSans-31" transform="translate(180.472656 0)"/>
      <use xlink:href="#DejaVuSans-36" transform="translate(244.095703 0)"/>
      <use xlink:href="#DejaVuSans-30" transform="translate(307.71875 0)"/>
      <use xlink:href="#DejaVuSans-20" transform="translate(371.341797 0)"/>
      <use xlink:href="#DejaVuSans-4b" transform="translate(403.128906 0)"/>
     </g>
    </g>
    <g id="line2d_21">
     <path d="M 56.018 53.254687 
L 66.018 53.254687 
L 76.018 53.254687 
" style="fill: none; stroke: #2ca02c; stroke-width: 1.5; stroke-linecap: square"/>
    </g>
    <g id="text_19">
     <!-- Ts=220 K -->
     <g transform="translate(84.018 56.754687) scale(0.1 -0.1)">
      <use xlink:href="#DejaVuSans-54"/>
      <use xlink:href="#DejaVuSans-73" transform="translate(44.583984 0)"/>
      <use xlink:href="#DejaVuSans-3d" transform="translate(96.683594 0)"/>
      <use xlink:href="#DejaVuSans-32" transform="translate(180.472656 0)"/>
      <use xlink:href="#DejaVuSans-32" transform="translate(244.095703 0)"/>
      <use xlink:href="#DejaVuSans-30" transform="translate(307.71875 0)"/>
      <use xlink:href="#DejaVuSans-20" transform="translate(371.341797 0)"/>
      <use xlink:href="#DejaVuSans-4b" transform="translate(403.128906 0)"/>
     </g>
    </g>
    <g id="line2d_22">
     <path d="M 56.018 67.932813 
L 66.018 67.932813 
L 76.018 67.932813 
" style="fill: none; stroke: #d62728; stroke-width: 1.5; stroke-linecap: square"/>
    </g>
    <g id="text_20">
     <!-- Ts=260 K -->
     <g transform="translate(84.018 71.432813) scale(0.1 -0.1)">
      <use xlink:href="#DejaVuSans-54"/>
      <use xlink:href="#DejaVuSans-73" transform="translate(44.583984 0)"/>
      <use xlink:href="#DejaVuSans-3d" transform="translate(96.683594 0)"/>
      <use xlink:href="#DejaVuSans-32" transform="translate(180.472656 0)"/>
      <use xlink:href="#DejaVuSans-36" transform="translate(244.095703 0)"/>
      <use xlink:href="#DejaVuSans-30" transform="translate(307.71875 0)"/>
      <use xlink:href="#DejaVuSans-20" transform="translate(371.341797 0)"/>
      <use xlink:href="#DejaVuSans-4b" transform="translate(403.128906 0)"/>
     </g>
    </g>
   </g>
  </g>
 </g>
 <defs>
  <clipPath id="pad0ed5838d">
   <rect x="47.018" y="10.8" width="402.982" height="291.4"/>
  </clipPath>
 </defs>
</svg>
