<?xml version="1.0" encoding="utf-8" standalone="no"?>
<!DOCTYPE svg PUBLIC "-//W3C//DTD SVG 1.1//EN"
  "http://www.w3.org/Graphics/SVG/1.1/DTD/svg11.dtd">
<svg xmlns:xlink="http://www.w3.org/1999/xlink" width="460.8pt" height="345.6pt" viewBox="0 0 460.8 345.6" xmlns="http://www.w3.org/2000/svg" version="1.1">
 <metadata>
  <rdf:RDF xmlns:dc="http://purl.org/dc/elements/1.1/" xmlns:cc="http://creativecommons.org/ns#" xmlns:rdf="http://www.w3.org/1999/02/22-rdf-syntax-ns#">
   <cc:Work>
    <dc:type rdf:resource="http://purl.org/dc/dcmitype/StillImage"/>
    <dc:date>2026-02-12T05:45:12.307814</dc:date>
    <dc:format>image/svg+xml</dc:format>
    <dc:creator>
     <cc:Agent>
      <dc:title>Matplotlib v3.10.8, https://matplotlib.org/</dc:title>
     </cc:Agent>
    </dc:creator>
   </cc:Work>
  </rdf:RDF>
 </metadata>
 <defs>
  <style type="text/css">*{stroke-linejoin: round; stroke-linecap: butt}</style>
 </defs>
 <g id="figure_1">
  <g id="patch_1">
   <path d="M 0 345.6 
L 460.8 345.6 
L 460.8 0 
L 0 0 
L 0 345.6 
z
" style="fill: none"/>
  </g>
  <g id="axes_1">
   <g id="patch_2">
    <path d="M 47.018 302.2 
L 450 302.2 
L 450 10.8 
L 47.018 10.8 
L 47.018 302.2 
z
" style="fill: none"/>
   </g>
   <g id="FillBetweenPolyCollection_1">
    <path d="M 65.335364 216.728244 
L 65.335364 216.984589 
L 72.811839 200.884152 
L 80.288314 187.913097 
L 87.764788 177.371123 
L 95.241263 168.660726 
L 102.717738 161.294273 
L 110.194213 154.888406 
L 117.670688 149.156854 
L 125.147163 143.897797 
L 132.623638 138.976041 
L 140.100113 134.306657 
L 147.576588 129.840601 
L 155.053063 125.552582 
L 162.529538 121.429945 
L 170.006013 117.465035 
L 177.482488 113.649418 
L 184.958963 109.974745 
L 192.435438 106.429057 
L 199.911913 102.99875 
L 207.388388 99.669998 
L 214.864863 96.430249 
L 222.341338 93.269341 
L 229.817813 90.180037 
L 237.294288 87.157914 
L 244.770763 84.200684 
L 252.247237 81.30722 
L 259.723712 78.476467 
L 267.200187 75.706568 
L 274.676662 72.994339 
L 282.153137 70.335265 
L 289.629612 67.724411 
L 297.106087 65.156069 
L 304.582562 62.625253 
L 312.059037 60.128957 
L 319.535512 57.666434 
L 327.011987 55.239521 
L 334.488462 52.850422 
L 341.964937 50.502313 
L 349.441412 48.19719 
L 356.917887 45.934282 
L 364.394362 43.708841 
L 371.870837 41.511764 
L 379.347312 39.330457 
L 386.823787 37.151285 
L 394.300262 34.963794 
L 401.776737 32.766671 
L 409.253212 30.575165 
L 416.729686 28.429494 
L 424.206161 26.403498 
L 431.682636 24.61269 
L 431.682636 24.045455 
L 431.682636 24.045455 
L 424.206161 25.839218 
L 416.729686 27.868738 
L 409.253212 30.018214 
L 401.776737 32.213623 
L 394.300262 34.414644 
L 386.823787 36.605994 
L 379.347312 38.78899 
L 371.870837 40.974109 
L 364.394362 43.175022 
L 356.917887 45.40435 
L 349.441412 47.671221 
L 341.964937 49.980393 
L 334.488462 52.332635 
L 327.011987 54.72595 
L 319.535512 57.157147 
L 312.059037 59.623303 
L 304.582562 62.122682 
L 297.106087 64.656643 
L 289.629612 67.22821 
L 282.153137 69.842073 
L 274.676662 72.503759 
L 267.200187 75.21913 
L 259.723712 77.99292 
L 252.247237 80.827644 
L 244.770763 83.725162 
L 237.294288 86.686524 
L 229.817813 89.712866 
L 222.341338 92.805417 
L 214.864863 95.969158 
L 207.388388 99.211863 
L 199.911913 102.543731 
L 192.435438 105.97735 
L 184.958963 109.526561 
L 177.482488 113.204979 
L 170.006013 117.024543 
L 162.529538 120.994689 
L 155.053063 125.122781 
L 147.576588 129.416429 
L 140.100113 133.888292 
L 132.623638 138.563717 
L 125.147163 143.49167 
L 117.670688 148.759984 
L 110.194213 154.501828 
L 102.717738 160.921038 
L 95.241263 168.304446 
L 87.764788 177.030799 
L 80.288314 187.59074 
L 72.811839 200.5897 
L 65.335364 216.728244 
z
" clip-path="url(#p41f6ac7626)" style="fill: #1f77b4; fill-opacity: 0.45"/>
   </g>
   <g id="FillBetweenPolyCollection_2">
    <path d="M 65.335364 255.45261 
L 65.335364 255.602567 
L 72.811839 247.114768 
L 80.288314 240.238229 
L 87.764788 234.617715 
L 95.241263 229.949654 
L 102.717738 225.984513 
L 110.194213 222.525487 
L 117.670688 219.424219 
L 125.147163 216.574448 
L 132.623638 213.904431 
L 140.100113 211.369027 
L 147.576588 208.942095 
L 155.053063 206.60982 
L 162.529538 204.365286 
L 170.006013 202.204491 
L 177.482488 200.123767 
L 184.958963 198.118467 
L 192.435438 196.182626 
L 199.911913 194.309313 
L 207.388388 192.491325 
L 214.864863 190.721949 
L 222.341338 188.995575 
L 229.817813 187.308042 
L 237.294288 185.656637 
L 244.770763 184.039841 
L 252.247237 182.456859 
L 259.723712 180.907099 
L 267.200187 179.389701 
L 274.676662 177.903242 
L 282.153137 176.445657 
L 289.629612 175.014388 
L 297.106087 173.606724 
L 304.582562 172.220232 
L 312.059037 170.853163 
L 319.535512 169.504724 
L 327.011987 168.175129 
L 334.488462 166.865357 
L 341.964937 165.576671 
L 349.441412 164.309925 
L 356.917887 163.064846 
L 364.394362 161.839455 
L 371.870837 160.629831 
L 379.347312 159.430437 
L 386.823787 158.235161 
L 394.300262 157.039154 
L 401.776737 155.841495 
L 409.253212 154.648517 
L 416.729686 153.477634 
L 424.206161 152.361294 
L 431.682636 151.350688 
L 431.682636 150.83602 
L 431.682636 150.83602 
L 424.206161 151.850097 
L 416.729686 152.970208 
L 409.253212 154.145032 
L 401.776737 155.342023 
L 394.300262 156.543733 
L 386.823787 157.743799 
L 379.347312 158.943146 
L 371.870837 160.146624 
L 364.394362 161.360406 
L 356.917887 162.590032 
L 349.441412 163.839392 
L 341.964937 165.110473 
L 334.488462 166.40355 
L 327.011987 167.717771 
L 319.535512 169.051882 
L 312.059037 170.404909 
L 304.582562 171.776645 
L 297.106087 173.167888 
L 289.629612 174.580399 
L 282.153137 176.016614 
L 274.676662 177.479225 
L 267.200187 178.970815 
L 259.723712 180.493448 
L 252.247237 182.048545 
L 244.770763 183.636966 
L 237.294288 185.259302 
L 229.817813 186.916355 
L 222.341338 188.609657 
L 214.864863 190.341934 
L 207.388388 192.117377 
L 199.911913 193.941623 
L 192.435438 195.821416 
L 184.958963 197.76399 
L 177.482488 199.776299 
L 170.006013 201.864317 
L 162.529538 204.032706 
L 155.053063 206.285125 
L 147.576588 208.625585 
L 140.100113 211.061014 
L 132.623638 213.60527 
L 125.147163 216.284605 
L 117.670688 219.144336 
L 110.194213 222.256501 
L 102.717738 225.727575 
L 95.241263 229.706405 
L 87.764788 234.39083 
L 80.288314 240.031353 
L 72.811839 246.93288 
L 65.335364 255.45261 
z
" clip-path="url(#p41f6ac7626)" style="fill: #ff7f0e; fill-opacity: 0.45"/>
   </g>
   <g id="FillBetweenPolyCollection_3">
    <path d="M 65.335364 277.314103 
L 65.335364 277.399509 
L 72.811839 274.082999 
L 80.288314 271.389906 
L 87.764788 269.183005 
L 95.241263 267.345 
L 102.717738 265.779483 
L 110.194213 264.410442 
L 117.670688 263.180614 
L 125.147163 262.049005 
L 132.623638 260.987947 
L 140.100113 259.980015 
L 147.576588 259.015083 
L 155.053063 258.087741 
L 162.529538 257.195202 
L 170.006013 256.335786 
L 177.482488 255.507929 
L 184.958963 254.709706 
L 192.435438 253.938711 
L 199.911913 253.192203 
L 207.388388 252.467374 
L 214.864863 251.761646 
L 222.341338 251.072888 
L 229.817813 250.399537 
L 237.294288 249.740587 
L 244.770763 249.095471 
L 252.247237 248.463872 
L 259.723712 247.845526 
L 267.200187 247.240041 
L 274.676662 246.646795 
L 282.153137 246.064919 
L 289.629612 245.493376 
L 297.106087 244.931097 
L 304.582562 244.377159 
L 312.059037 243.830934 
L 319.535512 243.292192 
L 327.011987 242.761093 
L 334.488462 242.238077 
L 341.964937 241.723648 
L 349.441412 241.218097 
L 356.917887 240.72121 
L 364.394362 240.232054 
L 371.870837 239.748908 
L 379.347312 239.269434 
L 386.823787 238.791132 
L 394.300262 238.312118 
L 401.776737 237.832211 
L 409.253212 237.354277 
L 416.729686 236.885727 
L 424.206161 236.440028 
L 431.682636 236.038083 
L 431.682636 235.747712 
L 431.682636 235.747712 
L 424.206161 236.151611 
L 416.729686 236.599456 
L 409.253212 237.070249 
L 401.776737 237.550461 
L 394.300262 238.03265 
L 386.823787 238.513939 
L 379.347312 238.99451 
L 371.870837 239.476256 
L 364.394362 239.961687 
L 356.917887 240.45315 
L 349.441412 240.952371 
L 341.964937 241.460288 
L 334.488462 241.977116 
L 327.011987 242.502565 
L 319.535512 243.036131 
L 312.059037 243.577375 
L 304.582562 244.126142 
L 297.106087 244.682668 
L 289.629612 245.247587 
L 282.153137 245.821829 
L 274.676662 246.406469 
L 267.200187 247.002551 
L 259.723712 247.610943 
L 252.247237 248.232268 
L 244.770763 248.866917 
L 237.294288 249.515153 
L 229.817813 250.177292 
L 222.341338 250.853901 
L 214.864863 251.545991 
L 207.388388 252.255135 
L 199.911913 252.983475 
L 192.435438 253.733609 
L 184.958963 254.508358 
L 177.482488 255.31048 
L 170.006013 256.142393 
L 162.529538 257.006036 
L 155.053063 257.90297 
L 147.576588 258.834887 
L 140.100113 259.804581 
L 132.623638 260.817488 
L 125.147163 261.883787 
L 117.670688 263.021 
L 110.194213 264.256946 
L 102.717738 265.632857 
L 95.241263 267.206327 
L 87.764788 269.053808 
L 80.288314 271.272268 
L 72.811839 273.979691 
L 65.335364 277.314103 
z
" clip-path="url(#p41f6ac7626)" style="fill: #2ca02c; fill-opacity: 0.45"/>
   </g>
   <g id="FillBetweenPolyCollection_4">
    <path d="M 65.335364 288.942881 
L 65.335364 288.954545 
L 72.811839 288.17979 
L 80.288314 287.563795 
L 87.764788 287.075335 
L 95.241263 286.68076 
L 102.717738 286.354735 
L 110.194213 286.07777 
L 117.670688 285.835006 
L 125.147163 285.615796 
L 132.623638 285.412943 
L 140.100113 285.22189 
L 147.576588 285.039917 
L 155.053063 284.865432 
L 162.529538 284.697398 
L 170.006013 284.534943 
L 177.482488 284.377125 
L 184.958963 284.222865 
L 192.435438 284.07099 
L 199.911913 283.920359 
L 207.388388 283.770028 
L 214.864863 283.619385 
L 222.341338 283.468262 
L 229.817813 283.316966 
L 237.294288 283.166243 
L 244.770763 283.017163 
L 252.247237 282.870971 
L 259.723712 282.728891 
L 267.200187 282.591952 
L 274.676662 282.460839 
L 282.153137 282.335796 
L 289.629612 282.216617 
L 297.106087 282.102696 
L 304.582562 281.993154 
L 312.059037 281.887018 
L 319.535512 281.783413 
L 327.011987 281.681758 
L 334.488462 281.582295 
L 341.964937 281.485195 
L 349.441412 281.39114 
L 356.917887 281.301344 
L 364.394362 281.21716 
L 371.870837 281.139729 
L 379.347312 281.068853 
L 386.823787 281.005921 
L 394.300262 280.94758 
L 401.776737 280.88989 
L 409.253212 280.827038 
L 416.729686 280.75056 
L 424.206161 280.649732 
L 431.682636 280.511251 
L 431.682636 280.492525 
L 431.682636 280.492525 
L 424.206161 280.631053 
L 416.729686 280.731594 
L 409.253212 280.807561 
L 401.776737 280.869679 
L 394.300262 280.925867 
L 386.823787 280.982454 
L 379.347312 281.043246 
L 371.870837 281.110085 
L 364.394362 281.183679 
L 356.917887 281.263598 
L 349.441412 281.348535 
L 341.964937 281.437478 
L 334.488462 281.529487 
L 327.011987 281.624131 
L 319.535512 281.720947 
L 312.059037 281.820179 
L 304.582562 281.922515 
L 297.106087 282.028911 
L 289.629612 282.140399 
L 282.153137 282.257885 
L 274.676662 282.381983 
L 267.200187 282.512882 
L 259.723712 282.650297 
L 252.247237 282.793492 
L 244.770763 282.941373 
L 237.294288 283.092641 
L 229.817813 283.245978 
L 222.341338 283.400234 
L 214.864863 283.554595 
L 207.388388 283.708684 
L 199.911913 283.862615 
L 192.435438 284.016945 
L 184.958963 284.17258 
L 177.482488 284.330626 
L 170.006013 284.492225 
L 162.529538 284.658434 
L 155.053063 284.830172 
L 147.576588 285.008293 
L 140.100113 285.193816 
L 132.623638 285.388326 
L 125.147163 285.594544 
L 117.670688 285.817044 
L 110.194213 286.063056 
L 102.717738 286.343305 
L 95.241263 286.672757 
L 87.764788 287.071194 
L 80.288314 287.563149 
L 72.811839 288.174409 
L 65.335364 288.942881 
z
" clip-path="url(#p41f6ac7626)" style="fill: #d62728; fill-opacity: 0.45"/>
   </g>
   <g id="matplotlib.axis_1">
    <g id="xtick_1">
     <g id="line2d_1">
      <defs>
       <path id="md5e03bc6f4" d="M 0 0 
L 0 3.5 
" style="stroke: #000000; stroke-width: 0.8"/>
      </defs>
      <g>
       <use xlink:href="#md5e03bc6f4" x="61.634886" y="302.2" style="stroke: #000000; stroke-width: 0.8"/>
      </g>
     </g>
     <g id="text_1">
      <!-- 0 -->
      <g transform="translate(58.453636 316.798437) scale(0.1 -0.1)">
       <defs>
        <path id="DejaVuSans-30" d="M 2034 4250 
Q 1547 4250 1301 3770 
Q 1056 3291 1056 2328 
Q 1056 1369 1301 889 
Q 1547 409 2034 409 
Q 2525 409 2770 889 
Q 3016 1369 3016 2328 
Q 3016 3291 2770 3770 
Q 2525 4250 2034 4250 
z
M 2034 4750 
Q 2819 4750 3233 4129 
Q 3647 3509 3647 2328 
Q 3647 1150 3233 529 
Q 2819 -91 2034 -91 
Q 1250 -91 836 529 
Q 422 1150 422 2328 
Q 422 3509 836 4129 
Q 1250 4750 2034 4750 
z
" transform="scale(0.015625)"/>
       </defs>
       <use xlink:href="#DejaVuSans-30"/>
      </g>
     </g>
    </g>
    <g id="xtick_2">
     <g id="line2d_2">
      <g>
       <use xlink:href="#md5e03bc6f4" x="135.644436" y="302.2" style="stroke: #000000; stroke-width: 0.8"/>
      </g>
     </g>
     <g id="text_2">
      <!-- 1 -->
      <g transform="translate(132.463186 316.798437) scale(0.1 -0.1)">
       <defs>
        <path id="DejaVuSans-31" d="M 794 531 
L 1825 531 
L 1825 4091 
L 703 3866 
L 703 4441 
L 1819 4666 
L 2450 4666 
L 2450 531 
L 3481 531 
L 3481 0 
L 794 0 
L 794 531 
z
" transform="scale(0.015625)"/>
       </defs>
       <use xlink:href="#DejaVuSans-31"/>
      </g>
     </g>
    </g>
    <g id="xtick_3">
     <g id="line2d_3">
      <g>
       <use xlink:href="#md5e03bc6f4" x="209.653986" y="302.2" style="stroke: #000000; stroke-width: 0.8"/>
      </g>
     </g>
     <g id="text_3">
      <!-- 2 -->
      <g transform="translate(206.472736 316.798437) scale(0.1 -0.1)">
       <defs>
        <path id="DejaVuSans-32" d="M 1228 531 
L 3431 531 
L 3431 0 
L 469 0 
L 469 531 
Q 828 903 1448 1529 
Q 2069 2156 2228 2338 
Q 2531 2678 2651 2914 
Q 2772 3150 2772 3378 
Q 2772 3750 2511 3984 
Q 2250 4219 1831 4219 
Q 1534 4219 1204 4116 
Q 875 4013 500 3803 
L 500 4441 
Q 881 4594 1212 4672 
Q 1544 4750 1819 4750 
Q 2544 4750 2975 4387 
Q 3406 4025 3406 3419 
Q 3406 3131 3298 2873 
Q 3191 2616 2906 2266 
Q 2828 2175 2409 1742 
Q 1991 1309 1228 531 
z
" transform="scale(0.015625)"/>
       </defs>
       <use xlink:href="#DejaVuSans-32"/>
      </g>
     </g>
    </g>
    <g id="xtick_4">
     <g id="line2d_4">
      <g>
       <use xlink:href="#md5e03bc6f4" x="283.663536" y="302.2" style="stroke: #000000; stroke-width: 0.8"/>
      </g>
     </g>
     <g id="text_4">
      <!-- 3 -->
      <g transform="translate(280.482286 316.798437) scale(0.1 -0.1)">
       <defs>
        <path id="DejaVuSans-33" d="M 2597 2516 
Q 3050 2419 3304 2112 
Q 3559 1806 3559 1356 
Q 3559 666 3084 287 
Q 2609 -91 1734 -91 
Q 1441 -91 1130 -33 
Q 819 25 488 141 
L 488 750 
Q 750 597 1062 519 
Q 1375 441 1716 441 
Q 2309 441 2620 675 
Q 2931 909 2931 1356 
Q 2931 1769 2642 2001 
Q 2353 2234 1838 2234 
L 1294 2234 
L 1294 2753 
L 1863 2753 
Q 2328 2753 2575 2939 
Q 2822 3125 2822 3475 
Q 2822 3834 2567 4026 
Q 2313 4219 1838 4219 
Q 1578 4219 1281 4162 
Q 984 4106 628 3988 
L 628 4550 
Q 988 4650 1302 4700 
Q 1616 4750 1894 4750 
Q 2613 4750 3031 4423 
Q 3450 4097 3450 3541 
Q 3450 3153 3228 2886 
Q 3006 2619 2597 2516 
z
" transform="scale(0.015625)"/>
       </defs>
       <use xlink:href="#DejaVuSans-33"/>
      </g>
     </g>
    </g>
    <g id="xtick_5">
     <g id="line2d_5">
      <g>
       <use xlink:href="#md5e03bc6f4" x="357.673086" y="302.2" style="stroke: #000000; stroke-width: 0.8"/>
      </g>
     </g>
     <g id="text_5">
      <!-- 4 -->
      <g transform="translate(354.491836 316.798437) scale(0.1 -0.1)">
       <defs>
        <path id="DejaVuSans-34" d="M 2419 4116 
L 825 1625 
L 2419 1625 
L 2419 4116 
z
M 2253 4666 
L 3047 4666 
L 3047 1625 
L 3713 1625 
L 3713 1100 
L 3047 1100 
L 3047 0 
L 2419 0 
L 2419 1100 
L 313 1100 
L 313 1709 
L 2253 4666 
z
" transform="scale(0.015625)"/>
       </defs>
       <use xlink:href="#DejaVuSans-34"/>
      </g>
     </g>
    </g>
    <g id="xtick_6">
     <g id="line2d_6">
      <g>
       <use xlink:href="#md5e03bc6f4" x="431.682636" y="302.2" style="stroke: #000000; stroke-width: 0.8"/>
      </g>
     </g>
     <g id="text_6">
      <!-- 5 -->
      <g transform="translate(428.501386 316.798437) scale(0.1 -0.1)">
       <defs>
        <path id="DejaVuSans-35" d="M 691 4666 
L 3169 4666 
L 3169 4134 
L 1269 4134 
L 1269 2991 
Q 1406 3038 1543 3061 
Q 1681 3084 1819 3084 
Q 2600 3084 3056 2656 
Q 3513 2228 3513 1497 
Q 3513 744 3044 326 
Q 2575 -91 1722 -91 
Q 1428 -91 1123 -41 
Q 819 9 494 109 
L 494 744 
Q 775 591 1075 516 
Q 1375 441 1709 441 
Q 2250 441 2565 725 
Q 2881 1009 2881 1497 
Q 2881 1984 2565 2268 
Q 2250 2553 1709 2553 
Q 1456 2553 1204 2497 
Q 953 2441 691 2322 
L 691 4666 
z
" transform="scale(0.015625)"/>
       </defs>
       <use xlink:href="#DejaVuSans-35"/>
      </g>
     </g>
    </g>
    <g id="text_7">
     <!-- $W$ (m/hour) -->
     <g transform="translate(220.059 330.476562) scale(0.1 -0.1)">
      <defs>
       <path id="DejaVuSans-Oblique-57" d="M 616 4666 
L 1228 4666 
L 1453 697 
L 3213 4666 
L 3916 4666 
L 4147 697 
L 5888 4666 
L 6528 4666 
L 4453 0 
L 3659 0 
L 3444 3891 
L 1697 0 
L 903 0 
L 616 4666 
z
" transform="scale(0.015625)"/>
       <path id="DejaVuSans-20" transform="scale(0.015625)"/>
       <path id="DejaVuSans-28" d="M 1984 4856 
Q 1566 4138 1362 3434 
Q 1159 2731 1159 2009 
Q 1159 1288 1364 580 
Q 1569 -128 1984 -844 
L 1484 -844 
Q 1016 -109 783 600 
Q 550 1309 550 2009 
Q 550 2706 781 3412 
Q 1013 4119 1484 4856 
L 1984 4856 
z
" transform="scale(0.015625)"/>
       <path id="DejaVuSans-6d" d="M 3328 2828 
Q 3544 3216 3844 3400 
Q 4144 3584 4550 3584 
Q 5097 3584 5394 3201 
Q 5691 2819 5691 2113 
L 5691 0 
L 5113 0 
L 5113 2094 
Q 5113 2597 4934 2840 
Q 4756 3084 4391 3084 
Q 3944 3084 3684 2787 
Q 3425 2491 3425 1978 
L 3425 0 
L 2847 0 
L 2847 2094 
Q 2847 2600 2669 2842 
Q 2491 3084 2119 3084 
Q 1678 3084 1418 2786 
Q 1159 2488 1159 1978 
L 1159 0 
L 581 0 
L 581 3500 
L 1159 3500 
L 1159 2956 
Q 1356 3278 1631 3431 
Q 1906 3584 2284 3584 
Q 2666 3584 2933 3390 
Q 3200 3197 3328 2828 
z
" transform="scale(0.015625)"/>
       <path id="DejaVuSans-2f" d="M 1625 4666 
L 2156 4666 
L 531 -594 
L 0 -594 
L 1625 4666 
z
" transform="scale(0.015625)"/>
       <path id="DejaVuSans-68" d="M 3513 2113 
L 3513 0 
L 2938 0 
L 2938 2094 
Q 2938 2591 2744 2837 
Q 2550 3084 2163 3084 
Q 1697 3084 1428 2787 
Q 1159 2491 1159 1978 
L 1159 0 
L 581 0 
L 581 4863 
L 1159 4863 
L 1159 2956 
Q 1366 3272 1645 3428 
Q 1925 3584 2291 3584 
Q 2894 3584 3203 3211 
Q 3513 2838 3513 2113 
z
" transform="scale(0.015625)"/>
       <path id="DejaVuSans-6f" d="M 1959 3097 
Q 1497 3097 1228 2736 
Q 959 2375 959 1747 
Q 959 1119 1226 758 
Q 1494 397 1959 397 
Q 2419 397 2687 759 
Q 2956 1122 2956 1747 
Q 2956 2369 2687 2733 
Q 2419 3097 1959 3097 
z
M 1959 3584 
Q 2709 3584 3137 3096 
Q 3566 2609 3566 1747 
Q 3566 888 3137 398 
Q 2709 -91 1959 -91 
Q 1206 -91 779 398 
Q 353 888 353 1747 
Q 353 2609 779 3096 
Q 1206 3584 1959 3584 
z
" transform="scale(0.015625)"/>
       <path id="DejaVuSans-75" d="M 544 1381 
L 544 3500 
L 1119 3500 
L 1119 1403 
Q 1119 906 1312 657 
Q 1506 409 1894 409 
Q 2359 409 2629 706 
Q 2900 1003 2900 1516 
L 2900 3500 
L 3475 3500 
L 3475 0 
L 2900 0 
L 2900 538 
Q 2691 219 2414 64 
Q 2138 -91 1772 -91 
Q 1169 -91 856 284 
Q 544 659 544 1381 
z
M 1991 3584 
L 1991 3584 
z
" transform="scale(0.015625)"/>
       <path id="DejaVuSans-72" d="M 2631 2963 
Q 2534 3019 2420 3045 
Q 2306 3072 2169 3072 
Q 1681 3072 1420 2755 
Q 1159 2438 1159 1844 
L 1159 0 
L 581 0 
L 581 3500 
L 1159 3500 
L 1159 2956 
Q 1341 3275 1631 3429 
Q 1922 3584 2338 3584 
Q 2397 3584 2469 3576 
Q 2541 3569 2628 3553 
L 2631 2963 
z
" transform="scale(0.015625)"/>
       <path id="DejaVuSans-29" d="M 513 4856 
L 1013 4856 
Q 1481 4119 1714 3412 
Q 1947 2706 1947 2009 
Q 1947 1309 1714 600 
Q 1481 -109 1013 -844 
L 513 -844 
Q 928 -128 1133 580 
Q 1338 1288 1338 2009 
Q 1338 2731 1133 3434 
Q 928 4138 513 4856 
z
" transform="scale(0.015625)"/>
      </defs>
      <use xlink:href="#DejaVuSans-Oblique-57" transform="translate(0 0.015625)"/>
      <use xlink:href="#DejaVuSans-20" transform="translate(98.876953 0.015625)"/>
      <use xlink:href="#DejaVuSans-28" transform="translate(130.664062 0.015625)"/>
      <use xlink:href="#DejaVuSans-6d" transform="translate(169.677734 0.015625)"/>
      <use xlink:href="#DejaVuSans-2f" transform="translate(267.089844 0.015625)"/>
      <use xlink:href="#DejaVuSans-68" transform="translate(300.78125 0.015625)"/>
      <use xlink:href="#DejaVuSans-6f" transform="translate(364.160156 0.015625)"/>
      <use xlink:href="#DejaVuSans-75" transform="translate(425.341797 0.015625)"/>
      <use xlink:href="#DejaVuSans-72" transform="translate(488.720703 0.015625)"/>
      <use xlink:href="#DejaVuSans-29" transform="translate(529.833984 0.015625)"/>
     </g>
    </g>
   </g>
   <g id="matplotlib.axis_2">
    <g id="ytick_1">
     <g id="line2d_7">
      <defs>
       <path id="me79226c7ba" d="M 0 0 
L -3.5 0 
" style="stroke: #000000; stroke-width: 0.8"/>
      </defs>
      <g>
       <use xlink:href="#me79226c7ba" x="47.018" y="289.820618" style="stroke: #000000; stroke-width: 0.8"/>
      </g>
     </g>
     <g id="text_8">
      <!-- 0 -->
      <g transform="translate(33.6555 293.619837) scale(0.1 -0.1)">
       <use xlink:href="#DejaVuSans-30"/>
      </g>
     </g>
    </g>
    <g id="ytick_2">
     <g id="line2d_8">
      <g>
       <use xlink:href="#me79226c7ba" x="47.018" y="252.476076" style="stroke: #000000; stroke-width: 0.8"/>
      </g>
     </g>
     <g id="text_9">
      <!-- 5 -->
      <g transform="translate(33.6555 256.275295) scale(0.1 -0.1)">
       <use xlink:href="#DejaVuSans-35"/>
      </g>
     </g>
    </g>
    <g id="ytick_3">
     <g id="line2d_9">
      <g>
       <use xlink:href="#me79226c7ba" x="47.018" y="215.131534" style="stroke: #000000; stroke-width: 0.8"/>
      </g>
     </g>
     <g id="text_10">
      <!-- 10 -->
      <g transform="translate(27.293 218.930753) scale(0.1 -0.1)">
       <use xlink:href="#DejaVuSans-31"/>
       <use xlink:href="#DejaVuSans-30" transform="translate(63.623047 0)"/>
      </g>
     </g>
    </g>
    <g id="ytick_4">
     <g id="line2d_10">
      <g>
       <use xlink:href="#me79226c7ba" x="47.018" y="177.786992" style="stroke: #000000; stroke-width: 0.8"/>
      </g>
     </g>
     <g id="text_11">
      <!-- 15 -->
      <g transform="translate(27.293 181.586211) scale(0.1 -0.1)">
       <use xlink:href="#DejaVuSans-31"/>
       <use xlink:href="#DejaVuSans-35" transform="translate(63.623047 0)"/>
      </g>
     </g>
    </g>
    <g id="ytick_5">
     <g id="line2d_11">
      <g>
       <use xlink:href="#me79226c7ba" x="47.018" y="140.44245" style="stroke: #000000; stroke-width: 0.8"/>
      </g>
     </g>
     <g id="text_12">
      <!-- 20 -->
      <g transform="translate(27.293 144.241669) scale(0.1 -0.1)">
       <use xlink:href="#DejaVuSans-32"/>
       <use xlink:href="#DejaVuSans-30" transform="translate(63.623047 0)"/>
      </g>
     </g>
    </g>
    <g id="ytick_6">
     <g id="line2d_12">
      <g>
       <use xlink:href="#me79226c7ba" x="47.018" y="103.097908" style="stroke: #000000; stroke-width: 0.8"/>
      </g>
     </g>
     <g id="text_13">
      <!-- 25 -->
      <g transform="translate(27.293 106.897127) scale(0.1 -0.1)">
       <use xlink:href="#DejaVuSans-32"/>
       <use xlink:href="#DejaVuSans-35" transform="translate(63.623047 0)"/>
      </g>
     </g>
    </g>
    <g id="ytick_7">
     <g id="line2d_13">
      <g>
       <use xlink:href="#me79226c7ba" x="47.018" y="65.753366" style="stroke: #000000; stroke-width: 0.8"/>
      </g>
     </g>
     <g id="text_14">
      <!-- 30 -->
      <g transform="translate(27.293 69.552585) scale(0.1 -0.1)">
       <use xlink:href="#DejaVuSans-33"/>
       <use xlink:href="#DejaVuSans-30" transform="translate(63.623047 0)"/>
      </g>
     </g>
    </g>
    <g id="ytick_8">
     <g id="line2d_14">
      <g>
       <use xlink:href="#me79226c7ba" x="47.018" y="28.408824" style="stroke: #000000; stroke-width: 0.8"/>
      </g>
     </g>
     <g id="text_15">
      <!-- 35 -->
      <g transform="translate(27.293 32.208043) scale(0.1 -0.1)">
       <use xlink:href="#DejaVuSans-33"/>
       <use xlink:href="#DejaVuSans-35" transform="translate(63.623047 0)"/>
      </g>
     </g>
    </g>
    <g id="text_16">
     <!-- $Q_{lc}$ (kW) -->
     <g transform="translate(21.213312 176.8) rotate(-90) scale(0.1 -0.1)">
      <defs>
       <path id="DejaVuSans-Oblique-51" d="M 2309 -84 
Q 2275 -88 2237 -89 
Q 2200 -91 2125 -91 
Q 1250 -91 756 411 
Q 263 913 263 1797 
Q 263 2319 452 2844 
Q 641 3369 978 3788 
Q 1369 4269 1858 4509 
Q 2347 4750 2938 4750 
Q 3794 4750 4287 4245 
Q 4781 3741 4781 2869 
Q 4781 1928 4265 1147 
Q 3750 366 2919 44 
L 3553 -825 
L 2847 -825 
L 2309 -84 
z
M 2919 4238 
Q 2400 4238 2003 3986 
Q 1606 3734 1313 3219 
Q 1125 2891 1026 2522 
Q 928 2153 928 1778 
Q 928 1128 1239 775 
Q 1550 422 2119 422 
Q 2631 422 3032 676 
Q 3434 931 3719 1434 
Q 3909 1772 4009 2142 
Q 4109 2513 4109 2881 
Q 4109 3528 3796 3883 
Q 3484 4238 2919 4238 
z
" transform="scale(0.015625)"/>
       <path id="DejaVuSans-Oblique-6c" d="M 1172 4863 
L 1747 4863 
L 800 0 
L 225 0 
L 1172 4863 
z
" transform="scale(0.015625)"/>
       <path id="DejaVuSans-Oblique-63" d="M 3431 3366 
L 3316 2797 
Q 3109 2947 2876 3022 
Q 2644 3097 2394 3097 
Q 2119 3097 1870 3000 
Q 1622 2903 1453 2725 
Q 1184 2453 1037 2087 
Q 891 1722 891 1331 
Q 891 859 1127 628 
Q 1363 397 1844 397 
Q 2081 397 2348 469 
Q 2616 541 2906 684 
L 2797 116 
Q 2547 13 2283 -39 
Q 2019 -91 1741 -91 
Q 1044 -91 669 257 
Q 294 606 294 1253 
Q 294 1797 489 2255 
Q 684 2713 1069 3078 
Q 1331 3328 1684 3456 
Q 2038 3584 2456 3584 
Q 2700 3584 2940 3529 
Q 3181 3475 3431 3366 
z
" transform="scale(0.015625)"/>
       <path id="DejaVuSans-6b" d="M 581 4863 
L 1159 4863 
L 1159 1991 
L 2875 3500 
L 3609 3500 
L 1753 1863 
L 3688 0 
L 2938 0 
L 1159 1709 
L 1159 0 
L 581 0 
L 581 4863 
z
" transform="scale(0.015625)"/>
       <path id="DejaVuSans-57" d="M 213 4666 
L 850 4666 
L 1831 722 
L 2809 4666 
L 3519 4666 
L 4500 722 
L 5478 4666 
L 6119 4666 
L 4947 0 
L 4153 0 
L 3169 4050 
L 2175 0 
L 1381 0 
L 213 4666 
z
" transform="scale(0.015625)"/>
      </defs>
      <use xlink:href="#DejaVuSans-Oblique-51" transform="translate(0 0.015625)"/>
      <use xlink:href="#DejaVuSans-Oblique-6c" transform="translate(78.710938 -16.390625) scale(0.7)"/>
      <use xlink:href="#DejaVuSans-Oblique-63" transform="translate(98.15918 -16.390625) scale(0.7)"/>
      <use xlink:href="#DejaVuSans-20" transform="translate(139.379883 0.015625)"/>
      <use xlink:href="#DejaVuSans-28" transform="translate(171.166992 0.015625)"/>
      <use xlink:href="#DejaVuSans-6b" transform="translate(210.180664 0.015625)"/>
      <use xlink:href="#DejaVuSans-57" transform="translate(268.09082 0.015625)"/>
      <use xlink:href="#DejaVuSans-29" transform="translate(366.967773 0.015625)"/>
     </g>
    </g>
   </g>
   <g id="line2d_15">
    <path d="M 65.335364 216.860617 
L 72.811839 200.741514 
L 80.288314 187.756744 
L 87.764788 177.205055 
L 95.241263 168.486415 
L 102.717738 161.113201 
L 110.194213 154.701734 
L 117.670688 148.967428 
L 125.147163 143.705726 
L 132.623638 138.780594 
L 140.100113 134.106807 
L 147.576588 129.636111 
L 155.053063 125.343654 
L 162.529538 121.217579 
L 170.006013 117.249264 
L 177.482488 113.431127 
L 184.958963 109.754047 
L 192.435438 106.206076 
L 199.911913 102.773639 
L 207.388388 99.443275 
L 214.864863 96.202199 
L 222.341338 93.040224 
L 229.817813 89.949466 
L 237.294288 86.925567 
L 244.770763 83.967098 
L 252.247237 81.072402 
L 259.723712 78.240433 
L 267.200187 75.469329 
L 274.676662 72.755926 
L 282.153137 70.095709 
L 289.629612 67.483268 
L 297.106087 64.913079 
L 304.582562 62.380453 
L 312.059037 59.882376 
L 319.535512 57.41796 
L 327.011987 54.988409 
L 334.488462 52.596723 
L 341.964937 50.246092 
L 349.441412 47.938514 
L 356.917887 45.673215 
L 364.394362 43.445436 
L 371.870837 41.246046 
L 379.347312 39.062419 
L 386.823787 36.880888 
L 394.300262 34.690977 
L 401.776737 32.491374 
L 409.253212 30.297375 
L 416.729686 28.149461 
L 424.206161 26.121518 
L 431.682636 24.329188 
" clip-path="url(#p41f6ac7626)" style="fill: none; stroke: #1f77b4; stroke-width: 1.5; stroke-linecap: square"/>
   </g>
   <g id="line2d_16">
    <path d="M 65.335364 255.525093 
L 72.811839 247.020057 
L 80.288314 240.129843 
L 87.764788 234.498799 
L 95.241263 229.821862 
L 102.717738 225.849154 
L 110.194213 222.38361 
L 117.670688 219.276555 
L 125.147163 216.421591 
L 132.623638 213.746744 
L 140.100113 211.206753 
L 147.576588 208.775424 
L 155.053063 206.438918 
L 162.529538 204.19031 
L 170.006013 202.025596 
L 177.482488 199.941106 
L 184.958963 197.932189 
L 192.435438 195.99287 
L 199.911913 194.116207 
L 207.388388 192.294982 
L 214.864863 190.522465 
L 222.341338 188.793035 
L 229.817813 187.102513 
L 237.294288 185.448185 
L 244.770763 183.828522 
L 252.247237 182.242729 
L 259.723712 180.690213 
L 267.200187 179.170092 
L 274.676662 177.680965 
L 282.153137 176.220766 
L 289.629612 174.786936 
L 297.106087 173.376764 
L 304.582562 171.987809 
L 312.059037 170.61832 
L 319.535512 169.267503 
L 327.011987 167.935564 
L 334.488462 166.623485 
L 341.964937 165.332524 
L 349.441412 164.063533 
L 356.917887 162.81624 
L 364.394362 161.588661 
L 371.870837 160.376885 
L 379.347312 159.175354 
L 386.823787 157.977948 
L 394.300262 156.779816 
L 401.776737 155.580037 
L 409.253212 154.384958 
L 416.729686 153.212023 
L 424.206161 152.093733 
L 431.682636 151.08136 
" clip-path="url(#p41f6ac7626)" style="fill: none; stroke: #ff7f0e; stroke-width: 1.5; stroke-linecap: square"/>
   </g>
   <g id="line2d_17">
    <path d="M 65.335364 277.3571 
L 72.811839 274.031701 
L 80.288314 271.331491 
L 87.764788 269.118852 
L 95.241263 267.27614 
L 102.717738 265.706644 
L 110.194213 264.334168 
L 117.670688 263.101279 
L 125.147163 261.966882 
L 132.623638 260.903219 
L 140.100113 259.892814 
L 147.576588 258.925516 
L 155.053063 257.9959 
L 162.529538 257.101178 
L 170.006013 256.239661 
L 177.482488 255.409788 
L 184.958963 254.609629 
L 192.435438 253.836769 
L 199.911913 253.088464 
L 207.388388 252.361894 
L 214.864863 251.654472 
L 222.341338 250.964062 
L 229.817813 250.289096 
L 237.294288 249.628566 
L 244.770763 248.981903 
L 252.247237 248.348794 
L 259.723712 247.728972 
L 267.200187 247.122047 
L 274.676662 246.527396 
L 282.153137 245.944149 
L 289.629612 245.371265 
L 297.106087 244.807675 
L 304.582562 244.252449 
L 312.059037 243.704959 
L 319.535512 243.164971 
L 327.011987 242.632643 
L 334.488462 242.108415 
L 341.964937 241.592793 
L 349.441412 241.086066 
L 356.917887 240.588021 
L 364.394362 240.097721 
L 371.870837 239.613443 
L 379.347312 239.132842 
L 386.823787 238.653413 
L 394.300262 238.173267 
L 401.776737 237.692225 
L 409.253212 237.213156 
L 416.729686 236.74349 
L 424.206161 236.29673 
L 431.682636 235.893832 
" clip-path="url(#p41f6ac7626)" style="fill: none; stroke: #2ca02c; stroke-width: 1.5; stroke-linecap: square"/>
   </g>
   <g id="line2d_18">
    <path d="M 65.335364 288.948638 
L 72.811839 288.177108 
L 80.288314 287.563472 
L 87.764788 287.073397 
L 95.241263 286.677005 
L 102.717738 286.349368 
L 110.194213 286.070878 
L 117.670688 285.826596 
L 125.147163 285.60584 
L 132.623638 285.401399 
L 140.100113 285.208708 
L 147.576588 285.025048 
L 155.053063 284.848828 
L 162.529538 284.679022 
L 170.006013 284.514766 
L 177.482488 284.35513 
L 184.958963 284.199055 
L 192.435438 284.045387 
L 199.911913 283.892995 
L 207.388388 283.740957 
L 214.864863 283.58868 
L 222.341338 283.436022 
L 229.817813 283.283322 
L 237.294288 283.131357 
L 244.770763 282.981238 
L 252.247237 282.834242 
L 259.723712 282.691628 
L 267.200187 282.554467 
L 274.676662 282.42347 
L 282.153137 282.298948 
L 289.629612 282.180667 
L 297.106087 282.068017 
L 304.582562 281.960104 
L 312.059037 281.855926 
L 319.535512 281.754571 
L 327.011987 281.655401 
L 334.488462 281.558174 
L 341.964937 281.463035 
L 349.441412 281.371005 
L 356.917887 281.283013 
L 364.394362 281.200475 
L 371.870837 281.124747 
L 379.347312 281.056097 
L 386.823787 280.99412 
L 394.300262 280.936336 
L 401.776737 280.879316 
L 409.253212 280.816862 
L 416.729686 280.740669 
L 424.206161 280.640103 
L 431.682636 280.501846 
" clip-path="url(#p41f6ac7626)" style="fill: none; stroke: #d62728; stroke-width: 1.5; stroke-linecap: square"/>
   </g>
   <g id="patch_3">
    <path d="M 47.018 302.2 
L 47.018 10.8 
" style="fill: none; stroke: #000000; stroke-width: 0.8; stroke-linejoin: miter; stroke-linecap: square"/>
   </g>
   <g id="patch_4">
    <path d="M 450 302.2 
L 450 10.8 
" style="fill: none; stroke: #000000; stroke-width: 0.8; stroke-linejoin: miter; stroke-linecap: square"/>
   </g>
   <g id="patch_5">
    <path d="M 47.018 302.2 
L 450 302.2 
" style="fill: none; stroke: #000000; stroke-width: 0.8; stroke-linejoin: miter; stroke-linecap: square"/>
   </g>
   <g id="patch_6">
    <path d="M 47.018 10.8 
L 450 10.8 
" style="fill: none; stroke: #000000; stroke-width: 0.8; stroke-linejoin: miter; stroke-linecap: square"/>
   </g>
   <g id="legend_1">
    <g id="patch_7">
     <path d="M 54.018 77.5125 
L 132.888313 77.5125 
Q 134.888313 77.5125 134.888313 75.5125 
L 134.888313 17.8 
Q 134.888313 15.8 132.888313 15.8 
L 54.018 15.8 
Q 52.018 15.8 52.018 17.8 
L 52.018 75.5125 
Q 52.018 77.5125 54.018 77.5125 
z
" style="fill: #ffffff; opacity: 0.8; stroke: #cccccc; stroke-linejoin: miter"/>
    </g>
    <g id="line2d_19">
     <path d="M 56.018 23.898438 
L 66.018 23.898438 
L 76.018 23.898438 
" style="fill: none; stroke: #1f77b4; stroke-width: 1.5; stroke-linecap: square"/>
    </g>
    <g id="text_17">
     <!-- Ts=100 K -->
     <g transform="translate(84.018 27.398438) scale(0.1 -0.1)">
      <defs>
       <path id="DejaVuSans-54" d="M -19 4666 
L 3928 4666 
L 3928 4134 
L 2272 4134 
L 2272 0 
L 1638 0 
L 1638 4134 
L -19 4134 
L -19 4666 
z
" transform="scale(0.015625)"/>
       <path id="DejaVuSans-73" d="M 2834 3397 
L 2834 2853 
Q 2591 2978 2328 3040 
Q 2066 3103 1784 3103 
Q 1356 3103 1142 2972 
Q 928 2841 928 2578 
Q 928 2378 1081 2264 
Q 1234 2150 1697 2047 
L 1894 2003 
Q 2506 1872 2764 1633 
Q 3022 1394 3022 966 
Q 3022 478 2636 193 
Q 2250 -91 1575 -91 
Q 1294 -91 989 -36 
Q 684 19 347 128 
L 347 722 
Q 666 556 975 473 
Q 1284 391 1588 391 
Q 1994 391 2212 530 
Q 2431 669 2431 922 
Q 2431 1156 2273 1281 
Q 2116 1406 1581 1522 
L 1381 1569 
Q 847 1681 609 1914 
Q 372 2147 372 2553 
Q 372 3047 722 3315 
Q 1072 3584 1716 3584 
Q 2034 3584 2315 3537 
Q 2597 3491 2834 3397 
z
" transform="scale(0.015625)"/>
       <path id="DejaVuSans-3d" d="M 678 2906 
L 4684 2906 
L 4684 2381 
L 678 2381 
L 678 2906 
z
M 678 1631 
L 4684 1631 
L 4684 1100 
L 678 1100 
L 678 1631 
z
" transform="scale(0.015625)"/>
       <path id="DejaVuSans-4b" d="M 628 4666 
L 1259 4666 
L 1259 2694 
L 3353 4666 
L 4166 4666 
L 1850 2491 
L 4331 0 
L 3500 0 
L 1259 2247 
L 1259 0 
L 628 0 
L 628 4666 
z
" transform="scale(0.015625)"/>
      </defs>
      <use xlink:href="#DejaVuSans-54"/>
      <use xlink:href="#DejaVuSans-73" transform="translate(44.583984 0)"/>
      <use xlink:href="#DejaVuSans-3d" transform="translate(96.683594 0)"/>
      <use xlink:href="#DejaVuSans-31" transform="translate(180.472656 0)"/>
      <use xlink:href="#DejaVuSans-30" transform="translate(244.095703 0)"/>
      <use xlink:href="#DejaVuSans-30" transform="translate(307.71875 0)"/>
      <use xlink:href="#DejaVuSans-20" transform="translate(371.341797 0)"/>
      <use xlink:href="#DejaVuSans-4b" transform="translate(403.128906 0)"/>
     </g>
    </g>
    <g id="line2d_20">
     <path d="M 56.018 38.576563 
L 66.018 38.576563 
L 76.018 38.576563 
" style="fill: none; stroke: #ff7f0e; stroke-width: 1.5; stroke-linecap: square"/>
    </g>
    <g id="text_18">
     <!-- Ts=160 K -->
     <g transform="translate(84.018 42.076563) scale(0.1 -0.1)">
      <defs>
       <path id="DejaVuSans-36" d="M 2113 2584 
Q 1688 2584 1439 2293 
Q 1191 2003 1191 1497 
Q 1191 994 1439 701 
Q 1688 409 2113 409 
Q 2538 409 2786 701 
Q 3034 994 3034 1497 
Q 3034 2003 2786 2293 
Q 2538 2584 2113 2584 
z
M 3366 4563 
L 3366 3988 
Q 3128 4100 2886 4159 
Q 2644 4219 2406 4219 
Q 1781 4219 1451 3797 
Q 1122 3375 1075 2522 
Q 1259 2794 1537 2939 
Q 1816 3084 2150 3084 
Q 2853 3084 3261 2657 
Q 3669 2231 3669 1497 
Q 3669 778 3244 343 
Q 2819 -91 2113 -91 
Q 1303 -91 875 529 
Q 447 1150 447 2328 
Q 447 3434 972 4092 
Q 1497 4750 2381 4750 
Q 2619 4750 2861 4703 
Q 3103 4656 3366 4563 
z
" transform="scale(0.015625)"/>
      </defs>
      <use xlink:href="#DejaVuSans-54"/>
      <use xlink:href="#DejaVuSans-73" transform="translate(44.583984 0)"/>
      <use xlink:href="#DejaVuSans-3d" transform="translate(96.683594 0)"/>
      <use xlink:href="#DejaVuSans-31" transform="translate(180.472656 0)"/>
      <use xlink:href="#DejaVuSans-36" transform="translate(244.095703 0)"/>
      <use xlink:href="#DejaVuSans-30" transform="translate(307.71875 0)"/>
      <use xlink:href="#DejaVuSans-20" transform="translate(371.341797 0)"/>
      <use xlink:href="#DejaVuSans-4b" transform="translate(403.128906 0)"/>
     </g>
    </g>
    <g id="line2d_21">
     <path d="M 56.018 53.254687 
L 66.018 53.254687 
L 76.018 53.254687 
" style="fill: none; stroke: #2ca02c; stroke-width: 1.5; stroke-linecap: square"/>
    </g>
    <g id="text_19">
     <!-- Ts=220 K -->
     <g transform="translate(84.018 56.754687) scale(0.1 -0.1)">
      <use xlink:href="#DejaVuSans-54"/>
      <use xlink:href="#DejaVuSans-73" transform="translate(44.583984 0)"/>
      <use xlink:href="#DejaVuSans-3d" transform="translate(96.683594 0)"/>
      <use xlink:href="#DejaVuSans-32" transform="translate(180.472656 0)"/>
      <use xlink:href="#DejaVuSans-32" transform="translate(244.095703 0)"/>
      <use xlink:href="#DejaVuSans-30" transform="translate(307.71875 0)"/>
      <use xlink:href="#DejaVuSans-20" transform="translate(371.341797 0)"/>
      <use xlink:href="#DejaVuSans-4b" transform="translate(403.128906 0)"/>
     </g>
    </g>
    <g id="line2d_22">
     <path d="M 56.018 67.932813 
L 66.018 67.932813 
L 76.018 67.932813 
" style="fill: none; stroke: #d62728; stroke-width: 1.5; stroke-linecap: square"/>
    </g>
    <g id="text_20">
     <!-- Ts=260 K -->
     <g transform="translate(84.018 71.432813) scale(0.1 -0.1)">
      <use xlink:href="#DejaVuSans-54"/>
      <use xlink:href="#DejaVuSans-73" transform="translate(44.583984 0)"/>
      <use xlink:href="#DejaVuSans-3d" transform="translate(96.683594 0)"/>
      <use xlink:href="#DejaVuSans-32" transform="translate(180.472656 0)"/>
      <use xlink:href="#DejaVuSans-36" transform="translate(244.095703 0)"/>
      <use xlink:href="#DejaVuSans-30" transform="translate(307.71875 0)"/>
      <use xlink:href="#DejaVuSans-20" transform="translate(371.341797 0)"/>
      <use xlink:href="#DejaVuSans-4b" transform="translate(403.128906 0)"/>
     </g>
    </g>
   </g>
  </g>
 </g>
 <defs>
  <clipPath id="p41f6ac7626">
   <rect x="47.018" y="10.8" width="402.982" height="291.4"/>
  </clipPath>
 </defs>
</svg>
