<?xml version="1.0" encoding="utf-8" standalone="no"?>
<!DOCTYPE svg PUBLIC "-//W3C//DTD SVG 1.1//EN"
  "http://www.w3.org/Graphics/SVG/1.1/DTD/svg11.dtd">
<svg xmlns:xlink="http://www.w3.org/1999/xlink" width="460.8pt" height="345.6pt" viewBox="0 0 460.8 345.6" xmlns="http://www.w3.org/2000/svg" version="1.1">
 <metadata>
  <rdf:RDF xmlns:dc="http://purl.org/dc/elements/1.1/" xmlns:cc="http://creativecommons.org/ns#" xmlns:rdf="http://www.w3.org/1999/02/22-rdf-syntax-ns#">
   <cc:Work>
    <dc:type rdf:resource="http://purl.org/dc/dcmitype/StillImage"/>
    <dc:date>2026-02-12T01:21:44.899168</dc:date>
    <dc:format>image/svg+xml</dc:format>
    <dc:creator>
     <cc:Agent>
      <dc:title>Matplotlib v3.10.8, https://matplotlib.org/</dc:title>
     </cc:Agent>
    </dc:creator>
   </cc:Work>
  </rdf:RDF>
 </metadata>
 <defs>
  <style type="text/css">*{stroke-linejoin: round; stroke-linecap: butt}</style>
 </defs>
 <g id="figure_1">
  <g id="patch_1">
   <path d="M 0 345.6 
L 460.8 345.6 
L 460.8 0 
L 0 0 
L 0 345.6 
z
" style="fill: none"/>
  </g>
  <g id="axes_1">
   <g id="patch_2">
    <path d="M 47.018 302.2 
L 450 302.2 
L 450 10.8 
L 47.018 10.8 
L 47.018 302.2 
z
" style="fill: none"/>
   </g>
   <g id="FillBetweenPolyCollection_1">
    <path d="M 65.335364 216.758262 
L 65.335364 216.990315 
L 72.811839 200.889105 
L 80.288314 187.918545 
L 87.764788 177.37633 
L 95.241263 168.665706 
L 102.717738 161.299038 
L 110.194213 154.894134 
L 117.670688 149.164915 
L 125.147163 143.908066 
L 132.623638 138.987576 
L 140.100113 134.318783 
L 147.576588 129.853284 
L 155.053063 125.565796 
L 162.529538 121.443578 
L 170.006013 117.478916 
L 177.482488 113.664612 
L 184.958963 109.991212 
L 192.435438 106.446771 
L 199.911913 103.017693 
L 207.388388 99.690159 
L 214.864863 96.451613 
L 222.341338 93.291889 
L 229.817813 90.203751 
L 237.294288 87.182761 
L 244.770763 84.226635 
L 252.247237 81.334238 
L 259.723712 78.504519 
L 267.200187 75.735621 
L 274.676662 73.024372 
L 282.153137 70.36626 
L 289.629612 67.755871 
L 297.106087 65.187689 
L 304.582562 62.657029 
L 312.059037 60.160882 
L 319.535512 57.698412 
L 327.011987 55.270935 
L 334.488462 52.881294 
L 341.964937 50.532678 
L 349.441412 48.227084 
L 356.917887 45.963734 
L 364.394362 43.737872 
L 371.870837 41.54037 
L 379.347312 39.358607 
L 386.823787 37.178925 
L 394.300262 34.990856 
L 401.776737 32.793091 
L 409.253212 30.600922 
L 416.729686 28.454651 
L 424.206161 26.428263 
L 431.682636 24.637478 
L 431.682636 24.045455 
L 431.682636 24.045455 
L 424.206161 25.839258 
L 416.729686 27.86906 
L 409.253212 30.018941 
L 401.776737 32.214792 
L 394.300262 34.416244 
L 386.823787 36.607989 
L 379.347312 38.791341 
L 371.870837 40.976786 
L 364.394362 43.178006 
L 356.917887 45.407644 
L 349.441412 47.674838 
L 341.964937 49.984347 
L 334.488462 52.336951 
L 327.011987 54.730648 
L 319.535512 57.162242 
L 312.059037 59.628885 
L 304.582562 62.129267 
L 297.106087 64.664225 
L 289.629612 67.236778 
L 282.153137 69.851622 
L 274.676662 72.514284 
L 267.200187 75.230188 
L 259.723712 78.003849 
L 252.247237 80.838446 
L 244.770763 83.735833 
L 237.294288 86.69706 
L 229.817813 89.723267 
L 222.341338 92.816742 
L 214.864863 95.981932 
L 207.388388 99.226097 
L 199.911913 102.559427 
L 192.435438 105.994505 
L 184.958963 109.545182 
L 177.482488 113.225087 
L 170.006013 117.046179 
L 162.529538 121.017926 
L 155.053063 125.147717 
L 147.576588 129.443186 
L 140.100113 133.91705 
L 132.623638 138.59498 
L 125.147163 143.525126 
L 117.670688 148.792339 
L 110.194213 154.532938 
L 102.717738 160.950724 
L 95.241263 168.332488 
L 87.764788 177.061364 
L 80.288314 187.626185 
L 72.811839 200.623878 
L 65.335364 216.758262 
z
" clip-path="url(#p7cedbe185c)" style="fill: #1f77b4; fill-opacity: 0.45"/>
   </g>
   <g id="FillBetweenPolyCollection_2">
    <path d="M 65.335364 255.454536 
L 65.335364 255.590537 
L 72.811839 247.099973 
L 80.288314 240.22122 
L 87.764788 234.598923 
L 95.241263 229.92941 
L 102.717738 225.96306 
L 110.194213 222.502997 
L 117.670688 219.400812 
L 125.147163 216.550201 
L 132.623638 213.879401 
L 140.100113 211.34325 
L 147.576588 208.915601 
L 155.053063 206.582634 
L 162.529538 204.337434 
L 170.006013 202.175997 
L 177.482488 200.094656 
L 184.958963 198.088764 
L 192.435438 196.152355 
L 199.911913 194.278499 
L 207.388388 192.459987 
L 214.864863 190.690102 
L 222.341338 188.963235 
L 229.817813 187.275219 
L 237.294288 185.623342 
L 244.770763 184.006082 
L 252.247237 182.422643 
L 259.723712 180.872434 
L 267.200187 179.354596 
L 274.676662 177.867705 
L 282.153137 176.409697 
L 289.629612 174.978015 
L 297.106087 173.569948 
L 304.582562 172.18306 
L 312.059037 170.815604 
L 319.535512 169.466785 
L 327.011987 168.136815 
L 334.488462 166.826675 
L 341.964937 165.537624 
L 349.441412 164.270517 
L 356.917887 163.025081 
L 364.394362 161.799336 
L 371.870837 160.58936 
L 379.347312 159.389617 
L 386.823787 158.193993 
L 394.300262 156.997643 
L 401.776737 155.799643 
L 409.253212 154.606329 
L 416.729686 153.435118 
L 424.206161 152.318464 
L 431.682636 151.307563 
L 431.682636 150.856006 
L 431.682636 150.856006 
L 424.206161 151.869824 
L 416.729686 152.989724 
L 409.253212 154.16436 
L 401.776737 155.361181 
L 394.300262 156.562717 
L 386.823787 157.762607 
L 379.347312 158.961771 
L 371.870837 160.165065 
L 364.394362 161.378616 
L 356.917887 162.607974 
L 349.441412 163.85707 
L 341.964937 165.12789 
L 334.488462 166.420713 
L 327.011987 167.734682 
L 319.535512 169.068542 
L 312.059037 170.42131 
L 304.582562 171.792781 
L 297.106087 173.183749 
L 289.629612 174.595972 
L 282.153137 176.03189 
L 274.676662 177.494212 
L 267.200187 178.985455 
L 259.723712 180.507741 
L 252.247237 182.06249 
L 244.770763 183.650564 
L 237.294288 185.272556 
L 229.817813 186.929266 
L 222.341338 188.622219 
L 214.864863 190.354139 
L 207.388388 192.129211 
L 199.911913 193.953066 
L 192.435438 195.832448 
L 184.958963 197.774584 
L 177.482488 199.786431 
L 170.006013 201.873967 
L 162.529538 204.041854 
L 155.053063 206.293764 
L 147.576588 208.633704 
L 140.100113 211.068608 
L 132.623638 213.612339 
L 125.147163 216.291129 
L 117.670688 219.150294 
L 110.194213 222.261848 
L 102.717738 225.732463 
L 95.241263 229.711069 
L 87.764788 234.395231 
L 80.288314 240.035441 
L 72.811839 246.936376 
L 65.335364 255.454536 
z
" clip-path="url(#p7cedbe185c)" style="fill: #ff7f0e; fill-opacity: 0.45"/>
   </g>
   <g id="FillBetweenPolyCollection_3">
    <path d="M 65.335364 277.319084 
L 65.335364 277.393498 
L 72.811839 274.075719 
L 80.288314 271.38162 
L 87.764788 269.173914 
L 95.241263 267.335254 
L 102.717738 265.769188 
L 110.194213 264.399676 
L 117.670688 263.169428 
L 125.147163 262.037437 
L 132.623638 260.976023 
L 140.100113 259.967753 
L 147.576588 259.002502 
L 155.053063 258.074852 
L 162.529538 257.182021 
L 170.006013 256.322321 
L 177.482488 255.494193 
L 184.958963 254.69571 
L 192.435438 253.924464 
L 199.911913 253.177711 
L 207.388388 252.452646 
L 214.864863 251.746687 
L 222.341338 251.057705 
L 229.817813 250.384135 
L 237.294288 249.724972 
L 244.770763 249.079647 
L 252.247237 248.447847 
L 259.723712 247.829303 
L 267.200187 247.223626 
L 274.676662 246.63019 
L 282.153137 246.048129 
L 289.629612 245.476403 
L 297.106087 244.913943 
L 304.582562 244.359824 
L 312.059037 243.813421 
L 319.535512 243.274503 
L 327.011987 242.743229 
L 334.488462 242.220042 
L 341.964937 241.705446 
L 349.441412 241.199733 
L 356.917887 240.702688 
L 364.394362 240.213378 
L 371.870837 239.73008 
L 379.347312 239.250453 
L 386.823787 238.771997 
L 394.300262 238.292826 
L 401.776737 237.812759 
L 409.253212 237.334665 
L 416.729686 236.865959 
L 424.206161 236.420122 
L 431.682636 236.018074 
L 431.682636 235.765557 
L 431.682636 235.765557 
L 424.206161 236.16929 
L 416.729686 236.616987 
L 409.253212 237.087644 
L 401.776737 237.567721 
L 394.300262 238.049775 
L 386.823787 238.530925 
L 379.347312 239.011354 
L 371.870837 239.492954 
L 364.394362 239.978237 
L 356.917887 240.469551 
L 349.441412 240.968625 
L 341.964937 241.476396 
L 334.488462 241.993079 
L 327.011987 242.518385 
L 319.535512 243.051805 
L 312.059037 243.592903 
L 304.582562 244.141519 
L 297.106087 244.697889 
L 289.629612 245.262645 
L 282.153137 245.836718 
L 274.676662 246.421181 
L 267.200187 247.017078 
L 259.723712 247.62528 
L 252.247237 248.24641 
L 244.770763 248.880859 
L 237.294288 249.528893 
L 229.817813 250.190826 
L 222.341338 250.867225 
L 214.864863 251.559102 
L 207.388388 252.268029 
L 199.911913 252.996144 
L 192.435438 253.746044 
L 184.958963 254.520551 
L 177.482488 255.32242 
L 170.006013 256.154069 
L 162.529538 257.017436 
L 155.053063 257.914084 
L 147.576588 258.845706 
L 140.100113 259.815095 
L 132.623638 260.827686 
L 125.147163 261.893654 
L 117.670688 263.030514 
L 110.194213 264.266079 
L 102.717738 265.641561 
L 95.241263 267.214537 
L 87.764788 269.061431 
L 80.288314 271.279181 
L 72.811839 273.985737 
L 65.335364 277.319084 
z
" clip-path="url(#p7cedbe185c)" style="fill: #2ca02c; fill-opacity: 0.45"/>
   </g>
   <g id="FillBetweenPolyCollection_4">
    <path d="M 65.335364 288.944881 
L 65.335364 288.954545 
L 72.811839 288.180325 
L 80.288314 287.564802 
L 87.764788 287.07595 
L 95.241263 286.680904 
L 102.717738 286.354563 
L 110.194213 286.07728 
L 117.670688 285.834193 
L 125.147163 285.614646 
L 132.623638 285.411443 
L 140.100113 285.220025 
L 147.576588 285.037672 
L 155.053063 284.862792 
L 162.529538 284.694352 
L 170.006013 284.531481 
L 177.482488 284.373241 
L 184.958963 284.218557 
L 192.435438 284.066258 
L 199.911913 283.915213 
L 207.388388 283.764478 
L 214.864863 283.61345 
L 222.341338 283.46197 
L 229.817813 283.310351 
L 237.294288 283.159347 
L 244.770763 283.01004 
L 252.247237 282.863683 
L 259.723712 282.72151 
L 267.200187 282.584559 
L 274.676662 282.453518 
L 282.153137 282.328643 
L 289.629612 282.209726 
L 297.106087 282.096163 
L 304.582562 281.987071 
L 312.059037 281.881471 
L 319.535512 281.778545 
L 327.011987 281.677755 
L 334.488462 281.578828 
L 341.964937 281.482111 
L 349.441412 281.38844 
L 356.917887 281.299025 
L 364.394362 281.2152 
L 371.870837 281.138078 
L 379.347312 281.068185 
L 386.823787 281.005007 
L 394.300262 280.946552 
L 401.776737 280.889169 
L 409.253212 280.826473 
L 416.729686 280.750119 
L 424.206161 280.649224 
L 431.682636 280.510563 
L 431.682636 280.493707 
L 431.682636 280.493707 
L 424.206161 280.632158 
L 416.729686 280.733072 
L 409.253212 280.809375 
L 401.776737 280.871597 
L 394.300262 280.927984 
L 386.823787 280.984608 
L 379.347312 281.046 
L 371.870837 281.113617 
L 364.394362 281.187507 
L 356.917887 281.267681 
L 349.441412 281.35319 
L 341.964937 281.442828 
L 334.488462 281.535523 
L 327.011987 281.630564 
L 319.535512 281.72772 
L 312.059037 281.827255 
L 304.582562 281.929852 
L 297.106087 282.03646 
L 289.629612 282.148105 
L 282.153137 282.265695 
L 274.676662 282.389839 
L 267.200187 282.520728 
L 259.723712 282.658081 
L 252.247237 282.801165 
L 244.770763 282.948891 
L 237.294288 283.099965 
L 229.817813 283.253076 
L 222.341338 283.40708 
L 214.864863 283.561166 
L 207.388388 283.714966 
L 199.911913 283.868596 
L 192.435438 284.022616 
L 184.958963 284.177938 
L 177.482488 284.335667 
L 170.006013 284.496949 
L 162.529538 284.662842 
L 155.053063 284.834265 
L 147.576588 285.012075 
L 140.100113 285.197293 
L 132.623638 285.391502 
L 125.147163 285.597424 
L 117.670688 285.819631 
L 110.194213 286.06535 
L 102.717738 286.345296 
L 95.241263 286.674424 
L 87.764788 287.072483 
L 80.288314 287.564136 
L 72.811839 288.175853 
L 65.335364 288.944881 
z
" clip-path="url(#p7cedbe185c)" style="fill: #d62728; fill-opacity: 0.45"/>
   </g>
   <g id="matplotlib.axis_1">
    <g id="xtick_1">
     <g id="line2d_1">
      <defs>
       <path id="mce62cd98a4" d="M 0 0 
L 0 3.5 
" style="stroke: #000000; stroke-width: 0.8"/>
      </defs>
      <g>
       <use xlink:href="#mce62cd98a4" x="61.634886" y="302.2" style="stroke: #000000; stroke-width: 0.8"/>
      </g>
     </g>
     <g id="text_1">
      <!-- 0 -->
      <g transform="translate(58.453636 316.798437) scale(0.1 -0.1)">
       <defs>
        <path id="DejaVuSans-30" d="M 2034 4250 
Q 1547 4250 1301 3770 
Q 1056 3291 1056 2328 
Q 1056 1369 1301 889 
Q 1547 409 2034 409 
Q 2525 409 2770 889 
Q 3016 1369 3016 2328 
Q 3016 3291 2770 3770 
Q 2525 4250 2034 4250 
z
M 2034 4750 
Q 2819 4750 3233 4129 
Q 3647 3509 3647 2328 
Q 3647 1150 3233 529 
Q 2819 -91 2034 -91 
Q 1250 -91 836 529 
Q 422 1150 422 2328 
Q 422 3509 836 4129 
Q 1250 4750 2034 4750 
z
" transform="scale(0.015625)"/>
       </defs>
       <use xlink:href="#DejaVuSans-30"/>
      </g>
     </g>
    </g>
    <g id="xtick_2">
     <g id="line2d_2">
      <g>
       <use xlink:href="#mce62cd98a4" x="135.644436" y="302.2" style="stroke: #000000; stroke-width: 0.8"/>
      </g>
     </g>
     <g id="text_2">
      <!-- 1 -->
      <g transform="translate(132.463186 316.798437) scale(0.1 -0.1)">
       <defs>
        <path id="DejaVuSans-31" d="M 794 531 
L 1825 531 
L 1825 4091 
L 703 3866 
L 703 4441 
L 1819 4666 
L 2450 4666 
L 2450 531 
L 3481 531 
L 3481 0 
L 794 0 
L 794 531 
z
" transform="scale(0.015625)"/>
       </defs>
       <use xlink:href="#DejaVuSans-31"/>
      </g>
     </g>
    </g>
    <g id="xtick_3">
     <g id="line2d_3">
      <g>
       <use xlink:href="#mce62cd98a4" x="209.653986" y="302.2" style="stroke: #000000; stroke-width: 0.8"/>
      </g>
     </g>
     <g id="text_3">
      <!-- 2 -->
      <g transform="translate(206.472736 316.798437) scale(0.1 -0.1)">
       <defs>
        <path id="DejaVuSans-32" d="M 1228 531 
L 3431 531 
L 3431 0 
L 469 0 
L 469 531 
Q 828 903 1448 1529 
Q 2069 2156 2228 2338 
Q 2531 2678 2651 2914 
Q 2772 3150 2772 3378 
Q 2772 3750 2511 3984 
Q 2250 4219 1831 4219 
Q 1534 4219 1204 4116 
Q 875 4013 500 3803 
L 500 4441 
Q 881 4594 1212 4672 
Q 1544 4750 1819 4750 
Q 2544 4750 2975 4387 
Q 3406 4025 3406 3419 
Q 3406 3131 3298 2873 
Q 3191 2616 2906 2266 
Q 2828 2175 2409 1742 
Q 1991 1309 1228 531 
z
" transform="scale(0.015625)"/>
       </defs>
       <use xlink:href="#DejaVuSans-32"/>
      </g>
     </g>
    </g>
    <g id="xtick_4">
     <g id="line2d_4">
      <g>
       <use xlink:href="#mce62cd98a4" x="283.663536" y="302.2" style="stroke: #000000; stroke-width: 0.8"/>
      </g>
     </g>
     <g id="text_4">
      <!-- 3 -->
      <g transform="translate(280.482286 316.798437) scale(0.1 -0.1)">
       <defs>
        <path id="DejaVuSans-33" d="M 2597 2516 
Q 3050 2419 3304 2112 
Q 3559 1806 3559 1356 
Q 3559 666 3084 287 
Q 2609 -91 1734 -91 
Q 1441 -91 1130 -33 
Q 819 25 488 141 
L 488 750 
Q 750 597 1062 519 
Q 1375 441 1716 441 
Q 2309 441 2620 675 
Q 2931 909 2931 1356 
Q 2931 1769 2642 2001 
Q 2353 2234 1838 2234 
L 1294 2234 
L 1294 2753 
L 1863 2753 
Q 2328 2753 2575 2939 
Q 2822 3125 2822 3475 
Q 2822 3834 2567 4026 
Q 2313 4219 1838 4219 
Q 1578 4219 1281 4162 
Q 984 4106 628 3988 
L 628 4550 
Q 988 4650 1302 4700 
Q 1616 4750 1894 4750 
Q 2613 4750 3031 4423 
Q 3450 4097 3450 3541 
Q 3450 3153 3228 2886 
Q 3006 2619 2597 2516 
z
" transform="scale(0.015625)"/>
       </defs>
       <use xlink:href="#DejaVuSans-33"/>
      </g>
     </g>
    </g>
    <g id="xtick_5">
     <g id="line2d_5">
      <g>
       <use xlink:href="#mce62cd98a4" x="357.673086" y="302.2" style="stroke: #000000; stroke-width: 0.8"/>
      </g>
     </g>
     <g id="text_5">
      <!-- 4 -->
      <g transform="translate(354.491836 316.798437) scale(0.1 -0.1)">
       <defs>
        <path id="DejaVuSans-34" d="M 2419 4116 
L 825 1625 
L 2419 1625 
L 2419 4116 
z
M 2253 4666 
L 3047 4666 
L 3047 1625 
L 3713 1625 
L 3713 1100 
L 3047 1100 
L 3047 0 
L 2419 0 
L 2419 1100 
L 313 1100 
L 313 1709 
L 2253 4666 
z
" transform="scale(0.015625)"/>
       </defs>
       <use xlink:href="#DejaVuSans-34"/>
      </g>
     </g>
    </g>
    <g id="xtick_6">
     <g id="line2d_6">
      <g>
       <use xlink:href="#mce62cd98a4" x="431.682636" y="302.2" style="stroke: #000000; stroke-width: 0.8"/>
      </g>
     </g>
     <g id="text_6">
      <!-- 5 -->
      <g transform="translate(428.501386 316.798437) scale(0.1 -0.1)">
       <defs>
        <path id="DejaVuSans-35" d="M 691 4666 
L 3169 4666 
L 3169 4134 
L 1269 4134 
L 1269 2991 
Q 1406 3038 1543 3061 
Q 1681 3084 1819 3084 
Q 2600 3084 3056 2656 
Q 3513 2228 3513 1497 
Q 3513 744 3044 326 
Q 2575 -91 1722 -91 
Q 1428 -91 1123 -41 
Q 819 9 494 109 
L 494 744 
Q 775 591 1075 516 
Q 1375 441 1709 441 
Q 2250 441 2565 725 
Q 2881 1009 2881 1497 
Q 2881 1984 2565 2268 
Q 2250 2553 1709 2553 
Q 1456 2553 1204 2497 
Q 953 2441 691 2322 
L 691 4666 
z
" transform="scale(0.015625)"/>
       </defs>
       <use xlink:href="#DejaVuSans-35"/>
      </g>
     </g>
    </g>
    <g id="text_7">
     <!-- $W$ (m/hour) -->
     <g transform="translate(220.059 330.476562) scale(0.1 -0.1)">
      <defs>
       <path id="DejaVuSans-Oblique-57" d="M 616 4666 
L 1228 4666 
L 1453 697 
L 3213 4666 
L 3916 4666 
L 4147 697 
L 5888 4666 
L 6528 4666 
L 4453 0 
L 3659 0 
L 3444 3891 
L 1697 0 
L 903 0 
L 616 4666 
z
" transform="scale(0.015625)"/>
       <path id="DejaVuSans-20" transform="scale(0.015625)"/>
       <path id="DejaVuSans-28" d="M 1984 4856 
Q 1566 4138 1362 3434 
Q 1159 2731 1159 2009 
Q 1159 1288 1364 580 
Q 1569 -128 1984 -844 
L 1484 -844 
Q 1016 -109 783 600 
Q 550 1309 550 2009 
Q 550 2706 781 3412 
Q 1013 4119 1484 4856 
L 1984 4856 
z
" transform="scale(0.015625)"/>
       <path id="DejaVuSans-6d" d="M 3328 2828 
Q 3544 3216 3844 3400 
Q 4144 3584 4550 3584 
Q 5097 3584 5394 3201 
Q 5691 2819 5691 2113 
L 5691 0 
L 5113 0 
L 5113 2094 
Q 5113 2597 4934 2840 
Q 4756 3084 4391 3084 
Q 3944 3084 3684 2787 
Q 3425 2491 3425 1978 
L 3425 0 
L 2847 0 
L 2847 2094 
Q 2847 2600 2669 2842 
Q 2491 3084 2119 3084 
Q 1678 3084 1418 2786 
Q 1159 2488 1159 1978 
L 1159 0 
L 581 0 
L 581 3500 
L 1159 3500 
L 1159 2956 
Q 1356 3278 1631 3431 
Q 1906 3584 2284 3584 
Q 2666 3584 2933 3390 
Q 3200 3197 3328 2828 
z
" transform="scale(0.015625)"/>
       <path id="DejaVuSans-2f" d="M 1625 4666 
L 2156 4666 
L 531 -594 
L 0 -594 
L 1625 4666 
z
" transform="scale(0.015625)"/>
       <path id="DejaVuSans-68" d="M 3513 2113 
L 3513 0 
L 2938 0 
L 2938 2094 
Q 2938 2591 2744 2837 
Q 2550 3084 2163 3084 
Q 1697 3084 1428 2787 
Q 1159 2491 1159 1978 
L 1159 0 
L 581 0 
L 581 4863 
L 1159 4863 
L 1159 2956 
Q 1366 3272 1645 3428 
Q 1925 3584 2291 3584 
Q 2894 3584 3203 3211 
Q 3513 2838 3513 2113 
z
" transform="scale(0.015625)"/>
       <path id="DejaVuSans-6f" d="M 1959 3097 
Q 1497 3097 1228 2736 
Q 959 2375 959 1747 
Q 959 1119 1226 758 
Q 1494 397 1959 397 
Q 2419 397 2687 759 
Q 2956 1122 2956 1747 
Q 2956 2369 2687 2733 
Q 2419 3097 1959 3097 
z
M 1959 3584 
Q 2709 3584 3137 3096 
Q 3566 2609 3566 1747 
Q 3566 888 3137 398 
Q 2709 -91 1959 -91 
Q 1206 -91 779 398 
Q 353 888 353 1747 
Q 353 2609 779 3096 
Q 1206 3584 1959 3584 
z
" transform="scale(0.015625)"/>
       <path id="DejaVuSans-75" d="M 544 1381 
L 544 3500 
L 1119 3500 
L 1119 1403 
Q 1119 906 1312 657 
Q 1506 409 1894 409 
Q 2359 409 2629 706 
Q 2900 1003 2900 1516 
L 2900 3500 
L 3475 3500 
L 3475 0 
L 2900 0 
L 2900 538 
Q 2691 219 2414 64 
Q 2138 -91 1772 -91 
Q 1169 -91 856 284 
Q 544 659 544 1381 
z
M 1991 3584 
L 1991 3584 
z
" transform="scale(0.015625)"/>
       <path id="DejaVuSans-72" d="M 2631 2963 
Q 2534 3019 2420 3045 
Q 2306 3072 2169 3072 
Q 1681 3072 1420 2755 
Q 1159 2438 1159 1844 
L 1159 0 
L 581 0 
L 581 3500 
L 1159 3500 
L 1159 2956 
Q 1341 3275 1631 3429 
Q 1922 3584 2338 3584 
Q 2397 3584 2469 3576 
Q 2541 3569 2628 3553 
L 2631 2963 
z
" transform="scale(0.015625)"/>
       <path id="DejaVuSans-29" d="M 513 4856 
L 1013 4856 
Q 1481 4119 1714 3412 
Q 1947 2706 1947 2009 
Q 1947 1309 1714 600 
Q 1481 -109 1013 -844 
L 513 -844 
Q 928 -128 1133 580 
Q 1338 1288 1338 2009 
Q 1338 2731 1133 3434 
Q 928 4138 513 4856 
z
" transform="scale(0.015625)"/>
      </defs>
      <use xlink:href="#DejaVuSans-Oblique-57" transform="translate(0 0.015625)"/>
      <use xlink:href="#DejaVuSans-20" transform="translate(98.876953 0.015625)"/>
      <use xlink:href="#DejaVuSans-28" transform="translate(130.664062 0.015625)"/>
      <use xlink:href="#DejaVuSans-6d" transform="translate(169.677734 0.015625)"/>
      <use xlink:href="#DejaVuSans-2f" transform="translate(267.089844 0.015625)"/>
      <use xlink:href="#DejaVuSans-68" transform="translate(300.78125 0.015625)"/>
      <use xlink:href="#DejaVuSans-6f" transform="translate(364.160156 0.015625)"/>
      <use xlink:href="#DejaVuSans-75" transform="translate(425.341797 0.015625)"/>
      <use xlink:href="#DejaVuSans-72" transform="translate(488.720703 0.015625)"/>
      <use xlink:href="#DejaVuSans-29" transform="translate(529.833984 0.015625)"/>
     </g>
    </g>
   </g>
   <g id="matplotlib.axis_2">
    <g id="ytick_1">
     <g id="line2d_7">
      <defs>
       <path id="m889beb3d04" d="M 0 0 
L -3.5 0 
" style="stroke: #000000; stroke-width: 0.8"/>
      </defs>
      <g>
       <use xlink:href="#m889beb3d04" x="47.018" y="289.821327" style="stroke: #000000; stroke-width: 0.8"/>
      </g>
     </g>
     <g id="text_8">
      <!-- 0 -->
      <g transform="translate(33.6555 293.620546) scale(0.1 -0.1)">
       <use xlink:href="#DejaVuSans-30"/>
      </g>
     </g>
    </g>
    <g id="ytick_2">
     <g id="line2d_8">
      <g>
       <use xlink:href="#m889beb3d04" x="47.018" y="252.480524" style="stroke: #000000; stroke-width: 0.8"/>
      </g>
     </g>
     <g id="text_9">
      <!-- 5 -->
      <g transform="translate(33.6555 256.279742) scale(0.1 -0.1)">
       <use xlink:href="#DejaVuSans-35"/>
      </g>
     </g>
    </g>
    <g id="ytick_3">
     <g id="line2d_9">
      <g>
       <use xlink:href="#m889beb3d04" x="47.018" y="215.13972" style="stroke: #000000; stroke-width: 0.8"/>
      </g>
     </g>
     <g id="text_10">
      <!-- 10 -->
      <g transform="translate(27.293 218.938938) scale(0.1 -0.1)">
       <use xlink:href="#DejaVuSans-31"/>
       <use xlink:href="#DejaVuSans-30" transform="translate(63.623047 0)"/>
      </g>
     </g>
    </g>
    <g id="ytick_4">
     <g id="line2d_10">
      <g>
       <use xlink:href="#m889beb3d04" x="47.018" y="177.798916" style="stroke: #000000; stroke-width: 0.8"/>
      </g>
     </g>
     <g id="text_11">
      <!-- 15 -->
      <g transform="translate(27.293 181.598134) scale(0.1 -0.1)">
       <use xlink:href="#DejaVuSans-31"/>
       <use xlink:href="#DejaVuSans-35" transform="translate(63.623047 0)"/>
      </g>
     </g>
    </g>
    <g id="ytick_5">
     <g id="line2d_11">
      <g>
       <use xlink:href="#m889beb3d04" x="47.018" y="140.458112" style="stroke: #000000; stroke-width: 0.8"/>
      </g>
     </g>
     <g id="text_12">
      <!-- 20 -->
      <g transform="translate(27.293 144.25733) scale(0.1 -0.1)">
       <use xlink:href="#DejaVuSans-32"/>
       <use xlink:href="#DejaVuSans-30" transform="translate(63.623047 0)"/>
      </g>
     </g>
    </g>
    <g id="ytick_6">
     <g id="line2d_12">
      <g>
       <use xlink:href="#m889beb3d04" x="47.018" y="103.117308" style="stroke: #000000; stroke-width: 0.8"/>
      </g>
     </g>
     <g id="text_13">
      <!-- 25 -->
      <g transform="translate(27.293 106.916527) scale(0.1 -0.1)">
       <use xlink:href="#DejaVuSans-32"/>
       <use xlink:href="#DejaVuSans-35" transform="translate(63.623047 0)"/>
      </g>
     </g>
    </g>
    <g id="ytick_7">
     <g id="line2d_13">
      <g>
       <use xlink:href="#m889beb3d04" x="47.018" y="65.776504" style="stroke: #000000; stroke-width: 0.8"/>
      </g>
     </g>
     <g id="text_14">
      <!-- 30 -->
      <g transform="translate(27.293 69.575723) scale(0.1 -0.1)">
       <use xlink:href="#DejaVuSans-33"/>
       <use xlink:href="#DejaVuSans-30" transform="translate(63.623047 0)"/>
      </g>
     </g>
    </g>
    <g id="ytick_8">
     <g id="line2d_14">
      <g>
       <use xlink:href="#m889beb3d04" x="47.018" y="28.4357" style="stroke: #000000; stroke-width: 0.8"/>
      </g>
     </g>
     <g id="text_15">
      <!-- 35 -->
      <g transform="translate(27.293 32.234919) scale(0.1 -0.1)">
       <use xlink:href="#DejaVuSans-33"/>
       <use xlink:href="#DejaVuSans-35" transform="translate(63.623047 0)"/>
      </g>
     </g>
    </g>
    <g id="text_16">
     <!-- $Q_{lc}$ (kW) -->
     <g transform="translate(21.213312 176.8) rotate(-90) scale(0.1 -0.1)">
      <defs>
       <path id="DejaVuSans-Oblique-51" d="M 2309 -84 
Q 2275 -88 2237 -89 
Q 2200 -91 2125 -91 
Q 1250 -91 756 411 
Q 263 913 263 1797 
Q 263 2319 452 2844 
Q 641 3369 978 3788 
Q 1369 4269 1858 4509 
Q 2347 4750 2938 4750 
Q 3794 4750 4287 4245 
Q 4781 3741 4781 2869 
Q 4781 1928 4265 1147 
Q 3750 366 2919 44 
L 3553 -825 
L 2847 -825 
L 2309 -84 
z
M 2919 4238 
Q 2400 4238 2003 3986 
Q 1606 3734 1313 3219 
Q 1125 2891 1026 2522 
Q 928 2153 928 1778 
Q 928 1128 1239 775 
Q 1550 422 2119 422 
Q 2631 422 3032 676 
Q 3434 931 3719 1434 
Q 3909 1772 4009 2142 
Q 4109 2513 4109 2881 
Q 4109 3528 3796 3883 
Q 3484 4238 2919 4238 
z
" transform="scale(0.015625)"/>
       <path id="DejaVuSans-Oblique-6c" d="M 1172 4863 
L 1747 4863 
L 800 0 
L 225 0 
L 1172 4863 
z
" transform="scale(0.015625)"/>
       <path id="DejaVuSans-Oblique-63" d="M 3431 3366 
L 3316 2797 
Q 3109 2947 2876 3022 
Q 2644 3097 2394 3097 
Q 2119 3097 1870 3000 
Q 1622 2903 1453 2725 
Q 1184 2453 1037 2087 
Q 891 1722 891 1331 
Q 891 859 1127 628 
Q 1363 397 1844 397 
Q 2081 397 2348 469 
Q 2616 541 2906 684 
L 2797 116 
Q 2547 13 2283 -39 
Q 2019 -91 1741 -91 
Q 1044 -91 669 257 
Q 294 606 294 1253 
Q 294 1797 489 2255 
Q 684 2713 1069 3078 
Q 1331 3328 1684 3456 
Q 2038 3584 2456 3584 
Q 2700 3584 2940 3529 
Q 3181 3475 3431 3366 
z
" transform="scale(0.015625)"/>
       <path id="DejaVuSans-6b" d="M 581 4863 
L 1159 4863 
L 1159 1991 
L 2875 3500 
L 3609 3500 
L 1753 1863 
L 3688 0 
L 2938 0 
L 1159 1709 
L 1159 0 
L 581 0 
L 581 4863 
z
" transform="scale(0.015625)"/>
       <path id="DejaVuSans-57" d="M 213 4666 
L 850 4666 
L 1831 722 
L 2809 4666 
L 3519 4666 
L 4500 722 
L 5478 4666 
L 6119 4666 
L 4947 0 
L 4153 0 
L 3169 4050 
L 2175 0 
L 1381 0 
L 213 4666 
z
" transform="scale(0.015625)"/>
      </defs>
      <use xlink:href="#DejaVuSans-Oblique-51" transform="translate(0 0.015625)"/>
      <use xlink:href="#DejaVuSans-Oblique-6c" transform="translate(78.710938 -16.390625) scale(0.7)"/>
      <use xlink:href="#DejaVuSans-Oblique-63" transform="translate(98.15918 -16.390625) scale(0.7)"/>
      <use xlink:href="#DejaVuSans-20" transform="translate(139.379883 0.015625)"/>
      <use xlink:href="#DejaVuSans-28" transform="translate(171.166992 0.015625)"/>
      <use xlink:href="#DejaVuSans-6b" transform="translate(210.180664 0.015625)"/>
      <use xlink:href="#DejaVuSans-57" transform="translate(268.09082 0.015625)"/>
      <use xlink:href="#DejaVuSans-29" transform="translate(366.967773 0.015625)"/>
     </g>
    </g>
   </g>
   <g id="line2d_15">
    <path d="M 65.335364 216.854304 
L 72.811839 200.732597 
L 80.288314 187.749162 
L 87.764788 177.197508 
L 95.241263 168.478904 
L 102.717738 161.105442 
L 110.194213 154.693921 
L 117.670688 148.958744 
L 125.147163 143.696663 
L 132.623638 138.771713 
L 140.100113 134.099218 
L 147.576588 129.630161 
L 155.053063 125.339239 
L 162.529538 121.213799 
L 170.006013 117.245743 
L 177.482488 113.428003 
L 184.958963 109.751313 
L 192.435438 106.203725 
L 199.911913 102.771626 
L 207.388388 99.441177 
L 214.864863 96.199811 
L 222.341338 93.037348 
L 229.817813 89.946419 
L 237.294288 86.922598 
L 244.770763 83.9637 
L 252.247237 81.068595 
L 259.723712 78.23623 
L 267.200187 75.464745 
L 274.676662 72.75097 
L 282.153137 70.090388 
L 289.629612 67.47758 
L 297.106087 64.907024 
L 304.582562 62.37403 
L 312.059037 59.875583 
L 319.535512 57.410842 
L 327.011987 54.981071 
L 334.488462 52.589131 
L 341.964937 50.238259 
L 349.441412 47.930452 
L 356.917887 45.664936 
L 364.394362 43.43719 
L 371.870837 41.237872 
L 379.347312 39.054319 
L 386.823787 36.87287 
L 394.300262 34.683048 
L 401.776737 32.483546 
L 409.253212 30.289636 
L 416.729686 28.141524 
L 424.206161 26.113374 
L 431.682636 24.320991 
" clip-path="url(#p7cedbe185c)" style="fill: none; stroke: #1f77b4; stroke-width: 1.5; stroke-linecap: square"/>
   </g>
   <g id="line2d_16">
    <path d="M 65.335364 255.513602 
L 72.811839 247.006197 
L 80.288314 240.114537 
L 87.764788 234.482157 
L 95.241263 229.804085 
L 102.717738 225.830479 
L 110.194213 222.364168 
L 117.670688 219.256433 
L 125.147163 216.400751 
L 132.623638 213.725212 
L 140.100113 211.184558 
L 147.576588 208.752645 
L 155.053063 206.415647 
L 162.529538 204.166566 
L 170.006013 202.001401 
L 177.482488 199.916477 
L 184.958963 197.907143 
L 192.435438 195.967423 
L 199.911913 194.090371 
L 207.388388 192.268771 
L 214.864863 190.495886 
L 222.341338 188.766098 
L 229.817813 187.075228 
L 237.294288 185.42056 
L 244.770763 183.800565 
L 252.247237 182.21445 
L 259.723712 180.661616 
L 267.200187 179.14121 
L 274.676662 177.651804 
L 282.153137 176.191333 
L 289.629612 174.757234 
L 297.106087 173.346796 
L 304.582562 171.957578 
L 312.059037 170.587829 
L 319.535512 169.236752 
L 327.011987 167.904557 
L 334.488462 166.592228 
L 341.964937 165.301024 
L 349.441412 164.031798 
L 356.917887 162.784278 
L 364.394362 161.556476 
L 371.870837 160.344466 
L 379.347312 159.142702 
L 386.823787 157.945059 
L 394.300262 156.746686 
L 401.776737 155.54666 
L 409.253212 154.351333 
L 416.729686 153.178158 
L 424.206161 152.059653 
L 431.682636 151.047112 
" clip-path="url(#p7cedbe185c)" style="fill: none; stroke: #ff7f0e; stroke-width: 1.5; stroke-linecap: square"/>
   </g>
   <g id="line2d_17">
    <path d="M 65.335364 277.351187 
L 72.811839 274.024557 
L 80.288314 271.323376 
L 87.764788 269.10996 
L 95.241263 267.266619 
L 102.717738 265.696626 
L 110.194213 264.323719 
L 117.670688 263.090449 
L 125.147163 261.955689 
L 132.623638 260.891685 
L 140.100113 259.880959 
L 147.576588 258.913355 
L 155.053063 257.983448 
L 162.529538 257.088446 
L 170.006013 256.226662 
L 177.482488 255.396533 
L 184.958963 254.596125 
L 192.435438 253.823026 
L 199.911913 253.074484 
L 207.388388 252.347685 
L 214.864863 251.640039 
L 222.341338 250.949411 
L 229.817813 250.274233 
L 237.294288 249.613495 
L 244.770763 248.96663 
L 252.247237 248.333323 
L 259.723712 247.713309 
L 267.200187 247.106196 
L 274.676662 246.511361 
L 282.153137 245.927935 
L 289.629612 245.354874 
L 297.106087 244.791109 
L 304.582562 244.235709 
L 312.059037 243.688048 
L 319.535512 243.14789 
L 327.011987 242.615395 
L 334.488462 242.091003 
L 341.964937 241.57522 
L 349.441412 241.068337 
L 356.917887 240.570139 
L 364.394362 240.079689 
L 371.870837 239.595263 
L 379.347312 239.114514 
L 386.823787 238.634936 
L 394.300262 238.154639 
L 401.776737 237.673441 
L 409.253212 237.194219 
L 416.729686 236.724403 
L 424.206161 236.277509 
L 431.682636 235.874503 
" clip-path="url(#p7cedbe185c)" style="fill: none; stroke: #2ca02c; stroke-width: 1.5; stroke-linecap: square"/>
   </g>
   <g id="line2d_18">
    <path d="M 65.335364 288.950413 
L 72.811839 288.17845 
L 80.288314 287.564453 
L 87.764788 287.074171 
L 95.241263 286.677443 
L 102.717738 286.34958 
L 110.194213 286.070842 
L 117.670688 285.826331 
L 125.147163 285.605346 
L 132.623638 285.400671 
L 140.100113 285.207742 
L 147.576588 285.023838 
L 155.053063 284.847381 
L 162.529538 284.67734 
L 170.006013 284.512851 
L 177.482488 284.352984 
L 184.958963 284.196669 
L 192.435438 284.042749 
L 199.911913 283.890108 
L 207.388388 283.73782 
L 214.864863 283.585305 
L 222.341338 283.432425 
L 229.817813 283.279523 
L 237.294288 283.127384 
L 244.770763 282.977122 
L 252.247237 282.830021 
L 259.723712 282.687346 
L 267.200187 282.550161 
L 274.676662 282.419179 
L 282.153137 282.294653 
L 289.629612 282.17639 
L 297.106087 282.06386 
L 304.582562 281.956113 
L 312.059037 281.852061 
L 319.535512 281.751043 
L 327.011987 281.652375 
L 334.488462 281.555548 
L 341.964937 281.460918 
L 349.441412 281.369102 
L 356.917887 281.281447 
L 364.394362 281.199266 
L 371.870837 281.123706 
L 379.347312 281.055542 
L 386.823787 280.993671 
L 394.300262 280.936058 
L 401.776737 280.879088 
L 409.253212 280.81659 
L 416.729686 280.740336 
L 424.206161 280.639727 
L 431.682636 280.501541 
" clip-path="url(#p7cedbe185c)" style="fill: none; stroke: #d62728; stroke-width: 1.5; stroke-linecap: square"/>
   </g>
   <g id="patch_3">
    <path d="M 47.018 302.2 
L 47.018 10.8 
" style="fill: none; stroke: #000000; stroke-width: 0.8; stroke-linejoin: miter; stroke-linecap: square"/>
   </g>
   <g id="patch_4">
    <path d="M 450 302.2 
L 450 10.8 
" style="fill: none; stroke: #000000; stroke-width: 0.8; stroke-linejoin: miter; stroke-linecap: square"/>
   </g>
   <g id="patch_5">
    <path d="M 47.018 302.2 
L 450 302.2 
" style="fill: none; stroke: #000000; stroke-width: 0.8; stroke-linejoin: miter; stroke-linecap: square"/>
   </g>
   <g id="patch_6">
    <path d="M 47.018 10.8 
L 450 10.8 
" style="fill: none; stroke: #000000; stroke-width: 0.8; stroke-linejoin: miter; stroke-linecap: square"/>
   </g>
   <g id="legend_1">
    <g id="patch_7">
     <path d="M 54.018 77.5125 
L 132.888313 77.5125 
Q 134.888313 77.5125 134.888313 75.5125 
L 134.888313 17.8 
Q 134.888313 15.8 132.888313 15.8 
L 54.018 15.8 
Q 52.018 15.8 52.018 17.8 
L 52.018 75.5125 
Q 52.018 77.5125 54.018 77.5125 
z
" style="fill: #ffffff; opacity: 0.8; stroke: #cccccc; stroke-linejoin: miter"/>
    </g>
    <g id="line2d_19">
     <path d="M 56.018 23.898438 
L 66.018 23.898438 
L 76.018 23.898438 
" style="fill: none; stroke: #1f77b4; stroke-width: 1.5; stroke-linecap: square"/>
    </g>
    <g id="text_17">
     <!-- Ts=100 K -->
     <g transform="translate(84.018 27.398438) scale(0.1 -0.1)">
      <defs>
       <path id="DejaVuSans-54" d="M -19 4666 
L 3928 4666 
L 3928 4134 
L 2272 4134 
L 2272 0 
L 1638 0 
L 1638 4134 
L -19 4134 
L -19 4666 
z
" transform="scale(0.015625)"/>
       <path id="DejaVuSans-73" d="M 2834 3397 
L 2834 2853 
Q 2591 2978 2328 3040 
Q 2066 3103 1784 3103 
Q 1356 3103 1142 2972 
Q 928 2841 928 2578 
Q 928 2378 1081 2264 
Q 1234 2150 1697 2047 
L 1894 2003 
Q 2506 1872 2764 1633 
Q 3022 1394 3022 966 
Q 3022 478 2636 193 
Q 2250 -91 1575 -91 
Q 1294 -91 989 -36 
Q 684 19 347 128 
L 347 722 
Q 666 556 975 473 
Q 1284 391 1588 391 
Q 1994 391 2212 530 
Q 2431 669 2431 922 
Q 2431 1156 2273 1281 
Q 2116 1406 1581 1522 
L 1381 1569 
Q 847 1681 609 1914 
Q 372 2147 372 2553 
Q 372 3047 722 3315 
Q 1072 3584 1716 3584 
Q 2034 3584 2315 3537 
Q 2597 3491 2834 3397 
z
" transform="scale(0.015625)"/>
       <path id="DejaVuSans-3d" d="M 678 2906 
L 4684 2906 
L 4684 2381 
L 678 2381 
L 678 2906 
z
M 678 1631 
L 4684 1631 
L 4684 1100 
L 678 1100 
L 678 1631 
z
" transform="scale(0.015625)"/>
       <path id="DejaVuSans-4b" d="M 628 4666 
L 1259 4666 
L 1259 2694 
L 3353 4666 
L 4166 4666 
L 1850 2491 
L 4331 0 
L 3500 0 
L 1259 2247 
L 1259 0 
L 628 0 
L 628 4666 
z
" transform="scale(0.015625)"/>
      </defs>
      <use xlink:href="#DejaVuSans-54"/>
      <use xlink:href="#DejaVuSans-73" transform="translate(44.583984 0)"/>
      <use xlink:href="#DejaVuSans-3d" transform="translate(96.683594 0)"/>
      <use xlink:href="#DejaVuSans-31" transform="translate(180.472656 0)"/>
      <use xlink:href="#DejaVuSans-30" transform="translate(244.095703 0)"/>
      <use xlink:href="#DejaVuSans-30" transform="translate(307.71875 0)"/>
      <use xlink:href="#DejaVuSans-20" transform="translate(371.341797 0)"/>
      <use xlink:href="#DejaVuSans-4b" transform="translate(403.128906 0)"/>
     </g>
    </g>
    <g id="line2d_20">
     <path d="M 56.018 38.576563 
L 66.018 38.576563 
L 76.018 38.576563 
" style="fill: none; stroke: #ff7f0e; stroke-width: 1.5; stroke-linecap: square"/>
    </g>
    <g id="text_18">
     <!-- Ts=160 K -->
     <g transform="translate(84.018 42.076563) scale(0.1 -0.1)">
      <defs>
       <path id="DejaVuSans-36" d="M 2113 2584 
Q 1688 2584 1439 2293 
Q 1191 2003 1191 1497 
Q 1191 994 1439 701 
Q 1688 409 2113 409 
Q 2538 409 2786 701 
Q 3034 994 3034 1497 
Q 3034 2003 2786 2293 
Q 2538 2584 2113 2584 
z
M 3366 4563 
L 3366 3988 
Q 3128 4100 2886 4159 
Q 2644 4219 2406 4219 
Q 1781 4219 1451 3797 
Q 1122 3375 1075 2522 
Q 1259 2794 1537 2939 
Q 1816 3084 2150 3084 
Q 2853 3084 3261 2657 
Q 3669 2231 3669 1497 
Q 3669 778 3244 343 
Q 2819 -91 2113 -91 
Q 1303 -91 875 529 
Q 447 1150 447 2328 
Q 447 3434 972 4092 
Q 1497 4750 2381 4750 
Q 2619 4750 2861 4703 
Q 3103 4656 3366 4563 
z
" transform="scale(0.015625)"/>
      </defs>
      <use xlink:href="#DejaVuSans-54"/>
      <use xlink:href="#DejaVuSans-73" transform="translate(44.583984 0)"/>
      <use xlink:href="#DejaVuSans-3d" transform="translate(96.683594 0)"/>
      <use xlink:href="#DejaVuSans-31" transform="translate(180.472656 0)"/>
      <use xlink:href="#DejaVuSans-36" transform="translate(244.095703 0)"/>
      <use xlink:href="#DejaVuSans-30" transform="translate(307.71875 0)"/>
      <use xlink:href="#DejaVuSans-20" transform="translate(371.341797 0)"/>
      <use xlink:href="#DejaVuSans-4b" transform="translate(403.128906 0)"/>
     </g>
    </g>
    <g id="line2d_21">
     <path d="M 56.018 53.254687 
L 66.018 53.254687 
L 76.018 53.254687 
" style="fill: none; stroke: #2ca02c; stroke-width: 1.5; stroke-linecap: square"/>
    </g>
    <g id="text_19">
     <!-- Ts=220 K -->
     <g transform="translate(84.018 56.754687) scale(0.1 -0.1)">
      <use xlink:href="#DejaVuSans-54"/>
      <use xlink:href="#DejaVuSans-73" transform="translate(44.583984 0)"/>
      <use xlink:href="#DejaVuSans-3d" transform="translate(96.683594 0)"/>
      <use xlink:href="#DejaVuSans-32" transform="translate(180.472656 0)"/>
      <use xlink:href="#DejaVuSans-32" transform="translate(244.095703 0)"/>
      <use xlink:href="#DejaVuSans-30" transform="translate(307.71875 0)"/>
      <use xlink:href="#DejaVuSans-20" transform="translate(371.341797 0)"/>
      <use xlink:href="#DejaVuSans-4b" transform="translate(403.128906 0)"/>
     </g>
    </g>
    <g id="line2d_22">
     <path d="M 56.018 67.932813 
L 66.018 67.932813 
L 76.018 67.932813 
" style="fill: none; stroke: #d62728; stroke-width: 1.5; stroke-linecap: square"/>
    </g>
    <g id="text_20">
     <!-- Ts=260 K -->
     <g transform="translate(84.018 71.432813) scale(0.1 -0.1)">
      <use xlink:href="#DejaVuSans-54"/>
      <use xlink:href="#DejaVuSans-73" transform="translate(44.583984 0)"/>
      <use xlink:href="#DejaVuSans-3d" transform="translate(96.683594 0)"/>
      <use xlink:href="#DejaVuSans-32" transform="translate(180.472656 0)"/>
      <use xlink:href="#DejaVuSans-36" transform="translate(244.095703 0)"/>
      <use xlink:href="#DejaVuSans-30" transform="translate(307.71875 0)"/>
      <use xlink:href="#DejaVuSans-20" transform="translate(371.341797 0)"/>
      <use xlink:href="#DejaVuSans-4b" transform="translate(403.128906 0)"/>
     </g>
    </g>
   </g>
  </g>
 </g>
 <defs>
  <clipPath id="p7cedbe185c">
   <rect x="47.018" y="10.8" width="402.982" height="291.4"/>
  </clipPath>
 </defs>
</svg>
