<?xml version="1.0" encoding="utf-8" standalone="no"?>
<!DOCTYPE svg PUBLIC "-//W3C//DTD SVG 1.1//EN"
  "http://www.w3.org/Graphics/SVG/1.1/DTD/svg11.dtd">
<svg xmlns:xlink="http://www.w3.org/1999/xlink" width="460.8pt" height="345.6pt" viewBox="0 0 460.8 345.6" xmlns="http://www.w3.org/2000/svg" version="1.1">
 <metadata>
  <rdf:RDF xmlns:dc="http://purl.org/dc/elements/1.1/" xmlns:cc="http://creativecommons.org/ns#" xmlns:rdf="http://www.w3.org/1999/02/22-rdf-syntax-ns#">
   <cc:Work>
    <dc:type rdf:resource="http://purl.org/dc/dcmitype/StillImage"/>
    <dc:date>2026-02-12T04:35:45.462985</dc:date>
    <dc:format>image/svg+xml</dc:format>
    <dc:creator>
     <cc:Agent>
      <dc:title>Matplotlib v3.10.8, https://matplotlib.org/</dc:title>
     </cc:Agent>
    </dc:creator>
   </cc:Work>
  </rdf:RDF>
 </metadata>
 <defs>
  <style type="text/css">*{stroke-linejoin: round; stroke-linecap: butt}</style>
 </defs>
 <g id="figure_1">
  <g id="patch_1">
   <path d="M 0 345.6 
L 460.8 345.6 
L 460.8 0 
L 0 0 
L 0 345.6 
z
" style="fill: none"/>
  </g>
  <g id="axes_1">
   <g id="patch_2">
    <path d="M 47.018 302.2 
L 450 302.2 
L 450 10.8 
L 47.018 10.8 
L 47.018 302.2 
z
" style="fill: none"/>
   </g>
   <g id="FillBetweenPolyCollection_1">
    <path d="M 65.335364 216.744456 
L 65.335364 216.964514 
L 72.811839 200.859421 
L 80.288314 187.886968 
L 87.764788 177.342437 
L 95.241263 168.629437 
L 102.717738 161.260847 
L 110.194213 154.854289 
L 117.670688 149.123578 
L 125.147163 143.865354 
L 132.623638 138.943575 
L 140.100113 134.273567 
L 147.576588 129.807306 
L 155.053063 125.519582 
L 162.529538 121.397211 
L 170.006013 117.432569 
L 177.482488 113.618287 
L 184.958963 109.944914 
L 192.435438 106.400523 
L 199.911913 102.971508 
L 207.388388 99.644059 
L 214.864863 96.405608 
L 222.341338 93.245993 
L 229.817813 90.157963 
L 237.294288 87.137079 
L 244.770763 84.181048 
L 252.247237 81.288738 
L 259.723712 78.459094 
L 267.200187 75.690266 
L 274.676662 72.979083 
L 282.153137 70.321042 
L 289.629612 67.71073 
L 297.106087 65.142635 
L 304.582562 62.612073 
L 312.059037 60.11603 
L 319.535512 57.653668 
L 327.011987 55.226252 
L 334.488462 52.836665 
L 341.964937 50.48809 
L 349.441412 48.182522 
L 356.917887 45.919216 
L 364.394362 43.693415 
L 371.870837 41.495979 
L 379.347312 39.3143 
L 386.823787 37.134732 
L 394.300262 34.946815 
L 401.776737 32.749239 
L 409.253212 30.55727 
L 416.729686 28.410777 
L 424.206161 26.384163 
L 431.682636 24.593153 
L 431.682636 24.045455 
L 431.682636 24.045455 
L 424.206161 25.839263 
L 416.729686 27.869065 
L 409.253212 30.018942 
L 401.776737 32.214787 
L 394.300262 34.416236 
L 386.823787 36.607977 
L 379.347312 38.791325 
L 371.870837 40.976769 
L 364.394362 43.177989 
L 356.917887 45.407625 
L 349.441412 47.674815 
L 341.964937 49.984325 
L 334.488462 52.336927 
L 327.011987 54.730621 
L 319.535512 57.16221 
L 312.059037 59.628852 
L 304.582562 62.129223 
L 297.106087 64.664161 
L 289.629612 67.236696 
L 282.153137 69.851521 
L 274.676662 72.514165 
L 267.200187 75.230048 
L 259.723712 78.003692 
L 252.247237 80.838266 
L 244.770763 83.735632 
L 237.294288 86.696839 
L 229.817813 89.723021 
L 222.341338 92.816473 
L 214.864863 95.981637 
L 207.388388 99.225777 
L 199.911913 102.559084 
L 192.435438 105.994139 
L 184.958963 109.544792 
L 177.482488 113.224671 
L 170.006013 117.045739 
L 162.529538 121.017462 
L 155.053063 125.147223 
L 147.576588 129.442661 
L 140.100113 133.91645 
L 132.623638 138.593915 
L 125.147163 143.523566 
L 117.670688 148.790256 
L 110.194213 154.530302 
L 102.717738 160.946719 
L 95.241263 168.326763 
L 87.764788 177.053747 
L 80.288314 187.616435 
L 72.811839 200.612084 
L 65.335364 216.744456 
z
" clip-path="url(#pd0ce37a05b)" style="fill: #1f77b4; fill-opacity: 0.45"/>
   </g>
   <g id="FillBetweenPolyCollection_2">
    <path d="M 65.335364 255.471968 
L 65.335364 255.584857 
L 72.811839 247.092397 
L 80.288314 240.212103 
L 87.764788 234.588548 
L 95.241263 229.917995 
L 102.717738 225.950773 
L 110.194213 222.489959 
L 117.670688 219.387102 
L 125.147163 216.535878 
L 132.623638 213.864498 
L 140.100113 211.327791 
L 147.576588 208.899604 
L 155.053063 206.566114 
L 162.529538 204.320405 
L 170.006013 202.158476 
L 177.482488 200.076663 
L 184.958963 198.070319 
L 192.435438 196.133478 
L 199.911913 194.259208 
L 207.388388 192.440301 
L 214.864863 190.670033 
L 222.341338 188.942796 
L 229.817813 187.254417 
L 237.294288 185.602182 
L 244.770763 183.984569 
L 252.247237 182.400782 
L 259.723712 180.850227 
L 267.200187 179.332048 
L 274.676662 177.844823 
L 282.153137 176.386488 
L 289.629612 174.954486 
L 297.106087 173.546108 
L 304.582562 172.15892 
L 312.059037 170.79117 
L 319.535512 169.442064 
L 327.011987 168.111811 
L 334.488462 166.801392 
L 341.964937 165.512062 
L 349.441412 164.244676 
L 356.917887 162.998961 
L 364.394362 161.772936 
L 371.870837 160.56268 
L 379.347312 159.362662 
L 386.823787 158.166769 
L 394.300262 156.970157 
L 401.776737 155.771903 
L 409.253212 154.578344 
L 416.729686 153.40689 
L 424.206161 152.289991 
L 431.682636 151.27883 
L 431.682636 150.896901 
L 431.682636 150.896901 
L 424.206161 151.910525 
L 416.729686 153.030168 
L 409.253212 154.204517 
L 401.776737 155.401042 
L 394.300262 156.602285 
L 386.823787 157.801889 
L 379.347312 159.000776 
L 371.870837 160.203797 
L 364.394362 161.417074 
L 356.917887 162.646154 
L 349.441412 163.894964 
L 341.964937 165.165492 
L 334.488462 166.45801 
L 327.011987 167.77167 
L 319.535512 169.105212 
L 312.059037 170.457658 
L 304.582562 171.828805 
L 297.106087 173.219445 
L 289.629612 174.631338 
L 282.153137 176.066922 
L 274.676662 177.528913 
L 267.200187 179.019868 
L 259.723712 180.541855 
L 252.247237 182.096297 
L 244.770763 183.684049 
L 237.294288 185.305707 
L 229.817813 186.962068 
L 222.341338 188.654665 
L 214.864863 190.386221 
L 207.388388 192.160923 
L 199.911913 193.984402 
L 192.435438 195.863401 
L 184.958963 197.805148 
L 177.482488 199.816596 
L 170.006013 201.903719 
L 162.529538 204.071175 
L 155.053063 206.322629 
L 147.576588 208.662089 
L 140.100113 211.09648 
L 132.623638 213.639664 
L 125.147163 216.317866 
L 117.670688 219.176392 
L 110.194213 222.287169 
L 102.717738 225.756843 
L 95.241263 229.73435 
L 87.764788 234.417288 
L 80.288314 240.056309 
L 72.811839 246.955776 
L 65.335364 255.471968 
z
" clip-path="url(#pd0ce37a05b)" style="fill: #ff7f0e; fill-opacity: 0.45"/>
   </g>
   <g id="FillBetweenPolyCollection_3">
    <path d="M 65.335364 277.324391 
L 65.335364 277.389973 
L 72.811839 274.071428 
L 80.288314 271.376717 
L 87.764788 269.168519 
L 95.241263 267.329455 
L 102.717738 265.76305 
L 110.194213 264.393244 
L 117.670688 263.162736 
L 125.147163 262.030505 
L 132.623638 260.968866 
L 140.100113 259.960386 
L 147.576588 258.994931 
L 155.053063 258.067088 
L 162.529538 257.17407 
L 170.006013 256.314192 
L 177.482488 255.485892 
L 184.958963 254.687244 
L 192.435438 253.915838 
L 199.911913 253.168932 
L 207.388388 252.443717 
L 214.864863 251.737612 
L 222.341338 251.048487 
L 229.817813 250.374779 
L 237.294288 249.71548 
L 244.770763 249.070024 
L 252.247237 248.438093 
L 259.723712 247.819424 
L 267.200187 247.213623 
L 274.676662 246.620067 
L 282.153137 246.037888 
L 289.629612 245.466045 
L 297.106087 244.903471 
L 304.582562 244.349239 
L 312.059037 243.802725 
L 319.535512 243.263696 
L 327.011987 242.732314 
L 334.488462 242.209019 
L 341.964937 241.694318 
L 349.441412 241.188503 
L 356.917887 240.691358 
L 364.394362 240.201948 
L 371.870837 239.718553 
L 379.347312 239.238829 
L 386.823787 238.760276 
L 394.300262 238.281005 
L 401.776737 237.800839 
L 409.253212 237.322645 
L 416.729686 236.853842 
L 424.206161 236.407917 
L 431.682636 236.005794 
L 431.682636 235.781244 
L 431.682636 235.781244 
L 424.206161 236.184929 
L 416.729686 236.632531 
L 409.253212 237.103068 
L 401.776737 237.583018 
L 394.300262 238.064944 
L 386.823787 238.545973 
L 379.347312 239.026285 
L 371.870837 239.507772 
L 364.394362 239.992942 
L 356.917887 240.484141 
L 349.441412 240.983095 
L 341.964937 241.490741 
L 334.488462 242.007292 
L 327.011987 242.53246 
L 319.535512 243.065741 
L 312.059037 243.606696 
L 304.582562 244.155169 
L 297.106087 244.711397 
L 289.629612 245.276013 
L 282.153137 245.849947 
L 274.676662 246.434272 
L 267.200187 247.03003 
L 259.723712 247.638092 
L 252.247237 248.25908 
L 244.770763 248.893382 
L 237.294288 249.541264 
L 229.817813 250.203041 
L 222.341338 250.879278 
L 214.864863 251.570989 
L 207.388388 252.279746 
L 199.911913 253.007687 
L 192.435438 253.757408 
L 184.958963 254.531731 
L 177.482488 255.333411 
L 170.006013 256.164866 
L 162.529538 257.028028 
L 155.053063 257.924466 
L 147.576588 258.855865 
L 140.100113 259.825019 
L 132.623638 260.837362 
L 125.147163 261.903067 
L 117.670688 263.039644 
L 110.194213 264.274896 
L 102.717738 265.650029 
L 95.241263 267.2226 
L 87.764788 269.069012 
L 80.288314 271.286171 
L 72.811839 273.991985 
L 65.335364 277.324391 
z
" clip-path="url(#pd0ce37a05b)" style="fill: #2ca02c; fill-opacity: 0.45"/>
   </g>
   <g id="FillBetweenPolyCollection_4">
    <path d="M 65.335364 288.945276 
L 65.335364 288.954545 
L 72.811839 288.180332 
L 80.288314 287.564848 
L 87.764788 287.076189 
L 95.241263 286.681227 
L 102.717738 286.354958 
L 110.194213 286.077747 
L 117.670688 285.834732 
L 125.147163 285.615259 
L 132.623638 285.412132 
L 140.100113 285.220793 
L 147.576588 285.038522 
L 155.053063 284.863727 
L 162.529538 284.695373 
L 170.006013 284.532592 
L 177.482488 284.374441 
L 184.958963 284.219847 
L 192.435438 284.067638 
L 199.911913 283.916681 
L 207.388388 283.766031 
L 214.864863 283.615085 
L 222.341338 283.463681 
L 229.817813 283.312131 
L 237.294288 283.161188 
L 244.770763 283.011931 
L 252.247237 282.865611 
L 259.723712 282.72346 
L 267.200187 282.586514 
L 274.676662 282.455462 
L 282.153137 282.330556 
L 289.629612 282.211589 
L 297.106087 282.097957 
L 304.582562 281.988778 
L 312.059037 281.883072 
L 319.535512 281.779959 
L 327.011987 281.678845 
L 334.488462 281.579573 
L 341.964937 281.482495 
L 349.441412 281.388457 
L 356.917887 281.298664 
L 364.394362 281.214454 
L 371.870837 281.137155 
L 379.347312 281.067222 
L 386.823787 281.003998 
L 394.300262 280.94557 
L 401.776737 280.888085 
L 409.253212 280.825555 
L 416.729686 280.749444 
L 424.206161 280.648779 
L 431.682636 280.51038 
L 431.682636 280.496766 
L 431.682636 280.496766 
L 424.206161 280.634725 
L 416.729686 280.735136 
L 409.253212 280.811054 
L 401.776737 280.873075 
L 394.300262 280.929531 
L 386.823787 280.986393 
L 379.347312 281.047309 
L 371.870837 281.114273 
L 364.394362 281.188006 
L 356.917887 281.268089 
L 349.441412 281.353606 
L 341.964937 281.443465 
L 334.488462 281.536378 
L 327.011987 281.631628 
L 319.535512 281.728979 
L 312.059037 281.828692 
L 304.582562 281.931444 
L 297.106087 282.038185 
L 289.629612 282.149937 
L 282.153137 282.267607 
L 274.676662 282.391806 
L 267.200187 282.522725 
L 259.723712 282.660085 
L 252.247237 282.803155 
L 244.770763 282.950848 
L 237.294288 283.101874 
L 229.817813 283.254923 
L 222.341338 283.408854 
L 214.864863 283.562859 
L 207.388388 283.71657 
L 199.911913 283.870106 
L 192.435438 284.024031 
L 184.958963 284.179256 
L 177.482488 284.336887 
L 170.006013 284.498072 
L 162.529538 284.66387 
L 155.053063 284.835202 
L 147.576588 285.012925 
L 140.100113 285.19806 
L 132.623638 285.392191 
L 125.147163 285.598039 
L 117.670688 285.820175 
L 110.194213 286.065829 
L 102.717738 286.345713 
L 95.241263 286.674783 
L 87.764788 287.072816 
L 80.288314 287.564278 
L 72.811839 288.176179 
L 65.335364 288.945276 
z
" clip-path="url(#pd0ce37a05b)" style="fill: #d62728; fill-opacity: 0.45"/>
   </g>
   <g id="matplotlib.axis_1">
    <g id="xtick_1">
     <g id="line2d_1">
      <defs>
       <path id="m5ddc3bd64d" d="M 0 0 
L 0 3.5 
" style="stroke: #000000; stroke-width: 0.8"/>
      </defs>
      <g>
       <use xlink:href="#m5ddc3bd64d" x="61.634886" y="302.2" style="stroke: #000000; stroke-width: 0.8"/>
      </g>
     </g>
     <g id="text_1">
      <!-- 0 -->
      <g transform="translate(58.453636 316.798437) scale(0.1 -0.1)">
       <defs>
        <path id="DejaVuSans-30" d="M 2034 4250 
Q 1547 4250 1301 3770 
Q 1056 3291 1056 2328 
Q 1056 1369 1301 889 
Q 1547 409 2034 409 
Q 2525 409 2770 889 
Q 3016 1369 3016 2328 
Q 3016 3291 2770 3770 
Q 2525 4250 2034 4250 
z
M 2034 4750 
Q 2819 4750 3233 4129 
Q 3647 3509 3647 2328 
Q 3647 1150 3233 529 
Q 2819 -91 2034 -91 
Q 1250 -91 836 529 
Q 422 1150 422 2328 
Q 422 3509 836 4129 
Q 1250 4750 2034 4750 
z
" transform="scale(0.015625)"/>
       </defs>
       <use xlink:href="#DejaVuSans-30"/>
      </g>
     </g>
    </g>
    <g id="xtick_2">
     <g id="line2d_2">
      <g>
       <use xlink:href="#m5ddc3bd64d" x="135.644436" y="302.2" style="stroke: #000000; stroke-width: 0.8"/>
      </g>
     </g>
     <g id="text_2">
      <!-- 1 -->
      <g transform="translate(132.463186 316.798437) scale(0.1 -0.1)">
       <defs>
        <path id="DejaVuSans-31" d="M 794 531 
L 1825 531 
L 1825 4091 
L 703 3866 
L 703 4441 
L 1819 4666 
L 2450 4666 
L 2450 531 
L 3481 531 
L 3481 0 
L 794 0 
L 794 531 
z
" transform="scale(0.015625)"/>
       </defs>
       <use xlink:href="#DejaVuSans-31"/>
      </g>
     </g>
    </g>
    <g id="xtick_3">
     <g id="line2d_3">
      <g>
       <use xlink:href="#m5ddc3bd64d" x="209.653986" y="302.2" style="stroke: #000000; stroke-width: 0.8"/>
      </g>
     </g>
     <g id="text_3">
      <!-- 2 -->
      <g transform="translate(206.472736 316.798437) scale(0.1 -0.1)">
       <defs>
        <path id="DejaVuSans-32" d="M 1228 531 
L 3431 531 
L 3431 0 
L 469 0 
L 469 531 
Q 828 903 1448 1529 
Q 2069 2156 2228 2338 
Q 2531 2678 2651 2914 
Q 2772 3150 2772 3378 
Q 2772 3750 2511 3984 
Q 2250 4219 1831 4219 
Q 1534 4219 1204 4116 
Q 875 4013 500 3803 
L 500 4441 
Q 881 4594 1212 4672 
Q 1544 4750 1819 4750 
Q 2544 4750 2975 4387 
Q 3406 4025 3406 3419 
Q 3406 3131 3298 2873 
Q 3191 2616 2906 2266 
Q 2828 2175 2409 1742 
Q 1991 1309 1228 531 
z
" transform="scale(0.015625)"/>
       </defs>
       <use xlink:href="#DejaVuSans-32"/>
      </g>
     </g>
    </g>
    <g id="xtick_4">
     <g id="line2d_4">
      <g>
       <use xlink:href="#m5ddc3bd64d" x="283.663536" y="302.2" style="stroke: #000000; stroke-width: 0.8"/>
      </g>
     </g>
     <g id="text_4">
      <!-- 3 -->
      <g transform="translate(280.482286 316.798437) scale(0.1 -0.1)">
       <defs>
        <path id="DejaVuSans-33" d="M 2597 2516 
Q 3050 2419 3304 2112 
Q 3559 1806 3559 1356 
Q 3559 666 3084 287 
Q 2609 -91 1734 -91 
Q 1441 -91 1130 -33 
Q 819 25 488 141 
L 488 750 
Q 750 597 1062 519 
Q 1375 441 1716 441 
Q 2309 441 2620 675 
Q 2931 909 2931 1356 
Q 2931 1769 2642 2001 
Q 2353 2234 1838 2234 
L 1294 2234 
L 1294 2753 
L 1863 2753 
Q 2328 2753 2575 2939 
Q 2822 3125 2822 3475 
Q 2822 3834 2567 4026 
Q 2313 4219 1838 4219 
Q 1578 4219 1281 4162 
Q 984 4106 628 3988 
L 628 4550 
Q 988 4650 1302 4700 
Q 1616 4750 1894 4750 
Q 2613 4750 3031 4423 
Q 3450 4097 3450 3541 
Q 3450 3153 3228 2886 
Q 3006 2619 2597 2516 
z
" transform="scale(0.015625)"/>
       </defs>
       <use xlink:href="#DejaVuSans-33"/>
      </g>
     </g>
    </g>
    <g id="xtick_5">
     <g id="line2d_5">
      <g>
       <use xlink:href="#m5ddc3bd64d" x="357.673086" y="302.2" style="stroke: #000000; stroke-width: 0.8"/>
      </g>
     </g>
     <g id="text_5">
      <!-- 4 -->
      <g transform="translate(354.491836 316.798437) scale(0.1 -0.1)">
       <defs>
        <path id="DejaVuSans-34" d="M 2419 4116 
L 825 1625 
L 2419 1625 
L 2419 4116 
z
M 2253 4666 
L 3047 4666 
L 3047 1625 
L 3713 1625 
L 3713 1100 
L 3047 1100 
L 3047 0 
L 2419 0 
L 2419 1100 
L 313 1100 
L 313 1709 
L 2253 4666 
z
" transform="scale(0.015625)"/>
       </defs>
       <use xlink:href="#DejaVuSans-34"/>
      </g>
     </g>
    </g>
    <g id="xtick_6">
     <g id="line2d_6">
      <g>
       <use xlink:href="#m5ddc3bd64d" x="431.682636" y="302.2" style="stroke: #000000; stroke-width: 0.8"/>
      </g>
     </g>
     <g id="text_6">
      <!-- 5 -->
      <g transform="translate(428.501386 316.798437) scale(0.1 -0.1)">
       <defs>
        <path id="DejaVuSans-35" d="M 691 4666 
L 3169 4666 
L 3169 4134 
L 1269 4134 
L 1269 2991 
Q 1406 3038 1543 3061 
Q 1681 3084 1819 3084 
Q 2600 3084 3056 2656 
Q 3513 2228 3513 1497 
Q 3513 744 3044 326 
Q 2575 -91 1722 -91 
Q 1428 -91 1123 -41 
Q 819 9 494 109 
L 494 744 
Q 775 591 1075 516 
Q 1375 441 1709 441 
Q 2250 441 2565 725 
Q 2881 1009 2881 1497 
Q 2881 1984 2565 2268 
Q 2250 2553 1709 2553 
Q 1456 2553 1204 2497 
Q 953 2441 691 2322 
L 691 4666 
z
" transform="scale(0.015625)"/>
       </defs>
       <use xlink:href="#DejaVuSans-35"/>
      </g>
     </g>
    </g>
    <g id="text_7">
     <!-- $W$ (m/hour) -->
     <g transform="translate(220.059 330.476562) scale(0.1 -0.1)">
      <defs>
       <path id="DejaVuSans-Oblique-57" d="M 616 4666 
L 1228 4666 
L 1453 697 
L 3213 4666 
L 3916 4666 
L 4147 697 
L 5888 4666 
L 6528 4666 
L 4453 0 
L 3659 0 
L 3444 3891 
L 1697 0 
L 903 0 
L 616 4666 
z
" transform="scale(0.015625)"/>
       <path id="DejaVuSans-20" transform="scale(0.015625)"/>
       <path id="DejaVuSans-28" d="M 1984 4856 
Q 1566 4138 1362 3434 
Q 1159 2731 1159 2009 
Q 1159 1288 1364 580 
Q 1569 -128 1984 -844 
L 1484 -844 
Q 1016 -109 783 600 
Q 550 1309 550 2009 
Q 550 2706 781 3412 
Q 1013 4119 1484 4856 
L 1984 4856 
z
" transform="scale(0.015625)"/>
       <path id="DejaVuSans-6d" d="M 3328 2828 
Q 3544 3216 3844 3400 
Q 4144 3584 4550 3584 
Q 5097 3584 5394 3201 
Q 5691 2819 5691 2113 
L 5691 0 
L 5113 0 
L 5113 2094 
Q 5113 2597 4934 2840 
Q 4756 3084 4391 3084 
Q 3944 3084 3684 2787 
Q 3425 2491 3425 1978 
L 3425 0 
L 2847 0 
L 2847 2094 
Q 2847 2600 2669 2842 
Q 2491 3084 2119 3084 
Q 1678 3084 1418 2786 
Q 1159 2488 1159 1978 
L 1159 0 
L 581 0 
L 581 3500 
L 1159 3500 
L 1159 2956 
Q 1356 3278 1631 3431 
Q 1906 3584 2284 3584 
Q 2666 3584 2933 3390 
Q 3200 3197 3328 2828 
z
" transform="scale(0.015625)"/>
       <path id="DejaVuSans-2f" d="M 1625 4666 
L 2156 4666 
L 531 -594 
L 0 -594 
L 1625 4666 
z
" transform="scale(0.015625)"/>
       <path id="DejaVuSans-68" d="M 3513 2113 
L 3513 0 
L 2938 0 
L 2938 2094 
Q 2938 2591 2744 2837 
Q 2550 3084 2163 3084 
Q 1697 3084 1428 2787 
Q 1159 2491 1159 1978 
L 1159 0 
L 581 0 
L 581 4863 
L 1159 4863 
L 1159 2956 
Q 1366 3272 1645 3428 
Q 1925 3584 2291 3584 
Q 2894 3584 3203 3211 
Q 3513 2838 3513 2113 
z
" transform="scale(0.015625)"/>
       <path id="DejaVuSans-6f" d="M 1959 3097 
Q 1497 3097 1228 2736 
Q 959 2375 959 1747 
Q 959 1119 1226 758 
Q 1494 397 1959 397 
Q 2419 397 2687 759 
Q 2956 1122 2956 1747 
Q 2956 2369 2687 2733 
Q 2419 3097 1959 3097 
z
M 1959 3584 
Q 2709 3584 3137 3096 
Q 3566 2609 3566 1747 
Q 3566 888 3137 398 
Q 2709 -91 1959 -91 
Q 1206 -91 779 398 
Q 353 888 353 1747 
Q 353 2609 779 3096 
Q 1206 3584 1959 3584 
z
" transform="scale(0.015625)"/>
       <path id="DejaVuSans-75" d="M 544 1381 
L 544 3500 
L 1119 3500 
L 1119 1403 
Q 1119 906 1312 657 
Q 1506 409 1894 409 
Q 2359 409 2629 706 
Q 2900 1003 2900 1516 
L 2900 3500 
L 3475 3500 
L 3475 0 
L 2900 0 
L 2900 538 
Q 2691 219 2414 64 
Q 2138 -91 1772 -91 
Q 1169 -91 856 284 
Q 544 659 544 1381 
z
M 1991 3584 
L 1991 3584 
z
" transform="scale(0.015625)"/>
       <path id="DejaVuSans-72" d="M 2631 2963 
Q 2534 3019 2420 3045 
Q 2306 3072 2169 3072 
Q 1681 3072 1420 2755 
Q 1159 2438 1159 1844 
L 1159 0 
L 581 0 
L 581 3500 
L 1159 3500 
L 1159 2956 
Q 1341 3275 1631 3429 
Q 1922 3584 2338 3584 
Q 2397 3584 2469 3576 
Q 2541 3569 2628 3553 
L 2631 2963 
z
" transform="scale(0.015625)"/>
       <path id="DejaVuSans-29" d="M 513 4856 
L 1013 4856 
Q 1481 4119 1714 3412 
Q 1947 2706 1947 2009 
Q 1947 1309 1714 600 
Q 1481 -109 1013 -844 
L 513 -844 
Q 928 -128 1133 580 
Q 1338 1288 1338 2009 
Q 1338 2731 1133 3434 
Q 928 4138 513 4856 
z
" transform="scale(0.015625)"/>
      </defs>
      <use xlink:href="#DejaVuSans-Oblique-57" transform="translate(0 0.015625)"/>
      <use xlink:href="#DejaVuSans-20" transform="translate(98.876953 0.015625)"/>
      <use xlink:href="#DejaVuSans-28" transform="translate(130.664062 0.015625)"/>
      <use xlink:href="#DejaVuSans-6d" transform="translate(169.677734 0.015625)"/>
      <use xlink:href="#DejaVuSans-2f" transform="translate(267.089844 0.015625)"/>
      <use xlink:href="#DejaVuSans-68" transform="translate(300.78125 0.015625)"/>
      <use xlink:href="#DejaVuSans-6f" transform="translate(364.160156 0.015625)"/>
      <use xlink:href="#DejaVuSans-75" transform="translate(425.341797 0.015625)"/>
      <use xlink:href="#DejaVuSans-72" transform="translate(488.720703 0.015625)"/>
      <use xlink:href="#DejaVuSans-29" transform="translate(529.833984 0.015625)"/>
     </g>
    </g>
   </g>
   <g id="matplotlib.axis_2">
    <g id="ytick_1">
     <g id="line2d_7">
      <defs>
       <path id="mdda8804802" d="M 0 0 
L -3.5 0 
" style="stroke: #000000; stroke-width: 0.8"/>
      </defs>
      <g>
       <use xlink:href="#mdda8804802" x="47.018" y="289.821507" style="stroke: #000000; stroke-width: 0.8"/>
      </g>
     </g>
     <g id="text_8">
      <!-- 0 -->
      <g transform="translate(33.6555 293.620726) scale(0.1 -0.1)">
       <use xlink:href="#DejaVuSans-30"/>
      </g>
     </g>
    </g>
    <g id="ytick_2">
     <g id="line2d_8">
      <g>
       <use xlink:href="#mdda8804802" x="47.018" y="252.480158" style="stroke: #000000; stroke-width: 0.8"/>
      </g>
     </g>
     <g id="text_9">
      <!-- 5 -->
      <g transform="translate(33.6555 256.279376) scale(0.1 -0.1)">
       <use xlink:href="#DejaVuSans-35"/>
      </g>
     </g>
    </g>
    <g id="ytick_3">
     <g id="line2d_9">
      <g>
       <use xlink:href="#mdda8804802" x="47.018" y="215.138808" style="stroke: #000000; stroke-width: 0.8"/>
      </g>
     </g>
     <g id="text_10">
      <!-- 10 -->
      <g transform="translate(27.293 218.938027) scale(0.1 -0.1)">
       <use xlink:href="#DejaVuSans-31"/>
       <use xlink:href="#DejaVuSans-30" transform="translate(63.623047 0)"/>
      </g>
     </g>
    </g>
    <g id="ytick_4">
     <g id="line2d_10">
      <g>
       <use xlink:href="#mdda8804802" x="47.018" y="177.797458" style="stroke: #000000; stroke-width: 0.8"/>
      </g>
     </g>
     <g id="text_11">
      <!-- 15 -->
      <g transform="translate(27.293 181.596677) scale(0.1 -0.1)">
       <use xlink:href="#DejaVuSans-31"/>
       <use xlink:href="#DejaVuSans-35" transform="translate(63.623047 0)"/>
      </g>
     </g>
    </g>
    <g id="ytick_5">
     <g id="line2d_11">
      <g>
       <use xlink:href="#mdda8804802" x="47.018" y="140.456108" style="stroke: #000000; stroke-width: 0.8"/>
      </g>
     </g>
     <g id="text_12">
      <!-- 20 -->
      <g transform="translate(27.293 144.255327) scale(0.1 -0.1)">
       <use xlink:href="#DejaVuSans-32"/>
       <use xlink:href="#DejaVuSans-30" transform="translate(63.623047 0)"/>
      </g>
     </g>
    </g>
    <g id="ytick_6">
     <g id="line2d_12">
      <g>
       <use xlink:href="#mdda8804802" x="47.018" y="103.114759" style="stroke: #000000; stroke-width: 0.8"/>
      </g>
     </g>
     <g id="text_13">
      <!-- 25 -->
      <g transform="translate(27.293 106.913977) scale(0.1 -0.1)">
       <use xlink:href="#DejaVuSans-32"/>
       <use xlink:href="#DejaVuSans-35" transform="translate(63.623047 0)"/>
      </g>
     </g>
    </g>
    <g id="ytick_7">
     <g id="line2d_13">
      <g>
       <use xlink:href="#mdda8804802" x="47.018" y="65.773409" style="stroke: #000000; stroke-width: 0.8"/>
      </g>
     </g>
     <g id="text_14">
      <!-- 30 -->
      <g transform="translate(27.293 69.572628) scale(0.1 -0.1)">
       <use xlink:href="#DejaVuSans-33"/>
       <use xlink:href="#DejaVuSans-30" transform="translate(63.623047 0)"/>
      </g>
     </g>
    </g>
    <g id="ytick_8">
     <g id="line2d_14">
      <g>
       <use xlink:href="#mdda8804802" x="47.018" y="28.432059" style="stroke: #000000; stroke-width: 0.8"/>
      </g>
     </g>
     <g id="text_15">
      <!-- 35 -->
      <g transform="translate(27.293 32.231278) scale(0.1 -0.1)">
       <use xlink:href="#DejaVuSans-33"/>
       <use xlink:href="#DejaVuSans-35" transform="translate(63.623047 0)"/>
      </g>
     </g>
    </g>
    <g id="text_16">
     <!-- $Q_{lc}$ (kW) -->
     <g transform="translate(21.213312 176.8) rotate(-90) scale(0.1 -0.1)">
      <defs>
       <path id="DejaVuSans-Oblique-51" d="M 2309 -84 
Q 2275 -88 2237 -89 
Q 2200 -91 2125 -91 
Q 1250 -91 756 411 
Q 263 913 263 1797 
Q 263 2319 452 2844 
Q 641 3369 978 3788 
Q 1369 4269 1858 4509 
Q 2347 4750 2938 4750 
Q 3794 4750 4287 4245 
Q 4781 3741 4781 2869 
Q 4781 1928 4265 1147 
Q 3750 366 2919 44 
L 3553 -825 
L 2847 -825 
L 2309 -84 
z
M 2919 4238 
Q 2400 4238 2003 3986 
Q 1606 3734 1313 3219 
Q 1125 2891 1026 2522 
Q 928 2153 928 1778 
Q 928 1128 1239 775 
Q 1550 422 2119 422 
Q 2631 422 3032 676 
Q 3434 931 3719 1434 
Q 3909 1772 4009 2142 
Q 4109 2513 4109 2881 
Q 4109 3528 3796 3883 
Q 3484 4238 2919 4238 
z
" transform="scale(0.015625)"/>
       <path id="DejaVuSans-Oblique-6c" d="M 1172 4863 
L 1747 4863 
L 800 0 
L 225 0 
L 1172 4863 
z
" transform="scale(0.015625)"/>
       <path id="DejaVuSans-Oblique-63" d="M 3431 3366 
L 3316 2797 
Q 3109 2947 2876 3022 
Q 2644 3097 2394 3097 
Q 2119 3097 1870 3000 
Q 1622 2903 1453 2725 
Q 1184 2453 1037 2087 
Q 891 1722 891 1331 
Q 891 859 1127 628 
Q 1363 397 1844 397 
Q 2081 397 2348 469 
Q 2616 541 2906 684 
L 2797 116 
Q 2547 13 2283 -39 
Q 2019 -91 1741 -91 
Q 1044 -91 669 257 
Q 294 606 294 1253 
Q 294 1797 489 2255 
Q 684 2713 1069 3078 
Q 1331 3328 1684 3456 
Q 2038 3584 2456 3584 
Q 2700 3584 2940 3529 
Q 3181 3475 3431 3366 
z
" transform="scale(0.015625)"/>
       <path id="DejaVuSans-6b" d="M 581 4863 
L 1159 4863 
L 1159 1991 
L 2875 3500 
L 3609 3500 
L 1753 1863 
L 3688 0 
L 2938 0 
L 1159 1709 
L 1159 0 
L 581 0 
L 581 4863 
z
" transform="scale(0.015625)"/>
       <path id="DejaVuSans-57" d="M 213 4666 
L 850 4666 
L 1831 722 
L 2809 4666 
L 3519 4666 
L 4500 722 
L 5478 4666 
L 6119 4666 
L 4947 0 
L 4153 0 
L 3169 4050 
L 2175 0 
L 1381 0 
L 213 4666 
z
" transform="scale(0.015625)"/>
      </defs>
      <use xlink:href="#DejaVuSans-Oblique-51" transform="translate(0 0.015625)"/>
      <use xlink:href="#DejaVuSans-Oblique-6c" transform="translate(78.710938 -16.390625) scale(0.7)"/>
      <use xlink:href="#DejaVuSans-Oblique-63" transform="translate(98.15918 -16.390625) scale(0.7)"/>
      <use xlink:href="#DejaVuSans-20" transform="translate(139.379883 0.015625)"/>
      <use xlink:href="#DejaVuSans-28" transform="translate(171.166992 0.015625)"/>
      <use xlink:href="#DejaVuSans-6b" transform="translate(210.180664 0.015625)"/>
      <use xlink:href="#DejaVuSans-57" transform="translate(268.09082 0.015625)"/>
      <use xlink:href="#DejaVuSans-29" transform="translate(366.967773 0.015625)"/>
     </g>
    </g>
   </g>
   <g id="line2d_15">
    <path d="M 65.335364 216.882339 
L 72.811839 200.761893 
L 80.288314 187.77592 
L 87.764788 177.223202 
L 95.241263 168.504628 
L 102.717738 161.131276 
L 110.194213 154.719393 
L 117.670688 148.983753 
L 125.147163 143.721816 
L 132.623638 138.79673 
L 140.100113 134.124093 
L 147.576588 129.655368 
L 155.053063 125.364545 
L 162.529538 121.23909 
L 170.006013 117.270767 
L 177.482488 113.452953 
L 184.958963 109.776189 
L 192.435438 106.22854 
L 199.911913 102.796685 
L 207.388388 99.46647 
L 214.864863 96.22533 
L 222.341338 93.063086 
L 229.817813 89.972486 
L 237.294288 86.949089 
L 244.770763 83.990781 
L 252.247237 81.096397 
L 259.723712 78.264697 
L 267.200187 75.494132 
L 274.676662 72.781106 
L 282.153137 70.121194 
L 289.629612 67.508438 
L 297.106087 64.937926 
L 304.582562 62.40497 
L 312.059037 59.906557 
L 319.535512 57.44185 
L 327.011987 55.012168 
L 334.488462 52.620562 
L 341.964937 50.270106 
L 349.441412 47.962702 
L 356.917887 45.697575 
L 364.394362 43.469965 
L 371.870837 41.270743 
L 379.347312 39.08728 
L 386.823787 36.905908 
L 394.300262 34.716155 
L 401.776737 32.516706 
L 409.253212 30.322859 
L 416.729686 28.174938 
L 424.206161 26.146971 
L 431.682636 24.354752 
" clip-path="url(#pd0ce37a05b)" style="fill: none; stroke: #1f77b4; stroke-width: 1.5; stroke-linecap: square"/>
   </g>
   <g id="line2d_16">
    <path d="M 65.335364 255.524777 
L 72.811839 247.020046 
L 80.288314 240.13015 
L 87.764788 234.498866 
L 95.241263 229.821999 
L 102.717738 225.849493 
L 110.194213 222.384132 
L 117.670688 219.277241 
L 125.147163 216.422328 
L 132.623638 213.74751 
L 140.100113 211.207544 
L 147.576588 208.776241 
L 155.053063 206.439759 
L 162.529538 204.191173 
L 170.006013 202.02648 
L 177.482488 199.942011 
L 184.958963 197.933113 
L 192.435438 195.993816 
L 199.911913 194.117175 
L 207.388388 192.295969 
L 214.864863 190.523472 
L 222.341338 188.794062 
L 229.817813 187.103561 
L 237.294288 185.449252 
L 244.770763 183.829608 
L 252.247237 182.243834 
L 259.723712 180.691334 
L 267.200187 179.171252 
L 274.676662 177.682165 
L 282.153137 176.222004 
L 289.629612 174.788211 
L 297.106087 173.378074 
L 304.582562 171.989154 
L 312.059037 170.619698 
L 319.535512 169.268911 
L 327.011987 167.937006 
L 334.488462 166.624958 
L 341.964937 165.334028 
L 349.441412 164.06507 
L 356.917887 162.817811 
L 364.394362 161.590266 
L 371.870837 160.378509 
L 379.347312 159.176996 
L 386.823787 157.979608 
L 394.300262 156.781495 
L 401.776737 155.581733 
L 409.253212 154.386672 
L 416.729686 153.213755 
L 424.206161 152.095483 
L 431.682636 151.083129 
" clip-path="url(#pd0ce37a05b)" style="fill: none; stroke: #ff7f0e; stroke-width: 1.5; stroke-linecap: square"/>
   </g>
   <g id="line2d_17">
    <path d="M 65.335364 277.358499 
L 72.811839 274.033304 
L 80.288314 271.333289 
L 87.764788 269.120814 
L 95.241263 267.278242 
L 102.717738 265.708893 
L 110.194213 264.336545 
L 117.670688 263.10377 
L 125.147163 261.969465 
L 132.623638 260.905886 
L 140.100113 259.895562 
L 147.576588 258.928343 
L 155.053063 257.998804 
L 162.529538 257.104158 
L 170.006013 256.242715 
L 177.482488 255.412913 
L 184.958963 254.612819 
L 192.435438 253.840023 
L 199.911913 253.091773 
L 207.388388 252.365258 
L 214.864863 251.657889 
L 222.341338 250.967531 
L 229.817813 250.292615 
L 237.294288 249.632135 
L 244.770763 248.985522 
L 252.247237 248.352461 
L 259.723712 247.732687 
L 267.200187 247.125808 
L 274.676662 246.531202 
L 282.153137 245.947999 
L 289.629612 245.375157 
L 297.106087 244.811606 
L 304.582562 244.256418 
L 312.059037 243.708964 
L 319.535512 243.169011 
L 327.011987 242.636718 
L 334.488462 242.112525 
L 341.964937 241.596939 
L 349.441412 241.090247 
L 356.917887 240.592238 
L 364.394362 240.101975 
L 371.870837 239.617732 
L 379.347312 239.137168 
L 386.823787 238.657773 
L 394.300262 238.177662 
L 401.776737 237.696651 
L 409.253212 237.217614 
L 416.729686 236.747981 
L 424.206161 236.301259 
L 431.682636 235.898404 
" clip-path="url(#pd0ce37a05b)" style="fill: none; stroke: #2ca02c; stroke-width: 1.5; stroke-linecap: square"/>
   </g>
   <g id="line2d_18">
    <path d="M 65.335364 288.949634 
L 72.811839 288.178101 
L 80.288314 287.564558 
L 87.764788 287.074457 
L 95.241263 286.678025 
L 102.717738 286.350398 
L 110.194213 286.071883 
L 117.670688 285.827575 
L 125.147163 285.606792 
L 132.623638 285.402323 
L 140.100113 285.209604 
L 147.576588 285.025914 
L 155.053063 284.849664 
L 162.529538 284.679829 
L 170.006013 284.515542 
L 177.482488 284.355876 
L 184.958963 284.199763 
L 192.435438 284.046046 
L 199.911913 283.893605 
L 207.388388 283.741512 
L 214.864863 283.589184 
L 222.341338 283.436482 
L 229.817813 283.283747 
L 237.294288 283.131758 
L 244.770763 282.981628 
L 252.247237 282.834636 
L 259.723712 282.692045 
L 267.200187 282.554917 
L 274.676662 282.423964 
L 282.153137 282.299451 
L 289.629612 282.18118 
L 297.106087 282.068544 
L 304.582562 281.960649 
L 312.059037 281.856519 
L 319.535512 281.755353 
L 327.011987 281.656369 
L 334.488462 281.559146 
L 341.964937 281.464048 
L 349.441412 281.371997 
L 356.917887 281.284348 
L 364.394362 281.202033 
L 371.870837 281.126524 
L 379.347312 281.057727 
L 386.823787 280.995482 
L 394.300262 280.938086 
L 401.776737 280.880935 
L 409.253212 280.818063 
L 416.729686 280.741853 
L 424.206161 280.641213 
L 431.682636 280.502903 
" clip-path="url(#pd0ce37a05b)" style="fill: none; stroke: #d62728; stroke-width: 1.5; stroke-linecap: square"/>
   </g>
   <g id="patch_3">
    <path d="M 47.018 302.2 
L 47.018 10.8 
" style="fill: none; stroke: #000000; stroke-width: 0.8; stroke-linejoin: miter; stroke-linecap: square"/>
   </g>
   <g id="patch_4">
    <path d="M 450 302.2 
L 450 10.8 
" style="fill: none; stroke: #000000; stroke-width: 0.8; stroke-linejoin: miter; stroke-linecap: square"/>
   </g>
   <g id="patch_5">
    <path d="M 47.018 302.2 
L 450 302.2 
" style="fill: none; stroke: #000000; stroke-width: 0.8; stroke-linejoin: miter; stroke-linecap: square"/>
   </g>
   <g id="patch_6">
    <path d="M 47.018 10.8 
L 450 10.8 
" style="fill: none; stroke: #000000; stroke-width: 0.8; stroke-linejoin: miter; stroke-linecap: square"/>
   </g>
   <g id="legend_1">
    <g id="patch_7">
     <path d="M 54.018 77.5125 
L 132.888313 77.5125 
Q 134.888313 77.5125 134.888313 75.5125 
L 134.888313 17.8 
Q 134.888313 15.8 132.888313 15.8 
L 54.018 15.8 
Q 52.018 15.8 52.018 17.8 
L 52.018 75.5125 
Q 52.018 77.5125 54.018 77.5125 
z
" style="fill: #ffffff; opacity: 0.8; stroke: #cccccc; stroke-linejoin: miter"/>
    </g>
    <g id="line2d_19">
     <path d="M 56.018 23.898438 
L 66.018 23.898438 
L 76.018 23.898438 
" style="fill: none; stroke: #1f77b4; stroke-width: 1.5; stroke-linecap: square"/>
    </g>
    <g id="text_17">
     <!-- Ts=100 K -->
     <g transform="translate(84.018 27.398438) scale(0.1 -0.1)">
      <defs>
       <path id="DejaVuSans-54" d="M -19 4666 
L 3928 4666 
L 3928 4134 
L 2272 4134 
L 2272 0 
L 1638 0 
L 1638 4134 
L -19 4134 
L -19 4666 
z
" transform="scale(0.015625)"/>
       <path id="DejaVuSans-73" d="M 2834 3397 
L 2834 2853 
Q 2591 2978 2328 3040 
Q 2066 3103 1784 3103 
Q 1356 3103 1142 2972 
Q 928 2841 928 2578 
Q 928 2378 1081 2264 
Q 1234 2150 1697 2047 
L 1894 2003 
Q 2506 1872 2764 1633 
Q 3022 1394 3022 966 
Q 3022 478 2636 193 
Q 2250 -91 1575 -91 
Q 1294 -91 989 -36 
Q 684 19 347 128 
L 347 722 
Q 666 556 975 473 
Q 1284 391 1588 391 
Q 1994 391 2212 530 
Q 2431 669 2431 922 
Q 2431 1156 2273 1281 
Q 2116 1406 1581 1522 
L 1381 1569 
Q 847 1681 609 1914 
Q 372 2147 372 2553 
Q 372 3047 722 3315 
Q 1072 3584 1716 3584 
Q 2034 3584 2315 3537 
Q 2597 3491 2834 3397 
z
" transform="scale(0.015625)"/>
       <path id="DejaVuSans-3d" d="M 678 2906 
L 4684 2906 
L 4684 2381 
L 678 2381 
L 678 2906 
z
M 678 1631 
L 4684 1631 
L 4684 1100 
L 678 1100 
L 678 1631 
z
" transform="scale(0.015625)"/>
       <path id="DejaVuSans-4b" d="M 628 4666 
L 1259 4666 
L 1259 2694 
L 3353 4666 
L 4166 4666 
L 1850 2491 
L 4331 0 
L 3500 0 
L 1259 2247 
L 1259 0 
L 628 0 
L 628 4666 
z
" transform="scale(0.015625)"/>
      </defs>
      <use xlink:href="#DejaVuSans-54"/>
      <use xlink:href="#DejaVuSans-73" transform="translate(44.583984 0)"/>
      <use xlink:href="#DejaVuSans-3d" transform="translate(96.683594 0)"/>
      <use xlink:href="#DejaVuSans-31" transform="translate(180.472656 0)"/>
      <use xlink:href="#DejaVuSans-30" transform="translate(244.095703 0)"/>
      <use xlink:href="#DejaVuSans-30" transform="translate(307.71875 0)"/>
      <use xlink:href="#DejaVuSans-20" transform="translate(371.341797 0)"/>
      <use xlink:href="#DejaVuSans-4b" transform="translate(403.128906 0)"/>
     </g>
    </g>
    <g id="line2d_20">
     <path d="M 56.018 38.576563 
L 66.018 38.576563 
L 76.018 38.576563 
" style="fill: none; stroke: #ff7f0e; stroke-width: 1.5; stroke-linecap: square"/>
    </g>
    <g id="text_18">
     <!-- Ts=160 K -->
     <g transform="translate(84.018 42.076563) scale(0.1 -0.1)">
      <defs>
       <path id="DejaVuSans-36" d="M 2113 2584 
Q 1688 2584 1439 2293 
Q 1191 2003 1191 1497 
Q 1191 994 1439 701 
Q 1688 409 2113 409 
Q 2538 409 2786 701 
Q 3034 994 3034 1497 
Q 3034 2003 2786 2293 
Q 2538 2584 2113 2584 
z
M 3366 4563 
L 3366 3988 
Q 3128 4100 2886 4159 
Q 2644 4219 2406 4219 
Q 1781 4219 1451 3797 
Q 1122 3375 1075 2522 
Q 1259 2794 1537 2939 
Q 1816 3084 2150 3084 
Q 2853 3084 3261 2657 
Q 3669 2231 3669 1497 
Q 3669 778 3244 343 
Q 2819 -91 2113 -91 
Q 1303 -91 875 529 
Q 447 1150 447 2328 
Q 447 3434 972 4092 
Q 1497 4750 2381 4750 
Q 2619 4750 2861 4703 
Q 3103 4656 3366 4563 
z
" transform="scale(0.015625)"/>
      </defs>
      <use xlink:href="#DejaVuSans-54"/>
      <use xlink:href="#DejaVuSans-73" transform="translate(44.583984 0)"/>
      <use xlink:href="#DejaVuSans-3d" transform="translate(96.683594 0)"/>
      <use xlink:href="#DejaVuSans-31" transform="translate(180.472656 0)"/>
      <use xlink:href="#DejaVuSans-36" transform="translate(244.095703 0)"/>
      <use xlink:href="#DejaVuSans-30" transform="translate(307.71875 0)"/>
      <use xlink:href="#DejaVuSans-20" transform="translate(371.341797 0)"/>
      <use xlink:href="#DejaVuSans-4b" transform="translate(403.128906 0)"/>
     </g>
    </g>
    <g id="line2d_21">
     <path d="M 56.018 53.254687 
L 66.018 53.254687 
L 76.018 53.254687 
" style="fill: none; stroke: #2ca02c; stroke-width: 1.5; stroke-linecap: square"/>
    </g>
    <g id="text_19">
     <!-- Ts=220 K -->
     <g transform="translate(84.018 56.754687) scale(0.1 -0.1)">
      <use xlink:href="#DejaVuSans-54"/>
      <use xlink:href="#DejaVuSans-73" transform="translate(44.583984 0)"/>
      <use xlink:href="#DejaVuSans-3d" transform="translate(96.683594 0)"/>
      <use xlink:href="#DejaVuSans-32" transform="translate(180.472656 0)"/>
      <use xlink:href="#DejaVuSans-32" transform="translate(244.095703 0)"/>
      <use xlink:href="#DejaVuSans-30" transform="translate(307.71875 0)"/>
      <use xlink:href="#DejaVuSans-20" transform="translate(371.341797 0)"/>
      <use xlink:href="#DejaVuSans-4b" transform="translate(403.128906 0)"/>
     </g>
    </g>
    <g id="line2d_22">
     <path d="M 56.018 67.932813 
L 66.018 67.932813 
L 76.018 67.932813 
" style="fill: none; stroke: #d62728; stroke-width: 1.5; stroke-linecap: square"/>
    </g>
    <g id="text_20">
     <!-- Ts=260 K -->
     <g transform="translate(84.018 71.432813) scale(0.1 -0.1)">
      <use xlink:href="#DejaVuSans-54"/>
      <use xlink:href="#DejaVuSans-73" transform="translate(44.583984 0)"/>
      <use xlink:href="#DejaVuSans-3d" transform="translate(96.683594 0)"/>
      <use xlink:href="#DejaVuSans-32" transform="translate(180.472656 0)"/>
      <use xlink:href="#DejaVuSans-36" transform="translate(244.095703 0)"/>
      <use xlink:href="#DejaVuSans-30" transform="translate(307.71875 0)"/>
      <use xlink:href="#DejaVuSans-20" transform="translate(371.341797 0)"/>
      <use xlink:href="#DejaVuSans-4b" transform="translate(403.128906 0)"/>
     </g>
    </g>
   </g>
  </g>
 </g>
 <defs>
  <clipPath id="pd0ce37a05b">
   <rect x="47.018" y="10.8" width="402.982" height="291.4"/>
  </clipPath>
 </defs>
</svg>
