<?xml version="1.0" encoding="utf-8" standalone="no"?>
<!DOCTYPE svg PUBLIC "-//W3C//DTD SVG 1.1//EN"
  "http://www.w3.org/Graphics/SVG/1.1/DTD/svg11.dtd">
<svg xmlns:xlink="http://www.w3.org/1999/xlink" width="460.8pt" height="345.6pt" viewBox="0 0 460.8 345.6" xmlns="http://www.w3.org/2000/svg" version="1.1">
 <metadata>
  <rdf:RDF xmlns:dc="http://purl.org/dc/elements/1.1/" xmlns:cc="http://creativecommons.org/ns#" xmlns:rdf="http://www.w3.org/1999/02/22-rdf-syntax-ns#">
   <cc:Work>
    <dc:type rdf:resource="http://purl.org/dc/dcmitype/StillImage"/>
    <dc:date>2026-02-11T13:28:04.030224</dc:date>
    <dc:format>image/svg+xml</dc:format>
    <dc:creator>
     <cc:Agent>
      <dc:title>Matplotlib v3.10.8, https://matplotlib.org/</dc:title>
     </cc:Agent>
    </dc:creator>
   </cc:Work>
  </rdf:RDF>
 </metadata>
 <defs>
  <style type="text/css">*{stroke-linejoin: round; stroke-linecap: butt}</style>
 </defs>
 <g id="figure_1">
  <g id="patch_1">
   <path d="M 0 345.6 
L 460.8 345.6 
L 460.8 0 
L 0 0 
L 0 345.6 
z
" style="fill: none"/>
  </g>
  <g id="axes_1">
   <g id="patch_2">
    <path d="M 56.468 302.2 
L 450 302.2 
L 450 10.8 
L 56.468 10.8 
L 56.468 302.2 
z
" style="fill: none"/>
   </g>
   <g id="FillBetweenPolyCollection_1">
    <path d="M 74.355818 244.620819 
L 74.355818 249.937492 
L 81.656968 233.48908 
L 88.958119 219.41117 
L 96.259269 207.511868 
L 103.560419 197.491549 
L 110.86157 189.233212 
L 118.16272 182.010114 
L 125.46387 175.581665 
L 132.76502 169.479123 
L 140.066171 163.714954 
L 147.367321 158.325786 
L 154.668471 153.15393 
L 161.969622 148.226363 
L 169.270772 143.330425 
L 176.571922 138.739553 
L 183.873072 134.278786 
L 191.174223 130.055929 
L 198.475373 125.984426 
L 205.776523 121.943726 
L 213.077673 117.948431 
L 220.378824 114.278698 
L 227.679974 110.627545 
L 234.981124 106.928467 
L 242.282275 103.366086 
L 249.583425 99.821865 
L 256.884575 96.5061 
L 264.185725 93.203212 
L 271.486876 89.969571 
L 278.788026 86.698841 
L 286.089176 83.613467 
L 293.390327 80.543968 
L 300.691477 77.486221 
L 307.992627 74.529525 
L 315.293777 71.499838 
L 322.594928 68.602682 
L 329.896078 65.753042 
L 337.197228 62.981242 
L 344.498378 60.252811 
L 351.799529 57.417442 
L 359.100679 54.900555 
L 366.401829 52.289011 
L 373.70298 49.602399 
L 381.00413 47.142326 
L 388.30528 44.441017 
L 395.60643 41.850854 
L 402.907581 39.383221 
L 410.208731 37.110803 
L 417.509881 34.782342 
L 424.811032 32.495437 
L 432.112182 29.444885 
L 432.112182 24.045455 
L 432.112182 24.045455 
L 424.811032 25.546123 
L 417.509881 27.935503 
L 410.208731 30.593636 
L 402.907581 33.506418 
L 395.60643 36.341206 
L 388.30528 38.795424 
L 381.00413 41.543031 
L 373.70298 43.984394 
L 366.401829 46.686777 
L 359.100679 49.259087 
L 351.799529 51.939633 
L 344.498378 54.739963 
L 337.197228 57.482288 
L 329.896078 60.339145 
L 322.594928 63.269772 
L 315.293777 66.121935 
L 307.992627 69.134832 
L 300.691477 72.094763 
L 293.390327 75.040671 
L 286.089176 78.07963 
L 278.788026 81.215787 
L 271.486876 84.448784 
L 264.185725 87.80197 
L 256.884575 91.093371 
L 249.583425 94.421453 
L 242.282275 97.990872 
L 234.981124 101.596132 
L 227.679974 105.050828 
L 220.378824 108.843736 
L 213.077673 112.68265 
L 205.776523 116.42893 
L 198.475373 120.467423 
L 191.174223 124.632444 
L 183.873072 128.928269 
L 176.571922 133.377409 
L 169.270772 137.948545 
L 161.969622 142.810575 
L 154.668471 147.73325 
L 147.367321 152.957236 
L 140.066171 158.315858 
L 132.76502 163.825951 
L 125.46387 169.820137 
L 118.16272 176.419852 
L 110.86157 183.759176 
L 103.560419 192.081494 
L 96.259269 201.553576 
L 88.958119 212.934312 
L 81.656968 226.925739 
L 74.355818 244.620819 
z
" clip-path="url(#pf1a8ab027e)" style="fill: #1f77b4; fill-opacity: 0.27"/>
   </g>
   <g id="FillBetweenPolyCollection_2">
    <path d="M 74.355818 247.149764 
L 74.355818 247.443197 
L 81.656968 230.360376 
L 88.958119 216.333687 
L 96.259269 204.742372 
L 103.560419 195.033209 
L 110.86157 186.734857 
L 118.16272 179.465155 
L 125.46387 172.928556 
L 132.76502 166.909195 
L 140.066171 161.259316 
L 147.367321 155.885355 
L 154.668471 150.733462 
L 161.969622 145.775979 
L 169.270772 140.999979 
L 176.571922 136.398839 
L 183.873072 131.965797 
L 191.174223 127.691426 
L 198.475373 123.563054 
L 205.776523 119.565535 
L 213.077673 115.683002 
L 220.378824 111.900768 
L 227.679974 108.206856 
L 234.981124 104.592791 
L 242.282275 101.053583 
L 249.583425 97.586979 
L 256.884575 94.192249 
L 264.185725 90.868825 
L 271.486876 87.615148 
L 278.788026 84.427838 
L 286.089176 81.302003 
L 293.390327 78.231389 
L 300.691477 75.209447 
L 307.992627 72.230512 
L 315.293777 69.290859 
L 322.594928 66.389337 
L 329.896078 63.527352 
L 337.197228 60.708145 
L 344.498378 57.9354 
L 351.799529 55.211468 
L 359.100679 52.535574 
L 366.401829 49.902522 
L 373.70298 47.302378 
L 381.00413 44.721576 
L 388.30528 42.145733 
L 395.60643 39.564234 
L 402.907581 36.97641 
L 410.208731 34.398827 
L 417.509881 31.873019 
L 424.811032 29.472763 
L 432.112182 27.309939 
L 432.112182 26.255504 
L 432.112182 26.255504 
L 424.811032 28.42561 
L 417.509881 30.833985 
L 410.208731 33.368342 
L 402.907581 35.954647 
L 395.60643 38.551224 
L 388.30528 41.141451 
L 381.00413 43.726012 
L 373.70298 46.315553 
L 366.401829 48.924508 
L 359.100679 51.566491 
L 351.799529 54.251469 
L 344.498378 56.984653 
L 337.197228 59.766818 
L 329.896078 62.595606 
L 322.594928 65.467317 
L 315.293777 68.378702 
L 307.992627 71.328352 
L 300.691477 74.317422 
L 293.390327 77.349655 
L 286.089176 80.430735 
L 278.788026 83.567237 
L 271.486876 86.765448 
L 264.185725 90.029835 
L 256.884575 93.363853 
L 249.583425 96.7694 
L 242.282275 100.247038 
L 234.981124 103.7975 
L 227.679974 107.42305 
L 220.378824 111.128702 
L 213.077673 114.92317 
L 205.776523 118.818992 
L 198.475373 122.830226 
L 191.174223 126.972802 
L 183.873072 131.261923 
L 176.571922 135.710304 
L 169.270772 140.327293 
L 161.969622 145.119498 
L 154.668471 150.093811 
L 147.367321 155.263183 
L 140.066171 160.655364 
L 132.76502 166.324397 
L 125.46387 172.36421 
L 118.16272 178.923146 
L 110.86157 186.218363 
L 103.560419 194.546733 
L 96.259269 204.291333 
L 88.958119 215.923666 
L 81.656968 230.00225 
L 74.355818 247.149764 
z
" clip-path="url(#pf1a8ab027e)" style="fill: #ff7f0e; fill-opacity: 0.45"/>
   </g>
   <g id="PathCollection_1">
    <defs>
     <path id="m856ddb756c" d="M 0 2.12132 
C 0.562581 2.12132 1.102195 1.897805 1.5 1.5 
C 1.897805 1.102195 2.12132 0.562581 2.12132 0 
C 2.12132 -0.562581 1.897805 -1.102195 1.5 -1.5 
C 1.102195 -1.897805 0.562581 -2.12132 0 -2.12132 
C -0.562581 -2.12132 -1.102195 -1.897805 -1.5 -1.5 
C -1.897805 -1.102195 -2.12132 -0.562581 -2.12132 0 
C -2.12132 0.562581 -1.897805 1.102195 -1.5 1.5 
C -1.102195 1.897805 -0.562581 2.12132 0 2.12132 
z
" style="stroke: #000000; stroke-opacity: 0.7"/>
    </defs>
    <g clip-path="url(#pf1a8ab027e)">
     <use xlink:href="#m856ddb756c" x="74.355818" y="247.495782" style="fill-opacity: 0.7; stroke: #000000; stroke-opacity: 0.7"/>
     <use xlink:href="#m856ddb756c" x="106.879124" y="192.257918" style="fill-opacity: 0.7; stroke: #000000; stroke-opacity: 0.7"/>
     <use xlink:href="#m856ddb756c" x="143.01613" y="160.142996" style="fill-opacity: 0.7; stroke: #000000; stroke-opacity: 0.7"/>
     <use xlink:href="#m856ddb756c" x="179.153137" y="138.655074" style="fill-opacity: 0.7; stroke: #000000; stroke-opacity: 0.7"/>
     <use xlink:href="#m856ddb756c" x="215.290143" y="112.784241" style="fill-opacity: 0.7; stroke: #000000; stroke-opacity: 0.7"/>
     <use xlink:href="#m856ddb756c" x="251.42715" y="95.896354" style="fill-opacity: 0.7; stroke: #000000; stroke-opacity: 0.7"/>
     <use xlink:href="#m856ddb756c" x="287.564156" y="81.839077" style="fill-opacity: 0.7; stroke: #000000; stroke-opacity: 0.7"/>
     <use xlink:href="#m856ddb756c" x="323.701163" y="65.691183" style="fill-opacity: 0.7; stroke: #000000; stroke-opacity: 0.7"/>
     <use xlink:href="#m856ddb756c" x="359.838169" y="52.695018" style="fill-opacity: 0.7; stroke: #000000; stroke-opacity: 0.7"/>
     <use xlink:href="#m856ddb756c" x="395.975175" y="40.999615" style="fill-opacity: 0.7; stroke: #000000; stroke-opacity: 0.7"/>
     <use xlink:href="#m856ddb756c" x="432.112182" y="26.870212" style="fill-opacity: 0.7; stroke: #000000; stroke-opacity: 0.7"/>
    </g>
   </g>
   <g id="FillBetweenPolyCollection_3">
    <path d="M 74.355818 248.845922 
L 74.355818 254.024229 
L 81.656968 238.864733 
L 88.958119 225.975605 
L 96.259269 214.970187 
L 103.560419 205.910693 
L 110.86157 198.102364 
L 118.16272 191.546709 
L 125.46387 185.525455 
L 132.76502 179.898404 
L 140.066171 174.601998 
L 147.367321 169.640346 
L 154.668471 165.075625 
L 161.969622 160.534037 
L 169.270772 155.951873 
L 176.571922 151.758927 
L 183.873072 147.666696 
L 191.174223 143.692675 
L 198.475373 140.130622 
L 205.776523 136.210168 
L 213.077673 132.712268 
L 220.378824 129.204657 
L 227.679974 125.833931 
L 234.981124 122.518337 
L 242.282275 119.166709 
L 249.583425 116.137234 
L 256.884575 112.972273 
L 264.185725 109.842136 
L 271.486876 106.755938 
L 278.788026 103.866155 
L 286.089176 100.982319 
L 293.390327 98.102449 
L 300.691477 95.453497 
L 307.992627 92.847539 
L 315.293777 90.027708 
L 322.594928 87.328551 
L 329.896078 84.764928 
L 337.197228 82.204662 
L 344.498378 79.585858 
L 351.799529 77.12597 
L 359.100679 74.674782 
L 366.401829 72.189433 
L 373.70298 69.910936 
L 381.00413 67.644396 
L 388.30528 65.146894 
L 395.60643 62.672048 
L 402.907581 60.410028 
L 410.208731 58.499532 
L 417.509881 56.394855 
L 424.811032 54.126554 
L 432.112182 51.453301 
L 432.112182 46.035259 
L 432.112182 46.035259 
L 424.811032 47.152069 
L 417.509881 49.397322 
L 410.208731 51.987865 
L 402.907581 54.612097 
L 395.60643 57.208452 
L 388.30528 59.543554 
L 381.00413 61.893157 
L 373.70298 64.263766 
L 366.401829 66.776145 
L 359.100679 69.228897 
L 351.799529 71.588512 
L 344.498378 74.075263 
L 337.197228 76.68766 
L 329.896078 79.325615 
L 322.594928 81.962354 
L 315.293777 84.621116 
L 307.992627 87.320359 
L 300.691477 89.976512 
L 293.390327 92.830642 
L 286.089176 95.619634 
L 278.788026 98.547209 
L 271.486876 101.462699 
L 264.185725 104.42083 
L 256.884575 107.554896 
L 249.583425 110.679738 
L 242.282275 113.806436 
L 234.981124 117.082745 
L 227.679974 120.450192 
L 220.378824 123.842846 
L 213.077673 127.353537 
L 205.776523 130.827393 
L 198.475373 134.704396 
L 191.174223 138.339975 
L 183.873072 142.235935 
L 176.571922 146.427759 
L 169.270772 150.690959 
L 161.969622 155.103403 
L 154.668471 159.616386 
L 147.367321 164.303172 
L 140.066171 169.171728 
L 132.76502 174.330675 
L 125.46387 179.913753 
L 118.16272 185.989806 
L 110.86157 192.611277 
L 103.560419 200.295428 
L 96.259269 209.046853 
L 88.958119 219.387792 
L 81.656968 232.308297 
L 74.355818 248.845922 
z
" clip-path="url(#pf1a8ab027e)" style="fill: #2ca02c; fill-opacity: 0.27"/>
   </g>
   <g id="FillBetweenPolyCollection_4">
    <path d="M 74.355818 251.231902 
L 74.355818 251.49203 
L 81.656968 235.766042 
L 88.958119 222.85572 
L 96.259269 212.189253 
L 103.560419 203.257095 
L 110.86157 195.62536 
L 118.16272 188.941519 
L 125.46387 182.933181 
L 132.76502 177.40134 
L 140.066171 172.20974 
L 147.367321 167.272056 
L 154.668471 162.538579 
L 161.969622 157.983758 
L 169.270772 153.595652 
L 176.571922 149.367906 
L 183.873072 145.294459 
L 191.174223 141.366795 
L 198.475373 137.573309 
L 205.776523 133.900121 
L 213.077673 130.332685 
L 220.378824 126.857537 
L 227.679974 123.463685 
L 234.981124 120.143345 
L 242.282275 116.891921 
L 249.583425 113.70732 
L 256.884575 110.588841 
L 264.185725 107.535924 
L 271.486876 104.547098 
L 278.788026 101.619352 
L 286.089176 98.748055 
L 293.390327 95.927441 
L 300.691477 93.151504 
L 307.992627 90.415068 
L 315.293777 87.714747 
L 322.594928 85.049527 
L 329.896078 82.42074 
L 337.197228 79.831387 
L 344.498378 77.284853 
L 351.799529 74.783267 
L 359.100679 72.325855 
L 366.401829 69.907758 
L 373.70298 67.519748 
L 381.00413 65.149265 
L 388.30528 62.78303 
L 395.60643 60.411281 
L 402.907581 58.033473 
L 410.208731 55.664997 
L 417.509881 53.344297 
L 424.811032 51.13954 
L 432.112182 49.153996 
L 432.112182 48.203497 
L 432.112182 48.203497 
L 424.811032 50.195531 
L 417.509881 52.407546 
L 410.208731 54.735903 
L 402.907581 57.112192 
L 395.60643 59.49784 
L 388.30528 61.877403 
L 381.00413 64.251432 
L 373.70298 66.629726 
L 366.401829 69.025612 
L 359.100679 71.45169 
L 351.799529 73.91722 
L 344.498378 76.427076 
L 337.197228 78.982031 
L 329.896078 81.579947 
L 322.594928 84.217429 
L 315.293777 86.891466 
L 307.992627 89.600722 
L 300.691477 92.346217 
L 293.390327 95.131352 
L 286.089176 97.961321 
L 278.788026 100.842154 
L 271.486876 103.779634 
L 264.185725 106.778405 
L 256.884575 109.841488 
L 249.583425 112.970355 
L 242.282275 116.165562 
L 234.981124 119.427816 
L 227.679974 122.759218 
L 220.378824 126.164379 
L 213.077673 129.651118 
L 205.776523 133.23047 
L 198.475373 136.915954 
L 191.174223 140.722172 
L 183.873072 144.663053 
L 176.571922 148.750244 
L 169.270772 152.992284 
L 161.969622 157.39525 
L 154.668471 161.965508 
L 147.367321 166.715036 
L 140.066171 171.669474 
L 132.76502 176.878718 
L 125.46387 182.429422 
L 118.16272 188.45838 
L 110.86157 195.165377 
L 103.560419 202.823117 
L 96.259269 211.785145 
L 88.958119 222.490482 
L 81.656968 235.448772 
L 74.355818 251.231902 
z
" clip-path="url(#pf1a8ab027e)" style="fill: #d62728; fill-opacity: 0.45"/>
   </g>
   <g id="PathCollection_2">
    <g clip-path="url(#pf1a8ab027e)">
     <use xlink:href="#m856ddb756c" x="74.355818" y="252.265045" style="fill-opacity: 0.7; stroke: #000000; stroke-opacity: 0.7"/>
     <use xlink:href="#m856ddb756c" x="106.879124" y="200.783257" style="fill-opacity: 0.7; stroke: #000000; stroke-opacity: 0.7"/>
     <use xlink:href="#m856ddb756c" x="143.01613" y="172.130357" style="fill-opacity: 0.7; stroke: #000000; stroke-opacity: 0.7"/>
     <use xlink:href="#m856ddb756c" x="179.153137" y="148.34753" style="fill-opacity: 0.7; stroke: #000000; stroke-opacity: 0.7"/>
     <use xlink:href="#m856ddb756c" x="215.290143" y="130.562324" style="fill-opacity: 0.7; stroke: #000000; stroke-opacity: 0.7"/>
     <use xlink:href="#m856ddb756c" x="251.42715" y="113.46167" style="fill-opacity: 0.7; stroke: #000000; stroke-opacity: 0.7"/>
     <use xlink:href="#m856ddb756c" x="287.564156" y="100.348335" style="fill-opacity: 0.7; stroke: #000000; stroke-opacity: 0.7"/>
     <use xlink:href="#m856ddb756c" x="323.701163" y="85.938428" style="fill-opacity: 0.7; stroke: #000000; stroke-opacity: 0.7"/>
     <use xlink:href="#m856ddb756c" x="359.838169" y="74.806311" style="fill-opacity: 0.7; stroke: #000000; stroke-opacity: 0.7"/>
     <use xlink:href="#m856ddb756c" x="395.975175" y="60.795446" style="fill-opacity: 0.7; stroke: #000000; stroke-opacity: 0.7"/>
     <use xlink:href="#m856ddb756c" x="432.112182" y="50.599175" style="fill-opacity: 0.7; stroke: #000000; stroke-opacity: 0.7"/>
    </g>
   </g>
   <g id="FillBetweenPolyCollection_5">
    <path d="M 74.355818 253.133754 
L 74.355818 258.433915 
L 81.656968 244.690986 
L 88.958119 232.968182 
L 96.259269 222.92272 
L 103.560419 214.681444 
L 110.86157 207.614737 
L 118.16272 201.620762 
L 125.46387 196.181397 
L 132.76502 191.032314 
L 140.066171 186.349362 
L 147.367321 181.68159 
L 154.668471 177.577281 
L 161.969622 173.413248 
L 169.270772 169.454288 
L 176.571922 165.511449 
L 183.873072 161.846037 
L 191.174223 158.300199 
L 198.475373 154.872357 
L 205.776523 151.476803 
L 213.077673 148.167415 
L 220.378824 144.992593 
L 227.679974 142.011795 
L 234.981124 138.982726 
L 242.282275 135.900564 
L 249.583425 133.124613 
L 256.884575 130.152717 
L 264.185725 127.449992 
L 271.486876 124.730431 
L 278.788026 122.04374 
L 286.089176 119.546744 
L 293.390327 116.972632 
L 300.691477 114.429732 
L 307.992627 112.029617 
L 315.293777 109.49504 
L 322.594928 107.094945 
L 329.896078 104.646229 
L 337.197228 102.42089 
L 344.498378 100.16462 
L 351.799529 97.768032 
L 359.100679 95.43541 
L 366.401829 93.358254 
L 373.70298 91.240859 
L 381.00413 88.999397 
L 388.30528 86.949075 
L 395.60643 84.632273 
L 402.907581 82.784644 
L 410.208731 80.869155 
L 417.509881 79.131444 
L 424.811032 76.965883 
L 432.112182 74.295228 
L 432.112182 69.006759 
L 432.112182 69.006759 
L 424.811032 70.13801 
L 417.509881 72.084376 
L 410.208731 74.373827 
L 402.907581 76.958009 
L 395.60643 79.262115 
L 388.30528 81.253579 
L 381.00413 83.481871 
L 373.70298 85.711098 
L 366.401829 87.834462 
L 359.100679 90.222384 
L 351.799529 92.314426 
L 344.498378 94.613229 
L 337.197228 96.875792 
L 329.896078 99.336957 
L 322.594928 101.564003 
L 315.293777 104.08586 
L 307.992627 106.580592 
L 300.691477 109.010959 
L 293.390327 111.585773 
L 286.089176 114.100145 
L 278.788026 116.771827 
L 271.486876 119.376646 
L 264.185725 122.124198 
L 256.884575 124.876653 
L 249.583425 127.763528 
L 242.282275 130.576676 
L 234.981124 133.550365 
L 227.679974 136.596725 
L 220.378824 139.68103 
L 213.077673 142.901552 
L 205.776523 146.133155 
L 198.475373 149.325367 
L 191.174223 152.791353 
L 183.873072 156.342788 
L 176.571922 160.111125 
L 169.270772 164.086328 
L 161.969622 167.899915 
L 154.668471 171.985314 
L 147.367321 176.349321 
L 140.066171 180.894272 
L 132.76502 185.562292 
L 125.46387 190.455325 
L 118.16272 195.989507 
L 110.86157 202.197566 
L 103.560419 209.210183 
L 96.259269 217.053739 
L 88.958119 226.390394 
L 81.656968 238.25326 
L 74.355818 253.133754 
z
" clip-path="url(#pf1a8ab027e)" style="fill: #9467bd; fill-opacity: 0.27"/>
   </g>
   <g id="FillBetweenPolyCollection_6">
    <path d="M 74.355818 255.629319 
L 74.355818 255.8663 
L 81.656968 241.569078 
L 88.958119 229.832108 
L 96.259269 220.137387 
L 103.560419 212.020991 
L 110.86157 205.088511 
L 118.16272 199.018871 
L 125.46387 193.564103 
L 132.76502 188.542964 
L 140.066171 183.831282 
L 147.367321 179.350348 
L 154.668471 175.054802 
L 161.969622 170.921315 
L 169.270772 166.939001 
L 176.571922 163.102101 
L 183.873072 159.405167 
L 191.174223 155.840538 
L 198.475373 152.397748 
L 205.776523 149.064261 
L 213.077673 145.826913 
L 220.378824 142.673497 
L 227.679974 139.594033 
L 234.981124 136.581427 
L 242.282275 133.631472 
L 249.583425 130.74222 
L 256.884575 127.912988 
L 264.185725 125.14323 
L 271.486876 122.431585 
L 278.788026 119.775308 
L 286.089176 117.170201 
L 293.390327 114.611051 
L 300.691477 112.092438 
L 307.992627 109.6097 
L 315.293777 107.159804 
L 322.594928 104.741854 
L 329.896078 102.357078 
L 337.197228 100.008196 
L 344.498378 97.69826 
L 351.799529 95.42916 
L 359.100679 93.200142 
L 366.401829 91.006741 
L 373.70298 88.840533 
L 381.00413 86.690084 
L 388.30528 84.543333 
L 395.60643 82.391446 
L 402.907581 80.233981 
L 410.208731 78.084989 
L 417.509881 75.979446 
L 424.811032 73.97929 
L 432.112182 72.178254 
L 432.112182 71.285778 
L 432.112182 71.285778 
L 424.811032 73.093008 
L 417.509881 75.100072 
L 410.208731 77.212894 
L 402.907581 79.369312 
L 395.60643 81.534229 
L 388.30528 83.693544 
L 381.00413 85.8477 
L 373.70298 88.005565 
L 366.401829 90.179243 
L 359.100679 92.380208 
L 351.799529 94.616914 
L 344.498378 96.893845 
L 337.197228 99.211757 
L 329.896078 101.568752 
L 322.594928 103.961769 
L 315.293777 106.388079 
L 307.992627 108.846454 
L 300.691477 111.337792 
L 293.390327 113.865139 
L 286.089176 116.433171 
L 278.788026 119.047328 
L 271.486876 121.712839 
L 264.185725 124.433914 
L 256.884575 127.213308 
L 249.583425 130.052384 
L 242.282275 132.951691 
L 234.981124 135.911921 
L 227.679974 138.935025 
L 220.378824 142.025233 
L 213.077673 145.189667 
L 205.776523 148.438349 
L 198.475373 151.78353 
L 191.174223 155.23842 
L 183.873072 158.8156 
L 176.571922 162.525569 
L 169.270772 166.376004 
L 161.969622 170.372372 
L 154.668471 174.520445 
L 147.367321 178.831156 
L 140.066171 183.327924 
L 132.76502 188.056299 
L 125.46387 193.095322 
L 118.16272 198.569669 
L 110.86157 204.661329 
L 103.560419 211.619269 
L 96.259269 219.765569 
L 88.958119 229.496464 
L 81.656968 241.277128 
L 74.355818 255.629319 
z
" clip-path="url(#pf1a8ab027e)" style="fill: #8c564b; fill-opacity: 0.45"/>
   </g>
   <g id="PathCollection_3">
    <g clip-path="url(#pf1a8ab027e)">
     <use xlink:href="#m856ddb756c" x="74.355818" y="255.944964" style="fill-opacity: 0.7; stroke: #000000; stroke-opacity: 0.7"/>
     <use xlink:href="#m856ddb756c" x="106.879124" y="209.31239" style="fill-opacity: 0.7; stroke: #000000; stroke-opacity: 0.7"/>
     <use xlink:href="#m856ddb756c" x="143.01613" y="184.793896" style="fill-opacity: 0.7; stroke: #000000; stroke-opacity: 0.7"/>
     <use xlink:href="#m856ddb756c" x="179.153137" y="162.457633" style="fill-opacity: 0.7; stroke: #000000; stroke-opacity: 0.7"/>
     <use xlink:href="#m856ddb756c" x="215.290143" y="144.068391" style="fill-opacity: 0.7; stroke: #000000; stroke-opacity: 0.7"/>
     <use xlink:href="#m856ddb756c" x="251.42715" y="134.326488" style="fill-opacity: 0.7; stroke: #000000; stroke-opacity: 0.7"/>
     <use xlink:href="#m856ddb756c" x="287.564156" y="121.247395" style="fill-opacity: 0.7; stroke: #000000; stroke-opacity: 0.7"/>
     <use xlink:href="#m856ddb756c" x="323.701163" y="108.83841" style="fill-opacity: 0.7; stroke: #000000; stroke-opacity: 0.7"/>
     <use xlink:href="#m856ddb756c" x="359.838169" y="94.471698" style="fill-opacity: 0.7; stroke: #000000; stroke-opacity: 0.7"/>
     <use xlink:href="#m856ddb756c" x="395.975175" y="84.863267" style="fill-opacity: 0.7; stroke: #000000; stroke-opacity: 0.7"/>
     <use xlink:href="#m856ddb756c" x="432.112182" y="73.631793" style="fill-opacity: 0.7; stroke: #000000; stroke-opacity: 0.7"/>
    </g>
   </g>
   <g id="FillBetweenPolyCollection_7">
    <path d="M 74.355818 259.40396 
L 74.355818 264.714493 
L 81.656968 252.993312 
L 88.958119 242.852897 
L 96.259269 234.370227 
L 103.560419 227.139613 
L 110.86157 221.051359 
L 118.16272 215.892041 
L 125.46387 211.288571 
L 132.76502 206.844292 
L 140.066171 202.75024 
L 147.367321 198.999442 
L 154.668471 195.387016 
L 161.969622 191.734773 
L 169.270772 188.299725 
L 176.571922 184.957299 
L 183.873072 181.871059 
L 191.174223 178.677921 
L 198.475373 175.769971 
L 205.776523 172.890765 
L 213.077673 170.210785 
L 220.378824 167.454616 
L 227.679974 164.767668 
L 234.981124 162.184151 
L 242.282275 159.664075 
L 249.583425 157.13254 
L 256.884575 154.707029 
L 264.185725 152.324625 
L 271.486876 150.055007 
L 278.788026 147.798119 
L 286.089176 145.534749 
L 293.390327 143.324616 
L 300.691477 141.154669 
L 307.992627 139.057764 
L 315.293777 136.875921 
L 322.594928 134.810659 
L 329.896078 132.69137 
L 337.197228 130.76993 
L 344.498378 128.791093 
L 351.799529 126.927344 
L 359.100679 124.920376 
L 366.401829 123.050523 
L 373.70298 121.342514 
L 381.00413 119.448881 
L 388.30528 117.645842 
L 395.60643 115.582624 
L 402.907581 113.924505 
L 410.208731 112.589291 
L 417.509881 110.944015 
L 424.811032 109.241574 
L 432.112182 106.832506 
L 432.112182 101.54033 
L 432.112182 101.54033 
L 424.811032 102.345805 
L 417.509881 103.89672 
L 410.208731 105.941612 
L 402.907581 108.224571 
L 395.60643 110.263645 
L 388.30528 112.030375 
L 381.00413 113.765847 
L 373.70298 115.752071 
L 366.401829 117.671671 
L 359.100679 119.486413 
L 351.799529 121.408867 
L 344.498378 123.345269 
L 337.197228 125.342372 
L 329.896078 127.35974 
L 322.594928 129.483661 
L 315.293777 131.466424 
L 307.992627 133.680511 
L 300.691477 135.735605 
L 293.390327 137.783916 
L 286.089176 140.246775 
L 278.788026 142.328532 
L 271.486876 144.714269 
L 264.185725 146.952996 
L 256.884575 149.342307 
L 249.583425 151.685191 
L 242.282275 154.191653 
L 234.981124 156.768931 
L 227.679974 159.355095 
L 220.378824 161.935825 
L 213.077673 164.693214 
L 205.776523 167.611536 
L 198.475373 170.36913 
L 191.174223 173.393784 
L 183.873072 176.451796 
L 176.571922 179.647839 
L 169.270772 182.91428 
L 161.969622 186.29476 
L 154.668471 189.800553 
L 147.367321 193.594332 
L 140.066171 197.47003 
L 132.76502 201.37543 
L 125.46387 205.496014 
L 118.16272 210.320307 
L 110.86157 215.663873 
L 103.560419 221.70418 
L 96.259269 228.339429 
L 88.958119 236.432893 
L 81.656968 246.436937 
L 74.355818 259.40396 
z
" clip-path="url(#pf1a8ab027e)" style="fill: #e377c2; fill-opacity: 0.27"/>
   </g>
   <g id="FillBetweenPolyCollection_8">
    <path d="M 74.355818 261.981316 
L 74.355818 262.186509 
L 81.656968 249.894214 
L 88.958119 239.803628 
L 96.259269 231.470179 
L 103.560419 224.496122 
L 110.86157 218.540586 
L 118.16272 213.328417 
L 125.46387 208.646053 
L 132.76502 204.337225 
L 140.066171 200.294745 
L 147.367321 196.45058 
L 154.668471 192.765464 
L 161.969622 189.21919 
L 169.270772 185.80235 
L 176.571922 182.51004 
L 183.873072 179.337678 
L 191.174223 176.278821 
L 198.475373 173.324615 
L 205.776523 170.464404 
L 213.077673 167.686961 
L 220.378824 164.981827 
L 227.679974 162.34041 
L 234.981124 159.756566 
L 242.282275 157.226596 
L 249.583425 154.748746 
L 256.884575 152.322349 
L 264.185725 149.946879 
L 271.486876 147.621138 
L 278.788026 145.342775 
L 286.089176 143.108221 
L 293.390327 140.913054 
L 300.691477 138.752689 
L 307.992627 136.623186 
L 315.293777 134.52199 
L 322.594928 132.448357 
L 329.896078 130.403337 
L 337.197228 128.389233 
L 344.498378 126.40861 
L 351.799529 124.46303 
L 359.100679 122.551789 
L 366.401829 120.671011 
L 373.70298 118.813455 
L 381.00413 116.969333 
L 388.30528 115.128355 
L 395.60643 113.283011 
L 402.907581 111.43299 
L 410.208731 109.590358 
L 417.509881 107.785034 
L 424.811032 106.069898 
L 432.112182 104.524875 
L 432.112182 103.766042 
L 432.112182 103.766042 
L 424.811032 105.316181 
L 417.509881 107.037072 
L 410.208731 108.848484 
L 402.907581 110.697334 
L 395.60643 112.553596 
L 388.30528 114.405154 
L 381.00413 116.252326 
L 373.70298 118.102647 
L 366.401829 119.966449 
L 359.100679 121.853555 
L 351.799529 123.77123 
L 344.498378 125.723365 
L 337.197228 127.710665 
L 329.896078 129.73156 
L 322.594928 131.783478 
L 315.293777 133.864106 
L 307.992627 135.972392 
L 300.691477 138.109081 
L 293.390327 140.276743 
L 286.089176 142.47933 
L 278.788026 144.721446 
L 271.486876 147.00753 
L 264.185725 149.341158 
L 256.884575 151.724694 
L 249.583425 154.159336 
L 242.282275 156.64561 
L 234.981124 159.184184 
L 227.679974 161.776824 
L 220.378824 164.427236 
L 213.077673 167.141591 
L 205.776523 169.928512 
L 198.475373 172.798498 
L 191.174223 175.762823 
L 183.873072 178.832179 
L 176.571922 182.015452 
L 169.270772 185.319107 
L 161.969622 188.747736 
L 154.668471 192.30626 
L 147.367321 196.004117 
L 140.066171 199.861591 
L 132.76502 203.918099 
L 125.46387 208.241945 
L 118.16272 212.940741 
L 110.86157 218.171382 
L 103.560419 224.148307 
L 96.259269 231.148669 
L 88.958119 239.513164 
L 81.656968 249.641423 
L 74.355818 261.981316 
z
" clip-path="url(#pf1a8ab027e)" style="fill: #7f7f7f; fill-opacity: 0.45"/>
   </g>
   <g id="PathCollection_4">
    <g clip-path="url(#pf1a8ab027e)">
     <use xlink:href="#m856ddb756c" x="74.355818" y="260.389091" style="fill-opacity: 0.7; stroke: #000000; stroke-opacity: 0.7"/>
     <use xlink:href="#m856ddb756c" x="106.879124" y="219.820796" style="fill-opacity: 0.7; stroke: #000000; stroke-opacity: 0.7"/>
     <use xlink:href="#m856ddb756c" x="143.01613" y="196.340253" style="fill-opacity: 0.7; stroke: #000000; stroke-opacity: 0.7"/>
     <use xlink:href="#m856ddb756c" x="179.153137" y="179.277033" style="fill-opacity: 0.7; stroke: #000000; stroke-opacity: 0.7"/>
     <use xlink:href="#m856ddb756c" x="215.290143" y="163.119235" style="fill-opacity: 0.7; stroke: #000000; stroke-opacity: 0.7"/>
     <use xlink:href="#m856ddb756c" x="251.42715" y="152.810033" style="fill-opacity: 0.7; stroke: #000000; stroke-opacity: 0.7"/>
     <use xlink:href="#m856ddb756c" x="287.564156" y="140.190247" style="fill-opacity: 0.7; stroke: #000000; stroke-opacity: 0.7"/>
     <use xlink:href="#m856ddb756c" x="323.701163" y="128.591835" style="fill-opacity: 0.7; stroke: #000000; stroke-opacity: 0.7"/>
     <use xlink:href="#m856ddb756c" x="359.838169" y="116.567109" style="fill-opacity: 0.7; stroke: #000000; stroke-opacity: 0.7"/>
     <use xlink:href="#m856ddb756c" x="395.975175" y="110.634373" style="fill-opacity: 0.7; stroke: #000000; stroke-opacity: 0.7"/>
     <use xlink:href="#m856ddb756c" x="432.112182" y="102.230131" style="fill-opacity: 0.7; stroke: #000000; stroke-opacity: 0.7"/>
    </g>
   </g>
   <g id="FillBetweenPolyCollection_9">
    <path d="M 74.355818 264.5098 
L 74.355818 269.854565 
L 81.656968 259.825613 
L 88.958119 250.878715 
L 96.259269 243.293236 
L 103.560419 236.988761 
L 110.86157 231.803412 
L 118.16272 227.384879 
L 125.46387 223.240213 
L 132.76502 219.491358 
L 140.066171 215.856305 
L 147.367321 212.553716 
L 154.668471 209.32912 
L 161.969622 206.14705 
L 169.270772 203.215885 
L 176.571922 200.386707 
L 183.873072 197.634047 
L 191.174223 194.857835 
L 198.475373 192.316307 
L 205.776523 189.885167 
L 213.077673 187.406481 
L 220.378824 185.089922 
L 227.679974 182.766144 
L 234.981124 180.555849 
L 242.282275 178.308544 
L 249.583425 176.255027 
L 256.884575 173.987986 
L 264.185725 172.070913 
L 271.486876 169.922997 
L 278.788026 167.99986 
L 286.089176 166.037642 
L 293.390327 164.054105 
L 300.691477 162.194044 
L 307.992627 160.300586 
L 315.293777 158.493489 
L 322.594928 156.750329 
L 329.896078 154.900407 
L 337.197228 153.139307 
L 344.498378 151.500349 
L 351.799529 149.780339 
L 359.100679 148.053011 
L 366.401829 146.463757 
L 373.70298 144.905136 
L 381.00413 143.471855 
L 388.30528 141.72965 
L 395.60643 140.032609 
L 402.907581 138.627819 
L 410.208731 137.38156 
L 417.509881 136.030509 
L 424.811032 134.436638 
L 432.112182 132.437649 
L 432.112182 126.999441 
L 432.112182 126.999441 
L 424.811032 127.486544 
L 417.509881 129.006441 
L 410.208731 130.818508 
L 402.907581 132.687774 
L 395.60643 134.614618 
L 388.30528 136.110796 
L 381.00413 137.634697 
L 373.70298 139.307859 
L 366.401829 141.04884 
L 359.100679 142.753652 
L 351.799529 144.369184 
L 344.498378 146.084949 
L 337.197228 147.778925 
L 329.896078 149.550967 
L 322.594928 151.353734 
L 315.293777 153.118729 
L 307.992627 154.972636 
L 300.691477 156.759898 
L 293.390327 158.703145 
L 286.089176 160.561412 
L 278.788026 162.514188 
L 271.486876 164.557649 
L 264.185725 166.563206 
L 256.884575 168.580351 
L 249.583425 170.873884 
L 242.282275 172.980954 
L 234.981124 175.127796 
L 227.679974 177.478781 
L 220.378824 179.820512 
L 213.077673 181.974332 
L 205.776523 184.47731 
L 198.475373 187.011446 
L 191.174223 189.521624 
L 183.873072 192.24518 
L 176.571922 194.924923 
L 169.270772 197.776557 
L 161.969622 200.777488 
L 154.668471 203.854305 
L 147.367321 207.141244 
L 140.066171 210.511444 
L 132.76502 213.929381 
L 125.46387 217.66414 
L 118.16272 221.617034 
L 110.86157 226.431683 
L 103.560419 231.483009 
L 96.259269 237.345255 
L 88.958119 244.402004 
L 81.656968 253.157831 
L 74.355818 264.5098 
z
" clip-path="url(#pf1a8ab027e)" style="fill: #bcbd22; fill-opacity: 0.27"/>
   </g>
   <g id="FillBetweenPolyCollection_10">
    <path d="M 74.355818 267.091884 
L 74.355818 267.278663 
L 81.656968 256.564434 
L 88.958119 247.770963 
L 96.259269 240.509295 
L 103.560419 234.432389 
L 110.86157 229.245046 
L 118.16272 224.706492 
L 125.46387 220.630333 
L 132.76502 216.880097 
L 140.066171 213.362119 
L 147.367321 210.016902 
L 154.668471 206.810094 
L 161.969622 203.724012 
L 169.270772 200.750451 
L 176.571922 197.885174 
L 183.873072 195.124259 
L 191.174223 192.462081 
L 198.475373 189.891048 
L 205.776523 187.401981 
L 213.077673 184.985123 
L 220.378824 182.631375 
L 227.679974 180.333227 
L 234.981124 178.085287 
L 242.282275 175.884285 
L 249.583425 173.728637 
L 256.884575 171.61772 
L 264.185725 169.551045 
L 271.486876 167.527562 
L 278.788026 165.545233 
L 286.089176 163.600977 
L 293.390327 161.690981 
L 300.691477 159.811291 
L 307.992627 157.958515 
L 315.293777 156.130448 
L 322.594928 154.326453 
L 329.896078 152.547432 
L 337.197228 150.795366 
L 344.498378 149.072453 
L 351.799529 147.380018 
L 359.100679 145.717419 
L 366.401829 144.081274 
L 373.70298 142.465294 
L 381.00413 140.860998 
L 388.30528 139.259489 
L 395.60643 137.654296 
L 402.907581 136.045188 
L 410.208731 134.442658 
L 417.509881 132.872628 
L 424.811032 131.380856 
L 432.112182 130.036418 
L 432.112182 129.33099 
L 432.112182 129.33099 
L 424.811032 130.680196 
L 417.509881 132.177316 
L 410.208731 133.752999 
L 402.907581 135.361309 
L 395.60643 136.97622 
L 388.30528 138.587199 
L 381.00413 140.194476 
L 373.70298 141.804548 
L 366.401829 143.426348 
L 359.100679 145.068385 
L 351.799529 146.736975 
L 344.498378 148.435514 
L 337.197228 150.164644 
L 329.896078 151.923036 
L 322.594928 153.708486 
L 315.293777 155.519006 
L 307.992627 157.353688 
L 300.691477 159.213177 
L 293.390327 161.099681 
L 286.089176 163.016608 
L 278.788026 164.967923 
L 271.486876 166.957454 
L 264.185725 168.98829 
L 256.884575 171.062481 
L 249.583425 173.181075 
L 242.282275 175.344565 
L 234.981124 177.553579 
L 227.679974 179.809708 
L 220.378824 182.116237 
L 213.077673 184.478586 
L 205.776523 186.90429 
L 198.475373 189.402491 
L 191.174223 191.982977 
L 183.873072 194.655003 
L 176.571922 197.426232 
L 169.270772 200.302212 
L 161.969622 203.286874 
L 154.668471 206.384467 
L 147.367321 209.603234 
L 140.066171 212.960934 
L 132.76502 216.492079 
L 125.46387 220.256429 
L 118.16272 224.348063 
L 110.86157 228.904047 
L 103.560419 234.111577 
L 96.259269 240.212455 
L 88.958119 247.503713 
L 81.656968 256.333541 
L 74.355818 267.091884 
z
" clip-path="url(#pf1a8ab027e)" style="fill: #17becf; fill-opacity: 0.45"/>
   </g>
   <g id="PathCollection_5">
    <g clip-path="url(#pf1a8ab027e)">
     <use xlink:href="#m856ddb756c" x="74.355818" y="267.489081" style="fill-opacity: 0.7; stroke: #000000; stroke-opacity: 0.7"/>
     <use xlink:href="#m856ddb756c" x="106.879124" y="229.772556" style="fill-opacity: 0.7; stroke: #000000; stroke-opacity: 0.7"/>
     <use xlink:href="#m856ddb756c" x="143.01613" y="211.160544" style="fill-opacity: 0.7; stroke: #000000; stroke-opacity: 0.7"/>
     <use xlink:href="#m856ddb756c" x="179.153137" y="193.827901" style="fill-opacity: 0.7; stroke: #000000; stroke-opacity: 0.7"/>
     <use xlink:href="#m856ddb756c" x="215.290143" y="185.302698" style="fill-opacity: 0.7; stroke: #000000; stroke-opacity: 0.7"/>
     <use xlink:href="#m856ddb756c" x="251.42715" y="170.12478" style="fill-opacity: 0.7; stroke: #000000; stroke-opacity: 0.7"/>
     <use xlink:href="#m856ddb756c" x="287.564156" y="160.160847" style="fill-opacity: 0.7; stroke: #000000; stroke-opacity: 0.7"/>
     <use xlink:href="#m856ddb756c" x="323.701163" y="154.162085" style="fill-opacity: 0.7; stroke: #000000; stroke-opacity: 0.7"/>
     <use xlink:href="#m856ddb756c" x="359.838169" y="143.477194" style="fill-opacity: 0.7; stroke: #000000; stroke-opacity: 0.7"/>
     <use xlink:href="#m856ddb756c" x="395.975175" y="134.003674" style="fill-opacity: 0.7; stroke: #000000; stroke-opacity: 0.7"/>
     <use xlink:href="#m856ddb756c" x="432.112182" y="127.882559" style="fill-opacity: 0.7; stroke: #000000; stroke-opacity: 0.7"/>
    </g>
   </g>
   <g id="FillBetweenPolyCollection_11">
    <path d="M 74.355818 269.878039 
L 74.355818 275.151004 
L 81.656968 266.826734 
L 88.958119 259.217262 
L 96.259269 252.830107 
L 103.560419 247.481963 
L 110.86157 242.972498 
L 118.16272 239.258172 
L 125.46387 235.822128 
L 132.76502 232.579209 
L 140.066171 229.512494 
L 147.367321 226.713101 
L 154.668471 224.06074 
L 161.969622 221.400731 
L 169.270772 218.817714 
L 176.571922 216.409282 
L 183.873072 214.018746 
L 191.174223 211.904903 
L 198.475373 209.680185 
L 205.776523 207.570115 
L 213.077673 205.590872 
L 220.378824 203.459813 
L 227.679974 201.490681 
L 234.981124 199.619089 
L 242.282275 197.722168 
L 249.583425 195.774655 
L 256.884575 194.162332 
L 264.185725 192.45477 
L 271.486876 190.680821 
L 278.788026 188.952947 
L 286.089176 187.373674 
L 293.390327 185.781346 
L 300.691477 184.104297 
L 307.992627 182.524839 
L 315.293777 181.002393 
L 322.594928 179.491638 
L 329.896078 177.965146 
L 337.197228 176.492016 
L 344.498378 175.074919 
L 351.799529 173.601028 
L 359.100679 172.174797 
L 366.401829 170.951267 
L 373.70298 169.46402 
L 381.00413 168.253374 
L 388.30528 166.826425 
L 395.60643 165.343414 
L 402.907581 164.108213 
L 410.208731 163.302006 
L 417.509881 162.07115 
L 424.811032 160.72561 
L 432.112182 158.905991 
L 432.112182 153.532572 
L 432.112182 153.532572 
L 424.811032 153.99679 
L 417.509881 155.169742 
L 410.208731 156.699715 
L 402.907581 158.310266 
L 395.60643 159.932468 
L 388.30528 161.164146 
L 381.00413 162.520835 
L 373.70298 163.910974 
L 366.401829 165.394102 
L 359.100679 166.771215 
L 351.799529 168.120475 
L 344.498378 169.601792 
L 337.197228 171.069954 
L 329.896078 172.518404 
L 322.594928 174.19613 
L 315.293777 175.628724 
L 307.992627 177.170572 
L 300.691477 178.811264 
L 293.390327 180.372577 
L 286.089176 181.905054 
L 278.788026 183.666327 
L 271.486876 185.240284 
L 264.185725 187.011212 
L 256.884575 188.731131 
L 249.583425 190.515084 
L 242.282275 192.420387 
L 234.981124 194.226054 
L 227.679974 196.099137 
L 220.378824 198.19196 
L 213.077673 200.174413 
L 205.776523 202.181377 
L 198.475373 204.170198 
L 191.174223 206.393395 
L 183.873072 208.691604 
L 176.571922 211.026536 
L 169.270772 213.384974 
L 161.969622 215.915922 
L 154.668471 218.490997 
L 147.367321 221.25795 
L 140.066171 224.159813 
L 132.76502 227.063695 
L 125.46387 230.211999 
L 118.16272 233.792151 
L 110.86157 237.523177 
L 103.560419 241.957794 
L 96.259269 246.834939 
L 88.958119 252.743625 
L 81.656968 260.367022 
L 74.355818 269.878039 
z
" clip-path="url(#pf1a8ab027e)" style="fill: #1f77b4; fill-opacity: 0.27"/>
   </g>
   <g id="FillBetweenPolyCollection_12">
    <path d="M 74.355818 272.506101 
L 74.355818 272.675735 
L 81.656968 263.597133 
L 88.958119 256.145748 
L 96.259269 249.993002 
L 103.560419 244.845532 
L 110.86157 240.452973 
L 118.16272 236.610384 
L 125.46387 233.160107 
L 132.76502 229.98639 
L 140.066171 227.009544 
L 147.367321 224.179017 
L 154.668471 221.465607 
L 161.969622 218.854296 
L 169.270772 216.338134 
L 176.571922 213.913565 
L 183.873072 211.577319 
L 191.174223 209.324906 
L 198.475373 207.149894 
L 205.776523 205.044342 
L 213.077673 202.999998 
L 220.378824 201.009145 
L 227.679974 199.065407 
L 234.981124 197.164191 
L 242.282275 195.302702 
L 249.583425 193.479571 
L 256.884575 191.694253 
L 264.185725 189.946322 
L 271.486876 188.234889 
L 278.788026 186.558234 
L 286.089176 184.913765 
L 293.390327 183.298273 
L 300.691477 181.708433 
L 307.992627 180.14139 
L 315.293777 178.59529 
L 322.594928 177.069598 
L 329.896078 175.565071 
L 337.197228 174.083372 
L 344.498378 172.62634 
L 351.799529 171.195074 
L 359.100679 169.789015 
L 366.401829 168.405295 
L 373.70298 167.038603 
L 381.00413 165.681792 
L 388.30528 164.327381 
L 395.60643 162.969947 
L 402.907581 161.60934 
L 410.208731 160.25444 
L 417.509881 158.927108 
L 424.811032 157.665855 
L 432.112182 156.528735 
L 432.112182 155.906086 
L 432.112182 155.906086 
L 424.811032 157.047348 
L 417.509881 158.313275 
L 410.208731 159.645563 
L 402.907581 161.005535 
L 395.60643 162.371237 
L 388.30528 163.73375 
L 381.00413 165.093224 
L 373.70298 166.455102 
L 366.401829 167.826971 
L 359.100679 169.215958 
L 351.799529 170.627367 
L 344.498378 172.064079 
L 337.197228 173.526657 
L 329.896078 175.014001 
L 322.594928 176.52427 
L 315.293777 178.055797 
L 307.992627 179.607823 
L 300.691477 181.180891 
L 293.390327 182.776854 
L 286.089176 184.398572 
L 278.788026 186.04938 
L 271.486876 187.732489 
L 264.185725 189.450497 
L 256.884575 191.205129 
L 249.583425 192.997279 
L 242.282275 194.827377 
L 234.981124 196.695979 
L 227.679974 198.604469 
L 220.378824 200.555663 
L 213.077673 202.554183 
L 205.776523 204.606434 
L 198.475373 206.720167 
L 191.174223 208.903662 
L 183.873072 211.164731 
L 176.571922 213.509825 
L 169.270772 215.943591 
L 161.969622 218.469311 
L 154.668471 221.090552 
L 147.367321 223.81429 
L 140.066171 226.655605 
L 132.76502 229.643827 
L 125.46387 232.829728 
L 118.16272 236.293211 
L 110.86157 240.150632 
L 103.560419 244.560838 
L 96.259269 249.728901 
L 88.958119 255.906612 
L 81.656968 263.388964 
L 74.355818 272.506101 
z
" clip-path="url(#pf1a8ab027e)" style="fill: #ff7f0e; fill-opacity: 0.45"/>
   </g>
   <g id="PathCollection_6">
    <g clip-path="url(#pf1a8ab027e)">
     <use xlink:href="#m856ddb756c" x="74.355818" y="271.223762" style="fill-opacity: 0.7; stroke: #000000; stroke-opacity: 0.7"/>
     <use xlink:href="#m856ddb756c" x="106.879124" y="239.546539" style="fill-opacity: 0.7; stroke: #000000; stroke-opacity: 0.7"/>
     <use xlink:href="#m856ddb756c" x="143.01613" y="225.438288" style="fill-opacity: 0.7; stroke: #000000; stroke-opacity: 0.7"/>
     <use xlink:href="#m856ddb756c" x="179.153137" y="213.417414" style="fill-opacity: 0.7; stroke: #000000; stroke-opacity: 0.7"/>
     <use xlink:href="#m856ddb756c" x="215.290143" y="203.399436" style="fill-opacity: 0.7; stroke: #000000; stroke-opacity: 0.7"/>
     <use xlink:href="#m856ddb756c" x="251.42715" y="192.162087" style="fill-opacity: 0.7; stroke: #000000; stroke-opacity: 0.7"/>
     <use xlink:href="#m856ddb756c" x="287.564156" y="184.854746" style="fill-opacity: 0.7; stroke: #000000; stroke-opacity: 0.7"/>
     <use xlink:href="#m856ddb756c" x="323.701163" y="177.099098" style="fill-opacity: 0.7; stroke: #000000; stroke-opacity: 0.7"/>
     <use xlink:href="#m856ddb756c" x="359.838169" y="169.818587" style="fill-opacity: 0.7; stroke: #000000; stroke-opacity: 0.7"/>
     <use xlink:href="#m856ddb756c" x="395.975175" y="162.08018" style="fill-opacity: 0.7; stroke: #000000; stroke-opacity: 0.7"/>
     <use xlink:href="#m856ddb756c" x="432.112182" y="157.994286" style="fill-opacity: 0.7; stroke: #000000; stroke-opacity: 0.7"/>
    </g>
   </g>
   <g id="FillBetweenPolyCollection_13">
    <path d="M 74.355818 275.552525 
L 74.355818 280.974671 
L 81.656968 274.213471 
L 88.958119 268.099753 
L 96.259269 262.846264 
L 103.560419 258.369034 
L 110.86157 254.796155 
L 118.16272 251.66847 
L 125.46387 248.919476 
L 132.76502 246.271089 
L 140.066171 243.737862 
L 147.367321 241.500083 
L 154.668471 239.29361 
L 161.969622 237.118787 
L 169.270772 235.043309 
L 176.571922 233.149547 
L 183.873072 231.254607 
L 191.174223 229.301712 
L 198.475373 227.570101 
L 205.776523 225.845416 
L 213.077673 224.233525 
L 220.378824 222.599714 
L 227.679974 221.01026 
L 234.981124 219.523255 
L 242.282275 217.895474 
L 249.583425 216.498495 
L 256.884575 215.028114 
L 264.185725 213.52548 
L 271.486876 212.253052 
L 278.788026 210.825224 
L 286.089176 209.526509 
L 293.390327 208.190844 
L 300.691477 206.824758 
L 307.992627 205.664332 
L 315.293777 204.22955 
L 322.594928 203.101177 
L 329.896078 202.015176 
L 337.197228 200.800269 
L 344.498378 199.453217 
L 351.799529 198.32143 
L 359.100679 197.174361 
L 366.401829 196.096296 
L 373.70298 195.083376 
L 381.00413 193.905689 
L 388.30528 192.87632 
L 395.60643 191.626491 
L 402.907581 190.608718 
L 410.208731 189.970065 
L 417.509881 189.164982 
L 424.811032 188.103144 
L 432.112182 186.386413 
L 432.112182 180.957756 
L 432.112182 180.957756 
L 424.811032 181.155543 
L 417.509881 182.151674 
L 410.208731 183.408069 
L 402.907581 184.878861 
L 395.60643 186.291296 
L 388.30528 187.281141 
L 381.00413 188.269862 
L 373.70298 189.417815 
L 366.401829 190.689583 
L 359.100679 191.859234 
L 351.799529 192.957647 
L 344.498378 194.073549 
L 337.197228 195.249013 
L 329.896078 196.691016 
L 322.594928 197.748227 
L 315.293777 198.961731 
L 307.992627 200.214653 
L 300.691477 201.452029 
L 293.390327 202.70885 
L 286.089176 204.048858 
L 278.788026 205.525123 
L 271.486876 206.808718 
L 264.185725 208.104886 
L 256.884575 209.600097 
L 249.583425 211.07905 
L 242.282275 212.642034 
L 234.981124 214.135407 
L 227.679974 215.697965 
L 220.378824 217.252283 
L 213.077673 218.876066 
L 205.776523 220.562005 
L 198.475373 222.195032 
L 191.174223 223.956728 
L 183.873072 225.813108 
L 176.571922 227.716073 
L 169.270772 229.714087 
L 161.969622 231.62534 
L 154.668471 233.880089 
L 147.367321 236.143618 
L 140.066171 238.367797 
L 132.76502 240.737467 
L 125.46387 243.192182 
L 118.16272 245.91407 
L 110.86157 249.345799 
L 103.560419 252.802182 
L 96.259269 256.741879 
L 88.958119 261.499679 
L 81.656968 267.470661 
L 74.355818 275.552525 
z
" clip-path="url(#pf1a8ab027e)" style="fill: #2ca02c; fill-opacity: 0.27"/>
   </g>
   <g id="FillBetweenPolyCollection_14">
    <path d="M 74.355818 278.214681 
L 74.355818 278.364982 
L 81.656968 270.978488 
L 88.958119 264.917451 
L 96.259269 259.914213 
L 103.560419 255.729538 
L 110.86157 252.159184 
L 118.16272 249.036801 
L 125.46387 246.233547 
L 132.76502 243.655074 
L 140.066171 241.236627 
L 147.367321 238.937087 
L 154.668471 236.732737 
L 161.969622 234.611406 
L 169.270772 232.567482 
L 176.571922 230.598096 
L 183.873072 228.700599 
L 191.174223 226.871207 
L 198.475373 225.104675 
L 205.776523 223.394644 
L 213.077673 221.734376 
L 220.378824 220.117574 
L 227.679974 218.539036 
L 234.981124 216.995022 
L 242.282275 215.483254 
L 249.583425 214.002627 
L 256.884575 212.552704 
L 264.185725 211.13315 
L 271.486876 209.743245 
L 278.788026 208.381597 
L 286.089176 207.0461 
L 293.390327 205.734146 
L 300.691477 204.44303 
L 307.992627 203.170434 
L 315.293777 201.914856 
L 322.594928 200.67586 
L 329.896078 199.454069 
L 337.197228 198.250832 
L 344.498378 197.067642 
L 351.799529 195.905385 
L 359.100679 194.763595 
L 366.401829 193.639931 
L 373.70298 192.530073 
L 381.00413 191.428221 
L 388.30528 190.328317 
L 395.60643 189.225994 
L 402.907581 188.121178 
L 410.208731 187.021125 
L 417.509881 185.943603 
L 424.811032 184.91982 
L 432.112182 183.996727 
L 432.112182 183.449818 
L 432.112182 183.449818 
L 424.811032 184.376526 
L 417.509881 185.404383 
L 410.208731 186.486231 
L 402.907581 187.590718 
L 395.60643 188.699999 
L 388.30528 189.806782 
L 381.00413 190.91114 
L 373.70298 192.017456 
L 366.401829 193.131813 
L 359.100679 194.260034 
L 351.799529 195.406455 
L 344.498378 196.573427 
L 337.197228 197.761417 
L 329.896078 198.969536 
L 322.594928 200.196287 
L 315.293777 201.440314 
L 307.992627 202.700996 
L 300.691477 203.97877 
L 293.390327 205.275146 
L 286.089176 206.592452 
L 278.788026 207.933401 
L 271.486876 209.300611 
L 264.185725 210.696196 
L 256.884575 212.121549 
L 249.583425 213.577391 
L 242.282275 215.064061 
L 234.981124 216.581998 
L 227.679974 218.132313 
L 220.378824 219.717294 
L 213.077673 221.340707 
L 205.776523 223.007777 
L 198.475373 224.724835 
L 191.174223 226.498647 
L 183.873072 228.3356 
L 176.571922 230.240965 
L 169.270772 232.218532 
L 161.969622 234.270962 
L 154.668471 236.40113 
L 147.367321 238.614669 
L 140.066171 240.923802 
L 132.76502 243.35236 
L 125.46387 245.941653 
L 118.16272 248.75675 
L 110.86157 251.892449 
L 103.560419 255.478208 
L 96.259269 259.681172 
L 88.958119 264.70656 
L 81.656968 270.794752 
L 74.355818 278.214681 
z
" clip-path="url(#pf1a8ab027e)" style="fill: #d62728; fill-opacity: 0.45"/>
   </g>
   <g id="PathCollection_7">
    <g clip-path="url(#pf1a8ab027e)">
     <use xlink:href="#m856ddb756c" x="74.355818" y="280.782484" style="fill-opacity: 0.7; stroke: #000000; stroke-opacity: 0.7"/>
     <use xlink:href="#m856ddb756c" x="106.879124" y="258.201059" style="fill-opacity: 0.7; stroke: #000000; stroke-opacity: 0.7"/>
     <use xlink:href="#m856ddb756c" x="143.01613" y="239.926457" style="fill-opacity: 0.7; stroke: #000000; stroke-opacity: 0.7"/>
     <use xlink:href="#m856ddb756c" x="179.153137" y="231.264867" style="fill-opacity: 0.7; stroke: #000000; stroke-opacity: 0.7"/>
     <use xlink:href="#m856ddb756c" x="215.290143" y="220.867157" style="fill-opacity: 0.7; stroke: #000000; stroke-opacity: 0.7"/>
     <use xlink:href="#m856ddb756c" x="251.42715" y="215.43902" style="fill-opacity: 0.7; stroke: #000000; stroke-opacity: 0.7"/>
     <use xlink:href="#m856ddb756c" x="287.564156" y="209.704976" style="fill-opacity: 0.7; stroke: #000000; stroke-opacity: 0.7"/>
     <use xlink:href="#m856ddb756c" x="323.701163" y="201.933435" style="fill-opacity: 0.7; stroke: #000000; stroke-opacity: 0.7"/>
     <use xlink:href="#m856ddb756c" x="359.838169" y="196.95391" style="fill-opacity: 0.7; stroke: #000000; stroke-opacity: 0.7"/>
     <use xlink:href="#m856ddb756c" x="395.975175" y="193.156908" style="fill-opacity: 0.7; stroke: #000000; stroke-opacity: 0.7"/>
     <use xlink:href="#m856ddb756c" x="432.112182" y="187.603985" style="fill-opacity: 0.7; stroke: #000000; stroke-opacity: 0.7"/>
    </g>
   </g>
   <g id="FillBetweenPolyCollection_15">
    <path d="M 74.355818 283.591936 
L 74.355818 288.954545 
L 81.656968 284.594892 
L 88.958119 280.441941 
L 96.259269 276.74613 
L 103.560419 273.576838 
L 110.86157 271.084867 
L 118.16272 269.06597 
L 125.46387 267.156636 
L 132.76502 265.398491 
L 140.066171 263.544584 
L 147.367321 262.086195 
L 154.668471 260.513945 
L 161.969622 259.180225 
L 169.270772 257.680093 
L 176.571922 256.363411 
L 183.873072 255.000025 
L 191.174223 253.844901 
L 198.475373 252.632735 
L 205.776523 251.443665 
L 213.077673 250.339969 
L 220.378824 249.274855 
L 227.679974 248.210361 
L 234.981124 247.076218 
L 242.282275 246.12803 
L 249.583425 245.02771 
L 256.884575 244.018378 
L 264.185725 242.93487 
L 271.486876 242.139556 
L 278.788026 241.036309 
L 286.089176 240.240814 
L 293.390327 239.332698 
L 300.691477 238.442049 
L 307.992627 237.672807 
L 315.293777 236.837814 
L 322.594928 235.885557 
L 329.896078 235.028268 
L 337.197228 234.335869 
L 344.498378 233.483641 
L 351.799529 232.666398 
L 359.100679 231.815774 
L 366.401829 231.132064 
L 373.70298 230.427154 
L 381.00413 229.792564 
L 388.30528 228.94623 
L 395.60643 228.095236 
L 402.907581 227.692532 
L 410.208731 227.146315 
L 417.509881 226.717777 
L 424.811032 225.932615 
L 432.112182 224.56263 
L 432.112182 219.174433 
L 432.112182 219.174433 
L 424.811032 218.928983 
L 417.509881 219.6656 
L 410.208731 220.591304 
L 402.907581 221.792731 
L 395.60643 222.901023 
L 388.30528 223.238912 
L 381.00413 223.944727 
L 373.70298 224.95261 
L 366.401829 225.669492 
L 359.100679 226.466528 
L 351.799529 227.227948 
L 344.498378 227.950278 
L 337.197228 228.823667 
L 329.896078 229.706335 
L 322.594928 230.556855 
L 315.293777 231.413563 
L 307.992627 232.303466 
L 300.691477 233.198049 
L 293.390327 234.053886 
L 286.089176 234.990903 
L 278.788026 235.844 
L 271.486876 236.657462 
L 264.185725 237.668603 
L 256.884575 238.617939 
L 249.583425 239.682328 
L 242.282275 240.672091 
L 234.981124 241.663231 
L 227.679974 242.763984 
L 220.378824 243.755386 
L 213.077673 245.052962 
L 205.776523 245.998851 
L 198.475373 247.260008 
L 191.174223 248.356642 
L 183.873072 249.564142 
L 176.571922 251.054742 
L 169.270772 252.288123 
L 161.969622 253.690721 
L 154.668471 255.179335 
L 147.367321 256.718403 
L 140.066171 258.174955 
L 132.76502 259.839243 
L 125.46387 261.479475 
L 118.16272 263.400571 
L 110.86157 265.643145 
L 103.560419 268.057253 
L 96.259269 270.594571 
L 88.958119 273.896428 
L 81.656968 278.081908 
L 74.355818 283.591936 
z
" clip-path="url(#pf1a8ab027e)" style="fill: #9467bd; fill-opacity: 0.27"/>
   </g>
   <g id="FillBetweenPolyCollection_16">
    <path d="M 74.355818 286.277065 
L 74.355818 286.396209 
L 81.656968 281.348591 
L 88.958119 277.211064 
L 96.259269 273.798845 
L 103.560419 270.946945 
L 110.86157 268.514728 
L 118.16272 266.387886 
L 125.46387 264.478126 
L 132.76502 262.721018 
L 140.066171 261.072542 
L 147.367321 259.504921 
L 154.668471 258.002262 
L 161.969622 256.55649 
L 169.270772 255.163911 
L 176.571922 253.822588 
L 183.873072 252.530632 
L 191.174223 251.285315 
L 198.475373 250.082884 
L 205.776523 248.918836 
L 213.077673 247.788458 
L 220.378824 246.687399 
L 227.679974 245.612127 
L 234.981124 244.560163 
L 242.282275 243.530066 
L 249.583425 242.521207 
L 256.884575 241.533397 
L 264.185725 240.566478 
L 271.486876 239.619983 
L 278.788026 238.692939 
L 286.089176 237.783846 
L 293.390327 236.890842 
L 300.691477 236.011999 
L 307.992627 235.145676 
L 315.293777 234.290819 
L 322.594928 233.447151 
L 329.896078 232.615143 
L 337.197228 231.795787 
L 344.498378 230.99017 
L 351.799529 230.198935 
L 359.100679 229.421762 
L 366.401829 228.656998 
L 373.70298 227.901592 
L 381.00413 227.151459 
L 388.30528 226.402349 
L 395.60643 225.651223 
L 402.907581 224.898075 
L 410.208731 224.14804 
L 417.509881 223.413583 
L 424.811032 222.716478 
L 432.112182 222.089315 
L 432.112182 221.650999 
L 432.112182 221.650999 
L 424.811032 222.28129 
L 417.509881 222.981848 
L 410.208731 223.719923 
L 402.907581 224.473639 
L 395.60643 225.230479 
L 388.30528 225.985284 
L 381.00413 226.738062 
L 373.70298 227.491863 
L 366.401829 228.250954 
L 359.100679 229.019433 
L 351.799529 229.800358 
L 344.498378 230.595386 
L 337.197228 231.404836 
L 329.896078 232.228065 
L 322.594928 233.063985 
L 315.293777 233.911612 
L 307.992627 234.770482 
L 300.691477 235.640888 
L 293.390327 236.523896 
L 286.089176 237.421163 
L 278.788026 238.334632 
L 271.486876 239.266168 
L 264.185725 240.217273 
L 256.884575 241.188916 
L 249.583425 242.18155 
L 242.282275 243.195322 
L 234.981124 244.230409 
L 227.679974 245.287441 
L 220.378824 246.36786 
L 213.077673 247.474164 
L 205.776523 248.609913 
L 198.475373 249.779494 
L 191.174223 250.987659 
L 183.873072 252.238951 
L 176.571922 253.537151 
L 169.270772 254.885007 
L 161.969622 256.284418 
L 154.668471 257.737316 
L 147.367321 259.247404 
L 140.066171 260.822777 
L 132.76502 262.479394 
L 125.46387 264.245167 
L 118.16272 266.164353 
L 110.86157 268.301747 
L 103.560419 270.746159 
L 96.259269 273.612589 
L 88.958119 277.042542 
L 81.656968 281.202046 
L 74.355818 286.277065 
z
" clip-path="url(#pf1a8ab027e)" style="fill: #8c564b; fill-opacity: 0.45"/>
   </g>
   <g id="PathCollection_8">
    <g clip-path="url(#pf1a8ab027e)">
     <use xlink:href="#m856ddb756c" x="74.355818" y="282.971627" style="fill-opacity: 0.7; stroke: #000000; stroke-opacity: 0.7"/>
     <use xlink:href="#m856ddb756c" x="106.879124" y="267.348835" style="fill-opacity: 0.7; stroke: #000000; stroke-opacity: 0.7"/>
     <use xlink:href="#m856ddb756c" x="143.01613" y="257.370673" style="fill-opacity: 0.7; stroke: #000000; stroke-opacity: 0.7"/>
     <use xlink:href="#m856ddb756c" x="179.153137" y="250.82323" style="fill-opacity: 0.7; stroke: #000000; stroke-opacity: 0.7"/>
     <use xlink:href="#m856ddb756c" x="215.290143" y="245.128153" style="fill-opacity: 0.7; stroke: #000000; stroke-opacity: 0.7"/>
     <use xlink:href="#m856ddb756c" x="251.42715" y="237.556702" style="fill-opacity: 0.7; stroke: #000000; stroke-opacity: 0.7"/>
     <use xlink:href="#m856ddb756c" x="287.564156" y="233.948249" style="fill-opacity: 0.7; stroke: #000000; stroke-opacity: 0.7"/>
     <use xlink:href="#m856ddb756c" x="323.701163" y="230.294201" style="fill-opacity: 0.7; stroke: #000000; stroke-opacity: 0.7"/>
     <use xlink:href="#m856ddb756c" x="359.838169" y="225.263506" style="fill-opacity: 0.7; stroke: #000000; stroke-opacity: 0.7"/>
     <use xlink:href="#m856ddb756c" x="395.975175" y="222.347594" style="fill-opacity: 0.7; stroke: #000000; stroke-opacity: 0.7"/>
     <use xlink:href="#m856ddb756c" x="432.112182" y="217.172012" style="fill-opacity: 0.7; stroke: #000000; stroke-opacity: 0.7"/>
    </g>
   </g>
   <g id="matplotlib.axis_1">
    <g id="xtick_1">
     <g id="line2d_1">
      <defs>
       <path id="mb83a09e326" d="M 0 0 
L 0 3.5 
" style="stroke: #000000; stroke-width: 0.8"/>
      </defs>
      <g>
       <use xlink:href="#mb83a09e326" x="70.742118" y="302.2" style="stroke: #000000; stroke-width: 0.8"/>
      </g>
     </g>
     <g id="text_1">
      <!-- 0 -->
      <g transform="translate(67.560868 316.798437) scale(0.1 -0.1)">
       <defs>
        <path id="DejaVuSans-30" d="M 2034 4250 
Q 1547 4250 1301 3770 
Q 1056 3291 1056 2328 
Q 1056 1369 1301 889 
Q 1547 409 2034 409 
Q 2525 409 2770 889 
Q 3016 1369 3016 2328 
Q 3016 3291 2770 3770 
Q 2525 4250 2034 4250 
z
M 2034 4750 
Q 2819 4750 3233 4129 
Q 3647 3509 3647 2328 
Q 3647 1150 3233 529 
Q 2819 -91 2034 -91 
Q 1250 -91 836 529 
Q 422 1150 422 2328 
Q 422 3509 836 4129 
Q 1250 4750 2034 4750 
z
" transform="scale(0.015625)"/>
       </defs>
       <use xlink:href="#DejaVuSans-30"/>
      </g>
     </g>
    </g>
    <g id="xtick_2">
     <g id="line2d_2">
      <g>
       <use xlink:href="#mb83a09e326" x="143.01613" y="302.2" style="stroke: #000000; stroke-width: 0.8"/>
      </g>
     </g>
     <g id="text_2">
      <!-- 1 -->
      <g transform="translate(139.83488 316.798437) scale(0.1 -0.1)">
       <defs>
        <path id="DejaVuSans-31" d="M 794 531 
L 1825 531 
L 1825 4091 
L 703 3866 
L 703 4441 
L 1819 4666 
L 2450 4666 
L 2450 531 
L 3481 531 
L 3481 0 
L 794 0 
L 794 531 
z
" transform="scale(0.015625)"/>
       </defs>
       <use xlink:href="#DejaVuSans-31"/>
      </g>
     </g>
    </g>
    <g id="xtick_3">
     <g id="line2d_3">
      <g>
       <use xlink:href="#mb83a09e326" x="215.290143" y="302.2" style="stroke: #000000; stroke-width: 0.8"/>
      </g>
     </g>
     <g id="text_3">
      <!-- 2 -->
      <g transform="translate(212.108893 316.798437) scale(0.1 -0.1)">
       <defs>
        <path id="DejaVuSans-32" d="M 1228 531 
L 3431 531 
L 3431 0 
L 469 0 
L 469 531 
Q 828 903 1448 1529 
Q 2069 2156 2228 2338 
Q 2531 2678 2651 2914 
Q 2772 3150 2772 3378 
Q 2772 3750 2511 3984 
Q 2250 4219 1831 4219 
Q 1534 4219 1204 4116 
Q 875 4013 500 3803 
L 500 4441 
Q 881 4594 1212 4672 
Q 1544 4750 1819 4750 
Q 2544 4750 2975 4387 
Q 3406 4025 3406 3419 
Q 3406 3131 3298 2873 
Q 3191 2616 2906 2266 
Q 2828 2175 2409 1742 
Q 1991 1309 1228 531 
z
" transform="scale(0.015625)"/>
       </defs>
       <use xlink:href="#DejaVuSans-32"/>
      </g>
     </g>
    </g>
    <g id="xtick_4">
     <g id="line2d_4">
      <g>
       <use xlink:href="#mb83a09e326" x="287.564156" y="302.2" style="stroke: #000000; stroke-width: 0.8"/>
      </g>
     </g>
     <g id="text_4">
      <!-- 3 -->
      <g transform="translate(284.382906 316.798437) scale(0.1 -0.1)">
       <defs>
        <path id="DejaVuSans-33" d="M 2597 2516 
Q 3050 2419 3304 2112 
Q 3559 1806 3559 1356 
Q 3559 666 3084 287 
Q 2609 -91 1734 -91 
Q 1441 -91 1130 -33 
Q 819 25 488 141 
L 488 750 
Q 750 597 1062 519 
Q 1375 441 1716 441 
Q 2309 441 2620 675 
Q 2931 909 2931 1356 
Q 2931 1769 2642 2001 
Q 2353 2234 1838 2234 
L 1294 2234 
L 1294 2753 
L 1863 2753 
Q 2328 2753 2575 2939 
Q 2822 3125 2822 3475 
Q 2822 3834 2567 4026 
Q 2313 4219 1838 4219 
Q 1578 4219 1281 4162 
Q 984 4106 628 3988 
L 628 4550 
Q 988 4650 1302 4700 
Q 1616 4750 1894 4750 
Q 2613 4750 3031 4423 
Q 3450 4097 3450 3541 
Q 3450 3153 3228 2886 
Q 3006 2619 2597 2516 
z
" transform="scale(0.015625)"/>
       </defs>
       <use xlink:href="#DejaVuSans-33"/>
      </g>
     </g>
    </g>
    <g id="xtick_5">
     <g id="line2d_5">
      <g>
       <use xlink:href="#mb83a09e326" x="359.838169" y="302.2" style="stroke: #000000; stroke-width: 0.8"/>
      </g>
     </g>
     <g id="text_5">
      <!-- 4 -->
      <g transform="translate(356.656919 316.798437) scale(0.1 -0.1)">
       <defs>
        <path id="DejaVuSans-34" d="M 2419 4116 
L 825 1625 
L 2419 1625 
L 2419 4116 
z
M 2253 4666 
L 3047 4666 
L 3047 1625 
L 3713 1625 
L 3713 1100 
L 3047 1100 
L 3047 0 
L 2419 0 
L 2419 1100 
L 313 1100 
L 313 1709 
L 2253 4666 
z
" transform="scale(0.015625)"/>
       </defs>
       <use xlink:href="#DejaVuSans-34"/>
      </g>
     </g>
    </g>
    <g id="xtick_6">
     <g id="line2d_6">
      <g>
       <use xlink:href="#mb83a09e326" x="432.112182" y="302.2" style="stroke: #000000; stroke-width: 0.8"/>
      </g>
     </g>
     <g id="text_6">
      <!-- 5 -->
      <g transform="translate(428.930932 316.798437) scale(0.1 -0.1)">
       <defs>
        <path id="DejaVuSans-35" d="M 691 4666 
L 3169 4666 
L 3169 4134 
L 1269 4134 
L 1269 2991 
Q 1406 3038 1543 3061 
Q 1681 3084 1819 3084 
Q 2600 3084 3056 2656 
Q 3513 2228 3513 1497 
Q 3513 744 3044 326 
Q 2575 -91 1722 -91 
Q 1428 -91 1123 -41 
Q 819 9 494 109 
L 494 744 
Q 775 591 1075 516 
Q 1375 441 1709 441 
Q 2250 441 2565 725 
Q 2881 1009 2881 1497 
Q 2881 1984 2565 2268 
Q 2250 2553 1709 2553 
Q 1456 2553 1204 2497 
Q 953 2441 691 2322 
L 691 4666 
z
" transform="scale(0.015625)"/>
       </defs>
       <use xlink:href="#DejaVuSans-35"/>
      </g>
     </g>
    </g>
    <g id="text_7">
     <!-- $W$ (m/hour) -->
     <g transform="translate(224.784 330.476562) scale(0.1 -0.1)">
      <defs>
       <path id="DejaVuSans-Oblique-57" d="M 616 4666 
L 1228 4666 
L 1453 697 
L 3213 4666 
L 3916 4666 
L 4147 697 
L 5888 4666 
L 6528 4666 
L 4453 0 
L 3659 0 
L 3444 3891 
L 1697 0 
L 903 0 
L 616 4666 
z
" transform="scale(0.015625)"/>
       <path id="DejaVuSans-20" transform="scale(0.015625)"/>
       <path id="DejaVuSans-28" d="M 1984 4856 
Q 1566 4138 1362 3434 
Q 1159 2731 1159 2009 
Q 1159 1288 1364 580 
Q 1569 -128 1984 -844 
L 1484 -844 
Q 1016 -109 783 600 
Q 550 1309 550 2009 
Q 550 2706 781 3412 
Q 1013 4119 1484 4856 
L 1984 4856 
z
" transform="scale(0.015625)"/>
       <path id="DejaVuSans-6d" d="M 3328 2828 
Q 3544 3216 3844 3400 
Q 4144 3584 4550 3584 
Q 5097 3584 5394 3201 
Q 5691 2819 5691 2113 
L 5691 0 
L 5113 0 
L 5113 2094 
Q 5113 2597 4934 2840 
Q 4756 3084 4391 3084 
Q 3944 3084 3684 2787 
Q 3425 2491 3425 1978 
L 3425 0 
L 2847 0 
L 2847 2094 
Q 2847 2600 2669 2842 
Q 2491 3084 2119 3084 
Q 1678 3084 1418 2786 
Q 1159 2488 1159 1978 
L 1159 0 
L 581 0 
L 581 3500 
L 1159 3500 
L 1159 2956 
Q 1356 3278 1631 3431 
Q 1906 3584 2284 3584 
Q 2666 3584 2933 3390 
Q 3200 3197 3328 2828 
z
" transform="scale(0.015625)"/>
       <path id="DejaVuSans-2f" d="M 1625 4666 
L 2156 4666 
L 531 -594 
L 0 -594 
L 1625 4666 
z
" transform="scale(0.015625)"/>
       <path id="DejaVuSans-68" d="M 3513 2113 
L 3513 0 
L 2938 0 
L 2938 2094 
Q 2938 2591 2744 2837 
Q 2550 3084 2163 3084 
Q 1697 3084 1428 2787 
Q 1159 2491 1159 1978 
L 1159 0 
L 581 0 
L 581 4863 
L 1159 4863 
L 1159 2956 
Q 1366 3272 1645 3428 
Q 1925 3584 2291 3584 
Q 2894 3584 3203 3211 
Q 3513 2838 3513 2113 
z
" transform="scale(0.015625)"/>
       <path id="DejaVuSans-6f" d="M 1959 3097 
Q 1497 3097 1228 2736 
Q 959 2375 959 1747 
Q 959 1119 1226 758 
Q 1494 397 1959 397 
Q 2419 397 2687 759 
Q 2956 1122 2956 1747 
Q 2956 2369 2687 2733 
Q 2419 3097 1959 3097 
z
M 1959 3584 
Q 2709 3584 3137 3096 
Q 3566 2609 3566 1747 
Q 3566 888 3137 398 
Q 2709 -91 1959 -91 
Q 1206 -91 779 398 
Q 353 888 353 1747 
Q 353 2609 779 3096 
Q 1206 3584 1959 3584 
z
" transform="scale(0.015625)"/>
       <path id="DejaVuSans-75" d="M 544 1381 
L 544 3500 
L 1119 3500 
L 1119 1403 
Q 1119 906 1312 657 
Q 1506 409 1894 409 
Q 2359 409 2629 706 
Q 2900 1003 2900 1516 
L 2900 3500 
L 3475 3500 
L 3475 0 
L 2900 0 
L 2900 538 
Q 2691 219 2414 64 
Q 2138 -91 1772 -91 
Q 1169 -91 856 284 
Q 544 659 544 1381 
z
M 1991 3584 
L 1991 3584 
z
" transform="scale(0.015625)"/>
       <path id="DejaVuSans-72" d="M 2631 2963 
Q 2534 3019 2420 3045 
Q 2306 3072 2169 3072 
Q 1681 3072 1420 2755 
Q 1159 2438 1159 1844 
L 1159 0 
L 581 0 
L 581 3500 
L 1159 3500 
L 1159 2956 
Q 1341 3275 1631 3429 
Q 1922 3584 2338 3584 
Q 2397 3584 2469 3576 
Q 2541 3569 2628 3553 
L 2631 2963 
z
" transform="scale(0.015625)"/>
       <path id="DejaVuSans-29" d="M 513 4856 
L 1013 4856 
Q 1481 4119 1714 3412 
Q 1947 2706 1947 2009 
Q 1947 1309 1714 600 
Q 1481 -109 1013 -844 
L 513 -844 
Q 928 -128 1133 580 
Q 1338 1288 1338 2009 
Q 1338 2731 1133 3434 
Q 928 4138 513 4856 
z
" transform="scale(0.015625)"/>
      </defs>
      <use xlink:href="#DejaVuSans-Oblique-57" transform="translate(0 0.015625)"/>
      <use xlink:href="#DejaVuSans-20" transform="translate(98.876953 0.015625)"/>
      <use xlink:href="#DejaVuSans-28" transform="translate(130.664062 0.015625)"/>
      <use xlink:href="#DejaVuSans-6d" transform="translate(169.677734 0.015625)"/>
      <use xlink:href="#DejaVuSans-2f" transform="translate(267.089844 0.015625)"/>
      <use xlink:href="#DejaVuSans-68" transform="translate(300.78125 0.015625)"/>
      <use xlink:href="#DejaVuSans-6f" transform="translate(364.160156 0.015625)"/>
      <use xlink:href="#DejaVuSans-75" transform="translate(425.341797 0.015625)"/>
      <use xlink:href="#DejaVuSans-72" transform="translate(488.720703 0.015625)"/>
      <use xlink:href="#DejaVuSans-29" transform="translate(529.833984 0.015625)"/>
     </g>
    </g>
   </g>
   <g id="matplotlib.axis_2">
    <g id="ytick_1">
     <g id="line2d_7">
      <defs>
       <path id="m8bab386e28" d="M 0 0 
L -3.5 0 
" style="stroke: #000000; stroke-width: 0.8"/>
      </defs>
      <g>
       <use xlink:href="#m8bab386e28" x="56.468" y="271.014203" style="stroke: #000000; stroke-width: 0.8"/>
      </g>
     </g>
     <g id="text_8">
      <!-- 2.5 -->
      <g transform="translate(33.564875 274.813422) scale(0.1 -0.1)">
       <defs>
        <path id="DejaVuSans-2e" d="M 684 794 
L 1344 794 
L 1344 0 
L 684 0 
L 684 794 
z
" transform="scale(0.015625)"/>
       </defs>
       <use xlink:href="#DejaVuSans-32"/>
       <use xlink:href="#DejaVuSans-2e" transform="translate(63.623047 0)"/>
       <use xlink:href="#DejaVuSans-35" transform="translate(95.410156 0)"/>
      </g>
     </g>
    </g>
    <g id="ytick_2">
     <g id="line2d_8">
      <g>
       <use xlink:href="#m8bab386e28" x="56.468" y="237.836469" style="stroke: #000000; stroke-width: 0.8"/>
      </g>
     </g>
     <g id="text_9">
      <!-- 5.0 -->
      <g transform="translate(33.564875 241.635688) scale(0.1 -0.1)">
       <use xlink:href="#DejaVuSans-35"/>
       <use xlink:href="#DejaVuSans-2e" transform="translate(63.623047 0)"/>
       <use xlink:href="#DejaVuSans-30" transform="translate(95.410156 0)"/>
      </g>
     </g>
    </g>
    <g id="ytick_3">
     <g id="line2d_9">
      <g>
       <use xlink:href="#m8bab386e28" x="56.468" y="204.658735" style="stroke: #000000; stroke-width: 0.8"/>
      </g>
     </g>
     <g id="text_10">
      <!-- 7.5 -->
      <g transform="translate(33.564875 208.457953) scale(0.1 -0.1)">
       <defs>
        <path id="DejaVuSans-37" d="M 525 4666 
L 3525 4666 
L 3525 4397 
L 1831 0 
L 1172 0 
L 2766 4134 
L 525 4134 
L 525 4666 
z
" transform="scale(0.015625)"/>
       </defs>
       <use xlink:href="#DejaVuSans-37"/>
       <use xlink:href="#DejaVuSans-2e" transform="translate(63.623047 0)"/>
       <use xlink:href="#DejaVuSans-35" transform="translate(95.410156 0)"/>
      </g>
     </g>
    </g>
    <g id="ytick_4">
     <g id="line2d_10">
      <g>
       <use xlink:href="#m8bab386e28" x="56.468" y="171.481" style="stroke: #000000; stroke-width: 0.8"/>
      </g>
     </g>
     <g id="text_11">
      <!-- 10.0 -->
      <g transform="translate(27.202375 175.280219) scale(0.1 -0.1)">
       <use xlink:href="#DejaVuSans-31"/>
       <use xlink:href="#DejaVuSans-30" transform="translate(63.623047 0)"/>
       <use xlink:href="#DejaVuSans-2e" transform="translate(127.246094 0)"/>
       <use xlink:href="#DejaVuSans-30" transform="translate(159.033203 0)"/>
      </g>
     </g>
    </g>
    <g id="ytick_5">
     <g id="line2d_11">
      <g>
       <use xlink:href="#m8bab386e28" x="56.468" y="138.303266" style="stroke: #000000; stroke-width: 0.8"/>
      </g>
     </g>
     <g id="text_12">
      <!-- 12.5 -->
      <g transform="translate(27.202375 142.102485) scale(0.1 -0.1)">
       <use xlink:href="#DejaVuSans-31"/>
       <use xlink:href="#DejaVuSans-32" transform="translate(63.623047 0)"/>
       <use xlink:href="#DejaVuSans-2e" transform="translate(127.246094 0)"/>
       <use xlink:href="#DejaVuSans-35" transform="translate(159.033203 0)"/>
      </g>
     </g>
    </g>
    <g id="ytick_6">
     <g id="line2d_12">
      <g>
       <use xlink:href="#m8bab386e28" x="56.468" y="105.125532" style="stroke: #000000; stroke-width: 0.8"/>
      </g>
     </g>
     <g id="text_13">
      <!-- 15.0 -->
      <g transform="translate(27.202375 108.924751) scale(0.1 -0.1)">
       <use xlink:href="#DejaVuSans-31"/>
       <use xlink:href="#DejaVuSans-35" transform="translate(63.623047 0)"/>
       <use xlink:href="#DejaVuSans-2e" transform="translate(127.246094 0)"/>
       <use xlink:href="#DejaVuSans-30" transform="translate(159.033203 0)"/>
      </g>
     </g>
    </g>
    <g id="ytick_7">
     <g id="line2d_13">
      <g>
       <use xlink:href="#m8bab386e28" x="56.468" y="71.947797" style="stroke: #000000; stroke-width: 0.8"/>
      </g>
     </g>
     <g id="text_14">
      <!-- 17.5 -->
      <g transform="translate(27.202375 75.747016) scale(0.1 -0.1)">
       <use xlink:href="#DejaVuSans-31"/>
       <use xlink:href="#DejaVuSans-37" transform="translate(63.623047 0)"/>
       <use xlink:href="#DejaVuSans-2e" transform="translate(127.246094 0)"/>
       <use xlink:href="#DejaVuSans-35" transform="translate(159.033203 0)"/>
      </g>
     </g>
    </g>
    <g id="ytick_8">
     <g id="line2d_14">
      <g>
       <use xlink:href="#m8bab386e28" x="56.468" y="38.770063" style="stroke: #000000; stroke-width: 0.8"/>
      </g>
     </g>
     <g id="text_15">
      <!-- 20.0 -->
      <g transform="translate(27.202375 42.569282) scale(0.1 -0.1)">
       <use xlink:href="#DejaVuSans-32"/>
       <use xlink:href="#DejaVuSans-30" transform="translate(63.623047 0)"/>
       <use xlink:href="#DejaVuSans-2e" transform="translate(127.246094 0)"/>
       <use xlink:href="#DejaVuSans-30" transform="translate(159.033203 0)"/>
      </g>
     </g>
    </g>
    <g id="text_16">
     <!-- $Q_{lc}$ (kW) -->
     <g transform="translate(21.122688 176.8) rotate(-90) scale(0.1 -0.1)">
      <defs>
       <path id="DejaVuSans-Oblique-51" d="M 2309 -84 
Q 2275 -88 2237 -89 
Q 2200 -91 2125 -91 
Q 1250 -91 756 411 
Q 263 913 263 1797 
Q 263 2319 452 2844 
Q 641 3369 978 3788 
Q 1369 4269 1858 4509 
Q 2347 4750 2938 4750 
Q 3794 4750 4287 4245 
Q 4781 3741 4781 2869 
Q 4781 1928 4265 1147 
Q 3750 366 2919 44 
L 3553 -825 
L 2847 -825 
L 2309 -84 
z
M 2919 4238 
Q 2400 4238 2003 3986 
Q 1606 3734 1313 3219 
Q 1125 2891 1026 2522 
Q 928 2153 928 1778 
Q 928 1128 1239 775 
Q 1550 422 2119 422 
Q 2631 422 3032 676 
Q 3434 931 3719 1434 
Q 3909 1772 4009 2142 
Q 4109 2513 4109 2881 
Q 4109 3528 3796 3883 
Q 3484 4238 2919 4238 
z
" transform="scale(0.015625)"/>
       <path id="DejaVuSans-Oblique-6c" d="M 1172 4863 
L 1747 4863 
L 800 0 
L 225 0 
L 1172 4863 
z
" transform="scale(0.015625)"/>
       <path id="DejaVuSans-Oblique-63" d="M 3431 3366 
L 3316 2797 
Q 3109 2947 2876 3022 
Q 2644 3097 2394 3097 
Q 2119 3097 1870 3000 
Q 1622 2903 1453 2725 
Q 1184 2453 1037 2087 
Q 891 1722 891 1331 
Q 891 859 1127 628 
Q 1363 397 1844 397 
Q 2081 397 2348 469 
Q 2616 541 2906 684 
L 2797 116 
Q 2547 13 2283 -39 
Q 2019 -91 1741 -91 
Q 1044 -91 669 257 
Q 294 606 294 1253 
Q 294 1797 489 2255 
Q 684 2713 1069 3078 
Q 1331 3328 1684 3456 
Q 2038 3584 2456 3584 
Q 2700 3584 2940 3529 
Q 3181 3475 3431 3366 
z
" transform="scale(0.015625)"/>
       <path id="DejaVuSans-6b" d="M 581 4863 
L 1159 4863 
L 1159 1991 
L 2875 3500 
L 3609 3500 
L 1753 1863 
L 3688 0 
L 2938 0 
L 1159 1709 
L 1159 0 
L 581 0 
L 581 4863 
z
" transform="scale(0.015625)"/>
       <path id="DejaVuSans-57" d="M 213 4666 
L 850 4666 
L 1831 722 
L 2809 4666 
L 3519 4666 
L 4500 722 
L 5478 4666 
L 6119 4666 
L 4947 0 
L 4153 0 
L 3169 4050 
L 2175 0 
L 1381 0 
L 213 4666 
z
" transform="scale(0.015625)"/>
      </defs>
      <use xlink:href="#DejaVuSans-Oblique-51" transform="translate(0 0.015625)"/>
      <use xlink:href="#DejaVuSans-Oblique-6c" transform="translate(78.710938 -16.390625) scale(0.7)"/>
      <use xlink:href="#DejaVuSans-Oblique-63" transform="translate(98.15918 -16.390625) scale(0.7)"/>
      <use xlink:href="#DejaVuSans-20" transform="translate(139.379883 0.015625)"/>
      <use xlink:href="#DejaVuSans-28" transform="translate(171.166992 0.015625)"/>
      <use xlink:href="#DejaVuSans-6b" transform="translate(210.180664 0.015625)"/>
      <use xlink:href="#DejaVuSans-57" transform="translate(268.09082 0.015625)"/>
      <use xlink:href="#DejaVuSans-29" transform="translate(366.967773 0.015625)"/>
     </g>
    </g>
   </g>
   <g id="line2d_15">
    <path d="M 74.355818 247.309571 
L 81.656968 230.19714 
L 88.958119 216.145764 
L 96.259269 204.533587 
L 103.560419 194.80715 
L 110.86157 186.494916 
L 118.16272 179.213405 
L 125.46387 172.666294 
L 132.76502 166.637193 
L 140.066171 160.978261 
L 147.367321 155.595921 
L 154.668471 150.435987 
L 161.969622 145.470407 
L 169.270772 140.686572 
L 176.571922 136.07762 
L 183.873072 131.63693 
L 191.174223 127.355191 
L 198.475373 123.219704 
L 205.776523 119.215303 
L 213.077673 115.326091 
L 220.378824 111.537359 
L 227.679974 107.837106 
L 234.981124 104.216844 
L 242.282275 100.671572 
L 249.583425 97.199033 
L 256.884575 93.798556 
L 264.185725 90.469699 
L 271.486876 87.210707 
L 278.788026 84.018329 
L 286.089176 80.887547 
L 293.390327 77.812079 
L 300.691477 74.785365 
L 307.992627 71.801734 
L 315.293777 68.857451 
L 322.594928 65.951359 
L 329.896078 63.08487 
L 337.197228 60.261188 
L 344.498378 57.483894 
L 351.799529 54.755492 
L 359.100679 52.075209 
L 366.401829 49.437905 
L 373.70298 46.833651 
L 381.00413 44.248774 
L 388.30528 41.668864 
L 395.60643 39.083289 
L 402.907581 36.491372 
L 410.208731 33.909709 
L 417.509881 31.379896 
L 424.811032 28.975833 
L 432.112182 26.809592 
" clip-path="url(#pf1a8ab027e)" style="fill: none; stroke: #1f77b4; stroke-width: 1.5; stroke-linecap: square"/>
   </g>
   <g id="line2d_16">
    <path d="M 74.355818 251.368546 
L 81.656968 235.613748 
L 88.958119 222.680804 
L 96.259269 211.995912 
L 103.560419 203.048696 
L 110.86157 195.405524 
L 118.16272 188.710721 
L 125.46387 182.692619 
L 132.76502 177.152345 
L 140.066171 171.952642 
L 147.367321 167.007048 
L 154.668471 162.266065 
L 161.969622 157.70407 
L 169.270772 153.309061 
L 176.571922 149.074734 
L 183.873072 144.994999 
L 191.174223 141.061232 
L 198.475373 137.261753 
L 205.776523 133.582778 
L 213.077673 130.009735 
L 220.378824 126.529133 
L 227.679974 123.129957 
L 234.981124 119.80441 
L 242.282275 116.547886 
L 249.583425 113.358291 
L 256.884575 110.23492 
L 264.185725 107.177216 
L 271.486876 104.183707 
L 278.788026 101.251344 
L 286.089176 98.375485 
L 293.390327 95.550396 
L 300.691477 92.770142 
L 307.992627 90.029651 
L 315.293777 87.325144 
L 322.594928 84.655757 
L 329.896078 82.02286 
L 337.197228 79.429459 
L 344.498378 76.878945 
L 351.799529 74.373464 
L 359.100679 71.912231 
L 366.401829 69.490378 
L 373.70298 67.098661 
L 381.00413 64.724504 
L 388.30528 62.354601 
L 395.60643 59.979176 
L 402.907581 57.597679 
L 410.208731 55.225527 
L 417.509881 52.901223 
L 424.811032 50.693052 
L 432.112182 48.704459 
" clip-path="url(#pf1a8ab027e)" style="fill: none; stroke: #ff7f0e; stroke-width: 1.5; stroke-linecap: square"/>
   </g>
   <g id="line2d_17">
    <path d="M 74.355818 255.754121 
L 81.656968 241.430066 
L 88.958119 229.673146 
L 96.259269 219.96106 
L 103.560419 211.830603 
L 110.86157 204.885774 
L 118.16272 198.805238 
L 125.46387 193.340653 
L 132.76502 188.310573 
L 140.066171 183.590569 
L 147.367321 179.101914 
L 154.668471 174.799067 
L 161.969622 170.658318 
L 169.270772 166.668992 
L 176.571922 162.82532 
L 183.873072 159.121846 
L 191.174223 155.550902 
L 198.475373 152.102015 
L 205.776523 148.762632 
L 213.077673 145.519571 
L 220.378824 142.360607 
L 227.679974 139.275742 
L 234.981124 136.257868 
L 242.282275 133.302763 
L 249.583425 130.408476 
L 256.884575 127.574314 
L 264.185725 124.799774 
L 271.486876 122.083541 
L 278.788026 119.42277 
L 286.089176 116.813259 
L 293.390327 114.249786 
L 300.691477 111.726922 
L 307.992627 109.239883 
L 315.293777 106.785726 
L 322.594928 104.363687 
L 329.896078 101.974936 
L 337.197228 99.62214 
L 344.498378 97.308354 
L 351.799529 95.035476 
L 359.100679 92.802751 
L 366.401829 90.605704 
L 373.70298 88.435896 
L 381.00413 86.281874 
L 388.30528 84.131555 
L 395.60643 81.976089 
L 402.907581 79.815034 
L 410.208731 77.662463 
L 417.509881 75.553413 
L 424.811032 73.549932 
L 432.112182 71.745921 
" clip-path="url(#pf1a8ab027e)" style="fill: none; stroke: #2ca02c; stroke-width: 1.5; stroke-linecap: square"/>
   </g>
   <g id="line2d_18">
    <path d="M 74.355818 262.0866 
L 81.656968 249.770726 
L 88.958119 239.662021 
L 96.259269 231.315554 
L 103.560419 224.329103 
L 110.86157 218.364196 
L 118.16272 213.144141 
L 125.46387 208.454487 
L 132.76502 204.138669 
L 140.066171 200.089621 
L 147.367321 196.239221 
L 154.668471 192.54814 
L 161.969622 188.996134 
L 169.270772 185.573783 
L 176.571922 182.276176 
L 183.873072 179.098727 
L 191.174223 176.034977 
L 198.475373 173.076058 
L 205.776523 170.211294 
L 213.077673 167.429433 
L 220.378824 164.719998 
L 227.679974 162.074381 
L 234.981124 159.486427 
L 242.282275 156.952436 
L 249.583425 154.470649 
L 256.884575 152.0404 
L 264.185725 149.661162 
L 271.486876 147.331808 
L 278.788026 145.049984 
L 286.089176 142.811882 
L 293.390327 140.613234 
L 300.691477 138.449445 
L 307.992627 136.316569 
L 315.293777 134.212045 
L 322.594928 132.135128 
L 329.896078 130.086868 
L 337.197228 128.069573 
L 344.498378 126.085814 
L 351.799529 124.137154 
L 359.100679 122.222902 
L 366.401829 120.339168 
L 373.70298 118.478694 
L 381.00413 116.631679 
L 388.30528 114.787808 
L 395.60643 112.939561 
L 402.907581 111.086623 
L 410.208731 109.241082 
L 417.509881 107.432911 
L 424.811032 105.715092 
L 432.112182 104.1677 
" clip-path="url(#pf1a8ab027e)" style="fill: none; stroke: #d62728; stroke-width: 1.5; stroke-linecap: square"/>
   </g>
   <g id="line2d_19">
    <path d="M 74.355818 267.189155 
L 81.656968 256.452035 
L 88.958119 247.640737 
L 96.259269 240.364215 
L 103.560419 234.275226 
L 110.86157 229.0776 
L 118.16272 224.530316 
L 125.46387 220.446459 
L 132.76502 216.689209 
L 140.066171 213.164692 
L 147.367321 209.813275 
L 154.668471 206.600526 
L 161.969622 203.50872 
L 169.270772 200.529536 
L 176.571922 197.658814 
L 183.873072 194.892639 
L 191.174223 192.225474 
L 198.475373 189.649673 
L 205.776523 187.156042 
L 213.077673 184.73482 
L 220.378824 182.376827 
L 227.679974 180.074543 
L 234.981124 177.822503 
L 242.282275 175.617479 
L 249.583425 173.457894 
L 256.884575 171.34312 
L 264.185725 169.272665 
L 271.486876 167.245476 
L 278.788026 165.259511 
L 286.089176 163.311685 
L 293.390327 161.398183 
L 300.691477 159.515046 
L 307.992627 157.658875 
L 315.293777 155.827467 
L 322.594928 154.020183 
L 329.896078 152.237925 
L 337.197228 150.482677 
L 344.498378 148.75664 
L 351.799529 147.061136 
L 359.100679 145.395519 
L 366.401829 143.756403 
L 373.70298 142.137488 
L 381.00413 140.530281 
L 388.30528 138.925868 
L 395.60643 137.317768 
L 402.907581 135.705754 
L 410.208731 134.100336 
L 417.509881 132.527481 
L 424.811032 131.033022 
L 432.112182 129.686152 
" clip-path="url(#pf1a8ab027e)" style="fill: none; stroke: #9467bd; stroke-width: 1.5; stroke-linecap: square"/>
   </g>
   <g id="line2d_20">
    <path d="M 74.355818 272.589098 
L 81.656968 263.490132 
L 88.958119 256.022992 
L 96.259269 249.857305 
L 103.560419 244.69925 
L 110.86157 240.297657 
L 118.16272 236.447678 
L 125.46387 232.990807 
L 132.76502 229.810938 
L 140.066171 226.828347 
L 147.367321 223.992371 
L 154.668471 221.273749 
L 161.969622 218.657433 
L 169.270772 216.13646 
L 176.571922 213.707269 
L 183.873072 211.36658 
L 191.174223 209.109748 
L 198.475373 206.930336 
L 205.776523 204.820544 
L 213.077673 202.772108 
L 220.378824 200.777291 
L 227.679974 198.829703 
L 234.981124 196.924736 
L 242.282275 195.059577 
L 249.583425 193.232853 
L 256.884575 191.444007 
L 264.185725 189.692613 
L 271.486876 187.977776 
L 278.788026 186.297776 
L 286.089176 184.65002 
L 293.390327 183.031296 
L 300.691477 181.438279 
L 307.992627 179.868111 
L 315.293777 178.318938 
L 322.594928 176.790222 
L 329.896078 175.282724 
L 337.197228 173.798103 
L 344.498378 172.338203 
L 351.799529 170.904118 
L 359.100679 169.495274 
L 366.401829 168.1088 
L 373.70298 166.739387 
L 381.00413 165.379884 
L 388.30528 164.022801 
L 395.60643 162.66271 
L 402.907581 161.299467 
L 410.208731 159.941966 
L 417.509881 158.612099 
L 424.811032 157.348426 
L 432.112182 156.209078 
" clip-path="url(#pf1a8ab027e)" style="fill: none; stroke: #8c564b; stroke-width: 1.5; stroke-linecap: square"/>
   </g>
   <g id="line2d_21">
    <path d="M 74.355818 278.28466 
L 81.656968 270.880285 
L 88.958119 264.804657 
L 96.259269 259.789512 
L 103.560419 255.594933 
L 110.86157 252.016202 
L 118.16272 248.886576 
L 125.46387 246.07688 
L 132.76502 243.492522 
L 140.066171 241.068574 
L 147.367321 238.763861 
L 154.668471 236.554558 
L 161.969622 234.428462 
L 169.270772 232.37995 
L 176.571922 230.406153 
L 183.873072 228.504412 
L 191.174223 226.670943 
L 198.475373 224.900486 
L 205.776523 223.186668 
L 213.077673 221.522735 
L 220.378824 219.902372 
L 227.679974 218.320364 
L 234.981124 216.772955 
L 242.282275 215.257865 
L 249.583425 213.773984 
L 256.884575 212.32087 
L 264.185725 210.89819 
L 271.486876 209.505223 
L 278.788026 208.140575 
L 286.089176 206.802137 
L 293.390327 205.487296 
L 300.691477 204.193343 
L 307.992627 202.917955 
L 315.293777 201.659624 
L 322.594928 200.417916 
L 329.896078 199.193451 
L 337.197228 197.987582 
L 344.498378 196.801805 
L 351.799529 195.637005 
L 359.100679 194.492717 
L 366.401829 193.366595 
L 373.70298 192.254335 
L 381.00413 191.15012 
L 388.30528 190.047849 
L 395.60643 188.943143 
L 402.907581 187.835928 
L 410.208731 186.733483 
L 417.509881 185.653623 
L 424.811032 184.62765 
L 432.112182 183.702647 
" clip-path="url(#pf1a8ab027e)" style="fill: none; stroke: #e377c2; stroke-width: 1.5; stroke-linecap: square"/>
   </g>
   <g id="line2d_22">
    <path d="M 74.355818 286.329248 
L 81.656968 281.265803 
L 88.958119 277.115609 
L 96.259269 273.69318 
L 103.560419 270.832929 
L 110.86157 268.393705 
L 118.16272 266.260825 
L 125.46387 264.345667 
L 132.76502 262.583591 
L 140.066171 260.930443 
L 147.367321 259.358369 
L 154.668471 257.851408 
L 161.969622 256.401506 
L 169.270772 255.004975 
L 176.571922 253.65988 
L 183.873072 252.364328 
L 191.174223 251.11558 
L 198.475373 249.909859 
L 205.776523 248.742641 
L 213.077673 247.609184 
L 220.378824 246.505112 
L 227.679974 245.426875 
L 234.981124 244.371983 
L 242.282275 243.338993 
L 249.583425 242.327278 
L 256.884575 241.336658 
L 264.185725 240.366985 
L 271.486876 239.417805 
L 278.788026 238.488149 
L 286.089176 237.576519 
L 293.390327 236.681053 
L 300.691477 235.799814 
L 307.992627 234.931149 
L 315.293777 234.073995 
L 322.594928 233.228061 
L 329.896078 232.39381 
L 337.197228 231.572228 
L 344.498378 230.764397 
L 351.799529 229.970961 
L 359.100679 229.1916 
L 366.401829 228.424663 
L 373.70298 227.667095 
L 381.00413 226.914811 
L 388.30528 226.163553 
L 395.60643 225.410277 
L 402.907581 224.654977 
L 410.208731 223.902796 
L 417.509881 223.166221 
L 424.811032 222.467069 
L 432.112182 221.838004 
" clip-path="url(#pf1a8ab027e)" style="fill: none; stroke: #7f7f7f; stroke-width: 1.5; stroke-linecap: square"/>
   </g>
   <g id="patch_3">
    <path d="M 56.468 302.2 
L 56.468 10.8 
" style="fill: none; stroke: #000000; stroke-width: 0.8; stroke-linejoin: miter; stroke-linecap: square"/>
   </g>
   <g id="patch_4">
    <path d="M 450 302.2 
L 450 10.8 
" style="fill: none; stroke: #000000; stroke-width: 0.8; stroke-linejoin: miter; stroke-linecap: square"/>
   </g>
   <g id="patch_5">
    <path d="M 56.468 302.2 
L 450 302.2 
" style="fill: none; stroke: #000000; stroke-width: 0.8; stroke-linejoin: miter; stroke-linecap: square"/>
   </g>
   <g id="patch_6">
    <path d="M 56.468 10.8 
L 450 10.8 
" style="fill: none; stroke: #000000; stroke-width: 0.8; stroke-linejoin: miter; stroke-linecap: square"/>
   </g>
   <g id="legend_1">
    <g id="patch_7">
     <path d="M 63.468 150.903125 
L 162.302375 150.903125 
Q 164.302375 150.903125 164.302375 148.903125 
L 164.302375 17.8 
Q 164.302375 15.8 162.302375 15.8 
L 63.468 15.8 
Q 61.468 15.8 61.468 17.8 
L 61.468 148.903125 
Q 61.468 150.903125 63.468 150.903125 
z
" style="fill: #ffffff; opacity: 0.8; stroke: #cccccc; stroke-linejoin: miter"/>
    </g>
    <g id="line2d_23">
     <path d="M 65.468 23.898438 
L 75.468 23.898438 
L 85.468 23.898438 
" style="fill: none; stroke: #1f77b4; stroke-width: 1.5; stroke-linecap: square"/>
    </g>
    <g id="text_17">
     <!-- Ts=80 K -->
     <g transform="translate(93.468 27.398438) scale(0.1 -0.1)">
      <defs>
       <path id="DejaVuSans-54" d="M -19 4666 
L 3928 4666 
L 3928 4134 
L 2272 4134 
L 2272 0 
L 1638 0 
L 1638 4134 
L -19 4134 
L -19 4666 
z
" transform="scale(0.015625)"/>
       <path id="DejaVuSans-73" d="M 2834 3397 
L 2834 2853 
Q 2591 2978 2328 3040 
Q 2066 3103 1784 3103 
Q 1356 3103 1142 2972 
Q 928 2841 928 2578 
Q 928 2378 1081 2264 
Q 1234 2150 1697 2047 
L 1894 2003 
Q 2506 1872 2764 1633 
Q 3022 1394 3022 966 
Q 3022 478 2636 193 
Q 2250 -91 1575 -91 
Q 1294 -91 989 -36 
Q 684 19 347 128 
L 347 722 
Q 666 556 975 473 
Q 1284 391 1588 391 
Q 1994 391 2212 530 
Q 2431 669 2431 922 
Q 2431 1156 2273 1281 
Q 2116 1406 1581 1522 
L 1381 1569 
Q 847 1681 609 1914 
Q 372 2147 372 2553 
Q 372 3047 722 3315 
Q 1072 3584 1716 3584 
Q 2034 3584 2315 3537 
Q 2597 3491 2834 3397 
z
" transform="scale(0.015625)"/>
       <path id="DejaVuSans-3d" d="M 678 2906 
L 4684 2906 
L 4684 2381 
L 678 2381 
L 678 2906 
z
M 678 1631 
L 4684 1631 
L 4684 1100 
L 678 1100 
L 678 1631 
z
" transform="scale(0.015625)"/>
       <path id="DejaVuSans-38" d="M 2034 2216 
Q 1584 2216 1326 1975 
Q 1069 1734 1069 1313 
Q 1069 891 1326 650 
Q 1584 409 2034 409 
Q 2484 409 2743 651 
Q 3003 894 3003 1313 
Q 3003 1734 2745 1975 
Q 2488 2216 2034 2216 
z
M 1403 2484 
Q 997 2584 770 2862 
Q 544 3141 544 3541 
Q 544 4100 942 4425 
Q 1341 4750 2034 4750 
Q 2731 4750 3128 4425 
Q 3525 4100 3525 3541 
Q 3525 3141 3298 2862 
Q 3072 2584 2669 2484 
Q 3125 2378 3379 2068 
Q 3634 1759 3634 1313 
Q 3634 634 3220 271 
Q 2806 -91 2034 -91 
Q 1263 -91 848 271 
Q 434 634 434 1313 
Q 434 1759 690 2068 
Q 947 2378 1403 2484 
z
M 1172 3481 
Q 1172 3119 1398 2916 
Q 1625 2713 2034 2713 
Q 2441 2713 2670 2916 
Q 2900 3119 2900 3481 
Q 2900 3844 2670 4047 
Q 2441 4250 2034 4250 
Q 1625 4250 1398 4047 
Q 1172 3844 1172 3481 
z
" transform="scale(0.015625)"/>
       <path id="DejaVuSans-4b" d="M 628 4666 
L 1259 4666 
L 1259 2694 
L 3353 4666 
L 4166 4666 
L 1850 2491 
L 4331 0 
L 3500 0 
L 1259 2247 
L 1259 0 
L 628 0 
L 628 4666 
z
" transform="scale(0.015625)"/>
      </defs>
      <use xlink:href="#DejaVuSans-54"/>
      <use xlink:href="#DejaVuSans-73" transform="translate(44.583984 0)"/>
      <use xlink:href="#DejaVuSans-3d" transform="translate(96.683594 0)"/>
      <use xlink:href="#DejaVuSans-38" transform="translate(180.472656 0)"/>
      <use xlink:href="#DejaVuSans-30" transform="translate(244.095703 0)"/>
      <use xlink:href="#DejaVuSans-20" transform="translate(307.71875 0)"/>
      <use xlink:href="#DejaVuSans-4b" transform="translate(339.505859 0)"/>
     </g>
    </g>
    <g id="line2d_24">
     <path d="M 65.468 38.576563 
L 75.468 38.576563 
L 85.468 38.576563 
" style="fill: none; stroke: #ff7f0e; stroke-width: 1.5; stroke-linecap: square"/>
    </g>
    <g id="text_18">
     <!-- Ts=100 K -->
     <g transform="translate(93.468 42.076563) scale(0.1 -0.1)">
      <use xlink:href="#DejaVuSans-54"/>
      <use xlink:href="#DejaVuSans-73" transform="translate(44.583984 0)"/>
      <use xlink:href="#DejaVuSans-3d" transform="translate(96.683594 0)"/>
      <use xlink:href="#DejaVuSans-31" transform="translate(180.472656 0)"/>
      <use xlink:href="#DejaVuSans-30" transform="translate(244.095703 0)"/>
      <use xlink:href="#DejaVuSans-30" transform="translate(307.71875 0)"/>
      <use xlink:href="#DejaVuSans-20" transform="translate(371.341797 0)"/>
      <use xlink:href="#DejaVuSans-4b" transform="translate(403.128906 0)"/>
     </g>
    </g>
    <g id="line2d_25">
     <path d="M 65.468 53.254687 
L 75.468 53.254687 
L 85.468 53.254687 
" style="fill: none; stroke: #2ca02c; stroke-width: 1.5; stroke-linecap: square"/>
    </g>
    <g id="text_19">
     <!-- Ts=120 K -->
     <g transform="translate(93.468 56.754687) scale(0.1 -0.1)">
      <use xlink:href="#DejaVuSans-54"/>
      <use xlink:href="#DejaVuSans-73" transform="translate(44.583984 0)"/>
      <use xlink:href="#DejaVuSans-3d" transform="translate(96.683594 0)"/>
      <use xlink:href="#DejaVuSans-31" transform="translate(180.472656 0)"/>
      <use xlink:href="#DejaVuSans-32" transform="translate(244.095703 0)"/>
      <use xlink:href="#DejaVuSans-30" transform="translate(307.71875 0)"/>
      <use xlink:href="#DejaVuSans-20" transform="translate(371.341797 0)"/>
      <use xlink:href="#DejaVuSans-4b" transform="translate(403.128906 0)"/>
     </g>
    </g>
    <g id="line2d_26">
     <path d="M 65.468 67.932813 
L 75.468 67.932813 
L 85.468 67.932813 
" style="fill: none; stroke: #d62728; stroke-width: 1.5; stroke-linecap: square"/>
    </g>
    <g id="text_20">
     <!-- Ts=140 K -->
     <g transform="translate(93.468 71.432813) scale(0.1 -0.1)">
      <use xlink:href="#DejaVuSans-54"/>
      <use xlink:href="#DejaVuSans-73" transform="translate(44.583984 0)"/>
      <use xlink:href="#DejaVuSans-3d" transform="translate(96.683594 0)"/>
      <use xlink:href="#DejaVuSans-31" transform="translate(180.472656 0)"/>
      <use xlink:href="#DejaVuSans-34" transform="translate(244.095703 0)"/>
      <use xlink:href="#DejaVuSans-30" transform="translate(307.71875 0)"/>
      <use xlink:href="#DejaVuSans-20" transform="translate(371.341797 0)"/>
      <use xlink:href="#DejaVuSans-4b" transform="translate(403.128906 0)"/>
     </g>
    </g>
    <g id="line2d_27">
     <path d="M 65.468 82.610938 
L 75.468 82.610938 
L 85.468 82.610938 
" style="fill: none; stroke: #9467bd; stroke-width: 1.5; stroke-linecap: square"/>
    </g>
    <g id="text_21">
     <!-- Ts=160 K -->
     <g transform="translate(93.468 86.110938) scale(0.1 -0.1)">
      <defs>
       <path id="DejaVuSans-36" d="M 2113 2584 
Q 1688 2584 1439 2293 
Q 1191 2003 1191 1497 
Q 1191 994 1439 701 
Q 1688 409 2113 409 
Q 2538 409 2786 701 
Q 3034 994 3034 1497 
Q 3034 2003 2786 2293 
Q 2538 2584 2113 2584 
z
M 3366 4563 
L 3366 3988 
Q 3128 4100 2886 4159 
Q 2644 4219 2406 4219 
Q 1781 4219 1451 3797 
Q 1122 3375 1075 2522 
Q 1259 2794 1537 2939 
Q 1816 3084 2150 3084 
Q 2853 3084 3261 2657 
Q 3669 2231 3669 1497 
Q 3669 778 3244 343 
Q 2819 -91 2113 -91 
Q 1303 -91 875 529 
Q 447 1150 447 2328 
Q 447 3434 972 4092 
Q 1497 4750 2381 4750 
Q 2619 4750 2861 4703 
Q 3103 4656 3366 4563 
z
" transform="scale(0.015625)"/>
      </defs>
      <use xlink:href="#DejaVuSans-54"/>
      <use xlink:href="#DejaVuSans-73" transform="translate(44.583984 0)"/>
      <use xlink:href="#DejaVuSans-3d" transform="translate(96.683594 0)"/>
      <use xlink:href="#DejaVuSans-31" transform="translate(180.472656 0)"/>
      <use xlink:href="#DejaVuSans-36" transform="translate(244.095703 0)"/>
      <use xlink:href="#DejaVuSans-30" transform="translate(307.71875 0)"/>
      <use xlink:href="#DejaVuSans-20" transform="translate(371.341797 0)"/>
      <use xlink:href="#DejaVuSans-4b" transform="translate(403.128906 0)"/>
     </g>
    </g>
    <g id="line2d_28">
     <path d="M 65.468 97.289062 
L 75.468 97.289062 
L 85.468 97.289062 
" style="fill: none; stroke: #8c564b; stroke-width: 1.5; stroke-linecap: square"/>
    </g>
    <g id="text_22">
     <!-- Ts=180 K -->
     <g transform="translate(93.468 100.789062) scale(0.1 -0.1)">
      <use xlink:href="#DejaVuSans-54"/>
      <use xlink:href="#DejaVuSans-73" transform="translate(44.583984 0)"/>
      <use xlink:href="#DejaVuSans-3d" transform="translate(96.683594 0)"/>
      <use xlink:href="#DejaVuSans-31" transform="translate(180.472656 0)"/>
      <use xlink:href="#DejaVuSans-38" transform="translate(244.095703 0)"/>
      <use xlink:href="#DejaVuSans-30" transform="translate(307.71875 0)"/>
      <use xlink:href="#DejaVuSans-20" transform="translate(371.341797 0)"/>
      <use xlink:href="#DejaVuSans-4b" transform="translate(403.128906 0)"/>
     </g>
    </g>
    <g id="line2d_29">
     <path d="M 65.468 111.967187 
L 75.468 111.967187 
L 85.468 111.967187 
" style="fill: none; stroke: #e377c2; stroke-width: 1.5; stroke-linecap: square"/>
    </g>
    <g id="text_23">
     <!-- Ts=200 K -->
     <g transform="translate(93.468 115.467187) scale(0.1 -0.1)">
      <use xlink:href="#DejaVuSans-54"/>
      <use xlink:href="#DejaVuSans-73" transform="translate(44.583984 0)"/>
      <use xlink:href="#DejaVuSans-3d" transform="translate(96.683594 0)"/>
      <use xlink:href="#DejaVuSans-32" transform="translate(180.472656 0)"/>
      <use xlink:href="#DejaVuSans-30" transform="translate(244.095703 0)"/>
      <use xlink:href="#DejaVuSans-30" transform="translate(307.71875 0)"/>
      <use xlink:href="#DejaVuSans-20" transform="translate(371.341797 0)"/>
      <use xlink:href="#DejaVuSans-4b" transform="translate(403.128906 0)"/>
     </g>
    </g>
    <g id="line2d_30">
     <path d="M 65.468 126.645312 
L 75.468 126.645312 
L 85.468 126.645312 
" style="fill: none; stroke: #7f7f7f; stroke-width: 1.5; stroke-linecap: square"/>
    </g>
    <g id="text_24">
     <!-- Ts=220 K -->
     <g transform="translate(93.468 130.145312) scale(0.1 -0.1)">
      <use xlink:href="#DejaVuSans-54"/>
      <use xlink:href="#DejaVuSans-73" transform="translate(44.583984 0)"/>
      <use xlink:href="#DejaVuSans-3d" transform="translate(96.683594 0)"/>
      <use xlink:href="#DejaVuSans-32" transform="translate(180.472656 0)"/>
      <use xlink:href="#DejaVuSans-32" transform="translate(244.095703 0)"/>
      <use xlink:href="#DejaVuSans-30" transform="translate(307.71875 0)"/>
      <use xlink:href="#DejaVuSans-20" transform="translate(371.341797 0)"/>
      <use xlink:href="#DejaVuSans-4b" transform="translate(403.128906 0)"/>
     </g>
    </g>
    <g id="PathCollection_9">
     <g>
      <use xlink:href="#m856ddb756c" x="75.468" y="142.198437" style="fill-opacity: 0.7; stroke: #000000; stroke-opacity: 0.7"/>
     </g>
    </g>
    <g id="text_25">
     <!-- Artificial data -->
     <g transform="translate(93.468 144.823437) scale(0.1 -0.1)">
      <defs>
       <path id="DejaVuSans-41" d="M 2188 4044 
L 1331 1722 
L 3047 1722 
L 2188 4044 
z
M 1831 4666 
L 2547 4666 
L 4325 0 
L 3669 0 
L 3244 1197 
L 1141 1197 
L 716 0 
L 50 0 
L 1831 4666 
z
" transform="scale(0.015625)"/>
       <path id="DejaVuSans-74" d="M 1172 4494 
L 1172 3500 
L 2356 3500 
L 2356 3053 
L 1172 3053 
L 1172 1153 
Q 1172 725 1289 603 
Q 1406 481 1766 481 
L 2356 481 
L 2356 0 
L 1766 0 
Q 1100 0 847 248 
Q 594 497 594 1153 
L 594 3053 
L 172 3053 
L 172 3500 
L 594 3500 
L 594 4494 
L 1172 4494 
z
" transform="scale(0.015625)"/>
       <path id="DejaVuSans-69" d="M 603 3500 
L 1178 3500 
L 1178 0 
L 603 0 
L 603 3500 
z
M 603 4863 
L 1178 4863 
L 1178 4134 
L 603 4134 
L 603 4863 
z
" transform="scale(0.015625)"/>
       <path id="DejaVuSans-66" d="M 2375 4863 
L 2375 4384 
L 1825 4384 
Q 1516 4384 1395 4259 
Q 1275 4134 1275 3809 
L 1275 3500 
L 2222 3500 
L 2222 3053 
L 1275 3053 
L 1275 0 
L 697 0 
L 697 3053 
L 147 3053 
L 147 3500 
L 697 3500 
L 697 3744 
Q 697 4328 969 4595 
Q 1241 4863 1831 4863 
L 2375 4863 
z
" transform="scale(0.015625)"/>
       <path id="DejaVuSans-63" d="M 3122 3366 
L 3122 2828 
Q 2878 2963 2633 3030 
Q 2388 3097 2138 3097 
Q 1578 3097 1268 2742 
Q 959 2388 959 1747 
Q 959 1106 1268 751 
Q 1578 397 2138 397 
Q 2388 397 2633 464 
Q 2878 531 3122 666 
L 3122 134 
Q 2881 22 2623 -34 
Q 2366 -91 2075 -91 
Q 1284 -91 818 406 
Q 353 903 353 1747 
Q 353 2603 823 3093 
Q 1294 3584 2113 3584 
Q 2378 3584 2631 3529 
Q 2884 3475 3122 3366 
z
" transform="scale(0.015625)"/>
       <path id="DejaVuSans-61" d="M 2194 1759 
Q 1497 1759 1228 1600 
Q 959 1441 959 1056 
Q 959 750 1161 570 
Q 1363 391 1709 391 
Q 2188 391 2477 730 
Q 2766 1069 2766 1631 
L 2766 1759 
L 2194 1759 
z
M 3341 1997 
L 3341 0 
L 2766 0 
L 2766 531 
Q 2569 213 2275 61 
Q 1981 -91 1556 -91 
Q 1019 -91 701 211 
Q 384 513 384 1019 
Q 384 1609 779 1909 
Q 1175 2209 1959 2209 
L 2766 2209 
L 2766 2266 
Q 2766 2663 2505 2880 
Q 2244 3097 1772 3097 
Q 1472 3097 1187 3025 
Q 903 2953 641 2809 
L 641 3341 
Q 956 3463 1253 3523 
Q 1550 3584 1831 3584 
Q 2591 3584 2966 3190 
Q 3341 2797 3341 1997 
z
" transform="scale(0.015625)"/>
       <path id="DejaVuSans-6c" d="M 603 4863 
L 1178 4863 
L 1178 0 
L 603 0 
L 603 4863 
z
" transform="scale(0.015625)"/>
       <path id="DejaVuSans-64" d="M 2906 2969 
L 2906 4863 
L 3481 4863 
L 3481 0 
L 2906 0 
L 2906 525 
Q 2725 213 2448 61 
Q 2172 -91 1784 -91 
Q 1150 -91 751 415 
Q 353 922 353 1747 
Q 353 2572 751 3078 
Q 1150 3584 1784 3584 
Q 2172 3584 2448 3432 
Q 2725 3281 2906 2969 
z
M 947 1747 
Q 947 1113 1208 752 
Q 1469 391 1925 391 
Q 2381 391 2643 752 
Q 2906 1113 2906 1747 
Q 2906 2381 2643 2742 
Q 2381 3103 1925 3103 
Q 1469 3103 1208 2742 
Q 947 2381 947 1747 
z
" transform="scale(0.015625)"/>
      </defs>
      <use xlink:href="#DejaVuSans-41"/>
      <use xlink:href="#DejaVuSans-72" transform="translate(68.408203 0)"/>
      <use xlink:href="#DejaVuSans-74" transform="translate(109.521484 0)"/>
      <use xlink:href="#DejaVuSans-69" transform="translate(148.730469 0)"/>
      <use xlink:href="#DejaVuSans-66" transform="translate(176.513672 0)"/>
      <use xlink:href="#DejaVuSans-69" transform="translate(211.71875 0)"/>
      <use xlink:href="#DejaVuSans-63" transform="translate(239.501953 0)"/>
      <use xlink:href="#DejaVuSans-69" transform="translate(294.482422 0)"/>
      <use xlink:href="#DejaVuSans-61" transform="translate(322.265625 0)"/>
      <use xlink:href="#DejaVuSans-6c" transform="translate(383.544922 0)"/>
      <use xlink:href="#DejaVuSans-20" transform="translate(411.328125 0)"/>
      <use xlink:href="#DejaVuSans-64" transform="translate(443.115234 0)"/>
      <use xlink:href="#DejaVuSans-61" transform="translate(506.591797 0)"/>
      <use xlink:href="#DejaVuSans-74" transform="translate(567.871094 0)"/>
      <use xlink:href="#DejaVuSans-61" transform="translate(607.080078 0)"/>
     </g>
    </g>
   </g>
  </g>
 </g>
 <defs>
  <clipPath id="pf1a8ab027e">
   <rect x="56.468" y="10.8" width="393.532" height="291.4"/>
  </clipPath>
 </defs>
</svg>
