<?xml version="1.0" encoding="utf-8" standalone="no"?>
<!DOCTYPE svg PUBLIC "-//W3C//DTD SVG 1.1//EN"
  "http://www.w3.org/Graphics/SVG/1.1/DTD/svg11.dtd">
<svg xmlns:xlink="http://www.w3.org/1999/xlink" width="460.8pt" height="345.6pt" viewBox="0 0 460.8 345.6" xmlns="http://www.w3.org/2000/svg" version="1.1">
 <metadata>
  <rdf:RDF xmlns:dc="http://purl.org/dc/elements/1.1/" xmlns:cc="http://creativecommons.org/ns#" xmlns:rdf="http://www.w3.org/1999/02/22-rdf-syntax-ns#">
   <cc:Work>
    <dc:type rdf:resource="http://purl.org/dc/dcmitype/StillImage"/>
    <dc:date>2026-02-12T04:34:44.126107</dc:date>
    <dc:format>image/svg+xml</dc:format>
    <dc:creator>
     <cc:Agent>
      <dc:title>Matplotlib v3.10.8, https://matplotlib.org/</dc:title>
     </cc:Agent>
    </dc:creator>
   </cc:Work>
  </rdf:RDF>
 </metadata>
 <defs>
  <style type="text/css">*{stroke-linejoin: round; stroke-linecap: butt}</style>
 </defs>
 <g id="figure_1">
  <g id="patch_1">
   <path d="M 0 345.6 
L 460.8 345.6 
L 460.8 0 
L 0 0 
L 0 345.6 
z
" style="fill: none"/>
  </g>
  <g id="axes_1">
   <g id="patch_2">
    <path d="M 47.018 302.2 
L 450 302.2 
L 450 10.8 
L 47.018 10.8 
L 47.018 302.2 
z
" style="fill: none"/>
   </g>
   <g id="FillBetweenPolyCollection_1">
    <path d="M 65.335364 201.918013 
L 65.335364 205.977082 
L 72.811839 192.450256 
L 80.288314 180.7039 
L 87.764788 170.314956 
L 95.241263 161.497633 
L 102.717738 154.395281 
L 110.194213 149.077183 
L 117.670688 143.795474 
L 125.147163 139.239247 
L 132.623638 134.028996 
L 140.100113 129.922886 
L 147.576588 126.367379 
L 155.053063 122.452502 
L 162.529538 118.445989 
L 170.006013 114.199592 
L 177.482488 110.544757 
L 184.958963 107.747619 
L 192.435438 104.305987 
L 199.911913 101.293602 
L 207.388388 97.551957 
L 214.864863 94.904477 
L 222.341338 92.34861 
L 229.817813 89.409528 
L 237.294288 86.416666 
L 244.770763 83.296979 
L 252.247237 80.842673 
L 259.723712 78.549206 
L 267.200187 76.055281 
L 274.676662 73.298931 
L 282.153137 70.624755 
L 289.629612 68.230936 
L 297.106087 66.445172 
L 304.582562 63.985215 
L 312.059037 61.472562 
L 319.535512 58.742708 
L 327.011987 56.784057 
L 334.488462 54.940091 
L 341.964937 52.867519 
L 349.441412 50.471345 
L 356.917887 47.84705 
L 364.394362 46.073387 
L 371.870837 44.655404 
L 379.347312 42.702995 
L 386.823787 40.168278 
L 394.300262 37.868566 
L 401.776737 36.235462 
L 409.253212 34.642789 
L 416.729686 32.729154 
L 424.206161 30.826991 
L 431.682636 28.332306 
L 431.682636 24.045455 
L 431.682636 24.045455 
L 424.206161 25.369697 
L 416.729686 27.13643 
L 409.253212 29.069506 
L 401.776737 31.364043 
L 394.300262 33.880944 
L 386.823787 35.253674 
L 379.347312 37.193491 
L 371.870837 39.061696 
L 364.394362 41.550208 
L 356.917887 44.091474 
L 349.441412 45.546967 
L 341.964937 47.539275 
L 334.488462 49.547273 
L 327.011987 52.164994 
L 319.535512 54.782788 
L 312.059037 56.482645 
L 304.582562 58.748772 
L 297.106087 61.032619 
L 289.629612 63.947019 
L 282.153137 66.417159 
L 274.676662 68.370161 
L 267.200187 70.638549 
L 259.723712 73.226065 
L 252.247237 76.285912 
L 244.770763 79.249295 
L 237.294288 81.639954 
L 229.817813 84.126323 
L 222.341338 87.173869 
L 214.864863 90.539199 
L 207.388388 93.595598 
L 199.911913 96.207126 
L 192.435438 99.083434 
L 184.958963 102.510957 
L 177.482488 106.195642 
L 170.006013 109.983078 
L 162.529538 113.323861 
L 155.053063 116.675663 
L 147.576588 121.054836 
L 140.100113 125.430741 
L 132.623638 129.737654 
L 125.147163 133.875011 
L 117.670688 138.159515 
L 110.194213 143.859095 
L 102.717738 150.100587 
L 95.241263 157.20353 
L 87.764788 165.182444 
L 80.288314 175.115234 
L 72.811839 187.208325 
L 65.335364 201.918013 
z
" clip-path="url(#pba4269ee20)" style="fill: #1f77b4; fill-opacity: 0.45"/>
   </g>
   <g id="FillBetweenPolyCollection_2">
    <path d="M 65.335364 238.094648 
L 65.335364 241.342416 
L 72.811839 234.64761 
L 80.288314 228.448385 
L 87.764788 222.790744 
L 95.241263 218.013055 
L 102.717738 214.275715 
L 110.194213 211.627644 
L 117.670688 208.625826 
L 125.147163 205.990561 
L 132.623638 203.034232 
L 140.100113 200.766329 
L 147.576588 199.012779 
L 155.053063 196.984771 
L 162.529538 194.710195 
L 170.006013 192.146753 
L 177.482488 190.28085 
L 184.958963 188.85347 
L 192.435438 187.307929 
L 199.911913 185.485589 
L 207.388388 183.077716 
L 214.864863 181.856558 
L 222.341338 180.804621 
L 229.817813 179.151659 
L 237.294288 177.39668 
L 244.770763 175.124649 
L 252.247237 174.041535 
L 259.723712 173.101724 
L 267.200187 171.779287 
L 274.676662 170.126103 
L 282.153137 168.258488 
L 289.629612 167.265969 
L 297.106087 166.39664 
L 304.582562 164.946821 
L 312.059037 163.666648 
L 319.535512 161.677982 
L 327.011987 161.028787 
L 334.488462 160.241689 
L 341.964937 159.31854 
L 349.441412 157.524675 
L 356.917887 155.705208 
L 364.394362 155.26503 
L 371.870837 154.366188 
L 379.347312 153.30486 
L 386.823787 151.769819 
L 394.300262 150.112473 
L 401.776737 149.820987 
L 409.253212 149.169315 
L 416.729686 148.158939 
L 424.206161 146.915915 
L 431.682636 144.956091 
L 431.682636 141.495117 
L 431.682636 141.495117 
L 424.206161 141.58122 
L 416.729686 142.098403 
L 409.253212 143.425117 
L 401.776737 144.77214 
L 394.300262 146.786664 
L 386.823787 147.254204 
L 379.347312 147.817087 
L 371.870837 149.116914 
L 364.394362 150.587539 
L 356.917887 152.256784 
L 349.441412 152.912329 
L 341.964937 153.671811 
L 334.488462 155.129751 
L 327.011987 156.633545 
L 319.535512 158.250249 
L 312.059037 159.030654 
L 304.582562 159.789266 
L 297.106087 161.092327 
L 289.629612 162.983989 
L 282.153137 164.638449 
L 274.676662 165.415539 
L 267.200187 166.524183 
L 259.723712 167.977055 
L 252.247237 169.695653 
L 244.770763 171.653029 
L 237.294288 172.314018 
L 229.817813 173.899666 
L 222.341338 175.645302 
L 214.864863 177.60548 
L 207.388388 179.578742 
L 199.911913 180.565982 
L 192.435438 181.591379 
L 184.958963 183.879394 
L 177.482488 186.28348 
L 170.006013 188.45307 
L 162.529538 189.743383 
L 155.053063 191.304759 
L 147.576588 193.986545 
L 140.100113 196.738934 
L 132.623638 199.28394 
L 125.147163 201.035479 
L 117.670688 203.440743 
L 110.194213 206.349458 
L 102.717738 210.387694 
L 95.241263 214.06647 
L 87.764788 217.978774 
L 80.288314 223.015103 
L 72.811839 229.556001 
L 65.335364 238.094648 
z
" clip-path="url(#pba4269ee20)" style="fill: #ff7f0e; fill-opacity: 0.45"/>
   </g>
   <g id="FillBetweenPolyCollection_3">
    <path d="M 65.335364 256.511538 
L 65.335364 263.308812 
L 72.811839 260.16024 
L 80.288314 257.934171 
L 87.764788 255.351552 
L 95.241263 253.506301 
L 102.717738 252.285416 
L 110.194213 251.233701 
L 117.670688 250.335977 
L 125.147163 249.025894 
L 132.623638 247.567367 
L 140.100113 246.870695 
L 147.576588 246.185762 
L 155.053063 245.373463 
L 162.529538 244.78985 
L 170.006013 243.538973 
L 177.482488 242.518252 
L 184.958963 242.042311 
L 192.435438 241.575568 
L 199.911913 240.770282 
L 207.388388 239.826034 
L 214.864863 239.4782 
L 222.341338 239.12171 
L 229.817813 238.305447 
L 237.294288 237.536392 
L 244.770763 236.903385 
L 252.247237 236.536836 
L 259.723712 235.852278 
L 267.200187 235.550329 
L 274.676662 234.72053 
L 282.153137 233.836112 
L 289.629612 233.300455 
L 297.106087 233.277436 
L 304.582562 232.467827 
L 312.059037 232.101442 
L 319.535512 231.638292 
L 327.011987 230.846905 
L 334.488462 230.995228 
L 341.964937 230.495059 
L 349.441412 229.41683 
L 356.917887 228.941589 
L 364.394362 228.840669 
L 371.870837 228.412037 
L 379.347312 227.972445 
L 386.823787 227.42698 
L 394.300262 226.855343 
L 401.776737 226.525612 
L 409.253212 226.280863 
L 416.729686 225.964986 
L 424.206161 225.444484 
L 431.682636 225.042453 
L 431.682636 218.13049 
L 431.682636 218.13049 
L 424.206161 218.590938 
L 416.729686 218.919155 
L 409.253212 219.269618 
L 401.776737 220.007738 
L 394.300262 220.352227 
L 386.823787 220.746013 
L 379.347312 221.169474 
L 371.870837 221.677155 
L 364.394362 222.136691 
L 356.917887 222.608 
L 349.441412 222.96972 
L 341.964937 223.368005 
L 334.488462 223.900947 
L 327.011987 224.521971 
L 319.535512 225.065277 
L 312.059037 225.539206 
L 304.582562 226.120235 
L 297.106087 226.470992 
L 289.629612 226.858033 
L 282.153137 227.673727 
L 274.676662 227.713496 
L 267.200187 228.360678 
L 259.723712 228.94237 
L 252.247237 229.651781 
L 244.770763 230.414515 
L 237.294288 231.024532 
L 229.817813 231.510642 
L 222.341338 232.186975 
L 214.864863 233.04813 
L 207.388388 233.480162 
L 199.911913 233.79965 
L 192.435438 234.65566 
L 184.958963 235.28317 
L 177.482488 236.660076 
L 170.006013 237.102921 
L 162.529538 237.76057 
L 155.053063 238.240638 
L 147.576588 239.386699 
L 140.100113 240.397175 
L 132.623638 241.42134 
L 125.147163 242.136767 
L 117.670688 243.126103 
L 110.194213 244.342283 
L 102.717738 246.063467 
L 95.241263 247.293709 
L 87.764788 248.744388 
L 80.288314 250.689768 
L 72.811839 253.373356 
L 65.335364 256.511538 
z
" clip-path="url(#pba4269ee20)" style="fill: #2ca02c; fill-opacity: 0.45"/>
   </g>
   <g id="FillBetweenPolyCollection_4">
    <path d="M 65.335364 248.742838 
L 65.335364 288.954545 
L 72.811839 288.945085 
L 80.288314 286.333205 
L 87.764788 283.890773 
L 95.241263 283.938765 
L 102.717738 285.432366 
L 110.194213 284.474573 
L 117.670688 282.77602 
L 125.147163 283.649084 
L 132.623638 281.755391 
L 140.100113 283.440299 
L 147.576588 283.644186 
L 155.053063 283.687571 
L 162.529538 283.265903 
L 170.006013 284.377613 
L 177.482488 283.644097 
L 184.958963 282.945765 
L 192.435438 284.953817 
L 199.911913 282.90987 
L 207.388388 284.15972 
L 214.864863 284.536106 
L 222.341338 283.415061 
L 229.817813 284.591575 
L 237.294288 284.339999 
L 244.770763 284.353941 
L 252.247237 284.351842 
L 259.723712 284.520991 
L 267.200187 284.916792 
L 274.676662 283.474425 
L 282.153137 284.162145 
L 289.629612 283.029435 
L 297.106087 282.734096 
L 304.582562 284.203205 
L 312.059037 282.71852 
L 319.535512 283.532004 
L 327.011987 283.903289 
L 334.488462 282.150044 
L 341.964937 283.774941 
L 349.441412 282.818424 
L 356.917887 284.055228 
L 364.394362 283.615119 
L 371.870837 283.768937 
L 379.347312 281.23296 
L 386.823787 283.006005 
L 394.300262 282.908457 
L 401.776737 282.902071 
L 409.253212 282.092279 
L 416.729686 282.437659 
L 424.206161 284.298362 
L 431.682636 284.627723 
L 431.682636 242.272637 
L 431.682636 242.272637 
L 424.206161 241.871324 
L 416.729686 244.934704 
L 409.253212 243.384046 
L 401.776737 244.241871 
L 394.300262 243.446858 
L 386.823787 242.880374 
L 379.347312 244.708144 
L 371.870837 243.780866 
L 364.394362 244.880506 
L 356.917887 244.853925 
L 349.441412 244.184366 
L 341.964937 243.449744 
L 334.488462 244.341727 
L 327.011987 244.890015 
L 319.535512 244.401261 
L 312.059037 244.541288 
L 304.582562 244.980935 
L 297.106087 245.297637 
L 289.629612 244.910636 
L 282.153137 246.152527 
L 274.676662 244.66775 
L 267.200187 247.40014 
L 259.723712 245.876375 
L 252.247237 243.252824 
L 244.770763 244.484397 
L 237.294288 245.652936 
L 229.817813 245.953641 
L 222.341338 245.054891 
L 214.864863 245.907475 
L 207.388388 245.394746 
L 199.911913 245.366221 
L 192.435438 243.859574 
L 184.958963 245.285364 
L 177.482488 245.260248 
L 170.006013 244.941177 
L 162.529538 246.239122 
L 155.053063 245.02908 
L 147.576588 242.979232 
L 140.100113 244.39479 
L 132.623638 244.596416 
L 125.147163 246.287977 
L 117.670688 247.407876 
L 110.194213 244.641528 
L 102.717738 245.546485 
L 95.241263 245.910656 
L 87.764788 245.941132 
L 80.288314 247.226574 
L 72.811839 248.728118 
L 65.335364 248.742838 
z
" clip-path="url(#pba4269ee20)" style="fill: #d62728; fill-opacity: 0.45"/>
   </g>
   <g id="matplotlib.axis_1">
    <g id="xtick_1">
     <g id="line2d_1">
      <defs>
       <path id="ma8a6422e1a" d="M 0 0 
L 0 3.5 
" style="stroke: #000000; stroke-width: 0.8"/>
      </defs>
      <g>
       <use xlink:href="#ma8a6422e1a" x="61.634886" y="302.2" style="stroke: #000000; stroke-width: 0.8"/>
      </g>
     </g>
     <g id="text_1">
      <!-- 0 -->
      <g transform="translate(58.453636 316.798437) scale(0.1 -0.1)">
       <defs>
        <path id="DejaVuSans-30" d="M 2034 4250 
Q 1547 4250 1301 3770 
Q 1056 3291 1056 2328 
Q 1056 1369 1301 889 
Q 1547 409 2034 409 
Q 2525 409 2770 889 
Q 3016 1369 3016 2328 
Q 3016 3291 2770 3770 
Q 2525 4250 2034 4250 
z
M 2034 4750 
Q 2819 4750 3233 4129 
Q 3647 3509 3647 2328 
Q 3647 1150 3233 529 
Q 2819 -91 2034 -91 
Q 1250 -91 836 529 
Q 422 1150 422 2328 
Q 422 3509 836 4129 
Q 1250 4750 2034 4750 
z
" transform="scale(0.015625)"/>
       </defs>
       <use xlink:href="#DejaVuSans-30"/>
      </g>
     </g>
    </g>
    <g id="xtick_2">
     <g id="line2d_2">
      <g>
       <use xlink:href="#ma8a6422e1a" x="135.644436" y="302.2" style="stroke: #000000; stroke-width: 0.8"/>
      </g>
     </g>
     <g id="text_2">
      <!-- 1 -->
      <g transform="translate(132.463186 316.798437) scale(0.1 -0.1)">
       <defs>
        <path id="DejaVuSans-31" d="M 794 531 
L 1825 531 
L 1825 4091 
L 703 3866 
L 703 4441 
L 1819 4666 
L 2450 4666 
L 2450 531 
L 3481 531 
L 3481 0 
L 794 0 
L 794 531 
z
" transform="scale(0.015625)"/>
       </defs>
       <use xlink:href="#DejaVuSans-31"/>
      </g>
     </g>
    </g>
    <g id="xtick_3">
     <g id="line2d_3">
      <g>
       <use xlink:href="#ma8a6422e1a" x="209.653986" y="302.2" style="stroke: #000000; stroke-width: 0.8"/>
      </g>
     </g>
     <g id="text_3">
      <!-- 2 -->
      <g transform="translate(206.472736 316.798437) scale(0.1 -0.1)">
       <defs>
        <path id="DejaVuSans-32" d="M 1228 531 
L 3431 531 
L 3431 0 
L 469 0 
L 469 531 
Q 828 903 1448 1529 
Q 2069 2156 2228 2338 
Q 2531 2678 2651 2914 
Q 2772 3150 2772 3378 
Q 2772 3750 2511 3984 
Q 2250 4219 1831 4219 
Q 1534 4219 1204 4116 
Q 875 4013 500 3803 
L 500 4441 
Q 881 4594 1212 4672 
Q 1544 4750 1819 4750 
Q 2544 4750 2975 4387 
Q 3406 4025 3406 3419 
Q 3406 3131 3298 2873 
Q 3191 2616 2906 2266 
Q 2828 2175 2409 1742 
Q 1991 1309 1228 531 
z
" transform="scale(0.015625)"/>
       </defs>
       <use xlink:href="#DejaVuSans-32"/>
      </g>
     </g>
    </g>
    <g id="xtick_4">
     <g id="line2d_4">
      <g>
       <use xlink:href="#ma8a6422e1a" x="283.663536" y="302.2" style="stroke: #000000; stroke-width: 0.8"/>
      </g>
     </g>
     <g id="text_4">
      <!-- 3 -->
      <g transform="translate(280.482286 316.798437) scale(0.1 -0.1)">
       <defs>
        <path id="DejaVuSans-33" d="M 2597 2516 
Q 3050 2419 3304 2112 
Q 3559 1806 3559 1356 
Q 3559 666 3084 287 
Q 2609 -91 1734 -91 
Q 1441 -91 1130 -33 
Q 819 25 488 141 
L 488 750 
Q 750 597 1062 519 
Q 1375 441 1716 441 
Q 2309 441 2620 675 
Q 2931 909 2931 1356 
Q 2931 1769 2642 2001 
Q 2353 2234 1838 2234 
L 1294 2234 
L 1294 2753 
L 1863 2753 
Q 2328 2753 2575 2939 
Q 2822 3125 2822 3475 
Q 2822 3834 2567 4026 
Q 2313 4219 1838 4219 
Q 1578 4219 1281 4162 
Q 984 4106 628 3988 
L 628 4550 
Q 988 4650 1302 4700 
Q 1616 4750 1894 4750 
Q 2613 4750 3031 4423 
Q 3450 4097 3450 3541 
Q 3450 3153 3228 2886 
Q 3006 2619 2597 2516 
z
" transform="scale(0.015625)"/>
       </defs>
       <use xlink:href="#DejaVuSans-33"/>
      </g>
     </g>
    </g>
    <g id="xtick_5">
     <g id="line2d_5">
      <g>
       <use xlink:href="#ma8a6422e1a" x="357.673086" y="302.2" style="stroke: #000000; stroke-width: 0.8"/>
      </g>
     </g>
     <g id="text_5">
      <!-- 4 -->
      <g transform="translate(354.491836 316.798437) scale(0.1 -0.1)">
       <defs>
        <path id="DejaVuSans-34" d="M 2419 4116 
L 825 1625 
L 2419 1625 
L 2419 4116 
z
M 2253 4666 
L 3047 4666 
L 3047 1625 
L 3713 1625 
L 3713 1100 
L 3047 1100 
L 3047 0 
L 2419 0 
L 2419 1100 
L 313 1100 
L 313 1709 
L 2253 4666 
z
" transform="scale(0.015625)"/>
       </defs>
       <use xlink:href="#DejaVuSans-34"/>
      </g>
     </g>
    </g>
    <g id="xtick_6">
     <g id="line2d_6">
      <g>
       <use xlink:href="#ma8a6422e1a" x="431.682636" y="302.2" style="stroke: #000000; stroke-width: 0.8"/>
      </g>
     </g>
     <g id="text_6">
      <!-- 5 -->
      <g transform="translate(428.501386 316.798437) scale(0.1 -0.1)">
       <defs>
        <path id="DejaVuSans-35" d="M 691 4666 
L 3169 4666 
L 3169 4134 
L 1269 4134 
L 1269 2991 
Q 1406 3038 1543 3061 
Q 1681 3084 1819 3084 
Q 2600 3084 3056 2656 
Q 3513 2228 3513 1497 
Q 3513 744 3044 326 
Q 2575 -91 1722 -91 
Q 1428 -91 1123 -41 
Q 819 9 494 109 
L 494 744 
Q 775 591 1075 516 
Q 1375 441 1709 441 
Q 2250 441 2565 725 
Q 2881 1009 2881 1497 
Q 2881 1984 2565 2268 
Q 2250 2553 1709 2553 
Q 1456 2553 1204 2497 
Q 953 2441 691 2322 
L 691 4666 
z
" transform="scale(0.015625)"/>
       </defs>
       <use xlink:href="#DejaVuSans-35"/>
      </g>
     </g>
    </g>
    <g id="text_7">
     <!-- $W$ (m/hour) -->
     <g transform="translate(220.059 330.476562) scale(0.1 -0.1)">
      <defs>
       <path id="DejaVuSans-Oblique-57" d="M 616 4666 
L 1228 4666 
L 1453 697 
L 3213 4666 
L 3916 4666 
L 4147 697 
L 5888 4666 
L 6528 4666 
L 4453 0 
L 3659 0 
L 3444 3891 
L 1697 0 
L 903 0 
L 616 4666 
z
" transform="scale(0.015625)"/>
       <path id="DejaVuSans-20" transform="scale(0.015625)"/>
       <path id="DejaVuSans-28" d="M 1984 4856 
Q 1566 4138 1362 3434 
Q 1159 2731 1159 2009 
Q 1159 1288 1364 580 
Q 1569 -128 1984 -844 
L 1484 -844 
Q 1016 -109 783 600 
Q 550 1309 550 2009 
Q 550 2706 781 3412 
Q 1013 4119 1484 4856 
L 1984 4856 
z
" transform="scale(0.015625)"/>
       <path id="DejaVuSans-6d" d="M 3328 2828 
Q 3544 3216 3844 3400 
Q 4144 3584 4550 3584 
Q 5097 3584 5394 3201 
Q 5691 2819 5691 2113 
L 5691 0 
L 5113 0 
L 5113 2094 
Q 5113 2597 4934 2840 
Q 4756 3084 4391 3084 
Q 3944 3084 3684 2787 
Q 3425 2491 3425 1978 
L 3425 0 
L 2847 0 
L 2847 2094 
Q 2847 2600 2669 2842 
Q 2491 3084 2119 3084 
Q 1678 3084 1418 2786 
Q 1159 2488 1159 1978 
L 1159 0 
L 581 0 
L 581 3500 
L 1159 3500 
L 1159 2956 
Q 1356 3278 1631 3431 
Q 1906 3584 2284 3584 
Q 2666 3584 2933 3390 
Q 3200 3197 3328 2828 
z
" transform="scale(0.015625)"/>
       <path id="DejaVuSans-2f" d="M 1625 4666 
L 2156 4666 
L 531 -594 
L 0 -594 
L 1625 4666 
z
" transform="scale(0.015625)"/>
       <path id="DejaVuSans-68" d="M 3513 2113 
L 3513 0 
L 2938 0 
L 2938 2094 
Q 2938 2591 2744 2837 
Q 2550 3084 2163 3084 
Q 1697 3084 1428 2787 
Q 1159 2491 1159 1978 
L 1159 0 
L 581 0 
L 581 4863 
L 1159 4863 
L 1159 2956 
Q 1366 3272 1645 3428 
Q 1925 3584 2291 3584 
Q 2894 3584 3203 3211 
Q 3513 2838 3513 2113 
z
" transform="scale(0.015625)"/>
       <path id="DejaVuSans-6f" d="M 1959 3097 
Q 1497 3097 1228 2736 
Q 959 2375 959 1747 
Q 959 1119 1226 758 
Q 1494 397 1959 397 
Q 2419 397 2687 759 
Q 2956 1122 2956 1747 
Q 2956 2369 2687 2733 
Q 2419 3097 1959 3097 
z
M 1959 3584 
Q 2709 3584 3137 3096 
Q 3566 2609 3566 1747 
Q 3566 888 3137 398 
Q 2709 -91 1959 -91 
Q 1206 -91 779 398 
Q 353 888 353 1747 
Q 353 2609 779 3096 
Q 1206 3584 1959 3584 
z
" transform="scale(0.015625)"/>
       <path id="DejaVuSans-75" d="M 544 1381 
L 544 3500 
L 1119 3500 
L 1119 1403 
Q 1119 906 1312 657 
Q 1506 409 1894 409 
Q 2359 409 2629 706 
Q 2900 1003 2900 1516 
L 2900 3500 
L 3475 3500 
L 3475 0 
L 2900 0 
L 2900 538 
Q 2691 219 2414 64 
Q 2138 -91 1772 -91 
Q 1169 -91 856 284 
Q 544 659 544 1381 
z
M 1991 3584 
L 1991 3584 
z
" transform="scale(0.015625)"/>
       <path id="DejaVuSans-72" d="M 2631 2963 
Q 2534 3019 2420 3045 
Q 2306 3072 2169 3072 
Q 1681 3072 1420 2755 
Q 1159 2438 1159 1844 
L 1159 0 
L 581 0 
L 581 3500 
L 1159 3500 
L 1159 2956 
Q 1341 3275 1631 3429 
Q 1922 3584 2338 3584 
Q 2397 3584 2469 3576 
Q 2541 3569 2628 3553 
L 2631 2963 
z
" transform="scale(0.015625)"/>
       <path id="DejaVuSans-29" d="M 513 4856 
L 1013 4856 
Q 1481 4119 1714 3412 
Q 1947 2706 1947 2009 
Q 1947 1309 1714 600 
Q 1481 -109 1013 -844 
L 513 -844 
Q 928 -128 1133 580 
Q 1338 1288 1338 2009 
Q 1338 2731 1133 3434 
Q 928 4138 513 4856 
z
" transform="scale(0.015625)"/>
      </defs>
      <use xlink:href="#DejaVuSans-Oblique-57" transform="translate(0 0.015625)"/>
      <use xlink:href="#DejaVuSans-20" transform="translate(98.876953 0.015625)"/>
      <use xlink:href="#DejaVuSans-28" transform="translate(130.664062 0.015625)"/>
      <use xlink:href="#DejaVuSans-6d" transform="translate(169.677734 0.015625)"/>
      <use xlink:href="#DejaVuSans-2f" transform="translate(267.089844 0.015625)"/>
      <use xlink:href="#DejaVuSans-68" transform="translate(300.78125 0.015625)"/>
      <use xlink:href="#DejaVuSans-6f" transform="translate(364.160156 0.015625)"/>
      <use xlink:href="#DejaVuSans-75" transform="translate(425.341797 0.015625)"/>
      <use xlink:href="#DejaVuSans-72" transform="translate(488.720703 0.015625)"/>
      <use xlink:href="#DejaVuSans-29" transform="translate(529.833984 0.015625)"/>
     </g>
    </g>
   </g>
   <g id="matplotlib.axis_2">
    <g id="ytick_1">
     <g id="line2d_7">
      <defs>
       <path id="mb30ab7c15e" d="M 0 0 
L -3.5 0 
" style="stroke: #000000; stroke-width: 0.8"/>
      </defs>
      <g>
       <use xlink:href="#mb30ab7c15e" x="47.018" y="271.35486" style="stroke: #000000; stroke-width: 0.8"/>
      </g>
     </g>
     <g id="text_8">
      <!-- 0 -->
      <g transform="translate(33.6555 275.154079) scale(0.1 -0.1)">
       <use xlink:href="#DejaVuSans-30"/>
      </g>
     </g>
    </g>
    <g id="ytick_2">
     <g id="line2d_8">
      <g>
       <use xlink:href="#mb30ab7c15e" x="47.018" y="236.86107" style="stroke: #000000; stroke-width: 0.8"/>
      </g>
     </g>
     <g id="text_9">
      <!-- 5 -->
      <g transform="translate(33.6555 240.660289) scale(0.1 -0.1)">
       <use xlink:href="#DejaVuSans-35"/>
      </g>
     </g>
    </g>
    <g id="ytick_3">
     <g id="line2d_9">
      <g>
       <use xlink:href="#mb30ab7c15e" x="47.018" y="202.36728" style="stroke: #000000; stroke-width: 0.8"/>
      </g>
     </g>
     <g id="text_10">
      <!-- 10 -->
      <g transform="translate(27.293 206.166499) scale(0.1 -0.1)">
       <use xlink:href="#DejaVuSans-31"/>
       <use xlink:href="#DejaVuSans-30" transform="translate(63.623047 0)"/>
      </g>
     </g>
    </g>
    <g id="ytick_4">
     <g id="line2d_10">
      <g>
       <use xlink:href="#mb30ab7c15e" x="47.018" y="167.87349" style="stroke: #000000; stroke-width: 0.8"/>
      </g>
     </g>
     <g id="text_11">
      <!-- 15 -->
      <g transform="translate(27.293 171.672709) scale(0.1 -0.1)">
       <use xlink:href="#DejaVuSans-31"/>
       <use xlink:href="#DejaVuSans-35" transform="translate(63.623047 0)"/>
      </g>
     </g>
    </g>
    <g id="ytick_5">
     <g id="line2d_11">
      <g>
       <use xlink:href="#mb30ab7c15e" x="47.018" y="133.3797" style="stroke: #000000; stroke-width: 0.8"/>
      </g>
     </g>
     <g id="text_12">
      <!-- 20 -->
      <g transform="translate(27.293 137.178919) scale(0.1 -0.1)">
       <use xlink:href="#DejaVuSans-32"/>
       <use xlink:href="#DejaVuSans-30" transform="translate(63.623047 0)"/>
      </g>
     </g>
    </g>
    <g id="ytick_6">
     <g id="line2d_12">
      <g>
       <use xlink:href="#mb30ab7c15e" x="47.018" y="98.88591" style="stroke: #000000; stroke-width: 0.8"/>
      </g>
     </g>
     <g id="text_13">
      <!-- 25 -->
      <g transform="translate(27.293 102.685129) scale(0.1 -0.1)">
       <use xlink:href="#DejaVuSans-32"/>
       <use xlink:href="#DejaVuSans-35" transform="translate(63.623047 0)"/>
      </g>
     </g>
    </g>
    <g id="ytick_7">
     <g id="line2d_13">
      <g>
       <use xlink:href="#mb30ab7c15e" x="47.018" y="64.39212" style="stroke: #000000; stroke-width: 0.8"/>
      </g>
     </g>
     <g id="text_14">
      <!-- 30 -->
      <g transform="translate(27.293 68.191339) scale(0.1 -0.1)">
       <use xlink:href="#DejaVuSans-33"/>
       <use xlink:href="#DejaVuSans-30" transform="translate(63.623047 0)"/>
      </g>
     </g>
    </g>
    <g id="ytick_8">
     <g id="line2d_14">
      <g>
       <use xlink:href="#mb30ab7c15e" x="47.018" y="29.89833" style="stroke: #000000; stroke-width: 0.8"/>
      </g>
     </g>
     <g id="text_15">
      <!-- 35 -->
      <g transform="translate(27.293 33.697549) scale(0.1 -0.1)">
       <use xlink:href="#DejaVuSans-33"/>
       <use xlink:href="#DejaVuSans-35" transform="translate(63.623047 0)"/>
      </g>
     </g>
    </g>
    <g id="text_16">
     <!-- $Q_{lc}$ (kW) -->
     <g transform="translate(21.213312 176.8) rotate(-90) scale(0.1 -0.1)">
      <defs>
       <path id="DejaVuSans-Oblique-51" d="M 2309 -84 
Q 2275 -88 2237 -89 
Q 2200 -91 2125 -91 
Q 1250 -91 756 411 
Q 263 913 263 1797 
Q 263 2319 452 2844 
Q 641 3369 978 3788 
Q 1369 4269 1858 4509 
Q 2347 4750 2938 4750 
Q 3794 4750 4287 4245 
Q 4781 3741 4781 2869 
Q 4781 1928 4265 1147 
Q 3750 366 2919 44 
L 3553 -825 
L 2847 -825 
L 2309 -84 
z
M 2919 4238 
Q 2400 4238 2003 3986 
Q 1606 3734 1313 3219 
Q 1125 2891 1026 2522 
Q 928 2153 928 1778 
Q 928 1128 1239 775 
Q 1550 422 2119 422 
Q 2631 422 3032 676 
Q 3434 931 3719 1434 
Q 3909 1772 4009 2142 
Q 4109 2513 4109 2881 
Q 4109 3528 3796 3883 
Q 3484 4238 2919 4238 
z
" transform="scale(0.015625)"/>
       <path id="DejaVuSans-Oblique-6c" d="M 1172 4863 
L 1747 4863 
L 800 0 
L 225 0 
L 1172 4863 
z
" transform="scale(0.015625)"/>
       <path id="DejaVuSans-Oblique-63" d="M 3431 3366 
L 3316 2797 
Q 3109 2947 2876 3022 
Q 2644 3097 2394 3097 
Q 2119 3097 1870 3000 
Q 1622 2903 1453 2725 
Q 1184 2453 1037 2087 
Q 891 1722 891 1331 
Q 891 859 1127 628 
Q 1363 397 1844 397 
Q 2081 397 2348 469 
Q 2616 541 2906 684 
L 2797 116 
Q 2547 13 2283 -39 
Q 2019 -91 1741 -91 
Q 1044 -91 669 257 
Q 294 606 294 1253 
Q 294 1797 489 2255 
Q 684 2713 1069 3078 
Q 1331 3328 1684 3456 
Q 2038 3584 2456 3584 
Q 2700 3584 2940 3529 
Q 3181 3475 3431 3366 
z
" transform="scale(0.015625)"/>
       <path id="DejaVuSans-6b" d="M 581 4863 
L 1159 4863 
L 1159 1991 
L 2875 3500 
L 3609 3500 
L 1753 1863 
L 3688 0 
L 2938 0 
L 1159 1709 
L 1159 0 
L 581 0 
L 581 4863 
z
" transform="scale(0.015625)"/>
       <path id="DejaVuSans-57" d="M 213 4666 
L 850 4666 
L 1831 722 
L 2809 4666 
L 3519 4666 
L 4500 722 
L 5478 4666 
L 6119 4666 
L 4947 0 
L 4153 0 
L 3169 4050 
L 2175 0 
L 1381 0 
L 213 4666 
z
" transform="scale(0.015625)"/>
      </defs>
      <use xlink:href="#DejaVuSans-Oblique-51" transform="translate(0 0.015625)"/>
      <use xlink:href="#DejaVuSans-Oblique-6c" transform="translate(78.710938 -16.390625) scale(0.7)"/>
      <use xlink:href="#DejaVuSans-Oblique-63" transform="translate(98.15918 -16.390625) scale(0.7)"/>
      <use xlink:href="#DejaVuSans-20" transform="translate(139.379883 0.015625)"/>
      <use xlink:href="#DejaVuSans-28" transform="translate(171.166992 0.015625)"/>
      <use xlink:href="#DejaVuSans-6b" transform="translate(210.180664 0.015625)"/>
      <use xlink:href="#DejaVuSans-57" transform="translate(268.09082 0.015625)"/>
      <use xlink:href="#DejaVuSans-29" transform="translate(366.967773 0.015625)"/>
     </g>
    </g>
   </g>
   <g id="line2d_15">
    <path d="M 65.335364 203.882706 
L 72.811839 189.791931 
L 80.288314 177.760774 
L 87.764788 167.824615 
L 95.241263 159.42716 
L 102.717738 152.336062 
L 110.194213 146.4962 
L 117.670688 141.021846 
L 125.147163 136.289326 
L 132.623638 131.908558 
L 140.100113 127.6069 
L 147.576588 123.645829 
L 155.053063 119.588485 
L 162.529538 115.813892 
L 170.006013 112.114291 
L 177.482488 108.421301 
L 184.958963 105.102267 
L 192.435438 101.801928 
L 199.911913 98.598421 
L 207.388388 95.596692 
L 214.864863 92.631934 
L 222.341338 89.690596 
L 229.817813 86.87857 
L 237.294288 84.022119 
L 244.770763 81.280972 
L 252.247237 78.584589 
L 259.723712 76.009587 
L 267.200187 73.343184 
L 274.676662 70.863312 
L 282.153137 68.491439 
L 289.629612 66.057881 
L 297.106087 63.674082 
L 304.582562 61.42196 
L 312.059037 59.055529 
L 319.535512 56.793041 
L 327.011987 54.500508 
L 334.488462 52.333888 
L 341.964937 50.095203 
L 349.441412 47.938187 
L 356.917887 45.972361 
L 364.394362 43.839162 
L 371.870837 41.783371 
L 379.347312 39.747654 
L 386.823787 37.782435 
L 394.300262 35.805682 
L 401.776737 33.70644 
L 409.253212 31.892716 
L 416.729686 29.884419 
L 424.206161 28.196268 
L 431.682636 26.272925 
" clip-path="url(#pba4269ee20)" style="fill: none; stroke: #1f77b4; stroke-width: 1.5; stroke-linecap: square"/>
   </g>
   <g id="line2d_16">
    <path d="M 65.335364 239.714799 
L 72.811839 232.119018 
L 80.288314 225.811618 
L 87.764788 220.39621 
L 95.241263 215.995124 
L 102.717738 212.176223 
L 110.194213 208.964635 
L 117.670688 206.047271 
L 125.147163 203.384042 
L 132.623638 201.076863 
L 140.100113 198.737642 
L 147.576588 196.544839 
L 155.053063 194.379545 
L 162.529538 192.292922 
L 170.006013 190.302606 
L 177.482488 188.337854 
L 184.958963 186.444613 
L 192.435438 184.637065 
L 199.911913 182.948095 
L 207.388388 181.235186 
L 214.864863 179.64085 
L 222.341338 178.033498 
L 229.817813 176.384687 
L 237.294288 174.958223 
L 244.770763 173.424227 
L 252.247237 171.980945 
L 259.723712 170.522177 
L 267.200187 169.170189 
L 274.676662 167.80872 
L 282.153137 166.416158 
L 289.629612 165.06064 
L 297.106087 163.760359 
L 304.582562 162.508096 
L 312.059037 161.245061 
L 319.535512 160.004132 
L 327.011987 158.70867 
L 334.488462 157.613687 
L 341.964937 156.413391 
L 349.441412 155.233121 
L 356.917887 154.047512 
L 364.394362 152.903052 
L 371.870837 151.783397 
L 379.347312 150.668477 
L 386.823787 149.557319 
L 394.300262 148.450246 
L 401.776737 147.378585 
L 409.253212 146.292236 
L 416.729686 145.235738 
L 424.206161 144.194912 
L 431.682636 143.194277 
" clip-path="url(#pba4269ee20)" style="fill: none; stroke: #ff7f0e; stroke-width: 1.5; stroke-linecap: square"/>
   </g>
   <g id="line2d_17">
    <path d="M 65.335364 259.848986 
L 72.811839 256.77625 
L 80.288314 254.263218 
L 87.764788 252.200105 
L 95.241263 250.438971 
L 102.717738 249.112224 
L 110.194213 247.70367 
L 117.670688 246.573306 
L 125.147163 245.459504 
L 132.623638 244.700996 
L 140.100113 243.582408 
L 147.576588 242.702501 
L 155.053063 241.994066 
L 162.529538 241.257081 
L 170.006013 240.30415 
L 177.482488 239.609701 
L 184.958963 238.654641 
L 192.435438 238.05211 
L 199.911913 237.388322 
L 207.388388 236.779483 
L 214.864863 236.238671 
L 222.341338 235.556246 
L 229.817813 234.864449 
L 237.294288 234.292713 
L 244.770763 233.680678 
L 252.247237 233.06991 
L 259.723712 232.456095 
L 267.200187 231.970797 
L 274.676662 231.386137 
L 282.153137 230.810383 
L 289.629612 230.288905 
L 297.106087 229.827155 
L 304.582562 229.45663 
L 312.059037 228.702746 
L 319.535512 228.224719 
L 327.011987 227.774163 
L 334.488462 227.231671 
L 341.964937 226.734459 
L 349.441412 226.404375 
L 356.917887 225.798179 
L 364.394362 225.567184 
L 371.870837 224.899405 
L 379.347312 224.639215 
L 386.823787 224.211053 
L 394.300262 223.73125 
L 401.776737 223.22911 
L 409.253212 222.694908 
L 416.729686 222.445734 
L 424.206161 221.930743 
L 431.682636 221.550124 
" clip-path="url(#pba4269ee20)" style="fill: none; stroke: #2ca02c; stroke-width: 1.5; stroke-linecap: square"/>
   </g>
   <g id="line2d_18">
    <path d="M 65.335364 268.555547 
L 72.811839 268.039807 
L 80.288314 265.981645 
L 87.764788 266.385703 
L 95.241263 265.551369 
L 102.717738 265.507703 
L 110.194213 264.507328 
L 117.670688 264.606296 
L 125.147163 264.001491 
L 132.623638 264.354105 
L 140.100113 264.295015 
L 147.576588 264.855407 
L 155.053063 264.739184 
L 162.529538 265.389075 
L 170.006013 264.389579 
L 177.482488 264.410675 
L 184.958963 264.863459 
L 192.435438 265.421186 
L 199.911913 265.272144 
L 207.388388 264.968033 
L 214.864863 264.913525 
L 222.341338 264.579074 
L 229.817813 264.967931 
L 237.294288 264.864342 
L 244.770763 264.938227 
L 252.247237 265.217792 
L 259.723712 264.716986 
L 267.200187 265.11617 
L 274.676662 264.205423 
L 282.153137 264.912926 
L 289.629612 264.055584 
L 297.106087 264.450674 
L 304.582562 265.349779 
L 312.059037 264.245939 
L 319.535512 264.202062 
L 327.011987 264.405512 
L 334.488462 264.571563 
L 341.964937 264.852869 
L 349.441412 264.145025 
L 356.917887 264.325312 
L 364.394362 263.742506 
L 371.870837 264.106921 
L 379.347312 263.414144 
L 386.823787 263.446571 
L 394.300262 263.488897 
L 401.776737 262.963228 
L 409.253212 263.857687 
L 416.729686 263.55043 
L 424.206161 263.160233 
L 431.682636 263.100483 
" clip-path="url(#pba4269ee20)" style="fill: none; stroke: #d62728; stroke-width: 1.5; stroke-linecap: square"/>
   </g>
   <g id="patch_3">
    <path d="M 47.018 302.2 
L 47.018 10.8 
" style="fill: none; stroke: #000000; stroke-width: 0.8; stroke-linejoin: miter; stroke-linecap: square"/>
   </g>
   <g id="patch_4">
    <path d="M 450 302.2 
L 450 10.8 
" style="fill: none; stroke: #000000; stroke-width: 0.8; stroke-linejoin: miter; stroke-linecap: square"/>
   </g>
   <g id="patch_5">
    <path d="M 47.018 302.2 
L 450 302.2 
" style="fill: none; stroke: #000000; stroke-width: 0.8; stroke-linejoin: miter; stroke-linecap: square"/>
   </g>
   <g id="patch_6">
    <path d="M 47.018 10.8 
L 450 10.8 
" style="fill: none; stroke: #000000; stroke-width: 0.8; stroke-linejoin: miter; stroke-linecap: square"/>
   </g>
   <g id="legend_1">
    <g id="patch_7">
     <path d="M 54.018 77.5125 
L 132.888313 77.5125 
Q 134.888313 77.5125 134.888313 75.5125 
L 134.888313 17.8 
Q 134.888313 15.8 132.888313 15.8 
L 54.018 15.8 
Q 52.018 15.8 52.018 17.8 
L 52.018 75.5125 
Q 52.018 77.5125 54.018 77.5125 
z
" style="fill: #ffffff; opacity: 0.8; stroke: #cccccc; stroke-linejoin: miter"/>
    </g>
    <g id="line2d_19">
     <path d="M 56.018 23.898438 
L 66.018 23.898438 
L 76.018 23.898438 
" style="fill: none; stroke: #1f77b4; stroke-width: 1.5; stroke-linecap: square"/>
    </g>
    <g id="text_17">
     <!-- Ts=100 K -->
     <g transform="translate(84.018 27.398438) scale(0.1 -0.1)">
      <defs>
       <path id="DejaVuSans-54" d="M -19 4666 
L 3928 4666 
L 3928 4134 
L 2272 4134 
L 2272 0 
L 1638 0 
L 1638 4134 
L -19 4134 
L -19 4666 
z
" transform="scale(0.015625)"/>
       <path id="DejaVuSans-73" d="M 2834 3397 
L 2834 2853 
Q 2591 2978 2328 3040 
Q 2066 3103 1784 3103 
Q 1356 3103 1142 2972 
Q 928 2841 928 2578 
Q 928 2378 1081 2264 
Q 1234 2150 1697 2047 
L 1894 2003 
Q 2506 1872 2764 1633 
Q 3022 1394 3022 966 
Q 3022 478 2636 193 
Q 2250 -91 1575 -91 
Q 1294 -91 989 -36 
Q 684 19 347 128 
L 347 722 
Q 666 556 975 473 
Q 1284 391 1588 391 
Q 1994 391 2212 530 
Q 2431 669 2431 922 
Q 2431 1156 2273 1281 
Q 2116 1406 1581 1522 
L 1381 1569 
Q 847 1681 609 1914 
Q 372 2147 372 2553 
Q 372 3047 722 3315 
Q 1072 3584 1716 3584 
Q 2034 3584 2315 3537 
Q 2597 3491 2834 3397 
z
" transform="scale(0.015625)"/>
       <path id="DejaVuSans-3d" d="M 678 2906 
L 4684 2906 
L 4684 2381 
L 678 2381 
L 678 2906 
z
M 678 1631 
L 4684 1631 
L 4684 1100 
L 678 1100 
L 678 1631 
z
" transform="scale(0.015625)"/>
       <path id="DejaVuSans-4b" d="M 628 4666 
L 1259 4666 
L 1259 2694 
L 3353 4666 
L 4166 4666 
L 1850 2491 
L 4331 0 
L 3500 0 
L 1259 2247 
L 1259 0 
L 628 0 
L 628 4666 
z
" transform="scale(0.015625)"/>
      </defs>
      <use xlink:href="#DejaVuSans-54"/>
      <use xlink:href="#DejaVuSans-73" transform="translate(44.583984 0)"/>
      <use xlink:href="#DejaVuSans-3d" transform="translate(96.683594 0)"/>
      <use xlink:href="#DejaVuSans-31" transform="translate(180.472656 0)"/>
      <use xlink:href="#DejaVuSans-30" transform="translate(244.095703 0)"/>
      <use xlink:href="#DejaVuSans-30" transform="translate(307.71875 0)"/>
      <use xlink:href="#DejaVuSans-20" transform="translate(371.341797 0)"/>
      <use xlink:href="#DejaVuSans-4b" transform="translate(403.128906 0)"/>
     </g>
    </g>
    <g id="line2d_20">
     <path d="M 56.018 38.576563 
L 66.018 38.576563 
L 76.018 38.576563 
" style="fill: none; stroke: #ff7f0e; stroke-width: 1.5; stroke-linecap: square"/>
    </g>
    <g id="text_18">
     <!-- Ts=160 K -->
     <g transform="translate(84.018 42.076563) scale(0.1 -0.1)">
      <defs>
       <path id="DejaVuSans-36" d="M 2113 2584 
Q 1688 2584 1439 2293 
Q 1191 2003 1191 1497 
Q 1191 994 1439 701 
Q 1688 409 2113 409 
Q 2538 409 2786 701 
Q 3034 994 3034 1497 
Q 3034 2003 2786 2293 
Q 2538 2584 2113 2584 
z
M 3366 4563 
L 3366 3988 
Q 3128 4100 2886 4159 
Q 2644 4219 2406 4219 
Q 1781 4219 1451 3797 
Q 1122 3375 1075 2522 
Q 1259 2794 1537 2939 
Q 1816 3084 2150 3084 
Q 2853 3084 3261 2657 
Q 3669 2231 3669 1497 
Q 3669 778 3244 343 
Q 2819 -91 2113 -91 
Q 1303 -91 875 529 
Q 447 1150 447 2328 
Q 447 3434 972 4092 
Q 1497 4750 2381 4750 
Q 2619 4750 2861 4703 
Q 3103 4656 3366 4563 
z
" transform="scale(0.015625)"/>
      </defs>
      <use xlink:href="#DejaVuSans-54"/>
      <use xlink:href="#DejaVuSans-73" transform="translate(44.583984 0)"/>
      <use xlink:href="#DejaVuSans-3d" transform="translate(96.683594 0)"/>
      <use xlink:href="#DejaVuSans-31" transform="translate(180.472656 0)"/>
      <use xlink:href="#DejaVuSans-36" transform="translate(244.095703 0)"/>
      <use xlink:href="#DejaVuSans-30" transform="translate(307.71875 0)"/>
      <use xlink:href="#DejaVuSans-20" transform="translate(371.341797 0)"/>
      <use xlink:href="#DejaVuSans-4b" transform="translate(403.128906 0)"/>
     </g>
    </g>
    <g id="line2d_21">
     <path d="M 56.018 53.254687 
L 66.018 53.254687 
L 76.018 53.254687 
" style="fill: none; stroke: #2ca02c; stroke-width: 1.5; stroke-linecap: square"/>
    </g>
    <g id="text_19">
     <!-- Ts=220 K -->
     <g transform="translate(84.018 56.754687) scale(0.1 -0.1)">
      <use xlink:href="#DejaVuSans-54"/>
      <use xlink:href="#DejaVuSans-73" transform="translate(44.583984 0)"/>
      <use xlink:href="#DejaVuSans-3d" transform="translate(96.683594 0)"/>
      <use xlink:href="#DejaVuSans-32" transform="translate(180.472656 0)"/>
      <use xlink:href="#DejaVuSans-32" transform="translate(244.095703 0)"/>
      <use xlink:href="#DejaVuSans-30" transform="translate(307.71875 0)"/>
      <use xlink:href="#DejaVuSans-20" transform="translate(371.341797 0)"/>
      <use xlink:href="#DejaVuSans-4b" transform="translate(403.128906 0)"/>
     </g>
    </g>
    <g id="line2d_22">
     <path d="M 56.018 67.932813 
L 66.018 67.932813 
L 76.018 67.932813 
" style="fill: none; stroke: #d62728; stroke-width: 1.5; stroke-linecap: square"/>
    </g>
    <g id="text_20">
     <!-- Ts=260 K -->
     <g transform="translate(84.018 71.432813) scale(0.1 -0.1)">
      <use xlink:href="#DejaVuSans-54"/>
      <use xlink:href="#DejaVuSans-73" transform="translate(44.583984 0)"/>
      <use xlink:href="#DejaVuSans-3d" transform="translate(96.683594 0)"/>
      <use xlink:href="#DejaVuSans-32" transform="translate(180.472656 0)"/>
      <use xlink:href="#DejaVuSans-36" transform="translate(244.095703 0)"/>
      <use xlink:href="#DejaVuSans-30" transform="translate(307.71875 0)"/>
      <use xlink:href="#DejaVuSans-20" transform="translate(371.341797 0)"/>
      <use xlink:href="#DejaVuSans-4b" transform="translate(403.128906 0)"/>
     </g>
    </g>
   </g>
  </g>
 </g>
 <defs>
  <clipPath id="pba4269ee20">
   <rect x="47.018" y="10.8" width="402.982" height="291.4"/>
  </clipPath>
 </defs>
</svg>
