<?xml version="1.0" encoding="utf-8" standalone="no"?>
<!DOCTYPE svg PUBLIC "-//W3C//DTD SVG 1.1//EN"
  "http://www.w3.org/Graphics/SVG/1.1/DTD/svg11.dtd">
<svg xmlns:xlink="http://www.w3.org/1999/xlink" width="460.8pt" height="345.6pt" viewBox="0 0 460.8 345.6" xmlns="http://www.w3.org/2000/svg" version="1.1">
 <metadata>
  <rdf:RDF xmlns:dc="http://purl.org/dc/elements/1.1/" xmlns:cc="http://creativecommons.org/ns#" xmlns:rdf="http://www.w3.org/1999/02/22-rdf-syntax-ns#">
   <cc:Work>
    <dc:type rdf:resource="http://purl.org/dc/dcmitype/StillImage"/>
    <dc:date>2026-02-12T05:45:12.679012</dc:date>
    <dc:format>image/svg+xml</dc:format>
    <dc:creator>
     <cc:Agent>
      <dc:title>Matplotlib v3.10.8, https://matplotlib.org/</dc:title>
     </cc:Agent>
    </dc:creator>
   </cc:Work>
  </rdf:RDF>
 </metadata>
 <defs>
  <style type="text/css">*{stroke-linejoin: round; stroke-linecap: butt}</style>
 </defs>
 <g id="figure_1">
  <g id="patch_1">
   <path d="M 0 345.6 
L 460.8 345.6 
L 460.8 0 
L 0 0 
L 0 345.6 
z
" style="fill: none"/>
  </g>
  <g id="axes_1">
   <g id="patch_2">
    <path d="M 59.984054 302.2 
L 450 302.2 
L 450 10.8 
L 59.984054 10.8 
L 59.984054 302.2 
z
" style="fill: none"/>
   </g>
   <g id="FillBetweenPolyCollection_1">
    <path d="M 77.712051 24.045455 
L 77.712051 26.359783 
L 79.49376 28.867789 
L 81.275468 31.34591 
L 83.057176 33.794849 
L 84.838885 36.215286 
L 86.620593 38.607876 
L 88.402301 40.973254 
L 90.18401 43.311996 
L 91.965718 45.624723 
L 93.747426 47.912013 
L 95.529134 50.17442 
L 97.310843 52.412479 
L 99.092551 54.62671 
L 100.874259 56.817613 
L 102.655968 58.985675 
L 104.437676 61.131369 
L 106.219384 63.25515 
L 108.001092 65.357461 
L 109.782801 67.438733 
L 111.564509 69.499382 
L 113.346217 71.539813 
L 115.127926 73.560419 
L 116.909634 75.561581 
L 118.691342 77.54367 
L 120.473051 79.507047 
L 122.254759 81.45206 
L 124.036467 83.379052 
L 125.818175 85.288351 
L 127.599884 87.180281 
L 129.381592 89.055155 
L 131.1633 90.915952 
L 132.945009 92.760458 
L 134.726717 94.588774 
L 136.508425 96.401181 
L 138.290134 98.197953 
L 140.071842 99.979345 
L 141.85355 101.745603 
L 143.635258 103.497009 
L 145.416967 105.233809 
L 147.198675 106.956247 
L 148.980383 108.664558 
L 150.762092 110.35897 
L 152.5438 112.03971 
L 154.325508 113.703588 
L 156.107216 115.352892 
L 157.888925 116.989201 
L 159.670633 118.612692 
L 161.452341 120.223531 
L 163.23405 121.821972 
L 165.015758 123.408204 
L 166.797466 124.982412 
L 168.579175 126.544777 
L 170.360883 128.099949 
L 172.142591 129.646591 
L 173.924299 131.181855 
L 175.706008 132.705906 
L 177.487716 134.215814 
L 179.269424 135.712176 
L 181.051133 137.197844 
L 182.832841 138.67297 
L 184.614549 140.137701 
L 186.396258 141.592184 
L 188.177966 143.036561 
L 189.959674 144.470972 
L 191.741382 145.895552 
L 193.523091 147.310436 
L 195.304799 148.715755 
L 197.086507 150.111579 
L 198.868216 151.497919 
L 200.649924 152.875073 
L 202.431632 154.243163 
L 204.213341 155.602306 
L 205.995049 156.952619 
L 207.776757 158.294216 
L 209.558465 159.627209 
L 211.340174 160.951707 
L 213.121882 162.267818 
L 214.90359 163.577041 
L 216.685299 164.882865 
L 218.467007 166.180574 
L 220.248715 167.469381 
L 222.030423 168.747581 
L 223.812132 170.020765 
L 225.59384 171.28623 
L 227.375548 172.544067 
L 229.157257 173.794754 
L 230.938965 175.040535 
L 232.720673 176.283415 
L 234.502382 177.512825 
L 236.28409 178.735016 
L 238.065798 179.951203 
L 239.847506 181.160838 
L 241.629215 182.363517 
L 243.410923 183.554889 
L 245.192631 184.739856 
L 246.97434 185.919501 
L 248.756048 187.087806 
L 250.537756 188.250281 
L 252.319465 189.417092 
L 254.101173 190.577005 
L 255.882881 191.725359 
L 257.664589 192.875304 
L 259.446298 194.013984 
L 261.228006 195.140663 
L 263.009714 196.265961 
L 264.791423 197.39342 
L 266.573131 198.514879 
L 268.354839 199.622753 
L 270.136547 200.728239 
L 271.918256 201.835776 
L 273.699964 202.937543 
L 275.481672 204.033598 
L 277.263381 205.118238 
L 279.045089 206.189091 
L 280.826797 207.254479 
L 282.608506 208.316215 
L 284.390214 209.380334 
L 286.171922 210.439104 
L 287.95363 211.492578 
L 289.735339 212.540808 
L 291.517047 213.583847 
L 293.298755 214.621747 
L 295.080464 215.654556 
L 296.862172 216.682326 
L 298.64388 217.705104 
L 300.425589 218.720829 
L 302.207297 219.731503 
L 303.989005 220.737338 
L 305.770713 221.738382 
L 307.552422 222.73468 
L 309.33413 223.726277 
L 311.115838 224.713217 
L 312.897547 225.695543 
L 314.679255 226.673298 
L 316.460963 227.646525 
L 318.242671 228.615266 
L 320.02438 229.579562 
L 321.806088 230.539452 
L 323.587796 231.497239 
L 325.369505 232.451039 
L 327.151213 233.400542 
L 328.932921 234.345772 
L 330.71463 235.286764 
L 332.496338 236.223573 
L 334.278046 237.156235 
L 336.059754 238.084787 
L 337.841463 239.009265 
L 339.623171 239.929705 
L 341.404879 240.846141 
L 343.186588 241.758609 
L 344.968296 242.667142 
L 346.750004 243.571775 
L 348.531713 244.472541 
L 350.313421 245.369472 
L 352.095129 246.262602 
L 353.876837 247.151962 
L 355.658546 248.037583 
L 357.440254 248.919498 
L 359.221962 249.797738 
L 361.003671 250.672331 
L 362.785379 251.542404 
L 364.567087 252.408397 
L 366.348795 253.270839 
L 368.130504 254.129761 
L 369.912212 254.985175 
L 371.69392 255.837075 
L 373.475629 256.685539 
L 375.257337 257.530594 
L 377.039045 258.372268 
L 378.820754 259.210588 
L 380.602462 260.045148 
L 382.38417 260.875797 
L 384.165878 261.703174 
L 385.947587 262.528706 
L 387.729295 263.352945 
L 389.511003 264.171803 
L 391.292712 264.987486 
L 393.07442 265.800019 
L 394.856128 266.609425 
L 396.637837 267.417249 
L 398.419545 268.223928 
L 400.201253 269.02754 
L 401.982961 269.828106 
L 403.76467 270.62565 
L 405.546378 271.420162 
L 407.328086 272.211679 
L 409.109795 273.000242 
L 410.891503 273.785872 
L 412.673211 274.568591 
L 414.454919 275.348422 
L 416.236628 276.125385 
L 418.018336 276.899501 
L 419.800044 277.669621 
L 421.581753 278.436137 
L 423.363461 279.199875 
L 425.145169 279.960855 
L 426.926878 280.71907 
L 428.708586 281.474534 
L 430.490294 282.2273 
L 432.272002 282.977385 
L 432.272002 281.765319 
L 432.272002 281.765319 
L 430.490294 281.024645 
L 428.708586 280.281326 
L 426.926878 279.535342 
L 425.145169 278.786673 
L 423.363461 278.035302 
L 421.581753 277.281207 
L 419.800044 276.524369 
L 418.018336 275.764768 
L 416.236628 275.002383 
L 414.454919 274.237196 
L 412.673211 273.469183 
L 410.891503 272.698326 
L 409.109795 271.924602 
L 407.328086 271.14799 
L 405.546378 270.368469 
L 403.76467 269.586016 
L 401.982961 268.80061 
L 400.201253 268.012227 
L 398.419545 267.220847 
L 396.637837 266.426445 
L 394.856128 265.628998 
L 393.07442 264.828483 
L 391.292712 264.024877 
L 389.511003 263.218121 
L 387.729295 262.408144 
L 385.947587 261.595001 
L 384.165878 260.778669 
L 382.38417 259.959122 
L 380.602462 259.136074 
L 378.820754 258.308615 
L 377.039045 257.477858 
L 375.257337 256.643778 
L 373.475629 255.806346 
L 371.69392 254.965537 
L 369.912212 254.121323 
L 368.130504 253.275357 
L 366.348795 252.426189 
L 364.567087 251.57354 
L 362.785379 250.717381 
L 361.003671 249.857683 
L 359.221962 248.994417 
L 357.440254 248.127554 
L 355.658546 247.257108 
L 353.876837 246.383004 
L 352.095129 245.50521 
L 350.313421 244.623696 
L 348.531713 243.738429 
L 346.750004 242.848154 
L 344.968296 241.953109 
L 343.186588 241.054204 
L 341.404879 240.151139 
L 339.623171 239.242736 
L 337.841463 238.330364 
L 336.059754 237.417401 
L 334.278046 236.500598 
L 332.496338 235.579918 
L 330.71463 234.655015 
L 328.932921 233.725121 
L 327.151213 232.786761 
L 325.369505 231.845038 
L 323.587796 230.901242 
L 321.806088 229.953155 
L 320.02438 229.000737 
L 318.242671 228.043244 
L 316.460963 227.077721 
L 314.679255 226.107725 
L 312.897547 225.133216 
L 311.115838 224.154234 
L 309.33413 223.170657 
L 307.552422 222.18626 
L 305.770713 221.197781 
L 303.989005 220.204592 
L 302.207297 219.206684 
L 300.425589 218.20401 
L 298.64388 217.196491 
L 296.862172 216.1841 
L 295.080464 215.166896 
L 293.298755 214.144703 
L 291.517047 213.117517 
L 289.735339 212.085245 
L 287.95363 211.050886 
L 286.171922 210.013017 
L 284.390214 208.962874 
L 282.608506 207.907932 
L 280.826797 206.846474 
L 279.045089 205.780624 
L 277.263381 204.704503 
L 275.481672 203.622265 
L 273.699964 202.535192 
L 271.918256 201.443374 
L 270.136547 200.346552 
L 268.354839 199.244373 
L 266.573131 198.136359 
L 264.791423 197.022449 
L 263.009714 195.902581 
L 261.228006 194.776688 
L 259.446298 193.644708 
L 257.664589 192.505919 
L 255.882881 191.358239 
L 254.101173 190.209941 
L 252.319465 189.050692 
L 250.537756 187.882048 
L 248.756048 186.706198 
L 246.97434 185.520783 
L 245.192631 184.326557 
L 243.410923 183.126894 
L 241.629215 181.930739 
L 239.847506 180.726975 
L 238.065798 179.505411 
L 236.28409 178.280337 
L 234.502382 177.052217 
L 232.720673 175.816869 
L 230.938965 174.574471 
L 229.157257 173.324681 
L 227.375548 172.065729 
L 225.59384 170.798493 
L 223.812132 169.523573 
L 222.030423 168.244831 
L 220.248715 166.959121 
L 218.467007 165.66513 
L 216.685299 164.360846 
L 214.90359 163.04469 
L 213.121882 161.719024 
L 211.340174 160.384963 
L 209.558465 159.042401 
L 207.776757 157.691228 
L 205.995049 156.331333 
L 204.213341 154.962791 
L 202.431632 153.587624 
L 200.649924 152.203405 
L 198.868216 150.810014 
L 197.086507 149.407329 
L 195.304799 147.995226 
L 193.523091 146.573576 
L 191.741382 145.14225 
L 189.959674 143.701115 
L 188.177966 142.250035 
L 186.396258 140.785966 
L 184.614549 139.306482 
L 182.832841 137.816574 
L 181.051133 136.316094 
L 179.269424 134.804889 
L 177.487716 133.285934 
L 175.706008 131.758206 
L 173.924299 130.21932 
L 172.142591 128.669113 
L 170.360883 127.107416 
L 168.579175 125.534058 
L 166.797466 123.948863 
L 165.015758 122.351651 
L 163.23405 120.74224 
L 161.452341 119.120442 
L 159.670633 117.486064 
L 157.888925 115.838909 
L 156.107216 114.178776 
L 154.325508 112.50546 
L 152.5438 110.818749 
L 150.762092 109.118427 
L 148.980383 107.404272 
L 147.198675 105.676057 
L 145.416967 103.933551 
L 143.635258 102.176514 
L 141.85355 100.404702 
L 140.071842 98.617866 
L 138.290134 96.815746 
L 136.508425 94.998081 
L 134.726717 93.164599 
L 132.945009 91.315023 
L 131.1633 89.449067 
L 129.381592 87.56644 
L 127.599884 85.66684 
L 125.818175 83.749958 
L 124.036467 81.815478 
L 122.254759 79.863072 
L 120.473051 77.892407 
L 118.691342 75.903137 
L 116.909634 73.894907 
L 115.127926 71.867352 
L 113.346217 69.820097 
L 111.564509 67.752756 
L 109.782801 65.66493 
L 108.001092 63.556209 
L 106.219384 61.426172 
L 104.437676 59.274381 
L 102.655968 57.100389 
L 100.874259 54.903733 
L 99.092551 52.683935 
L 97.310843 50.440502 
L 95.529134 48.172926 
L 93.747426 45.880681 
L 91.965718 43.563225 
L 90.18401 41.220105 
L 88.402301 38.850645 
L 86.620593 36.454235 
L 84.838885 34.030255 
L 83.057176 31.578064 
L 81.275468 29.096996 
L 79.49376 26.586364 
L 77.712051 24.045455 
z
" clip-path="url(#p17a3956686)" style="fill: #1f77b4; fill-opacity: 0.3"/>
   </g>
   <g id="matplotlib.axis_1">
    <g id="xtick_1">
     <g id="line2d_1">
      <defs>
       <path id="m4821c05e27" d="M 0 0 
L 0 3.5 
" style="stroke: #000000; stroke-width: 0.8"/>
      </defs>
      <g>
       <use xlink:href="#m4821c05e27" x="68.533694" y="302.2" style="stroke: #000000; stroke-width: 0.8"/>
      </g>
     </g>
     <g id="text_1">
      <!-- 75 -->
      <g transform="translate(62.171194 316.798437) scale(0.1 -0.1)">
       <defs>
        <path id="DejaVuSans-37" d="M 525 4666 
L 3525 4666 
L 3525 4397 
L 1831 0 
L 1172 0 
L 2766 4134 
L 525 4134 
L 525 4666 
z
" transform="scale(0.015625)"/>
        <path id="DejaVuSans-35" d="M 691 4666 
L 3169 4666 
L 3169 4134 
L 1269 4134 
L 1269 2991 
Q 1406 3038 1543 3061 
Q 1681 3084 1819 3084 
Q 2600 3084 3056 2656 
Q 3513 2228 3513 1497 
Q 3513 744 3044 326 
Q 2575 -91 1722 -91 
Q 1428 -91 1123 -41 
Q 819 9 494 109 
L 494 744 
Q 775 591 1075 516 
Q 1375 441 1709 441 
Q 2250 441 2565 725 
Q 2881 1009 2881 1497 
Q 2881 1984 2565 2268 
Q 2250 2553 1709 2553 
Q 1456 2553 1204 2497 
Q 953 2441 691 2322 
L 691 4666 
z
" transform="scale(0.015625)"/>
       </defs>
       <use xlink:href="#DejaVuSans-37"/>
       <use xlink:href="#DejaVuSans-35" transform="translate(63.623047 0)"/>
      </g>
     </g>
    </g>
    <g id="xtick_2">
     <g id="line2d_2">
      <g>
       <use xlink:href="#m4821c05e27" x="114.425482" y="302.2" style="stroke: #000000; stroke-width: 0.8"/>
      </g>
     </g>
     <g id="text_2">
      <!-- 100 -->
      <g transform="translate(104.881732 316.798437) scale(0.1 -0.1)">
       <defs>
        <path id="DejaVuSans-31" d="M 794 531 
L 1825 531 
L 1825 4091 
L 703 3866 
L 703 4441 
L 1819 4666 
L 2450 4666 
L 2450 531 
L 3481 531 
L 3481 0 
L 794 0 
L 794 531 
z
" transform="scale(0.015625)"/>
        <path id="DejaVuSans-30" d="M 2034 4250 
Q 1547 4250 1301 3770 
Q 1056 3291 1056 2328 
Q 1056 1369 1301 889 
Q 1547 409 2034 409 
Q 2525 409 2770 889 
Q 3016 1369 3016 2328 
Q 3016 3291 2770 3770 
Q 2525 4250 2034 4250 
z
M 2034 4750 
Q 2819 4750 3233 4129 
Q 3647 3509 3647 2328 
Q 3647 1150 3233 529 
Q 2819 -91 2034 -91 
Q 1250 -91 836 529 
Q 422 1150 422 2328 
Q 422 3509 836 4129 
Q 1250 4750 2034 4750 
z
" transform="scale(0.015625)"/>
       </defs>
       <use xlink:href="#DejaVuSans-31"/>
       <use xlink:href="#DejaVuSans-30" transform="translate(63.623047 0)"/>
       <use xlink:href="#DejaVuSans-30" transform="translate(127.246094 0)"/>
      </g>
     </g>
    </g>
    <g id="xtick_3">
     <g id="line2d_3">
      <g>
       <use xlink:href="#m4821c05e27" x="160.317269" y="302.2" style="stroke: #000000; stroke-width: 0.8"/>
      </g>
     </g>
     <g id="text_3">
      <!-- 125 -->
      <g transform="translate(150.773519 316.798437) scale(0.1 -0.1)">
       <defs>
        <path id="DejaVuSans-32" d="M 1228 531 
L 3431 531 
L 3431 0 
L 469 0 
L 469 531 
Q 828 903 1448 1529 
Q 2069 2156 2228 2338 
Q 2531 2678 2651 2914 
Q 2772 3150 2772 3378 
Q 2772 3750 2511 3984 
Q 2250 4219 1831 4219 
Q 1534 4219 1204 4116 
Q 875 4013 500 3803 
L 500 4441 
Q 881 4594 1212 4672 
Q 1544 4750 1819 4750 
Q 2544 4750 2975 4387 
Q 3406 4025 3406 3419 
Q 3406 3131 3298 2873 
Q 3191 2616 2906 2266 
Q 2828 2175 2409 1742 
Q 1991 1309 1228 531 
z
" transform="scale(0.015625)"/>
       </defs>
       <use xlink:href="#DejaVuSans-31"/>
       <use xlink:href="#DejaVuSans-32" transform="translate(63.623047 0)"/>
       <use xlink:href="#DejaVuSans-35" transform="translate(127.246094 0)"/>
      </g>
     </g>
    </g>
    <g id="xtick_4">
     <g id="line2d_4">
      <g>
       <use xlink:href="#m4821c05e27" x="206.209057" y="302.2" style="stroke: #000000; stroke-width: 0.8"/>
      </g>
     </g>
     <g id="text_4">
      <!-- 150 -->
      <g transform="translate(196.665307 316.798437) scale(0.1 -0.1)">
       <use xlink:href="#DejaVuSans-31"/>
       <use xlink:href="#DejaVuSans-35" transform="translate(63.623047 0)"/>
       <use xlink:href="#DejaVuSans-30" transform="translate(127.246094 0)"/>
      </g>
     </g>
    </g>
    <g id="xtick_5">
     <g id="line2d_5">
      <g>
       <use xlink:href="#m4821c05e27" x="252.100844" y="302.2" style="stroke: #000000; stroke-width: 0.8"/>
      </g>
     </g>
     <g id="text_5">
      <!-- 175 -->
      <g transform="translate(242.557094 316.798437) scale(0.1 -0.1)">
       <use xlink:href="#DejaVuSans-31"/>
       <use xlink:href="#DejaVuSans-37" transform="translate(63.623047 0)"/>
       <use xlink:href="#DejaVuSans-35" transform="translate(127.246094 0)"/>
      </g>
     </g>
    </g>
    <g id="xtick_6">
     <g id="line2d_6">
      <g>
       <use xlink:href="#m4821c05e27" x="297.992632" y="302.2" style="stroke: #000000; stroke-width: 0.8"/>
      </g>
     </g>
     <g id="text_6">
      <!-- 200 -->
      <g transform="translate(288.448882 316.798437) scale(0.1 -0.1)">
       <use xlink:href="#DejaVuSans-32"/>
       <use xlink:href="#DejaVuSans-30" transform="translate(63.623047 0)"/>
       <use xlink:href="#DejaVuSans-30" transform="translate(127.246094 0)"/>
      </g>
     </g>
    </g>
    <g id="xtick_7">
     <g id="line2d_7">
      <g>
       <use xlink:href="#m4821c05e27" x="343.88442" y="302.2" style="stroke: #000000; stroke-width: 0.8"/>
      </g>
     </g>
     <g id="text_7">
      <!-- 225 -->
      <g transform="translate(334.34067 316.798437) scale(0.1 -0.1)">
       <use xlink:href="#DejaVuSans-32"/>
       <use xlink:href="#DejaVuSans-32" transform="translate(63.623047 0)"/>
       <use xlink:href="#DejaVuSans-35" transform="translate(127.246094 0)"/>
      </g>
     </g>
    </g>
    <g id="xtick_8">
     <g id="line2d_8">
      <g>
       <use xlink:href="#m4821c05e27" x="389.776207" y="302.2" style="stroke: #000000; stroke-width: 0.8"/>
      </g>
     </g>
     <g id="text_8">
      <!-- 250 -->
      <g transform="translate(380.232457 316.798437) scale(0.1 -0.1)">
       <use xlink:href="#DejaVuSans-32"/>
       <use xlink:href="#DejaVuSans-35" transform="translate(63.623047 0)"/>
       <use xlink:href="#DejaVuSans-30" transform="translate(127.246094 0)"/>
      </g>
     </g>
    </g>
    <g id="xtick_9">
     <g id="line2d_9">
      <g>
       <use xlink:href="#m4821c05e27" x="435.667995" y="302.2" style="stroke: #000000; stroke-width: 0.8"/>
      </g>
     </g>
     <g id="text_9">
      <!-- 275 -->
      <g transform="translate(426.124245 316.798437) scale(0.1 -0.1)">
       <use xlink:href="#DejaVuSans-32"/>
       <use xlink:href="#DejaVuSans-37" transform="translate(63.623047 0)"/>
       <use xlink:href="#DejaVuSans-35" transform="translate(127.246094 0)"/>
      </g>
     </g>
    </g>
    <g id="text_10">
     <!-- $T$ (K) -->
     <g transform="translate(243.142027 330.476562) scale(0.1 -0.1)">
      <defs>
       <path id="DejaVuSans-Oblique-54" d="M 378 4666 
L 4325 4666 
L 4225 4134 
L 2559 4134 
L 1759 0 
L 1125 0 
L 1925 4134 
L 275 4134 
L 378 4666 
z
" transform="scale(0.015625)"/>
       <path id="DejaVuSans-20" transform="scale(0.015625)"/>
       <path id="DejaVuSans-28" d="M 1984 4856 
Q 1566 4138 1362 3434 
Q 1159 2731 1159 2009 
Q 1159 1288 1364 580 
Q 1569 -128 1984 -844 
L 1484 -844 
Q 1016 -109 783 600 
Q 550 1309 550 2009 
Q 550 2706 781 3412 
Q 1013 4119 1484 4856 
L 1984 4856 
z
" transform="scale(0.015625)"/>
       <path id="DejaVuSans-4b" d="M 628 4666 
L 1259 4666 
L 1259 2694 
L 3353 4666 
L 4166 4666 
L 1850 2491 
L 4331 0 
L 3500 0 
L 1259 2247 
L 1259 0 
L 628 0 
L 628 4666 
z
" transform="scale(0.015625)"/>
       <path id="DejaVuSans-29" d="M 513 4856 
L 1013 4856 
Q 1481 4119 1714 3412 
Q 1947 2706 1947 2009 
Q 1947 1309 1714 600 
Q 1481 -109 1013 -844 
L 513 -844 
Q 928 -128 1133 580 
Q 1338 1288 1338 2009 
Q 1338 2731 1133 3434 
Q 928 4138 513 4856 
z
" transform="scale(0.015625)"/>
      </defs>
      <use xlink:href="#DejaVuSans-Oblique-54" transform="translate(0 0.125)"/>
      <use xlink:href="#DejaVuSans-20" transform="translate(61.083984 0.125)"/>
      <use xlink:href="#DejaVuSans-28" transform="translate(92.871094 0.125)"/>
      <use xlink:href="#DejaVuSans-4b" transform="translate(131.884766 0.125)"/>
      <use xlink:href="#DejaVuSans-29" transform="translate(197.460938 0.125)"/>
     </g>
    </g>
   </g>
   <g id="matplotlib.axis_2">
    <g id="ytick_1">
     <g id="line2d_10">
      <defs>
       <path id="m8e6a4bde61" d="M 0 0 
L -3.5 0 
" style="stroke: #000000; stroke-width: 0.8"/>
      </defs>
      <g>
       <use xlink:href="#m8e6a4bde61" x="59.984054" y="298.763486" style="stroke: #000000; stroke-width: 0.8"/>
      </g>
     </g>
     <g id="text_11">
      <!-- $\mathdefault{10^{-6}}$ -->
      <g transform="translate(29.484054 302.562705) scale(0.1 -0.1)">
       <defs>
        <path id="DejaVuSans-2212" d="M 678 2272 
L 4684 2272 
L 4684 1741 
L 678 1741 
L 678 2272 
z
" transform="scale(0.015625)"/>
        <path id="DejaVuSans-36" d="M 2113 2584 
Q 1688 2584 1439 2293 
Q 1191 2003 1191 1497 
Q 1191 994 1439 701 
Q 1688 409 2113 409 
Q 2538 409 2786 701 
Q 3034 994 3034 1497 
Q 3034 2003 2786 2293 
Q 2538 2584 2113 2584 
z
M 3366 4563 
L 3366 3988 
Q 3128 4100 2886 4159 
Q 2644 4219 2406 4219 
Q 1781 4219 1451 3797 
Q 1122 3375 1075 2522 
Q 1259 2794 1537 2939 
Q 1816 3084 2150 3084 
Q 2853 3084 3261 2657 
Q 3669 2231 3669 1497 
Q 3669 778 3244 343 
Q 2819 -91 2113 -91 
Q 1303 -91 875 529 
Q 447 1150 447 2328 
Q 447 3434 972 4092 
Q 1497 4750 2381 4750 
Q 2619 4750 2861 4703 
Q 3103 4656 3366 4563 
z
" transform="scale(0.015625)"/>
       </defs>
       <use xlink:href="#DejaVuSans-31" transform="translate(0 0.765625)"/>
       <use xlink:href="#DejaVuSans-30" transform="translate(63.623047 0.765625)"/>
       <use xlink:href="#DejaVuSans-2212" transform="translate(128.203125 39.046875) scale(0.7)"/>
       <use xlink:href="#DejaVuSans-36" transform="translate(186.855469 39.046875) scale(0.7)"/>
      </g>
     </g>
    </g>
    <g id="ytick_2">
     <g id="line2d_11">
      <g>
       <use xlink:href="#m8e6a4bde61" x="59.984054" y="52.327477" style="stroke: #000000; stroke-width: 0.8"/>
      </g>
     </g>
     <g id="text_12">
      <!-- $\mathdefault{10^{-5}}$ -->
      <g transform="translate(29.484054 56.126696) scale(0.1 -0.1)">
       <use xlink:href="#DejaVuSans-31" transform="translate(0 0.684375)"/>
       <use xlink:href="#DejaVuSans-30" transform="translate(63.623047 0.684375)"/>
       <use xlink:href="#DejaVuSans-2212" transform="translate(128.203125 38.965625) scale(0.7)"/>
       <use xlink:href="#DejaVuSans-35" transform="translate(186.855469 38.965625) scale(0.7)"/>
      </g>
     </g>
    </g>
    <g id="ytick_3">
     <g id="line2d_12">
      <defs>
       <path id="m088ff32649" d="M 0 0 
L -2 0 
" style="stroke: #000000; stroke-width: 0.6"/>
      </defs>
      <g>
       <use xlink:href="#m088ff32649" x="59.984054" y="224.578856" style="stroke: #000000; stroke-width: 0.6"/>
      </g>
     </g>
    </g>
    <g id="ytick_4">
     <g id="line2d_13">
      <g>
       <use xlink:href="#m088ff32649" x="59.984054" y="181.183628" style="stroke: #000000; stroke-width: 0.6"/>
      </g>
     </g>
    </g>
    <g id="ytick_5">
     <g id="line2d_14">
      <g>
       <use xlink:href="#m088ff32649" x="59.984054" y="150.394225" style="stroke: #000000; stroke-width: 0.6"/>
      </g>
     </g>
    </g>
    <g id="ytick_6">
     <g id="line2d_15">
      <g>
       <use xlink:href="#m088ff32649" x="59.984054" y="126.512108" style="stroke: #000000; stroke-width: 0.6"/>
      </g>
     </g>
    </g>
    <g id="ytick_7">
     <g id="line2d_16">
      <g>
       <use xlink:href="#m088ff32649" x="59.984054" y="106.998998" style="stroke: #000000; stroke-width: 0.6"/>
      </g>
     </g>
    </g>
    <g id="ytick_8">
     <g id="line2d_17">
      <g>
       <use xlink:href="#m088ff32649" x="59.984054" y="90.500898" style="stroke: #000000; stroke-width: 0.6"/>
      </g>
     </g>
    </g>
    <g id="ytick_9">
     <g id="line2d_18">
      <g>
       <use xlink:href="#m088ff32649" x="59.984054" y="76.209594" style="stroke: #000000; stroke-width: 0.6"/>
      </g>
     </g>
    </g>
    <g id="ytick_10">
     <g id="line2d_19">
      <g>
       <use xlink:href="#m088ff32649" x="59.984054" y="63.60377" style="stroke: #000000; stroke-width: 0.6"/>
      </g>
     </g>
    </g>
    <g id="text_13">
     <!-- $\alpha(T)$ (m$^2$/s) -->
     <g transform="translate(23.404366 183.85) rotate(-90) scale(0.1 -0.1)">
      <defs>
       <path id="DejaVuSans-Oblique-3b1" d="M 2619 1628 
L 2622 2350 
Q 2625 3088 2069 3091 
Q 1653 3094 1394 2747 
Q 1069 2319 959 1747 
Q 825 1059 994 731 
Q 1169 397 1547 397 
Q 1966 397 2319 1063 
L 2619 1628 
z
M 2166 3578 
Q 3141 3594 3128 2584 
Q 3128 2584 3616 3500 
L 4128 3500 
L 3119 1603 
L 3109 919 
Q 3109 766 3194 638 
Q 3291 488 3391 488 
L 3669 488 
L 3575 0 
L 3228 0 
Q 2934 0 2722 263 
Q 2622 394 2619 669 
Q 2416 334 2066 50 
Q 1900 -81 1453 -78 
Q 722 -72 456 397 
Q 184 884 353 1747 
Q 534 2675 1009 3097 
Q 1544 3569 2166 3578 
z
" transform="scale(0.015625)"/>
       <path id="DejaVuSans-6d" d="M 3328 2828 
Q 3544 3216 3844 3400 
Q 4144 3584 4550 3584 
Q 5097 3584 5394 3201 
Q 5691 2819 5691 2113 
L 5691 0 
L 5113 0 
L 5113 2094 
Q 5113 2597 4934 2840 
Q 4756 3084 4391 3084 
Q 3944 3084 3684 2787 
Q 3425 2491 3425 1978 
L 3425 0 
L 2847 0 
L 2847 2094 
Q 2847 2600 2669 2842 
Q 2491 3084 2119 3084 
Q 1678 3084 1418 2786 
Q 1159 2488 1159 1978 
L 1159 0 
L 581 0 
L 581 3500 
L 1159 3500 
L 1159 2956 
Q 1356 3278 1631 3431 
Q 1906 3584 2284 3584 
Q 2666 3584 2933 3390 
Q 3200 3197 3328 2828 
z
" transform="scale(0.015625)"/>
       <path id="DejaVuSans-2f" d="M 1625 4666 
L 2156 4666 
L 531 -594 
L 0 -594 
L 1625 4666 
z
" transform="scale(0.015625)"/>
       <path id="DejaVuSans-73" d="M 2834 3397 
L 2834 2853 
Q 2591 2978 2328 3040 
Q 2066 3103 1784 3103 
Q 1356 3103 1142 2972 
Q 928 2841 928 2578 
Q 928 2378 1081 2264 
Q 1234 2150 1697 2047 
L 1894 2003 
Q 2506 1872 2764 1633 
Q 3022 1394 3022 966 
Q 3022 478 2636 193 
Q 2250 -91 1575 -91 
Q 1294 -91 989 -36 
Q 684 19 347 128 
L 347 722 
Q 666 556 975 473 
Q 1284 391 1588 391 
Q 1994 391 2212 530 
Q 2431 669 2431 922 
Q 2431 1156 2273 1281 
Q 2116 1406 1581 1522 
L 1381 1569 
Q 847 1681 609 1914 
Q 372 2147 372 2553 
Q 372 3047 722 3315 
Q 1072 3584 1716 3584 
Q 2034 3584 2315 3537 
Q 2597 3491 2834 3397 
z
" transform="scale(0.015625)"/>
      </defs>
      <use xlink:href="#DejaVuSans-Oblique-3b1" transform="translate(0 0.765625)"/>
      <use xlink:href="#DejaVuSans-28" transform="translate(65.917969 0.765625)"/>
      <use xlink:href="#DejaVuSans-Oblique-54" transform="translate(104.931641 0.765625)"/>
      <use xlink:href="#DejaVuSans-29" transform="translate(166.015625 0.765625)"/>
      <use xlink:href="#DejaVuSans-20" transform="translate(205.029297 0.765625)"/>
      <use xlink:href="#DejaVuSans-28" transform="translate(236.816406 0.765625)"/>
      <use xlink:href="#DejaVuSans-6d" transform="translate(275.830078 0.765625)"/>
      <use xlink:href="#DejaVuSans-32" transform="translate(374.199219 39.046875) scale(0.7)"/>
      <use xlink:href="#DejaVuSans-2f" transform="translate(421.469727 0.765625)"/>
      <use xlink:href="#DejaVuSans-73" transform="translate(455.161133 0.765625)"/>
      <use xlink:href="#DejaVuSans-29" transform="translate(507.260742 0.765625)"/>
     </g>
    </g>
   </g>
   <g id="line2d_20">
    <path d="M 77.712051 25.069041 
L 84.838885 34.995833 
L 91.965718 44.474065 
L 99.092551 53.540937 
L 106.219384 62.230492 
L 113.346217 70.580281 
L 120.473051 78.611583 
L 127.599884 86.348878 
L 134.726717 93.81108 
L 143.635258 102.774851 
L 152.5438 111.374729 
L 161.452341 119.634175 
L 170.360883 127.576462 
L 179.269424 135.225632 
L 188.177966 142.605849 
L 197.086507 149.738164 
L 207.776757 157.983203 
L 218.467007 165.919655 
L 229.157257 173.566486 
L 239.847506 180.947463 
L 250.537756 188.070416 
L 263.009714 196.089825 
L 275.481672 203.810637 
L 287.95363 211.2607 
L 300.425589 218.454865 
L 312.897547 225.41195 
L 327.151213 233.078526 
L 341.404879 240.482295 
L 355.658546 247.63244 
L 371.69392 255.397128 
L 385.947587 262.065198 
L 401.982961 269.313072 
L 418.018336 276.328079 
L 432.272002 282.366896 
L 432.272002 282.366896 
" clip-path="url(#p17a3956686)" style="fill: none; stroke: #1f77b4; stroke-width: 1.5; stroke-linecap: square"/>
   </g>
   <g id="line2d_21">
    <path d="M 77.712051 31.844696 
L 83.057176 39.253235 
L 88.402301 46.34681 
L 93.747426 53.148785 
L 100.874259 61.801203 
L 108.001092 70.019155 
L 115.127926 77.844246 
L 122.254759 85.314188 
L 129.381592 92.463215 
L 136.508425 99.32238 
L 143.635258 105.919777 
L 152.5438 113.836726 
L 161.452341 121.427789 
L 170.360883 128.730907 
L 179.269424 135.778756 
L 189.959674 143.938364 
L 200.649924 151.81129 
L 211.340174 159.431337 
L 223.812132 168.039083 
L 236.28409 176.377903 
L 250.537756 185.618088 
L 264.791423 194.586098 
L 280.826797 204.391158 
L 296.862172 213.935685 
L 314.679255 224.280959 
L 334.278046 235.400176 
L 357.440254 248.269196 
L 385.947587 263.839677 
L 432.272002 288.954545 
L 432.272002 288.954545 
" clip-path="url(#p17a3956686)" style="fill: none; stroke-dasharray: 7.4,3.2; stroke-dashoffset: 0; stroke: #000000; stroke-width: 2"/>
   </g>
   <g id="patch_3">
    <path d="M 59.984054 302.2 
L 59.984054 10.8 
" style="fill: none; stroke: #000000; stroke-width: 0.8; stroke-linejoin: miter; stroke-linecap: square"/>
   </g>
   <g id="patch_4">
    <path d="M 450 302.2 
L 450 10.8 
" style="fill: none; stroke: #000000; stroke-width: 0.8; stroke-linejoin: miter; stroke-linecap: square"/>
   </g>
   <g id="patch_5">
    <path d="M 59.984054 302.2 
L 450 302.2 
" style="fill: none; stroke: #000000; stroke-width: 0.8; stroke-linejoin: miter; stroke-linecap: square"/>
   </g>
   <g id="patch_6">
    <path d="M 59.984054 10.8 
L 450 10.8 
" style="fill: none; stroke: #000000; stroke-width: 0.8; stroke-linejoin: miter; stroke-linecap: square"/>
   </g>
   <g id="legend_1">
    <g id="patch_7">
     <path d="M 214.60625 62.834375 
L 443 62.834375 
Q 445 62.834375 445 60.834375 
L 445 17.8 
Q 445 15.8 443 15.8 
L 214.60625 15.8 
Q 212.60625 15.8 212.60625 17.8 
L 212.60625 60.834375 
Q 212.60625 62.834375 214.60625 62.834375 
z
" style="fill: #ffffff; opacity: 0.8; stroke: #cccccc; stroke-linejoin: miter"/>
    </g>
    <g id="patch_8">
     <path d="M 216.60625 27.398438 
L 236.60625 27.398438 
L 236.60625 20.398438 
L 216.60625 20.398438 
z
" style="fill: #1f77b4; fill-opacity: 0.3"/>
    </g>
    <g id="text_14">
     <!-- 95% Credible Interval (parameter-only) -->
     <g transform="translate(244.60625 27.398438) scale(0.1 -0.1)">
      <defs>
       <path id="DejaVuSans-39" d="M 703 97 
L 703 672 
Q 941 559 1184 500 
Q 1428 441 1663 441 
Q 2288 441 2617 861 
Q 2947 1281 2994 2138 
Q 2813 1869 2534 1725 
Q 2256 1581 1919 1581 
Q 1219 1581 811 2004 
Q 403 2428 403 3163 
Q 403 3881 828 4315 
Q 1253 4750 1959 4750 
Q 2769 4750 3195 4129 
Q 3622 3509 3622 2328 
Q 3622 1225 3098 567 
Q 2575 -91 1691 -91 
Q 1453 -91 1209 -44 
Q 966 3 703 97 
z
M 1959 2075 
Q 2384 2075 2632 2365 
Q 2881 2656 2881 3163 
Q 2881 3666 2632 3958 
Q 2384 4250 1959 4250 
Q 1534 4250 1286 3958 
Q 1038 3666 1038 3163 
Q 1038 2656 1286 2365 
Q 1534 2075 1959 2075 
z
" transform="scale(0.015625)"/>
       <path id="DejaVuSans-25" d="M 4653 2053 
Q 4381 2053 4226 1822 
Q 4072 1591 4072 1178 
Q 4072 772 4226 539 
Q 4381 306 4653 306 
Q 4919 306 5073 539 
Q 5228 772 5228 1178 
Q 5228 1588 5073 1820 
Q 4919 2053 4653 2053 
z
M 4653 2450 
Q 5147 2450 5437 2106 
Q 5728 1763 5728 1178 
Q 5728 594 5436 251 
Q 5144 -91 4653 -91 
Q 4153 -91 3862 251 
Q 3572 594 3572 1178 
Q 3572 1766 3864 2108 
Q 4156 2450 4653 2450 
z
M 1428 4353 
Q 1159 4353 1004 4120 
Q 850 3888 850 3481 
Q 850 3069 1003 2837 
Q 1156 2606 1428 2606 
Q 1700 2606 1854 2837 
Q 2009 3069 2009 3481 
Q 2009 3884 1853 4118 
Q 1697 4353 1428 4353 
z
M 4250 4750 
L 4750 4750 
L 1831 -91 
L 1331 -91 
L 4250 4750 
z
M 1428 4750 
Q 1922 4750 2215 4408 
Q 2509 4066 2509 3481 
Q 2509 2891 2217 2550 
Q 1925 2209 1428 2209 
Q 931 2209 642 2551 
Q 353 2894 353 3481 
Q 353 4063 643 4406 
Q 934 4750 1428 4750 
z
" transform="scale(0.015625)"/>
       <path id="DejaVuSans-43" d="M 4122 4306 
L 4122 3641 
Q 3803 3938 3442 4084 
Q 3081 4231 2675 4231 
Q 1875 4231 1450 3742 
Q 1025 3253 1025 2328 
Q 1025 1406 1450 917 
Q 1875 428 2675 428 
Q 3081 428 3442 575 
Q 3803 722 4122 1019 
L 4122 359 
Q 3791 134 3420 21 
Q 3050 -91 2638 -91 
Q 1578 -91 968 557 
Q 359 1206 359 2328 
Q 359 3453 968 4101 
Q 1578 4750 2638 4750 
Q 3056 4750 3426 4639 
Q 3797 4528 4122 4306 
z
" transform="scale(0.015625)"/>
       <path id="DejaVuSans-72" d="M 2631 2963 
Q 2534 3019 2420 3045 
Q 2306 3072 2169 3072 
Q 1681 3072 1420 2755 
Q 1159 2438 1159 1844 
L 1159 0 
L 581 0 
L 581 3500 
L 1159 3500 
L 1159 2956 
Q 1341 3275 1631 3429 
Q 1922 3584 2338 3584 
Q 2397 3584 2469 3576 
Q 2541 3569 2628 3553 
L 2631 2963 
z
" transform="scale(0.015625)"/>
       <path id="DejaVuSans-65" d="M 3597 1894 
L 3597 1613 
L 953 1613 
Q 991 1019 1311 708 
Q 1631 397 2203 397 
Q 2534 397 2845 478 
Q 3156 559 3463 722 
L 3463 178 
Q 3153 47 2828 -22 
Q 2503 -91 2169 -91 
Q 1331 -91 842 396 
Q 353 884 353 1716 
Q 353 2575 817 3079 
Q 1281 3584 2069 3584 
Q 2775 3584 3186 3129 
Q 3597 2675 3597 1894 
z
M 3022 2063 
Q 3016 2534 2758 2815 
Q 2500 3097 2075 3097 
Q 1594 3097 1305 2825 
Q 1016 2553 972 2059 
L 3022 2063 
z
" transform="scale(0.015625)"/>
       <path id="DejaVuSans-64" d="M 2906 2969 
L 2906 4863 
L 3481 4863 
L 3481 0 
L 2906 0 
L 2906 525 
Q 2725 213 2448 61 
Q 2172 -91 1784 -91 
Q 1150 -91 751 415 
Q 353 922 353 1747 
Q 353 2572 751 3078 
Q 1150 3584 1784 3584 
Q 2172 3584 2448 3432 
Q 2725 3281 2906 2969 
z
M 947 1747 
Q 947 1113 1208 752 
Q 1469 391 1925 391 
Q 2381 391 2643 752 
Q 2906 1113 2906 1747 
Q 2906 2381 2643 2742 
Q 2381 3103 1925 3103 
Q 1469 3103 1208 2742 
Q 947 2381 947 1747 
z
" transform="scale(0.015625)"/>
       <path id="DejaVuSans-69" d="M 603 3500 
L 1178 3500 
L 1178 0 
L 603 0 
L 603 3500 
z
M 603 4863 
L 1178 4863 
L 1178 4134 
L 603 4134 
L 603 4863 
z
" transform="scale(0.015625)"/>
       <path id="DejaVuSans-62" d="M 3116 1747 
Q 3116 2381 2855 2742 
Q 2594 3103 2138 3103 
Q 1681 3103 1420 2742 
Q 1159 2381 1159 1747 
Q 1159 1113 1420 752 
Q 1681 391 2138 391 
Q 2594 391 2855 752 
Q 3116 1113 3116 1747 
z
M 1159 2969 
Q 1341 3281 1617 3432 
Q 1894 3584 2278 3584 
Q 2916 3584 3314 3078 
Q 3713 2572 3713 1747 
Q 3713 922 3314 415 
Q 2916 -91 2278 -91 
Q 1894 -91 1617 61 
Q 1341 213 1159 525 
L 1159 0 
L 581 0 
L 581 4863 
L 1159 4863 
L 1159 2969 
z
" transform="scale(0.015625)"/>
       <path id="DejaVuSans-6c" d="M 603 4863 
L 1178 4863 
L 1178 0 
L 603 0 
L 603 4863 
z
" transform="scale(0.015625)"/>
       <path id="DejaVuSans-49" d="M 628 4666 
L 1259 4666 
L 1259 0 
L 628 0 
L 628 4666 
z
" transform="scale(0.015625)"/>
       <path id="DejaVuSans-6e" d="M 3513 2113 
L 3513 0 
L 2938 0 
L 2938 2094 
Q 2938 2591 2744 2837 
Q 2550 3084 2163 3084 
Q 1697 3084 1428 2787 
Q 1159 2491 1159 1978 
L 1159 0 
L 581 0 
L 581 3500 
L 1159 3500 
L 1159 2956 
Q 1366 3272 1645 3428 
Q 1925 3584 2291 3584 
Q 2894 3584 3203 3211 
Q 3513 2838 3513 2113 
z
" transform="scale(0.015625)"/>
       <path id="DejaVuSans-74" d="M 1172 4494 
L 1172 3500 
L 2356 3500 
L 2356 3053 
L 1172 3053 
L 1172 1153 
Q 1172 725 1289 603 
Q 1406 481 1766 481 
L 2356 481 
L 2356 0 
L 1766 0 
Q 1100 0 847 248 
Q 594 497 594 1153 
L 594 3053 
L 172 3053 
L 172 3500 
L 594 3500 
L 594 4494 
L 1172 4494 
z
" transform="scale(0.015625)"/>
       <path id="DejaVuSans-76" d="M 191 3500 
L 800 3500 
L 1894 563 
L 2988 3500 
L 3597 3500 
L 2284 0 
L 1503 0 
L 191 3500 
z
" transform="scale(0.015625)"/>
       <path id="DejaVuSans-61" d="M 2194 1759 
Q 1497 1759 1228 1600 
Q 959 1441 959 1056 
Q 959 750 1161 570 
Q 1363 391 1709 391 
Q 2188 391 2477 730 
Q 2766 1069 2766 1631 
L 2766 1759 
L 2194 1759 
z
M 3341 1997 
L 3341 0 
L 2766 0 
L 2766 531 
Q 2569 213 2275 61 
Q 1981 -91 1556 -91 
Q 1019 -91 701 211 
Q 384 513 384 1019 
Q 384 1609 779 1909 
Q 1175 2209 1959 2209 
L 2766 2209 
L 2766 2266 
Q 2766 2663 2505 2880 
Q 2244 3097 1772 3097 
Q 1472 3097 1187 3025 
Q 903 2953 641 2809 
L 641 3341 
Q 956 3463 1253 3523 
Q 1550 3584 1831 3584 
Q 2591 3584 2966 3190 
Q 3341 2797 3341 1997 
z
" transform="scale(0.015625)"/>
       <path id="DejaVuSans-70" d="M 1159 525 
L 1159 -1331 
L 581 -1331 
L 581 3500 
L 1159 3500 
L 1159 2969 
Q 1341 3281 1617 3432 
Q 1894 3584 2278 3584 
Q 2916 3584 3314 3078 
Q 3713 2572 3713 1747 
Q 3713 922 3314 415 
Q 2916 -91 2278 -91 
Q 1894 -91 1617 61 
Q 1341 213 1159 525 
z
M 3116 1747 
Q 3116 2381 2855 2742 
Q 2594 3103 2138 3103 
Q 1681 3103 1420 2742 
Q 1159 2381 1159 1747 
Q 1159 1113 1420 752 
Q 1681 391 2138 391 
Q 2594 391 2855 752 
Q 3116 1113 3116 1747 
z
" transform="scale(0.015625)"/>
       <path id="DejaVuSans-2d" d="M 313 2009 
L 1997 2009 
L 1997 1497 
L 313 1497 
L 313 2009 
z
" transform="scale(0.015625)"/>
       <path id="DejaVuSans-6f" d="M 1959 3097 
Q 1497 3097 1228 2736 
Q 959 2375 959 1747 
Q 959 1119 1226 758 
Q 1494 397 1959 397 
Q 2419 397 2687 759 
Q 2956 1122 2956 1747 
Q 2956 2369 2687 2733 
Q 2419 3097 1959 3097 
z
M 1959 3584 
Q 2709 3584 3137 3096 
Q 3566 2609 3566 1747 
Q 3566 888 3137 398 
Q 2709 -91 1959 -91 
Q 1206 -91 779 398 
Q 353 888 353 1747 
Q 353 2609 779 3096 
Q 1206 3584 1959 3584 
z
" transform="scale(0.015625)"/>
       <path id="DejaVuSans-79" d="M 2059 -325 
Q 1816 -950 1584 -1140 
Q 1353 -1331 966 -1331 
L 506 -1331 
L 506 -850 
L 844 -850 
Q 1081 -850 1212 -737 
Q 1344 -625 1503 -206 
L 1606 56 
L 191 3500 
L 800 3500 
L 1894 763 
L 2988 3500 
L 3597 3500 
L 2059 -325 
z
" transform="scale(0.015625)"/>
      </defs>
      <use xlink:href="#DejaVuSans-39"/>
      <use xlink:href="#DejaVuSans-35" transform="translate(63.623047 0)"/>
      <use xlink:href="#DejaVuSans-25" transform="translate(127.246094 0)"/>
      <use xlink:href="#DejaVuSans-20" transform="translate(222.265625 0)"/>
      <use xlink:href="#DejaVuSans-43" transform="translate(254.052734 0)"/>
      <use xlink:href="#DejaVuSans-72" transform="translate(323.876953 0)"/>
      <use xlink:href="#DejaVuSans-65" transform="translate(362.740234 0)"/>
      <use xlink:href="#DejaVuSans-64" transform="translate(424.263672 0)"/>
      <use xlink:href="#DejaVuSans-69" transform="translate(487.740234 0)"/>
      <use xlink:href="#DejaVuSans-62" transform="translate(515.523438 0)"/>
      <use xlink:href="#DejaVuSans-6c" transform="translate(579 0)"/>
      <use xlink:href="#DejaVuSans-65" transform="translate(606.783203 0)"/>
      <use xlink:href="#DejaVuSans-20" transform="translate(668.306641 0)"/>
      <use xlink:href="#DejaVuSans-49" transform="translate(700.09375 0)"/>
      <use xlink:href="#DejaVuSans-6e" transform="translate(729.585938 0)"/>
      <use xlink:href="#DejaVuSans-74" transform="translate(792.964844 0)"/>
      <use xlink:href="#DejaVuSans-65" transform="translate(832.173828 0)"/>
      <use xlink:href="#DejaVuSans-72" transform="translate(893.697266 0)"/>
      <use xlink:href="#DejaVuSans-76" transform="translate(934.810547 0)"/>
      <use xlink:href="#DejaVuSans-61" transform="translate(993.990234 0)"/>
      <use xlink:href="#DejaVuSans-6c" transform="translate(1055.269531 0)"/>
      <use xlink:href="#DejaVuSans-20" transform="translate(1083.052734 0)"/>
      <use xlink:href="#DejaVuSans-28" transform="translate(1114.839844 0)"/>
      <use xlink:href="#DejaVuSans-70" transform="translate(1153.853516 0)"/>
      <use xlink:href="#DejaVuSans-61" transform="translate(1217.330078 0)"/>
      <use xlink:href="#DejaVuSans-72" transform="translate(1278.609375 0)"/>
      <use xlink:href="#DejaVuSans-61" transform="translate(1319.722656 0)"/>
      <use xlink:href="#DejaVuSans-6d" transform="translate(1381.001953 0)"/>
      <use xlink:href="#DejaVuSans-65" transform="translate(1478.414062 0)"/>
      <use xlink:href="#DejaVuSans-74" transform="translate(1539.9375 0)"/>
      <use xlink:href="#DejaVuSans-65" transform="translate(1579.146484 0)"/>
      <use xlink:href="#DejaVuSans-72" transform="translate(1640.669922 0)"/>
      <use xlink:href="#DejaVuSans-2d" transform="translate(1675.408203 0)"/>
      <use xlink:href="#DejaVuSans-6f" transform="translate(1713.367188 0)"/>
      <use xlink:href="#DejaVuSans-6e" transform="translate(1774.548828 0)"/>
      <use xlink:href="#DejaVuSans-6c" transform="translate(1837.927734 0)"/>
      <use xlink:href="#DejaVuSans-79" transform="translate(1865.710938 0)"/>
      <use xlink:href="#DejaVuSans-29" transform="translate(1924.890625 0)"/>
     </g>
    </g>
    <g id="line2d_22">
     <path d="M 216.60625 38.576563 
L 226.60625 38.576563 
L 236.60625 38.576563 
" style="fill: none; stroke: #1f77b4; stroke-width: 1.5; stroke-linecap: square"/>
    </g>
    <g id="text_15">
     <!-- Powerlaw (median) -->
     <g transform="translate(244.60625 42.076563) scale(0.1 -0.1)">
      <defs>
       <path id="DejaVuSans-50" d="M 1259 4147 
L 1259 2394 
L 2053 2394 
Q 2494 2394 2734 2622 
Q 2975 2850 2975 3272 
Q 2975 3691 2734 3919 
Q 2494 4147 2053 4147 
L 1259 4147 
z
M 628 4666 
L 2053 4666 
Q 2838 4666 3239 4311 
Q 3641 3956 3641 3272 
Q 3641 2581 3239 2228 
Q 2838 1875 2053 1875 
L 1259 1875 
L 1259 0 
L 628 0 
L 628 4666 
z
" transform="scale(0.015625)"/>
       <path id="DejaVuSans-77" d="M 269 3500 
L 844 3500 
L 1563 769 
L 2278 3500 
L 2956 3500 
L 3675 769 
L 4391 3500 
L 4966 3500 
L 4050 0 
L 3372 0 
L 2619 2869 
L 1863 0 
L 1184 0 
L 269 3500 
z
" transform="scale(0.015625)"/>
      </defs>
      <use xlink:href="#DejaVuSans-50"/>
      <use xlink:href="#DejaVuSans-6f" transform="translate(56.677734 0)"/>
      <use xlink:href="#DejaVuSans-77" transform="translate(117.859375 0)"/>
      <use xlink:href="#DejaVuSans-65" transform="translate(199.646484 0)"/>
      <use xlink:href="#DejaVuSans-72" transform="translate(261.169922 0)"/>
      <use xlink:href="#DejaVuSans-6c" transform="translate(302.283203 0)"/>
      <use xlink:href="#DejaVuSans-61" transform="translate(330.066406 0)"/>
      <use xlink:href="#DejaVuSans-77" transform="translate(391.345703 0)"/>
      <use xlink:href="#DejaVuSans-20" transform="translate(473.132812 0)"/>
      <use xlink:href="#DejaVuSans-28" transform="translate(504.919922 0)"/>
      <use xlink:href="#DejaVuSans-6d" transform="translate(543.933594 0)"/>
      <use xlink:href="#DejaVuSans-65" transform="translate(641.345703 0)"/>
      <use xlink:href="#DejaVuSans-64" transform="translate(702.869141 0)"/>
      <use xlink:href="#DejaVuSans-69" transform="translate(766.345703 0)"/>
      <use xlink:href="#DejaVuSans-61" transform="translate(794.128906 0)"/>
      <use xlink:href="#DejaVuSans-6e" transform="translate(855.408203 0)"/>
      <use xlink:href="#DejaVuSans-29" transform="translate(918.787109 0)"/>
     </g>
    </g>
    <g id="line2d_23">
     <path d="M 216.60625 53.254687 
L 226.60625 53.254687 
L 236.60625 53.254687 
" style="fill: none; stroke-dasharray: 7.4,3.2; stroke-dashoffset: 0; stroke: #000000; stroke-width: 2"/>
    </g>
    <g id="text_16">
     <!-- Ulamec (2007) - Truth -->
     <g transform="translate(244.60625 56.754687) scale(0.1 -0.1)">
      <defs>
       <path id="DejaVuSans-55" d="M 556 4666 
L 1191 4666 
L 1191 1831 
Q 1191 1081 1462 751 
Q 1734 422 2344 422 
Q 2950 422 3222 751 
Q 3494 1081 3494 1831 
L 3494 4666 
L 4128 4666 
L 4128 1753 
Q 4128 841 3676 375 
Q 3225 -91 2344 -91 
Q 1459 -91 1007 375 
Q 556 841 556 1753 
L 556 4666 
z
" transform="scale(0.015625)"/>
       <path id="DejaVuSans-63" d="M 3122 3366 
L 3122 2828 
Q 2878 2963 2633 3030 
Q 2388 3097 2138 3097 
Q 1578 3097 1268 2742 
Q 959 2388 959 1747 
Q 959 1106 1268 751 
Q 1578 397 2138 397 
Q 2388 397 2633 464 
Q 2878 531 3122 666 
L 3122 134 
Q 2881 22 2623 -34 
Q 2366 -91 2075 -91 
Q 1284 -91 818 406 
Q 353 903 353 1747 
Q 353 2603 823 3093 
Q 1294 3584 2113 3584 
Q 2378 3584 2631 3529 
Q 2884 3475 3122 3366 
z
" transform="scale(0.015625)"/>
       <path id="DejaVuSans-54" d="M -19 4666 
L 3928 4666 
L 3928 4134 
L 2272 4134 
L 2272 0 
L 1638 0 
L 1638 4134 
L -19 4134 
L -19 4666 
z
" transform="scale(0.015625)"/>
       <path id="DejaVuSans-75" d="M 544 1381 
L 544 3500 
L 1119 3500 
L 1119 1403 
Q 1119 906 1312 657 
Q 1506 409 1894 409 
Q 2359 409 2629 706 
Q 2900 1003 2900 1516 
L 2900 3500 
L 3475 3500 
L 3475 0 
L 2900 0 
L 2900 538 
Q 2691 219 2414 64 
Q 2138 -91 1772 -91 
Q 1169 -91 856 284 
Q 544 659 544 1381 
z
M 1991 3584 
L 1991 3584 
z
" transform="scale(0.015625)"/>
       <path id="DejaVuSans-68" d="M 3513 2113 
L 3513 0 
L 2938 0 
L 2938 2094 
Q 2938 2591 2744 2837 
Q 2550 3084 2163 3084 
Q 1697 3084 1428 2787 
Q 1159 2491 1159 1978 
L 1159 0 
L 581 0 
L 581 4863 
L 1159 4863 
L 1159 2956 
Q 1366 3272 1645 3428 
Q 1925 3584 2291 3584 
Q 2894 3584 3203 3211 
Q 3513 2838 3513 2113 
z
" transform="scale(0.015625)"/>
      </defs>
      <use xlink:href="#DejaVuSans-55"/>
      <use xlink:href="#DejaVuSans-6c" transform="translate(73.193359 0)"/>
      <use xlink:href="#DejaVuSans-61" transform="translate(100.976562 0)"/>
      <use xlink:href="#DejaVuSans-6d" transform="translate(162.255859 0)"/>
      <use xlink:href="#DejaVuSans-65" transform="translate(259.667969 0)"/>
      <use xlink:href="#DejaVuSans-63" transform="translate(321.191406 0)"/>
      <use xlink:href="#DejaVuSans-20" transform="translate(376.171875 0)"/>
      <use xlink:href="#DejaVuSans-28" transform="translate(407.958984 0)"/>
      <use xlink:href="#DejaVuSans-32" transform="translate(446.972656 0)"/>
      <use xlink:href="#DejaVuSans-30" transform="translate(510.595703 0)"/>
      <use xlink:href="#DejaVuSans-30" transform="translate(574.21875 0)"/>
      <use xlink:href="#DejaVuSans-37" transform="translate(637.841797 0)"/>
      <use xlink:href="#DejaVuSans-29" transform="translate(701.464844 0)"/>
      <use xlink:href="#DejaVuSans-20" transform="translate(740.478516 0)"/>
      <use xlink:href="#DejaVuSans-2d" transform="translate(772.265625 0)"/>
      <use xlink:href="#DejaVuSans-20" transform="translate(808.349609 0)"/>
      <use xlink:href="#DejaVuSans-54" transform="translate(840.136719 0)"/>
      <use xlink:href="#DejaVuSans-72" transform="translate(886.470703 0)"/>
      <use xlink:href="#DejaVuSans-75" transform="translate(927.583984 0)"/>
      <use xlink:href="#DejaVuSans-74" transform="translate(990.962891 0)"/>
      <use xlink:href="#DejaVuSans-68" transform="translate(1030.171875 0)"/>
     </g>
    </g>
   </g>
  </g>
 </g>
 <defs>
  <clipPath id="p17a3956686">
   <rect x="59.984054" y="10.8" width="390.015946" height="291.4"/>
  </clipPath>
 </defs>
</svg>
